<?xml version="1.0" encoding="UTF-8" standalone="no"?>
<!DOCTYPE svg PUBLIC "-//W3C//DTD SVG 1.1//EN"
 "http://www.w3.org/Graphics/SVG/1.1/DTD/svg11.dtd">
<!-- Generated by graphviz version 2.40.1 (20161225.0304)
 -->
<!-- Title: oneDegreeRelationshipsDiagram Pages: 1 -->
<svg width="248pt" height="294pt"
 viewBox="0.00 0.00 248.00 294.20" xmlns="http://www.w3.org/2000/svg" xmlns:xlink="http://www.w3.org/1999/xlink">
<g id="graph0" class="graph" transform="scale(1 1) rotate(0) translate(4 290.2)">
<title>oneDegreeRelationshipsDiagram</title>
<polygon fill="#ffffff" stroke="transparent" points="-4,4 -4,-290.2 244,-290.2 244,4 -4,4"/>
<text text-anchor="middle" x="72.4936" y="-7.3" font-family="Helvetica,sans-Serif" font-size="11.00" fill="#000000">Generated by SchemaSpy</text>
<!-- c_analysis_ref -->
<g id="node1" class="node">
<title>c_analysis_ref</title>
<g id="a_node1"><a xlink:href="../../tables/c_analysis_ref.html" xlink:title="c_analysis_ref" target="_top">
<polygon fill="#ffffff" stroke="transparent" points="8,-38.2 8,-282.2 232,-282.2 232,-38.2 8,-38.2"/>
<polygon fill="#f5f5f5" stroke="transparent" points="10,-257.2 10,-280.2 230,-280.2 230,-257.2 10,-257.2"/>
<polygon fill="none" stroke="#000000" points="10,-257.2 10,-280.2 230,-280.2 230,-257.2 10,-257.2"/>
<text text-anchor="start" x="15" y="-265.8" font-family="Helvetica,sans-Serif" font-weight="bold" font-size="11.00" fill="#000000">c_analysis_ref</text>
<text text-anchor="start" x="195.0437" y="-265.3" font-family="Helvetica,sans-Serif" font-size="11.00" fill="#000000">[table]</text>
<polygon fill="none" stroke="#000000" points="10,-235.2 10,-257.2 168,-257.2 168,-235.2 10,-235.2"/>
<text text-anchor="start" x="30" y="-242.3" font-family="Helvetica,sans-Serif" font-size="11.00" fill="#000000">analysis_id</text>
<polygon fill="none" stroke="#000000" points="168,-235.2 168,-257.2 230,-257.2 230,-235.2 168,-235.2"/>
<text text-anchor="start" x="170.878" y="-242.9" font-family="Helvetica,sans-Serif" font-size="11.00" fill="#000000">unknown[0]</text>
<polygon fill="none" stroke="#000000" points="10,-213.2 10,-235.2 168,-235.2 168,-213.2 10,-213.2"/>
<text text-anchor="start" x="30" y="-220.3" font-family="Helvetica,sans-Serif" font-size="11.00" fill="#000000">analysis_name</text>
<polygon fill="none" stroke="#000000" points="168,-213.2 168,-235.2 230,-235.2 230,-213.2 168,-213.2"/>
<text text-anchor="start" x="170.878" y="-220.9" font-family="Helvetica,sans-Serif" font-size="11.00" fill="#000000">unknown[0]</text>
<polygon fill="none" stroke="#000000" points="10,-191.2 10,-213.2 168,-213.2 168,-191.2 10,-191.2"/>
<text text-anchor="start" x="30" y="-198.3" font-family="Helvetica,sans-Serif" font-size="11.00" fill="#000000">database_id</text>
<polygon fill="none" stroke="#000000" points="168,-191.2 168,-213.2 230,-213.2 230,-191.2 168,-191.2"/>
<text text-anchor="start" x="170.878" y="-198.9" font-family="Helvetica,sans-Serif" font-size="11.00" fill="#000000">unknown[0]</text>
<polygon fill="none" stroke="#000000" points="10,-169.2 10,-191.2 168,-191.2 168,-169.2 10,-169.2"/>
<text text-anchor="start" x="30" y="-176.3" font-family="Helvetica,sans-Serif" font-size="11.00" fill="#000000">domain_id</text>
<polygon fill="none" stroke="#000000" points="168,-169.2 168,-191.2 230,-191.2 230,-169.2 168,-169.2"/>
<text text-anchor="start" x="170.878" y="-176.9" font-family="Helvetica,sans-Serif" font-size="11.00" fill="#000000">unknown[0]</text>
<polygon fill="none" stroke="#000000" points="10,-147.2 10,-169.2 168,-169.2 168,-147.2 10,-147.2"/>
<text text-anchor="start" x="30" y="-154.3" font-family="Helvetica,sans-Serif" font-size="11.00" fill="#000000">end_day</text>
<polygon fill="none" stroke="#000000" points="168,-147.2 168,-169.2 230,-169.2 230,-147.2 168,-147.2"/>
<text text-anchor="start" x="170.878" y="-154.9" font-family="Helvetica,sans-Serif" font-size="11.00" fill="#000000">unknown[0]</text>
<polygon fill="none" stroke="#000000" points="10,-125.2 10,-147.2 168,-147.2 168,-125.2 10,-125.2"/>
<text text-anchor="start" x="30" y="-132.3" font-family="Helvetica,sans-Serif" font-size="11.00" fill="#000000">is_binary</text>
<polygon fill="none" stroke="#000000" points="168,-125.2 168,-147.2 230,-147.2 230,-125.2 168,-125.2"/>
<text text-anchor="start" x="170.878" y="-132.9" font-family="Helvetica,sans-Serif" font-size="11.00" fill="#000000">unknown[0]</text>
<polygon fill="none" stroke="#000000" points="10,-103.2 10,-125.2 168,-125.2 168,-103.2 10,-103.2"/>
<text text-anchor="start" x="30" y="-110.3" font-family="Helvetica,sans-Serif" font-size="11.00" fill="#000000">missing_means_zero</text>
<polygon fill="none" stroke="#000000" points="168,-103.2 168,-125.2 230,-125.2 230,-103.2 168,-103.2"/>
<text text-anchor="start" x="170.878" y="-110.9" font-family="Helvetica,sans-Serif" font-size="11.00" fill="#000000">unknown[0]</text>
<polygon fill="none" stroke="#000000" points="10,-81.2 10,-103.2 168,-103.2 168,-81.2 10,-81.2"/>
<text text-anchor="start" x="30" y="-88.3" font-family="Helvetica,sans-Serif" font-size="11.00" fill="#000000">setting_id</text>
<polygon fill="none" stroke="#000000" points="168,-81.2 168,-103.2 230,-103.2 230,-81.2 168,-81.2"/>
<text text-anchor="start" x="170.878" y="-88.9" font-family="Helvetica,sans-Serif" font-size="11.00" fill="#000000">unknown[0]</text>
<polygon fill="none" stroke="#000000" points="10,-59.2 10,-81.2 168,-81.2 168,-59.2 10,-59.2"/>
<text text-anchor="start" x="30" y="-66.3" font-family="Helvetica,sans-Serif" font-size="11.00" fill="#000000">start_day</text>
<polygon fill="none" stroke="#000000" points="168,-59.2 168,-81.2 230,-81.2 230,-59.2 168,-59.2"/>
<text text-anchor="start" x="170.878" y="-66.9" font-family="Helvetica,sans-Serif" font-size="11.00" fill="#000000">unknown[0]</text>
<polygon fill="#ffffff" stroke="transparent" points="10,-40.2 10,-59.2 80,-59.2 80,-40.2 10,-40.2"/>
<polygon fill="none" stroke="#000000" points="10,-40.2 10,-59.2 80,-59.2 80,-40.2 10,-40.2"/>
<text text-anchor="start" x="13" y="-46.3" font-family="Helvetica,sans-Serif" font-size="11.00" fill="#000000">&lt; 0</text>
<polygon fill="#ffffff" stroke="transparent" points="80,-40.2 80,-59.2 168,-59.2 168,-40.2 80,-40.2"/>
<polygon fill="none" stroke="#000000" points="80,-40.2 80,-59.2 168,-59.2 168,-40.2 80,-40.2"/>
<text text-anchor="start" x="132.6105" y="-46.3" font-family="Helvetica,sans-Serif" font-size="11.00" fill="#000000">0 rows</text>
<polygon fill="#ffffff" stroke="transparent" points="168,-40.2 168,-59.2 230,-59.2 230,-40.2 168,-40.2"/>
<polygon fill="none" stroke="#000000" points="168,-40.2 168,-59.2 230,-59.2 230,-40.2 168,-40.2"/>
<text text-anchor="start" x="211.4053" y="-46.3" font-family="Helvetica,sans-Serif" font-size="11.00" fill="#000000">0 &gt;</text>
<polygon fill="none" stroke="#000000" stroke-width="2" points="9,-39.2 9,-281.2 231,-281.2 231,-39.2 9,-39.2"/>
</a>
</g>
</g>
</g>
</svg>
