<?xml version="1.0" encoding="UTF-8" standalone="no"?>
<!DOCTYPE svg PUBLIC "-//W3C//DTD SVG 1.1//EN"
 "http://www.w3.org/Graphics/SVG/1.1/DTD/svg11.dtd">
<!-- Generated by graphviz version 2.40.1 (20161225.0304)
 -->
<!-- Title: oneDegreeRelationshipsDiagram Pages: 1 -->
<svg width="288pt" height="338pt"
 viewBox="0.00 0.00 288.00 338.20" xmlns="http://www.w3.org/2000/svg" xmlns:xlink="http://www.w3.org/1999/xlink">
<g id="graph0" class="graph" transform="scale(1 1) rotate(0) translate(4 334.2)">
<title>oneDegreeRelationshipsDiagram</title>
<polygon fill="#ffffff" stroke="transparent" points="-4,4 -4,-334.2 284,-334.2 284,4 -4,4"/>
<text text-anchor="middle" x="72.4936" y="-7.3" font-family="Helvetica,sans-Serif" font-size="11.00" fill="#000000">Generated by SchemaSpy</text>
<!-- c_case_settings -->
<g id="node1" class="node">
<title>c_case_settings</title>
<g id="a_node1"><a xlink:href="../../tables/c_case_settings.html" xlink:title="c_case_settings" target="_top">
<polygon fill="#ffffff" stroke="transparent" points="8,-38.2 8,-326.2 272,-326.2 272,-38.2 8,-38.2"/>
<polygon fill="#f5f5f5" stroke="transparent" points="10,-301.2 10,-324.2 270,-324.2 270,-301.2 10,-301.2"/>
<polygon fill="none" stroke="#000000" points="10,-301.2 10,-324.2 270,-324.2 270,-301.2 10,-301.2"/>
<text text-anchor="start" x="15" y="-309.8" font-family="Helvetica,sans-Serif" font-weight="bold" font-size="11.00" fill="#000000">c_case_settings</text>
<text text-anchor="start" x="235.0437" y="-309.3" font-family="Helvetica,sans-Serif" font-size="11.00" fill="#000000">[table]</text>
<polygon fill="none" stroke="#000000" points="10,-279.2 10,-301.2 208,-301.2 208,-279.2 10,-279.2"/>
<text text-anchor="start" x="30" y="-286.3" font-family="Helvetica,sans-Serif" font-size="11.00" fill="#000000">characterization_case_id</text>
<polygon fill="none" stroke="#000000" points="208,-279.2 208,-301.2 270,-301.2 270,-279.2 208,-279.2"/>
<text text-anchor="start" x="210.878" y="-286.9" font-family="Helvetica,sans-Serif" font-size="11.00" fill="#000000">unknown[0]</text>
<polygon fill="none" stroke="#000000" points="10,-257.2 10,-279.2 208,-279.2 208,-257.2 10,-257.2"/>
<text text-anchor="start" x="30" y="-264.3" font-family="Helvetica,sans-Serif" font-size="11.00" fill="#000000">characterization_target_id</text>
<polygon fill="none" stroke="#000000" points="208,-257.2 208,-279.2 270,-279.2 270,-257.2 208,-257.2"/>
<text text-anchor="start" x="210.878" y="-264.9" font-family="Helvetica,sans-Serif" font-size="11.00" fill="#000000">unknown[0]</text>
<polygon fill="none" stroke="#000000" points="10,-235.2 10,-257.2 208,-257.2 208,-235.2 10,-235.2"/>
<text text-anchor="start" x="30" y="-242.3" font-family="Helvetica,sans-Serif" font-size="11.00" fill="#000000">database_id</text>
<polygon fill="none" stroke="#000000" points="208,-235.2 208,-257.2 270,-257.2 270,-235.2 208,-235.2"/>
<text text-anchor="start" x="210.878" y="-242.9" font-family="Helvetica,sans-Serif" font-size="11.00" fill="#000000">unknown[0]</text>
<polygon fill="none" stroke="#000000" points="10,-213.2 10,-235.2 208,-235.2 208,-213.2 10,-213.2"/>
<text text-anchor="start" x="30" y="-220.3" font-family="Helvetica,sans-Serif" font-size="11.00" fill="#000000">end_anchor</text>
<polygon fill="none" stroke="#000000" points="208,-213.2 208,-235.2 270,-235.2 270,-213.2 208,-213.2"/>
<text text-anchor="start" x="210.878" y="-220.9" font-family="Helvetica,sans-Serif" font-size="11.00" fill="#000000">unknown[0]</text>
<polygon fill="none" stroke="#000000" points="10,-191.2 10,-213.2 208,-213.2 208,-191.2 10,-191.2"/>
<text text-anchor="start" x="30" y="-198.3" font-family="Helvetica,sans-Serif" font-size="11.00" fill="#000000">outcome_id</text>
<polygon fill="none" stroke="#000000" points="208,-191.2 208,-213.2 270,-213.2 270,-191.2 208,-191.2"/>
<text text-anchor="start" x="210.878" y="-198.9" font-family="Helvetica,sans-Serif" font-size="11.00" fill="#000000">unknown[0]</text>
<polygon fill="none" stroke="#000000" points="10,-169.2 10,-191.2 208,-191.2 208,-169.2 10,-169.2"/>
<text text-anchor="start" x="30" y="-176.3" font-family="Helvetica,sans-Serif" font-size="11.00" fill="#000000">outcome_washout_days</text>
<polygon fill="none" stroke="#000000" points="208,-169.2 208,-191.2 270,-191.2 270,-169.2 208,-169.2"/>
<text text-anchor="start" x="210.878" y="-176.9" font-family="Helvetica,sans-Serif" font-size="11.00" fill="#000000">unknown[0]</text>
<polygon fill="none" stroke="#000000" points="10,-147.2 10,-169.2 208,-169.2 208,-147.2 10,-147.2"/>
<text text-anchor="start" x="30" y="-154.3" font-family="Helvetica,sans-Serif" font-size="11.00" fill="#000000">risk_window_end</text>
<polygon fill="none" stroke="#000000" points="208,-147.2 208,-169.2 270,-169.2 270,-147.2 208,-147.2"/>
<text text-anchor="start" x="210.878" y="-154.9" font-family="Helvetica,sans-Serif" font-size="11.00" fill="#000000">unknown[0]</text>
<polygon fill="none" stroke="#000000" points="10,-125.2 10,-147.2 208,-147.2 208,-125.2 10,-125.2"/>
<text text-anchor="start" x="30" y="-132.3" font-family="Helvetica,sans-Serif" font-size="11.00" fill="#000000">risk_window_start</text>
<polygon fill="none" stroke="#000000" points="208,-125.2 208,-147.2 270,-147.2 270,-125.2 208,-125.2"/>
<text text-anchor="start" x="210.878" y="-132.9" font-family="Helvetica,sans-Serif" font-size="11.00" fill="#000000">unknown[0]</text>
<polygon fill="none" stroke="#000000" points="10,-103.2 10,-125.2 208,-125.2 208,-103.2 10,-103.2"/>
<text text-anchor="start" x="30" y="-110.3" font-family="Helvetica,sans-Serif" font-size="11.00" fill="#000000">runtype</text>
<polygon fill="none" stroke="#000000" points="208,-103.2 208,-125.2 270,-125.2 270,-103.2 208,-103.2"/>
<text text-anchor="start" x="210.878" y="-110.9" font-family="Helvetica,sans-Serif" font-size="11.00" fill="#000000">unknown[0]</text>
<polygon fill="none" stroke="#000000" points="10,-81.2 10,-103.2 208,-103.2 208,-81.2 10,-81.2"/>
<text text-anchor="start" x="30" y="-88.3" font-family="Helvetica,sans-Serif" font-size="11.00" fill="#000000">setting_id</text>
<polygon fill="none" stroke="#000000" points="208,-81.2 208,-103.2 270,-103.2 270,-81.2 208,-81.2"/>
<text text-anchor="start" x="210.878" y="-88.9" font-family="Helvetica,sans-Serif" font-size="11.00" fill="#000000">unknown[0]</text>
<polygon fill="none" stroke="#000000" points="10,-59.2 10,-81.2 208,-81.2 208,-59.2 10,-59.2"/>
<text text-anchor="start" x="30" y="-66.3" font-family="Helvetica,sans-Serif" font-size="11.00" fill="#000000">start_anchor</text>
<polygon fill="none" stroke="#000000" points="208,-59.2 208,-81.2 270,-81.2 270,-59.2 208,-59.2"/>
<text text-anchor="start" x="210.878" y="-66.9" font-family="Helvetica,sans-Serif" font-size="11.00" fill="#000000">unknown[0]</text>
<polygon fill="#ffffff" stroke="transparent" points="10,-40.2 10,-59.2 100,-59.2 100,-40.2 10,-40.2"/>
<polygon fill="none" stroke="#000000" points="10,-40.2 10,-59.2 100,-59.2 100,-40.2 10,-40.2"/>
<text text-anchor="start" x="13" y="-46.3" font-family="Helvetica,sans-Serif" font-size="11.00" fill="#000000">&lt; 0</text>
<polygon fill="#ffffff" stroke="transparent" points="100,-40.2 100,-59.2 208,-59.2 208,-40.2 100,-40.2"/>
<polygon fill="none" stroke="#000000" points="100,-40.2 100,-59.2 208,-59.2 208,-40.2 100,-40.2"/>
<text text-anchor="start" x="172.6105" y="-46.3" font-family="Helvetica,sans-Serif" font-size="11.00" fill="#000000">0 rows</text>
<polygon fill="#ffffff" stroke="transparent" points="208,-40.2 208,-59.2 270,-59.2 270,-40.2 208,-40.2"/>
<polygon fill="none" stroke="#000000" points="208,-40.2 208,-59.2 270,-59.2 270,-40.2 208,-40.2"/>
<text text-anchor="start" x="251.4053" y="-46.3" font-family="Helvetica,sans-Serif" font-size="11.00" fill="#000000">0 &gt;</text>
<polygon fill="none" stroke="#000000" stroke-width="2" points="9,-39.2 9,-325.2 271,-325.2 271,-39.2 9,-39.2"/>
</a>
</g>
</g>
</g>
</svg>
