<?xml version="1.0" encoding="UTF-8" standalone="no"?>
<!DOCTYPE svg PUBLIC "-//W3C//DTD SVG 1.1//EN"
 "http://www.w3.org/Graphics/SVG/1.1/DTD/svg11.dtd">
<!-- Generated by graphviz version 2.40.1 (20161225.0304)
 -->
<!-- Title: oneDegreeRelationshipsDiagram Pages: 1 -->
<svg width="295pt" height="294pt"
 viewBox="0.00 0.00 295.00 294.20" xmlns="http://www.w3.org/2000/svg" xmlns:xlink="http://www.w3.org/1999/xlink">
<g id="graph0" class="graph" transform="scale(1 1) rotate(0) translate(4 290.2)">
<title>oneDegreeRelationshipsDiagram</title>
<polygon fill="#ffffff" stroke="transparent" points="-4,4 -4,-290.2 291,-290.2 291,4 -4,4"/>
<text text-anchor="middle" x="72.4936" y="-7.3" font-family="Helvetica,sans-Serif" font-size="11.00" fill="#000000">Generated by SchemaSpy</text>
<!-- c_covariates -->
<g id="node1" class="node">
<title>c_covariates</title>
<g id="a_node1"><a xlink:href="../../tables/c_covariates.html" xlink:title="c_covariates" target="_top">
<polygon fill="#ffffff" stroke="transparent" points="8,-38.2 8,-282.2 279,-282.2 279,-38.2 8,-38.2"/>
<polygon fill="#f5f5f5" stroke="transparent" points="10.5,-257.2 10.5,-280.2 277.5,-280.2 277.5,-257.2 10.5,-257.2"/>
<polygon fill="none" stroke="#000000" points="10.5,-257.2 10.5,-280.2 277.5,-280.2 277.5,-257.2 10.5,-257.2"/>
<text text-anchor="start" x="15.5" y="-265.8" font-family="Helvetica,sans-Serif" font-weight="bold" font-size="11.00" fill="#000000">c_covariates</text>
<text text-anchor="start" x="242.5437" y="-265.3" font-family="Helvetica,sans-Serif" font-size="11.00" fill="#000000">[table]</text>
<polygon fill="none" stroke="#000000" points="10.5,-235.2 10.5,-257.2 215.5,-257.2 215.5,-235.2 10.5,-235.2"/>
<text text-anchor="start" x="30.5" y="-242.3" font-family="Helvetica,sans-Serif" font-size="11.00" fill="#000000">average_value</text>
<polygon fill="none" stroke="#000000" points="215.5,-235.2 215.5,-257.2 277.5,-257.2 277.5,-235.2 215.5,-235.2"/>
<text text-anchor="start" x="218.378" y="-242.9" font-family="Helvetica,sans-Serif" font-size="11.00" fill="#000000">unknown[0]</text>
<polygon fill="none" stroke="#000000" points="10.5,-213.2 10.5,-235.2 215.5,-235.2 215.5,-213.2 10.5,-213.2"/>
<text text-anchor="start" x="30.5" y="-220.3" font-family="Helvetica,sans-Serif" font-size="11.00" fill="#000000">cohort_type</text>
<polygon fill="none" stroke="#000000" points="215.5,-213.2 215.5,-235.2 277.5,-235.2 277.5,-213.2 215.5,-213.2"/>
<text text-anchor="start" x="218.378" y="-220.9" font-family="Helvetica,sans-Serif" font-size="11.00" fill="#000000">unknown[0]</text>
<polygon fill="none" stroke="#000000" points="10.5,-191.2 10.5,-213.2 215.5,-213.2 215.5,-191.2 10.5,-191.2"/>
<text text-anchor="start" x="30.5" y="-198.3" font-family="Helvetica,sans-Serif" font-size="11.00" fill="#000000">covariate_id</text>
<polygon fill="none" stroke="#000000" points="215.5,-191.2 215.5,-213.2 277.5,-213.2 277.5,-191.2 215.5,-191.2"/>
<text text-anchor="start" x="218.378" y="-198.9" font-family="Helvetica,sans-Serif" font-size="11.00" fill="#000000">unknown[0]</text>
<polygon fill="none" stroke="#000000" points="10.5,-169.2 10.5,-191.2 215.5,-191.2 215.5,-169.2 10.5,-169.2"/>
<text text-anchor="start" x="30.5" y="-176.3" font-family="Helvetica,sans-Serif" font-size="11.00" fill="#000000">database_id</text>
<polygon fill="none" stroke="#000000" points="215.5,-169.2 215.5,-191.2 277.5,-191.2 277.5,-169.2 215.5,-169.2"/>
<text text-anchor="start" x="218.378" y="-176.9" font-family="Helvetica,sans-Serif" font-size="11.00" fill="#000000">unknown[0]</text>
<polygon fill="none" stroke="#000000" points="10.5,-147.2 10.5,-169.2 215.5,-169.2 215.5,-147.2 10.5,-147.2"/>
<text text-anchor="start" x="30.5" y="-154.3" font-family="Helvetica,sans-Serif" font-size="11.00" fill="#000000">min_characterization_mean</text>
<polygon fill="none" stroke="#000000" points="215.5,-147.2 215.5,-169.2 277.5,-169.2 277.5,-147.2 215.5,-147.2"/>
<text text-anchor="start" x="218.378" y="-154.9" font-family="Helvetica,sans-Serif" font-size="11.00" fill="#000000">unknown[0]</text>
<polygon fill="none" stroke="#000000" points="10.5,-125.2 10.5,-147.2 215.5,-147.2 215.5,-125.2 10.5,-125.2"/>
<text text-anchor="start" x="30.5" y="-132.3" font-family="Helvetica,sans-Serif" font-size="11.00" fill="#000000">outcome_cohort_id</text>
<polygon fill="none" stroke="#000000" points="215.5,-125.2 215.5,-147.2 277.5,-147.2 277.5,-125.2 215.5,-125.2"/>
<text text-anchor="start" x="218.378" y="-132.9" font-family="Helvetica,sans-Serif" font-size="11.00" fill="#000000">unknown[0]</text>
<polygon fill="none" stroke="#000000" points="10.5,-103.2 10.5,-125.2 215.5,-125.2 215.5,-103.2 10.5,-103.2"/>
<text text-anchor="start" x="30.5" y="-110.3" font-family="Helvetica,sans-Serif" font-size="11.00" fill="#000000">setting_id</text>
<polygon fill="none" stroke="#000000" points="215.5,-103.2 215.5,-125.2 277.5,-125.2 277.5,-103.2 215.5,-103.2"/>
<text text-anchor="start" x="218.378" y="-110.9" font-family="Helvetica,sans-Serif" font-size="11.00" fill="#000000">unknown[0]</text>
<polygon fill="none" stroke="#000000" points="10.5,-81.2 10.5,-103.2 215.5,-103.2 215.5,-81.2 10.5,-81.2"/>
<text text-anchor="start" x="30.5" y="-88.3" font-family="Helvetica,sans-Serif" font-size="11.00" fill="#000000">sum_value</text>
<polygon fill="none" stroke="#000000" points="215.5,-81.2 215.5,-103.2 277.5,-103.2 277.5,-81.2 215.5,-81.2"/>
<text text-anchor="start" x="218.378" y="-88.9" font-family="Helvetica,sans-Serif" font-size="11.00" fill="#000000">unknown[0]</text>
<polygon fill="none" stroke="#000000" points="10.5,-59.2 10.5,-81.2 215.5,-81.2 215.5,-59.2 10.5,-59.2"/>
<text text-anchor="start" x="30.5" y="-66.3" font-family="Helvetica,sans-Serif" font-size="11.00" fill="#000000">target_cohort_id</text>
<polygon fill="none" stroke="#000000" points="215.5,-59.2 215.5,-81.2 277.5,-81.2 277.5,-59.2 215.5,-59.2"/>
<text text-anchor="start" x="218.378" y="-66.9" font-family="Helvetica,sans-Serif" font-size="11.00" fill="#000000">unknown[0]</text>
<polygon fill="#ffffff" stroke="transparent" points="10.5,-40.2 10.5,-59.2 104.5,-59.2 104.5,-40.2 10.5,-40.2"/>
<polygon fill="none" stroke="#000000" points="10.5,-40.2 10.5,-59.2 104.5,-59.2 104.5,-40.2 10.5,-40.2"/>
<text text-anchor="start" x="13.5" y="-46.3" font-family="Helvetica,sans-Serif" font-size="11.00" fill="#000000">&lt; 0</text>
<polygon fill="#ffffff" stroke="transparent" points="104.5,-40.2 104.5,-59.2 215.5,-59.2 215.5,-40.2 104.5,-40.2"/>
<polygon fill="none" stroke="#000000" points="104.5,-40.2 104.5,-59.2 215.5,-59.2 215.5,-40.2 104.5,-40.2"/>
<text text-anchor="start" x="180.1105" y="-46.3" font-family="Helvetica,sans-Serif" font-size="11.00" fill="#000000">0 rows</text>
<polygon fill="#ffffff" stroke="transparent" points="215.5,-40.2 215.5,-59.2 277.5,-59.2 277.5,-40.2 215.5,-40.2"/>
<polygon fill="none" stroke="#000000" points="215.5,-40.2 215.5,-59.2 277.5,-59.2 277.5,-40.2 215.5,-40.2"/>
<text text-anchor="start" x="258.9053" y="-46.3" font-family="Helvetica,sans-Serif" font-size="11.00" fill="#000000">0 &gt;</text>
<polygon fill="none" stroke="#000000" stroke-width="2" points="9,-39.2 9,-281.2 278,-281.2 278,-39.2 9,-39.2"/>
</a>
</g>
</g>
</g>
</svg>
