<?xml version="1.0" encoding="UTF-8" standalone="no"?>
<!DOCTYPE svg PUBLIC "-//W3C//DTD SVG 1.1//EN"
 "http://www.w3.org/Graphics/SVG/1.1/DTD/svg11.dtd">
<!-- Generated by graphviz version 2.40.1 (20161225.0304)
 -->
<!-- Title: oneDegreeRelationshipsDiagram Pages: 1 -->
<svg width="270pt" height="426pt"
 viewBox="0.00 0.00 270.00 426.20" xmlns="http://www.w3.org/2000/svg" xmlns:xlink="http://www.w3.org/1999/xlink">
<g id="graph0" class="graph" transform="scale(1 1) rotate(0) translate(4 422.2)">
<title>oneDegreeRelationshipsDiagram</title>
<polygon fill="#ffffff" stroke="transparent" points="-4,4 -4,-422.2 266,-422.2 266,4 -4,4"/>
<text text-anchor="middle" x="72.4936" y="-7.3" font-family="Helvetica,sans-Serif" font-size="11.00" fill="#000000">Generated by SchemaSpy</text>
<!-- c_cohort_counts -->
<g id="node1" class="node">
<title>c_cohort_counts</title>
<g id="a_node1"><a xlink:href="../../tables/c_cohort_counts.html" xlink:title="c_cohort_counts" target="_top">
<polygon fill="#ffffff" stroke="transparent" points="8,-38.2 8,-414.2 254,-414.2 254,-38.2 8,-38.2"/>
<polygon fill="#f5f5f5" stroke="transparent" points="10,-389.2 10,-412.2 252,-412.2 252,-389.2 10,-389.2"/>
<polygon fill="none" stroke="#000000" points="10,-389.2 10,-412.2 252,-412.2 252,-389.2 10,-389.2"/>
<text text-anchor="start" x="15" y="-397.8" font-family="Helvetica,sans-Serif" font-weight="bold" font-size="11.00" fill="#000000">c_cohort_counts</text>
<text text-anchor="start" x="217.0437" y="-397.3" font-family="Helvetica,sans-Serif" font-size="11.00" fill="#000000">[table]</text>
<polygon fill="none" stroke="#000000" points="10,-367.2 10,-389.2 190,-389.2 190,-367.2 10,-367.2"/>
<text text-anchor="start" x="30" y="-374.3" font-family="Helvetica,sans-Serif" font-size="11.00" fill="#000000">cohort_type</text>
<polygon fill="none" stroke="#000000" points="190,-367.2 190,-389.2 252,-389.2 252,-367.2 190,-367.2"/>
<text text-anchor="start" x="192.878" y="-374.9" font-family="Helvetica,sans-Serif" font-size="11.00" fill="#000000">unknown[0]</text>
<polygon fill="none" stroke="#000000" points="10,-345.2 10,-367.2 190,-367.2 190,-345.2 10,-345.2"/>
<text text-anchor="start" x="30" y="-352.3" font-family="Helvetica,sans-Serif" font-size="11.00" fill="#000000">database_id</text>
<polygon fill="none" stroke="#000000" points="190,-345.2 190,-367.2 252,-367.2 252,-345.2 190,-345.2"/>
<text text-anchor="start" x="192.878" y="-352.9" font-family="Helvetica,sans-Serif" font-size="11.00" fill="#000000">unknown[0]</text>
<polygon fill="none" stroke="#000000" points="10,-323.2 10,-345.2 190,-345.2 190,-323.2 10,-323.2"/>
<text text-anchor="start" x="30" y="-330.3" font-family="Helvetica,sans-Serif" font-size="11.00" fill="#000000">end_anchor</text>
<polygon fill="none" stroke="#000000" points="190,-323.2 190,-345.2 252,-345.2 252,-323.2 190,-323.2"/>
<text text-anchor="start" x="192.878" y="-330.9" font-family="Helvetica,sans-Serif" font-size="11.00" fill="#000000">unknown[0]</text>
<polygon fill="none" stroke="#000000" points="10,-301.2 10,-323.2 190,-323.2 190,-301.2 10,-301.2"/>
<text text-anchor="start" x="30" y="-308.3" font-family="Helvetica,sans-Serif" font-size="11.00" fill="#000000">max_exposure_time</text>
<polygon fill="none" stroke="#000000" points="190,-301.2 190,-323.2 252,-323.2 252,-301.2 190,-301.2"/>
<text text-anchor="start" x="192.878" y="-308.9" font-family="Helvetica,sans-Serif" font-size="11.00" fill="#000000">unknown[0]</text>
<polygon fill="none" stroke="#000000" points="10,-279.2 10,-301.2 190,-301.2 190,-279.2 10,-279.2"/>
<text text-anchor="start" x="30" y="-286.3" font-family="Helvetica,sans-Serif" font-size="11.00" fill="#000000">mean_exposure_time</text>
<polygon fill="none" stroke="#000000" points="190,-279.2 190,-301.2 252,-301.2 252,-279.2 190,-279.2"/>
<text text-anchor="start" x="192.878" y="-286.9" font-family="Helvetica,sans-Serif" font-size="11.00" fill="#000000">unknown[0]</text>
<polygon fill="none" stroke="#000000" points="10,-257.2 10,-279.2 190,-279.2 190,-257.2 10,-257.2"/>
<text text-anchor="start" x="30" y="-264.3" font-family="Helvetica,sans-Serif" font-size="11.00" fill="#000000">min_exposure_time</text>
<polygon fill="none" stroke="#000000" points="190,-257.2 190,-279.2 252,-279.2 252,-257.2 190,-257.2"/>
<text text-anchor="start" x="192.878" y="-264.9" font-family="Helvetica,sans-Serif" font-size="11.00" fill="#000000">unknown[0]</text>
<polygon fill="none" stroke="#000000" points="10,-235.2 10,-257.2 190,-257.2 190,-235.2 10,-235.2"/>
<text text-anchor="start" x="30" y="-242.3" font-family="Helvetica,sans-Serif" font-size="11.00" fill="#000000">min_prior_observation</text>
<polygon fill="none" stroke="#000000" points="190,-235.2 190,-257.2 252,-257.2 252,-235.2 190,-235.2"/>
<text text-anchor="start" x="192.878" y="-242.9" font-family="Helvetica,sans-Serif" font-size="11.00" fill="#000000">unknown[0]</text>
<polygon fill="none" stroke="#000000" points="10,-213.2 10,-235.2 190,-235.2 190,-213.2 10,-213.2"/>
<text text-anchor="start" x="30" y="-220.3" font-family="Helvetica,sans-Serif" font-size="11.00" fill="#000000">outcome_cohort_id</text>
<polygon fill="none" stroke="#000000" points="190,-213.2 190,-235.2 252,-235.2 252,-213.2 190,-213.2"/>
<text text-anchor="start" x="192.878" y="-220.9" font-family="Helvetica,sans-Serif" font-size="11.00" fill="#000000">unknown[0]</text>
<polygon fill="none" stroke="#000000" points="10,-191.2 10,-213.2 190,-213.2 190,-191.2 10,-191.2"/>
<text text-anchor="start" x="30" y="-198.3" font-family="Helvetica,sans-Serif" font-size="11.00" fill="#000000">outcome_washout_days</text>
<polygon fill="none" stroke="#000000" points="190,-191.2 190,-213.2 252,-213.2 252,-191.2 190,-191.2"/>
<text text-anchor="start" x="192.878" y="-198.9" font-family="Helvetica,sans-Serif" font-size="11.00" fill="#000000">unknown[0]</text>
<polygon fill="none" stroke="#000000" points="10,-169.2 10,-191.2 190,-191.2 190,-169.2 10,-169.2"/>
<text text-anchor="start" x="30" y="-176.3" font-family="Helvetica,sans-Serif" font-size="11.00" fill="#000000">person_count</text>
<polygon fill="none" stroke="#000000" points="190,-169.2 190,-191.2 252,-191.2 252,-169.2 190,-169.2"/>
<text text-anchor="start" x="192.878" y="-176.9" font-family="Helvetica,sans-Serif" font-size="11.00" fill="#000000">unknown[0]</text>
<polygon fill="none" stroke="#000000" points="10,-147.2 10,-169.2 190,-169.2 190,-147.2 10,-147.2"/>
<text text-anchor="start" x="30" y="-154.3" font-family="Helvetica,sans-Serif" font-size="11.00" fill="#000000">risk_window_end</text>
<polygon fill="none" stroke="#000000" points="190,-147.2 190,-169.2 252,-169.2 252,-147.2 190,-147.2"/>
<text text-anchor="start" x="192.878" y="-154.9" font-family="Helvetica,sans-Serif" font-size="11.00" fill="#000000">unknown[0]</text>
<polygon fill="none" stroke="#000000" points="10,-125.2 10,-147.2 190,-147.2 190,-125.2 10,-125.2"/>
<text text-anchor="start" x="30" y="-132.3" font-family="Helvetica,sans-Serif" font-size="11.00" fill="#000000">risk_window_start</text>
<polygon fill="none" stroke="#000000" points="190,-125.2 190,-147.2 252,-147.2 252,-125.2 190,-125.2"/>
<text text-anchor="start" x="192.878" y="-132.9" font-family="Helvetica,sans-Serif" font-size="11.00" fill="#000000">unknown[0]</text>
<polygon fill="none" stroke="#000000" points="10,-103.2 10,-125.2 190,-125.2 190,-103.2 10,-103.2"/>
<text text-anchor="start" x="30" y="-110.3" font-family="Helvetica,sans-Serif" font-size="11.00" fill="#000000">row_count</text>
<polygon fill="none" stroke="#000000" points="190,-103.2 190,-125.2 252,-125.2 252,-103.2 190,-103.2"/>
<text text-anchor="start" x="192.878" y="-110.9" font-family="Helvetica,sans-Serif" font-size="11.00" fill="#000000">unknown[0]</text>
<polygon fill="none" stroke="#000000" points="10,-81.2 10,-103.2 190,-103.2 190,-81.2 10,-81.2"/>
<text text-anchor="start" x="30" y="-88.3" font-family="Helvetica,sans-Serif" font-size="11.00" fill="#000000">start_anchor</text>
<polygon fill="none" stroke="#000000" points="190,-81.2 190,-103.2 252,-103.2 252,-81.2 190,-81.2"/>
<text text-anchor="start" x="192.878" y="-88.9" font-family="Helvetica,sans-Serif" font-size="11.00" fill="#000000">unknown[0]</text>
<polygon fill="none" stroke="#000000" points="10,-59.2 10,-81.2 190,-81.2 190,-59.2 10,-59.2"/>
<text text-anchor="start" x="30" y="-66.3" font-family="Helvetica,sans-Serif" font-size="11.00" fill="#000000">target_cohort_id</text>
<polygon fill="none" stroke="#000000" points="190,-59.2 190,-81.2 252,-81.2 252,-59.2 190,-59.2"/>
<text text-anchor="start" x="192.878" y="-66.9" font-family="Helvetica,sans-Serif" font-size="11.00" fill="#000000">unknown[0]</text>
<polygon fill="#ffffff" stroke="transparent" points="10,-40.2 10,-59.2 91,-59.2 91,-40.2 10,-40.2"/>
<polygon fill="none" stroke="#000000" points="10,-40.2 10,-59.2 91,-59.2 91,-40.2 10,-40.2"/>
<text text-anchor="start" x="13" y="-46.3" font-family="Helvetica,sans-Serif" font-size="11.00" fill="#000000">&lt; 0</text>
<polygon fill="#ffffff" stroke="transparent" points="91,-40.2 91,-59.2 190,-59.2 190,-40.2 91,-40.2"/>
<polygon fill="none" stroke="#000000" points="91,-40.2 91,-59.2 190,-59.2 190,-40.2 91,-40.2"/>
<text text-anchor="start" x="154.6105" y="-46.3" font-family="Helvetica,sans-Serif" font-size="11.00" fill="#000000">0 rows</text>
<polygon fill="#ffffff" stroke="transparent" points="190,-40.2 190,-59.2 252,-59.2 252,-40.2 190,-40.2"/>
<polygon fill="none" stroke="#000000" points="190,-40.2 190,-59.2 252,-59.2 252,-40.2 190,-40.2"/>
<text text-anchor="start" x="233.4053" y="-46.3" font-family="Helvetica,sans-Serif" font-size="11.00" fill="#000000">0 &gt;</text>
<polygon fill="none" stroke="#000000" stroke-width="2" points="9,-39.2 9,-413.2 253,-413.2 253,-39.2 9,-39.2"/>
</a>
</g>
</g>
</g>
</svg>
