<?xml version="1.0" encoding="UTF-8" standalone="no"?>
<!DOCTYPE svg PUBLIC "-//W3C//DTD SVG 1.1//EN"
 "http://www.w3.org/Graphics/SVG/1.1/DTD/svg11.dtd">
<!-- Generated by graphviz version 2.40.1 (20161225.0304)
 -->
<!-- Title: oneDegreeRelationshipsDiagram Pages: 1 -->
<svg width="275pt" height="448pt"
 viewBox="0.00 0.00 275.00 448.20" xmlns="http://www.w3.org/2000/svg" xmlns:xlink="http://www.w3.org/1999/xlink">
<g id="graph0" class="graph" transform="scale(1 1) rotate(0) translate(4 444.2)">
<title>oneDegreeRelationshipsDiagram</title>
<polygon fill="#ffffff" stroke="transparent" points="-4,4 -4,-444.2 271,-444.2 271,4 -4,4"/>
<text text-anchor="middle" x="72.4936" y="-7.3" font-family="Helvetica,sans-Serif" font-size="11.00" fill="#000000">Generated by SchemaSpy</text>
<!-- c_covariates_continuous -->
<g id="node1" class="node">
<title>c_covariates_continuous</title>
<g id="a_node1"><a xlink:href="../../tables/c_covariates_continuous.html" xlink:title="c_covariates_continuous" target="_top">
<polygon fill="#ffffff" stroke="transparent" points="8,-38.2 8,-436.2 259,-436.2 259,-38.2 8,-38.2"/>
<polygon fill="#f5f5f5" stroke="transparent" points="10.5,-411.2 10.5,-434.2 257.5,-434.2 257.5,-411.2 10.5,-411.2"/>
<polygon fill="none" stroke="#000000" points="10.5,-411.2 10.5,-434.2 257.5,-434.2 257.5,-411.2 10.5,-411.2"/>
<text text-anchor="start" x="15.5" y="-419.8" font-family="Helvetica,sans-Serif" font-weight="bold" font-size="11.00" fill="#000000">c_covariates_continuous</text>
<text text-anchor="start" x="222.5437" y="-419.3" font-family="Helvetica,sans-Serif" font-size="11.00" fill="#000000">[table]</text>
<polygon fill="none" stroke="#000000" points="10.5,-389.2 10.5,-411.2 195.5,-411.2 195.5,-389.2 10.5,-389.2"/>
<text text-anchor="start" x="30.5" y="-396.3" font-family="Helvetica,sans-Serif" font-size="11.00" fill="#000000">average_value</text>
<polygon fill="none" stroke="#000000" points="195.5,-389.2 195.5,-411.2 257.5,-411.2 257.5,-389.2 195.5,-389.2"/>
<text text-anchor="start" x="198.378" y="-396.9" font-family="Helvetica,sans-Serif" font-size="11.00" fill="#000000">unknown[0]</text>
<polygon fill="none" stroke="#000000" points="10.5,-367.2 10.5,-389.2 195.5,-389.2 195.5,-367.2 10.5,-367.2"/>
<text text-anchor="start" x="30.5" y="-374.3" font-family="Helvetica,sans-Serif" font-size="11.00" fill="#000000">cohort_type</text>
<polygon fill="none" stroke="#000000" points="195.5,-367.2 195.5,-389.2 257.5,-389.2 257.5,-367.2 195.5,-367.2"/>
<text text-anchor="start" x="198.378" y="-374.9" font-family="Helvetica,sans-Serif" font-size="11.00" fill="#000000">unknown[0]</text>
<polygon fill="none" stroke="#000000" points="10.5,-345.2 10.5,-367.2 195.5,-367.2 195.5,-345.2 10.5,-345.2"/>
<text text-anchor="start" x="30.5" y="-352.3" font-family="Helvetica,sans-Serif" font-size="11.00" fill="#000000">count_value</text>
<polygon fill="none" stroke="#000000" points="195.5,-345.2 195.5,-367.2 257.5,-367.2 257.5,-345.2 195.5,-345.2"/>
<text text-anchor="start" x="198.378" y="-352.9" font-family="Helvetica,sans-Serif" font-size="11.00" fill="#000000">unknown[0]</text>
<polygon fill="none" stroke="#000000" points="10.5,-323.2 10.5,-345.2 195.5,-345.2 195.5,-323.2 10.5,-323.2"/>
<text text-anchor="start" x="30.5" y="-330.3" font-family="Helvetica,sans-Serif" font-size="11.00" fill="#000000">covariate_id</text>
<polygon fill="none" stroke="#000000" points="195.5,-323.2 195.5,-345.2 257.5,-345.2 257.5,-323.2 195.5,-323.2"/>
<text text-anchor="start" x="198.378" y="-330.9" font-family="Helvetica,sans-Serif" font-size="11.00" fill="#000000">unknown[0]</text>
<polygon fill="none" stroke="#000000" points="10.5,-301.2 10.5,-323.2 195.5,-323.2 195.5,-301.2 10.5,-301.2"/>
<text text-anchor="start" x="30.5" y="-308.3" font-family="Helvetica,sans-Serif" font-size="11.00" fill="#000000">database_id</text>
<polygon fill="none" stroke="#000000" points="195.5,-301.2 195.5,-323.2 257.5,-323.2 257.5,-301.2 195.5,-301.2"/>
<text text-anchor="start" x="198.378" y="-308.9" font-family="Helvetica,sans-Serif" font-size="11.00" fill="#000000">unknown[0]</text>
<polygon fill="none" stroke="#000000" points="10.5,-279.2 10.5,-301.2 195.5,-301.2 195.5,-279.2 10.5,-279.2"/>
<text text-anchor="start" x="30.5" y="-286.3" font-family="Helvetica,sans-Serif" font-size="11.00" fill="#000000">max_value</text>
<polygon fill="none" stroke="#000000" points="195.5,-279.2 195.5,-301.2 257.5,-301.2 257.5,-279.2 195.5,-279.2"/>
<text text-anchor="start" x="198.378" y="-286.9" font-family="Helvetica,sans-Serif" font-size="11.00" fill="#000000">unknown[0]</text>
<polygon fill="none" stroke="#000000" points="10.5,-257.2 10.5,-279.2 195.5,-279.2 195.5,-257.2 10.5,-257.2"/>
<text text-anchor="start" x="30.5" y="-264.3" font-family="Helvetica,sans-Serif" font-size="11.00" fill="#000000">median_value</text>
<polygon fill="none" stroke="#000000" points="195.5,-257.2 195.5,-279.2 257.5,-279.2 257.5,-257.2 195.5,-257.2"/>
<text text-anchor="start" x="198.378" y="-264.9" font-family="Helvetica,sans-Serif" font-size="11.00" fill="#000000">unknown[0]</text>
<polygon fill="none" stroke="#000000" points="10.5,-235.2 10.5,-257.2 195.5,-257.2 195.5,-235.2 10.5,-235.2"/>
<text text-anchor="start" x="30.5" y="-242.3" font-family="Helvetica,sans-Serif" font-size="11.00" fill="#000000">min_value</text>
<polygon fill="none" stroke="#000000" points="195.5,-235.2 195.5,-257.2 257.5,-257.2 257.5,-235.2 195.5,-235.2"/>
<text text-anchor="start" x="198.378" y="-242.9" font-family="Helvetica,sans-Serif" font-size="11.00" fill="#000000">unknown[0]</text>
<polygon fill="none" stroke="#000000" points="10.5,-213.2 10.5,-235.2 195.5,-235.2 195.5,-213.2 10.5,-213.2"/>
<text text-anchor="start" x="30.5" y="-220.3" font-family="Helvetica,sans-Serif" font-size="11.00" fill="#000000">outcome_cohort_id</text>
<polygon fill="none" stroke="#000000" points="195.5,-213.2 195.5,-235.2 257.5,-235.2 257.5,-213.2 195.5,-213.2"/>
<text text-anchor="start" x="198.378" y="-220.9" font-family="Helvetica,sans-Serif" font-size="11.00" fill="#000000">unknown[0]</text>
<polygon fill="none" stroke="#000000" points="10.5,-191.2 10.5,-213.2 195.5,-213.2 195.5,-191.2 10.5,-191.2"/>
<text text-anchor="start" x="30.5" y="-198.3" font-family="Helvetica,sans-Serif" font-size="11.00" fill="#000000">p_10_value</text>
<polygon fill="none" stroke="#000000" points="195.5,-191.2 195.5,-213.2 257.5,-213.2 257.5,-191.2 195.5,-191.2"/>
<text text-anchor="start" x="198.378" y="-198.9" font-family="Helvetica,sans-Serif" font-size="11.00" fill="#000000">unknown[0]</text>
<polygon fill="none" stroke="#000000" points="10.5,-169.2 10.5,-191.2 195.5,-191.2 195.5,-169.2 10.5,-169.2"/>
<text text-anchor="start" x="30.5" y="-176.3" font-family="Helvetica,sans-Serif" font-size="11.00" fill="#000000">p_25_value</text>
<polygon fill="none" stroke="#000000" points="195.5,-169.2 195.5,-191.2 257.5,-191.2 257.5,-169.2 195.5,-169.2"/>
<text text-anchor="start" x="198.378" y="-176.9" font-family="Helvetica,sans-Serif" font-size="11.00" fill="#000000">unknown[0]</text>
<polygon fill="none" stroke="#000000" points="10.5,-147.2 10.5,-169.2 195.5,-169.2 195.5,-147.2 10.5,-147.2"/>
<text text-anchor="start" x="30.5" y="-154.3" font-family="Helvetica,sans-Serif" font-size="11.00" fill="#000000">p_75_value</text>
<polygon fill="none" stroke="#000000" points="195.5,-147.2 195.5,-169.2 257.5,-169.2 257.5,-147.2 195.5,-147.2"/>
<text text-anchor="start" x="198.378" y="-154.9" font-family="Helvetica,sans-Serif" font-size="11.00" fill="#000000">unknown[0]</text>
<polygon fill="none" stroke="#000000" points="10.5,-125.2 10.5,-147.2 195.5,-147.2 195.5,-125.2 10.5,-125.2"/>
<text text-anchor="start" x="30.5" y="-132.3" font-family="Helvetica,sans-Serif" font-size="11.00" fill="#000000">p_90_value</text>
<polygon fill="none" stroke="#000000" points="195.5,-125.2 195.5,-147.2 257.5,-147.2 257.5,-125.2 195.5,-125.2"/>
<text text-anchor="start" x="198.378" y="-132.9" font-family="Helvetica,sans-Serif" font-size="11.00" fill="#000000">unknown[0]</text>
<polygon fill="none" stroke="#000000" points="10.5,-103.2 10.5,-125.2 195.5,-125.2 195.5,-103.2 10.5,-103.2"/>
<text text-anchor="start" x="30.5" y="-110.3" font-family="Helvetica,sans-Serif" font-size="11.00" fill="#000000">setting_id</text>
<polygon fill="none" stroke="#000000" points="195.5,-103.2 195.5,-125.2 257.5,-125.2 257.5,-103.2 195.5,-103.2"/>
<text text-anchor="start" x="198.378" y="-110.9" font-family="Helvetica,sans-Serif" font-size="11.00" fill="#000000">unknown[0]</text>
<polygon fill="none" stroke="#000000" points="10.5,-81.2 10.5,-103.2 195.5,-103.2 195.5,-81.2 10.5,-81.2"/>
<text text-anchor="start" x="30.5" y="-88.3" font-family="Helvetica,sans-Serif" font-size="11.00" fill="#000000">standard_deviation</text>
<polygon fill="none" stroke="#000000" points="195.5,-81.2 195.5,-103.2 257.5,-103.2 257.5,-81.2 195.5,-81.2"/>
<text text-anchor="start" x="198.378" y="-88.9" font-family="Helvetica,sans-Serif" font-size="11.00" fill="#000000">unknown[0]</text>
<polygon fill="none" stroke="#000000" points="10.5,-59.2 10.5,-81.2 195.5,-81.2 195.5,-59.2 10.5,-59.2"/>
<text text-anchor="start" x="30.5" y="-66.3" font-family="Helvetica,sans-Serif" font-size="11.00" fill="#000000">target_cohort_id</text>
<polygon fill="none" stroke="#000000" points="195.5,-59.2 195.5,-81.2 257.5,-81.2 257.5,-59.2 195.5,-59.2"/>
<text text-anchor="start" x="198.378" y="-66.9" font-family="Helvetica,sans-Serif" font-size="11.00" fill="#000000">unknown[0]</text>
<polygon fill="#ffffff" stroke="transparent" points="10.5,-40.2 10.5,-59.2 94.5,-59.2 94.5,-40.2 10.5,-40.2"/>
<polygon fill="none" stroke="#000000" points="10.5,-40.2 10.5,-59.2 94.5,-59.2 94.5,-40.2 10.5,-40.2"/>
<text text-anchor="start" x="13.5" y="-46.3" font-family="Helvetica,sans-Serif" font-size="11.00" fill="#000000">&lt; 0</text>
<polygon fill="#ffffff" stroke="transparent" points="94.5,-40.2 94.5,-59.2 195.5,-59.2 195.5,-40.2 94.5,-40.2"/>
<polygon fill="none" stroke="#000000" points="94.5,-40.2 94.5,-59.2 195.5,-59.2 195.5,-40.2 94.5,-40.2"/>
<text text-anchor="start" x="160.1105" y="-46.3" font-family="Helvetica,sans-Serif" font-size="11.00" fill="#000000">0 rows</text>
<polygon fill="#ffffff" stroke="transparent" points="195.5,-40.2 195.5,-59.2 257.5,-59.2 257.5,-40.2 195.5,-40.2"/>
<polygon fill="none" stroke="#000000" points="195.5,-40.2 195.5,-59.2 257.5,-59.2 257.5,-40.2 195.5,-40.2"/>
<text text-anchor="start" x="238.9053" y="-46.3" font-family="Helvetica,sans-Serif" font-size="11.00" fill="#000000">0 &gt;</text>
<polygon fill="none" stroke="#000000" stroke-width="2" points="9,-39.2 9,-435.2 258,-435.2 258,-39.2 9,-39.2"/>
</a>
</g>
</g>
</g>
</svg>
