<?xml version="1.0" encoding="UTF-8" standalone="no"?>
<!DOCTYPE svg PUBLIC "-//W3C//DTD SVG 1.1//EN"
 "http://www.w3.org/Graphics/SVG/1.1/DTD/svg11.dtd">
<!-- Generated by graphviz version 2.40.1 (20161225.0304)
 -->
<!-- Title: twoDegreesRelationshipsDiagram Pages: 1 -->
<svg width="1265pt" height="1266pt"
 viewBox="0.00 0.00 1265.00 1265.62" xmlns="http://www.w3.org/2000/svg" xmlns:xlink="http://www.w3.org/1999/xlink">
<g id="graph0" class="graph" transform="scale(1 1) rotate(0) translate(4 1261.6236)">
<title>twoDegreesRelationshipsDiagram</title>
<polygon fill="#ffffff" stroke="transparent" points="-4,4 -4,-1261.6236 1261,-1261.6236 1261,4 -4,4"/>
<text text-anchor="middle" x="72.4936" y="-7.3" font-family="Helvetica,sans-Serif" font-size="11.00" fill="#000000">Generated by SchemaSpy</text>
<!-- c_cohort_details -->
<g id="node1" class="node">
<title>c_cohort_details</title>
<g id="a_node1"><a xlink:href="../../tables/c_cohort_details.html" xlink:title="c_cohort_details" target="_top">
<polygon fill="#ffffff" stroke="transparent" points="232,-733.1236 232,-889.1236 446,-889.1236 446,-733.1236 232,-733.1236"/>
<polygon fill="#f5f5f5" stroke="transparent" points="234,-864.1236 234,-887.1236 444,-887.1236 444,-864.1236 234,-864.1236"/>
<polygon fill="none" stroke="#000000" points="234,-864.1236 234,-887.1236 444,-887.1236 444,-864.1236 234,-864.1236"/>
<text text-anchor="start" x="239" y="-872.7236" font-family="Helvetica,sans-Serif" font-weight="bold" font-size="11.00" fill="#000000">c_cohort_details</text>
<text text-anchor="start" x="409.0437" y="-872.2236" font-family="Helvetica,sans-Serif" font-size="11.00" fill="#000000">[table]</text>
<polygon fill="none" stroke="#000000" points="234,-842.1236 234,-864.1236 382,-864.1236 382,-842.1236 234,-842.1236"/>
<text text-anchor="start" x="254" y="-849.2236" font-family="Helvetica,sans-Serif" font-size="11.00" fill="#000000">cohort_type</text>
<polygon fill="none" stroke="#000000" points="382,-842.1236 382,-864.1236 444,-864.1236 444,-842.1236 382,-842.1236"/>
<text text-anchor="start" x="384.878" y="-849.8236" font-family="Helvetica,sans-Serif" font-size="11.00" fill="#000000">unknown[0]</text>
<polygon fill="none" stroke="#000000" points="234,-820.1236 234,-842.1236 382,-842.1236 382,-820.1236 234,-820.1236"/>
<image xlink:href="../../images/primaryKeys.png" width="11px" height="12px" preserveAspectRatio="xMinYMin meet" x="239" y="-837.124"/>
<text text-anchor="start" x="254" y="-827.2236" font-family="Helvetica,sans-Serif" font-size="11.00" fill="#000000">database_id</text>
<polygon fill="none" stroke="#000000" points="382,-820.1236 382,-842.1236 444,-842.1236 444,-820.1236 382,-820.1236"/>
<text text-anchor="start" x="384.878" y="-827.8236" font-family="Helvetica,sans-Serif" font-size="11.00" fill="#000000">unknown[0]</text>
<polygon fill="none" stroke="#000000" points="234,-798.1236 234,-820.1236 382,-820.1236 382,-798.1236 234,-798.1236"/>
<image xlink:href="../../images/foreignKeys.png" width="11px" height="12px" preserveAspectRatio="xMinYMin meet" x="239" y="-815.124"/>
<text text-anchor="start" x="254" y="-805.2236" font-family="Helvetica,sans-Serif" font-size="11.00" fill="#000000">outcome_cohort_id</text>
<polygon fill="none" stroke="#000000" points="382,-798.1236 382,-820.1236 444,-820.1236 444,-798.1236 382,-798.1236"/>
<text text-anchor="start" x="384.878" y="-805.8236" font-family="Helvetica,sans-Serif" font-size="11.00" fill="#000000">unknown[0]</text>
<polygon fill="none" stroke="#000000" points="234,-776.1236 234,-798.1236 382,-798.1236 382,-776.1236 234,-776.1236"/>
<image xlink:href="../../images/primaryKeys.png" width="11px" height="12px" preserveAspectRatio="xMinYMin meet" x="239" y="-793.124"/>
<text text-anchor="start" x="254" y="-783.2236" font-family="Helvetica,sans-Serif" font-size="11.00" fill="#000000">setting_id</text>
<polygon fill="none" stroke="#000000" points="382,-776.1236 382,-798.1236 444,-798.1236 444,-776.1236 382,-776.1236"/>
<text text-anchor="start" x="384.878" y="-783.8236" font-family="Helvetica,sans-Serif" font-size="11.00" fill="#000000">unknown[0]</text>
<polygon fill="none" stroke="#000000" points="234,-754.1236 234,-776.1236 382,-776.1236 382,-754.1236 234,-754.1236"/>
<image xlink:href="../../images/foreignKeys.png" width="11px" height="12px" preserveAspectRatio="xMinYMin meet" x="239" y="-771.124"/>
<text text-anchor="start" x="254" y="-761.2236" font-family="Helvetica,sans-Serif" font-size="11.00" fill="#000000">target_cohort_id</text>
<polygon fill="none" stroke="#000000" points="382,-754.1236 382,-776.1236 444,-776.1236 444,-754.1236 382,-754.1236"/>
<text text-anchor="start" x="384.878" y="-761.8236" font-family="Helvetica,sans-Serif" font-size="11.00" fill="#000000">unknown[0]</text>
<polygon fill="#ffffff" stroke="transparent" points="234,-735.1236 234,-754.1236 299,-754.1236 299,-735.1236 234,-735.1236"/>
<polygon fill="none" stroke="#000000" points="234,-735.1236 234,-754.1236 299,-754.1236 299,-735.1236 234,-735.1236"/>
<text text-anchor="start" x="237" y="-741.2236" font-family="Helvetica,sans-Serif" font-size="11.00" fill="#000000">&lt; 2</text>
<polygon fill="#ffffff" stroke="transparent" points="299,-735.1236 299,-754.1236 382,-754.1236 382,-735.1236 299,-735.1236"/>
<polygon fill="none" stroke="#000000" points="299,-735.1236 299,-754.1236 382,-754.1236 382,-735.1236 299,-735.1236"/>
<text text-anchor="start" x="346.6105" y="-741.2236" font-family="Helvetica,sans-Serif" font-size="11.00" fill="#000000">0 rows</text>
<polygon fill="#ffffff" stroke="transparent" points="382,-735.1236 382,-754.1236 444,-754.1236 444,-735.1236 382,-735.1236"/>
<polygon fill="none" stroke="#000000" points="382,-735.1236 382,-754.1236 444,-754.1236 444,-735.1236 382,-735.1236"/>
<text text-anchor="start" x="425.4053" y="-741.2236" font-family="Helvetica,sans-Serif" font-size="11.00" fill="#000000">3 &gt;</text>
<polygon fill="none" stroke="#000000" stroke-width="2" points="233,-734.1236 233,-888.1236 445,-888.1236 445,-734.1236 233,-734.1236"/>
</a>
</g>
</g>
<!-- cg_cohort_definition -->
<g id="node2" class="node">
<title>cg_cohort_definition</title>
<g id="a_node2"><a xlink:href="../../tables/cg_cohort_definition.html" xlink:title="cg_cohort_definition" target="_top">
<polygon fill="#ffffff" stroke="transparent" points="8,-344.6236 8,-427.6236 183,-427.6236 183,-344.6236 8,-344.6236"/>
<polygon fill="#f5f5f5" stroke="transparent" points="8.5,-404.1236 8.5,-427.1236 183.5,-427.1236 183.5,-404.1236 8.5,-404.1236"/>
<polygon fill="none" stroke="#000000" points="8.5,-404.1236 8.5,-427.1236 183.5,-427.1236 183.5,-404.1236 8.5,-404.1236"/>
<text text-anchor="start" x="13.5" y="-412.7236" font-family="Helvetica,sans-Serif" font-weight="bold" font-size="11.00" fill="#000000">cg_cohort_definition</text>
<text text-anchor="start" x="149.0219" y="-412.2236" font-family="Helvetica,sans-Serif" font-size="11.00" fill="#000000">[table]</text>
<polygon fill="none" stroke="#000000" points="8.5,-382.1236 8.5,-404.1236 183.5,-404.1236 183.5,-382.1236 8.5,-382.1236"/>
<image xlink:href="../../images/primaryKeys.png" width="11px" height="12px" preserveAspectRatio="xMinYMin meet" x="13.5" y="-399.124"/>
<text text-anchor="start" x="37.5" y="-389.2236" font-family="Helvetica,sans-Serif" font-size="11.00" fill="#000000">cohort_definition_id</text>
<polygon fill="none" stroke="#000000" points="8.5,-363.1236 8.5,-382.1236 183.5,-382.1236 183.5,-363.1236 8.5,-363.1236"/>
<text text-anchor="start" x="11.5" y="-369.2236" font-family="Helvetica,sans-Serif" font-size="11.00" fill="#000000">...</text>
<polygon fill="#ffffff" stroke="transparent" points="8.5,-344.1236 8.5,-363.1236 69.5,-363.1236 69.5,-344.1236 8.5,-344.1236"/>
<polygon fill="none" stroke="#000000" points="8.5,-344.1236 8.5,-363.1236 69.5,-363.1236 69.5,-344.1236 8.5,-344.1236"/>
<text text-anchor="start" x="11.5" y="-350.2236" font-family="Helvetica,sans-Serif" font-size="11.00" fill="#000000"> &#160;</text>
<polygon fill="#ffffff" stroke="transparent" points="69.5,-344.1236 69.5,-363.1236 131.5,-363.1236 131.5,-344.1236 69.5,-344.1236"/>
<polygon fill="none" stroke="#000000" points="69.5,-344.1236 69.5,-363.1236 131.5,-363.1236 131.5,-344.1236 69.5,-344.1236"/>
<text text-anchor="start" x="96.1105" y="-350.2236" font-family="Helvetica,sans-Serif" font-size="11.00" fill="#000000">0 rows</text>
<polygon fill="#ffffff" stroke="transparent" points="131.5,-344.1236 131.5,-363.1236 183.5,-363.1236 183.5,-344.1236 131.5,-344.1236"/>
<polygon fill="none" stroke="#000000" points="131.5,-344.1236 131.5,-363.1236 183.5,-363.1236 183.5,-344.1236 131.5,-344.1236"/>
<text text-anchor="start" x="158.7904" y="-350.2236" font-family="Helvetica,sans-Serif" font-size="11.00" fill="#000000">17 &gt;</text>
</a>
</g>
</g>
<!-- c_cohort_details&#45;&gt;cg_cohort_definition -->
<g id="edge1" class="edge">
<title>c_cohort_details:w&#45;&gt;cg_cohort_definition:e</title>
<path fill="none" stroke="#000000" d="M219.8959,-805.0063C155.9989,-761.8018 271.1667,-393.1236 183.5,-393.1236"/>
<polygon fill="#000000" stroke="#000000" points="226.3205,-806.8817 232.9912,-812.5793 230.1603,-808.0026 234,-809.1236 234,-809.1236 234,-809.1236 230.1603,-808.0026 235.0088,-805.6678 226.3205,-806.8817 226.3205,-806.8817"/>
<ellipse fill="none" stroke="#000000" cx="223.2487" cy="-805.985" rx="3.2" ry="3.2"/>
</g>
<!-- c_cohort_details&#45;&gt;cg_cohort_definition -->
<g id="edge2" class="edge">
<title>c_cohort_details:w&#45;&gt;cg_cohort_definition:e</title>
<path fill="none" stroke="#000000" d="M220.2517,-760.6867C164.7434,-718.7158 261.5479,-393.1236 183.5,-393.1236"/>
<polygon fill="#000000" stroke="#000000" points="226.3866,-762.6665 232.8943,-768.5496 230.1933,-763.895 234,-765.1236 234,-765.1236 234,-765.1236 230.1933,-763.895 235.1057,-761.6976 226.3866,-762.6665 226.3866,-762.6665"/>
<ellipse fill="none" stroke="#000000" cx="223.3413" cy="-761.6837" rx="3.2" ry="3.2"/>
</g>
<!-- c_covariates -->
<g id="node3" class="node">
<title>c_covariates</title>
<g id="a_node3"><a xlink:href="../../tables/c_covariates.html" xlink:title="c_covariates" target="_top">
<polygon fill="#ffffff" stroke="transparent" points="1086.5,-1192.6236 1086.5,-1253.6236 1208.5,-1253.6236 1208.5,-1192.6236 1086.5,-1192.6236"/>
<polygon fill="#f5f5f5" stroke="transparent" points="1086.5,-1230.1236 1086.5,-1253.1236 1208.5,-1253.1236 1208.5,-1230.1236 1086.5,-1230.1236"/>
<polygon fill="none" stroke="#000000" points="1086.5,-1230.1236 1086.5,-1253.1236 1208.5,-1253.1236 1208.5,-1230.1236 1086.5,-1230.1236"/>
<text text-anchor="start" x="1091.5" y="-1238.7236" font-family="Helvetica,sans-Serif" font-weight="bold" font-size="11.00" fill="#000000">c_covariates</text>
<text text-anchor="start" x="1174.0219" y="-1238.2236" font-family="Helvetica,sans-Serif" font-size="11.00" fill="#000000">[table]</text>
<polygon fill="none" stroke="#000000" points="1086.5,-1211.1236 1086.5,-1230.1236 1208.5,-1230.1236 1208.5,-1211.1236 1086.5,-1211.1236"/>
<text text-anchor="start" x="1089.5" y="-1217.2236" font-family="Helvetica,sans-Serif" font-size="11.00" fill="#000000">...</text>
<polygon fill="#ffffff" stroke="transparent" points="1086.5,-1192.1236 1086.5,-1211.1236 1132.5,-1211.1236 1132.5,-1192.1236 1086.5,-1192.1236"/>
<polygon fill="none" stroke="#000000" points="1086.5,-1192.1236 1086.5,-1211.1236 1132.5,-1211.1236 1132.5,-1192.1236 1086.5,-1192.1236"/>
<text text-anchor="start" x="1089.5" y="-1198.2236" font-family="Helvetica,sans-Serif" font-size="11.00" fill="#000000">&lt; 7</text>
<polygon fill="#ffffff" stroke="transparent" points="1132.5,-1192.1236 1132.5,-1211.1236 1183.5,-1211.1236 1183.5,-1192.1236 1132.5,-1192.1236"/>
<polygon fill="none" stroke="#000000" points="1132.5,-1192.1236 1132.5,-1211.1236 1183.5,-1211.1236 1183.5,-1192.1236 1132.5,-1192.1236"/>
<text text-anchor="start" x="1148.1105" y="-1198.2236" font-family="Helvetica,sans-Serif" font-size="11.00" fill="#000000">0 rows</text>
<polygon fill="#ffffff" stroke="transparent" points="1183.5,-1192.1236 1183.5,-1211.1236 1208.5,-1211.1236 1208.5,-1192.1236 1183.5,-1192.1236"/>
<polygon fill="none" stroke="#000000" points="1183.5,-1192.1236 1183.5,-1211.1236 1208.5,-1211.1236 1208.5,-1192.1236 1183.5,-1192.1236"/>
<text text-anchor="start" x="1199.3862" y="-1198.2236" font-family="Helvetica,sans-Serif" font-size="11.00" fill="#000000"> &#160;</text>
</a>
</g>
</g>
<!-- c_settings -->
<g id="node4" class="node">
<title>c_settings</title>
<g id="a_node4"><a xlink:href="../../tables/c_settings.html" xlink:title="c_settings" target="_top">
<polygon fill="#ffffff" stroke="transparent" points="834,-1189.6236 834,-1250.6236 941,-1250.6236 941,-1189.6236 834,-1189.6236"/>
<polygon fill="#f5f5f5" stroke="transparent" points="834.5,-1227.1236 834.5,-1250.1236 941.5,-1250.1236 941.5,-1227.1236 834.5,-1227.1236"/>
<polygon fill="none" stroke="#000000" points="834.5,-1227.1236 834.5,-1250.1236 941.5,-1250.1236 941.5,-1227.1236 834.5,-1227.1236"/>
<text text-anchor="start" x="839.5" y="-1235.7236" font-family="Helvetica,sans-Serif" font-weight="bold" font-size="11.00" fill="#000000">c_settings</text>
<text text-anchor="start" x="907.0219" y="-1235.2236" font-family="Helvetica,sans-Serif" font-size="11.00" fill="#000000">[table]</text>
<polygon fill="none" stroke="#000000" points="834.5,-1208.1236 834.5,-1227.1236 941.5,-1227.1236 941.5,-1208.1236 834.5,-1208.1236"/>
<text text-anchor="start" x="837.5" y="-1214.2236" font-family="Helvetica,sans-Serif" font-size="11.00" fill="#000000">...</text>
<polygon fill="#ffffff" stroke="transparent" points="834.5,-1189.1236 834.5,-1208.1236 868.5,-1208.1236 868.5,-1189.1236 834.5,-1189.1236"/>
<polygon fill="none" stroke="#000000" points="834.5,-1189.1236 834.5,-1208.1236 868.5,-1208.1236 868.5,-1189.1236 834.5,-1189.1236"/>
<text text-anchor="start" x="837.5" y="-1195.2236" font-family="Helvetica,sans-Serif" font-size="11.00" fill="#000000">&lt; 3</text>
<polygon fill="#ffffff" stroke="transparent" points="868.5,-1189.1236 868.5,-1208.1236 913.5,-1208.1236 913.5,-1189.1236 868.5,-1189.1236"/>
<polygon fill="none" stroke="#000000" points="868.5,-1189.1236 868.5,-1208.1236 913.5,-1208.1236 913.5,-1189.1236 868.5,-1189.1236"/>
<text text-anchor="start" x="878.1105" y="-1195.2236" font-family="Helvetica,sans-Serif" font-size="11.00" fill="#000000">0 rows</text>
<polygon fill="#ffffff" stroke="transparent" points="913.5,-1189.1236 913.5,-1208.1236 941.5,-1208.1236 941.5,-1189.1236 913.5,-1189.1236"/>
<polygon fill="none" stroke="#000000" points="913.5,-1189.1236 913.5,-1208.1236 941.5,-1208.1236 941.5,-1189.1236 913.5,-1189.1236"/>
<text text-anchor="start" x="922.9053" y="-1195.2236" font-family="Helvetica,sans-Serif" font-size="11.00" fill="#000000">6 &gt;</text>
</a>
</g>
</g>
<!-- c_covariates&#45;&gt;c_settings -->
<g id="edge3" class="edge">
<title>c_covariates:w&#45;&gt;c_settings:e</title>
<path fill="none" stroke="#000000" d="M1072.0593,-1220.1236C1029.9372,-1220.1236 984.5663,-1220.1236 949.3504,-1220.1236"/>
<polygon fill="#000000" stroke="#000000" points="1078.5,-1220.1236 1086.5,-1223.7236 1082.5,-1220.1236 1086.5,-1220.1236 1086.5,-1220.1236 1086.5,-1220.1236 1082.5,-1220.1236 1086.5,-1216.5236 1078.5,-1220.1236 1078.5,-1220.1236"/>
<ellipse fill="none" stroke="#000000" cx="1075.3" cy="-1220.1236" rx="3.2" ry="3.2"/>
</g>
<!-- c_covariates&#45;&gt;c_settings -->
<g id="edge4" class="edge">
<title>c_covariates:w&#45;&gt;c_settings:e</title>
<path fill="none" stroke="#000000" d="M1072.2788,-1217.503C1032.5914,-1207.6333 933.7967,-1173.8268 922.5,-1185.1236"/>
<polygon fill="#000000" stroke="#000000" points="1078.6325,-1218.6738 1085.8476,-1223.664 1082.5662,-1219.3987 1086.5,-1220.1236 1086.5,-1220.1236 1086.5,-1220.1236 1082.5662,-1219.3987 1087.1524,-1216.5832 1078.6325,-1218.6738 1078.6325,-1218.6738"/>
<ellipse fill="none" stroke="#000000" cx="1075.4854" cy="-1218.0938" rx="3.2" ry="3.2"/>
</g>
<!-- c_covariates&#45;&gt;c_settings -->
<g id="edge5" class="edge">
<title>c_covariates:w&#45;&gt;c_settings:e</title>
<path fill="none" stroke="#000000" d="M1072.0593,-1220.1236C1029.9372,-1220.1236 984.5663,-1220.1236 949.3504,-1220.1236"/>
<polygon fill="#000000" stroke="#000000" points="1078.5,-1220.1236 1086.5,-1223.7236 1082.5,-1220.1236 1086.5,-1220.1236 1086.5,-1220.1236 1086.5,-1220.1236 1082.5,-1220.1236 1086.5,-1216.5236 1078.5,-1220.1236 1078.5,-1220.1236"/>
<ellipse fill="none" stroke="#000000" cx="1075.3" cy="-1220.1236" rx="3.2" ry="3.2"/>
</g>
<!-- c_covariates&#45;&gt;c_settings -->
<g id="edge6" class="edge">
<title>c_covariates:w&#45;&gt;c_settings:e</title>
<path fill="none" stroke="#000000" d="M1072.2788,-1217.503C1032.5914,-1207.6333 933.7967,-1173.8268 922.5,-1185.1236"/>
<polygon fill="#000000" stroke="#000000" points="1078.6325,-1218.6738 1085.8476,-1223.664 1082.5662,-1219.3987 1086.5,-1220.1236 1086.5,-1220.1236 1086.5,-1220.1236 1082.5662,-1219.3987 1087.1524,-1216.5832 1078.6325,-1218.6738 1078.6325,-1218.6738"/>
<ellipse fill="none" stroke="#000000" cx="1075.4854" cy="-1218.0938" rx="3.2" ry="3.2"/>
</g>
<!-- c_settings&#45;&gt;c_cohort_details -->
<g id="edge13" class="edge">
<title>c_settings:w&#45;&gt;c_cohort_details:e</title>
<path fill="none" stroke="#000000" d="M811.9654,-1199.2918C797.5018,-1193.7921 782.8701,-1187.1067 770,-1179.1236 620.4356,-1086.3502 596.34,-1040.0408 487,-902.1236 464.0813,-873.2148 480.8916,-831.1236 444,-831.1236"/>
<polygon fill="#000000" stroke="#000000" points="818.1845,-1201.5135 824.507,-1207.5952 821.9513,-1202.8593 825.7182,-1204.205 825.7182,-1204.205 825.7182,-1204.205 821.9513,-1202.8593 826.9293,-1200.8149 818.1845,-1201.5135 818.1845,-1201.5135"/>
<ellipse fill="none" stroke="#000000" cx="815.171" cy="-1200.4369" rx="3.2" ry="3.2"/>
</g>
<!-- c_settings&#45;&gt;c_cohort_details -->
<g id="edge15" class="edge">
<title>c_settings:w&#45;&gt;c_cohort_details:e</title>
<path fill="none" stroke="#000000" d="M908.6475,-1180.8245C872.2959,-1179.614 779.6118,-1187.9985 770,-1179.1236 724.6169,-1137.2197 774.6971,-952.0571 737,-903.1236 651.5265,-792.1728 584.0564,-787.1236 444,-787.1236"/>
<polygon fill="#000000" stroke="#000000" points="914.8595,-1182.7523 921.4329,-1188.5618 918.6797,-1183.938 922.5,-1185.1236 922.5,-1185.1236 922.5,-1185.1236 918.6797,-1183.938 923.5671,-1181.6853 914.8595,-1182.7523 914.8595,-1182.7523"/>
<ellipse fill="none" stroke="#000000" cx="911.8033" cy="-1181.8039" rx="3.2" ry="3.2"/>
</g>
<!-- database_meta_data -->
<g id="node6" class="node">
<title>database_meta_data</title>
<g id="a_node6"><a xlink:href="../../tables/database_meta_data.html" xlink:title="database_meta_data" target="_top">
<polygon fill="#ffffff" stroke="transparent" points="523,-584.6236 523,-645.6236 701,-645.6236 701,-584.6236 523,-584.6236"/>
<polygon fill="#f5f5f5" stroke="transparent" points="523,-622.1236 523,-645.1236 701,-645.1236 701,-622.1236 523,-622.1236"/>
<polygon fill="none" stroke="#000000" points="523,-622.1236 523,-645.1236 701,-645.1236 701,-622.1236 523,-622.1236"/>
<text text-anchor="start" x="528" y="-630.7236" font-family="Helvetica,sans-Serif" font-weight="bold" font-size="11.00" fill="#000000">database_meta_data</text>
<text text-anchor="start" x="666.5219" y="-630.2236" font-family="Helvetica,sans-Serif" font-size="11.00" fill="#000000">[table]</text>
<polygon fill="none" stroke="#000000" points="523,-603.1236 523,-622.1236 701,-622.1236 701,-603.1236 523,-603.1236"/>
<text text-anchor="start" x="526" y="-609.2236" font-family="Helvetica,sans-Serif" font-size="11.00" fill="#000000">...</text>
<polygon fill="#ffffff" stroke="transparent" points="523,-584.1236 523,-603.1236 590,-603.1236 590,-584.1236 523,-584.1236"/>
<polygon fill="none" stroke="#000000" points="523,-584.1236 523,-603.1236 590,-603.1236 590,-584.1236 523,-584.1236"/>
<text text-anchor="start" x="526" y="-590.2236" font-family="Helvetica,sans-Serif" font-size="11.00" fill="#000000">&lt; 1</text>
<polygon fill="#ffffff" stroke="transparent" points="590,-584.1236 590,-603.1236 651,-603.1236 651,-584.1236 590,-584.1236"/>
<polygon fill="none" stroke="#000000" points="590,-584.1236 590,-603.1236 651,-603.1236 651,-584.1236 590,-584.1236"/>
<text text-anchor="start" x="615.6105" y="-590.2236" font-family="Helvetica,sans-Serif" font-size="11.00" fill="#000000">0 rows</text>
<polygon fill="#ffffff" stroke="transparent" points="651,-584.1236 651,-603.1236 701,-603.1236 701,-584.1236 651,-584.1236"/>
<polygon fill="none" stroke="#000000" points="651,-584.1236 651,-603.1236 701,-603.1236 701,-584.1236 651,-584.1236"/>
<text text-anchor="start" x="676.2904" y="-590.2236" font-family="Helvetica,sans-Serif" font-size="11.00" fill="#000000">17 &gt;</text>
</a>
</g>
</g>
<!-- c_settings&#45;&gt;database_meta_data -->
<g id="edge14" class="edge">
<title>c_settings:w&#45;&gt;database_meta_data:e</title>
<path fill="none" stroke="#000000" d="M811.6164,-1207.4551C795.7077,-1201.3726 780.5707,-1192.3879 770,-1179.1236 728.6138,-1127.1913 754.9849,-946.0479 737,-882.1236 712.3259,-794.4234 661.5318,-699.5976 632.8697,-649.9547"/>
<polygon fill="#000000" stroke="#000000" points="818.1006,-1209.588 824.5751,-1215.5076 821.9003,-1210.8379 825.7,-1212.0878 825.7,-1212.0878 825.7,-1212.0878 821.9003,-1210.8379 826.8249,-1208.6681 818.1006,-1209.588 818.1006,-1209.588"/>
<ellipse fill="none" stroke="#000000" cx="815.0608" cy="-1208.5881" rx="3.2" ry="3.2"/>
</g>
<!-- c_covariates_continuous -->
<g id="node5" class="node">
<title>c_covariates_continuous</title>
<g id="a_node5"><a xlink:href="../../tables/c_covariates_continuous.html" xlink:title="c_covariates_continuous" target="_top">
<polygon fill="#ffffff" stroke="transparent" points="1046,-1110.6236 1046,-1171.6236 1249,-1171.6236 1249,-1110.6236 1046,-1110.6236"/>
<polygon fill="#f5f5f5" stroke="transparent" points="1046.5,-1148.1236 1046.5,-1171.1236 1249.5,-1171.1236 1249.5,-1148.1236 1046.5,-1148.1236"/>
<polygon fill="none" stroke="#000000" points="1046.5,-1148.1236 1046.5,-1171.1236 1249.5,-1171.1236 1249.5,-1148.1236 1046.5,-1148.1236"/>
<text text-anchor="start" x="1051.5" y="-1156.7236" font-family="Helvetica,sans-Serif" font-weight="bold" font-size="11.00" fill="#000000">c_covariates_continuous</text>
<text text-anchor="start" x="1215.0219" y="-1156.2236" font-family="Helvetica,sans-Serif" font-size="11.00" fill="#000000">[table]</text>
<polygon fill="none" stroke="#000000" points="1046.5,-1129.1236 1046.5,-1148.1236 1249.5,-1148.1236 1249.5,-1129.1236 1046.5,-1129.1236"/>
<text text-anchor="start" x="1049.5" y="-1135.2236" font-family="Helvetica,sans-Serif" font-size="11.00" fill="#000000">...</text>
<polygon fill="#ffffff" stroke="transparent" points="1046.5,-1110.1236 1046.5,-1129.1236 1133.5,-1129.1236 1133.5,-1110.1236 1046.5,-1110.1236"/>
<polygon fill="none" stroke="#000000" points="1046.5,-1110.1236 1046.5,-1129.1236 1133.5,-1129.1236 1133.5,-1110.1236 1046.5,-1110.1236"/>
<text text-anchor="start" x="1049.5" y="-1116.2236" font-family="Helvetica,sans-Serif" font-size="11.00" fill="#000000">&lt; 6</text>
<polygon fill="#ffffff" stroke="transparent" points="1133.5,-1110.1236 1133.5,-1129.1236 1204.5,-1129.1236 1204.5,-1110.1236 1133.5,-1110.1236"/>
<polygon fill="none" stroke="#000000" points="1133.5,-1110.1236 1133.5,-1129.1236 1204.5,-1129.1236 1204.5,-1110.1236 1133.5,-1110.1236"/>
<text text-anchor="start" x="1169.1105" y="-1116.2236" font-family="Helvetica,sans-Serif" font-size="11.00" fill="#000000">0 rows</text>
<polygon fill="#ffffff" stroke="transparent" points="1204.5,-1110.1236 1204.5,-1129.1236 1249.5,-1129.1236 1249.5,-1110.1236 1204.5,-1110.1236"/>
<polygon fill="none" stroke="#000000" points="1204.5,-1110.1236 1204.5,-1129.1236 1249.5,-1129.1236 1249.5,-1110.1236 1204.5,-1110.1236"/>
<text text-anchor="start" x="1240.3862" y="-1116.2236" font-family="Helvetica,sans-Serif" font-size="11.00" fill="#000000"> &#160;</text>
</a>
</g>
</g>
<!-- c_covariates_continuous&#45;&gt;c_settings -->
<g id="edge7" class="edge">
<title>c_covariates_continuous:w&#45;&gt;c_settings:e</title>
<path fill="none" stroke="#000000" d="M1032.492,-1142.344C1022.0188,-1150.5426 1021.6729,-1168.7277 1005,-1179.1236 987.9497,-1189.7547 967.7807,-1198.0726 949.009,-1204.3549"/>
<polygon fill="#000000" stroke="#000000" points="1038.8401,-1140.4314 1047.5385,-1141.5705 1042.6701,-1139.2775 1046.5,-1138.1236 1046.5,-1138.1236 1046.5,-1138.1236 1042.6701,-1139.2775 1045.4615,-1134.6766 1038.8401,-1140.4314 1038.8401,-1140.4314"/>
<ellipse fill="none" stroke="#000000" cx="1035.7761" cy="-1141.3546" rx="3.2" ry="3.2"/>
</g>
<!-- c_covariates_continuous&#45;&gt;c_settings -->
<g id="edge9" class="edge">
<title>c_covariates_continuous:w&#45;&gt;c_settings:e</title>
<path fill="none" stroke="#000000" d="M1032.7066,-1142.7446C1022.6095,-1151.6456 1022.8926,-1171.0048 1005,-1179.1236 988.2609,-1186.719 935.4979,-1172.1257 922.5,-1185.1236"/>
<polygon fill="#000000" stroke="#000000" points="1038.9144,-1140.6649 1047.6436,-1141.5371 1042.7072,-1139.3943 1046.5,-1138.1236 1046.5,-1138.1236 1046.5,-1138.1236 1042.7072,-1139.3943 1045.3564,-1134.71 1038.9144,-1140.6649 1038.9144,-1140.6649"/>
<ellipse fill="none" stroke="#000000" cx="1035.8801" cy="-1141.6815" rx="3.2" ry="3.2"/>
</g>
<!-- c_covariates_continuous&#45;&gt;database_meta_data -->
<g id="edge8" class="edge">
<title>c_covariates_continuous:w&#45;&gt;database_meta_data:e</title>
<path fill="none" stroke="#000000" d="M1031.9422,-1135.3931C1000.4928,-1120.4086 1045.0654,-1047.655 1005,-1015.1236 923.3442,-948.8224 843.7029,-1062.1662 770,-987.1236 718.8231,-935.0165 781.9471,-717.6907 737,-660.1236 729.548,-650.5792 719.8953,-643.0569 709.258,-637.1288"/>
<polygon fill="#000000" stroke="#000000" points="1038.6371,-1136.6488 1045.8363,-1141.6619 1042.5686,-1137.3862 1046.5,-1138.1236 1046.5,-1138.1236 1046.5,-1138.1236 1042.5686,-1137.3862 1047.1637,-1134.5853 1038.6371,-1136.6488 1038.6371,-1136.6488"/>
<ellipse fill="none" stroke="#000000" cx="1035.4919" cy="-1136.0589" rx="3.2" ry="3.2"/>
</g>
<!-- database_meta_data&#45;&gt;c_cohort_details -->
<g id="edge32" class="edge">
<title>database_meta_data:w&#45;&gt;c_cohort_details:e</title>
<path fill="none" stroke="#000000" d="M599.3065,-659.9547C578.3271,-723.2328 529.9539,-831.1236 444,-831.1236"/>
<polygon fill="#000000" stroke="#000000" points="598.5042,-649.3668 606.1213,-651.812 605.6323,-653.3355 598.0151,-650.8902 598.5042,-649.3668"/>
<polyline fill="none" stroke="#000000" points="602.5573,-649.8277 601.3347,-653.6363 "/>
<ellipse fill="none" stroke="#000000" cx="600.3566" cy="-656.6832" rx="3.2" ry="3.2"/>
</g>
<!-- c_dechallenge_rechallenge -->
<g id="node7" class="node">
<title>c_dechallenge_rechallenge</title>
<g id="a_node7"><a xlink:href="../../tables/c_dechallenge_rechallenge.html" xlink:title="c_dechallenge_rechallenge" target="_top">
<polygon fill="#ffffff" stroke="transparent" points="778,-1107.6236 778,-1168.6236 997,-1168.6236 997,-1107.6236 778,-1107.6236"/>
<polygon fill="#f5f5f5" stroke="transparent" points="778.5,-1145.1236 778.5,-1168.1236 997.5,-1168.1236 997.5,-1145.1236 778.5,-1145.1236"/>
<polygon fill="none" stroke="#000000" points="778.5,-1145.1236 778.5,-1168.1236 997.5,-1168.1236 997.5,-1145.1236 778.5,-1145.1236"/>
<text text-anchor="start" x="783.5" y="-1153.7236" font-family="Helvetica,sans-Serif" font-weight="bold" font-size="11.00" fill="#000000">c_dechallenge_rechallenge</text>
<text text-anchor="start" x="963.0219" y="-1153.2236" font-family="Helvetica,sans-Serif" font-size="11.00" fill="#000000">[table]</text>
<polygon fill="none" stroke="#000000" points="778.5,-1126.1236 778.5,-1145.1236 997.5,-1145.1236 997.5,-1126.1236 778.5,-1126.1236"/>
<text text-anchor="start" x="781.5" y="-1132.2236" font-family="Helvetica,sans-Serif" font-size="11.00" fill="#000000">...</text>
<polygon fill="#ffffff" stroke="transparent" points="778.5,-1107.1236 778.5,-1126.1236 873.5,-1126.1236 873.5,-1107.1236 778.5,-1107.1236"/>
<polygon fill="none" stroke="#000000" points="778.5,-1107.1236 778.5,-1126.1236 873.5,-1126.1236 873.5,-1107.1236 778.5,-1107.1236"/>
<text text-anchor="start" x="781.5" y="-1113.2236" font-family="Helvetica,sans-Serif" font-size="11.00" fill="#000000">&lt; 3</text>
<polygon fill="#ffffff" stroke="transparent" points="873.5,-1107.1236 873.5,-1126.1236 948.5,-1126.1236 948.5,-1107.1236 873.5,-1107.1236"/>
<polygon fill="none" stroke="#000000" points="873.5,-1107.1236 873.5,-1126.1236 948.5,-1126.1236 948.5,-1107.1236 873.5,-1107.1236"/>
<text text-anchor="start" x="913.1105" y="-1113.2236" font-family="Helvetica,sans-Serif" font-size="11.00" fill="#000000">0 rows</text>
<polygon fill="#ffffff" stroke="transparent" points="948.5,-1107.1236 948.5,-1126.1236 997.5,-1126.1236 997.5,-1107.1236 948.5,-1107.1236"/>
<polygon fill="none" stroke="#000000" points="948.5,-1107.1236 948.5,-1126.1236 997.5,-1126.1236 997.5,-1107.1236 948.5,-1107.1236"/>
<text text-anchor="start" x="988.3862" y="-1113.2236" font-family="Helvetica,sans-Serif" font-size="11.00" fill="#000000"> &#160;</text>
</a>
</g>
</g>
<!-- c_dechallenge_rechallenge&#45;&gt;cg_cohort_definition -->
<g id="edge11" class="edge">
<title>c_dechallenge_rechallenge:w&#45;&gt;cg_cohort_definition:e</title>
<path fill="none" stroke="#000000" d="M764.6054,-1131.2278C711.102,-1096.5841 782.743,-841.2377 737,-784.1236 586.585,-596.3172 381.6816,-792.8718 224,-611.1236 159.4198,-536.6866 282.0467,-393.1236 183.5,-393.1236"/>
<polygon fill="#000000" stroke="#000000" points="770.797,-1132.9638 777.5281,-1138.5899 774.6485,-1134.0437 778.5,-1135.1236 778.5,-1135.1236 778.5,-1135.1236 774.6485,-1134.0437 779.4719,-1131.6572 770.797,-1132.9638 770.797,-1132.9638"/>
<ellipse fill="none" stroke="#000000" cx="767.7159" cy="-1132.0999" rx="3.2" ry="3.2"/>
</g>
<!-- c_dechallenge_rechallenge&#45;&gt;cg_cohort_definition -->
<g id="edge12" class="edge">
<title>c_dechallenge_rechallenge:w&#45;&gt;cg_cohort_definition:e</title>
<path fill="none" stroke="#000000" d="M764.4186,-1131.0583C712.0427,-1096.0068 781.7786,-844.7604 737,-788.1236 587.0506,-598.4647 381.4731,-790.5834 224,-607.1236 160.9526,-533.6719 280.2994,-393.1236 183.5,-393.1236"/>
<polygon fill="#000000" stroke="#000000" points="770.8139,-1132.9046 777.5014,-1138.5823 774.6569,-1134.0141 778.5,-1135.1236 778.5,-1135.1236 778.5,-1135.1236 774.6569,-1134.0141 779.4986,-1131.6648 770.8139,-1132.9046 770.8139,-1132.9046"/>
<ellipse fill="none" stroke="#000000" cx="767.7395" cy="-1132.0169" rx="3.2" ry="3.2"/>
</g>
<!-- c_dechallenge_rechallenge&#45;&gt;database_meta_data -->
<g id="edge10" class="edge">
<title>c_dechallenge_rechallenge:w&#45;&gt;database_meta_data:e</title>
<path fill="none" stroke="#000000" d="M766.9827,-1125.8557C734.3386,-1065.1481 761.3328,-725.5699 737,-687.1236 727.3568,-671.8871 713.2502,-659.5259 697.9537,-649.6277"/>
<polygon fill="#000000" stroke="#000000" points="772.2673,-1130.1082 776.2431,-1137.9283 775.3837,-1132.6159 778.5,-1135.1236 778.5,-1135.1236 778.5,-1135.1236 775.3837,-1132.6159 780.7569,-1132.3189 772.2673,-1130.1082 772.2673,-1130.1082"/>
<ellipse fill="none" stroke="#000000" cx="769.7743" cy="-1128.102" rx="3.2" ry="3.2"/>
</g>
<!-- c_time_to_event -->
<g id="node8" class="node">
<title>c_time_to_event</title>
<g id="a_node8"><a xlink:href="../../tables/c_time_to_event.html" xlink:title="c_time_to_event" target="_top">
<polygon fill="#ffffff" stroke="transparent" points="814.5,-915.6236 814.5,-976.6236 960.5,-976.6236 960.5,-915.6236 814.5,-915.6236"/>
<polygon fill="#f5f5f5" stroke="transparent" points="814.5,-953.1236 814.5,-976.1236 960.5,-976.1236 960.5,-953.1236 814.5,-953.1236"/>
<polygon fill="none" stroke="#000000" points="814.5,-953.1236 814.5,-976.1236 960.5,-976.1236 960.5,-953.1236 814.5,-953.1236"/>
<text text-anchor="start" x="819.5" y="-961.7236" font-family="Helvetica,sans-Serif" font-weight="bold" font-size="11.00" fill="#000000">c_time_to_event</text>
<text text-anchor="start" x="926.0219" y="-961.2236" font-family="Helvetica,sans-Serif" font-size="11.00" fill="#000000">[table]</text>
<polygon fill="none" stroke="#000000" points="814.5,-934.1236 814.5,-953.1236 960.5,-953.1236 960.5,-934.1236 814.5,-934.1236"/>
<text text-anchor="start" x="817.5" y="-940.2236" font-family="Helvetica,sans-Serif" font-size="11.00" fill="#000000">...</text>
<polygon fill="#ffffff" stroke="transparent" points="814.5,-915.1236 814.5,-934.1236 872.5,-934.1236 872.5,-915.1236 814.5,-915.1236"/>
<polygon fill="none" stroke="#000000" points="814.5,-915.1236 814.5,-934.1236 872.5,-934.1236 872.5,-915.1236 814.5,-915.1236"/>
<text text-anchor="start" x="817.5" y="-921.2236" font-family="Helvetica,sans-Serif" font-size="11.00" fill="#000000">&lt; 1</text>
<polygon fill="#ffffff" stroke="transparent" points="872.5,-915.1236 872.5,-934.1236 929.5,-934.1236 929.5,-915.1236 872.5,-915.1236"/>
<polygon fill="none" stroke="#000000" points="872.5,-915.1236 872.5,-934.1236 929.5,-934.1236 929.5,-915.1236 872.5,-915.1236"/>
<text text-anchor="start" x="894.1105" y="-921.2236" font-family="Helvetica,sans-Serif" font-size="11.00" fill="#000000">0 rows</text>
<polygon fill="#ffffff" stroke="transparent" points="929.5,-915.1236 929.5,-934.1236 960.5,-934.1236 960.5,-915.1236 929.5,-915.1236"/>
<polygon fill="none" stroke="#000000" points="929.5,-915.1236 929.5,-934.1236 960.5,-934.1236 960.5,-915.1236 929.5,-915.1236"/>
<text text-anchor="start" x="951.3862" y="-921.2236" font-family="Helvetica,sans-Serif" font-size="11.00" fill="#000000"> &#160;</text>
</a>
</g>
</g>
<!-- c_time_to_event&#45;&gt;database_meta_data -->
<g id="edge16" class="edge">
<title>c_time_to_event:w&#45;&gt;database_meta_data:e</title>
<path fill="none" stroke="#000000" d="M800.022,-941.0252C785.5405,-936.1225 779.7226,-922.9648 770,-905.1236 717.4252,-808.6467 806.0497,-745.5873 737,-660.1236 729.4625,-650.7943 719.8297,-643.3984 709.2637,-637.5353"/>
<polygon fill="#000000" stroke="#000000" points="806.5827,-941.976 813.9836,-946.6863 810.5414,-942.5498 814.5,-943.1236 814.5,-943.1236 814.5,-943.1236 810.5414,-942.5498 815.0164,-939.5608 806.5827,-941.976 806.5827,-941.976"/>
<ellipse fill="none" stroke="#000000" cx="803.4158" cy="-941.517" rx="3.2" ry="3.2"/>
</g>
<!-- cd_cohort_count -->
<g id="node9" class="node">
<title>cd_cohort_count</title>
<g id="a_node9"><a xlink:href="../../tables/cd_cohort_count.html" xlink:title="cd_cohort_count" target="_top">
<polygon fill="#ffffff" stroke="transparent" points="813.5,-833.6236 813.5,-894.6236 961.5,-894.6236 961.5,-833.6236 813.5,-833.6236"/>
<polygon fill="#f5f5f5" stroke="transparent" points="813.5,-871.1236 813.5,-894.1236 961.5,-894.1236 961.5,-871.1236 813.5,-871.1236"/>
<polygon fill="none" stroke="#000000" points="813.5,-871.1236 813.5,-894.1236 961.5,-894.1236 961.5,-871.1236 813.5,-871.1236"/>
<text text-anchor="start" x="818.5" y="-879.7236" font-family="Helvetica,sans-Serif" font-weight="bold" font-size="11.00" fill="#000000">cd_cohort_count</text>
<text text-anchor="start" x="927.0219" y="-879.2236" font-family="Helvetica,sans-Serif" font-size="11.00" fill="#000000">[table]</text>
<polygon fill="none" stroke="#000000" points="813.5,-852.1236 813.5,-871.1236 961.5,-871.1236 961.5,-852.1236 813.5,-852.1236"/>
<text text-anchor="start" x="816.5" y="-858.2236" font-family="Helvetica,sans-Serif" font-size="11.00" fill="#000000">...</text>
<polygon fill="#ffffff" stroke="transparent" points="813.5,-833.1236 813.5,-852.1236 868.5,-852.1236 868.5,-833.1236 813.5,-833.1236"/>
<polygon fill="none" stroke="#000000" points="813.5,-833.1236 813.5,-852.1236 868.5,-852.1236 868.5,-833.1236 813.5,-833.1236"/>
<text text-anchor="start" x="816.5" y="-839.2236" font-family="Helvetica,sans-Serif" font-size="11.00" fill="#000000">&lt; 1</text>
<polygon fill="#ffffff" stroke="transparent" points="868.5,-833.1236 868.5,-852.1236 923.5,-852.1236 923.5,-833.1236 868.5,-833.1236"/>
<polygon fill="none" stroke="#000000" points="868.5,-833.1236 868.5,-852.1236 923.5,-852.1236 923.5,-833.1236 868.5,-833.1236"/>
<text text-anchor="start" x="888.1105" y="-839.2236" font-family="Helvetica,sans-Serif" font-size="11.00" fill="#000000">0 rows</text>
<polygon fill="#ffffff" stroke="transparent" points="923.5,-833.1236 923.5,-852.1236 961.5,-852.1236 961.5,-833.1236 923.5,-833.1236"/>
<polygon fill="none" stroke="#000000" points="923.5,-833.1236 923.5,-852.1236 961.5,-852.1236 961.5,-833.1236 923.5,-833.1236"/>
<text text-anchor="start" x="942.9053" y="-839.2236" font-family="Helvetica,sans-Serif" font-size="11.00" fill="#000000">2 &gt;</text>
</a>
</g>
</g>
<!-- cd_cohort_count&#45;&gt;database_meta_data -->
<g id="edge17" class="edge">
<title>cd_cohort_count:w&#45;&gt;database_meta_data:e</title>
<path fill="none" stroke="#000000" d="M798.8776,-859.2322C735.313,-841.2823 772.0758,-700.7261 737,-660.1236 729.3102,-651.2221 719.7233,-644.0813 709.3003,-638.353"/>
<polygon fill="#000000" stroke="#000000" points="805.5661,-860.0973 813.0382,-864.6938 809.533,-860.6104 813.5,-861.1236 813.5,-861.1236 813.5,-861.1236 809.533,-860.6104 813.9618,-857.5533 805.5661,-860.0973 805.5661,-860.0973"/>
<ellipse fill="none" stroke="#000000" cx="802.3925" cy="-859.6868" rx="3.2" ry="3.2"/>
</g>
<!-- cg_cohort_count -->
<g id="node10" class="node">
<title>cg_cohort_count</title>
<g id="a_node10"><a xlink:href="../../tables/cg_cohort_count.html" xlink:title="cg_cohort_count" target="_top">
<polygon fill="#ffffff" stroke="transparent" points="813.5,-1025.6236 813.5,-1086.6236 961.5,-1086.6236 961.5,-1025.6236 813.5,-1025.6236"/>
<polygon fill="#f5f5f5" stroke="transparent" points="813.5,-1063.1236 813.5,-1086.1236 961.5,-1086.1236 961.5,-1063.1236 813.5,-1063.1236"/>
<polygon fill="none" stroke="#000000" points="813.5,-1063.1236 813.5,-1086.1236 961.5,-1086.1236 961.5,-1063.1236 813.5,-1063.1236"/>
<text text-anchor="start" x="818.5" y="-1071.7236" font-family="Helvetica,sans-Serif" font-weight="bold" font-size="11.00" fill="#000000">cg_cohort_count</text>
<text text-anchor="start" x="927.0219" y="-1071.2236" font-family="Helvetica,sans-Serif" font-size="11.00" fill="#000000">[table]</text>
<polygon fill="none" stroke="#000000" points="813.5,-1044.1236 813.5,-1063.1236 961.5,-1063.1236 961.5,-1044.1236 813.5,-1044.1236"/>
<text text-anchor="start" x="816.5" y="-1050.2236" font-family="Helvetica,sans-Serif" font-size="11.00" fill="#000000">...</text>
<polygon fill="#ffffff" stroke="transparent" points="813.5,-1025.1236 813.5,-1044.1236 872.5,-1044.1236 872.5,-1025.1236 813.5,-1025.1236"/>
<polygon fill="none" stroke="#000000" points="813.5,-1025.1236 813.5,-1044.1236 872.5,-1044.1236 872.5,-1025.1236 813.5,-1025.1236"/>
<text text-anchor="start" x="816.5" y="-1031.2236" font-family="Helvetica,sans-Serif" font-size="11.00" fill="#000000">&lt; 2</text>
<polygon fill="#ffffff" stroke="transparent" points="872.5,-1025.1236 872.5,-1044.1236 929.5,-1044.1236 929.5,-1025.1236 872.5,-1025.1236"/>
<polygon fill="none" stroke="#000000" points="872.5,-1025.1236 872.5,-1044.1236 929.5,-1044.1236 929.5,-1025.1236 872.5,-1025.1236"/>
<text text-anchor="start" x="894.1105" y="-1031.2236" font-family="Helvetica,sans-Serif" font-size="11.00" fill="#000000">0 rows</text>
<polygon fill="#ffffff" stroke="transparent" points="929.5,-1025.1236 929.5,-1044.1236 961.5,-1044.1236 961.5,-1025.1236 929.5,-1025.1236"/>
<polygon fill="none" stroke="#000000" points="929.5,-1025.1236 929.5,-1044.1236 961.5,-1044.1236 961.5,-1025.1236 929.5,-1025.1236"/>
<text text-anchor="start" x="952.3862" y="-1031.2236" font-family="Helvetica,sans-Serif" font-size="11.00" fill="#000000"> &#160;</text>
</a>
</g>
</g>
<!-- cg_cohort_count&#45;&gt;cg_cohort_definition -->
<g id="edge18" class="edge">
<title>cg_cohort_count:w&#45;&gt;cg_cohort_definition:e</title>
<path fill="none" stroke="#000000" d="M799.1584,-1050.8517C784.2607,-1045.3204 779.266,-1030.1974 770,-1011.1236 738.3758,-946.026 787.6125,-738.8551 737,-687.1236 697.8506,-647.1085 541.3091,-669.7031 487,-656.1236 365.5278,-625.7505 306.9908,-648.8815 224,-555.1236 174.8095,-499.5511 257.7159,-393.1236 183.5,-393.1236"/>
<polygon fill="#000000" stroke="#000000" points="805.5985,-1051.8718 812.9367,-1056.6792 809.5493,-1052.4977 813.5,-1053.1236 813.5,-1053.1236 813.5,-1053.1236 809.5493,-1052.4977 814.0633,-1049.5679 805.5985,-1051.8718 805.5985,-1051.8718"/>
<ellipse fill="none" stroke="#000000" cx="802.4379" cy="-1051.3711" rx="3.2" ry="3.2"/>
</g>
<!-- cg_cohort_count&#45;&gt;database_meta_data -->
<g id="edge19" class="edge">
<title>cg_cohort_count:w&#45;&gt;database_meta_data:e</title>
<path fill="none" stroke="#000000" d="M799.1485,-1050.8565C784.2294,-1045.3355 779.1919,-1030.2332 770,-1011.1236 736.0402,-940.5225 785.0025,-722.0391 737,-660.1236 729.51,-650.4626 719.7635,-642.8731 709.016,-636.9114"/>
<polygon fill="#000000" stroke="#000000" points="805.598,-1051.8752 812.9383,-1056.6795 809.549,-1052.4994 813.5,-1053.1236 813.5,-1053.1236 813.5,-1053.1236 809.549,-1052.4994 814.0617,-1049.5677 805.598,-1051.8752 805.598,-1051.8752"/>
<ellipse fill="none" stroke="#000000" cx="802.4372" cy="-1051.3759" rx="3.2" ry="3.2"/>
</g>
<!-- cg_cohort_generation -->
<g id="node11" class="node">
<title>cg_cohort_generation</title>
<g id="a_node11"><a xlink:href="../../tables/cg_cohort_generation.html" xlink:title="cg_cohort_generation" target="_top">
<polygon fill="#ffffff" stroke="transparent" points="795.5,-751.6236 795.5,-812.6236 979.5,-812.6236 979.5,-751.6236 795.5,-751.6236"/>
<polygon fill="#f5f5f5" stroke="transparent" points="795.5,-789.1236 795.5,-812.1236 979.5,-812.1236 979.5,-789.1236 795.5,-789.1236"/>
<polygon fill="none" stroke="#000000" points="795.5,-789.1236 795.5,-812.1236 979.5,-812.1236 979.5,-789.1236 795.5,-789.1236"/>
<text text-anchor="start" x="800.5" y="-797.7236" font-family="Helvetica,sans-Serif" font-weight="bold" font-size="11.00" fill="#000000">cg_cohort_generation</text>
<text text-anchor="start" x="945.0219" y="-797.2236" font-family="Helvetica,sans-Serif" font-size="11.00" fill="#000000">[table]</text>
<polygon fill="none" stroke="#000000" points="795.5,-770.1236 795.5,-789.1236 979.5,-789.1236 979.5,-770.1236 795.5,-770.1236"/>
<text text-anchor="start" x="798.5" y="-776.2236" font-family="Helvetica,sans-Serif" font-size="11.00" fill="#000000">...</text>
<polygon fill="#ffffff" stroke="transparent" points="795.5,-751.1236 795.5,-770.1236 872.5,-770.1236 872.5,-751.1236 795.5,-751.1236"/>
<polygon fill="none" stroke="#000000" points="795.5,-751.1236 795.5,-770.1236 872.5,-770.1236 872.5,-751.1236 795.5,-751.1236"/>
<text text-anchor="start" x="798.5" y="-757.2236" font-family="Helvetica,sans-Serif" font-size="11.00" fill="#000000">&lt; 1</text>
<polygon fill="#ffffff" stroke="transparent" points="872.5,-751.1236 872.5,-770.1236 938.5,-770.1236 938.5,-751.1236 872.5,-751.1236"/>
<polygon fill="none" stroke="#000000" points="872.5,-751.1236 872.5,-770.1236 938.5,-770.1236 938.5,-751.1236 872.5,-751.1236"/>
<text text-anchor="start" x="903.1105" y="-757.2236" font-family="Helvetica,sans-Serif" font-size="11.00" fill="#000000">0 rows</text>
<polygon fill="#ffffff" stroke="transparent" points="938.5,-751.1236 938.5,-770.1236 979.5,-770.1236 979.5,-751.1236 938.5,-751.1236"/>
<polygon fill="none" stroke="#000000" points="938.5,-751.1236 938.5,-770.1236 979.5,-770.1236 979.5,-751.1236 938.5,-751.1236"/>
<text text-anchor="start" x="970.3862" y="-757.2236" font-family="Helvetica,sans-Serif" font-size="11.00" fill="#000000"> &#160;</text>
</a>
</g>
</g>
<!-- cg_cohort_generation&#45;&gt;database_meta_data -->
<g id="edge20" class="edge">
<title>cg_cohort_generation:w&#45;&gt;database_meta_data:e</title>
<path fill="none" stroke="#000000" d="M782.1005,-773.4312C776.542,-766.1944 776.4186,-753.1877 770,-741.1236 751.7412,-706.8055 765.0494,-687.0372 737,-660.1236 728.8451,-652.2988 719.2324,-645.8208 709.0188,-640.4608"/>
<polygon fill="#000000" stroke="#000000" points="788.1369,-775.9955 794.0924,-782.437 791.8184,-777.5596 795.5,-779.1236 795.5,-779.1236 795.5,-779.1236 791.8184,-777.5596 796.9076,-775.8102 788.1369,-775.9955 788.1369,-775.9955"/>
<ellipse fill="none" stroke="#000000" cx="785.1916" cy="-774.7443" rx="3.2" ry="3.2"/>
</g>
<!-- cg_cohort_inc_result -->
<g id="node12" class="node">
<title>cg_cohort_inc_result</title>
<g id="a_node12"><a xlink:href="../../tables/cg_cohort_inc_result.html" xlink:title="cg_cohort_inc_result" target="_top">
<polygon fill="#ffffff" stroke="transparent" points="800,-669.6236 800,-730.6236 975,-730.6236 975,-669.6236 800,-669.6236"/>
<polygon fill="#f5f5f5" stroke="transparent" points="800.5,-707.1236 800.5,-730.1236 975.5,-730.1236 975.5,-707.1236 800.5,-707.1236"/>
<polygon fill="none" stroke="#000000" points="800.5,-707.1236 800.5,-730.1236 975.5,-730.1236 975.5,-707.1236 800.5,-707.1236"/>
<text text-anchor="start" x="805.5" y="-715.7236" font-family="Helvetica,sans-Serif" font-weight="bold" font-size="11.00" fill="#000000">cg_cohort_inc_result</text>
<text text-anchor="start" x="941.0219" y="-715.2236" font-family="Helvetica,sans-Serif" font-size="11.00" fill="#000000">[table]</text>
<polygon fill="none" stroke="#000000" points="800.5,-688.1236 800.5,-707.1236 975.5,-707.1236 975.5,-688.1236 800.5,-688.1236"/>
<text text-anchor="start" x="803.5" y="-694.2236" font-family="Helvetica,sans-Serif" font-size="11.00" fill="#000000">...</text>
<polygon fill="#ffffff" stroke="transparent" points="800.5,-669.1236 800.5,-688.1236 873.5,-688.1236 873.5,-669.1236 800.5,-669.1236"/>
<polygon fill="none" stroke="#000000" points="800.5,-669.1236 800.5,-688.1236 873.5,-688.1236 873.5,-669.1236 800.5,-669.1236"/>
<text text-anchor="start" x="803.5" y="-675.2236" font-family="Helvetica,sans-Serif" font-size="11.00" fill="#000000">&lt; 1</text>
<polygon fill="#ffffff" stroke="transparent" points="873.5,-669.1236 873.5,-688.1236 937.5,-688.1236 937.5,-669.1236 873.5,-669.1236"/>
<polygon fill="none" stroke="#000000" points="873.5,-669.1236 873.5,-688.1236 937.5,-688.1236 937.5,-669.1236 873.5,-669.1236"/>
<text text-anchor="start" x="902.1105" y="-675.2236" font-family="Helvetica,sans-Serif" font-size="11.00" fill="#000000">0 rows</text>
<polygon fill="#ffffff" stroke="transparent" points="937.5,-669.1236 937.5,-688.1236 975.5,-688.1236 975.5,-669.1236 937.5,-669.1236"/>
<polygon fill="none" stroke="#000000" points="937.5,-669.1236 937.5,-688.1236 975.5,-688.1236 975.5,-669.1236 937.5,-669.1236"/>
<text text-anchor="start" x="966.3862" y="-675.2236" font-family="Helvetica,sans-Serif" font-size="11.00" fill="#000000"> &#160;</text>
</a>
</g>
</g>
<!-- cg_cohort_inc_result&#45;&gt;database_meta_data -->
<g id="edge21" class="edge">
<title>cg_cohort_inc_result:w&#45;&gt;database_meta_data:e</title>
<path fill="none" stroke="#000000" d="M786.1394,-695.2339C766.5735,-689.4295 761.5125,-671.561 737,-660.1236 728.1169,-655.9787 718.7381,-651.9698 709.273,-648.166"/>
<polygon fill="#000000" stroke="#000000" points="792.5684,-696.0798 800.0303,-700.6928 796.5342,-696.6017 800.5,-697.1236 800.5,-697.1236 800.5,-697.1236 796.5342,-696.6017 800.9697,-693.5543 792.5684,-696.0798 792.5684,-696.0798"/>
<ellipse fill="none" stroke="#000000" cx="789.3957" cy="-695.6623" rx="3.2" ry="3.2"/>
</g>
<!-- cg_cohort_inclusion -->
<g id="node13" class="node">
<title>cg_cohort_inclusion</title>
<g id="a_node13"><a xlink:href="../../tables/cg_cohort_inclusion.html" xlink:title="cg_cohort_inclusion" target="_top">
<polygon fill="#ffffff" stroke="transparent" points="254,-483.6236 254,-544.6236 424,-544.6236 424,-483.6236 254,-483.6236"/>
<polygon fill="#f5f5f5" stroke="transparent" points="254,-521.1236 254,-544.1236 424,-544.1236 424,-521.1236 254,-521.1236"/>
<polygon fill="none" stroke="#000000" points="254,-521.1236 254,-544.1236 424,-544.1236 424,-521.1236 254,-521.1236"/>
<text text-anchor="start" x="259" y="-529.7236" font-family="Helvetica,sans-Serif" font-weight="bold" font-size="11.00" fill="#000000">cg_cohort_inclusion</text>
<text text-anchor="start" x="389.5219" y="-529.2236" font-family="Helvetica,sans-Serif" font-size="11.00" fill="#000000">[table]</text>
<polygon fill="none" stroke="#000000" points="254,-502.1236 254,-521.1236 424,-521.1236 424,-502.1236 254,-502.1236"/>
<text text-anchor="start" x="257" y="-508.2236" font-family="Helvetica,sans-Serif" font-size="11.00" fill="#000000">...</text>
<polygon fill="#ffffff" stroke="transparent" points="254,-483.1236 254,-502.1236 324,-502.1236 324,-483.1236 254,-483.1236"/>
<polygon fill="none" stroke="#000000" points="254,-483.1236 254,-502.1236 324,-502.1236 324,-483.1236 254,-483.1236"/>
<text text-anchor="start" x="257" y="-489.2236" font-family="Helvetica,sans-Serif" font-size="11.00" fill="#000000">&lt; 1</text>
<polygon fill="#ffffff" stroke="transparent" points="324,-483.1236 324,-502.1236 387,-502.1236 387,-483.1236 324,-483.1236"/>
<polygon fill="none" stroke="#000000" points="324,-483.1236 324,-502.1236 387,-502.1236 387,-483.1236 324,-483.1236"/>
<text text-anchor="start" x="351.6105" y="-489.2236" font-family="Helvetica,sans-Serif" font-size="11.00" fill="#000000">0 rows</text>
<polygon fill="#ffffff" stroke="transparent" points="387,-483.1236 387,-502.1236 424,-502.1236 424,-483.1236 387,-483.1236"/>
<polygon fill="none" stroke="#000000" points="387,-483.1236 387,-502.1236 424,-502.1236 424,-483.1236 387,-483.1236"/>
<text text-anchor="start" x="414.8862" y="-489.2236" font-family="Helvetica,sans-Serif" font-size="11.00" fill="#000000"> &#160;</text>
</a>
</g>
</g>
<!-- cg_cohort_inclusion&#45;&gt;cg_cohort_definition -->
<g id="edge22" class="edge">
<title>cg_cohort_inclusion:w&#45;&gt;cg_cohort_definition:e</title>
<path fill="none" stroke="#000000" d="M239.8524,-508.3231C201.4467,-490.4538 238.9837,-393.1236 183.5,-393.1236"/>
<polygon fill="#000000" stroke="#000000" points="246.1523,-509.5701 253.3009,-514.655 250.0761,-510.3468 254,-511.1236 254,-511.1236 254,-511.1236 250.0761,-510.3468 254.6991,-507.5921 246.1523,-509.5701 246.1523,-509.5701"/>
<ellipse fill="none" stroke="#000000" cx="243.0132" cy="-508.9487" rx="3.2" ry="3.2"/>
</g>
<!-- cg_cohort_summary_stats -->
<g id="node14" class="node">
<title>cg_cohort_summary_stats</title>
<g id="a_node14"><a xlink:href="../../tables/cg_cohort_summary_stats.html" xlink:title="cg_cohort_summary_stats" target="_top">
<polygon fill="#ffffff" stroke="transparent" points="781.5,-477.6236 781.5,-538.6236 993.5,-538.6236 993.5,-477.6236 781.5,-477.6236"/>
<polygon fill="#f5f5f5" stroke="transparent" points="781.5,-515.1236 781.5,-538.1236 993.5,-538.1236 993.5,-515.1236 781.5,-515.1236"/>
<polygon fill="none" stroke="#000000" points="781.5,-515.1236 781.5,-538.1236 993.5,-538.1236 993.5,-515.1236 781.5,-515.1236"/>
<text text-anchor="start" x="786.5" y="-523.7236" font-family="Helvetica,sans-Serif" font-weight="bold" font-size="11.00" fill="#000000">cg_cohort_summary_stats</text>
<text text-anchor="start" x="959.0219" y="-523.2236" font-family="Helvetica,sans-Serif" font-size="11.00" fill="#000000">[table]</text>
<polygon fill="none" stroke="#000000" points="781.5,-496.1236 781.5,-515.1236 993.5,-515.1236 993.5,-496.1236 781.5,-496.1236"/>
<text text-anchor="start" x="784.5" y="-502.2236" font-family="Helvetica,sans-Serif" font-size="11.00" fill="#000000">...</text>
<polygon fill="#ffffff" stroke="transparent" points="781.5,-477.1236 781.5,-496.1236 872.5,-496.1236 872.5,-477.1236 781.5,-477.1236"/>
<polygon fill="none" stroke="#000000" points="781.5,-477.1236 781.5,-496.1236 872.5,-496.1236 872.5,-477.1236 781.5,-477.1236"/>
<text text-anchor="start" x="784.5" y="-483.2236" font-family="Helvetica,sans-Serif" font-size="11.00" fill="#000000">&lt; 2</text>
<polygon fill="#ffffff" stroke="transparent" points="872.5,-477.1236 872.5,-496.1236 945.5,-496.1236 945.5,-477.1236 872.5,-477.1236"/>
<polygon fill="none" stroke="#000000" points="872.5,-477.1236 872.5,-496.1236 945.5,-496.1236 945.5,-477.1236 872.5,-477.1236"/>
<text text-anchor="start" x="910.1105" y="-483.2236" font-family="Helvetica,sans-Serif" font-size="11.00" fill="#000000">0 rows</text>
<polygon fill="#ffffff" stroke="transparent" points="945.5,-477.1236 945.5,-496.1236 993.5,-496.1236 993.5,-477.1236 945.5,-477.1236"/>
<polygon fill="none" stroke="#000000" points="945.5,-477.1236 945.5,-496.1236 993.5,-496.1236 993.5,-477.1236 945.5,-477.1236"/>
<text text-anchor="start" x="984.3862" y="-483.2236" font-family="Helvetica,sans-Serif" font-size="11.00" fill="#000000"> &#160;</text>
</a>
</g>
</g>
<!-- cg_cohort_summary_stats&#45;&gt;cg_cohort_definition -->
<g id="edge23" class="edge">
<title>cg_cohort_summary_stats:w&#45;&gt;cg_cohort_definition:e</title>
<path fill="none" stroke="#000000" d="M767.0567,-503.9621C679.8772,-495.8557 236.5709,-447.863 224,-441.1236 199.3997,-427.935 211.4126,-393.1236 183.5,-393.1236"/>
<polygon fill="#000000" stroke="#000000" points="773.5257,-504.4822 781.2114,-508.712 777.5129,-504.8029 781.5,-505.1236 781.5,-505.1236 781.5,-505.1236 777.5129,-504.8029 781.7886,-501.5351 773.5257,-504.4822 773.5257,-504.4822"/>
<ellipse fill="none" stroke="#000000" cx="770.336" cy="-504.2257" rx="3.2" ry="3.2"/>
</g>
<!-- cg_cohort_summary_stats&#45;&gt;database_meta_data -->
<g id="edge24" class="edge">
<title>cg_cohort_summary_stats:w&#45;&gt;database_meta_data:e</title>
<path fill="none" stroke="#000000" d="M767.0829,-506.0471C716.3573,-512.474 670.1843,-551.1336 641.6591,-580.6207"/>
<polygon fill="#000000" stroke="#000000" points="773.5164,-505.635 781.7302,-508.7162 777.5082,-505.3793 781.5,-505.1236 781.5,-505.1236 781.5,-505.1236 777.5082,-505.3793 781.2698,-501.5309 773.5164,-505.635 773.5164,-505.635"/>
<ellipse fill="none" stroke="#000000" cx="770.3229" cy="-505.8396" rx="3.2" ry="3.2"/>
</g>
<!-- ci_incidence_summary -->
<g id="node15" class="node">
<title>ci_incidence_summary</title>
<g id="a_node15"><a xlink:href="../../tables/ci_incidence_summary.html" xlink:title="ci_incidence_summary" target="_top">
<polygon fill="#ffffff" stroke="transparent" points="793,-395.6236 793,-456.6236 982,-456.6236 982,-395.6236 793,-395.6236"/>
<polygon fill="#f5f5f5" stroke="transparent" points="793.5,-433.1236 793.5,-456.1236 982.5,-456.1236 982.5,-433.1236 793.5,-433.1236"/>
<polygon fill="none" stroke="#000000" points="793.5,-433.1236 793.5,-456.1236 982.5,-456.1236 982.5,-433.1236 793.5,-433.1236"/>
<text text-anchor="start" x="798.5" y="-441.7236" font-family="Helvetica,sans-Serif" font-weight="bold" font-size="11.00" fill="#000000">ci_incidence_summary</text>
<text text-anchor="start" x="948.0219" y="-441.2236" font-family="Helvetica,sans-Serif" font-size="11.00" fill="#000000">[table]</text>
<polygon fill="none" stroke="#000000" points="793.5,-414.1236 793.5,-433.1236 982.5,-433.1236 982.5,-414.1236 793.5,-414.1236"/>
<text text-anchor="start" x="796.5" y="-420.2236" font-family="Helvetica,sans-Serif" font-size="11.00" fill="#000000">...</text>
<polygon fill="#ffffff" stroke="transparent" points="793.5,-395.1236 793.5,-414.1236 876.5,-414.1236 876.5,-395.1236 793.5,-395.1236"/>
<polygon fill="none" stroke="#000000" points="793.5,-395.1236 793.5,-414.1236 876.5,-414.1236 876.5,-395.1236 793.5,-395.1236"/>
<text text-anchor="start" x="796.5" y="-401.2236" font-family="Helvetica,sans-Serif" font-size="11.00" fill="#000000">&lt; 10</text>
<polygon fill="#ffffff" stroke="transparent" points="876.5,-395.1236 876.5,-414.1236 942.5,-414.1236 942.5,-395.1236 876.5,-395.1236"/>
<polygon fill="none" stroke="#000000" points="876.5,-395.1236 876.5,-414.1236 942.5,-414.1236 942.5,-395.1236 876.5,-395.1236"/>
<text text-anchor="start" x="907.1105" y="-401.2236" font-family="Helvetica,sans-Serif" font-size="11.00" fill="#000000">0 rows</text>
<polygon fill="#ffffff" stroke="transparent" points="942.5,-395.1236 942.5,-414.1236 982.5,-414.1236 982.5,-395.1236 942.5,-395.1236"/>
<polygon fill="none" stroke="#000000" points="942.5,-395.1236 942.5,-414.1236 982.5,-414.1236 982.5,-395.1236 942.5,-395.1236"/>
<text text-anchor="start" x="973.3862" y="-401.2236" font-family="Helvetica,sans-Serif" font-size="11.00" fill="#000000"> &#160;</text>
</a>
</g>
</g>
<!-- ci_incidence_summary&#45;&gt;cg_cohort_definition -->
<g id="edge26" class="edge">
<title>ci_incidence_summary:w&#45;&gt;cg_cohort_definition:e</title>
<path fill="none" stroke="#000000" d="M778.8731,-423.1864C537.5061,-425.2674 464.1142,-477.9284 224,-415.1236 204.1824,-409.94 203.9843,-393.1236 183.5,-393.1236"/>
<polygon fill="#000000" stroke="#000000" points="785.5001,-423.158 793.5155,-426.7235 789.5,-423.1408 793.5,-423.1236 793.5,-423.1236 793.5,-423.1236 789.5,-423.1408 793.4845,-419.5236 785.5001,-423.158 785.5001,-423.158"/>
<ellipse fill="none" stroke="#000000" cx="782.3001" cy="-423.1718" rx="3.2" ry="3.2"/>
</g>
<!-- ci_incidence_summary&#45;&gt;database_meta_data -->
<g id="edge25" class="edge">
<title>ci_incidence_summary:w&#45;&gt;database_meta_data:e</title>
<path fill="none" stroke="#000000" d="M779.2038,-426.2346C735.2406,-443.7212 669.9579,-530.7521 635.4106,-580.3538"/>
<polygon fill="#000000" stroke="#000000" points="785.683,-424.8247 794.2655,-426.6412 789.5915,-423.9741 793.5,-423.1236 793.5,-423.1236 793.5,-423.1236 789.5915,-423.9741 792.7345,-419.6059 785.683,-424.8247 785.683,-424.8247"/>
<ellipse fill="none" stroke="#000000" cx="782.5561" cy="-425.5052" rx="3.2" ry="3.2"/>
</g>
<!-- cm_covariate_balance -->
<g id="node16" class="node">
<title>cm_covariate_balance</title>
<g id="a_node16"><a xlink:href="../../tables/cm_covariate_balance.html" xlink:title="cm_covariate_balance" target="_top">
<polygon fill="#ffffff" stroke="transparent" points="794.5,-587.6236 794.5,-648.6236 980.5,-648.6236 980.5,-587.6236 794.5,-587.6236"/>
<polygon fill="#f5f5f5" stroke="transparent" points="794.5,-625.1236 794.5,-648.1236 980.5,-648.1236 980.5,-625.1236 794.5,-625.1236"/>
<polygon fill="none" stroke="#000000" points="794.5,-625.1236 794.5,-648.1236 980.5,-648.1236 980.5,-625.1236 794.5,-625.1236"/>
<text text-anchor="start" x="799.5" y="-633.7236" font-family="Helvetica,sans-Serif" font-weight="bold" font-size="11.00" fill="#000000">cm_covariate_balance</text>
<text text-anchor="start" x="946.0219" y="-633.2236" font-family="Helvetica,sans-Serif" font-size="11.00" fill="#000000">[table]</text>
<polygon fill="none" stroke="#000000" points="794.5,-606.1236 794.5,-625.1236 980.5,-625.1236 980.5,-606.1236 794.5,-606.1236"/>
<text text-anchor="start" x="797.5" y="-612.2236" font-family="Helvetica,sans-Serif" font-size="11.00" fill="#000000">...</text>
<polygon fill="#ffffff" stroke="transparent" points="794.5,-587.1236 794.5,-606.1236 872.5,-606.1236 872.5,-587.1236 794.5,-587.1236"/>
<polygon fill="none" stroke="#000000" points="794.5,-587.1236 794.5,-606.1236 872.5,-606.1236 872.5,-587.1236 794.5,-587.1236"/>
<text text-anchor="start" x="797.5" y="-593.2236" font-family="Helvetica,sans-Serif" font-size="11.00" fill="#000000">&lt; 4</text>
<polygon fill="#ffffff" stroke="transparent" points="872.5,-587.1236 872.5,-606.1236 939.5,-606.1236 939.5,-587.1236 872.5,-587.1236"/>
<polygon fill="none" stroke="#000000" points="872.5,-587.1236 872.5,-606.1236 939.5,-606.1236 939.5,-587.1236 872.5,-587.1236"/>
<text text-anchor="start" x="904.1105" y="-593.2236" font-family="Helvetica,sans-Serif" font-size="11.00" fill="#000000">0 rows</text>
<polygon fill="#ffffff" stroke="transparent" points="939.5,-587.1236 939.5,-606.1236 980.5,-606.1236 980.5,-587.1236 939.5,-587.1236"/>
<polygon fill="none" stroke="#000000" points="939.5,-587.1236 939.5,-606.1236 980.5,-606.1236 980.5,-587.1236 939.5,-587.1236"/>
<text text-anchor="start" x="971.3862" y="-593.2236" font-family="Helvetica,sans-Serif" font-size="11.00" fill="#000000"> &#160;</text>
</a>
</g>
</g>
<!-- cm_covariate_balance&#45;&gt;database_meta_data -->
<g id="edge27" class="edge">
<title>cm_covariate_balance:w&#45;&gt;database_meta_data:e</title>
<path fill="none" stroke="#000000" d="M780.0198,-615.1236C756.5057,-615.1236 731.9397,-615.1236 709.0808,-615.1236"/>
<polygon fill="#000000" stroke="#000000" points="786.5,-615.1236 794.5,-618.7236 790.5,-615.1236 794.5,-615.1236 794.5,-615.1236 794.5,-615.1236 790.5,-615.1236 794.5,-611.5236 786.5,-615.1236 786.5,-615.1236"/>
<ellipse fill="none" stroke="#000000" cx="783.3" cy="-615.1236" rx="3.2" ry="3.2"/>
</g>
<!-- cm_diagnostics_summary -->
<g id="node17" class="node">
<title>cm_diagnostics_summary</title>
<g id="a_node17"><a xlink:href="../../tables/cm_diagnostics_summary.html" xlink:title="cm_diagnostics_summary" target="_top">
<polygon fill="#ffffff" stroke="transparent" points="782.5,-313.6236 782.5,-374.6236 992.5,-374.6236 992.5,-313.6236 782.5,-313.6236"/>
<polygon fill="#f5f5f5" stroke="transparent" points="782.5,-351.1236 782.5,-374.1236 992.5,-374.1236 992.5,-351.1236 782.5,-351.1236"/>
<polygon fill="none" stroke="#000000" points="782.5,-351.1236 782.5,-374.1236 992.5,-374.1236 992.5,-351.1236 782.5,-351.1236"/>
<text text-anchor="start" x="787.5" y="-359.7236" font-family="Helvetica,sans-Serif" font-weight="bold" font-size="11.00" fill="#000000">cm_diagnostics_summary</text>
<text text-anchor="start" x="958.0219" y="-359.2236" font-family="Helvetica,sans-Serif" font-size="11.00" fill="#000000">[table]</text>
<polygon fill="none" stroke="#000000" points="782.5,-332.1236 782.5,-351.1236 992.5,-351.1236 992.5,-332.1236 782.5,-332.1236"/>
<text text-anchor="start" x="785.5" y="-338.2236" font-family="Helvetica,sans-Serif" font-size="11.00" fill="#000000">...</text>
<polygon fill="#ffffff" stroke="transparent" points="782.5,-313.1236 782.5,-332.1236 868.5,-332.1236 868.5,-313.1236 782.5,-313.1236"/>
<polygon fill="none" stroke="#000000" points="782.5,-313.1236 782.5,-332.1236 868.5,-332.1236 868.5,-313.1236 782.5,-313.1236"/>
<text text-anchor="start" x="785.5" y="-319.2236" font-family="Helvetica,sans-Serif" font-size="11.00" fill="#000000">&lt; 5</text>
<polygon fill="#ffffff" stroke="transparent" points="868.5,-313.1236 868.5,-332.1236 938.5,-332.1236 938.5,-313.1236 868.5,-313.1236"/>
<polygon fill="none" stroke="#000000" points="868.5,-313.1236 868.5,-332.1236 938.5,-332.1236 938.5,-313.1236 868.5,-313.1236"/>
<text text-anchor="start" x="903.1105" y="-319.2236" font-family="Helvetica,sans-Serif" font-size="11.00" fill="#000000">0 rows</text>
<polygon fill="#ffffff" stroke="transparent" points="938.5,-313.1236 938.5,-332.1236 992.5,-332.1236 992.5,-313.1236 938.5,-313.1236"/>
<polygon fill="none" stroke="#000000" points="938.5,-313.1236 938.5,-332.1236 992.5,-332.1236 992.5,-313.1236 938.5,-313.1236"/>
<text text-anchor="start" x="973.9053" y="-319.2236" font-family="Helvetica,sans-Serif" font-size="11.00" fill="#000000">1 &gt;</text>
</a>
</g>
</g>
<!-- cm_diagnostics_summary&#45;&gt;cg_cohort_definition -->
<g id="edge28" class="edge">
<title>cm_diagnostics_summary:w&#45;&gt;cg_cohort_definition:e</title>
<path fill="none" stroke="#000000" d="M767.832,-341.1766C512.8112,-343.0353 445.7652,-393.1236 183.5,-393.1236"/>
<polygon fill="#000000" stroke="#000000" points="774.5001,-341.1525 782.513,-344.7235 778.5,-341.1381 782.5,-341.1236 782.5,-341.1236 782.5,-341.1236 778.5,-341.1381 782.487,-337.5236 774.5001,-341.1525 774.5001,-341.1525"/>
<ellipse fill="none" stroke="#000000" cx="771.3001" cy="-341.1641" rx="3.2" ry="3.2"/>
</g>
<!-- cm_diagnostics_summary&#45;&gt;cg_cohort_definition -->
<g id="edge30" class="edge">
<title>cm_diagnostics_summary:w&#45;&gt;cg_cohort_definition:e</title>
<path fill="none" stroke="#000000" d="M767.832,-340.8488C512.8112,-337.0374 445.7652,-387.2349 183.5,-393.1236"/>
<polygon fill="#000000" stroke="#000000" points="774.5014,-340.9737 782.4326,-344.7229 778.5007,-341.0486 782.5,-341.1236 782.5,-341.1236 782.5,-341.1236 778.5007,-341.0486 782.5674,-337.5242 774.5014,-340.9737 774.5014,-340.9737"/>
<ellipse fill="none" stroke="#000000" cx="771.302" cy="-340.9137" rx="3.2" ry="3.2"/>
</g>
<!-- cm_diagnostics_summary&#45;&gt;cg_cohort_definition -->
<g id="edge31" class="edge">
<title>cm_diagnostics_summary:w&#45;&gt;cg_cohort_definition:e</title>
<path fill="none" stroke="#000000" d="M767.832,-341.559C512.8112,-350.0329 445.7652,-399.9937 183.5,-393.1236"/>
<polygon fill="#000000" stroke="#000000" points="774.5035,-341.361 782.6069,-344.722 778.5018,-341.2423 782.5,-341.1236 782.5,-341.1236 782.5,-341.1236 778.5018,-341.2423 782.3931,-337.5251 774.5035,-341.361 774.5035,-341.361"/>
<ellipse fill="none" stroke="#000000" cx="771.3049" cy="-341.456" rx="3.2" ry="3.2"/>
</g>
<!-- cm_diagnostics_summary&#45;&gt;database_meta_data -->
<g id="edge29" class="edge">
<title>cm_diagnostics_summary:w&#45;&gt;database_meta_data:e</title>
<path fill="none" stroke="#000000" d="M768.1758,-343.8159C747.2055,-353.478 754.2434,-387.308 737,-415.1236 700.9712,-473.242 658.7547,-540.6445 633.7556,-580.4858"/>
<polygon fill="#000000" stroke="#000000" points="774.6377,-342.6014 783.165,-344.6616 778.5688,-341.8625 782.5,-341.1236 782.5,-341.1236 782.5,-341.1236 778.5688,-341.8625 781.835,-337.5855 774.6377,-342.6014 774.6377,-342.6014"/>
<ellipse fill="none" stroke="#000000" cx="771.4927" cy="-343.1925" rx="3.2" ry="3.2"/>
</g>
<!-- plp_cohorts -->
<g id="node18" class="node">
<title>plp_cohorts</title>
<g id="a_node18"><a xlink:href="../../tables/plp_cohorts.html" xlink:title="plp_cohorts" target="_top">
<polygon fill="#ffffff" stroke="transparent" points="280.5,-295.6236 280.5,-356.6236 397.5,-356.6236 397.5,-295.6236 280.5,-295.6236"/>
<polygon fill="#f5f5f5" stroke="transparent" points="281,-333.1236 281,-356.1236 398,-356.1236 398,-333.1236 281,-333.1236"/>
<polygon fill="none" stroke="#000000" points="281,-333.1236 281,-356.1236 398,-356.1236 398,-333.1236 281,-333.1236"/>
<text text-anchor="start" x="286" y="-341.7236" font-family="Helvetica,sans-Serif" font-weight="bold" font-size="11.00" fill="#000000">plp_cohorts</text>
<text text-anchor="start" x="363.5219" y="-341.2236" font-family="Helvetica,sans-Serif" font-size="11.00" fill="#000000">[table]</text>
<polygon fill="none" stroke="#000000" points="281,-314.1236 281,-333.1236 398,-333.1236 398,-314.1236 281,-314.1236"/>
<text text-anchor="start" x="284" y="-320.2236" font-family="Helvetica,sans-Serif" font-size="11.00" fill="#000000">...</text>
<polygon fill="#ffffff" stroke="transparent" points="281,-295.1236 281,-314.1236 325,-314.1236 325,-295.1236 281,-295.1236"/>
<polygon fill="none" stroke="#000000" points="281,-295.1236 281,-314.1236 325,-314.1236 325,-295.1236 281,-295.1236"/>
<text text-anchor="start" x="284" y="-301.2236" font-family="Helvetica,sans-Serif" font-size="11.00" fill="#000000">&lt; 1</text>
<polygon fill="#ffffff" stroke="transparent" points="325,-295.1236 325,-314.1236 374,-314.1236 374,-295.1236 325,-295.1236"/>
<polygon fill="none" stroke="#000000" points="325,-295.1236 325,-314.1236 374,-314.1236 374,-295.1236 325,-295.1236"/>
<text text-anchor="start" x="338.6105" y="-301.2236" font-family="Helvetica,sans-Serif" font-size="11.00" fill="#000000">0 rows</text>
<polygon fill="#ffffff" stroke="transparent" points="374,-295.1236 374,-314.1236 398,-314.1236 398,-295.1236 374,-295.1236"/>
<polygon fill="none" stroke="#000000" points="374,-295.1236 374,-314.1236 398,-314.1236 398,-295.1236 374,-295.1236"/>
<text text-anchor="start" x="388.8862" y="-301.2236" font-family="Helvetica,sans-Serif" font-size="11.00" fill="#000000"> &#160;</text>
</a>
</g>
</g>
<!-- plp_cohorts&#45;&gt;cg_cohort_definition -->
<g id="edge33" class="edge">
<title>plp_cohorts:w&#45;&gt;cg_cohort_definition:e</title>
<path fill="none" stroke="#000000" d="M266.5506,-325.143C228.8767,-336.6203 231.4271,-393.1236 183.5,-393.1236"/>
<polygon fill="#000000" stroke="#000000" points="273.077,-324.2309 281.4983,-326.6889 277.0385,-323.6773 281,-323.1236 281,-323.1236 281,-323.1236 277.0385,-323.6773 280.5017,-319.5582 273.077,-324.2309 273.077,-324.2309"/>
<ellipse fill="none" stroke="#000000" cx="269.9078" cy="-324.6739" rx="3.2" ry="3.2"/>
</g>
<!-- plp_diagnostics -->
<g id="node19" class="node">
<title>plp_diagnostics</title>
<g id="a_node19"><a xlink:href="../../tables/plp_diagnostics.html" xlink:title="plp_diagnostics" target="_top">
<polygon fill="#ffffff" stroke="transparent" points="816,-231.6236 816,-292.6236 959,-292.6236 959,-231.6236 816,-231.6236"/>
<polygon fill="#f5f5f5" stroke="transparent" points="816.5,-269.1236 816.5,-292.1236 959.5,-292.1236 959.5,-269.1236 816.5,-269.1236"/>
<polygon fill="none" stroke="#000000" points="816.5,-269.1236 816.5,-292.1236 959.5,-292.1236 959.5,-269.1236 816.5,-269.1236"/>
<text text-anchor="start" x="821.5" y="-277.7236" font-family="Helvetica,sans-Serif" font-weight="bold" font-size="11.00" fill="#000000">plp_diagnostics</text>
<text text-anchor="start" x="925.0219" y="-277.2236" font-family="Helvetica,sans-Serif" font-size="11.00" fill="#000000">[table]</text>
<polygon fill="none" stroke="#000000" points="816.5,-250.1236 816.5,-269.1236 959.5,-269.1236 959.5,-250.1236 816.5,-250.1236"/>
<text text-anchor="start" x="819.5" y="-256.2236" font-family="Helvetica,sans-Serif" font-size="11.00" fill="#000000">...</text>
<polygon fill="#ffffff" stroke="transparent" points="816.5,-231.1236 816.5,-250.1236 873.5,-250.1236 873.5,-231.1236 816.5,-231.1236"/>
<polygon fill="none" stroke="#000000" points="816.5,-231.1236 816.5,-250.1236 873.5,-250.1236 873.5,-231.1236 816.5,-231.1236"/>
<text text-anchor="start" x="819.5" y="-237.2236" font-family="Helvetica,sans-Serif" font-size="11.00" fill="#000000">&lt; 3</text>
<polygon fill="#ffffff" stroke="transparent" points="873.5,-231.1236 873.5,-250.1236 929.5,-250.1236 929.5,-231.1236 873.5,-231.1236"/>
<polygon fill="none" stroke="#000000" points="873.5,-231.1236 873.5,-250.1236 929.5,-250.1236 929.5,-231.1236 873.5,-231.1236"/>
<text text-anchor="start" x="894.1105" y="-237.2236" font-family="Helvetica,sans-Serif" font-size="11.00" fill="#000000">0 rows</text>
<polygon fill="#ffffff" stroke="transparent" points="929.5,-231.1236 929.5,-250.1236 959.5,-250.1236 959.5,-231.1236 929.5,-231.1236"/>
<polygon fill="none" stroke="#000000" points="929.5,-231.1236 929.5,-250.1236 959.5,-250.1236 959.5,-231.1236 929.5,-231.1236"/>
<text text-anchor="start" x="950.3862" y="-237.2236" font-family="Helvetica,sans-Serif" font-size="11.00" fill="#000000"> &#160;</text>
</a>
</g>
</g>
<!-- plp_diagnostics&#45;&gt;database_meta_data -->
<g id="edge34" class="edge">
<title>plp_diagnostics:w&#45;&gt;database_meta_data:e</title>
<path fill="none" stroke="#000000" d="M801.7705,-259.9205C666.4245,-274.7922 626.1406,-493.8235 615.4716,-580.3406"/>
<polygon fill="#000000" stroke="#000000" points="808.5117,-259.5558 816.6945,-262.7183 812.5058,-259.3397 816.5,-259.1236 816.5,-259.1236 816.5,-259.1236 812.5058,-259.3397 816.3055,-255.5288 808.5117,-259.5558 808.5117,-259.5558"/>
<ellipse fill="none" stroke="#000000" cx="805.3164" cy="-259.7287" rx="3.2" ry="3.2"/>
</g>
<!-- plp_model_designs -->
<g id="node20" class="node">
<title>plp_model_designs</title>
<g id="a_node20"><a xlink:href="../../tables/plp_model_designs.html" xlink:title="plp_model_designs" target="_top">
<polygon fill="#ffffff" stroke="transparent" points="256,-213.6236 256,-274.6236 422,-274.6236 422,-213.6236 256,-213.6236"/>
<polygon fill="#f5f5f5" stroke="transparent" points="256,-251.1236 256,-274.1236 422,-274.1236 422,-251.1236 256,-251.1236"/>
<polygon fill="none" stroke="#000000" points="256,-251.1236 256,-274.1236 422,-274.1236 422,-251.1236 256,-251.1236"/>
<text text-anchor="start" x="261" y="-259.7236" font-family="Helvetica,sans-Serif" font-weight="bold" font-size="11.00" fill="#000000">plp_model_designs</text>
<text text-anchor="start" x="387.5219" y="-259.2236" font-family="Helvetica,sans-Serif" font-size="11.00" fill="#000000">[table]</text>
<polygon fill="none" stroke="#000000" points="256,-232.1236 256,-251.1236 422,-251.1236 422,-232.1236 256,-232.1236"/>
<text text-anchor="start" x="259" y="-238.2236" font-family="Helvetica,sans-Serif" font-size="11.00" fill="#000000">...</text>
<polygon fill="#ffffff" stroke="transparent" points="256,-213.1236 256,-232.1236 320,-232.1236 320,-213.1236 256,-213.1236"/>
<polygon fill="none" stroke="#000000" points="256,-213.1236 256,-232.1236 320,-232.1236 320,-213.1236 256,-213.1236"/>
<text text-anchor="start" x="259" y="-219.2236" font-family="Helvetica,sans-Serif" font-size="11.00" fill="#000000">&lt; 2</text>
<polygon fill="#ffffff" stroke="transparent" points="320,-213.1236 320,-232.1236 379,-232.1236 379,-213.1236 320,-213.1236"/>
<polygon fill="none" stroke="#000000" points="320,-213.1236 320,-232.1236 379,-232.1236 379,-213.1236 320,-213.1236"/>
<text text-anchor="start" x="343.6105" y="-219.2236" font-family="Helvetica,sans-Serif" font-size="11.00" fill="#000000">0 rows</text>
<polygon fill="#ffffff" stroke="transparent" points="379,-213.1236 379,-232.1236 422,-232.1236 422,-213.1236 379,-213.1236"/>
<polygon fill="none" stroke="#000000" points="379,-213.1236 379,-232.1236 422,-232.1236 422,-213.1236 379,-213.1236"/>
<text text-anchor="start" x="403.4053" y="-219.2236" font-family="Helvetica,sans-Serif" font-size="11.00" fill="#000000">1 &gt;</text>
</a>
</g>
</g>
<!-- plp_diagnostics&#45;&gt;plp_model_designs -->
<g id="edge35" class="edge">
<title>plp_diagnostics:w&#45;&gt;plp_model_designs:e</title>
<path fill="none" stroke="#000000" d="M801.8997,-259.0811C638.4163,-258.1185 592.5451,-241.1236 422,-241.1236"/>
<polygon fill="#000000" stroke="#000000" points="808.5,-259.1002 816.4895,-262.7235 812.5,-259.1119 816.5,-259.1236 816.5,-259.1236 816.5,-259.1236 812.5,-259.1119 816.5105,-255.5236 808.5,-259.1002 808.5,-259.1002"/>
<ellipse fill="none" stroke="#000000" cx="805.3" cy="-259.0909" rx="3.2" ry="3.2"/>
</g>
<!-- plp_model_designs&#45;&gt;cg_cohort_definition -->
<g id="edge36" class="edge">
<title>plp_model_designs:w&#45;&gt;cg_cohort_definition:e</title>
<path fill="none" stroke="#000000" d="M241.4085,-242.3683C192.0311,-257.4327 252.6455,-387.5806 183.5,-393.1236"/>
<polygon fill="#000000" stroke="#000000" points="248.029,-241.8036 256.306,-244.7105 252.0145,-241.4636 256,-241.1236 256,-241.1236 256,-241.1236 252.0145,-241.4636 255.694,-237.5366 248.029,-241.8036 248.029,-241.8036"/>
<ellipse fill="none" stroke="#000000" cx="244.8405" cy="-242.0756" rx="3.2" ry="3.2"/>
</g>
<!-- plp_model_designs&#45;&gt;cg_cohort_definition -->
<g id="edge37" class="edge">
<title>plp_model_designs:w&#45;&gt;cg_cohort_definition:e</title>
<path fill="none" stroke="#000000" d="M242.0407,-244.7981C191.5162,-269.262 252.9378,-399.6177 183.5,-393.1236"/>
<polygon fill="#000000" stroke="#000000" points="248.2635,-243.1601 256.9164,-244.605 252.1318,-242.1418 256,-241.1236 256,-241.1236 256,-241.1236 252.1318,-242.1418 255.0836,-237.6422 248.2635,-243.1601 248.2635,-243.1601"/>
<ellipse fill="none" stroke="#000000" cx="245.169" cy="-243.9747" rx="3.2" ry="3.2"/>
</g>
<!-- plp_performances -->
<g id="node21" class="node">
<title>plp_performances</title>
<g id="a_node21"><a xlink:href="../../tables/plp_performances.html" xlink:title="plp_performances" target="_top">
<polygon fill="#ffffff" stroke="transparent" points="808,-149.6236 808,-210.6236 967,-210.6236 967,-149.6236 808,-149.6236"/>
<polygon fill="#f5f5f5" stroke="transparent" points="808.5,-187.1236 808.5,-210.1236 967.5,-210.1236 967.5,-187.1236 808.5,-187.1236"/>
<polygon fill="none" stroke="#000000" points="808.5,-187.1236 808.5,-210.1236 967.5,-210.1236 967.5,-187.1236 808.5,-187.1236"/>
<text text-anchor="start" x="813.5" y="-195.7236" font-family="Helvetica,sans-Serif" font-weight="bold" font-size="11.00" fill="#000000">plp_performances</text>
<text text-anchor="start" x="933.0219" y="-195.2236" font-family="Helvetica,sans-Serif" font-size="11.00" fill="#000000">[table]</text>
<polygon fill="none" stroke="#000000" points="808.5,-168.1236 808.5,-187.1236 967.5,-187.1236 967.5,-168.1236 808.5,-168.1236"/>
<text text-anchor="start" x="811.5" y="-174.2236" font-family="Helvetica,sans-Serif" font-size="11.00" fill="#000000">...</text>
<polygon fill="#ffffff" stroke="transparent" points="808.5,-149.1236 808.5,-168.1236 873.5,-168.1236 873.5,-149.1236 808.5,-149.1236"/>
<polygon fill="none" stroke="#000000" points="808.5,-149.1236 808.5,-168.1236 873.5,-168.1236 873.5,-149.1236 808.5,-149.1236"/>
<text text-anchor="start" x="811.5" y="-155.2236" font-family="Helvetica,sans-Serif" font-size="11.00" fill="#000000">&lt; 4</text>
<polygon fill="#ffffff" stroke="transparent" points="873.5,-149.1236 873.5,-168.1236 933.5,-168.1236 933.5,-149.1236 873.5,-149.1236"/>
<polygon fill="none" stroke="#000000" points="873.5,-149.1236 873.5,-168.1236 933.5,-168.1236 933.5,-149.1236 873.5,-149.1236"/>
<text text-anchor="start" x="898.1105" y="-155.2236" font-family="Helvetica,sans-Serif" font-size="11.00" fill="#000000">0 rows</text>
<polygon fill="#ffffff" stroke="transparent" points="933.5,-149.1236 933.5,-168.1236 967.5,-168.1236 967.5,-149.1236 933.5,-149.1236"/>
<polygon fill="none" stroke="#000000" points="933.5,-149.1236 933.5,-168.1236 967.5,-168.1236 967.5,-149.1236 933.5,-149.1236"/>
<text text-anchor="start" x="958.3862" y="-155.2236" font-family="Helvetica,sans-Serif" font-size="11.00" fill="#000000"> &#160;</text>
</a>
</g>
</g>
<!-- plp_performances&#45;&gt;cg_cohort_definition -->
<g id="edge39" class="edge">
<title>plp_performances:w&#45;&gt;cg_cohort_definition:e</title>
<path fill="none" stroke="#000000" d="M793.973,-176.9171C653.8199,-173.2196 319.7349,-122.0579 224,-203.1236 158.1081,-258.919 269.8416,-393.1236 183.5,-393.1236"/>
<polygon fill="#000000" stroke="#000000" points="800.5008,-177.0098 808.4488,-180.7232 804.5004,-177.0667 808.5,-177.1236 808.5,-177.1236 808.5,-177.1236 804.5004,-177.0667 808.5512,-173.5239 800.5008,-177.0098 800.5008,-177.0098"/>
<ellipse fill="none" stroke="#000000" cx="797.3011" cy="-176.9643" rx="3.2" ry="3.2"/>
</g>
<!-- plp_performances&#45;&gt;cg_cohort_definition -->
<g id="edge40" class="edge">
<title>plp_performances:w&#45;&gt;cg_cohort_definition:e</title>
<path fill="none" stroke="#000000" d="M793.9685,-176.9311C653.7756,-173.4858 319.6669,-125.9143 224,-207.1236 159.5014,-261.8749 268.1037,-393.1236 183.5,-393.1236"/>
<polygon fill="#000000" stroke="#000000" points="800.5007,-177.0175 808.4523,-180.7232 804.5004,-177.0706 808.5,-177.1236 808.5,-177.1236 808.5,-177.1236 804.5004,-177.0706 808.5477,-173.5239 800.5007,-177.0175 800.5007,-177.0175"/>
<ellipse fill="none" stroke="#000000" cx="797.301" cy="-176.9751" rx="3.2" ry="3.2"/>
</g>
<!-- plp_performances&#45;&gt;database_meta_data -->
<g id="edge38" class="edge">
<title>plp_performances:w&#45;&gt;database_meta_data:e</title>
<path fill="none" stroke="#000000" d="M794.0156,-178.9902C711.244,-204.7529 641.0193,-481.6455 619.0928,-580.4242"/>
<polygon fill="#000000" stroke="#000000" points="800.5656,-178.1462 808.9602,-180.694 804.5328,-177.6349 808.5,-177.1236 808.5,-177.1236 808.5,-177.1236 804.5328,-177.6349 808.0398,-173.5531 800.5656,-178.1462 800.5656,-178.1462"/>
<ellipse fill="none" stroke="#000000" cx="797.3919" cy="-178.5552" rx="3.2" ry="3.2"/>
</g>
<!-- plp_performances&#45;&gt;database_meta_data -->
<g id="edge41" class="edge">
<title>plp_performances:w&#45;&gt;database_meta_data:e</title>
<path fill="none" stroke="#000000" d="M794.268,-180.5817C712.9252,-214.5566 643.6574,-483.5393 620.3648,-580.5094"/>
<polygon fill="#000000" stroke="#000000" points="800.7262,-179.0125 809.35,-180.6218 804.6131,-178.068 808.5,-177.1236 808.5,-177.1236 808.5,-177.1236 804.6131,-178.068 807.65,-173.6253 800.7262,-179.0125 800.7262,-179.0125"/>
<ellipse fill="none" stroke="#000000" cx="797.6167" cy="-179.7681" rx="3.2" ry="3.2"/>
</g>
<!-- sccs_diagnostics_summary -->
<g id="node22" class="node">
<title>sccs_diagnostics_summary</title>
<g id="a_node22"><a xlink:href="../../tables/sccs_diagnostics_summary.html" xlink:title="sccs_diagnostics_summary" target="_top">
<polygon fill="#ffffff" stroke="transparent" points="778,-67.6236 778,-128.6236 997,-128.6236 997,-67.6236 778,-67.6236"/>
<polygon fill="#f5f5f5" stroke="transparent" points="778.5,-105.1236 778.5,-128.1236 997.5,-128.1236 997.5,-105.1236 778.5,-105.1236"/>
<polygon fill="none" stroke="#000000" points="778.5,-105.1236 778.5,-128.1236 997.5,-128.1236 997.5,-105.1236 778.5,-105.1236"/>
<text text-anchor="start" x="783.5" y="-113.7236" font-family="Helvetica,sans-Serif" font-weight="bold" font-size="11.00" fill="#000000">sccs_diagnostics_summary</text>
<text text-anchor="start" x="963.0219" y="-113.2236" font-family="Helvetica,sans-Serif" font-size="11.00" fill="#000000">[table]</text>
<polygon fill="none" stroke="#000000" points="778.5,-86.1236 778.5,-105.1236 997.5,-105.1236 997.5,-86.1236 778.5,-86.1236"/>
<text text-anchor="start" x="781.5" y="-92.2236" font-family="Helvetica,sans-Serif" font-size="11.00" fill="#000000">...</text>
<polygon fill="#ffffff" stroke="transparent" points="778.5,-67.1236 778.5,-86.1236 868.5,-86.1236 868.5,-67.1236 778.5,-67.1236"/>
<polygon fill="none" stroke="#000000" points="778.5,-67.1236 778.5,-86.1236 868.5,-86.1236 868.5,-67.1236 778.5,-67.1236"/>
<text text-anchor="start" x="781.5" y="-73.2236" font-family="Helvetica,sans-Serif" font-size="11.00" fill="#000000">&lt; 7</text>
<polygon fill="#ffffff" stroke="transparent" points="868.5,-67.1236 868.5,-86.1236 941.5,-86.1236 941.5,-67.1236 868.5,-67.1236"/>
<polygon fill="none" stroke="#000000" points="868.5,-67.1236 868.5,-86.1236 941.5,-86.1236 941.5,-67.1236 868.5,-67.1236"/>
<text text-anchor="start" x="906.1105" y="-73.2236" font-family="Helvetica,sans-Serif" font-size="11.00" fill="#000000">0 rows</text>
<polygon fill="#ffffff" stroke="transparent" points="941.5,-67.1236 941.5,-86.1236 997.5,-86.1236 997.5,-67.1236 941.5,-67.1236"/>
<polygon fill="none" stroke="#000000" points="941.5,-67.1236 941.5,-86.1236 997.5,-86.1236 997.5,-67.1236 941.5,-67.1236"/>
<text text-anchor="start" x="978.9053" y="-73.2236" font-family="Helvetica,sans-Serif" font-size="11.00" fill="#000000">4 &gt;</text>
</a>
</g>
</g>
<!-- sccs_diagnostics_summary&#45;&gt;database_meta_data -->
<g id="edge42" class="edge">
<title>sccs_diagnostics_summary:w&#45;&gt;database_meta_data:e</title>
<path fill="none" stroke="#000000" d="M765.6464,-101.9091C714.4188,-152.6519 642.1689,-473.7627 619.2617,-580.6022"/>
<polygon fill="#000000" stroke="#000000" points="771.4253,-98.8584 780.1807,-98.3072 774.9626,-96.991 778.5,-95.1236 778.5,-95.1236 778.5,-95.1236 774.9626,-96.991 776.8193,-91.9399 771.4253,-98.8584 771.4253,-98.8584"/>
<ellipse fill="none" stroke="#000000" cx="768.5954" cy="-100.3523" rx="3.2" ry="3.2"/>
</g>
<!-- sccs_exposures_outcome_set -->
<g id="node23" class="node">
<title>sccs_exposures_outcome_set</title>
<g id="a_node23"><a xlink:href="../../tables/sccs_exposures_outcome_set.html" xlink:title="sccs_exposures_outcome_set" target="_top">
<polygon fill="#ffffff" stroke="transparent" points="495,-67.6236 495,-128.6236 729,-128.6236 729,-67.6236 495,-67.6236"/>
<polygon fill="#f5f5f5" stroke="transparent" points="495,-105.1236 495,-128.1236 729,-128.1236 729,-105.1236 495,-105.1236"/>
<polygon fill="none" stroke="#000000" points="495,-105.1236 495,-128.1236 729,-128.1236 729,-105.1236 495,-105.1236"/>
<text text-anchor="start" x="500" y="-113.7236" font-family="Helvetica,sans-Serif" font-weight="bold" font-size="11.00" fill="#000000">sccs_exposures_outcome_set</text>
<text text-anchor="start" x="694.5219" y="-113.2236" font-family="Helvetica,sans-Serif" font-size="11.00" fill="#000000">[table]</text>
<polygon fill="none" stroke="#000000" points="495,-86.1236 495,-105.1236 729,-105.1236 729,-86.1236 495,-86.1236"/>
<text text-anchor="start" x="498" y="-92.2236" font-family="Helvetica,sans-Serif" font-size="11.00" fill="#000000">...</text>
<polygon fill="#ffffff" stroke="transparent" points="495,-67.1236 495,-86.1236 590,-86.1236 590,-67.1236 495,-67.1236"/>
<polygon fill="none" stroke="#000000" points="495,-67.1236 495,-86.1236 590,-86.1236 590,-67.1236 495,-67.1236"/>
<text text-anchor="start" x="498" y="-73.2236" font-family="Helvetica,sans-Serif" font-size="11.00" fill="#000000">&lt; 3</text>
<polygon fill="#ffffff" stroke="transparent" points="590,-67.1236 590,-86.1236 665,-86.1236 665,-67.1236 590,-67.1236"/>
<polygon fill="none" stroke="#000000" points="590,-67.1236 590,-86.1236 665,-86.1236 665,-67.1236 590,-67.1236"/>
<text text-anchor="start" x="629.6105" y="-73.2236" font-family="Helvetica,sans-Serif" font-size="11.00" fill="#000000">0 rows</text>
<polygon fill="#ffffff" stroke="transparent" points="665,-67.1236 665,-86.1236 729,-86.1236 729,-67.1236 665,-67.1236"/>
<polygon fill="none" stroke="#000000" points="665,-67.1236 665,-86.1236 729,-86.1236 729,-67.1236 665,-67.1236"/>
<text text-anchor="start" x="704.2904" y="-73.2236" font-family="Helvetica,sans-Serif" font-size="11.00" fill="#000000">10 &gt;</text>
</a>
</g>
</g>
<!-- sccs_diagnostics_summary&#45;&gt;sccs_exposures_outcome_set -->
<g id="edge43" class="edge">
<title>sccs_diagnostics_summary:w&#45;&gt;sccs_exposures_outcome_set:e</title>
<path fill="none" stroke="#000000" d="M763.8428,-95.1236C752.4139,-95.1236 745.1563,-95.1236 729,-95.1236"/>
<polygon fill="#000000" stroke="#000000" points="770.5,-95.1236 778.5,-98.7236 774.5,-95.1236 778.5,-95.1236 778.5,-95.1236 778.5,-95.1236 774.5,-95.1236 778.5,-91.5236 770.5,-95.1236 770.5,-95.1236"/>
<ellipse fill="none" stroke="#000000" cx="767.3" cy="-95.1236" rx="3.2" ry="3.2"/>
</g>
<!-- sccs_exposures_outcome_set&#45;&gt;cg_cohort_definition -->
<g id="edge44" class="edge">
<title>sccs_exposures_outcome_set:w&#45;&gt;cg_cohort_definition:e</title>
<path fill="none" stroke="#000000" d="M480.3644,-95.026C365.6999,-93.5363 305.1752,-76.684 224,-164.1236 188.8396,-201.9973 235.1786,-393.1236 183.5,-393.1236"/>
<polygon fill="#000000" stroke="#000000" points="487.0002,-95.0702 494.976,-98.7235 491.0001,-95.0969 495,-95.1236 495,-95.1236 495,-95.1236 491.0001,-95.0969 495.024,-91.5236 487.0002,-95.0702 487.0002,-95.0702"/>
<ellipse fill="none" stroke="#000000" cx="483.8002" cy="-95.0488" rx="3.2" ry="3.2"/>
</g>
<!-- sccs_result -->
<g id="node24" class="node">
<title>sccs_result</title>
<g id="a_node24"><a xlink:href="../../tables/sccs_result.html" xlink:title="sccs_result" target="_top">
<polygon fill="#ffffff" stroke="transparent" points="1091,-67.6236 1091,-128.6236 1204,-128.6236 1204,-67.6236 1091,-67.6236"/>
<polygon fill="#f5f5f5" stroke="transparent" points="1091.5,-105.1236 1091.5,-128.1236 1204.5,-128.1236 1204.5,-105.1236 1091.5,-105.1236"/>
<polygon fill="none" stroke="#000000" points="1091.5,-105.1236 1091.5,-128.1236 1204.5,-128.1236 1204.5,-105.1236 1091.5,-105.1236"/>
<text text-anchor="start" x="1096.5" y="-113.7236" font-family="Helvetica,sans-Serif" font-weight="bold" font-size="11.00" fill="#000000">sccs_result</text>
<text text-anchor="start" x="1170.0219" y="-113.2236" font-family="Helvetica,sans-Serif" font-size="11.00" fill="#000000">[table]</text>
<polygon fill="none" stroke="#000000" points="1091.5,-86.1236 1091.5,-105.1236 1204.5,-105.1236 1204.5,-86.1236 1091.5,-86.1236"/>
<text text-anchor="start" x="1094.5" y="-92.2236" font-family="Helvetica,sans-Serif" font-size="11.00" fill="#000000">...</text>
<polygon fill="#ffffff" stroke="transparent" points="1091.5,-67.1236 1091.5,-86.1236 1136.5,-86.1236 1136.5,-67.1236 1091.5,-67.1236"/>
<polygon fill="none" stroke="#000000" points="1091.5,-67.1236 1091.5,-86.1236 1136.5,-86.1236 1136.5,-67.1236 1091.5,-67.1236"/>
<text text-anchor="start" x="1094.5" y="-73.2236" font-family="Helvetica,sans-Serif" font-size="11.00" fill="#000000">&lt; 12</text>
<polygon fill="#ffffff" stroke="transparent" points="1136.5,-67.1236 1136.5,-86.1236 1183.5,-86.1236 1183.5,-67.1236 1136.5,-67.1236"/>
<polygon fill="none" stroke="#000000" points="1136.5,-67.1236 1136.5,-86.1236 1183.5,-86.1236 1183.5,-67.1236 1136.5,-67.1236"/>
<text text-anchor="start" x="1148.1105" y="-73.2236" font-family="Helvetica,sans-Serif" font-size="11.00" fill="#000000">0 rows</text>
<polygon fill="#ffffff" stroke="transparent" points="1183.5,-67.1236 1183.5,-86.1236 1204.5,-86.1236 1204.5,-67.1236 1183.5,-67.1236"/>
<polygon fill="none" stroke="#000000" points="1183.5,-67.1236 1183.5,-86.1236 1204.5,-86.1236 1204.5,-67.1236 1183.5,-67.1236"/>
<text text-anchor="start" x="1195.3862" y="-73.2236" font-family="Helvetica,sans-Serif" font-size="11.00" fill="#000000"> &#160;</text>
</a>
</g>
</g>
<!-- sccs_result&#45;&gt;database_meta_data -->
<g id="edge47" class="edge">
<title>sccs_result:w&#45;&gt;database_meta_data:e</title>
<path fill="none" stroke="#000000" d="M1077.0236,-95.7C899.2361,-110.6496 1151.4756,-412.5149 1005,-549.1236 966.5393,-584.9935 821.7671,-567.8475 770,-577.1236 750.283,-580.6566 729.3495,-585.1529 709.3909,-589.8063"/>
<polygon fill="#000000" stroke="#000000" points="1083.5063,-95.4419 1091.6433,-98.7207 1087.5032,-95.2827 1091.5,-95.1236 1091.5,-95.1236 1091.5,-95.1236 1087.5032,-95.2827 1091.3567,-91.5264 1083.5063,-95.4419 1083.5063,-95.4419"/>
<ellipse fill="none" stroke="#000000" cx="1080.3089" cy="-95.5693" rx="3.2" ry="3.2"/>
</g>
<!-- sccs_result&#45;&gt;sccs_diagnostics_summary -->
<g id="edge45" class="edge">
<title>sccs_result:w&#45;&gt;sccs_diagnostics_summary:e</title>
<path fill="none" stroke="#000000" d="M1078.0025,-89.2267C1046.844,-76.3845 1034.3819,-78.3501 997.5,-95.1236"/>
<polygon fill="#000000" stroke="#000000" points="1084.1691,-91.9207 1090.0587,-98.4225 1087.8345,-93.5221 1091.5,-95.1236 1091.5,-95.1236 1091.5,-95.1236 1087.8345,-93.5221 1092.9413,-91.8247 1084.1691,-91.9207 1084.1691,-91.9207"/>
<ellipse fill="none" stroke="#000000" cx="1081.2367" cy="-90.6396" rx="3.2" ry="3.2"/>
</g>
<!-- sccs_result&#45;&gt;sccs_diagnostics_summary -->
<g id="edge46" class="edge">
<title>sccs_result:w&#45;&gt;sccs_diagnostics_summary:e</title>
<path fill="none" stroke="#000000" d="M1077.1797,-93.1548C1046.6215,-89.2173 1034.0556,-89.8736 997.5,-95.1236"/>
<polygon fill="#000000" stroke="#000000" points="1083.5745,-94.0339 1091.0097,-98.69 1087.5373,-94.5787 1091.5,-95.1236 1091.5,-95.1236 1091.5,-95.1236 1087.5373,-94.5787 1091.9903,-91.5571 1083.5745,-94.0339 1083.5745,-94.0339"/>
<ellipse fill="none" stroke="#000000" cx="1080.4044" cy="-93.5981" rx="3.2" ry="3.2"/>
</g>
<!-- sccs_result&#45;&gt;sccs_diagnostics_summary -->
<g id="edge48" class="edge">
<title>sccs_result:w&#45;&gt;sccs_diagnostics_summary:e</title>
<path fill="none" stroke="#000000" d="M1077.1797,-97.4204C1046.6215,-102.0142 1034.0556,-101.2486 997.5,-95.1236"/>
<polygon fill="#000000" stroke="#000000" points="1083.601,-96.3906 1092.0701,-98.6781 1087.5505,-95.7571 1091.5,-95.1236 1091.5,-95.1236 1091.5,-95.1236 1087.5505,-95.7571 1090.9299,-91.569 1083.601,-96.3906 1083.601,-96.3906"/>
<ellipse fill="none" stroke="#000000" cx="1080.4413" cy="-96.8974" rx="3.2" ry="3.2"/>
</g>
<!-- sccs_result&#45;&gt;sccs_diagnostics_summary -->
<g id="edge49" class="edge">
<title>sccs_result:w&#45;&gt;sccs_diagnostics_summary:e</title>
<path fill="none" stroke="#000000" d="M1078.4173,-101.1505C1046.9538,-114.8669 1034.5451,-112.8579 997.5,-95.1236"/>
<polygon fill="#000000" stroke="#000000" points="1084.2339,-98.4709 1093.0063,-98.3933 1087.867,-96.7972 1091.5,-95.1236 1091.5,-95.1236 1091.5,-95.1236 1087.867,-96.7972 1089.9937,-91.8538 1084.2339,-98.4709 1084.2339,-98.4709"/>
<ellipse fill="none" stroke="#000000" cx="1081.3275" cy="-99.8098" rx="3.2" ry="3.2"/>
</g>
<!-- sccs_result&#45;&gt;sccs_exposures_outcome_set -->
<g id="edge50" class="edge">
<title>sccs_result:w&#45;&gt;sccs_exposures_outcome_set:e</title>
<path fill="none" stroke="#000000" d="M1077.0211,-93.7667C1048.0029,-87.8959 1040.7972,-64.6399 1005,-57.1236 902.7844,-35.6614 867.2352,-18.9928 770,-57.1236 746.8697,-66.1941 753.8452,-95.1236 729,-95.1236"/>
<polygon fill="#000000" stroke="#000000" points="1083.5349,-94.3771 1091.1641,-98.7079 1087.5174,-94.7503 1091.5,-95.1236 1091.5,-95.1236 1091.5,-95.1236 1087.5174,-94.7503 1091.8359,-91.5393 1083.5349,-94.3771 1083.5349,-94.3771"/>
<ellipse fill="none" stroke="#000000" cx="1080.3489" cy="-94.0785" rx="3.2" ry="3.2"/>
</g>
</g>
</svg>
