<?xml version="1.0" encoding="UTF-8" standalone="no"?>
<!DOCTYPE svg PUBLIC "-//W3C//DTD SVG 1.1//EN"
 "http://www.w3.org/Graphics/SVG/1.1/DTD/svg11.dtd">
<!-- Generated by graphviz version 2.40.1 (20161225.0304)
 -->
<!-- Title: twoDegreesRelationshipsDiagram Pages: 1 -->
<svg width="728pt" height="447pt"
 viewBox="0.00 0.00 728.00 447.10" xmlns="http://www.w3.org/2000/svg" xmlns:xlink="http://www.w3.org/1999/xlink">
<g id="graph0" class="graph" transform="scale(1 1) rotate(0) translate(4 443.1028)">
<title>twoDegreesRelationshipsDiagram</title>
<polygon fill="#ffffff" stroke="transparent" points="-4,4 -4,-443.1028 724,-443.1028 724,4 -4,4"/>
<text text-anchor="middle" x="72.4936" y="-7.3" font-family="Helvetica,sans-Serif" font-size="11.00" fill="#000000">Generated by SchemaSpy</text>
<!-- c_covariates -->
<g id="node1" class="node">
<title>c_covariates</title>
<g id="a_node1"><a xlink:href="../../tables/c_covariates.html" xlink:title="c_covariates" target="_top">
<polygon fill="#ffffff" stroke="transparent" points="507,-38.2 507,-165.2 712,-165.2 712,-38.2 507,-38.2"/>
<polygon fill="#f5f5f5" stroke="transparent" points="507.5,-141.7 507.5,-164.7 712.5,-164.7 712.5,-141.7 507.5,-141.7"/>
<polygon fill="none" stroke="#000000" points="507.5,-141.7 507.5,-164.7 712.5,-164.7 712.5,-141.7 507.5,-141.7"/>
<text text-anchor="start" x="512.5" y="-150.3" font-family="Helvetica,sans-Serif" font-weight="bold" font-size="11.00" fill="#000000">c_covariates</text>
<text text-anchor="start" x="677.5437" y="-149.8" font-family="Helvetica,sans-Serif" font-size="11.00" fill="#000000">[table]</text>
<polygon fill="none" stroke="#000000" points="507.5,-119.7 507.5,-141.7 712.5,-141.7 712.5,-119.7 507.5,-119.7"/>
<image xlink:href="../../images/foreignKeys.png" width="11px" height="12px" preserveAspectRatio="xMinYMin meet" x="512.5" y="-136.7"/>
<text text-anchor="start" x="527.5" y="-126.8" font-family="Helvetica,sans-Serif" font-size="11.00" fill="#000000">covariate_id</text>
<polygon fill="none" stroke="#000000" points="507.5,-97.7 507.5,-119.7 712.5,-119.7 712.5,-97.7 507.5,-97.7"/>
<image xlink:href="../../images/foreignKeys.png" width="11px" height="12px" preserveAspectRatio="xMinYMin meet" x="512.5" y="-114.7"/>
<text text-anchor="start" x="527.5" y="-104.8" font-family="Helvetica,sans-Serif" font-size="11.00" fill="#000000">database_id</text>
<polygon fill="none" stroke="#000000" points="507.5,-75.7 507.5,-97.7 712.5,-97.7 712.5,-75.7 507.5,-75.7"/>
<image xlink:href="../../images/foreignKeys.png" width="11px" height="12px" preserveAspectRatio="xMinYMin meet" x="512.5" y="-92.7"/>
<text text-anchor="start" x="527.5" y="-82.8" font-family="Helvetica,sans-Serif" font-size="11.00" fill="#000000">setting_id</text>
<polygon fill="none" stroke="#000000" points="507.5,-56.7 507.5,-75.7 712.5,-75.7 712.5,-56.7 507.5,-56.7"/>
<text text-anchor="start" x="510.5" y="-62.8" font-family="Helvetica,sans-Serif" font-size="11.00" fill="#000000">...</text>
<polygon fill="#ffffff" stroke="transparent" points="507.5,-37.7 507.5,-56.7 595.5,-56.7 595.5,-37.7 507.5,-37.7"/>
<polygon fill="none" stroke="#000000" points="507.5,-37.7 507.5,-56.7 595.5,-56.7 595.5,-37.7 507.5,-37.7"/>
<text text-anchor="start" x="510.5" y="-43.8" font-family="Helvetica,sans-Serif" font-size="11.00" fill="#000000">&lt; 7</text>
<polygon fill="#ffffff" stroke="transparent" points="595.5,-37.7 595.5,-56.7 666.5,-56.7 666.5,-37.7 595.5,-37.7"/>
<polygon fill="none" stroke="#000000" points="595.5,-37.7 595.5,-56.7 666.5,-56.7 666.5,-37.7 595.5,-37.7"/>
<text text-anchor="start" x="631.1105" y="-43.8" font-family="Helvetica,sans-Serif" font-size="11.00" fill="#000000">0 rows</text>
<polygon fill="#ffffff" stroke="transparent" points="666.5,-37.7 666.5,-56.7 712.5,-56.7 712.5,-37.7 666.5,-37.7"/>
<polygon fill="none" stroke="#000000" points="666.5,-37.7 666.5,-56.7 712.5,-56.7 712.5,-37.7 666.5,-37.7"/>
<text text-anchor="start" x="703.3862" y="-43.8" font-family="Helvetica,sans-Serif" font-size="11.00" fill="#000000"> &#160;</text>
</a>
</g>
</g>
<!-- c_covariate_ref -->
<g id="node2" class="node">
<title>c_covariate_ref</title>
<g id="a_node2"><a xlink:href="../../tables/c_covariate_ref.html" xlink:title="c_covariate_ref" target="_top">
<polygon fill="#ffffff" stroke="transparent" points="235,-158.7 235,-380.7 458,-380.7 458,-158.7 235,-158.7"/>
<polygon fill="#f5f5f5" stroke="transparent" points="237.5,-355.7 237.5,-378.7 456.5,-378.7 456.5,-355.7 237.5,-355.7"/>
<polygon fill="none" stroke="#000000" points="237.5,-355.7 237.5,-378.7 456.5,-378.7 456.5,-355.7 237.5,-355.7"/>
<text text-anchor="start" x="242.5" y="-364.3" font-family="Helvetica,sans-Serif" font-weight="bold" font-size="11.00" fill="#000000">c_covariate_ref</text>
<text text-anchor="start" x="421.5437" y="-363.8" font-family="Helvetica,sans-Serif" font-size="11.00" fill="#000000">[table]</text>
<polygon fill="none" stroke="#000000" points="237.5,-333.7 237.5,-355.7 394.5,-355.7 394.5,-333.7 237.5,-333.7"/>
<text text-anchor="start" x="257.5" y="-340.8" font-family="Helvetica,sans-Serif" font-size="11.00" fill="#000000">analysis_id</text>
<polygon fill="none" stroke="#000000" points="394.5,-333.7 394.5,-355.7 456.5,-355.7 456.5,-333.7 394.5,-333.7"/>
<text text-anchor="start" x="397.378" y="-341.4" font-family="Helvetica,sans-Serif" font-size="11.00" fill="#000000">unknown[0]</text>
<polygon fill="none" stroke="#000000" points="237.5,-311.7 237.5,-333.7 394.5,-333.7 394.5,-311.7 237.5,-311.7"/>
<text text-anchor="start" x="257.5" y="-318.8" font-family="Helvetica,sans-Serif" font-size="11.00" fill="#000000">collisions</text>
<polygon fill="none" stroke="#000000" points="394.5,-311.7 394.5,-333.7 456.5,-333.7 456.5,-311.7 394.5,-311.7"/>
<text text-anchor="start" x="397.378" y="-319.4" font-family="Helvetica,sans-Serif" font-size="11.00" fill="#000000">unknown[0]</text>
<polygon fill="none" stroke="#000000" points="237.5,-289.7 237.5,-311.7 394.5,-311.7 394.5,-289.7 237.5,-289.7"/>
<text text-anchor="start" x="257.5" y="-296.8" font-family="Helvetica,sans-Serif" font-size="11.00" fill="#000000">concept_id</text>
<polygon fill="none" stroke="#000000" points="394.5,-289.7 394.5,-311.7 456.5,-311.7 456.5,-289.7 394.5,-289.7"/>
<text text-anchor="start" x="397.378" y="-297.4" font-family="Helvetica,sans-Serif" font-size="11.00" fill="#000000">unknown[0]</text>
<polygon fill="none" stroke="#000000" points="237.5,-267.7 237.5,-289.7 394.5,-289.7 394.5,-267.7 237.5,-267.7"/>
<image xlink:href="../../images/primaryKeys.png" width="11px" height="12px" preserveAspectRatio="xMinYMin meet" x="242.5" y="-284.7"/>
<text text-anchor="start" x="257.5" y="-274.8" font-family="Helvetica,sans-Serif" font-size="11.00" fill="#000000">covariate_id</text>
<polygon fill="none" stroke="#000000" points="394.5,-267.7 394.5,-289.7 456.5,-289.7 456.5,-267.7 394.5,-267.7"/>
<text text-anchor="start" x="397.378" y="-275.4" font-family="Helvetica,sans-Serif" font-size="11.00" fill="#000000">unknown[0]</text>
<polygon fill="none" stroke="#000000" points="237.5,-245.7 237.5,-267.7 394.5,-267.7 394.5,-245.7 237.5,-245.7"/>
<text text-anchor="start" x="257.5" y="-252.8" font-family="Helvetica,sans-Serif" font-size="11.00" fill="#000000">covariate_name</text>
<polygon fill="none" stroke="#000000" points="394.5,-245.7 394.5,-267.7 456.5,-267.7 456.5,-245.7 394.5,-245.7"/>
<text text-anchor="start" x="397.378" y="-253.4" font-family="Helvetica,sans-Serif" font-size="11.00" fill="#000000">unknown[0]</text>
<polygon fill="none" stroke="#000000" points="237.5,-223.7 237.5,-245.7 394.5,-245.7 394.5,-223.7 237.5,-223.7"/>
<image xlink:href="../../images/primaryKeys.png" width="11px" height="12px" preserveAspectRatio="xMinYMin meet" x="242.5" y="-240.7"/>
<text text-anchor="start" x="257.5" y="-230.8" font-family="Helvetica,sans-Serif" font-size="11.00" fill="#000000">database_id</text>
<polygon fill="none" stroke="#000000" points="394.5,-223.7 394.5,-245.7 456.5,-245.7 456.5,-223.7 394.5,-223.7"/>
<text text-anchor="start" x="397.378" y="-231.4" font-family="Helvetica,sans-Serif" font-size="11.00" fill="#000000">unknown[0]</text>
<polygon fill="none" stroke="#000000" points="237.5,-201.7 237.5,-223.7 394.5,-223.7 394.5,-201.7 237.5,-201.7"/>
<image xlink:href="../../images/primaryKeys.png" width="11px" height="12px" preserveAspectRatio="xMinYMin meet" x="242.5" y="-218.7"/>
<text text-anchor="start" x="257.5" y="-208.8" font-family="Helvetica,sans-Serif" font-size="11.00" fill="#000000">setting_id</text>
<polygon fill="none" stroke="#000000" points="394.5,-201.7 394.5,-223.7 456.5,-223.7 456.5,-201.7 394.5,-201.7"/>
<text text-anchor="start" x="397.378" y="-209.4" font-family="Helvetica,sans-Serif" font-size="11.00" fill="#000000">unknown[0]</text>
<polygon fill="none" stroke="#000000" points="237.5,-179.7 237.5,-201.7 394.5,-201.7 394.5,-179.7 237.5,-179.7"/>
<text text-anchor="start" x="257.5" y="-186.8" font-family="Helvetica,sans-Serif" font-size="11.00" fill="#000000">value_as_concept_id</text>
<polygon fill="none" stroke="#000000" points="394.5,-179.7 394.5,-201.7 456.5,-201.7 456.5,-179.7 394.5,-179.7"/>
<text text-anchor="start" x="397.378" y="-187.4" font-family="Helvetica,sans-Serif" font-size="11.00" fill="#000000">unknown[0]</text>
<polygon fill="#ffffff" stroke="transparent" points="237.5,-160.7 237.5,-179.7 307.5,-179.7 307.5,-160.7 237.5,-160.7"/>
<polygon fill="none" stroke="#000000" points="237.5,-160.7 237.5,-179.7 307.5,-179.7 307.5,-160.7 237.5,-160.7"/>
<text text-anchor="start" x="240.5" y="-166.8" font-family="Helvetica,sans-Serif" font-size="11.00" fill="#000000">&lt; 0</text>
<polygon fill="#ffffff" stroke="transparent" points="307.5,-160.7 307.5,-179.7 394.5,-179.7 394.5,-160.7 307.5,-160.7"/>
<polygon fill="none" stroke="#000000" points="307.5,-160.7 307.5,-179.7 394.5,-179.7 394.5,-160.7 307.5,-160.7"/>
<text text-anchor="start" x="359.1105" y="-166.8" font-family="Helvetica,sans-Serif" font-size="11.00" fill="#000000">0 rows</text>
<polygon fill="#ffffff" stroke="transparent" points="394.5,-160.7 394.5,-179.7 456.5,-179.7 456.5,-160.7 394.5,-160.7"/>
<polygon fill="none" stroke="#000000" points="394.5,-160.7 394.5,-179.7 456.5,-179.7 456.5,-160.7 394.5,-160.7"/>
<text text-anchor="start" x="437.9053" y="-166.8" font-family="Helvetica,sans-Serif" font-size="11.00" fill="#000000">6 &gt;</text>
<polygon fill="none" stroke="#000000" stroke-width="2" points="236,-159.7 236,-379.7 457,-379.7 457,-159.7 236,-159.7"/>
</a>
</g>
</g>
<!-- c_covariates&#45;&gt;c_covariate_ref -->
<g id="edge1" class="edge">
<title>c_covariates:w&#45;&gt;c_covariate_ref:e</title>
<path fill="none" stroke="#000000" d="M493.1212,-133.6564C451.6199,-154.5155 520.2306,-278.7 456.5,-278.7"/>
<polygon fill="#000000" stroke="#000000" points="499.6639,-132.3112 508.225,-134.2262 503.582,-131.5056 507.5,-130.7 507.5,-130.7 507.5,-130.7 503.582,-131.5056 506.775,-127.1738 499.6639,-132.3112 499.6639,-132.3112"/>
<ellipse fill="none" stroke="#000000" cx="496.5295" cy="-132.9557" rx="3.2" ry="3.2"/>
</g>
<!-- c_covariates&#45;&gt;c_covariate_ref -->
<g id="edge2" class="edge">
<title>c_covariates:w&#45;&gt;c_covariate_ref:e</title>
<path fill="none" stroke="#000000" d="M493.2844,-112.0702C459.4826,-132.1077 511.0136,-234.7 456.5,-234.7"/>
<polygon fill="#000000" stroke="#000000" points="499.7158,-110.5455 508.3305,-112.2029 503.6079,-109.6228 507.5,-108.7 507.5,-108.7 507.5,-108.7 503.6079,-109.6228 506.6695,-105.1971 499.7158,-110.5455 499.7158,-110.5455"/>
<ellipse fill="none" stroke="#000000" cx="496.6021" cy="-111.2837" rx="3.2" ry="3.2"/>
</g>
<!-- c_covariates&#45;&gt;c_covariate_ref -->
<g id="edge5" class="edge">
<title>c_covariates:w&#45;&gt;c_covariate_ref:e</title>
<path fill="none" stroke="#000000" d="M493.2844,-90.0702C459.4826,-110.1077 511.0136,-212.7 456.5,-212.7"/>
<polygon fill="#000000" stroke="#000000" points="499.7158,-88.5455 508.3305,-90.2029 503.6079,-87.6228 507.5,-86.7 507.5,-86.7 507.5,-86.7 503.6079,-87.6228 506.6695,-83.1971 499.7158,-88.5455 499.7158,-88.5455"/>
<ellipse fill="none" stroke="#000000" cx="496.6021" cy="-89.2837" rx="3.2" ry="3.2"/>
</g>
<!-- c_settings -->
<g id="node3" class="node">
<title>c_settings</title>
<g id="a_node3"><a xlink:href="../../tables/c_settings.html" xlink:title="c_settings" target="_top">
<polygon fill="#ffffff" stroke="transparent" points="293,-76.2 293,-137.2 400,-137.2 400,-76.2 293,-76.2"/>
<polygon fill="#f5f5f5" stroke="transparent" points="293.5,-113.7 293.5,-136.7 400.5,-136.7 400.5,-113.7 293.5,-113.7"/>
<polygon fill="none" stroke="#000000" points="293.5,-113.7 293.5,-136.7 400.5,-136.7 400.5,-113.7 293.5,-113.7"/>
<text text-anchor="start" x="298.5" y="-122.3" font-family="Helvetica,sans-Serif" font-weight="bold" font-size="11.00" fill="#000000">c_settings</text>
<text text-anchor="start" x="366.0219" y="-121.8" font-family="Helvetica,sans-Serif" font-size="11.00" fill="#000000">[table]</text>
<polygon fill="none" stroke="#000000" points="293.5,-94.7 293.5,-113.7 400.5,-113.7 400.5,-94.7 293.5,-94.7"/>
<text text-anchor="start" x="296.5" y="-100.8" font-family="Helvetica,sans-Serif" font-size="11.00" fill="#000000">...</text>
<polygon fill="#ffffff" stroke="transparent" points="293.5,-75.7 293.5,-94.7 327.5,-94.7 327.5,-75.7 293.5,-75.7"/>
<polygon fill="none" stroke="#000000" points="293.5,-75.7 293.5,-94.7 327.5,-94.7 327.5,-75.7 293.5,-75.7"/>
<text text-anchor="start" x="296.5" y="-81.8" font-family="Helvetica,sans-Serif" font-size="11.00" fill="#000000">&lt; 3</text>
<polygon fill="#ffffff" stroke="transparent" points="327.5,-75.7 327.5,-94.7 372.5,-94.7 372.5,-75.7 327.5,-75.7"/>
<polygon fill="none" stroke="#000000" points="327.5,-75.7 327.5,-94.7 372.5,-94.7 372.5,-75.7 327.5,-75.7"/>
<text text-anchor="start" x="337.1105" y="-81.8" font-family="Helvetica,sans-Serif" font-size="11.00" fill="#000000">0 rows</text>
<polygon fill="#ffffff" stroke="transparent" points="372.5,-75.7 372.5,-94.7 400.5,-94.7 400.5,-75.7 372.5,-75.7"/>
<polygon fill="none" stroke="#000000" points="372.5,-75.7 372.5,-94.7 400.5,-94.7 400.5,-75.7 372.5,-75.7"/>
<text text-anchor="start" x="381.9053" y="-81.8" font-family="Helvetica,sans-Serif" font-size="11.00" fill="#000000">6 &gt;</text>
</a>
</g>
</g>
<!-- c_covariates&#45;&gt;c_settings -->
<g id="edge3" class="edge">
<title>c_covariates:w&#45;&gt;c_settings:e</title>
<path fill="none" stroke="#000000" d="M493.0707,-106.7802C456.886,-101.7378 442.9004,-98.3562 400.5,-103.7"/>
<polygon fill="#000000" stroke="#000000" points="499.5699,-107.6449 507.0252,-112.2686 503.5349,-108.1724 507.5,-108.7 507.5,-108.7 507.5,-108.7 503.5349,-108.1724 507.9748,-105.1314 499.5699,-107.6449 499.5699,-107.6449"/>
<ellipse fill="none" stroke="#000000" cx="496.3978" cy="-107.2228" rx="3.2" ry="3.2"/>
</g>
<!-- c_covariates&#45;&gt;c_settings -->
<g id="edge4" class="edge">
<title>c_covariates:w&#45;&gt;c_settings:e</title>
<path fill="none" stroke="#000000" d="M493.0707,-110.5793C456.886,-114.5823 442.9004,-109.9344 400.5,-103.7"/>
<polygon fill="#000000" stroke="#000000" points="499.567,-109.7333 507.965,-112.2699 503.5335,-109.2166 507.5,-108.7 507.5,-108.7 507.5,-108.7 503.5335,-109.2166 507.035,-105.1301 499.567,-109.7333 499.567,-109.7333"/>
<ellipse fill="none" stroke="#000000" cx="496.3938" cy="-110.1466" rx="3.2" ry="3.2"/>
</g>
<!-- c_covariates&#45;&gt;c_settings -->
<g id="edge6" class="edge">
<title>c_covariates:w&#45;&gt;c_settings:e</title>
<path fill="none" stroke="#000000" d="M492.9463,-85.5122C456.5602,-84.2872 443.3854,-98.3562 400.5,-103.7"/>
<polygon fill="#000000" stroke="#000000" points="499.5265,-86.0492 507.2071,-90.2881 503.5133,-86.3746 507.5,-86.7 507.5,-86.7 507.5,-86.7 503.5133,-86.3746 507.7929,-83.1119 499.5265,-86.0492 499.5265,-86.0492"/>
<ellipse fill="none" stroke="#000000" cx="496.3371" cy="-85.7889" rx="3.2" ry="3.2"/>
</g>
<!-- c_covariates&#45;&gt;c_settings -->
<g id="edge7" class="edge">
<title>c_covariates:w&#45;&gt;c_settings:e</title>
<path fill="none" stroke="#000000" d="M492.9463,-89.3113C456.5602,-97.1316 443.3854,-109.9344 400.5,-103.7"/>
<polygon fill="#000000" stroke="#000000" points="499.6257,-88.1129 508.1358,-90.2434 503.5629,-87.4064 507.5,-86.7 507.5,-86.7 507.5,-86.7 503.5629,-87.4064 506.8642,-83.1566 499.6257,-88.1129 499.6257,-88.1129"/>
<ellipse fill="none" stroke="#000000" cx="496.476" cy="-88.678" rx="3.2" ry="3.2"/>
</g>
<!-- database_meta_data -->
<g id="node5" class="node">
<title>database_meta_data</title>
<g id="a_node5"><a xlink:href="../../tables/database_meta_data.html" xlink:title="database_meta_data" target="_top">
<polygon fill="#ffffff" stroke="transparent" points="8,-226.2 8,-287.2 186,-287.2 186,-226.2 8,-226.2"/>
<polygon fill="#f5f5f5" stroke="transparent" points="8,-263.7 8,-286.7 186,-286.7 186,-263.7 8,-263.7"/>
<polygon fill="none" stroke="#000000" points="8,-263.7 8,-286.7 186,-286.7 186,-263.7 8,-263.7"/>
<text text-anchor="start" x="13" y="-272.3" font-family="Helvetica,sans-Serif" font-weight="bold" font-size="11.00" fill="#000000">database_meta_data</text>
<text text-anchor="start" x="151.5219" y="-271.8" font-family="Helvetica,sans-Serif" font-size="11.00" fill="#000000">[table]</text>
<polygon fill="none" stroke="#000000" points="8,-244.7 8,-263.7 186,-263.7 186,-244.7 8,-244.7"/>
<text text-anchor="start" x="11" y="-250.8" font-family="Helvetica,sans-Serif" font-size="11.00" fill="#000000">...</text>
<polygon fill="#ffffff" stroke="transparent" points="8,-225.7 8,-244.7 75,-244.7 75,-225.7 8,-225.7"/>
<polygon fill="none" stroke="#000000" points="8,-225.7 8,-244.7 75,-244.7 75,-225.7 8,-225.7"/>
<text text-anchor="start" x="11" y="-231.8" font-family="Helvetica,sans-Serif" font-size="11.00" fill="#000000">&lt; 1</text>
<polygon fill="#ffffff" stroke="transparent" points="75,-225.7 75,-244.7 136,-244.7 136,-225.7 75,-225.7"/>
<polygon fill="none" stroke="#000000" points="75,-225.7 75,-244.7 136,-244.7 136,-225.7 75,-225.7"/>
<text text-anchor="start" x="100.6105" y="-231.8" font-family="Helvetica,sans-Serif" font-size="11.00" fill="#000000">0 rows</text>
<polygon fill="#ffffff" stroke="transparent" points="136,-225.7 136,-244.7 186,-244.7 186,-225.7 136,-225.7"/>
<polygon fill="none" stroke="#000000" points="136,-225.7 136,-244.7 186,-244.7 186,-225.7 136,-225.7"/>
<text text-anchor="start" x="161.2904" y="-231.8" font-family="Helvetica,sans-Serif" font-size="11.00" fill="#000000">17 &gt;</text>
</a>
</g>
</g>
<!-- c_settings&#45;&gt;database_meta_data -->
<g id="edge14" class="edge">
<title>c_settings:w&#45;&gt;database_meta_data:e</title>
<path fill="none" stroke="#000000" d="M279.0137,-104.823C255.0564,-108.9546 245.8347,-124.2974 227,-147.7 195.3297,-187.051 236.5124,-253.7 186,-253.7"/>
<polygon fill="#000000" stroke="#000000" points="285.5239,-104.3184 293.7783,-107.2892 289.512,-104.0092 293.5,-103.7 293.5,-103.7 293.5,-103.7 289.512,-104.0092 293.2217,-100.1108 285.5239,-104.3184 285.5239,-104.3184"/>
<ellipse fill="none" stroke="#000000" cx="282.3335" cy="-104.5657" rx="3.2" ry="3.2"/>
</g>
<!-- c_covariates_continuous -->
<g id="node4" class="node">
<title>c_covariates_continuous</title>
<g id="a_node4"><a xlink:href="../../tables/c_covariates_continuous.html" xlink:title="c_covariates_continuous" target="_top">
<polygon fill="#ffffff" stroke="transparent" points="508,-186.2 508,-313.2 711,-313.2 711,-186.2 508,-186.2"/>
<polygon fill="#f5f5f5" stroke="transparent" points="508.5,-289.7 508.5,-312.7 711.5,-312.7 711.5,-289.7 508.5,-289.7"/>
<polygon fill="none" stroke="#000000" points="508.5,-289.7 508.5,-312.7 711.5,-312.7 711.5,-289.7 508.5,-289.7"/>
<text text-anchor="start" x="513.5" y="-298.3" font-family="Helvetica,sans-Serif" font-weight="bold" font-size="11.00" fill="#000000">c_covariates_continuous</text>
<text text-anchor="start" x="677.0219" y="-297.8" font-family="Helvetica,sans-Serif" font-size="11.00" fill="#000000">[table]</text>
<polygon fill="none" stroke="#000000" points="508.5,-267.7 508.5,-289.7 711.5,-289.7 711.5,-267.7 508.5,-267.7"/>
<image xlink:href="../../images/foreignKeys.png" width="11px" height="12px" preserveAspectRatio="xMinYMin meet" x="513.5" y="-284.7"/>
<text text-anchor="start" x="537.5" y="-274.8" font-family="Helvetica,sans-Serif" font-size="11.00" fill="#000000">covariate_id</text>
<polygon fill="none" stroke="#000000" points="508.5,-245.7 508.5,-267.7 711.5,-267.7 711.5,-245.7 508.5,-245.7"/>
<image xlink:href="../../images/foreignKeys.png" width="11px" height="12px" preserveAspectRatio="xMinYMin meet" x="513.5" y="-262.7"/>
<text text-anchor="start" x="537.5" y="-252.8" font-family="Helvetica,sans-Serif" font-size="11.00" fill="#000000">database_id</text>
<polygon fill="none" stroke="#000000" points="508.5,-223.7 508.5,-245.7 711.5,-245.7 711.5,-223.7 508.5,-223.7"/>
<image xlink:href="../../images/foreignKeys.png" width="11px" height="12px" preserveAspectRatio="xMinYMin meet" x="513.5" y="-240.7"/>
<text text-anchor="start" x="537.5" y="-230.8" font-family="Helvetica,sans-Serif" font-size="11.00" fill="#000000">setting_id</text>
<polygon fill="none" stroke="#000000" points="508.5,-204.7 508.5,-223.7 711.5,-223.7 711.5,-204.7 508.5,-204.7"/>
<text text-anchor="start" x="511.5" y="-210.8" font-family="Helvetica,sans-Serif" font-size="11.00" fill="#000000">...</text>
<polygon fill="#ffffff" stroke="transparent" points="508.5,-185.7 508.5,-204.7 595.5,-204.7 595.5,-185.7 508.5,-185.7"/>
<polygon fill="none" stroke="#000000" points="508.5,-185.7 508.5,-204.7 595.5,-204.7 595.5,-185.7 508.5,-185.7"/>
<text text-anchor="start" x="511.5" y="-191.8" font-family="Helvetica,sans-Serif" font-size="11.00" fill="#000000">&lt; 6</text>
<polygon fill="#ffffff" stroke="transparent" points="595.5,-185.7 595.5,-204.7 666.5,-204.7 666.5,-185.7 595.5,-185.7"/>
<polygon fill="none" stroke="#000000" points="595.5,-185.7 595.5,-204.7 666.5,-204.7 666.5,-185.7 595.5,-185.7"/>
<text text-anchor="start" x="631.1105" y="-191.8" font-family="Helvetica,sans-Serif" font-size="11.00" fill="#000000">0 rows</text>
<polygon fill="#ffffff" stroke="transparent" points="666.5,-185.7 666.5,-204.7 711.5,-204.7 711.5,-185.7 666.5,-185.7"/>
<polygon fill="none" stroke="#000000" points="666.5,-185.7 666.5,-204.7 711.5,-204.7 711.5,-185.7 666.5,-185.7"/>
<text text-anchor="start" x="702.3862" y="-191.8" font-family="Helvetica,sans-Serif" font-size="11.00" fill="#000000"> &#160;</text>
</a>
</g>
</g>
<!-- c_covariates_continuous&#45;&gt;c_covariate_ref -->
<g id="edge8" class="edge">
<title>c_covariates_continuous:w&#45;&gt;c_covariate_ref:e</title>
<path fill="none" stroke="#000000" d="M493.875,-278.7C481.4167,-278.7 473.8333,-278.7 456.5,-278.7"/>
<polygon fill="#000000" stroke="#000000" points="500.5,-278.7001 508.5,-282.3 504.5,-278.7 508.5,-278.7 508.5,-278.7 508.5,-278.7 504.5,-278.7 508.5,-275.1 500.5,-278.7001 500.5,-278.7001"/>
<ellipse fill="none" stroke="#000000" cx="497.3" cy="-278.7001" rx="3.2" ry="3.2"/>
</g>
<!-- c_covariates_continuous&#45;&gt;c_covariate_ref -->
<g id="edge9" class="edge">
<title>c_covariates_continuous:w&#45;&gt;c_covariate_ref:e</title>
<path fill="none" stroke="#000000" d="M494.0929,-253.641C481.2776,-247.596 475.7129,-234.7 456.5,-234.7"/>
<polygon fill="#000000" stroke="#000000" points="500.6745,-255.0384 507.7523,-260.2215 504.5872,-255.8692 508.5,-256.7 508.5,-256.7 508.5,-256.7 504.5872,-255.8692 509.2477,-253.1785 500.6745,-255.0384 500.6745,-255.0384"/>
<ellipse fill="none" stroke="#000000" cx="497.5442" cy="-254.3737" rx="3.2" ry="3.2"/>
</g>
<!-- c_covariates_continuous&#45;&gt;c_covariate_ref -->
<g id="edge12" class="edge">
<title>c_covariates_continuous:w&#45;&gt;c_covariate_ref:e</title>
<path fill="none" stroke="#000000" d="M494.0929,-231.641C481.2776,-225.596 475.7129,-212.7 456.5,-212.7"/>
<polygon fill="#000000" stroke="#000000" points="500.6745,-233.0384 507.7523,-238.2215 504.5872,-233.8692 508.5,-234.7 508.5,-234.7 508.5,-234.7 504.5872,-233.8692 509.2477,-231.1785 500.6745,-233.0384 500.6745,-233.0384"/>
<ellipse fill="none" stroke="#000000" cx="497.5442" cy="-232.3737" rx="3.2" ry="3.2"/>
</g>
<!-- c_covariates_continuous&#45;&gt;c_settings -->
<g id="edge10" class="edge">
<title>c_covariates_continuous:w&#45;&gt;c_settings:e</title>
<path fill="none" stroke="#000000" d="M494.2033,-254.2058C465.065,-241.5553 494.8308,-183.6804 466,-147.7 444.0707,-120.3325 435.5696,-103.7 400.5,-103.7"/>
<polygon fill="#000000" stroke="#000000" points="500.619,-255.325 507.8813,-260.2464 504.5595,-256.0125 508.5,-256.7 508.5,-256.7 508.5,-256.7 504.5595,-256.0125 509.1187,-253.1536 500.619,-255.325 500.619,-255.325"/>
<ellipse fill="none" stroke="#000000" cx="497.4666" cy="-254.7751" rx="3.2" ry="3.2"/>
</g>
<!-- c_covariates_continuous&#45;&gt;c_settings -->
<g id="edge13" class="edge">
<title>c_covariates_continuous:w&#45;&gt;c_settings:e</title>
<path fill="none" stroke="#000000" d="M494.2487,-231.6765C472.4395,-219.793 490.2976,-175.5802 466,-147.7 442.959,-121.2616 435.5696,-103.7 400.5,-103.7"/>
<polygon fill="#000000" stroke="#000000" points="500.6742,-233.0397 507.7529,-238.2216 504.5871,-233.8698 508.5,-234.7 508.5,-234.7 508.5,-234.7 504.5871,-233.8698 509.2471,-231.1784 500.6742,-233.0397 500.6742,-233.0397"/>
<ellipse fill="none" stroke="#000000" cx="497.5438" cy="-232.3755" rx="3.2" ry="3.2"/>
</g>
<!-- c_covariates_continuous&#45;&gt;database_meta_data -->
<g id="edge11" class="edge">
<title>c_covariates_continuous:w&#45;&gt;database_meta_data:e</title>
<path fill="none" stroke="#000000" d="M494.1316,-259.148C457.8616,-274.5038 511.9646,-357.9818 466,-391.7 380.3515,-454.5291 312.1369,-455.2206 227,-391.7 175.7177,-353.4383 249.983,-253.7 186,-253.7"/>
<polygon fill="#000000" stroke="#000000" points="500.6136,-258.0437 509.1047,-260.2489 504.5568,-257.3718 508.5,-256.7 508.5,-256.7 508.5,-256.7 504.5568,-257.3718 507.8953,-253.1511 500.6136,-258.0437 500.6136,-258.0437"/>
<ellipse fill="none" stroke="#000000" cx="497.4591" cy="-258.5812" rx="3.2" ry="3.2"/>
</g>
</g>
</svg>
