<?xml version="1.0" encoding="UTF-8" standalone="no"?>
<!DOCTYPE svg PUBLIC "-//W3C//DTD SVG 1.1//EN"
 "http://www.w3.org/Graphics/SVG/1.1/DTD/svg11.dtd">
<!-- Generated by graphviz version 2.40.1 (20161225.0304)
 -->
<!-- Title: oneDegreeRelationshipsDiagram Pages: 1 -->
<svg width="501pt" height="330pt"
 viewBox="0.00 0.00 501.00 329.70" xmlns="http://www.w3.org/2000/svg" xmlns:xlink="http://www.w3.org/1999/xlink">
<g id="graph0" class="graph" transform="scale(1 1) rotate(0) translate(4 325.7)">
<title>oneDegreeRelationshipsDiagram</title>
<polygon fill="#ffffff" stroke="transparent" points="-4,4 -4,-325.7 497,-325.7 497,4 -4,4"/>
<text text-anchor="middle" x="72.4936" y="-7.3" font-family="Helvetica,sans-Serif" font-size="11.00" fill="#000000">Generated by SchemaSpy</text>
<!-- c_covariates -->
<g id="node1" class="node">
<title>c_covariates</title>
<g id="a_node1"><a xlink:href="../../tables/c_covariates.html" xlink:title="c_covariates" target="_top">
<polygon fill="#ffffff" stroke="transparent" points="280,-186.2 280,-313.2 485,-313.2 485,-186.2 280,-186.2"/>
<polygon fill="#f5f5f5" stroke="transparent" points="280.5,-289.7 280.5,-312.7 485.5,-312.7 485.5,-289.7 280.5,-289.7"/>
<polygon fill="none" stroke="#000000" points="280.5,-289.7 280.5,-312.7 485.5,-312.7 485.5,-289.7 280.5,-289.7"/>
<text text-anchor="start" x="285.5" y="-298.3" font-family="Helvetica,sans-Serif" font-weight="bold" font-size="11.00" fill="#000000">c_covariates</text>
<text text-anchor="start" x="450.5437" y="-297.8" font-family="Helvetica,sans-Serif" font-size="11.00" fill="#000000">[table]</text>
<polygon fill="none" stroke="#000000" points="280.5,-267.7 280.5,-289.7 485.5,-289.7 485.5,-267.7 280.5,-267.7"/>
<image xlink:href="../../images/foreignKeys.png" width="11px" height="12px" preserveAspectRatio="xMinYMin meet" x="285.5" y="-284.7"/>
<text text-anchor="start" x="300.5" y="-274.8" font-family="Helvetica,sans-Serif" font-size="11.00" fill="#000000">covariate_id</text>
<polygon fill="none" stroke="#000000" points="280.5,-245.7 280.5,-267.7 485.5,-267.7 485.5,-245.7 280.5,-245.7"/>
<image xlink:href="../../images/foreignKeys.png" width="11px" height="12px" preserveAspectRatio="xMinYMin meet" x="285.5" y="-262.7"/>
<text text-anchor="start" x="300.5" y="-252.8" font-family="Helvetica,sans-Serif" font-size="11.00" fill="#000000">database_id</text>
<polygon fill="none" stroke="#000000" points="280.5,-223.7 280.5,-245.7 485.5,-245.7 485.5,-223.7 280.5,-223.7"/>
<image xlink:href="../../images/foreignKeys.png" width="11px" height="12px" preserveAspectRatio="xMinYMin meet" x="285.5" y="-240.7"/>
<text text-anchor="start" x="300.5" y="-230.8" font-family="Helvetica,sans-Serif" font-size="11.00" fill="#000000">setting_id</text>
<polygon fill="none" stroke="#000000" points="280.5,-204.7 280.5,-223.7 485.5,-223.7 485.5,-204.7 280.5,-204.7"/>
<text text-anchor="start" x="283.5" y="-210.8" font-family="Helvetica,sans-Serif" font-size="11.00" fill="#000000">...</text>
<polygon fill="#ffffff" stroke="transparent" points="280.5,-185.7 280.5,-204.7 368.5,-204.7 368.5,-185.7 280.5,-185.7"/>
<polygon fill="none" stroke="#000000" points="280.5,-185.7 280.5,-204.7 368.5,-204.7 368.5,-185.7 280.5,-185.7"/>
<text text-anchor="start" x="283.5" y="-191.8" font-family="Helvetica,sans-Serif" font-size="11.00" fill="#000000">&lt; 7</text>
<polygon fill="#ffffff" stroke="transparent" points="368.5,-185.7 368.5,-204.7 439.5,-204.7 439.5,-185.7 368.5,-185.7"/>
<polygon fill="none" stroke="#000000" points="368.5,-185.7 368.5,-204.7 439.5,-204.7 439.5,-185.7 368.5,-185.7"/>
<text text-anchor="start" x="404.1105" y="-191.8" font-family="Helvetica,sans-Serif" font-size="11.00" fill="#000000">0 rows</text>
<polygon fill="#ffffff" stroke="transparent" points="439.5,-185.7 439.5,-204.7 485.5,-204.7 485.5,-185.7 439.5,-185.7"/>
<polygon fill="none" stroke="#000000" points="439.5,-185.7 439.5,-204.7 485.5,-204.7 485.5,-185.7 439.5,-185.7"/>
<text text-anchor="start" x="476.3862" y="-191.8" font-family="Helvetica,sans-Serif" font-size="11.00" fill="#000000"> &#160;</text>
</a>
</g>
</g>
<!-- c_covariate_ref -->
<g id="node2" class="node">
<title>c_covariate_ref</title>
<g id="a_node2"><a xlink:href="../../tables/c_covariate_ref.html" xlink:title="c_covariate_ref" target="_top">
<polygon fill="#ffffff" stroke="transparent" points="8,-95.7 8,-317.7 231,-317.7 231,-95.7 8,-95.7"/>
<polygon fill="#f5f5f5" stroke="transparent" points="10.5,-292.7 10.5,-315.7 229.5,-315.7 229.5,-292.7 10.5,-292.7"/>
<polygon fill="none" stroke="#000000" points="10.5,-292.7 10.5,-315.7 229.5,-315.7 229.5,-292.7 10.5,-292.7"/>
<text text-anchor="start" x="15.5" y="-301.3" font-family="Helvetica,sans-Serif" font-weight="bold" font-size="11.00" fill="#000000">c_covariate_ref</text>
<text text-anchor="start" x="194.5437" y="-300.8" font-family="Helvetica,sans-Serif" font-size="11.00" fill="#000000">[table]</text>
<polygon fill="none" stroke="#000000" points="10.5,-270.7 10.5,-292.7 167.5,-292.7 167.5,-270.7 10.5,-270.7"/>
<text text-anchor="start" x="30.5" y="-277.8" font-family="Helvetica,sans-Serif" font-size="11.00" fill="#000000">analysis_id</text>
<polygon fill="none" stroke="#000000" points="167.5,-270.7 167.5,-292.7 229.5,-292.7 229.5,-270.7 167.5,-270.7"/>
<text text-anchor="start" x="170.378" y="-278.4" font-family="Helvetica,sans-Serif" font-size="11.00" fill="#000000">unknown[0]</text>
<polygon fill="none" stroke="#000000" points="10.5,-248.7 10.5,-270.7 167.5,-270.7 167.5,-248.7 10.5,-248.7"/>
<text text-anchor="start" x="30.5" y="-255.8" font-family="Helvetica,sans-Serif" font-size="11.00" fill="#000000">collisions</text>
<polygon fill="none" stroke="#000000" points="167.5,-248.7 167.5,-270.7 229.5,-270.7 229.5,-248.7 167.5,-248.7"/>
<text text-anchor="start" x="170.378" y="-256.4" font-family="Helvetica,sans-Serif" font-size="11.00" fill="#000000">unknown[0]</text>
<polygon fill="none" stroke="#000000" points="10.5,-226.7 10.5,-248.7 167.5,-248.7 167.5,-226.7 10.5,-226.7"/>
<text text-anchor="start" x="30.5" y="-233.8" font-family="Helvetica,sans-Serif" font-size="11.00" fill="#000000">concept_id</text>
<polygon fill="none" stroke="#000000" points="167.5,-226.7 167.5,-248.7 229.5,-248.7 229.5,-226.7 167.5,-226.7"/>
<text text-anchor="start" x="170.378" y="-234.4" font-family="Helvetica,sans-Serif" font-size="11.00" fill="#000000">unknown[0]</text>
<polygon fill="none" stroke="#000000" points="10.5,-204.7 10.5,-226.7 167.5,-226.7 167.5,-204.7 10.5,-204.7"/>
<image xlink:href="../../images/primaryKeys.png" width="11px" height="12px" preserveAspectRatio="xMinYMin meet" x="15.5" y="-221.7"/>
<text text-anchor="start" x="30.5" y="-211.8" font-family="Helvetica,sans-Serif" font-size="11.00" fill="#000000">covariate_id</text>
<polygon fill="none" stroke="#000000" points="167.5,-204.7 167.5,-226.7 229.5,-226.7 229.5,-204.7 167.5,-204.7"/>
<text text-anchor="start" x="170.378" y="-212.4" font-family="Helvetica,sans-Serif" font-size="11.00" fill="#000000">unknown[0]</text>
<polygon fill="none" stroke="#000000" points="10.5,-182.7 10.5,-204.7 167.5,-204.7 167.5,-182.7 10.5,-182.7"/>
<text text-anchor="start" x="30.5" y="-189.8" font-family="Helvetica,sans-Serif" font-size="11.00" fill="#000000">covariate_name</text>
<polygon fill="none" stroke="#000000" points="167.5,-182.7 167.5,-204.7 229.5,-204.7 229.5,-182.7 167.5,-182.7"/>
<text text-anchor="start" x="170.378" y="-190.4" font-family="Helvetica,sans-Serif" font-size="11.00" fill="#000000">unknown[0]</text>
<polygon fill="none" stroke="#000000" points="10.5,-160.7 10.5,-182.7 167.5,-182.7 167.5,-160.7 10.5,-160.7"/>
<image xlink:href="../../images/primaryKeys.png" width="11px" height="12px" preserveAspectRatio="xMinYMin meet" x="15.5" y="-177.7"/>
<text text-anchor="start" x="30.5" y="-167.8" font-family="Helvetica,sans-Serif" font-size="11.00" fill="#000000">database_id</text>
<polygon fill="none" stroke="#000000" points="167.5,-160.7 167.5,-182.7 229.5,-182.7 229.5,-160.7 167.5,-160.7"/>
<text text-anchor="start" x="170.378" y="-168.4" font-family="Helvetica,sans-Serif" font-size="11.00" fill="#000000">unknown[0]</text>
<polygon fill="none" stroke="#000000" points="10.5,-138.7 10.5,-160.7 167.5,-160.7 167.5,-138.7 10.5,-138.7"/>
<image xlink:href="../../images/primaryKeys.png" width="11px" height="12px" preserveAspectRatio="xMinYMin meet" x="15.5" y="-155.7"/>
<text text-anchor="start" x="30.5" y="-145.8" font-family="Helvetica,sans-Serif" font-size="11.00" fill="#000000">setting_id</text>
<polygon fill="none" stroke="#000000" points="167.5,-138.7 167.5,-160.7 229.5,-160.7 229.5,-138.7 167.5,-138.7"/>
<text text-anchor="start" x="170.378" y="-146.4" font-family="Helvetica,sans-Serif" font-size="11.00" fill="#000000">unknown[0]</text>
<polygon fill="none" stroke="#000000" points="10.5,-116.7 10.5,-138.7 167.5,-138.7 167.5,-116.7 10.5,-116.7"/>
<text text-anchor="start" x="30.5" y="-123.8" font-family="Helvetica,sans-Serif" font-size="11.00" fill="#000000">value_as_concept_id</text>
<polygon fill="none" stroke="#000000" points="167.5,-116.7 167.5,-138.7 229.5,-138.7 229.5,-116.7 167.5,-116.7"/>
<text text-anchor="start" x="170.378" y="-124.4" font-family="Helvetica,sans-Serif" font-size="11.00" fill="#000000">unknown[0]</text>
<polygon fill="#ffffff" stroke="transparent" points="10.5,-97.7 10.5,-116.7 80.5,-116.7 80.5,-97.7 10.5,-97.7"/>
<polygon fill="none" stroke="#000000" points="10.5,-97.7 10.5,-116.7 80.5,-116.7 80.5,-97.7 10.5,-97.7"/>
<text text-anchor="start" x="13.5" y="-103.8" font-family="Helvetica,sans-Serif" font-size="11.00" fill="#000000">&lt; 0</text>
<polygon fill="#ffffff" stroke="transparent" points="80.5,-97.7 80.5,-116.7 167.5,-116.7 167.5,-97.7 80.5,-97.7"/>
<polygon fill="none" stroke="#000000" points="80.5,-97.7 80.5,-116.7 167.5,-116.7 167.5,-97.7 80.5,-97.7"/>
<text text-anchor="start" x="132.1105" y="-103.8" font-family="Helvetica,sans-Serif" font-size="11.00" fill="#000000">0 rows</text>
<polygon fill="#ffffff" stroke="transparent" points="167.5,-97.7 167.5,-116.7 229.5,-116.7 229.5,-97.7 167.5,-97.7"/>
<polygon fill="none" stroke="#000000" points="167.5,-97.7 167.5,-116.7 229.5,-116.7 229.5,-97.7 167.5,-97.7"/>
<text text-anchor="start" x="210.9053" y="-103.8" font-family="Helvetica,sans-Serif" font-size="11.00" fill="#000000">6 &gt;</text>
<polygon fill="none" stroke="#000000" stroke-width="2" points="9,-96.7 9,-316.7 230,-316.7 230,-96.7 9,-96.7"/>
</a>
</g>
</g>
<!-- c_covariates&#45;&gt;c_covariate_ref -->
<g id="edge1" class="edge">
<title>c_covariates:w&#45;&gt;c_covariate_ref:e</title>
<path fill="none" stroke="#000000" d="M266.4033,-273.7565C250.025,-258.9048 259.3329,-215.7 229.5,-215.7"/>
<polygon fill="#000000" stroke="#000000" points="272.9507,-276.0526 279.3087,-282.0972 276.7254,-277.3763 280.5,-278.7 280.5,-278.7 280.5,-278.7 276.7254,-277.3763 281.6913,-275.3028 272.9507,-276.0526 272.9507,-276.0526"/>
<ellipse fill="none" stroke="#000000" cx="269.931" cy="-274.9936" rx="3.2" ry="3.2"/>
</g>
<!-- c_covariates&#45;&gt;c_covariate_ref -->
<g id="edge2" class="edge">
<title>c_covariates:w&#45;&gt;c_covariate_ref:e</title>
<path fill="none" stroke="#000000" d="M266.5669,-252.368C245.0746,-235.0466 267.5328,-171.7 229.5,-171.7"/>
<polygon fill="#000000" stroke="#000000" points="272.8607,-254.3248 279.4312,-260.1377 276.6804,-255.5124 280.5,-256.7 280.5,-256.7 280.5,-256.7 276.6804,-255.5124 281.5688,-253.2623 272.8607,-254.3248 272.8607,-254.3248"/>
<ellipse fill="none" stroke="#000000" cx="269.805" cy="-253.3747" rx="3.2" ry="3.2"/>
</g>
<!-- c_covariates&#45;&gt;c_covariate_ref -->
<g id="edge3" class="edge">
<title>c_covariates:w&#45;&gt;c_covariate_ref:e</title>
<path fill="none" stroke="#000000" d="M266.5669,-230.368C245.0746,-213.0466 267.5328,-149.7 229.5,-149.7"/>
<polygon fill="#000000" stroke="#000000" points="272.8607,-232.3248 279.4312,-238.1377 276.6804,-233.5124 280.5,-234.7 280.5,-234.7 280.5,-234.7 276.6804,-233.5124 281.5688,-231.2623 272.8607,-232.3248 272.8607,-232.3248"/>
<ellipse fill="none" stroke="#000000" cx="269.805" cy="-231.3747" rx="3.2" ry="3.2"/>
</g>
<!-- c_covariates_continuous -->
<g id="node3" class="node">
<title>c_covariates_continuous</title>
<g id="a_node3"><a xlink:href="../../tables/c_covariates_continuous.html" xlink:title="c_covariates_continuous" target="_top">
<polygon fill="#ffffff" stroke="transparent" points="281,-38.2 281,-165.2 484,-165.2 484,-38.2 281,-38.2"/>
<polygon fill="#f5f5f5" stroke="transparent" points="281.5,-141.7 281.5,-164.7 484.5,-164.7 484.5,-141.7 281.5,-141.7"/>
<polygon fill="none" stroke="#000000" points="281.5,-141.7 281.5,-164.7 484.5,-164.7 484.5,-141.7 281.5,-141.7"/>
<text text-anchor="start" x="286.5" y="-150.3" font-family="Helvetica,sans-Serif" font-weight="bold" font-size="11.00" fill="#000000">c_covariates_continuous</text>
<text text-anchor="start" x="450.0219" y="-149.8" font-family="Helvetica,sans-Serif" font-size="11.00" fill="#000000">[table]</text>
<polygon fill="none" stroke="#000000" points="281.5,-119.7 281.5,-141.7 484.5,-141.7 484.5,-119.7 281.5,-119.7"/>
<image xlink:href="../../images/foreignKeys.png" width="11px" height="12px" preserveAspectRatio="xMinYMin meet" x="286.5" y="-136.7"/>
<text text-anchor="start" x="310.5" y="-126.8" font-family="Helvetica,sans-Serif" font-size="11.00" fill="#000000">covariate_id</text>
<polygon fill="none" stroke="#000000" points="281.5,-97.7 281.5,-119.7 484.5,-119.7 484.5,-97.7 281.5,-97.7"/>
<image xlink:href="../../images/foreignKeys.png" width="11px" height="12px" preserveAspectRatio="xMinYMin meet" x="286.5" y="-114.7"/>
<text text-anchor="start" x="310.5" y="-104.8" font-family="Helvetica,sans-Serif" font-size="11.00" fill="#000000">database_id</text>
<polygon fill="none" stroke="#000000" points="281.5,-75.7 281.5,-97.7 484.5,-97.7 484.5,-75.7 281.5,-75.7"/>
<image xlink:href="../../images/foreignKeys.png" width="11px" height="12px" preserveAspectRatio="xMinYMin meet" x="286.5" y="-92.7"/>
<text text-anchor="start" x="310.5" y="-82.8" font-family="Helvetica,sans-Serif" font-size="11.00" fill="#000000">setting_id</text>
<polygon fill="none" stroke="#000000" points="281.5,-56.7 281.5,-75.7 484.5,-75.7 484.5,-56.7 281.5,-56.7"/>
<text text-anchor="start" x="284.5" y="-62.8" font-family="Helvetica,sans-Serif" font-size="11.00" fill="#000000">...</text>
<polygon fill="#ffffff" stroke="transparent" points="281.5,-37.7 281.5,-56.7 368.5,-56.7 368.5,-37.7 281.5,-37.7"/>
<polygon fill="none" stroke="#000000" points="281.5,-37.7 281.5,-56.7 368.5,-56.7 368.5,-37.7 281.5,-37.7"/>
<text text-anchor="start" x="284.5" y="-43.8" font-family="Helvetica,sans-Serif" font-size="11.00" fill="#000000">&lt; 6</text>
<polygon fill="#ffffff" stroke="transparent" points="368.5,-37.7 368.5,-56.7 439.5,-56.7 439.5,-37.7 368.5,-37.7"/>
<polygon fill="none" stroke="#000000" points="368.5,-37.7 368.5,-56.7 439.5,-56.7 439.5,-37.7 368.5,-37.7"/>
<text text-anchor="start" x="404.1105" y="-43.8" font-family="Helvetica,sans-Serif" font-size="11.00" fill="#000000">0 rows</text>
<polygon fill="#ffffff" stroke="transparent" points="439.5,-37.7 439.5,-56.7 484.5,-56.7 484.5,-37.7 439.5,-37.7"/>
<polygon fill="none" stroke="#000000" points="439.5,-37.7 439.5,-56.7 484.5,-56.7 484.5,-37.7 439.5,-37.7"/>
<text text-anchor="start" x="475.3862" y="-43.8" font-family="Helvetica,sans-Serif" font-size="11.00" fill="#000000"> &#160;</text>
</a>
</g>
</g>
<!-- c_covariates_continuous&#45;&gt;c_covariate_ref -->
<g id="edge4" class="edge">
<title>c_covariates_continuous:w&#45;&gt;c_covariate_ref:e</title>
<path fill="none" stroke="#000000" d="M267.4566,-135.032C245.7026,-152.3534 267.7316,-215.7 229.5,-215.7"/>
<polygon fill="#000000" stroke="#000000" points="273.8554,-133.0582 282.5612,-134.14 277.6777,-131.8791 281.5,-130.7 281.5,-130.7 281.5,-130.7 277.6777,-131.8791 280.4388,-127.26 273.8554,-133.0582 273.8554,-133.0582"/>
<ellipse fill="none" stroke="#000000" cx="270.7976" cy="-134.0015" rx="3.2" ry="3.2"/>
</g>
<!-- c_covariates_continuous&#45;&gt;c_covariate_ref -->
<g id="edge5" class="edge">
<title>c_covariates_continuous:w&#45;&gt;c_covariate_ref:e</title>
<path fill="none" stroke="#000000" d="M267.7241,-113.2308C250.4253,-127.6761 259.8495,-171.7 229.5,-171.7"/>
<polygon fill="#000000" stroke="#000000" points="273.9005,-111.1995 282.6248,-112.1198 277.7002,-109.9497 281.5,-108.7 281.5,-108.7 281.5,-108.7 277.7002,-109.9497 280.3752,-105.2802 273.9005,-111.1995 273.9005,-111.1995"/>
<ellipse fill="none" stroke="#000000" cx="270.8607" cy="-112.1993" rx="3.2" ry="3.2"/>
</g>
<!-- c_covariates_continuous&#45;&gt;c_covariate_ref -->
<g id="edge6" class="edge">
<title>c_covariates_continuous:w&#45;&gt;c_covariate_ref:e</title>
<path fill="none" stroke="#000000" d="M267.7241,-91.2308C250.4253,-105.6761 259.8495,-149.7 229.5,-149.7"/>
<polygon fill="#000000" stroke="#000000" points="273.9005,-89.1995 282.6248,-90.1198 277.7002,-87.9497 281.5,-86.7 281.5,-86.7 281.5,-86.7 277.7002,-87.9497 280.3752,-83.2802 273.9005,-89.1995 273.9005,-89.1995"/>
<ellipse fill="none" stroke="#000000" cx="270.8607" cy="-90.1993" rx="3.2" ry="3.2"/>
</g>
</g>
</svg>
