<?xml version="1.0" encoding="UTF-8" standalone="no"?>
<!DOCTYPE svg PUBLIC "-//W3C//DTD SVG 1.1//EN"
 "http://www.w3.org/Graphics/SVG/1.1/DTD/svg11.dtd">
<!-- Generated by graphviz version 2.40.1 (20161225.0304)
 -->
<!-- Title: oneDegreeRelationshipsDiagram Pages: 1 -->
<svg width="833pt" height="448pt"
 viewBox="0.00 0.00 833.00 448.20" xmlns="http://www.w3.org/2000/svg" xmlns:xlink="http://www.w3.org/1999/xlink">
<g id="graph0" class="graph" transform="scale(1 1) rotate(0) translate(4 444.2)">
<title>oneDegreeRelationshipsDiagram</title>
<polygon fill="#ffffff" stroke="transparent" points="-4,4 -4,-444.2 829,-444.2 829,4 -4,4"/>
<text text-anchor="middle" x="72.4936" y="-7.3" font-family="Helvetica,sans-Serif" font-size="11.00" fill="#000000">Generated by SchemaSpy</text>
<!-- c_covariates_continuous -->
<g id="node1" class="node">
<title>c_covariates_continuous</title>
<g id="a_node1"><a xlink:href="../../tables/c_covariates_continuous.html" xlink:title="c_covariates_continuous" target="_top">
<polygon fill="#ffffff" stroke="transparent" points="566,-38.2 566,-436.2 817,-436.2 817,-38.2 566,-38.2"/>
<polygon fill="#f5f5f5" stroke="transparent" points="568.5,-411.2 568.5,-434.2 815.5,-434.2 815.5,-411.2 568.5,-411.2"/>
<polygon fill="none" stroke="#000000" points="568.5,-411.2 568.5,-434.2 815.5,-434.2 815.5,-411.2 568.5,-411.2"/>
<text text-anchor="start" x="573.5" y="-419.8" font-family="Helvetica,sans-Serif" font-weight="bold" font-size="11.00" fill="#000000">c_covariates_continuous</text>
<text text-anchor="start" x="780.5437" y="-419.3" font-family="Helvetica,sans-Serif" font-size="11.00" fill="#000000">[table]</text>
<polygon fill="none" stroke="#000000" points="568.5,-389.2 568.5,-411.2 753.5,-411.2 753.5,-389.2 568.5,-389.2"/>
<text text-anchor="start" x="588.5" y="-396.3" font-family="Helvetica,sans-Serif" font-size="11.00" fill="#000000">average_value</text>
<polygon fill="none" stroke="#000000" points="753.5,-389.2 753.5,-411.2 815.5,-411.2 815.5,-389.2 753.5,-389.2"/>
<text text-anchor="start" x="756.378" y="-396.9" font-family="Helvetica,sans-Serif" font-size="11.00" fill="#000000">unknown[0]</text>
<polygon fill="none" stroke="#000000" points="568.5,-367.2 568.5,-389.2 753.5,-389.2 753.5,-367.2 568.5,-367.2"/>
<text text-anchor="start" x="588.5" y="-374.3" font-family="Helvetica,sans-Serif" font-size="11.00" fill="#000000">cohort_type</text>
<polygon fill="none" stroke="#000000" points="753.5,-367.2 753.5,-389.2 815.5,-389.2 815.5,-367.2 753.5,-367.2"/>
<text text-anchor="start" x="756.378" y="-374.9" font-family="Helvetica,sans-Serif" font-size="11.00" fill="#000000">unknown[0]</text>
<polygon fill="none" stroke="#000000" points="568.5,-345.2 568.5,-367.2 753.5,-367.2 753.5,-345.2 568.5,-345.2"/>
<text text-anchor="start" x="588.5" y="-352.3" font-family="Helvetica,sans-Serif" font-size="11.00" fill="#000000">count_value</text>
<polygon fill="none" stroke="#000000" points="753.5,-345.2 753.5,-367.2 815.5,-367.2 815.5,-345.2 753.5,-345.2"/>
<text text-anchor="start" x="756.378" y="-352.9" font-family="Helvetica,sans-Serif" font-size="11.00" fill="#000000">unknown[0]</text>
<polygon fill="none" stroke="#000000" points="568.5,-323.2 568.5,-345.2 753.5,-345.2 753.5,-323.2 568.5,-323.2"/>
<image xlink:href="../../images/foreignKeys.png" width="11px" height="12px" preserveAspectRatio="xMinYMin meet" x="573.5" y="-340.2"/>
<text text-anchor="start" x="588.5" y="-330.3" font-family="Helvetica,sans-Serif" font-size="11.00" fill="#000000">covariate_id</text>
<polygon fill="none" stroke="#000000" points="753.5,-323.2 753.5,-345.2 815.5,-345.2 815.5,-323.2 753.5,-323.2"/>
<text text-anchor="start" x="756.378" y="-330.9" font-family="Helvetica,sans-Serif" font-size="11.00" fill="#000000">unknown[0]</text>
<polygon fill="none" stroke="#000000" points="568.5,-301.2 568.5,-323.2 753.5,-323.2 753.5,-301.2 568.5,-301.2"/>
<image xlink:href="../../images/foreignKeys.png" width="11px" height="12px" preserveAspectRatio="xMinYMin meet" x="573.5" y="-318.2"/>
<text text-anchor="start" x="588.5" y="-308.3" font-family="Helvetica,sans-Serif" font-size="11.00" fill="#000000">database_id</text>
<polygon fill="none" stroke="#000000" points="753.5,-301.2 753.5,-323.2 815.5,-323.2 815.5,-301.2 753.5,-301.2"/>
<text text-anchor="start" x="756.378" y="-308.9" font-family="Helvetica,sans-Serif" font-size="11.00" fill="#000000">unknown[0]</text>
<polygon fill="none" stroke="#000000" points="568.5,-279.2 568.5,-301.2 753.5,-301.2 753.5,-279.2 568.5,-279.2"/>
<text text-anchor="start" x="588.5" y="-286.3" font-family="Helvetica,sans-Serif" font-size="11.00" fill="#000000">max_value</text>
<polygon fill="none" stroke="#000000" points="753.5,-279.2 753.5,-301.2 815.5,-301.2 815.5,-279.2 753.5,-279.2"/>
<text text-anchor="start" x="756.378" y="-286.9" font-family="Helvetica,sans-Serif" font-size="11.00" fill="#000000">unknown[0]</text>
<polygon fill="none" stroke="#000000" points="568.5,-257.2 568.5,-279.2 753.5,-279.2 753.5,-257.2 568.5,-257.2"/>
<text text-anchor="start" x="588.5" y="-264.3" font-family="Helvetica,sans-Serif" font-size="11.00" fill="#000000">median_value</text>
<polygon fill="none" stroke="#000000" points="753.5,-257.2 753.5,-279.2 815.5,-279.2 815.5,-257.2 753.5,-257.2"/>
<text text-anchor="start" x="756.378" y="-264.9" font-family="Helvetica,sans-Serif" font-size="11.00" fill="#000000">unknown[0]</text>
<polygon fill="none" stroke="#000000" points="568.5,-235.2 568.5,-257.2 753.5,-257.2 753.5,-235.2 568.5,-235.2"/>
<text text-anchor="start" x="588.5" y="-242.3" font-family="Helvetica,sans-Serif" font-size="11.00" fill="#000000">min_value</text>
<polygon fill="none" stroke="#000000" points="753.5,-235.2 753.5,-257.2 815.5,-257.2 815.5,-235.2 753.5,-235.2"/>
<text text-anchor="start" x="756.378" y="-242.9" font-family="Helvetica,sans-Serif" font-size="11.00" fill="#000000">unknown[0]</text>
<polygon fill="none" stroke="#000000" points="568.5,-213.2 568.5,-235.2 753.5,-235.2 753.5,-213.2 568.5,-213.2"/>
<text text-anchor="start" x="588.5" y="-220.3" font-family="Helvetica,sans-Serif" font-size="11.00" fill="#000000">outcome_cohort_id</text>
<polygon fill="none" stroke="#000000" points="753.5,-213.2 753.5,-235.2 815.5,-235.2 815.5,-213.2 753.5,-213.2"/>
<text text-anchor="start" x="756.378" y="-220.9" font-family="Helvetica,sans-Serif" font-size="11.00" fill="#000000">unknown[0]</text>
<polygon fill="none" stroke="#000000" points="568.5,-191.2 568.5,-213.2 753.5,-213.2 753.5,-191.2 568.5,-191.2"/>
<text text-anchor="start" x="588.5" y="-198.3" font-family="Helvetica,sans-Serif" font-size="11.00" fill="#000000">p_10_value</text>
<polygon fill="none" stroke="#000000" points="753.5,-191.2 753.5,-213.2 815.5,-213.2 815.5,-191.2 753.5,-191.2"/>
<text text-anchor="start" x="756.378" y="-198.9" font-family="Helvetica,sans-Serif" font-size="11.00" fill="#000000">unknown[0]</text>
<polygon fill="none" stroke="#000000" points="568.5,-169.2 568.5,-191.2 753.5,-191.2 753.5,-169.2 568.5,-169.2"/>
<text text-anchor="start" x="588.5" y="-176.3" font-family="Helvetica,sans-Serif" font-size="11.00" fill="#000000">p_25_value</text>
<polygon fill="none" stroke="#000000" points="753.5,-169.2 753.5,-191.2 815.5,-191.2 815.5,-169.2 753.5,-169.2"/>
<text text-anchor="start" x="756.378" y="-176.9" font-family="Helvetica,sans-Serif" font-size="11.00" fill="#000000">unknown[0]</text>
<polygon fill="none" stroke="#000000" points="568.5,-147.2 568.5,-169.2 753.5,-169.2 753.5,-147.2 568.5,-147.2"/>
<text text-anchor="start" x="588.5" y="-154.3" font-family="Helvetica,sans-Serif" font-size="11.00" fill="#000000">p_75_value</text>
<polygon fill="none" stroke="#000000" points="753.5,-147.2 753.5,-169.2 815.5,-169.2 815.5,-147.2 753.5,-147.2"/>
<text text-anchor="start" x="756.378" y="-154.9" font-family="Helvetica,sans-Serif" font-size="11.00" fill="#000000">unknown[0]</text>
<polygon fill="none" stroke="#000000" points="568.5,-125.2 568.5,-147.2 753.5,-147.2 753.5,-125.2 568.5,-125.2"/>
<text text-anchor="start" x="588.5" y="-132.3" font-family="Helvetica,sans-Serif" font-size="11.00" fill="#000000">p_90_value</text>
<polygon fill="none" stroke="#000000" points="753.5,-125.2 753.5,-147.2 815.5,-147.2 815.5,-125.2 753.5,-125.2"/>
<text text-anchor="start" x="756.378" y="-132.9" font-family="Helvetica,sans-Serif" font-size="11.00" fill="#000000">unknown[0]</text>
<polygon fill="none" stroke="#000000" points="568.5,-103.2 568.5,-125.2 753.5,-125.2 753.5,-103.2 568.5,-103.2"/>
<image xlink:href="../../images/foreignKeys.png" width="11px" height="12px" preserveAspectRatio="xMinYMin meet" x="573.5" y="-120.2"/>
<text text-anchor="start" x="588.5" y="-110.3" font-family="Helvetica,sans-Serif" font-size="11.00" fill="#000000">setting_id</text>
<polygon fill="none" stroke="#000000" points="753.5,-103.2 753.5,-125.2 815.5,-125.2 815.5,-103.2 753.5,-103.2"/>
<text text-anchor="start" x="756.378" y="-110.9" font-family="Helvetica,sans-Serif" font-size="11.00" fill="#000000">unknown[0]</text>
<polygon fill="none" stroke="#000000" points="568.5,-81.2 568.5,-103.2 753.5,-103.2 753.5,-81.2 568.5,-81.2"/>
<text text-anchor="start" x="588.5" y="-88.3" font-family="Helvetica,sans-Serif" font-size="11.00" fill="#000000">standard_deviation</text>
<polygon fill="none" stroke="#000000" points="753.5,-81.2 753.5,-103.2 815.5,-103.2 815.5,-81.2 753.5,-81.2"/>
<text text-anchor="start" x="756.378" y="-88.9" font-family="Helvetica,sans-Serif" font-size="11.00" fill="#000000">unknown[0]</text>
<polygon fill="none" stroke="#000000" points="568.5,-59.2 568.5,-81.2 753.5,-81.2 753.5,-59.2 568.5,-59.2"/>
<text text-anchor="start" x="588.5" y="-66.3" font-family="Helvetica,sans-Serif" font-size="11.00" fill="#000000">target_cohort_id</text>
<polygon fill="none" stroke="#000000" points="753.5,-59.2 753.5,-81.2 815.5,-81.2 815.5,-59.2 753.5,-59.2"/>
<text text-anchor="start" x="756.378" y="-66.9" font-family="Helvetica,sans-Serif" font-size="11.00" fill="#000000">unknown[0]</text>
<polygon fill="#ffffff" stroke="transparent" points="568.5,-40.2 568.5,-59.2 652.5,-59.2 652.5,-40.2 568.5,-40.2"/>
<polygon fill="none" stroke="#000000" points="568.5,-40.2 568.5,-59.2 652.5,-59.2 652.5,-40.2 568.5,-40.2"/>
<text text-anchor="start" x="571.5" y="-46.3" font-family="Helvetica,sans-Serif" font-size="11.00" fill="#000000">&lt; 6</text>
<polygon fill="#ffffff" stroke="transparent" points="652.5,-40.2 652.5,-59.2 753.5,-59.2 753.5,-40.2 652.5,-40.2"/>
<polygon fill="none" stroke="#000000" points="652.5,-40.2 652.5,-59.2 753.5,-59.2 753.5,-40.2 652.5,-40.2"/>
<text text-anchor="start" x="718.1105" y="-46.3" font-family="Helvetica,sans-Serif" font-size="11.00" fill="#000000">0 rows</text>
<polygon fill="#ffffff" stroke="transparent" points="753.5,-40.2 753.5,-59.2 815.5,-59.2 815.5,-40.2 753.5,-40.2"/>
<polygon fill="none" stroke="#000000" points="753.5,-40.2 753.5,-59.2 815.5,-59.2 815.5,-40.2 753.5,-40.2"/>
<text text-anchor="start" x="796.9053" y="-46.3" font-family="Helvetica,sans-Serif" font-size="11.00" fill="#000000">0 &gt;</text>
<polygon fill="none" stroke="#000000" stroke-width="2" points="567,-39.2 567,-435.2 816,-435.2 816,-39.2 567,-39.2"/>
</a>
</g>
</g>
<!-- c_covariate_ref -->
<g id="node2" class="node">
<title>c_covariate_ref</title>
<g id="a_node2"><a xlink:href="../../tables/c_covariate_ref.html" xlink:title="c_covariate_ref" target="_top">
<polygon fill="#ffffff" stroke="transparent" points="331,-241.7 331,-368.7 488,-368.7 488,-241.7 331,-241.7"/>
<polygon fill="#f5f5f5" stroke="transparent" points="331.5,-345.2 331.5,-368.2 488.5,-368.2 488.5,-345.2 331.5,-345.2"/>
<polygon fill="none" stroke="#000000" points="331.5,-345.2 331.5,-368.2 488.5,-368.2 488.5,-345.2 331.5,-345.2"/>
<text text-anchor="start" x="336.5" y="-353.8" font-family="Helvetica,sans-Serif" font-weight="bold" font-size="11.00" fill="#000000">c_covariate_ref</text>
<text text-anchor="start" x="453.5437" y="-353.3" font-family="Helvetica,sans-Serif" font-size="11.00" fill="#000000">[table]</text>
<polygon fill="none" stroke="#000000" points="331.5,-323.2 331.5,-345.2 488.5,-345.2 488.5,-323.2 331.5,-323.2"/>
<image xlink:href="../../images/primaryKeys.png" width="11px" height="12px" preserveAspectRatio="xMinYMin meet" x="336.5" y="-340.2"/>
<text text-anchor="start" x="351.5" y="-330.3" font-family="Helvetica,sans-Serif" font-size="11.00" fill="#000000">covariate_id</text>
<polygon fill="none" stroke="#000000" points="331.5,-301.2 331.5,-323.2 488.5,-323.2 488.5,-301.2 331.5,-301.2"/>
<image xlink:href="../../images/primaryKeys.png" width="11px" height="12px" preserveAspectRatio="xMinYMin meet" x="336.5" y="-318.2"/>
<text text-anchor="start" x="351.5" y="-308.3" font-family="Helvetica,sans-Serif" font-size="11.00" fill="#000000">database_id</text>
<polygon fill="none" stroke="#000000" points="331.5,-279.2 331.5,-301.2 488.5,-301.2 488.5,-279.2 331.5,-279.2"/>
<image xlink:href="../../images/primaryKeys.png" width="11px" height="12px" preserveAspectRatio="xMinYMin meet" x="336.5" y="-296.2"/>
<text text-anchor="start" x="351.5" y="-286.3" font-family="Helvetica,sans-Serif" font-size="11.00" fill="#000000">setting_id</text>
<polygon fill="none" stroke="#000000" points="331.5,-260.2 331.5,-279.2 488.5,-279.2 488.5,-260.2 331.5,-260.2"/>
<text text-anchor="start" x="334.5" y="-266.3" font-family="Helvetica,sans-Serif" font-size="11.00" fill="#000000">...</text>
<polygon fill="#ffffff" stroke="transparent" points="331.5,-241.2 331.5,-260.2 386.5,-260.2 386.5,-241.2 331.5,-241.2"/>
<polygon fill="none" stroke="#000000" points="331.5,-241.2 331.5,-260.2 386.5,-260.2 386.5,-241.2 331.5,-241.2"/>
<text text-anchor="start" x="334.5" y="-247.3" font-family="Helvetica,sans-Serif" font-size="11.00" fill="#000000"> &#160;</text>
<polygon fill="#ffffff" stroke="transparent" points="386.5,-241.2 386.5,-260.2 445.5,-260.2 445.5,-241.2 386.5,-241.2"/>
<polygon fill="none" stroke="#000000" points="386.5,-241.2 386.5,-260.2 445.5,-260.2 445.5,-241.2 386.5,-241.2"/>
<text text-anchor="start" x="410.1105" y="-247.3" font-family="Helvetica,sans-Serif" font-size="11.00" fill="#000000">0 rows</text>
<polygon fill="#ffffff" stroke="transparent" points="445.5,-241.2 445.5,-260.2 488.5,-260.2 488.5,-241.2 445.5,-241.2"/>
<polygon fill="none" stroke="#000000" points="445.5,-241.2 445.5,-260.2 488.5,-260.2 488.5,-241.2 445.5,-241.2"/>
<text text-anchor="start" x="469.9053" y="-247.3" font-family="Helvetica,sans-Serif" font-size="11.00" fill="#000000">6 &gt;</text>
</a>
</g>
</g>
<!-- c_covariates_continuous&#45;&gt;c_covariate_ref -->
<g id="edge1" class="edge">
<title>c_covariates_continuous:w&#45;&gt;c_covariate_ref:e</title>
<path fill="none" stroke="#000000" d="M553.9181,-334.2C529.6172,-334.2 518.6389,-334.2 488.5,-334.2"/>
<polygon fill="#000000" stroke="#000000" points="560.5,-334.2001 568.5,-337.8 564.5,-334.2 568.5,-334.2 568.5,-334.2 568.5,-334.2 564.5,-334.2 568.5,-330.6 560.5,-334.2001 560.5,-334.2001"/>
<ellipse fill="none" stroke="#000000" cx="557.3" cy="-334.2001" rx="3.2" ry="3.2"/>
</g>
<!-- c_covariates_continuous&#45;&gt;c_covariate_ref -->
<g id="edge2" class="edge">
<title>c_covariates_continuous:w&#45;&gt;c_covariate_ref:e</title>
<path fill="none" stroke="#000000" d="M553.9181,-312.2C529.6172,-312.2 518.6389,-312.2 488.5,-312.2"/>
<polygon fill="#000000" stroke="#000000" points="560.5,-312.2001 568.5,-315.8 564.5,-312.2 568.5,-312.2 568.5,-312.2 568.5,-312.2 564.5,-312.2 568.5,-308.6 560.5,-312.2001 560.5,-312.2001"/>
<ellipse fill="none" stroke="#000000" cx="557.3" cy="-312.2001" rx="3.2" ry="3.2"/>
</g>
<!-- c_covariates_continuous&#45;&gt;c_covariate_ref -->
<g id="edge5" class="edge">
<title>c_covariates_continuous:w&#45;&gt;c_covariate_ref:e</title>
<path fill="none" stroke="#000000" d="M554.0061,-116.2992C493.6774,-136.1564 568.8858,-290.2 488.5,-290.2"/>
<polygon fill="#000000" stroke="#000000" points="560.5826,-115.3467 569.016,-117.7628 564.5413,-114.7734 568.5,-114.2 568.5,-114.2 568.5,-114.2 564.5413,-114.7734 567.984,-110.6372 560.5826,-115.3467 560.5826,-115.3467"/>
<ellipse fill="none" stroke="#000000" cx="557.4156" cy="-115.8054" rx="3.2" ry="3.2"/>
</g>
<!-- c_settings -->
<g id="node3" class="node">
<title>c_settings</title>
<g id="a_node3"><a xlink:href="../../tables/c_settings.html" xlink:title="c_settings" target="_top">
<polygon fill="#ffffff" stroke="transparent" points="302,-87.7 302,-192.7 517,-192.7 517,-87.7 302,-87.7"/>
<polygon fill="#f5f5f5" stroke="transparent" points="302.5,-169.2 302.5,-192.2 517.5,-192.2 517.5,-169.2 302.5,-169.2"/>
<polygon fill="none" stroke="#000000" points="302.5,-169.2 302.5,-192.2 517.5,-192.2 517.5,-169.2 302.5,-169.2"/>
<text text-anchor="start" x="307.5" y="-177.8" font-family="Helvetica,sans-Serif" font-weight="bold" font-size="11.00" fill="#000000">c_settings</text>
<text text-anchor="start" x="482.5437" y="-177.3" font-family="Helvetica,sans-Serif" font-size="11.00" fill="#000000">[table]</text>
<polygon fill="none" stroke="#000000" points="302.5,-147.2 302.5,-169.2 517.5,-169.2 517.5,-147.2 302.5,-147.2"/>
<image xlink:href="../../images/primaryKeys.png" width="11px" height="12px" preserveAspectRatio="xMinYMin meet" x="307.5" y="-164.2"/>
<text text-anchor="start" x="322.5" y="-154.3" font-family="Helvetica,sans-Serif" font-size="11.00" fill="#000000">database_id</text>
<polygon fill="none" stroke="#000000" points="302.5,-125.2 302.5,-147.2 517.5,-147.2 517.5,-125.2 302.5,-125.2"/>
<image xlink:href="../../images/primaryKeys.png" width="11px" height="12px" preserveAspectRatio="xMinYMin meet" x="307.5" y="-142.2"/>
<text text-anchor="start" x="322.5" y="-132.3" font-family="Helvetica,sans-Serif" font-size="11.00" fill="#000000">setting_id</text>
<polygon fill="none" stroke="#000000" points="302.5,-106.2 302.5,-125.2 517.5,-125.2 517.5,-106.2 302.5,-106.2"/>
<text text-anchor="start" x="305.5" y="-112.3" font-family="Helvetica,sans-Serif" font-size="11.00" fill="#000000">...</text>
<polygon fill="#ffffff" stroke="transparent" points="302.5,-87.2 302.5,-106.2 390.5,-106.2 390.5,-87.2 302.5,-87.2"/>
<polygon fill="none" stroke="#000000" points="302.5,-87.2 302.5,-106.2 390.5,-106.2 390.5,-87.2 302.5,-87.2"/>
<text text-anchor="start" x="305.5" y="-93.3" font-family="Helvetica,sans-Serif" font-size="11.00" fill="#000000">&lt; 3</text>
<polygon fill="#ffffff" stroke="transparent" points="390.5,-87.2 390.5,-106.2 462.5,-106.2 462.5,-87.2 390.5,-87.2"/>
<polygon fill="none" stroke="#000000" points="390.5,-87.2 390.5,-106.2 462.5,-106.2 462.5,-87.2 390.5,-87.2"/>
<text text-anchor="start" x="427.1105" y="-93.3" font-family="Helvetica,sans-Serif" font-size="11.00" fill="#000000">0 rows</text>
<polygon fill="#ffffff" stroke="transparent" points="462.5,-87.2 462.5,-106.2 517.5,-106.2 517.5,-87.2 462.5,-87.2"/>
<polygon fill="none" stroke="#000000" points="462.5,-87.2 462.5,-106.2 517.5,-106.2 517.5,-87.2 462.5,-87.2"/>
<text text-anchor="start" x="498.9053" y="-93.3" font-family="Helvetica,sans-Serif" font-size="11.00" fill="#000000">6 &gt;</text>
</a>
</g>
</g>
<!-- c_covariates_continuous&#45;&gt;c_settings -->
<g id="edge3" class="edge">
<title>c_covariates_continuous:w&#45;&gt;c_settings:e</title>
<path fill="none" stroke="#000000" d="M554.1893,-309.3956C510.2665,-288.5235 583.8264,-158.2 517.5,-158.2"/>
<polygon fill="#000000" stroke="#000000" points="560.6493,-310.6615 567.8077,-315.7328 564.5747,-311.4307 568.5,-312.2 568.5,-312.2 568.5,-312.2 564.5747,-311.4307 569.1923,-308.6672 560.6493,-310.6615 560.6493,-310.6615"/>
<ellipse fill="none" stroke="#000000" cx="557.5091" cy="-310.0461" rx="3.2" ry="3.2"/>
</g>
<!-- c_covariates_continuous&#45;&gt;c_settings -->
<g id="edge6" class="edge">
<title>c_covariates_continuous:w&#45;&gt;c_settings:e</title>
<path fill="none" stroke="#000000" d="M554.3489,-117.259C541.7843,-123.304 536.4,-136.2 517.5,-136.2"/>
<polygon fill="#000000" stroke="#000000" points="560.6806,-115.8903 569.2607,-117.7187 564.5903,-115.0452 568.5,-114.2 568.5,-114.2 568.5,-114.2 564.5903,-115.0452 567.7393,-110.6813 560.6806,-115.8903 560.6806,-115.8903"/>
<ellipse fill="none" stroke="#000000" cx="557.5528" cy="-116.5665" rx="3.2" ry="3.2"/>
</g>
<!-- database_meta_data -->
<g id="node4" class="node">
<title>database_meta_data</title>
<g id="a_node4"><a xlink:href="../../tables/database_meta_data.html" xlink:title="database_meta_data" target="_top">
<polygon fill="#ffffff" stroke="transparent" points="8,-138.7 8,-221.7 253,-221.7 253,-138.7 8,-138.7"/>
<polygon fill="#f5f5f5" stroke="transparent" points="8.5,-198.2 8.5,-221.2 253.5,-221.2 253.5,-198.2 8.5,-198.2"/>
<polygon fill="none" stroke="#000000" points="8.5,-198.2 8.5,-221.2 253.5,-221.2 253.5,-198.2 8.5,-198.2"/>
<text text-anchor="start" x="13.5" y="-206.8" font-family="Helvetica,sans-Serif" font-weight="bold" font-size="11.00" fill="#000000">database_meta_data</text>
<text text-anchor="start" x="218.5437" y="-206.3" font-family="Helvetica,sans-Serif" font-size="11.00" fill="#000000">[table]</text>
<polygon fill="none" stroke="#000000" points="8.5,-176.2 8.5,-198.2 253.5,-198.2 253.5,-176.2 8.5,-176.2"/>
<image xlink:href="../../images/primaryKeys.png" width="11px" height="12px" preserveAspectRatio="xMinYMin meet" x="13.5" y="-193.2"/>
<text text-anchor="start" x="28.5" y="-183.3" font-family="Helvetica,sans-Serif" font-size="11.00" fill="#000000">database_id</text>
<polygon fill="none" stroke="#000000" points="8.5,-157.2 8.5,-176.2 253.5,-176.2 253.5,-157.2 8.5,-157.2"/>
<text text-anchor="start" x="11.5" y="-163.3" font-family="Helvetica,sans-Serif" font-size="11.00" fill="#000000">...</text>
<polygon fill="#ffffff" stroke="transparent" points="8.5,-138.2 8.5,-157.2 108.5,-157.2 108.5,-138.2 8.5,-138.2"/>
<polygon fill="none" stroke="#000000" points="8.5,-138.2 8.5,-157.2 108.5,-157.2 108.5,-138.2 8.5,-138.2"/>
<text text-anchor="start" x="11.5" y="-144.3" font-family="Helvetica,sans-Serif" font-size="11.00" fill="#000000">&lt; 1</text>
<polygon fill="#ffffff" stroke="transparent" points="108.5,-138.2 108.5,-157.2 186.5,-157.2 186.5,-138.2 108.5,-138.2"/>
<polygon fill="none" stroke="#000000" points="108.5,-138.2 108.5,-157.2 186.5,-157.2 186.5,-138.2 108.5,-138.2"/>
<text text-anchor="start" x="151.1105" y="-144.3" font-family="Helvetica,sans-Serif" font-size="11.00" fill="#000000">0 rows</text>
<polygon fill="#ffffff" stroke="transparent" points="186.5,-138.2 186.5,-157.2 253.5,-157.2 253.5,-138.2 186.5,-138.2"/>
<polygon fill="none" stroke="#000000" points="186.5,-138.2 186.5,-157.2 253.5,-157.2 253.5,-138.2 186.5,-138.2"/>
<text text-anchor="start" x="228.7904" y="-144.3" font-family="Helvetica,sans-Serif" font-size="11.00" fill="#000000">17 &gt;</text>
</a>
</g>
</g>
<!-- c_covariates_continuous&#45;&gt;database_meta_data -->
<g id="edge4" class="edge">
<title>c_covariates_continuous:w&#45;&gt;database_meta_data:e</title>
<path fill="none" stroke="#000000" d="M554.3515,-308.4934C535.6093,-295.3531 553.6016,-250.7377 525,-231.2 439.604,-172.8662 394.2431,-228.629 294,-203.2 275.2404,-198.4412 272.8538,-187.2 253.5,-187.2"/>
<polygon fill="#000000" stroke="#000000" points="560.7612,-310.1726 567.5877,-315.6825 564.6306,-311.1863 568.5,-312.2 568.5,-312.2 568.5,-312.2 564.6306,-311.1863 569.4123,-308.7175 560.7612,-310.1726 560.7612,-310.1726"/>
<ellipse fill="none" stroke="#000000" cx="557.6656" cy="-309.3616" rx="3.2" ry="3.2"/>
</g>
<!-- c_settings&#45;&gt;database_meta_data -->
<g id="edge7" class="edge">
<title>c_settings:w&#45;&gt;database_meta_data:e</title>
<path fill="none" stroke="#000000" d="M288.4495,-162.2323C276.471,-170.2007 272.8749,-187.2 253.5,-187.2"/>
<polygon fill="#000000" stroke="#000000" points="294.8104,-160.4069 303.4931,-161.6603 298.6552,-159.3034 302.5,-158.2 302.5,-158.2 302.5,-158.2 298.6552,-159.3034 301.5069,-154.7397 294.8104,-160.4069 294.8104,-160.4069"/>
<ellipse fill="none" stroke="#000000" cx="291.7346" cy="-161.2896" rx="3.2" ry="3.2"/>
</g>
</g>
</svg>
