<?xml version="1.0" encoding="UTF-8" standalone="no"?>
<!DOCTYPE svg PUBLIC "-//W3C//DTD SVG 1.1//EN"
 "http://www.w3.org/Graphics/SVG/1.1/DTD/svg11.dtd">
<!-- Generated by graphviz version 2.40.1 (20161225.0304)
 -->
<!-- Title: oneDegreeRelationshipsDiagram Pages: 1 -->
<svg width="1020pt" height="224pt"
 viewBox="0.00 0.00 1020.00 223.79" xmlns="http://www.w3.org/2000/svg" xmlns:xlink="http://www.w3.org/1999/xlink">
<g id="graph0" class="graph" transform="scale(1 1) rotate(0) translate(4 219.7876)">
<title>oneDegreeRelationshipsDiagram</title>
<polygon fill="#ffffff" stroke="transparent" points="-4,4 -4,-219.7876 1016,-219.7876 1016,4 -4,4"/>
<text text-anchor="middle" x="72.4936" y="-7.3" font-family="Helvetica,sans-Serif" font-size="11.00" fill="#000000">Generated by SchemaSpy</text>
<!-- c_cohort_details -->
<g id="node1" class="node">
<title>c_cohort_details</title>
<g id="a_node1"><a xlink:href="../../tables/c_cohort_details.html" xlink:title="c_cohort_details" target="_top">
<polygon fill="#ffffff" stroke="transparent" points="232,-38.2 232,-194.2 446,-194.2 446,-38.2 232,-38.2"/>
<polygon fill="#f5f5f5" stroke="transparent" points="234,-169.2 234,-192.2 444,-192.2 444,-169.2 234,-169.2"/>
<polygon fill="none" stroke="#000000" points="234,-169.2 234,-192.2 444,-192.2 444,-169.2 234,-169.2"/>
<text text-anchor="start" x="239" y="-177.8" font-family="Helvetica,sans-Serif" font-weight="bold" font-size="11.00" fill="#000000">c_cohort_details</text>
<text text-anchor="start" x="409.0437" y="-177.3" font-family="Helvetica,sans-Serif" font-size="11.00" fill="#000000">[table]</text>
<polygon fill="none" stroke="#000000" points="234,-147.2 234,-169.2 382,-169.2 382,-147.2 234,-147.2"/>
<text text-anchor="start" x="254" y="-154.3" font-family="Helvetica,sans-Serif" font-size="11.00" fill="#000000">cohort_type</text>
<polygon fill="none" stroke="#000000" points="382,-147.2 382,-169.2 444,-169.2 444,-147.2 382,-147.2"/>
<text text-anchor="start" x="384.878" y="-154.9" font-family="Helvetica,sans-Serif" font-size="11.00" fill="#000000">unknown[0]</text>
<polygon fill="none" stroke="#000000" points="234,-125.2 234,-147.2 382,-147.2 382,-125.2 234,-125.2"/>
<image xlink:href="../../images/primaryKeys.png" width="11px" height="12px" preserveAspectRatio="xMinYMin meet" x="239" y="-142.2"/>
<text text-anchor="start" x="254" y="-132.3" font-family="Helvetica,sans-Serif" font-size="11.00" fill="#000000">database_id</text>
<polygon fill="none" stroke="#000000" points="382,-125.2 382,-147.2 444,-147.2 444,-125.2 382,-125.2"/>
<text text-anchor="start" x="384.878" y="-132.9" font-family="Helvetica,sans-Serif" font-size="11.00" fill="#000000">unknown[0]</text>
<polygon fill="none" stroke="#000000" points="234,-103.2 234,-125.2 382,-125.2 382,-103.2 234,-103.2"/>
<image xlink:href="../../images/foreignKeys.png" width="11px" height="12px" preserveAspectRatio="xMinYMin meet" x="239" y="-120.2"/>
<text text-anchor="start" x="254" y="-110.3" font-family="Helvetica,sans-Serif" font-size="11.00" fill="#000000">outcome_cohort_id</text>
<polygon fill="none" stroke="#000000" points="382,-103.2 382,-125.2 444,-125.2 444,-103.2 382,-103.2"/>
<text text-anchor="start" x="384.878" y="-110.9" font-family="Helvetica,sans-Serif" font-size="11.00" fill="#000000">unknown[0]</text>
<polygon fill="none" stroke="#000000" points="234,-81.2 234,-103.2 382,-103.2 382,-81.2 234,-81.2"/>
<image xlink:href="../../images/primaryKeys.png" width="11px" height="12px" preserveAspectRatio="xMinYMin meet" x="239" y="-98.2"/>
<text text-anchor="start" x="254" y="-88.3" font-family="Helvetica,sans-Serif" font-size="11.00" fill="#000000">setting_id</text>
<polygon fill="none" stroke="#000000" points="382,-81.2 382,-103.2 444,-103.2 444,-81.2 382,-81.2"/>
<text text-anchor="start" x="384.878" y="-88.9" font-family="Helvetica,sans-Serif" font-size="11.00" fill="#000000">unknown[0]</text>
<polygon fill="none" stroke="#000000" points="234,-59.2 234,-81.2 382,-81.2 382,-59.2 234,-59.2"/>
<image xlink:href="../../images/foreignKeys.png" width="11px" height="12px" preserveAspectRatio="xMinYMin meet" x="239" y="-76.2"/>
<text text-anchor="start" x="254" y="-66.3" font-family="Helvetica,sans-Serif" font-size="11.00" fill="#000000">target_cohort_id</text>
<polygon fill="none" stroke="#000000" points="382,-59.2 382,-81.2 444,-81.2 444,-59.2 382,-59.2"/>
<text text-anchor="start" x="384.878" y="-66.9" font-family="Helvetica,sans-Serif" font-size="11.00" fill="#000000">unknown[0]</text>
<polygon fill="#ffffff" stroke="transparent" points="234,-40.2 234,-59.2 299,-59.2 299,-40.2 234,-40.2"/>
<polygon fill="none" stroke="#000000" points="234,-40.2 234,-59.2 299,-59.2 299,-40.2 234,-40.2"/>
<text text-anchor="start" x="237" y="-46.3" font-family="Helvetica,sans-Serif" font-size="11.00" fill="#000000">&lt; 2</text>
<polygon fill="#ffffff" stroke="transparent" points="299,-40.2 299,-59.2 382,-59.2 382,-40.2 299,-40.2"/>
<polygon fill="none" stroke="#000000" points="299,-40.2 299,-59.2 382,-59.2 382,-40.2 299,-40.2"/>
<text text-anchor="start" x="346.6105" y="-46.3" font-family="Helvetica,sans-Serif" font-size="11.00" fill="#000000">0 rows</text>
<polygon fill="#ffffff" stroke="transparent" points="382,-40.2 382,-59.2 444,-59.2 444,-40.2 382,-40.2"/>
<polygon fill="none" stroke="#000000" points="382,-40.2 382,-59.2 444,-59.2 444,-40.2 382,-40.2"/>
<text text-anchor="start" x="425.4053" y="-46.3" font-family="Helvetica,sans-Serif" font-size="11.00" fill="#000000">3 &gt;</text>
<polygon fill="none" stroke="#000000" stroke-width="2" points="233,-39.2 233,-193.2 445,-193.2 445,-39.2 233,-39.2"/>
</a>
</g>
</g>
<!-- cg_cohort_definition -->
<g id="node2" class="node">
<title>cg_cohort_definition</title>
<g id="a_node2"><a xlink:href="../../tables/cg_cohort_definition.html" xlink:title="cg_cohort_definition" target="_top">
<polygon fill="#ffffff" stroke="transparent" points="8,-43.7 8,-126.7 183,-126.7 183,-43.7 8,-43.7"/>
<polygon fill="#f5f5f5" stroke="transparent" points="8.5,-103.2 8.5,-126.2 183.5,-126.2 183.5,-103.2 8.5,-103.2"/>
<polygon fill="none" stroke="#000000" points="8.5,-103.2 8.5,-126.2 183.5,-126.2 183.5,-103.2 8.5,-103.2"/>
<text text-anchor="start" x="13.5" y="-111.8" font-family="Helvetica,sans-Serif" font-weight="bold" font-size="11.00" fill="#000000">cg_cohort_definition</text>
<text text-anchor="start" x="149.0219" y="-111.3" font-family="Helvetica,sans-Serif" font-size="11.00" fill="#000000">[table]</text>
<polygon fill="none" stroke="#000000" points="8.5,-81.2 8.5,-103.2 183.5,-103.2 183.5,-81.2 8.5,-81.2"/>
<image xlink:href="../../images/primaryKeys.png" width="11px" height="12px" preserveAspectRatio="xMinYMin meet" x="13.5" y="-98.2"/>
<text text-anchor="start" x="37.5" y="-88.3" font-family="Helvetica,sans-Serif" font-size="11.00" fill="#000000">cohort_definition_id</text>
<polygon fill="none" stroke="#000000" points="8.5,-62.2 8.5,-81.2 183.5,-81.2 183.5,-62.2 8.5,-62.2"/>
<text text-anchor="start" x="11.5" y="-68.3" font-family="Helvetica,sans-Serif" font-size="11.00" fill="#000000">...</text>
<polygon fill="#ffffff" stroke="transparent" points="8.5,-43.2 8.5,-62.2 69.5,-62.2 69.5,-43.2 8.5,-43.2"/>
<polygon fill="none" stroke="#000000" points="8.5,-43.2 8.5,-62.2 69.5,-62.2 69.5,-43.2 8.5,-43.2"/>
<text text-anchor="start" x="11.5" y="-49.3" font-family="Helvetica,sans-Serif" font-size="11.00" fill="#000000"> &#160;</text>
<polygon fill="#ffffff" stroke="transparent" points="69.5,-43.2 69.5,-62.2 131.5,-62.2 131.5,-43.2 69.5,-43.2"/>
<polygon fill="none" stroke="#000000" points="69.5,-43.2 69.5,-62.2 131.5,-62.2 131.5,-43.2 69.5,-43.2"/>
<text text-anchor="start" x="96.1105" y="-49.3" font-family="Helvetica,sans-Serif" font-size="11.00" fill="#000000">0 rows</text>
<polygon fill="#ffffff" stroke="transparent" points="131.5,-43.2 131.5,-62.2 183.5,-62.2 183.5,-43.2 131.5,-43.2"/>
<polygon fill="none" stroke="#000000" points="131.5,-43.2 131.5,-62.2 183.5,-62.2 183.5,-43.2 131.5,-43.2"/>
<text text-anchor="start" x="158.7904" y="-49.3" font-family="Helvetica,sans-Serif" font-size="11.00" fill="#000000">17 &gt;</text>
</a>
</g>
</g>
<!-- c_cohort_details&#45;&gt;cg_cohort_definition -->
<g id="edge1" class="edge">
<title>c_cohort_details:w&#45;&gt;cg_cohort_definition:e</title>
<path fill="none" stroke="#000000" d="M219.5981,-110.9538C207.4282,-104.8342 202.0526,-92.2 183.5,-92.2"/>
<polygon fill="#000000" stroke="#000000" points="226.1958,-112.4409 233.2084,-117.7119 230.0979,-113.3204 234,-114.2 234,-114.2 234,-114.2 230.0979,-113.3204 234.7916,-110.6881 226.1958,-112.4409 226.1958,-112.4409"/>
<ellipse fill="none" stroke="#000000" cx="223.0741" cy="-111.7373" rx="3.2" ry="3.2"/>
</g>
<!-- c_cohort_details&#45;&gt;cg_cohort_definition -->
<g id="edge2" class="edge">
<title>c_cohort_details:w&#45;&gt;cg_cohort_definition:e</title>
<path fill="none" stroke="#000000" d="M219.5981,-73.4462C207.4282,-79.5658 202.0526,-92.2 183.5,-92.2"/>
<polygon fill="#000000" stroke="#000000" points="226.1958,-71.9591 234.7916,-73.7119 230.0979,-71.0796 234,-70.2 234,-70.2 234,-70.2 230.0979,-71.0796 233.2084,-66.6881 226.1958,-71.9591 226.1958,-71.9591"/>
<ellipse fill="none" stroke="#000000" cx="223.0741" cy="-72.6627" rx="3.2" ry="3.2"/>
</g>
<!-- c_settings -->
<g id="node3" class="node">
<title>c_settings</title>
<g id="a_node3"><a xlink:href="../../tables/c_settings.html" xlink:title="c_settings" target="_top">
<polygon fill="#ffffff" stroke="transparent" points="789,-65.7 789,-170.7 1004,-170.7 1004,-65.7 789,-65.7"/>
<polygon fill="#f5f5f5" stroke="transparent" points="789.5,-147.2 789.5,-170.2 1004.5,-170.2 1004.5,-147.2 789.5,-147.2"/>
<polygon fill="none" stroke="#000000" points="789.5,-147.2 789.5,-170.2 1004.5,-170.2 1004.5,-147.2 789.5,-147.2"/>
<text text-anchor="start" x="794.5" y="-155.8" font-family="Helvetica,sans-Serif" font-weight="bold" font-size="11.00" fill="#000000">c_settings</text>
<text text-anchor="start" x="969.5437" y="-155.3" font-family="Helvetica,sans-Serif" font-size="11.00" fill="#000000">[table]</text>
<polygon fill="none" stroke="#000000" points="789.5,-125.2 789.5,-147.2 1004.5,-147.2 1004.5,-125.2 789.5,-125.2"/>
<image xlink:href="../../images/primaryKeys.png" width="11px" height="12px" preserveAspectRatio="xMinYMin meet" x="794.5" y="-142.2"/>
<text text-anchor="start" x="809.5" y="-132.3" font-family="Helvetica,sans-Serif" font-size="11.00" fill="#000000">database_id</text>
<polygon fill="none" stroke="#000000" points="789.5,-103.2 789.5,-125.2 1004.5,-125.2 1004.5,-103.2 789.5,-103.2"/>
<image xlink:href="../../images/primaryKeys.png" width="11px" height="12px" preserveAspectRatio="xMinYMin meet" x="794.5" y="-120.2"/>
<text text-anchor="start" x="809.5" y="-110.3" font-family="Helvetica,sans-Serif" font-size="11.00" fill="#000000">setting_id</text>
<polygon fill="none" stroke="#000000" points="789.5,-84.2 789.5,-103.2 1004.5,-103.2 1004.5,-84.2 789.5,-84.2"/>
<text text-anchor="start" x="792.5" y="-90.3" font-family="Helvetica,sans-Serif" font-size="11.00" fill="#000000">...</text>
<polygon fill="#ffffff" stroke="transparent" points="789.5,-65.2 789.5,-84.2 877.5,-84.2 877.5,-65.2 789.5,-65.2"/>
<polygon fill="none" stroke="#000000" points="789.5,-65.2 789.5,-84.2 877.5,-84.2 877.5,-65.2 789.5,-65.2"/>
<text text-anchor="start" x="792.5" y="-71.3" font-family="Helvetica,sans-Serif" font-size="11.00" fill="#000000">&lt; 3</text>
<polygon fill="#ffffff" stroke="transparent" points="877.5,-65.2 877.5,-84.2 949.5,-84.2 949.5,-65.2 877.5,-65.2"/>
<polygon fill="none" stroke="#000000" points="877.5,-65.2 877.5,-84.2 949.5,-84.2 949.5,-65.2 877.5,-65.2"/>
<text text-anchor="start" x="914.1105" y="-71.3" font-family="Helvetica,sans-Serif" font-size="11.00" fill="#000000">0 rows</text>
<polygon fill="#ffffff" stroke="transparent" points="949.5,-65.2 949.5,-84.2 1004.5,-84.2 1004.5,-65.2 949.5,-65.2"/>
<polygon fill="none" stroke="#000000" points="949.5,-65.2 949.5,-84.2 1004.5,-84.2 1004.5,-65.2 949.5,-65.2"/>
<text text-anchor="start" x="985.9053" y="-71.3" font-family="Helvetica,sans-Serif" font-size="11.00" fill="#000000">6 &gt;</text>
</a>
</g>
</g>
<!-- c_settings&#45;&gt;c_cohort_details -->
<g id="edge3" class="edge">
<title>c_settings:w&#45;&gt;c_cohort_details:e</title>
<path fill="none" stroke="#000000" d="M775.6603,-141.0796C765.322,-150.9036 767.0793,-172.8412 748,-181.2 641.7494,-227.7491 593.6588,-226.806 487,-181.2 461.5648,-170.3242 471.6629,-136.2 444,-136.2"/>
<polygon fill="#000000" stroke="#000000" points="781.9552,-138.8602 790.6971,-139.5952 785.7276,-137.5301 789.5,-136.2 789.5,-136.2 789.5,-136.2 785.7276,-137.5301 788.3029,-132.8048 781.9552,-138.8602 781.9552,-138.8602"/>
<ellipse fill="none" stroke="#000000" cx="778.9373" cy="-139.9242" rx="3.2" ry="3.2"/>
</g>
<!-- c_settings&#45;&gt;c_cohort_details -->
<g id="edge5" class="edge">
<title>c_settings:w&#45;&gt;c_cohort_details:e</title>
<path fill="none" stroke="#000000" d="M775.5367,-109.3924C766.085,-100.9484 765.1379,-83.7305 748,-77.2 639.6031,-35.8949 601.3704,-57.8242 487,-77.2 467.0438,-80.5808 464.2405,-92.2 444,-92.2"/>
<polygon fill="#000000" stroke="#000000" points="781.9358,-111.5956 788.328,-117.6039 785.7179,-112.8978 789.5,-114.2 789.5,-114.2 789.5,-114.2 785.7179,-112.8978 790.672,-110.7961 781.9358,-111.5956 781.9358,-111.5956"/>
<ellipse fill="none" stroke="#000000" cx="778.9101" cy="-110.5538" rx="3.2" ry="3.2"/>
</g>
<!-- database_meta_data -->
<g id="node4" class="node">
<title>database_meta_data</title>
<g id="a_node4"><a xlink:href="../../tables/database_meta_data.html" xlink:title="database_meta_data" target="_top">
<polygon fill="#ffffff" stroke="transparent" points="495,-87.7 495,-170.7 740,-170.7 740,-87.7 495,-87.7"/>
<polygon fill="#f5f5f5" stroke="transparent" points="495.5,-147.2 495.5,-170.2 740.5,-170.2 740.5,-147.2 495.5,-147.2"/>
<polygon fill="none" stroke="#000000" points="495.5,-147.2 495.5,-170.2 740.5,-170.2 740.5,-147.2 495.5,-147.2"/>
<text text-anchor="start" x="500.5" y="-155.8" font-family="Helvetica,sans-Serif" font-weight="bold" font-size="11.00" fill="#000000">database_meta_data</text>
<text text-anchor="start" x="705.5437" y="-155.3" font-family="Helvetica,sans-Serif" font-size="11.00" fill="#000000">[table]</text>
<polygon fill="none" stroke="#000000" points="495.5,-125.2 495.5,-147.2 740.5,-147.2 740.5,-125.2 495.5,-125.2"/>
<image xlink:href="../../images/primaryKeys.png" width="11px" height="12px" preserveAspectRatio="xMinYMin meet" x="500.5" y="-142.2"/>
<text text-anchor="start" x="515.5" y="-132.3" font-family="Helvetica,sans-Serif" font-size="11.00" fill="#000000">database_id</text>
<polygon fill="none" stroke="#000000" points="495.5,-106.2 495.5,-125.2 740.5,-125.2 740.5,-106.2 495.5,-106.2"/>
<text text-anchor="start" x="498.5" y="-112.3" font-family="Helvetica,sans-Serif" font-size="11.00" fill="#000000">...</text>
<polygon fill="#ffffff" stroke="transparent" points="495.5,-87.2 495.5,-106.2 595.5,-106.2 595.5,-87.2 495.5,-87.2"/>
<polygon fill="none" stroke="#000000" points="495.5,-87.2 495.5,-106.2 595.5,-106.2 595.5,-87.2 495.5,-87.2"/>
<text text-anchor="start" x="498.5" y="-93.3" font-family="Helvetica,sans-Serif" font-size="11.00" fill="#000000">&lt; 1</text>
<polygon fill="#ffffff" stroke="transparent" points="595.5,-87.2 595.5,-106.2 673.5,-106.2 673.5,-87.2 595.5,-87.2"/>
<polygon fill="none" stroke="#000000" points="595.5,-87.2 595.5,-106.2 673.5,-106.2 673.5,-87.2 595.5,-87.2"/>
<text text-anchor="start" x="638.1105" y="-93.3" font-family="Helvetica,sans-Serif" font-size="11.00" fill="#000000">0 rows</text>
<polygon fill="#ffffff" stroke="transparent" points="673.5,-87.2 673.5,-106.2 740.5,-106.2 740.5,-87.2 673.5,-87.2"/>
<polygon fill="none" stroke="#000000" points="673.5,-87.2 673.5,-106.2 740.5,-106.2 740.5,-87.2 673.5,-87.2"/>
<text text-anchor="start" x="715.7904" y="-93.3" font-family="Helvetica,sans-Serif" font-size="11.00" fill="#000000">17 &gt;</text>
</a>
</g>
</g>
<!-- c_settings&#45;&gt;database_meta_data -->
<g id="edge4" class="edge">
<title>c_settings:w&#45;&gt;database_meta_data:e</title>
<path fill="none" stroke="#000000" d="M774.9909,-136.2C763.6774,-136.2 756.4931,-136.2 740.5,-136.2"/>
<polygon fill="#000000" stroke="#000000" points="781.5,-136.2001 789.5,-139.8 785.5,-136.2 789.5,-136.2 789.5,-136.2 789.5,-136.2 785.5,-136.2 789.5,-132.6 781.5,-136.2001 781.5,-136.2001"/>
<ellipse fill="none" stroke="#000000" cx="778.3" cy="-136.2001" rx="3.2" ry="3.2"/>
</g>
<!-- database_meta_data&#45;&gt;c_cohort_details -->
<g id="edge6" class="edge">
<title>database_meta_data:w&#45;&gt;c_cohort_details:e</title>
<path fill="none" stroke="#000000" d="M485.045,-136.2C470.137,-136.2 462.9549,-136.2 444,-136.2"/>
<polygon fill="#000000" stroke="#000000" points="494.7,-132.2 494.7,-140.2 493.1,-140.2 493.1,-132.2 494.7,-132.2"/>
<polyline fill="none" stroke="#000000" points="495.5,-136.2 491.5,-136.2 "/>
<ellipse fill="none" stroke="#000000" cx="488.3" cy="-136.2001" rx="3.2" ry="3.2"/>
</g>
</g>
</svg>
