<?xml version="1.0" encoding="UTF-8" standalone="no"?>
<!DOCTYPE svg PUBLIC "-//W3C//DTD SVG 1.1//EN"
 "http://www.w3.org/Graphics/SVG/1.1/DTD/svg11.dtd">
<!-- Generated by graphviz version 2.40.1 (20161225.0304)
 -->
<!-- Title: twoDegreesRelationshipsDiagram Pages: 1 -->
<svg width="982pt" height="441pt"
 viewBox="0.00 0.00 982.00 441.03" xmlns="http://www.w3.org/2000/svg" xmlns:xlink="http://www.w3.org/1999/xlink">
<g id="graph0" class="graph" transform="scale(1 1) rotate(0) translate(4 437.031)">
<title>twoDegreesRelationshipsDiagram</title>
<polygon fill="#ffffff" stroke="transparent" points="-4,4 -4,-437.031 978,-437.031 978,4 -4,4"/>
<text text-anchor="middle" x="72.4936" y="-7.3" font-family="Helvetica,sans-Serif" font-size="11.00" fill="#000000">Generated by SchemaSpy</text>
<!-- c_covariates -->
<g id="node1" class="node">
<title>c_covariates</title>
<g id="a_node1"><a xlink:href="../../tables/c_covariates.html" xlink:title="c_covariates" target="_top">
<polygon fill="#ffffff" stroke="transparent" points="695,-185.031 695,-429.031 966,-429.031 966,-185.031 695,-185.031"/>
<polygon fill="#f5f5f5" stroke="transparent" points="697.5,-404.031 697.5,-427.031 964.5,-427.031 964.5,-404.031 697.5,-404.031"/>
<polygon fill="none" stroke="#000000" points="697.5,-404.031 697.5,-427.031 964.5,-427.031 964.5,-404.031 697.5,-404.031"/>
<text text-anchor="start" x="702.5" y="-412.631" font-family="Helvetica,sans-Serif" font-weight="bold" font-size="11.00" fill="#000000">c_covariates</text>
<text text-anchor="start" x="929.5437" y="-412.131" font-family="Helvetica,sans-Serif" font-size="11.00" fill="#000000">[table]</text>
<polygon fill="none" stroke="#000000" points="697.5,-382.031 697.5,-404.031 902.5,-404.031 902.5,-382.031 697.5,-382.031"/>
<text text-anchor="start" x="717.5" y="-389.131" font-family="Helvetica,sans-Serif" font-size="11.00" fill="#000000">average_value</text>
<polygon fill="none" stroke="#000000" points="902.5,-382.031 902.5,-404.031 964.5,-404.031 964.5,-382.031 902.5,-382.031"/>
<text text-anchor="start" x="905.378" y="-389.731" font-family="Helvetica,sans-Serif" font-size="11.00" fill="#000000">unknown[0]</text>
<polygon fill="none" stroke="#000000" points="697.5,-360.031 697.5,-382.031 902.5,-382.031 902.5,-360.031 697.5,-360.031"/>
<text text-anchor="start" x="717.5" y="-367.131" font-family="Helvetica,sans-Serif" font-size="11.00" fill="#000000">cohort_type</text>
<polygon fill="none" stroke="#000000" points="902.5,-360.031 902.5,-382.031 964.5,-382.031 964.5,-360.031 902.5,-360.031"/>
<text text-anchor="start" x="905.378" y="-367.731" font-family="Helvetica,sans-Serif" font-size="11.00" fill="#000000">unknown[0]</text>
<polygon fill="none" stroke="#000000" points="697.5,-338.031 697.5,-360.031 902.5,-360.031 902.5,-338.031 697.5,-338.031"/>
<image xlink:href="../../images/foreignKeys.png" width="11px" height="12px" preserveAspectRatio="xMinYMin meet" x="702.5" y="-355.031"/>
<text text-anchor="start" x="717.5" y="-345.131" font-family="Helvetica,sans-Serif" font-size="11.00" fill="#000000">covariate_id</text>
<polygon fill="none" stroke="#000000" points="902.5,-338.031 902.5,-360.031 964.5,-360.031 964.5,-338.031 902.5,-338.031"/>
<text text-anchor="start" x="905.378" y="-345.731" font-family="Helvetica,sans-Serif" font-size="11.00" fill="#000000">unknown[0]</text>
<polygon fill="none" stroke="#000000" points="697.5,-316.031 697.5,-338.031 902.5,-338.031 902.5,-316.031 697.5,-316.031"/>
<image xlink:href="../../images/foreignKeys.png" width="11px" height="12px" preserveAspectRatio="xMinYMin meet" x="702.5" y="-333.031"/>
<text text-anchor="start" x="717.5" y="-323.131" font-family="Helvetica,sans-Serif" font-size="11.00" fill="#000000">database_id</text>
<polygon fill="none" stroke="#000000" points="902.5,-316.031 902.5,-338.031 964.5,-338.031 964.5,-316.031 902.5,-316.031"/>
<text text-anchor="start" x="905.378" y="-323.731" font-family="Helvetica,sans-Serif" font-size="11.00" fill="#000000">unknown[0]</text>
<polygon fill="none" stroke="#000000" points="697.5,-294.031 697.5,-316.031 902.5,-316.031 902.5,-294.031 697.5,-294.031"/>
<text text-anchor="start" x="717.5" y="-301.131" font-family="Helvetica,sans-Serif" font-size="11.00" fill="#000000">min_characterization_mean</text>
<polygon fill="none" stroke="#000000" points="902.5,-294.031 902.5,-316.031 964.5,-316.031 964.5,-294.031 902.5,-294.031"/>
<text text-anchor="start" x="905.378" y="-301.731" font-family="Helvetica,sans-Serif" font-size="11.00" fill="#000000">unknown[0]</text>
<polygon fill="none" stroke="#000000" points="697.5,-272.031 697.5,-294.031 902.5,-294.031 902.5,-272.031 697.5,-272.031"/>
<text text-anchor="start" x="717.5" y="-279.131" font-family="Helvetica,sans-Serif" font-size="11.00" fill="#000000">outcome_cohort_id</text>
<polygon fill="none" stroke="#000000" points="902.5,-272.031 902.5,-294.031 964.5,-294.031 964.5,-272.031 902.5,-272.031"/>
<text text-anchor="start" x="905.378" y="-279.731" font-family="Helvetica,sans-Serif" font-size="11.00" fill="#000000">unknown[0]</text>
<polygon fill="none" stroke="#000000" points="697.5,-250.031 697.5,-272.031 902.5,-272.031 902.5,-250.031 697.5,-250.031"/>
<image xlink:href="../../images/foreignKeys.png" width="11px" height="12px" preserveAspectRatio="xMinYMin meet" x="702.5" y="-267.031"/>
<text text-anchor="start" x="717.5" y="-257.131" font-family="Helvetica,sans-Serif" font-size="11.00" fill="#000000">setting_id</text>
<polygon fill="none" stroke="#000000" points="902.5,-250.031 902.5,-272.031 964.5,-272.031 964.5,-250.031 902.5,-250.031"/>
<text text-anchor="start" x="905.378" y="-257.731" font-family="Helvetica,sans-Serif" font-size="11.00" fill="#000000">unknown[0]</text>
<polygon fill="none" stroke="#000000" points="697.5,-228.031 697.5,-250.031 902.5,-250.031 902.5,-228.031 697.5,-228.031"/>
<text text-anchor="start" x="717.5" y="-235.131" font-family="Helvetica,sans-Serif" font-size="11.00" fill="#000000">sum_value</text>
<polygon fill="none" stroke="#000000" points="902.5,-228.031 902.5,-250.031 964.5,-250.031 964.5,-228.031 902.5,-228.031"/>
<text text-anchor="start" x="905.378" y="-235.731" font-family="Helvetica,sans-Serif" font-size="11.00" fill="#000000">unknown[0]</text>
<polygon fill="none" stroke="#000000" points="697.5,-206.031 697.5,-228.031 902.5,-228.031 902.5,-206.031 697.5,-206.031"/>
<text text-anchor="start" x="717.5" y="-213.131" font-family="Helvetica,sans-Serif" font-size="11.00" fill="#000000">target_cohort_id</text>
<polygon fill="none" stroke="#000000" points="902.5,-206.031 902.5,-228.031 964.5,-228.031 964.5,-206.031 902.5,-206.031"/>
<text text-anchor="start" x="905.378" y="-213.731" font-family="Helvetica,sans-Serif" font-size="11.00" fill="#000000">unknown[0]</text>
<polygon fill="#ffffff" stroke="transparent" points="697.5,-187.031 697.5,-206.031 791.5,-206.031 791.5,-187.031 697.5,-187.031"/>
<polygon fill="none" stroke="#000000" points="697.5,-187.031 697.5,-206.031 791.5,-206.031 791.5,-187.031 697.5,-187.031"/>
<text text-anchor="start" x="700.5" y="-193.131" font-family="Helvetica,sans-Serif" font-size="11.00" fill="#000000">&lt; 7</text>
<polygon fill="#ffffff" stroke="transparent" points="791.5,-187.031 791.5,-206.031 902.5,-206.031 902.5,-187.031 791.5,-187.031"/>
<polygon fill="none" stroke="#000000" points="791.5,-187.031 791.5,-206.031 902.5,-206.031 902.5,-187.031 791.5,-187.031"/>
<text text-anchor="start" x="867.1105" y="-193.131" font-family="Helvetica,sans-Serif" font-size="11.00" fill="#000000">0 rows</text>
<polygon fill="#ffffff" stroke="transparent" points="902.5,-187.031 902.5,-206.031 964.5,-206.031 964.5,-187.031 902.5,-187.031"/>
<polygon fill="none" stroke="#000000" points="902.5,-187.031 902.5,-206.031 964.5,-206.031 964.5,-187.031 902.5,-187.031"/>
<text text-anchor="start" x="945.9053" y="-193.131" font-family="Helvetica,sans-Serif" font-size="11.00" fill="#000000">0 &gt;</text>
<polygon fill="none" stroke="#000000" stroke-width="2" points="696,-186.031 696,-428.031 965,-428.031 965,-186.031 696,-186.031"/>
</a>
</g>
</g>
<!-- c_covariate_ref -->
<g id="node2" class="node">
<title>c_covariate_ref</title>
<g id="a_node2"><a xlink:href="../../tables/c_covariate_ref.html" xlink:title="c_covariate_ref" target="_top">
<polygon fill="#ffffff" stroke="transparent" points="460,-81.531 460,-208.531 617,-208.531 617,-81.531 460,-81.531"/>
<polygon fill="#f5f5f5" stroke="transparent" points="460.5,-185.031 460.5,-208.031 617.5,-208.031 617.5,-185.031 460.5,-185.031"/>
<polygon fill="none" stroke="#000000" points="460.5,-185.031 460.5,-208.031 617.5,-208.031 617.5,-185.031 460.5,-185.031"/>
<text text-anchor="start" x="465.5" y="-193.631" font-family="Helvetica,sans-Serif" font-weight="bold" font-size="11.00" fill="#000000">c_covariate_ref</text>
<text text-anchor="start" x="582.5437" y="-193.131" font-family="Helvetica,sans-Serif" font-size="11.00" fill="#000000">[table]</text>
<polygon fill="none" stroke="#000000" points="460.5,-163.031 460.5,-185.031 617.5,-185.031 617.5,-163.031 460.5,-163.031"/>
<image xlink:href="../../images/primaryKeys.png" width="11px" height="12px" preserveAspectRatio="xMinYMin meet" x="465.5" y="-180.031"/>
<text text-anchor="start" x="480.5" y="-170.131" font-family="Helvetica,sans-Serif" font-size="11.00" fill="#000000">covariate_id</text>
<polygon fill="none" stroke="#000000" points="460.5,-141.031 460.5,-163.031 617.5,-163.031 617.5,-141.031 460.5,-141.031"/>
<image xlink:href="../../images/primaryKeys.png" width="11px" height="12px" preserveAspectRatio="xMinYMin meet" x="465.5" y="-158.031"/>
<text text-anchor="start" x="480.5" y="-148.131" font-family="Helvetica,sans-Serif" font-size="11.00" fill="#000000">database_id</text>
<polygon fill="none" stroke="#000000" points="460.5,-119.031 460.5,-141.031 617.5,-141.031 617.5,-119.031 460.5,-119.031"/>
<image xlink:href="../../images/primaryKeys.png" width="11px" height="12px" preserveAspectRatio="xMinYMin meet" x="465.5" y="-136.031"/>
<text text-anchor="start" x="480.5" y="-126.131" font-family="Helvetica,sans-Serif" font-size="11.00" fill="#000000">setting_id</text>
<polygon fill="none" stroke="#000000" points="460.5,-100.031 460.5,-119.031 617.5,-119.031 617.5,-100.031 460.5,-100.031"/>
<text text-anchor="start" x="463.5" y="-106.131" font-family="Helvetica,sans-Serif" font-size="11.00" fill="#000000">...</text>
<polygon fill="#ffffff" stroke="transparent" points="460.5,-81.031 460.5,-100.031 515.5,-100.031 515.5,-81.031 460.5,-81.031"/>
<polygon fill="none" stroke="#000000" points="460.5,-81.031 460.5,-100.031 515.5,-100.031 515.5,-81.031 460.5,-81.031"/>
<text text-anchor="start" x="463.5" y="-87.131" font-family="Helvetica,sans-Serif" font-size="11.00" fill="#000000"> &#160;</text>
<polygon fill="#ffffff" stroke="transparent" points="515.5,-81.031 515.5,-100.031 574.5,-100.031 574.5,-81.031 515.5,-81.031"/>
<polygon fill="none" stroke="#000000" points="515.5,-81.031 515.5,-100.031 574.5,-100.031 574.5,-81.031 515.5,-81.031"/>
<text text-anchor="start" x="539.1105" y="-87.131" font-family="Helvetica,sans-Serif" font-size="11.00" fill="#000000">0 rows</text>
<polygon fill="#ffffff" stroke="transparent" points="574.5,-81.031 574.5,-100.031 617.5,-100.031 617.5,-81.031 574.5,-81.031"/>
<polygon fill="none" stroke="#000000" points="574.5,-81.031 574.5,-100.031 617.5,-100.031 617.5,-81.031 574.5,-81.031"/>
<text text-anchor="start" x="598.9053" y="-87.131" font-family="Helvetica,sans-Serif" font-size="11.00" fill="#000000">6 &gt;</text>
</a>
</g>
</g>
<!-- c_covariates&#45;&gt;c_covariate_ref -->
<g id="edge1" class="edge">
<title>c_covariates:w&#45;&gt;c_covariate_ref:e</title>
<path fill="none" stroke="#000000" d="M683.0698,-346.9438C622.9826,-327.1994 697.5075,-174.031 617.5,-174.031"/>
<polygon fill="#000000" stroke="#000000" points="689.5824,-347.8858 696.9846,-352.594 693.5412,-348.4584 697.5,-349.031 697.5,-349.031 697.5,-349.031 693.5412,-348.4584 698.0154,-345.4681 689.5824,-347.8858 689.5824,-347.8858"/>
<ellipse fill="none" stroke="#000000" cx="686.4154" cy="-347.4276" rx="3.2" ry="3.2"/>
</g>
<!-- c_covariates&#45;&gt;c_covariate_ref -->
<g id="edge2" class="edge">
<title>c_covariates:w&#45;&gt;c_covariate_ref:e</title>
<path fill="none" stroke="#000000" d="M683.0698,-324.9438C622.9826,-305.1994 697.5075,-152.031 617.5,-152.031"/>
<polygon fill="#000000" stroke="#000000" points="689.5824,-325.8858 696.9846,-330.594 693.5412,-326.4584 697.5,-327.031 697.5,-327.031 697.5,-327.031 693.5412,-326.4584 698.0154,-323.4681 689.5824,-325.8858 689.5824,-325.8858"/>
<ellipse fill="none" stroke="#000000" cx="686.4154" cy="-325.4276" rx="3.2" ry="3.2"/>
</g>
<!-- c_covariates&#45;&gt;c_covariate_ref -->
<g id="edge5" class="edge">
<title>c_covariates:w&#45;&gt;c_covariate_ref:e</title>
<path fill="none" stroke="#000000" d="M683.0903,-258.5311C637.7005,-240.4204 680.1242,-130.031 617.5,-130.031"/>
<polygon fill="#000000" stroke="#000000" points="689.6177,-259.6635 696.8846,-264.5781 693.5589,-260.3473 697.5,-261.031 697.5,-261.031 697.5,-261.031 693.5589,-260.3473 698.1154,-257.484 689.6177,-259.6635 689.6177,-259.6635"/>
<ellipse fill="none" stroke="#000000" cx="686.4648" cy="-259.1165" rx="3.2" ry="3.2"/>
</g>
<!-- c_settings -->
<g id="node3" class="node">
<title>c_settings</title>
<g id="a_node3"><a xlink:href="../../tables/c_settings.html" xlink:title="c_settings" target="_top">
<polygon fill="#ffffff" stroke="transparent" points="431,-229.531 431,-334.531 646,-334.531 646,-229.531 431,-229.531"/>
<polygon fill="#f5f5f5" stroke="transparent" points="431.5,-311.031 431.5,-334.031 646.5,-334.031 646.5,-311.031 431.5,-311.031"/>
<polygon fill="none" stroke="#000000" points="431.5,-311.031 431.5,-334.031 646.5,-334.031 646.5,-311.031 431.5,-311.031"/>
<text text-anchor="start" x="436.5" y="-319.631" font-family="Helvetica,sans-Serif" font-weight="bold" font-size="11.00" fill="#000000">c_settings</text>
<text text-anchor="start" x="611.5437" y="-319.131" font-family="Helvetica,sans-Serif" font-size="11.00" fill="#000000">[table]</text>
<polygon fill="none" stroke="#000000" points="431.5,-289.031 431.5,-311.031 646.5,-311.031 646.5,-289.031 431.5,-289.031"/>
<image xlink:href="../../images/primaryKeys.png" width="11px" height="12px" preserveAspectRatio="xMinYMin meet" x="436.5" y="-306.031"/>
<text text-anchor="start" x="451.5" y="-296.131" font-family="Helvetica,sans-Serif" font-size="11.00" fill="#000000">database_id</text>
<polygon fill="none" stroke="#000000" points="431.5,-267.031 431.5,-289.031 646.5,-289.031 646.5,-267.031 431.5,-267.031"/>
<image xlink:href="../../images/primaryKeys.png" width="11px" height="12px" preserveAspectRatio="xMinYMin meet" x="436.5" y="-284.031"/>
<text text-anchor="start" x="451.5" y="-274.131" font-family="Helvetica,sans-Serif" font-size="11.00" fill="#000000">setting_id</text>
<polygon fill="none" stroke="#000000" points="431.5,-248.031 431.5,-267.031 646.5,-267.031 646.5,-248.031 431.5,-248.031"/>
<text text-anchor="start" x="434.5" y="-254.131" font-family="Helvetica,sans-Serif" font-size="11.00" fill="#000000">...</text>
<polygon fill="#ffffff" stroke="transparent" points="431.5,-229.031 431.5,-248.031 519.5,-248.031 519.5,-229.031 431.5,-229.031"/>
<polygon fill="none" stroke="#000000" points="431.5,-229.031 431.5,-248.031 519.5,-248.031 519.5,-229.031 431.5,-229.031"/>
<text text-anchor="start" x="434.5" y="-235.131" font-family="Helvetica,sans-Serif" font-size="11.00" fill="#000000">&lt; 3</text>
<polygon fill="#ffffff" stroke="transparent" points="519.5,-229.031 519.5,-248.031 591.5,-248.031 591.5,-229.031 519.5,-229.031"/>
<polygon fill="none" stroke="#000000" points="519.5,-229.031 519.5,-248.031 591.5,-248.031 591.5,-229.031 519.5,-229.031"/>
<text text-anchor="start" x="556.1105" y="-235.131" font-family="Helvetica,sans-Serif" font-size="11.00" fill="#000000">0 rows</text>
<polygon fill="#ffffff" stroke="transparent" points="591.5,-229.031 591.5,-248.031 646.5,-248.031 646.5,-229.031 591.5,-229.031"/>
<polygon fill="none" stroke="#000000" points="591.5,-229.031 591.5,-248.031 646.5,-248.031 646.5,-229.031 591.5,-229.031"/>
<text text-anchor="start" x="627.9053" y="-235.131" font-family="Helvetica,sans-Serif" font-size="11.00" fill="#000000">6 &gt;</text>
</a>
</g>
</g>
<!-- c_covariates&#45;&gt;c_settings -->
<g id="edge3" class="edge">
<title>c_covariates:w&#45;&gt;c_settings:e</title>
<path fill="none" stroke="#000000" d="M683.4593,-323.5013C670.6546,-316.1826 666.3365,-300.031 646.5,-300.031"/>
<polygon fill="#000000" stroke="#000000" points="689.7414,-325.0805 696.6223,-330.5224 693.6207,-326.0558 697.5,-327.031 697.5,-327.031 697.5,-327.031 693.6207,-326.0558 698.3777,-323.5397 689.7414,-325.0805 689.7414,-325.0805"/>
<ellipse fill="none" stroke="#000000" cx="686.638" cy="-324.3003" rx="3.2" ry="3.2"/>
</g>
<!-- c_covariates&#45;&gt;c_settings -->
<g id="edge4" class="edge">
<title>c_covariates:w&#45;&gt;c_settings:e</title>
<path fill="none" stroke="#000000" d="M683.8147,-322.5091C668.9944,-310.3787 672.0395,-278.031 646.5,-278.031"/>
<polygon fill="#000000" stroke="#000000" points="689.9039,-324.5211 696.3705,-330.4493 693.702,-325.7761 697.5,-327.031 697.5,-327.031 697.5,-327.031 693.702,-325.7761 698.6295,-323.6128 689.9039,-324.5211 689.9039,-324.5211"/>
<ellipse fill="none" stroke="#000000" cx="686.8655" cy="-323.5171" rx="3.2" ry="3.2"/>
</g>
<!-- c_covariates&#45;&gt;c_settings -->
<g id="edge6" class="edge">
<title>c_covariates:w&#45;&gt;c_settings:e</title>
<path fill="none" stroke="#000000" d="M683.4125,-265.5048C669.9862,-275.7489 669.0156,-300.031 646.5,-300.031"/>
<polygon fill="#000000" stroke="#000000" points="689.8752,-263.4525 698.5896,-264.4622 693.6876,-262.2418 697.5,-261.031 697.5,-261.031 697.5,-261.031 693.6876,-262.2418 696.4104,-257.5999 689.8752,-263.4525 689.8752,-263.4525"/>
<ellipse fill="none" stroke="#000000" cx="686.8253" cy="-264.4211" rx="3.2" ry="3.2"/>
</g>
<!-- c_covariates&#45;&gt;c_settings -->
<g id="edge7" class="edge">
<title>c_covariates:w&#45;&gt;c_settings:e</title>
<path fill="none" stroke="#000000" d="M683.1916,-263.5394C670.8373,-268.2683 664.6062,-278.031 646.5,-278.031"/>
<polygon fill="#000000" stroke="#000000" points="689.6202,-262.4125 698.1217,-264.577 693.5601,-261.7218 697.5,-261.031 697.5,-261.031 697.5,-261.031 693.5601,-261.7218 696.8783,-257.4851 689.6202,-262.4125 689.6202,-262.4125"/>
<ellipse fill="none" stroke="#000000" cx="686.4682" cy="-262.9651" rx="3.2" ry="3.2"/>
</g>
<!-- database_meta_data -->
<g id="node5" class="node">
<title>database_meta_data</title>
<g id="a_node5"><a xlink:href="../../tables/database_meta_data.html" xlink:title="database_meta_data" target="_top">
<polygon fill="#ffffff" stroke="transparent" points="204,-189.531 204,-250.531 382,-250.531 382,-189.531 204,-189.531"/>
<polygon fill="#f5f5f5" stroke="transparent" points="204,-227.031 204,-250.031 382,-250.031 382,-227.031 204,-227.031"/>
<polygon fill="none" stroke="#000000" points="204,-227.031 204,-250.031 382,-250.031 382,-227.031 204,-227.031"/>
<text text-anchor="start" x="209" y="-235.631" font-family="Helvetica,sans-Serif" font-weight="bold" font-size="11.00" fill="#000000">database_meta_data</text>
<text text-anchor="start" x="347.5219" y="-235.131" font-family="Helvetica,sans-Serif" font-size="11.00" fill="#000000">[table]</text>
<polygon fill="none" stroke="#000000" points="204,-208.031 204,-227.031 382,-227.031 382,-208.031 204,-208.031"/>
<text text-anchor="start" x="207" y="-214.131" font-family="Helvetica,sans-Serif" font-size="11.00" fill="#000000">...</text>
<polygon fill="#ffffff" stroke="transparent" points="204,-189.031 204,-208.031 271,-208.031 271,-189.031 204,-189.031"/>
<polygon fill="none" stroke="#000000" points="204,-189.031 204,-208.031 271,-208.031 271,-189.031 204,-189.031"/>
<text text-anchor="start" x="207" y="-195.131" font-family="Helvetica,sans-Serif" font-size="11.00" fill="#000000">&lt; 1</text>
<polygon fill="#ffffff" stroke="transparent" points="271,-189.031 271,-208.031 332,-208.031 332,-189.031 271,-189.031"/>
<polygon fill="none" stroke="#000000" points="271,-189.031 271,-208.031 332,-208.031 332,-189.031 271,-189.031"/>
<text text-anchor="start" x="296.6105" y="-195.131" font-family="Helvetica,sans-Serif" font-size="11.00" fill="#000000">0 rows</text>
<polygon fill="#ffffff" stroke="transparent" points="332,-189.031 332,-208.031 382,-208.031 382,-189.031 332,-189.031"/>
<polygon fill="none" stroke="#000000" points="332,-189.031 332,-208.031 382,-208.031 382,-189.031 332,-189.031"/>
<text text-anchor="start" x="357.2904" y="-195.131" font-family="Helvetica,sans-Serif" font-size="11.00" fill="#000000">17 &gt;</text>
</a>
</g>
</g>
<!-- c_settings&#45;&gt;database_meta_data -->
<g id="edge15" class="edge">
<title>c_settings:w&#45;&gt;database_meta_data:e</title>
<path fill="none" stroke="#000000" d="M417.6464,-295.5686C397.2178,-278.3286 418.911,-217.031 382,-217.031"/>
<polygon fill="#000000" stroke="#000000" points="423.8853,-297.5782 430.3962,-303.4577 427.6926,-298.8046 431.5,-300.031 431.5,-300.031 431.5,-300.031 427.6926,-298.8046 432.6038,-296.6044 423.8853,-297.5782 423.8853,-297.5782"/>
<ellipse fill="none" stroke="#000000" cx="420.8394" cy="-296.5971" rx="3.2" ry="3.2"/>
</g>
<!-- c_cohort_details -->
<g id="node6" class="node">
<title>c_cohort_details</title>
<g id="a_node6"><a xlink:href="../../tables/c_cohort_details.html" xlink:title="c_cohort_details" target="_top">
<polygon fill="#ffffff" stroke="transparent" points="8,-247.531 8,-308.531 155,-308.531 155,-247.531 8,-247.531"/>
<polygon fill="#f5f5f5" stroke="transparent" points="8.5,-285.031 8.5,-308.031 155.5,-308.031 155.5,-285.031 8.5,-285.031"/>
<polygon fill="none" stroke="#000000" points="8.5,-285.031 8.5,-308.031 155.5,-308.031 155.5,-285.031 8.5,-285.031"/>
<text text-anchor="start" x="13.5" y="-293.631" font-family="Helvetica,sans-Serif" font-weight="bold" font-size="11.00" fill="#000000">c_cohort_details</text>
<text text-anchor="start" x="121.0219" y="-293.131" font-family="Helvetica,sans-Serif" font-size="11.00" fill="#000000">[table]</text>
<polygon fill="none" stroke="#000000" points="8.5,-266.031 8.5,-285.031 155.5,-285.031 155.5,-266.031 8.5,-266.031"/>
<text text-anchor="start" x="11.5" y="-272.131" font-family="Helvetica,sans-Serif" font-size="11.00" fill="#000000">...</text>
<polygon fill="#ffffff" stroke="transparent" points="8.5,-247.031 8.5,-266.031 62.5,-266.031 62.5,-247.031 8.5,-247.031"/>
<polygon fill="none" stroke="#000000" points="8.5,-247.031 8.5,-266.031 62.5,-266.031 62.5,-247.031 8.5,-247.031"/>
<text text-anchor="start" x="11.5" y="-253.131" font-family="Helvetica,sans-Serif" font-size="11.00" fill="#000000">&lt; 2</text>
<polygon fill="#ffffff" stroke="transparent" points="62.5,-247.031 62.5,-266.031 117.5,-266.031 117.5,-247.031 62.5,-247.031"/>
<polygon fill="none" stroke="#000000" points="62.5,-247.031 62.5,-266.031 117.5,-266.031 117.5,-247.031 62.5,-247.031"/>
<text text-anchor="start" x="82.1105" y="-253.131" font-family="Helvetica,sans-Serif" font-size="11.00" fill="#000000">0 rows</text>
<polygon fill="#ffffff" stroke="transparent" points="117.5,-247.031 117.5,-266.031 155.5,-266.031 155.5,-247.031 117.5,-247.031"/>
<polygon fill="none" stroke="#000000" points="117.5,-247.031 117.5,-266.031 155.5,-266.031 155.5,-247.031 117.5,-247.031"/>
<text text-anchor="start" x="136.9053" y="-253.131" font-family="Helvetica,sans-Serif" font-size="11.00" fill="#000000">3 &gt;</text>
</a>
</g>
</g>
<!-- c_settings&#45;&gt;c_cohort_details -->
<g id="edge14" class="edge">
<title>c_settings:w&#45;&gt;c_cohort_details:e</title>
<path fill="none" stroke="#000000" d="M416.9624,-300.0357C323.865,-300.0848 294.6961,-300.2343 196,-285.031 177.6756,-282.2083 174.0406,-275.031 155.5,-275.031"/>
<polygon fill="#000000" stroke="#000000" points="423.5,-300.0337 431.5012,-303.631 427.5,-300.0324 431.5,-300.031 431.5,-300.031 431.5,-300.031 427.5,-300.0324 431.4988,-296.431 423.5,-300.0337 423.5,-300.0337"/>
<ellipse fill="none" stroke="#000000" cx="420.3" cy="-300.0347" rx="3.2" ry="3.2"/>
</g>
<!-- c_settings&#45;&gt;c_cohort_details -->
<g id="edge16" class="edge">
<title>c_settings:w&#45;&gt;c_cohort_details:e</title>
<path fill="none" stroke="#000000" d="M416.8571,-278.0163C306.1568,-277.79 273.1424,-275.031 155.5,-275.031"/>
<polygon fill="#000000" stroke="#000000" points="423.5,-278.0229 431.4964,-281.631 427.5,-278.027 431.5,-278.031 431.5,-278.031 431.5,-278.031 427.5,-278.027 431.5036,-274.431 423.5,-278.0229 423.5,-278.0229"/>
<ellipse fill="none" stroke="#000000" cx="420.3" cy="-278.0197" rx="3.2" ry="3.2"/>
</g>
<!-- c_covariates_continuous -->
<g id="node4" class="node">
<title>c_covariates_continuous</title>
<g id="a_node4"><a xlink:href="../../tables/c_covariates_continuous.html" xlink:title="c_covariates_continuous" target="_top">
<polygon fill="#ffffff" stroke="transparent" points="729,-102.531 729,-163.531 932,-163.531 932,-102.531 729,-102.531"/>
<polygon fill="#f5f5f5" stroke="transparent" points="729.5,-140.031 729.5,-163.031 932.5,-163.031 932.5,-140.031 729.5,-140.031"/>
<polygon fill="none" stroke="#000000" points="729.5,-140.031 729.5,-163.031 932.5,-163.031 932.5,-140.031 729.5,-140.031"/>
<text text-anchor="start" x="734.5" y="-148.631" font-family="Helvetica,sans-Serif" font-weight="bold" font-size="11.00" fill="#000000">c_covariates_continuous</text>
<text text-anchor="start" x="898.0219" y="-148.131" font-family="Helvetica,sans-Serif" font-size="11.00" fill="#000000">[table]</text>
<polygon fill="none" stroke="#000000" points="729.5,-121.031 729.5,-140.031 932.5,-140.031 932.5,-121.031 729.5,-121.031"/>
<text text-anchor="start" x="732.5" y="-127.131" font-family="Helvetica,sans-Serif" font-size="11.00" fill="#000000">...</text>
<polygon fill="#ffffff" stroke="transparent" points="729.5,-102.031 729.5,-121.031 816.5,-121.031 816.5,-102.031 729.5,-102.031"/>
<polygon fill="none" stroke="#000000" points="729.5,-102.031 729.5,-121.031 816.5,-121.031 816.5,-102.031 729.5,-102.031"/>
<text text-anchor="start" x="732.5" y="-108.131" font-family="Helvetica,sans-Serif" font-size="11.00" fill="#000000">&lt; 6</text>
<polygon fill="#ffffff" stroke="transparent" points="816.5,-102.031 816.5,-121.031 887.5,-121.031 887.5,-102.031 816.5,-102.031"/>
<polygon fill="none" stroke="#000000" points="816.5,-102.031 816.5,-121.031 887.5,-121.031 887.5,-102.031 816.5,-102.031"/>
<text text-anchor="start" x="852.1105" y="-108.131" font-family="Helvetica,sans-Serif" font-size="11.00" fill="#000000">0 rows</text>
<polygon fill="#ffffff" stroke="transparent" points="887.5,-102.031 887.5,-121.031 932.5,-121.031 932.5,-102.031 887.5,-102.031"/>
<polygon fill="none" stroke="#000000" points="887.5,-102.031 887.5,-121.031 932.5,-121.031 932.5,-102.031 887.5,-102.031"/>
<text text-anchor="start" x="923.3862" y="-108.131" font-family="Helvetica,sans-Serif" font-size="11.00" fill="#000000"> &#160;</text>
</a>
</g>
</g>
<!-- c_covariates_continuous&#45;&gt;c_covariate_ref -->
<g id="edge8" class="edge">
<title>c_covariates_continuous:w&#45;&gt;c_covariate_ref:e</title>
<path fill="none" stroke="#000000" d="M715.1274,-131.2079C674.5729,-138.2052 665.7585,-174.031 617.5,-174.031"/>
<polygon fill="#000000" stroke="#000000" points="721.5267,-130.684 729.7938,-133.619 725.5133,-130.3575 729.5,-130.031 729.5,-130.031 729.5,-130.031 725.5133,-130.3575 729.2062,-126.443 721.5267,-130.684 721.5267,-130.684"/>
<ellipse fill="none" stroke="#000000" cx="718.3374" cy="-130.9452" rx="3.2" ry="3.2"/>
</g>
<!-- c_covariates_continuous&#45;&gt;c_covariate_ref -->
<g id="edge9" class="edge">
<title>c_covariates_continuous:w&#45;&gt;c_covariate_ref:e</title>
<path fill="none" stroke="#000000" d="M714.949,-130.6895C676.1578,-134.35 662.9778,-152.031 617.5,-152.031"/>
<polygon fill="#000000" stroke="#000000" points="721.5082,-130.3927 729.6628,-133.6274 725.5041,-130.2119 729.5,-130.031 729.5,-130.031 729.5,-130.031 725.5041,-130.2119 729.3372,-126.4347 721.5082,-130.3927 721.5082,-130.3927"/>
<ellipse fill="none" stroke="#000000" cx="718.3114" cy="-130.5374" rx="3.2" ry="3.2"/>
</g>
<!-- c_covariates_continuous&#45;&gt;c_covariate_ref -->
<g id="edge12" class="edge">
<title>c_covariates_continuous:w&#45;&gt;c_covariate_ref:e</title>
<path fill="none" stroke="#000000" d="M714.9083,-130.031C676.6819,-130.031 662.0278,-130.031 617.5,-130.031"/>
<polygon fill="#000000" stroke="#000000" points="721.5,-130.0311 729.5,-133.631 725.5,-130.0311 729.5,-130.031 729.5,-130.031 729.5,-130.031 725.5,-130.0311 729.5,-126.431 721.5,-130.0311 721.5,-130.0311"/>
<ellipse fill="none" stroke="#000000" cx="718.3" cy="-130.0311" rx="3.2" ry="3.2"/>
</g>
<!-- c_covariates_continuous&#45;&gt;c_settings -->
<g id="edge10" class="edge">
<title>c_covariates_continuous:w&#45;&gt;c_settings:e</title>
<path fill="none" stroke="#000000" d="M715.2633,-132.7006C701.0028,-139.1355 698.0686,-156.3581 687,-175.031 657.2218,-225.2673 704.8988,-300.031 646.5,-300.031"/>
<polygon fill="#000000" stroke="#000000" points="721.637,-131.5055 730.1635,-133.5694 725.5685,-130.7683 729.5,-130.031 729.5,-130.031 729.5,-130.031 725.5685,-130.7683 728.8365,-126.4927 721.637,-131.5055 721.637,-131.5055"/>
<ellipse fill="none" stroke="#000000" cx="718.4919" cy="-132.0952" rx="3.2" ry="3.2"/>
</g>
<!-- c_covariates_continuous&#45;&gt;c_settings -->
<g id="edge13" class="edge">
<title>c_covariates_continuous:w&#45;&gt;c_settings:e</title>
<path fill="none" stroke="#000000" d="M715.339,-132.747C701.242,-139.2823 698.6357,-156.7061 687,-175.031 660.6327,-216.5566 695.6895,-278.031 646.5,-278.031"/>
<polygon fill="#000000" stroke="#000000" points="721.6432,-131.538 730.1781,-133.5666 725.5716,-130.7845 729.5,-130.031 729.5,-130.031 729.5,-130.031 725.5716,-130.7845 728.8219,-126.4955 721.6432,-131.538 721.6432,-131.538"/>
<ellipse fill="none" stroke="#000000" cx="718.5005" cy="-132.1407" rx="3.2" ry="3.2"/>
</g>
<!-- c_covariates_continuous&#45;&gt;database_meta_data -->
<g id="edge11" class="edge">
<title>c_covariates_continuous:w&#45;&gt;database_meta_data:e</title>
<path fill="none" stroke="#000000" d="M714.9461,-127.8217C688.0266,-118.5941 688.9175,-83.0562 654,-71.031 556.9285,-37.6009 504.8236,-9.0202 423,-71.031 369.2842,-111.7401 449.3989,-217.031 382,-217.031"/>
<polygon fill="#000000" stroke="#000000" points="721.5906,-128.8303 728.9597,-133.5903 725.5453,-129.4307 729.5,-130.031 729.5,-130.031 729.5,-130.031 725.5453,-129.4307 730.0403,-126.4718 721.5906,-128.8303 721.5906,-128.8303"/>
<ellipse fill="none" stroke="#000000" cx="718.4269" cy="-128.35" rx="3.2" ry="3.2"/>
</g>
<!-- database_meta_data&#45;&gt;c_cohort_details -->
<g id="edge17" class="edge">
<title>database_meta_data:w&#45;&gt;c_cohort_details:e</title>
<path fill="none" stroke="#000000" d="M193.6466,-219.5232C174.2564,-230.6248 184.9023,-275.031 155.5,-275.031"/>
<polygon fill="#000000" stroke="#000000" points="202.2861,-213.3293 204.1584,-221.1072 202.6028,-221.4816 200.7305,-213.7038 202.2861,-213.3293"/>
<polyline fill="none" stroke="#000000" points="204,-217.031 200.1111,-217.9672 "/>
<ellipse fill="none" stroke="#000000" cx="196.9999" cy="-218.7161" rx="3.2" ry="3.2"/>
</g>
</g>
</svg>
