<?xml version="1.0" encoding="UTF-8" standalone="no"?>
<!DOCTYPE svg PUBLIC "-//W3C//DTD SVG 1.1//EN"
 "http://www.w3.org/Graphics/SVG/1.1/DTD/svg11.dtd">
<!-- Generated by graphviz version 2.40.1 (20161225.0304)
 -->
<!-- Title: twoDegreesRelationshipsDiagram Pages: 1 -->
<svg width="1265pt" height="1266pt"
 viewBox="0.00 0.00 1265.00 1265.62" xmlns="http://www.w3.org/2000/svg" xmlns:xlink="http://www.w3.org/1999/xlink">
<g id="graph0" class="graph" transform="scale(1 1) rotate(0) translate(4 1261.6236)">
<title>twoDegreesRelationshipsDiagram</title>
<polygon fill="#ffffff" stroke="transparent" points="-4,4 -4,-1261.6236 1261,-1261.6236 1261,4 -4,4"/>
<text text-anchor="middle" x="72.4936" y="-7.3" font-family="Helvetica,sans-Serif" font-size="11.00" fill="#000000">Generated by SchemaSpy</text>
<!-- c_cohort_details -->
<g id="node1" class="node">
<title>c_cohort_details</title>
<g id="a_node1"><a xlink:href="../../tables/c_cohort_details.html" xlink:title="c_cohort_details" target="_top">
<polygon fill="#ffffff" stroke="transparent" points="232,-733.1236 232,-889.1236 446,-889.1236 446,-733.1236 232,-733.1236"/>
<polygon fill="#f5f5f5" stroke="transparent" points="234,-864.1236 234,-887.1236 444,-887.1236 444,-864.1236 234,-864.1236"/>
<polygon fill="none" stroke="#000000" points="234,-864.1236 234,-887.1236 444,-887.1236 444,-864.1236 234,-864.1236"/>
<text text-anchor="start" x="239" y="-872.7236" font-family="Helvetica,sans-Serif" font-weight="bold" font-size="11.00" fill="#000000">c_cohort_details</text>
<text text-anchor="start" x="409.0437" y="-872.2236" font-family="Helvetica,sans-Serif" font-size="11.00" fill="#000000">[table]</text>
<polygon fill="none" stroke="#000000" points="234,-842.1236 234,-864.1236 382,-864.1236 382,-842.1236 234,-842.1236"/>
<text text-anchor="start" x="254" y="-849.2236" font-family="Helvetica,sans-Serif" font-size="11.00" fill="#000000">cohort_type</text>
<polygon fill="none" stroke="#000000" points="382,-842.1236 382,-864.1236 444,-864.1236 444,-842.1236 382,-842.1236"/>
<text text-anchor="start" x="384.878" y="-849.8236" font-family="Helvetica,sans-Serif" font-size="11.00" fill="#000000">unknown[0]</text>
<polygon fill="none" stroke="#000000" points="234,-820.1236 234,-842.1236 382,-842.1236 382,-820.1236 234,-820.1236"/>
<image xlink:href="../../images/primaryKeys.png" width="11px" height="12px" preserveAspectRatio="xMinYMin meet" x="239" y="-837.124"/>
<text text-anchor="start" x="254" y="-827.2236" font-family="Helvetica,sans-Serif" font-size="11.00" fill="#000000">database_id</text>
<polygon fill="none" stroke="#000000" points="382,-820.1236 382,-842.1236 444,-842.1236 444,-820.1236 382,-820.1236"/>
<text text-anchor="start" x="384.878" y="-827.8236" font-family="Helvetica,sans-Serif" font-size="11.00" fill="#000000">unknown[0]</text>
<polygon fill="none" stroke="#000000" points="234,-798.1236 234,-820.1236 382,-820.1236 382,-798.1236 234,-798.1236"/>
<image xlink:href="../../images/foreignKeys.png" width="11px" height="12px" preserveAspectRatio="xMinYMin meet" x="239" y="-815.124"/>
<text text-anchor="start" x="254" y="-805.2236" font-family="Helvetica,sans-Serif" font-size="11.00" fill="#000000">outcome_cohort_id</text>
<polygon fill="none" stroke="#000000" points="382,-798.1236 382,-820.1236 444,-820.1236 444,-798.1236 382,-798.1236"/>
<text text-anchor="start" x="384.878" y="-805.8236" font-family="Helvetica,sans-Serif" font-size="11.00" fill="#000000">unknown[0]</text>
<polygon fill="none" stroke="#000000" points="234,-776.1236 234,-798.1236 382,-798.1236 382,-776.1236 234,-776.1236"/>
<image xlink:href="../../images/primaryKeys.png" width="11px" height="12px" preserveAspectRatio="xMinYMin meet" x="239" y="-793.124"/>
<text text-anchor="start" x="254" y="-783.2236" font-family="Helvetica,sans-Serif" font-size="11.00" fill="#000000">setting_id</text>
<polygon fill="none" stroke="#000000" points="382,-776.1236 382,-798.1236 444,-798.1236 444,-776.1236 382,-776.1236"/>
<text text-anchor="start" x="384.878" y="-783.8236" font-family="Helvetica,sans-Serif" font-size="11.00" fill="#000000">unknown[0]</text>
<polygon fill="none" stroke="#000000" points="234,-754.1236 234,-776.1236 382,-776.1236 382,-754.1236 234,-754.1236"/>
<image xlink:href="../../images/foreignKeys.png" width="11px" height="12px" preserveAspectRatio="xMinYMin meet" x="239" y="-771.124"/>
<text text-anchor="start" x="254" y="-761.2236" font-family="Helvetica,sans-Serif" font-size="11.00" fill="#000000">target_cohort_id</text>
<polygon fill="none" stroke="#000000" points="382,-754.1236 382,-776.1236 444,-776.1236 444,-754.1236 382,-754.1236"/>
<text text-anchor="start" x="384.878" y="-761.8236" font-family="Helvetica,sans-Serif" font-size="11.00" fill="#000000">unknown[0]</text>
<polygon fill="#ffffff" stroke="transparent" points="234,-735.1236 234,-754.1236 299,-754.1236 299,-735.1236 234,-735.1236"/>
<polygon fill="none" stroke="#000000" points="234,-735.1236 234,-754.1236 299,-754.1236 299,-735.1236 234,-735.1236"/>
<text text-anchor="start" x="237" y="-741.2236" font-family="Helvetica,sans-Serif" font-size="11.00" fill="#000000">&lt; 2</text>
<polygon fill="#ffffff" stroke="transparent" points="299,-735.1236 299,-754.1236 382,-754.1236 382,-735.1236 299,-735.1236"/>
<polygon fill="none" stroke="#000000" points="299,-735.1236 299,-754.1236 382,-754.1236 382,-735.1236 299,-735.1236"/>
<text text-anchor="start" x="346.6105" y="-741.2236" font-family="Helvetica,sans-Serif" font-size="11.00" fill="#000000">0 rows</text>
<polygon fill="#ffffff" stroke="transparent" points="382,-735.1236 382,-754.1236 444,-754.1236 444,-735.1236 382,-735.1236"/>
<polygon fill="none" stroke="#000000" points="382,-735.1236 382,-754.1236 444,-754.1236 444,-735.1236 382,-735.1236"/>
<text text-anchor="start" x="425.4053" y="-741.2236" font-family="Helvetica,sans-Serif" font-size="11.00" fill="#000000">3 &gt;</text>
<polygon fill="none" stroke="#000000" stroke-width="2" points="233,-734.1236 233,-888.1236 445,-888.1236 445,-734.1236 233,-734.1236"/>
</a>
</g>
</g>
<!-- cg_cohort_definition -->
<g id="node2" class="node">
<title>cg_cohort_definition</title>
<g id="a_node2"><a xlink:href="../../tables/cg_cohort_definition.html" xlink:title="cg_cohort_definition" target="_top">
<polygon fill="#ffffff" stroke="transparent" points="8,-295.6236 8,-378.6236 183,-378.6236 183,-295.6236 8,-295.6236"/>
<polygon fill="#f5f5f5" stroke="transparent" points="8.5,-355.1236 8.5,-378.1236 183.5,-378.1236 183.5,-355.1236 8.5,-355.1236"/>
<polygon fill="none" stroke="#000000" points="8.5,-355.1236 8.5,-378.1236 183.5,-378.1236 183.5,-355.1236 8.5,-355.1236"/>
<text text-anchor="start" x="13.5" y="-363.7236" font-family="Helvetica,sans-Serif" font-weight="bold" font-size="11.00" fill="#000000">cg_cohort_definition</text>
<text text-anchor="start" x="149.0219" y="-363.2236" font-family="Helvetica,sans-Serif" font-size="11.00" fill="#000000">[table]</text>
<polygon fill="none" stroke="#000000" points="8.5,-333.1236 8.5,-355.1236 183.5,-355.1236 183.5,-333.1236 8.5,-333.1236"/>
<image xlink:href="../../images/primaryKeys.png" width="11px" height="12px" preserveAspectRatio="xMinYMin meet" x="13.5" y="-350.124"/>
<text text-anchor="start" x="37.5" y="-340.2236" font-family="Helvetica,sans-Serif" font-size="11.00" fill="#000000">cohort_definition_id</text>
<polygon fill="none" stroke="#000000" points="8.5,-314.1236 8.5,-333.1236 183.5,-333.1236 183.5,-314.1236 8.5,-314.1236"/>
<text text-anchor="start" x="11.5" y="-320.2236" font-family="Helvetica,sans-Serif" font-size="11.00" fill="#000000">...</text>
<polygon fill="#ffffff" stroke="transparent" points="8.5,-295.1236 8.5,-314.1236 69.5,-314.1236 69.5,-295.1236 8.5,-295.1236"/>
<polygon fill="none" stroke="#000000" points="8.5,-295.1236 8.5,-314.1236 69.5,-314.1236 69.5,-295.1236 8.5,-295.1236"/>
<text text-anchor="start" x="11.5" y="-301.2236" font-family="Helvetica,sans-Serif" font-size="11.00" fill="#000000"> &#160;</text>
<polygon fill="#ffffff" stroke="transparent" points="69.5,-295.1236 69.5,-314.1236 131.5,-314.1236 131.5,-295.1236 69.5,-295.1236"/>
<polygon fill="none" stroke="#000000" points="69.5,-295.1236 69.5,-314.1236 131.5,-314.1236 131.5,-295.1236 69.5,-295.1236"/>
<text text-anchor="start" x="96.1105" y="-301.2236" font-family="Helvetica,sans-Serif" font-size="11.00" fill="#000000">0 rows</text>
<polygon fill="#ffffff" stroke="transparent" points="131.5,-295.1236 131.5,-314.1236 183.5,-314.1236 183.5,-295.1236 131.5,-295.1236"/>
<polygon fill="none" stroke="#000000" points="131.5,-295.1236 131.5,-314.1236 183.5,-314.1236 183.5,-295.1236 131.5,-295.1236"/>
<text text-anchor="start" x="158.7904" y="-301.2236" font-family="Helvetica,sans-Serif" font-size="11.00" fill="#000000">15 &gt;</text>
</a>
</g>
</g>
<!-- c_cohort_details&#45;&gt;cg_cohort_definition -->
<g id="edge1" class="edge">
<title>c_cohort_details:w&#45;&gt;cg_cohort_definition:e</title>
<path fill="none" stroke="#000000" d="M219.6597,-805.3806C145.9312,-761.3737 281.9597,-344.1236 183.5,-344.1236"/>
<polygon fill="#000000" stroke="#000000" points="226.2593,-807.1031 233.0908,-812.6069 230.1297,-808.1133 234,-809.1236 234,-809.1236 234,-809.1236 230.1297,-808.1133 234.9092,-805.6403 226.2593,-807.1031 226.2593,-807.1031"/>
<ellipse fill="none" stroke="#000000" cx="223.1631" cy="-806.2949" rx="3.2" ry="3.2"/>
</g>
<!-- c_cohort_details&#45;&gt;cg_cohort_definition -->
<g id="edge2" class="edge">
<title>c_cohort_details:w&#45;&gt;cg_cohort_definition:e</title>
<path fill="none" stroke="#000000" d="M219.7348,-760.9568C155.143,-717.233 272.2052,-344.1236 183.5,-344.1236"/>
<polygon fill="#000000" stroke="#000000" points="226.3209,-762.8805 232.9906,-768.5792 230.1604,-764.002 234,-765.1236 234,-765.1236 234,-765.1236 230.1604,-764.002 235.0094,-761.668 226.3209,-762.8805 226.3209,-762.8805"/>
<ellipse fill="none" stroke="#000000" cx="223.2492" cy="-761.9833" rx="3.2" ry="3.2"/>
</g>
<!-- c_covariates -->
<g id="node3" class="node">
<title>c_covariates</title>
<g id="a_node3"><a xlink:href="../../tables/c_covariates.html" xlink:title="c_covariates" target="_top">
<polygon fill="#ffffff" stroke="transparent" points="1086.5,-1192.6236 1086.5,-1253.6236 1208.5,-1253.6236 1208.5,-1192.6236 1086.5,-1192.6236"/>
<polygon fill="#f5f5f5" stroke="transparent" points="1086.5,-1230.1236 1086.5,-1253.1236 1208.5,-1253.1236 1208.5,-1230.1236 1086.5,-1230.1236"/>
<polygon fill="none" stroke="#000000" points="1086.5,-1230.1236 1086.5,-1253.1236 1208.5,-1253.1236 1208.5,-1230.1236 1086.5,-1230.1236"/>
<text text-anchor="start" x="1091.5" y="-1238.7236" font-family="Helvetica,sans-Serif" font-weight="bold" font-size="11.00" fill="#000000">c_covariates</text>
<text text-anchor="start" x="1174.0219" y="-1238.2236" font-family="Helvetica,sans-Serif" font-size="11.00" fill="#000000">[table]</text>
<polygon fill="none" stroke="#000000" points="1086.5,-1211.1236 1086.5,-1230.1236 1208.5,-1230.1236 1208.5,-1211.1236 1086.5,-1211.1236"/>
<text text-anchor="start" x="1089.5" y="-1217.2236" font-family="Helvetica,sans-Serif" font-size="11.00" fill="#000000">...</text>
<polygon fill="#ffffff" stroke="transparent" points="1086.5,-1192.1236 1086.5,-1211.1236 1132.5,-1211.1236 1132.5,-1192.1236 1086.5,-1192.1236"/>
<polygon fill="none" stroke="#000000" points="1086.5,-1192.1236 1086.5,-1211.1236 1132.5,-1211.1236 1132.5,-1192.1236 1086.5,-1192.1236"/>
<text text-anchor="start" x="1089.5" y="-1198.2236" font-family="Helvetica,sans-Serif" font-size="11.00" fill="#000000">&lt; 7</text>
<polygon fill="#ffffff" stroke="transparent" points="1132.5,-1192.1236 1132.5,-1211.1236 1183.5,-1211.1236 1183.5,-1192.1236 1132.5,-1192.1236"/>
<polygon fill="none" stroke="#000000" points="1132.5,-1192.1236 1132.5,-1211.1236 1183.5,-1211.1236 1183.5,-1192.1236 1132.5,-1192.1236"/>
<text text-anchor="start" x="1148.1105" y="-1198.2236" font-family="Helvetica,sans-Serif" font-size="11.00" fill="#000000">0 rows</text>
<polygon fill="#ffffff" stroke="transparent" points="1183.5,-1192.1236 1183.5,-1211.1236 1208.5,-1211.1236 1208.5,-1192.1236 1183.5,-1192.1236"/>
<polygon fill="none" stroke="#000000" points="1183.5,-1192.1236 1183.5,-1211.1236 1208.5,-1211.1236 1208.5,-1192.1236 1183.5,-1192.1236"/>
<text text-anchor="start" x="1199.3862" y="-1198.2236" font-family="Helvetica,sans-Serif" font-size="11.00" fill="#000000"> &#160;</text>
</a>
</g>
</g>
<!-- c_settings -->
<g id="node4" class="node">
<title>c_settings</title>
<g id="a_node4"><a xlink:href="../../tables/c_settings.html" xlink:title="c_settings" target="_top">
<polygon fill="#ffffff" stroke="transparent" points="834,-1189.6236 834,-1250.6236 941,-1250.6236 941,-1189.6236 834,-1189.6236"/>
<polygon fill="#f5f5f5" stroke="transparent" points="834.5,-1227.1236 834.5,-1250.1236 941.5,-1250.1236 941.5,-1227.1236 834.5,-1227.1236"/>
<polygon fill="none" stroke="#000000" points="834.5,-1227.1236 834.5,-1250.1236 941.5,-1250.1236 941.5,-1227.1236 834.5,-1227.1236"/>
<text text-anchor="start" x="839.5" y="-1235.7236" font-family="Helvetica,sans-Serif" font-weight="bold" font-size="11.00" fill="#000000">c_settings</text>
<text text-anchor="start" x="907.0219" y="-1235.2236" font-family="Helvetica,sans-Serif" font-size="11.00" fill="#000000">[table]</text>
<polygon fill="none" stroke="#000000" points="834.5,-1208.1236 834.5,-1227.1236 941.5,-1227.1236 941.5,-1208.1236 834.5,-1208.1236"/>
<text text-anchor="start" x="837.5" y="-1214.2236" font-family="Helvetica,sans-Serif" font-size="11.00" fill="#000000">...</text>
<polygon fill="#ffffff" stroke="transparent" points="834.5,-1189.1236 834.5,-1208.1236 868.5,-1208.1236 868.5,-1189.1236 834.5,-1189.1236"/>
<polygon fill="none" stroke="#000000" points="834.5,-1189.1236 834.5,-1208.1236 868.5,-1208.1236 868.5,-1189.1236 834.5,-1189.1236"/>
<text text-anchor="start" x="837.5" y="-1195.2236" font-family="Helvetica,sans-Serif" font-size="11.00" fill="#000000">&lt; 3</text>
<polygon fill="#ffffff" stroke="transparent" points="868.5,-1189.1236 868.5,-1208.1236 913.5,-1208.1236 913.5,-1189.1236 868.5,-1189.1236"/>
<polygon fill="none" stroke="#000000" points="868.5,-1189.1236 868.5,-1208.1236 913.5,-1208.1236 913.5,-1189.1236 868.5,-1189.1236"/>
<text text-anchor="start" x="878.1105" y="-1195.2236" font-family="Helvetica,sans-Serif" font-size="11.00" fill="#000000">0 rows</text>
<polygon fill="#ffffff" stroke="transparent" points="913.5,-1189.1236 913.5,-1208.1236 941.5,-1208.1236 941.5,-1189.1236 913.5,-1189.1236"/>
<polygon fill="none" stroke="#000000" points="913.5,-1189.1236 913.5,-1208.1236 941.5,-1208.1236 941.5,-1189.1236 913.5,-1189.1236"/>
<text text-anchor="start" x="922.9053" y="-1195.2236" font-family="Helvetica,sans-Serif" font-size="11.00" fill="#000000">6 &gt;</text>
</a>
</g>
</g>
<!-- c_covariates&#45;&gt;c_settings -->
<g id="edge3" class="edge">
<title>c_covariates:w&#45;&gt;c_settings:e</title>
<path fill="none" stroke="#000000" d="M1072.0593,-1220.1236C1029.9372,-1220.1236 984.5663,-1220.1236 949.3504,-1220.1236"/>
<polygon fill="#000000" stroke="#000000" points="1078.5,-1220.1236 1086.5,-1223.7236 1082.5,-1220.1236 1086.5,-1220.1236 1086.5,-1220.1236 1086.5,-1220.1236 1082.5,-1220.1236 1086.5,-1216.5236 1078.5,-1220.1236 1078.5,-1220.1236"/>
<ellipse fill="none" stroke="#000000" cx="1075.3" cy="-1220.1236" rx="3.2" ry="3.2"/>
</g>
<!-- c_covariates&#45;&gt;c_settings -->
<g id="edge4" class="edge">
<title>c_covariates:w&#45;&gt;c_settings:e</title>
<path fill="none" stroke="#000000" d="M1072.2788,-1217.503C1032.5914,-1207.6333 933.7967,-1173.8268 922.5,-1185.1236"/>
<polygon fill="#000000" stroke="#000000" points="1078.6325,-1218.6738 1085.8476,-1223.664 1082.5662,-1219.3987 1086.5,-1220.1236 1086.5,-1220.1236 1086.5,-1220.1236 1082.5662,-1219.3987 1087.1524,-1216.5832 1078.6325,-1218.6738 1078.6325,-1218.6738"/>
<ellipse fill="none" stroke="#000000" cx="1075.4854" cy="-1218.0938" rx="3.2" ry="3.2"/>
</g>
<!-- c_covariates&#45;&gt;c_settings -->
<g id="edge5" class="edge">
<title>c_covariates:w&#45;&gt;c_settings:e</title>
<path fill="none" stroke="#000000" d="M1072.0593,-1220.1236C1029.9372,-1220.1236 984.5663,-1220.1236 949.3504,-1220.1236"/>
<polygon fill="#000000" stroke="#000000" points="1078.5,-1220.1236 1086.5,-1223.7236 1082.5,-1220.1236 1086.5,-1220.1236 1086.5,-1220.1236 1086.5,-1220.1236 1082.5,-1220.1236 1086.5,-1216.5236 1078.5,-1220.1236 1078.5,-1220.1236"/>
<ellipse fill="none" stroke="#000000" cx="1075.3" cy="-1220.1236" rx="3.2" ry="3.2"/>
</g>
<!-- c_covariates&#45;&gt;c_settings -->
<g id="edge6" class="edge">
<title>c_covariates:w&#45;&gt;c_settings:e</title>
<path fill="none" stroke="#000000" d="M1072.2788,-1217.503C1032.5914,-1207.6333 933.7967,-1173.8268 922.5,-1185.1236"/>
<polygon fill="#000000" stroke="#000000" points="1078.6325,-1218.6738 1085.8476,-1223.664 1082.5662,-1219.3987 1086.5,-1220.1236 1086.5,-1220.1236 1086.5,-1220.1236 1082.5662,-1219.3987 1087.1524,-1216.5832 1078.6325,-1218.6738 1078.6325,-1218.6738"/>
<ellipse fill="none" stroke="#000000" cx="1075.4854" cy="-1218.0938" rx="3.2" ry="3.2"/>
</g>
<!-- c_settings&#45;&gt;c_cohort_details -->
<g id="edge13" class="edge">
<title>c_settings:w&#45;&gt;c_cohort_details:e</title>
<path fill="none" stroke="#000000" d="M811.9654,-1199.2918C797.5018,-1193.7921 782.8701,-1187.1067 770,-1179.1236 620.4356,-1086.3502 596.34,-1040.0408 487,-902.1236 464.0813,-873.2148 480.8916,-831.1236 444,-831.1236"/>
<polygon fill="#000000" stroke="#000000" points="818.1845,-1201.5135 824.507,-1207.5952 821.9513,-1202.8593 825.7182,-1204.205 825.7182,-1204.205 825.7182,-1204.205 821.9513,-1202.8593 826.9293,-1200.8149 818.1845,-1201.5135 818.1845,-1201.5135"/>
<ellipse fill="none" stroke="#000000" cx="815.171" cy="-1200.4369" rx="3.2" ry="3.2"/>
</g>
<!-- c_settings&#45;&gt;c_cohort_details -->
<g id="edge15" class="edge">
<title>c_settings:w&#45;&gt;c_cohort_details:e</title>
<path fill="none" stroke="#000000" d="M908.6475,-1180.8245C872.2959,-1179.614 779.6118,-1187.9985 770,-1179.1236 724.6169,-1137.2197 774.6971,-952.0571 737,-903.1236 651.5265,-792.1728 584.0564,-787.1236 444,-787.1236"/>
<polygon fill="#000000" stroke="#000000" points="914.8595,-1182.7523 921.4329,-1188.5618 918.6797,-1183.938 922.5,-1185.1236 922.5,-1185.1236 922.5,-1185.1236 918.6797,-1183.938 923.5671,-1181.6853 914.8595,-1182.7523 914.8595,-1182.7523"/>
<ellipse fill="none" stroke="#000000" cx="911.8033" cy="-1181.8039" rx="3.2" ry="3.2"/>
</g>
<!-- database_meta_data -->
<g id="node6" class="node">
<title>database_meta_data</title>
<g id="a_node6"><a xlink:href="../../tables/database_meta_data.html" xlink:title="database_meta_data" target="_top">
<polygon fill="#ffffff" stroke="transparent" points="523,-584.6236 523,-645.6236 701,-645.6236 701,-584.6236 523,-584.6236"/>
<polygon fill="#f5f5f5" stroke="transparent" points="523,-622.1236 523,-645.1236 701,-645.1236 701,-622.1236 523,-622.1236"/>
<polygon fill="none" stroke="#000000" points="523,-622.1236 523,-645.1236 701,-645.1236 701,-622.1236 523,-622.1236"/>
<text text-anchor="start" x="528" y="-630.7236" font-family="Helvetica,sans-Serif" font-weight="bold" font-size="11.00" fill="#000000">database_meta_data</text>
<text text-anchor="start" x="666.5219" y="-630.2236" font-family="Helvetica,sans-Serif" font-size="11.00" fill="#000000">[table]</text>
<polygon fill="none" stroke="#000000" points="523,-603.1236 523,-622.1236 701,-622.1236 701,-603.1236 523,-603.1236"/>
<text text-anchor="start" x="526" y="-609.2236" font-family="Helvetica,sans-Serif" font-size="11.00" fill="#000000">...</text>
<polygon fill="#ffffff" stroke="transparent" points="523,-584.1236 523,-603.1236 590,-603.1236 590,-584.1236 523,-584.1236"/>
<polygon fill="none" stroke="#000000" points="523,-584.1236 523,-603.1236 590,-603.1236 590,-584.1236 523,-584.1236"/>
<text text-anchor="start" x="526" y="-590.2236" font-family="Helvetica,sans-Serif" font-size="11.00" fill="#000000">&lt; 1</text>
<polygon fill="#ffffff" stroke="transparent" points="590,-584.1236 590,-603.1236 651,-603.1236 651,-584.1236 590,-584.1236"/>
<polygon fill="none" stroke="#000000" points="590,-584.1236 590,-603.1236 651,-603.1236 651,-584.1236 590,-584.1236"/>
<text text-anchor="start" x="615.6105" y="-590.2236" font-family="Helvetica,sans-Serif" font-size="11.00" fill="#000000">0 rows</text>
<polygon fill="#ffffff" stroke="transparent" points="651,-584.1236 651,-603.1236 701,-603.1236 701,-584.1236 651,-584.1236"/>
<polygon fill="none" stroke="#000000" points="651,-584.1236 651,-603.1236 701,-603.1236 701,-584.1236 651,-584.1236"/>
<text text-anchor="start" x="676.2904" y="-590.2236" font-family="Helvetica,sans-Serif" font-size="11.00" fill="#000000">17 &gt;</text>
</a>
</g>
</g>
<!-- c_settings&#45;&gt;database_meta_data -->
<g id="edge14" class="edge">
<title>c_settings:w&#45;&gt;database_meta_data:e</title>
<path fill="none" stroke="#000000" d="M811.6164,-1207.4551C795.7077,-1201.3726 780.5707,-1192.3879 770,-1179.1236 728.6138,-1127.1913 754.9849,-946.0479 737,-882.1236 712.3259,-794.4234 661.5318,-699.5976 632.8697,-649.9547"/>
<polygon fill="#000000" stroke="#000000" points="818.1006,-1209.588 824.5751,-1215.5076 821.9003,-1210.8379 825.7,-1212.0878 825.7,-1212.0878 825.7,-1212.0878 821.9003,-1210.8379 826.8249,-1208.6681 818.1006,-1209.588 818.1006,-1209.588"/>
<ellipse fill="none" stroke="#000000" cx="815.0608" cy="-1208.5881" rx="3.2" ry="3.2"/>
</g>
<!-- c_covariates_continuous -->
<g id="node5" class="node">
<title>c_covariates_continuous</title>
<g id="a_node5"><a xlink:href="../../tables/c_covariates_continuous.html" xlink:title="c_covariates_continuous" target="_top">
<polygon fill="#ffffff" stroke="transparent" points="1046,-1110.6236 1046,-1171.6236 1249,-1171.6236 1249,-1110.6236 1046,-1110.6236"/>
<polygon fill="#f5f5f5" stroke="transparent" points="1046.5,-1148.1236 1046.5,-1171.1236 1249.5,-1171.1236 1249.5,-1148.1236 1046.5,-1148.1236"/>
<polygon fill="none" stroke="#000000" points="1046.5,-1148.1236 1046.5,-1171.1236 1249.5,-1171.1236 1249.5,-1148.1236 1046.5,-1148.1236"/>
<text text-anchor="start" x="1051.5" y="-1156.7236" font-family="Helvetica,sans-Serif" font-weight="bold" font-size="11.00" fill="#000000">c_covariates_continuous</text>
<text text-anchor="start" x="1215.0219" y="-1156.2236" font-family="Helvetica,sans-Serif" font-size="11.00" fill="#000000">[table]</text>
<polygon fill="none" stroke="#000000" points="1046.5,-1129.1236 1046.5,-1148.1236 1249.5,-1148.1236 1249.5,-1129.1236 1046.5,-1129.1236"/>
<text text-anchor="start" x="1049.5" y="-1135.2236" font-family="Helvetica,sans-Serif" font-size="11.00" fill="#000000">...</text>
<polygon fill="#ffffff" stroke="transparent" points="1046.5,-1110.1236 1046.5,-1129.1236 1133.5,-1129.1236 1133.5,-1110.1236 1046.5,-1110.1236"/>
<polygon fill="none" stroke="#000000" points="1046.5,-1110.1236 1046.5,-1129.1236 1133.5,-1129.1236 1133.5,-1110.1236 1046.5,-1110.1236"/>
<text text-anchor="start" x="1049.5" y="-1116.2236" font-family="Helvetica,sans-Serif" font-size="11.00" fill="#000000">&lt; 6</text>
<polygon fill="#ffffff" stroke="transparent" points="1133.5,-1110.1236 1133.5,-1129.1236 1204.5,-1129.1236 1204.5,-1110.1236 1133.5,-1110.1236"/>
<polygon fill="none" stroke="#000000" points="1133.5,-1110.1236 1133.5,-1129.1236 1204.5,-1129.1236 1204.5,-1110.1236 1133.5,-1110.1236"/>
<text text-anchor="start" x="1169.1105" y="-1116.2236" font-family="Helvetica,sans-Serif" font-size="11.00" fill="#000000">0 rows</text>
<polygon fill="#ffffff" stroke="transparent" points="1204.5,-1110.1236 1204.5,-1129.1236 1249.5,-1129.1236 1249.5,-1110.1236 1204.5,-1110.1236"/>
<polygon fill="none" stroke="#000000" points="1204.5,-1110.1236 1204.5,-1129.1236 1249.5,-1129.1236 1249.5,-1110.1236 1204.5,-1110.1236"/>
<text text-anchor="start" x="1240.3862" y="-1116.2236" font-family="Helvetica,sans-Serif" font-size="11.00" fill="#000000"> &#160;</text>
</a>
</g>
</g>
<!-- c_covariates_continuous&#45;&gt;c_settings -->
<g id="edge7" class="edge">
<title>c_covariates_continuous:w&#45;&gt;c_settings:e</title>
<path fill="none" stroke="#000000" d="M1032.492,-1142.344C1022.0188,-1150.5426 1021.6729,-1168.7277 1005,-1179.1236 987.9497,-1189.7547 967.7807,-1198.0726 949.009,-1204.3549"/>
<polygon fill="#000000" stroke="#000000" points="1038.8401,-1140.4314 1047.5385,-1141.5705 1042.6701,-1139.2775 1046.5,-1138.1236 1046.5,-1138.1236 1046.5,-1138.1236 1042.6701,-1139.2775 1045.4615,-1134.6766 1038.8401,-1140.4314 1038.8401,-1140.4314"/>
<ellipse fill="none" stroke="#000000" cx="1035.7761" cy="-1141.3546" rx="3.2" ry="3.2"/>
</g>
<!-- c_covariates_continuous&#45;&gt;c_settings -->
<g id="edge9" class="edge">
<title>c_covariates_continuous:w&#45;&gt;c_settings:e</title>
<path fill="none" stroke="#000000" d="M1032.7066,-1142.7446C1022.6095,-1151.6456 1022.8926,-1171.0048 1005,-1179.1236 988.2609,-1186.719 935.4979,-1172.1257 922.5,-1185.1236"/>
<polygon fill="#000000" stroke="#000000" points="1038.9144,-1140.6649 1047.6436,-1141.5371 1042.7072,-1139.3943 1046.5,-1138.1236 1046.5,-1138.1236 1046.5,-1138.1236 1042.7072,-1139.3943 1045.3564,-1134.71 1038.9144,-1140.6649 1038.9144,-1140.6649"/>
<ellipse fill="none" stroke="#000000" cx="1035.8801" cy="-1141.6815" rx="3.2" ry="3.2"/>
</g>
<!-- c_covariates_continuous&#45;&gt;database_meta_data -->
<g id="edge8" class="edge">
<title>c_covariates_continuous:w&#45;&gt;database_meta_data:e</title>
<path fill="none" stroke="#000000" d="M1031.9422,-1135.3931C1000.4928,-1120.4086 1045.0654,-1047.655 1005,-1015.1236 923.3442,-948.8224 843.7029,-1062.1662 770,-987.1236 718.8231,-935.0165 781.9471,-717.6907 737,-660.1236 729.548,-650.5792 719.8953,-643.0569 709.258,-637.1288"/>
<polygon fill="#000000" stroke="#000000" points="1038.6371,-1136.6488 1045.8363,-1141.6619 1042.5686,-1137.3862 1046.5,-1138.1236 1046.5,-1138.1236 1046.5,-1138.1236 1042.5686,-1137.3862 1047.1637,-1134.5853 1038.6371,-1136.6488 1038.6371,-1136.6488"/>
<ellipse fill="none" stroke="#000000" cx="1035.4919" cy="-1136.0589" rx="3.2" ry="3.2"/>
</g>
<!-- database_meta_data&#45;&gt;c_cohort_details -->
<g id="edge32" class="edge">
<title>database_meta_data:w&#45;&gt;c_cohort_details:e</title>
<path fill="none" stroke="#000000" d="M599.3065,-659.9547C578.3271,-723.2328 529.9539,-831.1236 444,-831.1236"/>
<polygon fill="#000000" stroke="#000000" points="598.5042,-649.3668 606.1213,-651.812 605.6323,-653.3355 598.0151,-650.8902 598.5042,-649.3668"/>
<polyline fill="none" stroke="#000000" points="602.5573,-649.8277 601.3347,-653.6363 "/>
<ellipse fill="none" stroke="#000000" cx="600.3566" cy="-656.6832" rx="3.2" ry="3.2"/>
</g>
<!-- c_dechallenge_rechallenge -->
<g id="node7" class="node">
<title>c_dechallenge_rechallenge</title>
<g id="a_node7"><a xlink:href="../../tables/c_dechallenge_rechallenge.html" xlink:title="c_dechallenge_rechallenge" target="_top">
<polygon fill="#ffffff" stroke="transparent" points="778,-1107.6236 778,-1168.6236 997,-1168.6236 997,-1107.6236 778,-1107.6236"/>
<polygon fill="#f5f5f5" stroke="transparent" points="778.5,-1145.1236 778.5,-1168.1236 997.5,-1168.1236 997.5,-1145.1236 778.5,-1145.1236"/>
<polygon fill="none" stroke="#000000" points="778.5,-1145.1236 778.5,-1168.1236 997.5,-1168.1236 997.5,-1145.1236 778.5,-1145.1236"/>
<text text-anchor="start" x="783.5" y="-1153.7236" font-family="Helvetica,sans-Serif" font-weight="bold" font-size="11.00" fill="#000000">c_dechallenge_rechallenge</text>
<text text-anchor="start" x="963.0219" y="-1153.2236" font-family="Helvetica,sans-Serif" font-size="11.00" fill="#000000">[table]</text>
<polygon fill="none" stroke="#000000" points="778.5,-1126.1236 778.5,-1145.1236 997.5,-1145.1236 997.5,-1126.1236 778.5,-1126.1236"/>
<text text-anchor="start" x="781.5" y="-1132.2236" font-family="Helvetica,sans-Serif" font-size="11.00" fill="#000000">...</text>
<polygon fill="#ffffff" stroke="transparent" points="778.5,-1107.1236 778.5,-1126.1236 873.5,-1126.1236 873.5,-1107.1236 778.5,-1107.1236"/>
<polygon fill="none" stroke="#000000" points="778.5,-1107.1236 778.5,-1126.1236 873.5,-1126.1236 873.5,-1107.1236 778.5,-1107.1236"/>
<text text-anchor="start" x="781.5" y="-1113.2236" font-family="Helvetica,sans-Serif" font-size="11.00" fill="#000000">&lt; 3</text>
<polygon fill="#ffffff" stroke="transparent" points="873.5,-1107.1236 873.5,-1126.1236 948.5,-1126.1236 948.5,-1107.1236 873.5,-1107.1236"/>
<polygon fill="none" stroke="#000000" points="873.5,-1107.1236 873.5,-1126.1236 948.5,-1126.1236 948.5,-1107.1236 873.5,-1107.1236"/>
<text text-anchor="start" x="913.1105" y="-1113.2236" font-family="Helvetica,sans-Serif" font-size="11.00" fill="#000000">0 rows</text>
<polygon fill="#ffffff" stroke="transparent" points="948.5,-1107.1236 948.5,-1126.1236 997.5,-1126.1236 997.5,-1107.1236 948.5,-1107.1236"/>
<polygon fill="none" stroke="#000000" points="948.5,-1107.1236 948.5,-1126.1236 997.5,-1126.1236 997.5,-1107.1236 948.5,-1107.1236"/>
<text text-anchor="start" x="988.3862" y="-1113.2236" font-family="Helvetica,sans-Serif" font-size="11.00" fill="#000000"> &#160;</text>
</a>
</g>
</g>
<!-- c_dechallenge_rechallenge&#45;&gt;cg_cohort_definition -->
<g id="edge11" class="edge">
<title>c_dechallenge_rechallenge:w&#45;&gt;cg_cohort_definition:e</title>
<path fill="none" stroke="#000000" d="M764.5788,-1131.2484C710.8428,-1096.7848 780.8468,-842.7061 737,-784.1236 664.9916,-687.915 597.4648,-728.4396 487,-681.1236 369.4004,-630.7515 303.1575,-664.6278 224,-564.1236 193.2423,-525.0712 233.2104,-344.1236 183.5,-344.1236"/>
<polygon fill="#000000" stroke="#000000" points="770.793,-1132.9782 777.5346,-1138.5917 774.6465,-1134.0509 778.5,-1135.1236 778.5,-1135.1236 778.5,-1135.1236 774.6465,-1134.0509 779.4654,-1131.6554 770.793,-1132.9782 770.793,-1132.9782"/>
<ellipse fill="none" stroke="#000000" cx="767.7102" cy="-1132.12" rx="3.2" ry="3.2"/>
</g>
<!-- c_dechallenge_rechallenge&#45;&gt;cg_cohort_definition -->
<g id="edge12" class="edge">
<title>c_dechallenge_rechallenge:w&#45;&gt;cg_cohort_definition:e</title>
<path fill="none" stroke="#000000" d="M764.3851,-1131.0837C711.7246,-1096.2482 779.5169,-846.4774 737,-788.1236 665.4098,-689.8673 598.0932,-726.4971 487,-677.1236 370.0923,-625.1659 303.323,-660.4973 224,-560.1236 163.4397,-483.4917 281.1729,-344.1236 183.5,-344.1236"/>
<polygon fill="#000000" stroke="#000000" points="770.8088,-1132.9222 777.5094,-1138.5846 774.6544,-1134.0229 778.5,-1135.1236 778.5,-1135.1236 778.5,-1135.1236 774.6544,-1134.0229 779.4906,-1131.6625 770.8088,-1132.9222 770.8088,-1132.9222"/>
<ellipse fill="none" stroke="#000000" cx="767.7323" cy="-1132.0417" rx="3.2" ry="3.2"/>
</g>
<!-- c_dechallenge_rechallenge&#45;&gt;database_meta_data -->
<g id="edge10" class="edge">
<title>c_dechallenge_rechallenge:w&#45;&gt;database_meta_data:e</title>
<path fill="none" stroke="#000000" d="M766.9827,-1125.8557C734.3386,-1065.1481 761.3328,-725.5699 737,-687.1236 727.3568,-671.8871 713.2502,-659.5259 697.9537,-649.6277"/>
<polygon fill="#000000" stroke="#000000" points="772.2673,-1130.1082 776.2431,-1137.9283 775.3837,-1132.6159 778.5,-1135.1236 778.5,-1135.1236 778.5,-1135.1236 775.3837,-1132.6159 780.7569,-1132.3189 772.2673,-1130.1082 772.2673,-1130.1082"/>
<ellipse fill="none" stroke="#000000" cx="769.7743" cy="-1128.102" rx="3.2" ry="3.2"/>
</g>
<!-- c_time_to_event -->
<g id="node8" class="node">
<title>c_time_to_event</title>
<g id="a_node8"><a xlink:href="../../tables/c_time_to_event.html" xlink:title="c_time_to_event" target="_top">
<polygon fill="#ffffff" stroke="transparent" points="814.5,-915.6236 814.5,-976.6236 960.5,-976.6236 960.5,-915.6236 814.5,-915.6236"/>
<polygon fill="#f5f5f5" stroke="transparent" points="814.5,-953.1236 814.5,-976.1236 960.5,-976.1236 960.5,-953.1236 814.5,-953.1236"/>
<polygon fill="none" stroke="#000000" points="814.5,-953.1236 814.5,-976.1236 960.5,-976.1236 960.5,-953.1236 814.5,-953.1236"/>
<text text-anchor="start" x="819.5" y="-961.7236" font-family="Helvetica,sans-Serif" font-weight="bold" font-size="11.00" fill="#000000">c_time_to_event</text>
<text text-anchor="start" x="926.0219" y="-961.2236" font-family="Helvetica,sans-Serif" font-size="11.00" fill="#000000">[table]</text>
<polygon fill="none" stroke="#000000" points="814.5,-934.1236 814.5,-953.1236 960.5,-953.1236 960.5,-934.1236 814.5,-934.1236"/>
<text text-anchor="start" x="817.5" y="-940.2236" font-family="Helvetica,sans-Serif" font-size="11.00" fill="#000000">...</text>
<polygon fill="#ffffff" stroke="transparent" points="814.5,-915.1236 814.5,-934.1236 872.5,-934.1236 872.5,-915.1236 814.5,-915.1236"/>
<polygon fill="none" stroke="#000000" points="814.5,-915.1236 814.5,-934.1236 872.5,-934.1236 872.5,-915.1236 814.5,-915.1236"/>
<text text-anchor="start" x="817.5" y="-921.2236" font-family="Helvetica,sans-Serif" font-size="11.00" fill="#000000">&lt; 1</text>
<polygon fill="#ffffff" stroke="transparent" points="872.5,-915.1236 872.5,-934.1236 929.5,-934.1236 929.5,-915.1236 872.5,-915.1236"/>
<polygon fill="none" stroke="#000000" points="872.5,-915.1236 872.5,-934.1236 929.5,-934.1236 929.5,-915.1236 872.5,-915.1236"/>
<text text-anchor="start" x="894.1105" y="-921.2236" font-family="Helvetica,sans-Serif" font-size="11.00" fill="#000000">0 rows</text>
<polygon fill="#ffffff" stroke="transparent" points="929.5,-915.1236 929.5,-934.1236 960.5,-934.1236 960.5,-915.1236 929.5,-915.1236"/>
<polygon fill="none" stroke="#000000" points="929.5,-915.1236 929.5,-934.1236 960.5,-934.1236 960.5,-915.1236 929.5,-915.1236"/>
<text text-anchor="start" x="951.3862" y="-921.2236" font-family="Helvetica,sans-Serif" font-size="11.00" fill="#000000"> &#160;</text>
</a>
</g>
</g>
<!-- c_time_to_event&#45;&gt;database_meta_data -->
<g id="edge16" class="edge">
<title>c_time_to_event:w&#45;&gt;database_meta_data:e</title>
<path fill="none" stroke="#000000" d="M800.022,-941.0252C785.5405,-936.1225 779.7226,-922.9648 770,-905.1236 717.4252,-808.6467 806.0497,-745.5873 737,-660.1236 729.4625,-650.7943 719.8297,-643.3984 709.2637,-637.5353"/>
<polygon fill="#000000" stroke="#000000" points="806.5827,-941.976 813.9836,-946.6863 810.5414,-942.5498 814.5,-943.1236 814.5,-943.1236 814.5,-943.1236 810.5414,-942.5498 815.0164,-939.5608 806.5827,-941.976 806.5827,-941.976"/>
<ellipse fill="none" stroke="#000000" cx="803.4158" cy="-941.517" rx="3.2" ry="3.2"/>
</g>
<!-- cd_cohort_count -->
<g id="node9" class="node">
<title>cd_cohort_count</title>
<g id="a_node9"><a xlink:href="../../tables/cd_cohort_count.html" xlink:title="cd_cohort_count" target="_top">
<polygon fill="#ffffff" stroke="transparent" points="813.5,-833.6236 813.5,-894.6236 961.5,-894.6236 961.5,-833.6236 813.5,-833.6236"/>
<polygon fill="#f5f5f5" stroke="transparent" points="813.5,-871.1236 813.5,-894.1236 961.5,-894.1236 961.5,-871.1236 813.5,-871.1236"/>
<polygon fill="none" stroke="#000000" points="813.5,-871.1236 813.5,-894.1236 961.5,-894.1236 961.5,-871.1236 813.5,-871.1236"/>
<text text-anchor="start" x="818.5" y="-879.7236" font-family="Helvetica,sans-Serif" font-weight="bold" font-size="11.00" fill="#000000">cd_cohort_count</text>
<text text-anchor="start" x="927.0219" y="-879.2236" font-family="Helvetica,sans-Serif" font-size="11.00" fill="#000000">[table]</text>
<polygon fill="none" stroke="#000000" points="813.5,-852.1236 813.5,-871.1236 961.5,-871.1236 961.5,-852.1236 813.5,-852.1236"/>
<text text-anchor="start" x="816.5" y="-858.2236" font-family="Helvetica,sans-Serif" font-size="11.00" fill="#000000">...</text>
<polygon fill="#ffffff" stroke="transparent" points="813.5,-833.1236 813.5,-852.1236 868.5,-852.1236 868.5,-833.1236 813.5,-833.1236"/>
<polygon fill="none" stroke="#000000" points="813.5,-833.1236 813.5,-852.1236 868.5,-852.1236 868.5,-833.1236 813.5,-833.1236"/>
<text text-anchor="start" x="816.5" y="-839.2236" font-family="Helvetica,sans-Serif" font-size="11.00" fill="#000000">&lt; 1</text>
<polygon fill="#ffffff" stroke="transparent" points="868.5,-833.1236 868.5,-852.1236 923.5,-852.1236 923.5,-833.1236 868.5,-833.1236"/>
<polygon fill="none" stroke="#000000" points="868.5,-833.1236 868.5,-852.1236 923.5,-852.1236 923.5,-833.1236 868.5,-833.1236"/>
<text text-anchor="start" x="888.1105" y="-839.2236" font-family="Helvetica,sans-Serif" font-size="11.00" fill="#000000">0 rows</text>
<polygon fill="#ffffff" stroke="transparent" points="923.5,-833.1236 923.5,-852.1236 961.5,-852.1236 961.5,-833.1236 923.5,-833.1236"/>
<polygon fill="none" stroke="#000000" points="923.5,-833.1236 923.5,-852.1236 961.5,-852.1236 961.5,-833.1236 923.5,-833.1236"/>
<text text-anchor="start" x="942.9053" y="-839.2236" font-family="Helvetica,sans-Serif" font-size="11.00" fill="#000000">2 &gt;</text>
</a>
</g>
</g>
<!-- cd_cohort_count&#45;&gt;database_meta_data -->
<g id="edge17" class="edge">
<title>cd_cohort_count:w&#45;&gt;database_meta_data:e</title>
<path fill="none" stroke="#000000" d="M798.8776,-859.2322C735.313,-841.2823 772.0758,-700.7261 737,-660.1236 729.3102,-651.2221 719.7233,-644.0813 709.3003,-638.353"/>
<polygon fill="#000000" stroke="#000000" points="805.5661,-860.0973 813.0382,-864.6938 809.533,-860.6104 813.5,-861.1236 813.5,-861.1236 813.5,-861.1236 809.533,-860.6104 813.9618,-857.5533 805.5661,-860.0973 805.5661,-860.0973"/>
<ellipse fill="none" stroke="#000000" cx="802.3925" cy="-859.6868" rx="3.2" ry="3.2"/>
</g>
<!-- cg_cohort_count -->
<g id="node10" class="node">
<title>cg_cohort_count</title>
<g id="a_node10"><a xlink:href="../../tables/cg_cohort_count.html" xlink:title="cg_cohort_count" target="_top">
<polygon fill="#ffffff" stroke="transparent" points="813.5,-1025.6236 813.5,-1086.6236 961.5,-1086.6236 961.5,-1025.6236 813.5,-1025.6236"/>
<polygon fill="#f5f5f5" stroke="transparent" points="813.5,-1063.1236 813.5,-1086.1236 961.5,-1086.1236 961.5,-1063.1236 813.5,-1063.1236"/>
<polygon fill="none" stroke="#000000" points="813.5,-1063.1236 813.5,-1086.1236 961.5,-1086.1236 961.5,-1063.1236 813.5,-1063.1236"/>
<text text-anchor="start" x="818.5" y="-1071.7236" font-family="Helvetica,sans-Serif" font-weight="bold" font-size="11.00" fill="#000000">cg_cohort_count</text>
<text text-anchor="start" x="927.0219" y="-1071.2236" font-family="Helvetica,sans-Serif" font-size="11.00" fill="#000000">[table]</text>
<polygon fill="none" stroke="#000000" points="813.5,-1044.1236 813.5,-1063.1236 961.5,-1063.1236 961.5,-1044.1236 813.5,-1044.1236"/>
<text text-anchor="start" x="816.5" y="-1050.2236" font-family="Helvetica,sans-Serif" font-size="11.00" fill="#000000">...</text>
<polygon fill="#ffffff" stroke="transparent" points="813.5,-1025.1236 813.5,-1044.1236 872.5,-1044.1236 872.5,-1025.1236 813.5,-1025.1236"/>
<polygon fill="none" stroke="#000000" points="813.5,-1025.1236 813.5,-1044.1236 872.5,-1044.1236 872.5,-1025.1236 813.5,-1025.1236"/>
<text text-anchor="start" x="816.5" y="-1031.2236" font-family="Helvetica,sans-Serif" font-size="11.00" fill="#000000">&lt; 2</text>
<polygon fill="#ffffff" stroke="transparent" points="872.5,-1025.1236 872.5,-1044.1236 929.5,-1044.1236 929.5,-1025.1236 872.5,-1025.1236"/>
<polygon fill="none" stroke="#000000" points="872.5,-1025.1236 872.5,-1044.1236 929.5,-1044.1236 929.5,-1025.1236 872.5,-1025.1236"/>
<text text-anchor="start" x="894.1105" y="-1031.2236" font-family="Helvetica,sans-Serif" font-size="11.00" fill="#000000">0 rows</text>
<polygon fill="#ffffff" stroke="transparent" points="929.5,-1025.1236 929.5,-1044.1236 961.5,-1044.1236 961.5,-1025.1236 929.5,-1025.1236"/>
<polygon fill="none" stroke="#000000" points="929.5,-1025.1236 929.5,-1044.1236 961.5,-1044.1236 961.5,-1025.1236 929.5,-1025.1236"/>
<text text-anchor="start" x="952.3862" y="-1031.2236" font-family="Helvetica,sans-Serif" font-size="11.00" fill="#000000"> &#160;</text>
</a>
</g>
</g>
<!-- cg_cohort_count&#45;&gt;cg_cohort_definition -->
<g id="edge18" class="edge">
<title>cg_cohort_count:w&#45;&gt;cg_cohort_definition:e</title>
<path fill="none" stroke="#000000" d="M799.1584,-1050.8517C784.2607,-1045.3204 779.266,-1030.1974 770,-1011.1236 738.3758,-946.026 787.6125,-738.8551 737,-687.1236 697.8506,-647.1085 539.1267,-676.5365 487,-656.1236 352.9695,-603.637 309.1369,-583.187 224,-467.1236 189.9586,-420.7164 241.0538,-344.1236 183.5,-344.1236"/>
<polygon fill="#000000" stroke="#000000" points="805.5985,-1051.8718 812.9367,-1056.6792 809.5493,-1052.4977 813.5,-1053.1236 813.5,-1053.1236 813.5,-1053.1236 809.5493,-1052.4977 814.0633,-1049.5679 805.5985,-1051.8718 805.5985,-1051.8718"/>
<ellipse fill="none" stroke="#000000" cx="802.4379" cy="-1051.3711" rx="3.2" ry="3.2"/>
</g>
<!-- cg_cohort_count&#45;&gt;database_meta_data -->
<g id="edge19" class="edge">
<title>cg_cohort_count:w&#45;&gt;database_meta_data:e</title>
<path fill="none" stroke="#000000" d="M799.1485,-1050.8565C784.2294,-1045.3355 779.1919,-1030.2332 770,-1011.1236 736.0402,-940.5225 785.0025,-722.0391 737,-660.1236 729.51,-650.4626 719.7635,-642.8731 709.016,-636.9114"/>
<polygon fill="#000000" stroke="#000000" points="805.598,-1051.8752 812.9383,-1056.6795 809.549,-1052.4994 813.5,-1053.1236 813.5,-1053.1236 813.5,-1053.1236 809.549,-1052.4994 814.0617,-1049.5677 805.598,-1051.8752 805.598,-1051.8752"/>
<ellipse fill="none" stroke="#000000" cx="802.4372" cy="-1051.3759" rx="3.2" ry="3.2"/>
</g>
<!-- cg_cohort_generation -->
<g id="node11" class="node">
<title>cg_cohort_generation</title>
<g id="a_node11"><a xlink:href="../../tables/cg_cohort_generation.html" xlink:title="cg_cohort_generation" target="_top">
<polygon fill="#ffffff" stroke="transparent" points="795.5,-751.6236 795.5,-812.6236 979.5,-812.6236 979.5,-751.6236 795.5,-751.6236"/>
<polygon fill="#f5f5f5" stroke="transparent" points="795.5,-789.1236 795.5,-812.1236 979.5,-812.1236 979.5,-789.1236 795.5,-789.1236"/>
<polygon fill="none" stroke="#000000" points="795.5,-789.1236 795.5,-812.1236 979.5,-812.1236 979.5,-789.1236 795.5,-789.1236"/>
<text text-anchor="start" x="800.5" y="-797.7236" font-family="Helvetica,sans-Serif" font-weight="bold" font-size="11.00" fill="#000000">cg_cohort_generation</text>
<text text-anchor="start" x="945.0219" y="-797.2236" font-family="Helvetica,sans-Serif" font-size="11.00" fill="#000000">[table]</text>
<polygon fill="none" stroke="#000000" points="795.5,-770.1236 795.5,-789.1236 979.5,-789.1236 979.5,-770.1236 795.5,-770.1236"/>
<text text-anchor="start" x="798.5" y="-776.2236" font-family="Helvetica,sans-Serif" font-size="11.00" fill="#000000">...</text>
<polygon fill="#ffffff" stroke="transparent" points="795.5,-751.1236 795.5,-770.1236 872.5,-770.1236 872.5,-751.1236 795.5,-751.1236"/>
<polygon fill="none" stroke="#000000" points="795.5,-751.1236 795.5,-770.1236 872.5,-770.1236 872.5,-751.1236 795.5,-751.1236"/>
<text text-anchor="start" x="798.5" y="-757.2236" font-family="Helvetica,sans-Serif" font-size="11.00" fill="#000000">&lt; 1</text>
<polygon fill="#ffffff" stroke="transparent" points="872.5,-751.1236 872.5,-770.1236 938.5,-770.1236 938.5,-751.1236 872.5,-751.1236"/>
<polygon fill="none" stroke="#000000" points="872.5,-751.1236 872.5,-770.1236 938.5,-770.1236 938.5,-751.1236 872.5,-751.1236"/>
<text text-anchor="start" x="903.1105" y="-757.2236" font-family="Helvetica,sans-Serif" font-size="11.00" fill="#000000">0 rows</text>
<polygon fill="#ffffff" stroke="transparent" points="938.5,-751.1236 938.5,-770.1236 979.5,-770.1236 979.5,-751.1236 938.5,-751.1236"/>
<polygon fill="none" stroke="#000000" points="938.5,-751.1236 938.5,-770.1236 979.5,-770.1236 979.5,-751.1236 938.5,-751.1236"/>
<text text-anchor="start" x="970.3862" y="-757.2236" font-family="Helvetica,sans-Serif" font-size="11.00" fill="#000000"> &#160;</text>
</a>
</g>
</g>
<!-- cg_cohort_generation&#45;&gt;database_meta_data -->
<g id="edge20" class="edge">
<title>cg_cohort_generation:w&#45;&gt;database_meta_data:e</title>
<path fill="none" stroke="#000000" d="M782.1005,-773.4312C776.542,-766.1944 776.4186,-753.1877 770,-741.1236 751.7412,-706.8055 765.0494,-687.0372 737,-660.1236 728.8451,-652.2988 719.2324,-645.8208 709.0188,-640.4608"/>
<polygon fill="#000000" stroke="#000000" points="788.1369,-775.9955 794.0924,-782.437 791.8184,-777.5596 795.5,-779.1236 795.5,-779.1236 795.5,-779.1236 791.8184,-777.5596 796.9076,-775.8102 788.1369,-775.9955 788.1369,-775.9955"/>
<ellipse fill="none" stroke="#000000" cx="785.1916" cy="-774.7443" rx="3.2" ry="3.2"/>
</g>
<!-- cg_cohort_inc_result -->
<g id="node12" class="node">
<title>cg_cohort_inc_result</title>
<g id="a_node12"><a xlink:href="../../tables/cg_cohort_inc_result.html" xlink:title="cg_cohort_inc_result" target="_top">
<polygon fill="#ffffff" stroke="transparent" points="800,-669.6236 800,-730.6236 975,-730.6236 975,-669.6236 800,-669.6236"/>
<polygon fill="#f5f5f5" stroke="transparent" points="800.5,-707.1236 800.5,-730.1236 975.5,-730.1236 975.5,-707.1236 800.5,-707.1236"/>
<polygon fill="none" stroke="#000000" points="800.5,-707.1236 800.5,-730.1236 975.5,-730.1236 975.5,-707.1236 800.5,-707.1236"/>
<text text-anchor="start" x="805.5" y="-715.7236" font-family="Helvetica,sans-Serif" font-weight="bold" font-size="11.00" fill="#000000">cg_cohort_inc_result</text>
<text text-anchor="start" x="941.0219" y="-715.2236" font-family="Helvetica,sans-Serif" font-size="11.00" fill="#000000">[table]</text>
<polygon fill="none" stroke="#000000" points="800.5,-688.1236 800.5,-707.1236 975.5,-707.1236 975.5,-688.1236 800.5,-688.1236"/>
<text text-anchor="start" x="803.5" y="-694.2236" font-family="Helvetica,sans-Serif" font-size="11.00" fill="#000000">...</text>
<polygon fill="#ffffff" stroke="transparent" points="800.5,-669.1236 800.5,-688.1236 873.5,-688.1236 873.5,-669.1236 800.5,-669.1236"/>
<polygon fill="none" stroke="#000000" points="800.5,-669.1236 800.5,-688.1236 873.5,-688.1236 873.5,-669.1236 800.5,-669.1236"/>
<text text-anchor="start" x="803.5" y="-675.2236" font-family="Helvetica,sans-Serif" font-size="11.00" fill="#000000">&lt; 1</text>
<polygon fill="#ffffff" stroke="transparent" points="873.5,-669.1236 873.5,-688.1236 937.5,-688.1236 937.5,-669.1236 873.5,-669.1236"/>
<polygon fill="none" stroke="#000000" points="873.5,-669.1236 873.5,-688.1236 937.5,-688.1236 937.5,-669.1236 873.5,-669.1236"/>
<text text-anchor="start" x="902.1105" y="-675.2236" font-family="Helvetica,sans-Serif" font-size="11.00" fill="#000000">0 rows</text>
<polygon fill="#ffffff" stroke="transparent" points="937.5,-669.1236 937.5,-688.1236 975.5,-688.1236 975.5,-669.1236 937.5,-669.1236"/>
<polygon fill="none" stroke="#000000" points="937.5,-669.1236 937.5,-688.1236 975.5,-688.1236 975.5,-669.1236 937.5,-669.1236"/>
<text text-anchor="start" x="966.3862" y="-675.2236" font-family="Helvetica,sans-Serif" font-size="11.00" fill="#000000"> &#160;</text>
</a>
</g>
</g>
<!-- cg_cohort_inc_result&#45;&gt;database_meta_data -->
<g id="edge21" class="edge">
<title>cg_cohort_inc_result:w&#45;&gt;database_meta_data:e</title>
<path fill="none" stroke="#000000" d="M786.1394,-695.2339C766.5735,-689.4295 761.5125,-671.561 737,-660.1236 728.1169,-655.9787 718.7381,-651.9698 709.273,-648.166"/>
<polygon fill="#000000" stroke="#000000" points="792.5684,-696.0798 800.0303,-700.6928 796.5342,-696.6017 800.5,-697.1236 800.5,-697.1236 800.5,-697.1236 796.5342,-696.6017 800.9697,-693.5543 792.5684,-696.0798 792.5684,-696.0798"/>
<ellipse fill="none" stroke="#000000" cx="789.3957" cy="-695.6623" rx="3.2" ry="3.2"/>
</g>
<!-- cg_cohort_inclusion -->
<g id="node13" class="node">
<title>cg_cohort_inclusion</title>
<g id="a_node13"><a xlink:href="../../tables/cg_cohort_inclusion.html" xlink:title="cg_cohort_inclusion" target="_top">
<polygon fill="#ffffff" stroke="transparent" points="254,-395.6236 254,-456.6236 424,-456.6236 424,-395.6236 254,-395.6236"/>
<polygon fill="#f5f5f5" stroke="transparent" points="254,-433.1236 254,-456.1236 424,-456.1236 424,-433.1236 254,-433.1236"/>
<polygon fill="none" stroke="#000000" points="254,-433.1236 254,-456.1236 424,-456.1236 424,-433.1236 254,-433.1236"/>
<text text-anchor="start" x="259" y="-441.7236" font-family="Helvetica,sans-Serif" font-weight="bold" font-size="11.00" fill="#000000">cg_cohort_inclusion</text>
<text text-anchor="start" x="389.5219" y="-441.2236" font-family="Helvetica,sans-Serif" font-size="11.00" fill="#000000">[table]</text>
<polygon fill="none" stroke="#000000" points="254,-414.1236 254,-433.1236 424,-433.1236 424,-414.1236 254,-414.1236"/>
<text text-anchor="start" x="257" y="-420.2236" font-family="Helvetica,sans-Serif" font-size="11.00" fill="#000000">...</text>
<polygon fill="#ffffff" stroke="transparent" points="254,-395.1236 254,-414.1236 324,-414.1236 324,-395.1236 254,-395.1236"/>
<polygon fill="none" stroke="#000000" points="254,-395.1236 254,-414.1236 324,-414.1236 324,-395.1236 254,-395.1236"/>
<text text-anchor="start" x="257" y="-401.2236" font-family="Helvetica,sans-Serif" font-size="11.00" fill="#000000">&lt; 1</text>
<polygon fill="#ffffff" stroke="transparent" points="324,-395.1236 324,-414.1236 387,-414.1236 387,-395.1236 324,-395.1236"/>
<polygon fill="none" stroke="#000000" points="324,-395.1236 324,-414.1236 387,-414.1236 387,-395.1236 324,-395.1236"/>
<text text-anchor="start" x="351.6105" y="-401.2236" font-family="Helvetica,sans-Serif" font-size="11.00" fill="#000000">0 rows</text>
<polygon fill="#ffffff" stroke="transparent" points="387,-395.1236 387,-414.1236 424,-414.1236 424,-395.1236 387,-395.1236"/>
<polygon fill="none" stroke="#000000" points="387,-395.1236 387,-414.1236 424,-414.1236 424,-395.1236 387,-395.1236"/>
<text text-anchor="start" x="414.8862" y="-401.2236" font-family="Helvetica,sans-Serif" font-size="11.00" fill="#000000"> &#160;</text>
</a>
</g>
</g>
<!-- cg_cohort_inclusion&#45;&gt;cg_cohort_definition -->
<g id="edge22" class="edge">
<title>cg_cohort_inclusion:w&#45;&gt;cg_cohort_definition:e</title>
<path fill="none" stroke="#000000" d="M239.7625,-419.9288C211.6245,-405.1492 224.8606,-344.1236 183.5,-344.1236"/>
<polygon fill="#000000" stroke="#000000" points="246.1941,-421.372 253.2118,-426.6362 250.097,-422.2478 254,-423.1236 254,-423.1236 254,-423.1236 250.097,-422.2478 254.7882,-419.6109 246.1941,-421.372 246.1941,-421.372"/>
<ellipse fill="none" stroke="#000000" cx="243.0717" cy="-420.6713" rx="3.2" ry="3.2"/>
</g>
<!-- cg_cohort_summary_stats -->
<g id="node14" class="node">
<title>cg_cohort_summary_stats</title>
<g id="a_node14"><a xlink:href="../../tables/cg_cohort_summary_stats.html" xlink:title="cg_cohort_summary_stats" target="_top">
<polygon fill="#ffffff" stroke="transparent" points="781.5,-395.6236 781.5,-456.6236 993.5,-456.6236 993.5,-395.6236 781.5,-395.6236"/>
<polygon fill="#f5f5f5" stroke="transparent" points="781.5,-433.1236 781.5,-456.1236 993.5,-456.1236 993.5,-433.1236 781.5,-433.1236"/>
<polygon fill="none" stroke="#000000" points="781.5,-433.1236 781.5,-456.1236 993.5,-456.1236 993.5,-433.1236 781.5,-433.1236"/>
<text text-anchor="start" x="786.5" y="-441.7236" font-family="Helvetica,sans-Serif" font-weight="bold" font-size="11.00" fill="#000000">cg_cohort_summary_stats</text>
<text text-anchor="start" x="959.0219" y="-441.2236" font-family="Helvetica,sans-Serif" font-size="11.00" fill="#000000">[table]</text>
<polygon fill="none" stroke="#000000" points="781.5,-414.1236 781.5,-433.1236 993.5,-433.1236 993.5,-414.1236 781.5,-414.1236"/>
<text text-anchor="start" x="784.5" y="-420.2236" font-family="Helvetica,sans-Serif" font-size="11.00" fill="#000000">...</text>
<polygon fill="#ffffff" stroke="transparent" points="781.5,-395.1236 781.5,-414.1236 872.5,-414.1236 872.5,-395.1236 781.5,-395.1236"/>
<polygon fill="none" stroke="#000000" points="781.5,-395.1236 781.5,-414.1236 872.5,-414.1236 872.5,-395.1236 781.5,-395.1236"/>
<text text-anchor="start" x="784.5" y="-401.2236" font-family="Helvetica,sans-Serif" font-size="11.00" fill="#000000">&lt; 2</text>
<polygon fill="#ffffff" stroke="transparent" points="872.5,-395.1236 872.5,-414.1236 945.5,-414.1236 945.5,-395.1236 872.5,-395.1236"/>
<polygon fill="none" stroke="#000000" points="872.5,-395.1236 872.5,-414.1236 945.5,-414.1236 945.5,-395.1236 872.5,-395.1236"/>
<text text-anchor="start" x="910.1105" y="-401.2236" font-family="Helvetica,sans-Serif" font-size="11.00" fill="#000000">0 rows</text>
<polygon fill="#ffffff" stroke="transparent" points="945.5,-395.1236 945.5,-414.1236 993.5,-414.1236 993.5,-395.1236 945.5,-395.1236"/>
<polygon fill="none" stroke="#000000" points="945.5,-395.1236 945.5,-414.1236 993.5,-414.1236 993.5,-395.1236 945.5,-395.1236"/>
<text text-anchor="start" x="984.3862" y="-401.2236" font-family="Helvetica,sans-Serif" font-size="11.00" fill="#000000"> &#160;</text>
</a>
</g>
</g>
<!-- cg_cohort_summary_stats&#45;&gt;cg_cohort_definition -->
<g id="edge23" class="edge">
<title>cg_cohort_summary_stats:w&#45;&gt;cg_cohort_definition:e</title>
<path fill="none" stroke="#000000" d="M766.9774,-422.1007C678.3864,-413.925 252.3819,-359.3647 224,-354.1236 205.7677,-350.7567 202.0406,-344.1236 183.5,-344.1236"/>
<polygon fill="#000000" stroke="#000000" points="773.5198,-422.5614 781.247,-426.7147 777.5099,-422.8425 781.5,-423.1236 781.5,-423.1236 781.5,-423.1236 777.5099,-422.8425 781.753,-419.5325 773.5198,-422.5614 773.5198,-422.5614"/>
<ellipse fill="none" stroke="#000000" cx="770.3277" cy="-422.3366" rx="3.2" ry="3.2"/>
</g>
<!-- cg_cohort_summary_stats&#45;&gt;database_meta_data -->
<g id="edge24" class="edge">
<title>cg_cohort_summary_stats:w&#45;&gt;database_meta_data:e</title>
<path fill="none" stroke="#000000" d="M766.7766,-424.2113C692.3798,-435.2924 645.1729,-528.3747 624.3594,-580.3538"/>
<polygon fill="#000000" stroke="#000000" points="773.5217,-423.713 781.7653,-426.7138 777.5109,-423.4183 781.5,-423.1236 781.5,-423.1236 781.5,-423.1236 777.5109,-423.4183 781.2347,-419.5333 773.5217,-423.713 773.5217,-423.713"/>
<ellipse fill="none" stroke="#000000" cx="770.3304" cy="-423.9488" rx="3.2" ry="3.2"/>
</g>
<!-- ci_incidence_summary -->
<g id="node15" class="node">
<title>ci_incidence_summary</title>
<g id="a_node15"><a xlink:href="../../tables/ci_incidence_summary.html" xlink:title="ci_incidence_summary" target="_top">
<polygon fill="#ffffff" stroke="transparent" points="793,-313.6236 793,-374.6236 982,-374.6236 982,-313.6236 793,-313.6236"/>
<polygon fill="#f5f5f5" stroke="transparent" points="793.5,-351.1236 793.5,-374.1236 982.5,-374.1236 982.5,-351.1236 793.5,-351.1236"/>
<polygon fill="none" stroke="#000000" points="793.5,-351.1236 793.5,-374.1236 982.5,-374.1236 982.5,-351.1236 793.5,-351.1236"/>
<text text-anchor="start" x="798.5" y="-359.7236" font-family="Helvetica,sans-Serif" font-weight="bold" font-size="11.00" fill="#000000">ci_incidence_summary</text>
<text text-anchor="start" x="948.0219" y="-359.2236" font-family="Helvetica,sans-Serif" font-size="11.00" fill="#000000">[table]</text>
<polygon fill="none" stroke="#000000" points="793.5,-332.1236 793.5,-351.1236 982.5,-351.1236 982.5,-332.1236 793.5,-332.1236"/>
<text text-anchor="start" x="796.5" y="-338.2236" font-family="Helvetica,sans-Serif" font-size="11.00" fill="#000000">...</text>
<polygon fill="#ffffff" stroke="transparent" points="793.5,-313.1236 793.5,-332.1236 876.5,-332.1236 876.5,-313.1236 793.5,-313.1236"/>
<polygon fill="none" stroke="#000000" points="793.5,-313.1236 793.5,-332.1236 876.5,-332.1236 876.5,-313.1236 793.5,-313.1236"/>
<text text-anchor="start" x="796.5" y="-319.2236" font-family="Helvetica,sans-Serif" font-size="11.00" fill="#000000">&lt; 10</text>
<polygon fill="#ffffff" stroke="transparent" points="876.5,-313.1236 876.5,-332.1236 942.5,-332.1236 942.5,-313.1236 876.5,-313.1236"/>
<polygon fill="none" stroke="#000000" points="876.5,-313.1236 876.5,-332.1236 942.5,-332.1236 942.5,-313.1236 876.5,-313.1236"/>
<text text-anchor="start" x="907.1105" y="-319.2236" font-family="Helvetica,sans-Serif" font-size="11.00" fill="#000000">0 rows</text>
<polygon fill="#ffffff" stroke="transparent" points="942.5,-313.1236 942.5,-332.1236 982.5,-332.1236 982.5,-313.1236 942.5,-313.1236"/>
<polygon fill="none" stroke="#000000" points="942.5,-313.1236 942.5,-332.1236 982.5,-332.1236 982.5,-313.1236 942.5,-313.1236"/>
<text text-anchor="start" x="973.3862" y="-319.2236" font-family="Helvetica,sans-Serif" font-size="11.00" fill="#000000"> &#160;</text>
</a>
</g>
</g>
<!-- ci_incidence_summary&#45;&gt;cg_cohort_definition -->
<g id="edge26" class="edge">
<title>ci_incidence_summary:w&#45;&gt;cg_cohort_definition:e</title>
<path fill="none" stroke="#000000" d="M779.0025,-341.1265C519.8705,-341.231 449.7163,-344.1236 183.5,-344.1236"/>
<polygon fill="#000000" stroke="#000000" points="785.5,-341.1252 793.5007,-344.7236 789.5,-341.1244 793.5,-341.1236 793.5,-341.1236 793.5,-341.1236 789.5,-341.1244 793.4993,-337.5236 785.5,-341.1252 785.5,-341.1252"/>
<ellipse fill="none" stroke="#000000" cx="782.3" cy="-341.1259" rx="3.2" ry="3.2"/>
</g>
<!-- ci_incidence_summary&#45;&gt;database_meta_data -->
<g id="edge25" class="edge">
<title>ci_incidence_summary:w&#45;&gt;database_meta_data:e</title>
<path fill="none" stroke="#000000" d="M778.9147,-342.0609C675.9093,-355.4981 632.5956,-509.9318 618.0994,-580.4213"/>
<polygon fill="#000000" stroke="#000000" points="785.5165,-341.6367 793.7309,-344.7162 789.5082,-341.3801 793.5,-341.1236 793.5,-341.1236 793.5,-341.1236 789.5082,-341.3801 793.2691,-337.531 785.5165,-341.6367 785.5165,-341.6367"/>
<ellipse fill="none" stroke="#000000" cx="782.3231" cy="-341.842" rx="3.2" ry="3.2"/>
</g>
<!-- cm_covariate_balance -->
<g id="node16" class="node">
<title>cm_covariate_balance</title>
<g id="a_node16"><a xlink:href="../../tables/cm_covariate_balance.html" xlink:title="cm_covariate_balance" target="_top">
<polygon fill="#ffffff" stroke="transparent" points="794.5,-587.6236 794.5,-648.6236 980.5,-648.6236 980.5,-587.6236 794.5,-587.6236"/>
<polygon fill="#f5f5f5" stroke="transparent" points="794.5,-625.1236 794.5,-648.1236 980.5,-648.1236 980.5,-625.1236 794.5,-625.1236"/>
<polygon fill="none" stroke="#000000" points="794.5,-625.1236 794.5,-648.1236 980.5,-648.1236 980.5,-625.1236 794.5,-625.1236"/>
<text text-anchor="start" x="799.5" y="-633.7236" font-family="Helvetica,sans-Serif" font-weight="bold" font-size="11.00" fill="#000000">cm_covariate_balance</text>
<text text-anchor="start" x="946.0219" y="-633.2236" font-family="Helvetica,sans-Serif" font-size="11.00" fill="#000000">[table]</text>
<polygon fill="none" stroke="#000000" points="794.5,-606.1236 794.5,-625.1236 980.5,-625.1236 980.5,-606.1236 794.5,-606.1236"/>
<text text-anchor="start" x="797.5" y="-612.2236" font-family="Helvetica,sans-Serif" font-size="11.00" fill="#000000">...</text>
<polygon fill="#ffffff" stroke="transparent" points="794.5,-587.1236 794.5,-606.1236 872.5,-606.1236 872.5,-587.1236 794.5,-587.1236"/>
<polygon fill="none" stroke="#000000" points="794.5,-587.1236 794.5,-606.1236 872.5,-606.1236 872.5,-587.1236 794.5,-587.1236"/>
<text text-anchor="start" x="797.5" y="-593.2236" font-family="Helvetica,sans-Serif" font-size="11.00" fill="#000000">&lt; 4</text>
<polygon fill="#ffffff" stroke="transparent" points="872.5,-587.1236 872.5,-606.1236 939.5,-606.1236 939.5,-587.1236 872.5,-587.1236"/>
<polygon fill="none" stroke="#000000" points="872.5,-587.1236 872.5,-606.1236 939.5,-606.1236 939.5,-587.1236 872.5,-587.1236"/>
<text text-anchor="start" x="904.1105" y="-593.2236" font-family="Helvetica,sans-Serif" font-size="11.00" fill="#000000">0 rows</text>
<polygon fill="#ffffff" stroke="transparent" points="939.5,-587.1236 939.5,-606.1236 980.5,-606.1236 980.5,-587.1236 939.5,-587.1236"/>
<polygon fill="none" stroke="#000000" points="939.5,-587.1236 939.5,-606.1236 980.5,-606.1236 980.5,-587.1236 939.5,-587.1236"/>
<text text-anchor="start" x="971.3862" y="-593.2236" font-family="Helvetica,sans-Serif" font-size="11.00" fill="#000000"> &#160;</text>
</a>
</g>
</g>
<!-- cm_covariate_balance&#45;&gt;database_meta_data -->
<g id="edge27" class="edge">
<title>cm_covariate_balance:w&#45;&gt;database_meta_data:e</title>
<path fill="none" stroke="#000000" d="M780.0198,-615.1236C756.5057,-615.1236 731.9397,-615.1236 709.0808,-615.1236"/>
<polygon fill="#000000" stroke="#000000" points="786.5,-615.1236 794.5,-618.7236 790.5,-615.1236 794.5,-615.1236 794.5,-615.1236 794.5,-615.1236 790.5,-615.1236 794.5,-611.5236 786.5,-615.1236 786.5,-615.1236"/>
<ellipse fill="none" stroke="#000000" cx="783.3" cy="-615.1236" rx="3.2" ry="3.2"/>
</g>
<!-- cm_diagnostics_summary -->
<g id="node17" class="node">
<title>cm_diagnostics_summary</title>
<g id="a_node17"><a xlink:href="../../tables/cm_diagnostics_summary.html" xlink:title="cm_diagnostics_summary" target="_top">
<polygon fill="#ffffff" stroke="transparent" points="782.5,-231.6236 782.5,-292.6236 992.5,-292.6236 992.5,-231.6236 782.5,-231.6236"/>
<polygon fill="#f5f5f5" stroke="transparent" points="782.5,-269.1236 782.5,-292.1236 992.5,-292.1236 992.5,-269.1236 782.5,-269.1236"/>
<polygon fill="none" stroke="#000000" points="782.5,-269.1236 782.5,-292.1236 992.5,-292.1236 992.5,-269.1236 782.5,-269.1236"/>
<text text-anchor="start" x="787.5" y="-277.7236" font-family="Helvetica,sans-Serif" font-weight="bold" font-size="11.00" fill="#000000">cm_diagnostics_summary</text>
<text text-anchor="start" x="958.0219" y="-277.2236" font-family="Helvetica,sans-Serif" font-size="11.00" fill="#000000">[table]</text>
<polygon fill="none" stroke="#000000" points="782.5,-250.1236 782.5,-269.1236 992.5,-269.1236 992.5,-250.1236 782.5,-250.1236"/>
<text text-anchor="start" x="785.5" y="-256.2236" font-family="Helvetica,sans-Serif" font-size="11.00" fill="#000000">...</text>
<polygon fill="#ffffff" stroke="transparent" points="782.5,-231.1236 782.5,-250.1236 868.5,-250.1236 868.5,-231.1236 782.5,-231.1236"/>
<polygon fill="none" stroke="#000000" points="782.5,-231.1236 782.5,-250.1236 868.5,-250.1236 868.5,-231.1236 782.5,-231.1236"/>
<text text-anchor="start" x="785.5" y="-237.2236" font-family="Helvetica,sans-Serif" font-size="11.00" fill="#000000">&lt; 5</text>
<polygon fill="#ffffff" stroke="transparent" points="868.5,-231.1236 868.5,-250.1236 938.5,-250.1236 938.5,-231.1236 868.5,-231.1236"/>
<polygon fill="none" stroke="#000000" points="868.5,-231.1236 868.5,-250.1236 938.5,-250.1236 938.5,-231.1236 868.5,-231.1236"/>
<text text-anchor="start" x="903.1105" y="-237.2236" font-family="Helvetica,sans-Serif" font-size="11.00" fill="#000000">0 rows</text>
<polygon fill="#ffffff" stroke="transparent" points="938.5,-231.1236 938.5,-250.1236 992.5,-250.1236 992.5,-231.1236 938.5,-231.1236"/>
<polygon fill="none" stroke="#000000" points="938.5,-231.1236 938.5,-250.1236 992.5,-250.1236 992.5,-231.1236 938.5,-231.1236"/>
<text text-anchor="start" x="973.9053" y="-237.2236" font-family="Helvetica,sans-Serif" font-size="11.00" fill="#000000">1 &gt;</text>
</a>
</g>
</g>
<!-- cm_diagnostics_summary&#45;&gt;cg_cohort_definition -->
<g id="edge28" class="edge">
<title>cm_diagnostics_summary:w&#45;&gt;cg_cohort_definition:e</title>
<path fill="none" stroke="#000000" d="M768.0774,-260.3579C675.6007,-270.8107 214.715,-344.1236 183.5,-344.1236"/>
<polygon fill="#000000" stroke="#000000" points="774.5291,-259.8058 782.807,-262.7105 778.5146,-259.4647 782.5,-259.1236 782.5,-259.1236 782.5,-259.1236 778.5146,-259.4647 782.193,-255.5367 774.5291,-259.8058 774.5291,-259.8058"/>
<ellipse fill="none" stroke="#000000" cx="771.3408" cy="-260.0787" rx="3.2" ry="3.2"/>
</g>
<!-- cm_diagnostics_summary&#45;&gt;cg_cohort_definition -->
<g id="edge30" class="edge">
<title>cm_diagnostics_summary:w&#45;&gt;cg_cohort_definition:e</title>
<path fill="none" stroke="#000000" d="M767.7444,-258.8825C511.2674,-256.2507 447.4001,-338.2349 183.5,-344.1236"/>
<polygon fill="#000000" stroke="#000000" points="774.5011,-258.9928 782.4412,-262.7231 778.5005,-259.0582 782.5,-259.1236 782.5,-259.1236 782.5,-259.1236 778.5005,-259.0582 782.5588,-255.524 774.5011,-258.9928 774.5011,-258.9928"/>
<ellipse fill="none" stroke="#000000" cx="771.3015" cy="-258.9405" rx="3.2" ry="3.2"/>
</g>
<!-- cm_diagnostics_summary&#45;&gt;cg_cohort_definition -->
<g id="edge31" class="edge">
<title>cm_diagnostics_summary:w&#45;&gt;cg_cohort_definition:e</title>
<path fill="none" stroke="#000000" d="M767.7444,-259.5927C511.2674,-269.2462 447.4001,-350.9937 183.5,-344.1236"/>
<polygon fill="#000000" stroke="#000000" points="774.504,-259.3778 782.6144,-262.7217 778.502,-259.2507 782.5,-259.1236 782.5,-259.1236 782.5,-259.1236 778.502,-259.2507 782.3856,-255.5254 774.504,-259.3778 774.504,-259.3778"/>
<ellipse fill="none" stroke="#000000" cx="771.3057" cy="-259.4795" rx="3.2" ry="3.2"/>
</g>
<!-- cm_diagnostics_summary&#45;&gt;database_meta_data -->
<g id="edge29" class="edge">
<title>cm_diagnostics_summary:w&#45;&gt;database_meta_data:e</title>
<path fill="none" stroke="#000000" d="M772.0743,-269.5589C740.3974,-315.6484 659.8903,-502.1341 626.6746,-580.3406"/>
<polygon fill="#000000" stroke="#000000" points="776.8458,-264.7831 785.0468,-261.668 779.6729,-261.9533 782.5,-259.1236 782.5,-259.1236 782.5,-259.1236 779.6729,-261.9533 779.9532,-256.5792 776.8458,-264.7831 776.8458,-264.7831"/>
<ellipse fill="none" stroke="#000000" cx="774.5841" cy="-267.0469" rx="3.2" ry="3.2"/>
</g>
<!-- plp_cohorts -->
<g id="node18" class="node">
<title>plp_cohorts</title>
<g id="a_node18"><a xlink:href="../../tables/plp_cohorts.html" xlink:title="plp_cohorts" target="_top">
<polygon fill="#ffffff" stroke="transparent" points="280.5,-207.6236 280.5,-268.6236 397.5,-268.6236 397.5,-207.6236 280.5,-207.6236"/>
<polygon fill="#f5f5f5" stroke="transparent" points="281,-245.1236 281,-268.1236 398,-268.1236 398,-245.1236 281,-245.1236"/>
<polygon fill="none" stroke="#000000" points="281,-245.1236 281,-268.1236 398,-268.1236 398,-245.1236 281,-245.1236"/>
<text text-anchor="start" x="286" y="-253.7236" font-family="Helvetica,sans-Serif" font-weight="bold" font-size="11.00" fill="#000000">plp_cohorts</text>
<text text-anchor="start" x="363.5219" y="-253.2236" font-family="Helvetica,sans-Serif" font-size="11.00" fill="#000000">[table]</text>
<polygon fill="none" stroke="#000000" points="281,-226.1236 281,-245.1236 398,-245.1236 398,-226.1236 281,-226.1236"/>
<text text-anchor="start" x="284" y="-232.2236" font-family="Helvetica,sans-Serif" font-size="11.00" fill="#000000">...</text>
<polygon fill="#ffffff" stroke="transparent" points="281,-207.1236 281,-226.1236 320,-226.1236 320,-207.1236 281,-207.1236"/>
<polygon fill="none" stroke="#000000" points="281,-207.1236 281,-226.1236 320,-226.1236 320,-207.1236 281,-207.1236"/>
<text text-anchor="start" x="284" y="-213.2236" font-family="Helvetica,sans-Serif" font-size="11.00" fill="#000000">&lt; 1</text>
<polygon fill="#ffffff" stroke="transparent" points="320,-207.1236 320,-226.1236 367,-226.1236 367,-207.1236 320,-207.1236"/>
<polygon fill="none" stroke="#000000" points="320,-207.1236 320,-226.1236 367,-226.1236 367,-207.1236 320,-207.1236"/>
<text text-anchor="start" x="331.6105" y="-213.2236" font-family="Helvetica,sans-Serif" font-size="11.00" fill="#000000">0 rows</text>
<polygon fill="#ffffff" stroke="transparent" points="367,-207.1236 367,-226.1236 398,-226.1236 398,-207.1236 367,-207.1236"/>
<polygon fill="none" stroke="#000000" points="367,-207.1236 367,-226.1236 398,-226.1236 398,-207.1236 367,-207.1236"/>
<text text-anchor="start" x="379.4053" y="-213.2236" font-family="Helvetica,sans-Serif" font-size="11.00" fill="#000000">2 &gt;</text>
</a>
</g>
</g>
<!-- plp_cohorts&#45;&gt;cg_cohort_definition -->
<g id="edge33" class="edge">
<title>plp_cohorts:w&#45;&gt;cg_cohort_definition:e</title>
<path fill="none" stroke="#000000" d="M270.5626,-236.0478C247.1738,-240.6011 243.4655,-261.3069 224,-283.1236 202.3347,-307.4058 216.0425,-344.1236 183.5,-344.1236"/>
<polygon fill="#000000" stroke="#000000" points="279.8503,-231.2097 280.556,-239.1785 278.9622,-239.3197 278.2565,-231.3509 279.8503,-231.2097"/>
<polyline fill="none" stroke="#000000" points="281,-235.1236 277.0156,-235.4764 "/>
<ellipse fill="none" stroke="#000000" cx="273.8281" cy="-235.7587" rx="3.2" ry="3.2"/>
</g>
<!-- plp_diagnostics -->
<g id="node19" class="node">
<title>plp_diagnostics</title>
<g id="a_node19"><a xlink:href="../../tables/plp_diagnostics.html" xlink:title="plp_diagnostics" target="_top">
<polygon fill="#ffffff" stroke="transparent" points="816,-505.6236 816,-566.6236 959,-566.6236 959,-505.6236 816,-505.6236"/>
<polygon fill="#f5f5f5" stroke="transparent" points="816.5,-543.1236 816.5,-566.1236 959.5,-566.1236 959.5,-543.1236 816.5,-543.1236"/>
<polygon fill="none" stroke="#000000" points="816.5,-543.1236 816.5,-566.1236 959.5,-566.1236 959.5,-543.1236 816.5,-543.1236"/>
<text text-anchor="start" x="821.5" y="-551.7236" font-family="Helvetica,sans-Serif" font-weight="bold" font-size="11.00" fill="#000000">plp_diagnostics</text>
<text text-anchor="start" x="925.0219" y="-551.2236" font-family="Helvetica,sans-Serif" font-size="11.00" fill="#000000">[table]</text>
<polygon fill="none" stroke="#000000" points="816.5,-524.1236 816.5,-543.1236 959.5,-543.1236 959.5,-524.1236 816.5,-524.1236"/>
<text text-anchor="start" x="819.5" y="-530.2236" font-family="Helvetica,sans-Serif" font-size="11.00" fill="#000000">...</text>
<polygon fill="#ffffff" stroke="transparent" points="816.5,-505.1236 816.5,-524.1236 873.5,-524.1236 873.5,-505.1236 816.5,-505.1236"/>
<polygon fill="none" stroke="#000000" points="816.5,-505.1236 816.5,-524.1236 873.5,-524.1236 873.5,-505.1236 816.5,-505.1236"/>
<text text-anchor="start" x="819.5" y="-511.2236" font-family="Helvetica,sans-Serif" font-size="11.00" fill="#000000">&lt; 3</text>
<polygon fill="#ffffff" stroke="transparent" points="873.5,-505.1236 873.5,-524.1236 929.5,-524.1236 929.5,-505.1236 873.5,-505.1236"/>
<polygon fill="none" stroke="#000000" points="873.5,-505.1236 873.5,-524.1236 929.5,-524.1236 929.5,-505.1236 873.5,-505.1236"/>
<text text-anchor="start" x="894.1105" y="-511.2236" font-family="Helvetica,sans-Serif" font-size="11.00" fill="#000000">0 rows</text>
<polygon fill="#ffffff" stroke="transparent" points="929.5,-505.1236 929.5,-524.1236 959.5,-524.1236 959.5,-505.1236 929.5,-505.1236"/>
<polygon fill="none" stroke="#000000" points="929.5,-505.1236 929.5,-524.1236 959.5,-524.1236 959.5,-505.1236 929.5,-505.1236"/>
<text text-anchor="start" x="950.3862" y="-511.2236" font-family="Helvetica,sans-Serif" font-size="11.00" fill="#000000"> &#160;</text>
</a>
</g>
</g>
<!-- plp_diagnostics&#45;&gt;database_meta_data -->
<g id="edge34" class="edge">
<title>plp_diagnostics:w&#45;&gt;database_meta_data:e</title>
<path fill="none" stroke="#000000" d="M801.8615,-533.7101C752.3094,-537.6038 702.0154,-560.1892 665.6508,-580.5858"/>
<polygon fill="#000000" stroke="#000000" points="808.5064,-533.4439 816.6442,-536.7207 812.5032,-533.2837 816.5,-533.1236 816.5,-533.1236 816.5,-533.1236 812.5032,-533.2837 816.3558,-529.5265 808.5064,-533.4439 808.5064,-533.4439"/>
<ellipse fill="none" stroke="#000000" cx="805.309" cy="-533.5721" rx="3.2" ry="3.2"/>
</g>
<!-- plp_performances -->
<g id="node20" class="node">
<title>plp_performances</title>
<g id="a_node20"><a xlink:href="../../tables/plp_performances.html" xlink:title="plp_performances" target="_top">
<polygon fill="#ffffff" stroke="transparent" points="808,-149.6236 808,-210.6236 967,-210.6236 967,-149.6236 808,-149.6236"/>
<polygon fill="#f5f5f5" stroke="transparent" points="808.5,-187.1236 808.5,-210.1236 967.5,-210.1236 967.5,-187.1236 808.5,-187.1236"/>
<polygon fill="none" stroke="#000000" points="808.5,-187.1236 808.5,-210.1236 967.5,-210.1236 967.5,-187.1236 808.5,-187.1236"/>
<text text-anchor="start" x="813.5" y="-195.7236" font-family="Helvetica,sans-Serif" font-weight="bold" font-size="11.00" fill="#000000">plp_performances</text>
<text text-anchor="start" x="933.0219" y="-195.2236" font-family="Helvetica,sans-Serif" font-size="11.00" fill="#000000">[table]</text>
<polygon fill="none" stroke="#000000" points="808.5,-168.1236 808.5,-187.1236 967.5,-187.1236 967.5,-168.1236 808.5,-168.1236"/>
<text text-anchor="start" x="811.5" y="-174.2236" font-family="Helvetica,sans-Serif" font-size="11.00" fill="#000000">...</text>
<polygon fill="#ffffff" stroke="transparent" points="808.5,-149.1236 808.5,-168.1236 873.5,-168.1236 873.5,-149.1236 808.5,-149.1236"/>
<polygon fill="none" stroke="#000000" points="808.5,-149.1236 808.5,-168.1236 873.5,-168.1236 873.5,-149.1236 808.5,-149.1236"/>
<text text-anchor="start" x="811.5" y="-155.2236" font-family="Helvetica,sans-Serif" font-size="11.00" fill="#000000">&lt; 4</text>
<polygon fill="#ffffff" stroke="transparent" points="873.5,-149.1236 873.5,-168.1236 933.5,-168.1236 933.5,-149.1236 873.5,-149.1236"/>
<polygon fill="none" stroke="#000000" points="873.5,-149.1236 873.5,-168.1236 933.5,-168.1236 933.5,-149.1236 873.5,-149.1236"/>
<text text-anchor="start" x="898.1105" y="-155.2236" font-family="Helvetica,sans-Serif" font-size="11.00" fill="#000000">0 rows</text>
<polygon fill="#ffffff" stroke="transparent" points="933.5,-149.1236 933.5,-168.1236 967.5,-168.1236 967.5,-149.1236 933.5,-149.1236"/>
<polygon fill="none" stroke="#000000" points="933.5,-149.1236 933.5,-168.1236 967.5,-168.1236 967.5,-149.1236 933.5,-149.1236"/>
<text text-anchor="start" x="958.3862" y="-155.2236" font-family="Helvetica,sans-Serif" font-size="11.00" fill="#000000"> &#160;</text>
</a>
</g>
</g>
<!-- plp_performances&#45;&gt;cg_cohort_definition -->
<g id="edge36" class="edge">
<title>plp_performances:w&#45;&gt;cg_cohort_definition:e</title>
<path fill="none" stroke="#000000" d="M793.9881,-176.908C654.0588,-173.0432 322.4373,-119.4434 224,-197.1236 170.8016,-239.1042 251.2676,-344.1236 183.5,-344.1236"/>
<polygon fill="#000000" stroke="#000000" points="800.5009,-177.0047 808.4465,-180.7232 804.5004,-177.0641 808.5,-177.1236 808.5,-177.1236 808.5,-177.1236 804.5004,-177.0641 808.5535,-173.524 800.5009,-177.0047 800.5009,-177.0047"/>
<ellipse fill="none" stroke="#000000" cx="797.3012" cy="-176.9571" rx="3.2" ry="3.2"/>
</g>
<!-- plp_performances&#45;&gt;cg_cohort_definition -->
<g id="edge37" class="edge">
<title>plp_performances:w&#45;&gt;cg_cohort_definition:e</title>
<path fill="none" stroke="#000000" d="M793.985,-176.9224C654.0303,-173.3192 322.4749,-123.4389 224,-201.1236 172.1393,-242.0354 249.5553,-344.1236 183.5,-344.1236"/>
<polygon fill="#000000" stroke="#000000" points="800.5008,-177.0127 808.4501,-180.7232 804.5004,-177.0681 808.5,-177.1236 808.5,-177.1236 808.5,-177.1236 804.5004,-177.0681 808.5499,-173.5239 800.5008,-177.0127 800.5008,-177.0127"/>
<ellipse fill="none" stroke="#000000" cx="797.3011" cy="-176.9683" rx="3.2" ry="3.2"/>
</g>
<!-- plp_performances&#45;&gt;database_meta_data -->
<g id="edge35" class="edge">
<title>plp_performances:w&#45;&gt;database_meta_data:e</title>
<path fill="none" stroke="#000000" d="M794.0156,-178.9902C711.244,-204.7529 641.0193,-481.6455 619.0928,-580.4242"/>
<polygon fill="#000000" stroke="#000000" points="800.5656,-178.1462 808.9602,-180.694 804.5328,-177.6349 808.5,-177.1236 808.5,-177.1236 808.5,-177.1236 804.5328,-177.6349 808.0398,-173.5531 800.5656,-178.1462 800.5656,-178.1462"/>
<ellipse fill="none" stroke="#000000" cx="797.3919" cy="-178.5552" rx="3.2" ry="3.2"/>
</g>
<!-- plp_performances&#45;&gt;database_meta_data -->
<g id="edge38" class="edge">
<title>plp_performances:w&#45;&gt;database_meta_data:e</title>
<path fill="none" stroke="#000000" d="M794.268,-180.5817C712.9252,-214.5566 643.6574,-483.5393 620.3648,-580.5094"/>
<polygon fill="#000000" stroke="#000000" points="800.7262,-179.0125 809.35,-180.6218 804.6131,-178.068 808.5,-177.1236 808.5,-177.1236 808.5,-177.1236 804.6131,-178.068 807.65,-173.6253 800.7262,-179.0125 800.7262,-179.0125"/>
<ellipse fill="none" stroke="#000000" cx="797.6167" cy="-179.7681" rx="3.2" ry="3.2"/>
</g>
<!-- sccs_diagnostics_summary -->
<g id="node21" class="node">
<title>sccs_diagnostics_summary</title>
<g id="a_node21"><a xlink:href="../../tables/sccs_diagnostics_summary.html" xlink:title="sccs_diagnostics_summary" target="_top">
<polygon fill="#ffffff" stroke="transparent" points="778,-67.6236 778,-128.6236 997,-128.6236 997,-67.6236 778,-67.6236"/>
<polygon fill="#f5f5f5" stroke="transparent" points="778.5,-105.1236 778.5,-128.1236 997.5,-128.1236 997.5,-105.1236 778.5,-105.1236"/>
<polygon fill="none" stroke="#000000" points="778.5,-105.1236 778.5,-128.1236 997.5,-128.1236 997.5,-105.1236 778.5,-105.1236"/>
<text text-anchor="start" x="783.5" y="-113.7236" font-family="Helvetica,sans-Serif" font-weight="bold" font-size="11.00" fill="#000000">sccs_diagnostics_summary</text>
<text text-anchor="start" x="963.0219" y="-113.2236" font-family="Helvetica,sans-Serif" font-size="11.00" fill="#000000">[table]</text>
<polygon fill="none" stroke="#000000" points="778.5,-86.1236 778.5,-105.1236 997.5,-105.1236 997.5,-86.1236 778.5,-86.1236"/>
<text text-anchor="start" x="781.5" y="-92.2236" font-family="Helvetica,sans-Serif" font-size="11.00" fill="#000000">...</text>
<polygon fill="#ffffff" stroke="transparent" points="778.5,-67.1236 778.5,-86.1236 868.5,-86.1236 868.5,-67.1236 778.5,-67.1236"/>
<polygon fill="none" stroke="#000000" points="778.5,-67.1236 778.5,-86.1236 868.5,-86.1236 868.5,-67.1236 778.5,-67.1236"/>
<text text-anchor="start" x="781.5" y="-73.2236" font-family="Helvetica,sans-Serif" font-size="11.00" fill="#000000">&lt; 7</text>
<polygon fill="#ffffff" stroke="transparent" points="868.5,-67.1236 868.5,-86.1236 941.5,-86.1236 941.5,-67.1236 868.5,-67.1236"/>
<polygon fill="none" stroke="#000000" points="868.5,-67.1236 868.5,-86.1236 941.5,-86.1236 941.5,-67.1236 868.5,-67.1236"/>
<text text-anchor="start" x="906.1105" y="-73.2236" font-family="Helvetica,sans-Serif" font-size="11.00" fill="#000000">0 rows</text>
<polygon fill="#ffffff" stroke="transparent" points="941.5,-67.1236 941.5,-86.1236 997.5,-86.1236 997.5,-67.1236 941.5,-67.1236"/>
<polygon fill="none" stroke="#000000" points="941.5,-67.1236 941.5,-86.1236 997.5,-86.1236 997.5,-67.1236 941.5,-67.1236"/>
<text text-anchor="start" x="978.9053" y="-73.2236" font-family="Helvetica,sans-Serif" font-size="11.00" fill="#000000">4 &gt;</text>
</a>
</g>
</g>
<!-- sccs_diagnostics_summary&#45;&gt;database_meta_data -->
<g id="edge39" class="edge">
<title>sccs_diagnostics_summary:w&#45;&gt;database_meta_data:e</title>
<path fill="none" stroke="#000000" d="M765.6464,-101.9091C714.4188,-152.6519 642.1689,-473.7627 619.2617,-580.6022"/>
<polygon fill="#000000" stroke="#000000" points="771.4253,-98.8584 780.1807,-98.3072 774.9626,-96.991 778.5,-95.1236 778.5,-95.1236 778.5,-95.1236 774.9626,-96.991 776.8193,-91.9399 771.4253,-98.8584 771.4253,-98.8584"/>
<ellipse fill="none" stroke="#000000" cx="768.5954" cy="-100.3523" rx="3.2" ry="3.2"/>
</g>
<!-- sccs_exposures_outcome_set -->
<g id="node22" class="node">
<title>sccs_exposures_outcome_set</title>
<g id="a_node22"><a xlink:href="../../tables/sccs_exposures_outcome_set.html" xlink:title="sccs_exposures_outcome_set" target="_top">
<polygon fill="#ffffff" stroke="transparent" points="495,-67.6236 495,-128.6236 729,-128.6236 729,-67.6236 495,-67.6236"/>
<polygon fill="#f5f5f5" stroke="transparent" points="495,-105.1236 495,-128.1236 729,-128.1236 729,-105.1236 495,-105.1236"/>
<polygon fill="none" stroke="#000000" points="495,-105.1236 495,-128.1236 729,-128.1236 729,-105.1236 495,-105.1236"/>
<text text-anchor="start" x="500" y="-113.7236" font-family="Helvetica,sans-Serif" font-weight="bold" font-size="11.00" fill="#000000">sccs_exposures_outcome_set</text>
<text text-anchor="start" x="694.5219" y="-113.2236" font-family="Helvetica,sans-Serif" font-size="11.00" fill="#000000">[table]</text>
<polygon fill="none" stroke="#000000" points="495,-86.1236 495,-105.1236 729,-105.1236 729,-86.1236 495,-86.1236"/>
<text text-anchor="start" x="498" y="-92.2236" font-family="Helvetica,sans-Serif" font-size="11.00" fill="#000000">...</text>
<polygon fill="#ffffff" stroke="transparent" points="495,-67.1236 495,-86.1236 590,-86.1236 590,-67.1236 495,-67.1236"/>
<polygon fill="none" stroke="#000000" points="495,-67.1236 495,-86.1236 590,-86.1236 590,-67.1236 495,-67.1236"/>
<text text-anchor="start" x="498" y="-73.2236" font-family="Helvetica,sans-Serif" font-size="11.00" fill="#000000">&lt; 3</text>
<polygon fill="#ffffff" stroke="transparent" points="590,-67.1236 590,-86.1236 665,-86.1236 665,-67.1236 590,-67.1236"/>
<polygon fill="none" stroke="#000000" points="590,-67.1236 590,-86.1236 665,-86.1236 665,-67.1236 590,-67.1236"/>
<text text-anchor="start" x="629.6105" y="-73.2236" font-family="Helvetica,sans-Serif" font-size="11.00" fill="#000000">0 rows</text>
<polygon fill="#ffffff" stroke="transparent" points="665,-67.1236 665,-86.1236 729,-86.1236 729,-67.1236 665,-67.1236"/>
<polygon fill="none" stroke="#000000" points="665,-67.1236 665,-86.1236 729,-86.1236 729,-67.1236 665,-67.1236"/>
<text text-anchor="start" x="704.2904" y="-73.2236" font-family="Helvetica,sans-Serif" font-size="11.00" fill="#000000">10 &gt;</text>
</a>
</g>
</g>
<!-- sccs_diagnostics_summary&#45;&gt;sccs_exposures_outcome_set -->
<g id="edge40" class="edge">
<title>sccs_diagnostics_summary:w&#45;&gt;sccs_exposures_outcome_set:e</title>
<path fill="none" stroke="#000000" d="M763.8428,-95.1236C752.4139,-95.1236 745.1563,-95.1236 729,-95.1236"/>
<polygon fill="#000000" stroke="#000000" points="770.5,-95.1236 778.5,-98.7236 774.5,-95.1236 778.5,-95.1236 778.5,-95.1236 778.5,-95.1236 774.5,-95.1236 778.5,-91.5236 770.5,-95.1236 770.5,-95.1236"/>
<ellipse fill="none" stroke="#000000" cx="767.3" cy="-95.1236" rx="3.2" ry="3.2"/>
</g>
<!-- sccs_exposures_outcome_set&#45;&gt;cg_cohort_definition -->
<g id="edge41" class="edge">
<title>sccs_exposures_outcome_set:w&#45;&gt;cg_cohort_definition:e</title>
<path fill="none" stroke="#000000" d="M480.41,-95.0236C366.1634,-93.4939 307.2547,-76.0941 224,-161.1236 165.7215,-220.6444 266.8013,-344.1236 183.5,-344.1236"/>
<polygon fill="#000000" stroke="#000000" points="487.0002,-95.0687 494.9753,-98.7235 491.0001,-95.0961 495,-95.1236 495,-95.1236 495,-95.1236 491.0001,-95.0961 495.0247,-91.5236 487.0002,-95.0687 487.0002,-95.0687"/>
<ellipse fill="none" stroke="#000000" cx="483.8003" cy="-95.0467" rx="3.2" ry="3.2"/>
</g>
<!-- sccs_result -->
<g id="node23" class="node">
<title>sccs_result</title>
<g id="a_node23"><a xlink:href="../../tables/sccs_result.html" xlink:title="sccs_result" target="_top">
<polygon fill="#ffffff" stroke="transparent" points="1091,-67.6236 1091,-128.6236 1204,-128.6236 1204,-67.6236 1091,-67.6236"/>
<polygon fill="#f5f5f5" stroke="transparent" points="1091.5,-105.1236 1091.5,-128.1236 1204.5,-128.1236 1204.5,-105.1236 1091.5,-105.1236"/>
<polygon fill="none" stroke="#000000" points="1091.5,-105.1236 1091.5,-128.1236 1204.5,-128.1236 1204.5,-105.1236 1091.5,-105.1236"/>
<text text-anchor="start" x="1096.5" y="-113.7236" font-family="Helvetica,sans-Serif" font-weight="bold" font-size="11.00" fill="#000000">sccs_result</text>
<text text-anchor="start" x="1170.0219" y="-113.2236" font-family="Helvetica,sans-Serif" font-size="11.00" fill="#000000">[table]</text>
<polygon fill="none" stroke="#000000" points="1091.5,-86.1236 1091.5,-105.1236 1204.5,-105.1236 1204.5,-86.1236 1091.5,-86.1236"/>
<text text-anchor="start" x="1094.5" y="-92.2236" font-family="Helvetica,sans-Serif" font-size="11.00" fill="#000000">...</text>
<polygon fill="#ffffff" stroke="transparent" points="1091.5,-67.1236 1091.5,-86.1236 1136.5,-86.1236 1136.5,-67.1236 1091.5,-67.1236"/>
<polygon fill="none" stroke="#000000" points="1091.5,-67.1236 1091.5,-86.1236 1136.5,-86.1236 1136.5,-67.1236 1091.5,-67.1236"/>
<text text-anchor="start" x="1094.5" y="-73.2236" font-family="Helvetica,sans-Serif" font-size="11.00" fill="#000000">&lt; 12</text>
<polygon fill="#ffffff" stroke="transparent" points="1136.5,-67.1236 1136.5,-86.1236 1183.5,-86.1236 1183.5,-67.1236 1136.5,-67.1236"/>
<polygon fill="none" stroke="#000000" points="1136.5,-67.1236 1136.5,-86.1236 1183.5,-86.1236 1183.5,-67.1236 1136.5,-67.1236"/>
<text text-anchor="start" x="1148.1105" y="-73.2236" font-family="Helvetica,sans-Serif" font-size="11.00" fill="#000000">0 rows</text>
<polygon fill="#ffffff" stroke="transparent" points="1183.5,-67.1236 1183.5,-86.1236 1204.5,-86.1236 1204.5,-67.1236 1183.5,-67.1236"/>
<polygon fill="none" stroke="#000000" points="1183.5,-67.1236 1183.5,-86.1236 1204.5,-86.1236 1204.5,-67.1236 1183.5,-67.1236"/>
<text text-anchor="start" x="1195.3862" y="-73.2236" font-family="Helvetica,sans-Serif" font-size="11.00" fill="#000000"> &#160;</text>
</a>
</g>
</g>
<!-- sccs_result&#45;&gt;database_meta_data -->
<g id="edge44" class="edge">
<title>sccs_result:w&#45;&gt;database_meta_data:e</title>
<path fill="none" stroke="#000000" d="M1077.1071,-95.8238C934.1433,-110.6564 1127.6093,-357.2968 1005,-467.1236 965.8262,-502.2133 818.7602,-475.4177 770,-495.1236 722.0965,-514.4832 676.0849,-552.3545 646.1945,-580.3975"/>
<polygon fill="#000000" stroke="#000000" points="1083.5094,-95.5123 1091.675,-98.7193 1087.5047,-95.318 1091.5,-95.1236 1091.5,-95.1236 1091.5,-95.1236 1087.5047,-95.318 1091.325,-91.5278 1083.5094,-95.5123 1083.5094,-95.5123"/>
<ellipse fill="none" stroke="#000000" cx="1080.3132" cy="-95.6679" rx="3.2" ry="3.2"/>
</g>
<!-- sccs_result&#45;&gt;sccs_diagnostics_summary -->
<g id="edge42" class="edge">
<title>sccs_result:w&#45;&gt;sccs_diagnostics_summary:e</title>
<path fill="none" stroke="#000000" d="M1078.0025,-89.2267C1046.844,-76.3845 1034.3819,-78.3501 997.5,-95.1236"/>
<polygon fill="#000000" stroke="#000000" points="1084.1691,-91.9207 1090.0587,-98.4225 1087.8345,-93.5221 1091.5,-95.1236 1091.5,-95.1236 1091.5,-95.1236 1087.8345,-93.5221 1092.9413,-91.8247 1084.1691,-91.9207 1084.1691,-91.9207"/>
<ellipse fill="none" stroke="#000000" cx="1081.2367" cy="-90.6396" rx="3.2" ry="3.2"/>
</g>
<!-- sccs_result&#45;&gt;sccs_diagnostics_summary -->
<g id="edge43" class="edge">
<title>sccs_result:w&#45;&gt;sccs_diagnostics_summary:e</title>
<path fill="none" stroke="#000000" d="M1077.1797,-93.1548C1046.6215,-89.2173 1034.0556,-89.8736 997.5,-95.1236"/>
<polygon fill="#000000" stroke="#000000" points="1083.5745,-94.0339 1091.0097,-98.69 1087.5373,-94.5787 1091.5,-95.1236 1091.5,-95.1236 1091.5,-95.1236 1087.5373,-94.5787 1091.9903,-91.5571 1083.5745,-94.0339 1083.5745,-94.0339"/>
<ellipse fill="none" stroke="#000000" cx="1080.4044" cy="-93.5981" rx="3.2" ry="3.2"/>
</g>
<!-- sccs_result&#45;&gt;sccs_diagnostics_summary -->
<g id="edge45" class="edge">
<title>sccs_result:w&#45;&gt;sccs_diagnostics_summary:e</title>
<path fill="none" stroke="#000000" d="M1077.1797,-97.4204C1046.6215,-102.0142 1034.0556,-101.2486 997.5,-95.1236"/>
<polygon fill="#000000" stroke="#000000" points="1083.601,-96.3906 1092.0701,-98.6781 1087.5505,-95.7571 1091.5,-95.1236 1091.5,-95.1236 1091.5,-95.1236 1087.5505,-95.7571 1090.9299,-91.569 1083.601,-96.3906 1083.601,-96.3906"/>
<ellipse fill="none" stroke="#000000" cx="1080.4413" cy="-96.8974" rx="3.2" ry="3.2"/>
</g>
<!-- sccs_result&#45;&gt;sccs_diagnostics_summary -->
<g id="edge46" class="edge">
<title>sccs_result:w&#45;&gt;sccs_diagnostics_summary:e</title>
<path fill="none" stroke="#000000" d="M1078.4173,-101.1505C1046.9538,-114.8669 1034.5451,-112.8579 997.5,-95.1236"/>
<polygon fill="#000000" stroke="#000000" points="1084.2339,-98.4709 1093.0063,-98.3933 1087.867,-96.7972 1091.5,-95.1236 1091.5,-95.1236 1091.5,-95.1236 1087.867,-96.7972 1089.9937,-91.8538 1084.2339,-98.4709 1084.2339,-98.4709"/>
<ellipse fill="none" stroke="#000000" cx="1081.3275" cy="-99.8098" rx="3.2" ry="3.2"/>
</g>
<!-- sccs_result&#45;&gt;sccs_exposures_outcome_set -->
<g id="edge47" class="edge">
<title>sccs_result:w&#45;&gt;sccs_exposures_outcome_set:e</title>
<path fill="none" stroke="#000000" d="M1077.0211,-93.7667C1048.0029,-87.8959 1040.7972,-64.6399 1005,-57.1236 902.7844,-35.6614 867.2352,-18.9928 770,-57.1236 746.8697,-66.1941 753.8452,-95.1236 729,-95.1236"/>
<polygon fill="#000000" stroke="#000000" points="1083.5349,-94.3771 1091.1641,-98.7079 1087.5174,-94.7503 1091.5,-95.1236 1091.5,-95.1236 1091.5,-95.1236 1087.5174,-94.7503 1091.8359,-91.5393 1083.5349,-94.3771 1083.5349,-94.3771"/>
<ellipse fill="none" stroke="#000000" cx="1080.3489" cy="-94.0785" rx="3.2" ry="3.2"/>
</g>
</g>
</svg>
