<?xml version="1.0" encoding="UTF-8" standalone="no"?>
<!DOCTYPE svg PUBLIC "-//W3C//DTD SVG 1.1//EN"
 "http://www.w3.org/Graphics/SVG/1.1/DTD/svg11.dtd">
<!-- Generated by graphviz version 2.40.1 (20161225.0304)
 -->
<!-- Title: oneDegreeRelationshipsDiagram Pages: 1 -->
<svg width="559pt" height="309pt"
 viewBox="0.00 0.00 559.00 308.70" xmlns="http://www.w3.org/2000/svg" xmlns:xlink="http://www.w3.org/1999/xlink">
<g id="graph0" class="graph" transform="scale(1 1) rotate(0) translate(4 304.7)">
<title>oneDegreeRelationshipsDiagram</title>
<polygon fill="#ffffff" stroke="transparent" points="-4,4 -4,-304.7 555,-304.7 555,4 -4,4"/>
<text text-anchor="middle" x="72.4936" y="-7.3" font-family="Helvetica,sans-Serif" font-size="11.00" fill="#000000">Generated by SchemaSpy</text>
<!-- c_covariates -->
<g id="node1" class="node">
<title>c_covariates</title>
<g id="a_node1"><a xlink:href="../../tables/c_covariates.html" xlink:title="c_covariates" target="_top">
<polygon fill="#ffffff" stroke="transparent" points="272,-38.2 272,-282.2 543,-282.2 543,-38.2 272,-38.2"/>
<polygon fill="#f5f5f5" stroke="transparent" points="274.5,-257.2 274.5,-280.2 541.5,-280.2 541.5,-257.2 274.5,-257.2"/>
<polygon fill="none" stroke="#000000" points="274.5,-257.2 274.5,-280.2 541.5,-280.2 541.5,-257.2 274.5,-257.2"/>
<text text-anchor="start" x="279.5" y="-265.8" font-family="Helvetica,sans-Serif" font-weight="bold" font-size="11.00" fill="#000000">c_covariates</text>
<text text-anchor="start" x="506.5437" y="-265.3" font-family="Helvetica,sans-Serif" font-size="11.00" fill="#000000">[table]</text>
<polygon fill="none" stroke="#000000" points="274.5,-235.2 274.5,-257.2 479.5,-257.2 479.5,-235.2 274.5,-235.2"/>
<text text-anchor="start" x="294.5" y="-242.3" font-family="Helvetica,sans-Serif" font-size="11.00" fill="#000000">average_value</text>
<polygon fill="none" stroke="#000000" points="479.5,-235.2 479.5,-257.2 541.5,-257.2 541.5,-235.2 479.5,-235.2"/>
<text text-anchor="start" x="482.378" y="-242.9" font-family="Helvetica,sans-Serif" font-size="11.00" fill="#000000">unknown[0]</text>
<polygon fill="none" stroke="#000000" points="274.5,-213.2 274.5,-235.2 479.5,-235.2 479.5,-213.2 274.5,-213.2"/>
<text text-anchor="start" x="294.5" y="-220.3" font-family="Helvetica,sans-Serif" font-size="11.00" fill="#000000">cohort_type</text>
<polygon fill="none" stroke="#000000" points="479.5,-213.2 479.5,-235.2 541.5,-235.2 541.5,-213.2 479.5,-213.2"/>
<text text-anchor="start" x="482.378" y="-220.9" font-family="Helvetica,sans-Serif" font-size="11.00" fill="#000000">unknown[0]</text>
<polygon fill="none" stroke="#000000" points="274.5,-191.2 274.5,-213.2 479.5,-213.2 479.5,-191.2 274.5,-191.2"/>
<image xlink:href="../../images/foreignKeys.png" width="11px" height="12px" preserveAspectRatio="xMinYMin meet" x="279.5" y="-208.2"/>
<text text-anchor="start" x="294.5" y="-198.3" font-family="Helvetica,sans-Serif" font-size="11.00" fill="#000000">covariate_id</text>
<polygon fill="none" stroke="#000000" points="479.5,-191.2 479.5,-213.2 541.5,-213.2 541.5,-191.2 479.5,-191.2"/>
<text text-anchor="start" x="482.378" y="-198.9" font-family="Helvetica,sans-Serif" font-size="11.00" fill="#000000">unknown[0]</text>
<polygon fill="none" stroke="#000000" points="274.5,-169.2 274.5,-191.2 479.5,-191.2 479.5,-169.2 274.5,-169.2"/>
<image xlink:href="../../images/foreignKeys.png" width="11px" height="12px" preserveAspectRatio="xMinYMin meet" x="279.5" y="-186.2"/>
<text text-anchor="start" x="294.5" y="-176.3" font-family="Helvetica,sans-Serif" font-size="11.00" fill="#000000">database_id</text>
<polygon fill="none" stroke="#000000" points="479.5,-169.2 479.5,-191.2 541.5,-191.2 541.5,-169.2 479.5,-169.2"/>
<text text-anchor="start" x="482.378" y="-176.9" font-family="Helvetica,sans-Serif" font-size="11.00" fill="#000000">unknown[0]</text>
<polygon fill="none" stroke="#000000" points="274.5,-147.2 274.5,-169.2 479.5,-169.2 479.5,-147.2 274.5,-147.2"/>
<text text-anchor="start" x="294.5" y="-154.3" font-family="Helvetica,sans-Serif" font-size="11.00" fill="#000000">min_characterization_mean</text>
<polygon fill="none" stroke="#000000" points="479.5,-147.2 479.5,-169.2 541.5,-169.2 541.5,-147.2 479.5,-147.2"/>
<text text-anchor="start" x="482.378" y="-154.9" font-family="Helvetica,sans-Serif" font-size="11.00" fill="#000000">unknown[0]</text>
<polygon fill="none" stroke="#000000" points="274.5,-125.2 274.5,-147.2 479.5,-147.2 479.5,-125.2 274.5,-125.2"/>
<text text-anchor="start" x="294.5" y="-132.3" font-family="Helvetica,sans-Serif" font-size="11.00" fill="#000000">outcome_cohort_id</text>
<polygon fill="none" stroke="#000000" points="479.5,-125.2 479.5,-147.2 541.5,-147.2 541.5,-125.2 479.5,-125.2"/>
<text text-anchor="start" x="482.378" y="-132.9" font-family="Helvetica,sans-Serif" font-size="11.00" fill="#000000">unknown[0]</text>
<polygon fill="none" stroke="#000000" points="274.5,-103.2 274.5,-125.2 479.5,-125.2 479.5,-103.2 274.5,-103.2"/>
<image xlink:href="../../images/foreignKeys.png" width="11px" height="12px" preserveAspectRatio="xMinYMin meet" x="279.5" y="-120.2"/>
<text text-anchor="start" x="294.5" y="-110.3" font-family="Helvetica,sans-Serif" font-size="11.00" fill="#000000">setting_id</text>
<polygon fill="none" stroke="#000000" points="479.5,-103.2 479.5,-125.2 541.5,-125.2 541.5,-103.2 479.5,-103.2"/>
<text text-anchor="start" x="482.378" y="-110.9" font-family="Helvetica,sans-Serif" font-size="11.00" fill="#000000">unknown[0]</text>
<polygon fill="none" stroke="#000000" points="274.5,-81.2 274.5,-103.2 479.5,-103.2 479.5,-81.2 274.5,-81.2"/>
<text text-anchor="start" x="294.5" y="-88.3" font-family="Helvetica,sans-Serif" font-size="11.00" fill="#000000">sum_value</text>
<polygon fill="none" stroke="#000000" points="479.5,-81.2 479.5,-103.2 541.5,-103.2 541.5,-81.2 479.5,-81.2"/>
<text text-anchor="start" x="482.378" y="-88.9" font-family="Helvetica,sans-Serif" font-size="11.00" fill="#000000">unknown[0]</text>
<polygon fill="none" stroke="#000000" points="274.5,-59.2 274.5,-81.2 479.5,-81.2 479.5,-59.2 274.5,-59.2"/>
<text text-anchor="start" x="294.5" y="-66.3" font-family="Helvetica,sans-Serif" font-size="11.00" fill="#000000">target_cohort_id</text>
<polygon fill="none" stroke="#000000" points="479.5,-59.2 479.5,-81.2 541.5,-81.2 541.5,-59.2 479.5,-59.2"/>
<text text-anchor="start" x="482.378" y="-66.9" font-family="Helvetica,sans-Serif" font-size="11.00" fill="#000000">unknown[0]</text>
<polygon fill="#ffffff" stroke="transparent" points="274.5,-40.2 274.5,-59.2 368.5,-59.2 368.5,-40.2 274.5,-40.2"/>
<polygon fill="none" stroke="#000000" points="274.5,-40.2 274.5,-59.2 368.5,-59.2 368.5,-40.2 274.5,-40.2"/>
<text text-anchor="start" x="277.5" y="-46.3" font-family="Helvetica,sans-Serif" font-size="11.00" fill="#000000">&lt; 7</text>
<polygon fill="#ffffff" stroke="transparent" points="368.5,-40.2 368.5,-59.2 479.5,-59.2 479.5,-40.2 368.5,-40.2"/>
<polygon fill="none" stroke="#000000" points="368.5,-40.2 368.5,-59.2 479.5,-59.2 479.5,-40.2 368.5,-40.2"/>
<text text-anchor="start" x="444.1105" y="-46.3" font-family="Helvetica,sans-Serif" font-size="11.00" fill="#000000">0 rows</text>
<polygon fill="#ffffff" stroke="transparent" points="479.5,-40.2 479.5,-59.2 541.5,-59.2 541.5,-40.2 479.5,-40.2"/>
<polygon fill="none" stroke="#000000" points="479.5,-40.2 479.5,-59.2 541.5,-59.2 541.5,-40.2 479.5,-40.2"/>
<text text-anchor="start" x="522.9053" y="-46.3" font-family="Helvetica,sans-Serif" font-size="11.00" fill="#000000">0 &gt;</text>
<polygon fill="none" stroke="#000000" stroke-width="2" points="273,-39.2 273,-281.2 542,-281.2 542,-39.2 273,-39.2"/>
</a>
</g>
</g>
<!-- c_covariate_ref -->
<g id="node2" class="node">
<title>c_covariate_ref</title>
<g id="a_node2"><a xlink:href="../../tables/c_covariate_ref.html" xlink:title="c_covariate_ref" target="_top">
<polygon fill="#ffffff" stroke="transparent" points="37,-169.7 37,-296.7 194,-296.7 194,-169.7 37,-169.7"/>
<polygon fill="#f5f5f5" stroke="transparent" points="37.5,-273.2 37.5,-296.2 194.5,-296.2 194.5,-273.2 37.5,-273.2"/>
<polygon fill="none" stroke="#000000" points="37.5,-273.2 37.5,-296.2 194.5,-296.2 194.5,-273.2 37.5,-273.2"/>
<text text-anchor="start" x="42.5" y="-281.8" font-family="Helvetica,sans-Serif" font-weight="bold" font-size="11.00" fill="#000000">c_covariate_ref</text>
<text text-anchor="start" x="159.5437" y="-281.3" font-family="Helvetica,sans-Serif" font-size="11.00" fill="#000000">[table]</text>
<polygon fill="none" stroke="#000000" points="37.5,-251.2 37.5,-273.2 194.5,-273.2 194.5,-251.2 37.5,-251.2"/>
<image xlink:href="../../images/primaryKeys.png" width="11px" height="12px" preserveAspectRatio="xMinYMin meet" x="42.5" y="-268.2"/>
<text text-anchor="start" x="57.5" y="-258.3" font-family="Helvetica,sans-Serif" font-size="11.00" fill="#000000">covariate_id</text>
<polygon fill="none" stroke="#000000" points="37.5,-229.2 37.5,-251.2 194.5,-251.2 194.5,-229.2 37.5,-229.2"/>
<image xlink:href="../../images/primaryKeys.png" width="11px" height="12px" preserveAspectRatio="xMinYMin meet" x="42.5" y="-246.2"/>
<text text-anchor="start" x="57.5" y="-236.3" font-family="Helvetica,sans-Serif" font-size="11.00" fill="#000000">database_id</text>
<polygon fill="none" stroke="#000000" points="37.5,-207.2 37.5,-229.2 194.5,-229.2 194.5,-207.2 37.5,-207.2"/>
<image xlink:href="../../images/primaryKeys.png" width="11px" height="12px" preserveAspectRatio="xMinYMin meet" x="42.5" y="-224.2"/>
<text text-anchor="start" x="57.5" y="-214.3" font-family="Helvetica,sans-Serif" font-size="11.00" fill="#000000">setting_id</text>
<polygon fill="none" stroke="#000000" points="37.5,-188.2 37.5,-207.2 194.5,-207.2 194.5,-188.2 37.5,-188.2"/>
<text text-anchor="start" x="40.5" y="-194.3" font-family="Helvetica,sans-Serif" font-size="11.00" fill="#000000">...</text>
<polygon fill="#ffffff" stroke="transparent" points="37.5,-169.2 37.5,-188.2 92.5,-188.2 92.5,-169.2 37.5,-169.2"/>
<polygon fill="none" stroke="#000000" points="37.5,-169.2 37.5,-188.2 92.5,-188.2 92.5,-169.2 37.5,-169.2"/>
<text text-anchor="start" x="40.5" y="-175.3" font-family="Helvetica,sans-Serif" font-size="11.00" fill="#000000"> &#160;</text>
<polygon fill="#ffffff" stroke="transparent" points="92.5,-169.2 92.5,-188.2 151.5,-188.2 151.5,-169.2 92.5,-169.2"/>
<polygon fill="none" stroke="#000000" points="92.5,-169.2 92.5,-188.2 151.5,-188.2 151.5,-169.2 92.5,-169.2"/>
<text text-anchor="start" x="116.1105" y="-175.3" font-family="Helvetica,sans-Serif" font-size="11.00" fill="#000000">0 rows</text>
<polygon fill="#ffffff" stroke="transparent" points="151.5,-169.2 151.5,-188.2 194.5,-188.2 194.5,-169.2 151.5,-169.2"/>
<polygon fill="none" stroke="#000000" points="151.5,-169.2 151.5,-188.2 194.5,-188.2 194.5,-169.2 151.5,-169.2"/>
<text text-anchor="start" x="175.9053" y="-175.3" font-family="Helvetica,sans-Serif" font-size="11.00" fill="#000000">6 &gt;</text>
</a>
</g>
</g>
<!-- c_covariates&#45;&gt;c_covariate_ref -->
<g id="edge1" class="edge">
<title>c_covariates:w&#45;&gt;c_covariate_ref:e</title>
<path fill="none" stroke="#000000" d="M260.125,-204.7781C231.4444,-216.2625 233.3889,-262.2 194.5,-262.2"/>
<polygon fill="#000000" stroke="#000000" points="266.6256,-203.6123 275.1355,-205.7435 270.5628,-202.9061 274.5,-202.2 274.5,-202.2 274.5,-202.2 270.5628,-202.9061 273.8645,-198.6565 266.6256,-203.6123 266.6256,-203.6123"/>
<ellipse fill="none" stroke="#000000" cx="263.4759" cy="-204.1772" rx="3.2" ry="3.2"/>
</g>
<!-- c_covariates&#45;&gt;c_covariate_ref -->
<g id="edge2" class="edge">
<title>c_covariates:w&#45;&gt;c_covariate_ref:e</title>
<path fill="none" stroke="#000000" d="M260.125,-182.7781C231.4444,-194.2625 233.3889,-240.2 194.5,-240.2"/>
<polygon fill="#000000" stroke="#000000" points="266.6256,-181.6123 275.1355,-183.7435 270.5628,-180.9061 274.5,-180.2 274.5,-180.2 274.5,-180.2 270.5628,-180.9061 273.8645,-176.6565 266.6256,-181.6123 266.6256,-181.6123"/>
<ellipse fill="none" stroke="#000000" cx="263.4759" cy="-182.1772" rx="3.2" ry="3.2"/>
</g>
<!-- c_covariates&#45;&gt;c_covariate_ref -->
<g id="edge5" class="edge">
<title>c_covariates:w&#45;&gt;c_covariate_ref:e</title>
<path fill="none" stroke="#000000" d="M259.955,-116.9817C222.4335,-133.5207 247.1206,-218.2 194.5,-218.2"/>
<polygon fill="#000000" stroke="#000000" points="266.6424,-115.7028 275.1763,-117.7359 270.5712,-114.9514 274.5,-114.2 274.5,-114.2 274.5,-114.2 270.5712,-114.9514 273.8237,-110.6641 266.6424,-115.7028 266.6424,-115.7028"/>
<ellipse fill="none" stroke="#000000" cx="263.4994" cy="-116.3039" rx="3.2" ry="3.2"/>
</g>
<!-- c_settings -->
<g id="node3" class="node">
<title>c_settings</title>
<g id="a_node3"><a xlink:href="../../tables/c_settings.html" xlink:title="c_settings" target="_top">
<polygon fill="#ffffff" stroke="transparent" points="8,-43.7 8,-148.7 223,-148.7 223,-43.7 8,-43.7"/>
<polygon fill="#f5f5f5" stroke="transparent" points="8.5,-125.2 8.5,-148.2 223.5,-148.2 223.5,-125.2 8.5,-125.2"/>
<polygon fill="none" stroke="#000000" points="8.5,-125.2 8.5,-148.2 223.5,-148.2 223.5,-125.2 8.5,-125.2"/>
<text text-anchor="start" x="13.5" y="-133.8" font-family="Helvetica,sans-Serif" font-weight="bold" font-size="11.00" fill="#000000">c_settings</text>
<text text-anchor="start" x="188.5437" y="-133.3" font-family="Helvetica,sans-Serif" font-size="11.00" fill="#000000">[table]</text>
<polygon fill="none" stroke="#000000" points="8.5,-103.2 8.5,-125.2 223.5,-125.2 223.5,-103.2 8.5,-103.2"/>
<image xlink:href="../../images/primaryKeys.png" width="11px" height="12px" preserveAspectRatio="xMinYMin meet" x="13.5" y="-120.2"/>
<text text-anchor="start" x="28.5" y="-110.3" font-family="Helvetica,sans-Serif" font-size="11.00" fill="#000000">database_id</text>
<polygon fill="none" stroke="#000000" points="8.5,-81.2 8.5,-103.2 223.5,-103.2 223.5,-81.2 8.5,-81.2"/>
<image xlink:href="../../images/primaryKeys.png" width="11px" height="12px" preserveAspectRatio="xMinYMin meet" x="13.5" y="-98.2"/>
<text text-anchor="start" x="28.5" y="-88.3" font-family="Helvetica,sans-Serif" font-size="11.00" fill="#000000">setting_id</text>
<polygon fill="none" stroke="#000000" points="8.5,-62.2 8.5,-81.2 223.5,-81.2 223.5,-62.2 8.5,-62.2"/>
<text text-anchor="start" x="11.5" y="-68.3" font-family="Helvetica,sans-Serif" font-size="11.00" fill="#000000">...</text>
<polygon fill="#ffffff" stroke="transparent" points="8.5,-43.2 8.5,-62.2 96.5,-62.2 96.5,-43.2 8.5,-43.2"/>
<polygon fill="none" stroke="#000000" points="8.5,-43.2 8.5,-62.2 96.5,-62.2 96.5,-43.2 8.5,-43.2"/>
<text text-anchor="start" x="11.5" y="-49.3" font-family="Helvetica,sans-Serif" font-size="11.00" fill="#000000">&lt; 3</text>
<polygon fill="#ffffff" stroke="transparent" points="96.5,-43.2 96.5,-62.2 168.5,-62.2 168.5,-43.2 96.5,-43.2"/>
<polygon fill="none" stroke="#000000" points="96.5,-43.2 96.5,-62.2 168.5,-62.2 168.5,-43.2 96.5,-43.2"/>
<text text-anchor="start" x="133.1105" y="-49.3" font-family="Helvetica,sans-Serif" font-size="11.00" fill="#000000">0 rows</text>
<polygon fill="#ffffff" stroke="transparent" points="168.5,-43.2 168.5,-62.2 223.5,-62.2 223.5,-43.2 168.5,-43.2"/>
<polygon fill="none" stroke="#000000" points="168.5,-43.2 168.5,-62.2 223.5,-62.2 223.5,-43.2 168.5,-43.2"/>
<text text-anchor="start" x="204.9053" y="-49.3" font-family="Helvetica,sans-Serif" font-size="11.00" fill="#000000">6 &gt;</text>
</a>
</g>
</g>
<!-- c_covariates&#45;&gt;c_settings -->
<g id="edge3" class="edge">
<title>c_covariates:w&#45;&gt;c_settings:e</title>
<path fill="none" stroke="#000000" d="M260.5846,-175.4534C243.402,-160.3202 254.4886,-114.2 223.5,-114.2"/>
<polygon fill="#000000" stroke="#000000" points="266.9284,-177.6173 273.3378,-183.6072 270.7142,-178.9086 274.5,-180.2 274.5,-180.2 274.5,-180.2 270.7142,-178.9086 275.6622,-176.7928 266.9284,-177.6173 266.9284,-177.6173"/>
<ellipse fill="none" stroke="#000000" cx="263.8997" cy="-176.5842" rx="3.2" ry="3.2"/>
</g>
<!-- c_covariates&#45;&gt;c_settings -->
<g id="edge4" class="edge">
<title>c_covariates:w&#45;&gt;c_settings:e</title>
<path fill="none" stroke="#000000" d="M260.5699,-175.9556C238.2709,-158.3772 262.7009,-92.2 223.5,-92.2"/>
<polygon fill="#000000" stroke="#000000" points="266.8473,-177.8682 273.4507,-183.6437 270.6737,-179.0341 274.5,-180.2 274.5,-180.2 274.5,-180.2 270.6737,-179.0341 275.5493,-176.7563 266.8473,-177.8682 266.8473,-177.8682"/>
<ellipse fill="none" stroke="#000000" cx="263.7863" cy="-176.9355" rx="3.2" ry="3.2"/>
</g>
<!-- c_covariates&#45;&gt;c_settings -->
<g id="edge6" class="edge">
<title>c_covariates:w&#45;&gt;c_settings:e</title>
<path fill="none" stroke="#000000" d="M259.776,-114.2C247.7815,-114.2 240.3229,-114.2 223.5,-114.2"/>
<polygon fill="#000000" stroke="#000000" points="266.5,-114.2001 274.5,-117.8 270.5,-114.2 274.5,-114.2 274.5,-114.2 274.5,-114.2 270.5,-114.2 274.5,-110.6 266.5,-114.2001 266.5,-114.2001"/>
<ellipse fill="none" stroke="#000000" cx="263.3" cy="-114.2001" rx="3.2" ry="3.2"/>
</g>
<!-- c_covariates&#45;&gt;c_settings -->
<g id="edge7" class="edge">
<title>c_covariates:w&#45;&gt;c_settings:e</title>
<path fill="none" stroke="#000000" d="M260.3489,-111.141C247.7843,-105.096 242.4,-92.2 223.5,-92.2"/>
<polygon fill="#000000" stroke="#000000" points="266.6806,-112.5097 273.7393,-117.7187 270.5903,-113.3548 274.5,-114.2 274.5,-114.2 274.5,-114.2 270.5903,-113.3548 275.2607,-110.6813 266.6806,-112.5097 266.6806,-112.5097"/>
<ellipse fill="none" stroke="#000000" cx="263.5528" cy="-111.8335" rx="3.2" ry="3.2"/>
</g>
</g>
</svg>
