<?xml version="1.0" encoding="UTF-8" standalone="no"?>
<!DOCTYPE svg PUBLIC "-//W3C//DTD SVG 1.1//EN"
 "http://www.w3.org/Graphics/SVG/1.1/DTD/svg11.dtd">
<!-- Generated by graphviz version 2.40.1 (20161225.0304)
 -->
<!-- Title: oneDegreeRelationshipsDiagram Pages: 1 -->
<svg width="328pt" height="536pt"
 viewBox="0.00 0.00 328.00 536.20" xmlns="http://www.w3.org/2000/svg" xmlns:xlink="http://www.w3.org/1999/xlink">
<g id="graph0" class="graph" transform="scale(1 1) rotate(0) translate(4 532.2)">
<title>oneDegreeRelationshipsDiagram</title>
<polygon fill="#ffffff" stroke="transparent" points="-4,4 -4,-532.2 324,-532.2 324,4 -4,4"/>
<text text-anchor="middle" x="72.4936" y="-7.3" font-family="Helvetica,sans-Serif" font-size="11.00" fill="#000000">Generated by SchemaSpy</text>
<!-- c_dechallenge_rechallenge -->
<g id="node1" class="node">
<title>c_dechallenge_rechallenge</title>
<g id="a_node1"><a xlink:href="../../tables/c_dechallenge_rechallenge.html" xlink:title="c_dechallenge_rechallenge" target="_top">
<polygon fill="#ffffff" stroke="transparent" points="8,-38.2 8,-524.2 312,-524.2 312,-38.2 8,-38.2"/>
<polygon fill="#f5f5f5" stroke="transparent" points="10,-499.2 10,-522.2 310,-522.2 310,-499.2 10,-499.2"/>
<polygon fill="none" stroke="#000000" points="10,-499.2 10,-522.2 310,-522.2 310,-499.2 10,-499.2"/>
<text text-anchor="start" x="15" y="-507.8" font-family="Helvetica,sans-Serif" font-weight="bold" font-size="11.00" fill="#000000">c_dechallenge_rechallenge</text>
<text text-anchor="start" x="275.0437" y="-507.3" font-family="Helvetica,sans-Serif" font-size="11.00" fill="#000000">[table]</text>
<polygon fill="none" stroke="#000000" points="10,-477.2 10,-499.2 248,-499.2 248,-477.2 10,-477.2"/>
<text text-anchor="start" x="30" y="-484.3" font-family="Helvetica,sans-Serif" font-size="11.00" fill="#000000">database_id</text>
<polygon fill="none" stroke="#000000" points="248,-477.2 248,-499.2 310,-499.2 310,-477.2 248,-477.2"/>
<text text-anchor="start" x="250.878" y="-484.9" font-family="Helvetica,sans-Serif" font-size="11.00" fill="#000000">unknown[0]</text>
<polygon fill="none" stroke="#000000" points="10,-455.2 10,-477.2 248,-477.2 248,-455.2 10,-455.2"/>
<text text-anchor="start" x="30" y="-462.3" font-family="Helvetica,sans-Serif" font-size="11.00" fill="#000000">dechallenge_attempt</text>
<polygon fill="none" stroke="#000000" points="248,-455.2 248,-477.2 310,-477.2 310,-455.2 248,-455.2"/>
<text text-anchor="start" x="250.878" y="-462.9" font-family="Helvetica,sans-Serif" font-size="11.00" fill="#000000">unknown[0]</text>
<polygon fill="none" stroke="#000000" points="10,-433.2 10,-455.2 248,-455.2 248,-433.2 10,-433.2"/>
<text text-anchor="start" x="30" y="-440.3" font-family="Helvetica,sans-Serif" font-size="11.00" fill="#000000">dechallenge_evaluation_window</text>
<polygon fill="none" stroke="#000000" points="248,-433.2 248,-455.2 310,-455.2 310,-433.2 248,-433.2"/>
<text text-anchor="start" x="250.878" y="-440.9" font-family="Helvetica,sans-Serif" font-size="11.00" fill="#000000">unknown[0]</text>
<polygon fill="none" stroke="#000000" points="10,-411.2 10,-433.2 248,-433.2 248,-411.2 10,-411.2"/>
<text text-anchor="start" x="30" y="-418.3" font-family="Helvetica,sans-Serif" font-size="11.00" fill="#000000">dechallenge_fail</text>
<polygon fill="none" stroke="#000000" points="248,-411.2 248,-433.2 310,-433.2 310,-411.2 248,-411.2"/>
<text text-anchor="start" x="250.878" y="-418.9" font-family="Helvetica,sans-Serif" font-size="11.00" fill="#000000">unknown[0]</text>
<polygon fill="none" stroke="#000000" points="10,-389.2 10,-411.2 248,-411.2 248,-389.2 10,-389.2"/>
<text text-anchor="start" x="30" y="-396.3" font-family="Helvetica,sans-Serif" font-size="11.00" fill="#000000">dechallenge_stop_interval</text>
<polygon fill="none" stroke="#000000" points="248,-389.2 248,-411.2 310,-411.2 310,-389.2 248,-389.2"/>
<text text-anchor="start" x="250.878" y="-396.9" font-family="Helvetica,sans-Serif" font-size="11.00" fill="#000000">unknown[0]</text>
<polygon fill="none" stroke="#000000" points="10,-367.2 10,-389.2 248,-389.2 248,-367.2 10,-367.2"/>
<text text-anchor="start" x="30" y="-374.3" font-family="Helvetica,sans-Serif" font-size="11.00" fill="#000000">dechallenge_success</text>
<polygon fill="none" stroke="#000000" points="248,-367.2 248,-389.2 310,-389.2 310,-367.2 248,-367.2"/>
<text text-anchor="start" x="250.878" y="-374.9" font-family="Helvetica,sans-Serif" font-size="11.00" fill="#000000">unknown[0]</text>
<polygon fill="none" stroke="#000000" points="10,-345.2 10,-367.2 248,-367.2 248,-345.2 10,-345.2"/>
<text text-anchor="start" x="30" y="-352.3" font-family="Helvetica,sans-Serif" font-size="11.00" fill="#000000">num_cases</text>
<polygon fill="none" stroke="#000000" points="248,-345.2 248,-367.2 310,-367.2 310,-345.2 248,-345.2"/>
<text text-anchor="start" x="250.878" y="-352.9" font-family="Helvetica,sans-Serif" font-size="11.00" fill="#000000">unknown[0]</text>
<polygon fill="none" stroke="#000000" points="10,-323.2 10,-345.2 248,-345.2 248,-323.2 10,-323.2"/>
<text text-anchor="start" x="30" y="-330.3" font-family="Helvetica,sans-Serif" font-size="11.00" fill="#000000">num_exposure_eras</text>
<polygon fill="none" stroke="#000000" points="248,-323.2 248,-345.2 310,-345.2 310,-323.2 248,-323.2"/>
<text text-anchor="start" x="250.878" y="-330.9" font-family="Helvetica,sans-Serif" font-size="11.00" fill="#000000">unknown[0]</text>
<polygon fill="none" stroke="#000000" points="10,-301.2 10,-323.2 248,-323.2 248,-301.2 10,-301.2"/>
<text text-anchor="start" x="30" y="-308.3" font-family="Helvetica,sans-Serif" font-size="11.00" fill="#000000">num_persons_exposed</text>
<polygon fill="none" stroke="#000000" points="248,-301.2 248,-323.2 310,-323.2 310,-301.2 248,-301.2"/>
<text text-anchor="start" x="250.878" y="-308.9" font-family="Helvetica,sans-Serif" font-size="11.00" fill="#000000">unknown[0]</text>
<polygon fill="none" stroke="#000000" points="10,-279.2 10,-301.2 248,-301.2 248,-279.2 10,-279.2"/>
<text text-anchor="start" x="30" y="-286.3" font-family="Helvetica,sans-Serif" font-size="11.00" fill="#000000">outcome_cohort_definition_id</text>
<polygon fill="none" stroke="#000000" points="248,-279.2 248,-301.2 310,-301.2 310,-279.2 248,-279.2"/>
<text text-anchor="start" x="250.878" y="-286.9" font-family="Helvetica,sans-Serif" font-size="11.00" fill="#000000">unknown[0]</text>
<polygon fill="none" stroke="#000000" points="10,-257.2 10,-279.2 248,-279.2 248,-257.2 10,-257.2"/>
<text text-anchor="start" x="30" y="-264.3" font-family="Helvetica,sans-Serif" font-size="11.00" fill="#000000">pct_dechallenge_attempt</text>
<polygon fill="none" stroke="#000000" points="248,-257.2 248,-279.2 310,-279.2 310,-257.2 248,-257.2"/>
<text text-anchor="start" x="250.878" y="-264.9" font-family="Helvetica,sans-Serif" font-size="11.00" fill="#000000">unknown[0]</text>
<polygon fill="none" stroke="#000000" points="10,-235.2 10,-257.2 248,-257.2 248,-235.2 10,-235.2"/>
<text text-anchor="start" x="30" y="-242.3" font-family="Helvetica,sans-Serif" font-size="11.00" fill="#000000">pct_dechallenge_fail</text>
<polygon fill="none" stroke="#000000" points="248,-235.2 248,-257.2 310,-257.2 310,-235.2 248,-235.2"/>
<text text-anchor="start" x="250.878" y="-242.9" font-family="Helvetica,sans-Serif" font-size="11.00" fill="#000000">unknown[0]</text>
<polygon fill="none" stroke="#000000" points="10,-213.2 10,-235.2 248,-235.2 248,-213.2 10,-213.2"/>
<text text-anchor="start" x="30" y="-220.3" font-family="Helvetica,sans-Serif" font-size="11.00" fill="#000000">pct_dechallenge_success</text>
<polygon fill="none" stroke="#000000" points="248,-213.2 248,-235.2 310,-235.2 310,-213.2 248,-213.2"/>
<text text-anchor="start" x="250.878" y="-220.9" font-family="Helvetica,sans-Serif" font-size="11.00" fill="#000000">unknown[0]</text>
<polygon fill="none" stroke="#000000" points="10,-191.2 10,-213.2 248,-213.2 248,-191.2 10,-191.2"/>
<text text-anchor="start" x="30" y="-198.3" font-family="Helvetica,sans-Serif" font-size="11.00" fill="#000000">pct_rechallenge_attempt</text>
<polygon fill="none" stroke="#000000" points="248,-191.2 248,-213.2 310,-213.2 310,-191.2 248,-191.2"/>
<text text-anchor="start" x="250.878" y="-198.9" font-family="Helvetica,sans-Serif" font-size="11.00" fill="#000000">unknown[0]</text>
<polygon fill="none" stroke="#000000" points="10,-169.2 10,-191.2 248,-191.2 248,-169.2 10,-169.2"/>
<text text-anchor="start" x="30" y="-176.3" font-family="Helvetica,sans-Serif" font-size="11.00" fill="#000000">pct_rechallenge_fail</text>
<polygon fill="none" stroke="#000000" points="248,-169.2 248,-191.2 310,-191.2 310,-169.2 248,-169.2"/>
<text text-anchor="start" x="250.878" y="-176.9" font-family="Helvetica,sans-Serif" font-size="11.00" fill="#000000">unknown[0]</text>
<polygon fill="none" stroke="#000000" points="10,-147.2 10,-169.2 248,-169.2 248,-147.2 10,-147.2"/>
<text text-anchor="start" x="30" y="-154.3" font-family="Helvetica,sans-Serif" font-size="11.00" fill="#000000">pct_rechallenge_success</text>
<polygon fill="none" stroke="#000000" points="248,-147.2 248,-169.2 310,-169.2 310,-147.2 248,-147.2"/>
<text text-anchor="start" x="250.878" y="-154.9" font-family="Helvetica,sans-Serif" font-size="11.00" fill="#000000">unknown[0]</text>
<polygon fill="none" stroke="#000000" points="10,-125.2 10,-147.2 248,-147.2 248,-125.2 10,-125.2"/>
<text text-anchor="start" x="30" y="-132.3" font-family="Helvetica,sans-Serif" font-size="11.00" fill="#000000">rechallenge_attempt</text>
<polygon fill="none" stroke="#000000" points="248,-125.2 248,-147.2 310,-147.2 310,-125.2 248,-125.2"/>
<text text-anchor="start" x="250.878" y="-132.9" font-family="Helvetica,sans-Serif" font-size="11.00" fill="#000000">unknown[0]</text>
<polygon fill="none" stroke="#000000" points="10,-103.2 10,-125.2 248,-125.2 248,-103.2 10,-103.2"/>
<text text-anchor="start" x="30" y="-110.3" font-family="Helvetica,sans-Serif" font-size="11.00" fill="#000000">rechallenge_fail</text>
<polygon fill="none" stroke="#000000" points="248,-103.2 248,-125.2 310,-125.2 310,-103.2 248,-103.2"/>
<text text-anchor="start" x="250.878" y="-110.9" font-family="Helvetica,sans-Serif" font-size="11.00" fill="#000000">unknown[0]</text>
<polygon fill="none" stroke="#000000" points="10,-81.2 10,-103.2 248,-103.2 248,-81.2 10,-81.2"/>
<text text-anchor="start" x="30" y="-88.3" font-family="Helvetica,sans-Serif" font-size="11.00" fill="#000000">rechallenge_success</text>
<polygon fill="none" stroke="#000000" points="248,-81.2 248,-103.2 310,-103.2 310,-81.2 248,-81.2"/>
<text text-anchor="start" x="250.878" y="-88.9" font-family="Helvetica,sans-Serif" font-size="11.00" fill="#000000">unknown[0]</text>
<polygon fill="none" stroke="#000000" points="10,-59.2 10,-81.2 248,-81.2 248,-59.2 10,-59.2"/>
<text text-anchor="start" x="30" y="-66.3" font-family="Helvetica,sans-Serif" font-size="11.00" fill="#000000">target_cohort_definition_id</text>
<polygon fill="none" stroke="#000000" points="248,-59.2 248,-81.2 310,-81.2 310,-59.2 248,-59.2"/>
<text text-anchor="start" x="250.878" y="-66.9" font-family="Helvetica,sans-Serif" font-size="11.00" fill="#000000">unknown[0]</text>
<polygon fill="#ffffff" stroke="transparent" points="10,-40.2 10,-59.2 120,-59.2 120,-40.2 10,-40.2"/>
<polygon fill="none" stroke="#000000" points="10,-40.2 10,-59.2 120,-59.2 120,-40.2 10,-40.2"/>
<text text-anchor="start" x="13" y="-46.3" font-family="Helvetica,sans-Serif" font-size="11.00" fill="#000000">&lt; 0</text>
<polygon fill="#ffffff" stroke="transparent" points="120,-40.2 120,-59.2 248,-59.2 248,-40.2 120,-40.2"/>
<polygon fill="none" stroke="#000000" points="120,-40.2 120,-59.2 248,-59.2 248,-40.2 120,-40.2"/>
<text text-anchor="start" x="212.6105" y="-46.3" font-family="Helvetica,sans-Serif" font-size="11.00" fill="#000000">0 rows</text>
<polygon fill="#ffffff" stroke="transparent" points="248,-40.2 248,-59.2 310,-59.2 310,-40.2 248,-40.2"/>
<polygon fill="none" stroke="#000000" points="248,-40.2 248,-59.2 310,-59.2 310,-40.2 248,-40.2"/>
<text text-anchor="start" x="291.4053" y="-46.3" font-family="Helvetica,sans-Serif" font-size="11.00" fill="#000000">0 &gt;</text>
<polygon fill="none" stroke="#000000" stroke-width="2" points="9,-39.2 9,-523.2 311,-523.2 311,-39.2 9,-39.2"/>
</a>
</g>
</g>
</g>
</svg>
