<?xml version="1.0" encoding="UTF-8" standalone="no"?>
<!DOCTYPE svg PUBLIC "-//W3C//DTD SVG 1.1//EN"
 "http://www.w3.org/Graphics/SVG/1.1/DTD/svg11.dtd">
<!-- Generated by graphviz version 2.40.1 (20161225.0304)
 -->
<!-- Title: oneDegreeRelationshipsDiagram Pages: 1 -->
<svg width="382pt" height="470pt"
 viewBox="0.00 0.00 382.00 470.20" xmlns="http://www.w3.org/2000/svg" xmlns:xlink="http://www.w3.org/1999/xlink">
<g id="graph0" class="graph" transform="scale(1 1) rotate(0) translate(4 466.2)">
<title>oneDegreeRelationshipsDiagram</title>
<polygon fill="#ffffff" stroke="transparent" points="-4,4 -4,-466.2 378,-466.2 378,4 -4,4"/>
<text text-anchor="middle" x="72.4936" y="-7.3" font-family="Helvetica,sans-Serif" font-size="11.00" fill="#000000">Generated by SchemaSpy</text>
<!-- c_rechallenge_fail_case_series -->
<g id="node1" class="node">
<title>c_rechallenge_fail_case_series</title>
<g id="a_node1"><a xlink:href="../../tables/c_rechallenge_fail_case_series.html" xlink:title="c_rechallenge_fail_case_series" target="_top">
<polygon fill="#ffffff" stroke="transparent" points="8,-38.2 8,-458.2 366,-458.2 366,-38.2 8,-38.2"/>
<polygon fill="#f5f5f5" stroke="transparent" points="10,-433.2 10,-456.2 364,-456.2 364,-433.2 10,-433.2"/>
<polygon fill="none" stroke="#000000" points="10,-433.2 10,-456.2 364,-456.2 364,-433.2 10,-433.2"/>
<text text-anchor="start" x="15" y="-441.8" font-family="Helvetica,sans-Serif" font-weight="bold" font-size="11.00" fill="#000000">c_rechallenge_fail_case_series</text>
<text text-anchor="start" x="329.0437" y="-441.3" font-family="Helvetica,sans-Serif" font-size="11.00" fill="#000000">[table]</text>
<polygon fill="none" stroke="#000000" points="10,-411.2 10,-433.2 302,-433.2 302,-411.2 10,-411.2"/>
<text text-anchor="start" x="30" y="-418.3" font-family="Helvetica,sans-Serif" font-size="11.00" fill="#000000">database_id</text>
<polygon fill="none" stroke="#000000" points="302,-411.2 302,-433.2 364,-433.2 364,-411.2 302,-411.2"/>
<text text-anchor="start" x="304.878" y="-418.9" font-family="Helvetica,sans-Serif" font-size="11.00" fill="#000000">unknown[0]</text>
<polygon fill="none" stroke="#000000" points="10,-389.2 10,-411.2 302,-411.2 302,-389.2 10,-389.2"/>
<text text-anchor="start" x="30" y="-396.3" font-family="Helvetica,sans-Serif" font-size="11.00" fill="#000000">dechallenge_evaluation_window</text>
<polygon fill="none" stroke="#000000" points="302,-389.2 302,-411.2 364,-411.2 364,-389.2 302,-389.2"/>
<text text-anchor="start" x="304.878" y="-396.9" font-family="Helvetica,sans-Serif" font-size="11.00" fill="#000000">unknown[0]</text>
<polygon fill="none" stroke="#000000" points="10,-367.2 10,-389.2 302,-389.2 302,-367.2 10,-367.2"/>
<text text-anchor="start" x="30" y="-374.3" font-family="Helvetica,sans-Serif" font-size="11.00" fill="#000000">dechallenge_exposure_end_date_offset</text>
<polygon fill="none" stroke="#000000" points="302,-367.2 302,-389.2 364,-389.2 364,-367.2 302,-367.2"/>
<text text-anchor="start" x="304.878" y="-374.9" font-family="Helvetica,sans-Serif" font-size="11.00" fill="#000000">unknown[0]</text>
<polygon fill="none" stroke="#000000" points="10,-345.2 10,-367.2 302,-367.2 302,-345.2 10,-345.2"/>
<text text-anchor="start" x="30" y="-352.3" font-family="Helvetica,sans-Serif" font-size="11.00" fill="#000000">dechallenge_exposure_number</text>
<polygon fill="none" stroke="#000000" points="302,-345.2 302,-367.2 364,-367.2 364,-345.2 302,-345.2"/>
<text text-anchor="start" x="304.878" y="-352.9" font-family="Helvetica,sans-Serif" font-size="11.00" fill="#000000">unknown[0]</text>
<polygon fill="none" stroke="#000000" points="10,-323.2 10,-345.2 302,-345.2 302,-323.2 10,-323.2"/>
<text text-anchor="start" x="30" y="-330.3" font-family="Helvetica,sans-Serif" font-size="11.00" fill="#000000">dechallenge_exposure_start_date_offset</text>
<polygon fill="none" stroke="#000000" points="302,-323.2 302,-345.2 364,-345.2 364,-323.2 302,-323.2"/>
<text text-anchor="start" x="304.878" y="-330.9" font-family="Helvetica,sans-Serif" font-size="11.00" fill="#000000">unknown[0]</text>
<polygon fill="none" stroke="#000000" points="10,-301.2 10,-323.2 302,-323.2 302,-301.2 10,-301.2"/>
<text text-anchor="start" x="30" y="-308.3" font-family="Helvetica,sans-Serif" font-size="11.00" fill="#000000">dechallenge_outcome_number</text>
<polygon fill="none" stroke="#000000" points="302,-301.2 302,-323.2 364,-323.2 364,-301.2 302,-301.2"/>
<text text-anchor="start" x="304.878" y="-308.9" font-family="Helvetica,sans-Serif" font-size="11.00" fill="#000000">unknown[0]</text>
<polygon fill="none" stroke="#000000" points="10,-279.2 10,-301.2 302,-301.2 302,-279.2 10,-279.2"/>
<text text-anchor="start" x="30" y="-286.3" font-family="Helvetica,sans-Serif" font-size="11.00" fill="#000000">dechallenge_outcome_start_date_offset</text>
<polygon fill="none" stroke="#000000" points="302,-279.2 302,-301.2 364,-301.2 364,-279.2 302,-279.2"/>
<text text-anchor="start" x="304.878" y="-286.9" font-family="Helvetica,sans-Serif" font-size="11.00" fill="#000000">unknown[0]</text>
<polygon fill="none" stroke="#000000" points="10,-257.2 10,-279.2 302,-279.2 302,-257.2 10,-257.2"/>
<text text-anchor="start" x="30" y="-264.3" font-family="Helvetica,sans-Serif" font-size="11.00" fill="#000000">dechallenge_stop_interval</text>
<polygon fill="none" stroke="#000000" points="302,-257.2 302,-279.2 364,-279.2 364,-257.2 302,-257.2"/>
<text text-anchor="start" x="304.878" y="-264.9" font-family="Helvetica,sans-Serif" font-size="11.00" fill="#000000">unknown[0]</text>
<polygon fill="none" stroke="#000000" points="10,-235.2 10,-257.2 302,-257.2 302,-235.2 10,-235.2"/>
<text text-anchor="start" x="30" y="-242.3" font-family="Helvetica,sans-Serif" font-size="11.00" fill="#000000">outcome_cohort_definition_id</text>
<polygon fill="none" stroke="#000000" points="302,-235.2 302,-257.2 364,-257.2 364,-235.2 302,-235.2"/>
<text text-anchor="start" x="304.878" y="-242.9" font-family="Helvetica,sans-Serif" font-size="11.00" fill="#000000">unknown[0]</text>
<polygon fill="none" stroke="#000000" points="10,-213.2 10,-235.2 302,-235.2 302,-213.2 10,-213.2"/>
<text text-anchor="start" x="30" y="-220.3" font-family="Helvetica,sans-Serif" font-size="11.00" fill="#000000">person_key</text>
<polygon fill="none" stroke="#000000" points="302,-213.2 302,-235.2 364,-235.2 364,-213.2 302,-213.2"/>
<text text-anchor="start" x="304.878" y="-220.9" font-family="Helvetica,sans-Serif" font-size="11.00" fill="#000000">unknown[0]</text>
<polygon fill="none" stroke="#000000" points="10,-191.2 10,-213.2 302,-213.2 302,-191.2 10,-191.2"/>
<text text-anchor="start" x="30" y="-198.3" font-family="Helvetica,sans-Serif" font-size="11.00" fill="#000000">rechallenge_exposure_end_date_offset</text>
<polygon fill="none" stroke="#000000" points="302,-191.2 302,-213.2 364,-213.2 364,-191.2 302,-191.2"/>
<text text-anchor="start" x="304.878" y="-198.9" font-family="Helvetica,sans-Serif" font-size="11.00" fill="#000000">unknown[0]</text>
<polygon fill="none" stroke="#000000" points="10,-169.2 10,-191.2 302,-191.2 302,-169.2 10,-169.2"/>
<text text-anchor="start" x="30" y="-176.3" font-family="Helvetica,sans-Serif" font-size="11.00" fill="#000000">rechallenge_exposure_number</text>
<polygon fill="none" stroke="#000000" points="302,-169.2 302,-191.2 364,-191.2 364,-169.2 302,-169.2"/>
<text text-anchor="start" x="304.878" y="-176.9" font-family="Helvetica,sans-Serif" font-size="11.00" fill="#000000">unknown[0]</text>
<polygon fill="none" stroke="#000000" points="10,-147.2 10,-169.2 302,-169.2 302,-147.2 10,-147.2"/>
<text text-anchor="start" x="30" y="-154.3" font-family="Helvetica,sans-Serif" font-size="11.00" fill="#000000">rechallenge_exposure_start_date_offset</text>
<polygon fill="none" stroke="#000000" points="302,-147.2 302,-169.2 364,-169.2 364,-147.2 302,-147.2"/>
<text text-anchor="start" x="304.878" y="-154.9" font-family="Helvetica,sans-Serif" font-size="11.00" fill="#000000">unknown[0]</text>
<polygon fill="none" stroke="#000000" points="10,-125.2 10,-147.2 302,-147.2 302,-125.2 10,-125.2"/>
<text text-anchor="start" x="30" y="-132.3" font-family="Helvetica,sans-Serif" font-size="11.00" fill="#000000">rechallenge_outcome_number</text>
<polygon fill="none" stroke="#000000" points="302,-125.2 302,-147.2 364,-147.2 364,-125.2 302,-125.2"/>
<text text-anchor="start" x="304.878" y="-132.9" font-family="Helvetica,sans-Serif" font-size="11.00" fill="#000000">unknown[0]</text>
<polygon fill="none" stroke="#000000" points="10,-103.2 10,-125.2 302,-125.2 302,-103.2 10,-103.2"/>
<text text-anchor="start" x="30" y="-110.3" font-family="Helvetica,sans-Serif" font-size="11.00" fill="#000000">rechallenge_outcome_start_date_offset</text>
<polygon fill="none" stroke="#000000" points="302,-103.2 302,-125.2 364,-125.2 364,-103.2 302,-103.2"/>
<text text-anchor="start" x="304.878" y="-110.9" font-family="Helvetica,sans-Serif" font-size="11.00" fill="#000000">unknown[0]</text>
<polygon fill="none" stroke="#000000" points="10,-81.2 10,-103.2 302,-103.2 302,-81.2 10,-81.2"/>
<text text-anchor="start" x="30" y="-88.3" font-family="Helvetica,sans-Serif" font-size="11.00" fill="#000000">subject_id</text>
<polygon fill="none" stroke="#000000" points="302,-81.2 302,-103.2 364,-103.2 364,-81.2 302,-81.2"/>
<text text-anchor="start" x="304.878" y="-88.9" font-family="Helvetica,sans-Serif" font-size="11.00" fill="#000000">unknown[0]</text>
<polygon fill="none" stroke="#000000" points="10,-59.2 10,-81.2 302,-81.2 302,-59.2 10,-59.2"/>
<text text-anchor="start" x="30" y="-66.3" font-family="Helvetica,sans-Serif" font-size="11.00" fill="#000000">target_cohort_definition_id</text>
<polygon fill="none" stroke="#000000" points="302,-59.2 302,-81.2 364,-81.2 364,-59.2 302,-59.2"/>
<text text-anchor="start" x="304.878" y="-66.9" font-family="Helvetica,sans-Serif" font-size="11.00" fill="#000000">unknown[0]</text>
<polygon fill="#ffffff" stroke="transparent" points="10,-40.2 10,-59.2 147,-59.2 147,-40.2 10,-40.2"/>
<polygon fill="none" stroke="#000000" points="10,-40.2 10,-59.2 147,-59.2 147,-40.2 10,-40.2"/>
<text text-anchor="start" x="13" y="-46.3" font-family="Helvetica,sans-Serif" font-size="11.00" fill="#000000">&lt; 0</text>
<polygon fill="#ffffff" stroke="transparent" points="147,-40.2 147,-59.2 302,-59.2 302,-40.2 147,-40.2"/>
<polygon fill="none" stroke="#000000" points="147,-40.2 147,-59.2 302,-59.2 302,-40.2 147,-40.2"/>
<text text-anchor="start" x="266.6105" y="-46.3" font-family="Helvetica,sans-Serif" font-size="11.00" fill="#000000">0 rows</text>
<polygon fill="#ffffff" stroke="transparent" points="302,-40.2 302,-59.2 364,-59.2 364,-40.2 302,-40.2"/>
<polygon fill="none" stroke="#000000" points="302,-40.2 302,-59.2 364,-59.2 364,-40.2 302,-40.2"/>
<text text-anchor="start" x="345.4053" y="-46.3" font-family="Helvetica,sans-Serif" font-size="11.00" fill="#000000">0 &gt;</text>
<polygon fill="none" stroke="#000000" stroke-width="2" points="9,-39.2 9,-457.2 365,-457.2 365,-39.2 9,-39.2"/>
</a>
</g>
</g>
</g>
</svg>
