<?xml version="1.0" encoding="UTF-8" standalone="no"?>
<!DOCTYPE svg PUBLIC "-//W3C//DTD SVG 1.1//EN"
 "http://www.w3.org/Graphics/SVG/1.1/DTD/svg11.dtd">
<!-- Generated by graphviz version 2.40.1 (20161225.0304)
 -->
<!-- Title: oneDegreeRelationshipsDiagram Pages: 1 -->
<svg width="1050pt" height="422pt"
 viewBox="0.00 0.00 1050.00 421.92" xmlns="http://www.w3.org/2000/svg" xmlns:xlink="http://www.w3.org/1999/xlink">
<g id="graph0" class="graph" transform="scale(1 1) rotate(0) translate(4 417.9157)">
<title>oneDegreeRelationshipsDiagram</title>
<polygon fill="#ffffff" stroke="transparent" points="-4,4 -4,-417.9157 1046,-417.9157 1046,4 -4,4"/>
<text text-anchor="middle" x="72.4936" y="-7.3" font-family="Helvetica,sans-Serif" font-size="11.00" fill="#000000">Generated by SchemaSpy</text>
<!-- c_covariates -->
<g id="node1" class="node">
<title>c_covariates</title>
<g id="a_node1"><a xlink:href="../../tables/c_covariates.html" xlink:title="c_covariates" target="_top">
<polygon fill="#ffffff" stroke="transparent" points="829,-43.7 829,-170.7 1034,-170.7 1034,-43.7 829,-43.7"/>
<polygon fill="#f5f5f5" stroke="transparent" points="829.5,-147.2 829.5,-170.2 1034.5,-170.2 1034.5,-147.2 829.5,-147.2"/>
<polygon fill="none" stroke="#000000" points="829.5,-147.2 829.5,-170.2 1034.5,-170.2 1034.5,-147.2 829.5,-147.2"/>
<text text-anchor="start" x="834.5" y="-155.8" font-family="Helvetica,sans-Serif" font-weight="bold" font-size="11.00" fill="#000000">c_covariates</text>
<text text-anchor="start" x="999.5437" y="-155.3" font-family="Helvetica,sans-Serif" font-size="11.00" fill="#000000">[table]</text>
<polygon fill="none" stroke="#000000" points="829.5,-125.2 829.5,-147.2 1034.5,-147.2 1034.5,-125.2 829.5,-125.2"/>
<image xlink:href="../../images/foreignKeys.png" width="11px" height="12px" preserveAspectRatio="xMinYMin meet" x="834.5" y="-142.2"/>
<text text-anchor="start" x="849.5" y="-132.3" font-family="Helvetica,sans-Serif" font-size="11.00" fill="#000000">covariate_id</text>
<polygon fill="none" stroke="#000000" points="829.5,-103.2 829.5,-125.2 1034.5,-125.2 1034.5,-103.2 829.5,-103.2"/>
<image xlink:href="../../images/foreignKeys.png" width="11px" height="12px" preserveAspectRatio="xMinYMin meet" x="834.5" y="-120.2"/>
<text text-anchor="start" x="849.5" y="-110.3" font-family="Helvetica,sans-Serif" font-size="11.00" fill="#000000">database_id</text>
<polygon fill="none" stroke="#000000" points="829.5,-81.2 829.5,-103.2 1034.5,-103.2 1034.5,-81.2 829.5,-81.2"/>
<image xlink:href="../../images/foreignKeys.png" width="11px" height="12px" preserveAspectRatio="xMinYMin meet" x="834.5" y="-98.2"/>
<text text-anchor="start" x="849.5" y="-88.3" font-family="Helvetica,sans-Serif" font-size="11.00" fill="#000000">setting_id</text>
<polygon fill="none" stroke="#000000" points="829.5,-62.2 829.5,-81.2 1034.5,-81.2 1034.5,-62.2 829.5,-62.2"/>
<text text-anchor="start" x="832.5" y="-68.3" font-family="Helvetica,sans-Serif" font-size="11.00" fill="#000000">...</text>
<polygon fill="#ffffff" stroke="transparent" points="829.5,-43.2 829.5,-62.2 917.5,-62.2 917.5,-43.2 829.5,-43.2"/>
<polygon fill="none" stroke="#000000" points="829.5,-43.2 829.5,-62.2 917.5,-62.2 917.5,-43.2 829.5,-43.2"/>
<text text-anchor="start" x="832.5" y="-49.3" font-family="Helvetica,sans-Serif" font-size="11.00" fill="#000000">&lt; 7</text>
<polygon fill="#ffffff" stroke="transparent" points="917.5,-43.2 917.5,-62.2 988.5,-62.2 988.5,-43.2 917.5,-43.2"/>
<polygon fill="none" stroke="#000000" points="917.5,-43.2 917.5,-62.2 988.5,-62.2 988.5,-43.2 917.5,-43.2"/>
<text text-anchor="start" x="953.1105" y="-49.3" font-family="Helvetica,sans-Serif" font-size="11.00" fill="#000000">0 rows</text>
<polygon fill="#ffffff" stroke="transparent" points="988.5,-43.2 988.5,-62.2 1034.5,-62.2 1034.5,-43.2 988.5,-43.2"/>
<polygon fill="none" stroke="#000000" points="988.5,-43.2 988.5,-62.2 1034.5,-62.2 1034.5,-43.2 988.5,-43.2"/>
<text text-anchor="start" x="1025.3862" y="-49.3" font-family="Helvetica,sans-Serif" font-size="11.00" fill="#000000"> &#160;</text>
</a>
</g>
</g>
<!-- c_settings -->
<g id="node2" class="node">
<title>c_settings</title>
<g id="a_node2"><a xlink:href="../../tables/c_settings.html" xlink:title="c_settings" target="_top">
<polygon fill="#ffffff" stroke="transparent" points="499,-38.2 499,-348.2 780,-348.2 780,-38.2 499,-38.2"/>
<polygon fill="#f5f5f5" stroke="transparent" points="501.5,-323.2 501.5,-346.2 778.5,-346.2 778.5,-323.2 501.5,-323.2"/>
<polygon fill="none" stroke="#000000" points="501.5,-323.2 501.5,-346.2 778.5,-346.2 778.5,-323.2 501.5,-323.2"/>
<text text-anchor="start" x="506.5" y="-331.8" font-family="Helvetica,sans-Serif" font-weight="bold" font-size="11.00" fill="#000000">c_settings</text>
<text text-anchor="start" x="743.5437" y="-331.3" font-family="Helvetica,sans-Serif" font-size="11.00" fill="#000000">[table]</text>
<polygon fill="none" stroke="#000000" points="501.5,-301.2 501.5,-323.2 716.5,-323.2 716.5,-301.2 501.5,-301.2"/>
<text text-anchor="start" x="521.5" y="-308.3" font-family="Helvetica,sans-Serif" font-size="11.00" fill="#000000">case_covariate_setting_json</text>
<polygon fill="none" stroke="#000000" points="716.5,-301.2 716.5,-323.2 778.5,-323.2 778.5,-301.2 716.5,-301.2"/>
<text text-anchor="start" x="719.378" y="-308.9" font-family="Helvetica,sans-Serif" font-size="11.00" fill="#000000">unknown[0]</text>
<polygon fill="none" stroke="#000000" points="501.5,-279.2 501.5,-301.2 716.5,-301.2 716.5,-279.2 501.5,-279.2"/>
<text text-anchor="start" x="521.5" y="-286.3" font-family="Helvetica,sans-Serif" font-size="11.00" fill="#000000">case_post_outcome_duration</text>
<polygon fill="none" stroke="#000000" points="716.5,-279.2 716.5,-301.2 778.5,-301.2 778.5,-279.2 716.5,-279.2"/>
<text text-anchor="start" x="719.378" y="-286.9" font-family="Helvetica,sans-Serif" font-size="11.00" fill="#000000">unknown[0]</text>
<polygon fill="none" stroke="#000000" points="501.5,-257.2 501.5,-279.2 716.5,-279.2 716.5,-257.2 501.5,-257.2"/>
<text text-anchor="start" x="521.5" y="-264.3" font-family="Helvetica,sans-Serif" font-size="11.00" fill="#000000">case_pre_target_duration</text>
<polygon fill="none" stroke="#000000" points="716.5,-257.2 716.5,-279.2 778.5,-279.2 778.5,-257.2 716.5,-257.2"/>
<text text-anchor="start" x="719.378" y="-264.9" font-family="Helvetica,sans-Serif" font-size="11.00" fill="#000000">unknown[0]</text>
<polygon fill="none" stroke="#000000" points="501.5,-235.2 501.5,-257.2 716.5,-257.2 716.5,-235.2 501.5,-235.2"/>
<text text-anchor="start" x="521.5" y="-242.3" font-family="Helvetica,sans-Serif" font-size="11.00" fill="#000000">covariate_setting_json</text>
<polygon fill="none" stroke="#000000" points="716.5,-235.2 716.5,-257.2 778.5,-257.2 778.5,-235.2 716.5,-235.2"/>
<text text-anchor="start" x="719.378" y="-242.9" font-family="Helvetica,sans-Serif" font-size="11.00" fill="#000000">unknown[0]</text>
<polygon fill="none" stroke="#000000" points="501.5,-213.2 501.5,-235.2 716.5,-235.2 716.5,-213.2 501.5,-213.2"/>
<image xlink:href="../../images/primaryKeys.png" width="11px" height="12px" preserveAspectRatio="xMinYMin meet" x="506.5" y="-230.2"/>
<text text-anchor="start" x="521.5" y="-220.3" font-family="Helvetica,sans-Serif" font-size="11.00" fill="#000000">database_id</text>
<polygon fill="none" stroke="#000000" points="716.5,-213.2 716.5,-235.2 778.5,-235.2 778.5,-213.2 716.5,-213.2"/>
<text text-anchor="start" x="719.378" y="-220.9" font-family="Helvetica,sans-Serif" font-size="11.00" fill="#000000">unknown[0]</text>
<polygon fill="none" stroke="#000000" points="501.5,-191.2 501.5,-213.2 716.5,-213.2 716.5,-191.2 501.5,-191.2"/>
<text text-anchor="start" x="521.5" y="-198.3" font-family="Helvetica,sans-Serif" font-size="11.00" fill="#000000">end_anchor</text>
<polygon fill="none" stroke="#000000" points="716.5,-191.2 716.5,-213.2 778.5,-213.2 778.5,-191.2 716.5,-191.2"/>
<text text-anchor="start" x="719.378" y="-198.9" font-family="Helvetica,sans-Serif" font-size="11.00" fill="#000000">unknown[0]</text>
<polygon fill="none" stroke="#000000" points="501.5,-169.2 501.5,-191.2 716.5,-191.2 716.5,-169.2 501.5,-169.2"/>
<text text-anchor="start" x="521.5" y="-176.3" font-family="Helvetica,sans-Serif" font-size="11.00" fill="#000000">min_prior_observation</text>
<polygon fill="none" stroke="#000000" points="716.5,-169.2 716.5,-191.2 778.5,-191.2 778.5,-169.2 716.5,-169.2"/>
<text text-anchor="start" x="719.378" y="-176.9" font-family="Helvetica,sans-Serif" font-size="11.00" fill="#000000">unknown[0]</text>
<polygon fill="none" stroke="#000000" points="501.5,-147.2 501.5,-169.2 716.5,-169.2 716.5,-147.2 501.5,-147.2"/>
<text text-anchor="start" x="521.5" y="-154.3" font-family="Helvetica,sans-Serif" font-size="11.00" fill="#000000">outcome_washout_days</text>
<polygon fill="none" stroke="#000000" points="716.5,-147.2 716.5,-169.2 778.5,-169.2 778.5,-147.2 716.5,-147.2"/>
<text text-anchor="start" x="719.378" y="-154.9" font-family="Helvetica,sans-Serif" font-size="11.00" fill="#000000">unknown[0]</text>
<polygon fill="none" stroke="#000000" points="501.5,-125.2 501.5,-147.2 716.5,-147.2 716.5,-125.2 501.5,-125.2"/>
<text text-anchor="start" x="521.5" y="-132.3" font-family="Helvetica,sans-Serif" font-size="11.00" fill="#000000">risk_window_end</text>
<polygon fill="none" stroke="#000000" points="716.5,-125.2 716.5,-147.2 778.5,-147.2 778.5,-125.2 716.5,-125.2"/>
<text text-anchor="start" x="719.378" y="-132.9" font-family="Helvetica,sans-Serif" font-size="11.00" fill="#000000">unknown[0]</text>
<polygon fill="none" stroke="#000000" points="501.5,-103.2 501.5,-125.2 716.5,-125.2 716.5,-103.2 501.5,-103.2"/>
<text text-anchor="start" x="521.5" y="-110.3" font-family="Helvetica,sans-Serif" font-size="11.00" fill="#000000">risk_window_start</text>
<polygon fill="none" stroke="#000000" points="716.5,-103.2 716.5,-125.2 778.5,-125.2 778.5,-103.2 716.5,-103.2"/>
<text text-anchor="start" x="719.378" y="-110.9" font-family="Helvetica,sans-Serif" font-size="11.00" fill="#000000">unknown[0]</text>
<polygon fill="none" stroke="#000000" points="501.5,-81.2 501.5,-103.2 716.5,-103.2 716.5,-81.2 501.5,-81.2"/>
<image xlink:href="../../images/primaryKeys.png" width="11px" height="12px" preserveAspectRatio="xMinYMin meet" x="506.5" y="-98.2"/>
<text text-anchor="start" x="521.5" y="-88.3" font-family="Helvetica,sans-Serif" font-size="11.00" fill="#000000">setting_id</text>
<polygon fill="none" stroke="#000000" points="716.5,-81.2 716.5,-103.2 778.5,-103.2 778.5,-81.2 716.5,-81.2"/>
<text text-anchor="start" x="719.378" y="-88.9" font-family="Helvetica,sans-Serif" font-size="11.00" fill="#000000">unknown[0]</text>
<polygon fill="none" stroke="#000000" points="501.5,-59.2 501.5,-81.2 716.5,-81.2 716.5,-59.2 501.5,-59.2"/>
<text text-anchor="start" x="521.5" y="-66.3" font-family="Helvetica,sans-Serif" font-size="11.00" fill="#000000">start_anchor</text>
<polygon fill="none" stroke="#000000" points="716.5,-59.2 716.5,-81.2 778.5,-81.2 778.5,-59.2 716.5,-59.2"/>
<text text-anchor="start" x="719.378" y="-66.9" font-family="Helvetica,sans-Serif" font-size="11.00" fill="#000000">unknown[0]</text>
<polygon fill="#ffffff" stroke="transparent" points="501.5,-40.2 501.5,-59.2 600.5,-59.2 600.5,-40.2 501.5,-40.2"/>
<polygon fill="none" stroke="#000000" points="501.5,-40.2 501.5,-59.2 600.5,-59.2 600.5,-40.2 501.5,-40.2"/>
<text text-anchor="start" x="504.5" y="-46.3" font-family="Helvetica,sans-Serif" font-size="11.00" fill="#000000">&lt; 3</text>
<polygon fill="#ffffff" stroke="transparent" points="600.5,-40.2 600.5,-59.2 716.5,-59.2 716.5,-40.2 600.5,-40.2"/>
<polygon fill="none" stroke="#000000" points="600.5,-40.2 600.5,-59.2 716.5,-59.2 716.5,-40.2 600.5,-40.2"/>
<text text-anchor="start" x="681.1105" y="-46.3" font-family="Helvetica,sans-Serif" font-size="11.00" fill="#000000">0 rows</text>
<polygon fill="#ffffff" stroke="transparent" points="716.5,-40.2 716.5,-59.2 778.5,-59.2 778.5,-40.2 716.5,-40.2"/>
<polygon fill="none" stroke="#000000" points="716.5,-40.2 716.5,-59.2 778.5,-59.2 778.5,-40.2 716.5,-40.2"/>
<text text-anchor="start" x="759.9053" y="-46.3" font-family="Helvetica,sans-Serif" font-size="11.00" fill="#000000">6 &gt;</text>
<polygon fill="none" stroke="#000000" stroke-width="2" points="500,-39.2 500,-347.2 779,-347.2 779,-39.2 500,-39.2"/>
</a>
</g>
</g>
<!-- c_covariates&#45;&gt;c_settings -->
<g id="edge1" class="edge">
<title>c_covariates:w&#45;&gt;c_settings:e</title>
<path fill="none" stroke="#000000" d="M815.5,-117.8599C786.708,-136.9466 826.4939,-224.2 778.5,-224.2"/>
<polygon fill="#000000" stroke="#000000" points="821.7601,-116.2234 830.4105,-117.683 825.6301,-115.2117 829.5,-114.2 829.5,-114.2 829.5,-114.2 825.6301,-115.2117 828.5895,-110.717 821.7601,-116.2234 821.7601,-116.2234"/>
<ellipse fill="none" stroke="#000000" cx="818.6641" cy="-117.0328" rx="3.2" ry="3.2"/>
</g>
<!-- c_covariates&#45;&gt;c_settings -->
<g id="edge2" class="edge">
<title>c_covariates:w&#45;&gt;c_settings:e</title>
<path fill="none" stroke="#000000" d="M815.3489,-111.141C802.7843,-105.096 797.4,-92.2 778.5,-92.2"/>
<polygon fill="#000000" stroke="#000000" points="821.6806,-112.5097 828.7393,-117.7187 825.5903,-113.3548 829.5,-114.2 829.5,-114.2 829.5,-114.2 825.5903,-113.3548 830.2607,-110.6813 821.6806,-112.5097 821.6806,-112.5097"/>
<ellipse fill="none" stroke="#000000" cx="818.5528" cy="-111.8335" rx="3.2" ry="3.2"/>
</g>
<!-- c_covariates&#45;&gt;c_settings -->
<g id="edge3" class="edge">
<title>c_covariates:w&#45;&gt;c_settings:e</title>
<path fill="none" stroke="#000000" d="M815.2146,-95.4629C779.4192,-115.7898 835.497,-224.2 778.5,-224.2"/>
<polygon fill="#000000" stroke="#000000" points="821.7009,-93.9815 830.3017,-95.7096 825.6004,-93.0907 829.5,-92.2 829.5,-92.2 829.5,-92.2 825.6004,-93.0907 828.6983,-88.6904 821.7009,-93.9815 821.7009,-93.9815"/>
<ellipse fill="none" stroke="#000000" cx="818.5812" cy="-94.694" rx="3.2" ry="3.2"/>
</g>
<!-- c_covariates&#45;&gt;c_settings -->
<g id="edge4" class="edge">
<title>c_covariates:w&#45;&gt;c_settings:e</title>
<path fill="none" stroke="#000000" d="M814.776,-92.2C802.7815,-92.2 795.3229,-92.2 778.5,-92.2"/>
<polygon fill="#000000" stroke="#000000" points="821.5,-92.2001 829.5,-95.8 825.5,-92.2 829.5,-92.2 829.5,-92.2 829.5,-92.2 825.5,-92.2 829.5,-88.6 821.5,-92.2001 821.5,-92.2001"/>
<ellipse fill="none" stroke="#000000" cx="818.3" cy="-92.2001" rx="3.2" ry="3.2"/>
</g>
<!-- database_meta_data -->
<g id="node4" class="node">
<title>database_meta_data</title>
<g id="a_node4"><a xlink:href="../../tables/database_meta_data.html" xlink:title="database_meta_data" target="_top">
<polygon fill="#ffffff" stroke="transparent" points="205,-211.7 205,-294.7 450,-294.7 450,-211.7 205,-211.7"/>
<polygon fill="#f5f5f5" stroke="transparent" points="205.5,-271.2 205.5,-294.2 450.5,-294.2 450.5,-271.2 205.5,-271.2"/>
<polygon fill="none" stroke="#000000" points="205.5,-271.2 205.5,-294.2 450.5,-294.2 450.5,-271.2 205.5,-271.2"/>
<text text-anchor="start" x="210.5" y="-279.8" font-family="Helvetica,sans-Serif" font-weight="bold" font-size="11.00" fill="#000000">database_meta_data</text>
<text text-anchor="start" x="415.5437" y="-279.3" font-family="Helvetica,sans-Serif" font-size="11.00" fill="#000000">[table]</text>
<polygon fill="none" stroke="#000000" points="205.5,-249.2 205.5,-271.2 450.5,-271.2 450.5,-249.2 205.5,-249.2"/>
<image xlink:href="../../images/primaryKeys.png" width="11px" height="12px" preserveAspectRatio="xMinYMin meet" x="210.5" y="-266.2"/>
<text text-anchor="start" x="225.5" y="-256.3" font-family="Helvetica,sans-Serif" font-size="11.00" fill="#000000">database_id</text>
<polygon fill="none" stroke="#000000" points="205.5,-230.2 205.5,-249.2 450.5,-249.2 450.5,-230.2 205.5,-230.2"/>
<text text-anchor="start" x="208.5" y="-236.3" font-family="Helvetica,sans-Serif" font-size="11.00" fill="#000000">...</text>
<polygon fill="#ffffff" stroke="transparent" points="205.5,-211.2 205.5,-230.2 305.5,-230.2 305.5,-211.2 205.5,-211.2"/>
<polygon fill="none" stroke="#000000" points="205.5,-211.2 205.5,-230.2 305.5,-230.2 305.5,-211.2 205.5,-211.2"/>
<text text-anchor="start" x="208.5" y="-217.3" font-family="Helvetica,sans-Serif" font-size="11.00" fill="#000000">&lt; 1</text>
<polygon fill="#ffffff" stroke="transparent" points="305.5,-211.2 305.5,-230.2 383.5,-230.2 383.5,-211.2 305.5,-211.2"/>
<polygon fill="none" stroke="#000000" points="305.5,-211.2 305.5,-230.2 383.5,-230.2 383.5,-211.2 305.5,-211.2"/>
<text text-anchor="start" x="348.1105" y="-217.3" font-family="Helvetica,sans-Serif" font-size="11.00" fill="#000000">0 rows</text>
<polygon fill="#ffffff" stroke="transparent" points="383.5,-211.2 383.5,-230.2 450.5,-230.2 450.5,-211.2 383.5,-211.2"/>
<polygon fill="none" stroke="#000000" points="383.5,-211.2 383.5,-230.2 450.5,-230.2 450.5,-211.2 383.5,-211.2"/>
<text text-anchor="start" x="425.7904" y="-217.3" font-family="Helvetica,sans-Serif" font-size="11.00" fill="#000000">17 &gt;</text>
</a>
</g>
</g>
<!-- c_settings&#45;&gt;database_meta_data -->
<g id="edge9" class="edge">
<title>c_settings:w&#45;&gt;database_meta_data:e</title>
<path fill="none" stroke="#000000" d="M487.6404,-228.3297C474.215,-237.7857 472.3924,-260.2 450.5,-260.2"/>
<polygon fill="#000000" stroke="#000000" points="493.8331,-226.4845 502.528,-227.6501 497.6666,-225.3422 501.5,-224.2 501.5,-224.2 501.5,-224.2 497.6666,-225.3422 500.472,-220.7499 493.8331,-226.4845 493.8331,-226.4845"/>
<ellipse fill="none" stroke="#000000" cx="490.7663" cy="-227.3983" rx="3.2" ry="3.2"/>
</g>
<!-- c_cohort_details -->
<g id="node5" class="node">
<title>c_cohort_details</title>
<g id="a_node5"><a xlink:href="../../tables/c_cohort_details.html" xlink:title="c_cohort_details" target="_top">
<polygon fill="#ffffff" stroke="transparent" points="8,-72.7 8,-221.7 156,-221.7 156,-72.7 8,-72.7"/>
<polygon fill="#f5f5f5" stroke="transparent" points="8,-198.2 8,-221.2 156,-221.2 156,-198.2 8,-198.2"/>
<polygon fill="none" stroke="#000000" points="8,-198.2 8,-221.2 156,-221.2 156,-198.2 8,-198.2"/>
<text text-anchor="start" x="13" y="-206.8" font-family="Helvetica,sans-Serif" font-weight="bold" font-size="11.00" fill="#000000">c_cohort_details</text>
<text text-anchor="start" x="121.5219" y="-206.3" font-family="Helvetica,sans-Serif" font-size="11.00" fill="#000000">[table]</text>
<polygon fill="none" stroke="#000000" points="8,-176.2 8,-198.2 156,-198.2 156,-176.2 8,-176.2"/>
<image xlink:href="../../images/primaryKeys.png" width="11px" height="12px" preserveAspectRatio="xMinYMin meet" x="13" y="-193.2"/>
<text text-anchor="start" x="28" y="-183.3" font-family="Helvetica,sans-Serif" font-size="11.00" fill="#000000">database_id</text>
<polygon fill="none" stroke="#000000" points="8,-154.2 8,-176.2 156,-176.2 156,-154.2 8,-154.2"/>
<image xlink:href="../../images/foreignKeys.png" width="11px" height="12px" preserveAspectRatio="xMinYMin meet" x="13" y="-171.2"/>
<text text-anchor="start" x="28" y="-161.3" font-family="Helvetica,sans-Serif" font-size="11.00" fill="#000000">outcome_cohort_id</text>
<polygon fill="none" stroke="#000000" points="8,-132.2 8,-154.2 156,-154.2 156,-132.2 8,-132.2"/>
<image xlink:href="../../images/primaryKeys.png" width="11px" height="12px" preserveAspectRatio="xMinYMin meet" x="13" y="-149.2"/>
<text text-anchor="start" x="28" y="-139.3" font-family="Helvetica,sans-Serif" font-size="11.00" fill="#000000">setting_id</text>
<polygon fill="none" stroke="#000000" points="8,-110.2 8,-132.2 156,-132.2 156,-110.2 8,-110.2"/>
<image xlink:href="../../images/foreignKeys.png" width="11px" height="12px" preserveAspectRatio="xMinYMin meet" x="13" y="-127.2"/>
<text text-anchor="start" x="28" y="-117.3" font-family="Helvetica,sans-Serif" font-size="11.00" fill="#000000">target_cohort_id</text>
<polygon fill="none" stroke="#000000" points="8,-91.2 8,-110.2 156,-110.2 156,-91.2 8,-91.2"/>
<text text-anchor="start" x="11" y="-97.3" font-family="Helvetica,sans-Serif" font-size="11.00" fill="#000000">...</text>
<polygon fill="#ffffff" stroke="transparent" points="8,-72.2 8,-91.2 63,-91.2 63,-72.2 8,-72.2"/>
<polygon fill="none" stroke="#000000" points="8,-72.2 8,-91.2 63,-91.2 63,-72.2 8,-72.2"/>
<text text-anchor="start" x="11" y="-78.3" font-family="Helvetica,sans-Serif" font-size="11.00" fill="#000000">&lt; 2</text>
<polygon fill="#ffffff" stroke="transparent" points="63,-72.2 63,-91.2 118,-91.2 118,-72.2 63,-72.2"/>
<polygon fill="none" stroke="#000000" points="63,-72.2 63,-91.2 118,-91.2 118,-72.2 63,-72.2"/>
<text text-anchor="start" x="82.6105" y="-78.3" font-family="Helvetica,sans-Serif" font-size="11.00" fill="#000000">0 rows</text>
<polygon fill="#ffffff" stroke="transparent" points="118,-72.2 118,-91.2 156,-91.2 156,-72.2 118,-72.2"/>
<polygon fill="none" stroke="#000000" points="118,-72.2 118,-91.2 156,-91.2 156,-72.2 118,-72.2"/>
<text text-anchor="start" x="137.4053" y="-78.3" font-family="Helvetica,sans-Serif" font-size="11.00" fill="#000000">3 &gt;</text>
</a>
</g>
</g>
<!-- c_settings&#45;&gt;c_cohort_details -->
<g id="edge8" class="edge">
<title>c_settings:w&#45;&gt;c_cohort_details:e</title>
<path fill="none" stroke="#000000" d="M487.1788,-220.7472C477.7044,-215.4091 473.1644,-205.3373 458,-201.2 328.3716,-165.8335 290.3664,-187.2 156,-187.2"/>
<polygon fill="#000000" stroke="#000000" points="493.7228,-222.3249 500.6562,-227.6997 497.6114,-223.2624 501.5,-224.2 501.5,-224.2 501.5,-224.2 497.6114,-223.2624 502.3438,-220.7003 493.7228,-222.3249 493.7228,-222.3249"/>
<ellipse fill="none" stroke="#000000" cx="490.612" cy="-221.5748" rx="3.2" ry="3.2"/>
</g>
<!-- c_settings&#45;&gt;c_cohort_details -->
<g id="edge10" class="edge">
<title>c_settings:w&#45;&gt;c_cohort_details:e</title>
<path fill="none" stroke="#000000" d="M486.8598,-92.3555C343.8959,-95.4341 306.2173,-143.2 156,-143.2"/>
<polygon fill="#000000" stroke="#000000" points="493.5005,-92.285 501.5383,-95.7998 497.5002,-92.2425 501.5,-92.2 501.5,-92.2 501.5,-92.2 497.5002,-92.2425 501.4617,-88.6002 493.5005,-92.285 493.5005,-92.285"/>
<ellipse fill="none" stroke="#000000" cx="490.3006" cy="-92.319" rx="3.2" ry="3.2"/>
</g>
<!-- c_covariates_continuous -->
<g id="node3" class="node">
<title>c_covariates_continuous</title>
<g id="a_node3"><a xlink:href="../../tables/c_covariates_continuous.html" xlink:title="c_covariates_continuous" target="_top">
<polygon fill="#ffffff" stroke="transparent" points="830,-191.7 830,-318.7 1033,-318.7 1033,-191.7 830,-191.7"/>
<polygon fill="#f5f5f5" stroke="transparent" points="830.5,-295.2 830.5,-318.2 1033.5,-318.2 1033.5,-295.2 830.5,-295.2"/>
<polygon fill="none" stroke="#000000" points="830.5,-295.2 830.5,-318.2 1033.5,-318.2 1033.5,-295.2 830.5,-295.2"/>
<text text-anchor="start" x="835.5" y="-303.8" font-family="Helvetica,sans-Serif" font-weight="bold" font-size="11.00" fill="#000000">c_covariates_continuous</text>
<text text-anchor="start" x="999.0219" y="-303.3" font-family="Helvetica,sans-Serif" font-size="11.00" fill="#000000">[table]</text>
<polygon fill="none" stroke="#000000" points="830.5,-273.2 830.5,-295.2 1033.5,-295.2 1033.5,-273.2 830.5,-273.2"/>
<image xlink:href="../../images/foreignKeys.png" width="11px" height="12px" preserveAspectRatio="xMinYMin meet" x="835.5" y="-290.2"/>
<text text-anchor="start" x="859.5" y="-280.3" font-family="Helvetica,sans-Serif" font-size="11.00" fill="#000000">covariate_id</text>
<polygon fill="none" stroke="#000000" points="830.5,-251.2 830.5,-273.2 1033.5,-273.2 1033.5,-251.2 830.5,-251.2"/>
<image xlink:href="../../images/foreignKeys.png" width="11px" height="12px" preserveAspectRatio="xMinYMin meet" x="835.5" y="-268.2"/>
<text text-anchor="start" x="859.5" y="-258.3" font-family="Helvetica,sans-Serif" font-size="11.00" fill="#000000">database_id</text>
<polygon fill="none" stroke="#000000" points="830.5,-229.2 830.5,-251.2 1033.5,-251.2 1033.5,-229.2 830.5,-229.2"/>
<image xlink:href="../../images/foreignKeys.png" width="11px" height="12px" preserveAspectRatio="xMinYMin meet" x="835.5" y="-246.2"/>
<text text-anchor="start" x="859.5" y="-236.3" font-family="Helvetica,sans-Serif" font-size="11.00" fill="#000000">setting_id</text>
<polygon fill="none" stroke="#000000" points="830.5,-210.2 830.5,-229.2 1033.5,-229.2 1033.5,-210.2 830.5,-210.2"/>
<text text-anchor="start" x="833.5" y="-216.3" font-family="Helvetica,sans-Serif" font-size="11.00" fill="#000000">...</text>
<polygon fill="#ffffff" stroke="transparent" points="830.5,-191.2 830.5,-210.2 917.5,-210.2 917.5,-191.2 830.5,-191.2"/>
<polygon fill="none" stroke="#000000" points="830.5,-191.2 830.5,-210.2 917.5,-210.2 917.5,-191.2 830.5,-191.2"/>
<text text-anchor="start" x="833.5" y="-197.3" font-family="Helvetica,sans-Serif" font-size="11.00" fill="#000000">&lt; 6</text>
<polygon fill="#ffffff" stroke="transparent" points="917.5,-191.2 917.5,-210.2 988.5,-210.2 988.5,-191.2 917.5,-191.2"/>
<polygon fill="none" stroke="#000000" points="917.5,-191.2 917.5,-210.2 988.5,-210.2 988.5,-191.2 917.5,-191.2"/>
<text text-anchor="start" x="953.1105" y="-197.3" font-family="Helvetica,sans-Serif" font-size="11.00" fill="#000000">0 rows</text>
<polygon fill="#ffffff" stroke="transparent" points="988.5,-191.2 988.5,-210.2 1033.5,-210.2 1033.5,-191.2 988.5,-191.2"/>
<polygon fill="none" stroke="#000000" points="988.5,-191.2 988.5,-210.2 1033.5,-210.2 1033.5,-191.2 988.5,-191.2"/>
<text text-anchor="start" x="1024.3862" y="-197.3" font-family="Helvetica,sans-Serif" font-size="11.00" fill="#000000"> &#160;</text>
</a>
</g>
</g>
<!-- c_covariates_continuous&#45;&gt;c_settings -->
<g id="edge5" class="edge">
<title>c_covariates_continuous:w&#45;&gt;c_settings:e</title>
<path fill="none" stroke="#000000" d="M816.682,-258.1333C802.6103,-248.3304 801.3101,-224.2 778.5,-224.2"/>
<polygon fill="#000000" stroke="#000000" points="822.8255,-259.9413 829.4836,-265.6535 826.6627,-261.0707 830.5,-262.2 830.5,-262.2 830.5,-262.2 826.6627,-261.0707 831.5164,-258.7465 822.8255,-259.9413 822.8255,-259.9413"/>
<ellipse fill="none" stroke="#000000" cx="819.7556" cy="-259.0379" rx="3.2" ry="3.2"/>
</g>
<!-- c_covariates_continuous&#45;&gt;c_settings -->
<g id="edge7" class="edge">
<title>c_covariates_continuous:w&#45;&gt;c_settings:e</title>
<path fill="none" stroke="#000000" d="M816.3415,-237.3757C774.0683,-216.9147 842.5005,-92.2 778.5,-92.2"/>
<polygon fill="#000000" stroke="#000000" points="822.6546,-238.6349 829.7957,-243.7304 826.5773,-239.4175 830.5,-240.2 830.5,-240.2 830.5,-240.2 826.5773,-239.4175 831.2043,-236.6696 822.6546,-238.6349 822.6546,-238.6349"/>
<ellipse fill="none" stroke="#000000" cx="819.5164" cy="-238.0089" rx="3.2" ry="3.2"/>
</g>
<!-- c_covariates_continuous&#45;&gt;database_meta_data -->
<g id="edge6" class="edge">
<title>c_covariates_continuous:w&#45;&gt;database_meta_data:e</title>
<path fill="none" stroke="#000000" d="M816.4626,-265.5017C793.3821,-279.8127 822.3194,-336.7678 788,-359.2 677.5091,-431.4202 600.5931,-432.7755 491,-359.2 451.5303,-332.702 498.0395,-260.2 450.5,-260.2"/>
<polygon fill="#000000" stroke="#000000" points="822.7125,-264.0317 831.3243,-265.7044 826.6063,-263.1159 830.5,-262.2 830.5,-262.2 830.5,-262.2 826.6063,-263.1159 829.6757,-258.6956 822.7125,-264.0317 822.7125,-264.0317"/>
<ellipse fill="none" stroke="#000000" cx="819.5975" cy="-264.7644" rx="3.2" ry="3.2"/>
</g>
<!-- database_meta_data&#45;&gt;c_cohort_details -->
<g id="edge11" class="edge">
<title>database_meta_data:w&#45;&gt;c_cohort_details:e</title>
<path fill="none" stroke="#000000" d="M195.2096,-257.9352C171.6386,-245.6136 191.0656,-187.2 156,-187.2"/>
<polygon fill="#000000" stroke="#000000" points="205.5785,-256.1215 203.8589,-263.9345 202.2963,-263.5906 204.0159,-255.7776 205.5785,-256.1215"/>
<polyline fill="none" stroke="#000000" points="205.5,-260.2 201.5935,-259.3402 "/>
<ellipse fill="none" stroke="#000000" cx="198.4683" cy="-258.6523" rx="3.2" ry="3.2"/>
</g>
</g>
</svg>
