<?xml version="1.0" encoding="UTF-8" standalone="no"?>
<!DOCTYPE svg PUBLIC "-//W3C//DTD SVG 1.1//EN"
 "http://www.w3.org/Graphics/SVG/1.1/DTD/svg11.dtd">
<!-- Generated by graphviz version 2.40.1 (20161225.0304)
 -->
<!-- Title: oneDegreeRelationshipsDiagram Pages: 1 -->
<svg width="603pt" height="272pt"
 viewBox="0.00 0.00 603.00 272.20" xmlns="http://www.w3.org/2000/svg" xmlns:xlink="http://www.w3.org/1999/xlink">
<g id="graph0" class="graph" transform="scale(1 1) rotate(0) translate(4 268.2)">
<title>oneDegreeRelationshipsDiagram</title>
<polygon fill="#ffffff" stroke="transparent" points="-4,4 -4,-268.2 599,-268.2 599,4 -4,4"/>
<text text-anchor="middle" x="72.4936" y="-7.3" font-family="Helvetica,sans-Serif" font-size="11.00" fill="#000000">Generated by SchemaSpy</text>
<!-- c_time_to_event -->
<g id="node1" class="node">
<title>c_time_to_event</title>
<g id="a_node1"><a xlink:href="../../tables/c_time_to_event.html" xlink:title="c_time_to_event" target="_top">
<polygon fill="#ffffff" stroke="transparent" points="302,-38.2 302,-260.2 587,-260.2 587,-38.2 302,-38.2"/>
<polygon fill="#f5f5f5" stroke="transparent" points="304.5,-235.2 304.5,-258.2 585.5,-258.2 585.5,-235.2 304.5,-235.2"/>
<polygon fill="none" stroke="#000000" points="304.5,-235.2 304.5,-258.2 585.5,-258.2 585.5,-235.2 304.5,-235.2"/>
<text text-anchor="start" x="309.5" y="-243.8" font-family="Helvetica,sans-Serif" font-weight="bold" font-size="11.00" fill="#000000">c_time_to_event</text>
<text text-anchor="start" x="550.5437" y="-243.3" font-family="Helvetica,sans-Serif" font-size="11.00" fill="#000000">[table]</text>
<polygon fill="none" stroke="#000000" points="304.5,-213.2 304.5,-235.2 523.5,-235.2 523.5,-213.2 304.5,-213.2"/>
<image xlink:href="../../images/foreignKeys.png" width="11px" height="12px" preserveAspectRatio="xMinYMin meet" x="309.5" y="-230.2"/>
<text text-anchor="start" x="324.5" y="-220.3" font-family="Helvetica,sans-Serif" font-size="11.00" fill="#000000">database_id</text>
<polygon fill="none" stroke="#000000" points="523.5,-213.2 523.5,-235.2 585.5,-235.2 585.5,-213.2 523.5,-213.2"/>
<text text-anchor="start" x="526.378" y="-220.9" font-family="Helvetica,sans-Serif" font-size="11.00" fill="#000000">unknown[0]</text>
<polygon fill="none" stroke="#000000" points="304.5,-191.2 304.5,-213.2 523.5,-213.2 523.5,-191.2 304.5,-191.2"/>
<text text-anchor="start" x="324.5" y="-198.3" font-family="Helvetica,sans-Serif" font-size="11.00" fill="#000000">num_events</text>
<polygon fill="none" stroke="#000000" points="523.5,-191.2 523.5,-213.2 585.5,-213.2 585.5,-191.2 523.5,-191.2"/>
<text text-anchor="start" x="526.378" y="-198.9" font-family="Helvetica,sans-Serif" font-size="11.00" fill="#000000">unknown[0]</text>
<polygon fill="none" stroke="#000000" points="304.5,-169.2 304.5,-191.2 523.5,-191.2 523.5,-169.2 304.5,-169.2"/>
<text text-anchor="start" x="324.5" y="-176.3" font-family="Helvetica,sans-Serif" font-size="11.00" fill="#000000">outcome_cohort_definition_id</text>
<polygon fill="none" stroke="#000000" points="523.5,-169.2 523.5,-191.2 585.5,-191.2 585.5,-169.2 523.5,-169.2"/>
<text text-anchor="start" x="526.378" y="-176.9" font-family="Helvetica,sans-Serif" font-size="11.00" fill="#000000">unknown[0]</text>
<polygon fill="none" stroke="#000000" points="304.5,-147.2 304.5,-169.2 523.5,-169.2 523.5,-147.2 304.5,-147.2"/>
<text text-anchor="start" x="324.5" y="-154.3" font-family="Helvetica,sans-Serif" font-size="11.00" fill="#000000">outcome_type</text>
<polygon fill="none" stroke="#000000" points="523.5,-147.2 523.5,-169.2 585.5,-169.2 585.5,-147.2 523.5,-147.2"/>
<text text-anchor="start" x="526.378" y="-154.9" font-family="Helvetica,sans-Serif" font-size="11.00" fill="#000000">unknown[0]</text>
<polygon fill="none" stroke="#000000" points="304.5,-125.2 304.5,-147.2 523.5,-147.2 523.5,-125.2 304.5,-125.2"/>
<text text-anchor="start" x="324.5" y="-132.3" font-family="Helvetica,sans-Serif" font-size="11.00" fill="#000000">target_cohort_definition_id</text>
<polygon fill="none" stroke="#000000" points="523.5,-125.2 523.5,-147.2 585.5,-147.2 585.5,-125.2 523.5,-125.2"/>
<text text-anchor="start" x="526.378" y="-132.9" font-family="Helvetica,sans-Serif" font-size="11.00" fill="#000000">unknown[0]</text>
<polygon fill="none" stroke="#000000" points="304.5,-103.2 304.5,-125.2 523.5,-125.2 523.5,-103.2 304.5,-103.2"/>
<text text-anchor="start" x="324.5" y="-110.3" font-family="Helvetica,sans-Serif" font-size="11.00" fill="#000000">target_outcome_type</text>
<polygon fill="none" stroke="#000000" points="523.5,-103.2 523.5,-125.2 585.5,-125.2 585.5,-103.2 523.5,-103.2"/>
<text text-anchor="start" x="526.378" y="-110.9" font-family="Helvetica,sans-Serif" font-size="11.00" fill="#000000">unknown[0]</text>
<polygon fill="none" stroke="#000000" points="304.5,-81.2 304.5,-103.2 523.5,-103.2 523.5,-81.2 304.5,-81.2"/>
<text text-anchor="start" x="324.5" y="-88.3" font-family="Helvetica,sans-Serif" font-size="11.00" fill="#000000">time_scale</text>
<polygon fill="none" stroke="#000000" points="523.5,-81.2 523.5,-103.2 585.5,-103.2 585.5,-81.2 523.5,-81.2"/>
<text text-anchor="start" x="526.378" y="-88.9" font-family="Helvetica,sans-Serif" font-size="11.00" fill="#000000">unknown[0]</text>
<polygon fill="none" stroke="#000000" points="304.5,-59.2 304.5,-81.2 523.5,-81.2 523.5,-59.2 304.5,-59.2"/>
<text text-anchor="start" x="324.5" y="-66.3" font-family="Helvetica,sans-Serif" font-size="11.00" fill="#000000">time_to_event</text>
<polygon fill="none" stroke="#000000" points="523.5,-59.2 523.5,-81.2 585.5,-81.2 585.5,-59.2 523.5,-59.2"/>
<text text-anchor="start" x="526.378" y="-66.9" font-family="Helvetica,sans-Serif" font-size="11.00" fill="#000000">unknown[0]</text>
<polygon fill="#ffffff" stroke="transparent" points="304.5,-40.2 304.5,-59.2 405.5,-59.2 405.5,-40.2 304.5,-40.2"/>
<polygon fill="none" stroke="#000000" points="304.5,-40.2 304.5,-59.2 405.5,-59.2 405.5,-40.2 304.5,-40.2"/>
<text text-anchor="start" x="307.5" y="-46.3" font-family="Helvetica,sans-Serif" font-size="11.00" fill="#000000">&lt; 1</text>
<polygon fill="#ffffff" stroke="transparent" points="405.5,-40.2 405.5,-59.2 523.5,-59.2 523.5,-40.2 405.5,-40.2"/>
<polygon fill="none" stroke="#000000" points="405.5,-40.2 405.5,-59.2 523.5,-59.2 523.5,-40.2 405.5,-40.2"/>
<text text-anchor="start" x="488.1105" y="-46.3" font-family="Helvetica,sans-Serif" font-size="11.00" fill="#000000">0 rows</text>
<polygon fill="#ffffff" stroke="transparent" points="523.5,-40.2 523.5,-59.2 585.5,-59.2 585.5,-40.2 523.5,-40.2"/>
<polygon fill="none" stroke="#000000" points="523.5,-40.2 523.5,-59.2 585.5,-59.2 585.5,-40.2 523.5,-40.2"/>
<text text-anchor="start" x="566.9053" y="-46.3" font-family="Helvetica,sans-Serif" font-size="11.00" fill="#000000">0 &gt;</text>
<polygon fill="none" stroke="#000000" stroke-width="2" points="303,-39.2 303,-259.2 586,-259.2 586,-39.2 303,-39.2"/>
</a>
</g>
</g>
<!-- database_meta_data -->
<g id="node2" class="node">
<title>database_meta_data</title>
<g id="a_node2"><a xlink:href="../../tables/database_meta_data.html" xlink:title="database_meta_data" target="_top">
<polygon fill="#ffffff" stroke="transparent" points="8,-175.7 8,-258.7 253,-258.7 253,-175.7 8,-175.7"/>
<polygon fill="#f5f5f5" stroke="transparent" points="8.5,-235.2 8.5,-258.2 253.5,-258.2 253.5,-235.2 8.5,-235.2"/>
<polygon fill="none" stroke="#000000" points="8.5,-235.2 8.5,-258.2 253.5,-258.2 253.5,-235.2 8.5,-235.2"/>
<text text-anchor="start" x="13.5" y="-243.8" font-family="Helvetica,sans-Serif" font-weight="bold" font-size="11.00" fill="#000000">database_meta_data</text>
<text text-anchor="start" x="218.5437" y="-243.3" font-family="Helvetica,sans-Serif" font-size="11.00" fill="#000000">[table]</text>
<polygon fill="none" stroke="#000000" points="8.5,-213.2 8.5,-235.2 253.5,-235.2 253.5,-213.2 8.5,-213.2"/>
<image xlink:href="../../images/primaryKeys.png" width="11px" height="12px" preserveAspectRatio="xMinYMin meet" x="13.5" y="-230.2"/>
<text text-anchor="start" x="28.5" y="-220.3" font-family="Helvetica,sans-Serif" font-size="11.00" fill="#000000">database_id</text>
<polygon fill="none" stroke="#000000" points="8.5,-194.2 8.5,-213.2 253.5,-213.2 253.5,-194.2 8.5,-194.2"/>
<text text-anchor="start" x="11.5" y="-200.3" font-family="Helvetica,sans-Serif" font-size="11.00" fill="#000000">...</text>
<polygon fill="#ffffff" stroke="transparent" points="8.5,-175.2 8.5,-194.2 108.5,-194.2 108.5,-175.2 8.5,-175.2"/>
<polygon fill="none" stroke="#000000" points="8.5,-175.2 8.5,-194.2 108.5,-194.2 108.5,-175.2 8.5,-175.2"/>
<text text-anchor="start" x="11.5" y="-181.3" font-family="Helvetica,sans-Serif" font-size="11.00" fill="#000000">&lt; 1</text>
<polygon fill="#ffffff" stroke="transparent" points="108.5,-175.2 108.5,-194.2 186.5,-194.2 186.5,-175.2 108.5,-175.2"/>
<polygon fill="none" stroke="#000000" points="108.5,-175.2 108.5,-194.2 186.5,-194.2 186.5,-175.2 108.5,-175.2"/>
<text text-anchor="start" x="151.1105" y="-181.3" font-family="Helvetica,sans-Serif" font-size="11.00" fill="#000000">0 rows</text>
<polygon fill="#ffffff" stroke="transparent" points="186.5,-175.2 186.5,-194.2 253.5,-194.2 253.5,-175.2 186.5,-175.2"/>
<polygon fill="none" stroke="#000000" points="186.5,-175.2 186.5,-194.2 253.5,-194.2 253.5,-175.2 186.5,-175.2"/>
<text text-anchor="start" x="228.7904" y="-181.3" font-family="Helvetica,sans-Serif" font-size="11.00" fill="#000000">17 &gt;</text>
</a>
</g>
</g>
<!-- c_time_to_event&#45;&gt;database_meta_data -->
<g id="edge1" class="edge">
<title>c_time_to_event:w&#45;&gt;database_meta_data:e</title>
<path fill="none" stroke="#000000" d="M289.776,-224.2C277.7815,-224.2 270.3229,-224.2 253.5,-224.2"/>
<polygon fill="#000000" stroke="#000000" points="296.5,-224.2001 304.5,-227.8 300.5,-224.2 304.5,-224.2 304.5,-224.2 304.5,-224.2 300.5,-224.2 304.5,-220.6 296.5,-224.2001 296.5,-224.2001"/>
<ellipse fill="none" stroke="#000000" cx="293.3" cy="-224.2001" rx="3.2" ry="3.2"/>
</g>
</g>
</svg>
