<?xml version="1.0" encoding="UTF-8" standalone="no"?>
<!DOCTYPE svg PUBLIC "-//W3C//DTD SVG 1.1//EN"
 "http://www.w3.org/Graphics/SVG/1.1/DTD/svg11.dtd">
<!-- Generated by graphviz version 2.40.1 (20161225.0304)
 -->
<!-- Title: oneDegreeRelationshipsDiagram Pages: 1 -->
<svg width="309pt" height="272pt"
 viewBox="0.00 0.00 309.00 272.20" xmlns="http://www.w3.org/2000/svg" xmlns:xlink="http://www.w3.org/1999/xlink">
<g id="graph0" class="graph" transform="scale(1 1) rotate(0) translate(4 268.2)">
<title>oneDegreeRelationshipsDiagram</title>
<polygon fill="#ffffff" stroke="transparent" points="-4,4 -4,-268.2 305,-268.2 305,4 -4,4"/>
<text text-anchor="middle" x="72.4936" y="-7.3" font-family="Helvetica,sans-Serif" font-size="11.00" fill="#000000">Generated by SchemaSpy</text>
<!-- c_time_to_event -->
<g id="node1" class="node">
<title>c_time_to_event</title>
<g id="a_node1"><a xlink:href="../../tables/c_time_to_event.html" xlink:title="c_time_to_event" target="_top">
<polygon fill="#ffffff" stroke="transparent" points="8,-38.2 8,-260.2 293,-260.2 293,-38.2 8,-38.2"/>
<polygon fill="#f5f5f5" stroke="transparent" points="10.5,-235.2 10.5,-258.2 291.5,-258.2 291.5,-235.2 10.5,-235.2"/>
<polygon fill="none" stroke="#000000" points="10.5,-235.2 10.5,-258.2 291.5,-258.2 291.5,-235.2 10.5,-235.2"/>
<text text-anchor="start" x="15.5" y="-243.8" font-family="Helvetica,sans-Serif" font-weight="bold" font-size="11.00" fill="#000000">c_time_to_event</text>
<text text-anchor="start" x="256.5437" y="-243.3" font-family="Helvetica,sans-Serif" font-size="11.00" fill="#000000">[table]</text>
<polygon fill="none" stroke="#000000" points="10.5,-213.2 10.5,-235.2 229.5,-235.2 229.5,-213.2 10.5,-213.2"/>
<text text-anchor="start" x="30.5" y="-220.3" font-family="Helvetica,sans-Serif" font-size="11.00" fill="#000000">database_id</text>
<polygon fill="none" stroke="#000000" points="229.5,-213.2 229.5,-235.2 291.5,-235.2 291.5,-213.2 229.5,-213.2"/>
<text text-anchor="start" x="232.378" y="-220.9" font-family="Helvetica,sans-Serif" font-size="11.00" fill="#000000">unknown[0]</text>
<polygon fill="none" stroke="#000000" points="10.5,-191.2 10.5,-213.2 229.5,-213.2 229.5,-191.2 10.5,-191.2"/>
<text text-anchor="start" x="30.5" y="-198.3" font-family="Helvetica,sans-Serif" font-size="11.00" fill="#000000">num_events</text>
<polygon fill="none" stroke="#000000" points="229.5,-191.2 229.5,-213.2 291.5,-213.2 291.5,-191.2 229.5,-191.2"/>
<text text-anchor="start" x="232.378" y="-198.9" font-family="Helvetica,sans-Serif" font-size="11.00" fill="#000000">unknown[0]</text>
<polygon fill="none" stroke="#000000" points="10.5,-169.2 10.5,-191.2 229.5,-191.2 229.5,-169.2 10.5,-169.2"/>
<text text-anchor="start" x="30.5" y="-176.3" font-family="Helvetica,sans-Serif" font-size="11.00" fill="#000000">outcome_cohort_definition_id</text>
<polygon fill="none" stroke="#000000" points="229.5,-169.2 229.5,-191.2 291.5,-191.2 291.5,-169.2 229.5,-169.2"/>
<text text-anchor="start" x="232.378" y="-176.9" font-family="Helvetica,sans-Serif" font-size="11.00" fill="#000000">unknown[0]</text>
<polygon fill="none" stroke="#000000" points="10.5,-147.2 10.5,-169.2 229.5,-169.2 229.5,-147.2 10.5,-147.2"/>
<text text-anchor="start" x="30.5" y="-154.3" font-family="Helvetica,sans-Serif" font-size="11.00" fill="#000000">outcome_type</text>
<polygon fill="none" stroke="#000000" points="229.5,-147.2 229.5,-169.2 291.5,-169.2 291.5,-147.2 229.5,-147.2"/>
<text text-anchor="start" x="232.378" y="-154.9" font-family="Helvetica,sans-Serif" font-size="11.00" fill="#000000">unknown[0]</text>
<polygon fill="none" stroke="#000000" points="10.5,-125.2 10.5,-147.2 229.5,-147.2 229.5,-125.2 10.5,-125.2"/>
<text text-anchor="start" x="30.5" y="-132.3" font-family="Helvetica,sans-Serif" font-size="11.00" fill="#000000">target_cohort_definition_id</text>
<polygon fill="none" stroke="#000000" points="229.5,-125.2 229.5,-147.2 291.5,-147.2 291.5,-125.2 229.5,-125.2"/>
<text text-anchor="start" x="232.378" y="-132.9" font-family="Helvetica,sans-Serif" font-size="11.00" fill="#000000">unknown[0]</text>
<polygon fill="none" stroke="#000000" points="10.5,-103.2 10.5,-125.2 229.5,-125.2 229.5,-103.2 10.5,-103.2"/>
<text text-anchor="start" x="30.5" y="-110.3" font-family="Helvetica,sans-Serif" font-size="11.00" fill="#000000">target_outcome_type</text>
<polygon fill="none" stroke="#000000" points="229.5,-103.2 229.5,-125.2 291.5,-125.2 291.5,-103.2 229.5,-103.2"/>
<text text-anchor="start" x="232.378" y="-110.9" font-family="Helvetica,sans-Serif" font-size="11.00" fill="#000000">unknown[0]</text>
<polygon fill="none" stroke="#000000" points="10.5,-81.2 10.5,-103.2 229.5,-103.2 229.5,-81.2 10.5,-81.2"/>
<text text-anchor="start" x="30.5" y="-88.3" font-family="Helvetica,sans-Serif" font-size="11.00" fill="#000000">time_scale</text>
<polygon fill="none" stroke="#000000" points="229.5,-81.2 229.5,-103.2 291.5,-103.2 291.5,-81.2 229.5,-81.2"/>
<text text-anchor="start" x="232.378" y="-88.9" font-family="Helvetica,sans-Serif" font-size="11.00" fill="#000000">unknown[0]</text>
<polygon fill="none" stroke="#000000" points="10.5,-59.2 10.5,-81.2 229.5,-81.2 229.5,-59.2 10.5,-59.2"/>
<text text-anchor="start" x="30.5" y="-66.3" font-family="Helvetica,sans-Serif" font-size="11.00" fill="#000000">time_to_event</text>
<polygon fill="none" stroke="#000000" points="229.5,-59.2 229.5,-81.2 291.5,-81.2 291.5,-59.2 229.5,-59.2"/>
<text text-anchor="start" x="232.378" y="-66.9" font-family="Helvetica,sans-Serif" font-size="11.00" fill="#000000">unknown[0]</text>
<polygon fill="#ffffff" stroke="transparent" points="10.5,-40.2 10.5,-59.2 111.5,-59.2 111.5,-40.2 10.5,-40.2"/>
<polygon fill="none" stroke="#000000" points="10.5,-40.2 10.5,-59.2 111.5,-59.2 111.5,-40.2 10.5,-40.2"/>
<text text-anchor="start" x="13.5" y="-46.3" font-family="Helvetica,sans-Serif" font-size="11.00" fill="#000000">&lt; 0</text>
<polygon fill="#ffffff" stroke="transparent" points="111.5,-40.2 111.5,-59.2 229.5,-59.2 229.5,-40.2 111.5,-40.2"/>
<polygon fill="none" stroke="#000000" points="111.5,-40.2 111.5,-59.2 229.5,-59.2 229.5,-40.2 111.5,-40.2"/>
<text text-anchor="start" x="194.1105" y="-46.3" font-family="Helvetica,sans-Serif" font-size="11.00" fill="#000000">0 rows</text>
<polygon fill="#ffffff" stroke="transparent" points="229.5,-40.2 229.5,-59.2 291.5,-59.2 291.5,-40.2 229.5,-40.2"/>
<polygon fill="none" stroke="#000000" points="229.5,-40.2 229.5,-59.2 291.5,-59.2 291.5,-40.2 229.5,-40.2"/>
<text text-anchor="start" x="272.9053" y="-46.3" font-family="Helvetica,sans-Serif" font-size="11.00" fill="#000000">0 &gt;</text>
<polygon fill="none" stroke="#000000" stroke-width="2" points="9,-39.2 9,-259.2 292,-259.2 292,-39.2 9,-39.2"/>
</a>
</g>
</g>
</g>
</svg>
