<?xml version="1.0" encoding="UTF-8" standalone="no"?>
<!DOCTYPE svg PUBLIC "-//W3C//DTD SVG 1.1//EN"
 "http://www.w3.org/Graphics/SVG/1.1/DTD/svg11.dtd">
<!-- Generated by graphviz version 2.40.1 (20161225.0304)
 -->
<!-- Title: oneDegreeRelationshipsDiagram Pages: 1 -->
<svg width="257pt" height="360pt"
 viewBox="0.00 0.00 257.00 360.20" xmlns="http://www.w3.org/2000/svg" xmlns:xlink="http://www.w3.org/1999/xlink">
<g id="graph0" class="graph" transform="scale(1 1) rotate(0) translate(4 356.2)">
<title>oneDegreeRelationshipsDiagram</title>
<polygon fill="#ffffff" stroke="transparent" points="-4,4 -4,-356.2 253,-356.2 253,4 -4,4"/>
<text text-anchor="middle" x="72.4936" y="-7.3" font-family="Helvetica,sans-Serif" font-size="11.00" fill="#000000">Generated by SchemaSpy</text>
<!-- cd_cohort_overlap -->
<g id="node1" class="node">
<title>cd_cohort_overlap</title>
<g id="a_node1"><a xlink:href="../../tables/cd_cohort_overlap.html" xlink:title="cd_cohort_overlap" target="_top">
<polygon fill="#ffffff" stroke="transparent" points="8,-38.2 8,-348.2 241,-348.2 241,-38.2 8,-38.2"/>
<polygon fill="#f5f5f5" stroke="transparent" points="10.5,-323.2 10.5,-346.2 239.5,-346.2 239.5,-323.2 10.5,-323.2"/>
<polygon fill="none" stroke="#000000" points="10.5,-323.2 10.5,-346.2 239.5,-346.2 239.5,-323.2 10.5,-323.2"/>
<text text-anchor="start" x="15.5" y="-331.8" font-family="Helvetica,sans-Serif" font-weight="bold" font-size="11.00" fill="#000000">cd_cohort_overlap</text>
<text text-anchor="start" x="204.5437" y="-331.3" font-family="Helvetica,sans-Serif" font-size="11.00" fill="#000000">[table]</text>
<polygon fill="none" stroke="#000000" points="10.5,-301.2 10.5,-323.2 177.5,-323.2 177.5,-301.2 10.5,-301.2"/>
<text text-anchor="start" x="30.5" y="-308.3" font-family="Helvetica,sans-Serif" font-size="11.00" fill="#000000">both_subjects</text>
<polygon fill="none" stroke="#000000" points="177.5,-301.2 177.5,-323.2 239.5,-323.2 239.5,-301.2 177.5,-301.2"/>
<text text-anchor="start" x="180.378" y="-308.9" font-family="Helvetica,sans-Serif" font-size="11.00" fill="#000000">unknown[0]</text>
<polygon fill="none" stroke="#000000" points="10.5,-279.2 10.5,-301.2 177.5,-301.2 177.5,-279.2 10.5,-279.2"/>
<text text-anchor="start" x="30.5" y="-286.3" font-family="Helvetica,sans-Serif" font-size="11.00" fill="#000000">c_before_t_subjects</text>
<polygon fill="none" stroke="#000000" points="177.5,-279.2 177.5,-301.2 239.5,-301.2 239.5,-279.2 177.5,-279.2"/>
<text text-anchor="start" x="180.378" y="-286.9" font-family="Helvetica,sans-Serif" font-size="11.00" fill="#000000">unknown[0]</text>
<polygon fill="none" stroke="#000000" points="10.5,-257.2 10.5,-279.2 177.5,-279.2 177.5,-257.2 10.5,-257.2"/>
<text text-anchor="start" x="30.5" y="-264.3" font-family="Helvetica,sans-Serif" font-size="11.00" fill="#000000">c_in_t_subjects</text>
<polygon fill="none" stroke="#000000" points="177.5,-257.2 177.5,-279.2 239.5,-279.2 239.5,-257.2 177.5,-257.2"/>
<text text-anchor="start" x="180.378" y="-264.9" font-family="Helvetica,sans-Serif" font-size="11.00" fill="#000000">unknown[0]</text>
<polygon fill="none" stroke="#000000" points="10.5,-235.2 10.5,-257.2 177.5,-257.2 177.5,-235.2 10.5,-235.2"/>
<text text-anchor="start" x="30.5" y="-242.3" font-family="Helvetica,sans-Serif" font-size="11.00" fill="#000000">c_only_subjects</text>
<polygon fill="none" stroke="#000000" points="177.5,-235.2 177.5,-257.2 239.5,-257.2 239.5,-235.2 177.5,-235.2"/>
<text text-anchor="start" x="180.378" y="-242.9" font-family="Helvetica,sans-Serif" font-size="11.00" fill="#000000">unknown[0]</text>
<polygon fill="none" stroke="#000000" points="10.5,-213.2 10.5,-235.2 177.5,-235.2 177.5,-213.2 10.5,-213.2"/>
<text text-anchor="start" x="30.5" y="-220.3" font-family="Helvetica,sans-Serif" font-size="11.00" fill="#000000">comparator_cohort_id</text>
<polygon fill="none" stroke="#000000" points="177.5,-213.2 177.5,-235.2 239.5,-235.2 239.5,-213.2 177.5,-213.2"/>
<text text-anchor="start" x="180.378" y="-220.9" font-family="Helvetica,sans-Serif" font-size="11.00" fill="#000000">unknown[0]</text>
<polygon fill="none" stroke="#000000" points="10.5,-191.2 10.5,-213.2 177.5,-213.2 177.5,-191.2 10.5,-191.2"/>
<text text-anchor="start" x="30.5" y="-198.3" font-family="Helvetica,sans-Serif" font-size="11.00" fill="#000000">database_id</text>
<polygon fill="none" stroke="#000000" points="177.5,-191.2 177.5,-213.2 239.5,-213.2 239.5,-191.2 177.5,-191.2"/>
<text text-anchor="start" x="180.378" y="-198.9" font-family="Helvetica,sans-Serif" font-size="11.00" fill="#000000">unknown[0]</text>
<polygon fill="none" stroke="#000000" points="10.5,-169.2 10.5,-191.2 177.5,-191.2 177.5,-169.2 10.5,-169.2"/>
<text text-anchor="start" x="30.5" y="-176.3" font-family="Helvetica,sans-Serif" font-size="11.00" fill="#000000">either_subjects</text>
<polygon fill="none" stroke="#000000" points="177.5,-169.2 177.5,-191.2 239.5,-191.2 239.5,-169.2 177.5,-169.2"/>
<text text-anchor="start" x="180.378" y="-176.9" font-family="Helvetica,sans-Serif" font-size="11.00" fill="#000000">unknown[0]</text>
<polygon fill="none" stroke="#000000" points="10.5,-147.2 10.5,-169.2 177.5,-169.2 177.5,-147.2 10.5,-147.2"/>
<text text-anchor="start" x="30.5" y="-154.3" font-family="Helvetica,sans-Serif" font-size="11.00" fill="#000000">same_day_subjects</text>
<polygon fill="none" stroke="#000000" points="177.5,-147.2 177.5,-169.2 239.5,-169.2 239.5,-147.2 177.5,-147.2"/>
<text text-anchor="start" x="180.378" y="-154.9" font-family="Helvetica,sans-Serif" font-size="11.00" fill="#000000">unknown[0]</text>
<polygon fill="none" stroke="#000000" points="10.5,-125.2 10.5,-147.2 177.5,-147.2 177.5,-125.2 10.5,-125.2"/>
<text text-anchor="start" x="30.5" y="-132.3" font-family="Helvetica,sans-Serif" font-size="11.00" fill="#000000">t_before_c_subjects</text>
<polygon fill="none" stroke="#000000" points="177.5,-125.2 177.5,-147.2 239.5,-147.2 239.5,-125.2 177.5,-125.2"/>
<text text-anchor="start" x="180.378" y="-132.9" font-family="Helvetica,sans-Serif" font-size="11.00" fill="#000000">unknown[0]</text>
<polygon fill="none" stroke="#000000" points="10.5,-103.2 10.5,-125.2 177.5,-125.2 177.5,-103.2 10.5,-103.2"/>
<text text-anchor="start" x="30.5" y="-110.3" font-family="Helvetica,sans-Serif" font-size="11.00" fill="#000000">t_in_c_subjects</text>
<polygon fill="none" stroke="#000000" points="177.5,-103.2 177.5,-125.2 239.5,-125.2 239.5,-103.2 177.5,-103.2"/>
<text text-anchor="start" x="180.378" y="-110.9" font-family="Helvetica,sans-Serif" font-size="11.00" fill="#000000">unknown[0]</text>
<polygon fill="none" stroke="#000000" points="10.5,-81.2 10.5,-103.2 177.5,-103.2 177.5,-81.2 10.5,-81.2"/>
<text text-anchor="start" x="30.5" y="-88.3" font-family="Helvetica,sans-Serif" font-size="11.00" fill="#000000">t_only_subjects</text>
<polygon fill="none" stroke="#000000" points="177.5,-81.2 177.5,-103.2 239.5,-103.2 239.5,-81.2 177.5,-81.2"/>
<text text-anchor="start" x="180.378" y="-88.9" font-family="Helvetica,sans-Serif" font-size="11.00" fill="#000000">unknown[0]</text>
<polygon fill="none" stroke="#000000" points="10.5,-59.2 10.5,-81.2 177.5,-81.2 177.5,-59.2 10.5,-59.2"/>
<text text-anchor="start" x="30.5" y="-66.3" font-family="Helvetica,sans-Serif" font-size="11.00" fill="#000000">target_cohort_id</text>
<polygon fill="none" stroke="#000000" points="177.5,-59.2 177.5,-81.2 239.5,-81.2 239.5,-59.2 177.5,-59.2"/>
<text text-anchor="start" x="180.378" y="-66.9" font-family="Helvetica,sans-Serif" font-size="11.00" fill="#000000">unknown[0]</text>
<polygon fill="#ffffff" stroke="transparent" points="10.5,-40.2 10.5,-59.2 85.5,-59.2 85.5,-40.2 10.5,-40.2"/>
<polygon fill="none" stroke="#000000" points="10.5,-40.2 10.5,-59.2 85.5,-59.2 85.5,-40.2 10.5,-40.2"/>
<text text-anchor="start" x="13.5" y="-46.3" font-family="Helvetica,sans-Serif" font-size="11.00" fill="#000000">&lt; 0</text>
<polygon fill="#ffffff" stroke="transparent" points="85.5,-40.2 85.5,-59.2 177.5,-59.2 177.5,-40.2 85.5,-40.2"/>
<polygon fill="none" stroke="#000000" points="85.5,-40.2 85.5,-59.2 177.5,-59.2 177.5,-40.2 85.5,-40.2"/>
<text text-anchor="start" x="142.1105" y="-46.3" font-family="Helvetica,sans-Serif" font-size="11.00" fill="#000000">0 rows</text>
<polygon fill="#ffffff" stroke="transparent" points="177.5,-40.2 177.5,-59.2 239.5,-59.2 239.5,-40.2 177.5,-40.2"/>
<polygon fill="none" stroke="#000000" points="177.5,-40.2 177.5,-59.2 239.5,-59.2 239.5,-40.2 177.5,-40.2"/>
<text text-anchor="start" x="220.9053" y="-46.3" font-family="Helvetica,sans-Serif" font-size="11.00" fill="#000000">0 &gt;</text>
<polygon fill="none" stroke="#000000" stroke-width="2" points="9,-39.2 9,-347.2 240,-347.2 240,-39.2 9,-39.2"/>
</a>
</g>
</g>
</g>
</svg>
