<?xml version="1.0" encoding="UTF-8" standalone="no"?>
<!DOCTYPE svg PUBLIC "-//W3C//DTD SVG 1.1//EN"
 "http://www.w3.org/Graphics/SVG/1.1/DTD/svg11.dtd">
<!-- Generated by graphviz version 2.40.1 (20161225.0304)
 -->
<!-- Title: oneDegreeRelationshipsDiagram Pages: 1 -->
<svg width="722pt" height="201pt"
 viewBox="0.00 0.00 722.00 200.70" xmlns="http://www.w3.org/2000/svg" xmlns:xlink="http://www.w3.org/1999/xlink">
<g id="graph0" class="graph" transform="scale(1 1) rotate(0) translate(4 196.7)">
<title>oneDegreeRelationshipsDiagram</title>
<polygon fill="#ffffff" stroke="transparent" points="-4,4 -4,-196.7 718,-196.7 718,4 -4,4"/>
<text text-anchor="middle" x="72.4936" y="-7.3" font-family="Helvetica,sans-Serif" font-size="11.00" fill="#000000">Generated by SchemaSpy</text>
<!-- cd_cohort_count -->
<g id="node1" class="node">
<title>cd_cohort_count</title>
<g id="a_node1"><a xlink:href="../../tables/cd_cohort_count.html" xlink:title="cd_cohort_count" target="_top">
<polygon fill="#ffffff" stroke="transparent" points="302,-54.7 302,-188.7 498,-188.7 498,-54.7 302,-54.7"/>
<polygon fill="#f5f5f5" stroke="transparent" points="304,-163.7 304,-186.7 496,-186.7 496,-163.7 304,-163.7"/>
<polygon fill="none" stroke="#000000" points="304,-163.7 304,-186.7 496,-186.7 496,-163.7 304,-163.7"/>
<text text-anchor="start" x="309" y="-172.3" font-family="Helvetica,sans-Serif" font-weight="bold" font-size="11.00" fill="#000000">cd_cohort_count</text>
<text text-anchor="start" x="461.0437" y="-171.8" font-family="Helvetica,sans-Serif" font-size="11.00" fill="#000000">[table]</text>
<polygon fill="none" stroke="#000000" points="304,-141.7 304,-163.7 434,-163.7 434,-141.7 304,-141.7"/>
<text text-anchor="start" x="324" y="-148.8" font-family="Helvetica,sans-Serif" font-size="11.00" fill="#000000">cohort_entries</text>
<polygon fill="none" stroke="#000000" points="434,-141.7 434,-163.7 496,-163.7 496,-141.7 434,-141.7"/>
<text text-anchor="start" x="436.878" y="-149.4" font-family="Helvetica,sans-Serif" font-size="11.00" fill="#000000">unknown[0]</text>
<polygon fill="none" stroke="#000000" points="304,-119.7 304,-141.7 434,-141.7 434,-119.7 304,-119.7"/>
<image xlink:href="../../images/primaryKeys.png" width="11px" height="12px" preserveAspectRatio="xMinYMin meet" x="309" y="-136.7"/>
<text text-anchor="start" x="324" y="-126.8" font-family="Helvetica,sans-Serif" font-size="11.00" fill="#000000">cohort_id</text>
<polygon fill="none" stroke="#000000" points="434,-119.7 434,-141.7 496,-141.7 496,-119.7 434,-119.7"/>
<text text-anchor="start" x="436.878" y="-127.4" font-family="Helvetica,sans-Serif" font-size="11.00" fill="#000000">unknown[0]</text>
<polygon fill="none" stroke="#000000" points="304,-97.7 304,-119.7 434,-119.7 434,-97.7 304,-97.7"/>
<text text-anchor="start" x="324" y="-104.8" font-family="Helvetica,sans-Serif" font-size="11.00" fill="#000000">cohort_subjects</text>
<polygon fill="none" stroke="#000000" points="434,-97.7 434,-119.7 496,-119.7 496,-97.7 434,-97.7"/>
<text text-anchor="start" x="436.878" y="-105.4" font-family="Helvetica,sans-Serif" font-size="11.00" fill="#000000">unknown[0]</text>
<polygon fill="none" stroke="#000000" points="304,-75.7 304,-97.7 434,-97.7 434,-75.7 304,-75.7"/>
<image xlink:href="../../images/primaryKeys.png" width="11px" height="12px" preserveAspectRatio="xMinYMin meet" x="309" y="-92.7"/>
<text text-anchor="start" x="324" y="-82.8" font-family="Helvetica,sans-Serif" font-size="11.00" fill="#000000">database_id</text>
<polygon fill="none" stroke="#000000" points="434,-75.7 434,-97.7 496,-97.7 496,-75.7 434,-75.7"/>
<text text-anchor="start" x="436.878" y="-83.4" font-family="Helvetica,sans-Serif" font-size="11.00" fill="#000000">unknown[0]</text>
<polygon fill="#ffffff" stroke="transparent" points="304,-56.7 304,-75.7 360,-75.7 360,-56.7 304,-56.7"/>
<polygon fill="none" stroke="#000000" points="304,-56.7 304,-75.7 360,-75.7 360,-56.7 304,-56.7"/>
<text text-anchor="start" x="307" y="-62.8" font-family="Helvetica,sans-Serif" font-size="11.00" fill="#000000">&lt; 1</text>
<polygon fill="#ffffff" stroke="transparent" points="360,-56.7 360,-75.7 434,-75.7 434,-56.7 360,-56.7"/>
<polygon fill="none" stroke="#000000" points="360,-56.7 360,-75.7 434,-75.7 434,-56.7 360,-56.7"/>
<text text-anchor="start" x="398.6105" y="-62.8" font-family="Helvetica,sans-Serif" font-size="11.00" fill="#000000">0 rows</text>
<polygon fill="#ffffff" stroke="transparent" points="434,-56.7 434,-75.7 496,-75.7 496,-56.7 434,-56.7"/>
<polygon fill="none" stroke="#000000" points="434,-56.7 434,-75.7 496,-75.7 496,-56.7 434,-56.7"/>
<text text-anchor="start" x="477.4053" y="-62.8" font-family="Helvetica,sans-Serif" font-size="11.00" fill="#000000">2 &gt;</text>
<polygon fill="none" stroke="#000000" stroke-width="2" points="303,-55.7 303,-187.7 497,-187.7 497,-55.7 303,-55.7"/>
</a>
</g>
</g>
<!-- database_meta_data -->
<g id="node2" class="node">
<title>database_meta_data</title>
<g id="a_node2"><a xlink:href="../../tables/database_meta_data.html" xlink:title="database_meta_data" target="_top">
<polygon fill="#ffffff" stroke="transparent" points="8,-38.2 8,-121.2 253,-121.2 253,-38.2 8,-38.2"/>
<polygon fill="#f5f5f5" stroke="transparent" points="8.5,-97.7 8.5,-120.7 253.5,-120.7 253.5,-97.7 8.5,-97.7"/>
<polygon fill="none" stroke="#000000" points="8.5,-97.7 8.5,-120.7 253.5,-120.7 253.5,-97.7 8.5,-97.7"/>
<text text-anchor="start" x="13.5" y="-106.3" font-family="Helvetica,sans-Serif" font-weight="bold" font-size="11.00" fill="#000000">database_meta_data</text>
<text text-anchor="start" x="218.5437" y="-105.8" font-family="Helvetica,sans-Serif" font-size="11.00" fill="#000000">[table]</text>
<polygon fill="none" stroke="#000000" points="8.5,-75.7 8.5,-97.7 253.5,-97.7 253.5,-75.7 8.5,-75.7"/>
<image xlink:href="../../images/primaryKeys.png" width="11px" height="12px" preserveAspectRatio="xMinYMin meet" x="13.5" y="-92.7"/>
<text text-anchor="start" x="28.5" y="-82.8" font-family="Helvetica,sans-Serif" font-size="11.00" fill="#000000">database_id</text>
<polygon fill="none" stroke="#000000" points="8.5,-56.7 8.5,-75.7 253.5,-75.7 253.5,-56.7 8.5,-56.7"/>
<text text-anchor="start" x="11.5" y="-62.8" font-family="Helvetica,sans-Serif" font-size="11.00" fill="#000000">...</text>
<polygon fill="#ffffff" stroke="transparent" points="8.5,-37.7 8.5,-56.7 108.5,-56.7 108.5,-37.7 8.5,-37.7"/>
<polygon fill="none" stroke="#000000" points="8.5,-37.7 8.5,-56.7 108.5,-56.7 108.5,-37.7 8.5,-37.7"/>
<text text-anchor="start" x="11.5" y="-43.8" font-family="Helvetica,sans-Serif" font-size="11.00" fill="#000000">&lt; 1</text>
<polygon fill="#ffffff" stroke="transparent" points="108.5,-37.7 108.5,-56.7 186.5,-56.7 186.5,-37.7 108.5,-37.7"/>
<polygon fill="none" stroke="#000000" points="108.5,-37.7 108.5,-56.7 186.5,-56.7 186.5,-37.7 108.5,-37.7"/>
<text text-anchor="start" x="151.1105" y="-43.8" font-family="Helvetica,sans-Serif" font-size="11.00" fill="#000000">0 rows</text>
<polygon fill="#ffffff" stroke="transparent" points="186.5,-37.7 186.5,-56.7 253.5,-56.7 253.5,-37.7 186.5,-37.7"/>
<polygon fill="none" stroke="#000000" points="186.5,-37.7 186.5,-56.7 253.5,-56.7 253.5,-37.7 186.5,-37.7"/>
<text text-anchor="start" x="228.7904" y="-43.8" font-family="Helvetica,sans-Serif" font-size="11.00" fill="#000000">17 &gt;</text>
</a>
</g>
</g>
<!-- cd_cohort_count&#45;&gt;database_meta_data -->
<g id="edge1" class="edge">
<title>cd_cohort_count:w&#45;&gt;database_meta_data:e</title>
<path fill="none" stroke="#000000" d="M289.4203,-86.7C277.5435,-86.7 270.158,-86.7 253.5,-86.7"/>
<polygon fill="#000000" stroke="#000000" points="296,-86.7001 304,-90.3 300,-86.7 304,-86.7 304,-86.7 304,-86.7 300,-86.7 304,-83.1 296,-86.7001 296,-86.7001"/>
<ellipse fill="none" stroke="#000000" cx="292.8" cy="-86.7001" rx="3.2" ry="3.2"/>
</g>
<!-- cd_incidence_rate -->
<g id="node3" class="node">
<title>cd_incidence_rate</title>
<g id="a_node3"><a xlink:href="../../tables/cd_incidence_rate.html" xlink:title="cd_incidence_rate" target="_top">
<polygon fill="#ffffff" stroke="transparent" points="547,-49.2 547,-154.2 706,-154.2 706,-49.2 547,-49.2"/>
<polygon fill="#f5f5f5" stroke="transparent" points="547.5,-130.7 547.5,-153.7 706.5,-153.7 706.5,-130.7 547.5,-130.7"/>
<polygon fill="none" stroke="#000000" points="547.5,-130.7 547.5,-153.7 706.5,-153.7 706.5,-130.7 547.5,-130.7"/>
<text text-anchor="start" x="552.5" y="-139.3" font-family="Helvetica,sans-Serif" font-weight="bold" font-size="11.00" fill="#000000">cd_incidence_rate</text>
<text text-anchor="start" x="672.0219" y="-138.8" font-family="Helvetica,sans-Serif" font-size="11.00" fill="#000000">[table]</text>
<polygon fill="none" stroke="#000000" points="547.5,-108.7 547.5,-130.7 706.5,-130.7 706.5,-108.7 547.5,-108.7"/>
<image xlink:href="../../images/foreignKeys.png" width="11px" height="12px" preserveAspectRatio="xMinYMin meet" x="552.5" y="-125.7"/>
<text text-anchor="start" x="576.5" y="-115.8" font-family="Helvetica,sans-Serif" font-size="11.00" fill="#000000">cohort_id</text>
<polygon fill="none" stroke="#000000" points="547.5,-86.7 547.5,-108.7 706.5,-108.7 706.5,-86.7 547.5,-86.7"/>
<image xlink:href="../../images/foreignKeys.png" width="11px" height="12px" preserveAspectRatio="xMinYMin meet" x="552.5" y="-103.7"/>
<text text-anchor="start" x="576.5" y="-93.8" font-family="Helvetica,sans-Serif" font-size="11.00" fill="#000000">database_id</text>
<polygon fill="none" stroke="#000000" points="547.5,-67.7 547.5,-86.7 706.5,-86.7 706.5,-67.7 547.5,-67.7"/>
<text text-anchor="start" x="550.5" y="-73.8" font-family="Helvetica,sans-Serif" font-size="11.00" fill="#000000">...</text>
<polygon fill="#ffffff" stroke="transparent" points="547.5,-48.7 547.5,-67.7 612.5,-67.7 612.5,-48.7 547.5,-48.7"/>
<polygon fill="none" stroke="#000000" points="547.5,-48.7 547.5,-67.7 612.5,-67.7 612.5,-48.7 547.5,-48.7"/>
<text text-anchor="start" x="550.5" y="-54.8" font-family="Helvetica,sans-Serif" font-size="11.00" fill="#000000">&lt; 2</text>
<polygon fill="#ffffff" stroke="transparent" points="612.5,-48.7 612.5,-67.7 672.5,-67.7 672.5,-48.7 612.5,-48.7"/>
<polygon fill="none" stroke="#000000" points="612.5,-48.7 612.5,-67.7 672.5,-67.7 672.5,-48.7 612.5,-48.7"/>
<text text-anchor="start" x="637.1105" y="-54.8" font-family="Helvetica,sans-Serif" font-size="11.00" fill="#000000">0 rows</text>
<polygon fill="#ffffff" stroke="transparent" points="672.5,-48.7 672.5,-67.7 706.5,-67.7 706.5,-48.7 672.5,-48.7"/>
<polygon fill="none" stroke="#000000" points="672.5,-48.7 672.5,-67.7 706.5,-67.7 706.5,-48.7 672.5,-48.7"/>
<text text-anchor="start" x="697.3862" y="-54.8" font-family="Helvetica,sans-Serif" font-size="11.00" fill="#000000"> &#160;</text>
</a>
</g>
</g>
<!-- cd_incidence_rate&#45;&gt;cd_cohort_count -->
<g id="edge2" class="edge">
<title>cd_incidence_rate:w&#45;&gt;cd_cohort_count:e</title>
<path fill="none" stroke="#000000" d="M532.8704,-121.4188C520.5803,-124.5125 513.5539,-130.7 496,-130.7"/>
<polygon fill="#000000" stroke="#000000" points="539.5546,-120.6335 547.9201,-123.2754 543.5273,-120.1668 547.5,-119.7 547.5,-119.7 547.5,-119.7 543.5273,-120.1668 547.0799,-116.1246 539.5546,-120.6335 539.5546,-120.6335"/>
<ellipse fill="none" stroke="#000000" cx="536.3765" cy="-121.0069" rx="3.2" ry="3.2"/>
</g>
<!-- cd_incidence_rate&#45;&gt;cd_cohort_count -->
<g id="edge3" class="edge">
<title>cd_incidence_rate:w&#45;&gt;cd_cohort_count:e</title>
<path fill="none" stroke="#000000" d="M532.8704,-95.9813C520.5803,-92.8875 513.5539,-86.7 496,-86.7"/>
<polygon fill="#000000" stroke="#000000" points="539.5546,-96.7665 547.0799,-101.2754 543.5273,-97.2332 547.5,-97.7 547.5,-97.7 547.5,-97.7 543.5273,-97.2332 547.9201,-94.1246 539.5546,-96.7665 539.5546,-96.7665"/>
<ellipse fill="none" stroke="#000000" cx="536.3765" cy="-96.3931" rx="3.2" ry="3.2"/>
</g>
</g>
</svg>
