<?xml version="1.0" encoding="UTF-8" standalone="no"?>
<!DOCTYPE svg PUBLIC "-//W3C//DTD SVG 1.1//EN"
 "http://www.w3.org/Graphics/SVG/1.1/DTD/svg11.dtd">
<!-- Generated by graphviz version 2.40.1 (20161225.0304)
 -->
<!-- Title: twoDegreesRelationshipsDiagram Pages: 1 -->
<svg width="488pt" height="289pt"
 viewBox="0.00 0.00 488.00 288.70" xmlns="http://www.w3.org/2000/svg" xmlns:xlink="http://www.w3.org/1999/xlink">
<g id="graph0" class="graph" transform="scale(1 1) rotate(0) translate(4 284.7)">
<title>twoDegreesRelationshipsDiagram</title>
<polygon fill="#ffffff" stroke="transparent" points="-4,4 -4,-284.7 484,-284.7 484,4 -4,4"/>
<text text-anchor="middle" x="72.4936" y="-7.3" font-family="Helvetica,sans-Serif" font-size="11.00" fill="#000000">Generated by SchemaSpy</text>
<!-- cd_orphan_concept -->
<g id="node1" class="node">
<title>cd_orphan_concept</title>
<g id="a_node1"><a xlink:href="../../tables/cd_orphan_concept.html" xlink:title="cd_orphan_concept" target="_top">
<polygon fill="#ffffff" stroke="transparent" points="304,-65.7 304,-192.7 472,-192.7 472,-65.7 304,-65.7"/>
<polygon fill="#f5f5f5" stroke="transparent" points="304,-169.2 304,-192.2 472,-192.2 472,-169.2 304,-169.2"/>
<polygon fill="none" stroke="#000000" points="304,-169.2 304,-192.2 472,-192.2 472,-169.2 304,-169.2"/>
<text text-anchor="start" x="309" y="-177.8" font-family="Helvetica,sans-Serif" font-weight="bold" font-size="11.00" fill="#000000">cd_orphan_concept</text>
<text text-anchor="start" x="437.5219" y="-177.3" font-family="Helvetica,sans-Serif" font-size="11.00" fill="#000000">[table]</text>
<polygon fill="none" stroke="#000000" points="304,-147.2 304,-169.2 472,-169.2 472,-147.2 304,-147.2"/>
<image xlink:href="../../images/foreignKeys.png" width="11px" height="12px" preserveAspectRatio="xMinYMin meet" x="309" y="-164.2"/>
<text text-anchor="start" x="333" y="-154.3" font-family="Helvetica,sans-Serif" font-size="11.00" fill="#000000">cohort_id</text>
<polygon fill="none" stroke="#000000" points="304,-125.2 304,-147.2 472,-147.2 472,-125.2 304,-125.2"/>
<image xlink:href="../../images/foreignKeys.png" width="11px" height="12px" preserveAspectRatio="xMinYMin meet" x="309" y="-142.2"/>
<text text-anchor="start" x="333" y="-132.3" font-family="Helvetica,sans-Serif" font-size="11.00" fill="#000000">concept_id</text>
<polygon fill="none" stroke="#000000" points="304,-103.2 304,-125.2 472,-125.2 472,-103.2 304,-103.2"/>
<image xlink:href="../../images/foreignKeys.png" width="11px" height="12px" preserveAspectRatio="xMinYMin meet" x="309" y="-120.2"/>
<text text-anchor="start" x="333" y="-110.3" font-family="Helvetica,sans-Serif" font-size="11.00" fill="#000000">concept_set_id</text>
<polygon fill="none" stroke="#000000" points="304,-84.2 304,-103.2 472,-103.2 472,-84.2 304,-84.2"/>
<text text-anchor="start" x="307" y="-90.3" font-family="Helvetica,sans-Serif" font-size="11.00" fill="#000000">...</text>
<polygon fill="#ffffff" stroke="transparent" points="304,-65.2 304,-84.2 373,-84.2 373,-65.2 304,-65.2"/>
<polygon fill="none" stroke="#000000" points="304,-65.2 304,-84.2 373,-84.2 373,-65.2 304,-65.2"/>
<text text-anchor="start" x="307" y="-71.3" font-family="Helvetica,sans-Serif" font-size="11.00" fill="#000000">&lt; 3</text>
<polygon fill="#ffffff" stroke="transparent" points="373,-65.2 373,-84.2 435,-84.2 435,-65.2 373,-65.2"/>
<polygon fill="none" stroke="#000000" points="373,-65.2 373,-84.2 435,-84.2 435,-65.2 373,-65.2"/>
<text text-anchor="start" x="399.6105" y="-71.3" font-family="Helvetica,sans-Serif" font-size="11.00" fill="#000000">0 rows</text>
<polygon fill="#ffffff" stroke="transparent" points="435,-65.2 435,-84.2 472,-84.2 472,-65.2 435,-65.2"/>
<polygon fill="none" stroke="#000000" points="435,-65.2 435,-84.2 472,-84.2 472,-65.2 435,-65.2"/>
<text text-anchor="start" x="462.8862" y="-71.3" font-family="Helvetica,sans-Serif" font-size="11.00" fill="#000000"> &#160;</text>
</a>
</g>
</g>
<!-- cd_concept_sets -->
<g id="node2" class="node">
<title>cd_concept_sets</title>
<g id="a_node2"><a xlink:href="../../tables/cd_concept_sets.html" xlink:title="cd_concept_sets" target="_top">
<polygon fill="#ffffff" stroke="transparent" points="8,-38.2 8,-194.2 255,-194.2 255,-38.2 8,-38.2"/>
<polygon fill="#f5f5f5" stroke="transparent" points="10.5,-169.2 10.5,-192.2 253.5,-192.2 253.5,-169.2 10.5,-169.2"/>
<polygon fill="none" stroke="#000000" points="10.5,-169.2 10.5,-192.2 253.5,-192.2 253.5,-169.2 10.5,-169.2"/>
<text text-anchor="start" x="15.5" y="-177.8" font-family="Helvetica,sans-Serif" font-weight="bold" font-size="11.00" fill="#000000">cd_concept_sets</text>
<text text-anchor="start" x="218.5437" y="-177.3" font-family="Helvetica,sans-Serif" font-size="11.00" fill="#000000">[table]</text>
<polygon fill="none" stroke="#000000" points="10.5,-147.2 10.5,-169.2 191.5,-169.2 191.5,-147.2 10.5,-147.2"/>
<image xlink:href="../../images/primaryKeys.png" width="11px" height="12px" preserveAspectRatio="xMinYMin meet" x="15.5" y="-164.2"/>
<text text-anchor="start" x="30.5" y="-154.3" font-family="Helvetica,sans-Serif" font-size="11.00" fill="#000000">cohort_id</text>
<polygon fill="none" stroke="#000000" points="191.5,-147.2 191.5,-169.2 253.5,-169.2 253.5,-147.2 191.5,-147.2"/>
<text text-anchor="start" x="194.378" y="-154.9" font-family="Helvetica,sans-Serif" font-size="11.00" fill="#000000">unknown[0]</text>
<polygon fill="none" stroke="#000000" points="10.5,-125.2 10.5,-147.2 191.5,-147.2 191.5,-125.2 10.5,-125.2"/>
<text text-anchor="start" x="30.5" y="-132.3" font-family="Helvetica,sans-Serif" font-size="11.00" fill="#000000">concept_set_expression</text>
<polygon fill="none" stroke="#000000" points="191.5,-125.2 191.5,-147.2 253.5,-147.2 253.5,-125.2 191.5,-125.2"/>
<text text-anchor="start" x="194.378" y="-132.9" font-family="Helvetica,sans-Serif" font-size="11.00" fill="#000000">unknown[0]</text>
<polygon fill="none" stroke="#000000" points="10.5,-103.2 10.5,-125.2 191.5,-125.2 191.5,-103.2 10.5,-103.2"/>
<image xlink:href="../../images/primaryKeys.png" width="11px" height="12px" preserveAspectRatio="xMinYMin meet" x="15.5" y="-120.2"/>
<text text-anchor="start" x="30.5" y="-110.3" font-family="Helvetica,sans-Serif" font-size="11.00" fill="#000000">concept_set_id</text>
<polygon fill="none" stroke="#000000" points="191.5,-103.2 191.5,-125.2 253.5,-125.2 253.5,-103.2 191.5,-103.2"/>
<text text-anchor="start" x="194.378" y="-110.9" font-family="Helvetica,sans-Serif" font-size="11.00" fill="#000000">unknown[0]</text>
<polygon fill="none" stroke="#000000" points="10.5,-81.2 10.5,-103.2 191.5,-103.2 191.5,-81.2 10.5,-81.2"/>
<text text-anchor="start" x="30.5" y="-88.3" font-family="Helvetica,sans-Serif" font-size="11.00" fill="#000000">concept_set_name</text>
<polygon fill="none" stroke="#000000" points="191.5,-81.2 191.5,-103.2 253.5,-103.2 253.5,-81.2 191.5,-81.2"/>
<text text-anchor="start" x="194.378" y="-88.9" font-family="Helvetica,sans-Serif" font-size="11.00" fill="#000000">unknown[0]</text>
<polygon fill="none" stroke="#000000" points="10.5,-59.2 10.5,-81.2 191.5,-81.2 191.5,-59.2 10.5,-59.2"/>
<text text-anchor="start" x="30.5" y="-66.3" font-family="Helvetica,sans-Serif" font-size="11.00" fill="#000000">concept_set_sql</text>
<polygon fill="none" stroke="#000000" points="191.5,-59.2 191.5,-81.2 253.5,-81.2 253.5,-59.2 191.5,-59.2"/>
<text text-anchor="start" x="194.378" y="-66.9" font-family="Helvetica,sans-Serif" font-size="11.00" fill="#000000">unknown[0]</text>
<polygon fill="#ffffff" stroke="transparent" points="10.5,-40.2 10.5,-59.2 92.5,-59.2 92.5,-40.2 10.5,-40.2"/>
<polygon fill="none" stroke="#000000" points="10.5,-40.2 10.5,-59.2 92.5,-59.2 92.5,-40.2 10.5,-40.2"/>
<text text-anchor="start" x="13.5" y="-46.3" font-family="Helvetica,sans-Serif" font-size="11.00" fill="#000000">&lt; 0</text>
<polygon fill="#ffffff" stroke="transparent" points="92.5,-40.2 92.5,-59.2 191.5,-59.2 191.5,-40.2 92.5,-40.2"/>
<polygon fill="none" stroke="#000000" points="92.5,-40.2 92.5,-59.2 191.5,-59.2 191.5,-40.2 92.5,-40.2"/>
<text text-anchor="start" x="156.1105" y="-46.3" font-family="Helvetica,sans-Serif" font-size="11.00" fill="#000000">0 rows</text>
<polygon fill="#ffffff" stroke="transparent" points="191.5,-40.2 191.5,-59.2 253.5,-59.2 253.5,-40.2 191.5,-40.2"/>
<polygon fill="none" stroke="#000000" points="191.5,-40.2 191.5,-59.2 253.5,-59.2 253.5,-40.2 191.5,-40.2"/>
<text text-anchor="start" x="234.9053" y="-46.3" font-family="Helvetica,sans-Serif" font-size="11.00" fill="#000000">2 &gt;</text>
<polygon fill="none" stroke="#000000" stroke-width="2" points="9,-39.2 9,-193.2 254,-193.2 254,-39.2 9,-39.2"/>
</a>
</g>
</g>
<!-- cd_orphan_concept&#45;&gt;cd_concept_sets -->
<g id="edge1" class="edge">
<title>cd_orphan_concept:w&#45;&gt;cd_concept_sets:e</title>
<path fill="none" stroke="#000000" d="M289.4203,-158.2C277.5435,-158.2 270.158,-158.2 253.5,-158.2"/>
<polygon fill="#000000" stroke="#000000" points="296,-158.2001 304,-161.8 300,-158.2 304,-158.2 304,-158.2 304,-158.2 300,-158.2 304,-154.6 296,-158.2001 296,-158.2001"/>
<ellipse fill="none" stroke="#000000" cx="292.8" cy="-158.2001" rx="3.2" ry="3.2"/>
</g>
<!-- cd_orphan_concept&#45;&gt;cd_concept_sets -->
<g id="edge3" class="edge">
<title>cd_orphan_concept:w&#45;&gt;cd_concept_sets:e</title>
<path fill="none" stroke="#000000" d="M289.4203,-114.2C277.5435,-114.2 270.158,-114.2 253.5,-114.2"/>
<polygon fill="#000000" stroke="#000000" points="296,-114.2001 304,-117.8 300,-114.2 304,-114.2 304,-114.2 304,-114.2 300,-114.2 304,-110.6 296,-114.2001 296,-114.2001"/>
<ellipse fill="none" stroke="#000000" cx="292.8" cy="-114.2001" rx="3.2" ry="3.2"/>
</g>
<!-- cd_concept -->
<g id="node3" class="node">
<title>cd_concept</title>
<g id="a_node3"><a xlink:href="../../tables/cd_concept.html" xlink:title="cd_concept" target="_top">
<polygon fill="#ffffff" stroke="transparent" points="74.5,-215.7 74.5,-276.7 188.5,-276.7 188.5,-215.7 74.5,-215.7"/>
<polygon fill="#f5f5f5" stroke="transparent" points="74.5,-253.2 74.5,-276.2 188.5,-276.2 188.5,-253.2 74.5,-253.2"/>
<polygon fill="none" stroke="#000000" points="74.5,-253.2 74.5,-276.2 188.5,-276.2 188.5,-253.2 74.5,-253.2"/>
<text text-anchor="start" x="79.5" y="-261.8" font-family="Helvetica,sans-Serif" font-weight="bold" font-size="11.00" fill="#000000">cd_concept</text>
<text text-anchor="start" x="154.0219" y="-261.3" font-family="Helvetica,sans-Serif" font-size="11.00" fill="#000000">[table]</text>
<polygon fill="none" stroke="#000000" points="74.5,-234.2 74.5,-253.2 188.5,-253.2 188.5,-234.2 74.5,-234.2"/>
<text text-anchor="start" x="77.5" y="-240.3" font-family="Helvetica,sans-Serif" font-size="11.00" fill="#000000">...</text>
<polygon fill="#ffffff" stroke="transparent" points="74.5,-215.2 74.5,-234.2 107.5,-234.2 107.5,-215.2 74.5,-215.2"/>
<polygon fill="none" stroke="#000000" points="74.5,-215.2 74.5,-234.2 107.5,-234.2 107.5,-215.2 74.5,-215.2"/>
<text text-anchor="start" x="77.5" y="-221.3" font-family="Helvetica,sans-Serif" font-size="11.00" fill="#000000"> &#160;</text>
<polygon fill="#ffffff" stroke="transparent" points="107.5,-215.2 107.5,-234.2 156.5,-234.2 156.5,-215.2 107.5,-215.2"/>
<polygon fill="none" stroke="#000000" points="107.5,-215.2 107.5,-234.2 156.5,-234.2 156.5,-215.2 107.5,-215.2"/>
<text text-anchor="start" x="121.1105" y="-221.3" font-family="Helvetica,sans-Serif" font-size="11.00" fill="#000000">0 rows</text>
<polygon fill="#ffffff" stroke="transparent" points="156.5,-215.2 156.5,-234.2 188.5,-234.2 188.5,-215.2 156.5,-215.2"/>
<polygon fill="none" stroke="#000000" points="156.5,-215.2 156.5,-234.2 188.5,-234.2 188.5,-215.2 156.5,-215.2"/>
<text text-anchor="start" x="169.9053" y="-221.3" font-family="Helvetica,sans-Serif" font-size="11.00" fill="#000000">3 &gt;</text>
</a>
</g>
</g>
<!-- cd_orphan_concept&#45;&gt;cd_concept -->
<g id="edge2" class="edge">
<title>cd_orphan_concept:w&#45;&gt;cd_concept:e</title>
<path fill="none" stroke="#000000" d="M289.6324,-140.1443C274.2571,-151.5766 284.3477,-185.1862 263,-205.2 235.8836,-230.6221 225.6696,-243.2 188.5,-243.2"/>
<polygon fill="#000000" stroke="#000000" points="296.2854,-138.3179 304.9531,-139.6716 300.1427,-137.259 304,-136.2 304,-136.2 304,-136.2 300.1427,-137.259 303.0469,-132.7284 296.2854,-138.3179 296.2854,-138.3179"/>
<ellipse fill="none" stroke="#000000" cx="293.1996" cy="-139.1651" rx="3.2" ry="3.2"/>
</g>
</g>
</svg>
