<?xml version="1.0" encoding="UTF-8" standalone="no"?>
<!DOCTYPE svg PUBLIC "-//W3C//DTD SVG 1.1//EN"
 "http://www.w3.org/Graphics/SVG/1.1/DTD/svg11.dtd">
<!-- Generated by graphviz version 2.40.1 (20161225.0304)
 -->
<!-- Title: oneDegreeRelationshipsDiagram Pages: 1 -->
<svg width="273pt" height="228pt"
 viewBox="0.00 0.00 273.00 228.20" xmlns="http://www.w3.org/2000/svg" xmlns:xlink="http://www.w3.org/1999/xlink">
<g id="graph0" class="graph" transform="scale(1 1) rotate(0) translate(4 224.2)">
<title>oneDegreeRelationshipsDiagram</title>
<polygon fill="#ffffff" stroke="transparent" points="-4,4 -4,-224.2 269,-224.2 269,4 -4,4"/>
<text text-anchor="middle" x="72.4936" y="-7.3" font-family="Helvetica,sans-Serif" font-size="11.00" fill="#000000">Generated by SchemaSpy</text>
<!-- cd_concept_relationship -->
<g id="node1" class="node">
<title>cd_concept_relationship</title>
<g id="a_node1"><a xlink:href="../../tables/cd_concept_relationship.html" xlink:title="cd_concept_relationship" target="_top">
<polygon fill="#ffffff" stroke="transparent" points="8,-38.2 8,-216.2 257,-216.2 257,-38.2 8,-38.2"/>
<polygon fill="#f5f5f5" stroke="transparent" points="10.5,-191.2 10.5,-214.2 255.5,-214.2 255.5,-191.2 10.5,-191.2"/>
<polygon fill="none" stroke="#000000" points="10.5,-191.2 10.5,-214.2 255.5,-214.2 255.5,-191.2 10.5,-191.2"/>
<text text-anchor="start" x="15.5" y="-199.8" font-family="Helvetica,sans-Serif" font-weight="bold" font-size="11.00" fill="#000000">cd_concept_relationship</text>
<text text-anchor="start" x="220.5437" y="-199.3" font-family="Helvetica,sans-Serif" font-size="11.00" fill="#000000">[table]</text>
<polygon fill="none" stroke="#000000" points="10.5,-169.2 10.5,-191.2 193.5,-191.2 193.5,-169.2 10.5,-169.2"/>
<text text-anchor="start" x="30.5" y="-176.3" font-family="Helvetica,sans-Serif" font-size="11.00" fill="#000000">concept_id_1</text>
<polygon fill="none" stroke="#000000" points="193.5,-169.2 193.5,-191.2 255.5,-191.2 255.5,-169.2 193.5,-169.2"/>
<text text-anchor="start" x="196.378" y="-176.9" font-family="Helvetica,sans-Serif" font-size="11.00" fill="#000000">unknown[0]</text>
<polygon fill="none" stroke="#000000" points="10.5,-147.2 10.5,-169.2 193.5,-169.2 193.5,-147.2 10.5,-147.2"/>
<text text-anchor="start" x="30.5" y="-154.3" font-family="Helvetica,sans-Serif" font-size="11.00" fill="#000000">concept_id_2</text>
<polygon fill="none" stroke="#000000" points="193.5,-147.2 193.5,-169.2 255.5,-169.2 255.5,-147.2 193.5,-147.2"/>
<text text-anchor="start" x="196.378" y="-154.9" font-family="Helvetica,sans-Serif" font-size="11.00" fill="#000000">unknown[0]</text>
<polygon fill="none" stroke="#000000" points="10.5,-125.2 10.5,-147.2 193.5,-147.2 193.5,-125.2 10.5,-125.2"/>
<text text-anchor="start" x="30.5" y="-132.3" font-family="Helvetica,sans-Serif" font-size="11.00" fill="#000000">invalid_reason</text>
<polygon fill="none" stroke="#000000" points="193.5,-125.2 193.5,-147.2 255.5,-147.2 255.5,-125.2 193.5,-125.2"/>
<text text-anchor="start" x="196.378" y="-132.9" font-family="Helvetica,sans-Serif" font-size="11.00" fill="#000000">unknown[0]</text>
<polygon fill="none" stroke="#000000" points="10.5,-103.2 10.5,-125.2 193.5,-125.2 193.5,-103.2 10.5,-103.2"/>
<text text-anchor="start" x="30.5" y="-110.3" font-family="Helvetica,sans-Serif" font-size="11.00" fill="#000000">relationship_id</text>
<polygon fill="none" stroke="#000000" points="193.5,-103.2 193.5,-125.2 255.5,-125.2 255.5,-103.2 193.5,-103.2"/>
<text text-anchor="start" x="196.378" y="-110.9" font-family="Helvetica,sans-Serif" font-size="11.00" fill="#000000">unknown[0]</text>
<polygon fill="none" stroke="#000000" points="10.5,-81.2 10.5,-103.2 193.5,-103.2 193.5,-81.2 10.5,-81.2"/>
<text text-anchor="start" x="30.5" y="-88.3" font-family="Helvetica,sans-Serif" font-size="11.00" fill="#000000">valid_end_date</text>
<polygon fill="none" stroke="#000000" points="193.5,-81.2 193.5,-103.2 255.5,-103.2 255.5,-81.2 193.5,-81.2"/>
<text text-anchor="start" x="196.378" y="-88.9" font-family="Helvetica,sans-Serif" font-size="11.00" fill="#000000">unknown[0]</text>
<polygon fill="none" stroke="#000000" points="10.5,-59.2 10.5,-81.2 193.5,-81.2 193.5,-59.2 10.5,-59.2"/>
<text text-anchor="start" x="30.5" y="-66.3" font-family="Helvetica,sans-Serif" font-size="11.00" fill="#000000">valid_start_date</text>
<polygon fill="none" stroke="#000000" points="193.5,-59.2 193.5,-81.2 255.5,-81.2 255.5,-59.2 193.5,-59.2"/>
<text text-anchor="start" x="196.378" y="-66.9" font-family="Helvetica,sans-Serif" font-size="11.00" fill="#000000">unknown[0]</text>
<polygon fill="#ffffff" stroke="transparent" points="10.5,-40.2 10.5,-59.2 93.5,-59.2 93.5,-40.2 10.5,-40.2"/>
<polygon fill="none" stroke="#000000" points="10.5,-40.2 10.5,-59.2 93.5,-59.2 93.5,-40.2 10.5,-40.2"/>
<text text-anchor="start" x="13.5" y="-46.3" font-family="Helvetica,sans-Serif" font-size="11.00" fill="#000000">&lt; 0</text>
<polygon fill="#ffffff" stroke="transparent" points="93.5,-40.2 93.5,-59.2 193.5,-59.2 193.5,-40.2 93.5,-40.2"/>
<polygon fill="none" stroke="#000000" points="93.5,-40.2 93.5,-59.2 193.5,-59.2 193.5,-40.2 93.5,-40.2"/>
<text text-anchor="start" x="158.1105" y="-46.3" font-family="Helvetica,sans-Serif" font-size="11.00" fill="#000000">0 rows</text>
<polygon fill="#ffffff" stroke="transparent" points="193.5,-40.2 193.5,-59.2 255.5,-59.2 255.5,-40.2 193.5,-40.2"/>
<polygon fill="none" stroke="#000000" points="193.5,-40.2 193.5,-59.2 255.5,-59.2 255.5,-40.2 193.5,-40.2"/>
<text text-anchor="start" x="236.9053" y="-46.3" font-family="Helvetica,sans-Serif" font-size="11.00" fill="#000000">0 &gt;</text>
<polygon fill="none" stroke="#000000" stroke-width="2" points="9,-39.2 9,-215.2 256,-215.2 256,-39.2 9,-39.2"/>
</a>
</g>
</g>
</g>
</svg>
