<?xml version="1.0" encoding="UTF-8" standalone="no"?>
<!DOCTYPE svg PUBLIC "-//W3C//DTD SVG 1.1//EN"
 "http://www.w3.org/Graphics/SVG/1.1/DTD/svg11.dtd">
<!-- Generated by graphviz version 2.40.1 (20161225.0304)
 -->
<!-- Title: twoDegreesRelationshipsDiagram Pages: 1 -->
<svg width="509pt" height="431pt"
 viewBox="0.00 0.00 509.00 431.20" xmlns="http://www.w3.org/2000/svg" xmlns:xlink="http://www.w3.org/1999/xlink">
<g id="graph0" class="graph" transform="scale(1 1) rotate(0) translate(4 427.2)">
<title>twoDegreesRelationshipsDiagram</title>
<polygon fill="#ffffff" stroke="transparent" points="-4,4 -4,-427.2 505,-427.2 505,4 -4,4"/>
<text text-anchor="middle" x="72.4936" y="-7.3" font-family="Helvetica,sans-Serif" font-size="11.00" fill="#000000">Generated by SchemaSpy</text>
<!-- cd_included_source_concept -->
<g id="node1" class="node">
<title>cd_included_source_concept</title>
<g id="a_node1"><a xlink:href="../../tables/cd_included_source_concept.html" xlink:title="cd_included_source_concept" target="_top">
<polygon fill="#ffffff" stroke="transparent" points="264,-232.2 264,-315.2 493,-315.2 493,-232.2 264,-232.2"/>
<polygon fill="#f5f5f5" stroke="transparent" points="264.5,-291.7 264.5,-314.7 493.5,-314.7 493.5,-291.7 264.5,-291.7"/>
<polygon fill="none" stroke="#000000" points="264.5,-291.7 264.5,-314.7 493.5,-314.7 493.5,-291.7 264.5,-291.7"/>
<text text-anchor="start" x="269.5" y="-300.3" font-family="Helvetica,sans-Serif" font-weight="bold" font-size="11.00" fill="#000000">cd_included_source_concept</text>
<text text-anchor="start" x="459.0219" y="-299.8" font-family="Helvetica,sans-Serif" font-size="11.00" fill="#000000">[table]</text>
<polygon fill="none" stroke="#000000" points="264.5,-269.7 264.5,-291.7 493.5,-291.7 493.5,-269.7 264.5,-269.7"/>
<image xlink:href="../../images/foreignKeys.png" width="11px" height="12px" preserveAspectRatio="xMinYMin meet" x="269.5" y="-286.7"/>
<text text-anchor="start" x="293.5" y="-276.8" font-family="Helvetica,sans-Serif" font-size="11.00" fill="#000000">concept_id</text>
<polygon fill="none" stroke="#000000" points="264.5,-250.7 264.5,-269.7 493.5,-269.7 493.5,-250.7 264.5,-250.7"/>
<text text-anchor="start" x="267.5" y="-256.8" font-family="Helvetica,sans-Serif" font-size="11.00" fill="#000000">...</text>
<polygon fill="#ffffff" stroke="transparent" points="264.5,-231.7 264.5,-250.7 364.5,-250.7 364.5,-231.7 264.5,-231.7"/>
<polygon fill="none" stroke="#000000" points="264.5,-231.7 264.5,-250.7 364.5,-250.7 364.5,-231.7 264.5,-231.7"/>
<text text-anchor="start" x="267.5" y="-237.8" font-family="Helvetica,sans-Serif" font-size="11.00" fill="#000000">&lt; 1</text>
<polygon fill="#ffffff" stroke="transparent" points="364.5,-231.7 364.5,-250.7 441.5,-250.7 441.5,-231.7 364.5,-231.7"/>
<polygon fill="none" stroke="#000000" points="364.5,-231.7 364.5,-250.7 441.5,-250.7 441.5,-231.7 364.5,-231.7"/>
<text text-anchor="start" x="406.1105" y="-237.8" font-family="Helvetica,sans-Serif" font-size="11.00" fill="#000000">0 rows</text>
<polygon fill="#ffffff" stroke="transparent" points="441.5,-231.7 441.5,-250.7 493.5,-250.7 493.5,-231.7 441.5,-231.7"/>
<polygon fill="none" stroke="#000000" points="441.5,-231.7 441.5,-250.7 493.5,-250.7 493.5,-231.7 441.5,-231.7"/>
<text text-anchor="start" x="484.3862" y="-237.8" font-family="Helvetica,sans-Serif" font-size="11.00" fill="#000000"> &#160;</text>
</a>
</g>
</g>
<!-- cd_concept -->
<g id="node2" class="node">
<title>cd_concept</title>
<g id="a_node2"><a xlink:href="../../tables/cd_concept.html" xlink:title="cd_concept" target="_top">
<polygon fill="#ffffff" stroke="transparent" points="8,-141.7 8,-407.7 215,-407.7 215,-141.7 8,-141.7"/>
<polygon fill="#f5f5f5" stroke="transparent" points="10.5,-382.7 10.5,-405.7 213.5,-405.7 213.5,-382.7 10.5,-382.7"/>
<polygon fill="none" stroke="#000000" points="10.5,-382.7 10.5,-405.7 213.5,-405.7 213.5,-382.7 10.5,-382.7"/>
<text text-anchor="start" x="15.5" y="-391.3" font-family="Helvetica,sans-Serif" font-weight="bold" font-size="11.00" fill="#000000">cd_concept</text>
<text text-anchor="start" x="178.5437" y="-390.8" font-family="Helvetica,sans-Serif" font-size="11.00" fill="#000000">[table]</text>
<polygon fill="none" stroke="#000000" points="10.5,-360.7 10.5,-382.7 151.5,-382.7 151.5,-360.7 10.5,-360.7"/>
<text text-anchor="start" x="30.5" y="-367.8" font-family="Helvetica,sans-Serif" font-size="11.00" fill="#000000">concept_class_id</text>
<polygon fill="none" stroke="#000000" points="151.5,-360.7 151.5,-382.7 213.5,-382.7 213.5,-360.7 151.5,-360.7"/>
<text text-anchor="start" x="154.378" y="-368.4" font-family="Helvetica,sans-Serif" font-size="11.00" fill="#000000">unknown[0]</text>
<polygon fill="none" stroke="#000000" points="10.5,-338.7 10.5,-360.7 151.5,-360.7 151.5,-338.7 10.5,-338.7"/>
<text text-anchor="start" x="30.5" y="-345.8" font-family="Helvetica,sans-Serif" font-size="11.00" fill="#000000">concept_code</text>
<polygon fill="none" stroke="#000000" points="151.5,-338.7 151.5,-360.7 213.5,-360.7 213.5,-338.7 151.5,-338.7"/>
<text text-anchor="start" x="154.378" y="-346.4" font-family="Helvetica,sans-Serif" font-size="11.00" fill="#000000">unknown[0]</text>
<polygon fill="none" stroke="#000000" points="10.5,-316.7 10.5,-338.7 151.5,-338.7 151.5,-316.7 10.5,-316.7"/>
<image xlink:href="../../images/primaryKeys.png" width="11px" height="12px" preserveAspectRatio="xMinYMin meet" x="15.5" y="-333.7"/>
<text text-anchor="start" x="30.5" y="-323.8" font-family="Helvetica,sans-Serif" font-size="11.00" fill="#000000">concept_id</text>
<polygon fill="none" stroke="#000000" points="151.5,-316.7 151.5,-338.7 213.5,-338.7 213.5,-316.7 151.5,-316.7"/>
<text text-anchor="start" x="154.378" y="-324.4" font-family="Helvetica,sans-Serif" font-size="11.00" fill="#000000">unknown[0]</text>
<polygon fill="none" stroke="#000000" points="10.5,-294.7 10.5,-316.7 151.5,-316.7 151.5,-294.7 10.5,-294.7"/>
<text text-anchor="start" x="30.5" y="-301.8" font-family="Helvetica,sans-Serif" font-size="11.00" fill="#000000">concept_name</text>
<polygon fill="none" stroke="#000000" points="151.5,-294.7 151.5,-316.7 213.5,-316.7 213.5,-294.7 151.5,-294.7"/>
<text text-anchor="start" x="154.378" y="-302.4" font-family="Helvetica,sans-Serif" font-size="11.00" fill="#000000">unknown[0]</text>
<polygon fill="none" stroke="#000000" points="10.5,-272.7 10.5,-294.7 151.5,-294.7 151.5,-272.7 10.5,-272.7"/>
<text text-anchor="start" x="30.5" y="-279.8" font-family="Helvetica,sans-Serif" font-size="11.00" fill="#000000">domain_id</text>
<polygon fill="none" stroke="#000000" points="151.5,-272.7 151.5,-294.7 213.5,-294.7 213.5,-272.7 151.5,-272.7"/>
<text text-anchor="start" x="154.378" y="-280.4" font-family="Helvetica,sans-Serif" font-size="11.00" fill="#000000">unknown[0]</text>
<polygon fill="none" stroke="#000000" points="10.5,-250.7 10.5,-272.7 151.5,-272.7 151.5,-250.7 10.5,-250.7"/>
<text text-anchor="start" x="30.5" y="-257.8" font-family="Helvetica,sans-Serif" font-size="11.00" fill="#000000">invalid_reason</text>
<polygon fill="none" stroke="#000000" points="151.5,-250.7 151.5,-272.7 213.5,-272.7 213.5,-250.7 151.5,-250.7"/>
<text text-anchor="start" x="154.378" y="-258.4" font-family="Helvetica,sans-Serif" font-size="11.00" fill="#000000">unknown[0]</text>
<polygon fill="none" stroke="#000000" points="10.5,-228.7 10.5,-250.7 151.5,-250.7 151.5,-228.7 10.5,-228.7"/>
<text text-anchor="start" x="30.5" y="-235.8" font-family="Helvetica,sans-Serif" font-size="11.00" fill="#000000">standard_concept</text>
<polygon fill="none" stroke="#000000" points="151.5,-228.7 151.5,-250.7 213.5,-250.7 213.5,-228.7 151.5,-228.7"/>
<text text-anchor="start" x="154.378" y="-236.4" font-family="Helvetica,sans-Serif" font-size="11.00" fill="#000000">unknown[0]</text>
<polygon fill="none" stroke="#000000" points="10.5,-206.7 10.5,-228.7 151.5,-228.7 151.5,-206.7 10.5,-206.7"/>
<text text-anchor="start" x="30.5" y="-213.8" font-family="Helvetica,sans-Serif" font-size="11.00" fill="#000000">valid_end_date</text>
<polygon fill="none" stroke="#000000" points="151.5,-206.7 151.5,-228.7 213.5,-228.7 213.5,-206.7 151.5,-206.7"/>
<text text-anchor="start" x="154.378" y="-214.4" font-family="Helvetica,sans-Serif" font-size="11.00" fill="#000000">unknown[0]</text>
<polygon fill="none" stroke="#000000" points="10.5,-184.7 10.5,-206.7 151.5,-206.7 151.5,-184.7 10.5,-184.7"/>
<text text-anchor="start" x="30.5" y="-191.8" font-family="Helvetica,sans-Serif" font-size="11.00" fill="#000000">valid_start_date</text>
<polygon fill="none" stroke="#000000" points="151.5,-184.7 151.5,-206.7 213.5,-206.7 213.5,-184.7 151.5,-184.7"/>
<text text-anchor="start" x="154.378" y="-192.4" font-family="Helvetica,sans-Serif" font-size="11.00" fill="#000000">unknown[0]</text>
<polygon fill="none" stroke="#000000" points="10.5,-162.7 10.5,-184.7 151.5,-184.7 151.5,-162.7 10.5,-162.7"/>
<text text-anchor="start" x="30.5" y="-169.8" font-family="Helvetica,sans-Serif" font-size="11.00" fill="#000000">vocabulary_id</text>
<polygon fill="none" stroke="#000000" points="151.5,-162.7 151.5,-184.7 213.5,-184.7 213.5,-162.7 151.5,-162.7"/>
<text text-anchor="start" x="154.378" y="-170.4" font-family="Helvetica,sans-Serif" font-size="11.00" fill="#000000">unknown[0]</text>
<polygon fill="#ffffff" stroke="transparent" points="10.5,-143.7 10.5,-162.7 72.5,-162.7 72.5,-143.7 10.5,-143.7"/>
<polygon fill="none" stroke="#000000" points="10.5,-143.7 10.5,-162.7 72.5,-162.7 72.5,-143.7 10.5,-143.7"/>
<text text-anchor="start" x="13.5" y="-149.8" font-family="Helvetica,sans-Serif" font-size="11.00" fill="#000000">&lt; 0</text>
<polygon fill="#ffffff" stroke="transparent" points="72.5,-143.7 72.5,-162.7 151.5,-162.7 151.5,-143.7 72.5,-143.7"/>
<polygon fill="none" stroke="#000000" points="72.5,-143.7 72.5,-162.7 151.5,-162.7 151.5,-143.7 72.5,-143.7"/>
<text text-anchor="start" x="116.1105" y="-149.8" font-family="Helvetica,sans-Serif" font-size="11.00" fill="#000000">0 rows</text>
<polygon fill="#ffffff" stroke="transparent" points="151.5,-143.7 151.5,-162.7 213.5,-162.7 213.5,-143.7 151.5,-143.7"/>
<polygon fill="none" stroke="#000000" points="151.5,-143.7 151.5,-162.7 213.5,-162.7 213.5,-143.7 151.5,-143.7"/>
<text text-anchor="start" x="194.9053" y="-149.8" font-family="Helvetica,sans-Serif" font-size="11.00" fill="#000000">3 &gt;</text>
<polygon fill="none" stroke="#000000" stroke-width="2" points="9,-142.7 9,-406.7 214,-406.7 214,-142.7 9,-142.7"/>
</a>
</g>
</g>
<!-- cd_included_source_concept&#45;&gt;cd_concept -->
<g id="edge1" class="edge">
<title>cd_included_source_concept:w&#45;&gt;cd_concept:e</title>
<path fill="none" stroke="#000000" d="M250.5672,-285.3784C236.2533,-297.2665 238.3037,-327.7 213.5,-327.7"/>
<polygon fill="#000000" stroke="#000000" points="256.9161,-283.2466 265.6459,-284.1127 260.7081,-281.9733 264.5,-280.7 264.5,-280.7 264.5,-280.7 260.7081,-281.9733 263.3541,-277.2873 256.9161,-283.2466 256.9161,-283.2466"/>
<ellipse fill="none" stroke="#000000" cx="253.8826" cy="-284.2652" rx="3.2" ry="3.2"/>
</g>
<!-- cd_index_event_breakdown -->
<g id="node3" class="node">
<title>cd_index_event_breakdown</title>
<g id="a_node3"><a xlink:href="../../tables/cd_index_event_breakdown.html" xlink:title="cd_index_event_breakdown" target="_top">
<polygon fill="#ffffff" stroke="transparent" points="267,-336.2 267,-419.2 490,-419.2 490,-336.2 267,-336.2"/>
<polygon fill="#f5f5f5" stroke="transparent" points="267.5,-395.7 267.5,-418.7 490.5,-418.7 490.5,-395.7 267.5,-395.7"/>
<polygon fill="none" stroke="#000000" points="267.5,-395.7 267.5,-418.7 490.5,-418.7 490.5,-395.7 267.5,-395.7"/>
<text text-anchor="start" x="272.5" y="-404.3" font-family="Helvetica,sans-Serif" font-weight="bold" font-size="11.00" fill="#000000">cd_index_event_breakdown</text>
<text text-anchor="start" x="456.0219" y="-403.8" font-family="Helvetica,sans-Serif" font-size="11.00" fill="#000000">[table]</text>
<polygon fill="none" stroke="#000000" points="267.5,-373.7 267.5,-395.7 490.5,-395.7 490.5,-373.7 267.5,-373.7"/>
<image xlink:href="../../images/foreignKeys.png" width="11px" height="12px" preserveAspectRatio="xMinYMin meet" x="272.5" y="-390.7"/>
<text text-anchor="start" x="296.5" y="-380.8" font-family="Helvetica,sans-Serif" font-size="11.00" fill="#000000">concept_id</text>
<polygon fill="none" stroke="#000000" points="267.5,-354.7 267.5,-373.7 490.5,-373.7 490.5,-354.7 267.5,-354.7"/>
<text text-anchor="start" x="270.5" y="-360.8" font-family="Helvetica,sans-Serif" font-size="11.00" fill="#000000">...</text>
<polygon fill="#ffffff" stroke="transparent" points="267.5,-335.7 267.5,-354.7 364.5,-354.7 364.5,-335.7 267.5,-335.7"/>
<polygon fill="none" stroke="#000000" points="267.5,-335.7 267.5,-354.7 364.5,-354.7 364.5,-335.7 267.5,-335.7"/>
<text text-anchor="start" x="270.5" y="-341.8" font-family="Helvetica,sans-Serif" font-size="11.00" fill="#000000">&lt; 1</text>
<polygon fill="#ffffff" stroke="transparent" points="364.5,-335.7 364.5,-354.7 440.5,-354.7 440.5,-335.7 364.5,-335.7"/>
<polygon fill="none" stroke="#000000" points="364.5,-335.7 364.5,-354.7 440.5,-354.7 440.5,-335.7 364.5,-335.7"/>
<text text-anchor="start" x="405.1105" y="-341.8" font-family="Helvetica,sans-Serif" font-size="11.00" fill="#000000">0 rows</text>
<polygon fill="#ffffff" stroke="transparent" points="440.5,-335.7 440.5,-354.7 490.5,-354.7 490.5,-335.7 440.5,-335.7"/>
<polygon fill="none" stroke="#000000" points="440.5,-335.7 440.5,-354.7 490.5,-354.7 490.5,-335.7 440.5,-335.7"/>
<text text-anchor="start" x="481.3862" y="-341.8" font-family="Helvetica,sans-Serif" font-size="11.00" fill="#000000"> &#160;</text>
</a>
</g>
</g>
<!-- cd_index_event_breakdown&#45;&gt;cd_concept -->
<g id="edge2" class="edge">
<title>cd_index_event_breakdown:w&#45;&gt;cd_concept:e</title>
<path fill="none" stroke="#000000" d="M253.484,-380.2273C236.5349,-366.7901 242.3988,-327.7 213.5,-327.7"/>
<polygon fill="#000000" stroke="#000000" points="259.8786,-382.2679 266.4056,-388.1296 263.6893,-383.4839 267.5,-384.7 267.5,-384.7 267.5,-384.7 263.6893,-383.4839 268.5944,-381.2704 259.8786,-382.2679 259.8786,-382.2679"/>
<ellipse fill="none" stroke="#000000" cx="256.8301" cy="-381.295" rx="3.2" ry="3.2"/>
</g>
<!-- cd_orphan_concept -->
<g id="node4" class="node">
<title>cd_orphan_concept</title>
<g id="a_node4"><a xlink:href="../../tables/cd_orphan_concept.html" xlink:title="cd_orphan_concept" target="_top">
<polygon fill="#ffffff" stroke="transparent" points="294.5,-38.2 294.5,-165.2 462.5,-165.2 462.5,-38.2 294.5,-38.2"/>
<polygon fill="#f5f5f5" stroke="transparent" points="294.5,-141.7 294.5,-164.7 462.5,-164.7 462.5,-141.7 294.5,-141.7"/>
<polygon fill="none" stroke="#000000" points="294.5,-141.7 294.5,-164.7 462.5,-164.7 462.5,-141.7 294.5,-141.7"/>
<text text-anchor="start" x="299.5" y="-150.3" font-family="Helvetica,sans-Serif" font-weight="bold" font-size="11.00" fill="#000000">cd_orphan_concept</text>
<text text-anchor="start" x="428.0219" y="-149.8" font-family="Helvetica,sans-Serif" font-size="11.00" fill="#000000">[table]</text>
<polygon fill="none" stroke="#000000" points="294.5,-119.7 294.5,-141.7 462.5,-141.7 462.5,-119.7 294.5,-119.7"/>
<image xlink:href="../../images/foreignKeys.png" width="11px" height="12px" preserveAspectRatio="xMinYMin meet" x="299.5" y="-136.7"/>
<text text-anchor="start" x="323.5" y="-126.8" font-family="Helvetica,sans-Serif" font-size="11.00" fill="#000000">cohort_id</text>
<polygon fill="none" stroke="#000000" points="294.5,-97.7 294.5,-119.7 462.5,-119.7 462.5,-97.7 294.5,-97.7"/>
<image xlink:href="../../images/foreignKeys.png" width="11px" height="12px" preserveAspectRatio="xMinYMin meet" x="299.5" y="-114.7"/>
<text text-anchor="start" x="323.5" y="-104.8" font-family="Helvetica,sans-Serif" font-size="11.00" fill="#000000">concept_id</text>
<polygon fill="none" stroke="#000000" points="294.5,-75.7 294.5,-97.7 462.5,-97.7 462.5,-75.7 294.5,-75.7"/>
<image xlink:href="../../images/foreignKeys.png" width="11px" height="12px" preserveAspectRatio="xMinYMin meet" x="299.5" y="-92.7"/>
<text text-anchor="start" x="323.5" y="-82.8" font-family="Helvetica,sans-Serif" font-size="11.00" fill="#000000">concept_set_id</text>
<polygon fill="none" stroke="#000000" points="294.5,-56.7 294.5,-75.7 462.5,-75.7 462.5,-56.7 294.5,-56.7"/>
<text text-anchor="start" x="297.5" y="-62.8" font-family="Helvetica,sans-Serif" font-size="11.00" fill="#000000">...</text>
<polygon fill="#ffffff" stroke="transparent" points="294.5,-37.7 294.5,-56.7 363.5,-56.7 363.5,-37.7 294.5,-37.7"/>
<polygon fill="none" stroke="#000000" points="294.5,-37.7 294.5,-56.7 363.5,-56.7 363.5,-37.7 294.5,-37.7"/>
<text text-anchor="start" x="297.5" y="-43.8" font-family="Helvetica,sans-Serif" font-size="11.00" fill="#000000">&lt; 3</text>
<polygon fill="#ffffff" stroke="transparent" points="363.5,-37.7 363.5,-56.7 425.5,-56.7 425.5,-37.7 363.5,-37.7"/>
<polygon fill="none" stroke="#000000" points="363.5,-37.7 363.5,-56.7 425.5,-56.7 425.5,-37.7 363.5,-37.7"/>
<text text-anchor="start" x="390.1105" y="-43.8" font-family="Helvetica,sans-Serif" font-size="11.00" fill="#000000">0 rows</text>
<polygon fill="#ffffff" stroke="transparent" points="425.5,-37.7 425.5,-56.7 462.5,-56.7 462.5,-37.7 425.5,-37.7"/>
<polygon fill="none" stroke="#000000" points="425.5,-37.7 425.5,-56.7 462.5,-56.7 462.5,-37.7 425.5,-37.7"/>
<text text-anchor="start" x="453.3862" y="-43.8" font-family="Helvetica,sans-Serif" font-size="11.00" fill="#000000"> &#160;</text>
</a>
</g>
</g>
<!-- cd_orphan_concept&#45;&gt;cd_concept -->
<g id="edge4" class="edge">
<title>cd_orphan_concept:w&#45;&gt;cd_concept:e</title>
<path fill="none" stroke="#000000" d="M281.2954,-114.5577C246.3479,-149.3849 260.3215,-327.7 213.5,-327.7"/>
<polygon fill="#000000" stroke="#000000" points="287.1872,-111.944 295.9598,-111.9907 290.8436,-110.322 294.5,-108.7 294.5,-108.7 294.5,-108.7 290.8436,-110.322 293.0402,-105.4093 287.1872,-111.944 287.1872,-111.944"/>
<ellipse fill="none" stroke="#000000" cx="284.2621" cy="-113.2417" rx="3.2" ry="3.2"/>
</g>
<!-- cd_concept_sets -->
<g id="node5" class="node">
<title>cd_concept_sets</title>
<g id="a_node5"><a xlink:href="../../tables/cd_concept_sets.html" xlink:title="cd_concept_sets" target="_top">
<polygon fill="#ffffff" stroke="transparent" points="37.5,-59.2 37.5,-120.2 185.5,-120.2 185.5,-59.2 37.5,-59.2"/>
<polygon fill="#f5f5f5" stroke="transparent" points="37.5,-96.7 37.5,-119.7 185.5,-119.7 185.5,-96.7 37.5,-96.7"/>
<polygon fill="none" stroke="#000000" points="37.5,-96.7 37.5,-119.7 185.5,-119.7 185.5,-96.7 37.5,-96.7"/>
<text text-anchor="start" x="42.5" y="-105.3" font-family="Helvetica,sans-Serif" font-weight="bold" font-size="11.00" fill="#000000">cd_concept_sets</text>
<text text-anchor="start" x="151.0219" y="-104.8" font-family="Helvetica,sans-Serif" font-size="11.00" fill="#000000">[table]</text>
<polygon fill="none" stroke="#000000" points="37.5,-77.7 37.5,-96.7 185.5,-96.7 185.5,-77.7 37.5,-77.7"/>
<text text-anchor="start" x="40.5" y="-83.8" font-family="Helvetica,sans-Serif" font-size="11.00" fill="#000000">...</text>
<polygon fill="#ffffff" stroke="transparent" points="37.5,-58.7 37.5,-77.7 87.5,-77.7 87.5,-58.7 37.5,-58.7"/>
<polygon fill="none" stroke="#000000" points="37.5,-58.7 37.5,-77.7 87.5,-77.7 87.5,-58.7 37.5,-58.7"/>
<text text-anchor="start" x="40.5" y="-64.8" font-family="Helvetica,sans-Serif" font-size="11.00" fill="#000000"> &#160;</text>
<polygon fill="#ffffff" stroke="transparent" points="87.5,-58.7 87.5,-77.7 144.5,-77.7 144.5,-58.7 87.5,-58.7"/>
<polygon fill="none" stroke="#000000" points="87.5,-58.7 87.5,-77.7 144.5,-77.7 144.5,-58.7 87.5,-58.7"/>
<text text-anchor="start" x="109.1105" y="-64.8" font-family="Helvetica,sans-Serif" font-size="11.00" fill="#000000">0 rows</text>
<polygon fill="#ffffff" stroke="transparent" points="144.5,-58.7 144.5,-77.7 185.5,-77.7 185.5,-58.7 144.5,-58.7"/>
<polygon fill="none" stroke="#000000" points="144.5,-58.7 144.5,-77.7 185.5,-77.7 185.5,-58.7 144.5,-58.7"/>
<text text-anchor="start" x="166.9053" y="-64.8" font-family="Helvetica,sans-Serif" font-size="11.00" fill="#000000">2 &gt;</text>
</a>
</g>
</g>
<!-- cd_orphan_concept&#45;&gt;cd_concept_sets -->
<g id="edge3" class="edge">
<title>cd_orphan_concept:w&#45;&gt;cd_concept_sets:e</title>
<path fill="none" stroke="#000000" d="M279.9593,-129.4306C240.8481,-122.2164 232.4367,-86.7 185.5,-86.7"/>
<polygon fill="#000000" stroke="#000000" points="286.5303,-130.0042 294.1869,-134.2864 290.5152,-130.3521 294.5,-130.7 294.5,-130.7 294.5,-130.7 290.5152,-130.3521 294.8131,-127.1136 286.5303,-130.0042 286.5303,-130.0042"/>
<ellipse fill="none" stroke="#000000" cx="283.3424" cy="-129.7259" rx="3.2" ry="3.2"/>
</g>
<!-- cd_orphan_concept&#45;&gt;cd_concept_sets -->
<g id="edge5" class="edge">
<title>cd_orphan_concept:w&#45;&gt;cd_concept_sets:e</title>
<path fill="none" stroke="#000000" d="M279.813,-86.7C242.9716,-86.7 228.6458,-86.7 185.5,-86.7"/>
<polygon fill="#000000" stroke="#000000" points="286.5,-86.7001 294.5,-90.3 290.5,-86.7 294.5,-86.7 294.5,-86.7 294.5,-86.7 290.5,-86.7 294.5,-83.1 286.5,-86.7001 286.5,-86.7001"/>
<ellipse fill="none" stroke="#000000" cx="283.3" cy="-86.7001" rx="3.2" ry="3.2"/>
</g>
</g>
</svg>
