<?xml version="1.0" encoding="UTF-8" standalone="no"?>
<!DOCTYPE svg PUBLIC "-//W3C//DTD SVG 1.1//EN"
 "http://www.w3.org/Graphics/SVG/1.1/DTD/svg11.dtd">
<!-- Generated by graphviz version 2.40.1 (20161225.0304)
 -->
<!-- Title: oneDegreeRelationshipsDiagram Pages: 1 -->
<svg width="270pt" height="668pt"
 viewBox="0.00 0.00 270.00 668.20" xmlns="http://www.w3.org/2000/svg" xmlns:xlink="http://www.w3.org/1999/xlink">
<g id="graph0" class="graph" transform="scale(1 1) rotate(0) translate(4 664.2)">
<title>oneDegreeRelationshipsDiagram</title>
<polygon fill="#ffffff" stroke="transparent" points="-4,4 -4,-664.2 266,-664.2 266,4 -4,4"/>
<text text-anchor="middle" x="72.4936" y="-7.3" font-family="Helvetica,sans-Serif" font-size="11.00" fill="#000000">Generated by SchemaSpy</text>
<!-- cd_cohort_relationships -->
<g id="node1" class="node">
<title>cd_cohort_relationships</title>
<g id="a_node1"><a xlink:href="../../tables/cd_cohort_relationships.html" xlink:title="cd_cohort_relationships" target="_top">
<polygon fill="#ffffff" stroke="transparent" points="8,-38.2 8,-656.2 254,-656.2 254,-38.2 8,-38.2"/>
<polygon fill="#f5f5f5" stroke="transparent" points="10,-631.2 10,-654.2 252,-654.2 252,-631.2 10,-631.2"/>
<polygon fill="none" stroke="#000000" points="10,-631.2 10,-654.2 252,-654.2 252,-631.2 10,-631.2"/>
<text text-anchor="start" x="15" y="-639.8" font-family="Helvetica,sans-Serif" font-weight="bold" font-size="11.00" fill="#000000">cd_cohort_relationships</text>
<text text-anchor="start" x="217.0437" y="-639.3" font-family="Helvetica,sans-Serif" font-size="11.00" fill="#000000">[table]</text>
<polygon fill="none" stroke="#000000" points="10,-609.2 10,-631.2 190,-631.2 190,-609.2 10,-609.2"/>
<text text-anchor="start" x="30" y="-616.3" font-family="Helvetica,sans-Serif" font-size="11.00" fill="#000000">c_days</text>
<polygon fill="none" stroke="#000000" points="190,-609.2 190,-631.2 252,-631.2 252,-609.2 190,-609.2"/>
<text text-anchor="start" x="192.878" y="-616.9" font-family="Helvetica,sans-Serif" font-size="11.00" fill="#000000">unknown[0]</text>
<polygon fill="none" stroke="#000000" points="10,-587.2 10,-609.2 190,-609.2 190,-587.2 10,-587.2"/>
<text text-anchor="start" x="30" y="-594.3" font-family="Helvetica,sans-Serif" font-size="11.00" fill="#000000">c_days_after_te</text>
<polygon fill="none" stroke="#000000" points="190,-587.2 190,-609.2 252,-609.2 252,-587.2 190,-587.2"/>
<text text-anchor="start" x="192.878" y="-594.9" font-family="Helvetica,sans-Serif" font-size="11.00" fill="#000000">unknown[0]</text>
<polygon fill="none" stroke="#000000" points="10,-565.2 10,-587.2 190,-587.2 190,-565.2 10,-565.2"/>
<text text-anchor="start" x="30" y="-572.3" font-family="Helvetica,sans-Serif" font-size="11.00" fill="#000000">c_days_after_ts</text>
<polygon fill="none" stroke="#000000" points="190,-565.2 190,-587.2 252,-587.2 252,-565.2 190,-565.2"/>
<text text-anchor="start" x="192.878" y="-572.9" font-family="Helvetica,sans-Serif" font-size="11.00" fill="#000000">unknown[0]</text>
<polygon fill="none" stroke="#000000" points="10,-543.2 10,-565.2 190,-565.2 190,-543.2 10,-543.2"/>
<text text-anchor="start" x="30" y="-550.3" font-family="Helvetica,sans-Serif" font-size="11.00" fill="#000000">c_days_before_te</text>
<polygon fill="none" stroke="#000000" points="190,-543.2 190,-565.2 252,-565.2 252,-543.2 190,-543.2"/>
<text text-anchor="start" x="192.878" y="-550.9" font-family="Helvetica,sans-Serif" font-size="11.00" fill="#000000">unknown[0]</text>
<polygon fill="none" stroke="#000000" points="10,-521.2 10,-543.2 190,-543.2 190,-521.2 10,-521.2"/>
<text text-anchor="start" x="30" y="-528.3" font-family="Helvetica,sans-Serif" font-size="11.00" fill="#000000">c_days_before_ts</text>
<polygon fill="none" stroke="#000000" points="190,-521.2 190,-543.2 252,-543.2 252,-521.2 190,-521.2"/>
<text text-anchor="start" x="192.878" y="-528.9" font-family="Helvetica,sans-Serif" font-size="11.00" fill="#000000">unknown[0]</text>
<polygon fill="none" stroke="#000000" points="10,-499.2 10,-521.2 190,-521.2 190,-499.2 10,-499.2"/>
<text text-anchor="start" x="30" y="-506.3" font-family="Helvetica,sans-Serif" font-size="11.00" fill="#000000">c_days_within_t_days</text>
<polygon fill="none" stroke="#000000" points="190,-499.2 190,-521.2 252,-521.2 252,-499.2 190,-499.2"/>
<text text-anchor="start" x="192.878" y="-506.9" font-family="Helvetica,sans-Serif" font-size="11.00" fill="#000000">unknown[0]</text>
<polygon fill="none" stroke="#000000" points="10,-477.2 10,-499.2 190,-499.2 190,-477.2 10,-477.2"/>
<text text-anchor="start" x="30" y="-484.3" font-family="Helvetica,sans-Serif" font-size="11.00" fill="#000000">cohort_id</text>
<polygon fill="none" stroke="#000000" points="190,-477.2 190,-499.2 252,-499.2 252,-477.2 190,-477.2"/>
<text text-anchor="start" x="192.878" y="-484.9" font-family="Helvetica,sans-Serif" font-size="11.00" fill="#000000">unknown[0]</text>
<polygon fill="none" stroke="#000000" points="10,-455.2 10,-477.2 190,-477.2 190,-455.2 10,-455.2"/>
<text text-anchor="start" x="30" y="-462.3" font-family="Helvetica,sans-Serif" font-size="11.00" fill="#000000">comparator_cohort_id</text>
<polygon fill="none" stroke="#000000" points="190,-455.2 190,-477.2 252,-477.2 252,-455.2 190,-455.2"/>
<text text-anchor="start" x="192.878" y="-462.9" font-family="Helvetica,sans-Serif" font-size="11.00" fill="#000000">unknown[0]</text>
<polygon fill="none" stroke="#000000" points="10,-433.2 10,-455.2 190,-455.2 190,-433.2 10,-433.2"/>
<text text-anchor="start" x="30" y="-440.3" font-family="Helvetica,sans-Serif" font-size="11.00" fill="#000000">database_id</text>
<polygon fill="none" stroke="#000000" points="190,-433.2 190,-455.2 252,-455.2 252,-433.2 190,-433.2"/>
<text text-anchor="start" x="192.878" y="-440.9" font-family="Helvetica,sans-Serif" font-size="11.00" fill="#000000">unknown[0]</text>
<polygon fill="none" stroke="#000000" points="10,-411.2 10,-433.2 190,-433.2 190,-411.2 10,-411.2"/>
<text text-anchor="start" x="30" y="-418.3" font-family="Helvetica,sans-Serif" font-size="11.00" fill="#000000">end_day</text>
<polygon fill="none" stroke="#000000" points="190,-411.2 190,-433.2 252,-433.2 252,-411.2 190,-411.2"/>
<text text-anchor="start" x="192.878" y="-418.9" font-family="Helvetica,sans-Serif" font-size="11.00" fill="#000000">unknown[0]</text>
<polygon fill="none" stroke="#000000" points="10,-389.2 10,-411.2 190,-411.2 190,-389.2 10,-389.2"/>
<text text-anchor="start" x="30" y="-396.3" font-family="Helvetica,sans-Serif" font-size="11.00" fill="#000000">start_day</text>
<polygon fill="none" stroke="#000000" points="190,-389.2 190,-411.2 252,-411.2 252,-389.2 190,-389.2"/>
<text text-anchor="start" x="192.878" y="-396.9" font-family="Helvetica,sans-Serif" font-size="11.00" fill="#000000">unknown[0]</text>
<polygon fill="none" stroke="#000000" points="10,-367.2 10,-389.2 190,-389.2 190,-367.2 10,-367.2"/>
<text text-anchor="start" x="30" y="-374.3" font-family="Helvetica,sans-Serif" font-size="11.00" fill="#000000">sub_c_within_t</text>
<polygon fill="none" stroke="#000000" points="190,-367.2 190,-389.2 252,-389.2 252,-367.2 190,-367.2"/>
<text text-anchor="start" x="192.878" y="-374.9" font-family="Helvetica,sans-Serif" font-size="11.00" fill="#000000">unknown[0]</text>
<polygon fill="none" stroke="#000000" points="10,-345.2 10,-367.2 190,-367.2 190,-345.2 10,-345.2"/>
<text text-anchor="start" x="30" y="-352.3" font-family="Helvetica,sans-Serif" font-size="11.00" fill="#000000">sub_ce_window_t</text>
<polygon fill="none" stroke="#000000" points="190,-345.2 190,-367.2 252,-367.2 252,-345.2 190,-345.2"/>
<text text-anchor="start" x="192.878" y="-352.9" font-family="Helvetica,sans-Serif" font-size="11.00" fill="#000000">unknown[0]</text>
<polygon fill="none" stroke="#000000" points="10,-323.2 10,-345.2 190,-345.2 190,-323.2 10,-323.2"/>
<text text-anchor="start" x="30" y="-330.3" font-family="Helvetica,sans-Serif" font-size="11.00" fill="#000000">sub_ce_window_te</text>
<polygon fill="none" stroke="#000000" points="190,-323.2 190,-345.2 252,-345.2 252,-323.2 190,-323.2"/>
<text text-anchor="start" x="192.878" y="-330.9" font-family="Helvetica,sans-Serif" font-size="11.00" fill="#000000">unknown[0]</text>
<polygon fill="none" stroke="#000000" points="10,-301.2 10,-323.2 190,-323.2 190,-301.2 10,-301.2"/>
<text text-anchor="start" x="30" y="-308.3" font-family="Helvetica,sans-Serif" font-size="11.00" fill="#000000">sub_ce_window_ts</text>
<polygon fill="none" stroke="#000000" points="190,-301.2 190,-323.2 252,-323.2 252,-301.2 190,-301.2"/>
<text text-anchor="start" x="192.878" y="-308.9" font-family="Helvetica,sans-Serif" font-size="11.00" fill="#000000">unknown[0]</text>
<polygon fill="none" stroke="#000000" points="10,-279.2 10,-301.2 190,-301.2 190,-279.2 10,-279.2"/>
<text text-anchor="start" x="30" y="-286.3" font-family="Helvetica,sans-Serif" font-size="11.00" fill="#000000">sub_cs_after_te</text>
<polygon fill="none" stroke="#000000" points="190,-279.2 190,-301.2 252,-301.2 252,-279.2 190,-279.2"/>
<text text-anchor="start" x="192.878" y="-286.9" font-family="Helvetica,sans-Serif" font-size="11.00" fill="#000000">unknown[0]</text>
<polygon fill="none" stroke="#000000" points="10,-257.2 10,-279.2 190,-279.2 190,-257.2 10,-257.2"/>
<text text-anchor="start" x="30" y="-264.3" font-family="Helvetica,sans-Serif" font-size="11.00" fill="#000000">sub_cs_after_ts</text>
<polygon fill="none" stroke="#000000" points="190,-257.2 190,-279.2 252,-279.2 252,-257.2 190,-257.2"/>
<text text-anchor="start" x="192.878" y="-264.9" font-family="Helvetica,sans-Serif" font-size="11.00" fill="#000000">unknown[0]</text>
<polygon fill="none" stroke="#000000" points="10,-235.2 10,-257.2 190,-257.2 190,-235.2 10,-235.2"/>
<text text-anchor="start" x="30" y="-242.3" font-family="Helvetica,sans-Serif" font-size="11.00" fill="#000000">sub_cs_before_te</text>
<polygon fill="none" stroke="#000000" points="190,-235.2 190,-257.2 252,-257.2 252,-235.2 190,-235.2"/>
<text text-anchor="start" x="192.878" y="-242.9" font-family="Helvetica,sans-Serif" font-size="11.00" fill="#000000">unknown[0]</text>
<polygon fill="none" stroke="#000000" points="10,-213.2 10,-235.2 190,-235.2 190,-213.2 10,-213.2"/>
<text text-anchor="start" x="30" y="-220.3" font-family="Helvetica,sans-Serif" font-size="11.00" fill="#000000">sub_cs_before_ts</text>
<polygon fill="none" stroke="#000000" points="190,-213.2 190,-235.2 252,-235.2 252,-213.2 190,-213.2"/>
<text text-anchor="start" x="192.878" y="-220.9" font-family="Helvetica,sans-Serif" font-size="11.00" fill="#000000">unknown[0]</text>
<polygon fill="none" stroke="#000000" points="10,-191.2 10,-213.2 190,-213.2 190,-191.2 10,-191.2"/>
<text text-anchor="start" x="30" y="-198.3" font-family="Helvetica,sans-Serif" font-size="11.00" fill="#000000">sub_cs_on_te</text>
<polygon fill="none" stroke="#000000" points="190,-191.2 190,-213.2 252,-213.2 252,-191.2 190,-191.2"/>
<text text-anchor="start" x="192.878" y="-198.9" font-family="Helvetica,sans-Serif" font-size="11.00" fill="#000000">unknown[0]</text>
<polygon fill="none" stroke="#000000" points="10,-169.2 10,-191.2 190,-191.2 190,-169.2 10,-169.2"/>
<text text-anchor="start" x="30" y="-176.3" font-family="Helvetica,sans-Serif" font-size="11.00" fill="#000000">sub_cs_on_ts</text>
<polygon fill="none" stroke="#000000" points="190,-169.2 190,-191.2 252,-191.2 252,-169.2 190,-169.2"/>
<text text-anchor="start" x="192.878" y="-176.9" font-family="Helvetica,sans-Serif" font-size="11.00" fill="#000000">unknown[0]</text>
<polygon fill="none" stroke="#000000" points="10,-147.2 10,-169.2 190,-169.2 190,-147.2 10,-147.2"/>
<text text-anchor="start" x="30" y="-154.3" font-family="Helvetica,sans-Serif" font-size="11.00" fill="#000000">sub_cs_window_t</text>
<polygon fill="none" stroke="#000000" points="190,-147.2 190,-169.2 252,-169.2 252,-147.2 190,-147.2"/>
<text text-anchor="start" x="192.878" y="-154.9" font-family="Helvetica,sans-Serif" font-size="11.00" fill="#000000">unknown[0]</text>
<polygon fill="none" stroke="#000000" points="10,-125.2 10,-147.2 190,-147.2 190,-125.2 10,-125.2"/>
<text text-anchor="start" x="30" y="-132.3" font-family="Helvetica,sans-Serif" font-size="11.00" fill="#000000">sub_cs_window_te</text>
<polygon fill="none" stroke="#000000" points="190,-125.2 190,-147.2 252,-147.2 252,-125.2 190,-125.2"/>
<text text-anchor="start" x="192.878" y="-132.9" font-family="Helvetica,sans-Serif" font-size="11.00" fill="#000000">unknown[0]</text>
<polygon fill="none" stroke="#000000" points="10,-103.2 10,-125.2 190,-125.2 190,-103.2 10,-103.2"/>
<text text-anchor="start" x="30" y="-110.3" font-family="Helvetica,sans-Serif" font-size="11.00" fill="#000000">sub_cs_window_ts</text>
<polygon fill="none" stroke="#000000" points="190,-103.2 190,-125.2 252,-125.2 252,-103.2 190,-103.2"/>
<text text-anchor="start" x="192.878" y="-110.9" font-family="Helvetica,sans-Serif" font-size="11.00" fill="#000000">unknown[0]</text>
<polygon fill="none" stroke="#000000" points="10,-81.2 10,-103.2 190,-103.2 190,-81.2 10,-81.2"/>
<text text-anchor="start" x="30" y="-88.3" font-family="Helvetica,sans-Serif" font-size="11.00" fill="#000000">subjects</text>
<polygon fill="none" stroke="#000000" points="190,-81.2 190,-103.2 252,-103.2 252,-81.2 190,-81.2"/>
<text text-anchor="start" x="192.878" y="-88.9" font-family="Helvetica,sans-Serif" font-size="11.00" fill="#000000">unknown[0]</text>
<polygon fill="none" stroke="#000000" points="10,-59.2 10,-81.2 190,-81.2 190,-59.2 10,-59.2"/>
<text text-anchor="start" x="30" y="-66.3" font-family="Helvetica,sans-Serif" font-size="11.00" fill="#000000">t_days</text>
<polygon fill="none" stroke="#000000" points="190,-59.2 190,-81.2 252,-81.2 252,-59.2 190,-59.2"/>
<text text-anchor="start" x="192.878" y="-66.9" font-family="Helvetica,sans-Serif" font-size="11.00" fill="#000000">unknown[0]</text>
<polygon fill="#ffffff" stroke="transparent" points="10,-40.2 10,-59.2 91,-59.2 91,-40.2 10,-40.2"/>
<polygon fill="none" stroke="#000000" points="10,-40.2 10,-59.2 91,-59.2 91,-40.2 10,-40.2"/>
<text text-anchor="start" x="13" y="-46.3" font-family="Helvetica,sans-Serif" font-size="11.00" fill="#000000">&lt; 0</text>
<polygon fill="#ffffff" stroke="transparent" points="91,-40.2 91,-59.2 190,-59.2 190,-40.2 91,-40.2"/>
<polygon fill="none" stroke="#000000" points="91,-40.2 91,-59.2 190,-59.2 190,-40.2 91,-40.2"/>
<text text-anchor="start" x="154.6105" y="-46.3" font-family="Helvetica,sans-Serif" font-size="11.00" fill="#000000">0 rows</text>
<polygon fill="#ffffff" stroke="transparent" points="190,-40.2 190,-59.2 252,-59.2 252,-40.2 190,-40.2"/>
<polygon fill="none" stroke="#000000" points="190,-40.2 190,-59.2 252,-59.2 252,-40.2 190,-40.2"/>
<text text-anchor="start" x="233.4053" y="-46.3" font-family="Helvetica,sans-Serif" font-size="11.00" fill="#000000">0 &gt;</text>
<polygon fill="none" stroke="#000000" stroke-width="2" points="9,-39.2 9,-655.2 253,-655.2 253,-39.2 9,-39.2"/>
</a>
</g>
</g>
</g>
</svg>
