<?xml version="1.0" encoding="UTF-8" standalone="no"?>
<!DOCTYPE svg PUBLIC "-//W3C//DTD SVG 1.1//EN"
 "http://www.w3.org/Graphics/SVG/1.1/DTD/svg11.dtd">
<!-- Generated by graphviz version 2.40.1 (20161225.0304)
 -->
<!-- Title: oneDegreeRelationshipsDiagram Pages: 1 -->
<svg width="242pt" height="206pt"
 viewBox="0.00 0.00 242.00 206.20" xmlns="http://www.w3.org/2000/svg" xmlns:xlink="http://www.w3.org/1999/xlink">
<g id="graph0" class="graph" transform="scale(1 1) rotate(0) translate(4 202.2)">
<title>oneDegreeRelationshipsDiagram</title>
<polygon fill="#ffffff" stroke="transparent" points="-4,4 -4,-202.2 238,-202.2 238,4 -4,4"/>
<text text-anchor="middle" x="72.4936" y="-7.3" font-family="Helvetica,sans-Serif" font-size="11.00" fill="#000000">Generated by SchemaSpy</text>
<!-- cd_cohort_inclusion -->
<g id="node1" class="node">
<title>cd_cohort_inclusion</title>
<g id="a_node1"><a xlink:href="../../tables/cd_cohort_inclusion.html" xlink:title="cd_cohort_inclusion" target="_top">
<polygon fill="#ffffff" stroke="transparent" points="8,-38.2 8,-194.2 226,-194.2 226,-38.2 8,-38.2"/>
<polygon fill="#f5f5f5" stroke="transparent" points="10,-169.2 10,-192.2 224,-192.2 224,-169.2 10,-169.2"/>
<polygon fill="none" stroke="#000000" points="10,-169.2 10,-192.2 224,-192.2 224,-169.2 10,-169.2"/>
<text text-anchor="start" x="15" y="-177.8" font-family="Helvetica,sans-Serif" font-weight="bold" font-size="11.00" fill="#000000">cd_cohort_inclusion</text>
<text text-anchor="start" x="189.0437" y="-177.3" font-family="Helvetica,sans-Serif" font-size="11.00" fill="#000000">[table]</text>
<polygon fill="none" stroke="#000000" points="10,-147.2 10,-169.2 162,-169.2 162,-147.2 10,-147.2"/>
<text text-anchor="start" x="30" y="-154.3" font-family="Helvetica,sans-Serif" font-size="11.00" fill="#000000">cohort_id</text>
<polygon fill="none" stroke="#000000" points="162,-147.2 162,-169.2 224,-169.2 224,-147.2 162,-147.2"/>
<text text-anchor="start" x="164.878" y="-154.9" font-family="Helvetica,sans-Serif" font-size="11.00" fill="#000000">unknown[0]</text>
<polygon fill="none" stroke="#000000" points="10,-125.2 10,-147.2 162,-147.2 162,-125.2 10,-125.2"/>
<text text-anchor="start" x="30" y="-132.3" font-family="Helvetica,sans-Serif" font-size="11.00" fill="#000000">database_id</text>
<polygon fill="none" stroke="#000000" points="162,-125.2 162,-147.2 224,-147.2 224,-125.2 162,-125.2"/>
<text text-anchor="start" x="164.878" y="-132.9" font-family="Helvetica,sans-Serif" font-size="11.00" fill="#000000">unknown[0]</text>
<polygon fill="none" stroke="#000000" points="10,-103.2 10,-125.2 162,-125.2 162,-103.2 10,-103.2"/>
<text text-anchor="start" x="30" y="-110.3" font-family="Helvetica,sans-Serif" font-size="11.00" fill="#000000">description</text>
<polygon fill="none" stroke="#000000" points="162,-103.2 162,-125.2 224,-125.2 224,-103.2 162,-103.2"/>
<text text-anchor="start" x="164.878" y="-110.9" font-family="Helvetica,sans-Serif" font-size="11.00" fill="#000000">unknown[0]</text>
<polygon fill="none" stroke="#000000" points="10,-81.2 10,-103.2 162,-103.2 162,-81.2 10,-81.2"/>
<text text-anchor="start" x="30" y="-88.3" font-family="Helvetica,sans-Serif" font-size="11.00" fill="#000000">name</text>
<polygon fill="none" stroke="#000000" points="162,-81.2 162,-103.2 224,-103.2 224,-81.2 162,-81.2"/>
<text text-anchor="start" x="164.878" y="-88.9" font-family="Helvetica,sans-Serif" font-size="11.00" fill="#000000">unknown[0]</text>
<polygon fill="none" stroke="#000000" points="10,-59.2 10,-81.2 162,-81.2 162,-59.2 10,-59.2"/>
<text text-anchor="start" x="30" y="-66.3" font-family="Helvetica,sans-Serif" font-size="11.00" fill="#000000">rule_sequence</text>
<polygon fill="none" stroke="#000000" points="162,-59.2 162,-81.2 224,-81.2 224,-59.2 162,-59.2"/>
<text text-anchor="start" x="164.878" y="-66.9" font-family="Helvetica,sans-Serif" font-size="11.00" fill="#000000">unknown[0]</text>
<polygon fill="#ffffff" stroke="transparent" points="10,-40.2 10,-59.2 77,-59.2 77,-40.2 10,-40.2"/>
<polygon fill="none" stroke="#000000" points="10,-40.2 10,-59.2 77,-59.2 77,-40.2 10,-40.2"/>
<text text-anchor="start" x="13" y="-46.3" font-family="Helvetica,sans-Serif" font-size="11.00" fill="#000000">&lt; 0</text>
<polygon fill="#ffffff" stroke="transparent" points="77,-40.2 77,-59.2 162,-59.2 162,-40.2 77,-40.2"/>
<polygon fill="none" stroke="#000000" points="77,-40.2 77,-59.2 162,-59.2 162,-40.2 77,-40.2"/>
<text text-anchor="start" x="126.6105" y="-46.3" font-family="Helvetica,sans-Serif" font-size="11.00" fill="#000000">0 rows</text>
<polygon fill="#ffffff" stroke="transparent" points="162,-40.2 162,-59.2 224,-59.2 224,-40.2 162,-40.2"/>
<polygon fill="none" stroke="#000000" points="162,-40.2 162,-59.2 224,-59.2 224,-40.2 162,-40.2"/>
<text text-anchor="start" x="205.4053" y="-46.3" font-family="Helvetica,sans-Serif" font-size="11.00" fill="#000000">0 &gt;</text>
<polygon fill="none" stroke="#000000" stroke-width="2" points="9,-39.2 9,-193.2 225,-193.2 225,-39.2 9,-39.2"/>
</a>
</g>
</g>
</g>
</svg>
