<?xml version="1.0" encoding="UTF-8" standalone="no"?>
<!DOCTYPE svg PUBLIC "-//W3C//DTD SVG 1.1//EN"
 "http://www.w3.org/Graphics/SVG/1.1/DTD/svg11.dtd">
<!-- Generated by graphviz version 2.40.1 (20161225.0304)
 -->
<!-- Title: oneDegreeRelationshipsDiagram Pages: 1 -->
<svg width="282pt" height="184pt"
 viewBox="0.00 0.00 282.00 184.20" xmlns="http://www.w3.org/2000/svg" xmlns:xlink="http://www.w3.org/1999/xlink">
<g id="graph0" class="graph" transform="scale(1 1) rotate(0) translate(4 180.2)">
<title>oneDegreeRelationshipsDiagram</title>
<polygon fill="#ffffff" stroke="transparent" points="-4,4 -4,-180.2 278,-180.2 278,4 -4,4"/>
<text text-anchor="middle" x="72.4936" y="-7.3" font-family="Helvetica,sans-Serif" font-size="11.00" fill="#000000">Generated by SchemaSpy</text>
<!-- cd_concept_ancestor -->
<g id="node1" class="node">
<title>cd_concept_ancestor</title>
<g id="a_node1"><a xlink:href="../../tables/cd_concept_ancestor.html" xlink:title="cd_concept_ancestor" target="_top">
<polygon fill="#ffffff" stroke="transparent" points="8,-38.2 8,-172.2 266,-172.2 266,-38.2 8,-38.2"/>
<polygon fill="#f5f5f5" stroke="transparent" points="10,-147.2 10,-170.2 264,-170.2 264,-147.2 10,-147.2"/>
<polygon fill="none" stroke="#000000" points="10,-147.2 10,-170.2 264,-170.2 264,-147.2 10,-147.2"/>
<text text-anchor="start" x="15" y="-155.8" font-family="Helvetica,sans-Serif" font-weight="bold" font-size="11.00" fill="#000000">cd_concept_ancestor</text>
<text text-anchor="start" x="229.0437" y="-155.3" font-family="Helvetica,sans-Serif" font-size="11.00" fill="#000000">[table]</text>
<polygon fill="none" stroke="#000000" points="10,-125.2 10,-147.2 202,-147.2 202,-125.2 10,-125.2"/>
<text text-anchor="start" x="30" y="-132.3" font-family="Helvetica,sans-Serif" font-size="11.00" fill="#000000">ancestor_concept_id</text>
<polygon fill="none" stroke="#000000" points="202,-125.2 202,-147.2 264,-147.2 264,-125.2 202,-125.2"/>
<text text-anchor="start" x="204.878" y="-132.9" font-family="Helvetica,sans-Serif" font-size="11.00" fill="#000000">unknown[0]</text>
<polygon fill="none" stroke="#000000" points="10,-103.2 10,-125.2 202,-125.2 202,-103.2 10,-103.2"/>
<text text-anchor="start" x="30" y="-110.3" font-family="Helvetica,sans-Serif" font-size="11.00" fill="#000000">descendant_concept_id</text>
<polygon fill="none" stroke="#000000" points="202,-103.2 202,-125.2 264,-125.2 264,-103.2 202,-103.2"/>
<text text-anchor="start" x="204.878" y="-110.9" font-family="Helvetica,sans-Serif" font-size="11.00" fill="#000000">unknown[0]</text>
<polygon fill="none" stroke="#000000" points="10,-81.2 10,-103.2 202,-103.2 202,-81.2 10,-81.2"/>
<text text-anchor="start" x="30" y="-88.3" font-family="Helvetica,sans-Serif" font-size="11.00" fill="#000000">max_levels_of_separation</text>
<polygon fill="none" stroke="#000000" points="202,-81.2 202,-103.2 264,-103.2 264,-81.2 202,-81.2"/>
<text text-anchor="start" x="204.878" y="-88.9" font-family="Helvetica,sans-Serif" font-size="11.00" fill="#000000">unknown[0]</text>
<polygon fill="none" stroke="#000000" points="10,-59.2 10,-81.2 202,-81.2 202,-59.2 10,-59.2"/>
<text text-anchor="start" x="30" y="-66.3" font-family="Helvetica,sans-Serif" font-size="11.00" fill="#000000">min_levels_of_separation</text>
<polygon fill="none" stroke="#000000" points="202,-59.2 202,-81.2 264,-81.2 264,-59.2 202,-59.2"/>
<text text-anchor="start" x="204.878" y="-66.9" font-family="Helvetica,sans-Serif" font-size="11.00" fill="#000000">unknown[0]</text>
<polygon fill="#ffffff" stroke="transparent" points="10,-40.2 10,-59.2 97,-59.2 97,-40.2 10,-40.2"/>
<polygon fill="none" stroke="#000000" points="10,-40.2 10,-59.2 97,-59.2 97,-40.2 10,-40.2"/>
<text text-anchor="start" x="13" y="-46.3" font-family="Helvetica,sans-Serif" font-size="11.00" fill="#000000">&lt; 0</text>
<polygon fill="#ffffff" stroke="transparent" points="97,-40.2 97,-59.2 202,-59.2 202,-40.2 97,-40.2"/>
<polygon fill="none" stroke="#000000" points="97,-40.2 97,-59.2 202,-59.2 202,-40.2 97,-40.2"/>
<text text-anchor="start" x="166.6105" y="-46.3" font-family="Helvetica,sans-Serif" font-size="11.00" fill="#000000">0 rows</text>
<polygon fill="#ffffff" stroke="transparent" points="202,-40.2 202,-59.2 264,-59.2 264,-40.2 202,-40.2"/>
<polygon fill="none" stroke="#000000" points="202,-40.2 202,-59.2 264,-59.2 264,-40.2 202,-40.2"/>
<text text-anchor="start" x="245.4053" y="-46.3" font-family="Helvetica,sans-Serif" font-size="11.00" fill="#000000">0 &gt;</text>
<polygon fill="none" stroke="#000000" stroke-width="2" points="9,-39.2 9,-171.2 265,-171.2 265,-39.2 9,-39.2"/>
</a>
</g>
</g>
</g>
</svg>
