<?xml version="1.0" encoding="UTF-8" standalone="no"?>
<!DOCTYPE svg PUBLIC "-//W3C//DTD SVG 1.1//EN"
 "http://www.w3.org/Graphics/SVG/1.1/DTD/svg11.dtd">
<!-- Generated by graphviz version 2.40.1 (20161225.0304)
 -->
<!-- Title: oneDegreeRelationshipsDiagram Pages: 1 -->
<svg width="274pt" height="162pt"
 viewBox="0.00 0.00 274.00 162.20" xmlns="http://www.w3.org/2000/svg" xmlns:xlink="http://www.w3.org/1999/xlink">
<g id="graph0" class="graph" transform="scale(1 1) rotate(0) translate(4 158.2)">
<title>oneDegreeRelationshipsDiagram</title>
<polygon fill="#ffffff" stroke="transparent" points="-4,4 -4,-158.2 270,-158.2 270,4 -4,4"/>
<text text-anchor="middle" x="72.4936" y="-7.3" font-family="Helvetica,sans-Serif" font-size="11.00" fill="#000000">Generated by SchemaSpy</text>
<!-- cd_concept_synonym -->
<g id="node1" class="node">
<title>cd_concept_synonym</title>
<g id="a_node1"><a xlink:href="../../tables/cd_concept_synonym.html" xlink:title="cd_concept_synonym" target="_top">
<polygon fill="#ffffff" stroke="transparent" points="8,-38.2 8,-150.2 258,-150.2 258,-38.2 8,-38.2"/>
<polygon fill="#f5f5f5" stroke="transparent" points="10,-125.2 10,-148.2 256,-148.2 256,-125.2 10,-125.2"/>
<polygon fill="none" stroke="#000000" points="10,-125.2 10,-148.2 256,-148.2 256,-125.2 10,-125.2"/>
<text text-anchor="start" x="15" y="-133.8" font-family="Helvetica,sans-Serif" font-weight="bold" font-size="11.00" fill="#000000">cd_concept_synonym</text>
<text text-anchor="start" x="221.0437" y="-133.3" font-family="Helvetica,sans-Serif" font-size="11.00" fill="#000000">[table]</text>
<polygon fill="none" stroke="#000000" points="10,-103.2 10,-125.2 194,-125.2 194,-103.2 10,-103.2"/>
<text text-anchor="start" x="30" y="-110.3" font-family="Helvetica,sans-Serif" font-size="11.00" fill="#000000">concept_id</text>
<polygon fill="none" stroke="#000000" points="194,-103.2 194,-125.2 256,-125.2 256,-103.2 194,-103.2"/>
<text text-anchor="start" x="196.878" y="-110.9" font-family="Helvetica,sans-Serif" font-size="11.00" fill="#000000">unknown[0]</text>
<polygon fill="none" stroke="#000000" points="10,-81.2 10,-103.2 194,-103.2 194,-81.2 10,-81.2"/>
<text text-anchor="start" x="30" y="-88.3" font-family="Helvetica,sans-Serif" font-size="11.00" fill="#000000">concept_synonym_name</text>
<polygon fill="none" stroke="#000000" points="194,-81.2 194,-103.2 256,-103.2 256,-81.2 194,-81.2"/>
<text text-anchor="start" x="196.878" y="-88.9" font-family="Helvetica,sans-Serif" font-size="11.00" fill="#000000">unknown[0]</text>
<polygon fill="none" stroke="#000000" points="10,-59.2 10,-81.2 194,-81.2 194,-59.2 10,-59.2"/>
<text text-anchor="start" x="30" y="-66.3" font-family="Helvetica,sans-Serif" font-size="11.00" fill="#000000">language_concept_id</text>
<polygon fill="none" stroke="#000000" points="194,-59.2 194,-81.2 256,-81.2 256,-59.2 194,-59.2"/>
<text text-anchor="start" x="196.878" y="-66.9" font-family="Helvetica,sans-Serif" font-size="11.00" fill="#000000">unknown[0]</text>
<polygon fill="#ffffff" stroke="transparent" points="10,-40.2 10,-59.2 93,-59.2 93,-40.2 10,-40.2"/>
<polygon fill="none" stroke="#000000" points="10,-40.2 10,-59.2 93,-59.2 93,-40.2 10,-40.2"/>
<text text-anchor="start" x="13" y="-46.3" font-family="Helvetica,sans-Serif" font-size="11.00" fill="#000000">&lt; 0</text>
<polygon fill="#ffffff" stroke="transparent" points="93,-40.2 93,-59.2 194,-59.2 194,-40.2 93,-40.2"/>
<polygon fill="none" stroke="#000000" points="93,-40.2 93,-59.2 194,-59.2 194,-40.2 93,-40.2"/>
<text text-anchor="start" x="158.6105" y="-46.3" font-family="Helvetica,sans-Serif" font-size="11.00" fill="#000000">0 rows</text>
<polygon fill="#ffffff" stroke="transparent" points="194,-40.2 194,-59.2 256,-59.2 256,-40.2 194,-40.2"/>
<polygon fill="none" stroke="#000000" points="194,-40.2 194,-59.2 256,-59.2 256,-40.2 194,-40.2"/>
<text text-anchor="start" x="237.4053" y="-46.3" font-family="Helvetica,sans-Serif" font-size="11.00" fill="#000000">0 &gt;</text>
<polygon fill="none" stroke="#000000" stroke-width="2" points="9,-39.2 9,-149.2 257,-149.2 257,-39.2 9,-39.2"/>
</a>
</g>
</g>
</g>
</svg>
