<?xml version="1.0" encoding="UTF-8" standalone="no"?>
<!DOCTYPE svg PUBLIC "-//W3C//DTD SVG 1.1//EN"
 "http://www.w3.org/Graphics/SVG/1.1/DTD/svg11.dtd">
<!-- Generated by graphviz version 2.40.1 (20161225.0304)
 -->
<!-- Title: oneDegreeRelationshipsDiagram Pages: 1 -->
<svg width="509pt" height="385pt"
 viewBox="0.00 0.00 509.00 385.20" xmlns="http://www.w3.org/2000/svg" xmlns:xlink="http://www.w3.org/1999/xlink">
<g id="graph0" class="graph" transform="scale(1 1) rotate(0) translate(4 381.2)">
<title>oneDegreeRelationshipsDiagram</title>
<polygon fill="#ffffff" stroke="transparent" points="-4,4 -4,-381.2 505,-381.2 505,4 -4,4"/>
<text text-anchor="middle" x="72.4936" y="-7.3" font-family="Helvetica,sans-Serif" font-size="11.00" fill="#000000">Generated by SchemaSpy</text>
<!-- cd_included_source_concept -->
<g id="node1" class="node">
<title>cd_included_source_concept</title>
<g id="a_node1"><a xlink:href="../../tables/cd_included_source_concept.html" xlink:title="cd_included_source_concept" target="_top">
<polygon fill="#ffffff" stroke="transparent" points="264,-290.2 264,-373.2 493,-373.2 493,-290.2 264,-290.2"/>
<polygon fill="#f5f5f5" stroke="transparent" points="264.5,-349.7 264.5,-372.7 493.5,-372.7 493.5,-349.7 264.5,-349.7"/>
<polygon fill="none" stroke="#000000" points="264.5,-349.7 264.5,-372.7 493.5,-372.7 493.5,-349.7 264.5,-349.7"/>
<text text-anchor="start" x="269.5" y="-358.3" font-family="Helvetica,sans-Serif" font-weight="bold" font-size="11.00" fill="#000000">cd_included_source_concept</text>
<text text-anchor="start" x="459.0219" y="-357.8" font-family="Helvetica,sans-Serif" font-size="11.00" fill="#000000">[table]</text>
<polygon fill="none" stroke="#000000" points="264.5,-327.7 264.5,-349.7 493.5,-349.7 493.5,-327.7 264.5,-327.7"/>
<image xlink:href="../../images/foreignKeys.png" width="11px" height="12px" preserveAspectRatio="xMinYMin meet" x="269.5" y="-344.7"/>
<text text-anchor="start" x="293.5" y="-334.8" font-family="Helvetica,sans-Serif" font-size="11.00" fill="#000000">concept_id</text>
<polygon fill="none" stroke="#000000" points="264.5,-308.7 264.5,-327.7 493.5,-327.7 493.5,-308.7 264.5,-308.7"/>
<text text-anchor="start" x="267.5" y="-314.8" font-family="Helvetica,sans-Serif" font-size="11.00" fill="#000000">...</text>
<polygon fill="#ffffff" stroke="transparent" points="264.5,-289.7 264.5,-308.7 364.5,-308.7 364.5,-289.7 264.5,-289.7"/>
<polygon fill="none" stroke="#000000" points="264.5,-289.7 264.5,-308.7 364.5,-308.7 364.5,-289.7 264.5,-289.7"/>
<text text-anchor="start" x="267.5" y="-295.8" font-family="Helvetica,sans-Serif" font-size="11.00" fill="#000000">&lt; 1</text>
<polygon fill="#ffffff" stroke="transparent" points="364.5,-289.7 364.5,-308.7 441.5,-308.7 441.5,-289.7 364.5,-289.7"/>
<polygon fill="none" stroke="#000000" points="364.5,-289.7 364.5,-308.7 441.5,-308.7 441.5,-289.7 364.5,-289.7"/>
<text text-anchor="start" x="406.1105" y="-295.8" font-family="Helvetica,sans-Serif" font-size="11.00" fill="#000000">0 rows</text>
<polygon fill="#ffffff" stroke="transparent" points="441.5,-289.7 441.5,-308.7 493.5,-308.7 493.5,-289.7 441.5,-289.7"/>
<polygon fill="none" stroke="#000000" points="441.5,-289.7 441.5,-308.7 493.5,-308.7 493.5,-289.7 441.5,-289.7"/>
<text text-anchor="start" x="484.3862" y="-295.8" font-family="Helvetica,sans-Serif" font-size="11.00" fill="#000000"> &#160;</text>
</a>
</g>
</g>
<!-- cd_concept -->
<g id="node2" class="node">
<title>cd_concept</title>
<g id="a_node2"><a xlink:href="../../tables/cd_concept.html" xlink:title="cd_concept" target="_top">
<polygon fill="#ffffff" stroke="transparent" points="8,-48.7 8,-314.7 215,-314.7 215,-48.7 8,-48.7"/>
<polygon fill="#f5f5f5" stroke="transparent" points="10.5,-289.7 10.5,-312.7 213.5,-312.7 213.5,-289.7 10.5,-289.7"/>
<polygon fill="none" stroke="#000000" points="10.5,-289.7 10.5,-312.7 213.5,-312.7 213.5,-289.7 10.5,-289.7"/>
<text text-anchor="start" x="15.5" y="-298.3" font-family="Helvetica,sans-Serif" font-weight="bold" font-size="11.00" fill="#000000">cd_concept</text>
<text text-anchor="start" x="178.5437" y="-297.8" font-family="Helvetica,sans-Serif" font-size="11.00" fill="#000000">[table]</text>
<polygon fill="none" stroke="#000000" points="10.5,-267.7 10.5,-289.7 151.5,-289.7 151.5,-267.7 10.5,-267.7"/>
<text text-anchor="start" x="30.5" y="-274.8" font-family="Helvetica,sans-Serif" font-size="11.00" fill="#000000">concept_class_id</text>
<polygon fill="none" stroke="#000000" points="151.5,-267.7 151.5,-289.7 213.5,-289.7 213.5,-267.7 151.5,-267.7"/>
<text text-anchor="start" x="154.378" y="-275.4" font-family="Helvetica,sans-Serif" font-size="11.00" fill="#000000">unknown[0]</text>
<polygon fill="none" stroke="#000000" points="10.5,-245.7 10.5,-267.7 151.5,-267.7 151.5,-245.7 10.5,-245.7"/>
<text text-anchor="start" x="30.5" y="-252.8" font-family="Helvetica,sans-Serif" font-size="11.00" fill="#000000">concept_code</text>
<polygon fill="none" stroke="#000000" points="151.5,-245.7 151.5,-267.7 213.5,-267.7 213.5,-245.7 151.5,-245.7"/>
<text text-anchor="start" x="154.378" y="-253.4" font-family="Helvetica,sans-Serif" font-size="11.00" fill="#000000">unknown[0]</text>
<polygon fill="none" stroke="#000000" points="10.5,-223.7 10.5,-245.7 151.5,-245.7 151.5,-223.7 10.5,-223.7"/>
<image xlink:href="../../images/primaryKeys.png" width="11px" height="12px" preserveAspectRatio="xMinYMin meet" x="15.5" y="-240.7"/>
<text text-anchor="start" x="30.5" y="-230.8" font-family="Helvetica,sans-Serif" font-size="11.00" fill="#000000">concept_id</text>
<polygon fill="none" stroke="#000000" points="151.5,-223.7 151.5,-245.7 213.5,-245.7 213.5,-223.7 151.5,-223.7"/>
<text text-anchor="start" x="154.378" y="-231.4" font-family="Helvetica,sans-Serif" font-size="11.00" fill="#000000">unknown[0]</text>
<polygon fill="none" stroke="#000000" points="10.5,-201.7 10.5,-223.7 151.5,-223.7 151.5,-201.7 10.5,-201.7"/>
<text text-anchor="start" x="30.5" y="-208.8" font-family="Helvetica,sans-Serif" font-size="11.00" fill="#000000">concept_name</text>
<polygon fill="none" stroke="#000000" points="151.5,-201.7 151.5,-223.7 213.5,-223.7 213.5,-201.7 151.5,-201.7"/>
<text text-anchor="start" x="154.378" y="-209.4" font-family="Helvetica,sans-Serif" font-size="11.00" fill="#000000">unknown[0]</text>
<polygon fill="none" stroke="#000000" points="10.5,-179.7 10.5,-201.7 151.5,-201.7 151.5,-179.7 10.5,-179.7"/>
<text text-anchor="start" x="30.5" y="-186.8" font-family="Helvetica,sans-Serif" font-size="11.00" fill="#000000">domain_id</text>
<polygon fill="none" stroke="#000000" points="151.5,-179.7 151.5,-201.7 213.5,-201.7 213.5,-179.7 151.5,-179.7"/>
<text text-anchor="start" x="154.378" y="-187.4" font-family="Helvetica,sans-Serif" font-size="11.00" fill="#000000">unknown[0]</text>
<polygon fill="none" stroke="#000000" points="10.5,-157.7 10.5,-179.7 151.5,-179.7 151.5,-157.7 10.5,-157.7"/>
<text text-anchor="start" x="30.5" y="-164.8" font-family="Helvetica,sans-Serif" font-size="11.00" fill="#000000">invalid_reason</text>
<polygon fill="none" stroke="#000000" points="151.5,-157.7 151.5,-179.7 213.5,-179.7 213.5,-157.7 151.5,-157.7"/>
<text text-anchor="start" x="154.378" y="-165.4" font-family="Helvetica,sans-Serif" font-size="11.00" fill="#000000">unknown[0]</text>
<polygon fill="none" stroke="#000000" points="10.5,-135.7 10.5,-157.7 151.5,-157.7 151.5,-135.7 10.5,-135.7"/>
<text text-anchor="start" x="30.5" y="-142.8" font-family="Helvetica,sans-Serif" font-size="11.00" fill="#000000">standard_concept</text>
<polygon fill="none" stroke="#000000" points="151.5,-135.7 151.5,-157.7 213.5,-157.7 213.5,-135.7 151.5,-135.7"/>
<text text-anchor="start" x="154.378" y="-143.4" font-family="Helvetica,sans-Serif" font-size="11.00" fill="#000000">unknown[0]</text>
<polygon fill="none" stroke="#000000" points="10.5,-113.7 10.5,-135.7 151.5,-135.7 151.5,-113.7 10.5,-113.7"/>
<text text-anchor="start" x="30.5" y="-120.8" font-family="Helvetica,sans-Serif" font-size="11.00" fill="#000000">valid_end_date</text>
<polygon fill="none" stroke="#000000" points="151.5,-113.7 151.5,-135.7 213.5,-135.7 213.5,-113.7 151.5,-113.7"/>
<text text-anchor="start" x="154.378" y="-121.4" font-family="Helvetica,sans-Serif" font-size="11.00" fill="#000000">unknown[0]</text>
<polygon fill="none" stroke="#000000" points="10.5,-91.7 10.5,-113.7 151.5,-113.7 151.5,-91.7 10.5,-91.7"/>
<text text-anchor="start" x="30.5" y="-98.8" font-family="Helvetica,sans-Serif" font-size="11.00" fill="#000000">valid_start_date</text>
<polygon fill="none" stroke="#000000" points="151.5,-91.7 151.5,-113.7 213.5,-113.7 213.5,-91.7 151.5,-91.7"/>
<text text-anchor="start" x="154.378" y="-99.4" font-family="Helvetica,sans-Serif" font-size="11.00" fill="#000000">unknown[0]</text>
<polygon fill="none" stroke="#000000" points="10.5,-69.7 10.5,-91.7 151.5,-91.7 151.5,-69.7 10.5,-69.7"/>
<text text-anchor="start" x="30.5" y="-76.8" font-family="Helvetica,sans-Serif" font-size="11.00" fill="#000000">vocabulary_id</text>
<polygon fill="none" stroke="#000000" points="151.5,-69.7 151.5,-91.7 213.5,-91.7 213.5,-69.7 151.5,-69.7"/>
<text text-anchor="start" x="154.378" y="-77.4" font-family="Helvetica,sans-Serif" font-size="11.00" fill="#000000">unknown[0]</text>
<polygon fill="#ffffff" stroke="transparent" points="10.5,-50.7 10.5,-69.7 72.5,-69.7 72.5,-50.7 10.5,-50.7"/>
<polygon fill="none" stroke="#000000" points="10.5,-50.7 10.5,-69.7 72.5,-69.7 72.5,-50.7 10.5,-50.7"/>
<text text-anchor="start" x="13.5" y="-56.8" font-family="Helvetica,sans-Serif" font-size="11.00" fill="#000000">&lt; 0</text>
<polygon fill="#ffffff" stroke="transparent" points="72.5,-50.7 72.5,-69.7 151.5,-69.7 151.5,-50.7 72.5,-50.7"/>
<polygon fill="none" stroke="#000000" points="72.5,-50.7 72.5,-69.7 151.5,-69.7 151.5,-50.7 72.5,-50.7"/>
<text text-anchor="start" x="116.1105" y="-56.8" font-family="Helvetica,sans-Serif" font-size="11.00" fill="#000000">0 rows</text>
<polygon fill="#ffffff" stroke="transparent" points="151.5,-50.7 151.5,-69.7 213.5,-69.7 213.5,-50.7 151.5,-50.7"/>
<polygon fill="none" stroke="#000000" points="151.5,-50.7 151.5,-69.7 213.5,-69.7 213.5,-50.7 151.5,-50.7"/>
<text text-anchor="start" x="194.9053" y="-56.8" font-family="Helvetica,sans-Serif" font-size="11.00" fill="#000000">3 &gt;</text>
<polygon fill="none" stroke="#000000" stroke-width="2" points="9,-49.7 9,-313.7 214,-313.7 214,-49.7 9,-49.7"/>
</a>
</g>
</g>
<!-- cd_included_source_concept&#45;&gt;cd_concept -->
<g id="edge1" class="edge">
<title>cd_included_source_concept:w&#45;&gt;cd_concept:e</title>
<path fill="none" stroke="#000000" d="M250.33,-334.7501C223.7771,-315.7532 258.9479,-234.7 213.5,-234.7"/>
<polygon fill="#000000" stroke="#000000" points="256.7938,-336.5518 263.5333,-342.1678 260.6469,-337.6259 264.5,-338.7 264.5,-338.7 264.5,-338.7 260.6469,-337.6259 265.4667,-335.2322 256.7938,-336.5518 256.7938,-336.5518"/>
<ellipse fill="none" stroke="#000000" cx="253.7113" cy="-335.6926" rx="3.2" ry="3.2"/>
</g>
<!-- cd_index_event_breakdown -->
<g id="node3" class="node">
<title>cd_index_event_breakdown</title>
<g id="a_node3"><a xlink:href="../../tables/cd_index_event_breakdown.html" xlink:title="cd_index_event_breakdown" target="_top">
<polygon fill="#ffffff" stroke="transparent" points="267,-186.2 267,-269.2 490,-269.2 490,-186.2 267,-186.2"/>
<polygon fill="#f5f5f5" stroke="transparent" points="267.5,-245.7 267.5,-268.7 490.5,-268.7 490.5,-245.7 267.5,-245.7"/>
<polygon fill="none" stroke="#000000" points="267.5,-245.7 267.5,-268.7 490.5,-268.7 490.5,-245.7 267.5,-245.7"/>
<text text-anchor="start" x="272.5" y="-254.3" font-family="Helvetica,sans-Serif" font-weight="bold" font-size="11.00" fill="#000000">cd_index_event_breakdown</text>
<text text-anchor="start" x="456.0219" y="-253.8" font-family="Helvetica,sans-Serif" font-size="11.00" fill="#000000">[table]</text>
<polygon fill="none" stroke="#000000" points="267.5,-223.7 267.5,-245.7 490.5,-245.7 490.5,-223.7 267.5,-223.7"/>
<image xlink:href="../../images/foreignKeys.png" width="11px" height="12px" preserveAspectRatio="xMinYMin meet" x="272.5" y="-240.7"/>
<text text-anchor="start" x="296.5" y="-230.8" font-family="Helvetica,sans-Serif" font-size="11.00" fill="#000000">concept_id</text>
<polygon fill="none" stroke="#000000" points="267.5,-204.7 267.5,-223.7 490.5,-223.7 490.5,-204.7 267.5,-204.7"/>
<text text-anchor="start" x="270.5" y="-210.8" font-family="Helvetica,sans-Serif" font-size="11.00" fill="#000000">...</text>
<polygon fill="#ffffff" stroke="transparent" points="267.5,-185.7 267.5,-204.7 364.5,-204.7 364.5,-185.7 267.5,-185.7"/>
<polygon fill="none" stroke="#000000" points="267.5,-185.7 267.5,-204.7 364.5,-204.7 364.5,-185.7 267.5,-185.7"/>
<text text-anchor="start" x="270.5" y="-191.8" font-family="Helvetica,sans-Serif" font-size="11.00" fill="#000000">&lt; 1</text>
<polygon fill="#ffffff" stroke="transparent" points="364.5,-185.7 364.5,-204.7 440.5,-204.7 440.5,-185.7 364.5,-185.7"/>
<polygon fill="none" stroke="#000000" points="364.5,-185.7 364.5,-204.7 440.5,-204.7 440.5,-185.7 364.5,-185.7"/>
<text text-anchor="start" x="405.1105" y="-191.8" font-family="Helvetica,sans-Serif" font-size="11.00" fill="#000000">0 rows</text>
<polygon fill="#ffffff" stroke="transparent" points="440.5,-185.7 440.5,-204.7 490.5,-204.7 490.5,-185.7 440.5,-185.7"/>
<polygon fill="none" stroke="#000000" points="440.5,-185.7 440.5,-204.7 490.5,-204.7 490.5,-185.7 440.5,-185.7"/>
<text text-anchor="start" x="481.3862" y="-191.8" font-family="Helvetica,sans-Serif" font-size="11.00" fill="#000000"> &#160;</text>
</a>
</g>
</g>
<!-- cd_index_event_breakdown&#45;&gt;cd_concept -->
<g id="edge2" class="edge">
<title>cd_index_event_breakdown:w&#45;&gt;cd_concept:e</title>
<path fill="none" stroke="#000000" d="M252.7185,-234.7C239.538,-234.7 231.6875,-234.7 213.5,-234.7"/>
<polygon fill="#000000" stroke="#000000" points="259.5,-234.7001 267.5,-238.3 263.5,-234.7 267.5,-234.7 267.5,-234.7 267.5,-234.7 263.5,-234.7 267.5,-231.1 259.5,-234.7001 259.5,-234.7001"/>
<ellipse fill="none" stroke="#000000" cx="256.3" cy="-234.7001" rx="3.2" ry="3.2"/>
</g>
<!-- cd_orphan_concept -->
<g id="node4" class="node">
<title>cd_orphan_concept</title>
<g id="a_node4"><a xlink:href="../../tables/cd_orphan_concept.html" xlink:title="cd_orphan_concept" target="_top">
<polygon fill="#ffffff" stroke="transparent" points="294.5,-38.2 294.5,-165.2 462.5,-165.2 462.5,-38.2 294.5,-38.2"/>
<polygon fill="#f5f5f5" stroke="transparent" points="294.5,-141.7 294.5,-164.7 462.5,-164.7 462.5,-141.7 294.5,-141.7"/>
<polygon fill="none" stroke="#000000" points="294.5,-141.7 294.5,-164.7 462.5,-164.7 462.5,-141.7 294.5,-141.7"/>
<text text-anchor="start" x="299.5" y="-150.3" font-family="Helvetica,sans-Serif" font-weight="bold" font-size="11.00" fill="#000000">cd_orphan_concept</text>
<text text-anchor="start" x="428.0219" y="-149.8" font-family="Helvetica,sans-Serif" font-size="11.00" fill="#000000">[table]</text>
<polygon fill="none" stroke="#000000" points="294.5,-119.7 294.5,-141.7 462.5,-141.7 462.5,-119.7 294.5,-119.7"/>
<image xlink:href="../../images/foreignKeys.png" width="11px" height="12px" preserveAspectRatio="xMinYMin meet" x="299.5" y="-136.7"/>
<text text-anchor="start" x="323.5" y="-126.8" font-family="Helvetica,sans-Serif" font-size="11.00" fill="#000000">cohort_id</text>
<polygon fill="none" stroke="#000000" points="294.5,-97.7 294.5,-119.7 462.5,-119.7 462.5,-97.7 294.5,-97.7"/>
<image xlink:href="../../images/foreignKeys.png" width="11px" height="12px" preserveAspectRatio="xMinYMin meet" x="299.5" y="-114.7"/>
<text text-anchor="start" x="323.5" y="-104.8" font-family="Helvetica,sans-Serif" font-size="11.00" fill="#000000">concept_id</text>
<polygon fill="none" stroke="#000000" points="294.5,-75.7 294.5,-97.7 462.5,-97.7 462.5,-75.7 294.5,-75.7"/>
<image xlink:href="../../images/foreignKeys.png" width="11px" height="12px" preserveAspectRatio="xMinYMin meet" x="299.5" y="-92.7"/>
<text text-anchor="start" x="323.5" y="-82.8" font-family="Helvetica,sans-Serif" font-size="11.00" fill="#000000">concept_set_id</text>
<polygon fill="none" stroke="#000000" points="294.5,-56.7 294.5,-75.7 462.5,-75.7 462.5,-56.7 294.5,-56.7"/>
<text text-anchor="start" x="297.5" y="-62.8" font-family="Helvetica,sans-Serif" font-size="11.00" fill="#000000">...</text>
<polygon fill="#ffffff" stroke="transparent" points="294.5,-37.7 294.5,-56.7 363.5,-56.7 363.5,-37.7 294.5,-37.7"/>
<polygon fill="none" stroke="#000000" points="294.5,-37.7 294.5,-56.7 363.5,-56.7 363.5,-37.7 294.5,-37.7"/>
<text text-anchor="start" x="297.5" y="-43.8" font-family="Helvetica,sans-Serif" font-size="11.00" fill="#000000">&lt; 3</text>
<polygon fill="#ffffff" stroke="transparent" points="363.5,-37.7 363.5,-56.7 425.5,-56.7 425.5,-37.7 363.5,-37.7"/>
<polygon fill="none" stroke="#000000" points="363.5,-37.7 363.5,-56.7 425.5,-56.7 425.5,-37.7 363.5,-37.7"/>
<text text-anchor="start" x="390.1105" y="-43.8" font-family="Helvetica,sans-Serif" font-size="11.00" fill="#000000">0 rows</text>
<polygon fill="#ffffff" stroke="transparent" points="425.5,-37.7 425.5,-56.7 462.5,-56.7 462.5,-37.7 425.5,-37.7"/>
<polygon fill="none" stroke="#000000" points="425.5,-37.7 425.5,-56.7 462.5,-56.7 462.5,-37.7 425.5,-37.7"/>
<text text-anchor="start" x="453.3862" y="-43.8" font-family="Helvetica,sans-Serif" font-size="11.00" fill="#000000"> &#160;</text>
</a>
</g>
</g>
<!-- cd_orphan_concept&#45;&gt;cd_concept -->
<g id="edge3" class="edge">
<title>cd_orphan_concept:w&#45;&gt;cd_concept:e</title>
<path fill="none" stroke="#000000" d="M280.0981,-111.2169C235.8483,-128.9753 274.4822,-234.7 213.5,-234.7"/>
<polygon fill="#000000" stroke="#000000" points="286.6194,-110.0773 295.1198,-112.2463 290.5597,-109.3886 294.5,-108.7 294.5,-108.7 294.5,-108.7 290.5597,-109.3886 293.8802,-105.1537 286.6194,-110.0773 286.6194,-110.0773"/>
<ellipse fill="none" stroke="#000000" cx="283.4672" cy="-110.6282" rx="3.2" ry="3.2"/>
</g>
</g>
</svg>
