<?xml version="1.0" encoding="UTF-8" standalone="no"?>
<!DOCTYPE svg PUBLIC "-//W3C//DTD SVG 1.1//EN"
 "http://www.w3.org/Graphics/SVG/1.1/DTD/svg11.dtd">
<!-- Generated by graphviz version 2.40.1 (20161225.0304)
 -->
<!-- Title: oneDegreeRelationshipsDiagram Pages: 1 -->
<svg width="246pt" height="272pt"
 viewBox="0.00 0.00 246.00 272.20" xmlns="http://www.w3.org/2000/svg" xmlns:xlink="http://www.w3.org/1999/xlink">
<g id="graph0" class="graph" transform="scale(1 1) rotate(0) translate(4 268.2)">
<title>oneDegreeRelationshipsDiagram</title>
<polygon fill="#ffffff" stroke="transparent" points="-4,4 -4,-268.2 242,-268.2 242,4 -4,4"/>
<text text-anchor="middle" x="72.4936" y="-7.3" font-family="Helvetica,sans-Serif" font-size="11.00" fill="#000000">Generated by SchemaSpy</text>
<!-- cd_cohort -->
<g id="node1" class="node">
<title>cd_cohort</title>
<g id="a_node1"><a xlink:href="../../tables/cd_cohort.html" xlink:title="cd_cohort" target="_top">
<polygon fill="#ffffff" stroke="transparent" points="8,-38.2 8,-260.2 230,-260.2 230,-38.2 8,-38.2"/>
<polygon fill="#f5f5f5" stroke="transparent" points="10,-235.2 10,-258.2 228,-258.2 228,-235.2 10,-235.2"/>
<polygon fill="none" stroke="#000000" points="10,-235.2 10,-258.2 228,-258.2 228,-235.2 10,-235.2"/>
<text text-anchor="start" x="15" y="-243.8" font-family="Helvetica,sans-Serif" font-weight="bold" font-size="11.00" fill="#000000">cd_cohort</text>
<text text-anchor="start" x="193.0437" y="-243.3" font-family="Helvetica,sans-Serif" font-size="11.00" fill="#000000">[table]</text>
<polygon fill="none" stroke="#000000" points="10,-213.2 10,-235.2 166,-235.2 166,-213.2 10,-213.2"/>
<text text-anchor="start" x="30" y="-220.3" font-family="Helvetica,sans-Serif" font-size="11.00" fill="#000000">cohort_id</text>
<polygon fill="none" stroke="#000000" points="166,-213.2 166,-235.2 228,-235.2 228,-213.2 166,-213.2"/>
<text text-anchor="start" x="168.878" y="-220.9" font-family="Helvetica,sans-Serif" font-size="11.00" fill="#000000">unknown[0]</text>
<polygon fill="none" stroke="#000000" points="10,-191.2 10,-213.2 166,-213.2 166,-191.2 10,-191.2"/>
<text text-anchor="start" x="30" y="-198.3" font-family="Helvetica,sans-Serif" font-size="11.00" fill="#000000">cohort_name</text>
<polygon fill="none" stroke="#000000" points="166,-191.2 166,-213.2 228,-213.2 228,-191.2 166,-191.2"/>
<text text-anchor="start" x="168.878" y="-198.9" font-family="Helvetica,sans-Serif" font-size="11.00" fill="#000000">unknown[0]</text>
<polygon fill="none" stroke="#000000" points="10,-169.2 10,-191.2 166,-191.2 166,-169.2 10,-169.2"/>
<text text-anchor="start" x="30" y="-176.3" font-family="Helvetica,sans-Serif" font-size="11.00" fill="#000000">is_subset</text>
<polygon fill="none" stroke="#000000" points="166,-169.2 166,-191.2 228,-191.2 228,-169.2 166,-169.2"/>
<text text-anchor="start" x="168.878" y="-176.9" font-family="Helvetica,sans-Serif" font-size="11.00" fill="#000000">unknown[0]</text>
<polygon fill="none" stroke="#000000" points="10,-147.2 10,-169.2 166,-169.2 166,-147.2 10,-147.2"/>
<text text-anchor="start" x="30" y="-154.3" font-family="Helvetica,sans-Serif" font-size="11.00" fill="#000000">json</text>
<polygon fill="none" stroke="#000000" points="166,-147.2 166,-169.2 228,-169.2 228,-147.2 166,-147.2"/>
<text text-anchor="start" x="168.878" y="-154.9" font-family="Helvetica,sans-Serif" font-size="11.00" fill="#000000">unknown[0]</text>
<polygon fill="none" stroke="#000000" points="10,-125.2 10,-147.2 166,-147.2 166,-125.2 10,-125.2"/>
<text text-anchor="start" x="30" y="-132.3" font-family="Helvetica,sans-Serif" font-size="11.00" fill="#000000">metadata</text>
<polygon fill="none" stroke="#000000" points="166,-125.2 166,-147.2 228,-147.2 228,-125.2 166,-125.2"/>
<text text-anchor="start" x="168.878" y="-132.9" font-family="Helvetica,sans-Serif" font-size="11.00" fill="#000000">unknown[0]</text>
<polygon fill="none" stroke="#000000" points="10,-103.2 10,-125.2 166,-125.2 166,-103.2 10,-103.2"/>
<text text-anchor="start" x="30" y="-110.3" font-family="Helvetica,sans-Serif" font-size="11.00" fill="#000000">sql</text>
<polygon fill="none" stroke="#000000" points="166,-103.2 166,-125.2 228,-125.2 228,-103.2 166,-103.2"/>
<text text-anchor="start" x="168.878" y="-110.9" font-family="Helvetica,sans-Serif" font-size="11.00" fill="#000000">unknown[0]</text>
<polygon fill="none" stroke="#000000" points="10,-81.2 10,-103.2 166,-103.2 166,-81.2 10,-81.2"/>
<text text-anchor="start" x="30" y="-88.3" font-family="Helvetica,sans-Serif" font-size="11.00" fill="#000000">subset_definition_id</text>
<polygon fill="none" stroke="#000000" points="166,-81.2 166,-103.2 228,-103.2 228,-81.2 166,-81.2"/>
<text text-anchor="start" x="168.878" y="-88.9" font-family="Helvetica,sans-Serif" font-size="11.00" fill="#000000">unknown[0]</text>
<polygon fill="none" stroke="#000000" points="10,-59.2 10,-81.2 166,-81.2 166,-59.2 10,-59.2"/>
<text text-anchor="start" x="30" y="-66.3" font-family="Helvetica,sans-Serif" font-size="11.00" fill="#000000">subset_parent</text>
<polygon fill="none" stroke="#000000" points="166,-59.2 166,-81.2 228,-81.2 228,-59.2 166,-59.2"/>
<text text-anchor="start" x="168.878" y="-66.9" font-family="Helvetica,sans-Serif" font-size="11.00" fill="#000000">unknown[0]</text>
<polygon fill="#ffffff" stroke="transparent" points="10,-40.2 10,-59.2 79,-59.2 79,-40.2 10,-40.2"/>
<polygon fill="none" stroke="#000000" points="10,-40.2 10,-59.2 79,-59.2 79,-40.2 10,-40.2"/>
<text text-anchor="start" x="13" y="-46.3" font-family="Helvetica,sans-Serif" font-size="11.00" fill="#000000">&lt; 0</text>
<polygon fill="#ffffff" stroke="transparent" points="79,-40.2 79,-59.2 166,-59.2 166,-40.2 79,-40.2"/>
<polygon fill="none" stroke="#000000" points="79,-40.2 79,-59.2 166,-59.2 166,-40.2 79,-40.2"/>
<text text-anchor="start" x="130.6105" y="-46.3" font-family="Helvetica,sans-Serif" font-size="11.00" fill="#000000">0 rows</text>
<polygon fill="#ffffff" stroke="transparent" points="166,-40.2 166,-59.2 228,-59.2 228,-40.2 166,-40.2"/>
<polygon fill="none" stroke="#000000" points="166,-40.2 166,-59.2 228,-59.2 228,-40.2 166,-40.2"/>
<text text-anchor="start" x="209.4053" y="-46.3" font-family="Helvetica,sans-Serif" font-size="11.00" fill="#000000">0 &gt;</text>
<polygon fill="none" stroke="#000000" stroke-width="2" points="9,-39.2 9,-259.2 229,-259.2 229,-39.2 9,-39.2"/>
</a>
</g>
</g>
</g>
</svg>
