<?xml version="1.0" encoding="UTF-8" standalone="no"?>
<!DOCTYPE svg PUBLIC "-//W3C//DTD SVG 1.1//EN"
 "http://www.w3.org/Graphics/SVG/1.1/DTD/svg11.dtd">
<!-- Generated by graphviz version 2.40.1 (20161225.0304)
 -->
<!-- Title: oneDegreeRelationshipsDiagram Pages: 1 -->
<svg width="275pt" height="228pt"
 viewBox="0.00 0.00 275.00 228.20" xmlns="http://www.w3.org/2000/svg" xmlns:xlink="http://www.w3.org/1999/xlink">
<g id="graph0" class="graph" transform="scale(1 1) rotate(0) translate(4 224.2)">
<title>oneDegreeRelationshipsDiagram</title>
<polygon fill="#ffffff" stroke="transparent" points="-4,4 -4,-224.2 271,-224.2 271,4 -4,4"/>
<text text-anchor="middle" x="72.4936" y="-7.3" font-family="Helvetica,sans-Serif" font-size="11.00" fill="#000000">Generated by SchemaSpy</text>
<!-- cd_database -->
<g id="node1" class="node">
<title>cd_database</title>
<g id="a_node1"><a xlink:href="../../tables/cd_database.html" xlink:title="cd_database" target="_top">
<polygon fill="#ffffff" stroke="transparent" points="8,-38.2 8,-216.2 259,-216.2 259,-38.2 8,-38.2"/>
<polygon fill="#f5f5f5" stroke="transparent" points="10.5,-191.2 10.5,-214.2 257.5,-214.2 257.5,-191.2 10.5,-191.2"/>
<polygon fill="none" stroke="#000000" points="10.5,-191.2 10.5,-214.2 257.5,-214.2 257.5,-191.2 10.5,-191.2"/>
<text text-anchor="start" x="15.5" y="-199.8" font-family="Helvetica,sans-Serif" font-weight="bold" font-size="11.00" fill="#000000">cd_database</text>
<text text-anchor="start" x="222.5437" y="-199.3" font-family="Helvetica,sans-Serif" font-size="11.00" fill="#000000">[table]</text>
<polygon fill="none" stroke="#000000" points="10.5,-169.2 10.5,-191.2 195.5,-191.2 195.5,-169.2 10.5,-169.2"/>
<text text-anchor="start" x="30.5" y="-176.3" font-family="Helvetica,sans-Serif" font-size="11.00" fill="#000000">database_id</text>
<polygon fill="none" stroke="#000000" points="195.5,-169.2 195.5,-191.2 257.5,-191.2 257.5,-169.2 195.5,-169.2"/>
<text text-anchor="start" x="198.378" y="-176.9" font-family="Helvetica,sans-Serif" font-size="11.00" fill="#000000">unknown[0]</text>
<polygon fill="none" stroke="#000000" points="10.5,-147.2 10.5,-169.2 195.5,-169.2 195.5,-147.2 10.5,-147.2"/>
<text text-anchor="start" x="30.5" y="-154.3" font-family="Helvetica,sans-Serif" font-size="11.00" fill="#000000">database_name</text>
<polygon fill="none" stroke="#000000" points="195.5,-147.2 195.5,-169.2 257.5,-169.2 257.5,-147.2 195.5,-147.2"/>
<text text-anchor="start" x="198.378" y="-154.9" font-family="Helvetica,sans-Serif" font-size="11.00" fill="#000000">unknown[0]</text>
<polygon fill="none" stroke="#000000" points="10.5,-125.2 10.5,-147.2 195.5,-147.2 195.5,-125.2 10.5,-125.2"/>
<text text-anchor="start" x="30.5" y="-132.3" font-family="Helvetica,sans-Serif" font-size="11.00" fill="#000000">description</text>
<polygon fill="none" stroke="#000000" points="195.5,-125.2 195.5,-147.2 257.5,-147.2 257.5,-125.2 195.5,-125.2"/>
<text text-anchor="start" x="198.378" y="-132.9" font-family="Helvetica,sans-Serif" font-size="11.00" fill="#000000">unknown[0]</text>
<polygon fill="none" stroke="#000000" points="10.5,-103.2 10.5,-125.2 195.5,-125.2 195.5,-103.2 10.5,-103.2"/>
<text text-anchor="start" x="30.5" y="-110.3" font-family="Helvetica,sans-Serif" font-size="11.00" fill="#000000">is_meta_analysis</text>
<polygon fill="none" stroke="#000000" points="195.5,-103.2 195.5,-125.2 257.5,-125.2 257.5,-103.2 195.5,-103.2"/>
<text text-anchor="start" x="198.378" y="-110.9" font-family="Helvetica,sans-Serif" font-size="11.00" fill="#000000">unknown[0]</text>
<polygon fill="none" stroke="#000000" points="10.5,-81.2 10.5,-103.2 195.5,-103.2 195.5,-81.2 10.5,-81.2"/>
<text text-anchor="start" x="30.5" y="-88.3" font-family="Helvetica,sans-Serif" font-size="11.00" fill="#000000">vocabulary_version</text>
<polygon fill="none" stroke="#000000" points="195.5,-81.2 195.5,-103.2 257.5,-103.2 257.5,-81.2 195.5,-81.2"/>
<text text-anchor="start" x="198.378" y="-88.9" font-family="Helvetica,sans-Serif" font-size="11.00" fill="#000000">unknown[0]</text>
<polygon fill="none" stroke="#000000" points="10.5,-59.2 10.5,-81.2 195.5,-81.2 195.5,-59.2 10.5,-59.2"/>
<text text-anchor="start" x="30.5" y="-66.3" font-family="Helvetica,sans-Serif" font-size="11.00" fill="#000000">vocabulary_version_cdm</text>
<polygon fill="none" stroke="#000000" points="195.5,-59.2 195.5,-81.2 257.5,-81.2 257.5,-59.2 195.5,-59.2"/>
<text text-anchor="start" x="198.378" y="-66.9" font-family="Helvetica,sans-Serif" font-size="11.00" fill="#000000">unknown[0]</text>
<polygon fill="#ffffff" stroke="transparent" points="10.5,-40.2 10.5,-59.2 94.5,-59.2 94.5,-40.2 10.5,-40.2"/>
<polygon fill="none" stroke="#000000" points="10.5,-40.2 10.5,-59.2 94.5,-59.2 94.5,-40.2 10.5,-40.2"/>
<text text-anchor="start" x="13.5" y="-46.3" font-family="Helvetica,sans-Serif" font-size="11.00" fill="#000000">&lt; 0</text>
<polygon fill="#ffffff" stroke="transparent" points="94.5,-40.2 94.5,-59.2 195.5,-59.2 195.5,-40.2 94.5,-40.2"/>
<polygon fill="none" stroke="#000000" points="94.5,-40.2 94.5,-59.2 195.5,-59.2 195.5,-40.2 94.5,-40.2"/>
<text text-anchor="start" x="160.1105" y="-46.3" font-family="Helvetica,sans-Serif" font-size="11.00" fill="#000000">0 rows</text>
<polygon fill="#ffffff" stroke="transparent" points="195.5,-40.2 195.5,-59.2 257.5,-59.2 257.5,-40.2 195.5,-40.2"/>
<polygon fill="none" stroke="#000000" points="195.5,-40.2 195.5,-59.2 257.5,-59.2 257.5,-40.2 195.5,-40.2"/>
<text text-anchor="start" x="238.9053" y="-46.3" font-family="Helvetica,sans-Serif" font-size="11.00" fill="#000000">0 &gt;</text>
<polygon fill="none" stroke="#000000" stroke-width="2" points="9,-39.2 9,-215.2 258,-215.2 258,-39.2 9,-39.2"/>
</a>
</g>
</g>
</g>
</svg>
