<?xml version="1.0" encoding="UTF-8" standalone="no"?>
<!DOCTYPE svg PUBLIC "-//W3C//DTD SVG 1.1//EN"
 "http://www.w3.org/Graphics/SVG/1.1/DTD/svg11.dtd">
<!-- Generated by graphviz version 2.40.1 (20161225.0304)
 -->
<!-- Title: oneDegreeRelationshipsDiagram Pages: 1 -->
<svg width="428pt" height="272pt"
 viewBox="0.00 0.00 428.00 272.20" xmlns="http://www.w3.org/2000/svg" xmlns:xlink="http://www.w3.org/1999/xlink">
<g id="graph0" class="graph" transform="scale(1 1) rotate(0) translate(4 268.2)">
<title>oneDegreeRelationshipsDiagram</title>
<polygon fill="#ffffff" stroke="transparent" points="-4,4 -4,-268.2 424,-268.2 424,4 -4,4"/>
<text text-anchor="middle" x="72.4936" y="-7.3" font-family="Helvetica,sans-Serif" font-size="11.00" fill="#000000">Generated by SchemaSpy</text>
<!-- cd_incidence_rate -->
<g id="node1" class="node">
<title>cd_incidence_rate</title>
<g id="a_node1"><a xlink:href="../../tables/cd_incidence_rate.html" xlink:title="cd_incidence_rate" target="_top">
<polygon fill="#ffffff" stroke="transparent" points="205,-38.2 205,-260.2 412,-260.2 412,-38.2 205,-38.2"/>
<polygon fill="#f5f5f5" stroke="transparent" points="207.5,-235.2 207.5,-258.2 410.5,-258.2 410.5,-235.2 207.5,-235.2"/>
<polygon fill="none" stroke="#000000" points="207.5,-235.2 207.5,-258.2 410.5,-258.2 410.5,-235.2 207.5,-235.2"/>
<text text-anchor="start" x="212.5" y="-243.8" font-family="Helvetica,sans-Serif" font-weight="bold" font-size="11.00" fill="#000000">cd_incidence_rate</text>
<text text-anchor="start" x="375.5437" y="-243.3" font-family="Helvetica,sans-Serif" font-size="11.00" fill="#000000">[table]</text>
<polygon fill="none" stroke="#000000" points="207.5,-213.2 207.5,-235.2 348.5,-235.2 348.5,-213.2 207.5,-213.2"/>
<text text-anchor="start" x="227.5" y="-220.3" font-family="Helvetica,sans-Serif" font-size="11.00" fill="#000000">age_group</text>
<polygon fill="none" stroke="#000000" points="348.5,-213.2 348.5,-235.2 410.5,-235.2 410.5,-213.2 348.5,-213.2"/>
<text text-anchor="start" x="351.378" y="-220.9" font-family="Helvetica,sans-Serif" font-size="11.00" fill="#000000">unknown[0]</text>
<polygon fill="none" stroke="#000000" points="207.5,-191.2 207.5,-213.2 348.5,-213.2 348.5,-191.2 207.5,-191.2"/>
<text text-anchor="start" x="227.5" y="-198.3" font-family="Helvetica,sans-Serif" font-size="11.00" fill="#000000">calendar_year</text>
<polygon fill="none" stroke="#000000" points="348.5,-191.2 348.5,-213.2 410.5,-213.2 410.5,-191.2 348.5,-191.2"/>
<text text-anchor="start" x="351.378" y="-198.9" font-family="Helvetica,sans-Serif" font-size="11.00" fill="#000000">unknown[0]</text>
<polygon fill="none" stroke="#000000" points="207.5,-169.2 207.5,-191.2 348.5,-191.2 348.5,-169.2 207.5,-169.2"/>
<text text-anchor="start" x="227.5" y="-176.3" font-family="Helvetica,sans-Serif" font-size="11.00" fill="#000000">cohort_count</text>
<polygon fill="none" stroke="#000000" points="348.5,-169.2 348.5,-191.2 410.5,-191.2 410.5,-169.2 348.5,-169.2"/>
<text text-anchor="start" x="351.378" y="-176.9" font-family="Helvetica,sans-Serif" font-size="11.00" fill="#000000">unknown[0]</text>
<polygon fill="none" stroke="#000000" points="207.5,-147.2 207.5,-169.2 348.5,-169.2 348.5,-147.2 207.5,-147.2"/>
<image xlink:href="../../images/foreignKeys.png" width="11px" height="12px" preserveAspectRatio="xMinYMin meet" x="212.5" y="-164.2"/>
<text text-anchor="start" x="227.5" y="-154.3" font-family="Helvetica,sans-Serif" font-size="11.00" fill="#000000">cohort_id</text>
<polygon fill="none" stroke="#000000" points="348.5,-147.2 348.5,-169.2 410.5,-169.2 410.5,-147.2 348.5,-147.2"/>
<text text-anchor="start" x="351.378" y="-154.9" font-family="Helvetica,sans-Serif" font-size="11.00" fill="#000000">unknown[0]</text>
<polygon fill="none" stroke="#000000" points="207.5,-125.2 207.5,-147.2 348.5,-147.2 348.5,-125.2 207.5,-125.2"/>
<image xlink:href="../../images/foreignKeys.png" width="11px" height="12px" preserveAspectRatio="xMinYMin meet" x="212.5" y="-142.2"/>
<text text-anchor="start" x="227.5" y="-132.3" font-family="Helvetica,sans-Serif" font-size="11.00" fill="#000000">database_id</text>
<polygon fill="none" stroke="#000000" points="348.5,-125.2 348.5,-147.2 410.5,-147.2 410.5,-125.2 348.5,-125.2"/>
<text text-anchor="start" x="351.378" y="-132.9" font-family="Helvetica,sans-Serif" font-size="11.00" fill="#000000">unknown[0]</text>
<polygon fill="none" stroke="#000000" points="207.5,-103.2 207.5,-125.2 348.5,-125.2 348.5,-103.2 207.5,-103.2"/>
<text text-anchor="start" x="227.5" y="-110.3" font-family="Helvetica,sans-Serif" font-size="11.00" fill="#000000">gender</text>
<polygon fill="none" stroke="#000000" points="348.5,-103.2 348.5,-125.2 410.5,-125.2 410.5,-103.2 348.5,-103.2"/>
<text text-anchor="start" x="351.378" y="-110.9" font-family="Helvetica,sans-Serif" font-size="11.00" fill="#000000">unknown[0]</text>
<polygon fill="none" stroke="#000000" points="207.5,-81.2 207.5,-103.2 348.5,-103.2 348.5,-81.2 207.5,-81.2"/>
<text text-anchor="start" x="227.5" y="-88.3" font-family="Helvetica,sans-Serif" font-size="11.00" fill="#000000">incidence_rate</text>
<polygon fill="none" stroke="#000000" points="348.5,-81.2 348.5,-103.2 410.5,-103.2 410.5,-81.2 348.5,-81.2"/>
<text text-anchor="start" x="351.378" y="-88.9" font-family="Helvetica,sans-Serif" font-size="11.00" fill="#000000">unknown[0]</text>
<polygon fill="none" stroke="#000000" points="207.5,-59.2 207.5,-81.2 348.5,-81.2 348.5,-59.2 207.5,-59.2"/>
<text text-anchor="start" x="227.5" y="-66.3" font-family="Helvetica,sans-Serif" font-size="11.00" fill="#000000">person_years</text>
<polygon fill="none" stroke="#000000" points="348.5,-59.2 348.5,-81.2 410.5,-81.2 410.5,-59.2 348.5,-59.2"/>
<text text-anchor="start" x="351.378" y="-66.9" font-family="Helvetica,sans-Serif" font-size="11.00" fill="#000000">unknown[0]</text>
<polygon fill="#ffffff" stroke="transparent" points="207.5,-40.2 207.5,-59.2 269.5,-59.2 269.5,-40.2 207.5,-40.2"/>
<polygon fill="none" stroke="#000000" points="207.5,-40.2 207.5,-59.2 269.5,-59.2 269.5,-40.2 207.5,-40.2"/>
<text text-anchor="start" x="210.5" y="-46.3" font-family="Helvetica,sans-Serif" font-size="11.00" fill="#000000">&lt; 2</text>
<polygon fill="#ffffff" stroke="transparent" points="269.5,-40.2 269.5,-59.2 348.5,-59.2 348.5,-40.2 269.5,-40.2"/>
<polygon fill="none" stroke="#000000" points="269.5,-40.2 269.5,-59.2 348.5,-59.2 348.5,-40.2 269.5,-40.2"/>
<text text-anchor="start" x="313.1105" y="-46.3" font-family="Helvetica,sans-Serif" font-size="11.00" fill="#000000">0 rows</text>
<polygon fill="#ffffff" stroke="transparent" points="348.5,-40.2 348.5,-59.2 410.5,-59.2 410.5,-40.2 348.5,-40.2"/>
<polygon fill="none" stroke="#000000" points="348.5,-40.2 348.5,-59.2 410.5,-59.2 410.5,-40.2 348.5,-40.2"/>
<text text-anchor="start" x="391.9053" y="-46.3" font-family="Helvetica,sans-Serif" font-size="11.00" fill="#000000">0 &gt;</text>
<polygon fill="none" stroke="#000000" stroke-width="2" points="206,-39.2 206,-259.2 411,-259.2 411,-39.2 206,-39.2"/>
</a>
</g>
</g>
<!-- cd_cohort_count -->
<g id="node2" class="node">
<title>cd_cohort_count</title>
<g id="a_node2"><a xlink:href="../../tables/cd_cohort_count.html" xlink:title="cd_cohort_count" target="_top">
<polygon fill="#ffffff" stroke="transparent" points="8,-87.7 8,-192.7 156,-192.7 156,-87.7 8,-87.7"/>
<polygon fill="#f5f5f5" stroke="transparent" points="8,-169.2 8,-192.2 156,-192.2 156,-169.2 8,-169.2"/>
<polygon fill="none" stroke="#000000" points="8,-169.2 8,-192.2 156,-192.2 156,-169.2 8,-169.2"/>
<text text-anchor="start" x="13" y="-177.8" font-family="Helvetica,sans-Serif" font-weight="bold" font-size="11.00" fill="#000000">cd_cohort_count</text>
<text text-anchor="start" x="121.5219" y="-177.3" font-family="Helvetica,sans-Serif" font-size="11.00" fill="#000000">[table]</text>
<polygon fill="none" stroke="#000000" points="8,-147.2 8,-169.2 156,-169.2 156,-147.2 8,-147.2"/>
<image xlink:href="../../images/primaryKeys.png" width="11px" height="12px" preserveAspectRatio="xMinYMin meet" x="13" y="-164.2"/>
<text text-anchor="start" x="37" y="-154.3" font-family="Helvetica,sans-Serif" font-size="11.00" fill="#000000">cohort_id</text>
<polygon fill="none" stroke="#000000" points="8,-125.2 8,-147.2 156,-147.2 156,-125.2 8,-125.2"/>
<image xlink:href="../../images/primaryKeys.png" width="11px" height="12px" preserveAspectRatio="xMinYMin meet" x="13" y="-142.2"/>
<text text-anchor="start" x="37" y="-132.3" font-family="Helvetica,sans-Serif" font-size="11.00" fill="#000000">database_id</text>
<polygon fill="none" stroke="#000000" points="8,-106.2 8,-125.2 156,-125.2 156,-106.2 8,-106.2"/>
<text text-anchor="start" x="11" y="-112.3" font-family="Helvetica,sans-Serif" font-size="11.00" fill="#000000">...</text>
<polygon fill="#ffffff" stroke="transparent" points="8,-87.2 8,-106.2 63,-106.2 63,-87.2 8,-87.2"/>
<polygon fill="none" stroke="#000000" points="8,-87.2 8,-106.2 63,-106.2 63,-87.2 8,-87.2"/>
<text text-anchor="start" x="11" y="-93.3" font-family="Helvetica,sans-Serif" font-size="11.00" fill="#000000">&lt; 1</text>
<polygon fill="#ffffff" stroke="transparent" points="63,-87.2 63,-106.2 118,-106.2 118,-87.2 63,-87.2"/>
<polygon fill="none" stroke="#000000" points="63,-87.2 63,-106.2 118,-106.2 118,-87.2 63,-87.2"/>
<text text-anchor="start" x="82.6105" y="-93.3" font-family="Helvetica,sans-Serif" font-size="11.00" fill="#000000">0 rows</text>
<polygon fill="#ffffff" stroke="transparent" points="118,-87.2 118,-106.2 156,-106.2 156,-87.2 118,-87.2"/>
<polygon fill="none" stroke="#000000" points="118,-87.2 118,-106.2 156,-106.2 156,-87.2 118,-87.2"/>
<text text-anchor="start" x="137.4053" y="-93.3" font-family="Helvetica,sans-Serif" font-size="11.00" fill="#000000">2 &gt;</text>
</a>
</g>
</g>
<!-- cd_incidence_rate&#45;&gt;cd_cohort_count -->
<g id="edge1" class="edge">
<title>cd_incidence_rate:w&#45;&gt;cd_cohort_count:e</title>
<path fill="none" stroke="#000000" d="M193.0156,-158.2C180.6771,-158.2 173.1667,-158.2 156,-158.2"/>
<polygon fill="#000000" stroke="#000000" points="199.5,-158.2001 207.5,-161.8 203.5,-158.2 207.5,-158.2 207.5,-158.2 207.5,-158.2 203.5,-158.2 207.5,-154.6 199.5,-158.2001 199.5,-158.2001"/>
<ellipse fill="none" stroke="#000000" cx="196.3" cy="-158.2001" rx="3.2" ry="3.2"/>
</g>
<!-- cd_incidence_rate&#45;&gt;cd_cohort_count -->
<g id="edge2" class="edge">
<title>cd_incidence_rate:w&#45;&gt;cd_cohort_count:e</title>
<path fill="none" stroke="#000000" d="M193.0156,-136.2C180.6771,-136.2 173.1667,-136.2 156,-136.2"/>
<polygon fill="#000000" stroke="#000000" points="199.5,-136.2001 207.5,-139.8 203.5,-136.2 207.5,-136.2 207.5,-136.2 207.5,-136.2 203.5,-136.2 207.5,-132.6 199.5,-136.2001 199.5,-136.2001"/>
<ellipse fill="none" stroke="#000000" cx="196.3" cy="-136.2001" rx="3.2" ry="3.2"/>
</g>
</g>
</svg>
