<?xml version="1.0" encoding="UTF-8" standalone="no"?>
<!DOCTYPE svg PUBLIC "-//W3C//DTD SVG 1.1//EN"
 "http://www.w3.org/Graphics/SVG/1.1/DTD/svg11.dtd">
<!-- Generated by graphviz version 2.40.1 (20161225.0304)
 -->
<!-- Title: twoDegreesRelationshipsDiagram Pages: 1 -->
<svg width="485pt" height="415pt"
 viewBox="0.00 0.00 485.00 415.20" xmlns="http://www.w3.org/2000/svg" xmlns:xlink="http://www.w3.org/1999/xlink">
<g id="graph0" class="graph" transform="scale(1 1) rotate(0) translate(4 411.2)">
<title>twoDegreesRelationshipsDiagram</title>
<polygon fill="#ffffff" stroke="transparent" points="-4,4 -4,-411.2 481,-411.2 481,4 -4,4"/>
<text text-anchor="middle" x="72.4936" y="-7.3" font-family="Helvetica,sans-Serif" font-size="11.00" fill="#000000">Generated by SchemaSpy</text>
<!-- cd_included_source_concept -->
<g id="node1" class="node">
<title>cd_included_source_concept</title>
<g id="a_node1"><a xlink:href="../../tables/cd_included_source_concept.html" xlink:title="cd_included_source_concept" target="_top">
<polygon fill="#ffffff" stroke="transparent" points="219,-342.2 219,-403.2 448,-403.2 448,-342.2 219,-342.2"/>
<polygon fill="#f5f5f5" stroke="transparent" points="219.5,-379.7 219.5,-402.7 448.5,-402.7 448.5,-379.7 219.5,-379.7"/>
<polygon fill="none" stroke="#000000" points="219.5,-379.7 219.5,-402.7 448.5,-402.7 448.5,-379.7 219.5,-379.7"/>
<text text-anchor="start" x="224.5" y="-388.3" font-family="Helvetica,sans-Serif" font-weight="bold" font-size="11.00" fill="#000000">cd_included_source_concept</text>
<text text-anchor="start" x="414.0219" y="-387.8" font-family="Helvetica,sans-Serif" font-size="11.00" fill="#000000">[table]</text>
<polygon fill="none" stroke="#000000" points="219.5,-360.7 219.5,-379.7 448.5,-379.7 448.5,-360.7 219.5,-360.7"/>
<text text-anchor="start" x="222.5" y="-366.8" font-family="Helvetica,sans-Serif" font-size="11.00" fill="#000000">...</text>
<polygon fill="#ffffff" stroke="transparent" points="219.5,-341.7 219.5,-360.7 319.5,-360.7 319.5,-341.7 219.5,-341.7"/>
<polygon fill="none" stroke="#000000" points="219.5,-341.7 219.5,-360.7 319.5,-360.7 319.5,-341.7 219.5,-341.7"/>
<text text-anchor="start" x="222.5" y="-347.8" font-family="Helvetica,sans-Serif" font-size="11.00" fill="#000000">&lt; 1</text>
<polygon fill="#ffffff" stroke="transparent" points="319.5,-341.7 319.5,-360.7 396.5,-360.7 396.5,-341.7 319.5,-341.7"/>
<polygon fill="none" stroke="#000000" points="319.5,-341.7 319.5,-360.7 396.5,-360.7 396.5,-341.7 319.5,-341.7"/>
<text text-anchor="start" x="361.1105" y="-347.8" font-family="Helvetica,sans-Serif" font-size="11.00" fill="#000000">0 rows</text>
<polygon fill="#ffffff" stroke="transparent" points="396.5,-341.7 396.5,-360.7 448.5,-360.7 448.5,-341.7 396.5,-341.7"/>
<polygon fill="none" stroke="#000000" points="396.5,-341.7 396.5,-360.7 448.5,-360.7 448.5,-341.7 396.5,-341.7"/>
<text text-anchor="start" x="439.3862" y="-347.8" font-family="Helvetica,sans-Serif" font-size="11.00" fill="#000000"> &#160;</text>
</a>
</g>
</g>
<!-- cd_concept -->
<g id="node2" class="node">
<title>cd_concept</title>
<g id="a_node2"><a xlink:href="../../tables/cd_concept.html" xlink:title="cd_concept" target="_top">
<polygon fill="#ffffff" stroke="transparent" points="8,-192.2 8,-275.2 149,-275.2 149,-192.2 8,-192.2"/>
<polygon fill="#f5f5f5" stroke="transparent" points="8.5,-251.7 8.5,-274.7 149.5,-274.7 149.5,-251.7 8.5,-251.7"/>
<polygon fill="none" stroke="#000000" points="8.5,-251.7 8.5,-274.7 149.5,-274.7 149.5,-251.7 8.5,-251.7"/>
<text text-anchor="start" x="13.5" y="-260.3" font-family="Helvetica,sans-Serif" font-weight="bold" font-size="11.00" fill="#000000">cd_concept</text>
<text text-anchor="start" x="114.5437" y="-259.8" font-family="Helvetica,sans-Serif" font-size="11.00" fill="#000000">[table]</text>
<polygon fill="none" stroke="#000000" points="8.5,-229.7 8.5,-251.7 149.5,-251.7 149.5,-229.7 8.5,-229.7"/>
<image xlink:href="../../images/primaryKeys.png" width="11px" height="12px" preserveAspectRatio="xMinYMin meet" x="13.5" y="-246.7"/>
<text text-anchor="start" x="28.5" y="-236.8" font-family="Helvetica,sans-Serif" font-size="11.00" fill="#000000">concept_id</text>
<polygon fill="none" stroke="#000000" points="8.5,-210.7 8.5,-229.7 149.5,-229.7 149.5,-210.7 8.5,-210.7"/>
<text text-anchor="start" x="11.5" y="-216.8" font-family="Helvetica,sans-Serif" font-size="11.00" fill="#000000">...</text>
<polygon fill="#ffffff" stroke="transparent" points="8.5,-191.7 8.5,-210.7 55.5,-210.7 55.5,-191.7 8.5,-191.7"/>
<polygon fill="none" stroke="#000000" points="8.5,-191.7 8.5,-210.7 55.5,-210.7 55.5,-191.7 8.5,-191.7"/>
<text text-anchor="start" x="11.5" y="-197.8" font-family="Helvetica,sans-Serif" font-size="11.00" fill="#000000"> &#160;</text>
<polygon fill="#ffffff" stroke="transparent" points="55.5,-191.7 55.5,-210.7 110.5,-210.7 110.5,-191.7 55.5,-191.7"/>
<polygon fill="none" stroke="#000000" points="55.5,-191.7 55.5,-210.7 110.5,-210.7 110.5,-191.7 55.5,-191.7"/>
<text text-anchor="start" x="75.1105" y="-197.8" font-family="Helvetica,sans-Serif" font-size="11.00" fill="#000000">0 rows</text>
<polygon fill="#ffffff" stroke="transparent" points="110.5,-191.7 110.5,-210.7 149.5,-210.7 149.5,-191.7 110.5,-191.7"/>
<polygon fill="none" stroke="#000000" points="110.5,-191.7 110.5,-210.7 149.5,-210.7 149.5,-191.7 110.5,-191.7"/>
<text text-anchor="start" x="130.9053" y="-197.8" font-family="Helvetica,sans-Serif" font-size="11.00" fill="#000000">3 &gt;</text>
</a>
</g>
</g>
<!-- cd_included_source_concept&#45;&gt;cd_concept -->
<g id="edge1" class="edge">
<title>cd_included_source_concept:w&#45;&gt;cd_concept:e</title>
<path fill="none" stroke="#000000" d="M205.308,-367.0057C163.733,-348.4808 209.1247,-240.7 149.5,-240.7"/>
<polygon fill="#000000" stroke="#000000" points="211.6404,-368.2078 218.8285,-373.2368 215.5702,-368.9539 219.5,-369.7 219.5,-369.7 219.5,-369.7 215.5702,-368.9539 220.1715,-366.1632 211.6404,-368.2078 211.6404,-368.2078"/>
<ellipse fill="none" stroke="#000000" cx="208.4965" cy="-367.6109" rx="3.2" ry="3.2"/>
</g>
<!-- cd_index_event_breakdown -->
<g id="node3" class="node">
<title>cd_index_event_breakdown</title>
<g id="a_node3"><a xlink:href="../../tables/cd_index_event_breakdown.html" xlink:title="cd_index_event_breakdown" target="_top">
<polygon fill="#ffffff" stroke="transparent" points="198,-120.7 198,-320.7 469,-320.7 469,-120.7 198,-120.7"/>
<polygon fill="#f5f5f5" stroke="transparent" points="200.5,-295.7 200.5,-318.7 467.5,-318.7 467.5,-295.7 200.5,-295.7"/>
<polygon fill="none" stroke="#000000" points="200.5,-295.7 200.5,-318.7 467.5,-318.7 467.5,-295.7 200.5,-295.7"/>
<text text-anchor="start" x="205.5" y="-304.3" font-family="Helvetica,sans-Serif" font-weight="bold" font-size="11.00" fill="#000000">cd_index_event_breakdown</text>
<text text-anchor="start" x="432.5437" y="-303.8" font-family="Helvetica,sans-Serif" font-size="11.00" fill="#000000">[table]</text>
<polygon fill="none" stroke="#000000" points="200.5,-273.7 200.5,-295.7 405.5,-295.7 405.5,-273.7 200.5,-273.7"/>
<text text-anchor="start" x="220.5" y="-280.8" font-family="Helvetica,sans-Serif" font-size="11.00" fill="#000000">cohort_id</text>
<polygon fill="none" stroke="#000000" points="405.5,-273.7 405.5,-295.7 467.5,-295.7 467.5,-273.7 405.5,-273.7"/>
<text text-anchor="start" x="408.378" y="-281.4" font-family="Helvetica,sans-Serif" font-size="11.00" fill="#000000">unknown[0]</text>
<polygon fill="none" stroke="#000000" points="200.5,-251.7 200.5,-273.7 405.5,-273.7 405.5,-251.7 200.5,-251.7"/>
<text text-anchor="start" x="220.5" y="-258.8" font-family="Helvetica,sans-Serif" font-size="11.00" fill="#000000">concept_count</text>
<polygon fill="none" stroke="#000000" points="405.5,-251.7 405.5,-273.7 467.5,-273.7 467.5,-251.7 405.5,-251.7"/>
<text text-anchor="start" x="408.378" y="-259.4" font-family="Helvetica,sans-Serif" font-size="11.00" fill="#000000">unknown[0]</text>
<polygon fill="none" stroke="#000000" points="200.5,-229.7 200.5,-251.7 405.5,-251.7 405.5,-229.7 200.5,-229.7"/>
<image xlink:href="../../images/foreignKeys.png" width="11px" height="12px" preserveAspectRatio="xMinYMin meet" x="205.5" y="-246.7"/>
<text text-anchor="start" x="220.5" y="-236.8" font-family="Helvetica,sans-Serif" font-size="11.00" fill="#000000">concept_id</text>
<polygon fill="none" stroke="#000000" points="405.5,-229.7 405.5,-251.7 467.5,-251.7 467.5,-229.7 405.5,-229.7"/>
<text text-anchor="start" x="408.378" y="-237.4" font-family="Helvetica,sans-Serif" font-size="11.00" fill="#000000">unknown[0]</text>
<polygon fill="none" stroke="#000000" points="200.5,-207.7 200.5,-229.7 405.5,-229.7 405.5,-207.7 200.5,-207.7"/>
<text text-anchor="start" x="220.5" y="-214.8" font-family="Helvetica,sans-Serif" font-size="11.00" fill="#000000">database_id</text>
<polygon fill="none" stroke="#000000" points="405.5,-207.7 405.5,-229.7 467.5,-229.7 467.5,-207.7 405.5,-207.7"/>
<text text-anchor="start" x="408.378" y="-215.4" font-family="Helvetica,sans-Serif" font-size="11.00" fill="#000000">unknown[0]</text>
<polygon fill="none" stroke="#000000" points="200.5,-185.7 200.5,-207.7 405.5,-207.7 405.5,-185.7 200.5,-185.7"/>
<text text-anchor="start" x="220.5" y="-192.8" font-family="Helvetica,sans-Serif" font-size="11.00" fill="#000000">domain_field</text>
<polygon fill="none" stroke="#000000" points="405.5,-185.7 405.5,-207.7 467.5,-207.7 467.5,-185.7 405.5,-185.7"/>
<text text-anchor="start" x="408.378" y="-193.4" font-family="Helvetica,sans-Serif" font-size="11.00" fill="#000000">unknown[0]</text>
<polygon fill="none" stroke="#000000" points="200.5,-163.7 200.5,-185.7 405.5,-185.7 405.5,-163.7 200.5,-163.7"/>
<text text-anchor="start" x="220.5" y="-170.8" font-family="Helvetica,sans-Serif" font-size="11.00" fill="#000000">domain_table</text>
<polygon fill="none" stroke="#000000" points="405.5,-163.7 405.5,-185.7 467.5,-185.7 467.5,-163.7 405.5,-163.7"/>
<text text-anchor="start" x="408.378" y="-171.4" font-family="Helvetica,sans-Serif" font-size="11.00" fill="#000000">unknown[0]</text>
<polygon fill="none" stroke="#000000" points="200.5,-141.7 200.5,-163.7 405.5,-163.7 405.5,-141.7 200.5,-141.7"/>
<text text-anchor="start" x="220.5" y="-148.8" font-family="Helvetica,sans-Serif" font-size="11.00" fill="#000000">subject_count</text>
<polygon fill="none" stroke="#000000" points="405.5,-141.7 405.5,-163.7 467.5,-163.7 467.5,-141.7 405.5,-141.7"/>
<text text-anchor="start" x="408.378" y="-149.4" font-family="Helvetica,sans-Serif" font-size="11.00" fill="#000000">unknown[0]</text>
<polygon fill="#ffffff" stroke="transparent" points="200.5,-122.7 200.5,-141.7 294.5,-141.7 294.5,-122.7 200.5,-122.7"/>
<polygon fill="none" stroke="#000000" points="200.5,-122.7 200.5,-141.7 294.5,-141.7 294.5,-122.7 200.5,-122.7"/>
<text text-anchor="start" x="203.5" y="-128.8" font-family="Helvetica,sans-Serif" font-size="11.00" fill="#000000">&lt; 1</text>
<polygon fill="#ffffff" stroke="transparent" points="294.5,-122.7 294.5,-141.7 405.5,-141.7 405.5,-122.7 294.5,-122.7"/>
<polygon fill="none" stroke="#000000" points="294.5,-122.7 294.5,-141.7 405.5,-141.7 405.5,-122.7 294.5,-122.7"/>
<text text-anchor="start" x="370.1105" y="-128.8" font-family="Helvetica,sans-Serif" font-size="11.00" fill="#000000">0 rows</text>
<polygon fill="#ffffff" stroke="transparent" points="405.5,-122.7 405.5,-141.7 467.5,-141.7 467.5,-122.7 405.5,-122.7"/>
<polygon fill="none" stroke="#000000" points="405.5,-122.7 405.5,-141.7 467.5,-141.7 467.5,-122.7 405.5,-122.7"/>
<text text-anchor="start" x="448.9053" y="-128.8" font-family="Helvetica,sans-Serif" font-size="11.00" fill="#000000">0 &gt;</text>
<polygon fill="none" stroke="#000000" stroke-width="2" points="199,-121.7 199,-319.7 468,-319.7 468,-121.7 199,-121.7"/>
</a>
</g>
</g>
<!-- cd_index_event_breakdown&#45;&gt;cd_concept -->
<g id="edge2" class="edge">
<title>cd_index_event_breakdown:w&#45;&gt;cd_concept:e</title>
<path fill="none" stroke="#000000" d="M185.776,-240.7C173.7815,-240.7 166.3229,-240.7 149.5,-240.7"/>
<polygon fill="#000000" stroke="#000000" points="192.5,-240.7001 200.5,-244.3 196.5,-240.7 200.5,-240.7 200.5,-240.7 200.5,-240.7 196.5,-240.7 200.5,-237.1 192.5,-240.7001 192.5,-240.7001"/>
<ellipse fill="none" stroke="#000000" cx="189.3" cy="-240.7001" rx="3.2" ry="3.2"/>
</g>
<!-- cd_orphan_concept -->
<g id="node4" class="node">
<title>cd_orphan_concept</title>
<g id="a_node4"><a xlink:href="../../tables/cd_orphan_concept.html" xlink:title="cd_orphan_concept" target="_top">
<polygon fill="#ffffff" stroke="transparent" points="249.5,-38.2 249.5,-99.2 417.5,-99.2 417.5,-38.2 249.5,-38.2"/>
<polygon fill="#f5f5f5" stroke="transparent" points="249.5,-75.7 249.5,-98.7 417.5,-98.7 417.5,-75.7 249.5,-75.7"/>
<polygon fill="none" stroke="#000000" points="249.5,-75.7 249.5,-98.7 417.5,-98.7 417.5,-75.7 249.5,-75.7"/>
<text text-anchor="start" x="254.5" y="-84.3" font-family="Helvetica,sans-Serif" font-weight="bold" font-size="11.00" fill="#000000">cd_orphan_concept</text>
<text text-anchor="start" x="383.0219" y="-83.8" font-family="Helvetica,sans-Serif" font-size="11.00" fill="#000000">[table]</text>
<polygon fill="none" stroke="#000000" points="249.5,-56.7 249.5,-75.7 417.5,-75.7 417.5,-56.7 249.5,-56.7"/>
<text text-anchor="start" x="252.5" y="-62.8" font-family="Helvetica,sans-Serif" font-size="11.00" fill="#000000">...</text>
<polygon fill="#ffffff" stroke="transparent" points="249.5,-37.7 249.5,-56.7 318.5,-56.7 318.5,-37.7 249.5,-37.7"/>
<polygon fill="none" stroke="#000000" points="249.5,-37.7 249.5,-56.7 318.5,-56.7 318.5,-37.7 249.5,-37.7"/>
<text text-anchor="start" x="252.5" y="-43.8" font-family="Helvetica,sans-Serif" font-size="11.00" fill="#000000">&lt; 3</text>
<polygon fill="#ffffff" stroke="transparent" points="318.5,-37.7 318.5,-56.7 380.5,-56.7 380.5,-37.7 318.5,-37.7"/>
<polygon fill="none" stroke="#000000" points="318.5,-37.7 318.5,-56.7 380.5,-56.7 380.5,-37.7 318.5,-37.7"/>
<text text-anchor="start" x="345.1105" y="-43.8" font-family="Helvetica,sans-Serif" font-size="11.00" fill="#000000">0 rows</text>
<polygon fill="#ffffff" stroke="transparent" points="380.5,-37.7 380.5,-56.7 417.5,-56.7 417.5,-37.7 380.5,-37.7"/>
<polygon fill="none" stroke="#000000" points="380.5,-37.7 380.5,-56.7 417.5,-56.7 417.5,-37.7 380.5,-37.7"/>
<text text-anchor="start" x="408.3862" y="-43.8" font-family="Helvetica,sans-Serif" font-size="11.00" fill="#000000"> &#160;</text>
</a>
</g>
</g>
<!-- cd_orphan_concept&#45;&gt;cd_concept -->
<g id="edge3" class="edge">
<title>cd_orphan_concept:w&#45;&gt;cd_concept:e</title>
<path fill="none" stroke="#000000" d="M235.1044,-67.1053C213.6386,-71.814 205.9377,-88.0245 190,-110.7 155.2011,-160.2107 210.0167,-240.7 149.5,-240.7"/>
<polygon fill="#000000" stroke="#000000" points="241.5378,-66.4773 249.8498,-69.283 245.5189,-66.0886 249.5,-65.7 249.5,-65.7 249.5,-65.7 245.5189,-66.0886 249.1502,-62.117 241.5378,-66.4773 241.5378,-66.4773"/>
<ellipse fill="none" stroke="#000000" cx="238.353" cy="-66.7882" rx="3.2" ry="3.2"/>
</g>
</g>
</svg>
