<?xml version="1.0" encoding="UTF-8" standalone="no"?>
<!DOCTYPE svg PUBLIC "-//W3C//DTD SVG 1.1//EN"
 "http://www.w3.org/Graphics/SVG/1.1/DTD/svg11.dtd">
<!-- Generated by graphviz version 2.40.1 (20161225.0304)
 -->
<!-- Title: oneDegreeRelationshipsDiagram Pages: 1 -->
<svg width="231pt" height="272pt"
 viewBox="0.00 0.00 231.00 272.20" xmlns="http://www.w3.org/2000/svg" xmlns:xlink="http://www.w3.org/1999/xlink">
<g id="graph0" class="graph" transform="scale(1 1) rotate(0) translate(4 268.2)">
<title>oneDegreeRelationshipsDiagram</title>
<polygon fill="#ffffff" stroke="transparent" points="-4,4 -4,-268.2 227,-268.2 227,4 -4,4"/>
<text text-anchor="middle" x="72.4936" y="-7.3" font-family="Helvetica,sans-Serif" font-size="11.00" fill="#000000">Generated by SchemaSpy</text>
<!-- cd_incidence_rate -->
<g id="node1" class="node">
<title>cd_incidence_rate</title>
<g id="a_node1"><a xlink:href="../../tables/cd_incidence_rate.html" xlink:title="cd_incidence_rate" target="_top">
<polygon fill="#ffffff" stroke="transparent" points="8,-38.2 8,-260.2 215,-260.2 215,-38.2 8,-38.2"/>
<polygon fill="#f5f5f5" stroke="transparent" points="10.5,-235.2 10.5,-258.2 213.5,-258.2 213.5,-235.2 10.5,-235.2"/>
<polygon fill="none" stroke="#000000" points="10.5,-235.2 10.5,-258.2 213.5,-258.2 213.5,-235.2 10.5,-235.2"/>
<text text-anchor="start" x="15.5" y="-243.8" font-family="Helvetica,sans-Serif" font-weight="bold" font-size="11.00" fill="#000000">cd_incidence_rate</text>
<text text-anchor="start" x="178.5437" y="-243.3" font-family="Helvetica,sans-Serif" font-size="11.00" fill="#000000">[table]</text>
<polygon fill="none" stroke="#000000" points="10.5,-213.2 10.5,-235.2 151.5,-235.2 151.5,-213.2 10.5,-213.2"/>
<text text-anchor="start" x="30.5" y="-220.3" font-family="Helvetica,sans-Serif" font-size="11.00" fill="#000000">age_group</text>
<polygon fill="none" stroke="#000000" points="151.5,-213.2 151.5,-235.2 213.5,-235.2 213.5,-213.2 151.5,-213.2"/>
<text text-anchor="start" x="154.378" y="-220.9" font-family="Helvetica,sans-Serif" font-size="11.00" fill="#000000">unknown[0]</text>
<polygon fill="none" stroke="#000000" points="10.5,-191.2 10.5,-213.2 151.5,-213.2 151.5,-191.2 10.5,-191.2"/>
<text text-anchor="start" x="30.5" y="-198.3" font-family="Helvetica,sans-Serif" font-size="11.00" fill="#000000">calendar_year</text>
<polygon fill="none" stroke="#000000" points="151.5,-191.2 151.5,-213.2 213.5,-213.2 213.5,-191.2 151.5,-191.2"/>
<text text-anchor="start" x="154.378" y="-198.9" font-family="Helvetica,sans-Serif" font-size="11.00" fill="#000000">unknown[0]</text>
<polygon fill="none" stroke="#000000" points="10.5,-169.2 10.5,-191.2 151.5,-191.2 151.5,-169.2 10.5,-169.2"/>
<text text-anchor="start" x="30.5" y="-176.3" font-family="Helvetica,sans-Serif" font-size="11.00" fill="#000000">cohort_count</text>
<polygon fill="none" stroke="#000000" points="151.5,-169.2 151.5,-191.2 213.5,-191.2 213.5,-169.2 151.5,-169.2"/>
<text text-anchor="start" x="154.378" y="-176.9" font-family="Helvetica,sans-Serif" font-size="11.00" fill="#000000">unknown[0]</text>
<polygon fill="none" stroke="#000000" points="10.5,-147.2 10.5,-169.2 151.5,-169.2 151.5,-147.2 10.5,-147.2"/>
<text text-anchor="start" x="30.5" y="-154.3" font-family="Helvetica,sans-Serif" font-size="11.00" fill="#000000">cohort_id</text>
<polygon fill="none" stroke="#000000" points="151.5,-147.2 151.5,-169.2 213.5,-169.2 213.5,-147.2 151.5,-147.2"/>
<text text-anchor="start" x="154.378" y="-154.9" font-family="Helvetica,sans-Serif" font-size="11.00" fill="#000000">unknown[0]</text>
<polygon fill="none" stroke="#000000" points="10.5,-125.2 10.5,-147.2 151.5,-147.2 151.5,-125.2 10.5,-125.2"/>
<text text-anchor="start" x="30.5" y="-132.3" font-family="Helvetica,sans-Serif" font-size="11.00" fill="#000000">database_id</text>
<polygon fill="none" stroke="#000000" points="151.5,-125.2 151.5,-147.2 213.5,-147.2 213.5,-125.2 151.5,-125.2"/>
<text text-anchor="start" x="154.378" y="-132.9" font-family="Helvetica,sans-Serif" font-size="11.00" fill="#000000">unknown[0]</text>
<polygon fill="none" stroke="#000000" points="10.5,-103.2 10.5,-125.2 151.5,-125.2 151.5,-103.2 10.5,-103.2"/>
<text text-anchor="start" x="30.5" y="-110.3" font-family="Helvetica,sans-Serif" font-size="11.00" fill="#000000">gender</text>
<polygon fill="none" stroke="#000000" points="151.5,-103.2 151.5,-125.2 213.5,-125.2 213.5,-103.2 151.5,-103.2"/>
<text text-anchor="start" x="154.378" y="-110.9" font-family="Helvetica,sans-Serif" font-size="11.00" fill="#000000">unknown[0]</text>
<polygon fill="none" stroke="#000000" points="10.5,-81.2 10.5,-103.2 151.5,-103.2 151.5,-81.2 10.5,-81.2"/>
<text text-anchor="start" x="30.5" y="-88.3" font-family="Helvetica,sans-Serif" font-size="11.00" fill="#000000">incidence_rate</text>
<polygon fill="none" stroke="#000000" points="151.5,-81.2 151.5,-103.2 213.5,-103.2 213.5,-81.2 151.5,-81.2"/>
<text text-anchor="start" x="154.378" y="-88.9" font-family="Helvetica,sans-Serif" font-size="11.00" fill="#000000">unknown[0]</text>
<polygon fill="none" stroke="#000000" points="10.5,-59.2 10.5,-81.2 151.5,-81.2 151.5,-59.2 10.5,-59.2"/>
<text text-anchor="start" x="30.5" y="-66.3" font-family="Helvetica,sans-Serif" font-size="11.00" fill="#000000">person_years</text>
<polygon fill="none" stroke="#000000" points="151.5,-59.2 151.5,-81.2 213.5,-81.2 213.5,-59.2 151.5,-59.2"/>
<text text-anchor="start" x="154.378" y="-66.9" font-family="Helvetica,sans-Serif" font-size="11.00" fill="#000000">unknown[0]</text>
<polygon fill="#ffffff" stroke="transparent" points="10.5,-40.2 10.5,-59.2 72.5,-59.2 72.5,-40.2 10.5,-40.2"/>
<polygon fill="none" stroke="#000000" points="10.5,-40.2 10.5,-59.2 72.5,-59.2 72.5,-40.2 10.5,-40.2"/>
<text text-anchor="start" x="13.5" y="-46.3" font-family="Helvetica,sans-Serif" font-size="11.00" fill="#000000">&lt; 0</text>
<polygon fill="#ffffff" stroke="transparent" points="72.5,-40.2 72.5,-59.2 151.5,-59.2 151.5,-40.2 72.5,-40.2"/>
<polygon fill="none" stroke="#000000" points="72.5,-40.2 72.5,-59.2 151.5,-59.2 151.5,-40.2 72.5,-40.2"/>
<text text-anchor="start" x="116.1105" y="-46.3" font-family="Helvetica,sans-Serif" font-size="11.00" fill="#000000">0 rows</text>
<polygon fill="#ffffff" stroke="transparent" points="151.5,-40.2 151.5,-59.2 213.5,-59.2 213.5,-40.2 151.5,-40.2"/>
<polygon fill="none" stroke="#000000" points="151.5,-40.2 151.5,-59.2 213.5,-59.2 213.5,-40.2 151.5,-40.2"/>
<text text-anchor="start" x="194.9053" y="-46.3" font-family="Helvetica,sans-Serif" font-size="11.00" fill="#000000">0 &gt;</text>
<polygon fill="none" stroke="#000000" stroke-width="2" points="9,-39.2 9,-259.2 214,-259.2 214,-39.2 9,-39.2"/>
</a>
</g>
</g>
</g>
</svg>
