<?xml version="1.0" encoding="UTF-8" standalone="no"?>
<!DOCTYPE svg PUBLIC "-//W3C//DTD SVG 1.1//EN"
 "http://www.w3.org/Graphics/SVG/1.1/DTD/svg11.dtd">
<!-- Generated by graphviz version 2.40.1 (20161225.0304)
 -->
<!-- Title: twoDegreesRelationshipsDiagram Pages: 1 -->
<svg width="491pt" height="415pt"
 viewBox="0.00 0.00 491.00 414.70" xmlns="http://www.w3.org/2000/svg" xmlns:xlink="http://www.w3.org/1999/xlink">
<g id="graph0" class="graph" transform="scale(1 1) rotate(0) translate(4 410.7)">
<title>twoDegreesRelationshipsDiagram</title>
<polygon fill="#ffffff" stroke="transparent" points="-4,4 -4,-410.7 487,-410.7 487,4 -4,4"/>
<text text-anchor="middle" x="72.4936" y="-7.3" font-family="Helvetica,sans-Serif" font-size="11.00" fill="#000000">Generated by SchemaSpy</text>
<!-- cd_included_source_concept -->
<g id="node1" class="node">
<title>cd_included_source_concept</title>
<g id="a_node1"><a xlink:href="../../tables/cd_included_source_concept.html" xlink:title="cd_included_source_concept" target="_top">
<polygon fill="#ffffff" stroke="transparent" points="198,-202.7 198,-402.7 475,-402.7 475,-202.7 198,-202.7"/>
<polygon fill="#f5f5f5" stroke="transparent" points="200.5,-377.7 200.5,-400.7 473.5,-400.7 473.5,-377.7 200.5,-377.7"/>
<polygon fill="none" stroke="#000000" points="200.5,-377.7 200.5,-400.7 473.5,-400.7 473.5,-377.7 200.5,-377.7"/>
<text text-anchor="start" x="205.5" y="-386.3" font-family="Helvetica,sans-Serif" font-weight="bold" font-size="11.00" fill="#000000">cd_included_source_concept</text>
<text text-anchor="start" x="438.5437" y="-385.8" font-family="Helvetica,sans-Serif" font-size="11.00" fill="#000000">[table]</text>
<polygon fill="none" stroke="#000000" points="200.5,-355.7 200.5,-377.7 411.5,-377.7 411.5,-355.7 200.5,-355.7"/>
<text text-anchor="start" x="220.5" y="-362.8" font-family="Helvetica,sans-Serif" font-size="11.00" fill="#000000">cohort_id</text>
<polygon fill="none" stroke="#000000" points="411.5,-355.7 411.5,-377.7 473.5,-377.7 473.5,-355.7 411.5,-355.7"/>
<text text-anchor="start" x="414.378" y="-363.4" font-family="Helvetica,sans-Serif" font-size="11.00" fill="#000000">unknown[0]</text>
<polygon fill="none" stroke="#000000" points="200.5,-333.7 200.5,-355.7 411.5,-355.7 411.5,-333.7 200.5,-333.7"/>
<text text-anchor="start" x="220.5" y="-340.8" font-family="Helvetica,sans-Serif" font-size="11.00" fill="#000000">concept_count</text>
<polygon fill="none" stroke="#000000" points="411.5,-333.7 411.5,-355.7 473.5,-355.7 473.5,-333.7 411.5,-333.7"/>
<text text-anchor="start" x="414.378" y="-341.4" font-family="Helvetica,sans-Serif" font-size="11.00" fill="#000000">unknown[0]</text>
<polygon fill="none" stroke="#000000" points="200.5,-311.7 200.5,-333.7 411.5,-333.7 411.5,-311.7 200.5,-311.7"/>
<image xlink:href="../../images/foreignKeys.png" width="11px" height="12px" preserveAspectRatio="xMinYMin meet" x="205.5" y="-328.7"/>
<text text-anchor="start" x="220.5" y="-318.8" font-family="Helvetica,sans-Serif" font-size="11.00" fill="#000000">concept_id</text>
<polygon fill="none" stroke="#000000" points="411.5,-311.7 411.5,-333.7 473.5,-333.7 473.5,-311.7 411.5,-311.7"/>
<text text-anchor="start" x="414.378" y="-319.4" font-family="Helvetica,sans-Serif" font-size="11.00" fill="#000000">unknown[0]</text>
<polygon fill="none" stroke="#000000" points="200.5,-289.7 200.5,-311.7 411.5,-311.7 411.5,-289.7 200.5,-289.7"/>
<text text-anchor="start" x="220.5" y="-296.8" font-family="Helvetica,sans-Serif" font-size="11.00" fill="#000000">concept_set_id</text>
<polygon fill="none" stroke="#000000" points="411.5,-289.7 411.5,-311.7 473.5,-311.7 473.5,-289.7 411.5,-289.7"/>
<text text-anchor="start" x="414.378" y="-297.4" font-family="Helvetica,sans-Serif" font-size="11.00" fill="#000000">unknown[0]</text>
<polygon fill="none" stroke="#000000" points="200.5,-267.7 200.5,-289.7 411.5,-289.7 411.5,-267.7 200.5,-267.7"/>
<text text-anchor="start" x="220.5" y="-274.8" font-family="Helvetica,sans-Serif" font-size="11.00" fill="#000000">concept_subjects</text>
<polygon fill="none" stroke="#000000" points="411.5,-267.7 411.5,-289.7 473.5,-289.7 473.5,-267.7 411.5,-267.7"/>
<text text-anchor="start" x="414.378" y="-275.4" font-family="Helvetica,sans-Serif" font-size="11.00" fill="#000000">unknown[0]</text>
<polygon fill="none" stroke="#000000" points="200.5,-245.7 200.5,-267.7 411.5,-267.7 411.5,-245.7 200.5,-245.7"/>
<text text-anchor="start" x="220.5" y="-252.8" font-family="Helvetica,sans-Serif" font-size="11.00" fill="#000000">database_id</text>
<polygon fill="none" stroke="#000000" points="411.5,-245.7 411.5,-267.7 473.5,-267.7 473.5,-245.7 411.5,-245.7"/>
<text text-anchor="start" x="414.378" y="-253.4" font-family="Helvetica,sans-Serif" font-size="11.00" fill="#000000">unknown[0]</text>
<polygon fill="none" stroke="#000000" points="200.5,-223.7 200.5,-245.7 411.5,-245.7 411.5,-223.7 200.5,-223.7"/>
<text text-anchor="start" x="220.5" y="-230.8" font-family="Helvetica,sans-Serif" font-size="11.00" fill="#000000">source_concept_id</text>
<polygon fill="none" stroke="#000000" points="411.5,-223.7 411.5,-245.7 473.5,-245.7 473.5,-223.7 411.5,-223.7"/>
<text text-anchor="start" x="414.378" y="-231.4" font-family="Helvetica,sans-Serif" font-size="11.00" fill="#000000">unknown[0]</text>
<polygon fill="#ffffff" stroke="transparent" points="200.5,-204.7 200.5,-223.7 297.5,-223.7 297.5,-204.7 200.5,-204.7"/>
<polygon fill="none" stroke="#000000" points="200.5,-204.7 200.5,-223.7 297.5,-223.7 297.5,-204.7 200.5,-204.7"/>
<text text-anchor="start" x="203.5" y="-210.8" font-family="Helvetica,sans-Serif" font-size="11.00" fill="#000000">&lt; 1</text>
<polygon fill="#ffffff" stroke="transparent" points="297.5,-204.7 297.5,-223.7 411.5,-223.7 411.5,-204.7 297.5,-204.7"/>
<polygon fill="none" stroke="#000000" points="297.5,-204.7 297.5,-223.7 411.5,-223.7 411.5,-204.7 297.5,-204.7"/>
<text text-anchor="start" x="376.1105" y="-210.8" font-family="Helvetica,sans-Serif" font-size="11.00" fill="#000000">0 rows</text>
<polygon fill="#ffffff" stroke="transparent" points="411.5,-204.7 411.5,-223.7 473.5,-223.7 473.5,-204.7 411.5,-204.7"/>
<polygon fill="none" stroke="#000000" points="411.5,-204.7 411.5,-223.7 473.5,-223.7 473.5,-204.7 411.5,-204.7"/>
<text text-anchor="start" x="454.9053" y="-210.8" font-family="Helvetica,sans-Serif" font-size="11.00" fill="#000000">0 &gt;</text>
<polygon fill="none" stroke="#000000" stroke-width="2" points="199,-203.7 199,-401.7 474,-401.7 474,-203.7 199,-203.7"/>
</a>
</g>
</g>
<!-- cd_concept -->
<g id="node2" class="node">
<title>cd_concept</title>
<g id="a_node2"><a xlink:href="../../tables/cd_concept.html" xlink:title="cd_concept" target="_top">
<polygon fill="#ffffff" stroke="transparent" points="8,-99.2 8,-182.2 149,-182.2 149,-99.2 8,-99.2"/>
<polygon fill="#f5f5f5" stroke="transparent" points="8.5,-158.7 8.5,-181.7 149.5,-181.7 149.5,-158.7 8.5,-158.7"/>
<polygon fill="none" stroke="#000000" points="8.5,-158.7 8.5,-181.7 149.5,-181.7 149.5,-158.7 8.5,-158.7"/>
<text text-anchor="start" x="13.5" y="-167.3" font-family="Helvetica,sans-Serif" font-weight="bold" font-size="11.00" fill="#000000">cd_concept</text>
<text text-anchor="start" x="114.5437" y="-166.8" font-family="Helvetica,sans-Serif" font-size="11.00" fill="#000000">[table]</text>
<polygon fill="none" stroke="#000000" points="8.5,-136.7 8.5,-158.7 149.5,-158.7 149.5,-136.7 8.5,-136.7"/>
<image xlink:href="../../images/primaryKeys.png" width="11px" height="12px" preserveAspectRatio="xMinYMin meet" x="13.5" y="-153.7"/>
<text text-anchor="start" x="28.5" y="-143.8" font-family="Helvetica,sans-Serif" font-size="11.00" fill="#000000">concept_id</text>
<polygon fill="none" stroke="#000000" points="8.5,-117.7 8.5,-136.7 149.5,-136.7 149.5,-117.7 8.5,-117.7"/>
<text text-anchor="start" x="11.5" y="-123.8" font-family="Helvetica,sans-Serif" font-size="11.00" fill="#000000">...</text>
<polygon fill="#ffffff" stroke="transparent" points="8.5,-98.7 8.5,-117.7 55.5,-117.7 55.5,-98.7 8.5,-98.7"/>
<polygon fill="none" stroke="#000000" points="8.5,-98.7 8.5,-117.7 55.5,-117.7 55.5,-98.7 8.5,-98.7"/>
<text text-anchor="start" x="11.5" y="-104.8" font-family="Helvetica,sans-Serif" font-size="11.00" fill="#000000"> &#160;</text>
<polygon fill="#ffffff" stroke="transparent" points="55.5,-98.7 55.5,-117.7 110.5,-117.7 110.5,-98.7 55.5,-98.7"/>
<polygon fill="none" stroke="#000000" points="55.5,-98.7 55.5,-117.7 110.5,-117.7 110.5,-98.7 55.5,-98.7"/>
<text text-anchor="start" x="75.1105" y="-104.8" font-family="Helvetica,sans-Serif" font-size="11.00" fill="#000000">0 rows</text>
<polygon fill="#ffffff" stroke="transparent" points="110.5,-98.7 110.5,-117.7 149.5,-117.7 149.5,-98.7 110.5,-98.7"/>
<polygon fill="none" stroke="#000000" points="110.5,-98.7 110.5,-117.7 149.5,-117.7 149.5,-98.7 110.5,-98.7"/>
<text text-anchor="start" x="130.9053" y="-104.8" font-family="Helvetica,sans-Serif" font-size="11.00" fill="#000000">3 &gt;</text>
</a>
</g>
</g>
<!-- cd_included_source_concept&#45;&gt;cd_concept -->
<g id="edge1" class="edge">
<title>cd_included_source_concept:w&#45;&gt;cd_concept:e</title>
<path fill="none" stroke="#000000" d="M186.126,-320.2261C134.1504,-298.9558 224.8171,-147.7 149.5,-147.7"/>
<polygon fill="#000000" stroke="#000000" points="192.6159,-321.3431 199.8894,-326.2478 196.558,-322.0215 200.5,-322.7 200.5,-322.7 200.5,-322.7 196.558,-322.0215 201.1106,-319.1522 192.6159,-321.3431 192.6159,-321.3431"/>
<ellipse fill="none" stroke="#000000" cx="189.4623" cy="-320.8003" rx="3.2" ry="3.2"/>
</g>
<!-- cd_index_event_breakdown -->
<g id="node3" class="node">
<title>cd_index_event_breakdown</title>
<g id="a_node3"><a xlink:href="../../tables/cd_index_event_breakdown.html" xlink:title="cd_index_event_breakdown" target="_top">
<polygon fill="#ffffff" stroke="transparent" points="225,-120.2 225,-181.2 448,-181.2 448,-120.2 225,-120.2"/>
<polygon fill="#f5f5f5" stroke="transparent" points="225.5,-157.7 225.5,-180.7 448.5,-180.7 448.5,-157.7 225.5,-157.7"/>
<polygon fill="none" stroke="#000000" points="225.5,-157.7 225.5,-180.7 448.5,-180.7 448.5,-157.7 225.5,-157.7"/>
<text text-anchor="start" x="230.5" y="-166.3" font-family="Helvetica,sans-Serif" font-weight="bold" font-size="11.00" fill="#000000">cd_index_event_breakdown</text>
<text text-anchor="start" x="414.0219" y="-165.8" font-family="Helvetica,sans-Serif" font-size="11.00" fill="#000000">[table]</text>
<polygon fill="none" stroke="#000000" points="225.5,-138.7 225.5,-157.7 448.5,-157.7 448.5,-138.7 225.5,-138.7"/>
<text text-anchor="start" x="228.5" y="-144.8" font-family="Helvetica,sans-Serif" font-size="11.00" fill="#000000">...</text>
<polygon fill="#ffffff" stroke="transparent" points="225.5,-119.7 225.5,-138.7 322.5,-138.7 322.5,-119.7 225.5,-119.7"/>
<polygon fill="none" stroke="#000000" points="225.5,-119.7 225.5,-138.7 322.5,-138.7 322.5,-119.7 225.5,-119.7"/>
<text text-anchor="start" x="228.5" y="-125.8" font-family="Helvetica,sans-Serif" font-size="11.00" fill="#000000">&lt; 1</text>
<polygon fill="#ffffff" stroke="transparent" points="322.5,-119.7 322.5,-138.7 398.5,-138.7 398.5,-119.7 322.5,-119.7"/>
<polygon fill="none" stroke="#000000" points="322.5,-119.7 322.5,-138.7 398.5,-138.7 398.5,-119.7 322.5,-119.7"/>
<text text-anchor="start" x="363.1105" y="-125.8" font-family="Helvetica,sans-Serif" font-size="11.00" fill="#000000">0 rows</text>
<polygon fill="#ffffff" stroke="transparent" points="398.5,-119.7 398.5,-138.7 448.5,-138.7 448.5,-119.7 398.5,-119.7"/>
<polygon fill="none" stroke="#000000" points="398.5,-119.7 398.5,-138.7 448.5,-138.7 448.5,-119.7 398.5,-119.7"/>
<text text-anchor="start" x="439.3862" y="-125.8" font-family="Helvetica,sans-Serif" font-size="11.00" fill="#000000"> &#160;</text>
</a>
</g>
</g>
<!-- cd_index_event_breakdown&#45;&gt;cd_concept -->
<g id="edge2" class="edge">
<title>cd_index_event_breakdown:w&#45;&gt;cd_concept:e</title>
<path fill="none" stroke="#000000" d="M211.0121,-147.7C188.3676,-147.7 177.8681,-147.7 149.5,-147.7"/>
<polygon fill="#000000" stroke="#000000" points="217.5,-147.7001 225.5,-151.3 221.5,-147.7 225.5,-147.7 225.5,-147.7 225.5,-147.7 221.5,-147.7 225.5,-144.1 217.5,-147.7001 217.5,-147.7001"/>
<ellipse fill="none" stroke="#000000" cx="214.3" cy="-147.7001" rx="3.2" ry="3.2"/>
</g>
<!-- cd_orphan_concept -->
<g id="node4" class="node">
<title>cd_orphan_concept</title>
<g id="a_node4"><a xlink:href="../../tables/cd_orphan_concept.html" xlink:title="cd_orphan_concept" target="_top">
<polygon fill="#ffffff" stroke="transparent" points="252.5,-38.2 252.5,-99.2 420.5,-99.2 420.5,-38.2 252.5,-38.2"/>
<polygon fill="#f5f5f5" stroke="transparent" points="252.5,-75.7 252.5,-98.7 420.5,-98.7 420.5,-75.7 252.5,-75.7"/>
<polygon fill="none" stroke="#000000" points="252.5,-75.7 252.5,-98.7 420.5,-98.7 420.5,-75.7 252.5,-75.7"/>
<text text-anchor="start" x="257.5" y="-84.3" font-family="Helvetica,sans-Serif" font-weight="bold" font-size="11.00" fill="#000000">cd_orphan_concept</text>
<text text-anchor="start" x="386.0219" y="-83.8" font-family="Helvetica,sans-Serif" font-size="11.00" fill="#000000">[table]</text>
<polygon fill="none" stroke="#000000" points="252.5,-56.7 252.5,-75.7 420.5,-75.7 420.5,-56.7 252.5,-56.7"/>
<text text-anchor="start" x="255.5" y="-62.8" font-family="Helvetica,sans-Serif" font-size="11.00" fill="#000000">...</text>
<polygon fill="#ffffff" stroke="transparent" points="252.5,-37.7 252.5,-56.7 321.5,-56.7 321.5,-37.7 252.5,-37.7"/>
<polygon fill="none" stroke="#000000" points="252.5,-37.7 252.5,-56.7 321.5,-56.7 321.5,-37.7 252.5,-37.7"/>
<text text-anchor="start" x="255.5" y="-43.8" font-family="Helvetica,sans-Serif" font-size="11.00" fill="#000000">&lt; 3</text>
<polygon fill="#ffffff" stroke="transparent" points="321.5,-37.7 321.5,-56.7 383.5,-56.7 383.5,-37.7 321.5,-37.7"/>
<polygon fill="none" stroke="#000000" points="321.5,-37.7 321.5,-56.7 383.5,-56.7 383.5,-37.7 321.5,-37.7"/>
<text text-anchor="start" x="348.1105" y="-43.8" font-family="Helvetica,sans-Serif" font-size="11.00" fill="#000000">0 rows</text>
<polygon fill="#ffffff" stroke="transparent" points="383.5,-37.7 383.5,-56.7 420.5,-56.7 420.5,-37.7 383.5,-37.7"/>
<polygon fill="none" stroke="#000000" points="383.5,-37.7 383.5,-56.7 420.5,-56.7 420.5,-37.7 383.5,-37.7"/>
<text text-anchor="start" x="411.3862" y="-43.8" font-family="Helvetica,sans-Serif" font-size="11.00" fill="#000000"> &#160;</text>
</a>
</g>
</g>
<!-- cd_orphan_concept&#45;&gt;cd_concept -->
<g id="edge3" class="edge">
<title>cd_orphan_concept:w&#45;&gt;cd_concept:e</title>
<path fill="none" stroke="#000000" d="M238.0993,-67.4163C217.1608,-73.0689 212.0188,-91.767 190,-109.7 170.8616,-125.2871 174.1827,-147.7 149.5,-147.7"/>
<polygon fill="#000000" stroke="#000000" points="244.5562,-66.6468 252.9261,-69.2747 248.5281,-66.1734 252.5,-65.7 252.5,-65.7 252.5,-65.7 248.5281,-66.1734 252.0739,-62.1253 244.5562,-66.6468 244.5562,-66.6468"/>
<ellipse fill="none" stroke="#000000" cx="241.3787" cy="-67.0255" rx="3.2" ry="3.2"/>
</g>
</g>
</svg>
