<?xml version="1.0" encoding="UTF-8" standalone="no"?>
<!DOCTYPE svg PUBLIC "-//W3C//DTD SVG 1.1//EN"
 "http://www.w3.org/Graphics/SVG/1.1/DTD/svg11.dtd">
<!-- Generated by graphviz version 2.40.1 (20161225.0304)
 -->
<!-- Title: oneDegreeRelationshipsDiagram Pages: 1 -->
<svg width="301pt" height="250pt"
 viewBox="0.00 0.00 301.00 250.20" xmlns="http://www.w3.org/2000/svg" xmlns:xlink="http://www.w3.org/1999/xlink">
<g id="graph0" class="graph" transform="scale(1 1) rotate(0) translate(4 246.2)">
<title>oneDegreeRelationshipsDiagram</title>
<polygon fill="#ffffff" stroke="transparent" points="-4,4 -4,-246.2 297,-246.2 297,4 -4,4"/>
<text text-anchor="middle" x="72.4936" y="-7.3" font-family="Helvetica,sans-Serif" font-size="11.00" fill="#000000">Generated by SchemaSpy</text>
<!-- cd_included_source_concept -->
<g id="node1" class="node">
<title>cd_included_source_concept</title>
<g id="a_node1"><a xlink:href="../../tables/cd_included_source_concept.html" xlink:title="cd_included_source_concept" target="_top">
<polygon fill="#ffffff" stroke="transparent" points="8,-38.2 8,-238.2 285,-238.2 285,-38.2 8,-38.2"/>
<polygon fill="#f5f5f5" stroke="transparent" points="10.5,-213.2 10.5,-236.2 283.5,-236.2 283.5,-213.2 10.5,-213.2"/>
<polygon fill="none" stroke="#000000" points="10.5,-213.2 10.5,-236.2 283.5,-236.2 283.5,-213.2 10.5,-213.2"/>
<text text-anchor="start" x="15.5" y="-221.8" font-family="Helvetica,sans-Serif" font-weight="bold" font-size="11.00" fill="#000000">cd_included_source_concept</text>
<text text-anchor="start" x="248.5437" y="-221.3" font-family="Helvetica,sans-Serif" font-size="11.00" fill="#000000">[table]</text>
<polygon fill="none" stroke="#000000" points="10.5,-191.2 10.5,-213.2 221.5,-213.2 221.5,-191.2 10.5,-191.2"/>
<text text-anchor="start" x="30.5" y="-198.3" font-family="Helvetica,sans-Serif" font-size="11.00" fill="#000000">cohort_id</text>
<polygon fill="none" stroke="#000000" points="221.5,-191.2 221.5,-213.2 283.5,-213.2 283.5,-191.2 221.5,-191.2"/>
<text text-anchor="start" x="224.378" y="-198.9" font-family="Helvetica,sans-Serif" font-size="11.00" fill="#000000">unknown[0]</text>
<polygon fill="none" stroke="#000000" points="10.5,-169.2 10.5,-191.2 221.5,-191.2 221.5,-169.2 10.5,-169.2"/>
<text text-anchor="start" x="30.5" y="-176.3" font-family="Helvetica,sans-Serif" font-size="11.00" fill="#000000">concept_count</text>
<polygon fill="none" stroke="#000000" points="221.5,-169.2 221.5,-191.2 283.5,-191.2 283.5,-169.2 221.5,-169.2"/>
<text text-anchor="start" x="224.378" y="-176.9" font-family="Helvetica,sans-Serif" font-size="11.00" fill="#000000">unknown[0]</text>
<polygon fill="none" stroke="#000000" points="10.5,-147.2 10.5,-169.2 221.5,-169.2 221.5,-147.2 10.5,-147.2"/>
<text text-anchor="start" x="30.5" y="-154.3" font-family="Helvetica,sans-Serif" font-size="11.00" fill="#000000">concept_id</text>
<polygon fill="none" stroke="#000000" points="221.5,-147.2 221.5,-169.2 283.5,-169.2 283.5,-147.2 221.5,-147.2"/>
<text text-anchor="start" x="224.378" y="-154.9" font-family="Helvetica,sans-Serif" font-size="11.00" fill="#000000">unknown[0]</text>
<polygon fill="none" stroke="#000000" points="10.5,-125.2 10.5,-147.2 221.5,-147.2 221.5,-125.2 10.5,-125.2"/>
<text text-anchor="start" x="30.5" y="-132.3" font-family="Helvetica,sans-Serif" font-size="11.00" fill="#000000">concept_set_id</text>
<polygon fill="none" stroke="#000000" points="221.5,-125.2 221.5,-147.2 283.5,-147.2 283.5,-125.2 221.5,-125.2"/>
<text text-anchor="start" x="224.378" y="-132.9" font-family="Helvetica,sans-Serif" font-size="11.00" fill="#000000">unknown[0]</text>
<polygon fill="none" stroke="#000000" points="10.5,-103.2 10.5,-125.2 221.5,-125.2 221.5,-103.2 10.5,-103.2"/>
<text text-anchor="start" x="30.5" y="-110.3" font-family="Helvetica,sans-Serif" font-size="11.00" fill="#000000">concept_subjects</text>
<polygon fill="none" stroke="#000000" points="221.5,-103.2 221.5,-125.2 283.5,-125.2 283.5,-103.2 221.5,-103.2"/>
<text text-anchor="start" x="224.378" y="-110.9" font-family="Helvetica,sans-Serif" font-size="11.00" fill="#000000">unknown[0]</text>
<polygon fill="none" stroke="#000000" points="10.5,-81.2 10.5,-103.2 221.5,-103.2 221.5,-81.2 10.5,-81.2"/>
<text text-anchor="start" x="30.5" y="-88.3" font-family="Helvetica,sans-Serif" font-size="11.00" fill="#000000">database_id</text>
<polygon fill="none" stroke="#000000" points="221.5,-81.2 221.5,-103.2 283.5,-103.2 283.5,-81.2 221.5,-81.2"/>
<text text-anchor="start" x="224.378" y="-88.9" font-family="Helvetica,sans-Serif" font-size="11.00" fill="#000000">unknown[0]</text>
<polygon fill="none" stroke="#000000" points="10.5,-59.2 10.5,-81.2 221.5,-81.2 221.5,-59.2 10.5,-59.2"/>
<text text-anchor="start" x="30.5" y="-66.3" font-family="Helvetica,sans-Serif" font-size="11.00" fill="#000000">source_concept_id</text>
<polygon fill="none" stroke="#000000" points="221.5,-59.2 221.5,-81.2 283.5,-81.2 283.5,-59.2 221.5,-59.2"/>
<text text-anchor="start" x="224.378" y="-66.9" font-family="Helvetica,sans-Serif" font-size="11.00" fill="#000000">unknown[0]</text>
<polygon fill="#ffffff" stroke="transparent" points="10.5,-40.2 10.5,-59.2 107.5,-59.2 107.5,-40.2 10.5,-40.2"/>
<polygon fill="none" stroke="#000000" points="10.5,-40.2 10.5,-59.2 107.5,-59.2 107.5,-40.2 10.5,-40.2"/>
<text text-anchor="start" x="13.5" y="-46.3" font-family="Helvetica,sans-Serif" font-size="11.00" fill="#000000">&lt; 0</text>
<polygon fill="#ffffff" stroke="transparent" points="107.5,-40.2 107.5,-59.2 221.5,-59.2 221.5,-40.2 107.5,-40.2"/>
<polygon fill="none" stroke="#000000" points="107.5,-40.2 107.5,-59.2 221.5,-59.2 221.5,-40.2 107.5,-40.2"/>
<text text-anchor="start" x="186.1105" y="-46.3" font-family="Helvetica,sans-Serif" font-size="11.00" fill="#000000">0 rows</text>
<polygon fill="#ffffff" stroke="transparent" points="221.5,-40.2 221.5,-59.2 283.5,-59.2 283.5,-40.2 221.5,-40.2"/>
<polygon fill="none" stroke="#000000" points="221.5,-40.2 221.5,-59.2 283.5,-59.2 283.5,-40.2 221.5,-40.2"/>
<text text-anchor="start" x="264.9053" y="-46.3" font-family="Helvetica,sans-Serif" font-size="11.00" fill="#000000">0 &gt;</text>
<polygon fill="none" stroke="#000000" stroke-width="2" points="9,-39.2 9,-237.2 284,-237.2 284,-39.2 9,-39.2"/>
</a>
</g>
</g>
</g>
</svg>
