<?xml version="1.0" encoding="UTF-8" standalone="no"?>
<!DOCTYPE svg PUBLIC "-//W3C//DTD SVG 1.1//EN"
 "http://www.w3.org/Graphics/SVG/1.1/DTD/svg11.dtd">
<!-- Generated by graphviz version 2.40.1 (20161225.0304)
 -->
<!-- Title: oneDegreeRelationshipsDiagram Pages: 1 -->
<svg width="485pt" height="250pt"
 viewBox="0.00 0.00 485.00 250.20" xmlns="http://www.w3.org/2000/svg" xmlns:xlink="http://www.w3.org/1999/xlink">
<g id="graph0" class="graph" transform="scale(1 1) rotate(0) translate(4 246.2)">
<title>oneDegreeRelationshipsDiagram</title>
<polygon fill="#ffffff" stroke="transparent" points="-4,4 -4,-246.2 481,-246.2 481,4 -4,4"/>
<text text-anchor="middle" x="72.4936" y="-7.3" font-family="Helvetica,sans-Serif" font-size="11.00" fill="#000000">Generated by SchemaSpy</text>
<!-- cd_index_event_breakdown -->
<g id="node1" class="node">
<title>cd_index_event_breakdown</title>
<g id="a_node1"><a xlink:href="../../tables/cd_index_event_breakdown.html" xlink:title="cd_index_event_breakdown" target="_top">
<polygon fill="#ffffff" stroke="transparent" points="198,-38.2 198,-238.2 469,-238.2 469,-38.2 198,-38.2"/>
<polygon fill="#f5f5f5" stroke="transparent" points="200.5,-213.2 200.5,-236.2 467.5,-236.2 467.5,-213.2 200.5,-213.2"/>
<polygon fill="none" stroke="#000000" points="200.5,-213.2 200.5,-236.2 467.5,-236.2 467.5,-213.2 200.5,-213.2"/>
<text text-anchor="start" x="205.5" y="-221.8" font-family="Helvetica,sans-Serif" font-weight="bold" font-size="11.00" fill="#000000">cd_index_event_breakdown</text>
<text text-anchor="start" x="432.5437" y="-221.3" font-family="Helvetica,sans-Serif" font-size="11.00" fill="#000000">[table]</text>
<polygon fill="none" stroke="#000000" points="200.5,-191.2 200.5,-213.2 405.5,-213.2 405.5,-191.2 200.5,-191.2"/>
<text text-anchor="start" x="220.5" y="-198.3" font-family="Helvetica,sans-Serif" font-size="11.00" fill="#000000">cohort_id</text>
<polygon fill="none" stroke="#000000" points="405.5,-191.2 405.5,-213.2 467.5,-213.2 467.5,-191.2 405.5,-191.2"/>
<text text-anchor="start" x="408.378" y="-198.9" font-family="Helvetica,sans-Serif" font-size="11.00" fill="#000000">unknown[0]</text>
<polygon fill="none" stroke="#000000" points="200.5,-169.2 200.5,-191.2 405.5,-191.2 405.5,-169.2 200.5,-169.2"/>
<text text-anchor="start" x="220.5" y="-176.3" font-family="Helvetica,sans-Serif" font-size="11.00" fill="#000000">concept_count</text>
<polygon fill="none" stroke="#000000" points="405.5,-169.2 405.5,-191.2 467.5,-191.2 467.5,-169.2 405.5,-169.2"/>
<text text-anchor="start" x="408.378" y="-176.9" font-family="Helvetica,sans-Serif" font-size="11.00" fill="#000000">unknown[0]</text>
<polygon fill="none" stroke="#000000" points="200.5,-147.2 200.5,-169.2 405.5,-169.2 405.5,-147.2 200.5,-147.2"/>
<image xlink:href="../../images/foreignKeys.png" width="11px" height="12px" preserveAspectRatio="xMinYMin meet" x="205.5" y="-164.2"/>
<text text-anchor="start" x="220.5" y="-154.3" font-family="Helvetica,sans-Serif" font-size="11.00" fill="#000000">concept_id</text>
<polygon fill="none" stroke="#000000" points="405.5,-147.2 405.5,-169.2 467.5,-169.2 467.5,-147.2 405.5,-147.2"/>
<text text-anchor="start" x="408.378" y="-154.9" font-family="Helvetica,sans-Serif" font-size="11.00" fill="#000000">unknown[0]</text>
<polygon fill="none" stroke="#000000" points="200.5,-125.2 200.5,-147.2 405.5,-147.2 405.5,-125.2 200.5,-125.2"/>
<text text-anchor="start" x="220.5" y="-132.3" font-family="Helvetica,sans-Serif" font-size="11.00" fill="#000000">database_id</text>
<polygon fill="none" stroke="#000000" points="405.5,-125.2 405.5,-147.2 467.5,-147.2 467.5,-125.2 405.5,-125.2"/>
<text text-anchor="start" x="408.378" y="-132.9" font-family="Helvetica,sans-Serif" font-size="11.00" fill="#000000">unknown[0]</text>
<polygon fill="none" stroke="#000000" points="200.5,-103.2 200.5,-125.2 405.5,-125.2 405.5,-103.2 200.5,-103.2"/>
<text text-anchor="start" x="220.5" y="-110.3" font-family="Helvetica,sans-Serif" font-size="11.00" fill="#000000">domain_field</text>
<polygon fill="none" stroke="#000000" points="405.5,-103.2 405.5,-125.2 467.5,-125.2 467.5,-103.2 405.5,-103.2"/>
<text text-anchor="start" x="408.378" y="-110.9" font-family="Helvetica,sans-Serif" font-size="11.00" fill="#000000">unknown[0]</text>
<polygon fill="none" stroke="#000000" points="200.5,-81.2 200.5,-103.2 405.5,-103.2 405.5,-81.2 200.5,-81.2"/>
<text text-anchor="start" x="220.5" y="-88.3" font-family="Helvetica,sans-Serif" font-size="11.00" fill="#000000">domain_table</text>
<polygon fill="none" stroke="#000000" points="405.5,-81.2 405.5,-103.2 467.5,-103.2 467.5,-81.2 405.5,-81.2"/>
<text text-anchor="start" x="408.378" y="-88.9" font-family="Helvetica,sans-Serif" font-size="11.00" fill="#000000">unknown[0]</text>
<polygon fill="none" stroke="#000000" points="200.5,-59.2 200.5,-81.2 405.5,-81.2 405.5,-59.2 200.5,-59.2"/>
<text text-anchor="start" x="220.5" y="-66.3" font-family="Helvetica,sans-Serif" font-size="11.00" fill="#000000">subject_count</text>
<polygon fill="none" stroke="#000000" points="405.5,-59.2 405.5,-81.2 467.5,-81.2 467.5,-59.2 405.5,-59.2"/>
<text text-anchor="start" x="408.378" y="-66.9" font-family="Helvetica,sans-Serif" font-size="11.00" fill="#000000">unknown[0]</text>
<polygon fill="#ffffff" stroke="transparent" points="200.5,-40.2 200.5,-59.2 294.5,-59.2 294.5,-40.2 200.5,-40.2"/>
<polygon fill="none" stroke="#000000" points="200.5,-40.2 200.5,-59.2 294.5,-59.2 294.5,-40.2 200.5,-40.2"/>
<text text-anchor="start" x="203.5" y="-46.3" font-family="Helvetica,sans-Serif" font-size="11.00" fill="#000000">&lt; 1</text>
<polygon fill="#ffffff" stroke="transparent" points="294.5,-40.2 294.5,-59.2 405.5,-59.2 405.5,-40.2 294.5,-40.2"/>
<polygon fill="none" stroke="#000000" points="294.5,-40.2 294.5,-59.2 405.5,-59.2 405.5,-40.2 294.5,-40.2"/>
<text text-anchor="start" x="370.1105" y="-46.3" font-family="Helvetica,sans-Serif" font-size="11.00" fill="#000000">0 rows</text>
<polygon fill="#ffffff" stroke="transparent" points="405.5,-40.2 405.5,-59.2 467.5,-59.2 467.5,-40.2 405.5,-40.2"/>
<polygon fill="none" stroke="#000000" points="405.5,-40.2 405.5,-59.2 467.5,-59.2 467.5,-40.2 405.5,-40.2"/>
<text text-anchor="start" x="448.9053" y="-46.3" font-family="Helvetica,sans-Serif" font-size="11.00" fill="#000000">0 &gt;</text>
<polygon fill="none" stroke="#000000" stroke-width="2" points="199,-39.2 199,-237.2 468,-237.2 468,-39.2 199,-39.2"/>
</a>
</g>
</g>
<!-- cd_concept -->
<g id="node2" class="node">
<title>cd_concept</title>
<g id="a_node2"><a xlink:href="../../tables/cd_concept.html" xlink:title="cd_concept" target="_top">
<polygon fill="#ffffff" stroke="transparent" points="8,-109.7 8,-192.7 149,-192.7 149,-109.7 8,-109.7"/>
<polygon fill="#f5f5f5" stroke="transparent" points="8.5,-169.2 8.5,-192.2 149.5,-192.2 149.5,-169.2 8.5,-169.2"/>
<polygon fill="none" stroke="#000000" points="8.5,-169.2 8.5,-192.2 149.5,-192.2 149.5,-169.2 8.5,-169.2"/>
<text text-anchor="start" x="13.5" y="-177.8" font-family="Helvetica,sans-Serif" font-weight="bold" font-size="11.00" fill="#000000">cd_concept</text>
<text text-anchor="start" x="114.5437" y="-177.3" font-family="Helvetica,sans-Serif" font-size="11.00" fill="#000000">[table]</text>
<polygon fill="none" stroke="#000000" points="8.5,-147.2 8.5,-169.2 149.5,-169.2 149.5,-147.2 8.5,-147.2"/>
<image xlink:href="../../images/primaryKeys.png" width="11px" height="12px" preserveAspectRatio="xMinYMin meet" x="13.5" y="-164.2"/>
<text text-anchor="start" x="28.5" y="-154.3" font-family="Helvetica,sans-Serif" font-size="11.00" fill="#000000">concept_id</text>
<polygon fill="none" stroke="#000000" points="8.5,-128.2 8.5,-147.2 149.5,-147.2 149.5,-128.2 8.5,-128.2"/>
<text text-anchor="start" x="11.5" y="-134.3" font-family="Helvetica,sans-Serif" font-size="11.00" fill="#000000">...</text>
<polygon fill="#ffffff" stroke="transparent" points="8.5,-109.2 8.5,-128.2 55.5,-128.2 55.5,-109.2 8.5,-109.2"/>
<polygon fill="none" stroke="#000000" points="8.5,-109.2 8.5,-128.2 55.5,-128.2 55.5,-109.2 8.5,-109.2"/>
<text text-anchor="start" x="11.5" y="-115.3" font-family="Helvetica,sans-Serif" font-size="11.00" fill="#000000"> &#160;</text>
<polygon fill="#ffffff" stroke="transparent" points="55.5,-109.2 55.5,-128.2 110.5,-128.2 110.5,-109.2 55.5,-109.2"/>
<polygon fill="none" stroke="#000000" points="55.5,-109.2 55.5,-128.2 110.5,-128.2 110.5,-109.2 55.5,-109.2"/>
<text text-anchor="start" x="75.1105" y="-115.3" font-family="Helvetica,sans-Serif" font-size="11.00" fill="#000000">0 rows</text>
<polygon fill="#ffffff" stroke="transparent" points="110.5,-109.2 110.5,-128.2 149.5,-128.2 149.5,-109.2 110.5,-109.2"/>
<polygon fill="none" stroke="#000000" points="110.5,-109.2 110.5,-128.2 149.5,-128.2 149.5,-109.2 110.5,-109.2"/>
<text text-anchor="start" x="130.9053" y="-115.3" font-family="Helvetica,sans-Serif" font-size="11.00" fill="#000000">3 &gt;</text>
</a>
</g>
</g>
<!-- cd_index_event_breakdown&#45;&gt;cd_concept -->
<g id="edge1" class="edge">
<title>cd_index_event_breakdown:w&#45;&gt;cd_concept:e</title>
<path fill="none" stroke="#000000" d="M185.776,-158.2C173.7815,-158.2 166.3229,-158.2 149.5,-158.2"/>
<polygon fill="#000000" stroke="#000000" points="192.5,-158.2001 200.5,-161.8 196.5,-158.2 200.5,-158.2 200.5,-158.2 200.5,-158.2 196.5,-158.2 200.5,-154.6 192.5,-158.2001 192.5,-158.2001"/>
<ellipse fill="none" stroke="#000000" cx="189.3" cy="-158.2001" rx="3.2" ry="3.2"/>
</g>
</g>
</svg>
