<?xml version="1.0" encoding="UTF-8" standalone="no"?>
<!DOCTYPE svg PUBLIC "-//W3C//DTD SVG 1.1//EN"
 "http://www.w3.org/Graphics/SVG/1.1/DTD/svg11.dtd">
<!-- Generated by graphviz version 2.40.1 (20161225.0304)
 -->
<!-- Title: twoDegreesRelationshipsDiagram Pages: 1 -->
<svg width="655pt" height="272pt"
 viewBox="0.00 0.00 655.00 272.20" xmlns="http://www.w3.org/2000/svg" xmlns:xlink="http://www.w3.org/1999/xlink">
<g id="graph0" class="graph" transform="scale(1 1) rotate(0) translate(4 268.2)">
<title>twoDegreesRelationshipsDiagram</title>
<polygon fill="#ffffff" stroke="transparent" points="-4,4 -4,-268.2 651,-268.2 651,4 -4,4"/>
<text text-anchor="middle" x="72.4936" y="-7.3" font-family="Helvetica,sans-Serif" font-size="11.00" fill="#000000">Generated by SchemaSpy</text>
<!-- cd_cohort_count -->
<g id="node1" class="node">
<title>cd_cohort_count</title>
<g id="a_node1"><a xlink:href="../../tables/cd_cohort_count.html" xlink:title="cd_cohort_count" target="_top">
<polygon fill="#ffffff" stroke="transparent" points="235,-87.7 235,-192.7 383,-192.7 383,-87.7 235,-87.7"/>
<polygon fill="#f5f5f5" stroke="transparent" points="235,-169.2 235,-192.2 383,-192.2 383,-169.2 235,-169.2"/>
<polygon fill="none" stroke="#000000" points="235,-169.2 235,-192.2 383,-192.2 383,-169.2 235,-169.2"/>
<text text-anchor="start" x="240" y="-177.8" font-family="Helvetica,sans-Serif" font-weight="bold" font-size="11.00" fill="#000000">cd_cohort_count</text>
<text text-anchor="start" x="348.5219" y="-177.3" font-family="Helvetica,sans-Serif" font-size="11.00" fill="#000000">[table]</text>
<polygon fill="none" stroke="#000000" points="235,-147.2 235,-169.2 383,-169.2 383,-147.2 235,-147.2"/>
<image xlink:href="../../images/primaryKeys.png" width="11px" height="12px" preserveAspectRatio="xMinYMin meet" x="240" y="-164.2"/>
<text text-anchor="start" x="264" y="-154.3" font-family="Helvetica,sans-Serif" font-size="11.00" fill="#000000">cohort_id</text>
<polygon fill="none" stroke="#000000" points="235,-125.2 235,-147.2 383,-147.2 383,-125.2 235,-125.2"/>
<image xlink:href="../../images/primaryKeys.png" width="11px" height="12px" preserveAspectRatio="xMinYMin meet" x="240" y="-142.2"/>
<text text-anchor="start" x="264" y="-132.3" font-family="Helvetica,sans-Serif" font-size="11.00" fill="#000000">database_id</text>
<polygon fill="none" stroke="#000000" points="235,-106.2 235,-125.2 383,-125.2 383,-106.2 235,-106.2"/>
<text text-anchor="start" x="238" y="-112.3" font-family="Helvetica,sans-Serif" font-size="11.00" fill="#000000">...</text>
<polygon fill="#ffffff" stroke="transparent" points="235,-87.2 235,-106.2 290,-106.2 290,-87.2 235,-87.2"/>
<polygon fill="none" stroke="#000000" points="235,-87.2 235,-106.2 290,-106.2 290,-87.2 235,-87.2"/>
<text text-anchor="start" x="238" y="-93.3" font-family="Helvetica,sans-Serif" font-size="11.00" fill="#000000">&lt; 1</text>
<polygon fill="#ffffff" stroke="transparent" points="290,-87.2 290,-106.2 345,-106.2 345,-87.2 290,-87.2"/>
<polygon fill="none" stroke="#000000" points="290,-87.2 290,-106.2 345,-106.2 345,-87.2 290,-87.2"/>
<text text-anchor="start" x="309.6105" y="-93.3" font-family="Helvetica,sans-Serif" font-size="11.00" fill="#000000">0 rows</text>
<polygon fill="#ffffff" stroke="transparent" points="345,-87.2 345,-106.2 383,-106.2 383,-87.2 345,-87.2"/>
<polygon fill="none" stroke="#000000" points="345,-87.2 345,-106.2 383,-106.2 383,-87.2 345,-87.2"/>
<text text-anchor="start" x="364.4053" y="-93.3" font-family="Helvetica,sans-Serif" font-size="11.00" fill="#000000">2 &gt;</text>
</a>
</g>
</g>
<!-- database_meta_data -->
<g id="node2" class="node">
<title>database_meta_data</title>
<g id="a_node2"><a xlink:href="../../tables/database_meta_data.html" xlink:title="database_meta_data" target="_top">
<polygon fill="#ffffff" stroke="transparent" points="8,-108.7 8,-169.7 186,-169.7 186,-108.7 8,-108.7"/>
<polygon fill="#f5f5f5" stroke="transparent" points="8,-146.2 8,-169.2 186,-169.2 186,-146.2 8,-146.2"/>
<polygon fill="none" stroke="#000000" points="8,-146.2 8,-169.2 186,-169.2 186,-146.2 8,-146.2"/>
<text text-anchor="start" x="13" y="-154.8" font-family="Helvetica,sans-Serif" font-weight="bold" font-size="11.00" fill="#000000">database_meta_data</text>
<text text-anchor="start" x="151.5219" y="-154.3" font-family="Helvetica,sans-Serif" font-size="11.00" fill="#000000">[table]</text>
<polygon fill="none" stroke="#000000" points="8,-127.2 8,-146.2 186,-146.2 186,-127.2 8,-127.2"/>
<text text-anchor="start" x="11" y="-133.3" font-family="Helvetica,sans-Serif" font-size="11.00" fill="#000000">...</text>
<polygon fill="#ffffff" stroke="transparent" points="8,-108.2 8,-127.2 75,-127.2 75,-108.2 8,-108.2"/>
<polygon fill="none" stroke="#000000" points="8,-108.2 8,-127.2 75,-127.2 75,-108.2 8,-108.2"/>
<text text-anchor="start" x="11" y="-114.3" font-family="Helvetica,sans-Serif" font-size="11.00" fill="#000000">&lt; 1</text>
<polygon fill="#ffffff" stroke="transparent" points="75,-108.2 75,-127.2 136,-127.2 136,-108.2 75,-108.2"/>
<polygon fill="none" stroke="#000000" points="75,-108.2 75,-127.2 136,-127.2 136,-108.2 75,-108.2"/>
<text text-anchor="start" x="100.6105" y="-114.3" font-family="Helvetica,sans-Serif" font-size="11.00" fill="#000000">0 rows</text>
<polygon fill="#ffffff" stroke="transparent" points="136,-108.2 136,-127.2 186,-127.2 186,-108.2 136,-108.2"/>
<polygon fill="none" stroke="#000000" points="136,-108.2 136,-127.2 186,-127.2 186,-108.2 136,-108.2"/>
<text text-anchor="start" x="161.2904" y="-114.3" font-family="Helvetica,sans-Serif" font-size="11.00" fill="#000000">17 &gt;</text>
</a>
</g>
</g>
<!-- cd_cohort_count&#45;&gt;database_meta_data -->
<g id="edge1" class="edge">
<title>cd_cohort_count:w&#45;&gt;database_meta_data:e</title>
<path fill="none" stroke="#000000" d="M220.4909,-136.2C209.1774,-136.2 201.9931,-136.2 186,-136.2"/>
<polygon fill="#000000" stroke="#000000" points="227,-136.2001 235,-139.8 231,-136.2 235,-136.2 235,-136.2 235,-136.2 231,-136.2 235,-132.6 227,-136.2001 227,-136.2001"/>
<ellipse fill="none" stroke="#000000" cx="223.8" cy="-136.2001" rx="3.2" ry="3.2"/>
</g>
<!-- cd_incidence_rate -->
<g id="node3" class="node">
<title>cd_incidence_rate</title>
<g id="a_node3"><a xlink:href="../../tables/cd_incidence_rate.html" xlink:title="cd_incidence_rate" target="_top">
<polygon fill="#ffffff" stroke="transparent" points="432,-38.2 432,-260.2 639,-260.2 639,-38.2 432,-38.2"/>
<polygon fill="#f5f5f5" stroke="transparent" points="434.5,-235.2 434.5,-258.2 637.5,-258.2 637.5,-235.2 434.5,-235.2"/>
<polygon fill="none" stroke="#000000" points="434.5,-235.2 434.5,-258.2 637.5,-258.2 637.5,-235.2 434.5,-235.2"/>
<text text-anchor="start" x="439.5" y="-243.8" font-family="Helvetica,sans-Serif" font-weight="bold" font-size="11.00" fill="#000000">cd_incidence_rate</text>
<text text-anchor="start" x="602.5437" y="-243.3" font-family="Helvetica,sans-Serif" font-size="11.00" fill="#000000">[table]</text>
<polygon fill="none" stroke="#000000" points="434.5,-213.2 434.5,-235.2 575.5,-235.2 575.5,-213.2 434.5,-213.2"/>
<text text-anchor="start" x="454.5" y="-220.3" font-family="Helvetica,sans-Serif" font-size="11.00" fill="#000000">age_group</text>
<polygon fill="none" stroke="#000000" points="575.5,-213.2 575.5,-235.2 637.5,-235.2 637.5,-213.2 575.5,-213.2"/>
<text text-anchor="start" x="578.378" y="-220.9" font-family="Helvetica,sans-Serif" font-size="11.00" fill="#000000">unknown[0]</text>
<polygon fill="none" stroke="#000000" points="434.5,-191.2 434.5,-213.2 575.5,-213.2 575.5,-191.2 434.5,-191.2"/>
<text text-anchor="start" x="454.5" y="-198.3" font-family="Helvetica,sans-Serif" font-size="11.00" fill="#000000">calendar_year</text>
<polygon fill="none" stroke="#000000" points="575.5,-191.2 575.5,-213.2 637.5,-213.2 637.5,-191.2 575.5,-191.2"/>
<text text-anchor="start" x="578.378" y="-198.9" font-family="Helvetica,sans-Serif" font-size="11.00" fill="#000000">unknown[0]</text>
<polygon fill="none" stroke="#000000" points="434.5,-169.2 434.5,-191.2 575.5,-191.2 575.5,-169.2 434.5,-169.2"/>
<text text-anchor="start" x="454.5" y="-176.3" font-family="Helvetica,sans-Serif" font-size="11.00" fill="#000000">cohort_count</text>
<polygon fill="none" stroke="#000000" points="575.5,-169.2 575.5,-191.2 637.5,-191.2 637.5,-169.2 575.5,-169.2"/>
<text text-anchor="start" x="578.378" y="-176.9" font-family="Helvetica,sans-Serif" font-size="11.00" fill="#000000">unknown[0]</text>
<polygon fill="none" stroke="#000000" points="434.5,-147.2 434.5,-169.2 575.5,-169.2 575.5,-147.2 434.5,-147.2"/>
<image xlink:href="../../images/foreignKeys.png" width="11px" height="12px" preserveAspectRatio="xMinYMin meet" x="439.5" y="-164.2"/>
<text text-anchor="start" x="454.5" y="-154.3" font-family="Helvetica,sans-Serif" font-size="11.00" fill="#000000">cohort_id</text>
<polygon fill="none" stroke="#000000" points="575.5,-147.2 575.5,-169.2 637.5,-169.2 637.5,-147.2 575.5,-147.2"/>
<text text-anchor="start" x="578.378" y="-154.9" font-family="Helvetica,sans-Serif" font-size="11.00" fill="#000000">unknown[0]</text>
<polygon fill="none" stroke="#000000" points="434.5,-125.2 434.5,-147.2 575.5,-147.2 575.5,-125.2 434.5,-125.2"/>
<image xlink:href="../../images/foreignKeys.png" width="11px" height="12px" preserveAspectRatio="xMinYMin meet" x="439.5" y="-142.2"/>
<text text-anchor="start" x="454.5" y="-132.3" font-family="Helvetica,sans-Serif" font-size="11.00" fill="#000000">database_id</text>
<polygon fill="none" stroke="#000000" points="575.5,-125.2 575.5,-147.2 637.5,-147.2 637.5,-125.2 575.5,-125.2"/>
<text text-anchor="start" x="578.378" y="-132.9" font-family="Helvetica,sans-Serif" font-size="11.00" fill="#000000">unknown[0]</text>
<polygon fill="none" stroke="#000000" points="434.5,-103.2 434.5,-125.2 575.5,-125.2 575.5,-103.2 434.5,-103.2"/>
<text text-anchor="start" x="454.5" y="-110.3" font-family="Helvetica,sans-Serif" font-size="11.00" fill="#000000">gender</text>
<polygon fill="none" stroke="#000000" points="575.5,-103.2 575.5,-125.2 637.5,-125.2 637.5,-103.2 575.5,-103.2"/>
<text text-anchor="start" x="578.378" y="-110.9" font-family="Helvetica,sans-Serif" font-size="11.00" fill="#000000">unknown[0]</text>
<polygon fill="none" stroke="#000000" points="434.5,-81.2 434.5,-103.2 575.5,-103.2 575.5,-81.2 434.5,-81.2"/>
<text text-anchor="start" x="454.5" y="-88.3" font-family="Helvetica,sans-Serif" font-size="11.00" fill="#000000">incidence_rate</text>
<polygon fill="none" stroke="#000000" points="575.5,-81.2 575.5,-103.2 637.5,-103.2 637.5,-81.2 575.5,-81.2"/>
<text text-anchor="start" x="578.378" y="-88.9" font-family="Helvetica,sans-Serif" font-size="11.00" fill="#000000">unknown[0]</text>
<polygon fill="none" stroke="#000000" points="434.5,-59.2 434.5,-81.2 575.5,-81.2 575.5,-59.2 434.5,-59.2"/>
<text text-anchor="start" x="454.5" y="-66.3" font-family="Helvetica,sans-Serif" font-size="11.00" fill="#000000">person_years</text>
<polygon fill="none" stroke="#000000" points="575.5,-59.2 575.5,-81.2 637.5,-81.2 637.5,-59.2 575.5,-59.2"/>
<text text-anchor="start" x="578.378" y="-66.9" font-family="Helvetica,sans-Serif" font-size="11.00" fill="#000000">unknown[0]</text>
<polygon fill="#ffffff" stroke="transparent" points="434.5,-40.2 434.5,-59.2 496.5,-59.2 496.5,-40.2 434.5,-40.2"/>
<polygon fill="none" stroke="#000000" points="434.5,-40.2 434.5,-59.2 496.5,-59.2 496.5,-40.2 434.5,-40.2"/>
<text text-anchor="start" x="437.5" y="-46.3" font-family="Helvetica,sans-Serif" font-size="11.00" fill="#000000">&lt; 2</text>
<polygon fill="#ffffff" stroke="transparent" points="496.5,-40.2 496.5,-59.2 575.5,-59.2 575.5,-40.2 496.5,-40.2"/>
<polygon fill="none" stroke="#000000" points="496.5,-40.2 496.5,-59.2 575.5,-59.2 575.5,-40.2 496.5,-40.2"/>
<text text-anchor="start" x="540.1105" y="-46.3" font-family="Helvetica,sans-Serif" font-size="11.00" fill="#000000">0 rows</text>
<polygon fill="#ffffff" stroke="transparent" points="575.5,-40.2 575.5,-59.2 637.5,-59.2 637.5,-40.2 575.5,-40.2"/>
<polygon fill="none" stroke="#000000" points="575.5,-40.2 575.5,-59.2 637.5,-59.2 637.5,-40.2 575.5,-40.2"/>
<text text-anchor="start" x="618.9053" y="-46.3" font-family="Helvetica,sans-Serif" font-size="11.00" fill="#000000">0 &gt;</text>
<polygon fill="none" stroke="#000000" stroke-width="2" points="433,-39.2 433,-259.2 638,-259.2 638,-39.2 433,-39.2"/>
</a>
</g>
</g>
<!-- cd_incidence_rate&#45;&gt;cd_cohort_count -->
<g id="edge2" class="edge">
<title>cd_incidence_rate:w&#45;&gt;cd_cohort_count:e</title>
<path fill="none" stroke="#000000" d="M420.0156,-158.2C407.6771,-158.2 400.1667,-158.2 383,-158.2"/>
<polygon fill="#000000" stroke="#000000" points="426.5,-158.2001 434.5,-161.8 430.5,-158.2 434.5,-158.2 434.5,-158.2 434.5,-158.2 430.5,-158.2 434.5,-154.6 426.5,-158.2001 426.5,-158.2001"/>
<ellipse fill="none" stroke="#000000" cx="423.3" cy="-158.2001" rx="3.2" ry="3.2"/>
</g>
<!-- cd_incidence_rate&#45;&gt;cd_cohort_count -->
<g id="edge3" class="edge">
<title>cd_incidence_rate:w&#45;&gt;cd_cohort_count:e</title>
<path fill="none" stroke="#000000" d="M420.0156,-136.2C407.6771,-136.2 400.1667,-136.2 383,-136.2"/>
<polygon fill="#000000" stroke="#000000" points="426.5,-136.2001 434.5,-139.8 430.5,-136.2 434.5,-136.2 434.5,-136.2 434.5,-136.2 430.5,-136.2 434.5,-132.6 426.5,-136.2001 426.5,-136.2001"/>
<ellipse fill="none" stroke="#000000" cx="423.3" cy="-136.2001" rx="3.2" ry="3.2"/>
</g>
</g>
</svg>
