<?xml version="1.0" encoding="UTF-8" standalone="no"?>
<!DOCTYPE svg PUBLIC "-//W3C//DTD SVG 1.1//EN"
 "http://www.w3.org/Graphics/SVG/1.1/DTD/svg11.dtd">
<!-- Generated by graphviz version 2.40.1 (20161225.0304)
 -->
<!-- Title: oneDegreeRelationshipsDiagram Pages: 1 -->
<svg width="470pt" height="261pt"
 viewBox="0.00 0.00 470.00 260.70" xmlns="http://www.w3.org/2000/svg" xmlns:xlink="http://www.w3.org/1999/xlink">
<g id="graph0" class="graph" transform="scale(1 1) rotate(0) translate(4 256.7)">
<title>oneDegreeRelationshipsDiagram</title>
<polygon fill="#ffffff" stroke="transparent" points="-4,4 -4,-256.7 466,-256.7 466,4 -4,4"/>
<text text-anchor="middle" x="72.4936" y="-7.3" font-family="Helvetica,sans-Serif" font-size="11.00" fill="#000000">Generated by SchemaSpy</text>
<!-- cd_orphan_concept -->
<g id="node1" class="node">
<title>cd_orphan_concept</title>
<g id="a_node1"><a xlink:href="../../tables/cd_orphan_concept.html" xlink:title="cd_orphan_concept" target="_top">
<polygon fill="#ffffff" stroke="transparent" points="238,-70.7 238,-248.7 454,-248.7 454,-70.7 238,-70.7"/>
<polygon fill="#f5f5f5" stroke="transparent" points="240,-223.7 240,-246.7 452,-246.7 452,-223.7 240,-223.7"/>
<polygon fill="none" stroke="#000000" points="240,-223.7 240,-246.7 452,-246.7 452,-223.7 240,-223.7"/>
<text text-anchor="start" x="245" y="-232.3" font-family="Helvetica,sans-Serif" font-weight="bold" font-size="11.00" fill="#000000">cd_orphan_concept</text>
<text text-anchor="start" x="417.0437" y="-231.8" font-family="Helvetica,sans-Serif" font-size="11.00" fill="#000000">[table]</text>
<polygon fill="none" stroke="#000000" points="240,-201.7 240,-223.7 390,-223.7 390,-201.7 240,-201.7"/>
<image xlink:href="../../images/foreignKeys.png" width="11px" height="12px" preserveAspectRatio="xMinYMin meet" x="245" y="-218.7"/>
<text text-anchor="start" x="260" y="-208.8" font-family="Helvetica,sans-Serif" font-size="11.00" fill="#000000">cohort_id</text>
<polygon fill="none" stroke="#000000" points="390,-201.7 390,-223.7 452,-223.7 452,-201.7 390,-201.7"/>
<text text-anchor="start" x="392.878" y="-209.4" font-family="Helvetica,sans-Serif" font-size="11.00" fill="#000000">unknown[0]</text>
<polygon fill="none" stroke="#000000" points="240,-179.7 240,-201.7 390,-201.7 390,-179.7 240,-179.7"/>
<text text-anchor="start" x="260" y="-186.8" font-family="Helvetica,sans-Serif" font-size="11.00" fill="#000000">concept_count</text>
<polygon fill="none" stroke="#000000" points="390,-179.7 390,-201.7 452,-201.7 452,-179.7 390,-179.7"/>
<text text-anchor="start" x="392.878" y="-187.4" font-family="Helvetica,sans-Serif" font-size="11.00" fill="#000000">unknown[0]</text>
<polygon fill="none" stroke="#000000" points="240,-157.7 240,-179.7 390,-179.7 390,-157.7 240,-157.7"/>
<image xlink:href="../../images/foreignKeys.png" width="11px" height="12px" preserveAspectRatio="xMinYMin meet" x="245" y="-174.7"/>
<text text-anchor="start" x="260" y="-164.8" font-family="Helvetica,sans-Serif" font-size="11.00" fill="#000000">concept_id</text>
<polygon fill="none" stroke="#000000" points="390,-157.7 390,-179.7 452,-179.7 452,-157.7 390,-157.7"/>
<text text-anchor="start" x="392.878" y="-165.4" font-family="Helvetica,sans-Serif" font-size="11.00" fill="#000000">unknown[0]</text>
<polygon fill="none" stroke="#000000" points="240,-135.7 240,-157.7 390,-157.7 390,-135.7 240,-135.7"/>
<image xlink:href="../../images/foreignKeys.png" width="11px" height="12px" preserveAspectRatio="xMinYMin meet" x="245" y="-152.7"/>
<text text-anchor="start" x="260" y="-142.8" font-family="Helvetica,sans-Serif" font-size="11.00" fill="#000000">concept_set_id</text>
<polygon fill="none" stroke="#000000" points="390,-135.7 390,-157.7 452,-157.7 452,-135.7 390,-135.7"/>
<text text-anchor="start" x="392.878" y="-143.4" font-family="Helvetica,sans-Serif" font-size="11.00" fill="#000000">unknown[0]</text>
<polygon fill="none" stroke="#000000" points="240,-113.7 240,-135.7 390,-135.7 390,-113.7 240,-113.7"/>
<text text-anchor="start" x="260" y="-120.8" font-family="Helvetica,sans-Serif" font-size="11.00" fill="#000000">concept_subjects</text>
<polygon fill="none" stroke="#000000" points="390,-113.7 390,-135.7 452,-135.7 452,-113.7 390,-113.7"/>
<text text-anchor="start" x="392.878" y="-121.4" font-family="Helvetica,sans-Serif" font-size="11.00" fill="#000000">unknown[0]</text>
<polygon fill="none" stroke="#000000" points="240,-91.7 240,-113.7 390,-113.7 390,-91.7 240,-91.7"/>
<text text-anchor="start" x="260" y="-98.8" font-family="Helvetica,sans-Serif" font-size="11.00" fill="#000000">database_id</text>
<polygon fill="none" stroke="#000000" points="390,-91.7 390,-113.7 452,-113.7 452,-91.7 390,-91.7"/>
<text text-anchor="start" x="392.878" y="-99.4" font-family="Helvetica,sans-Serif" font-size="11.00" fill="#000000">unknown[0]</text>
<polygon fill="#ffffff" stroke="transparent" points="240,-72.7 240,-91.7 306,-91.7 306,-72.7 240,-72.7"/>
<polygon fill="none" stroke="#000000" points="240,-72.7 240,-91.7 306,-91.7 306,-72.7 240,-72.7"/>
<text text-anchor="start" x="243" y="-78.8" font-family="Helvetica,sans-Serif" font-size="11.00" fill="#000000">&lt; 3</text>
<polygon fill="#ffffff" stroke="transparent" points="306,-72.7 306,-91.7 390,-91.7 390,-72.7 306,-72.7"/>
<polygon fill="none" stroke="#000000" points="306,-72.7 306,-91.7 390,-91.7 390,-72.7 306,-72.7"/>
<text text-anchor="start" x="354.6105" y="-78.8" font-family="Helvetica,sans-Serif" font-size="11.00" fill="#000000">0 rows</text>
<polygon fill="#ffffff" stroke="transparent" points="390,-72.7 390,-91.7 452,-91.7 452,-72.7 390,-72.7"/>
<polygon fill="none" stroke="#000000" points="390,-72.7 390,-91.7 452,-91.7 452,-72.7 390,-72.7"/>
<text text-anchor="start" x="433.4053" y="-78.8" font-family="Helvetica,sans-Serif" font-size="11.00" fill="#000000">0 &gt;</text>
<polygon fill="none" stroke="#000000" stroke-width="2" points="239,-71.7 239,-247.7 453,-247.7 453,-71.7 239,-71.7"/>
</a>
</g>
</g>
<!-- cd_concept_sets -->
<g id="node2" class="node">
<title>cd_concept_sets</title>
<g id="a_node2"><a xlink:href="../../tables/cd_concept_sets.html" xlink:title="cd_concept_sets" target="_top">
<polygon fill="#ffffff" stroke="transparent" points="8,-142.2 8,-247.2 189,-247.2 189,-142.2 8,-142.2"/>
<polygon fill="#f5f5f5" stroke="transparent" points="8.5,-223.7 8.5,-246.7 189.5,-246.7 189.5,-223.7 8.5,-223.7"/>
<polygon fill="none" stroke="#000000" points="8.5,-223.7 8.5,-246.7 189.5,-246.7 189.5,-223.7 8.5,-223.7"/>
<text text-anchor="start" x="13.5" y="-232.3" font-family="Helvetica,sans-Serif" font-weight="bold" font-size="11.00" fill="#000000">cd_concept_sets</text>
<text text-anchor="start" x="154.5437" y="-231.8" font-family="Helvetica,sans-Serif" font-size="11.00" fill="#000000">[table]</text>
<polygon fill="none" stroke="#000000" points="8.5,-201.7 8.5,-223.7 189.5,-223.7 189.5,-201.7 8.5,-201.7"/>
<image xlink:href="../../images/primaryKeys.png" width="11px" height="12px" preserveAspectRatio="xMinYMin meet" x="13.5" y="-218.7"/>
<text text-anchor="start" x="28.5" y="-208.8" font-family="Helvetica,sans-Serif" font-size="11.00" fill="#000000">cohort_id</text>
<polygon fill="none" stroke="#000000" points="8.5,-179.7 8.5,-201.7 189.5,-201.7 189.5,-179.7 8.5,-179.7"/>
<image xlink:href="../../images/primaryKeys.png" width="11px" height="12px" preserveAspectRatio="xMinYMin meet" x="13.5" y="-196.7"/>
<text text-anchor="start" x="28.5" y="-186.8" font-family="Helvetica,sans-Serif" font-size="11.00" fill="#000000">concept_set_id</text>
<polygon fill="none" stroke="#000000" points="8.5,-160.7 8.5,-179.7 189.5,-179.7 189.5,-160.7 8.5,-160.7"/>
<text text-anchor="start" x="11.5" y="-166.8" font-family="Helvetica,sans-Serif" font-size="11.00" fill="#000000">...</text>
<polygon fill="#ffffff" stroke="transparent" points="8.5,-141.7 8.5,-160.7 75.5,-160.7 75.5,-141.7 8.5,-141.7"/>
<polygon fill="none" stroke="#000000" points="8.5,-141.7 8.5,-160.7 75.5,-160.7 75.5,-141.7 8.5,-141.7"/>
<text text-anchor="start" x="11.5" y="-147.8" font-family="Helvetica,sans-Serif" font-size="11.00" fill="#000000"> &#160;</text>
<polygon fill="#ffffff" stroke="transparent" points="75.5,-141.7 75.5,-160.7 140.5,-160.7 140.5,-141.7 75.5,-141.7"/>
<polygon fill="none" stroke="#000000" points="75.5,-141.7 75.5,-160.7 140.5,-160.7 140.5,-141.7 75.5,-141.7"/>
<text text-anchor="start" x="105.1105" y="-147.8" font-family="Helvetica,sans-Serif" font-size="11.00" fill="#000000">0 rows</text>
<polygon fill="#ffffff" stroke="transparent" points="140.5,-141.7 140.5,-160.7 189.5,-160.7 189.5,-141.7 140.5,-141.7"/>
<polygon fill="none" stroke="#000000" points="140.5,-141.7 140.5,-160.7 189.5,-160.7 189.5,-141.7 140.5,-141.7"/>
<text text-anchor="start" x="170.9053" y="-147.8" font-family="Helvetica,sans-Serif" font-size="11.00" fill="#000000">2 &gt;</text>
</a>
</g>
</g>
<!-- cd_orphan_concept&#45;&gt;cd_concept_sets -->
<g id="edge1" class="edge">
<title>cd_orphan_concept:w&#45;&gt;cd_concept_sets:e</title>
<path fill="none" stroke="#000000" d="M225.4203,-212.7C213.5435,-212.7 206.158,-212.7 189.5,-212.7"/>
<polygon fill="#000000" stroke="#000000" points="232,-212.7001 240,-216.3 236,-212.7 240,-212.7 240,-212.7 240,-212.7 236,-212.7 240,-209.1 232,-212.7001 232,-212.7001"/>
<ellipse fill="none" stroke="#000000" cx="228.8" cy="-212.7001" rx="3.2" ry="3.2"/>
</g>
<!-- cd_orphan_concept&#45;&gt;cd_concept_sets -->
<g id="edge3" class="edge">
<title>cd_orphan_concept:w&#45;&gt;cd_concept_sets:e</title>
<path fill="none" stroke="#000000" d="M226.0126,-151.4088C212.3016,-162.7596 213.2219,-190.7 189.5,-190.7"/>
<polygon fill="#000000" stroke="#000000" points="232.4181,-149.2524 241.1486,-150.1119 236.209,-147.9762 240,-146.7 240,-146.7 240,-146.7 236.209,-147.9762 238.8514,-143.2881 232.4181,-149.2524 232.4181,-149.2524"/>
<ellipse fill="none" stroke="#000000" cx="229.3853" cy="-150.2734" rx="3.2" ry="3.2"/>
</g>
<!-- cd_concept -->
<g id="node3" class="node">
<title>cd_concept</title>
<g id="a_node3"><a xlink:href="../../tables/cd_concept.html" xlink:title="cd_concept" target="_top">
<polygon fill="#ffffff" stroke="transparent" points="28,-38.2 28,-121.2 169,-121.2 169,-38.2 28,-38.2"/>
<polygon fill="#f5f5f5" stroke="transparent" points="28.5,-97.7 28.5,-120.7 169.5,-120.7 169.5,-97.7 28.5,-97.7"/>
<polygon fill="none" stroke="#000000" points="28.5,-97.7 28.5,-120.7 169.5,-120.7 169.5,-97.7 28.5,-97.7"/>
<text text-anchor="start" x="33.5" y="-106.3" font-family="Helvetica,sans-Serif" font-weight="bold" font-size="11.00" fill="#000000">cd_concept</text>
<text text-anchor="start" x="134.5437" y="-105.8" font-family="Helvetica,sans-Serif" font-size="11.00" fill="#000000">[table]</text>
<polygon fill="none" stroke="#000000" points="28.5,-75.7 28.5,-97.7 169.5,-97.7 169.5,-75.7 28.5,-75.7"/>
<image xlink:href="../../images/primaryKeys.png" width="11px" height="12px" preserveAspectRatio="xMinYMin meet" x="33.5" y="-92.7"/>
<text text-anchor="start" x="48.5" y="-82.8" font-family="Helvetica,sans-Serif" font-size="11.00" fill="#000000">concept_id</text>
<polygon fill="none" stroke="#000000" points="28.5,-56.7 28.5,-75.7 169.5,-75.7 169.5,-56.7 28.5,-56.7"/>
<text text-anchor="start" x="31.5" y="-62.8" font-family="Helvetica,sans-Serif" font-size="11.00" fill="#000000">...</text>
<polygon fill="#ffffff" stroke="transparent" points="28.5,-37.7 28.5,-56.7 75.5,-56.7 75.5,-37.7 28.5,-37.7"/>
<polygon fill="none" stroke="#000000" points="28.5,-37.7 28.5,-56.7 75.5,-56.7 75.5,-37.7 28.5,-37.7"/>
<text text-anchor="start" x="31.5" y="-43.8" font-family="Helvetica,sans-Serif" font-size="11.00" fill="#000000"> &#160;</text>
<polygon fill="#ffffff" stroke="transparent" points="75.5,-37.7 75.5,-56.7 130.5,-56.7 130.5,-37.7 75.5,-37.7"/>
<polygon fill="none" stroke="#000000" points="75.5,-37.7 75.5,-56.7 130.5,-56.7 130.5,-37.7 75.5,-37.7"/>
<text text-anchor="start" x="95.1105" y="-43.8" font-family="Helvetica,sans-Serif" font-size="11.00" fill="#000000">0 rows</text>
<polygon fill="#ffffff" stroke="transparent" points="130.5,-37.7 130.5,-56.7 169.5,-56.7 169.5,-37.7 130.5,-37.7"/>
<polygon fill="none" stroke="#000000" points="130.5,-37.7 130.5,-56.7 169.5,-56.7 169.5,-37.7 130.5,-37.7"/>
<text text-anchor="start" x="150.9053" y="-43.8" font-family="Helvetica,sans-Serif" font-size="11.00" fill="#000000">3 &gt;</text>
</a>
</g>
</g>
<!-- cd_orphan_concept&#45;&gt;cd_concept -->
<g id="edge2" class="edge">
<title>cd_orphan_concept:w&#45;&gt;cd_concept:e</title>
<path fill="none" stroke="#000000" d="M225.9018,-165.5856C196.9316,-150.6073 211.9299,-86.7 169.5,-86.7"/>
<polygon fill="#000000" stroke="#000000" points="232.1883,-166.9743 239.2234,-172.2153 236.0942,-167.8372 240,-168.7 240,-168.7 240,-168.7 236.0942,-167.8372 240.7766,-165.1847 232.1883,-166.9743 232.1883,-166.9743"/>
<ellipse fill="none" stroke="#000000" cx="229.0637" cy="-166.2841" rx="3.2" ry="3.2"/>
</g>
</g>
</svg>
