<?xml version="1.0" encoding="UTF-8" standalone="no"?>
<!DOCTYPE svg PUBLIC "-//W3C//DTD SVG 1.1//EN"
 "http://www.w3.org/Graphics/SVG/1.1/DTD/svg11.dtd">
<!-- Generated by graphviz version 2.40.1 (20161225.0304)
 -->
<!-- Title: twoDegreesRelationshipsDiagram Pages: 1 -->
<svg width="483pt" height="393pt"
 viewBox="0.00 0.00 483.00 392.70" xmlns="http://www.w3.org/2000/svg" xmlns:xlink="http://www.w3.org/1999/xlink">
<g id="graph0" class="graph" transform="scale(1 1) rotate(0) translate(4 388.7)">
<title>twoDegreesRelationshipsDiagram</title>
<polygon fill="#ffffff" stroke="transparent" points="-4,4 -4,-388.7 479,-388.7 479,4 -4,4"/>
<text text-anchor="middle" x="72.4936" y="-7.3" font-family="Helvetica,sans-Serif" font-size="11.00" fill="#000000">Generated by SchemaSpy</text>
<!-- cd_included_source_concept -->
<g id="node1" class="node">
<title>cd_included_source_concept</title>
<g id="a_node1"><a xlink:href="../../tables/cd_included_source_concept.html" xlink:title="cd_included_source_concept" target="_top">
<polygon fill="#ffffff" stroke="transparent" points="238,-237.7 238,-298.7 467,-298.7 467,-237.7 238,-237.7"/>
<polygon fill="#f5f5f5" stroke="transparent" points="238.5,-275.2 238.5,-298.2 467.5,-298.2 467.5,-275.2 238.5,-275.2"/>
<polygon fill="none" stroke="#000000" points="238.5,-275.2 238.5,-298.2 467.5,-298.2 467.5,-275.2 238.5,-275.2"/>
<text text-anchor="start" x="243.5" y="-283.8" font-family="Helvetica,sans-Serif" font-weight="bold" font-size="11.00" fill="#000000">cd_included_source_concept</text>
<text text-anchor="start" x="433.0219" y="-283.3" font-family="Helvetica,sans-Serif" font-size="11.00" fill="#000000">[table]</text>
<polygon fill="none" stroke="#000000" points="238.5,-256.2 238.5,-275.2 467.5,-275.2 467.5,-256.2 238.5,-256.2"/>
<text text-anchor="start" x="241.5" y="-262.3" font-family="Helvetica,sans-Serif" font-size="11.00" fill="#000000">...</text>
<polygon fill="#ffffff" stroke="transparent" points="238.5,-237.2 238.5,-256.2 338.5,-256.2 338.5,-237.2 238.5,-237.2"/>
<polygon fill="none" stroke="#000000" points="238.5,-237.2 238.5,-256.2 338.5,-256.2 338.5,-237.2 238.5,-237.2"/>
<text text-anchor="start" x="241.5" y="-243.3" font-family="Helvetica,sans-Serif" font-size="11.00" fill="#000000">&lt; 1</text>
<polygon fill="#ffffff" stroke="transparent" points="338.5,-237.2 338.5,-256.2 415.5,-256.2 415.5,-237.2 338.5,-237.2"/>
<polygon fill="none" stroke="#000000" points="338.5,-237.2 338.5,-256.2 415.5,-256.2 415.5,-237.2 338.5,-237.2"/>
<text text-anchor="start" x="380.1105" y="-243.3" font-family="Helvetica,sans-Serif" font-size="11.00" fill="#000000">0 rows</text>
<polygon fill="#ffffff" stroke="transparent" points="415.5,-237.2 415.5,-256.2 467.5,-256.2 467.5,-237.2 415.5,-237.2"/>
<polygon fill="none" stroke="#000000" points="415.5,-237.2 415.5,-256.2 467.5,-256.2 467.5,-237.2 415.5,-237.2"/>
<text text-anchor="start" x="458.3862" y="-243.3" font-family="Helvetica,sans-Serif" font-size="11.00" fill="#000000"> &#160;</text>
</a>
</g>
</g>
<!-- cd_concept -->
<g id="node2" class="node">
<title>cd_concept</title>
<g id="a_node2"><a xlink:href="../../tables/cd_concept.html" xlink:title="cd_concept" target="_top">
<polygon fill="#ffffff" stroke="transparent" points="28,-216.7 28,-299.7 169,-299.7 169,-216.7 28,-216.7"/>
<polygon fill="#f5f5f5" stroke="transparent" points="28.5,-276.2 28.5,-299.2 169.5,-299.2 169.5,-276.2 28.5,-276.2"/>
<polygon fill="none" stroke="#000000" points="28.5,-276.2 28.5,-299.2 169.5,-299.2 169.5,-276.2 28.5,-276.2"/>
<text text-anchor="start" x="33.5" y="-284.8" font-family="Helvetica,sans-Serif" font-weight="bold" font-size="11.00" fill="#000000">cd_concept</text>
<text text-anchor="start" x="134.5437" y="-284.3" font-family="Helvetica,sans-Serif" font-size="11.00" fill="#000000">[table]</text>
<polygon fill="none" stroke="#000000" points="28.5,-254.2 28.5,-276.2 169.5,-276.2 169.5,-254.2 28.5,-254.2"/>
<image xlink:href="../../images/primaryKeys.png" width="11px" height="12px" preserveAspectRatio="xMinYMin meet" x="33.5" y="-271.2"/>
<text text-anchor="start" x="48.5" y="-261.3" font-family="Helvetica,sans-Serif" font-size="11.00" fill="#000000">concept_id</text>
<polygon fill="none" stroke="#000000" points="28.5,-235.2 28.5,-254.2 169.5,-254.2 169.5,-235.2 28.5,-235.2"/>
<text text-anchor="start" x="31.5" y="-241.3" font-family="Helvetica,sans-Serif" font-size="11.00" fill="#000000">...</text>
<polygon fill="#ffffff" stroke="transparent" points="28.5,-216.2 28.5,-235.2 75.5,-235.2 75.5,-216.2 28.5,-216.2"/>
<polygon fill="none" stroke="#000000" points="28.5,-216.2 28.5,-235.2 75.5,-235.2 75.5,-216.2 28.5,-216.2"/>
<text text-anchor="start" x="31.5" y="-222.3" font-family="Helvetica,sans-Serif" font-size="11.00" fill="#000000"> &#160;</text>
<polygon fill="#ffffff" stroke="transparent" points="75.5,-216.2 75.5,-235.2 130.5,-235.2 130.5,-216.2 75.5,-216.2"/>
<polygon fill="none" stroke="#000000" points="75.5,-216.2 75.5,-235.2 130.5,-235.2 130.5,-216.2 75.5,-216.2"/>
<text text-anchor="start" x="95.1105" y="-222.3" font-family="Helvetica,sans-Serif" font-size="11.00" fill="#000000">0 rows</text>
<polygon fill="#ffffff" stroke="transparent" points="130.5,-216.2 130.5,-235.2 169.5,-235.2 169.5,-216.2 130.5,-216.2"/>
<polygon fill="none" stroke="#000000" points="130.5,-216.2 130.5,-235.2 169.5,-235.2 169.5,-216.2 130.5,-216.2"/>
<text text-anchor="start" x="150.9053" y="-222.3" font-family="Helvetica,sans-Serif" font-size="11.00" fill="#000000">3 &gt;</text>
</a>
</g>
</g>
<!-- cd_included_source_concept&#45;&gt;cd_concept -->
<g id="edge1" class="edge">
<title>cd_included_source_concept:w&#45;&gt;cd_concept:e</title>
<path fill="none" stroke="#000000" d="M223.9297,-265.2C204.3355,-265.2 194.6563,-265.2 169.5,-265.2"/>
<polygon fill="#000000" stroke="#000000" points="230.5,-265.2001 238.5,-268.8 234.5,-265.2 238.5,-265.2 238.5,-265.2 238.5,-265.2 234.5,-265.2 238.5,-261.6 230.5,-265.2001 230.5,-265.2001"/>
<ellipse fill="none" stroke="#000000" cx="227.3" cy="-265.2001" rx="3.2" ry="3.2"/>
</g>
<!-- cd_index_event_breakdown -->
<g id="node3" class="node">
<title>cd_index_event_breakdown</title>
<g id="a_node3"><a xlink:href="../../tables/cd_index_event_breakdown.html" xlink:title="cd_index_event_breakdown" target="_top">
<polygon fill="#ffffff" stroke="transparent" points="241,-319.7 241,-380.7 464,-380.7 464,-319.7 241,-319.7"/>
<polygon fill="#f5f5f5" stroke="transparent" points="241.5,-357.2 241.5,-380.2 464.5,-380.2 464.5,-357.2 241.5,-357.2"/>
<polygon fill="none" stroke="#000000" points="241.5,-357.2 241.5,-380.2 464.5,-380.2 464.5,-357.2 241.5,-357.2"/>
<text text-anchor="start" x="246.5" y="-365.8" font-family="Helvetica,sans-Serif" font-weight="bold" font-size="11.00" fill="#000000">cd_index_event_breakdown</text>
<text text-anchor="start" x="430.0219" y="-365.3" font-family="Helvetica,sans-Serif" font-size="11.00" fill="#000000">[table]</text>
<polygon fill="none" stroke="#000000" points="241.5,-338.2 241.5,-357.2 464.5,-357.2 464.5,-338.2 241.5,-338.2"/>
<text text-anchor="start" x="244.5" y="-344.3" font-family="Helvetica,sans-Serif" font-size="11.00" fill="#000000">...</text>
<polygon fill="#ffffff" stroke="transparent" points="241.5,-319.2 241.5,-338.2 338.5,-338.2 338.5,-319.2 241.5,-319.2"/>
<polygon fill="none" stroke="#000000" points="241.5,-319.2 241.5,-338.2 338.5,-338.2 338.5,-319.2 241.5,-319.2"/>
<text text-anchor="start" x="244.5" y="-325.3" font-family="Helvetica,sans-Serif" font-size="11.00" fill="#000000">&lt; 1</text>
<polygon fill="#ffffff" stroke="transparent" points="338.5,-319.2 338.5,-338.2 414.5,-338.2 414.5,-319.2 338.5,-319.2"/>
<polygon fill="none" stroke="#000000" points="338.5,-319.2 338.5,-338.2 414.5,-338.2 414.5,-319.2 338.5,-319.2"/>
<text text-anchor="start" x="379.1105" y="-325.3" font-family="Helvetica,sans-Serif" font-size="11.00" fill="#000000">0 rows</text>
<polygon fill="#ffffff" stroke="transparent" points="414.5,-319.2 414.5,-338.2 464.5,-338.2 464.5,-319.2 414.5,-319.2"/>
<polygon fill="none" stroke="#000000" points="414.5,-319.2 414.5,-338.2 464.5,-338.2 464.5,-319.2 414.5,-319.2"/>
<text text-anchor="start" x="455.3862" y="-325.3" font-family="Helvetica,sans-Serif" font-size="11.00" fill="#000000"> &#160;</text>
</a>
</g>
</g>
<!-- cd_index_event_breakdown&#45;&gt;cd_concept -->
<g id="edge2" class="edge">
<title>cd_index_event_breakdown:w&#45;&gt;cd_concept:e</title>
<path fill="none" stroke="#000000" d="M227.2409,-344.0856C197.8503,-329.1073 212.3159,-265.2 169.5,-265.2"/>
<polygon fill="#000000" stroke="#000000" points="233.6842,-345.4929 240.7318,-350.7171 237.5921,-346.3465 241.5,-347.2 241.5,-347.2 241.5,-347.2 237.5921,-346.3465 242.2682,-343.6829 233.6842,-345.4929 233.6842,-345.4929"/>
<ellipse fill="none" stroke="#000000" cx="230.5579" cy="-344.8101" rx="3.2" ry="3.2"/>
</g>
<!-- cd_orphan_concept -->
<g id="node4" class="node">
<title>cd_orphan_concept</title>
<g id="a_node4"><a xlink:href="../../tables/cd_orphan_concept.html" xlink:title="cd_orphan_concept" target="_top">
<polygon fill="#ffffff" stroke="transparent" points="244.5,-38.2 244.5,-216.2 460.5,-216.2 460.5,-38.2 244.5,-38.2"/>
<polygon fill="#f5f5f5" stroke="transparent" points="246.5,-191.2 246.5,-214.2 458.5,-214.2 458.5,-191.2 246.5,-191.2"/>
<polygon fill="none" stroke="#000000" points="246.5,-191.2 246.5,-214.2 458.5,-214.2 458.5,-191.2 246.5,-191.2"/>
<text text-anchor="start" x="251.5" y="-199.8" font-family="Helvetica,sans-Serif" font-weight="bold" font-size="11.00" fill="#000000">cd_orphan_concept</text>
<text text-anchor="start" x="423.5437" y="-199.3" font-family="Helvetica,sans-Serif" font-size="11.00" fill="#000000">[table]</text>
<polygon fill="none" stroke="#000000" points="246.5,-169.2 246.5,-191.2 396.5,-191.2 396.5,-169.2 246.5,-169.2"/>
<image xlink:href="../../images/foreignKeys.png" width="11px" height="12px" preserveAspectRatio="xMinYMin meet" x="251.5" y="-186.2"/>
<text text-anchor="start" x="266.5" y="-176.3" font-family="Helvetica,sans-Serif" font-size="11.00" fill="#000000">cohort_id</text>
<polygon fill="none" stroke="#000000" points="396.5,-169.2 396.5,-191.2 458.5,-191.2 458.5,-169.2 396.5,-169.2"/>
<text text-anchor="start" x="399.378" y="-176.9" font-family="Helvetica,sans-Serif" font-size="11.00" fill="#000000">unknown[0]</text>
<polygon fill="none" stroke="#000000" points="246.5,-147.2 246.5,-169.2 396.5,-169.2 396.5,-147.2 246.5,-147.2"/>
<text text-anchor="start" x="266.5" y="-154.3" font-family="Helvetica,sans-Serif" font-size="11.00" fill="#000000">concept_count</text>
<polygon fill="none" stroke="#000000" points="396.5,-147.2 396.5,-169.2 458.5,-169.2 458.5,-147.2 396.5,-147.2"/>
<text text-anchor="start" x="399.378" y="-154.9" font-family="Helvetica,sans-Serif" font-size="11.00" fill="#000000">unknown[0]</text>
<polygon fill="none" stroke="#000000" points="246.5,-125.2 246.5,-147.2 396.5,-147.2 396.5,-125.2 246.5,-125.2"/>
<image xlink:href="../../images/foreignKeys.png" width="11px" height="12px" preserveAspectRatio="xMinYMin meet" x="251.5" y="-142.2"/>
<text text-anchor="start" x="266.5" y="-132.3" font-family="Helvetica,sans-Serif" font-size="11.00" fill="#000000">concept_id</text>
<polygon fill="none" stroke="#000000" points="396.5,-125.2 396.5,-147.2 458.5,-147.2 458.5,-125.2 396.5,-125.2"/>
<text text-anchor="start" x="399.378" y="-132.9" font-family="Helvetica,sans-Serif" font-size="11.00" fill="#000000">unknown[0]</text>
<polygon fill="none" stroke="#000000" points="246.5,-103.2 246.5,-125.2 396.5,-125.2 396.5,-103.2 246.5,-103.2"/>
<image xlink:href="../../images/foreignKeys.png" width="11px" height="12px" preserveAspectRatio="xMinYMin meet" x="251.5" y="-120.2"/>
<text text-anchor="start" x="266.5" y="-110.3" font-family="Helvetica,sans-Serif" font-size="11.00" fill="#000000">concept_set_id</text>
<polygon fill="none" stroke="#000000" points="396.5,-103.2 396.5,-125.2 458.5,-125.2 458.5,-103.2 396.5,-103.2"/>
<text text-anchor="start" x="399.378" y="-110.9" font-family="Helvetica,sans-Serif" font-size="11.00" fill="#000000">unknown[0]</text>
<polygon fill="none" stroke="#000000" points="246.5,-81.2 246.5,-103.2 396.5,-103.2 396.5,-81.2 246.5,-81.2"/>
<text text-anchor="start" x="266.5" y="-88.3" font-family="Helvetica,sans-Serif" font-size="11.00" fill="#000000">concept_subjects</text>
<polygon fill="none" stroke="#000000" points="396.5,-81.2 396.5,-103.2 458.5,-103.2 458.5,-81.2 396.5,-81.2"/>
<text text-anchor="start" x="399.378" y="-88.9" font-family="Helvetica,sans-Serif" font-size="11.00" fill="#000000">unknown[0]</text>
<polygon fill="none" stroke="#000000" points="246.5,-59.2 246.5,-81.2 396.5,-81.2 396.5,-59.2 246.5,-59.2"/>
<text text-anchor="start" x="266.5" y="-66.3" font-family="Helvetica,sans-Serif" font-size="11.00" fill="#000000">database_id</text>
<polygon fill="none" stroke="#000000" points="396.5,-59.2 396.5,-81.2 458.5,-81.2 458.5,-59.2 396.5,-59.2"/>
<text text-anchor="start" x="399.378" y="-66.9" font-family="Helvetica,sans-Serif" font-size="11.00" fill="#000000">unknown[0]</text>
<polygon fill="#ffffff" stroke="transparent" points="246.5,-40.2 246.5,-59.2 312.5,-59.2 312.5,-40.2 246.5,-40.2"/>
<polygon fill="none" stroke="#000000" points="246.5,-40.2 246.5,-59.2 312.5,-59.2 312.5,-40.2 246.5,-40.2"/>
<text text-anchor="start" x="249.5" y="-46.3" font-family="Helvetica,sans-Serif" font-size="11.00" fill="#000000">&lt; 3</text>
<polygon fill="#ffffff" stroke="transparent" points="312.5,-40.2 312.5,-59.2 396.5,-59.2 396.5,-40.2 312.5,-40.2"/>
<polygon fill="none" stroke="#000000" points="312.5,-40.2 312.5,-59.2 396.5,-59.2 396.5,-40.2 312.5,-40.2"/>
<text text-anchor="start" x="361.1105" y="-46.3" font-family="Helvetica,sans-Serif" font-size="11.00" fill="#000000">0 rows</text>
<polygon fill="#ffffff" stroke="transparent" points="396.5,-40.2 396.5,-59.2 458.5,-59.2 458.5,-40.2 396.5,-40.2"/>
<polygon fill="none" stroke="#000000" points="396.5,-40.2 396.5,-59.2 458.5,-59.2 458.5,-40.2 396.5,-40.2"/>
<text text-anchor="start" x="439.9053" y="-46.3" font-family="Helvetica,sans-Serif" font-size="11.00" fill="#000000">0 &gt;</text>
<polygon fill="none" stroke="#000000" stroke-width="2" points="245.5,-39.2 245.5,-215.2 459.5,-215.2 459.5,-39.2 245.5,-39.2"/>
</a>
</g>
</g>
<!-- cd_orphan_concept&#45;&gt;cd_concept -->
<g id="edge4" class="edge">
<title>cd_orphan_concept:w&#45;&gt;cd_concept:e</title>
<path fill="none" stroke="#000000" d="M232.1402,-138.7768C188.357,-156.9581 230.6626,-265.2 169.5,-265.2"/>
<polygon fill="#000000" stroke="#000000" points="238.6258,-137.6131 247.1359,-139.7434 242.5629,-136.9065 246.5,-136.2 246.5,-136.2 246.5,-136.2 242.5629,-136.9065 245.8641,-132.6566 238.6258,-137.6131 238.6258,-137.6131"/>
<ellipse fill="none" stroke="#000000" cx="235.4761" cy="-138.1783" rx="3.2" ry="3.2"/>
</g>
<!-- cd_concept_sets -->
<g id="node5" class="node">
<title>cd_concept_sets</title>
<g id="a_node5"><a xlink:href="../../tables/cd_concept_sets.html" xlink:title="cd_concept_sets" target="_top">
<polygon fill="#ffffff" stroke="transparent" points="8,-78.7 8,-183.7 189,-183.7 189,-78.7 8,-78.7"/>
<polygon fill="#f5f5f5" stroke="transparent" points="8.5,-160.2 8.5,-183.2 189.5,-183.2 189.5,-160.2 8.5,-160.2"/>
<polygon fill="none" stroke="#000000" points="8.5,-160.2 8.5,-183.2 189.5,-183.2 189.5,-160.2 8.5,-160.2"/>
<text text-anchor="start" x="13.5" y="-168.8" font-family="Helvetica,sans-Serif" font-weight="bold" font-size="11.00" fill="#000000">cd_concept_sets</text>
<text text-anchor="start" x="154.5437" y="-168.3" font-family="Helvetica,sans-Serif" font-size="11.00" fill="#000000">[table]</text>
<polygon fill="none" stroke="#000000" points="8.5,-138.2 8.5,-160.2 189.5,-160.2 189.5,-138.2 8.5,-138.2"/>
<image xlink:href="../../images/primaryKeys.png" width="11px" height="12px" preserveAspectRatio="xMinYMin meet" x="13.5" y="-155.2"/>
<text text-anchor="start" x="28.5" y="-145.3" font-family="Helvetica,sans-Serif" font-size="11.00" fill="#000000">cohort_id</text>
<polygon fill="none" stroke="#000000" points="8.5,-116.2 8.5,-138.2 189.5,-138.2 189.5,-116.2 8.5,-116.2"/>
<image xlink:href="../../images/primaryKeys.png" width="11px" height="12px" preserveAspectRatio="xMinYMin meet" x="13.5" y="-133.2"/>
<text text-anchor="start" x="28.5" y="-123.3" font-family="Helvetica,sans-Serif" font-size="11.00" fill="#000000">concept_set_id</text>
<polygon fill="none" stroke="#000000" points="8.5,-97.2 8.5,-116.2 189.5,-116.2 189.5,-97.2 8.5,-97.2"/>
<text text-anchor="start" x="11.5" y="-103.3" font-family="Helvetica,sans-Serif" font-size="11.00" fill="#000000">...</text>
<polygon fill="#ffffff" stroke="transparent" points="8.5,-78.2 8.5,-97.2 75.5,-97.2 75.5,-78.2 8.5,-78.2"/>
<polygon fill="none" stroke="#000000" points="8.5,-78.2 8.5,-97.2 75.5,-97.2 75.5,-78.2 8.5,-78.2"/>
<text text-anchor="start" x="11.5" y="-84.3" font-family="Helvetica,sans-Serif" font-size="11.00" fill="#000000"> &#160;</text>
<polygon fill="#ffffff" stroke="transparent" points="75.5,-78.2 75.5,-97.2 140.5,-97.2 140.5,-78.2 75.5,-78.2"/>
<polygon fill="none" stroke="#000000" points="75.5,-78.2 75.5,-97.2 140.5,-97.2 140.5,-78.2 75.5,-78.2"/>
<text text-anchor="start" x="105.1105" y="-84.3" font-family="Helvetica,sans-Serif" font-size="11.00" fill="#000000">0 rows</text>
<polygon fill="#ffffff" stroke="transparent" points="140.5,-78.2 140.5,-97.2 189.5,-97.2 189.5,-78.2 140.5,-78.2"/>
<polygon fill="none" stroke="#000000" points="140.5,-78.2 140.5,-97.2 189.5,-97.2 189.5,-78.2 140.5,-78.2"/>
<text text-anchor="start" x="170.9053" y="-84.3" font-family="Helvetica,sans-Serif" font-size="11.00" fill="#000000">2 &gt;</text>
</a>
</g>
</g>
<!-- cd_orphan_concept&#45;&gt;cd_concept_sets -->
<g id="edge3" class="edge">
<title>cd_orphan_concept:w&#45;&gt;cd_concept_sets:e</title>
<path fill="none" stroke="#000000" d="M232.0855,-176.8825C216.719,-168.8853 212.4799,-149.2 189.5,-149.2"/>
<polygon fill="#000000" stroke="#000000" points="238.7038,-178.4056 245.6925,-183.7083 242.6019,-179.3028 246.5,-180.2 246.5,-180.2 246.5,-180.2 242.6019,-179.3028 247.3075,-176.6917 238.7038,-178.4056 238.7038,-178.4056"/>
<ellipse fill="none" stroke="#000000" cx="235.5853" cy="-177.6879" rx="3.2" ry="3.2"/>
</g>
<!-- cd_orphan_concept&#45;&gt;cd_concept_sets -->
<g id="edge5" class="edge">
<title>cd_orphan_concept:w&#45;&gt;cd_concept_sets:e</title>
<path fill="none" stroke="#000000" d="M232.0172,-115.7941C217.312,-119.2654 209.7999,-127.2 189.5,-127.2"/>
<polygon fill="#000000" stroke="#000000" points="238.548,-115.0753 246.8939,-117.7784 242.524,-114.6376 246.5,-114.2 246.5,-114.2 246.5,-114.2 242.524,-114.6376 246.1061,-110.6216 238.548,-115.0753 238.548,-115.0753"/>
<ellipse fill="none" stroke="#000000" cx="235.3672" cy="-115.4254" rx="3.2" ry="3.2"/>
</g>
</g>
</svg>
