<?xml version="1.0" encoding="UTF-8" standalone="no"?>
<!DOCTYPE svg PUBLIC "-//W3C//DTD SVG 1.1//EN"
 "http://www.w3.org/Graphics/SVG/1.1/DTD/svg11.dtd">
<!-- Generated by graphviz version 2.40.1 (20161225.0304)
 -->
<!-- Title: oneDegreeRelationshipsDiagram Pages: 1 -->
<svg width="270pt" height="228pt"
 viewBox="0.00 0.00 270.00 228.20" xmlns="http://www.w3.org/2000/svg" xmlns:xlink="http://www.w3.org/1999/xlink">
<g id="graph0" class="graph" transform="scale(1 1) rotate(0) translate(4 224.2)">
<title>oneDegreeRelationshipsDiagram</title>
<polygon fill="#ffffff" stroke="transparent" points="-4,4 -4,-224.2 266,-224.2 266,4 -4,4"/>
<text text-anchor="middle" x="72.4936" y="-7.3" font-family="Helvetica,sans-Serif" font-size="11.00" fill="#000000">Generated by SchemaSpy</text>
<!-- cd_relationship -->
<g id="node1" class="node">
<title>cd_relationship</title>
<g id="a_node1"><a xlink:href="../../tables/cd_relationship.html" xlink:title="cd_relationship" target="_top">
<polygon fill="#ffffff" stroke="transparent" points="8,-38.2 8,-216.2 254,-216.2 254,-38.2 8,-38.2"/>
<polygon fill="#f5f5f5" stroke="transparent" points="10,-191.2 10,-214.2 252,-214.2 252,-191.2 10,-191.2"/>
<polygon fill="none" stroke="#000000" points="10,-191.2 10,-214.2 252,-214.2 252,-191.2 10,-191.2"/>
<text text-anchor="start" x="15" y="-199.8" font-family="Helvetica,sans-Serif" font-weight="bold" font-size="11.00" fill="#000000">cd_relationship</text>
<text text-anchor="start" x="217.0437" y="-199.3" font-family="Helvetica,sans-Serif" font-size="11.00" fill="#000000">[table]</text>
<polygon fill="none" stroke="#000000" points="10,-169.2 10,-191.2 190,-191.2 190,-169.2 10,-169.2"/>
<text text-anchor="start" x="30" y="-176.3" font-family="Helvetica,sans-Serif" font-size="11.00" fill="#000000">defines_ancestry</text>
<polygon fill="none" stroke="#000000" points="190,-169.2 190,-191.2 252,-191.2 252,-169.2 190,-169.2"/>
<text text-anchor="start" x="192.878" y="-176.9" font-family="Helvetica,sans-Serif" font-size="11.00" fill="#000000">unknown[0]</text>
<polygon fill="none" stroke="#000000" points="10,-147.2 10,-169.2 190,-169.2 190,-147.2 10,-147.2"/>
<text text-anchor="start" x="30" y="-154.3" font-family="Helvetica,sans-Serif" font-size="11.00" fill="#000000">is_hierarchical</text>
<polygon fill="none" stroke="#000000" points="190,-147.2 190,-169.2 252,-169.2 252,-147.2 190,-147.2"/>
<text text-anchor="start" x="192.878" y="-154.9" font-family="Helvetica,sans-Serif" font-size="11.00" fill="#000000">unknown[0]</text>
<polygon fill="none" stroke="#000000" points="10,-125.2 10,-147.2 190,-147.2 190,-125.2 10,-125.2"/>
<text text-anchor="start" x="30" y="-132.3" font-family="Helvetica,sans-Serif" font-size="11.00" fill="#000000">relationship_concept_id</text>
<polygon fill="none" stroke="#000000" points="190,-125.2 190,-147.2 252,-147.2 252,-125.2 190,-125.2"/>
<text text-anchor="start" x="192.878" y="-132.9" font-family="Helvetica,sans-Serif" font-size="11.00" fill="#000000">unknown[0]</text>
<polygon fill="none" stroke="#000000" points="10,-103.2 10,-125.2 190,-125.2 190,-103.2 10,-103.2"/>
<text text-anchor="start" x="30" y="-110.3" font-family="Helvetica,sans-Serif" font-size="11.00" fill="#000000">relationship_id</text>
<polygon fill="none" stroke="#000000" points="190,-103.2 190,-125.2 252,-125.2 252,-103.2 190,-103.2"/>
<text text-anchor="start" x="192.878" y="-110.9" font-family="Helvetica,sans-Serif" font-size="11.00" fill="#000000">unknown[0]</text>
<polygon fill="none" stroke="#000000" points="10,-81.2 10,-103.2 190,-103.2 190,-81.2 10,-81.2"/>
<text text-anchor="start" x="30" y="-88.3" font-family="Helvetica,sans-Serif" font-size="11.00" fill="#000000">relationship_name</text>
<polygon fill="none" stroke="#000000" points="190,-81.2 190,-103.2 252,-103.2 252,-81.2 190,-81.2"/>
<text text-anchor="start" x="192.878" y="-88.9" font-family="Helvetica,sans-Serif" font-size="11.00" fill="#000000">unknown[0]</text>
<polygon fill="none" stroke="#000000" points="10,-59.2 10,-81.2 190,-81.2 190,-59.2 10,-59.2"/>
<text text-anchor="start" x="30" y="-66.3" font-family="Helvetica,sans-Serif" font-size="11.00" fill="#000000">reverse_relationship_id</text>
<polygon fill="none" stroke="#000000" points="190,-59.2 190,-81.2 252,-81.2 252,-59.2 190,-59.2"/>
<text text-anchor="start" x="192.878" y="-66.9" font-family="Helvetica,sans-Serif" font-size="11.00" fill="#000000">unknown[0]</text>
<polygon fill="#ffffff" stroke="transparent" points="10,-40.2 10,-59.2 91,-59.2 91,-40.2 10,-40.2"/>
<polygon fill="none" stroke="#000000" points="10,-40.2 10,-59.2 91,-59.2 91,-40.2 10,-40.2"/>
<text text-anchor="start" x="13" y="-46.3" font-family="Helvetica,sans-Serif" font-size="11.00" fill="#000000">&lt; 0</text>
<polygon fill="#ffffff" stroke="transparent" points="91,-40.2 91,-59.2 190,-59.2 190,-40.2 91,-40.2"/>
<polygon fill="none" stroke="#000000" points="91,-40.2 91,-59.2 190,-59.2 190,-40.2 91,-40.2"/>
<text text-anchor="start" x="154.6105" y="-46.3" font-family="Helvetica,sans-Serif" font-size="11.00" fill="#000000">0 rows</text>
<polygon fill="#ffffff" stroke="transparent" points="190,-40.2 190,-59.2 252,-59.2 252,-40.2 190,-40.2"/>
<polygon fill="none" stroke="#000000" points="190,-40.2 190,-59.2 252,-59.2 252,-40.2 190,-40.2"/>
<text text-anchor="start" x="233.4053" y="-46.3" font-family="Helvetica,sans-Serif" font-size="11.00" fill="#000000">0 &gt;</text>
<polygon fill="none" stroke="#000000" stroke-width="2" points="9,-39.2 9,-215.2 253,-215.2 253,-39.2 9,-39.2"/>
</a>
</g>
</g>
</g>
</svg>
