<?xml version="1.0" encoding="UTF-8" standalone="no"?>
<!DOCTYPE svg PUBLIC "-//W3C//DTD SVG 1.1//EN"
 "http://www.w3.org/Graphics/SVG/1.1/DTD/svg11.dtd">
<!-- Generated by graphviz version 2.40.1 (20161225.0304)
 -->
<!-- Title: oneDegreeRelationshipsDiagram Pages: 1 -->
<svg width="288pt" height="184pt"
 viewBox="0.00 0.00 288.00 184.20" xmlns="http://www.w3.org/2000/svg" xmlns:xlink="http://www.w3.org/1999/xlink">
<g id="graph0" class="graph" transform="scale(1 1) rotate(0) translate(4 180.2)">
<title>oneDegreeRelationshipsDiagram</title>
<polygon fill="#ffffff" stroke="transparent" points="-4,4 -4,-180.2 284,-180.2 284,4 -4,4"/>
<text text-anchor="middle" x="72.4936" y="-7.3" font-family="Helvetica,sans-Serif" font-size="11.00" fill="#000000">Generated by SchemaSpy</text>
<!-- cd_temporal_covariate_ref -->
<g id="node1" class="node">
<title>cd_temporal_covariate_ref</title>
<g id="a_node1"><a xlink:href="../../tables/cd_temporal_covariate_ref.html" xlink:title="cd_temporal_covariate_ref" target="_top">
<polygon fill="#ffffff" stroke="transparent" points="8,-38.2 8,-172.2 272,-172.2 272,-38.2 8,-38.2"/>
<polygon fill="#f5f5f5" stroke="transparent" points="10,-147.2 10,-170.2 270,-170.2 270,-147.2 10,-147.2"/>
<polygon fill="none" stroke="#000000" points="10,-147.2 10,-170.2 270,-170.2 270,-147.2 10,-147.2"/>
<text text-anchor="start" x="15" y="-155.8" font-family="Helvetica,sans-Serif" font-weight="bold" font-size="11.00" fill="#000000">cd_temporal_covariate_ref</text>
<text text-anchor="start" x="235.0437" y="-155.3" font-family="Helvetica,sans-Serif" font-size="11.00" fill="#000000">[table]</text>
<polygon fill="none" stroke="#000000" points="10,-125.2 10,-147.2 208,-147.2 208,-125.2 10,-125.2"/>
<text text-anchor="start" x="30" y="-132.3" font-family="Helvetica,sans-Serif" font-size="11.00" fill="#000000">analysis_id</text>
<polygon fill="none" stroke="#000000" points="208,-125.2 208,-147.2 270,-147.2 270,-125.2 208,-125.2"/>
<text text-anchor="start" x="210.878" y="-132.9" font-family="Helvetica,sans-Serif" font-size="11.00" fill="#000000">unknown[0]</text>
<polygon fill="none" stroke="#000000" points="10,-103.2 10,-125.2 208,-125.2 208,-103.2 10,-103.2"/>
<text text-anchor="start" x="30" y="-110.3" font-family="Helvetica,sans-Serif" font-size="11.00" fill="#000000">concept_id</text>
<polygon fill="none" stroke="#000000" points="208,-103.2 208,-125.2 270,-125.2 270,-103.2 208,-103.2"/>
<text text-anchor="start" x="210.878" y="-110.9" font-family="Helvetica,sans-Serif" font-size="11.00" fill="#000000">unknown[0]</text>
<polygon fill="none" stroke="#000000" points="10,-81.2 10,-103.2 208,-103.2 208,-81.2 10,-81.2"/>
<text text-anchor="start" x="30" y="-88.3" font-family="Helvetica,sans-Serif" font-size="11.00" fill="#000000">covariate_id</text>
<polygon fill="none" stroke="#000000" points="208,-81.2 208,-103.2 270,-103.2 270,-81.2 208,-81.2"/>
<text text-anchor="start" x="210.878" y="-88.9" font-family="Helvetica,sans-Serif" font-size="11.00" fill="#000000">unknown[0]</text>
<polygon fill="none" stroke="#000000" points="10,-59.2 10,-81.2 208,-81.2 208,-59.2 10,-59.2"/>
<text text-anchor="start" x="30" y="-66.3" font-family="Helvetica,sans-Serif" font-size="11.00" fill="#000000">covariate_name</text>
<polygon fill="none" stroke="#000000" points="208,-59.2 208,-81.2 270,-81.2 270,-59.2 208,-59.2"/>
<text text-anchor="start" x="210.878" y="-66.9" font-family="Helvetica,sans-Serif" font-size="11.00" fill="#000000">unknown[0]</text>
<polygon fill="#ffffff" stroke="transparent" points="10,-40.2 10,-59.2 100,-59.2 100,-40.2 10,-40.2"/>
<polygon fill="none" stroke="#000000" points="10,-40.2 10,-59.2 100,-59.2 100,-40.2 10,-40.2"/>
<text text-anchor="start" x="13" y="-46.3" font-family="Helvetica,sans-Serif" font-size="11.00" fill="#000000">&lt; 0</text>
<polygon fill="#ffffff" stroke="transparent" points="100,-40.2 100,-59.2 208,-59.2 208,-40.2 100,-40.2"/>
<polygon fill="none" stroke="#000000" points="100,-40.2 100,-59.2 208,-59.2 208,-40.2 100,-40.2"/>
<text text-anchor="start" x="172.6105" y="-46.3" font-family="Helvetica,sans-Serif" font-size="11.00" fill="#000000">0 rows</text>
<polygon fill="#ffffff" stroke="transparent" points="208,-40.2 208,-59.2 270,-59.2 270,-40.2 208,-40.2"/>
<polygon fill="none" stroke="#000000" points="208,-40.2 208,-59.2 270,-59.2 270,-40.2 208,-40.2"/>
<text text-anchor="start" x="251.4053" y="-46.3" font-family="Helvetica,sans-Serif" font-size="11.00" fill="#000000">0 &gt;</text>
<polygon fill="none" stroke="#000000" stroke-width="2" points="9,-39.2 9,-171.2 271,-171.2 271,-39.2 9,-39.2"/>
</a>
</g>
</g>
</g>
</svg>
