<?xml version="1.0" encoding="UTF-8" standalone="no"?>
<!DOCTYPE svg PUBLIC "-//W3C//DTD SVG 1.1//EN"
 "http://www.w3.org/Graphics/SVG/1.1/DTD/svg11.dtd">
<!-- Generated by graphviz version 2.40.1 (20161225.0304)
 -->
<!-- Title: oneDegreeRelationshipsDiagram Pages: 1 -->
<svg width="228pt" height="492pt"
 viewBox="0.00 0.00 228.00 492.20" xmlns="http://www.w3.org/2000/svg" xmlns:xlink="http://www.w3.org/1999/xlink">
<g id="graph0" class="graph" transform="scale(1 1) rotate(0) translate(4 488.2)">
<title>oneDegreeRelationshipsDiagram</title>
<polygon fill="#ffffff" stroke="transparent" points="-4,4 -4,-488.2 224,-488.2 224,4 -4,4"/>
<text text-anchor="middle" x="72.4936" y="-7.3" font-family="Helvetica,sans-Serif" font-size="11.00" fill="#000000">Generated by SchemaSpy</text>
<!-- cd_time_series -->
<g id="node1" class="node">
<title>cd_time_series</title>
<g id="a_node1"><a xlink:href="../../tables/cd_time_series.html" xlink:title="cd_time_series" target="_top">
<polygon fill="#ffffff" stroke="transparent" points="8,-38.2 8,-480.2 212,-480.2 212,-38.2 8,-38.2"/>
<polygon fill="#f5f5f5" stroke="transparent" points="10,-455.2 10,-478.2 210,-478.2 210,-455.2 10,-455.2"/>
<polygon fill="none" stroke="#000000" points="10,-455.2 10,-478.2 210,-478.2 210,-455.2 10,-455.2"/>
<text text-anchor="start" x="15" y="-463.8" font-family="Helvetica,sans-Serif" font-weight="bold" font-size="11.00" fill="#000000">cd_time_series</text>
<text text-anchor="start" x="175.0437" y="-463.3" font-family="Helvetica,sans-Serif" font-size="11.00" fill="#000000">[table]</text>
<polygon fill="none" stroke="#000000" points="10,-433.2 10,-455.2 148,-455.2 148,-433.2 10,-433.2"/>
<text text-anchor="start" x="30" y="-440.3" font-family="Helvetica,sans-Serif" font-size="11.00" fill="#000000">age_group</text>
<polygon fill="none" stroke="#000000" points="148,-433.2 148,-455.2 210,-455.2 210,-433.2 148,-433.2"/>
<text text-anchor="start" x="150.878" y="-440.9" font-family="Helvetica,sans-Serif" font-size="11.00" fill="#000000">unknown[0]</text>
<polygon fill="none" stroke="#000000" points="10,-411.2 10,-433.2 148,-433.2 148,-411.2 10,-411.2"/>
<text text-anchor="start" x="30" y="-418.3" font-family="Helvetica,sans-Serif" font-size="11.00" fill="#000000">calendar_interval</text>
<polygon fill="none" stroke="#000000" points="148,-411.2 148,-433.2 210,-433.2 210,-411.2 148,-411.2"/>
<text text-anchor="start" x="150.878" y="-418.9" font-family="Helvetica,sans-Serif" font-size="11.00" fill="#000000">unknown[0]</text>
<polygon fill="none" stroke="#000000" points="10,-389.2 10,-411.2 148,-411.2 148,-389.2 10,-389.2"/>
<text text-anchor="start" x="30" y="-396.3" font-family="Helvetica,sans-Serif" font-size="11.00" fill="#000000">cohort_id</text>
<polygon fill="none" stroke="#000000" points="148,-389.2 148,-411.2 210,-411.2 210,-389.2 148,-389.2"/>
<text text-anchor="start" x="150.878" y="-396.9" font-family="Helvetica,sans-Serif" font-size="11.00" fill="#000000">unknown[0]</text>
<polygon fill="none" stroke="#000000" points="10,-367.2 10,-389.2 148,-389.2 148,-367.2 10,-367.2"/>
<text text-anchor="start" x="30" y="-374.3" font-family="Helvetica,sans-Serif" font-size="11.00" fill="#000000">database_id</text>
<polygon fill="none" stroke="#000000" points="148,-367.2 148,-389.2 210,-389.2 210,-367.2 148,-367.2"/>
<text text-anchor="start" x="150.878" y="-374.9" font-family="Helvetica,sans-Serif" font-size="11.00" fill="#000000">unknown[0]</text>
<polygon fill="none" stroke="#000000" points="10,-345.2 10,-367.2 148,-367.2 148,-345.2 10,-345.2"/>
<text text-anchor="start" x="30" y="-352.3" font-family="Helvetica,sans-Serif" font-size="11.00" fill="#000000">gender</text>
<polygon fill="none" stroke="#000000" points="148,-345.2 148,-367.2 210,-367.2 210,-345.2 148,-345.2"/>
<text text-anchor="start" x="150.878" y="-352.9" font-family="Helvetica,sans-Serif" font-size="11.00" fill="#000000">unknown[0]</text>
<polygon fill="none" stroke="#000000" points="10,-323.2 10,-345.2 148,-345.2 148,-323.2 10,-323.2"/>
<text text-anchor="start" x="30" y="-330.3" font-family="Helvetica,sans-Serif" font-size="11.00" fill="#000000">period_begin</text>
<polygon fill="none" stroke="#000000" points="148,-323.2 148,-345.2 210,-345.2 210,-323.2 148,-323.2"/>
<text text-anchor="start" x="150.878" y="-330.9" font-family="Helvetica,sans-Serif" font-size="11.00" fill="#000000">unknown[0]</text>
<polygon fill="none" stroke="#000000" points="10,-301.2 10,-323.2 148,-323.2 148,-301.2 10,-301.2"/>
<text text-anchor="start" x="30" y="-308.3" font-family="Helvetica,sans-Serif" font-size="11.00" fill="#000000">period_end</text>
<polygon fill="none" stroke="#000000" points="148,-301.2 148,-323.2 210,-323.2 210,-301.2 148,-301.2"/>
<text text-anchor="start" x="150.878" y="-308.9" font-family="Helvetica,sans-Serif" font-size="11.00" fill="#000000">unknown[0]</text>
<polygon fill="none" stroke="#000000" points="10,-279.2 10,-301.2 148,-301.2 148,-279.2 10,-279.2"/>
<text text-anchor="start" x="30" y="-286.3" font-family="Helvetica,sans-Serif" font-size="11.00" fill="#000000">person_days</text>
<polygon fill="none" stroke="#000000" points="148,-279.2 148,-301.2 210,-301.2 210,-279.2 148,-279.2"/>
<text text-anchor="start" x="150.878" y="-286.9" font-family="Helvetica,sans-Serif" font-size="11.00" fill="#000000">unknown[0]</text>
<polygon fill="none" stroke="#000000" points="10,-257.2 10,-279.2 148,-279.2 148,-257.2 10,-257.2"/>
<text text-anchor="start" x="30" y="-264.3" font-family="Helvetica,sans-Serif" font-size="11.00" fill="#000000">person_days_in</text>
<polygon fill="none" stroke="#000000" points="148,-257.2 148,-279.2 210,-279.2 210,-257.2 148,-257.2"/>
<text text-anchor="start" x="150.878" y="-264.9" font-family="Helvetica,sans-Serif" font-size="11.00" fill="#000000">unknown[0]</text>
<polygon fill="none" stroke="#000000" points="10,-235.2 10,-257.2 148,-257.2 148,-235.2 10,-235.2"/>
<text text-anchor="start" x="30" y="-242.3" font-family="Helvetica,sans-Serif" font-size="11.00" fill="#000000">records</text>
<polygon fill="none" stroke="#000000" points="148,-235.2 148,-257.2 210,-257.2 210,-235.2 148,-235.2"/>
<text text-anchor="start" x="150.878" y="-242.9" font-family="Helvetica,sans-Serif" font-size="11.00" fill="#000000">unknown[0]</text>
<polygon fill="none" stroke="#000000" points="10,-213.2 10,-235.2 148,-235.2 148,-213.2 10,-213.2"/>
<text text-anchor="start" x="30" y="-220.3" font-family="Helvetica,sans-Serif" font-size="11.00" fill="#000000">records_end</text>
<polygon fill="none" stroke="#000000" points="148,-213.2 148,-235.2 210,-235.2 210,-213.2 148,-213.2"/>
<text text-anchor="start" x="150.878" y="-220.9" font-family="Helvetica,sans-Serif" font-size="11.00" fill="#000000">unknown[0]</text>
<polygon fill="none" stroke="#000000" points="10,-191.2 10,-213.2 148,-213.2 148,-191.2 10,-191.2"/>
<text text-anchor="start" x="30" y="-198.3" font-family="Helvetica,sans-Serif" font-size="11.00" fill="#000000">records_start</text>
<polygon fill="none" stroke="#000000" points="148,-191.2 148,-213.2 210,-213.2 210,-191.2 148,-191.2"/>
<text text-anchor="start" x="150.878" y="-198.9" font-family="Helvetica,sans-Serif" font-size="11.00" fill="#000000">unknown[0]</text>
<polygon fill="none" stroke="#000000" points="10,-169.2 10,-191.2 148,-191.2 148,-169.2 10,-169.2"/>
<text text-anchor="start" x="30" y="-176.3" font-family="Helvetica,sans-Serif" font-size="11.00" fill="#000000">series_type</text>
<polygon fill="none" stroke="#000000" points="148,-169.2 148,-191.2 210,-191.2 210,-169.2 148,-169.2"/>
<text text-anchor="start" x="150.878" y="-176.9" font-family="Helvetica,sans-Serif" font-size="11.00" fill="#000000">unknown[0]</text>
<polygon fill="none" stroke="#000000" points="10,-147.2 10,-169.2 148,-169.2 148,-147.2 10,-147.2"/>
<text text-anchor="start" x="30" y="-154.3" font-family="Helvetica,sans-Serif" font-size="11.00" fill="#000000">subjects</text>
<polygon fill="none" stroke="#000000" points="148,-147.2 148,-169.2 210,-169.2 210,-147.2 148,-147.2"/>
<text text-anchor="start" x="150.878" y="-154.9" font-family="Helvetica,sans-Serif" font-size="11.00" fill="#000000">unknown[0]</text>
<polygon fill="none" stroke="#000000" points="10,-125.2 10,-147.2 148,-147.2 148,-125.2 10,-125.2"/>
<text text-anchor="start" x="30" y="-132.3" font-family="Helvetica,sans-Serif" font-size="11.00" fill="#000000">subjects_end</text>
<polygon fill="none" stroke="#000000" points="148,-125.2 148,-147.2 210,-147.2 210,-125.2 148,-125.2"/>
<text text-anchor="start" x="150.878" y="-132.9" font-family="Helvetica,sans-Serif" font-size="11.00" fill="#000000">unknown[0]</text>
<polygon fill="none" stroke="#000000" points="10,-103.2 10,-125.2 148,-125.2 148,-103.2 10,-103.2"/>
<text text-anchor="start" x="30" y="-110.3" font-family="Helvetica,sans-Serif" font-size="11.00" fill="#000000">subjects_end_in</text>
<polygon fill="none" stroke="#000000" points="148,-103.2 148,-125.2 210,-125.2 210,-103.2 148,-103.2"/>
<text text-anchor="start" x="150.878" y="-110.9" font-family="Helvetica,sans-Serif" font-size="11.00" fill="#000000">unknown[0]</text>
<polygon fill="none" stroke="#000000" points="10,-81.2 10,-103.2 148,-103.2 148,-81.2 10,-81.2"/>
<text text-anchor="start" x="30" y="-88.3" font-family="Helvetica,sans-Serif" font-size="11.00" fill="#000000">subjects_start</text>
<polygon fill="none" stroke="#000000" points="148,-81.2 148,-103.2 210,-103.2 210,-81.2 148,-81.2"/>
<text text-anchor="start" x="150.878" y="-88.9" font-family="Helvetica,sans-Serif" font-size="11.00" fill="#000000">unknown[0]</text>
<polygon fill="none" stroke="#000000" points="10,-59.2 10,-81.2 148,-81.2 148,-59.2 10,-59.2"/>
<text text-anchor="start" x="30" y="-66.3" font-family="Helvetica,sans-Serif" font-size="11.00" fill="#000000">subjects_start_in</text>
<polygon fill="none" stroke="#000000" points="148,-59.2 148,-81.2 210,-81.2 210,-59.2 148,-59.2"/>
<text text-anchor="start" x="150.878" y="-66.9" font-family="Helvetica,sans-Serif" font-size="11.00" fill="#000000">unknown[0]</text>
<polygon fill="#ffffff" stroke="transparent" points="10,-40.2 10,-59.2 70,-59.2 70,-40.2 10,-40.2"/>
<polygon fill="none" stroke="#000000" points="10,-40.2 10,-59.2 70,-59.2 70,-40.2 10,-40.2"/>
<text text-anchor="start" x="13" y="-46.3" font-family="Helvetica,sans-Serif" font-size="11.00" fill="#000000">&lt; 0</text>
<polygon fill="#ffffff" stroke="transparent" points="70,-40.2 70,-59.2 148,-59.2 148,-40.2 70,-40.2"/>
<polygon fill="none" stroke="#000000" points="70,-40.2 70,-59.2 148,-59.2 148,-40.2 70,-40.2"/>
<text text-anchor="start" x="112.6105" y="-46.3" font-family="Helvetica,sans-Serif" font-size="11.00" fill="#000000">0 rows</text>
<polygon fill="#ffffff" stroke="transparent" points="148,-40.2 148,-59.2 210,-59.2 210,-40.2 148,-40.2"/>
<polygon fill="none" stroke="#000000" points="148,-40.2 148,-59.2 210,-59.2 210,-40.2 148,-40.2"/>
<text text-anchor="start" x="191.4053" y="-46.3" font-family="Helvetica,sans-Serif" font-size="11.00" fill="#000000">0 &gt;</text>
<polygon fill="none" stroke="#000000" stroke-width="2" points="9,-39.2 9,-479.2 211,-479.2 211,-39.2 9,-39.2"/>
</a>
</g>
</g>
</g>
</svg>
