<?xml version="1.0" encoding="UTF-8" standalone="no"?>
<!DOCTYPE svg PUBLIC "-//W3C//DTD SVG 1.1//EN"
 "http://www.w3.org/Graphics/SVG/1.1/DTD/svg11.dtd">
<!-- Generated by graphviz version 2.40.1 (20161225.0304)
 -->
<!-- Title: oneDegreeRelationshipsDiagram Pages: 1 -->
<svg width="337pt" height="404pt"
 viewBox="0.00 0.00 337.00 404.20" xmlns="http://www.w3.org/2000/svg" xmlns:xlink="http://www.w3.org/1999/xlink">
<g id="graph0" class="graph" transform="scale(1 1) rotate(0) translate(4 400.2)">
<title>oneDegreeRelationshipsDiagram</title>
<polygon fill="#ffffff" stroke="transparent" points="-4,4 -4,-400.2 333,-400.2 333,4 -4,4"/>
<text text-anchor="middle" x="72.4936" y="-7.3" font-family="Helvetica,sans-Serif" font-size="11.00" fill="#000000">Generated by SchemaSpy</text>
<!-- cd_temporal_covariate_value_dist -->
<g id="node1" class="node">
<title>cd_temporal_covariate_value_dist</title>
<g id="a_node1"><a xlink:href="../../tables/cd_temporal_covariate_value_dist.html" xlink:title="cd_temporal_covariate_value_dist" target="_top">
<polygon fill="#ffffff" stroke="transparent" points="8,-38.2 8,-392.2 321,-392.2 321,-38.2 8,-38.2"/>
<polygon fill="#f5f5f5" stroke="transparent" points="10.5,-367.2 10.5,-390.2 319.5,-390.2 319.5,-367.2 10.5,-367.2"/>
<polygon fill="none" stroke="#000000" points="10.5,-367.2 10.5,-390.2 319.5,-390.2 319.5,-367.2 10.5,-367.2"/>
<text text-anchor="start" x="15.5" y="-375.8" font-family="Helvetica,sans-Serif" font-weight="bold" font-size="11.00" fill="#000000">cd_temporal_covariate_value_dist</text>
<text text-anchor="start" x="284.5437" y="-375.3" font-family="Helvetica,sans-Serif" font-size="11.00" fill="#000000">[table]</text>
<polygon fill="none" stroke="#000000" points="10.5,-345.2 10.5,-367.2 257.5,-367.2 257.5,-345.2 10.5,-345.2"/>
<text text-anchor="start" x="30.5" y="-352.3" font-family="Helvetica,sans-Serif" font-size="11.00" fill="#000000">cohort_id</text>
<polygon fill="none" stroke="#000000" points="257.5,-345.2 257.5,-367.2 319.5,-367.2 319.5,-345.2 257.5,-345.2"/>
<text text-anchor="start" x="260.378" y="-352.9" font-family="Helvetica,sans-Serif" font-size="11.00" fill="#000000">unknown[0]</text>
<polygon fill="none" stroke="#000000" points="10.5,-323.2 10.5,-345.2 257.5,-345.2 257.5,-323.2 10.5,-323.2"/>
<text text-anchor="start" x="30.5" y="-330.3" font-family="Helvetica,sans-Serif" font-size="11.00" fill="#000000">count_value</text>
<polygon fill="none" stroke="#000000" points="257.5,-323.2 257.5,-345.2 319.5,-345.2 319.5,-323.2 257.5,-323.2"/>
<text text-anchor="start" x="260.378" y="-330.9" font-family="Helvetica,sans-Serif" font-size="11.00" fill="#000000">unknown[0]</text>
<polygon fill="none" stroke="#000000" points="10.5,-301.2 10.5,-323.2 257.5,-323.2 257.5,-301.2 10.5,-301.2"/>
<text text-anchor="start" x="30.5" y="-308.3" font-family="Helvetica,sans-Serif" font-size="11.00" fill="#000000">covariate_id</text>
<polygon fill="none" stroke="#000000" points="257.5,-301.2 257.5,-323.2 319.5,-323.2 319.5,-301.2 257.5,-301.2"/>
<text text-anchor="start" x="260.378" y="-308.9" font-family="Helvetica,sans-Serif" font-size="11.00" fill="#000000">unknown[0]</text>
<polygon fill="none" stroke="#000000" points="10.5,-279.2 10.5,-301.2 257.5,-301.2 257.5,-279.2 10.5,-279.2"/>
<text text-anchor="start" x="30.5" y="-286.3" font-family="Helvetica,sans-Serif" font-size="11.00" fill="#000000">database_id</text>
<polygon fill="none" stroke="#000000" points="257.5,-279.2 257.5,-301.2 319.5,-301.2 319.5,-279.2 257.5,-279.2"/>
<text text-anchor="start" x="260.378" y="-286.9" font-family="Helvetica,sans-Serif" font-size="11.00" fill="#000000">unknown[0]</text>
<polygon fill="none" stroke="#000000" points="10.5,-257.2 10.5,-279.2 257.5,-279.2 257.5,-257.2 10.5,-257.2"/>
<text text-anchor="start" x="30.5" y="-264.3" font-family="Helvetica,sans-Serif" font-size="11.00" fill="#000000">max_value</text>
<polygon fill="none" stroke="#000000" points="257.5,-257.2 257.5,-279.2 319.5,-279.2 319.5,-257.2 257.5,-257.2"/>
<text text-anchor="start" x="260.378" y="-264.9" font-family="Helvetica,sans-Serif" font-size="11.00" fill="#000000">unknown[0]</text>
<polygon fill="none" stroke="#000000" points="10.5,-235.2 10.5,-257.2 257.5,-257.2 257.5,-235.2 10.5,-235.2"/>
<text text-anchor="start" x="30.5" y="-242.3" font-family="Helvetica,sans-Serif" font-size="11.00" fill="#000000">mean</text>
<polygon fill="none" stroke="#000000" points="257.5,-235.2 257.5,-257.2 319.5,-257.2 319.5,-235.2 257.5,-235.2"/>
<text text-anchor="start" x="260.378" y="-242.9" font-family="Helvetica,sans-Serif" font-size="11.00" fill="#000000">unknown[0]</text>
<polygon fill="none" stroke="#000000" points="10.5,-213.2 10.5,-235.2 257.5,-235.2 257.5,-213.2 10.5,-213.2"/>
<text text-anchor="start" x="30.5" y="-220.3" font-family="Helvetica,sans-Serif" font-size="11.00" fill="#000000">median_value</text>
<polygon fill="none" stroke="#000000" points="257.5,-213.2 257.5,-235.2 319.5,-235.2 319.5,-213.2 257.5,-213.2"/>
<text text-anchor="start" x="260.378" y="-220.9" font-family="Helvetica,sans-Serif" font-size="11.00" fill="#000000">unknown[0]</text>
<polygon fill="none" stroke="#000000" points="10.5,-191.2 10.5,-213.2 257.5,-213.2 257.5,-191.2 10.5,-191.2"/>
<text text-anchor="start" x="30.5" y="-198.3" font-family="Helvetica,sans-Serif" font-size="11.00" fill="#000000">min_value</text>
<polygon fill="none" stroke="#000000" points="257.5,-191.2 257.5,-213.2 319.5,-213.2 319.5,-191.2 257.5,-191.2"/>
<text text-anchor="start" x="260.378" y="-198.9" font-family="Helvetica,sans-Serif" font-size="11.00" fill="#000000">unknown[0]</text>
<polygon fill="none" stroke="#000000" points="10.5,-169.2 10.5,-191.2 257.5,-191.2 257.5,-169.2 10.5,-169.2"/>
<text text-anchor="start" x="30.5" y="-176.3" font-family="Helvetica,sans-Serif" font-size="11.00" fill="#000000">p_10_value</text>
<polygon fill="none" stroke="#000000" points="257.5,-169.2 257.5,-191.2 319.5,-191.2 319.5,-169.2 257.5,-169.2"/>
<text text-anchor="start" x="260.378" y="-176.9" font-family="Helvetica,sans-Serif" font-size="11.00" fill="#000000">unknown[0]</text>
<polygon fill="none" stroke="#000000" points="10.5,-147.2 10.5,-169.2 257.5,-169.2 257.5,-147.2 10.5,-147.2"/>
<text text-anchor="start" x="30.5" y="-154.3" font-family="Helvetica,sans-Serif" font-size="11.00" fill="#000000">p_25_value</text>
<polygon fill="none" stroke="#000000" points="257.5,-147.2 257.5,-169.2 319.5,-169.2 319.5,-147.2 257.5,-147.2"/>
<text text-anchor="start" x="260.378" y="-154.9" font-family="Helvetica,sans-Serif" font-size="11.00" fill="#000000">unknown[0]</text>
<polygon fill="none" stroke="#000000" points="10.5,-125.2 10.5,-147.2 257.5,-147.2 257.5,-125.2 10.5,-125.2"/>
<text text-anchor="start" x="30.5" y="-132.3" font-family="Helvetica,sans-Serif" font-size="11.00" fill="#000000">p_75_value</text>
<polygon fill="none" stroke="#000000" points="257.5,-125.2 257.5,-147.2 319.5,-147.2 319.5,-125.2 257.5,-125.2"/>
<text text-anchor="start" x="260.378" y="-132.9" font-family="Helvetica,sans-Serif" font-size="11.00" fill="#000000">unknown[0]</text>
<polygon fill="none" stroke="#000000" points="10.5,-103.2 10.5,-125.2 257.5,-125.2 257.5,-103.2 10.5,-103.2"/>
<text text-anchor="start" x="30.5" y="-110.3" font-family="Helvetica,sans-Serif" font-size="11.00" fill="#000000">p_90_value</text>
<polygon fill="none" stroke="#000000" points="257.5,-103.2 257.5,-125.2 319.5,-125.2 319.5,-103.2 257.5,-103.2"/>
<text text-anchor="start" x="260.378" y="-110.9" font-family="Helvetica,sans-Serif" font-size="11.00" fill="#000000">unknown[0]</text>
<polygon fill="none" stroke="#000000" points="10.5,-81.2 10.5,-103.2 257.5,-103.2 257.5,-81.2 10.5,-81.2"/>
<text text-anchor="start" x="30.5" y="-88.3" font-family="Helvetica,sans-Serif" font-size="11.00" fill="#000000">sd</text>
<polygon fill="none" stroke="#000000" points="257.5,-81.2 257.5,-103.2 319.5,-103.2 319.5,-81.2 257.5,-81.2"/>
<text text-anchor="start" x="260.378" y="-88.9" font-family="Helvetica,sans-Serif" font-size="11.00" fill="#000000">unknown[0]</text>
<polygon fill="none" stroke="#000000" points="10.5,-59.2 10.5,-81.2 257.5,-81.2 257.5,-59.2 10.5,-59.2"/>
<text text-anchor="start" x="30.5" y="-66.3" font-family="Helvetica,sans-Serif" font-size="11.00" fill="#000000">time_id</text>
<polygon fill="none" stroke="#000000" points="257.5,-59.2 257.5,-81.2 319.5,-81.2 319.5,-59.2 257.5,-59.2"/>
<text text-anchor="start" x="260.378" y="-66.9" font-family="Helvetica,sans-Serif" font-size="11.00" fill="#000000">unknown[0]</text>
<polygon fill="#ffffff" stroke="transparent" points="10.5,-40.2 10.5,-59.2 125.5,-59.2 125.5,-40.2 10.5,-40.2"/>
<polygon fill="none" stroke="#000000" points="10.5,-40.2 10.5,-59.2 125.5,-59.2 125.5,-40.2 10.5,-40.2"/>
<text text-anchor="start" x="13.5" y="-46.3" font-family="Helvetica,sans-Serif" font-size="11.00" fill="#000000">&lt; 0</text>
<polygon fill="#ffffff" stroke="transparent" points="125.5,-40.2 125.5,-59.2 257.5,-59.2 257.5,-40.2 125.5,-40.2"/>
<polygon fill="none" stroke="#000000" points="125.5,-40.2 125.5,-59.2 257.5,-59.2 257.5,-40.2 125.5,-40.2"/>
<text text-anchor="start" x="222.1105" y="-46.3" font-family="Helvetica,sans-Serif" font-size="11.00" fill="#000000">0 rows</text>
<polygon fill="#ffffff" stroke="transparent" points="257.5,-40.2 257.5,-59.2 319.5,-59.2 319.5,-40.2 257.5,-40.2"/>
<polygon fill="none" stroke="#000000" points="257.5,-40.2 257.5,-59.2 319.5,-59.2 319.5,-40.2 257.5,-40.2"/>
<text text-anchor="start" x="300.9053" y="-46.3" font-family="Helvetica,sans-Serif" font-size="11.00" fill="#000000">0 &gt;</text>
<polygon fill="none" stroke="#000000" stroke-width="2" points="9,-39.2 9,-391.2 320,-391.2 320,-39.2 9,-39.2"/>
</a>
</g>
</g>
</g>
</svg>
