<?xml version="1.0" encoding="UTF-8" standalone="no"?>
<!DOCTYPE svg PUBLIC "-//W3C//DTD SVG 1.1//EN"
 "http://www.w3.org/Graphics/SVG/1.1/DTD/svg11.dtd">
<!-- Generated by graphviz version 2.40.1 (20161225.0304)
 -->
<!-- Title: oneDegreeRelationshipsDiagram Pages: 1 -->
<svg width="545pt" height="206pt"
 viewBox="0.00 0.00 545.00 206.20" xmlns="http://www.w3.org/2000/svg" xmlns:xlink="http://www.w3.org/1999/xlink">
<g id="graph0" class="graph" transform="scale(1 1) rotate(0) translate(4 202.2)">
<title>oneDegreeRelationshipsDiagram</title>
<polygon fill="#ffffff" stroke="transparent" points="-4,4 -4,-202.2 541,-202.2 541,4 -4,4"/>
<text text-anchor="middle" x="72.4936" y="-7.3" font-family="Helvetica,sans-Serif" font-size="11.00" fill="#000000">Generated by SchemaSpy</text>
<!-- cd_temporal_covariate_ref -->
<g id="node1" class="node">
<title>cd_temporal_covariate_ref</title>
<g id="a_node1"><a xlink:href="../../tables/cd_temporal_covariate_ref.html" xlink:title="cd_temporal_covariate_ref" target="_top">
<polygon fill="#ffffff" stroke="transparent" points="313,-87.7 313,-192.7 529,-192.7 529,-87.7 313,-87.7"/>
<polygon fill="#f5f5f5" stroke="transparent" points="313,-169.2 313,-192.2 529,-192.2 529,-169.2 313,-169.2"/>
<polygon fill="none" stroke="#000000" points="313,-169.2 313,-192.2 529,-192.2 529,-169.2 313,-169.2"/>
<text text-anchor="start" x="318" y="-177.8" font-family="Helvetica,sans-Serif" font-weight="bold" font-size="11.00" fill="#000000">cd_temporal_covariate_ref</text>
<text text-anchor="start" x="494.5219" y="-177.3" font-family="Helvetica,sans-Serif" font-size="11.00" fill="#000000">[table]</text>
<polygon fill="none" stroke="#000000" points="313,-147.2 313,-169.2 529,-169.2 529,-147.2 313,-147.2"/>
<image xlink:href="../../images/foreignKeys.png" width="11px" height="12px" preserveAspectRatio="xMinYMin meet" x="318" y="-164.2"/>
<text text-anchor="start" x="342" y="-154.3" font-family="Helvetica,sans-Serif" font-size="11.00" fill="#000000">analysis_id</text>
<polygon fill="none" stroke="#000000" points="313,-125.2 313,-147.2 529,-147.2 529,-125.2 313,-125.2"/>
<image xlink:href="../../images/foreignKeys.png" width="11px" height="12px" preserveAspectRatio="xMinYMin meet" x="318" y="-142.2"/>
<text text-anchor="start" x="342" y="-132.3" font-family="Helvetica,sans-Serif" font-size="11.00" fill="#000000">covariate_id</text>
<polygon fill="none" stroke="#000000" points="313,-106.2 313,-125.2 529,-125.2 529,-106.2 313,-106.2"/>
<text text-anchor="start" x="316" y="-112.3" font-family="Helvetica,sans-Serif" font-size="11.00" fill="#000000">...</text>
<polygon fill="#ffffff" stroke="transparent" points="313,-87.2 313,-106.2 406,-106.2 406,-87.2 313,-87.2"/>
<polygon fill="none" stroke="#000000" points="313,-87.2 313,-106.2 406,-106.2 406,-87.2 313,-87.2"/>
<text text-anchor="start" x="316" y="-93.3" font-family="Helvetica,sans-Serif" font-size="11.00" fill="#000000">&lt; 2</text>
<polygon fill="#ffffff" stroke="transparent" points="406,-87.2 406,-106.2 480,-106.2 480,-87.2 406,-87.2"/>
<polygon fill="none" stroke="#000000" points="406,-87.2 406,-106.2 480,-106.2 480,-87.2 406,-87.2"/>
<text text-anchor="start" x="444.6105" y="-93.3" font-family="Helvetica,sans-Serif" font-size="11.00" fill="#000000">0 rows</text>
<polygon fill="#ffffff" stroke="transparent" points="480,-87.2 480,-106.2 529,-106.2 529,-87.2 480,-87.2"/>
<polygon fill="none" stroke="#000000" points="480,-87.2 480,-106.2 529,-106.2 529,-87.2 480,-87.2"/>
<text text-anchor="start" x="519.8862" y="-93.3" font-family="Helvetica,sans-Serif" font-size="11.00" fill="#000000"> &#160;</text>
</a>
</g>
</g>
<!-- cd_temporal_analysis_ref -->
<g id="node2" class="node">
<title>cd_temporal_analysis_ref</title>
<g id="a_node2"><a xlink:href="../../tables/cd_temporal_analysis_ref.html" xlink:title="cd_temporal_analysis_ref" target="_top">
<polygon fill="#ffffff" stroke="transparent" points="8,-38.2 8,-194.2 264,-194.2 264,-38.2 8,-38.2"/>
<polygon fill="#f5f5f5" stroke="transparent" points="10,-169.2 10,-192.2 262,-192.2 262,-169.2 10,-169.2"/>
<polygon fill="none" stroke="#000000" points="10,-169.2 10,-192.2 262,-192.2 262,-169.2 10,-169.2"/>
<text text-anchor="start" x="15" y="-177.8" font-family="Helvetica,sans-Serif" font-weight="bold" font-size="11.00" fill="#000000">cd_temporal_analysis_ref</text>
<text text-anchor="start" x="227.0437" y="-177.3" font-family="Helvetica,sans-Serif" font-size="11.00" fill="#000000">[table]</text>
<polygon fill="none" stroke="#000000" points="10,-147.2 10,-169.2 200,-169.2 200,-147.2 10,-147.2"/>
<image xlink:href="../../images/primaryKeys.png" width="11px" height="12px" preserveAspectRatio="xMinYMin meet" x="15" y="-164.2"/>
<text text-anchor="start" x="30" y="-154.3" font-family="Helvetica,sans-Serif" font-size="11.00" fill="#000000">analysis_id</text>
<polygon fill="none" stroke="#000000" points="200,-147.2 200,-169.2 262,-169.2 262,-147.2 200,-147.2"/>
<text text-anchor="start" x="202.878" y="-154.9" font-family="Helvetica,sans-Serif" font-size="11.00" fill="#000000">unknown[0]</text>
<polygon fill="none" stroke="#000000" points="10,-125.2 10,-147.2 200,-147.2 200,-125.2 10,-125.2"/>
<text text-anchor="start" x="30" y="-132.3" font-family="Helvetica,sans-Serif" font-size="11.00" fill="#000000">analysis_name</text>
<polygon fill="none" stroke="#000000" points="200,-125.2 200,-147.2 262,-147.2 262,-125.2 200,-125.2"/>
<text text-anchor="start" x="202.878" y="-132.9" font-family="Helvetica,sans-Serif" font-size="11.00" fill="#000000">unknown[0]</text>
<polygon fill="none" stroke="#000000" points="10,-103.2 10,-125.2 200,-125.2 200,-103.2 10,-103.2"/>
<text text-anchor="start" x="30" y="-110.3" font-family="Helvetica,sans-Serif" font-size="11.00" fill="#000000">domain_id</text>
<polygon fill="none" stroke="#000000" points="200,-103.2 200,-125.2 262,-125.2 262,-103.2 200,-103.2"/>
<text text-anchor="start" x="202.878" y="-110.9" font-family="Helvetica,sans-Serif" font-size="11.00" fill="#000000">unknown[0]</text>
<polygon fill="none" stroke="#000000" points="10,-81.2 10,-103.2 200,-103.2 200,-81.2 10,-81.2"/>
<text text-anchor="start" x="30" y="-88.3" font-family="Helvetica,sans-Serif" font-size="11.00" fill="#000000">is_binary</text>
<polygon fill="none" stroke="#000000" points="200,-81.2 200,-103.2 262,-103.2 262,-81.2 200,-81.2"/>
<text text-anchor="start" x="202.878" y="-88.9" font-family="Helvetica,sans-Serif" font-size="11.00" fill="#000000">unknown[0]</text>
<polygon fill="none" stroke="#000000" points="10,-59.2 10,-81.2 200,-81.2 200,-59.2 10,-59.2"/>
<text text-anchor="start" x="30" y="-66.3" font-family="Helvetica,sans-Serif" font-size="11.00" fill="#000000">missing_means_zero</text>
<polygon fill="none" stroke="#000000" points="200,-59.2 200,-81.2 262,-81.2 262,-59.2 200,-59.2"/>
<text text-anchor="start" x="202.878" y="-66.9" font-family="Helvetica,sans-Serif" font-size="11.00" fill="#000000">unknown[0]</text>
<polygon fill="#ffffff" stroke="transparent" points="10,-40.2 10,-59.2 96,-59.2 96,-40.2 10,-40.2"/>
<polygon fill="none" stroke="#000000" points="10,-40.2 10,-59.2 96,-59.2 96,-40.2 10,-40.2"/>
<text text-anchor="start" x="13" y="-46.3" font-family="Helvetica,sans-Serif" font-size="11.00" fill="#000000">&lt; 0</text>
<polygon fill="#ffffff" stroke="transparent" points="96,-40.2 96,-59.2 200,-59.2 200,-40.2 96,-40.2"/>
<polygon fill="none" stroke="#000000" points="96,-40.2 96,-59.2 200,-59.2 200,-40.2 96,-40.2"/>
<text text-anchor="start" x="164.6105" y="-46.3" font-family="Helvetica,sans-Serif" font-size="11.00" fill="#000000">0 rows</text>
<polygon fill="#ffffff" stroke="transparent" points="200,-40.2 200,-59.2 262,-59.2 262,-40.2 200,-40.2"/>
<polygon fill="none" stroke="#000000" points="200,-40.2 200,-59.2 262,-59.2 262,-40.2 200,-40.2"/>
<text text-anchor="start" x="243.4053" y="-46.3" font-family="Helvetica,sans-Serif" font-size="11.00" fill="#000000">1 &gt;</text>
<polygon fill="none" stroke="#000000" stroke-width="2" points="9,-39.2 9,-193.2 263,-193.2 263,-39.2 9,-39.2"/>
</a>
</g>
</g>
<!-- cd_temporal_covariate_ref&#45;&gt;cd_temporal_analysis_ref -->
<g id="edge1" class="edge">
<title>cd_temporal_covariate_ref:w&#45;&gt;cd_temporal_analysis_ref:e</title>
<path fill="none" stroke="#000000" d="M298.276,-158.2C286.2815,-158.2 278.8229,-158.2 262,-158.2"/>
<polygon fill="#000000" stroke="#000000" points="305,-158.2001 313,-161.8 309,-158.2 313,-158.2 313,-158.2 313,-158.2 309,-158.2 313,-154.6 305,-158.2001 305,-158.2001"/>
<ellipse fill="none" stroke="#000000" cx="301.8" cy="-158.2001" rx="3.2" ry="3.2"/>
</g>
</g>
</svg>
