<?xml version="1.0" encoding="UTF-8" standalone="no"?>
<!DOCTYPE svg PUBLIC "-//W3C//DTD SVG 1.1//EN"
 "http://www.w3.org/Graphics/SVG/1.1/DTD/svg11.dtd">
<!-- Generated by graphviz version 2.40.1 (20161225.0304)
 -->
<!-- Title: oneDegreeRelationshipsDiagram Pages: 1 -->
<svg width="571pt" height="237pt"
 viewBox="0.00 0.00 571.00 237.20" xmlns="http://www.w3.org/2000/svg" xmlns:xlink="http://www.w3.org/1999/xlink">
<g id="graph0" class="graph" transform="scale(1 1) rotate(0) translate(4 233.2)">
<title>oneDegreeRelationshipsDiagram</title>
<polygon fill="#ffffff" stroke="transparent" points="-4,4 -4,-233.2 567,-233.2 567,4 -4,4"/>
<text text-anchor="middle" x="72.4936" y="-7.3" font-family="Helvetica,sans-Serif" font-size="11.00" fill="#000000">Generated by SchemaSpy</text>
<!-- cd_temporal_covariate_ref -->
<g id="node1" class="node">
<title>cd_temporal_covariate_ref</title>
<g id="a_node1"><a xlink:href="../../tables/cd_temporal_covariate_ref.html" xlink:title="cd_temporal_covariate_ref" target="_top">
<polygon fill="#ffffff" stroke="transparent" points="291,-62.7 291,-196.7 555,-196.7 555,-62.7 291,-62.7"/>
<polygon fill="#f5f5f5" stroke="transparent" points="293,-171.7 293,-194.7 553,-194.7 553,-171.7 293,-171.7"/>
<polygon fill="none" stroke="#000000" points="293,-171.7 293,-194.7 553,-194.7 553,-171.7 293,-171.7"/>
<text text-anchor="start" x="298" y="-180.3" font-family="Helvetica,sans-Serif" font-weight="bold" font-size="11.00" fill="#000000">cd_temporal_covariate_ref</text>
<text text-anchor="start" x="518.0437" y="-179.8" font-family="Helvetica,sans-Serif" font-size="11.00" fill="#000000">[table]</text>
<polygon fill="none" stroke="#000000" points="293,-149.7 293,-171.7 491,-171.7 491,-149.7 293,-149.7"/>
<image xlink:href="../../images/foreignKeys.png" width="11px" height="12px" preserveAspectRatio="xMinYMin meet" x="298" y="-166.7"/>
<text text-anchor="start" x="313" y="-156.8" font-family="Helvetica,sans-Serif" font-size="11.00" fill="#000000">analysis_id</text>
<polygon fill="none" stroke="#000000" points="491,-149.7 491,-171.7 553,-171.7 553,-149.7 491,-149.7"/>
<text text-anchor="start" x="493.878" y="-157.4" font-family="Helvetica,sans-Serif" font-size="11.00" fill="#000000">unknown[0]</text>
<polygon fill="none" stroke="#000000" points="293,-127.7 293,-149.7 491,-149.7 491,-127.7 293,-127.7"/>
<text text-anchor="start" x="313" y="-134.8" font-family="Helvetica,sans-Serif" font-size="11.00" fill="#000000">concept_id</text>
<polygon fill="none" stroke="#000000" points="491,-127.7 491,-149.7 553,-149.7 553,-127.7 491,-127.7"/>
<text text-anchor="start" x="493.878" y="-135.4" font-family="Helvetica,sans-Serif" font-size="11.00" fill="#000000">unknown[0]</text>
<polygon fill="none" stroke="#000000" points="293,-105.7 293,-127.7 491,-127.7 491,-105.7 293,-105.7"/>
<image xlink:href="../../images/foreignKeys.png" width="11px" height="12px" preserveAspectRatio="xMinYMin meet" x="298" y="-122.7"/>
<text text-anchor="start" x="313" y="-112.8" font-family="Helvetica,sans-Serif" font-size="11.00" fill="#000000">covariate_id</text>
<polygon fill="none" stroke="#000000" points="491,-105.7 491,-127.7 553,-127.7 553,-105.7 491,-105.7"/>
<text text-anchor="start" x="493.878" y="-113.4" font-family="Helvetica,sans-Serif" font-size="11.00" fill="#000000">unknown[0]</text>
<polygon fill="none" stroke="#000000" points="293,-83.7 293,-105.7 491,-105.7 491,-83.7 293,-83.7"/>
<text text-anchor="start" x="313" y="-90.8" font-family="Helvetica,sans-Serif" font-size="11.00" fill="#000000">covariate_name</text>
<polygon fill="none" stroke="#000000" points="491,-83.7 491,-105.7 553,-105.7 553,-83.7 491,-83.7"/>
<text text-anchor="start" x="493.878" y="-91.4" font-family="Helvetica,sans-Serif" font-size="11.00" fill="#000000">unknown[0]</text>
<polygon fill="#ffffff" stroke="transparent" points="293,-64.7 293,-83.7 383,-83.7 383,-64.7 293,-64.7"/>
<polygon fill="none" stroke="#000000" points="293,-64.7 293,-83.7 383,-83.7 383,-64.7 293,-64.7"/>
<text text-anchor="start" x="296" y="-70.8" font-family="Helvetica,sans-Serif" font-size="11.00" fill="#000000">&lt; 2</text>
<polygon fill="#ffffff" stroke="transparent" points="383,-64.7 383,-83.7 491,-83.7 491,-64.7 383,-64.7"/>
<polygon fill="none" stroke="#000000" points="383,-64.7 383,-83.7 491,-83.7 491,-64.7 383,-64.7"/>
<text text-anchor="start" x="455.6105" y="-70.8" font-family="Helvetica,sans-Serif" font-size="11.00" fill="#000000">0 rows</text>
<polygon fill="#ffffff" stroke="transparent" points="491,-64.7 491,-83.7 553,-83.7 553,-64.7 491,-64.7"/>
<polygon fill="none" stroke="#000000" points="491,-64.7 491,-83.7 553,-83.7 553,-64.7 491,-64.7"/>
<text text-anchor="start" x="534.4053" y="-70.8" font-family="Helvetica,sans-Serif" font-size="11.00" fill="#000000">0 &gt;</text>
<polygon fill="none" stroke="#000000" stroke-width="2" points="292,-63.7 292,-195.7 554,-195.7 554,-63.7 292,-63.7"/>
</a>
</g>
</g>
<!-- cd_temporal_analysis_ref -->
<g id="node2" class="node">
<title>cd_temporal_analysis_ref</title>
<g id="a_node2"><a xlink:href="../../tables/cd_temporal_analysis_ref.html" xlink:title="cd_temporal_analysis_ref" target="_top">
<polygon fill="#ffffff" stroke="transparent" points="21,-142.2 21,-225.2 229,-225.2 229,-142.2 21,-142.2"/>
<polygon fill="#f5f5f5" stroke="transparent" points="21,-201.7 21,-224.7 229,-224.7 229,-201.7 21,-201.7"/>
<polygon fill="none" stroke="#000000" points="21,-201.7 21,-224.7 229,-224.7 229,-201.7 21,-201.7"/>
<text text-anchor="start" x="26" y="-210.3" font-family="Helvetica,sans-Serif" font-weight="bold" font-size="11.00" fill="#000000">cd_temporal_analysis_ref</text>
<text text-anchor="start" x="194.5219" y="-209.8" font-family="Helvetica,sans-Serif" font-size="11.00" fill="#000000">[table]</text>
<polygon fill="none" stroke="#000000" points="21,-179.7 21,-201.7 229,-201.7 229,-179.7 21,-179.7"/>
<image xlink:href="../../images/primaryKeys.png" width="11px" height="12px" preserveAspectRatio="xMinYMin meet" x="26" y="-196.7"/>
<text text-anchor="start" x="50" y="-186.8" font-family="Helvetica,sans-Serif" font-size="11.00" fill="#000000">analysis_id</text>
<polygon fill="none" stroke="#000000" points="21,-160.7 21,-179.7 229,-179.7 229,-160.7 21,-160.7"/>
<text text-anchor="start" x="24" y="-166.8" font-family="Helvetica,sans-Serif" font-size="11.00" fill="#000000">...</text>
<polygon fill="#ffffff" stroke="transparent" points="21,-141.7 21,-160.7 101,-160.7 101,-141.7 21,-141.7"/>
<polygon fill="none" stroke="#000000" points="21,-141.7 21,-160.7 101,-160.7 101,-141.7 21,-141.7"/>
<text text-anchor="start" x="24" y="-147.8" font-family="Helvetica,sans-Serif" font-size="11.00" fill="#000000"> &#160;</text>
<polygon fill="#ffffff" stroke="transparent" points="101,-141.7 101,-160.7 173,-160.7 173,-141.7 101,-141.7"/>
<polygon fill="none" stroke="#000000" points="101,-141.7 101,-160.7 173,-160.7 173,-141.7 101,-141.7"/>
<text text-anchor="start" x="137.6105" y="-147.8" font-family="Helvetica,sans-Serif" font-size="11.00" fill="#000000">0 rows</text>
<polygon fill="#ffffff" stroke="transparent" points="173,-141.7 173,-160.7 229,-160.7 229,-141.7 173,-141.7"/>
<polygon fill="none" stroke="#000000" points="173,-141.7 173,-160.7 229,-160.7 229,-141.7 173,-141.7"/>
<text text-anchor="start" x="210.4053" y="-147.8" font-family="Helvetica,sans-Serif" font-size="11.00" fill="#000000">1 &gt;</text>
</a>
</g>
</g>
<!-- cd_temporal_covariate_ref&#45;&gt;cd_temporal_analysis_ref -->
<g id="edge1" class="edge">
<title>cd_temporal_covariate_ref:w&#45;&gt;cd_temporal_analysis_ref:e</title>
<path fill="none" stroke="#000000" d="M278.6442,-163.2578C260.1882,-170.5126 254.7696,-190.7 229,-190.7"/>
<polygon fill="#000000" stroke="#000000" points="285.124,-162.1033 293.6315,-164.2442 289.062,-161.4017 293,-160.7 293,-160.7 293,-160.7 289.062,-161.4017 292.3685,-157.1558 285.124,-162.1033 285.124,-162.1033"/>
<ellipse fill="none" stroke="#000000" cx="281.9736" cy="-162.6646" rx="3.2" ry="3.2"/>
</g>
<!-- cd_temporal_covariate_value -->
<g id="node3" class="node">
<title>cd_temporal_covariate_value</title>
<g id="a_node3"><a xlink:href="../../tables/cd_temporal_covariate_value.html" xlink:title="cd_temporal_covariate_value" target="_top">
<polygon fill="#ffffff" stroke="transparent" points="8,-38.2 8,-121.2 242,-121.2 242,-38.2 8,-38.2"/>
<polygon fill="#f5f5f5" stroke="transparent" points="8,-97.7 8,-120.7 242,-120.7 242,-97.7 8,-97.7"/>
<polygon fill="none" stroke="#000000" points="8,-97.7 8,-120.7 242,-120.7 242,-97.7 8,-97.7"/>
<text text-anchor="start" x="13" y="-106.3" font-family="Helvetica,sans-Serif" font-weight="bold" font-size="11.00" fill="#000000">cd_temporal_covariate_value</text>
<text text-anchor="start" x="207.5219" y="-105.8" font-family="Helvetica,sans-Serif" font-size="11.00" fill="#000000">[table]</text>
<polygon fill="none" stroke="#000000" points="8,-75.7 8,-97.7 242,-97.7 242,-75.7 8,-75.7"/>
<image xlink:href="../../images/primaryKeys.png" width="11px" height="12px" preserveAspectRatio="xMinYMin meet" x="13" y="-92.7"/>
<text text-anchor="start" x="37" y="-82.8" font-family="Helvetica,sans-Serif" font-size="11.00" fill="#000000">covariate_id</text>
<polygon fill="none" stroke="#000000" points="8,-56.7 8,-75.7 242,-75.7 242,-56.7 8,-56.7"/>
<text text-anchor="start" x="11" y="-62.8" font-family="Helvetica,sans-Serif" font-size="11.00" fill="#000000">...</text>
<polygon fill="#ffffff" stroke="transparent" points="8,-37.7 8,-56.7 101,-56.7 101,-37.7 8,-37.7"/>
<polygon fill="none" stroke="#000000" points="8,-37.7 8,-56.7 101,-56.7 101,-37.7 8,-37.7"/>
<text text-anchor="start" x="11" y="-43.8" font-family="Helvetica,sans-Serif" font-size="11.00" fill="#000000"> &#160;</text>
<polygon fill="#ffffff" stroke="transparent" points="101,-37.7 101,-56.7 180,-56.7 180,-37.7 101,-37.7"/>
<polygon fill="none" stroke="#000000" points="101,-37.7 101,-56.7 180,-56.7 180,-37.7 101,-37.7"/>
<text text-anchor="start" x="144.6105" y="-43.8" font-family="Helvetica,sans-Serif" font-size="11.00" fill="#000000">0 rows</text>
<polygon fill="#ffffff" stroke="transparent" points="180,-37.7 180,-56.7 242,-56.7 242,-37.7 180,-37.7"/>
<polygon fill="none" stroke="#000000" points="180,-37.7 180,-56.7 242,-56.7 242,-37.7 180,-37.7"/>
<text text-anchor="start" x="223.4053" y="-43.8" font-family="Helvetica,sans-Serif" font-size="11.00" fill="#000000">1 &gt;</text>
</a>
</g>
</g>
<!-- cd_temporal_covariate_ref&#45;&gt;cd_temporal_covariate_value -->
<g id="edge2" class="edge">
<title>cd_temporal_covariate_ref:w&#45;&gt;cd_temporal_covariate_value:e</title>
<path fill="none" stroke="#000000" d="M278.7724,-112.778C265.9935,-104.6462 262.3394,-86.7 242,-86.7"/>
<polygon fill="#000000" stroke="#000000" points="285.2877,-114.574 292.0433,-120.1706 289.1438,-115.637 293,-116.7 293,-116.7 293,-116.7 289.1438,-115.637 293.9567,-113.2294 285.2877,-114.574 285.2877,-114.574"/>
<ellipse fill="none" stroke="#000000" cx="282.2027" cy="-113.7236" rx="3.2" ry="3.2"/>
</g>
</g>
</svg>
