<?xml version="1.0" encoding="UTF-8" standalone="no"?>
<!DOCTYPE svg PUBLIC "-//W3C//DTD SVG 1.1//EN"
 "http://www.w3.org/Graphics/SVG/1.1/DTD/svg11.dtd">
<!-- Generated by graphviz version 2.40.1 (20161225.0304)
 -->
<!-- Title: twoDegreesRelationshipsDiagram Pages: 1 -->
<svg width="545pt" height="289pt"
 viewBox="0.00 0.00 545.00 288.70" xmlns="http://www.w3.org/2000/svg" xmlns:xlink="http://www.w3.org/1999/xlink">
<g id="graph0" class="graph" transform="scale(1 1) rotate(0) translate(4 284.7)">
<title>twoDegreesRelationshipsDiagram</title>
<polygon fill="#ffffff" stroke="transparent" points="-4,4 -4,-284.7 541,-284.7 541,4 -4,4"/>
<text text-anchor="middle" x="72.4936" y="-7.3" font-family="Helvetica,sans-Serif" font-size="11.00" fill="#000000">Generated by SchemaSpy</text>
<!-- cd_temporal_covariate_ref -->
<g id="node1" class="node">
<title>cd_temporal_covariate_ref</title>
<g id="a_node1"><a xlink:href="../../tables/cd_temporal_covariate_ref.html" xlink:title="cd_temporal_covariate_ref" target="_top">
<polygon fill="#ffffff" stroke="transparent" points="313,-93.2 313,-198.2 529,-198.2 529,-93.2 313,-93.2"/>
<polygon fill="#f5f5f5" stroke="transparent" points="313,-174.7 313,-197.7 529,-197.7 529,-174.7 313,-174.7"/>
<polygon fill="none" stroke="#000000" points="313,-174.7 313,-197.7 529,-197.7 529,-174.7 313,-174.7"/>
<text text-anchor="start" x="318" y="-183.3" font-family="Helvetica,sans-Serif" font-weight="bold" font-size="11.00" fill="#000000">cd_temporal_covariate_ref</text>
<text text-anchor="start" x="494.5219" y="-182.8" font-family="Helvetica,sans-Serif" font-size="11.00" fill="#000000">[table]</text>
<polygon fill="none" stroke="#000000" points="313,-152.7 313,-174.7 529,-174.7 529,-152.7 313,-152.7"/>
<image xlink:href="../../images/foreignKeys.png" width="11px" height="12px" preserveAspectRatio="xMinYMin meet" x="318" y="-169.7"/>
<text text-anchor="start" x="342" y="-159.8" font-family="Helvetica,sans-Serif" font-size="11.00" fill="#000000">analysis_id</text>
<polygon fill="none" stroke="#000000" points="313,-130.7 313,-152.7 529,-152.7 529,-130.7 313,-130.7"/>
<image xlink:href="../../images/foreignKeys.png" width="11px" height="12px" preserveAspectRatio="xMinYMin meet" x="318" y="-147.7"/>
<text text-anchor="start" x="342" y="-137.8" font-family="Helvetica,sans-Serif" font-size="11.00" fill="#000000">covariate_id</text>
<polygon fill="none" stroke="#000000" points="313,-111.7 313,-130.7 529,-130.7 529,-111.7 313,-111.7"/>
<text text-anchor="start" x="316" y="-117.8" font-family="Helvetica,sans-Serif" font-size="11.00" fill="#000000">...</text>
<polygon fill="#ffffff" stroke="transparent" points="313,-92.7 313,-111.7 406,-111.7 406,-92.7 313,-92.7"/>
<polygon fill="none" stroke="#000000" points="313,-92.7 313,-111.7 406,-111.7 406,-92.7 313,-92.7"/>
<text text-anchor="start" x="316" y="-98.8" font-family="Helvetica,sans-Serif" font-size="11.00" fill="#000000">&lt; 2</text>
<polygon fill="#ffffff" stroke="transparent" points="406,-92.7 406,-111.7 480,-111.7 480,-92.7 406,-92.7"/>
<polygon fill="none" stroke="#000000" points="406,-92.7 406,-111.7 480,-111.7 480,-92.7 406,-92.7"/>
<text text-anchor="start" x="444.6105" y="-98.8" font-family="Helvetica,sans-Serif" font-size="11.00" fill="#000000">0 rows</text>
<polygon fill="#ffffff" stroke="transparent" points="480,-92.7 480,-111.7 529,-111.7 529,-92.7 480,-92.7"/>
<polygon fill="none" stroke="#000000" points="480,-92.7 480,-111.7 529,-111.7 529,-92.7 480,-92.7"/>
<text text-anchor="start" x="519.8862" y="-98.8" font-family="Helvetica,sans-Serif" font-size="11.00" fill="#000000"> &#160;</text>
</a>
</g>
</g>
<!-- cd_temporal_analysis_ref -->
<g id="node2" class="node">
<title>cd_temporal_analysis_ref</title>
<g id="a_node2"><a xlink:href="../../tables/cd_temporal_analysis_ref.html" xlink:title="cd_temporal_analysis_ref" target="_top">
<polygon fill="#ffffff" stroke="transparent" points="8,-120.7 8,-276.7 264,-276.7 264,-120.7 8,-120.7"/>
<polygon fill="#f5f5f5" stroke="transparent" points="10,-251.7 10,-274.7 262,-274.7 262,-251.7 10,-251.7"/>
<polygon fill="none" stroke="#000000" points="10,-251.7 10,-274.7 262,-274.7 262,-251.7 10,-251.7"/>
<text text-anchor="start" x="15" y="-260.3" font-family="Helvetica,sans-Serif" font-weight="bold" font-size="11.00" fill="#000000">cd_temporal_analysis_ref</text>
<text text-anchor="start" x="227.0437" y="-259.8" font-family="Helvetica,sans-Serif" font-size="11.00" fill="#000000">[table]</text>
<polygon fill="none" stroke="#000000" points="10,-229.7 10,-251.7 200,-251.7 200,-229.7 10,-229.7"/>
<image xlink:href="../../images/primaryKeys.png" width="11px" height="12px" preserveAspectRatio="xMinYMin meet" x="15" y="-246.7"/>
<text text-anchor="start" x="30" y="-236.8" font-family="Helvetica,sans-Serif" font-size="11.00" fill="#000000">analysis_id</text>
<polygon fill="none" stroke="#000000" points="200,-229.7 200,-251.7 262,-251.7 262,-229.7 200,-229.7"/>
<text text-anchor="start" x="202.878" y="-237.4" font-family="Helvetica,sans-Serif" font-size="11.00" fill="#000000">unknown[0]</text>
<polygon fill="none" stroke="#000000" points="10,-207.7 10,-229.7 200,-229.7 200,-207.7 10,-207.7"/>
<text text-anchor="start" x="30" y="-214.8" font-family="Helvetica,sans-Serif" font-size="11.00" fill="#000000">analysis_name</text>
<polygon fill="none" stroke="#000000" points="200,-207.7 200,-229.7 262,-229.7 262,-207.7 200,-207.7"/>
<text text-anchor="start" x="202.878" y="-215.4" font-family="Helvetica,sans-Serif" font-size="11.00" fill="#000000">unknown[0]</text>
<polygon fill="none" stroke="#000000" points="10,-185.7 10,-207.7 200,-207.7 200,-185.7 10,-185.7"/>
<text text-anchor="start" x="30" y="-192.8" font-family="Helvetica,sans-Serif" font-size="11.00" fill="#000000">domain_id</text>
<polygon fill="none" stroke="#000000" points="200,-185.7 200,-207.7 262,-207.7 262,-185.7 200,-185.7"/>
<text text-anchor="start" x="202.878" y="-193.4" font-family="Helvetica,sans-Serif" font-size="11.00" fill="#000000">unknown[0]</text>
<polygon fill="none" stroke="#000000" points="10,-163.7 10,-185.7 200,-185.7 200,-163.7 10,-163.7"/>
<text text-anchor="start" x="30" y="-170.8" font-family="Helvetica,sans-Serif" font-size="11.00" fill="#000000">is_binary</text>
<polygon fill="none" stroke="#000000" points="200,-163.7 200,-185.7 262,-185.7 262,-163.7 200,-163.7"/>
<text text-anchor="start" x="202.878" y="-171.4" font-family="Helvetica,sans-Serif" font-size="11.00" fill="#000000">unknown[0]</text>
<polygon fill="none" stroke="#000000" points="10,-141.7 10,-163.7 200,-163.7 200,-141.7 10,-141.7"/>
<text text-anchor="start" x="30" y="-148.8" font-family="Helvetica,sans-Serif" font-size="11.00" fill="#000000">missing_means_zero</text>
<polygon fill="none" stroke="#000000" points="200,-141.7 200,-163.7 262,-163.7 262,-141.7 200,-141.7"/>
<text text-anchor="start" x="202.878" y="-149.4" font-family="Helvetica,sans-Serif" font-size="11.00" fill="#000000">unknown[0]</text>
<polygon fill="#ffffff" stroke="transparent" points="10,-122.7 10,-141.7 96,-141.7 96,-122.7 10,-122.7"/>
<polygon fill="none" stroke="#000000" points="10,-122.7 10,-141.7 96,-141.7 96,-122.7 10,-122.7"/>
<text text-anchor="start" x="13" y="-128.8" font-family="Helvetica,sans-Serif" font-size="11.00" fill="#000000">&lt; 0</text>
<polygon fill="#ffffff" stroke="transparent" points="96,-122.7 96,-141.7 200,-141.7 200,-122.7 96,-122.7"/>
<polygon fill="none" stroke="#000000" points="96,-122.7 96,-141.7 200,-141.7 200,-122.7 96,-122.7"/>
<text text-anchor="start" x="164.6105" y="-128.8" font-family="Helvetica,sans-Serif" font-size="11.00" fill="#000000">0 rows</text>
<polygon fill="#ffffff" stroke="transparent" points="200,-122.7 200,-141.7 262,-141.7 262,-122.7 200,-122.7"/>
<polygon fill="none" stroke="#000000" points="200,-122.7 200,-141.7 262,-141.7 262,-122.7 200,-122.7"/>
<text text-anchor="start" x="243.4053" y="-128.8" font-family="Helvetica,sans-Serif" font-size="11.00" fill="#000000">1 &gt;</text>
<polygon fill="none" stroke="#000000" stroke-width="2" points="9,-121.7 9,-275.7 263,-275.7 263,-121.7 9,-121.7"/>
</a>
</g>
</g>
<!-- cd_temporal_covariate_ref&#45;&gt;cd_temporal_analysis_ref -->
<g id="edge1" class="edge">
<title>cd_temporal_covariate_ref:w&#45;&gt;cd_temporal_analysis_ref:e</title>
<path fill="none" stroke="#000000" d="M299.0177,-168.2861C279.594,-184.8628 296.9549,-240.7 262,-240.7"/>
<polygon fill="#000000" stroke="#000000" points="305.3984,-166.1933 314.122,-167.1207 309.1992,-164.9466 313,-163.7 313,-163.7 313,-163.7 309.1992,-164.9466 311.878,-160.2793 305.3984,-166.1933 305.3984,-166.1933"/>
<ellipse fill="none" stroke="#000000" cx="302.3578" cy="-167.1906" rx="3.2" ry="3.2"/>
</g>
<!-- cd_temporal_covariate_value -->
<g id="node3" class="node">
<title>cd_temporal_covariate_value</title>
<g id="a_node3"><a xlink:href="../../tables/cd_temporal_covariate_value.html" xlink:title="cd_temporal_covariate_value" target="_top">
<polygon fill="#ffffff" stroke="transparent" points="19,-38.2 19,-99.2 253,-99.2 253,-38.2 19,-38.2"/>
<polygon fill="#f5f5f5" stroke="transparent" points="19,-75.7 19,-98.7 253,-98.7 253,-75.7 19,-75.7"/>
<polygon fill="none" stroke="#000000" points="19,-75.7 19,-98.7 253,-98.7 253,-75.7 19,-75.7"/>
<text text-anchor="start" x="24" y="-84.3" font-family="Helvetica,sans-Serif" font-weight="bold" font-size="11.00" fill="#000000">cd_temporal_covariate_value</text>
<text text-anchor="start" x="218.5219" y="-83.8" font-family="Helvetica,sans-Serif" font-size="11.00" fill="#000000">[table]</text>
<polygon fill="none" stroke="#000000" points="19,-56.7 19,-75.7 253,-75.7 253,-56.7 19,-56.7"/>
<text text-anchor="start" x="22" y="-62.8" font-family="Helvetica,sans-Serif" font-size="11.00" fill="#000000">...</text>
<polygon fill="#ffffff" stroke="transparent" points="19,-37.7 19,-56.7 112,-56.7 112,-37.7 19,-37.7"/>
<polygon fill="none" stroke="#000000" points="19,-37.7 19,-56.7 112,-56.7 112,-37.7 19,-37.7"/>
<text text-anchor="start" x="22" y="-43.8" font-family="Helvetica,sans-Serif" font-size="11.00" fill="#000000"> &#160;</text>
<polygon fill="#ffffff" stroke="transparent" points="112,-37.7 112,-56.7 191,-56.7 191,-37.7 112,-37.7"/>
<polygon fill="none" stroke="#000000" points="112,-37.7 112,-56.7 191,-56.7 191,-37.7 112,-37.7"/>
<text text-anchor="start" x="155.6105" y="-43.8" font-family="Helvetica,sans-Serif" font-size="11.00" fill="#000000">0 rows</text>
<polygon fill="#ffffff" stroke="transparent" points="191,-37.7 191,-56.7 253,-56.7 253,-37.7 191,-37.7"/>
<polygon fill="none" stroke="#000000" points="191,-37.7 191,-56.7 253,-56.7 253,-37.7 191,-37.7"/>
<text text-anchor="start" x="234.4053" y="-43.8" font-family="Helvetica,sans-Serif" font-size="11.00" fill="#000000">1 &gt;</text>
</a>
</g>
</g>
<!-- cd_temporal_covariate_ref&#45;&gt;cd_temporal_covariate_value -->
<g id="edge2" class="edge">
<title>cd_temporal_covariate_ref:w&#45;&gt;cd_temporal_covariate_value:e</title>
<path fill="none" stroke="#000000" d="M298.8707,-137.8267C275.8016,-122.3393 290.1517,-65.7 253,-65.7"/>
<polygon fill="#000000" stroke="#000000" points="305.2847,-139.5849 312.0482,-145.1719 309.1423,-140.6425 313,-141.7 313,-141.7 313,-141.7 309.1423,-140.6425 313.9518,-138.2281 305.2847,-139.5849 305.2847,-139.5849"/>
<ellipse fill="none" stroke="#000000" cx="302.1985" cy="-138.7389" rx="3.2" ry="3.2"/>
</g>
</g>
</svg>
