<?xml version="1.0" encoding="UTF-8" standalone="no"?>
<!DOCTYPE svg PUBLIC "-//W3C//DTD SVG 1.1//EN"
 "http://www.w3.org/Graphics/SVG/1.1/DTD/svg11.dtd">
<!-- Generated by graphviz version 2.40.1 (20161225.0304)
 -->
<!-- Title: twoDegreesRelationshipsDiagram Pages: 1 -->
<svg width="571pt" height="333pt"
 viewBox="0.00 0.00 571.00 332.70" xmlns="http://www.w3.org/2000/svg" xmlns:xlink="http://www.w3.org/1999/xlink">
<g id="graph0" class="graph" transform="scale(1 1) rotate(0) translate(4 328.7)">
<title>twoDegreesRelationshipsDiagram</title>
<polygon fill="#ffffff" stroke="transparent" points="-4,4 -4,-328.7 567,-328.7 567,4 -4,4"/>
<text text-anchor="middle" x="72.4936" y="-7.3" font-family="Helvetica,sans-Serif" font-size="11.00" fill="#000000">Generated by SchemaSpy</text>
<!-- cd_temporal_covariate_ref -->
<g id="node1" class="node">
<title>cd_temporal_covariate_ref</title>
<g id="a_node1"><a xlink:href="../../tables/cd_temporal_covariate_ref.html" xlink:title="cd_temporal_covariate_ref" target="_top">
<polygon fill="#ffffff" stroke="transparent" points="339,-173.7 339,-278.7 555,-278.7 555,-173.7 339,-173.7"/>
<polygon fill="#f5f5f5" stroke="transparent" points="339,-255.2 339,-278.2 555,-278.2 555,-255.2 339,-255.2"/>
<polygon fill="none" stroke="#000000" points="339,-255.2 339,-278.2 555,-278.2 555,-255.2 339,-255.2"/>
<text text-anchor="start" x="344" y="-263.8" font-family="Helvetica,sans-Serif" font-weight="bold" font-size="11.00" fill="#000000">cd_temporal_covariate_ref</text>
<text text-anchor="start" x="520.5219" y="-263.3" font-family="Helvetica,sans-Serif" font-size="11.00" fill="#000000">[table]</text>
<polygon fill="none" stroke="#000000" points="339,-233.2 339,-255.2 555,-255.2 555,-233.2 339,-233.2"/>
<image xlink:href="../../images/foreignKeys.png" width="11px" height="12px" preserveAspectRatio="xMinYMin meet" x="344" y="-250.2"/>
<text text-anchor="start" x="368" y="-240.3" font-family="Helvetica,sans-Serif" font-size="11.00" fill="#000000">analysis_id</text>
<polygon fill="none" stroke="#000000" points="339,-211.2 339,-233.2 555,-233.2 555,-211.2 339,-211.2"/>
<image xlink:href="../../images/foreignKeys.png" width="11px" height="12px" preserveAspectRatio="xMinYMin meet" x="344" y="-228.2"/>
<text text-anchor="start" x="368" y="-218.3" font-family="Helvetica,sans-Serif" font-size="11.00" fill="#000000">covariate_id</text>
<polygon fill="none" stroke="#000000" points="339,-192.2 339,-211.2 555,-211.2 555,-192.2 339,-192.2"/>
<text text-anchor="start" x="342" y="-198.3" font-family="Helvetica,sans-Serif" font-size="11.00" fill="#000000">...</text>
<polygon fill="#ffffff" stroke="transparent" points="339,-173.2 339,-192.2 432,-192.2 432,-173.2 339,-173.2"/>
<polygon fill="none" stroke="#000000" points="339,-173.2 339,-192.2 432,-192.2 432,-173.2 339,-173.2"/>
<text text-anchor="start" x="342" y="-179.3" font-family="Helvetica,sans-Serif" font-size="11.00" fill="#000000">&lt; 2</text>
<polygon fill="#ffffff" stroke="transparent" points="432,-173.2 432,-192.2 506,-192.2 506,-173.2 432,-173.2"/>
<polygon fill="none" stroke="#000000" points="432,-173.2 432,-192.2 506,-192.2 506,-173.2 432,-173.2"/>
<text text-anchor="start" x="470.6105" y="-179.3" font-family="Helvetica,sans-Serif" font-size="11.00" fill="#000000">0 rows</text>
<polygon fill="#ffffff" stroke="transparent" points="506,-173.2 506,-192.2 555,-192.2 555,-173.2 506,-173.2"/>
<polygon fill="none" stroke="#000000" points="506,-173.2 506,-192.2 555,-192.2 555,-173.2 506,-173.2"/>
<text text-anchor="start" x="545.8862" y="-179.3" font-family="Helvetica,sans-Serif" font-size="11.00" fill="#000000"> &#160;</text>
</a>
</g>
</g>
<!-- cd_temporal_analysis_ref -->
<g id="node2" class="node">
<title>cd_temporal_analysis_ref</title>
<g id="a_node2"><a xlink:href="../../tables/cd_temporal_analysis_ref.html" xlink:title="cd_temporal_analysis_ref" target="_top">
<polygon fill="#ffffff" stroke="transparent" points="45,-259.7 45,-320.7 253,-320.7 253,-259.7 45,-259.7"/>
<polygon fill="#f5f5f5" stroke="transparent" points="45,-297.2 45,-320.2 253,-320.2 253,-297.2 45,-297.2"/>
<polygon fill="none" stroke="#000000" points="45,-297.2 45,-320.2 253,-320.2 253,-297.2 45,-297.2"/>
<text text-anchor="start" x="50" y="-305.8" font-family="Helvetica,sans-Serif" font-weight="bold" font-size="11.00" fill="#000000">cd_temporal_analysis_ref</text>
<text text-anchor="start" x="218.5219" y="-305.3" font-family="Helvetica,sans-Serif" font-size="11.00" fill="#000000">[table]</text>
<polygon fill="none" stroke="#000000" points="45,-278.2 45,-297.2 253,-297.2 253,-278.2 45,-278.2"/>
<text text-anchor="start" x="48" y="-284.3" font-family="Helvetica,sans-Serif" font-size="11.00" fill="#000000">...</text>
<polygon fill="#ffffff" stroke="transparent" points="45,-259.2 45,-278.2 125,-278.2 125,-259.2 45,-259.2"/>
<polygon fill="none" stroke="#000000" points="45,-259.2 45,-278.2 125,-278.2 125,-259.2 45,-259.2"/>
<text text-anchor="start" x="48" y="-265.3" font-family="Helvetica,sans-Serif" font-size="11.00" fill="#000000"> &#160;</text>
<polygon fill="#ffffff" stroke="transparent" points="125,-259.2 125,-278.2 197,-278.2 197,-259.2 125,-259.2"/>
<polygon fill="none" stroke="#000000" points="125,-259.2 125,-278.2 197,-278.2 197,-259.2 125,-259.2"/>
<text text-anchor="start" x="161.6105" y="-265.3" font-family="Helvetica,sans-Serif" font-size="11.00" fill="#000000">0 rows</text>
<polygon fill="#ffffff" stroke="transparent" points="197,-259.2 197,-278.2 253,-278.2 253,-259.2 197,-259.2"/>
<polygon fill="none" stroke="#000000" points="197,-259.2 197,-278.2 253,-278.2 253,-259.2 197,-259.2"/>
<text text-anchor="start" x="234.4053" y="-265.3" font-family="Helvetica,sans-Serif" font-size="11.00" fill="#000000">1 &gt;</text>
</a>
</g>
</g>
<!-- cd_temporal_covariate_ref&#45;&gt;cd_temporal_analysis_ref -->
<g id="edge1" class="edge">
<title>cd_temporal_covariate_ref:w&#45;&gt;cd_temporal_analysis_ref:e</title>
<path fill="none" stroke="#000000" d="M324.397,-246.1594C295.4277,-254.5714 290.2251,-287.2 253,-287.2"/>
<polygon fill="#000000" stroke="#000000" points="331.0711,-245.2639 339.4788,-247.768 335.0355,-244.732 339,-244.2 339,-244.2 339,-244.2 335.0355,-244.732 338.5212,-240.632 331.0711,-245.2639 331.0711,-245.2639"/>
<ellipse fill="none" stroke="#000000" cx="327.8995" cy="-245.6895" rx="3.2" ry="3.2"/>
</g>
<!-- cd_temporal_covariate_value -->
<g id="node3" class="node">
<title>cd_temporal_covariate_value</title>
<g id="a_node3"><a xlink:href="../../tables/cd_temporal_covariate_value.html" xlink:title="cd_temporal_covariate_value" target="_top">
<polygon fill="#ffffff" stroke="transparent" points="8,-38.2 8,-238.2 290,-238.2 290,-38.2 8,-38.2"/>
<polygon fill="#f5f5f5" stroke="transparent" points="10,-213.2 10,-236.2 288,-236.2 288,-213.2 10,-213.2"/>
<polygon fill="none" stroke="#000000" points="10,-213.2 10,-236.2 288,-236.2 288,-213.2 10,-213.2"/>
<text text-anchor="start" x="15" y="-221.8" font-family="Helvetica,sans-Serif" font-weight="bold" font-size="11.00" fill="#000000">cd_temporal_covariate_value</text>
<text text-anchor="start" x="253.0437" y="-221.3" font-family="Helvetica,sans-Serif" font-size="11.00" fill="#000000">[table]</text>
<polygon fill="none" stroke="#000000" points="10,-191.2 10,-213.2 226,-213.2 226,-191.2 10,-191.2"/>
<text text-anchor="start" x="30" y="-198.3" font-family="Helvetica,sans-Serif" font-size="11.00" fill="#000000">cohort_id</text>
<polygon fill="none" stroke="#000000" points="226,-191.2 226,-213.2 288,-213.2 288,-191.2 226,-191.2"/>
<text text-anchor="start" x="228.878" y="-198.9" font-family="Helvetica,sans-Serif" font-size="11.00" fill="#000000">unknown[0]</text>
<polygon fill="none" stroke="#000000" points="10,-169.2 10,-191.2 226,-191.2 226,-169.2 10,-169.2"/>
<image xlink:href="../../images/primaryKeys.png" width="11px" height="12px" preserveAspectRatio="xMinYMin meet" x="15" y="-186.2"/>
<text text-anchor="start" x="30" y="-176.3" font-family="Helvetica,sans-Serif" font-size="11.00" fill="#000000">covariate_id</text>
<polygon fill="none" stroke="#000000" points="226,-169.2 226,-191.2 288,-191.2 288,-169.2 226,-169.2"/>
<text text-anchor="start" x="228.878" y="-176.9" font-family="Helvetica,sans-Serif" font-size="11.00" fill="#000000">unknown[0]</text>
<polygon fill="none" stroke="#000000" points="10,-147.2 10,-169.2 226,-169.2 226,-147.2 10,-147.2"/>
<text text-anchor="start" x="30" y="-154.3" font-family="Helvetica,sans-Serif" font-size="11.00" fill="#000000">database_id</text>
<polygon fill="none" stroke="#000000" points="226,-147.2 226,-169.2 288,-169.2 288,-147.2 226,-147.2"/>
<text text-anchor="start" x="228.878" y="-154.9" font-family="Helvetica,sans-Serif" font-size="11.00" fill="#000000">unknown[0]</text>
<polygon fill="none" stroke="#000000" points="10,-125.2 10,-147.2 226,-147.2 226,-125.2 10,-125.2"/>
<text text-anchor="start" x="30" y="-132.3" font-family="Helvetica,sans-Serif" font-size="11.00" fill="#000000">mean</text>
<polygon fill="none" stroke="#000000" points="226,-125.2 226,-147.2 288,-147.2 288,-125.2 226,-125.2"/>
<text text-anchor="start" x="228.878" y="-132.9" font-family="Helvetica,sans-Serif" font-size="11.00" fill="#000000">unknown[0]</text>
<polygon fill="none" stroke="#000000" points="10,-103.2 10,-125.2 226,-125.2 226,-103.2 10,-103.2"/>
<text text-anchor="start" x="30" y="-110.3" font-family="Helvetica,sans-Serif" font-size="11.00" fill="#000000">sd</text>
<polygon fill="none" stroke="#000000" points="226,-103.2 226,-125.2 288,-125.2 288,-103.2 226,-103.2"/>
<text text-anchor="start" x="228.878" y="-110.9" font-family="Helvetica,sans-Serif" font-size="11.00" fill="#000000">unknown[0]</text>
<polygon fill="none" stroke="#000000" points="10,-81.2 10,-103.2 226,-103.2 226,-81.2 10,-81.2"/>
<text text-anchor="start" x="30" y="-88.3" font-family="Helvetica,sans-Serif" font-size="11.00" fill="#000000">sum_value</text>
<polygon fill="none" stroke="#000000" points="226,-81.2 226,-103.2 288,-103.2 288,-81.2 226,-81.2"/>
<text text-anchor="start" x="228.878" y="-88.9" font-family="Helvetica,sans-Serif" font-size="11.00" fill="#000000">unknown[0]</text>
<polygon fill="none" stroke="#000000" points="10,-59.2 10,-81.2 226,-81.2 226,-59.2 10,-59.2"/>
<text text-anchor="start" x="30" y="-66.3" font-family="Helvetica,sans-Serif" font-size="11.00" fill="#000000">time_id</text>
<polygon fill="none" stroke="#000000" points="226,-59.2 226,-81.2 288,-81.2 288,-59.2 226,-59.2"/>
<text text-anchor="start" x="228.878" y="-66.9" font-family="Helvetica,sans-Serif" font-size="11.00" fill="#000000">unknown[0]</text>
<polygon fill="#ffffff" stroke="transparent" points="10,-40.2 10,-59.2 109,-59.2 109,-40.2 10,-40.2"/>
<polygon fill="none" stroke="#000000" points="10,-40.2 10,-59.2 109,-59.2 109,-40.2 10,-40.2"/>
<text text-anchor="start" x="13" y="-46.3" font-family="Helvetica,sans-Serif" font-size="11.00" fill="#000000">&lt; 0</text>
<polygon fill="#ffffff" stroke="transparent" points="109,-40.2 109,-59.2 226,-59.2 226,-40.2 109,-40.2"/>
<polygon fill="none" stroke="#000000" points="109,-40.2 109,-59.2 226,-59.2 226,-40.2 109,-40.2"/>
<text text-anchor="start" x="190.6105" y="-46.3" font-family="Helvetica,sans-Serif" font-size="11.00" fill="#000000">0 rows</text>
<polygon fill="#ffffff" stroke="transparent" points="226,-40.2 226,-59.2 288,-59.2 288,-40.2 226,-40.2"/>
<polygon fill="none" stroke="#000000" points="226,-40.2 226,-59.2 288,-59.2 288,-40.2 226,-40.2"/>
<text text-anchor="start" x="269.4053" y="-46.3" font-family="Helvetica,sans-Serif" font-size="11.00" fill="#000000">1 &gt;</text>
<polygon fill="none" stroke="#000000" stroke-width="2" points="9,-39.2 9,-237.2 289,-237.2 289,-39.2 9,-39.2"/>
</a>
</g>
</g>
<!-- cd_temporal_covariate_ref&#45;&gt;cd_temporal_covariate_value -->
<g id="edge2" class="edge">
<title>cd_temporal_covariate_ref:w&#45;&gt;cd_temporal_covariate_value:e</title>
<path fill="none" stroke="#000000" d="M325.0759,-217.7053C311.2452,-206.8704 311.3991,-180.2 288,-180.2"/>
<polygon fill="#000000" stroke="#000000" points="331.3868,-219.7424 337.8941,-225.6259 335.1934,-220.9712 339,-222.2 339,-222.2 339,-222.2 335.1934,-220.9712 340.1059,-218.7741 331.3868,-219.7424 331.3868,-219.7424"/>
<ellipse fill="none" stroke="#000000" cx="328.3416" cy="-218.7594" rx="3.2" ry="3.2"/>
</g>
</g>
</svg>
