<?xml version="1.0" encoding="UTF-8" standalone="no"?>
<!DOCTYPE svg PUBLIC "-//W3C//DTD SVG 1.1//EN"
 "http://www.w3.org/Graphics/SVG/1.1/DTD/svg11.dtd">
<!-- Generated by graphviz version 2.40.1 (20161225.0304)
 -->
<!-- Title: oneDegreeRelationshipsDiagram Pages: 1 -->
<svg width="218pt" height="206pt"
 viewBox="0.00 0.00 218.00 206.20" xmlns="http://www.w3.org/2000/svg" xmlns:xlink="http://www.w3.org/1999/xlink">
<g id="graph0" class="graph" transform="scale(1 1) rotate(0) translate(4 202.2)">
<title>oneDegreeRelationshipsDiagram</title>
<polygon fill="#ffffff" stroke="transparent" points="-4,4 -4,-202.2 214,-202.2 214,4 -4,4"/>
<text text-anchor="middle" x="72.4936" y="-7.3" font-family="Helvetica,sans-Serif" font-size="11.00" fill="#000000">Generated by SchemaSpy</text>
<!-- cd_visit_context -->
<g id="node1" class="node">
<title>cd_visit_context</title>
<g id="a_node1"><a xlink:href="../../tables/cd_visit_context.html" xlink:title="cd_visit_context" target="_top">
<polygon fill="#ffffff" stroke="transparent" points="8,-38.2 8,-194.2 202,-194.2 202,-38.2 8,-38.2"/>
<polygon fill="#f5f5f5" stroke="transparent" points="10,-169.2 10,-192.2 200,-192.2 200,-169.2 10,-169.2"/>
<polygon fill="none" stroke="#000000" points="10,-169.2 10,-192.2 200,-192.2 200,-169.2 10,-169.2"/>
<text text-anchor="start" x="15" y="-177.8" font-family="Helvetica,sans-Serif" font-weight="bold" font-size="11.00" fill="#000000">cd_visit_context</text>
<text text-anchor="start" x="165.0437" y="-177.3" font-family="Helvetica,sans-Serif" font-size="11.00" fill="#000000">[table]</text>
<polygon fill="none" stroke="#000000" points="10,-147.2 10,-169.2 138,-169.2 138,-147.2 10,-147.2"/>
<text text-anchor="start" x="30" y="-154.3" font-family="Helvetica,sans-Serif" font-size="11.00" fill="#000000">cohort_id</text>
<polygon fill="none" stroke="#000000" points="138,-147.2 138,-169.2 200,-169.2 200,-147.2 138,-147.2"/>
<text text-anchor="start" x="140.878" y="-154.9" font-family="Helvetica,sans-Serif" font-size="11.00" fill="#000000">unknown[0]</text>
<polygon fill="none" stroke="#000000" points="10,-125.2 10,-147.2 138,-147.2 138,-125.2 10,-125.2"/>
<text text-anchor="start" x="30" y="-132.3" font-family="Helvetica,sans-Serif" font-size="11.00" fill="#000000">database_id</text>
<polygon fill="none" stroke="#000000" points="138,-125.2 138,-147.2 200,-147.2 200,-125.2 138,-125.2"/>
<text text-anchor="start" x="140.878" y="-132.9" font-family="Helvetica,sans-Serif" font-size="11.00" fill="#000000">unknown[0]</text>
<polygon fill="none" stroke="#000000" points="10,-103.2 10,-125.2 138,-125.2 138,-103.2 10,-103.2"/>
<text text-anchor="start" x="30" y="-110.3" font-family="Helvetica,sans-Serif" font-size="11.00" fill="#000000">subjects</text>
<polygon fill="none" stroke="#000000" points="138,-103.2 138,-125.2 200,-125.2 200,-103.2 138,-103.2"/>
<text text-anchor="start" x="140.878" y="-110.9" font-family="Helvetica,sans-Serif" font-size="11.00" fill="#000000">unknown[0]</text>
<polygon fill="none" stroke="#000000" points="10,-81.2 10,-103.2 138,-103.2 138,-81.2 10,-81.2"/>
<text text-anchor="start" x="30" y="-88.3" font-family="Helvetica,sans-Serif" font-size="11.00" fill="#000000">visit_concept_id</text>
<polygon fill="none" stroke="#000000" points="138,-81.2 138,-103.2 200,-103.2 200,-81.2 138,-81.2"/>
<text text-anchor="start" x="140.878" y="-88.9" font-family="Helvetica,sans-Serif" font-size="11.00" fill="#000000">unknown[0]</text>
<polygon fill="none" stroke="#000000" points="10,-59.2 10,-81.2 138,-81.2 138,-59.2 10,-59.2"/>
<text text-anchor="start" x="30" y="-66.3" font-family="Helvetica,sans-Serif" font-size="11.00" fill="#000000">visit_context</text>
<polygon fill="none" stroke="#000000" points="138,-59.2 138,-81.2 200,-81.2 200,-59.2 138,-59.2"/>
<text text-anchor="start" x="140.878" y="-66.9" font-family="Helvetica,sans-Serif" font-size="11.00" fill="#000000">unknown[0]</text>
<polygon fill="#ffffff" stroke="transparent" points="10,-40.2 10,-59.2 65,-59.2 65,-40.2 10,-40.2"/>
<polygon fill="none" stroke="#000000" points="10,-40.2 10,-59.2 65,-59.2 65,-40.2 10,-40.2"/>
<text text-anchor="start" x="13" y="-46.3" font-family="Helvetica,sans-Serif" font-size="11.00" fill="#000000">&lt; 0</text>
<polygon fill="#ffffff" stroke="transparent" points="65,-40.2 65,-59.2 138,-59.2 138,-40.2 65,-40.2"/>
<polygon fill="none" stroke="#000000" points="65,-40.2 65,-59.2 138,-59.2 138,-40.2 65,-40.2"/>
<text text-anchor="start" x="102.6105" y="-46.3" font-family="Helvetica,sans-Serif" font-size="11.00" fill="#000000">0 rows</text>
<polygon fill="#ffffff" stroke="transparent" points="138,-40.2 138,-59.2 200,-59.2 200,-40.2 138,-40.2"/>
<polygon fill="none" stroke="#000000" points="138,-40.2 138,-59.2 200,-59.2 200,-40.2 138,-40.2"/>
<text text-anchor="start" x="181.4053" y="-46.3" font-family="Helvetica,sans-Serif" font-size="11.00" fill="#000000">0 &gt;</text>
<polygon fill="none" stroke="#000000" stroke-width="2" points="9,-39.2 9,-193.2 201,-193.2 201,-39.2 9,-39.2"/>
</a>
</g>
</g>
</g>
</svg>
