<?xml version="1.0" encoding="UTF-8" standalone="no"?>
<!DOCTYPE svg PUBLIC "-//W3C//DTD SVG 1.1//EN"
 "http://www.w3.org/Graphics/SVG/1.1/DTD/svg11.dtd">
<!-- Generated by graphviz version 2.40.1 (20161225.0304)
 -->
<!-- Title: twoDegreesRelationshipsDiagram Pages: 1 -->
<svg width="482pt" height="1005pt"
 viewBox="0.00 0.00 482.00 1005.20" xmlns="http://www.w3.org/2000/svg" xmlns:xlink="http://www.w3.org/1999/xlink">
<g id="graph0" class="graph" transform="scale(1 1) rotate(0) translate(4 1001.2)">
<title>twoDegreesRelationshipsDiagram</title>
<polygon fill="#ffffff" stroke="transparent" points="-4,4 -4,-1001.2 478,-1001.2 478,4 -4,4"/>
<text text-anchor="middle" x="72.4936" y="-7.3" font-family="Helvetica,sans-Serif" font-size="11.00" fill="#000000">Generated by SchemaSpy</text>
<!-- c_cohort_details -->
<g id="node1" class="node">
<title>c_cohort_details</title>
<g id="a_node1"><a xlink:href="../../tables/c_cohort_details.html" xlink:title="c_cohort_details" target="_top">
<polygon fill="#ffffff" stroke="transparent" points="275.5,-932.2 275.5,-993.2 422.5,-993.2 422.5,-932.2 275.5,-932.2"/>
<polygon fill="#f5f5f5" stroke="transparent" points="276,-969.7 276,-992.7 423,-992.7 423,-969.7 276,-969.7"/>
<polygon fill="none" stroke="#000000" points="276,-969.7 276,-992.7 423,-992.7 423,-969.7 276,-969.7"/>
<text text-anchor="start" x="281" y="-978.3" font-family="Helvetica,sans-Serif" font-weight="bold" font-size="11.00" fill="#000000">c_cohort_details</text>
<text text-anchor="start" x="388.5219" y="-977.8" font-family="Helvetica,sans-Serif" font-size="11.00" fill="#000000">[table]</text>
<polygon fill="none" stroke="#000000" points="276,-950.7 276,-969.7 423,-969.7 423,-950.7 276,-950.7"/>
<text text-anchor="start" x="279" y="-956.8" font-family="Helvetica,sans-Serif" font-size="11.00" fill="#000000">...</text>
<polygon fill="#ffffff" stroke="transparent" points="276,-931.7 276,-950.7 330,-950.7 330,-931.7 276,-931.7"/>
<polygon fill="none" stroke="#000000" points="276,-931.7 276,-950.7 330,-950.7 330,-931.7 276,-931.7"/>
<text text-anchor="start" x="279" y="-937.8" font-family="Helvetica,sans-Serif" font-size="11.00" fill="#000000">&lt; 2</text>
<polygon fill="#ffffff" stroke="transparent" points="330,-931.7 330,-950.7 385,-950.7 385,-931.7 330,-931.7"/>
<polygon fill="none" stroke="#000000" points="330,-931.7 330,-950.7 385,-950.7 385,-931.7 330,-931.7"/>
<text text-anchor="start" x="349.6105" y="-937.8" font-family="Helvetica,sans-Serif" font-size="11.00" fill="#000000">0 rows</text>
<polygon fill="#ffffff" stroke="transparent" points="385,-931.7 385,-950.7 423,-950.7 423,-931.7 385,-931.7"/>
<polygon fill="none" stroke="#000000" points="385,-931.7 385,-950.7 423,-950.7 423,-931.7 385,-931.7"/>
<text text-anchor="start" x="404.4053" y="-937.8" font-family="Helvetica,sans-Serif" font-size="11.00" fill="#000000">3 &gt;</text>
</a>
</g>
</g>
<!-- cg_cohort_definition -->
<g id="node2" class="node">
<title>cg_cohort_definition</title>
<g id="a_node2"><a xlink:href="../../tables/cg_cohort_definition.html" xlink:title="cg_cohort_definition" target="_top">
<polygon fill="#ffffff" stroke="transparent" points="8,-345.2 8,-428.2 183,-428.2 183,-345.2 8,-345.2"/>
<polygon fill="#f5f5f5" stroke="transparent" points="8.5,-404.7 8.5,-427.7 183.5,-427.7 183.5,-404.7 8.5,-404.7"/>
<polygon fill="none" stroke="#000000" points="8.5,-404.7 8.5,-427.7 183.5,-427.7 183.5,-404.7 8.5,-404.7"/>
<text text-anchor="start" x="13.5" y="-413.3" font-family="Helvetica,sans-Serif" font-weight="bold" font-size="11.00" fill="#000000">cg_cohort_definition</text>
<text text-anchor="start" x="149.0219" y="-412.8" font-family="Helvetica,sans-Serif" font-size="11.00" fill="#000000">[table]</text>
<polygon fill="none" stroke="#000000" points="8.5,-382.7 8.5,-404.7 183.5,-404.7 183.5,-382.7 8.5,-382.7"/>
<image xlink:href="../../images/primaryKeys.png" width="11px" height="12px" preserveAspectRatio="xMinYMin meet" x="13.5" y="-399.7"/>
<text text-anchor="start" x="37.5" y="-389.8" font-family="Helvetica,sans-Serif" font-size="11.00" fill="#000000">cohort_definition_id</text>
<polygon fill="none" stroke="#000000" points="8.5,-363.7 8.5,-382.7 183.5,-382.7 183.5,-363.7 8.5,-363.7"/>
<text text-anchor="start" x="11.5" y="-369.8" font-family="Helvetica,sans-Serif" font-size="11.00" fill="#000000">...</text>
<polygon fill="#ffffff" stroke="transparent" points="8.5,-344.7 8.5,-363.7 69.5,-363.7 69.5,-344.7 8.5,-344.7"/>
<polygon fill="none" stroke="#000000" points="8.5,-344.7 8.5,-363.7 69.5,-363.7 69.5,-344.7 8.5,-344.7"/>
<text text-anchor="start" x="11.5" y="-350.8" font-family="Helvetica,sans-Serif" font-size="11.00" fill="#000000"> &#160;</text>
<polygon fill="#ffffff" stroke="transparent" points="69.5,-344.7 69.5,-363.7 131.5,-363.7 131.5,-344.7 69.5,-344.7"/>
<polygon fill="none" stroke="#000000" points="69.5,-344.7 69.5,-363.7 131.5,-363.7 131.5,-344.7 69.5,-344.7"/>
<text text-anchor="start" x="96.1105" y="-350.8" font-family="Helvetica,sans-Serif" font-size="11.00" fill="#000000">0 rows</text>
<polygon fill="#ffffff" stroke="transparent" points="131.5,-344.7 131.5,-363.7 183.5,-363.7 183.5,-344.7 131.5,-344.7"/>
<polygon fill="none" stroke="#000000" points="131.5,-344.7 131.5,-363.7 183.5,-363.7 183.5,-344.7 131.5,-344.7"/>
<text text-anchor="start" x="158.7904" y="-350.8" font-family="Helvetica,sans-Serif" font-size="11.00" fill="#000000">17 &gt;</text>
</a>
</g>
</g>
<!-- c_cohort_details&#45;&gt;cg_cohort_definition -->
<g id="edge1" class="edge">
<title>c_cohort_details:w&#45;&gt;cg_cohort_definition:e</title>
<path fill="none" stroke="#000000" d="M262.0269,-955.6572C243.7553,-948.5244 235.3703,-936.1165 224,-915.7 195.3719,-864.2951 242.339,-387.7 183.5,-393.7"/>
<polygon fill="#000000" stroke="#000000" points="268.3152,-957.4765 274.9994,-963.1582 272.1576,-958.5883 276,-959.7 276,-959.7 276,-959.7 272.1576,-958.5883 277.0006,-956.2418 268.3152,-957.4765 268.3152,-957.4765"/>
<ellipse fill="none" stroke="#000000" cx="265.2413" cy="-956.5871" rx="3.2" ry="3.2"/>
</g>
<!-- c_cohort_details&#45;&gt;cg_cohort_definition -->
<g id="edge2" class="edge">
<title>c_cohort_details:w&#45;&gt;cg_cohort_definition:e</title>
<path fill="none" stroke="#000000" d="M261.5051,-961.5781C243.5945,-961.2862 235.2614,-948.9212 224,-928.7 195.3719,-877.2951 242.339,-400.7 183.5,-393.7"/>
<polygon fill="#000000" stroke="#000000" points="268.0663,-960.728 276.4626,-963.2702 272.0332,-960.214 276,-959.7 276,-959.7 276,-959.7 272.0332,-960.214 275.5374,-956.1298 268.0663,-960.728 268.0663,-960.728"/>
<ellipse fill="none" stroke="#000000" cx="264.8929" cy="-961.1392" rx="3.2" ry="3.2"/>
</g>
<!-- c_dechallenge_rechallenge -->
<g id="node3" class="node">
<title>c_dechallenge_rechallenge</title>
<g id="a_node3"><a xlink:href="../../tables/c_dechallenge_rechallenge.html" xlink:title="c_dechallenge_rechallenge" target="_top">
<polygon fill="#ffffff" stroke="transparent" points="239.5,-850.2 239.5,-911.2 458.5,-911.2 458.5,-850.2 239.5,-850.2"/>
<polygon fill="#f5f5f5" stroke="transparent" points="240,-887.7 240,-910.7 459,-910.7 459,-887.7 240,-887.7"/>
<polygon fill="none" stroke="#000000" points="240,-887.7 240,-910.7 459,-910.7 459,-887.7 240,-887.7"/>
<text text-anchor="start" x="245" y="-896.3" font-family="Helvetica,sans-Serif" font-weight="bold" font-size="11.00" fill="#000000">c_dechallenge_rechallenge</text>
<text text-anchor="start" x="424.5219" y="-895.8" font-family="Helvetica,sans-Serif" font-size="11.00" fill="#000000">[table]</text>
<polygon fill="none" stroke="#000000" points="240,-868.7 240,-887.7 459,-887.7 459,-868.7 240,-868.7"/>
<text text-anchor="start" x="243" y="-874.8" font-family="Helvetica,sans-Serif" font-size="11.00" fill="#000000">...</text>
<polygon fill="#ffffff" stroke="transparent" points="240,-849.7 240,-868.7 335,-868.7 335,-849.7 240,-849.7"/>
<polygon fill="none" stroke="#000000" points="240,-849.7 240,-868.7 335,-868.7 335,-849.7 240,-849.7"/>
<text text-anchor="start" x="243" y="-855.8" font-family="Helvetica,sans-Serif" font-size="11.00" fill="#000000">&lt; 3</text>
<polygon fill="#ffffff" stroke="transparent" points="335,-849.7 335,-868.7 410,-868.7 410,-849.7 335,-849.7"/>
<polygon fill="none" stroke="#000000" points="335,-849.7 335,-868.7 410,-868.7 410,-849.7 335,-849.7"/>
<text text-anchor="start" x="374.6105" y="-855.8" font-family="Helvetica,sans-Serif" font-size="11.00" fill="#000000">0 rows</text>
<polygon fill="#ffffff" stroke="transparent" points="410,-849.7 410,-868.7 459,-868.7 459,-849.7 410,-849.7"/>
<polygon fill="none" stroke="#000000" points="410,-849.7 410,-868.7 459,-868.7 459,-849.7 410,-849.7"/>
<text text-anchor="start" x="449.8862" y="-855.8" font-family="Helvetica,sans-Serif" font-size="11.00" fill="#000000"> &#160;</text>
</a>
</g>
</g>
<!-- c_dechallenge_rechallenge&#45;&gt;cg_cohort_definition -->
<g id="edge3" class="edge">
<title>c_dechallenge_rechallenge:w&#45;&gt;cg_cohort_definition:e</title>
<path fill="none" stroke="#000000" d="M225.9948,-873.5149C146.7063,-825.6026 286.4985,-387.993 183.5,-393.7"/>
<polygon fill="#000000" stroke="#000000" points="232.3349,-875.4094 238.9692,-881.1493 236.1675,-876.5547 240,-877.7 240,-877.7 240,-877.7 236.1675,-876.5547 241.0308,-874.2507 232.3349,-875.4094 232.3349,-875.4094"/>
<ellipse fill="none" stroke="#000000" cx="229.2689" cy="-874.4932" rx="3.2" ry="3.2"/>
</g>
<!-- c_dechallenge_rechallenge&#45;&gt;cg_cohort_definition -->
<g id="edge4" class="edge">
<title>c_dechallenge_rechallenge:w&#45;&gt;cg_cohort_definition:e</title>
<path fill="none" stroke="#000000" d="M225.5091,-875.0947C147.2794,-836.7738 286.287,-400.3445 183.5,-393.7"/>
<polygon fill="#000000" stroke="#000000" points="232.1262,-876.2843 239.363,-881.2432 236.0631,-876.9922 240,-877.7 240,-877.7 240,-877.7 236.0631,-876.9922 240.637,-874.1568 232.1262,-876.2843 232.1262,-876.2843"/>
<ellipse fill="none" stroke="#000000" cx="228.9767" cy="-875.7181" rx="3.2" ry="3.2"/>
</g>
<!-- cg_cohort_count -->
<g id="node4" class="node">
<title>cg_cohort_count</title>
<g id="a_node4"><a xlink:href="../../tables/cg_cohort_count.html" xlink:title="cg_cohort_count" target="_top">
<polygon fill="#ffffff" stroke="transparent" points="275,-768.2 275,-829.2 423,-829.2 423,-768.2 275,-768.2"/>
<polygon fill="#f5f5f5" stroke="transparent" points="275,-805.7 275,-828.7 423,-828.7 423,-805.7 275,-805.7"/>
<polygon fill="none" stroke="#000000" points="275,-805.7 275,-828.7 423,-828.7 423,-805.7 275,-805.7"/>
<text text-anchor="start" x="280" y="-814.3" font-family="Helvetica,sans-Serif" font-weight="bold" font-size="11.00" fill="#000000">cg_cohort_count</text>
<text text-anchor="start" x="388.5219" y="-813.8" font-family="Helvetica,sans-Serif" font-size="11.00" fill="#000000">[table]</text>
<polygon fill="none" stroke="#000000" points="275,-786.7 275,-805.7 423,-805.7 423,-786.7 275,-786.7"/>
<text text-anchor="start" x="278" y="-792.8" font-family="Helvetica,sans-Serif" font-size="11.00" fill="#000000">...</text>
<polygon fill="#ffffff" stroke="transparent" points="275,-767.7 275,-786.7 334,-786.7 334,-767.7 275,-767.7"/>
<polygon fill="none" stroke="#000000" points="275,-767.7 275,-786.7 334,-786.7 334,-767.7 275,-767.7"/>
<text text-anchor="start" x="278" y="-773.8" font-family="Helvetica,sans-Serif" font-size="11.00" fill="#000000">&lt; 2</text>
<polygon fill="#ffffff" stroke="transparent" points="334,-767.7 334,-786.7 391,-786.7 391,-767.7 334,-767.7"/>
<polygon fill="none" stroke="#000000" points="334,-767.7 334,-786.7 391,-786.7 391,-767.7 334,-767.7"/>
<text text-anchor="start" x="355.6105" y="-773.8" font-family="Helvetica,sans-Serif" font-size="11.00" fill="#000000">0 rows</text>
<polygon fill="#ffffff" stroke="transparent" points="391,-767.7 391,-786.7 423,-786.7 423,-767.7 391,-767.7"/>
<polygon fill="none" stroke="#000000" points="391,-767.7 391,-786.7 423,-786.7 423,-767.7 391,-767.7"/>
<text text-anchor="start" x="413.8862" y="-773.8" font-family="Helvetica,sans-Serif" font-size="11.00" fill="#000000"> &#160;</text>
</a>
</g>
</g>
<!-- cg_cohort_count&#45;&gt;cg_cohort_definition -->
<g id="edge5" class="edge">
<title>cg_cohort_count:w&#45;&gt;cg_cohort_definition:e</title>
<path fill="none" stroke="#000000" d="M260.4937,-794.1757C243.1399,-790.0138 235.3143,-777.4323 224,-757.7 183.5158,-687.0951 264.888,-393.7 183.5,-393.7"/>
<polygon fill="#000000" stroke="#000000" points="267.0438,-794.8639 274.6238,-799.2803 271.0219,-795.282 275,-795.7 275,-795.7 275,-795.7 271.0219,-795.282 275.3762,-792.1197 267.0438,-794.8639 267.0438,-794.8639"/>
<ellipse fill="none" stroke="#000000" cx="263.8613" cy="-794.5295" rx="3.2" ry="3.2"/>
</g>
<!-- cg_cohort_inclusion -->
<g id="node5" class="node">
<title>cg_cohort_inclusion</title>
<g id="a_node5"><a xlink:href="../../tables/cg_cohort_inclusion.html" xlink:title="cg_cohort_inclusion" target="_top">
<polygon fill="#ffffff" stroke="transparent" points="239,-612.7 239,-746.7 459,-746.7 459,-612.7 239,-612.7"/>
<polygon fill="#f5f5f5" stroke="transparent" points="241,-721.7 241,-744.7 457,-744.7 457,-721.7 241,-721.7"/>
<polygon fill="none" stroke="#000000" points="241,-721.7 241,-744.7 457,-744.7 457,-721.7 241,-721.7"/>
<text text-anchor="start" x="246" y="-730.3" font-family="Helvetica,sans-Serif" font-weight="bold" font-size="11.00" fill="#000000">cg_cohort_inclusion</text>
<text text-anchor="start" x="422.0437" y="-729.8" font-family="Helvetica,sans-Serif" font-size="11.00" fill="#000000">[table]</text>
<polygon fill="none" stroke="#000000" points="241,-699.7 241,-721.7 395,-721.7 395,-699.7 241,-699.7"/>
<image xlink:href="../../images/foreignKeys.png" width="11px" height="12px" preserveAspectRatio="xMinYMin meet" x="246" y="-716.7"/>
<text text-anchor="start" x="261" y="-706.8" font-family="Helvetica,sans-Serif" font-size="11.00" fill="#000000">cohort_definition_id</text>
<polygon fill="none" stroke="#000000" points="395,-699.7 395,-721.7 457,-721.7 457,-699.7 395,-699.7"/>
<text text-anchor="start" x="397.878" y="-707.4" font-family="Helvetica,sans-Serif" font-size="11.00" fill="#000000">unknown[0]</text>
<polygon fill="none" stroke="#000000" points="241,-677.7 241,-699.7 395,-699.7 395,-677.7 241,-677.7"/>
<text text-anchor="start" x="261" y="-684.8" font-family="Helvetica,sans-Serif" font-size="11.00" fill="#000000">description</text>
<polygon fill="none" stroke="#000000" points="395,-677.7 395,-699.7 457,-699.7 457,-677.7 395,-677.7"/>
<text text-anchor="start" x="397.878" y="-685.4" font-family="Helvetica,sans-Serif" font-size="11.00" fill="#000000">unknown[0]</text>
<polygon fill="none" stroke="#000000" points="241,-655.7 241,-677.7 395,-677.7 395,-655.7 241,-655.7"/>
<text text-anchor="start" x="261" y="-662.8" font-family="Helvetica,sans-Serif" font-size="11.00" fill="#000000">name</text>
<polygon fill="none" stroke="#000000" points="395,-655.7 395,-677.7 457,-677.7 457,-655.7 395,-655.7"/>
<text text-anchor="start" x="397.878" y="-663.4" font-family="Helvetica,sans-Serif" font-size="11.00" fill="#000000">unknown[0]</text>
<polygon fill="none" stroke="#000000" points="241,-633.7 241,-655.7 395,-655.7 395,-633.7 241,-633.7"/>
<text text-anchor="start" x="261" y="-640.8" font-family="Helvetica,sans-Serif" font-size="11.00" fill="#000000">rule_sequence</text>
<polygon fill="none" stroke="#000000" points="395,-633.7 395,-655.7 457,-655.7 457,-633.7 395,-633.7"/>
<text text-anchor="start" x="397.878" y="-641.4" font-family="Helvetica,sans-Serif" font-size="11.00" fill="#000000">unknown[0]</text>
<polygon fill="#ffffff" stroke="transparent" points="241,-614.7 241,-633.7 309,-633.7 309,-614.7 241,-614.7"/>
<polygon fill="none" stroke="#000000" points="241,-614.7 241,-633.7 309,-633.7 309,-614.7 241,-614.7"/>
<text text-anchor="start" x="244" y="-620.8" font-family="Helvetica,sans-Serif" font-size="11.00" fill="#000000">&lt; 1</text>
<polygon fill="#ffffff" stroke="transparent" points="309,-614.7 309,-633.7 395,-633.7 395,-614.7 309,-614.7"/>
<polygon fill="none" stroke="#000000" points="309,-614.7 309,-633.7 395,-633.7 395,-614.7 309,-614.7"/>
<text text-anchor="start" x="359.6105" y="-620.8" font-family="Helvetica,sans-Serif" font-size="11.00" fill="#000000">0 rows</text>
<polygon fill="#ffffff" stroke="transparent" points="395,-614.7 395,-633.7 457,-633.7 457,-614.7 395,-614.7"/>
<polygon fill="none" stroke="#000000" points="395,-614.7 395,-633.7 457,-633.7 457,-614.7 395,-614.7"/>
<text text-anchor="start" x="438.4053" y="-620.8" font-family="Helvetica,sans-Serif" font-size="11.00" fill="#000000">0 &gt;</text>
<polygon fill="none" stroke="#000000" stroke-width="2" points="240,-613.7 240,-745.7 458,-745.7 458,-613.7 240,-613.7"/>
</a>
</g>
</g>
<!-- cg_cohort_inclusion&#45;&gt;cg_cohort_definition -->
<g id="edge6" class="edge">
<title>cg_cohort_inclusion:w&#45;&gt;cg_cohort_definition:e</title>
<path fill="none" stroke="#000000" d="M227.2384,-705.4624C181.5475,-664.2463 249.6405,-393.7 183.5,-393.7"/>
<polygon fill="#000000" stroke="#000000" points="233.5232,-707.8543 239.7194,-714.0646 237.2616,-709.2772 241,-710.7 241,-710.7 241,-710.7 237.2616,-709.2772 242.2806,-707.3354 233.5232,-707.8543 233.5232,-707.8543"/>
<ellipse fill="none" stroke="#000000" cx="230.5325" cy="-706.716" rx="3.2" ry="3.2"/>
</g>
<!-- cg_cohort_summary_stats -->
<g id="node6" class="node">
<title>cg_cohort_summary_stats</title>
<g id="a_node6"><a xlink:href="../../tables/cg_cohort_summary_stats.html" xlink:title="cg_cohort_summary_stats" target="_top">
<polygon fill="#ffffff" stroke="transparent" points="243,-530.2 243,-591.2 455,-591.2 455,-530.2 243,-530.2"/>
<polygon fill="#f5f5f5" stroke="transparent" points="243,-567.7 243,-590.7 455,-590.7 455,-567.7 243,-567.7"/>
<polygon fill="none" stroke="#000000" points="243,-567.7 243,-590.7 455,-590.7 455,-567.7 243,-567.7"/>
<text text-anchor="start" x="248" y="-576.3" font-family="Helvetica,sans-Serif" font-weight="bold" font-size="11.00" fill="#000000">cg_cohort_summary_stats</text>
<text text-anchor="start" x="420.5219" y="-575.8" font-family="Helvetica,sans-Serif" font-size="11.00" fill="#000000">[table]</text>
<polygon fill="none" stroke="#000000" points="243,-548.7 243,-567.7 455,-567.7 455,-548.7 243,-548.7"/>
<text text-anchor="start" x="246" y="-554.8" font-family="Helvetica,sans-Serif" font-size="11.00" fill="#000000">...</text>
<polygon fill="#ffffff" stroke="transparent" points="243,-529.7 243,-548.7 334,-548.7 334,-529.7 243,-529.7"/>
<polygon fill="none" stroke="#000000" points="243,-529.7 243,-548.7 334,-548.7 334,-529.7 243,-529.7"/>
<text text-anchor="start" x="246" y="-535.8" font-family="Helvetica,sans-Serif" font-size="11.00" fill="#000000">&lt; 2</text>
<polygon fill="#ffffff" stroke="transparent" points="334,-529.7 334,-548.7 407,-548.7 407,-529.7 334,-529.7"/>
<polygon fill="none" stroke="#000000" points="334,-529.7 334,-548.7 407,-548.7 407,-529.7 334,-529.7"/>
<text text-anchor="start" x="371.6105" y="-535.8" font-family="Helvetica,sans-Serif" font-size="11.00" fill="#000000">0 rows</text>
<polygon fill="#ffffff" stroke="transparent" points="407,-529.7 407,-548.7 455,-548.7 455,-529.7 407,-529.7"/>
<polygon fill="none" stroke="#000000" points="407,-529.7 407,-548.7 455,-548.7 455,-529.7 407,-529.7"/>
<text text-anchor="start" x="445.8862" y="-535.8" font-family="Helvetica,sans-Serif" font-size="11.00" fill="#000000"> &#160;</text>
</a>
</g>
</g>
<!-- cg_cohort_summary_stats&#45;&gt;cg_cohort_definition -->
<g id="edge7" class="edge">
<title>cg_cohort_summary_stats:w&#45;&gt;cg_cohort_definition:e</title>
<path fill="none" stroke="#000000" d="M228.7716,-555.2544C178.3719,-534.8533 255.4344,-393.7 183.5,-393.7"/>
<polygon fill="#000000" stroke="#000000" points="235.1156,-556.3448 242.3902,-561.248 239.0578,-557.0224 243,-557.7 243,-557.7 243,-557.7 239.0578,-557.0224 243.6098,-554.152 235.1156,-556.3448 235.1156,-556.3448"/>
<ellipse fill="none" stroke="#000000" cx="231.9619" cy="-555.8027" rx="3.2" ry="3.2"/>
</g>
<!-- ci_incidence_summary -->
<g id="node7" class="node">
<title>ci_incidence_summary</title>
<g id="a_node7"><a xlink:href="../../tables/ci_incidence_summary.html" xlink:title="ci_incidence_summary" target="_top">
<polygon fill="#ffffff" stroke="transparent" points="254.5,-448.2 254.5,-509.2 443.5,-509.2 443.5,-448.2 254.5,-448.2"/>
<polygon fill="#f5f5f5" stroke="transparent" points="255,-485.7 255,-508.7 444,-508.7 444,-485.7 255,-485.7"/>
<polygon fill="none" stroke="#000000" points="255,-485.7 255,-508.7 444,-508.7 444,-485.7 255,-485.7"/>
<text text-anchor="start" x="260" y="-494.3" font-family="Helvetica,sans-Serif" font-weight="bold" font-size="11.00" fill="#000000">ci_incidence_summary</text>
<text text-anchor="start" x="409.5219" y="-493.8" font-family="Helvetica,sans-Serif" font-size="11.00" fill="#000000">[table]</text>
<polygon fill="none" stroke="#000000" points="255,-466.7 255,-485.7 444,-485.7 444,-466.7 255,-466.7"/>
<text text-anchor="start" x="258" y="-472.8" font-family="Helvetica,sans-Serif" font-size="11.00" fill="#000000">...</text>
<polygon fill="#ffffff" stroke="transparent" points="255,-447.7 255,-466.7 338,-466.7 338,-447.7 255,-447.7"/>
<polygon fill="none" stroke="#000000" points="255,-447.7 255,-466.7 338,-466.7 338,-447.7 255,-447.7"/>
<text text-anchor="start" x="258" y="-453.8" font-family="Helvetica,sans-Serif" font-size="11.00" fill="#000000">&lt; 10</text>
<polygon fill="#ffffff" stroke="transparent" points="338,-447.7 338,-466.7 404,-466.7 404,-447.7 338,-447.7"/>
<polygon fill="none" stroke="#000000" points="338,-447.7 338,-466.7 404,-466.7 404,-447.7 338,-447.7"/>
<text text-anchor="start" x="368.6105" y="-453.8" font-family="Helvetica,sans-Serif" font-size="11.00" fill="#000000">0 rows</text>
<polygon fill="#ffffff" stroke="transparent" points="404,-447.7 404,-466.7 444,-466.7 444,-447.7 404,-447.7"/>
<polygon fill="none" stroke="#000000" points="404,-447.7 404,-466.7 444,-466.7 444,-447.7 404,-447.7"/>
<text text-anchor="start" x="434.8862" y="-453.8" font-family="Helvetica,sans-Serif" font-size="11.00" fill="#000000"> &#160;</text>
</a>
</g>
</g>
<!-- ci_incidence_summary&#45;&gt;cg_cohort_definition -->
<g id="edge8" class="edge">
<title>ci_incidence_summary:w&#45;&gt;cg_cohort_definition:e</title>
<path fill="none" stroke="#000000" d="M240.7946,-472.5856C211.5444,-457.6073 226.1867,-393.7 183.5,-393.7"/>
<polygon fill="#000000" stroke="#000000" points="247.1856,-473.9867 254.229,-479.2165 251.0928,-474.8434 255,-475.7 255,-475.7 255,-475.7 251.0928,-474.8434 255.771,-472.1835 247.1856,-473.9867 247.1856,-473.9867"/>
<ellipse fill="none" stroke="#000000" cx="244.0598" cy="-473.3014" rx="3.2" ry="3.2"/>
</g>
<!-- cm_diagnostics_summary -->
<g id="node8" class="node">
<title>cm_diagnostics_summary</title>
<g id="a_node8"><a xlink:href="../../tables/cm_diagnostics_summary.html" xlink:title="cm_diagnostics_summary" target="_top">
<polygon fill="#ffffff" stroke="transparent" points="244,-366.2 244,-427.2 454,-427.2 454,-366.2 244,-366.2"/>
<polygon fill="#f5f5f5" stroke="transparent" points="244,-403.7 244,-426.7 454,-426.7 454,-403.7 244,-403.7"/>
<polygon fill="none" stroke="#000000" points="244,-403.7 244,-426.7 454,-426.7 454,-403.7 244,-403.7"/>
<text text-anchor="start" x="249" y="-412.3" font-family="Helvetica,sans-Serif" font-weight="bold" font-size="11.00" fill="#000000">cm_diagnostics_summary</text>
<text text-anchor="start" x="419.5219" y="-411.8" font-family="Helvetica,sans-Serif" font-size="11.00" fill="#000000">[table]</text>
<polygon fill="none" stroke="#000000" points="244,-384.7 244,-403.7 454,-403.7 454,-384.7 244,-384.7"/>
<text text-anchor="start" x="247" y="-390.8" font-family="Helvetica,sans-Serif" font-size="11.00" fill="#000000">...</text>
<polygon fill="#ffffff" stroke="transparent" points="244,-365.7 244,-384.7 330,-384.7 330,-365.7 244,-365.7"/>
<polygon fill="none" stroke="#000000" points="244,-365.7 244,-384.7 330,-384.7 330,-365.7 244,-365.7"/>
<text text-anchor="start" x="247" y="-371.8" font-family="Helvetica,sans-Serif" font-size="11.00" fill="#000000">&lt; 5</text>
<polygon fill="#ffffff" stroke="transparent" points="330,-365.7 330,-384.7 400,-384.7 400,-365.7 330,-365.7"/>
<polygon fill="none" stroke="#000000" points="330,-365.7 330,-384.7 400,-384.7 400,-365.7 330,-365.7"/>
<text text-anchor="start" x="364.6105" y="-371.8" font-family="Helvetica,sans-Serif" font-size="11.00" fill="#000000">0 rows</text>
<polygon fill="#ffffff" stroke="transparent" points="400,-365.7 400,-384.7 454,-384.7 454,-365.7 400,-365.7"/>
<polygon fill="none" stroke="#000000" points="400,-365.7 400,-384.7 454,-384.7 454,-365.7 400,-365.7"/>
<text text-anchor="start" x="435.4053" y="-371.8" font-family="Helvetica,sans-Serif" font-size="11.00" fill="#000000">1 &gt;</text>
</a>
</g>
</g>
<!-- cm_diagnostics_summary&#45;&gt;cg_cohort_definition -->
<g id="edge9" class="edge">
<title>cm_diagnostics_summary:w&#45;&gt;cg_cohort_definition:e</title>
<path fill="none" stroke="#000000" d="M230.7361,-387.7586C213.8813,-381.157 205.3472,-383.1375 183.5,-393.7"/>
<polygon fill="#000000" stroke="#000000" points="236.699,-390.4296 242.5283,-396.9855 240.3495,-392.0648 244,-393.7 244,-393.7 244,-393.7 240.3495,-392.0648 245.4717,-390.4145 236.699,-390.4296 236.699,-390.4296"/>
<ellipse fill="none" stroke="#000000" cx="233.7786" cy="-389.1214" rx="3.2" ry="3.2"/>
</g>
<!-- cm_diagnostics_summary&#45;&gt;cg_cohort_definition -->
<g id="edge10" class="edge">
<title>cm_diagnostics_summary:w&#45;&gt;cg_cohort_definition:e</title>
<path fill="none" stroke="#000000" d="M229.2977,-393.7C213.3779,-393.7 204.717,-393.7 183.5,-393.7"/>
<polygon fill="#000000" stroke="#000000" points="236,-393.7001 244,-397.3 240,-393.7 244,-393.7 244,-393.7 244,-393.7 240,-393.7 244,-390.1 236,-393.7001 236,-393.7001"/>
<ellipse fill="none" stroke="#000000" cx="232.8" cy="-393.7001" rx="3.2" ry="3.2"/>
</g>
<!-- cm_diagnostics_summary&#45;&gt;cg_cohort_definition -->
<g id="edge11" class="edge">
<title>cm_diagnostics_summary:w&#45;&gt;cg_cohort_definition:e</title>
<path fill="none" stroke="#000000" d="M230.7361,-399.6414C213.8813,-406.243 205.3472,-404.2625 183.5,-393.7"/>
<polygon fill="#000000" stroke="#000000" points="236.699,-396.9704 245.4717,-396.9855 240.3495,-395.3352 244,-393.7 244,-393.7 244,-393.7 240.3495,-395.3352 242.5283,-390.4145 236.699,-396.9704 236.699,-396.9704"/>
<ellipse fill="none" stroke="#000000" cx="233.7786" cy="-398.2786" rx="3.2" ry="3.2"/>
</g>
<!-- plp_cohorts -->
<g id="node9" class="node">
<title>plp_cohorts</title>
<g id="a_node9"><a xlink:href="../../tables/plp_cohorts.html" xlink:title="plp_cohorts" target="_top">
<polygon fill="#ffffff" stroke="transparent" points="290.5,-284.2 290.5,-345.2 407.5,-345.2 407.5,-284.2 290.5,-284.2"/>
<polygon fill="#f5f5f5" stroke="transparent" points="291,-321.7 291,-344.7 408,-344.7 408,-321.7 291,-321.7"/>
<polygon fill="none" stroke="#000000" points="291,-321.7 291,-344.7 408,-344.7 408,-321.7 291,-321.7"/>
<text text-anchor="start" x="296" y="-330.3" font-family="Helvetica,sans-Serif" font-weight="bold" font-size="11.00" fill="#000000">plp_cohorts</text>
<text text-anchor="start" x="373.5219" y="-329.8" font-family="Helvetica,sans-Serif" font-size="11.00" fill="#000000">[table]</text>
<polygon fill="none" stroke="#000000" points="291,-302.7 291,-321.7 408,-321.7 408,-302.7 291,-302.7"/>
<text text-anchor="start" x="294" y="-308.8" font-family="Helvetica,sans-Serif" font-size="11.00" fill="#000000">...</text>
<polygon fill="#ffffff" stroke="transparent" points="291,-283.7 291,-302.7 335,-302.7 335,-283.7 291,-283.7"/>
<polygon fill="none" stroke="#000000" points="291,-283.7 291,-302.7 335,-302.7 335,-283.7 291,-283.7"/>
<text text-anchor="start" x="294" y="-289.8" font-family="Helvetica,sans-Serif" font-size="11.00" fill="#000000">&lt; 1</text>
<polygon fill="#ffffff" stroke="transparent" points="335,-283.7 335,-302.7 384,-302.7 384,-283.7 335,-283.7"/>
<polygon fill="none" stroke="#000000" points="335,-283.7 335,-302.7 384,-302.7 384,-283.7 335,-283.7"/>
<text text-anchor="start" x="348.6105" y="-289.8" font-family="Helvetica,sans-Serif" font-size="11.00" fill="#000000">0 rows</text>
<polygon fill="#ffffff" stroke="transparent" points="384,-283.7 384,-302.7 408,-302.7 408,-283.7 384,-283.7"/>
<polygon fill="none" stroke="#000000" points="384,-283.7 384,-302.7 408,-302.7 408,-283.7 384,-283.7"/>
<text text-anchor="start" x="398.8862" y="-289.8" font-family="Helvetica,sans-Serif" font-size="11.00" fill="#000000"> &#160;</text>
</a>
</g>
</g>
<!-- plp_cohorts&#45;&gt;cg_cohort_definition -->
<g id="edge12" class="edge">
<title>plp_cohorts:w&#45;&gt;cg_cohort_definition:e</title>
<path fill="none" stroke="#000000" d="M276.4448,-313.2245C253.7146,-318.5624 247.6104,-337.0972 224,-355.7 204.6122,-370.9757 208.1827,-393.7 183.5,-393.7"/>
<polygon fill="#000000" stroke="#000000" points="283.0435,-312.5334 291.375,-315.2804 287.0218,-312.1167 291,-311.7 291,-311.7 291,-311.7 287.0218,-312.1167 290.625,-308.1196 283.0435,-312.5334 283.0435,-312.5334"/>
<ellipse fill="none" stroke="#000000" cx="279.8609" cy="-312.8667" rx="3.2" ry="3.2"/>
</g>
<!-- plp_model_designs -->
<g id="node10" class="node">
<title>plp_model_designs</title>
<g id="a_node10"><a xlink:href="../../tables/plp_model_designs.html" xlink:title="plp_model_designs" target="_top">
<polygon fill="#ffffff" stroke="transparent" points="266,-202.2 266,-263.2 432,-263.2 432,-202.2 266,-202.2"/>
<polygon fill="#f5f5f5" stroke="transparent" points="266,-239.7 266,-262.7 432,-262.7 432,-239.7 266,-239.7"/>
<polygon fill="none" stroke="#000000" points="266,-239.7 266,-262.7 432,-262.7 432,-239.7 266,-239.7"/>
<text text-anchor="start" x="271" y="-248.3" font-family="Helvetica,sans-Serif" font-weight="bold" font-size="11.00" fill="#000000">plp_model_designs</text>
<text text-anchor="start" x="397.5219" y="-247.8" font-family="Helvetica,sans-Serif" font-size="11.00" fill="#000000">[table]</text>
<polygon fill="none" stroke="#000000" points="266,-220.7 266,-239.7 432,-239.7 432,-220.7 266,-220.7"/>
<text text-anchor="start" x="269" y="-226.8" font-family="Helvetica,sans-Serif" font-size="11.00" fill="#000000">...</text>
<polygon fill="#ffffff" stroke="transparent" points="266,-201.7 266,-220.7 330,-220.7 330,-201.7 266,-201.7"/>
<polygon fill="none" stroke="#000000" points="266,-201.7 266,-220.7 330,-220.7 330,-201.7 266,-201.7"/>
<text text-anchor="start" x="269" y="-207.8" font-family="Helvetica,sans-Serif" font-size="11.00" fill="#000000">&lt; 2</text>
<polygon fill="#ffffff" stroke="transparent" points="330,-201.7 330,-220.7 389,-220.7 389,-201.7 330,-201.7"/>
<polygon fill="none" stroke="#000000" points="330,-201.7 330,-220.7 389,-220.7 389,-201.7 330,-201.7"/>
<text text-anchor="start" x="353.6105" y="-207.8" font-family="Helvetica,sans-Serif" font-size="11.00" fill="#000000">0 rows</text>
<polygon fill="#ffffff" stroke="transparent" points="389,-201.7 389,-220.7 432,-220.7 432,-201.7 389,-201.7"/>
<polygon fill="none" stroke="#000000" points="389,-201.7 389,-220.7 432,-220.7 432,-201.7 389,-201.7"/>
<text text-anchor="start" x="413.4053" y="-207.8" font-family="Helvetica,sans-Serif" font-size="11.00" fill="#000000">1 &gt;</text>
</a>
</g>
</g>
<!-- plp_model_designs&#45;&gt;cg_cohort_definition -->
<g id="edge13" class="edge">
<title>plp_model_designs:w&#45;&gt;cg_cohort_definition:e</title>
<path fill="none" stroke="#000000" d="M251.5903,-229.3617C237.9152,-232.9373 234.9281,-249.6262 224,-267.7 194.8756,-315.8686 239.7889,-387.7 183.5,-393.7"/>
<polygon fill="#000000" stroke="#000000" points="258.0022,-229.5122 265.9155,-233.299 262.0011,-229.6061 266,-229.7 266,-229.7 266,-229.7 262.0011,-229.6061 266.0845,-226.101 258.0022,-229.5122 258.0022,-229.5122"/>
<ellipse fill="none" stroke="#000000" cx="254.8031" cy="-229.4371" rx="3.2" ry="3.2"/>
</g>
<!-- plp_model_designs&#45;&gt;cg_cohort_definition -->
<g id="edge14" class="edge">
<title>plp_model_designs:w&#45;&gt;cg_cohort_definition:e</title>
<path fill="none" stroke="#000000" d="M252.4237,-235.5847C238.0316,-245.2702 235.1466,-262.2647 224,-280.7 194.8756,-328.8686 239.7889,-400.7 183.5,-393.7"/>
<polygon fill="#000000" stroke="#000000" points="258.6599,-232.8816 267.4317,-233.0031 262.3299,-231.2908 266,-229.7 266,-229.7 266,-229.7 262.3299,-231.2908 264.5683,-226.3969 258.6599,-232.8816 258.6599,-232.8816"/>
<ellipse fill="none" stroke="#000000" cx="255.7238" cy="-234.1543" rx="3.2" ry="3.2"/>
</g>
<!-- plp_performances -->
<g id="node11" class="node">
<title>plp_performances</title>
<g id="a_node11"><a xlink:href="../../tables/plp_performances.html" xlink:title="plp_performances" target="_top">
<polygon fill="#ffffff" stroke="transparent" points="269.5,-120.2 269.5,-181.2 428.5,-181.2 428.5,-120.2 269.5,-120.2"/>
<polygon fill="#f5f5f5" stroke="transparent" points="270,-157.7 270,-180.7 429,-180.7 429,-157.7 270,-157.7"/>
<polygon fill="none" stroke="#000000" points="270,-157.7 270,-180.7 429,-180.7 429,-157.7 270,-157.7"/>
<text text-anchor="start" x="275" y="-166.3" font-family="Helvetica,sans-Serif" font-weight="bold" font-size="11.00" fill="#000000">plp_performances</text>
<text text-anchor="start" x="394.5219" y="-165.8" font-family="Helvetica,sans-Serif" font-size="11.00" fill="#000000">[table]</text>
<polygon fill="none" stroke="#000000" points="270,-138.7 270,-157.7 429,-157.7 429,-138.7 270,-138.7"/>
<text text-anchor="start" x="273" y="-144.8" font-family="Helvetica,sans-Serif" font-size="11.00" fill="#000000">...</text>
<polygon fill="#ffffff" stroke="transparent" points="270,-119.7 270,-138.7 335,-138.7 335,-119.7 270,-119.7"/>
<polygon fill="none" stroke="#000000" points="270,-119.7 270,-138.7 335,-138.7 335,-119.7 270,-119.7"/>
<text text-anchor="start" x="273" y="-125.8" font-family="Helvetica,sans-Serif" font-size="11.00" fill="#000000">&lt; 4</text>
<polygon fill="#ffffff" stroke="transparent" points="335,-119.7 335,-138.7 395,-138.7 395,-119.7 335,-119.7"/>
<polygon fill="none" stroke="#000000" points="335,-119.7 335,-138.7 395,-138.7 395,-119.7 335,-119.7"/>
<text text-anchor="start" x="359.6105" y="-125.8" font-family="Helvetica,sans-Serif" font-size="11.00" fill="#000000">0 rows</text>
<polygon fill="#ffffff" stroke="transparent" points="395,-119.7 395,-138.7 429,-138.7 429,-119.7 395,-119.7"/>
<polygon fill="none" stroke="#000000" points="395,-119.7 395,-138.7 429,-138.7 429,-119.7 395,-119.7"/>
<text text-anchor="start" x="419.8862" y="-125.8" font-family="Helvetica,sans-Serif" font-size="11.00" fill="#000000"> &#160;</text>
</a>
</g>
</g>
<!-- plp_performances&#45;&gt;cg_cohort_definition -->
<g id="edge15" class="edge">
<title>plp_performances:w&#45;&gt;cg_cohort_definition:e</title>
<path fill="none" stroke="#000000" d="M255.4742,-146.9997C239.6582,-149.7341 234.8627,-165.945 224,-185.7 201.9407,-225.8173 229.2822,-387.7 183.5,-393.7"/>
<polygon fill="#000000" stroke="#000000" points="262.0093,-147.3147 269.8266,-151.2958 266.0046,-147.5073 270,-147.7 270,-147.7 270,-147.7 266.0046,-147.5073 270.1734,-144.1042 262.0093,-147.3147 262.0093,-147.3147"/>
<ellipse fill="none" stroke="#000000" cx="258.813" cy="-147.1606" rx="3.2" ry="3.2"/>
</g>
<!-- plp_performances&#45;&gt;cg_cohort_definition -->
<g id="edge16" class="edge">
<title>plp_performances:w&#45;&gt;cg_cohort_definition:e</title>
<path fill="none" stroke="#000000" d="M256.4174,-152.8815C239.8439,-162.0997 235.0757,-178.5576 224,-198.7 201.9407,-238.8173 229.2822,-400.7 183.5,-393.7"/>
<polygon fill="#000000" stroke="#000000" points="262.5254,-150.5515 271.2832,-151.0636 266.2627,-149.1257 270,-147.7 270,-147.7 270,-147.7 266.2627,-149.1257 268.7168,-144.3364 262.5254,-150.5515 262.5254,-150.5515"/>
<ellipse fill="none" stroke="#000000" cx="259.5356" cy="-151.692" rx="3.2" ry="3.2"/>
</g>
<!-- sccs_exposures_outcome_set -->
<g id="node12" class="node">
<title>sccs_exposures_outcome_set</title>
<g id="a_node12"><a xlink:href="../../tables/sccs_exposures_outcome_set.html" xlink:title="sccs_exposures_outcome_set" target="_top">
<polygon fill="#ffffff" stroke="transparent" points="232,-38.2 232,-99.2 466,-99.2 466,-38.2 232,-38.2"/>
<polygon fill="#f5f5f5" stroke="transparent" points="232,-75.7 232,-98.7 466,-98.7 466,-75.7 232,-75.7"/>
<polygon fill="none" stroke="#000000" points="232,-75.7 232,-98.7 466,-98.7 466,-75.7 232,-75.7"/>
<text text-anchor="start" x="237" y="-84.3" font-family="Helvetica,sans-Serif" font-weight="bold" font-size="11.00" fill="#000000">sccs_exposures_outcome_set</text>
<text text-anchor="start" x="431.5219" y="-83.8" font-family="Helvetica,sans-Serif" font-size="11.00" fill="#000000">[table]</text>
<polygon fill="none" stroke="#000000" points="232,-56.7 232,-75.7 466,-75.7 466,-56.7 232,-56.7"/>
<text text-anchor="start" x="235" y="-62.8" font-family="Helvetica,sans-Serif" font-size="11.00" fill="#000000">...</text>
<polygon fill="#ffffff" stroke="transparent" points="232,-37.7 232,-56.7 327,-56.7 327,-37.7 232,-37.7"/>
<polygon fill="none" stroke="#000000" points="232,-37.7 232,-56.7 327,-56.7 327,-37.7 232,-37.7"/>
<text text-anchor="start" x="235" y="-43.8" font-family="Helvetica,sans-Serif" font-size="11.00" fill="#000000">&lt; 3</text>
<polygon fill="#ffffff" stroke="transparent" points="327,-37.7 327,-56.7 402,-56.7 402,-37.7 327,-37.7"/>
<polygon fill="none" stroke="#000000" points="327,-37.7 327,-56.7 402,-56.7 402,-37.7 327,-37.7"/>
<text text-anchor="start" x="366.6105" y="-43.8" font-family="Helvetica,sans-Serif" font-size="11.00" fill="#000000">0 rows</text>
<polygon fill="#ffffff" stroke="transparent" points="402,-37.7 402,-56.7 466,-56.7 466,-37.7 402,-37.7"/>
<polygon fill="none" stroke="#000000" points="402,-37.7 402,-56.7 466,-56.7 466,-37.7 402,-37.7"/>
<text text-anchor="start" x="441.2904" y="-43.8" font-family="Helvetica,sans-Serif" font-size="11.00" fill="#000000">10 &gt;</text>
</a>
</g>
</g>
<!-- sccs_exposures_outcome_set&#45;&gt;cg_cohort_definition -->
<g id="edge17" class="edge">
<title>sccs_exposures_outcome_set:w&#45;&gt;cg_cohort_definition:e</title>
<path fill="none" stroke="#000000" d="M218.3046,-70.8521C172.0431,-112.5807 251.7129,-393.7 183.5,-393.7"/>
<polygon fill="#000000" stroke="#000000" points="224.5123,-68.5169 233.2676,-69.0695 228.2562,-67.1084 232,-65.7 232,-65.7 232,-65.7 228.2562,-67.1084 230.7324,-62.3305 224.5123,-68.5169 224.5123,-68.5169"/>
<ellipse fill="none" stroke="#000000" cx="221.5172" cy="-69.6436" rx="3.2" ry="3.2"/>
</g>
</g>
</svg>
