<?xml version="1.0" encoding="UTF-8" standalone="no"?>
<!DOCTYPE svg PUBLIC "-//W3C//DTD SVG 1.1//EN"
 "http://www.w3.org/Graphics/SVG/1.1/DTD/svg11.dtd">
<!-- Generated by graphviz version 2.40.1 (20161225.0304)
 -->
<!-- Title: oneDegreeRelationshipsDiagram Pages: 1 -->
<svg width="267pt" height="162pt"
 viewBox="0.00 0.00 267.00 162.20" xmlns="http://www.w3.org/2000/svg" xmlns:xlink="http://www.w3.org/1999/xlink">
<g id="graph0" class="graph" transform="scale(1 1) rotate(0) translate(4 158.2)">
<title>oneDegreeRelationshipsDiagram</title>
<polygon fill="#ffffff" stroke="transparent" points="-4,4 -4,-158.2 263,-158.2 263,4 -4,4"/>
<text text-anchor="middle" x="72.4936" y="-7.3" font-family="Helvetica,sans-Serif" font-size="11.00" fill="#000000">Generated by SchemaSpy</text>
<!-- cg_cohort_censor_stats -->
<g id="node1" class="node">
<title>cg_cohort_censor_stats</title>
<g id="a_node1"><a xlink:href="../../tables/cg_cohort_censor_stats.html" xlink:title="cg_cohort_censor_stats" target="_top">
<polygon fill="#ffffff" stroke="transparent" points="8,-38.2 8,-150.2 251,-150.2 251,-38.2 8,-38.2"/>
<polygon fill="#f5f5f5" stroke="transparent" points="10.5,-125.2 10.5,-148.2 249.5,-148.2 249.5,-125.2 10.5,-125.2"/>
<polygon fill="none" stroke="#000000" points="10.5,-125.2 10.5,-148.2 249.5,-148.2 249.5,-125.2 10.5,-125.2"/>
<text text-anchor="start" x="15.5" y="-133.8" font-family="Helvetica,sans-Serif" font-weight="bold" font-size="11.00" fill="#000000">cg_cohort_censor_stats</text>
<text text-anchor="start" x="214.5437" y="-133.3" font-family="Helvetica,sans-Serif" font-size="11.00" fill="#000000">[table]</text>
<polygon fill="none" stroke="#000000" points="10.5,-103.2 10.5,-125.2 187.5,-125.2 187.5,-103.2 10.5,-103.2"/>
<text text-anchor="start" x="30.5" y="-110.3" font-family="Helvetica,sans-Serif" font-size="11.00" fill="#000000">cohort_definition_id</text>
<polygon fill="none" stroke="#000000" points="187.5,-103.2 187.5,-125.2 249.5,-125.2 249.5,-103.2 187.5,-103.2"/>
<text text-anchor="start" x="190.378" y="-110.9" font-family="Helvetica,sans-Serif" font-size="11.00" fill="#000000">unknown[0]</text>
<polygon fill="none" stroke="#000000" points="10.5,-81.2 10.5,-103.2 187.5,-103.2 187.5,-81.2 10.5,-81.2"/>
<text text-anchor="start" x="30.5" y="-88.3" font-family="Helvetica,sans-Serif" font-size="11.00" fill="#000000">database_id</text>
<polygon fill="none" stroke="#000000" points="187.5,-81.2 187.5,-103.2 249.5,-103.2 249.5,-81.2 187.5,-81.2"/>
<text text-anchor="start" x="190.378" y="-88.9" font-family="Helvetica,sans-Serif" font-size="11.00" fill="#000000">unknown[0]</text>
<polygon fill="none" stroke="#000000" points="10.5,-59.2 10.5,-81.2 187.5,-81.2 187.5,-59.2 10.5,-59.2"/>
<text text-anchor="start" x="30.5" y="-66.3" font-family="Helvetica,sans-Serif" font-size="11.00" fill="#000000">lost_count</text>
<polygon fill="none" stroke="#000000" points="187.5,-59.2 187.5,-81.2 249.5,-81.2 249.5,-59.2 187.5,-59.2"/>
<text text-anchor="start" x="190.378" y="-66.9" font-family="Helvetica,sans-Serif" font-size="11.00" fill="#000000">unknown[0]</text>
<polygon fill="#ffffff" stroke="transparent" points="10.5,-40.2 10.5,-59.2 90.5,-59.2 90.5,-40.2 10.5,-40.2"/>
<polygon fill="none" stroke="#000000" points="10.5,-40.2 10.5,-59.2 90.5,-59.2 90.5,-40.2 10.5,-40.2"/>
<text text-anchor="start" x="13.5" y="-46.3" font-family="Helvetica,sans-Serif" font-size="11.00" fill="#000000">&lt; 0</text>
<polygon fill="#ffffff" stroke="transparent" points="90.5,-40.2 90.5,-59.2 187.5,-59.2 187.5,-40.2 90.5,-40.2"/>
<polygon fill="none" stroke="#000000" points="90.5,-40.2 90.5,-59.2 187.5,-59.2 187.5,-40.2 90.5,-40.2"/>
<text text-anchor="start" x="152.1105" y="-46.3" font-family="Helvetica,sans-Serif" font-size="11.00" fill="#000000">0 rows</text>
<polygon fill="#ffffff" stroke="transparent" points="187.5,-40.2 187.5,-59.2 249.5,-59.2 249.5,-40.2 187.5,-40.2"/>
<polygon fill="none" stroke="#000000" points="187.5,-40.2 187.5,-59.2 249.5,-59.2 249.5,-40.2 187.5,-40.2"/>
<text text-anchor="start" x="230.9053" y="-46.3" font-family="Helvetica,sans-Serif" font-size="11.00" fill="#000000">0 &gt;</text>
<polygon fill="none" stroke="#000000" stroke-width="2" points="9,-39.2 9,-149.2 250,-149.2 250,-39.2 9,-39.2"/>
</a>
</g>
</g>
</g>
</svg>
