<?xml version="1.0" encoding="UTF-8" standalone="no"?>
<!DOCTYPE svg PUBLIC "-//W3C//DTD SVG 1.1//EN"
 "http://www.w3.org/Graphics/SVG/1.1/DTD/svg11.dtd">
<!-- Generated by graphviz version 2.40.1 (20161225.0304)
 -->
<!-- Title: twoDegreesRelationshipsDiagram Pages: 1 -->
<svg width="482pt" height="923pt"
 viewBox="0.00 0.00 482.00 923.20" xmlns="http://www.w3.org/2000/svg" xmlns:xlink="http://www.w3.org/1999/xlink">
<g id="graph0" class="graph" transform="scale(1 1) rotate(0) translate(4 919.2)">
<title>twoDegreesRelationshipsDiagram</title>
<polygon fill="#ffffff" stroke="transparent" points="-4,4 -4,-919.2 478,-919.2 478,4 -4,4"/>
<text text-anchor="middle" x="72.4936" y="-7.3" font-family="Helvetica,sans-Serif" font-size="11.00" fill="#000000">Generated by SchemaSpy</text>
<!-- c_cohort_details -->
<g id="node1" class="node">
<title>c_cohort_details</title>
<g id="a_node1"><a xlink:href="../../tables/c_cohort_details.html" xlink:title="c_cohort_details" target="_top">
<polygon fill="#ffffff" stroke="transparent" points="275.5,-850.2 275.5,-911.2 422.5,-911.2 422.5,-850.2 275.5,-850.2"/>
<polygon fill="#f5f5f5" stroke="transparent" points="276,-887.7 276,-910.7 423,-910.7 423,-887.7 276,-887.7"/>
<polygon fill="none" stroke="#000000" points="276,-887.7 276,-910.7 423,-910.7 423,-887.7 276,-887.7"/>
<text text-anchor="start" x="281" y="-896.3" font-family="Helvetica,sans-Serif" font-weight="bold" font-size="11.00" fill="#000000">c_cohort_details</text>
<text text-anchor="start" x="388.5219" y="-895.8" font-family="Helvetica,sans-Serif" font-size="11.00" fill="#000000">[table]</text>
<polygon fill="none" stroke="#000000" points="276,-868.7 276,-887.7 423,-887.7 423,-868.7 276,-868.7"/>
<text text-anchor="start" x="279" y="-874.8" font-family="Helvetica,sans-Serif" font-size="11.00" fill="#000000">...</text>
<polygon fill="#ffffff" stroke="transparent" points="276,-849.7 276,-868.7 330,-868.7 330,-849.7 276,-849.7"/>
<polygon fill="none" stroke="#000000" points="276,-849.7 276,-868.7 330,-868.7 330,-849.7 276,-849.7"/>
<text text-anchor="start" x="279" y="-855.8" font-family="Helvetica,sans-Serif" font-size="11.00" fill="#000000">&lt; 2</text>
<polygon fill="#ffffff" stroke="transparent" points="330,-849.7 330,-868.7 385,-868.7 385,-849.7 330,-849.7"/>
<polygon fill="none" stroke="#000000" points="330,-849.7 330,-868.7 385,-868.7 385,-849.7 330,-849.7"/>
<text text-anchor="start" x="349.6105" y="-855.8" font-family="Helvetica,sans-Serif" font-size="11.00" fill="#000000">0 rows</text>
<polygon fill="#ffffff" stroke="transparent" points="385,-849.7 385,-868.7 423,-868.7 423,-849.7 385,-849.7"/>
<polygon fill="none" stroke="#000000" points="385,-849.7 385,-868.7 423,-868.7 423,-849.7 385,-849.7"/>
<text text-anchor="start" x="404.4053" y="-855.8" font-family="Helvetica,sans-Serif" font-size="11.00" fill="#000000">3 &gt;</text>
</a>
</g>
</g>
<!-- cg_cohort_definition -->
<g id="node2" class="node">
<title>cg_cohort_definition</title>
<g id="a_node2"><a xlink:href="../../tables/cg_cohort_definition.html" xlink:title="cg_cohort_definition" target="_top">
<polygon fill="#ffffff" stroke="transparent" points="8,-345.2 8,-428.2 183,-428.2 183,-345.2 8,-345.2"/>
<polygon fill="#f5f5f5" stroke="transparent" points="8.5,-404.7 8.5,-427.7 183.5,-427.7 183.5,-404.7 8.5,-404.7"/>
<polygon fill="none" stroke="#000000" points="8.5,-404.7 8.5,-427.7 183.5,-427.7 183.5,-404.7 8.5,-404.7"/>
<text text-anchor="start" x="13.5" y="-413.3" font-family="Helvetica,sans-Serif" font-weight="bold" font-size="11.00" fill="#000000">cg_cohort_definition</text>
<text text-anchor="start" x="149.0219" y="-412.8" font-family="Helvetica,sans-Serif" font-size="11.00" fill="#000000">[table]</text>
<polygon fill="none" stroke="#000000" points="8.5,-382.7 8.5,-404.7 183.5,-404.7 183.5,-382.7 8.5,-382.7"/>
<image xlink:href="../../images/primaryKeys.png" width="11px" height="12px" preserveAspectRatio="xMinYMin meet" x="13.5" y="-399.7"/>
<text text-anchor="start" x="37.5" y="-389.8" font-family="Helvetica,sans-Serif" font-size="11.00" fill="#000000">cohort_definition_id</text>
<polygon fill="none" stroke="#000000" points="8.5,-363.7 8.5,-382.7 183.5,-382.7 183.5,-363.7 8.5,-363.7"/>
<text text-anchor="start" x="11.5" y="-369.8" font-family="Helvetica,sans-Serif" font-size="11.00" fill="#000000">...</text>
<polygon fill="#ffffff" stroke="transparent" points="8.5,-344.7 8.5,-363.7 69.5,-363.7 69.5,-344.7 8.5,-344.7"/>
<polygon fill="none" stroke="#000000" points="8.5,-344.7 8.5,-363.7 69.5,-363.7 69.5,-344.7 8.5,-344.7"/>
<text text-anchor="start" x="11.5" y="-350.8" font-family="Helvetica,sans-Serif" font-size="11.00" fill="#000000"> &#160;</text>
<polygon fill="#ffffff" stroke="transparent" points="69.5,-344.7 69.5,-363.7 131.5,-363.7 131.5,-344.7 69.5,-344.7"/>
<polygon fill="none" stroke="#000000" points="69.5,-344.7 69.5,-363.7 131.5,-363.7 131.5,-344.7 69.5,-344.7"/>
<text text-anchor="start" x="96.1105" y="-350.8" font-family="Helvetica,sans-Serif" font-size="11.00" fill="#000000">0 rows</text>
<polygon fill="#ffffff" stroke="transparent" points="131.5,-344.7 131.5,-363.7 183.5,-363.7 183.5,-344.7 131.5,-344.7"/>
<polygon fill="none" stroke="#000000" points="131.5,-344.7 131.5,-363.7 183.5,-363.7 183.5,-344.7 131.5,-344.7"/>
<text text-anchor="start" x="158.7904" y="-350.8" font-family="Helvetica,sans-Serif" font-size="11.00" fill="#000000">15 &gt;</text>
</a>
</g>
</g>
<!-- c_cohort_details&#45;&gt;cg_cohort_definition -->
<g id="edge1" class="edge">
<title>c_cohort_details:w&#45;&gt;cg_cohort_definition:e</title>
<path fill="none" stroke="#000000" d="M262.0413,-873.6491C243.8077,-866.495 235.5129,-854.0364 224,-833.7 199.4858,-790.3981 233.2595,-387.7 183.5,-393.7"/>
<polygon fill="#000000" stroke="#000000" points="268.317,-875.4703 274.9966,-881.1574 272.1585,-876.5851 276,-877.7 276,-877.7 276,-877.7 272.1585,-876.5851 277.0034,-874.2426 268.317,-875.4703 268.317,-875.4703"/>
<ellipse fill="none" stroke="#000000" cx="265.2438" cy="-874.5784" rx="3.2" ry="3.2"/>
</g>
<!-- c_cohort_details&#45;&gt;cg_cohort_definition -->
<g id="edge2" class="edge">
<title>c_cohort_details:w&#45;&gt;cg_cohort_definition:e</title>
<path fill="none" stroke="#000000" d="M261.5206,-879.5694C243.6486,-879.2558 235.4028,-866.8418 224,-846.7 199.4858,-803.3981 233.2595,-400.7 183.5,-393.7"/>
<polygon fill="#000000" stroke="#000000" points="268.0659,-878.7244 276.461,-881.2704 272.0329,-878.2122 276,-877.7 276,-877.7 276,-877.7 272.0329,-878.2122 275.539,-874.1296 268.0659,-878.7244 268.0659,-878.7244"/>
<ellipse fill="none" stroke="#000000" cx="264.8922" cy="-879.1342" rx="3.2" ry="3.2"/>
</g>
<!-- c_dechallenge_rechallenge -->
<g id="node3" class="node">
<title>c_dechallenge_rechallenge</title>
<g id="a_node3"><a xlink:href="../../tables/c_dechallenge_rechallenge.html" xlink:title="c_dechallenge_rechallenge" target="_top">
<polygon fill="#ffffff" stroke="transparent" points="239.5,-768.2 239.5,-829.2 458.5,-829.2 458.5,-768.2 239.5,-768.2"/>
<polygon fill="#f5f5f5" stroke="transparent" points="240,-805.7 240,-828.7 459,-828.7 459,-805.7 240,-805.7"/>
<polygon fill="none" stroke="#000000" points="240,-805.7 240,-828.7 459,-828.7 459,-805.7 240,-805.7"/>
<text text-anchor="start" x="245" y="-814.3" font-family="Helvetica,sans-Serif" font-weight="bold" font-size="11.00" fill="#000000">c_dechallenge_rechallenge</text>
<text text-anchor="start" x="424.5219" y="-813.8" font-family="Helvetica,sans-Serif" font-size="11.00" fill="#000000">[table]</text>
<polygon fill="none" stroke="#000000" points="240,-786.7 240,-805.7 459,-805.7 459,-786.7 240,-786.7"/>
<text text-anchor="start" x="243" y="-792.8" font-family="Helvetica,sans-Serif" font-size="11.00" fill="#000000">...</text>
<polygon fill="#ffffff" stroke="transparent" points="240,-767.7 240,-786.7 335,-786.7 335,-767.7 240,-767.7"/>
<polygon fill="none" stroke="#000000" points="240,-767.7 240,-786.7 335,-786.7 335,-767.7 240,-767.7"/>
<text text-anchor="start" x="243" y="-773.8" font-family="Helvetica,sans-Serif" font-size="11.00" fill="#000000">&lt; 3</text>
<polygon fill="#ffffff" stroke="transparent" points="335,-767.7 335,-786.7 410,-786.7 410,-767.7 335,-767.7"/>
<polygon fill="none" stroke="#000000" points="335,-767.7 335,-786.7 410,-786.7 410,-767.7 335,-767.7"/>
<text text-anchor="start" x="374.6105" y="-773.8" font-family="Helvetica,sans-Serif" font-size="11.00" fill="#000000">0 rows</text>
<polygon fill="#ffffff" stroke="transparent" points="410,-767.7 410,-786.7 459,-786.7 459,-767.7 410,-767.7"/>
<polygon fill="none" stroke="#000000" points="410,-767.7 410,-786.7 459,-786.7 459,-767.7 410,-767.7"/>
<text text-anchor="start" x="449.8862" y="-773.8" font-family="Helvetica,sans-Serif" font-size="11.00" fill="#000000"> &#160;</text>
</a>
</g>
</g>
<!-- c_dechallenge_rechallenge&#45;&gt;cg_cohort_definition -->
<g id="edge3" class="edge">
<title>c_dechallenge_rechallenge:w&#45;&gt;cg_cohort_definition:e</title>
<path fill="none" stroke="#000000" d="M226.2619,-790.7284C163.5757,-743.9914 268.4255,-388.0516 183.5,-393.7"/>
<polygon fill="#000000" stroke="#000000" points="232.4774,-792.9777 238.7749,-799.0852 236.2387,-794.3388 240,-795.7 240,-795.7 240,-795.7 236.2387,-794.3388 241.2251,-792.3148 232.4774,-792.9777 232.4774,-792.9777"/>
<ellipse fill="none" stroke="#000000" cx="229.4684" cy="-791.8887" rx="3.2" ry="3.2"/>
</g>
<!-- c_dechallenge_rechallenge&#45;&gt;cg_cohort_definition -->
<g id="edge4" class="edge">
<title>c_dechallenge_rechallenge:w&#45;&gt;cg_cohort_definition:e</title>
<path fill="none" stroke="#000000" d="M225.8739,-792.6519C164.0099,-755.4684 268.2493,-400.2762 183.5,-393.7"/>
<polygon fill="#000000" stroke="#000000" points="232.18,-794.0125 239.2406,-799.219 236.09,-794.8563 240,-795.7 240,-795.7 240,-795.7 236.09,-794.8563 240.7594,-792.181 232.18,-794.0125 232.18,-794.0125"/>
<ellipse fill="none" stroke="#000000" cx="229.052" cy="-793.3376" rx="3.2" ry="3.2"/>
</g>
<!-- cg_cohort_count -->
<g id="node4" class="node">
<title>cg_cohort_count</title>
<g id="a_node4"><a xlink:href="../../tables/cg_cohort_count.html" xlink:title="cg_cohort_count" target="_top">
<polygon fill="#ffffff" stroke="transparent" points="275,-686.2 275,-747.2 423,-747.2 423,-686.2 275,-686.2"/>
<polygon fill="#f5f5f5" stroke="transparent" points="275,-723.7 275,-746.7 423,-746.7 423,-723.7 275,-723.7"/>
<polygon fill="none" stroke="#000000" points="275,-723.7 275,-746.7 423,-746.7 423,-723.7 275,-723.7"/>
<text text-anchor="start" x="280" y="-732.3" font-family="Helvetica,sans-Serif" font-weight="bold" font-size="11.00" fill="#000000">cg_cohort_count</text>
<text text-anchor="start" x="388.5219" y="-731.8" font-family="Helvetica,sans-Serif" font-size="11.00" fill="#000000">[table]</text>
<polygon fill="none" stroke="#000000" points="275,-704.7 275,-723.7 423,-723.7 423,-704.7 275,-704.7"/>
<text text-anchor="start" x="278" y="-710.8" font-family="Helvetica,sans-Serif" font-size="11.00" fill="#000000">...</text>
<polygon fill="#ffffff" stroke="transparent" points="275,-685.7 275,-704.7 334,-704.7 334,-685.7 275,-685.7"/>
<polygon fill="none" stroke="#000000" points="275,-685.7 275,-704.7 334,-704.7 334,-685.7 275,-685.7"/>
<text text-anchor="start" x="278" y="-691.8" font-family="Helvetica,sans-Serif" font-size="11.00" fill="#000000">&lt; 2</text>
<polygon fill="#ffffff" stroke="transparent" points="334,-685.7 334,-704.7 391,-704.7 391,-685.7 334,-685.7"/>
<polygon fill="none" stroke="#000000" points="334,-685.7 334,-704.7 391,-704.7 391,-685.7 334,-685.7"/>
<text text-anchor="start" x="355.6105" y="-691.8" font-family="Helvetica,sans-Serif" font-size="11.00" fill="#000000">0 rows</text>
<polygon fill="#ffffff" stroke="transparent" points="391,-685.7 391,-704.7 423,-704.7 423,-685.7 391,-685.7"/>
<polygon fill="none" stroke="#000000" points="391,-685.7 391,-704.7 423,-704.7 423,-685.7 391,-685.7"/>
<text text-anchor="start" x="413.8862" y="-691.8" font-family="Helvetica,sans-Serif" font-size="11.00" fill="#000000"> &#160;</text>
</a>
</g>
</g>
<!-- cg_cohort_count&#45;&gt;cg_cohort_definition -->
<g id="edge5" class="edge">
<title>cg_cohort_count:w&#45;&gt;cg_cohort_definition:e</title>
<path fill="none" stroke="#000000" d="M260.5294,-712.1548C243.262,-707.9424 235.627,-695.2497 224,-675.7 191.6383,-621.2865 246.8096,-393.7 183.5,-393.7"/>
<polygon fill="#000000" stroke="#000000" points="267.0452,-712.8505 274.6177,-717.2796 271.0226,-713.2753 275,-713.7 275,-713.7 275,-713.7 271.0226,-713.2753 275.3823,-710.1204 267.0452,-712.8505 267.0452,-712.8505"/>
<ellipse fill="none" stroke="#000000" cx="263.8633" cy="-712.5107" rx="3.2" ry="3.2"/>
</g>
<!-- cg_cohort_inclusion -->
<g id="node5" class="node">
<title>cg_cohort_inclusion</title>
<g id="a_node5"><a xlink:href="../../tables/cg_cohort_inclusion.html" xlink:title="cg_cohort_inclusion" target="_top">
<polygon fill="#ffffff" stroke="transparent" points="239,-530.7 239,-664.7 459,-664.7 459,-530.7 239,-530.7"/>
<polygon fill="#f5f5f5" stroke="transparent" points="241,-639.7 241,-662.7 457,-662.7 457,-639.7 241,-639.7"/>
<polygon fill="none" stroke="#000000" points="241,-639.7 241,-662.7 457,-662.7 457,-639.7 241,-639.7"/>
<text text-anchor="start" x="246" y="-648.3" font-family="Helvetica,sans-Serif" font-weight="bold" font-size="11.00" fill="#000000">cg_cohort_inclusion</text>
<text text-anchor="start" x="422.0437" y="-647.8" font-family="Helvetica,sans-Serif" font-size="11.00" fill="#000000">[table]</text>
<polygon fill="none" stroke="#000000" points="241,-617.7 241,-639.7 395,-639.7 395,-617.7 241,-617.7"/>
<image xlink:href="../../images/foreignKeys.png" width="11px" height="12px" preserveAspectRatio="xMinYMin meet" x="246" y="-634.7"/>
<text text-anchor="start" x="261" y="-624.8" font-family="Helvetica,sans-Serif" font-size="11.00" fill="#000000">cohort_definition_id</text>
<polygon fill="none" stroke="#000000" points="395,-617.7 395,-639.7 457,-639.7 457,-617.7 395,-617.7"/>
<text text-anchor="start" x="397.878" y="-625.4" font-family="Helvetica,sans-Serif" font-size="11.00" fill="#000000">unknown[0]</text>
<polygon fill="none" stroke="#000000" points="241,-595.7 241,-617.7 395,-617.7 395,-595.7 241,-595.7"/>
<text text-anchor="start" x="261" y="-602.8" font-family="Helvetica,sans-Serif" font-size="11.00" fill="#000000">description</text>
<polygon fill="none" stroke="#000000" points="395,-595.7 395,-617.7 457,-617.7 457,-595.7 395,-595.7"/>
<text text-anchor="start" x="397.878" y="-603.4" font-family="Helvetica,sans-Serif" font-size="11.00" fill="#000000">unknown[0]</text>
<polygon fill="none" stroke="#000000" points="241,-573.7 241,-595.7 395,-595.7 395,-573.7 241,-573.7"/>
<text text-anchor="start" x="261" y="-580.8" font-family="Helvetica,sans-Serif" font-size="11.00" fill="#000000">name</text>
<polygon fill="none" stroke="#000000" points="395,-573.7 395,-595.7 457,-595.7 457,-573.7 395,-573.7"/>
<text text-anchor="start" x="397.878" y="-581.4" font-family="Helvetica,sans-Serif" font-size="11.00" fill="#000000">unknown[0]</text>
<polygon fill="none" stroke="#000000" points="241,-551.7 241,-573.7 395,-573.7 395,-551.7 241,-551.7"/>
<text text-anchor="start" x="261" y="-558.8" font-family="Helvetica,sans-Serif" font-size="11.00" fill="#000000">rule_sequence</text>
<polygon fill="none" stroke="#000000" points="395,-551.7 395,-573.7 457,-573.7 457,-551.7 395,-551.7"/>
<text text-anchor="start" x="397.878" y="-559.4" font-family="Helvetica,sans-Serif" font-size="11.00" fill="#000000">unknown[0]</text>
<polygon fill="#ffffff" stroke="transparent" points="241,-532.7 241,-551.7 309,-551.7 309,-532.7 241,-532.7"/>
<polygon fill="none" stroke="#000000" points="241,-532.7 241,-551.7 309,-551.7 309,-532.7 241,-532.7"/>
<text text-anchor="start" x="244" y="-538.8" font-family="Helvetica,sans-Serif" font-size="11.00" fill="#000000">&lt; 1</text>
<polygon fill="#ffffff" stroke="transparent" points="309,-532.7 309,-551.7 395,-551.7 395,-532.7 309,-532.7"/>
<polygon fill="none" stroke="#000000" points="309,-532.7 309,-551.7 395,-551.7 395,-532.7 309,-532.7"/>
<text text-anchor="start" x="359.6105" y="-538.8" font-family="Helvetica,sans-Serif" font-size="11.00" fill="#000000">0 rows</text>
<polygon fill="#ffffff" stroke="transparent" points="395,-532.7 395,-551.7 457,-551.7 457,-532.7 395,-532.7"/>
<polygon fill="none" stroke="#000000" points="395,-532.7 395,-551.7 457,-551.7 457,-532.7 395,-532.7"/>
<text text-anchor="start" x="438.4053" y="-538.8" font-family="Helvetica,sans-Serif" font-size="11.00" fill="#000000">0 &gt;</text>
<polygon fill="none" stroke="#000000" stroke-width="2" points="240,-531.7 240,-663.7 458,-663.7 458,-531.7 240,-531.7"/>
</a>
</g>
</g>
<!-- cg_cohort_inclusion&#45;&gt;cg_cohort_definition -->
<g id="edge6" class="edge">
<title>cg_cohort_inclusion:w&#45;&gt;cg_cohort_definition:e</title>
<path fill="none" stroke="#000000" d="M226.6004,-626.9435C148.7922,-605.4388 285.5652,-393.7 183.5,-393.7"/>
<polygon fill="#000000" stroke="#000000" points="233.0589,-627.7313 240.5641,-632.2735 237.0294,-628.2156 241,-628.7 241,-628.7 241,-628.7 237.0294,-628.2156 241.4359,-625.1265 233.0589,-627.7313 233.0589,-627.7313"/>
<ellipse fill="none" stroke="#000000" cx="229.8824" cy="-627.3438" rx="3.2" ry="3.2"/>
</g>
<!-- cg_cohort_summary_stats -->
<g id="node6" class="node">
<title>cg_cohort_summary_stats</title>
<g id="a_node6"><a xlink:href="../../tables/cg_cohort_summary_stats.html" xlink:title="cg_cohort_summary_stats" target="_top">
<polygon fill="#ffffff" stroke="transparent" points="243,-448.2 243,-509.2 455,-509.2 455,-448.2 243,-448.2"/>
<polygon fill="#f5f5f5" stroke="transparent" points="243,-485.7 243,-508.7 455,-508.7 455,-485.7 243,-485.7"/>
<polygon fill="none" stroke="#000000" points="243,-485.7 243,-508.7 455,-508.7 455,-485.7 243,-485.7"/>
<text text-anchor="start" x="248" y="-494.3" font-family="Helvetica,sans-Serif" font-weight="bold" font-size="11.00" fill="#000000">cg_cohort_summary_stats</text>
<text text-anchor="start" x="420.5219" y="-493.8" font-family="Helvetica,sans-Serif" font-size="11.00" fill="#000000">[table]</text>
<polygon fill="none" stroke="#000000" points="243,-466.7 243,-485.7 455,-485.7 455,-466.7 243,-466.7"/>
<text text-anchor="start" x="246" y="-472.8" font-family="Helvetica,sans-Serif" font-size="11.00" fill="#000000">...</text>
<polygon fill="#ffffff" stroke="transparent" points="243,-447.7 243,-466.7 334,-466.7 334,-447.7 243,-447.7"/>
<polygon fill="none" stroke="#000000" points="243,-447.7 243,-466.7 334,-466.7 334,-447.7 243,-447.7"/>
<text text-anchor="start" x="246" y="-453.8" font-family="Helvetica,sans-Serif" font-size="11.00" fill="#000000">&lt; 2</text>
<polygon fill="#ffffff" stroke="transparent" points="334,-447.7 334,-466.7 407,-466.7 407,-447.7 334,-447.7"/>
<polygon fill="none" stroke="#000000" points="334,-447.7 334,-466.7 407,-466.7 407,-447.7 334,-447.7"/>
<text text-anchor="start" x="371.6105" y="-453.8" font-family="Helvetica,sans-Serif" font-size="11.00" fill="#000000">0 rows</text>
<polygon fill="#ffffff" stroke="transparent" points="407,-447.7 407,-466.7 455,-466.7 455,-447.7 407,-447.7"/>
<polygon fill="none" stroke="#000000" points="407,-447.7 407,-466.7 455,-466.7 455,-447.7 407,-447.7"/>
<text text-anchor="start" x="445.8862" y="-453.8" font-family="Helvetica,sans-Serif" font-size="11.00" fill="#000000"> &#160;</text>
</a>
</g>
</g>
<!-- cg_cohort_summary_stats&#45;&gt;cg_cohort_definition -->
<g id="edge7" class="edge">
<title>cg_cohort_summary_stats:w&#45;&gt;cg_cohort_definition:e</title>
<path fill="none" stroke="#000000" d="M229.031,-471.9636C204.5938,-455.922 222.7235,-393.7 183.5,-393.7"/>
<polygon fill="#000000" stroke="#000000" points="235.2717,-473.6328 242.0698,-479.1777 239.1358,-474.6664 243,-475.7 243,-475.7 243,-475.7 239.1358,-474.6664 243.9302,-472.2223 235.2717,-473.6328 235.2717,-473.6328"/>
<ellipse fill="none" stroke="#000000" cx="232.1804" cy="-472.8059" rx="3.2" ry="3.2"/>
</g>
<!-- ci_incidence_summary -->
<g id="node7" class="node">
<title>ci_incidence_summary</title>
<g id="a_node7"><a xlink:href="../../tables/ci_incidence_summary.html" xlink:title="ci_incidence_summary" target="_top">
<polygon fill="#ffffff" stroke="transparent" points="254.5,-366.2 254.5,-427.2 443.5,-427.2 443.5,-366.2 254.5,-366.2"/>
<polygon fill="#f5f5f5" stroke="transparent" points="255,-403.7 255,-426.7 444,-426.7 444,-403.7 255,-403.7"/>
<polygon fill="none" stroke="#000000" points="255,-403.7 255,-426.7 444,-426.7 444,-403.7 255,-403.7"/>
<text text-anchor="start" x="260" y="-412.3" font-family="Helvetica,sans-Serif" font-weight="bold" font-size="11.00" fill="#000000">ci_incidence_summary</text>
<text text-anchor="start" x="409.5219" y="-411.8" font-family="Helvetica,sans-Serif" font-size="11.00" fill="#000000">[table]</text>
<polygon fill="none" stroke="#000000" points="255,-384.7 255,-403.7 444,-403.7 444,-384.7 255,-384.7"/>
<text text-anchor="start" x="258" y="-390.8" font-family="Helvetica,sans-Serif" font-size="11.00" fill="#000000">...</text>
<polygon fill="#ffffff" stroke="transparent" points="255,-365.7 255,-384.7 338,-384.7 338,-365.7 255,-365.7"/>
<polygon fill="none" stroke="#000000" points="255,-365.7 255,-384.7 338,-384.7 338,-365.7 255,-365.7"/>
<text text-anchor="start" x="258" y="-371.8" font-family="Helvetica,sans-Serif" font-size="11.00" fill="#000000">&lt; 10</text>
<polygon fill="#ffffff" stroke="transparent" points="338,-365.7 338,-384.7 404,-384.7 404,-365.7 338,-365.7"/>
<polygon fill="none" stroke="#000000" points="338,-365.7 338,-384.7 404,-384.7 404,-365.7 338,-365.7"/>
<text text-anchor="start" x="368.6105" y="-371.8" font-family="Helvetica,sans-Serif" font-size="11.00" fill="#000000">0 rows</text>
<polygon fill="#ffffff" stroke="transparent" points="404,-365.7 404,-384.7 444,-384.7 444,-365.7 404,-365.7"/>
<polygon fill="none" stroke="#000000" points="404,-365.7 404,-384.7 444,-384.7 444,-365.7 404,-365.7"/>
<text text-anchor="start" x="434.8862" y="-371.8" font-family="Helvetica,sans-Serif" font-size="11.00" fill="#000000"> &#160;</text>
</a>
</g>
</g>
<!-- ci_incidence_summary&#45;&gt;cg_cohort_definition -->
<g id="edge8" class="edge">
<title>ci_incidence_summary:w&#45;&gt;cg_cohort_definition:e</title>
<path fill="none" stroke="#000000" d="M240.4847,-393.7C219.7873,-393.7 209.816,-393.7 183.5,-393.7"/>
<polygon fill="#000000" stroke="#000000" points="247,-393.7001 255,-397.3 251,-393.7 255,-393.7 255,-393.7 255,-393.7 251,-393.7 255,-390.1 247,-393.7001 247,-393.7001"/>
<ellipse fill="none" stroke="#000000" cx="243.8" cy="-393.7001" rx="3.2" ry="3.2"/>
</g>
<!-- cm_diagnostics_summary -->
<g id="node8" class="node">
<title>cm_diagnostics_summary</title>
<g id="a_node8"><a xlink:href="../../tables/cm_diagnostics_summary.html" xlink:title="cm_diagnostics_summary" target="_top">
<polygon fill="#ffffff" stroke="transparent" points="244,-284.2 244,-345.2 454,-345.2 454,-284.2 244,-284.2"/>
<polygon fill="#f5f5f5" stroke="transparent" points="244,-321.7 244,-344.7 454,-344.7 454,-321.7 244,-321.7"/>
<polygon fill="none" stroke="#000000" points="244,-321.7 244,-344.7 454,-344.7 454,-321.7 244,-321.7"/>
<text text-anchor="start" x="249" y="-330.3" font-family="Helvetica,sans-Serif" font-weight="bold" font-size="11.00" fill="#000000">cm_diagnostics_summary</text>
<text text-anchor="start" x="419.5219" y="-329.8" font-family="Helvetica,sans-Serif" font-size="11.00" fill="#000000">[table]</text>
<polygon fill="none" stroke="#000000" points="244,-302.7 244,-321.7 454,-321.7 454,-302.7 244,-302.7"/>
<text text-anchor="start" x="247" y="-308.8" font-family="Helvetica,sans-Serif" font-size="11.00" fill="#000000">...</text>
<polygon fill="#ffffff" stroke="transparent" points="244,-283.7 244,-302.7 330,-302.7 330,-283.7 244,-283.7"/>
<polygon fill="none" stroke="#000000" points="244,-283.7 244,-302.7 330,-302.7 330,-283.7 244,-283.7"/>
<text text-anchor="start" x="247" y="-289.8" font-family="Helvetica,sans-Serif" font-size="11.00" fill="#000000">&lt; 5</text>
<polygon fill="#ffffff" stroke="transparent" points="330,-283.7 330,-302.7 400,-302.7 400,-283.7 330,-283.7"/>
<polygon fill="none" stroke="#000000" points="330,-283.7 330,-302.7 400,-302.7 400,-283.7 330,-283.7"/>
<text text-anchor="start" x="364.6105" y="-289.8" font-family="Helvetica,sans-Serif" font-size="11.00" fill="#000000">0 rows</text>
<polygon fill="#ffffff" stroke="transparent" points="400,-283.7 400,-302.7 454,-302.7 454,-283.7 400,-283.7"/>
<polygon fill="none" stroke="#000000" points="400,-283.7 400,-302.7 454,-302.7 454,-283.7 400,-283.7"/>
<text text-anchor="start" x="435.4053" y="-289.8" font-family="Helvetica,sans-Serif" font-size="11.00" fill="#000000">1 &gt;</text>
</a>
</g>
</g>
<!-- cm_diagnostics_summary&#45;&gt;cg_cohort_definition -->
<g id="edge9" class="edge">
<title>cm_diagnostics_summary:w&#45;&gt;cg_cohort_definition:e</title>
<path fill="none" stroke="#000000" d="M229.5899,-311.1633C205.3704,-319.2641 222.7752,-382.4266 183.5,-393.7"/>
<polygon fill="#000000" stroke="#000000" points="236.0055,-311.4022 243.866,-315.2975 240.0028,-311.5511 244,-311.7 244,-311.7 244,-311.7 240.0028,-311.5511 244.134,-308.1025 236.0055,-311.4022 236.0055,-311.4022"/>
<ellipse fill="none" stroke="#000000" cx="232.8078" cy="-311.283" rx="3.2" ry="3.2"/>
</g>
<!-- cm_diagnostics_summary&#45;&gt;cg_cohort_definition -->
<g id="edge10" class="edge">
<title>cm_diagnostics_summary:w&#45;&gt;cg_cohort_definition:e</title>
<path fill="none" stroke="#000000" d="M229.9198,-315.4364C205.2124,-331.478 222.9521,-393.7 183.5,-393.7"/>
<polygon fill="#000000" stroke="#000000" points="236.2676,-313.752 244.9234,-315.1796 240.1338,-312.726 244,-311.7 244,-311.7 244,-311.7 240.1338,-312.726 243.0766,-308.2204 236.2676,-313.752 236.2676,-313.752"/>
<ellipse fill="none" stroke="#000000" cx="233.1747" cy="-314.5728" rx="3.2" ry="3.2"/>
</g>
<!-- cm_diagnostics_summary&#45;&gt;cg_cohort_definition -->
<g id="edge11" class="edge">
<title>cm_diagnostics_summary:w&#45;&gt;cg_cohort_definition:e</title>
<path fill="none" stroke="#000000" d="M231.2909,-318.5359C204.5576,-342.059 223.6597,-405.2273 183.5,-393.7"/>
<polygon fill="#000000" stroke="#000000" points="236.9545,-315.4896 245.7053,-314.8705 240.4772,-313.5948 244,-311.7 244,-311.7 244,-311.7 240.4772,-313.5948 242.2947,-308.5295 236.9545,-315.4896 236.9545,-315.4896"/>
<ellipse fill="none" stroke="#000000" cx="234.1363" cy="-317.0055" rx="3.2" ry="3.2"/>
</g>
<!-- plp_cohorts -->
<g id="node9" class="node">
<title>plp_cohorts</title>
<g id="a_node9"><a xlink:href="../../tables/plp_cohorts.html" xlink:title="plp_cohorts" target="_top">
<polygon fill="#ffffff" stroke="transparent" points="290.5,-202.2 290.5,-263.2 407.5,-263.2 407.5,-202.2 290.5,-202.2"/>
<polygon fill="#f5f5f5" stroke="transparent" points="291,-239.7 291,-262.7 408,-262.7 408,-239.7 291,-239.7"/>
<polygon fill="none" stroke="#000000" points="291,-239.7 291,-262.7 408,-262.7 408,-239.7 291,-239.7"/>
<text text-anchor="start" x="296" y="-248.3" font-family="Helvetica,sans-Serif" font-weight="bold" font-size="11.00" fill="#000000">plp_cohorts</text>
<text text-anchor="start" x="373.5219" y="-247.8" font-family="Helvetica,sans-Serif" font-size="11.00" fill="#000000">[table]</text>
<polygon fill="none" stroke="#000000" points="291,-220.7 291,-239.7 408,-239.7 408,-220.7 291,-220.7"/>
<text text-anchor="start" x="294" y="-226.8" font-family="Helvetica,sans-Serif" font-size="11.00" fill="#000000">...</text>
<polygon fill="#ffffff" stroke="transparent" points="291,-201.7 291,-220.7 330,-220.7 330,-201.7 291,-201.7"/>
<polygon fill="none" stroke="#000000" points="291,-201.7 291,-220.7 330,-220.7 330,-201.7 291,-201.7"/>
<text text-anchor="start" x="294" y="-207.8" font-family="Helvetica,sans-Serif" font-size="11.00" fill="#000000">&lt; 1</text>
<polygon fill="#ffffff" stroke="transparent" points="330,-201.7 330,-220.7 377,-220.7 377,-201.7 330,-201.7"/>
<polygon fill="none" stroke="#000000" points="330,-201.7 330,-220.7 377,-220.7 377,-201.7 330,-201.7"/>
<text text-anchor="start" x="341.6105" y="-207.8" font-family="Helvetica,sans-Serif" font-size="11.00" fill="#000000">0 rows</text>
<polygon fill="#ffffff" stroke="transparent" points="377,-201.7 377,-220.7 408,-220.7 408,-201.7 377,-201.7"/>
<polygon fill="none" stroke="#000000" points="377,-201.7 377,-220.7 408,-220.7 408,-201.7 377,-201.7"/>
<text text-anchor="start" x="389.4053" y="-207.8" font-family="Helvetica,sans-Serif" font-size="11.00" fill="#000000">2 &gt;</text>
</a>
</g>
</g>
<!-- plp_cohorts&#45;&gt;cg_cohort_definition -->
<g id="edge12" class="edge">
<title>plp_cohorts:w&#45;&gt;cg_cohort_definition:e</title>
<path fill="none" stroke="#000000" d="M280.5517,-230.2234C253.2146,-233.1716 243.4782,-248.4781 224,-273.7 189.5949,-318.2504 239.7889,-393.7 183.5,-393.7"/>
<polygon fill="#000000" stroke="#000000" points="290.0008,-225.745 290.4012,-233.735 288.8032,-233.8151 288.4028,-225.8251 290.0008,-225.745"/>
<polyline fill="none" stroke="#000000" points="291,-229.7 287.005,-229.9002 "/>
<ellipse fill="none" stroke="#000000" cx="283.809" cy="-230.0603" rx="3.2" ry="3.2"/>
</g>
<!-- plp_performances -->
<g id="node10" class="node">
<title>plp_performances</title>
<g id="a_node10"><a xlink:href="../../tables/plp_performances.html" xlink:title="plp_performances" target="_top">
<polygon fill="#ffffff" stroke="transparent" points="269.5,-120.2 269.5,-181.2 428.5,-181.2 428.5,-120.2 269.5,-120.2"/>
<polygon fill="#f5f5f5" stroke="transparent" points="270,-157.7 270,-180.7 429,-180.7 429,-157.7 270,-157.7"/>
<polygon fill="none" stroke="#000000" points="270,-157.7 270,-180.7 429,-180.7 429,-157.7 270,-157.7"/>
<text text-anchor="start" x="275" y="-166.3" font-family="Helvetica,sans-Serif" font-weight="bold" font-size="11.00" fill="#000000">plp_performances</text>
<text text-anchor="start" x="394.5219" y="-165.8" font-family="Helvetica,sans-Serif" font-size="11.00" fill="#000000">[table]</text>
<polygon fill="none" stroke="#000000" points="270,-138.7 270,-157.7 429,-157.7 429,-138.7 270,-138.7"/>
<text text-anchor="start" x="273" y="-144.8" font-family="Helvetica,sans-Serif" font-size="11.00" fill="#000000">...</text>
<polygon fill="#ffffff" stroke="transparent" points="270,-119.7 270,-138.7 335,-138.7 335,-119.7 270,-119.7"/>
<polygon fill="none" stroke="#000000" points="270,-119.7 270,-138.7 335,-138.7 335,-119.7 270,-119.7"/>
<text text-anchor="start" x="273" y="-125.8" font-family="Helvetica,sans-Serif" font-size="11.00" fill="#000000">&lt; 4</text>
<polygon fill="#ffffff" stroke="transparent" points="335,-119.7 335,-138.7 395,-138.7 395,-119.7 335,-119.7"/>
<polygon fill="none" stroke="#000000" points="335,-119.7 335,-138.7 395,-138.7 395,-119.7 335,-119.7"/>
<text text-anchor="start" x="359.6105" y="-125.8" font-family="Helvetica,sans-Serif" font-size="11.00" fill="#000000">0 rows</text>
<polygon fill="#ffffff" stroke="transparent" points="395,-119.7 395,-138.7 429,-138.7 429,-119.7 395,-119.7"/>
<polygon fill="none" stroke="#000000" points="395,-119.7 395,-138.7 429,-138.7 429,-119.7 395,-119.7"/>
<text text-anchor="start" x="419.8862" y="-125.8" font-family="Helvetica,sans-Serif" font-size="11.00" fill="#000000"> &#160;</text>
</a>
</g>
</g>
<!-- plp_performances&#45;&gt;cg_cohort_definition -->
<g id="edge13" class="edge">
<title>plp_performances:w&#45;&gt;cg_cohort_definition:e</title>
<path fill="none" stroke="#000000" d="M255.4742,-146.9997C239.6582,-149.7341 234.8627,-165.945 224,-185.7 201.9407,-225.8173 229.2822,-387.7 183.5,-393.7"/>
<polygon fill="#000000" stroke="#000000" points="262.0093,-147.3147 269.8266,-151.2958 266.0046,-147.5073 270,-147.7 270,-147.7 270,-147.7 266.0046,-147.5073 270.1734,-144.1042 262.0093,-147.3147 262.0093,-147.3147"/>
<ellipse fill="none" stroke="#000000" cx="258.813" cy="-147.1606" rx="3.2" ry="3.2"/>
</g>
<!-- plp_performances&#45;&gt;cg_cohort_definition -->
<g id="edge14" class="edge">
<title>plp_performances:w&#45;&gt;cg_cohort_definition:e</title>
<path fill="none" stroke="#000000" d="M256.4174,-152.8815C239.8439,-162.0997 235.0757,-178.5576 224,-198.7 201.9407,-238.8173 229.2822,-400.7 183.5,-393.7"/>
<polygon fill="#000000" stroke="#000000" points="262.5254,-150.5515 271.2832,-151.0636 266.2627,-149.1257 270,-147.7 270,-147.7 270,-147.7 266.2627,-149.1257 268.7168,-144.3364 262.5254,-150.5515 262.5254,-150.5515"/>
<ellipse fill="none" stroke="#000000" cx="259.5356" cy="-151.692" rx="3.2" ry="3.2"/>
</g>
<!-- sccs_exposures_outcome_set -->
<g id="node11" class="node">
<title>sccs_exposures_outcome_set</title>
<g id="a_node11"><a xlink:href="../../tables/sccs_exposures_outcome_set.html" xlink:title="sccs_exposures_outcome_set" target="_top">
<polygon fill="#ffffff" stroke="transparent" points="232,-38.2 232,-99.2 466,-99.2 466,-38.2 232,-38.2"/>
<polygon fill="#f5f5f5" stroke="transparent" points="232,-75.7 232,-98.7 466,-98.7 466,-75.7 232,-75.7"/>
<polygon fill="none" stroke="#000000" points="232,-75.7 232,-98.7 466,-98.7 466,-75.7 232,-75.7"/>
<text text-anchor="start" x="237" y="-84.3" font-family="Helvetica,sans-Serif" font-weight="bold" font-size="11.00" fill="#000000">sccs_exposures_outcome_set</text>
<text text-anchor="start" x="431.5219" y="-83.8" font-family="Helvetica,sans-Serif" font-size="11.00" fill="#000000">[table]</text>
<polygon fill="none" stroke="#000000" points="232,-56.7 232,-75.7 466,-75.7 466,-56.7 232,-56.7"/>
<text text-anchor="start" x="235" y="-62.8" font-family="Helvetica,sans-Serif" font-size="11.00" fill="#000000">...</text>
<polygon fill="#ffffff" stroke="transparent" points="232,-37.7 232,-56.7 327,-56.7 327,-37.7 232,-37.7"/>
<polygon fill="none" stroke="#000000" points="232,-37.7 232,-56.7 327,-56.7 327,-37.7 232,-37.7"/>
<text text-anchor="start" x="235" y="-43.8" font-family="Helvetica,sans-Serif" font-size="11.00" fill="#000000">&lt; 3</text>
<polygon fill="#ffffff" stroke="transparent" points="327,-37.7 327,-56.7 402,-56.7 402,-37.7 327,-37.7"/>
<polygon fill="none" stroke="#000000" points="327,-37.7 327,-56.7 402,-56.7 402,-37.7 327,-37.7"/>
<text text-anchor="start" x="366.6105" y="-43.8" font-family="Helvetica,sans-Serif" font-size="11.00" fill="#000000">0 rows</text>
<polygon fill="#ffffff" stroke="transparent" points="402,-37.7 402,-56.7 466,-56.7 466,-37.7 402,-37.7"/>
<polygon fill="none" stroke="#000000" points="402,-37.7 402,-56.7 466,-56.7 466,-37.7 402,-37.7"/>
<text text-anchor="start" x="441.2904" y="-43.8" font-family="Helvetica,sans-Serif" font-size="11.00" fill="#000000">10 &gt;</text>
</a>
</g>
</g>
<!-- sccs_exposures_outcome_set&#45;&gt;cg_cohort_definition -->
<g id="edge15" class="edge">
<title>sccs_exposures_outcome_set:w&#45;&gt;cg_cohort_definition:e</title>
<path fill="none" stroke="#000000" d="M218.3046,-70.8521C172.0431,-112.5807 251.7129,-393.7 183.5,-393.7"/>
<polygon fill="#000000" stroke="#000000" points="224.5123,-68.5169 233.2676,-69.0695 228.2562,-67.1084 232,-65.7 232,-65.7 232,-65.7 228.2562,-67.1084 230.7324,-62.3305 224.5123,-68.5169 224.5123,-68.5169"/>
<ellipse fill="none" stroke="#000000" cx="221.5172" cy="-69.6436" rx="3.2" ry="3.2"/>
</g>
</g>
</svg>
