<?xml version="1.0" encoding="UTF-8" standalone="no"?>
<!DOCTYPE svg PUBLIC "-//W3C//DTD SVG 1.1//EN"
 "http://www.w3.org/Graphics/SVG/1.1/DTD/svg11.dtd">
<!-- Generated by graphviz version 2.40.1 (20161225.0304)
 -->
<!-- Title: oneDegreeRelationshipsDiagram Pages: 1 -->
<svg width="550pt" height="228pt"
 viewBox="0.00 0.00 550.00 228.20" xmlns="http://www.w3.org/2000/svg" xmlns:xlink="http://www.w3.org/1999/xlink">
<g id="graph0" class="graph" transform="scale(1 1) rotate(0) translate(4 224.2)">
<title>oneDegreeRelationshipsDiagram</title>
<polygon fill="#ffffff" stroke="transparent" points="-4,4 -4,-224.2 546,-224.2 546,4 -4,4"/>
<text text-anchor="middle" x="72.4936" y="-7.3" font-family="Helvetica,sans-Serif" font-size="11.00" fill="#000000">Generated by SchemaSpy</text>
<!-- cg_cohort_generation -->
<g id="node1" class="node">
<title>cg_cohort_generation</title>
<g id="a_node1"><a xlink:href="../../tables/cg_cohort_generation.html" xlink:title="cg_cohort_generation" target="_top">
<polygon fill="#ffffff" stroke="transparent" points="302,-38.2 302,-216.2 534,-216.2 534,-38.2 302,-38.2"/>
<polygon fill="#f5f5f5" stroke="transparent" points="304,-191.2 304,-214.2 532,-214.2 532,-191.2 304,-191.2"/>
<polygon fill="none" stroke="#000000" points="304,-191.2 304,-214.2 532,-214.2 532,-191.2 304,-191.2"/>
<text text-anchor="start" x="309" y="-199.8" font-family="Helvetica,sans-Serif" font-weight="bold" font-size="11.00" fill="#000000">cg_cohort_generation</text>
<text text-anchor="start" x="497.0437" y="-199.3" font-family="Helvetica,sans-Serif" font-size="11.00" fill="#000000">[table]</text>
<polygon fill="none" stroke="#000000" points="304,-169.2 304,-191.2 470,-191.2 470,-169.2 304,-169.2"/>
<text text-anchor="start" x="324" y="-176.3" font-family="Helvetica,sans-Serif" font-size="11.00" fill="#000000">cohort_id</text>
<polygon fill="none" stroke="#000000" points="470,-169.2 470,-191.2 532,-191.2 532,-169.2 470,-169.2"/>
<text text-anchor="start" x="472.878" y="-176.9" font-family="Helvetica,sans-Serif" font-size="11.00" fill="#000000">unknown[0]</text>
<polygon fill="none" stroke="#000000" points="304,-147.2 304,-169.2 470,-169.2 470,-147.2 304,-147.2"/>
<text text-anchor="start" x="324" y="-154.3" font-family="Helvetica,sans-Serif" font-size="11.00" fill="#000000">cohort_name</text>
<polygon fill="none" stroke="#000000" points="470,-147.2 470,-169.2 532,-169.2 532,-147.2 470,-147.2"/>
<text text-anchor="start" x="472.878" y="-154.9" font-family="Helvetica,sans-Serif" font-size="11.00" fill="#000000">unknown[0]</text>
<polygon fill="none" stroke="#000000" points="304,-125.2 304,-147.2 470,-147.2 470,-125.2 304,-125.2"/>
<image xlink:href="../../images/foreignKeys.png" width="11px" height="12px" preserveAspectRatio="xMinYMin meet" x="309" y="-142.2"/>
<text text-anchor="start" x="324" y="-132.3" font-family="Helvetica,sans-Serif" font-size="11.00" fill="#000000">database_id</text>
<polygon fill="none" stroke="#000000" points="470,-125.2 470,-147.2 532,-147.2 532,-125.2 470,-125.2"/>
<text text-anchor="start" x="472.878" y="-132.9" font-family="Helvetica,sans-Serif" font-size="11.00" fill="#000000">unknown[0]</text>
<polygon fill="none" stroke="#000000" points="304,-103.2 304,-125.2 470,-125.2 470,-103.2 304,-103.2"/>
<text text-anchor="start" x="324" y="-110.3" font-family="Helvetica,sans-Serif" font-size="11.00" fill="#000000">end_time</text>
<polygon fill="none" stroke="#000000" points="470,-103.2 470,-125.2 532,-125.2 532,-103.2 470,-103.2"/>
<text text-anchor="start" x="472.878" y="-110.9" font-family="Helvetica,sans-Serif" font-size="11.00" fill="#000000">unknown[0]</text>
<polygon fill="none" stroke="#000000" points="304,-81.2 304,-103.2 470,-103.2 470,-81.2 304,-81.2"/>
<text text-anchor="start" x="324" y="-88.3" font-family="Helvetica,sans-Serif" font-size="11.00" fill="#000000">generation_status</text>
<polygon fill="none" stroke="#000000" points="470,-81.2 470,-103.2 532,-103.2 532,-81.2 470,-81.2"/>
<text text-anchor="start" x="472.878" y="-88.9" font-family="Helvetica,sans-Serif" font-size="11.00" fill="#000000">unknown[0]</text>
<polygon fill="none" stroke="#000000" points="304,-59.2 304,-81.2 470,-81.2 470,-59.2 304,-59.2"/>
<text text-anchor="start" x="324" y="-66.3" font-family="Helvetica,sans-Serif" font-size="11.00" fill="#000000">start_time</text>
<polygon fill="none" stroke="#000000" points="470,-59.2 470,-81.2 532,-81.2 532,-59.2 470,-59.2"/>
<text text-anchor="start" x="472.878" y="-66.9" font-family="Helvetica,sans-Serif" font-size="11.00" fill="#000000">unknown[0]</text>
<polygon fill="#ffffff" stroke="transparent" points="304,-40.2 304,-59.2 378,-59.2 378,-40.2 304,-40.2"/>
<polygon fill="none" stroke="#000000" points="304,-40.2 304,-59.2 378,-59.2 378,-40.2 304,-40.2"/>
<text text-anchor="start" x="307" y="-46.3" font-family="Helvetica,sans-Serif" font-size="11.00" fill="#000000">&lt; 1</text>
<polygon fill="#ffffff" stroke="transparent" points="378,-40.2 378,-59.2 470,-59.2 470,-40.2 378,-40.2"/>
<polygon fill="none" stroke="#000000" points="378,-40.2 378,-59.2 470,-59.2 470,-40.2 378,-40.2"/>
<text text-anchor="start" x="434.6105" y="-46.3" font-family="Helvetica,sans-Serif" font-size="11.00" fill="#000000">0 rows</text>
<polygon fill="#ffffff" stroke="transparent" points="470,-40.2 470,-59.2 532,-59.2 532,-40.2 470,-40.2"/>
<polygon fill="none" stroke="#000000" points="470,-40.2 470,-59.2 532,-59.2 532,-40.2 470,-40.2"/>
<text text-anchor="start" x="513.4053" y="-46.3" font-family="Helvetica,sans-Serif" font-size="11.00" fill="#000000">0 &gt;</text>
<polygon fill="none" stroke="#000000" stroke-width="2" points="303,-39.2 303,-215.2 533,-215.2 533,-39.2 303,-39.2"/>
</a>
</g>
</g>
<!-- database_meta_data -->
<g id="node2" class="node">
<title>database_meta_data</title>
<g id="a_node2"><a xlink:href="../../tables/database_meta_data.html" xlink:title="database_meta_data" target="_top">
<polygon fill="#ffffff" stroke="transparent" points="8,-87.7 8,-170.7 253,-170.7 253,-87.7 8,-87.7"/>
<polygon fill="#f5f5f5" stroke="transparent" points="8.5,-147.2 8.5,-170.2 253.5,-170.2 253.5,-147.2 8.5,-147.2"/>
<polygon fill="none" stroke="#000000" points="8.5,-147.2 8.5,-170.2 253.5,-170.2 253.5,-147.2 8.5,-147.2"/>
<text text-anchor="start" x="13.5" y="-155.8" font-family="Helvetica,sans-Serif" font-weight="bold" font-size="11.00" fill="#000000">database_meta_data</text>
<text text-anchor="start" x="218.5437" y="-155.3" font-family="Helvetica,sans-Serif" font-size="11.00" fill="#000000">[table]</text>
<polygon fill="none" stroke="#000000" points="8.5,-125.2 8.5,-147.2 253.5,-147.2 253.5,-125.2 8.5,-125.2"/>
<image xlink:href="../../images/primaryKeys.png" width="11px" height="12px" preserveAspectRatio="xMinYMin meet" x="13.5" y="-142.2"/>
<text text-anchor="start" x="28.5" y="-132.3" font-family="Helvetica,sans-Serif" font-size="11.00" fill="#000000">database_id</text>
<polygon fill="none" stroke="#000000" points="8.5,-106.2 8.5,-125.2 253.5,-125.2 253.5,-106.2 8.5,-106.2"/>
<text text-anchor="start" x="11.5" y="-112.3" font-family="Helvetica,sans-Serif" font-size="11.00" fill="#000000">...</text>
<polygon fill="#ffffff" stroke="transparent" points="8.5,-87.2 8.5,-106.2 108.5,-106.2 108.5,-87.2 8.5,-87.2"/>
<polygon fill="none" stroke="#000000" points="8.5,-87.2 8.5,-106.2 108.5,-106.2 108.5,-87.2 8.5,-87.2"/>
<text text-anchor="start" x="11.5" y="-93.3" font-family="Helvetica,sans-Serif" font-size="11.00" fill="#000000">&lt; 1</text>
<polygon fill="#ffffff" stroke="transparent" points="108.5,-87.2 108.5,-106.2 186.5,-106.2 186.5,-87.2 108.5,-87.2"/>
<polygon fill="none" stroke="#000000" points="108.5,-87.2 108.5,-106.2 186.5,-106.2 186.5,-87.2 108.5,-87.2"/>
<text text-anchor="start" x="151.1105" y="-93.3" font-family="Helvetica,sans-Serif" font-size="11.00" fill="#000000">0 rows</text>
<polygon fill="#ffffff" stroke="transparent" points="186.5,-87.2 186.5,-106.2 253.5,-106.2 253.5,-87.2 186.5,-87.2"/>
<polygon fill="none" stroke="#000000" points="186.5,-87.2 186.5,-106.2 253.5,-106.2 253.5,-87.2 186.5,-87.2"/>
<text text-anchor="start" x="228.7904" y="-93.3" font-family="Helvetica,sans-Serif" font-size="11.00" fill="#000000">17 &gt;</text>
</a>
</g>
</g>
<!-- cg_cohort_generation&#45;&gt;database_meta_data -->
<g id="edge1" class="edge">
<title>cg_cohort_generation:w&#45;&gt;database_meta_data:e</title>
<path fill="none" stroke="#000000" d="M289.4203,-136.2C277.5435,-136.2 270.158,-136.2 253.5,-136.2"/>
<polygon fill="#000000" stroke="#000000" points="296,-136.2001 304,-139.8 300,-136.2 304,-136.2 304,-136.2 304,-136.2 300,-136.2 304,-132.6 296,-136.2001 296,-136.2001"/>
<ellipse fill="none" stroke="#000000" cx="292.8" cy="-136.2001" rx="3.2" ry="3.2"/>
</g>
</g>
</svg>
