<?xml version="1.0" encoding="UTF-8" standalone="no"?>
<!DOCTYPE svg PUBLIC "-//W3C//DTD SVG 1.1//EN"
 "http://www.w3.org/Graphics/SVG/1.1/DTD/svg11.dtd">
<!-- Generated by graphviz version 2.40.1 (20161225.0304)
 -->
<!-- Title: twoDegreesRelationshipsDiagram Pages: 1 -->
<svg width="1232pt" height="1334pt"
 viewBox="0.00 0.00 1232.00 1334.33" xmlns="http://www.w3.org/2000/svg" xmlns:xlink="http://www.w3.org/1999/xlink">
<g id="graph0" class="graph" transform="scale(1 1) rotate(0) translate(4 1330.3305)">
<title>twoDegreesRelationshipsDiagram</title>
<polygon fill="#ffffff" stroke="transparent" points="-4,4 -4,-1330.3305 1228,-1330.3305 1228,4 -4,4"/>
<text text-anchor="middle" x="72.4936" y="-7.3" font-family="Helvetica,sans-Serif" font-size="11.00" fill="#000000">Generated by SchemaSpy</text>
<!-- c_cohort_details -->
<g id="node1" class="node">
<title>c_cohort_details</title>
<g id="a_node1"><a xlink:href="../../tables/c_cohort_details.html" xlink:title="c_cohort_details" target="_top">
<polygon fill="#ffffff" stroke="transparent" points="243.5,-697.3305 243.5,-758.3305 390.5,-758.3305 390.5,-697.3305 243.5,-697.3305"/>
<polygon fill="#f5f5f5" stroke="transparent" points="244,-734.8305 244,-757.8305 391,-757.8305 391,-734.8305 244,-734.8305"/>
<polygon fill="none" stroke="#000000" points="244,-734.8305 244,-757.8305 391,-757.8305 391,-734.8305 244,-734.8305"/>
<text text-anchor="start" x="249" y="-743.4305" font-family="Helvetica,sans-Serif" font-weight="bold" font-size="11.00" fill="#000000">c_cohort_details</text>
<text text-anchor="start" x="356.5219" y="-742.9305" font-family="Helvetica,sans-Serif" font-size="11.00" fill="#000000">[table]</text>
<polygon fill="none" stroke="#000000" points="244,-715.8305 244,-734.8305 391,-734.8305 391,-715.8305 244,-715.8305"/>
<text text-anchor="start" x="247" y="-721.9305" font-family="Helvetica,sans-Serif" font-size="11.00" fill="#000000">...</text>
<polygon fill="#ffffff" stroke="transparent" points="244,-696.8305 244,-715.8305 298,-715.8305 298,-696.8305 244,-696.8305"/>
<polygon fill="none" stroke="#000000" points="244,-696.8305 244,-715.8305 298,-715.8305 298,-696.8305 244,-696.8305"/>
<text text-anchor="start" x="247" y="-702.9305" font-family="Helvetica,sans-Serif" font-size="11.00" fill="#000000">&lt; 2</text>
<polygon fill="#ffffff" stroke="transparent" points="298,-696.8305 298,-715.8305 353,-715.8305 353,-696.8305 298,-696.8305"/>
<polygon fill="none" stroke="#000000" points="298,-696.8305 298,-715.8305 353,-715.8305 353,-696.8305 298,-696.8305"/>
<text text-anchor="start" x="317.6105" y="-702.9305" font-family="Helvetica,sans-Serif" font-size="11.00" fill="#000000">0 rows</text>
<polygon fill="#ffffff" stroke="transparent" points="353,-696.8305 353,-715.8305 391,-715.8305 391,-696.8305 353,-696.8305"/>
<polygon fill="none" stroke="#000000" points="353,-696.8305 353,-715.8305 391,-715.8305 391,-696.8305 353,-696.8305"/>
<text text-anchor="start" x="372.4053" y="-702.9305" font-family="Helvetica,sans-Serif" font-size="11.00" fill="#000000">3 &gt;</text>
</a>
</g>
</g>
<!-- cg_cohort_definition -->
<g id="node2" class="node">
<title>cg_cohort_definition</title>
<g id="a_node2"><a xlink:href="../../tables/cg_cohort_definition.html" xlink:title="cg_cohort_definition" target="_top">
<polygon fill="#ffffff" stroke="transparent" points="8,-252.3305 8,-335.3305 183,-335.3305 183,-252.3305 8,-252.3305"/>
<polygon fill="#f5f5f5" stroke="transparent" points="8.5,-311.8305 8.5,-334.8305 183.5,-334.8305 183.5,-311.8305 8.5,-311.8305"/>
<polygon fill="none" stroke="#000000" points="8.5,-311.8305 8.5,-334.8305 183.5,-334.8305 183.5,-311.8305 8.5,-311.8305"/>
<text text-anchor="start" x="13.5" y="-320.4305" font-family="Helvetica,sans-Serif" font-weight="bold" font-size="11.00" fill="#000000">cg_cohort_definition</text>
<text text-anchor="start" x="149.0219" y="-319.9305" font-family="Helvetica,sans-Serif" font-size="11.00" fill="#000000">[table]</text>
<polygon fill="none" stroke="#000000" points="8.5,-289.8305 8.5,-311.8305 183.5,-311.8305 183.5,-289.8305 8.5,-289.8305"/>
<image xlink:href="../../images/primaryKeys.png" width="11px" height="12px" preserveAspectRatio="xMinYMin meet" x="13.5" y="-306.83"/>
<text text-anchor="start" x="37.5" y="-296.9305" font-family="Helvetica,sans-Serif" font-size="11.00" fill="#000000">cohort_definition_id</text>
<polygon fill="none" stroke="#000000" points="8.5,-270.8305 8.5,-289.8305 183.5,-289.8305 183.5,-270.8305 8.5,-270.8305"/>
<text text-anchor="start" x="11.5" y="-276.9305" font-family="Helvetica,sans-Serif" font-size="11.00" fill="#000000">...</text>
<polygon fill="#ffffff" stroke="transparent" points="8.5,-251.8305 8.5,-270.8305 69.5,-270.8305 69.5,-251.8305 8.5,-251.8305"/>
<polygon fill="none" stroke="#000000" points="8.5,-251.8305 8.5,-270.8305 69.5,-270.8305 69.5,-251.8305 8.5,-251.8305"/>
<text text-anchor="start" x="11.5" y="-257.9305" font-family="Helvetica,sans-Serif" font-size="11.00" fill="#000000"> &#160;</text>
<polygon fill="#ffffff" stroke="transparent" points="69.5,-251.8305 69.5,-270.8305 131.5,-270.8305 131.5,-251.8305 69.5,-251.8305"/>
<polygon fill="none" stroke="#000000" points="69.5,-251.8305 69.5,-270.8305 131.5,-270.8305 131.5,-251.8305 69.5,-251.8305"/>
<text text-anchor="start" x="96.1105" y="-257.9305" font-family="Helvetica,sans-Serif" font-size="11.00" fill="#000000">0 rows</text>
<polygon fill="#ffffff" stroke="transparent" points="131.5,-251.8305 131.5,-270.8305 183.5,-270.8305 183.5,-251.8305 131.5,-251.8305"/>
<polygon fill="none" stroke="#000000" points="131.5,-251.8305 131.5,-270.8305 183.5,-270.8305 183.5,-251.8305 131.5,-251.8305"/>
<text text-anchor="start" x="158.7904" y="-257.9305" font-family="Helvetica,sans-Serif" font-size="11.00" fill="#000000">15 &gt;</text>
</a>
</g>
</g>
<!-- c_cohort_details&#45;&gt;cg_cohort_definition -->
<g id="edge1" class="edge">
<title>c_cohort_details:w&#45;&gt;cg_cohort_definition:e</title>
<path fill="none" stroke="#000000" d="M230.3305,-720.2344C162.3531,-673.7415 273.4716,-295.1586 183.5,-300.8305"/>
<polygon fill="#000000" stroke="#000000" points="236.4171,-722.2809 242.8527,-728.2428 240.2086,-723.5557 244,-724.8305 244,-724.8305 244,-724.8305 240.2086,-723.5557 245.1473,-721.4182 236.4171,-722.2809 236.4171,-722.2809"/>
<ellipse fill="none" stroke="#000000" cx="233.384" cy="-721.261" rx="3.2" ry="3.2"/>
</g>
<!-- c_cohort_details&#45;&gt;cg_cohort_definition -->
<g id="edge2" class="edge">
<title>c_cohort_details:w&#45;&gt;cg_cohort_definition:e</title>
<path fill="none" stroke="#000000" d="M229.4969,-721.7924C163.268,-683.5746 273.0998,-307.4203 183.5,-300.8305"/>
<polygon fill="#000000" stroke="#000000" points="236.17,-723.1902 243.2619,-728.354 240.085,-724.0103 244,-724.8305 244,-724.8305 244,-724.8305 240.085,-724.0103 244.7381,-721.307 236.17,-723.1902 236.17,-723.1902"/>
<ellipse fill="none" stroke="#000000" cx="233.0379" cy="-722.5341" rx="3.2" ry="3.2"/>
</g>
<!-- c_covariates_continuous -->
<g id="node3" class="node">
<title>c_covariates_continuous</title>
<g id="a_node3"><a xlink:href="../../tables/c_covariates_continuous.html" xlink:title="c_covariates_continuous" target="_top">
<polygon fill="#ffffff" stroke="transparent" points="1013,-1179.3305 1013,-1240.3305 1216,-1240.3305 1216,-1179.3305 1013,-1179.3305"/>
<polygon fill="#f5f5f5" stroke="transparent" points="1013.5,-1216.8305 1013.5,-1239.8305 1216.5,-1239.8305 1216.5,-1216.8305 1013.5,-1216.8305"/>
<polygon fill="none" stroke="#000000" points="1013.5,-1216.8305 1013.5,-1239.8305 1216.5,-1239.8305 1216.5,-1216.8305 1013.5,-1216.8305"/>
<text text-anchor="start" x="1018.5" y="-1225.4305" font-family="Helvetica,sans-Serif" font-weight="bold" font-size="11.00" fill="#000000">c_covariates_continuous</text>
<text text-anchor="start" x="1182.0219" y="-1224.9305" font-family="Helvetica,sans-Serif" font-size="11.00" fill="#000000">[table]</text>
<polygon fill="none" stroke="#000000" points="1013.5,-1197.8305 1013.5,-1216.8305 1216.5,-1216.8305 1216.5,-1197.8305 1013.5,-1197.8305"/>
<text text-anchor="start" x="1016.5" y="-1203.9305" font-family="Helvetica,sans-Serif" font-size="11.00" fill="#000000">...</text>
<polygon fill="#ffffff" stroke="transparent" points="1013.5,-1178.8305 1013.5,-1197.8305 1100.5,-1197.8305 1100.5,-1178.8305 1013.5,-1178.8305"/>
<polygon fill="none" stroke="#000000" points="1013.5,-1178.8305 1013.5,-1197.8305 1100.5,-1197.8305 1100.5,-1178.8305 1013.5,-1178.8305"/>
<text text-anchor="start" x="1016.5" y="-1184.9305" font-family="Helvetica,sans-Serif" font-size="11.00" fill="#000000">&lt; 6</text>
<polygon fill="#ffffff" stroke="transparent" points="1100.5,-1178.8305 1100.5,-1197.8305 1171.5,-1197.8305 1171.5,-1178.8305 1100.5,-1178.8305"/>
<polygon fill="none" stroke="#000000" points="1100.5,-1178.8305 1100.5,-1197.8305 1171.5,-1197.8305 1171.5,-1178.8305 1100.5,-1178.8305"/>
<text text-anchor="start" x="1136.1105" y="-1184.9305" font-family="Helvetica,sans-Serif" font-size="11.00" fill="#000000">0 rows</text>
<polygon fill="#ffffff" stroke="transparent" points="1171.5,-1178.8305 1171.5,-1197.8305 1216.5,-1197.8305 1216.5,-1178.8305 1171.5,-1178.8305"/>
<polygon fill="none" stroke="#000000" points="1171.5,-1178.8305 1171.5,-1197.8305 1216.5,-1197.8305 1216.5,-1178.8305 1171.5,-1178.8305"/>
<text text-anchor="start" x="1207.3862" y="-1184.9305" font-family="Helvetica,sans-Serif" font-size="11.00" fill="#000000"> &#160;</text>
</a>
</g>
</g>
<!-- c_settings -->
<g id="node4" class="node">
<title>c_settings</title>
<g id="a_node4"><a xlink:href="../../tables/c_settings.html" xlink:title="c_settings" target="_top">
<polygon fill="#ffffff" stroke="transparent" points="801,-1179.3305 801,-1240.3305 908,-1240.3305 908,-1179.3305 801,-1179.3305"/>
<polygon fill="#f5f5f5" stroke="transparent" points="801.5,-1216.8305 801.5,-1239.8305 908.5,-1239.8305 908.5,-1216.8305 801.5,-1216.8305"/>
<polygon fill="none" stroke="#000000" points="801.5,-1216.8305 801.5,-1239.8305 908.5,-1239.8305 908.5,-1216.8305 801.5,-1216.8305"/>
<text text-anchor="start" x="806.5" y="-1225.4305" font-family="Helvetica,sans-Serif" font-weight="bold" font-size="11.00" fill="#000000">c_settings</text>
<text text-anchor="start" x="874.0219" y="-1224.9305" font-family="Helvetica,sans-Serif" font-size="11.00" fill="#000000">[table]</text>
<polygon fill="none" stroke="#000000" points="801.5,-1197.8305 801.5,-1216.8305 908.5,-1216.8305 908.5,-1197.8305 801.5,-1197.8305"/>
<text text-anchor="start" x="804.5" y="-1203.9305" font-family="Helvetica,sans-Serif" font-size="11.00" fill="#000000">...</text>
<polygon fill="#ffffff" stroke="transparent" points="801.5,-1178.8305 801.5,-1197.8305 835.5,-1197.8305 835.5,-1178.8305 801.5,-1178.8305"/>
<polygon fill="none" stroke="#000000" points="801.5,-1178.8305 801.5,-1197.8305 835.5,-1197.8305 835.5,-1178.8305 801.5,-1178.8305"/>
<text text-anchor="start" x="804.5" y="-1184.9305" font-family="Helvetica,sans-Serif" font-size="11.00" fill="#000000">&lt; 3</text>
<polygon fill="#ffffff" stroke="transparent" points="835.5,-1178.8305 835.5,-1197.8305 880.5,-1197.8305 880.5,-1178.8305 835.5,-1178.8305"/>
<polygon fill="none" stroke="#000000" points="835.5,-1178.8305 835.5,-1197.8305 880.5,-1197.8305 880.5,-1178.8305 835.5,-1178.8305"/>
<text text-anchor="start" x="845.1105" y="-1184.9305" font-family="Helvetica,sans-Serif" font-size="11.00" fill="#000000">0 rows</text>
<polygon fill="#ffffff" stroke="transparent" points="880.5,-1178.8305 880.5,-1197.8305 908.5,-1197.8305 908.5,-1178.8305 880.5,-1178.8305"/>
<polygon fill="none" stroke="#000000" points="880.5,-1178.8305 880.5,-1197.8305 908.5,-1197.8305 908.5,-1178.8305 880.5,-1178.8305"/>
<text text-anchor="start" x="889.9053" y="-1184.9305" font-family="Helvetica,sans-Serif" font-size="11.00" fill="#000000">6 &gt;</text>
</a>
</g>
</g>
<!-- c_covariates_continuous&#45;&gt;c_settings -->
<g id="edge3" class="edge">
<title>c_covariates_continuous:w&#45;&gt;c_settings:e</title>
<path fill="none" stroke="#000000" d="M998.8863,-1205.0224C963.741,-1200.9075 949.8802,-1201.5102 908.5,-1206.8305"/>
<polygon fill="#000000" stroke="#000000" points="1005.5605,-1205.8481 1013.0579,-1210.4032 1009.5303,-1206.3393 1013.5,-1206.8305 1013.5,-1206.8305 1013.5,-1206.8305 1009.5303,-1206.3393 1013.9421,-1203.2577 1005.5605,-1205.8481 1005.5605,-1205.8481"/>
<ellipse fill="none" stroke="#000000" cx="1002.3848" cy="-1205.4552" rx="3.2" ry="3.2"/>
</g>
<!-- c_covariates_continuous&#45;&gt;c_settings -->
<g id="edge5" class="edge">
<title>c_covariates_continuous:w&#45;&gt;c_settings:e</title>
<path fill="none" stroke="#000000" d="M998.8863,-1208.9399C963.741,-1213.7407 949.8802,-1213.0375 908.5,-1206.8305"/>
<polygon fill="#000000" stroke="#000000" points="1005.5821,-1207.9734 1014.0143,-1210.3936 1009.541,-1207.402 1013.5,-1206.8305 1013.5,-1206.8305 1013.5,-1206.8305 1009.541,-1207.402 1012.9857,-1203.2674 1005.5821,-1207.9734 1005.5821,-1207.9734"/>
<ellipse fill="none" stroke="#000000" cx="1002.4149" cy="-1208.4306" rx="3.2" ry="3.2"/>
</g>
<!-- database_meta_data -->
<g id="node5" class="node">
<title>database_meta_data</title>
<g id="a_node5"><a xlink:href="../../tables/database_meta_data.html" xlink:title="database_meta_data" target="_top">
<polygon fill="#ffffff" stroke="transparent" points="451,-565.3305 451,-648.3305 696,-648.3305 696,-565.3305 451,-565.3305"/>
<polygon fill="#f5f5f5" stroke="transparent" points="451.5,-624.8305 451.5,-647.8305 696.5,-647.8305 696.5,-624.8305 451.5,-624.8305"/>
<polygon fill="none" stroke="#000000" points="451.5,-624.8305 451.5,-647.8305 696.5,-647.8305 696.5,-624.8305 451.5,-624.8305"/>
<text text-anchor="start" x="456.5" y="-633.4305" font-family="Helvetica,sans-Serif" font-weight="bold" font-size="11.00" fill="#000000">database_meta_data</text>
<text text-anchor="start" x="661.5437" y="-632.9305" font-family="Helvetica,sans-Serif" font-size="11.00" fill="#000000">[table]</text>
<polygon fill="none" stroke="#000000" points="451.5,-602.8305 451.5,-624.8305 696.5,-624.8305 696.5,-602.8305 451.5,-602.8305"/>
<image xlink:href="../../images/primaryKeys.png" width="11px" height="12px" preserveAspectRatio="xMinYMin meet" x="456.5" y="-619.83"/>
<text text-anchor="start" x="471.5" y="-609.9305" font-family="Helvetica,sans-Serif" font-size="11.00" fill="#000000">database_id</text>
<polygon fill="none" stroke="#000000" points="451.5,-583.8305 451.5,-602.8305 696.5,-602.8305 696.5,-583.8305 451.5,-583.8305"/>
<text text-anchor="start" x="454.5" y="-589.9305" font-family="Helvetica,sans-Serif" font-size="11.00" fill="#000000">...</text>
<polygon fill="#ffffff" stroke="transparent" points="451.5,-564.8305 451.5,-583.8305 551.5,-583.8305 551.5,-564.8305 451.5,-564.8305"/>
<polygon fill="none" stroke="#000000" points="451.5,-564.8305 451.5,-583.8305 551.5,-583.8305 551.5,-564.8305 451.5,-564.8305"/>
<text text-anchor="start" x="454.5" y="-570.9305" font-family="Helvetica,sans-Serif" font-size="11.00" fill="#000000">&lt; 1</text>
<polygon fill="#ffffff" stroke="transparent" points="551.5,-564.8305 551.5,-583.8305 629.5,-583.8305 629.5,-564.8305 551.5,-564.8305"/>
<polygon fill="none" stroke="#000000" points="551.5,-564.8305 551.5,-583.8305 629.5,-583.8305 629.5,-564.8305 551.5,-564.8305"/>
<text text-anchor="start" x="594.1105" y="-570.9305" font-family="Helvetica,sans-Serif" font-size="11.00" fill="#000000">0 rows</text>
<polygon fill="#ffffff" stroke="transparent" points="629.5,-564.8305 629.5,-583.8305 696.5,-583.8305 696.5,-564.8305 629.5,-564.8305"/>
<polygon fill="none" stroke="#000000" points="629.5,-564.8305 629.5,-583.8305 696.5,-583.8305 696.5,-564.8305 629.5,-564.8305"/>
<text text-anchor="start" x="671.7904" y="-570.9305" font-family="Helvetica,sans-Serif" font-size="11.00" fill="#000000">17 &gt;</text>
</a>
</g>
</g>
<!-- c_covariates_continuous&#45;&gt;database_meta_data -->
<g id="edge4" class="edge">
<title>c_covariates_continuous:w&#45;&gt;database_meta_data:e</title>
<path fill="none" stroke="#000000" d="M998.9127,-1205.2174C939.3523,-1189.8786 1032.6828,-1069.1051 972,-1013.8305 894.2399,-943.0006 810.7493,-1060.8275 737,-985.8305 678.6957,-926.5398 779.6551,-613.8305 696.5,-613.8305"/>
<polygon fill="#000000" stroke="#000000" points="1005.5485,-1205.9512 1013.1043,-1210.4087 1009.5242,-1206.3908 1013.5,-1206.8305 1013.5,-1206.8305 1013.5,-1206.8305 1009.5242,-1206.3908 1013.8957,-1203.2523 1005.5485,-1205.9512 1005.5485,-1205.9512"/>
<ellipse fill="none" stroke="#000000" cx="1002.3679" cy="-1205.5994" rx="3.2" ry="3.2"/>
</g>
<!-- c_settings&#45;&gt;c_cohort_details -->
<g id="edge9" class="edge">
<title>c_settings:w&#45;&gt;c_cohort_details:e</title>
<path fill="none" stroke="#000000" d="M787.0337,-1205.9734C764.1991,-1202.9378 753.1489,-1191.6347 737,-1168.8305 693.0241,-1106.731 741.8784,-1066.8263 704,-1000.8305 611.6754,-839.9729 576.4697,-724.8305 391,-724.8305"/>
<polygon fill="#000000" stroke="#000000" points="793.514,-1206.3573 801.2871,-1210.4242 797.507,-1206.5939 801.5,-1206.8305 801.5,-1206.8305 801.5,-1206.8305 797.507,-1206.5939 801.7129,-1203.2368 793.514,-1206.3573 793.514,-1206.3573"/>
<ellipse fill="none" stroke="#000000" cx="790.3196" cy="-1206.168" rx="3.2" ry="3.2"/>
</g>
<!-- c_settings&#45;&gt;c_cohort_details -->
<g id="edge11" class="edge">
<title>c_settings:w&#45;&gt;c_cohort_details:e</title>
<path fill="none" stroke="#000000" d="M787.0378,-1205.9705C764.2159,-1202.9258 753.2014,-1191.5974 737,-1168.8305 693.8921,-1108.2532 740.9287,-1069.3609 704,-1004.8305 611.293,-842.8313 577.6503,-724.8305 391,-724.8305"/>
<polygon fill="#000000" stroke="#000000" points="793.5141,-1206.3556 801.2863,-1210.4241 797.5071,-1206.593 801.5,-1206.8305 801.5,-1206.8305 801.5,-1206.8305 797.5071,-1206.593 801.7137,-1203.2368 793.5141,-1206.3556 793.5141,-1206.3556"/>
<ellipse fill="none" stroke="#000000" cx="790.3197" cy="-1206.1656" rx="3.2" ry="3.2"/>
</g>
<!-- c_settings&#45;&gt;database_meta_data -->
<g id="edge10" class="edge">
<title>c_settings:w&#45;&gt;database_meta_data:e</title>
<path fill="none" stroke="#000000" d="M786.9253,-1206.0454C763.7476,-1203.2374 751.7391,-1192.5702 737,-1168.8305 704.3862,-1116.3008 758.3306,-613.8305 696.5,-613.8305"/>
<polygon fill="#000000" stroke="#000000" points="793.5116,-1206.4001 801.3063,-1210.4253 797.5058,-1206.6153 801.5,-1206.8305 801.5,-1206.8305 801.5,-1206.8305 797.5058,-1206.6153 801.6937,-1203.2357 793.5116,-1206.4001 793.5116,-1206.4001"/>
<ellipse fill="none" stroke="#000000" cx="790.3162" cy="-1206.228" rx="3.2" ry="3.2"/>
</g>
<!-- database_meta_data&#45;&gt;c_cohort_details -->
<g id="edge28" class="edge">
<title>database_meta_data:w&#45;&gt;c_cohort_details:e</title>
<path fill="none" stroke="#000000" d="M441.1759,-615.3996C402.0748,-628.8911 443.2348,-724.8305 391,-724.8305"/>
<polygon fill="#000000" stroke="#000000" points="450.108,-609.9961 451.3102,-617.9053 449.7283,-618.1457 448.5262,-610.2365 450.108,-609.9961"/>
<polyline fill="none" stroke="#000000" points="451.5,-613.8305 447.5454,-614.4316 "/>
<ellipse fill="none" stroke="#000000" cx="444.3817" cy="-614.9124" rx="3.2" ry="3.2"/>
</g>
<!-- c_dechallenge_rechallenge -->
<g id="node6" class="node">
<title>c_dechallenge_rechallenge</title>
<g id="a_node6"><a xlink:href="../../tables/c_dechallenge_rechallenge.html" xlink:title="c_dechallenge_rechallenge" target="_top">
<polygon fill="#ffffff" stroke="transparent" points="745,-1261.3305 745,-1322.3305 964,-1322.3305 964,-1261.3305 745,-1261.3305"/>
<polygon fill="#f5f5f5" stroke="transparent" points="745.5,-1298.8305 745.5,-1321.8305 964.5,-1321.8305 964.5,-1298.8305 745.5,-1298.8305"/>
<polygon fill="none" stroke="#000000" points="745.5,-1298.8305 745.5,-1321.8305 964.5,-1321.8305 964.5,-1298.8305 745.5,-1298.8305"/>
<text text-anchor="start" x="750.5" y="-1307.4305" font-family="Helvetica,sans-Serif" font-weight="bold" font-size="11.00" fill="#000000">c_dechallenge_rechallenge</text>
<text text-anchor="start" x="930.0219" y="-1306.9305" font-family="Helvetica,sans-Serif" font-size="11.00" fill="#000000">[table]</text>
<polygon fill="none" stroke="#000000" points="745.5,-1279.8305 745.5,-1298.8305 964.5,-1298.8305 964.5,-1279.8305 745.5,-1279.8305"/>
<text text-anchor="start" x="748.5" y="-1285.9305" font-family="Helvetica,sans-Serif" font-size="11.00" fill="#000000">...</text>
<polygon fill="#ffffff" stroke="transparent" points="745.5,-1260.8305 745.5,-1279.8305 840.5,-1279.8305 840.5,-1260.8305 745.5,-1260.8305"/>
<polygon fill="none" stroke="#000000" points="745.5,-1260.8305 745.5,-1279.8305 840.5,-1279.8305 840.5,-1260.8305 745.5,-1260.8305"/>
<text text-anchor="start" x="748.5" y="-1266.9305" font-family="Helvetica,sans-Serif" font-size="11.00" fill="#000000">&lt; 3</text>
<polygon fill="#ffffff" stroke="transparent" points="840.5,-1260.8305 840.5,-1279.8305 915.5,-1279.8305 915.5,-1260.8305 840.5,-1260.8305"/>
<polygon fill="none" stroke="#000000" points="840.5,-1260.8305 840.5,-1279.8305 915.5,-1279.8305 915.5,-1260.8305 840.5,-1260.8305"/>
<text text-anchor="start" x="880.1105" y="-1266.9305" font-family="Helvetica,sans-Serif" font-size="11.00" fill="#000000">0 rows</text>
<polygon fill="#ffffff" stroke="transparent" points="915.5,-1260.8305 915.5,-1279.8305 964.5,-1279.8305 964.5,-1260.8305 915.5,-1260.8305"/>
<polygon fill="none" stroke="#000000" points="915.5,-1260.8305 915.5,-1279.8305 964.5,-1279.8305 964.5,-1260.8305 915.5,-1260.8305"/>
<text text-anchor="start" x="955.3862" y="-1266.9305" font-family="Helvetica,sans-Serif" font-size="11.00" fill="#000000"> &#160;</text>
</a>
</g>
</g>
<!-- c_dechallenge_rechallenge&#45;&gt;cg_cohort_definition -->
<g id="edge7" class="edge">
<title>c_dechallenge_rechallenge:w&#45;&gt;cg_cohort_definition:e</title>
<path fill="none" stroke="#000000" d="M730.8221,-1288.6775C416.48,-1282.051 360.3069,-1060.952 224,-768.8305 201.93,-721.5318 235.6943,-300.8305 183.5,-300.8305"/>
<polygon fill="#000000" stroke="#000000" points="737.5004,-1288.747 745.4624,-1292.4303 741.5002,-1288.7888 745.5,-1288.8305 745.5,-1288.8305 745.5,-1288.8305 741.5002,-1288.7888 745.5376,-1285.2307 737.5004,-1288.747 737.5004,-1288.747"/>
<ellipse fill="none" stroke="#000000" cx="734.3006" cy="-1288.7136" rx="3.2" ry="3.2"/>
</g>
<!-- c_dechallenge_rechallenge&#45;&gt;cg_cohort_definition -->
<g id="edge8" class="edge">
<title>c_dechallenge_rechallenge:w&#45;&gt;cg_cohort_definition:e</title>
<path fill="none" stroke="#000000" d="M730.7668,-1288.6756C415.2623,-1281.9712 360.3773,-1058.2856 224,-764.8305 202.1897,-717.8993 235.2516,-300.8305 183.5,-300.8305"/>
<polygon fill="#000000" stroke="#000000" points="737.5004,-1288.7464 745.4621,-1292.4303 741.5002,-1288.7884 745.5,-1288.8305 745.5,-1288.8305 745.5,-1288.8305 741.5002,-1288.7884 745.5379,-1285.2307 737.5004,-1288.7464 737.5004,-1288.7464"/>
<ellipse fill="none" stroke="#000000" cx="734.3006" cy="-1288.7127" rx="3.2" ry="3.2"/>
</g>
<!-- c_dechallenge_rechallenge&#45;&gt;database_meta_data -->
<g id="edge6" class="edge">
<title>c_dechallenge_rechallenge:w&#45;&gt;database_meta_data:e</title>
<path fill="none" stroke="#000000" d="M733.0661,-1280.7797C682.6395,-1204.6229 766.8506,-613.8305 696.5,-613.8305"/>
<polygon fill="#000000" stroke="#000000" points="738.7847,-1284.4824 743.5434,-1291.8523 742.1424,-1286.6564 745.5,-1288.8305 745.5,-1288.8305 745.5,-1288.8305 742.1424,-1286.6564 747.4566,-1285.8086 738.7847,-1284.4824 738.7847,-1284.4824"/>
<ellipse fill="none" stroke="#000000" cx="736.0986" cy="-1282.7432" rx="3.2" ry="3.2"/>
</g>
<!-- c_time_to_event -->
<g id="node7" class="node">
<title>c_time_to_event</title>
<g id="a_node7"><a xlink:href="../../tables/c_time_to_event.html" xlink:title="c_time_to_event" target="_top">
<polygon fill="#ffffff" stroke="transparent" points="781.5,-914.3305 781.5,-975.3305 927.5,-975.3305 927.5,-914.3305 781.5,-914.3305"/>
<polygon fill="#f5f5f5" stroke="transparent" points="781.5,-951.8305 781.5,-974.8305 927.5,-974.8305 927.5,-951.8305 781.5,-951.8305"/>
<polygon fill="none" stroke="#000000" points="781.5,-951.8305 781.5,-974.8305 927.5,-974.8305 927.5,-951.8305 781.5,-951.8305"/>
<text text-anchor="start" x="786.5" y="-960.4305" font-family="Helvetica,sans-Serif" font-weight="bold" font-size="11.00" fill="#000000">c_time_to_event</text>
<text text-anchor="start" x="893.0219" y="-959.9305" font-family="Helvetica,sans-Serif" font-size="11.00" fill="#000000">[table]</text>
<polygon fill="none" stroke="#000000" points="781.5,-932.8305 781.5,-951.8305 927.5,-951.8305 927.5,-932.8305 781.5,-932.8305"/>
<text text-anchor="start" x="784.5" y="-938.9305" font-family="Helvetica,sans-Serif" font-size="11.00" fill="#000000">...</text>
<polygon fill="#ffffff" stroke="transparent" points="781.5,-913.8305 781.5,-932.8305 839.5,-932.8305 839.5,-913.8305 781.5,-913.8305"/>
<polygon fill="none" stroke="#000000" points="781.5,-913.8305 781.5,-932.8305 839.5,-932.8305 839.5,-913.8305 781.5,-913.8305"/>
<text text-anchor="start" x="784.5" y="-919.9305" font-family="Helvetica,sans-Serif" font-size="11.00" fill="#000000">&lt; 1</text>
<polygon fill="#ffffff" stroke="transparent" points="839.5,-913.8305 839.5,-932.8305 896.5,-932.8305 896.5,-913.8305 839.5,-913.8305"/>
<polygon fill="none" stroke="#000000" points="839.5,-913.8305 839.5,-932.8305 896.5,-932.8305 896.5,-913.8305 839.5,-913.8305"/>
<text text-anchor="start" x="861.1105" y="-919.9305" font-family="Helvetica,sans-Serif" font-size="11.00" fill="#000000">0 rows</text>
<polygon fill="#ffffff" stroke="transparent" points="896.5,-913.8305 896.5,-932.8305 927.5,-932.8305 927.5,-913.8305 896.5,-913.8305"/>
<polygon fill="none" stroke="#000000" points="896.5,-913.8305 896.5,-932.8305 927.5,-932.8305 927.5,-913.8305 896.5,-913.8305"/>
<text text-anchor="start" x="918.3862" y="-919.9305" font-family="Helvetica,sans-Serif" font-size="11.00" fill="#000000"> &#160;</text>
</a>
</g>
</g>
<!-- c_time_to_event&#45;&gt;database_meta_data -->
<g id="edge12" class="edge">
<title>c_time_to_event:w&#45;&gt;database_meta_data:e</title>
<path fill="none" stroke="#000000" d="M766.7985,-941.1832C662.4974,-931.3899 725.5778,-811.6569 704,-662.8305 700.8388,-641.0271 718.5314,-613.8305 696.5,-613.8305"/>
<polygon fill="#000000" stroke="#000000" points="773.5077,-941.4785 781.3416,-945.427 777.5039,-941.6545 781.5,-941.8305 781.5,-941.8305 781.5,-941.8305 777.5039,-941.6545 781.6584,-938.234 773.5077,-941.4785 773.5077,-941.4785"/>
<ellipse fill="none" stroke="#000000" cx="770.3108" cy="-941.3377" rx="3.2" ry="3.2"/>
</g>
<!-- cd_cohort_count -->
<g id="node8" class="node">
<title>cd_cohort_count</title>
<g id="a_node8"><a xlink:href="../../tables/cd_cohort_count.html" xlink:title="cd_cohort_count" target="_top">
<polygon fill="#ffffff" stroke="transparent" points="780.5,-832.3305 780.5,-893.3305 928.5,-893.3305 928.5,-832.3305 780.5,-832.3305"/>
<polygon fill="#f5f5f5" stroke="transparent" points="780.5,-869.8305 780.5,-892.8305 928.5,-892.8305 928.5,-869.8305 780.5,-869.8305"/>
<polygon fill="none" stroke="#000000" points="780.5,-869.8305 780.5,-892.8305 928.5,-892.8305 928.5,-869.8305 780.5,-869.8305"/>
<text text-anchor="start" x="785.5" y="-878.4305" font-family="Helvetica,sans-Serif" font-weight="bold" font-size="11.00" fill="#000000">cd_cohort_count</text>
<text text-anchor="start" x="894.0219" y="-877.9305" font-family="Helvetica,sans-Serif" font-size="11.00" fill="#000000">[table]</text>
<polygon fill="none" stroke="#000000" points="780.5,-850.8305 780.5,-869.8305 928.5,-869.8305 928.5,-850.8305 780.5,-850.8305"/>
<text text-anchor="start" x="783.5" y="-856.9305" font-family="Helvetica,sans-Serif" font-size="11.00" fill="#000000">...</text>
<polygon fill="#ffffff" stroke="transparent" points="780.5,-831.8305 780.5,-850.8305 835.5,-850.8305 835.5,-831.8305 780.5,-831.8305"/>
<polygon fill="none" stroke="#000000" points="780.5,-831.8305 780.5,-850.8305 835.5,-850.8305 835.5,-831.8305 780.5,-831.8305"/>
<text text-anchor="start" x="783.5" y="-837.9305" font-family="Helvetica,sans-Serif" font-size="11.00" fill="#000000">&lt; 1</text>
<polygon fill="#ffffff" stroke="transparent" points="835.5,-831.8305 835.5,-850.8305 890.5,-850.8305 890.5,-831.8305 835.5,-831.8305"/>
<polygon fill="none" stroke="#000000" points="835.5,-831.8305 835.5,-850.8305 890.5,-850.8305 890.5,-831.8305 835.5,-831.8305"/>
<text text-anchor="start" x="855.1105" y="-837.9305" font-family="Helvetica,sans-Serif" font-size="11.00" fill="#000000">0 rows</text>
<polygon fill="#ffffff" stroke="transparent" points="890.5,-831.8305 890.5,-850.8305 928.5,-850.8305 928.5,-831.8305 890.5,-831.8305"/>
<polygon fill="none" stroke="#000000" points="890.5,-831.8305 890.5,-850.8305 928.5,-850.8305 928.5,-831.8305 890.5,-831.8305"/>
<text text-anchor="start" x="909.9053" y="-837.9305" font-family="Helvetica,sans-Serif" font-size="11.00" fill="#000000">2 &gt;</text>
</a>
</g>
</g>
<!-- cd_cohort_count&#45;&gt;database_meta_data -->
<g id="edge13" class="edge">
<title>cd_cohort_count:w&#45;&gt;database_meta_data:e</title>
<path fill="none" stroke="#000000" d="M765.9014,-857.5121C752.1555,-852.3585 746.9094,-839.036 737,-821.8305 713.4979,-781.0243 743.5903,-613.8305 696.5,-613.8305"/>
<polygon fill="#000000" stroke="#000000" points="772.599,-858.5757 779.9354,-863.3859 776.5495,-859.2031 780.5,-859.8305 780.5,-859.8305 780.5,-859.8305 776.5495,-859.2031 781.0646,-856.275 772.599,-858.5757 772.599,-858.5757"/>
<ellipse fill="none" stroke="#000000" cx="769.4386" cy="-858.0738" rx="3.2" ry="3.2"/>
</g>
<!-- cg_cohort_count -->
<g id="node9" class="node">
<title>cg_cohort_count</title>
<g id="a_node9"><a xlink:href="../../tables/cg_cohort_count.html" xlink:title="cg_cohort_count" target="_top">
<polygon fill="#ffffff" stroke="transparent" points="756.5,-1023.8305 756.5,-1157.8305 952.5,-1157.8305 952.5,-1023.8305 756.5,-1023.8305"/>
<polygon fill="#f5f5f5" stroke="transparent" points="758.5,-1132.8305 758.5,-1155.8305 950.5,-1155.8305 950.5,-1132.8305 758.5,-1132.8305"/>
<polygon fill="none" stroke="#000000" points="758.5,-1132.8305 758.5,-1155.8305 950.5,-1155.8305 950.5,-1132.8305 758.5,-1132.8305"/>
<text text-anchor="start" x="763.5" y="-1141.4305" font-family="Helvetica,sans-Serif" font-weight="bold" font-size="11.00" fill="#000000">cg_cohort_count</text>
<text text-anchor="start" x="915.5437" y="-1140.9305" font-family="Helvetica,sans-Serif" font-size="11.00" fill="#000000">[table]</text>
<polygon fill="none" stroke="#000000" points="758.5,-1110.8305 758.5,-1132.8305 888.5,-1132.8305 888.5,-1110.8305 758.5,-1110.8305"/>
<text text-anchor="start" x="778.5" y="-1117.9305" font-family="Helvetica,sans-Serif" font-size="11.00" fill="#000000">cohort_entries</text>
<polygon fill="none" stroke="#000000" points="888.5,-1110.8305 888.5,-1132.8305 950.5,-1132.8305 950.5,-1110.8305 888.5,-1110.8305"/>
<text text-anchor="start" x="891.378" y="-1118.5305" font-family="Helvetica,sans-Serif" font-size="11.00" fill="#000000">unknown[0]</text>
<polygon fill="none" stroke="#000000" points="758.5,-1088.8305 758.5,-1110.8305 888.5,-1110.8305 888.5,-1088.8305 758.5,-1088.8305"/>
<image xlink:href="../../images/foreignKeys.png" width="11px" height="12px" preserveAspectRatio="xMinYMin meet" x="763.5" y="-1105.83"/>
<text text-anchor="start" x="778.5" y="-1095.9305" font-family="Helvetica,sans-Serif" font-size="11.00" fill="#000000">cohort_id</text>
<polygon fill="none" stroke="#000000" points="888.5,-1088.8305 888.5,-1110.8305 950.5,-1110.8305 950.5,-1088.8305 888.5,-1088.8305"/>
<text text-anchor="start" x="891.378" y="-1096.5305" font-family="Helvetica,sans-Serif" font-size="11.00" fill="#000000">unknown[0]</text>
<polygon fill="none" stroke="#000000" points="758.5,-1066.8305 758.5,-1088.8305 888.5,-1088.8305 888.5,-1066.8305 758.5,-1066.8305"/>
<text text-anchor="start" x="778.5" y="-1073.9305" font-family="Helvetica,sans-Serif" font-size="11.00" fill="#000000">cohort_subjects</text>
<polygon fill="none" stroke="#000000" points="888.5,-1066.8305 888.5,-1088.8305 950.5,-1088.8305 950.5,-1066.8305 888.5,-1066.8305"/>
<text text-anchor="start" x="891.378" y="-1074.5305" font-family="Helvetica,sans-Serif" font-size="11.00" fill="#000000">unknown[0]</text>
<polygon fill="none" stroke="#000000" points="758.5,-1044.8305 758.5,-1066.8305 888.5,-1066.8305 888.5,-1044.8305 758.5,-1044.8305"/>
<image xlink:href="../../images/foreignKeys.png" width="11px" height="12px" preserveAspectRatio="xMinYMin meet" x="763.5" y="-1061.83"/>
<text text-anchor="start" x="778.5" y="-1051.9305" font-family="Helvetica,sans-Serif" font-size="11.00" fill="#000000">database_id</text>
<polygon fill="none" stroke="#000000" points="888.5,-1044.8305 888.5,-1066.8305 950.5,-1066.8305 950.5,-1044.8305 888.5,-1044.8305"/>
<text text-anchor="start" x="891.378" y="-1052.5305" font-family="Helvetica,sans-Serif" font-size="11.00" fill="#000000">unknown[0]</text>
<polygon fill="#ffffff" stroke="transparent" points="758.5,-1025.8305 758.5,-1044.8305 814.5,-1044.8305 814.5,-1025.8305 758.5,-1025.8305"/>
<polygon fill="none" stroke="#000000" points="758.5,-1025.8305 758.5,-1044.8305 814.5,-1044.8305 814.5,-1025.8305 758.5,-1025.8305"/>
<text text-anchor="start" x="761.5" y="-1031.9305" font-family="Helvetica,sans-Serif" font-size="11.00" fill="#000000">&lt; 2</text>
<polygon fill="#ffffff" stroke="transparent" points="814.5,-1025.8305 814.5,-1044.8305 888.5,-1044.8305 888.5,-1025.8305 814.5,-1025.8305"/>
<polygon fill="none" stroke="#000000" points="814.5,-1025.8305 814.5,-1044.8305 888.5,-1044.8305 888.5,-1025.8305 814.5,-1025.8305"/>
<text text-anchor="start" x="853.1105" y="-1031.9305" font-family="Helvetica,sans-Serif" font-size="11.00" fill="#000000">0 rows</text>
<polygon fill="#ffffff" stroke="transparent" points="888.5,-1025.8305 888.5,-1044.8305 950.5,-1044.8305 950.5,-1025.8305 888.5,-1025.8305"/>
<polygon fill="none" stroke="#000000" points="888.5,-1025.8305 888.5,-1044.8305 950.5,-1044.8305 950.5,-1025.8305 888.5,-1025.8305"/>
<text text-anchor="start" x="931.9053" y="-1031.9305" font-family="Helvetica,sans-Serif" font-size="11.00" fill="#000000">0 &gt;</text>
<polygon fill="none" stroke="#000000" stroke-width="2" points="757.5,-1024.8305 757.5,-1156.8305 951.5,-1156.8305 951.5,-1024.8305 757.5,-1024.8305"/>
</a>
</g>
</g>
<!-- cg_cohort_count&#45;&gt;cg_cohort_definition -->
<g id="edge14" class="edge">
<title>cg_cohort_count:w&#45;&gt;cg_cohort_definition:e</title>
<path fill="none" stroke="#000000" d="M744.2798,-1096.1075C684.8504,-1060.8042 755.6695,-785.0283 704,-725.8305 625.2479,-635.604 544.1028,-723.025 443,-658.8305 314.0123,-576.9307 303.9509,-524.0351 224,-393.8305 200.4098,-355.4124 228.5826,-300.8305 183.5,-300.8305"/>
<polygon fill="#000000" stroke="#000000" points="750.7608,-1097.8042 757.5882,-1103.3131 754.6304,-1098.8174 758.5,-1099.8305 758.5,-1099.8305 758.5,-1099.8305 754.6304,-1098.8174 759.4118,-1096.3479 750.7608,-1097.8042 750.7608,-1097.8042"/>
<ellipse fill="none" stroke="#000000" cx="747.6652" cy="-1096.9938" rx="3.2" ry="3.2"/>
</g>
<!-- cg_cohort_count&#45;&gt;database_meta_data -->
<g id="edge15" class="edge">
<title>cg_cohort_count:w&#45;&gt;database_meta_data:e</title>
<path fill="none" stroke="#000000" d="M744.264,-1052.0094C673.5269,-1008.8086 790.2597,-613.8305 696.5,-613.8305"/>
<polygon fill="#000000" stroke="#000000" points="750.7735,-1053.7565 757.5667,-1059.3074 754.6367,-1054.7935 758.5,-1055.8305 758.5,-1055.8305 758.5,-1055.8305 754.6367,-1054.7935 759.4333,-1052.3535 750.7735,-1053.7565 750.7735,-1053.7565"/>
<ellipse fill="none" stroke="#000000" cx="747.6829" cy="-1052.927" rx="3.2" ry="3.2"/>
</g>
<!-- cg_cohort_generation -->
<g id="node10" class="node">
<title>cg_cohort_generation</title>
<g id="a_node10"><a xlink:href="../../tables/cg_cohort_generation.html" xlink:title="cg_cohort_generation" target="_top">
<polygon fill="#ffffff" stroke="transparent" points="762.5,-750.3305 762.5,-811.3305 946.5,-811.3305 946.5,-750.3305 762.5,-750.3305"/>
<polygon fill="#f5f5f5" stroke="transparent" points="762.5,-787.8305 762.5,-810.8305 946.5,-810.8305 946.5,-787.8305 762.5,-787.8305"/>
<polygon fill="none" stroke="#000000" points="762.5,-787.8305 762.5,-810.8305 946.5,-810.8305 946.5,-787.8305 762.5,-787.8305"/>
<text text-anchor="start" x="767.5" y="-796.4305" font-family="Helvetica,sans-Serif" font-weight="bold" font-size="11.00" fill="#000000">cg_cohort_generation</text>
<text text-anchor="start" x="912.0219" y="-795.9305" font-family="Helvetica,sans-Serif" font-size="11.00" fill="#000000">[table]</text>
<polygon fill="none" stroke="#000000" points="762.5,-768.8305 762.5,-787.8305 946.5,-787.8305 946.5,-768.8305 762.5,-768.8305"/>
<text text-anchor="start" x="765.5" y="-774.9305" font-family="Helvetica,sans-Serif" font-size="11.00" fill="#000000">...</text>
<polygon fill="#ffffff" stroke="transparent" points="762.5,-749.8305 762.5,-768.8305 839.5,-768.8305 839.5,-749.8305 762.5,-749.8305"/>
<polygon fill="none" stroke="#000000" points="762.5,-749.8305 762.5,-768.8305 839.5,-768.8305 839.5,-749.8305 762.5,-749.8305"/>
<text text-anchor="start" x="765.5" y="-755.9305" font-family="Helvetica,sans-Serif" font-size="11.00" fill="#000000">&lt; 1</text>
<polygon fill="#ffffff" stroke="transparent" points="839.5,-749.8305 839.5,-768.8305 905.5,-768.8305 905.5,-749.8305 839.5,-749.8305"/>
<polygon fill="none" stroke="#000000" points="839.5,-749.8305 839.5,-768.8305 905.5,-768.8305 905.5,-749.8305 839.5,-749.8305"/>
<text text-anchor="start" x="870.1105" y="-755.9305" font-family="Helvetica,sans-Serif" font-size="11.00" fill="#000000">0 rows</text>
<polygon fill="#ffffff" stroke="transparent" points="905.5,-749.8305 905.5,-768.8305 946.5,-768.8305 946.5,-749.8305 905.5,-749.8305"/>
<polygon fill="none" stroke="#000000" points="905.5,-749.8305 905.5,-768.8305 946.5,-768.8305 946.5,-749.8305 905.5,-749.8305"/>
<text text-anchor="start" x="937.3862" y="-755.9305" font-family="Helvetica,sans-Serif" font-size="11.00" fill="#000000"> &#160;</text>
</a>
</g>
</g>
<!-- cg_cohort_generation&#45;&gt;database_meta_data -->
<g id="edge16" class="edge">
<title>cg_cohort_generation:w&#45;&gt;database_meta_data:e</title>
<path fill="none" stroke="#000000" d="M747.997,-775.3849C696.2163,-754.9838 769.392,-613.8305 696.5,-613.8305"/>
<polygon fill="#000000" stroke="#000000" points="754.6114,-776.5002 761.9014,-781.3804 758.5557,-777.1653 762.5,-777.8305 762.5,-777.8305 762.5,-777.8305 758.5557,-777.1653 763.0986,-774.2806 754.6114,-776.5002 754.6114,-776.5002"/>
<ellipse fill="none" stroke="#000000" cx="751.4559" cy="-775.9681" rx="3.2" ry="3.2"/>
</g>
<!-- cg_cohort_inc_result -->
<g id="node11" class="node">
<title>cg_cohort_inc_result</title>
<g id="a_node11"><a xlink:href="../../tables/cg_cohort_inc_result.html" xlink:title="cg_cohort_inc_result" target="_top">
<polygon fill="#ffffff" stroke="transparent" points="767,-668.3305 767,-729.3305 942,-729.3305 942,-668.3305 767,-668.3305"/>
<polygon fill="#f5f5f5" stroke="transparent" points="767.5,-705.8305 767.5,-728.8305 942.5,-728.8305 942.5,-705.8305 767.5,-705.8305"/>
<polygon fill="none" stroke="#000000" points="767.5,-705.8305 767.5,-728.8305 942.5,-728.8305 942.5,-705.8305 767.5,-705.8305"/>
<text text-anchor="start" x="772.5" y="-714.4305" font-family="Helvetica,sans-Serif" font-weight="bold" font-size="11.00" fill="#000000">cg_cohort_inc_result</text>
<text text-anchor="start" x="908.0219" y="-713.9305" font-family="Helvetica,sans-Serif" font-size="11.00" fill="#000000">[table]</text>
<polygon fill="none" stroke="#000000" points="767.5,-686.8305 767.5,-705.8305 942.5,-705.8305 942.5,-686.8305 767.5,-686.8305"/>
<text text-anchor="start" x="770.5" y="-692.9305" font-family="Helvetica,sans-Serif" font-size="11.00" fill="#000000">...</text>
<polygon fill="#ffffff" stroke="transparent" points="767.5,-667.8305 767.5,-686.8305 840.5,-686.8305 840.5,-667.8305 767.5,-667.8305"/>
<polygon fill="none" stroke="#000000" points="767.5,-667.8305 767.5,-686.8305 840.5,-686.8305 840.5,-667.8305 767.5,-667.8305"/>
<text text-anchor="start" x="770.5" y="-673.9305" font-family="Helvetica,sans-Serif" font-size="11.00" fill="#000000">&lt; 1</text>
<polygon fill="#ffffff" stroke="transparent" points="840.5,-667.8305 840.5,-686.8305 904.5,-686.8305 904.5,-667.8305 840.5,-667.8305"/>
<polygon fill="none" stroke="#000000" points="840.5,-667.8305 840.5,-686.8305 904.5,-686.8305 904.5,-667.8305 840.5,-667.8305"/>
<text text-anchor="start" x="869.1105" y="-673.9305" font-family="Helvetica,sans-Serif" font-size="11.00" fill="#000000">0 rows</text>
<polygon fill="#ffffff" stroke="transparent" points="904.5,-667.8305 904.5,-686.8305 942.5,-686.8305 942.5,-667.8305 904.5,-667.8305"/>
<polygon fill="none" stroke="#000000" points="904.5,-667.8305 904.5,-686.8305 942.5,-686.8305 942.5,-667.8305 904.5,-667.8305"/>
<text text-anchor="start" x="933.3862" y="-673.9305" font-family="Helvetica,sans-Serif" font-size="11.00" fill="#000000"> &#160;</text>
</a>
</g>
</g>
<!-- cg_cohort_inc_result&#45;&gt;database_meta_data -->
<g id="edge17" class="edge">
<title>cg_cohort_inc_result:w&#45;&gt;database_meta_data:e</title>
<path fill="none" stroke="#000000" d="M753.3483,-692.7161C724.2382,-677.7378 739.0581,-613.8305 696.5,-613.8305"/>
<polygon fill="#000000" stroke="#000000" points="759.687,-694.111 766.7262,-699.3463 763.5935,-694.9708 767.5,-695.8305 767.5,-695.8305 767.5,-695.8305 763.5935,-694.9708 768.2738,-692.3146 759.687,-694.111 759.687,-694.111"/>
<ellipse fill="none" stroke="#000000" cx="756.5617" cy="-693.4232" rx="3.2" ry="3.2"/>
</g>
<!-- cg_cohort_inclusion -->
<g id="node12" class="node">
<title>cg_cohort_inclusion</title>
<g id="a_node12"><a xlink:href="../../tables/cg_cohort_inclusion.html" xlink:title="cg_cohort_inclusion" target="_top">
<polygon fill="#ffffff" stroke="transparent" points="232,-137.3305 232,-198.3305 402,-198.3305 402,-137.3305 232,-137.3305"/>
<polygon fill="#f5f5f5" stroke="transparent" points="232,-174.8305 232,-197.8305 402,-197.8305 402,-174.8305 232,-174.8305"/>
<polygon fill="none" stroke="#000000" points="232,-174.8305 232,-197.8305 402,-197.8305 402,-174.8305 232,-174.8305"/>
<text text-anchor="start" x="237" y="-183.4305" font-family="Helvetica,sans-Serif" font-weight="bold" font-size="11.00" fill="#000000">cg_cohort_inclusion</text>
<text text-anchor="start" x="367.5219" y="-182.9305" font-family="Helvetica,sans-Serif" font-size="11.00" fill="#000000">[table]</text>
<polygon fill="none" stroke="#000000" points="232,-155.8305 232,-174.8305 402,-174.8305 402,-155.8305 232,-155.8305"/>
<text text-anchor="start" x="235" y="-161.9305" font-family="Helvetica,sans-Serif" font-size="11.00" fill="#000000">...</text>
<polygon fill="#ffffff" stroke="transparent" points="232,-136.8305 232,-155.8305 302,-155.8305 302,-136.8305 232,-136.8305"/>
<polygon fill="none" stroke="#000000" points="232,-136.8305 232,-155.8305 302,-155.8305 302,-136.8305 232,-136.8305"/>
<text text-anchor="start" x="235" y="-142.9305" font-family="Helvetica,sans-Serif" font-size="11.00" fill="#000000">&lt; 1</text>
<polygon fill="#ffffff" stroke="transparent" points="302,-136.8305 302,-155.8305 365,-155.8305 365,-136.8305 302,-136.8305"/>
<polygon fill="none" stroke="#000000" points="302,-136.8305 302,-155.8305 365,-155.8305 365,-136.8305 302,-136.8305"/>
<text text-anchor="start" x="329.6105" y="-142.9305" font-family="Helvetica,sans-Serif" font-size="11.00" fill="#000000">0 rows</text>
<polygon fill="#ffffff" stroke="transparent" points="365,-136.8305 365,-155.8305 402,-155.8305 402,-136.8305 365,-136.8305"/>
<polygon fill="none" stroke="#000000" points="365,-136.8305 365,-155.8305 402,-155.8305 402,-136.8305 365,-136.8305"/>
<text text-anchor="start" x="392.8862" y="-142.9305" font-family="Helvetica,sans-Serif" font-size="11.00" fill="#000000"> &#160;</text>
</a>
</g>
</g>
<!-- cg_cohort_inclusion&#45;&gt;cg_cohort_definition -->
<g id="edge18" class="edge">
<title>cg_cohort_inclusion:w&#45;&gt;cg_cohort_definition:e</title>
<path fill="none" stroke="#000000" d="M217.5114,-168.1923C181.5323,-189.1352 241.6568,-300.8305 183.5,-300.8305"/>
<polygon fill="#000000" stroke="#000000" points="224.207,-166.6387 232.8137,-168.3373 228.1035,-165.7346 232,-164.8305 232,-164.8305 232,-164.8305 228.1035,-165.7346 231.1863,-161.3236 224.207,-166.6387 224.207,-166.6387"/>
<ellipse fill="none" stroke="#000000" cx="221.0898" cy="-167.362" rx="3.2" ry="3.2"/>
</g>
<!-- cg_cohort_summary_stats -->
<g id="node13" class="node">
<title>cg_cohort_summary_stats</title>
<g id="a_node13"><a xlink:href="../../tables/cg_cohort_summary_stats.html" xlink:title="cg_cohort_summary_stats" target="_top">
<polygon fill="#ffffff" stroke="transparent" points="748.5,-394.3305 748.5,-455.3305 960.5,-455.3305 960.5,-394.3305 748.5,-394.3305"/>
<polygon fill="#f5f5f5" stroke="transparent" points="748.5,-431.8305 748.5,-454.8305 960.5,-454.8305 960.5,-431.8305 748.5,-431.8305"/>
<polygon fill="none" stroke="#000000" points="748.5,-431.8305 748.5,-454.8305 960.5,-454.8305 960.5,-431.8305 748.5,-431.8305"/>
<text text-anchor="start" x="753.5" y="-440.4305" font-family="Helvetica,sans-Serif" font-weight="bold" font-size="11.00" fill="#000000">cg_cohort_summary_stats</text>
<text text-anchor="start" x="926.0219" y="-439.9305" font-family="Helvetica,sans-Serif" font-size="11.00" fill="#000000">[table]</text>
<polygon fill="none" stroke="#000000" points="748.5,-412.8305 748.5,-431.8305 960.5,-431.8305 960.5,-412.8305 748.5,-412.8305"/>
<text text-anchor="start" x="751.5" y="-418.9305" font-family="Helvetica,sans-Serif" font-size="11.00" fill="#000000">...</text>
<polygon fill="#ffffff" stroke="transparent" points="748.5,-393.8305 748.5,-412.8305 839.5,-412.8305 839.5,-393.8305 748.5,-393.8305"/>
<polygon fill="none" stroke="#000000" points="748.5,-393.8305 748.5,-412.8305 839.5,-412.8305 839.5,-393.8305 748.5,-393.8305"/>
<text text-anchor="start" x="751.5" y="-399.9305" font-family="Helvetica,sans-Serif" font-size="11.00" fill="#000000">&lt; 2</text>
<polygon fill="#ffffff" stroke="transparent" points="839.5,-393.8305 839.5,-412.8305 912.5,-412.8305 912.5,-393.8305 839.5,-393.8305"/>
<polygon fill="none" stroke="#000000" points="839.5,-393.8305 839.5,-412.8305 912.5,-412.8305 912.5,-393.8305 839.5,-393.8305"/>
<text text-anchor="start" x="877.1105" y="-399.9305" font-family="Helvetica,sans-Serif" font-size="11.00" fill="#000000">0 rows</text>
<polygon fill="#ffffff" stroke="transparent" points="912.5,-393.8305 912.5,-412.8305 960.5,-412.8305 960.5,-393.8305 912.5,-393.8305"/>
<polygon fill="none" stroke="#000000" points="912.5,-393.8305 912.5,-412.8305 960.5,-412.8305 960.5,-393.8305 912.5,-393.8305"/>
<text text-anchor="start" x="951.3862" y="-399.9305" font-family="Helvetica,sans-Serif" font-size="11.00" fill="#000000"> &#160;</text>
</a>
</g>
</g>
<!-- cg_cohort_summary_stats&#45;&gt;cg_cohort_definition -->
<g id="edge19" class="edge">
<title>cg_cohort_summary_stats:w&#45;&gt;cg_cohort_definition:e</title>
<path fill="none" stroke="#000000" d="M733.871,-421.8801C509.5627,-423.3944 426.2785,-458.2976 224,-347.8305 199.7993,-334.6141 211.0744,-300.8305 183.5,-300.8305"/>
<polygon fill="#000000" stroke="#000000" points="740.5,-421.8577 748.5122,-425.4305 744.5,-421.8441 748.5,-421.8305 748.5,-421.8305 748.5,-421.8305 744.5,-421.8441 748.4878,-418.2305 740.5,-421.8577 740.5,-421.8577"/>
<ellipse fill="none" stroke="#000000" cx="737.3001" cy="-421.8685" rx="3.2" ry="3.2"/>
</g>
<!-- cg_cohort_summary_stats&#45;&gt;database_meta_data -->
<g id="edge20" class="edge">
<title>cg_cohort_summary_stats:w&#45;&gt;database_meta_data:e</title>
<path fill="none" stroke="#000000" d="M733.9487,-424.1205C675.2961,-445.7829 779.2094,-613.8305 696.5,-613.8305"/>
<polygon fill="#000000" stroke="#000000" points="740.5973,-423.0742 749.0597,-425.3867 744.5486,-422.4523 748.5,-421.8305 748.5,-421.8305 748.5,-421.8305 744.5486,-422.4523 747.9403,-418.2742 740.5973,-423.0742 740.5973,-423.0742"/>
<ellipse fill="none" stroke="#000000" cx="737.4362" cy="-423.5717" rx="3.2" ry="3.2"/>
</g>
<!-- ci_incidence_summary -->
<g id="node14" class="node">
<title>ci_incidence_summary</title>
<g id="a_node14"><a xlink:href="../../tables/ci_incidence_summary.html" xlink:title="ci_incidence_summary" target="_top">
<polygon fill="#ffffff" stroke="transparent" points="760,-312.3305 760,-373.3305 949,-373.3305 949,-312.3305 760,-312.3305"/>
<polygon fill="#f5f5f5" stroke="transparent" points="760.5,-349.8305 760.5,-372.8305 949.5,-372.8305 949.5,-349.8305 760.5,-349.8305"/>
<polygon fill="none" stroke="#000000" points="760.5,-349.8305 760.5,-372.8305 949.5,-372.8305 949.5,-349.8305 760.5,-349.8305"/>
<text text-anchor="start" x="765.5" y="-358.4305" font-family="Helvetica,sans-Serif" font-weight="bold" font-size="11.00" fill="#000000">ci_incidence_summary</text>
<text text-anchor="start" x="915.0219" y="-357.9305" font-family="Helvetica,sans-Serif" font-size="11.00" fill="#000000">[table]</text>
<polygon fill="none" stroke="#000000" points="760.5,-330.8305 760.5,-349.8305 949.5,-349.8305 949.5,-330.8305 760.5,-330.8305"/>
<text text-anchor="start" x="763.5" y="-336.9305" font-family="Helvetica,sans-Serif" font-size="11.00" fill="#000000">...</text>
<polygon fill="#ffffff" stroke="transparent" points="760.5,-311.8305 760.5,-330.8305 843.5,-330.8305 843.5,-311.8305 760.5,-311.8305"/>
<polygon fill="none" stroke="#000000" points="760.5,-311.8305 760.5,-330.8305 843.5,-330.8305 843.5,-311.8305 760.5,-311.8305"/>
<text text-anchor="start" x="763.5" y="-317.9305" font-family="Helvetica,sans-Serif" font-size="11.00" fill="#000000">&lt; 10</text>
<polygon fill="#ffffff" stroke="transparent" points="843.5,-311.8305 843.5,-330.8305 909.5,-330.8305 909.5,-311.8305 843.5,-311.8305"/>
<polygon fill="none" stroke="#000000" points="843.5,-311.8305 843.5,-330.8305 909.5,-330.8305 909.5,-311.8305 843.5,-311.8305"/>
<text text-anchor="start" x="874.1105" y="-317.9305" font-family="Helvetica,sans-Serif" font-size="11.00" fill="#000000">0 rows</text>
<polygon fill="#ffffff" stroke="transparent" points="909.5,-311.8305 909.5,-330.8305 949.5,-330.8305 949.5,-311.8305 909.5,-311.8305"/>
<polygon fill="none" stroke="#000000" points="909.5,-311.8305 909.5,-330.8305 949.5,-330.8305 949.5,-311.8305 909.5,-311.8305"/>
<text text-anchor="start" x="940.3862" y="-317.9305" font-family="Helvetica,sans-Serif" font-size="11.00" fill="#000000"> &#160;</text>
</a>
</g>
</g>
<!-- ci_incidence_summary&#45;&gt;cg_cohort_definition -->
<g id="edge22" class="edge">
<title>ci_incidence_summary:w&#45;&gt;cg_cohort_definition:e</title>
<path fill="none" stroke="#000000" d="M746.0353,-339.8827C519.0998,-341.5263 450.0734,-380.9904 224,-321.8305 204.3846,-316.6974 203.7759,-300.8305 183.5,-300.8305"/>
<polygon fill="#000000" stroke="#000000" points="752.5001,-339.8594 760.513,-343.4305 756.5,-339.845 760.5,-339.8305 760.5,-339.8305 760.5,-339.8305 756.5,-339.845 760.487,-336.2305 752.5001,-339.8594 752.5001,-339.8594"/>
<ellipse fill="none" stroke="#000000" cx="749.3001" cy="-339.871" rx="3.2" ry="3.2"/>
</g>
<!-- ci_incidence_summary&#45;&gt;database_meta_data -->
<g id="edge21" class="edge">
<title>ci_incidence_summary:w&#45;&gt;database_meta_data:e</title>
<path fill="none" stroke="#000000" d="M746.9608,-345.5534C707.5534,-384.9007 753.6543,-613.8305 696.5,-613.8305"/>
<polygon fill="#000000" stroke="#000000" points="753.1312,-342.9452 761.9016,-343.1464 756.8156,-341.3878 760.5,-339.8305 760.5,-339.8305 760.5,-339.8305 756.8156,-341.3878 759.0984,-336.5145 753.1312,-342.9452 753.1312,-342.9452"/>
<ellipse fill="none" stroke="#000000" cx="750.1837" cy="-344.1911" rx="3.2" ry="3.2"/>
</g>
<!-- cm_covariate_balance -->
<g id="node15" class="node">
<title>cm_covariate_balance</title>
<g id="a_node15"><a xlink:href="../../tables/cm_covariate_balance.html" xlink:title="cm_covariate_balance" target="_top">
<polygon fill="#ffffff" stroke="transparent" points="761.5,-586.3305 761.5,-647.3305 947.5,-647.3305 947.5,-586.3305 761.5,-586.3305"/>
<polygon fill="#f5f5f5" stroke="transparent" points="761.5,-623.8305 761.5,-646.8305 947.5,-646.8305 947.5,-623.8305 761.5,-623.8305"/>
<polygon fill="none" stroke="#000000" points="761.5,-623.8305 761.5,-646.8305 947.5,-646.8305 947.5,-623.8305 761.5,-623.8305"/>
<text text-anchor="start" x="766.5" y="-632.4305" font-family="Helvetica,sans-Serif" font-weight="bold" font-size="11.00" fill="#000000">cm_covariate_balance</text>
<text text-anchor="start" x="913.0219" y="-631.9305" font-family="Helvetica,sans-Serif" font-size="11.00" fill="#000000">[table]</text>
<polygon fill="none" stroke="#000000" points="761.5,-604.8305 761.5,-623.8305 947.5,-623.8305 947.5,-604.8305 761.5,-604.8305"/>
<text text-anchor="start" x="764.5" y="-610.9305" font-family="Helvetica,sans-Serif" font-size="11.00" fill="#000000">...</text>
<polygon fill="#ffffff" stroke="transparent" points="761.5,-585.8305 761.5,-604.8305 839.5,-604.8305 839.5,-585.8305 761.5,-585.8305"/>
<polygon fill="none" stroke="#000000" points="761.5,-585.8305 761.5,-604.8305 839.5,-604.8305 839.5,-585.8305 761.5,-585.8305"/>
<text text-anchor="start" x="764.5" y="-591.9305" font-family="Helvetica,sans-Serif" font-size="11.00" fill="#000000">&lt; 4</text>
<polygon fill="#ffffff" stroke="transparent" points="839.5,-585.8305 839.5,-604.8305 906.5,-604.8305 906.5,-585.8305 839.5,-585.8305"/>
<polygon fill="none" stroke="#000000" points="839.5,-585.8305 839.5,-604.8305 906.5,-604.8305 906.5,-585.8305 839.5,-585.8305"/>
<text text-anchor="start" x="871.1105" y="-591.9305" font-family="Helvetica,sans-Serif" font-size="11.00" fill="#000000">0 rows</text>
<polygon fill="#ffffff" stroke="transparent" points="906.5,-585.8305 906.5,-604.8305 947.5,-604.8305 947.5,-585.8305 906.5,-585.8305"/>
<polygon fill="none" stroke="#000000" points="906.5,-585.8305 906.5,-604.8305 947.5,-604.8305 947.5,-585.8305 906.5,-585.8305"/>
<text text-anchor="start" x="938.3862" y="-591.9305" font-family="Helvetica,sans-Serif" font-size="11.00" fill="#000000"> &#160;</text>
</a>
</g>
</g>
<!-- cm_covariate_balance&#45;&gt;database_meta_data -->
<g id="edge23" class="edge">
<title>cm_covariate_balance:w&#45;&gt;database_meta_data:e</title>
<path fill="none" stroke="#000000" d="M746.9889,-613.8305C729.0526,-613.8305 719.8594,-613.8305 696.5,-613.8305"/>
<polygon fill="#000000" stroke="#000000" points="753.5,-613.8305 761.5,-617.4305 757.5,-613.8305 761.5,-613.8305 761.5,-613.8305 761.5,-613.8305 757.5,-613.8305 761.5,-610.2305 753.5,-613.8305 753.5,-613.8305"/>
<ellipse fill="none" stroke="#000000" cx="750.3" cy="-613.8306" rx="3.2" ry="3.2"/>
</g>
<!-- cm_diagnostics_summary -->
<g id="node16" class="node">
<title>cm_diagnostics_summary</title>
<g id="a_node16"><a xlink:href="../../tables/cm_diagnostics_summary.html" xlink:title="cm_diagnostics_summary" target="_top">
<polygon fill="#ffffff" stroke="transparent" points="749.5,-230.3305 749.5,-291.3305 959.5,-291.3305 959.5,-230.3305 749.5,-230.3305"/>
<polygon fill="#f5f5f5" stroke="transparent" points="749.5,-267.8305 749.5,-290.8305 959.5,-290.8305 959.5,-267.8305 749.5,-267.8305"/>
<polygon fill="none" stroke="#000000" points="749.5,-267.8305 749.5,-290.8305 959.5,-290.8305 959.5,-267.8305 749.5,-267.8305"/>
<text text-anchor="start" x="754.5" y="-276.4305" font-family="Helvetica,sans-Serif" font-weight="bold" font-size="11.00" fill="#000000">cm_diagnostics_summary</text>
<text text-anchor="start" x="925.0219" y="-275.9305" font-family="Helvetica,sans-Serif" font-size="11.00" fill="#000000">[table]</text>
<polygon fill="none" stroke="#000000" points="749.5,-248.8305 749.5,-267.8305 959.5,-267.8305 959.5,-248.8305 749.5,-248.8305"/>
<text text-anchor="start" x="752.5" y="-254.9305" font-family="Helvetica,sans-Serif" font-size="11.00" fill="#000000">...</text>
<polygon fill="#ffffff" stroke="transparent" points="749.5,-229.8305 749.5,-248.8305 835.5,-248.8305 835.5,-229.8305 749.5,-229.8305"/>
<polygon fill="none" stroke="#000000" points="749.5,-229.8305 749.5,-248.8305 835.5,-248.8305 835.5,-229.8305 749.5,-229.8305"/>
<text text-anchor="start" x="752.5" y="-235.9305" font-family="Helvetica,sans-Serif" font-size="11.00" fill="#000000">&lt; 5</text>
<polygon fill="#ffffff" stroke="transparent" points="835.5,-229.8305 835.5,-248.8305 905.5,-248.8305 905.5,-229.8305 835.5,-229.8305"/>
<polygon fill="none" stroke="#000000" points="835.5,-229.8305 835.5,-248.8305 905.5,-248.8305 905.5,-229.8305 835.5,-229.8305"/>
<text text-anchor="start" x="870.1105" y="-235.9305" font-family="Helvetica,sans-Serif" font-size="11.00" fill="#000000">0 rows</text>
<polygon fill="#ffffff" stroke="transparent" points="905.5,-229.8305 905.5,-248.8305 959.5,-248.8305 959.5,-229.8305 905.5,-229.8305"/>
<polygon fill="none" stroke="#000000" points="905.5,-229.8305 905.5,-248.8305 959.5,-248.8305 959.5,-229.8305 905.5,-229.8305"/>
<text text-anchor="start" x="940.9053" y="-235.9305" font-family="Helvetica,sans-Serif" font-size="11.00" fill="#000000">1 &gt;</text>
</a>
</g>
</g>
<!-- cm_diagnostics_summary&#45;&gt;cg_cohort_definition -->
<g id="edge24" class="edge">
<title>cm_diagnostics_summary:w&#45;&gt;cg_cohort_definition:e</title>
<path fill="none" stroke="#000000" d="M735.0571,-259.8941C724.9955,-263.0912 718.9694,-269.1517 704,-271.8305 475.931,-312.6441 415.1921,-300.8305 183.5,-300.8305"/>
<polygon fill="#000000" stroke="#000000" points="741.5804,-258.9621 750.0092,-261.3943 745.5402,-258.3963 749.5,-257.8305 749.5,-257.8305 749.5,-257.8305 745.5402,-258.3963 748.9908,-254.2667 741.5804,-258.9621 741.5804,-258.9621"/>
<ellipse fill="none" stroke="#000000" cx="738.4126" cy="-259.4147" rx="3.2" ry="3.2"/>
</g>
<!-- cm_diagnostics_summary&#45;&gt;cg_cohort_definition -->
<g id="edge26" class="edge">
<title>cm_diagnostics_summary:w&#45;&gt;cg_cohort_definition:e</title>
<path fill="none" stroke="#000000" d="M735.1993,-255.4942C725.0984,-255.4978 718.7364,-259.7564 704,-261.8305 474.4646,-294.1368 415.2978,-294.8305 183.5,-300.8305"/>
<polygon fill="#000000" stroke="#000000" points="741.6047,-256.5406 748.9196,-261.3834 745.5523,-257.1855 749.5,-257.8305 749.5,-257.8305 749.5,-257.8305 745.5523,-257.1855 750.0804,-254.2776 741.6047,-256.5406 741.6047,-256.5406"/>
<ellipse fill="none" stroke="#000000" cx="738.4465" cy="-256.0247" rx="3.2" ry="3.2"/>
</g>
<!-- cm_diagnostics_summary&#45;&gt;cg_cohort_definition -->
<g id="edge27" class="edge">
<title>cm_diagnostics_summary:w&#45;&gt;cg_cohort_definition:e</title>
<path fill="none" stroke="#000000" d="M735.8634,-263.3514C725.3711,-268.3116 719.0567,-272.7113 704,-274.8305 474.4646,-307.1368 415.2978,-307.8305 183.5,-300.8305"/>
<polygon fill="#000000" stroke="#000000" points="742.0847,-260.8327 750.851,-261.1674 745.7923,-259.3316 749.5,-257.8305 749.5,-257.8305 749.5,-257.8305 745.7923,-259.3316 748.149,-254.4936 742.0847,-260.8327 742.0847,-260.8327"/>
<ellipse fill="none" stroke="#000000" cx="739.1186" cy="-262.0336" rx="3.2" ry="3.2"/>
</g>
<!-- cm_diagnostics_summary&#45;&gt;database_meta_data -->
<g id="edge25" class="edge">
<title>cm_diagnostics_summary:w&#45;&gt;database_meta_data:e</title>
<path fill="none" stroke="#000000" d="M735.5986,-262.5938C683.2676,-304.8388 771.0154,-613.8305 696.5,-613.8305"/>
<polygon fill="#000000" stroke="#000000" points="741.932,-260.4237 750.667,-261.2361 745.716,-259.1271 749.5,-257.8305 749.5,-257.8305 749.5,-257.8305 745.716,-259.1271 748.333,-254.4249 741.932,-260.4237 741.932,-260.4237"/>
<ellipse fill="none" stroke="#000000" cx="738.9047" cy="-261.461" rx="3.2" ry="3.2"/>
</g>
<!-- plp_cohorts -->
<g id="node17" class="node">
<title>plp_cohorts</title>
<g id="a_node17"><a xlink:href="../../tables/plp_cohorts.html" xlink:title="plp_cohorts" target="_top">
<polygon fill="#ffffff" stroke="transparent" points="258.5,-55.3305 258.5,-116.3305 375.5,-116.3305 375.5,-55.3305 258.5,-55.3305"/>
<polygon fill="#f5f5f5" stroke="transparent" points="259,-92.8305 259,-115.8305 376,-115.8305 376,-92.8305 259,-92.8305"/>
<polygon fill="none" stroke="#000000" points="259,-92.8305 259,-115.8305 376,-115.8305 376,-92.8305 259,-92.8305"/>
<text text-anchor="start" x="264" y="-101.4305" font-family="Helvetica,sans-Serif" font-weight="bold" font-size="11.00" fill="#000000">plp_cohorts</text>
<text text-anchor="start" x="341.5219" y="-100.9305" font-family="Helvetica,sans-Serif" font-size="11.00" fill="#000000">[table]</text>
<polygon fill="none" stroke="#000000" points="259,-73.8305 259,-92.8305 376,-92.8305 376,-73.8305 259,-73.8305"/>
<text text-anchor="start" x="262" y="-79.9305" font-family="Helvetica,sans-Serif" font-size="11.00" fill="#000000">...</text>
<polygon fill="#ffffff" stroke="transparent" points="259,-54.8305 259,-73.8305 298,-73.8305 298,-54.8305 259,-54.8305"/>
<polygon fill="none" stroke="#000000" points="259,-54.8305 259,-73.8305 298,-73.8305 298,-54.8305 259,-54.8305"/>
<text text-anchor="start" x="262" y="-60.9305" font-family="Helvetica,sans-Serif" font-size="11.00" fill="#000000">&lt; 1</text>
<polygon fill="#ffffff" stroke="transparent" points="298,-54.8305 298,-73.8305 345,-73.8305 345,-54.8305 298,-54.8305"/>
<polygon fill="none" stroke="#000000" points="298,-54.8305 298,-73.8305 345,-73.8305 345,-54.8305 298,-54.8305"/>
<text text-anchor="start" x="309.6105" y="-60.9305" font-family="Helvetica,sans-Serif" font-size="11.00" fill="#000000">0 rows</text>
<polygon fill="#ffffff" stroke="transparent" points="345,-54.8305 345,-73.8305 376,-73.8305 376,-54.8305 345,-54.8305"/>
<polygon fill="none" stroke="#000000" points="345,-54.8305 345,-73.8305 376,-73.8305 376,-54.8305 345,-54.8305"/>
<text text-anchor="start" x="357.4053" y="-60.9305" font-family="Helvetica,sans-Serif" font-size="11.00" fill="#000000">2 &gt;</text>
</a>
</g>
</g>
<!-- plp_cohorts&#45;&gt;cg_cohort_definition -->
<g id="edge29" class="edge">
<title>plp_cohorts:w&#45;&gt;cg_cohort_definition:e</title>
<path fill="none" stroke="#000000" d="M248.6228,-84.4763C233.9796,-89.913 233.0918,-108.0246 224,-126.8305 189.4403,-198.3152 262.9005,-300.8305 183.5,-300.8305"/>
<polygon fill="#000000" stroke="#000000" points="257.5833,-79.0052 258.8365,-86.9064 257.2562,-87.1571 256.003,-79.2558 257.5833,-79.0052"/>
<polyline fill="none" stroke="#000000" points="259,-82.8305 255.0494,-83.4571 "/>
<ellipse fill="none" stroke="#000000" cx="251.8889" cy="-83.9583" rx="3.2" ry="3.2"/>
</g>
<!-- plp_diagnostics -->
<g id="node18" class="node">
<title>plp_diagnostics</title>
<g id="a_node18"><a xlink:href="../../tables/plp_diagnostics.html" xlink:title="plp_diagnostics" target="_top">
<polygon fill="#ffffff" stroke="transparent" points="783,-504.3305 783,-565.3305 926,-565.3305 926,-504.3305 783,-504.3305"/>
<polygon fill="#f5f5f5" stroke="transparent" points="783.5,-541.8305 783.5,-564.8305 926.5,-564.8305 926.5,-541.8305 783.5,-541.8305"/>
<polygon fill="none" stroke="#000000" points="783.5,-541.8305 783.5,-564.8305 926.5,-564.8305 926.5,-541.8305 783.5,-541.8305"/>
<text text-anchor="start" x="788.5" y="-550.4305" font-family="Helvetica,sans-Serif" font-weight="bold" font-size="11.00" fill="#000000">plp_diagnostics</text>
<text text-anchor="start" x="892.0219" y="-549.9305" font-family="Helvetica,sans-Serif" font-size="11.00" fill="#000000">[table]</text>
<polygon fill="none" stroke="#000000" points="783.5,-522.8305 783.5,-541.8305 926.5,-541.8305 926.5,-522.8305 783.5,-522.8305"/>
<text text-anchor="start" x="786.5" y="-528.9305" font-family="Helvetica,sans-Serif" font-size="11.00" fill="#000000">...</text>
<polygon fill="#ffffff" stroke="transparent" points="783.5,-503.8305 783.5,-522.8305 840.5,-522.8305 840.5,-503.8305 783.5,-503.8305"/>
<polygon fill="none" stroke="#000000" points="783.5,-503.8305 783.5,-522.8305 840.5,-522.8305 840.5,-503.8305 783.5,-503.8305"/>
<text text-anchor="start" x="786.5" y="-509.9305" font-family="Helvetica,sans-Serif" font-size="11.00" fill="#000000">&lt; 3</text>
<polygon fill="#ffffff" stroke="transparent" points="840.5,-503.8305 840.5,-522.8305 896.5,-522.8305 896.5,-503.8305 840.5,-503.8305"/>
<polygon fill="none" stroke="#000000" points="840.5,-503.8305 840.5,-522.8305 896.5,-522.8305 896.5,-503.8305 840.5,-503.8305"/>
<text text-anchor="start" x="861.1105" y="-509.9305" font-family="Helvetica,sans-Serif" font-size="11.00" fill="#000000">0 rows</text>
<polygon fill="#ffffff" stroke="transparent" points="896.5,-503.8305 896.5,-522.8305 926.5,-522.8305 926.5,-503.8305 896.5,-503.8305"/>
<polygon fill="none" stroke="#000000" points="896.5,-503.8305 896.5,-522.8305 926.5,-522.8305 926.5,-503.8305 896.5,-503.8305"/>
<text text-anchor="start" x="917.3862" y="-509.9305" font-family="Helvetica,sans-Serif" font-size="11.00" fill="#000000"> &#160;</text>
</a>
</g>
</g>
<!-- plp_diagnostics&#45;&gt;database_meta_data -->
<g id="edge30" class="edge">
<title>plp_diagnostics:w&#45;&gt;database_meta_data:e</title>
<path fill="none" stroke="#000000" d="M772.5613,-541.2369C749.7057,-562.7757 699.1204,-613.8305 696.5,-613.8305"/>
<polygon fill="#000000" stroke="#000000" points="777.4343,-537.0466 785.8472,-534.5601 780.4671,-534.4385 783.5,-531.8305 783.5,-531.8305 783.5,-531.8305 780.4671,-534.4385 781.1528,-529.1009 777.4343,-537.0466 777.4343,-537.0466"/>
<ellipse fill="none" stroke="#000000" cx="775.008" cy="-539.133" rx="3.2" ry="3.2"/>
</g>
<!-- plp_performances -->
<g id="node19" class="node">
<title>plp_performances</title>
<g id="a_node19"><a xlink:href="../../tables/plp_performances.html" xlink:title="plp_performances" target="_top">
<polygon fill="#ffffff" stroke="transparent" points="775,-148.3305 775,-209.3305 934,-209.3305 934,-148.3305 775,-148.3305"/>
<polygon fill="#f5f5f5" stroke="transparent" points="775.5,-185.8305 775.5,-208.8305 934.5,-208.8305 934.5,-185.8305 775.5,-185.8305"/>
<polygon fill="none" stroke="#000000" points="775.5,-185.8305 775.5,-208.8305 934.5,-208.8305 934.5,-185.8305 775.5,-185.8305"/>
<text text-anchor="start" x="780.5" y="-194.4305" font-family="Helvetica,sans-Serif" font-weight="bold" font-size="11.00" fill="#000000">plp_performances</text>
<text text-anchor="start" x="900.0219" y="-193.9305" font-family="Helvetica,sans-Serif" font-size="11.00" fill="#000000">[table]</text>
<polygon fill="none" stroke="#000000" points="775.5,-166.8305 775.5,-185.8305 934.5,-185.8305 934.5,-166.8305 775.5,-166.8305"/>
<text text-anchor="start" x="778.5" y="-172.9305" font-family="Helvetica,sans-Serif" font-size="11.00" fill="#000000">...</text>
<polygon fill="#ffffff" stroke="transparent" points="775.5,-147.8305 775.5,-166.8305 840.5,-166.8305 840.5,-147.8305 775.5,-147.8305"/>
<polygon fill="none" stroke="#000000" points="775.5,-147.8305 775.5,-166.8305 840.5,-166.8305 840.5,-147.8305 775.5,-147.8305"/>
<text text-anchor="start" x="778.5" y="-153.9305" font-family="Helvetica,sans-Serif" font-size="11.00" fill="#000000">&lt; 4</text>
<polygon fill="#ffffff" stroke="transparent" points="840.5,-147.8305 840.5,-166.8305 900.5,-166.8305 900.5,-147.8305 840.5,-147.8305"/>
<polygon fill="none" stroke="#000000" points="840.5,-147.8305 840.5,-166.8305 900.5,-166.8305 900.5,-147.8305 840.5,-147.8305"/>
<text text-anchor="start" x="865.1105" y="-153.9305" font-family="Helvetica,sans-Serif" font-size="11.00" fill="#000000">0 rows</text>
<polygon fill="#ffffff" stroke="transparent" points="900.5,-147.8305 900.5,-166.8305 934.5,-166.8305 934.5,-147.8305 900.5,-147.8305"/>
<polygon fill="none" stroke="#000000" points="900.5,-147.8305 900.5,-166.8305 934.5,-166.8305 934.5,-147.8305 900.5,-147.8305"/>
<text text-anchor="start" x="925.3862" y="-153.9305" font-family="Helvetica,sans-Serif" font-size="11.00" fill="#000000"> &#160;</text>
</a>
</g>
</g>
<!-- plp_performances&#45;&gt;cg_cohort_definition -->
<g id="edge32" class="edge">
<title>plp_performances:w&#45;&gt;cg_cohort_definition:e</title>
<path fill="none" stroke="#000000" d="M761.0961,-176.9111C659.3954,-189.1285 247.0516,-300.8305 183.5,-300.8305"/>
<polygon fill="#000000" stroke="#000000" points="767.5224,-176.429 775.7694,-179.4204 771.5112,-176.1298 775.5,-175.8305 775.5,-175.8305 775.5,-175.8305 771.5112,-176.1298 775.2306,-172.2406 767.5224,-176.429 767.5224,-176.429"/>
<ellipse fill="none" stroke="#000000" cx="764.3314" cy="-176.6685" rx="3.2" ry="3.2"/>
</g>
<!-- plp_performances&#45;&gt;cg_cohort_definition -->
<g id="edge33" class="edge">
<title>plp_performances:w&#45;&gt;cg_cohort_definition:e</title>
<path fill="none" stroke="#000000" d="M761.0669,-176.2586C619.1781,-184.2294 313.3605,-300.8305 183.5,-300.8305"/>
<polygon fill="#000000" stroke="#000000" points="767.5035,-176.0677 775.6068,-179.4289 771.5018,-175.9491 775.5,-175.8305 775.5,-175.8305 775.5,-175.8305 771.5018,-175.9491 775.3932,-172.2321 767.5035,-176.0677 767.5035,-176.0677"/>
<ellipse fill="none" stroke="#000000" cx="764.3049" cy="-176.1626" rx="3.2" ry="3.2"/>
</g>
<!-- plp_performances&#45;&gt;database_meta_data -->
<g id="edge31" class="edge">
<title>plp_performances:w&#45;&gt;database_meta_data:e</title>
<path fill="none" stroke="#000000" d="M760.7456,-175.6353C748.0588,-179.4881 744.9417,-195.5897 737,-213.8305 719.4324,-254.1805 740.5085,-607.8305 696.5,-613.8305"/>
<polygon fill="#000000" stroke="#000000" points="767.5007,-175.7246 775.4524,-179.4302 771.5004,-175.7775 775.5,-175.8305 775.5,-175.8305 775.5,-175.8305 771.5004,-175.7775 775.5476,-172.2308 767.5007,-175.7246 767.5007,-175.7246"/>
<ellipse fill="none" stroke="#000000" cx="764.301" cy="-175.6822" rx="3.2" ry="3.2"/>
</g>
<!-- plp_performances&#45;&gt;database_meta_data -->
<g id="edge34" class="edge">
<title>plp_performances:w&#45;&gt;database_meta_data:e</title>
<path fill="none" stroke="#000000" d="M761.938,-181.9295C748.2452,-191.5043 745.1848,-208.0313 737,-226.8305 719.4324,-267.1805 740.5085,-620.8305 696.5,-613.8305"/>
<polygon fill="#000000" stroke="#000000" points="768.2038,-179.1117 776.9765,-179.1138 771.8519,-177.4711 775.5,-175.8305 775.5,-175.8305 775.5,-175.8305 771.8519,-177.4711 774.0235,-172.5472 768.2038,-179.1117 768.2038,-179.1117"/>
<ellipse fill="none" stroke="#000000" cx="765.2854" cy="-180.4242" rx="3.2" ry="3.2"/>
</g>
<!-- sccs_diagnostics_summary -->
<g id="node20" class="node">
<title>sccs_diagnostics_summary</title>
<g id="a_node20"><a xlink:href="../../tables/sccs_diagnostics_summary.html" xlink:title="sccs_diagnostics_summary" target="_top">
<polygon fill="#ffffff" stroke="transparent" points="745,-66.3305 745,-127.3305 964,-127.3305 964,-66.3305 745,-66.3305"/>
<polygon fill="#f5f5f5" stroke="transparent" points="745.5,-103.8305 745.5,-126.8305 964.5,-126.8305 964.5,-103.8305 745.5,-103.8305"/>
<polygon fill="none" stroke="#000000" points="745.5,-103.8305 745.5,-126.8305 964.5,-126.8305 964.5,-103.8305 745.5,-103.8305"/>
<text text-anchor="start" x="750.5" y="-112.4305" font-family="Helvetica,sans-Serif" font-weight="bold" font-size="11.00" fill="#000000">sccs_diagnostics_summary</text>
<text text-anchor="start" x="930.0219" y="-111.9305" font-family="Helvetica,sans-Serif" font-size="11.00" fill="#000000">[table]</text>
<polygon fill="none" stroke="#000000" points="745.5,-84.8305 745.5,-103.8305 964.5,-103.8305 964.5,-84.8305 745.5,-84.8305"/>
<text text-anchor="start" x="748.5" y="-90.9305" font-family="Helvetica,sans-Serif" font-size="11.00" fill="#000000">...</text>
<polygon fill="#ffffff" stroke="transparent" points="745.5,-65.8305 745.5,-84.8305 835.5,-84.8305 835.5,-65.8305 745.5,-65.8305"/>
<polygon fill="none" stroke="#000000" points="745.5,-65.8305 745.5,-84.8305 835.5,-84.8305 835.5,-65.8305 745.5,-65.8305"/>
<text text-anchor="start" x="748.5" y="-71.9305" font-family="Helvetica,sans-Serif" font-size="11.00" fill="#000000">&lt; 7</text>
<polygon fill="#ffffff" stroke="transparent" points="835.5,-65.8305 835.5,-84.8305 908.5,-84.8305 908.5,-65.8305 835.5,-65.8305"/>
<polygon fill="none" stroke="#000000" points="835.5,-65.8305 835.5,-84.8305 908.5,-84.8305 908.5,-65.8305 835.5,-65.8305"/>
<text text-anchor="start" x="873.1105" y="-71.9305" font-family="Helvetica,sans-Serif" font-size="11.00" fill="#000000">0 rows</text>
<polygon fill="#ffffff" stroke="transparent" points="908.5,-65.8305 908.5,-84.8305 964.5,-84.8305 964.5,-65.8305 908.5,-65.8305"/>
<polygon fill="none" stroke="#000000" points="908.5,-65.8305 908.5,-84.8305 964.5,-84.8305 964.5,-65.8305 908.5,-65.8305"/>
<text text-anchor="start" x="945.9053" y="-71.9305" font-family="Helvetica,sans-Serif" font-size="11.00" fill="#000000">4 &gt;</text>
</a>
</g>
</g>
<!-- sccs_diagnostics_summary&#45;&gt;database_meta_data -->
<g id="edge35" class="edge">
<title>sccs_diagnostics_summary:w&#45;&gt;database_meta_data:e</title>
<path fill="none" stroke="#000000" d="M731.3512,-97.0163C645.6134,-140.4694 807.2401,-613.8305 696.5,-613.8305"/>
<polygon fill="#000000" stroke="#000000" points="737.6954,-95.5879 746.2908,-97.3426 741.5977,-94.7092 745.5,-93.8305 745.5,-93.8305 745.5,-93.8305 741.5977,-94.7092 744.7092,-90.3184 737.6954,-95.5879 737.6954,-95.5879"/>
<ellipse fill="none" stroke="#000000" cx="734.5736" cy="-96.2908" rx="3.2" ry="3.2"/>
</g>
<!-- sccs_exposures_outcome_set -->
<g id="node21" class="node">
<title>sccs_exposures_outcome_set</title>
<g id="a_node21"><a xlink:href="../../tables/sccs_exposures_outcome_set.html" xlink:title="sccs_exposures_outcome_set" target="_top">
<polygon fill="#ffffff" stroke="transparent" points="456.5,-66.3305 456.5,-127.3305 690.5,-127.3305 690.5,-66.3305 456.5,-66.3305"/>
<polygon fill="#f5f5f5" stroke="transparent" points="456.5,-103.8305 456.5,-126.8305 690.5,-126.8305 690.5,-103.8305 456.5,-103.8305"/>
<polygon fill="none" stroke="#000000" points="456.5,-103.8305 456.5,-126.8305 690.5,-126.8305 690.5,-103.8305 456.5,-103.8305"/>
<text text-anchor="start" x="461.5" y="-112.4305" font-family="Helvetica,sans-Serif" font-weight="bold" font-size="11.00" fill="#000000">sccs_exposures_outcome_set</text>
<text text-anchor="start" x="656.0219" y="-111.9305" font-family="Helvetica,sans-Serif" font-size="11.00" fill="#000000">[table]</text>
<polygon fill="none" stroke="#000000" points="456.5,-84.8305 456.5,-103.8305 690.5,-103.8305 690.5,-84.8305 456.5,-84.8305"/>
<text text-anchor="start" x="459.5" y="-90.9305" font-family="Helvetica,sans-Serif" font-size="11.00" fill="#000000">...</text>
<polygon fill="#ffffff" stroke="transparent" points="456.5,-65.8305 456.5,-84.8305 551.5,-84.8305 551.5,-65.8305 456.5,-65.8305"/>
<polygon fill="none" stroke="#000000" points="456.5,-65.8305 456.5,-84.8305 551.5,-84.8305 551.5,-65.8305 456.5,-65.8305"/>
<text text-anchor="start" x="459.5" y="-71.9305" font-family="Helvetica,sans-Serif" font-size="11.00" fill="#000000">&lt; 3</text>
<polygon fill="#ffffff" stroke="transparent" points="551.5,-65.8305 551.5,-84.8305 626.5,-84.8305 626.5,-65.8305 551.5,-65.8305"/>
<polygon fill="none" stroke="#000000" points="551.5,-65.8305 551.5,-84.8305 626.5,-84.8305 626.5,-65.8305 551.5,-65.8305"/>
<text text-anchor="start" x="591.1105" y="-71.9305" font-family="Helvetica,sans-Serif" font-size="11.00" fill="#000000">0 rows</text>
<polygon fill="#ffffff" stroke="transparent" points="626.5,-65.8305 626.5,-84.8305 690.5,-84.8305 690.5,-65.8305 626.5,-65.8305"/>
<polygon fill="none" stroke="#000000" points="626.5,-65.8305 626.5,-84.8305 690.5,-84.8305 690.5,-65.8305 626.5,-65.8305"/>
<text text-anchor="start" x="665.7904" y="-71.9305" font-family="Helvetica,sans-Serif" font-size="11.00" fill="#000000">10 &gt;</text>
</a>
</g>
</g>
<!-- sccs_diagnostics_summary&#45;&gt;sccs_exposures_outcome_set -->
<g id="edge36" class="edge">
<title>sccs_diagnostics_summary:w&#45;&gt;sccs_exposures_outcome_set:e</title>
<path fill="none" stroke="#000000" d="M730.8617,-93.8305C717.1839,-93.8305 709.2153,-93.8305 690.5,-93.8305"/>
<polygon fill="#000000" stroke="#000000" points="737.5,-93.8305 745.5,-97.4305 741.5,-93.8305 745.5,-93.8305 745.5,-93.8305 745.5,-93.8305 741.5,-93.8305 745.5,-90.2305 737.5,-93.8305 737.5,-93.8305"/>
<ellipse fill="none" stroke="#000000" cx="734.3" cy="-93.8306" rx="3.2" ry="3.2"/>
</g>
<!-- sccs_exposures_outcome_set&#45;&gt;cg_cohort_definition -->
<g id="edge37" class="edge">
<title>sccs_exposures_outcome_set:w&#45;&gt;cg_cohort_definition:e</title>
<path fill="none" stroke="#000000" d="M441.9785,-96.5544C411.5334,-110.8919 448.3077,-178.1147 410,-208.8305 344.6158,-261.2567 294.3339,-194.2591 224,-239.8305 196.6892,-257.526 216.0425,-300.8305 183.5,-300.8305"/>
<polygon fill="#000000" stroke="#000000" points="448.6371,-95.3054 457.1637,-97.3688 452.5686,-94.568 456.5,-93.8305 456.5,-93.8305 456.5,-93.8305 452.5686,-94.568 455.8363,-90.2922 448.6371,-95.3054 448.6371,-95.3054"/>
<ellipse fill="none" stroke="#000000" cx="445.492" cy="-95.8954" rx="3.2" ry="3.2"/>
</g>
<!-- sccs_result -->
<g id="node22" class="node">
<title>sccs_result</title>
<g id="a_node22"><a xlink:href="../../tables/sccs_result.html" xlink:title="sccs_result" target="_top">
<polygon fill="#ffffff" stroke="transparent" points="1058,-66.3305 1058,-127.3305 1171,-127.3305 1171,-66.3305 1058,-66.3305"/>
<polygon fill="#f5f5f5" stroke="transparent" points="1058.5,-103.8305 1058.5,-126.8305 1171.5,-126.8305 1171.5,-103.8305 1058.5,-103.8305"/>
<polygon fill="none" stroke="#000000" points="1058.5,-103.8305 1058.5,-126.8305 1171.5,-126.8305 1171.5,-103.8305 1058.5,-103.8305"/>
<text text-anchor="start" x="1063.5" y="-112.4305" font-family="Helvetica,sans-Serif" font-weight="bold" font-size="11.00" fill="#000000">sccs_result</text>
<text text-anchor="start" x="1137.0219" y="-111.9305" font-family="Helvetica,sans-Serif" font-size="11.00" fill="#000000">[table]</text>
<polygon fill="none" stroke="#000000" points="1058.5,-84.8305 1058.5,-103.8305 1171.5,-103.8305 1171.5,-84.8305 1058.5,-84.8305"/>
<text text-anchor="start" x="1061.5" y="-90.9305" font-family="Helvetica,sans-Serif" font-size="11.00" fill="#000000">...</text>
<polygon fill="#ffffff" stroke="transparent" points="1058.5,-65.8305 1058.5,-84.8305 1103.5,-84.8305 1103.5,-65.8305 1058.5,-65.8305"/>
<polygon fill="none" stroke="#000000" points="1058.5,-65.8305 1058.5,-84.8305 1103.5,-84.8305 1103.5,-65.8305 1058.5,-65.8305"/>
<text text-anchor="start" x="1061.5" y="-71.9305" font-family="Helvetica,sans-Serif" font-size="11.00" fill="#000000">&lt; 12</text>
<polygon fill="#ffffff" stroke="transparent" points="1103.5,-65.8305 1103.5,-84.8305 1150.5,-84.8305 1150.5,-65.8305 1103.5,-65.8305"/>
<polygon fill="none" stroke="#000000" points="1103.5,-65.8305 1103.5,-84.8305 1150.5,-84.8305 1150.5,-65.8305 1103.5,-65.8305"/>
<text text-anchor="start" x="1115.1105" y="-71.9305" font-family="Helvetica,sans-Serif" font-size="11.00" fill="#000000">0 rows</text>
<polygon fill="#ffffff" stroke="transparent" points="1150.5,-65.8305 1150.5,-84.8305 1171.5,-84.8305 1171.5,-65.8305 1150.5,-65.8305"/>
<polygon fill="none" stroke="#000000" points="1150.5,-65.8305 1150.5,-84.8305 1171.5,-84.8305 1171.5,-65.8305 1150.5,-65.8305"/>
<text text-anchor="start" x="1162.3862" y="-71.9305" font-family="Helvetica,sans-Serif" font-size="11.00" fill="#000000"> &#160;</text>
</a>
</g>
</g>
<!-- sccs_result&#45;&gt;database_meta_data -->
<g id="edge40" class="edge">
<title>sccs_result:w&#45;&gt;database_meta_data:e</title>
<path fill="none" stroke="#000000" d="M1044.1071,-94.5307C901.1433,-109.3633 1094.6093,-356.0037 972,-465.8305 893.6524,-536.01 818.6588,-427.5331 737,-493.8305 693.3002,-529.3096 752.7889,-613.8305 696.5,-613.8305"/>
<polygon fill="#000000" stroke="#000000" points="1050.5094,-94.2193 1058.675,-97.4262 1054.5047,-94.0249 1058.5,-93.8305 1058.5,-93.8305 1058.5,-93.8305 1054.5047,-94.0249 1058.325,-90.2347 1050.5094,-94.2193 1050.5094,-94.2193"/>
<ellipse fill="none" stroke="#000000" cx="1047.3132" cy="-94.3748" rx="3.2" ry="3.2"/>
</g>
<!-- sccs_result&#45;&gt;sccs_diagnostics_summary -->
<g id="edge38" class="edge">
<title>sccs_result:w&#45;&gt;sccs_diagnostics_summary:e</title>
<path fill="none" stroke="#000000" d="M1045.0025,-87.9336C1013.844,-75.0914 1001.3819,-77.057 964.5,-93.8305"/>
<polygon fill="#000000" stroke="#000000" points="1051.1691,-90.6276 1057.0587,-97.1294 1054.8345,-92.2291 1058.5,-93.8305 1058.5,-93.8305 1058.5,-93.8305 1054.8345,-92.2291 1059.9413,-90.5316 1051.1691,-90.6276 1051.1691,-90.6276"/>
<ellipse fill="none" stroke="#000000" cx="1048.2367" cy="-89.3465" rx="3.2" ry="3.2"/>
</g>
<!-- sccs_result&#45;&gt;sccs_diagnostics_summary -->
<g id="edge39" class="edge">
<title>sccs_result:w&#45;&gt;sccs_diagnostics_summary:e</title>
<path fill="none" stroke="#000000" d="M1044.1797,-91.8617C1013.6215,-87.9242 1001.0556,-88.5805 964.5,-93.8305"/>
<polygon fill="#000000" stroke="#000000" points="1050.5745,-92.7408 1058.0097,-97.3969 1054.5373,-93.2857 1058.5,-93.8305 1058.5,-93.8305 1058.5,-93.8305 1054.5373,-93.2857 1058.9903,-90.264 1050.5745,-92.7408 1050.5745,-92.7408"/>
<ellipse fill="none" stroke="#000000" cx="1047.4044" cy="-92.305" rx="3.2" ry="3.2"/>
</g>
<!-- sccs_result&#45;&gt;sccs_diagnostics_summary -->
<g id="edge41" class="edge">
<title>sccs_result:w&#45;&gt;sccs_diagnostics_summary:e</title>
<path fill="none" stroke="#000000" d="M1044.1797,-96.1274C1013.6215,-100.7211 1001.0556,-99.9555 964.5,-93.8305"/>
<polygon fill="#000000" stroke="#000000" points="1050.601,-95.0975 1059.0701,-97.385 1054.5505,-94.464 1058.5,-93.8305 1058.5,-93.8305 1058.5,-93.8305 1054.5505,-94.464 1057.9299,-90.2759 1050.601,-95.0975 1050.601,-95.0975"/>
<ellipse fill="none" stroke="#000000" cx="1047.4413" cy="-95.6043" rx="3.2" ry="3.2"/>
</g>
<!-- sccs_result&#45;&gt;sccs_diagnostics_summary -->
<g id="edge42" class="edge">
<title>sccs_result:w&#45;&gt;sccs_diagnostics_summary:e</title>
<path fill="none" stroke="#000000" d="M1045.4173,-99.8574C1013.9538,-113.5738 1001.5451,-111.5649 964.5,-93.8305"/>
<polygon fill="#000000" stroke="#000000" points="1051.2339,-97.1778 1060.0063,-97.1002 1054.867,-95.5041 1058.5,-93.8305 1058.5,-93.8305 1058.5,-93.8305 1054.867,-95.5041 1056.9937,-90.5608 1051.2339,-97.1778 1051.2339,-97.1778"/>
<ellipse fill="none" stroke="#000000" cx="1048.3275" cy="-98.5167" rx="3.2" ry="3.2"/>
</g>
<!-- sccs_result&#45;&gt;sccs_exposures_outcome_set -->
<g id="edge43" class="edge">
<title>sccs_result:w&#45;&gt;sccs_exposures_outcome_set:e</title>
<path fill="none" stroke="#000000" d="M1044.0211,-92.4736C1015.0029,-86.6028 1007.7972,-63.3468 972,-55.8305 869.7844,-34.3684 835.3756,-20.7465 737,-55.8305 711.861,-64.7959 717.1898,-93.8305 690.5,-93.8305"/>
<polygon fill="#000000" stroke="#000000" points="1050.5349,-93.084 1058.1641,-97.4148 1054.5174,-93.4572 1058.5,-93.8305 1058.5,-93.8305 1058.5,-93.8305 1054.5174,-93.4572 1058.8359,-90.2462 1050.5349,-93.084 1050.5349,-93.084"/>
<ellipse fill="none" stroke="#000000" cx="1047.3489" cy="-92.7854" rx="3.2" ry="3.2"/>
</g>
</g>
</svg>
