<?xml version="1.0" encoding="UTF-8" standalone="no"?>
<!DOCTYPE svg PUBLIC "-//W3C//DTD SVG 1.1//EN"
 "http://www.w3.org/Graphics/SVG/1.1/DTD/svg11.dtd">
<!-- Generated by graphviz version 2.40.1 (20161225.0304)
 -->
<!-- Title: oneDegreeRelationshipsDiagram Pages: 1 -->
<svg width="534pt" height="1531pt"
 viewBox="0.00 0.00 534.00 1531.20" xmlns="http://www.w3.org/2000/svg" xmlns:xlink="http://www.w3.org/1999/xlink">
<g id="graph0" class="graph" transform="scale(1 1) rotate(0) translate(4 1527.2)">
<title>oneDegreeRelationshipsDiagram</title>
<polygon fill="#ffffff" stroke="transparent" points="-4,4 -4,-1527.2 530,-1527.2 530,4 -4,4"/>
<text text-anchor="middle" x="72.4936" y="-7.3" font-family="Helvetica,sans-Serif" font-size="11.00" fill="#000000">Generated by SchemaSpy</text>
<!-- c_cohort_details -->
<g id="node1" class="node">
<title>c_cohort_details</title>
<g id="a_node1"><a xlink:href="../../tables/c_cohort_details.html" xlink:title="c_cohort_details" target="_top">
<polygon fill="#ffffff" stroke="transparent" points="325,-1370.2 325,-1519.2 473,-1519.2 473,-1370.2 325,-1370.2"/>
<polygon fill="#f5f5f5" stroke="transparent" points="325,-1495.7 325,-1518.7 473,-1518.7 473,-1495.7 325,-1495.7"/>
<polygon fill="none" stroke="#000000" points="325,-1495.7 325,-1518.7 473,-1518.7 473,-1495.7 325,-1495.7"/>
<text text-anchor="start" x="330" y="-1504.3" font-family="Helvetica,sans-Serif" font-weight="bold" font-size="11.00" fill="#000000">c_cohort_details</text>
<text text-anchor="start" x="438.5219" y="-1503.8" font-family="Helvetica,sans-Serif" font-size="11.00" fill="#000000">[table]</text>
<polygon fill="none" stroke="#000000" points="325,-1473.7 325,-1495.7 473,-1495.7 473,-1473.7 325,-1473.7"/>
<image xlink:href="../../images/primaryKeys.png" width="11px" height="12px" preserveAspectRatio="xMinYMin meet" x="330" y="-1490.7"/>
<text text-anchor="start" x="345" y="-1480.8" font-family="Helvetica,sans-Serif" font-size="11.00" fill="#000000">database_id</text>
<polygon fill="none" stroke="#000000" points="325,-1451.7 325,-1473.7 473,-1473.7 473,-1451.7 325,-1451.7"/>
<image xlink:href="../../images/foreignKeys.png" width="11px" height="12px" preserveAspectRatio="xMinYMin meet" x="330" y="-1468.7"/>
<text text-anchor="start" x="345" y="-1458.8" font-family="Helvetica,sans-Serif" font-size="11.00" fill="#000000">outcome_cohort_id</text>
<polygon fill="none" stroke="#000000" points="325,-1429.7 325,-1451.7 473,-1451.7 473,-1429.7 325,-1429.7"/>
<image xlink:href="../../images/primaryKeys.png" width="11px" height="12px" preserveAspectRatio="xMinYMin meet" x="330" y="-1446.7"/>
<text text-anchor="start" x="345" y="-1436.8" font-family="Helvetica,sans-Serif" font-size="11.00" fill="#000000">setting_id</text>
<polygon fill="none" stroke="#000000" points="325,-1407.7 325,-1429.7 473,-1429.7 473,-1407.7 325,-1407.7"/>
<image xlink:href="../../images/foreignKeys.png" width="11px" height="12px" preserveAspectRatio="xMinYMin meet" x="330" y="-1424.7"/>
<text text-anchor="start" x="345" y="-1414.8" font-family="Helvetica,sans-Serif" font-size="11.00" fill="#000000">target_cohort_id</text>
<polygon fill="none" stroke="#000000" points="325,-1388.7 325,-1407.7 473,-1407.7 473,-1388.7 325,-1388.7"/>
<text text-anchor="start" x="328" y="-1394.8" font-family="Helvetica,sans-Serif" font-size="11.00" fill="#000000">...</text>
<polygon fill="#ffffff" stroke="transparent" points="325,-1369.7 325,-1388.7 380,-1388.7 380,-1369.7 325,-1369.7"/>
<polygon fill="none" stroke="#000000" points="325,-1369.7 325,-1388.7 380,-1388.7 380,-1369.7 325,-1369.7"/>
<text text-anchor="start" x="328" y="-1375.8" font-family="Helvetica,sans-Serif" font-size="11.00" fill="#000000">&lt; 2</text>
<polygon fill="#ffffff" stroke="transparent" points="380,-1369.7 380,-1388.7 435,-1388.7 435,-1369.7 380,-1369.7"/>
<polygon fill="none" stroke="#000000" points="380,-1369.7 380,-1388.7 435,-1388.7 435,-1369.7 380,-1369.7"/>
<text text-anchor="start" x="399.6105" y="-1375.8" font-family="Helvetica,sans-Serif" font-size="11.00" fill="#000000">0 rows</text>
<polygon fill="#ffffff" stroke="transparent" points="435,-1369.7 435,-1388.7 473,-1388.7 473,-1369.7 435,-1369.7"/>
<polygon fill="none" stroke="#000000" points="435,-1369.7 435,-1388.7 473,-1388.7 473,-1369.7 435,-1369.7"/>
<text text-anchor="start" x="454.4053" y="-1375.8" font-family="Helvetica,sans-Serif" font-size="11.00" fill="#000000">3 &gt;</text>
</a>
</g>
</g>
<!-- cg_cohort_definition -->
<g id="node2" class="node">
<title>cg_cohort_definition</title>
<g id="a_node2"><a xlink:href="../../tables/cg_cohort_definition.html" xlink:title="cg_cohort_definition" target="_top">
<polygon fill="#ffffff" stroke="transparent" points="8,-492.7 8,-714.7 231,-714.7 231,-492.7 8,-492.7"/>
<polygon fill="#f5f5f5" stroke="transparent" points="10.5,-689.7 10.5,-712.7 229.5,-712.7 229.5,-689.7 10.5,-689.7"/>
<polygon fill="none" stroke="#000000" points="10.5,-689.7 10.5,-712.7 229.5,-712.7 229.5,-689.7 10.5,-689.7"/>
<text text-anchor="start" x="15.5" y="-698.3" font-family="Helvetica,sans-Serif" font-weight="bold" font-size="11.00" fill="#000000">cg_cohort_definition</text>
<text text-anchor="start" x="194.5437" y="-697.8" font-family="Helvetica,sans-Serif" font-size="11.00" fill="#000000">[table]</text>
<polygon fill="none" stroke="#000000" points="10.5,-667.7 10.5,-689.7 167.5,-689.7 167.5,-667.7 10.5,-667.7"/>
<image xlink:href="../../images/primaryKeys.png" width="11px" height="12px" preserveAspectRatio="xMinYMin meet" x="15.5" y="-684.7"/>
<text text-anchor="start" x="30.5" y="-674.8" font-family="Helvetica,sans-Serif" font-size="11.00" fill="#000000">cohort_definition_id</text>
<polygon fill="none" stroke="#000000" points="167.5,-667.7 167.5,-689.7 229.5,-689.7 229.5,-667.7 167.5,-667.7"/>
<text text-anchor="start" x="170.378" y="-675.4" font-family="Helvetica,sans-Serif" font-size="11.00" fill="#000000">unknown[0]</text>
<polygon fill="none" stroke="#000000" points="10.5,-645.7 10.5,-667.7 167.5,-667.7 167.5,-645.7 10.5,-645.7"/>
<text text-anchor="start" x="30.5" y="-652.8" font-family="Helvetica,sans-Serif" font-size="11.00" fill="#000000">cohort_name</text>
<polygon fill="none" stroke="#000000" points="167.5,-645.7 167.5,-667.7 229.5,-667.7 229.5,-645.7 167.5,-645.7"/>
<text text-anchor="start" x="170.378" y="-653.4" font-family="Helvetica,sans-Serif" font-size="11.00" fill="#000000">unknown[0]</text>
<polygon fill="none" stroke="#000000" points="10.5,-623.7 10.5,-645.7 167.5,-645.7 167.5,-623.7 10.5,-623.7"/>
<text text-anchor="start" x="30.5" y="-630.8" font-family="Helvetica,sans-Serif" font-size="11.00" fill="#000000">description</text>
<polygon fill="none" stroke="#000000" points="167.5,-623.7 167.5,-645.7 229.5,-645.7 229.5,-623.7 167.5,-623.7"/>
<text text-anchor="start" x="170.378" y="-631.4" font-family="Helvetica,sans-Serif" font-size="11.00" fill="#000000">unknown[0]</text>
<polygon fill="none" stroke="#000000" points="10.5,-601.7 10.5,-623.7 167.5,-623.7 167.5,-601.7 10.5,-601.7"/>
<text text-anchor="start" x="30.5" y="-608.8" font-family="Helvetica,sans-Serif" font-size="11.00" fill="#000000">is_subset</text>
<polygon fill="none" stroke="#000000" points="167.5,-601.7 167.5,-623.7 229.5,-623.7 229.5,-601.7 167.5,-601.7"/>
<text text-anchor="start" x="170.378" y="-609.4" font-family="Helvetica,sans-Serif" font-size="11.00" fill="#000000">unknown[0]</text>
<polygon fill="none" stroke="#000000" points="10.5,-579.7 10.5,-601.7 167.5,-601.7 167.5,-579.7 10.5,-579.7"/>
<text text-anchor="start" x="30.5" y="-586.8" font-family="Helvetica,sans-Serif" font-size="11.00" fill="#000000">json</text>
<polygon fill="none" stroke="#000000" points="167.5,-579.7 167.5,-601.7 229.5,-601.7 229.5,-579.7 167.5,-579.7"/>
<text text-anchor="start" x="170.378" y="-587.4" font-family="Helvetica,sans-Serif" font-size="11.00" fill="#000000">unknown[0]</text>
<polygon fill="none" stroke="#000000" points="10.5,-557.7 10.5,-579.7 167.5,-579.7 167.5,-557.7 10.5,-557.7"/>
<text text-anchor="start" x="30.5" y="-564.8" font-family="Helvetica,sans-Serif" font-size="11.00" fill="#000000">sql_command</text>
<polygon fill="none" stroke="#000000" points="167.5,-557.7 167.5,-579.7 229.5,-579.7 229.5,-557.7 167.5,-557.7"/>
<text text-anchor="start" x="170.378" y="-565.4" font-family="Helvetica,sans-Serif" font-size="11.00" fill="#000000">unknown[0]</text>
<polygon fill="none" stroke="#000000" points="10.5,-535.7 10.5,-557.7 167.5,-557.7 167.5,-535.7 10.5,-535.7"/>
<text text-anchor="start" x="30.5" y="-542.8" font-family="Helvetica,sans-Serif" font-size="11.00" fill="#000000">subset_definition_id</text>
<polygon fill="none" stroke="#000000" points="167.5,-535.7 167.5,-557.7 229.5,-557.7 229.5,-535.7 167.5,-535.7"/>
<text text-anchor="start" x="170.378" y="-543.4" font-family="Helvetica,sans-Serif" font-size="11.00" fill="#000000">unknown[0]</text>
<polygon fill="none" stroke="#000000" points="10.5,-513.7 10.5,-535.7 167.5,-535.7 167.5,-513.7 10.5,-513.7"/>
<text text-anchor="start" x="30.5" y="-520.8" font-family="Helvetica,sans-Serif" font-size="11.00" fill="#000000">subset_parent</text>
<polygon fill="none" stroke="#000000" points="167.5,-513.7 167.5,-535.7 229.5,-535.7 229.5,-513.7 167.5,-513.7"/>
<text text-anchor="start" x="170.378" y="-521.4" font-family="Helvetica,sans-Serif" font-size="11.00" fill="#000000">unknown[0]</text>
<polygon fill="#ffffff" stroke="transparent" points="10.5,-494.7 10.5,-513.7 80.5,-513.7 80.5,-494.7 10.5,-494.7"/>
<polygon fill="none" stroke="#000000" points="10.5,-494.7 10.5,-513.7 80.5,-513.7 80.5,-494.7 10.5,-494.7"/>
<text text-anchor="start" x="13.5" y="-500.8" font-family="Helvetica,sans-Serif" font-size="11.00" fill="#000000">&lt; 0</text>
<polygon fill="#ffffff" stroke="transparent" points="80.5,-494.7 80.5,-513.7 167.5,-513.7 167.5,-494.7 80.5,-494.7"/>
<polygon fill="none" stroke="#000000" points="80.5,-494.7 80.5,-513.7 167.5,-513.7 167.5,-494.7 80.5,-494.7"/>
<text text-anchor="start" x="132.1105" y="-500.8" font-family="Helvetica,sans-Serif" font-size="11.00" fill="#000000">0 rows</text>
<polygon fill="#ffffff" stroke="transparent" points="167.5,-494.7 167.5,-513.7 229.5,-513.7 229.5,-494.7 167.5,-494.7"/>
<polygon fill="none" stroke="#000000" points="167.5,-494.7 167.5,-513.7 229.5,-513.7 229.5,-494.7 167.5,-494.7"/>
<text text-anchor="start" x="204.7904" y="-500.8" font-family="Helvetica,sans-Serif" font-size="11.00" fill="#000000">15 &gt;</text>
<polygon fill="none" stroke="#000000" stroke-width="2" points="9,-493.7 9,-713.7 230,-713.7 230,-493.7 9,-493.7"/>
</a>
</g>
</g>
<!-- c_cohort_details&#45;&gt;cg_cohort_definition -->
<g id="edge1" class="edge">
<title>c_cohort_details:w&#45;&gt;cg_cohort_definition:e</title>
<path fill="none" stroke="#000000" d="M310.274,-1460.8595C275.8671,-1451.0709 284.1761,-1403.9055 272,-1359.7 251.8673,-1286.6082 305.3139,-678.7 229.5,-678.7"/>
<polygon fill="#000000" stroke="#000000" points="317.0618,-1461.7078 324.5535,-1466.2722 321.0309,-1462.2039 325,-1462.7 325,-1462.7 325,-1462.7 321.0309,-1462.2039 325.4465,-1459.1278 317.0618,-1461.7078 317.0618,-1461.7078"/>
<ellipse fill="none" stroke="#000000" cx="313.8865" cy="-1461.3109" rx="3.2" ry="3.2"/>
</g>
<!-- c_cohort_details&#45;&gt;cg_cohort_definition -->
<g id="edge2" class="edge">
<title>c_cohort_details:w&#45;&gt;cg_cohort_definition:e</title>
<path fill="none" stroke="#000000" d="M310.6022,-1416.8376C288.2319,-1410.2738 283.5023,-1387.1268 272,-1359.7 242.6791,-1289.7855 305.3139,-678.7 229.5,-678.7"/>
<polygon fill="#000000" stroke="#000000" points="317.0661,-1417.6737 324.5382,-1422.2703 321.033,-1418.1869 325,-1418.7 325,-1418.7 325,-1418.7 321.033,-1418.1869 325.4618,-1415.1297 317.0661,-1417.6737 317.0661,-1417.6737"/>
<ellipse fill="none" stroke="#000000" cx="313.8925" cy="-1417.2632" rx="3.2" ry="3.2"/>
</g>
<!-- c_dechallenge_rechallenge -->
<g id="node3" class="node">
<title>c_dechallenge_rechallenge</title>
<g id="a_node3"><a xlink:href="../../tables/c_dechallenge_rechallenge.html" xlink:title="c_dechallenge_rechallenge" target="_top">
<polygon fill="#ffffff" stroke="transparent" points="280,-1222.2 280,-1349.2 518,-1349.2 518,-1222.2 280,-1222.2"/>
<polygon fill="#f5f5f5" stroke="transparent" points="280,-1325.7 280,-1348.7 518,-1348.7 518,-1325.7 280,-1325.7"/>
<polygon fill="none" stroke="#000000" points="280,-1325.7 280,-1348.7 518,-1348.7 518,-1325.7 280,-1325.7"/>
<text text-anchor="start" x="285" y="-1334.3" font-family="Helvetica,sans-Serif" font-weight="bold" font-size="11.00" fill="#000000">c_dechallenge_rechallenge</text>
<text text-anchor="start" x="483.0437" y="-1333.8" font-family="Helvetica,sans-Serif" font-size="11.00" fill="#000000">[table]</text>
<polygon fill="none" stroke="#000000" points="280,-1303.7 280,-1325.7 518,-1325.7 518,-1303.7 280,-1303.7"/>
<image xlink:href="../../images/foreignKeys.png" width="11px" height="12px" preserveAspectRatio="xMinYMin meet" x="285" y="-1320.7"/>
<text text-anchor="start" x="300" y="-1310.8" font-family="Helvetica,sans-Serif" font-size="11.00" fill="#000000">database_id</text>
<polygon fill="none" stroke="#000000" points="280,-1281.7 280,-1303.7 518,-1303.7 518,-1281.7 280,-1281.7"/>
<image xlink:href="../../images/foreignKeys.png" width="11px" height="12px" preserveAspectRatio="xMinYMin meet" x="285" y="-1298.7"/>
<text text-anchor="start" x="300" y="-1288.8" font-family="Helvetica,sans-Serif" font-size="11.00" fill="#000000">outcome_cohort_definition_id</text>
<polygon fill="none" stroke="#000000" points="280,-1259.7 280,-1281.7 518,-1281.7 518,-1259.7 280,-1259.7"/>
<image xlink:href="../../images/foreignKeys.png" width="11px" height="12px" preserveAspectRatio="xMinYMin meet" x="285" y="-1276.7"/>
<text text-anchor="start" x="300" y="-1266.8" font-family="Helvetica,sans-Serif" font-size="11.00" fill="#000000">target_cohort_definition_id</text>
<polygon fill="none" stroke="#000000" points="280,-1240.7 280,-1259.7 518,-1259.7 518,-1240.7 280,-1240.7"/>
<text text-anchor="start" x="283" y="-1246.8" font-family="Helvetica,sans-Serif" font-size="11.00" fill="#000000">...</text>
<polygon fill="#ffffff" stroke="transparent" points="280,-1221.7 280,-1240.7 384,-1240.7 384,-1221.7 280,-1221.7"/>
<polygon fill="none" stroke="#000000" points="280,-1221.7 280,-1240.7 384,-1240.7 384,-1221.7 280,-1221.7"/>
<text text-anchor="start" x="283" y="-1227.8" font-family="Helvetica,sans-Serif" font-size="11.00" fill="#000000">&lt; 3</text>
<polygon fill="#ffffff" stroke="transparent" points="384,-1221.7 384,-1240.7 464,-1240.7 464,-1221.7 384,-1221.7"/>
<polygon fill="none" stroke="#000000" points="384,-1221.7 384,-1240.7 464,-1240.7 464,-1221.7 384,-1221.7"/>
<text text-anchor="start" x="428.6105" y="-1227.8" font-family="Helvetica,sans-Serif" font-size="11.00" fill="#000000">0 rows</text>
<polygon fill="#ffffff" stroke="transparent" points="464,-1221.7 464,-1240.7 518,-1240.7 518,-1221.7 464,-1221.7"/>
<polygon fill="none" stroke="#000000" points="464,-1221.7 464,-1240.7 518,-1240.7 518,-1221.7 464,-1221.7"/>
<text text-anchor="start" x="508.8862" y="-1227.8" font-family="Helvetica,sans-Serif" font-size="11.00" fill="#000000"> &#160;</text>
</a>
</g>
</g>
<!-- c_dechallenge_rechallenge&#45;&gt;cg_cohort_definition -->
<g id="edge3" class="edge">
<title>c_dechallenge_rechallenge:w&#45;&gt;cg_cohort_definition:e</title>
<path fill="none" stroke="#000000" d="M268.0339,-1284.4846C222.637,-1211.6239 293.2732,-678.7 229.5,-678.7"/>
<polygon fill="#000000" stroke="#000000" points="273.4047,-1288.172 277.9624,-1295.6679 276.7024,-1290.436 280,-1292.7 280,-1292.7 280,-1292.7 276.7024,-1290.436 282.0376,-1289.7321 273.4047,-1288.172 273.4047,-1288.172"/>
<ellipse fill="none" stroke="#000000" cx="270.7666" cy="-1286.3608" rx="3.2" ry="3.2"/>
</g>
<!-- c_dechallenge_rechallenge&#45;&gt;cg_cohort_definition -->
<g id="edge4" class="edge">
<title>c_dechallenge_rechallenge:w&#45;&gt;cg_cohort_definition:e</title>
<path fill="none" stroke="#000000" d="M268.1604,-1262.3313C224.7195,-1190.3768 290.8749,-678.7 229.5,-678.7"/>
<polygon fill="#000000" stroke="#000000" points="273.4672,-1266.0823 277.922,-1273.6398 276.7336,-1268.3912 280,-1270.7 280,-1270.7 280,-1270.7 276.7336,-1268.3912 282.078,-1267.7602 273.4672,-1266.0823 273.4672,-1266.0823"/>
<ellipse fill="none" stroke="#000000" cx="270.8541" cy="-1264.2353" rx="3.2" ry="3.2"/>
</g>
<!-- cg_cohort_count -->
<g id="node4" class="node">
<title>cg_cohort_count</title>
<g id="a_node4"><a xlink:href="../../tables/cg_cohort_count.html" xlink:title="cg_cohort_count" target="_top">
<polygon fill="#ffffff" stroke="transparent" points="325,-1096.2 325,-1201.2 473,-1201.2 473,-1096.2 325,-1096.2"/>
<polygon fill="#f5f5f5" stroke="transparent" points="325,-1177.7 325,-1200.7 473,-1200.7 473,-1177.7 325,-1177.7"/>
<polygon fill="none" stroke="#000000" points="325,-1177.7 325,-1200.7 473,-1200.7 473,-1177.7 325,-1177.7"/>
<text text-anchor="start" x="330" y="-1186.3" font-family="Helvetica,sans-Serif" font-weight="bold" font-size="11.00" fill="#000000">cg_cohort_count</text>
<text text-anchor="start" x="438.5219" y="-1185.8" font-family="Helvetica,sans-Serif" font-size="11.00" fill="#000000">[table]</text>
<polygon fill="none" stroke="#000000" points="325,-1155.7 325,-1177.7 473,-1177.7 473,-1155.7 325,-1155.7"/>
<image xlink:href="../../images/foreignKeys.png" width="11px" height="12px" preserveAspectRatio="xMinYMin meet" x="330" y="-1172.7"/>
<text text-anchor="start" x="354" y="-1162.8" font-family="Helvetica,sans-Serif" font-size="11.00" fill="#000000">cohort_id</text>
<polygon fill="none" stroke="#000000" points="325,-1133.7 325,-1155.7 473,-1155.7 473,-1133.7 325,-1133.7"/>
<image xlink:href="../../images/foreignKeys.png" width="11px" height="12px" preserveAspectRatio="xMinYMin meet" x="330" y="-1150.7"/>
<text text-anchor="start" x="354" y="-1140.8" font-family="Helvetica,sans-Serif" font-size="11.00" fill="#000000">database_id</text>
<polygon fill="none" stroke="#000000" points="325,-1114.7 325,-1133.7 473,-1133.7 473,-1114.7 325,-1114.7"/>
<text text-anchor="start" x="328" y="-1120.8" font-family="Helvetica,sans-Serif" font-size="11.00" fill="#000000">...</text>
<polygon fill="#ffffff" stroke="transparent" points="325,-1095.7 325,-1114.7 384,-1114.7 384,-1095.7 325,-1095.7"/>
<polygon fill="none" stroke="#000000" points="325,-1095.7 325,-1114.7 384,-1114.7 384,-1095.7 325,-1095.7"/>
<text text-anchor="start" x="328" y="-1101.8" font-family="Helvetica,sans-Serif" font-size="11.00" fill="#000000">&lt; 2</text>
<polygon fill="#ffffff" stroke="transparent" points="384,-1095.7 384,-1114.7 441,-1114.7 441,-1095.7 384,-1095.7"/>
<polygon fill="none" stroke="#000000" points="384,-1095.7 384,-1114.7 441,-1114.7 441,-1095.7 384,-1095.7"/>
<text text-anchor="start" x="405.6105" y="-1101.8" font-family="Helvetica,sans-Serif" font-size="11.00" fill="#000000">0 rows</text>
<polygon fill="#ffffff" stroke="transparent" points="441,-1095.7 441,-1114.7 473,-1114.7 473,-1095.7 441,-1095.7"/>
<polygon fill="none" stroke="#000000" points="441,-1095.7 441,-1114.7 473,-1114.7 473,-1095.7 441,-1095.7"/>
<text text-anchor="start" x="463.8862" y="-1101.8" font-family="Helvetica,sans-Serif" font-size="11.00" fill="#000000"> &#160;</text>
</a>
</g>
</g>
<!-- cg_cohort_count&#45;&gt;cg_cohort_definition -->
<g id="edge5" class="edge">
<title>cg_cohort_count:w&#45;&gt;cg_cohort_definition:e</title>
<path fill="none" stroke="#000000" d="M310.5866,-1164.7693C282.8094,-1156.2662 284.5587,-1121.009 272,-1085.7 256.763,-1042.861 274.9681,-678.7 229.5,-678.7"/>
<polygon fill="#000000" stroke="#000000" points="317.0708,-1165.6378 324.522,-1170.2681 321.0354,-1166.1689 325,-1166.7 325,-1166.7 325,-1166.7 321.0354,-1166.1689 325.478,-1163.1319 317.0708,-1165.6378 317.0708,-1165.6378"/>
<ellipse fill="none" stroke="#000000" cx="313.8991" cy="-1165.2129" rx="3.2" ry="3.2"/>
</g>
<!-- cg_cohort_inclusion -->
<g id="node5" class="node">
<title>cg_cohort_inclusion</title>
<g id="a_node5"><a xlink:href="../../tables/cg_cohort_inclusion.html" xlink:title="cg_cohort_inclusion" target="_top">
<polygon fill="#ffffff" stroke="transparent" points="314,-992.2 314,-1075.2 484,-1075.2 484,-992.2 314,-992.2"/>
<polygon fill="#f5f5f5" stroke="transparent" points="314,-1051.7 314,-1074.7 484,-1074.7 484,-1051.7 314,-1051.7"/>
<polygon fill="none" stroke="#000000" points="314,-1051.7 314,-1074.7 484,-1074.7 484,-1051.7 314,-1051.7"/>
<text text-anchor="start" x="319" y="-1060.3" font-family="Helvetica,sans-Serif" font-weight="bold" font-size="11.00" fill="#000000">cg_cohort_inclusion</text>
<text text-anchor="start" x="449.5219" y="-1059.8" font-family="Helvetica,sans-Serif" font-size="11.00" fill="#000000">[table]</text>
<polygon fill="none" stroke="#000000" points="314,-1029.7 314,-1051.7 484,-1051.7 484,-1029.7 314,-1029.7"/>
<image xlink:href="../../images/foreignKeys.png" width="11px" height="12px" preserveAspectRatio="xMinYMin meet" x="319" y="-1046.7"/>
<text text-anchor="start" x="342" y="-1036.8" font-family="Helvetica,sans-Serif" font-size="11.00" fill="#000000">cohort_definition_id</text>
<polygon fill="none" stroke="#000000" points="314,-1010.7 314,-1029.7 484,-1029.7 484,-1010.7 314,-1010.7"/>
<text text-anchor="start" x="317" y="-1016.8" font-family="Helvetica,sans-Serif" font-size="11.00" fill="#000000">...</text>
<polygon fill="#ffffff" stroke="transparent" points="314,-991.7 314,-1010.7 384,-1010.7 384,-991.7 314,-991.7"/>
<polygon fill="none" stroke="#000000" points="314,-991.7 314,-1010.7 384,-1010.7 384,-991.7 314,-991.7"/>
<text text-anchor="start" x="317" y="-997.8" font-family="Helvetica,sans-Serif" font-size="11.00" fill="#000000">&lt; 1</text>
<polygon fill="#ffffff" stroke="transparent" points="384,-991.7 384,-1010.7 447,-1010.7 447,-991.7 384,-991.7"/>
<polygon fill="none" stroke="#000000" points="384,-991.7 384,-1010.7 447,-1010.7 447,-991.7 384,-991.7"/>
<text text-anchor="start" x="411.6105" y="-997.8" font-family="Helvetica,sans-Serif" font-size="11.00" fill="#000000">0 rows</text>
<polygon fill="#ffffff" stroke="transparent" points="447,-991.7 447,-1010.7 484,-1010.7 484,-991.7 447,-991.7"/>
<polygon fill="none" stroke="#000000" points="447,-991.7 447,-1010.7 484,-1010.7 484,-991.7 447,-991.7"/>
<text text-anchor="start" x="474.8862" y="-997.8" font-family="Helvetica,sans-Serif" font-size="11.00" fill="#000000"> &#160;</text>
</a>
</g>
</g>
<!-- cg_cohort_inclusion&#45;&gt;cg_cohort_definition -->
<g id="edge6" class="edge">
<title>cg_cohort_inclusion:w&#45;&gt;cg_cohort_definition:e</title>
<path fill="none" stroke="#000000" d="M299.6895,-1038.0458C282.1136,-1030.2174 281.7692,-1006.2302 272,-981.7 246.8434,-918.5326 297.4925,-678.7 229.5,-678.7"/>
<polygon fill="#000000" stroke="#000000" points="306.1342,-1039.241 313.3435,-1044.2396 310.0671,-1039.9705 314,-1040.7 314,-1040.7 314,-1040.7 310.0671,-1039.9705 314.6565,-1037.1604 306.1342,-1039.241 306.1342,-1039.241"/>
<ellipse fill="none" stroke="#000000" cx="302.9878" cy="-1038.6574" rx="3.2" ry="3.2"/>
</g>
<!-- cg_cohort_summary_stats -->
<g id="node6" class="node">
<title>cg_cohort_summary_stats</title>
<g id="a_node6"><a xlink:href="../../tables/cg_cohort_summary_stats.html" xlink:title="cg_cohort_summary_stats" target="_top">
<polygon fill="#ffffff" stroke="transparent" points="293,-866.2 293,-971.2 505,-971.2 505,-866.2 293,-866.2"/>
<polygon fill="#f5f5f5" stroke="transparent" points="293,-947.7 293,-970.7 505,-970.7 505,-947.7 293,-947.7"/>
<polygon fill="none" stroke="#000000" points="293,-947.7 293,-970.7 505,-970.7 505,-947.7 293,-947.7"/>
<text text-anchor="start" x="298" y="-956.3" font-family="Helvetica,sans-Serif" font-weight="bold" font-size="11.00" fill="#000000">cg_cohort_summary_stats</text>
<text text-anchor="start" x="470.5219" y="-955.8" font-family="Helvetica,sans-Serif" font-size="11.00" fill="#000000">[table]</text>
<polygon fill="none" stroke="#000000" points="293,-925.7 293,-947.7 505,-947.7 505,-925.7 293,-925.7"/>
<image xlink:href="../../images/foreignKeys.png" width="11px" height="12px" preserveAspectRatio="xMinYMin meet" x="298" y="-942.7"/>
<text text-anchor="start" x="322" y="-932.8" font-family="Helvetica,sans-Serif" font-size="11.00" fill="#000000">cohort_definition_id</text>
<polygon fill="none" stroke="#000000" points="293,-903.7 293,-925.7 505,-925.7 505,-903.7 293,-903.7"/>
<image xlink:href="../../images/foreignKeys.png" width="11px" height="12px" preserveAspectRatio="xMinYMin meet" x="298" y="-920.7"/>
<text text-anchor="start" x="322" y="-910.8" font-family="Helvetica,sans-Serif" font-size="11.00" fill="#000000">database_id</text>
<polygon fill="none" stroke="#000000" points="293,-884.7 293,-903.7 505,-903.7 505,-884.7 293,-884.7"/>
<text text-anchor="start" x="296" y="-890.8" font-family="Helvetica,sans-Serif" font-size="11.00" fill="#000000">...</text>
<polygon fill="#ffffff" stroke="transparent" points="293,-865.7 293,-884.7 384,-884.7 384,-865.7 293,-865.7"/>
<polygon fill="none" stroke="#000000" points="293,-865.7 293,-884.7 384,-884.7 384,-865.7 293,-865.7"/>
<text text-anchor="start" x="296" y="-871.8" font-family="Helvetica,sans-Serif" font-size="11.00" fill="#000000">&lt; 2</text>
<polygon fill="#ffffff" stroke="transparent" points="384,-865.7 384,-884.7 457,-884.7 457,-865.7 384,-865.7"/>
<polygon fill="none" stroke="#000000" points="384,-865.7 384,-884.7 457,-884.7 457,-865.7 384,-865.7"/>
<text text-anchor="start" x="421.6105" y="-871.8" font-family="Helvetica,sans-Serif" font-size="11.00" fill="#000000">0 rows</text>
<polygon fill="#ffffff" stroke="transparent" points="457,-865.7 457,-884.7 505,-884.7 505,-865.7 457,-865.7"/>
<polygon fill="none" stroke="#000000" points="457,-865.7 457,-884.7 505,-884.7 505,-865.7 457,-865.7"/>
<text text-anchor="start" x="495.8862" y="-871.8" font-family="Helvetica,sans-Serif" font-size="11.00" fill="#000000"> &#160;</text>
</a>
</g>
</g>
<!-- cg_cohort_summary_stats&#45;&gt;cg_cohort_definition -->
<g id="edge7" class="edge">
<title>cg_cohort_summary_stats:w&#45;&gt;cg_cohort_definition:e</title>
<path fill="none" stroke="#000000" d="M279.6726,-930.8266C242.8473,-892.4232 283.2396,-678.7 229.5,-678.7"/>
<polygon fill="#000000" stroke="#000000" points="285.6794,-933.4737 291.5482,-939.9943 289.3397,-935.0869 293,-936.7 293,-936.7 293,-936.7 289.3397,-935.0869 294.4518,-933.4057 285.6794,-933.4737 285.6794,-933.4737"/>
<ellipse fill="none" stroke="#000000" cx="282.7511" cy="-932.1832" rx="3.2" ry="3.2"/>
</g>
<!-- ci_incidence_summary -->
<g id="node7" class="node">
<title>ci_incidence_summary</title>
<g id="a_node7"><a xlink:href="../../tables/ci_incidence_summary.html" xlink:title="ci_incidence_summary" target="_top">
<polygon fill="#ffffff" stroke="transparent" points="293.5,-630.2 293.5,-845.2 504.5,-845.2 504.5,-630.2 293.5,-630.2"/>
<polygon fill="#f5f5f5" stroke="transparent" points="294,-821.7 294,-844.7 505,-844.7 505,-821.7 294,-821.7"/>
<polygon fill="none" stroke="#000000" points="294,-821.7 294,-844.7 505,-844.7 505,-821.7 294,-821.7"/>
<text text-anchor="start" x="299" y="-830.3" font-family="Helvetica,sans-Serif" font-weight="bold" font-size="11.00" fill="#000000">ci_incidence_summary</text>
<text text-anchor="start" x="470.0437" y="-829.8" font-family="Helvetica,sans-Serif" font-size="11.00" fill="#000000">[table]</text>
<polygon fill="none" stroke="#000000" points="294,-799.7 294,-821.7 505,-821.7 505,-799.7 294,-799.7"/>
<image xlink:href="../../images/foreignKeys.png" width="11px" height="12px" preserveAspectRatio="xMinYMin meet" x="299" y="-816.7"/>
<text text-anchor="start" x="314" y="-806.8" font-family="Helvetica,sans-Serif" font-size="11.00" fill="#000000">age_group_id</text>
<polygon fill="none" stroke="#000000" points="294,-777.7 294,-799.7 505,-799.7 505,-777.7 294,-777.7"/>
<image xlink:href="../../images/foreignKeys.png" width="11px" height="12px" preserveAspectRatio="xMinYMin meet" x="299" y="-794.7"/>
<text text-anchor="start" x="314" y="-784.8" font-family="Helvetica,sans-Serif" font-size="11.00" fill="#000000">database_id</text>
<polygon fill="none" stroke="#000000" points="294,-755.7 294,-777.7 505,-777.7 505,-755.7 294,-755.7"/>
<image xlink:href="../../images/foreignKeys.png" width="11px" height="12px" preserveAspectRatio="xMinYMin meet" x="299" y="-772.7"/>
<text text-anchor="start" x="314" y="-762.8" font-family="Helvetica,sans-Serif" font-size="11.00" fill="#000000">outcome_id</text>
<polygon fill="none" stroke="#000000" points="294,-733.7 294,-755.7 505,-755.7 505,-733.7 294,-733.7"/>
<image xlink:href="../../images/foreignKeys.png" width="11px" height="12px" preserveAspectRatio="xMinYMin meet" x="299" y="-750.7"/>
<text text-anchor="start" x="314" y="-740.8" font-family="Helvetica,sans-Serif" font-size="11.00" fill="#000000">ref_id</text>
<polygon fill="none" stroke="#000000" points="294,-711.7 294,-733.7 505,-733.7 505,-711.7 294,-711.7"/>
<image xlink:href="../../images/foreignKeys.png" width="11px" height="12px" preserveAspectRatio="xMinYMin meet" x="299" y="-728.7"/>
<text text-anchor="start" x="314" y="-718.8" font-family="Helvetica,sans-Serif" font-size="11.00" fill="#000000">subgroup_id</text>
<polygon fill="none" stroke="#000000" points="294,-689.7 294,-711.7 505,-711.7 505,-689.7 294,-689.7"/>
<image xlink:href="../../images/foreignKeys.png" width="11px" height="12px" preserveAspectRatio="xMinYMin meet" x="299" y="-706.7"/>
<text text-anchor="start" x="314" y="-696.8" font-family="Helvetica,sans-Serif" font-size="11.00" fill="#000000">tar_id</text>
<polygon fill="none" stroke="#000000" points="294,-667.7 294,-689.7 505,-689.7 505,-667.7 294,-667.7"/>
<image xlink:href="../../images/foreignKeys.png" width="11px" height="12px" preserveAspectRatio="xMinYMin meet" x="299" y="-684.7"/>
<text text-anchor="start" x="314" y="-674.8" font-family="Helvetica,sans-Serif" font-size="11.00" fill="#000000">target_cohort_definition_id</text>
<polygon fill="none" stroke="#000000" points="294,-648.7 294,-667.7 505,-667.7 505,-648.7 294,-648.7"/>
<text text-anchor="start" x="297" y="-654.8" font-family="Helvetica,sans-Serif" font-size="11.00" fill="#000000">...</text>
<polygon fill="#ffffff" stroke="transparent" points="294,-629.7 294,-648.7 388,-648.7 388,-629.7 294,-629.7"/>
<polygon fill="none" stroke="#000000" points="294,-629.7 294,-648.7 388,-648.7 388,-629.7 294,-629.7"/>
<text text-anchor="start" x="297" y="-635.8" font-family="Helvetica,sans-Serif" font-size="11.00" fill="#000000">&lt; 10</text>
<polygon fill="#ffffff" stroke="transparent" points="388,-629.7 388,-648.7 459,-648.7 459,-629.7 388,-629.7"/>
<polygon fill="none" stroke="#000000" points="388,-629.7 388,-648.7 459,-648.7 459,-629.7 388,-629.7"/>
<text text-anchor="start" x="423.6105" y="-635.8" font-family="Helvetica,sans-Serif" font-size="11.00" fill="#000000">0 rows</text>
<polygon fill="#ffffff" stroke="transparent" points="459,-629.7 459,-648.7 505,-648.7 505,-629.7 459,-629.7"/>
<polygon fill="none" stroke="#000000" points="459,-629.7 459,-648.7 505,-648.7 505,-629.7 459,-629.7"/>
<text text-anchor="start" x="495.8862" y="-635.8" font-family="Helvetica,sans-Serif" font-size="11.00" fill="#000000"> &#160;</text>
</a>
</g>
</g>
<!-- ci_incidence_summary&#45;&gt;cg_cohort_definition -->
<g id="edge8" class="edge">
<title>ci_incidence_summary:w&#45;&gt;cg_cohort_definition:e</title>
<path fill="none" stroke="#000000" d="M279.3432,-678.7C261.7137,-678.7 252.5677,-678.7 229.5,-678.7"/>
<polygon fill="#000000" stroke="#000000" points="286,-678.7001 294,-682.3 290,-678.7 294,-678.7 294,-678.7 294,-678.7 290,-678.7 294,-675.1 286,-678.7001 286,-678.7001"/>
<ellipse fill="none" stroke="#000000" cx="282.8" cy="-678.7001" rx="3.2" ry="3.2"/>
</g>
<!-- cm_diagnostics_summary -->
<g id="node8" class="node">
<title>cm_diagnostics_summary</title>
<g id="a_node8"><a xlink:href="../../tables/cm_diagnostics_summary.html" xlink:title="cm_diagnostics_summary" target="_top">
<polygon fill="#ffffff" stroke="transparent" points="282,-438.2 282,-609.2 516,-609.2 516,-438.2 282,-438.2"/>
<polygon fill="#f5f5f5" stroke="transparent" points="282,-585.7 282,-608.7 516,-608.7 516,-585.7 282,-585.7"/>
<polygon fill="none" stroke="#000000" points="282,-585.7 282,-608.7 516,-608.7 516,-585.7 282,-585.7"/>
<text text-anchor="start" x="287" y="-594.3" font-family="Helvetica,sans-Serif" font-weight="bold" font-size="11.00" fill="#000000">cm_diagnostics_summary</text>
<text text-anchor="start" x="481.0437" y="-593.8" font-family="Helvetica,sans-Serif" font-size="11.00" fill="#000000">[table]</text>
<polygon fill="none" stroke="#000000" points="282,-563.7 282,-585.7 516,-585.7 516,-563.7 282,-563.7"/>
<image xlink:href="../../images/primaryKeys.png" width="11px" height="12px" preserveAspectRatio="xMinYMin meet" x="287" y="-580.7"/>
<text text-anchor="start" x="302" y="-570.8" font-family="Helvetica,sans-Serif" font-size="11.00" fill="#000000">analysis_id</text>
<polygon fill="none" stroke="#000000" points="282,-541.7 282,-563.7 516,-563.7 516,-541.7 282,-541.7"/>
<image xlink:href="../../images/foreignKeys.png" width="11px" height="12px" preserveAspectRatio="xMinYMin meet" x="287" y="-558.7"/>
<text text-anchor="start" x="302" y="-548.8" font-family="Helvetica,sans-Serif" font-size="11.00" fill="#000000">comparator_id</text>
<polygon fill="none" stroke="#000000" points="282,-519.7 282,-541.7 516,-541.7 516,-519.7 282,-519.7"/>
<image xlink:href="../../images/foreignKeys.png" width="11px" height="12px" preserveAspectRatio="xMinYMin meet" x="287" y="-536.7"/>
<text text-anchor="start" x="302" y="-526.8" font-family="Helvetica,sans-Serif" font-size="11.00" fill="#000000">database_id</text>
<polygon fill="none" stroke="#000000" points="282,-497.7 282,-519.7 516,-519.7 516,-497.7 282,-497.7"/>
<image xlink:href="../../images/foreignKeys.png" width="11px" height="12px" preserveAspectRatio="xMinYMin meet" x="287" y="-514.7"/>
<text text-anchor="start" x="302" y="-504.8" font-family="Helvetica,sans-Serif" font-size="11.00" fill="#000000">outcome_id</text>
<polygon fill="none" stroke="#000000" points="282,-475.7 282,-497.7 516,-497.7 516,-475.7 282,-475.7"/>
<image xlink:href="../../images/foreignKeys.png" width="11px" height="12px" preserveAspectRatio="xMinYMin meet" x="287" y="-492.7"/>
<text text-anchor="start" x="302" y="-482.8" font-family="Helvetica,sans-Serif" font-size="11.00" fill="#000000">target_id</text>
<polygon fill="none" stroke="#000000" points="282,-456.7 282,-475.7 516,-475.7 516,-456.7 282,-456.7"/>
<text text-anchor="start" x="285" y="-462.8" font-family="Helvetica,sans-Serif" font-size="11.00" fill="#000000">...</text>
<polygon fill="#ffffff" stroke="transparent" points="282,-437.7 282,-456.7 380,-456.7 380,-437.7 282,-437.7"/>
<polygon fill="none" stroke="#000000" points="282,-437.7 282,-456.7 380,-456.7 380,-437.7 282,-437.7"/>
<text text-anchor="start" x="285" y="-443.8" font-family="Helvetica,sans-Serif" font-size="11.00" fill="#000000">&lt; 5</text>
<polygon fill="#ffffff" stroke="transparent" points="380,-437.7 380,-456.7 456,-456.7 456,-437.7 380,-437.7"/>
<polygon fill="none" stroke="#000000" points="380,-437.7 380,-456.7 456,-456.7 456,-437.7 380,-437.7"/>
<text text-anchor="start" x="420.6105" y="-443.8" font-family="Helvetica,sans-Serif" font-size="11.00" fill="#000000">0 rows</text>
<polygon fill="#ffffff" stroke="transparent" points="456,-437.7 456,-456.7 516,-456.7 516,-437.7 456,-437.7"/>
<polygon fill="none" stroke="#000000" points="456,-437.7 456,-456.7 516,-456.7 516,-437.7 456,-437.7"/>
<text text-anchor="start" x="497.4053" y="-443.8" font-family="Helvetica,sans-Serif" font-size="11.00" fill="#000000">1 &gt;</text>
</a>
</g>
</g>
<!-- cm_diagnostics_summary&#45;&gt;cg_cohort_definition -->
<g id="edge9" class="edge">
<title>cm_diagnostics_summary:w&#45;&gt;cg_cohort_definition:e</title>
<path fill="none" stroke="#000000" d="M267.6904,-556.0702C233.5423,-576.1077 284.2422,-678.7 229.5,-678.7"/>
<polygon fill="#000000" stroke="#000000" points="274.2131,-554.534 282.8253,-556.2041 278.1065,-553.617 282,-552.7 282,-552.7 282,-552.7 278.1065,-553.617 281.1747,-549.1959 274.2131,-554.534 274.2131,-554.534"/>
<ellipse fill="none" stroke="#000000" cx="271.0983" cy="-555.2676" rx="3.2" ry="3.2"/>
</g>
<!-- cm_diagnostics_summary&#45;&gt;cg_cohort_definition -->
<g id="edge10" class="edge">
<title>cm_diagnostics_summary:w&#45;&gt;cg_cohort_definition:e</title>
<path fill="none" stroke="#000000" d="M267.6112,-511.2351C217.229,-532.3825 302.8619,-678.7 229.5,-678.7"/>
<polygon fill="#000000" stroke="#000000" points="274.1213,-510.0881 282.6247,-512.2454 278.0607,-509.3941 282,-508.7 282,-508.7 282,-508.7 278.0607,-509.3941 281.3753,-505.1546 274.1213,-510.0881 274.1213,-510.0881"/>
<ellipse fill="none" stroke="#000000" cx="270.9699" cy="-510.6434" rx="3.2" ry="3.2"/>
</g>
<!-- cm_diagnostics_summary&#45;&gt;cg_cohort_definition -->
<g id="edge11" class="edge">
<title>cm_diagnostics_summary:w&#45;&gt;cg_cohort_definition:e</title>
<path fill="none" stroke="#000000" d="M267.4335,-488.99C208.6897,-510.6524 312.264,-678.7 229.5,-678.7"/>
<polygon fill="#000000" stroke="#000000" points="274.0971,-487.9425 282.5591,-490.2563 278.0485,-487.3212 282,-486.7 282,-486.7 282,-486.7 278.0485,-487.3212 281.4409,-483.1437 274.0971,-487.9425 274.0971,-487.9425"/>
<ellipse fill="none" stroke="#000000" cx="270.9359" cy="-488.4395" rx="3.2" ry="3.2"/>
</g>
<!-- plp_cohorts -->
<g id="node9" class="node">
<title>plp_cohorts</title>
<g id="a_node9"><a xlink:href="../../tables/plp_cohorts.html" xlink:title="plp_cohorts" target="_top">
<polygon fill="#ffffff" stroke="transparent" points="322,-334.2 322,-417.2 476,-417.2 476,-334.2 322,-334.2"/>
<polygon fill="#f5f5f5" stroke="transparent" points="322,-393.7 322,-416.7 476,-416.7 476,-393.7 322,-393.7"/>
<polygon fill="none" stroke="#000000" points="322,-393.7 322,-416.7 476,-416.7 476,-393.7 322,-393.7"/>
<text text-anchor="start" x="327" y="-402.3" font-family="Helvetica,sans-Serif" font-weight="bold" font-size="11.00" fill="#000000">plp_cohorts</text>
<text text-anchor="start" x="441.0437" y="-401.8" font-family="Helvetica,sans-Serif" font-size="11.00" fill="#000000">[table]</text>
<polygon fill="none" stroke="#000000" points="322,-371.7 322,-393.7 476,-393.7 476,-371.7 322,-371.7"/>
<image xlink:href="../../images/primaryKeys.png" width="11px" height="12px" preserveAspectRatio="xMinYMin meet" x="327" y="-388.7"/>
<text text-anchor="start" x="342" y="-378.8" font-family="Helvetica,sans-Serif" font-size="11.00" fill="#000000">cohort_definition_id</text>
<polygon fill="none" stroke="#000000" points="322,-352.7 322,-371.7 476,-371.7 476,-352.7 322,-352.7"/>
<text text-anchor="start" x="325" y="-358.8" font-family="Helvetica,sans-Serif" font-size="11.00" fill="#000000">...</text>
<polygon fill="#ffffff" stroke="transparent" points="322,-333.7 322,-352.7 380,-352.7 380,-333.7 322,-333.7"/>
<polygon fill="none" stroke="#000000" points="322,-333.7 322,-352.7 380,-352.7 380,-333.7 322,-333.7"/>
<text text-anchor="start" x="325" y="-339.8" font-family="Helvetica,sans-Serif" font-size="11.00" fill="#000000">&lt; 1</text>
<polygon fill="#ffffff" stroke="transparent" points="380,-333.7 380,-352.7 436,-352.7 436,-333.7 380,-333.7"/>
<polygon fill="none" stroke="#000000" points="380,-333.7 380,-352.7 436,-352.7 436,-333.7 380,-333.7"/>
<text text-anchor="start" x="400.6105" y="-339.8" font-family="Helvetica,sans-Serif" font-size="11.00" fill="#000000">0 rows</text>
<polygon fill="#ffffff" stroke="transparent" points="436,-333.7 436,-352.7 476,-352.7 476,-333.7 436,-333.7"/>
<polygon fill="none" stroke="#000000" points="436,-333.7 436,-352.7 476,-352.7 476,-333.7 436,-333.7"/>
<text text-anchor="start" x="457.4053" y="-339.8" font-family="Helvetica,sans-Serif" font-size="11.00" fill="#000000">2 &gt;</text>
</a>
</g>
</g>
<!-- plp_cohorts&#45;&gt;cg_cohort_definition -->
<g id="edge12" class="edge">
<title>plp_cohorts:w&#45;&gt;cg_cohort_definition:e</title>
<path fill="none" stroke="#000000" d="M311.5743,-383.6129C290.4901,-387.6707 284.5509,-404.8808 272,-427.7 244.7364,-477.2687 286.0717,-678.7 229.5,-678.7"/>
<polygon fill="#000000" stroke="#000000" points="320.8541,-378.785 321.552,-386.7545 319.9581,-386.8941 319.2602,-378.9246 320.8541,-378.785"/>
<polyline fill="none" stroke="#000000" points="322,-382.7 318.0152,-383.049 "/>
<ellipse fill="none" stroke="#000000" cx="314.8274" cy="-383.3281" rx="3.2" ry="3.2"/>
</g>
<!-- plp_performances -->
<g id="node10" class="node">
<title>plp_performances</title>
<g id="a_node10"><a xlink:href="../../tables/plp_performances.html" xlink:title="plp_performances" target="_top">
<polygon fill="#ffffff" stroke="transparent" points="301,-164.2 301,-313.2 497,-313.2 497,-164.2 301,-164.2"/>
<polygon fill="#f5f5f5" stroke="transparent" points="301,-289.7 301,-312.7 497,-312.7 497,-289.7 301,-289.7"/>
<polygon fill="none" stroke="#000000" points="301,-289.7 301,-312.7 497,-312.7 497,-289.7 301,-289.7"/>
<text text-anchor="start" x="306" y="-298.3" font-family="Helvetica,sans-Serif" font-weight="bold" font-size="11.00" fill="#000000">plp_performances</text>
<text text-anchor="start" x="462.0437" y="-297.8" font-family="Helvetica,sans-Serif" font-size="11.00" fill="#000000">[table]</text>
<polygon fill="none" stroke="#000000" points="301,-267.7 301,-289.7 497,-289.7 497,-267.7 301,-267.7"/>
<image xlink:href="../../images/foreignKeys.png" width="11px" height="12px" preserveAspectRatio="xMinYMin meet" x="306" y="-284.7"/>
<text text-anchor="start" x="321" y="-274.8" font-family="Helvetica,sans-Serif" font-size="11.00" fill="#000000">development_database_id</text>
<polygon fill="none" stroke="#000000" points="301,-245.7 301,-267.7 497,-267.7 497,-245.7 301,-245.7"/>
<image xlink:href="../../images/foreignKeys.png" width="11px" height="12px" preserveAspectRatio="xMinYMin meet" x="306" y="-262.7"/>
<text text-anchor="start" x="321" y="-252.8" font-family="Helvetica,sans-Serif" font-size="11.00" fill="#000000">outcome_id</text>
<polygon fill="none" stroke="#000000" points="301,-223.7 301,-245.7 497,-245.7 497,-223.7 301,-223.7"/>
<image xlink:href="../../images/foreignKeys.png" width="11px" height="12px" preserveAspectRatio="xMinYMin meet" x="306" y="-240.7"/>
<text text-anchor="start" x="321" y="-230.8" font-family="Helvetica,sans-Serif" font-size="11.00" fill="#000000">target_id</text>
<polygon fill="none" stroke="#000000" points="301,-201.7 301,-223.7 497,-223.7 497,-201.7 301,-201.7"/>
<image xlink:href="../../images/foreignKeys.png" width="11px" height="12px" preserveAspectRatio="xMinYMin meet" x="306" y="-218.7"/>
<text text-anchor="start" x="321" y="-208.8" font-family="Helvetica,sans-Serif" font-size="11.00" fill="#000000">validation_database_id</text>
<polygon fill="none" stroke="#000000" points="301,-182.7 301,-201.7 497,-201.7 497,-182.7 301,-182.7"/>
<text text-anchor="start" x="304" y="-188.8" font-family="Helvetica,sans-Serif" font-size="11.00" fill="#000000">...</text>
<polygon fill="#ffffff" stroke="transparent" points="301,-163.7 301,-182.7 384,-182.7 384,-163.7 301,-163.7"/>
<polygon fill="none" stroke="#000000" points="301,-163.7 301,-182.7 384,-182.7 384,-163.7 301,-163.7"/>
<text text-anchor="start" x="304" y="-169.8" font-family="Helvetica,sans-Serif" font-size="11.00" fill="#000000">&lt; 4</text>
<polygon fill="#ffffff" stroke="transparent" points="384,-163.7 384,-182.7 453,-182.7 453,-163.7 384,-163.7"/>
<polygon fill="none" stroke="#000000" points="384,-163.7 384,-182.7 453,-182.7 453,-163.7 384,-163.7"/>
<text text-anchor="start" x="417.6105" y="-169.8" font-family="Helvetica,sans-Serif" font-size="11.00" fill="#000000">0 rows</text>
<polygon fill="#ffffff" stroke="transparent" points="453,-163.7 453,-182.7 497,-182.7 497,-163.7 453,-163.7"/>
<polygon fill="none" stroke="#000000" points="453,-163.7 453,-182.7 497,-182.7 497,-163.7 453,-163.7"/>
<text text-anchor="start" x="487.8862" y="-169.8" font-family="Helvetica,sans-Serif" font-size="11.00" fill="#000000"> &#160;</text>
</a>
</g>
</g>
<!-- plp_performances&#45;&gt;cg_cohort_definition -->
<g id="edge13" class="edge">
<title>plp_performances:w&#45;&gt;cg_cohort_definition:e</title>
<path fill="none" stroke="#000000" d="M286.8184,-260.6082C218.6494,-303.1508 319.227,-678.7 229.5,-678.7"/>
<polygon fill="#000000" stroke="#000000" points="293.2875,-258.8255 301.9565,-260.1706 297.1438,-257.7627 301,-256.7 301,-256.7 301,-256.7 297.1438,-257.7627 300.0435,-253.2294 293.2875,-258.8255 293.2875,-258.8255"/>
<ellipse fill="none" stroke="#000000" cx="290.2025" cy="-259.6756" rx="3.2" ry="3.2"/>
</g>
<!-- plp_performances&#45;&gt;cg_cohort_definition -->
<g id="edge14" class="edge">
<title>plp_performances:w&#45;&gt;cg_cohort_definition:e</title>
<path fill="none" stroke="#000000" d="M287.0273,-238.274C213.9669,-280.2934 324.1677,-678.7 229.5,-678.7"/>
<polygon fill="#000000" stroke="#000000" points="293.2495,-236.6825 301.8921,-238.1877 297.1248,-235.6912 301,-234.7 301,-234.7 301,-234.7 297.1248,-235.6912 300.1079,-231.2123 293.2495,-236.6825 293.2495,-236.6825"/>
<ellipse fill="none" stroke="#000000" cx="290.1493" cy="-237.4755" rx="3.2" ry="3.2"/>
</g>
<!-- sccs_exposures_outcome_set -->
<g id="node11" class="node">
<title>sccs_exposures_outcome_set</title>
<g id="a_node11"><a xlink:href="../../tables/sccs_exposures_outcome_set.html" xlink:title="sccs_exposures_outcome_set" target="_top">
<polygon fill="#ffffff" stroke="transparent" points="282,-38.2 282,-143.2 516,-143.2 516,-38.2 282,-38.2"/>
<polygon fill="#f5f5f5" stroke="transparent" points="282,-119.7 282,-142.7 516,-142.7 516,-119.7 282,-119.7"/>
<polygon fill="none" stroke="#000000" points="282,-119.7 282,-142.7 516,-142.7 516,-119.7 282,-119.7"/>
<text text-anchor="start" x="287" y="-128.3" font-family="Helvetica,sans-Serif" font-weight="bold" font-size="11.00" fill="#000000">sccs_exposures_outcome_set</text>
<text text-anchor="start" x="481.5219" y="-127.8" font-family="Helvetica,sans-Serif" font-size="11.00" fill="#000000">[table]</text>
<polygon fill="none" stroke="#000000" points="282,-97.7 282,-119.7 516,-119.7 516,-97.7 282,-97.7"/>
<image xlink:href="../../images/primaryKeys.png" width="11px" height="12px" preserveAspectRatio="xMinYMin meet" x="287" y="-114.7"/>
<text text-anchor="start" x="311" y="-104.8" font-family="Helvetica,sans-Serif" font-size="11.00" fill="#000000">exposures_outcome_set_id</text>
<polygon fill="none" stroke="#000000" points="282,-75.7 282,-97.7 516,-97.7 516,-75.7 282,-75.7"/>
<image xlink:href="../../images/foreignKeys.png" width="11px" height="12px" preserveAspectRatio="xMinYMin meet" x="287" y="-92.7"/>
<text text-anchor="start" x="311" y="-82.8" font-family="Helvetica,sans-Serif" font-size="11.00" fill="#000000">nesting_cohort_id</text>
<polygon fill="none" stroke="#000000" points="282,-56.7 282,-75.7 516,-75.7 516,-56.7 282,-56.7"/>
<text text-anchor="start" x="285" y="-62.8" font-family="Helvetica,sans-Serif" font-size="11.00" fill="#000000">...</text>
<polygon fill="#ffffff" stroke="transparent" points="282,-37.7 282,-56.7 377,-56.7 377,-37.7 282,-37.7"/>
<polygon fill="none" stroke="#000000" points="282,-37.7 282,-56.7 377,-56.7 377,-37.7 282,-37.7"/>
<text text-anchor="start" x="285" y="-43.8" font-family="Helvetica,sans-Serif" font-size="11.00" fill="#000000">&lt; 3</text>
<polygon fill="#ffffff" stroke="transparent" points="377,-37.7 377,-56.7 452,-56.7 452,-37.7 377,-37.7"/>
<polygon fill="none" stroke="#000000" points="377,-37.7 377,-56.7 452,-56.7 452,-37.7 377,-37.7"/>
<text text-anchor="start" x="416.6105" y="-43.8" font-family="Helvetica,sans-Serif" font-size="11.00" fill="#000000">0 rows</text>
<polygon fill="#ffffff" stroke="transparent" points="452,-37.7 452,-56.7 516,-56.7 516,-37.7 452,-37.7"/>
<polygon fill="none" stroke="#000000" points="452,-37.7 452,-56.7 516,-56.7 516,-37.7 452,-37.7"/>
<text text-anchor="start" x="491.2904" y="-43.8" font-family="Helvetica,sans-Serif" font-size="11.00" fill="#000000">10 &gt;</text>
</a>
</g>
</g>
<!-- sccs_exposures_outcome_set&#45;&gt;cg_cohort_definition -->
<g id="edge15" class="edge">
<title>sccs_exposures_outcome_set:w&#45;&gt;cg_cohort_definition:e</title>
<path fill="none" stroke="#000000" d="M270.1289,-95.0687C226.434,-167.0232 290.8928,-678.7 229.5,-678.7"/>
<polygon fill="#000000" stroke="#000000" points="275.4614,-91.3095 284.0743,-89.6424 278.7307,-89.0047 282,-86.7 282,-86.7 282,-86.7 278.7307,-89.0047 279.9257,-83.7576 275.4614,-91.3095 275.4614,-91.3095"/>
<ellipse fill="none" stroke="#000000" cx="272.846" cy="-93.1533" rx="3.2" ry="3.2"/>
</g>
</g>
</svg>
