<?xml version="1.0" encoding="UTF-8" standalone="no"?>
<!DOCTYPE svg PUBLIC "-//W3C//DTD SVG 1.1//EN"
 "http://www.w3.org/Graphics/SVG/1.1/DTD/svg11.dtd">
<!-- Generated by graphviz version 2.40.1 (20161225.0304)
 -->
<!-- Title: oneDegreeRelationshipsDiagram Pages: 1 -->
<svg width="514pt" height="237pt"
 viewBox="0.00 0.00 514.00 237.20" xmlns="http://www.w3.org/2000/svg" xmlns:xlink="http://www.w3.org/1999/xlink">
<g id="graph0" class="graph" transform="scale(1 1) rotate(0) translate(4 233.2)">
<title>oneDegreeRelationshipsDiagram</title>
<polygon fill="#ffffff" stroke="transparent" points="-4,4 -4,-233.2 510,-233.2 510,4 -4,4"/>
<text text-anchor="middle" x="72.4936" y="-7.3" font-family="Helvetica,sans-Serif" font-size="11.00" fill="#000000">Generated by SchemaSpy</text>
<!-- cg_cohort_count -->
<g id="node1" class="node">
<title>cg_cohort_count</title>
<g id="a_node1"><a xlink:href="../../tables/cg_cohort_count.html" xlink:title="cg_cohort_count" target="_top">
<polygon fill="#ffffff" stroke="transparent" points="302,-84.7 302,-218.7 498,-218.7 498,-84.7 302,-84.7"/>
<polygon fill="#f5f5f5" stroke="transparent" points="304,-193.7 304,-216.7 496,-216.7 496,-193.7 304,-193.7"/>
<polygon fill="none" stroke="#000000" points="304,-193.7 304,-216.7 496,-216.7 496,-193.7 304,-193.7"/>
<text text-anchor="start" x="309" y="-202.3" font-family="Helvetica,sans-Serif" font-weight="bold" font-size="11.00" fill="#000000">cg_cohort_count</text>
<text text-anchor="start" x="461.0437" y="-201.8" font-family="Helvetica,sans-Serif" font-size="11.00" fill="#000000">[table]</text>
<polygon fill="none" stroke="#000000" points="304,-171.7 304,-193.7 434,-193.7 434,-171.7 304,-171.7"/>
<text text-anchor="start" x="324" y="-178.8" font-family="Helvetica,sans-Serif" font-size="11.00" fill="#000000">cohort_entries</text>
<polygon fill="none" stroke="#000000" points="434,-171.7 434,-193.7 496,-193.7 496,-171.7 434,-171.7"/>
<text text-anchor="start" x="436.878" y="-179.4" font-family="Helvetica,sans-Serif" font-size="11.00" fill="#000000">unknown[0]</text>
<polygon fill="none" stroke="#000000" points="304,-149.7 304,-171.7 434,-171.7 434,-149.7 304,-149.7"/>
<image xlink:href="../../images/foreignKeys.png" width="11px" height="12px" preserveAspectRatio="xMinYMin meet" x="309" y="-166.7"/>
<text text-anchor="start" x="324" y="-156.8" font-family="Helvetica,sans-Serif" font-size="11.00" fill="#000000">cohort_id</text>
<polygon fill="none" stroke="#000000" points="434,-149.7 434,-171.7 496,-171.7 496,-149.7 434,-149.7"/>
<text text-anchor="start" x="436.878" y="-157.4" font-family="Helvetica,sans-Serif" font-size="11.00" fill="#000000">unknown[0]</text>
<polygon fill="none" stroke="#000000" points="304,-127.7 304,-149.7 434,-149.7 434,-127.7 304,-127.7"/>
<text text-anchor="start" x="324" y="-134.8" font-family="Helvetica,sans-Serif" font-size="11.00" fill="#000000">cohort_subjects</text>
<polygon fill="none" stroke="#000000" points="434,-127.7 434,-149.7 496,-149.7 496,-127.7 434,-127.7"/>
<text text-anchor="start" x="436.878" y="-135.4" font-family="Helvetica,sans-Serif" font-size="11.00" fill="#000000">unknown[0]</text>
<polygon fill="none" stroke="#000000" points="304,-105.7 304,-127.7 434,-127.7 434,-105.7 304,-105.7"/>
<image xlink:href="../../images/foreignKeys.png" width="11px" height="12px" preserveAspectRatio="xMinYMin meet" x="309" y="-122.7"/>
<text text-anchor="start" x="324" y="-112.8" font-family="Helvetica,sans-Serif" font-size="11.00" fill="#000000">database_id</text>
<polygon fill="none" stroke="#000000" points="434,-105.7 434,-127.7 496,-127.7 496,-105.7 434,-105.7"/>
<text text-anchor="start" x="436.878" y="-113.4" font-family="Helvetica,sans-Serif" font-size="11.00" fill="#000000">unknown[0]</text>
<polygon fill="#ffffff" stroke="transparent" points="304,-86.7 304,-105.7 360,-105.7 360,-86.7 304,-86.7"/>
<polygon fill="none" stroke="#000000" points="304,-86.7 304,-105.7 360,-105.7 360,-86.7 304,-86.7"/>
<text text-anchor="start" x="307" y="-92.8" font-family="Helvetica,sans-Serif" font-size="11.00" fill="#000000">&lt; 2</text>
<polygon fill="#ffffff" stroke="transparent" points="360,-86.7 360,-105.7 434,-105.7 434,-86.7 360,-86.7"/>
<polygon fill="none" stroke="#000000" points="360,-86.7 360,-105.7 434,-105.7 434,-86.7 360,-86.7"/>
<text text-anchor="start" x="398.6105" y="-92.8" font-family="Helvetica,sans-Serif" font-size="11.00" fill="#000000">0 rows</text>
<polygon fill="#ffffff" stroke="transparent" points="434,-86.7 434,-105.7 496,-105.7 496,-86.7 434,-86.7"/>
<polygon fill="none" stroke="#000000" points="434,-86.7 434,-105.7 496,-105.7 496,-86.7 434,-86.7"/>
<text text-anchor="start" x="477.4053" y="-92.8" font-family="Helvetica,sans-Serif" font-size="11.00" fill="#000000">0 &gt;</text>
<polygon fill="none" stroke="#000000" stroke-width="2" points="303,-85.7 303,-217.7 497,-217.7 497,-85.7 303,-85.7"/>
</a>
</g>
</g>
<!-- cg_cohort_definition -->
<g id="node2" class="node">
<title>cg_cohort_definition</title>
<g id="a_node2"><a xlink:href="../../tables/cg_cohort_definition.html" xlink:title="cg_cohort_definition" target="_top">
<polygon fill="#ffffff" stroke="transparent" points="43,-142.2 43,-225.2 218,-225.2 218,-142.2 43,-142.2"/>
<polygon fill="#f5f5f5" stroke="transparent" points="43.5,-201.7 43.5,-224.7 218.5,-224.7 218.5,-201.7 43.5,-201.7"/>
<polygon fill="none" stroke="#000000" points="43.5,-201.7 43.5,-224.7 218.5,-224.7 218.5,-201.7 43.5,-201.7"/>
<text text-anchor="start" x="48.5" y="-210.3" font-family="Helvetica,sans-Serif" font-weight="bold" font-size="11.00" fill="#000000">cg_cohort_definition</text>
<text text-anchor="start" x="184.0219" y="-209.8" font-family="Helvetica,sans-Serif" font-size="11.00" fill="#000000">[table]</text>
<polygon fill="none" stroke="#000000" points="43.5,-179.7 43.5,-201.7 218.5,-201.7 218.5,-179.7 43.5,-179.7"/>
<image xlink:href="../../images/primaryKeys.png" width="11px" height="12px" preserveAspectRatio="xMinYMin meet" x="48.5" y="-196.7"/>
<text text-anchor="start" x="72.5" y="-186.8" font-family="Helvetica,sans-Serif" font-size="11.00" fill="#000000">cohort_definition_id</text>
<polygon fill="none" stroke="#000000" points="43.5,-160.7 43.5,-179.7 218.5,-179.7 218.5,-160.7 43.5,-160.7"/>
<text text-anchor="start" x="46.5" y="-166.8" font-family="Helvetica,sans-Serif" font-size="11.00" fill="#000000">...</text>
<polygon fill="#ffffff" stroke="transparent" points="43.5,-141.7 43.5,-160.7 104.5,-160.7 104.5,-141.7 43.5,-141.7"/>
<polygon fill="none" stroke="#000000" points="43.5,-141.7 43.5,-160.7 104.5,-160.7 104.5,-141.7 43.5,-141.7"/>
<text text-anchor="start" x="46.5" y="-147.8" font-family="Helvetica,sans-Serif" font-size="11.00" fill="#000000"> &#160;</text>
<polygon fill="#ffffff" stroke="transparent" points="104.5,-141.7 104.5,-160.7 166.5,-160.7 166.5,-141.7 104.5,-141.7"/>
<polygon fill="none" stroke="#000000" points="104.5,-141.7 104.5,-160.7 166.5,-160.7 166.5,-141.7 104.5,-141.7"/>
<text text-anchor="start" x="131.1105" y="-147.8" font-family="Helvetica,sans-Serif" font-size="11.00" fill="#000000">0 rows</text>
<polygon fill="#ffffff" stroke="transparent" points="166.5,-141.7 166.5,-160.7 218.5,-160.7 218.5,-141.7 166.5,-141.7"/>
<polygon fill="none" stroke="#000000" points="166.5,-141.7 166.5,-160.7 218.5,-160.7 218.5,-141.7 166.5,-141.7"/>
<text text-anchor="start" x="193.7904" y="-147.8" font-family="Helvetica,sans-Serif" font-size="11.00" fill="#000000">17 &gt;</text>
</a>
</g>
</g>
<!-- cg_cohort_count&#45;&gt;cg_cohort_definition -->
<g id="edge1" class="edge">
<title>cg_cohort_count:w&#45;&gt;cg_cohort_definition:e</title>
<path fill="none" stroke="#000000" d="M289.6577,-162.147C261.789,-168.1396 253.4228,-190.7 218.5,-190.7"/>
<polygon fill="#000000" stroke="#000000" points="296.0404,-161.5031 304.3614,-164.2818 300.0202,-161.1015 304,-160.7 304,-160.7 304,-160.7 300.0202,-161.1015 303.6386,-157.1182 296.0404,-161.5031 296.0404,-161.5031"/>
<ellipse fill="none" stroke="#000000" cx="292.8566" cy="-161.8243" rx="3.2" ry="3.2"/>
</g>
<!-- database_meta_data -->
<g id="node3" class="node">
<title>database_meta_data</title>
<g id="a_node3"><a xlink:href="../../tables/database_meta_data.html" xlink:title="database_meta_data" target="_top">
<polygon fill="#ffffff" stroke="transparent" points="8,-38.2 8,-121.2 253,-121.2 253,-38.2 8,-38.2"/>
<polygon fill="#f5f5f5" stroke="transparent" points="8.5,-97.7 8.5,-120.7 253.5,-120.7 253.5,-97.7 8.5,-97.7"/>
<polygon fill="none" stroke="#000000" points="8.5,-97.7 8.5,-120.7 253.5,-120.7 253.5,-97.7 8.5,-97.7"/>
<text text-anchor="start" x="13.5" y="-106.3" font-family="Helvetica,sans-Serif" font-weight="bold" font-size="11.00" fill="#000000">database_meta_data</text>
<text text-anchor="start" x="218.5437" y="-105.8" font-family="Helvetica,sans-Serif" font-size="11.00" fill="#000000">[table]</text>
<polygon fill="none" stroke="#000000" points="8.5,-75.7 8.5,-97.7 253.5,-97.7 253.5,-75.7 8.5,-75.7"/>
<image xlink:href="../../images/primaryKeys.png" width="11px" height="12px" preserveAspectRatio="xMinYMin meet" x="13.5" y="-92.7"/>
<text text-anchor="start" x="28.5" y="-82.8" font-family="Helvetica,sans-Serif" font-size="11.00" fill="#000000">database_id</text>
<polygon fill="none" stroke="#000000" points="8.5,-56.7 8.5,-75.7 253.5,-75.7 253.5,-56.7 8.5,-56.7"/>
<text text-anchor="start" x="11.5" y="-62.8" font-family="Helvetica,sans-Serif" font-size="11.00" fill="#000000">...</text>
<polygon fill="#ffffff" stroke="transparent" points="8.5,-37.7 8.5,-56.7 108.5,-56.7 108.5,-37.7 8.5,-37.7"/>
<polygon fill="none" stroke="#000000" points="8.5,-37.7 8.5,-56.7 108.5,-56.7 108.5,-37.7 8.5,-37.7"/>
<text text-anchor="start" x="11.5" y="-43.8" font-family="Helvetica,sans-Serif" font-size="11.00" fill="#000000">&lt; 1</text>
<polygon fill="#ffffff" stroke="transparent" points="108.5,-37.7 108.5,-56.7 186.5,-56.7 186.5,-37.7 108.5,-37.7"/>
<polygon fill="none" stroke="#000000" points="108.5,-37.7 108.5,-56.7 186.5,-56.7 186.5,-37.7 108.5,-37.7"/>
<text text-anchor="start" x="151.1105" y="-43.8" font-family="Helvetica,sans-Serif" font-size="11.00" fill="#000000">0 rows</text>
<polygon fill="#ffffff" stroke="transparent" points="186.5,-37.7 186.5,-56.7 253.5,-56.7 253.5,-37.7 186.5,-37.7"/>
<polygon fill="none" stroke="#000000" points="186.5,-37.7 186.5,-56.7 253.5,-56.7 253.5,-37.7 186.5,-37.7"/>
<text text-anchor="start" x="228.7904" y="-43.8" font-family="Helvetica,sans-Serif" font-size="11.00" fill="#000000">17 &gt;</text>
</a>
</g>
</g>
<!-- cg_cohort_count&#45;&gt;database_meta_data -->
<g id="edge2" class="edge">
<title>cg_cohort_count:w&#45;&gt;database_meta_data:e</title>
<path fill="none" stroke="#000000" d="M289.8928,-112.778C277.2418,-104.6462 273.6915,-86.7 253.5,-86.7"/>
<polygon fill="#000000" stroke="#000000" points="296.2923,-114.5571 303.0357,-120.1685 300.1462,-115.6286 304,-116.7 304,-116.7 304,-116.7 300.1462,-115.6286 304.9643,-113.2315 296.2923,-114.5571 296.2923,-114.5571"/>
<ellipse fill="none" stroke="#000000" cx="293.2092" cy="-113.7" rx="3.2" ry="3.2"/>
</g>
</g>
</svg>
