<?xml version="1.0" encoding="UTF-8" standalone="no"?>
<!DOCTYPE svg PUBLIC "-//W3C//DTD SVG 1.1//EN"
 "http://www.w3.org/Graphics/SVG/1.1/DTD/svg11.dtd">
<!-- Generated by graphviz version 2.40.1 (20161225.0304)
 -->
<!-- Title: oneDegreeRelationshipsDiagram Pages: 1 -->
<svg width="578pt" height="237pt"
 viewBox="0.00 0.00 578.00 237.20" xmlns="http://www.w3.org/2000/svg" xmlns:xlink="http://www.w3.org/1999/xlink">
<g id="graph0" class="graph" transform="scale(1 1) rotate(0) translate(4 233.2)">
<title>oneDegreeRelationshipsDiagram</title>
<polygon fill="#ffffff" stroke="transparent" points="-4,4 -4,-233.2 574,-233.2 574,4 -4,4"/>
<text text-anchor="middle" x="72.4936" y="-7.3" font-family="Helvetica,sans-Serif" font-size="11.00" fill="#000000">Generated by SchemaSpy</text>
<!-- cg_cohort_summary_stats -->
<g id="node1" class="node">
<title>cg_cohort_summary_stats</title>
<g id="a_node1"><a xlink:href="../../tables/cg_cohort_summary_stats.html" xlink:title="cg_cohort_summary_stats" target="_top">
<polygon fill="#ffffff" stroke="transparent" points="302,-51.7 302,-207.7 562,-207.7 562,-51.7 302,-51.7"/>
<polygon fill="#f5f5f5" stroke="transparent" points="304,-182.7 304,-205.7 560,-205.7 560,-182.7 304,-182.7"/>
<polygon fill="none" stroke="#000000" points="304,-182.7 304,-205.7 560,-205.7 560,-182.7 304,-182.7"/>
<text text-anchor="start" x="309" y="-191.3" font-family="Helvetica,sans-Serif" font-weight="bold" font-size="11.00" fill="#000000">cg_cohort_summary_stats</text>
<text text-anchor="start" x="525.0437" y="-190.8" font-family="Helvetica,sans-Serif" font-size="11.00" fill="#000000">[table]</text>
<polygon fill="none" stroke="#000000" points="304,-160.7 304,-182.7 498,-182.7 498,-160.7 304,-160.7"/>
<text text-anchor="start" x="324" y="-167.8" font-family="Helvetica,sans-Serif" font-size="11.00" fill="#000000">base_count</text>
<polygon fill="none" stroke="#000000" points="498,-160.7 498,-182.7 560,-182.7 560,-160.7 498,-160.7"/>
<text text-anchor="start" x="500.878" y="-168.4" font-family="Helvetica,sans-Serif" font-size="11.00" fill="#000000">unknown[0]</text>
<polygon fill="none" stroke="#000000" points="304,-138.7 304,-160.7 498,-160.7 498,-138.7 304,-138.7"/>
<image xlink:href="../../images/foreignKeys.png" width="11px" height="12px" preserveAspectRatio="xMinYMin meet" x="309" y="-155.7"/>
<text text-anchor="start" x="324" y="-145.8" font-family="Helvetica,sans-Serif" font-size="11.00" fill="#000000">cohort_definition_id</text>
<polygon fill="none" stroke="#000000" points="498,-138.7 498,-160.7 560,-160.7 560,-138.7 498,-138.7"/>
<text text-anchor="start" x="500.878" y="-146.4" font-family="Helvetica,sans-Serif" font-size="11.00" fill="#000000">unknown[0]</text>
<polygon fill="none" stroke="#000000" points="304,-116.7 304,-138.7 498,-138.7 498,-116.7 304,-116.7"/>
<image xlink:href="../../images/foreignKeys.png" width="11px" height="12px" preserveAspectRatio="xMinYMin meet" x="309" y="-133.7"/>
<text text-anchor="start" x="324" y="-123.8" font-family="Helvetica,sans-Serif" font-size="11.00" fill="#000000">database_id</text>
<polygon fill="none" stroke="#000000" points="498,-116.7 498,-138.7 560,-138.7 560,-116.7 498,-116.7"/>
<text text-anchor="start" x="500.878" y="-124.4" font-family="Helvetica,sans-Serif" font-size="11.00" fill="#000000">unknown[0]</text>
<polygon fill="none" stroke="#000000" points="304,-94.7 304,-116.7 498,-116.7 498,-94.7 304,-94.7"/>
<text text-anchor="start" x="324" y="-101.8" font-family="Helvetica,sans-Serif" font-size="11.00" fill="#000000">final_count</text>
<polygon fill="none" stroke="#000000" points="498,-94.7 498,-116.7 560,-116.7 560,-94.7 498,-94.7"/>
<text text-anchor="start" x="500.878" y="-102.4" font-family="Helvetica,sans-Serif" font-size="11.00" fill="#000000">unknown[0]</text>
<polygon fill="none" stroke="#000000" points="304,-72.7 304,-94.7 498,-94.7 498,-72.7 304,-72.7"/>
<text text-anchor="start" x="324" y="-79.8" font-family="Helvetica,sans-Serif" font-size="11.00" fill="#000000">mode_id</text>
<polygon fill="none" stroke="#000000" points="498,-72.7 498,-94.7 560,-94.7 560,-72.7 498,-72.7"/>
<text text-anchor="start" x="500.878" y="-80.4" font-family="Helvetica,sans-Serif" font-size="11.00" fill="#000000">unknown[0]</text>
<polygon fill="#ffffff" stroke="transparent" points="304,-53.7 304,-72.7 392,-72.7 392,-53.7 304,-53.7"/>
<polygon fill="none" stroke="#000000" points="304,-53.7 304,-72.7 392,-72.7 392,-53.7 304,-53.7"/>
<text text-anchor="start" x="307" y="-59.8" font-family="Helvetica,sans-Serif" font-size="11.00" fill="#000000">&lt; 2</text>
<polygon fill="#ffffff" stroke="transparent" points="392,-53.7 392,-72.7 498,-72.7 498,-53.7 392,-53.7"/>
<polygon fill="none" stroke="#000000" points="392,-53.7 392,-72.7 498,-72.7 498,-53.7 392,-53.7"/>
<text text-anchor="start" x="462.6105" y="-59.8" font-family="Helvetica,sans-Serif" font-size="11.00" fill="#000000">0 rows</text>
<polygon fill="#ffffff" stroke="transparent" points="498,-53.7 498,-72.7 560,-72.7 560,-53.7 498,-53.7"/>
<polygon fill="none" stroke="#000000" points="498,-53.7 498,-72.7 560,-72.7 560,-53.7 498,-53.7"/>
<text text-anchor="start" x="541.4053" y="-59.8" font-family="Helvetica,sans-Serif" font-size="11.00" fill="#000000">0 &gt;</text>
<polygon fill="none" stroke="#000000" stroke-width="2" points="303,-52.7 303,-206.7 561,-206.7 561,-52.7 303,-52.7"/>
</a>
</g>
</g>
<!-- cg_cohort_definition -->
<g id="node2" class="node">
<title>cg_cohort_definition</title>
<g id="a_node2"><a xlink:href="../../tables/cg_cohort_definition.html" xlink:title="cg_cohort_definition" target="_top">
<polygon fill="#ffffff" stroke="transparent" points="43,-142.2 43,-225.2 218,-225.2 218,-142.2 43,-142.2"/>
<polygon fill="#f5f5f5" stroke="transparent" points="43.5,-201.7 43.5,-224.7 218.5,-224.7 218.5,-201.7 43.5,-201.7"/>
<polygon fill="none" stroke="#000000" points="43.5,-201.7 43.5,-224.7 218.5,-224.7 218.5,-201.7 43.5,-201.7"/>
<text text-anchor="start" x="48.5" y="-210.3" font-family="Helvetica,sans-Serif" font-weight="bold" font-size="11.00" fill="#000000">cg_cohort_definition</text>
<text text-anchor="start" x="184.0219" y="-209.8" font-family="Helvetica,sans-Serif" font-size="11.00" fill="#000000">[table]</text>
<polygon fill="none" stroke="#000000" points="43.5,-179.7 43.5,-201.7 218.5,-201.7 218.5,-179.7 43.5,-179.7"/>
<image xlink:href="../../images/primaryKeys.png" width="11px" height="12px" preserveAspectRatio="xMinYMin meet" x="48.5" y="-196.7"/>
<text text-anchor="start" x="72.5" y="-186.8" font-family="Helvetica,sans-Serif" font-size="11.00" fill="#000000">cohort_definition_id</text>
<polygon fill="none" stroke="#000000" points="43.5,-160.7 43.5,-179.7 218.5,-179.7 218.5,-160.7 43.5,-160.7"/>
<text text-anchor="start" x="46.5" y="-166.8" font-family="Helvetica,sans-Serif" font-size="11.00" fill="#000000">...</text>
<polygon fill="#ffffff" stroke="transparent" points="43.5,-141.7 43.5,-160.7 104.5,-160.7 104.5,-141.7 43.5,-141.7"/>
<polygon fill="none" stroke="#000000" points="43.5,-141.7 43.5,-160.7 104.5,-160.7 104.5,-141.7 43.5,-141.7"/>
<text text-anchor="start" x="46.5" y="-147.8" font-family="Helvetica,sans-Serif" font-size="11.00" fill="#000000"> &#160;</text>
<polygon fill="#ffffff" stroke="transparent" points="104.5,-141.7 104.5,-160.7 166.5,-160.7 166.5,-141.7 104.5,-141.7"/>
<polygon fill="none" stroke="#000000" points="104.5,-141.7 104.5,-160.7 166.5,-160.7 166.5,-141.7 104.5,-141.7"/>
<text text-anchor="start" x="131.1105" y="-147.8" font-family="Helvetica,sans-Serif" font-size="11.00" fill="#000000">0 rows</text>
<polygon fill="#ffffff" stroke="transparent" points="166.5,-141.7 166.5,-160.7 218.5,-160.7 218.5,-141.7 166.5,-141.7"/>
<polygon fill="none" stroke="#000000" points="166.5,-141.7 166.5,-160.7 218.5,-160.7 218.5,-141.7 166.5,-141.7"/>
<text text-anchor="start" x="193.7904" y="-147.8" font-family="Helvetica,sans-Serif" font-size="11.00" fill="#000000">17 &gt;</text>
</a>
</g>
</g>
<!-- cg_cohort_summary_stats&#45;&gt;cg_cohort_definition -->
<g id="edge1" class="edge">
<title>cg_cohort_summary_stats:w&#45;&gt;cg_cohort_definition:e</title>
<path fill="none" stroke="#000000" d="M289.5675,-151.5682C260.8638,-159.589 255.2107,-190.7 218.5,-190.7"/>
<polygon fill="#000000" stroke="#000000" points="296.0662,-150.727 304.4622,-153.2702 300.0331,-150.2135 304,-149.7 304,-149.7 304,-149.7 300.0331,-150.2135 303.5378,-146.1298 296.0662,-150.727 296.0662,-150.727"/>
<ellipse fill="none" stroke="#000000" cx="292.8927" cy="-151.1379" rx="3.2" ry="3.2"/>
</g>
<!-- database_meta_data -->
<g id="node3" class="node">
<title>database_meta_data</title>
<g id="a_node3"><a xlink:href="../../tables/database_meta_data.html" xlink:title="database_meta_data" target="_top">
<polygon fill="#ffffff" stroke="transparent" points="8,-38.2 8,-121.2 253,-121.2 253,-38.2 8,-38.2"/>
<polygon fill="#f5f5f5" stroke="transparent" points="8.5,-97.7 8.5,-120.7 253.5,-120.7 253.5,-97.7 8.5,-97.7"/>
<polygon fill="none" stroke="#000000" points="8.5,-97.7 8.5,-120.7 253.5,-120.7 253.5,-97.7 8.5,-97.7"/>
<text text-anchor="start" x="13.5" y="-106.3" font-family="Helvetica,sans-Serif" font-weight="bold" font-size="11.00" fill="#000000">database_meta_data</text>
<text text-anchor="start" x="218.5437" y="-105.8" font-family="Helvetica,sans-Serif" font-size="11.00" fill="#000000">[table]</text>
<polygon fill="none" stroke="#000000" points="8.5,-75.7 8.5,-97.7 253.5,-97.7 253.5,-75.7 8.5,-75.7"/>
<image xlink:href="../../images/primaryKeys.png" width="11px" height="12px" preserveAspectRatio="xMinYMin meet" x="13.5" y="-92.7"/>
<text text-anchor="start" x="28.5" y="-82.8" font-family="Helvetica,sans-Serif" font-size="11.00" fill="#000000">database_id</text>
<polygon fill="none" stroke="#000000" points="8.5,-56.7 8.5,-75.7 253.5,-75.7 253.5,-56.7 8.5,-56.7"/>
<text text-anchor="start" x="11.5" y="-62.8" font-family="Helvetica,sans-Serif" font-size="11.00" fill="#000000">...</text>
<polygon fill="#ffffff" stroke="transparent" points="8.5,-37.7 8.5,-56.7 108.5,-56.7 108.5,-37.7 8.5,-37.7"/>
<polygon fill="none" stroke="#000000" points="8.5,-37.7 8.5,-56.7 108.5,-56.7 108.5,-37.7 8.5,-37.7"/>
<text text-anchor="start" x="11.5" y="-43.8" font-family="Helvetica,sans-Serif" font-size="11.00" fill="#000000">&lt; 1</text>
<polygon fill="#ffffff" stroke="transparent" points="108.5,-37.7 108.5,-56.7 186.5,-56.7 186.5,-37.7 108.5,-37.7"/>
<polygon fill="none" stroke="#000000" points="108.5,-37.7 108.5,-56.7 186.5,-56.7 186.5,-37.7 108.5,-37.7"/>
<text text-anchor="start" x="151.1105" y="-43.8" font-family="Helvetica,sans-Serif" font-size="11.00" fill="#000000">0 rows</text>
<polygon fill="#ffffff" stroke="transparent" points="186.5,-37.7 186.5,-56.7 253.5,-56.7 253.5,-37.7 186.5,-37.7"/>
<polygon fill="none" stroke="#000000" points="186.5,-37.7 186.5,-56.7 253.5,-56.7 253.5,-37.7 186.5,-37.7"/>
<text text-anchor="start" x="228.7904" y="-43.8" font-family="Helvetica,sans-Serif" font-size="11.00" fill="#000000">17 &gt;</text>
</a>
</g>
</g>
<!-- cg_cohort_summary_stats&#45;&gt;database_meta_data -->
<g id="edge2" class="edge">
<title>cg_cohort_summary_stats:w&#45;&gt;database_meta_data:e</title>
<path fill="none" stroke="#000000" d="M290.2601,-123.3123C276.5688,-112.7354 276.5379,-86.7 253.5,-86.7"/>
<polygon fill="#000000" stroke="#000000" points="296.3792,-125.2663 302.9048,-131.1294 300.1896,-126.4832 304,-127.7 304,-127.7 304,-127.7 300.1896,-126.4832 305.0952,-124.2706 296.3792,-125.2663 296.3792,-125.2663"/>
<ellipse fill="none" stroke="#000000" cx="293.3308" cy="-124.2928" rx="3.2" ry="3.2"/>
</g>
</g>
</svg>
