<?xml version="1.0" encoding="UTF-8" standalone="no"?>
<!DOCTYPE svg PUBLIC "-//W3C//DTD SVG 1.1//EN"
 "http://www.w3.org/Graphics/SVG/1.1/DTD/svg11.dtd">
<!-- Generated by graphviz version 2.40.1 (20161225.0304)
 -->
<!-- Title: oneDegreeRelationshipsDiagram Pages: 1 -->
<svg width="280pt" height="184pt"
 viewBox="0.00 0.00 280.00 184.20" xmlns="http://www.w3.org/2000/svg" xmlns:xlink="http://www.w3.org/1999/xlink">
<g id="graph0" class="graph" transform="scale(1 1) rotate(0) translate(4 180.2)">
<title>oneDegreeRelationshipsDiagram</title>
<polygon fill="#ffffff" stroke="transparent" points="-4,4 -4,-180.2 276,-180.2 276,4 -4,4"/>
<text text-anchor="middle" x="72.4936" y="-7.3" font-family="Helvetica,sans-Serif" font-size="11.00" fill="#000000">Generated by SchemaSpy</text>
<!-- cg_cohort_count_neg_ctrl -->
<g id="node1" class="node">
<title>cg_cohort_count_neg_ctrl</title>
<g id="a_node1"><a xlink:href="../../tables/cg_cohort_count_neg_ctrl.html" xlink:title="cg_cohort_count_neg_ctrl" target="_top">
<polygon fill="#ffffff" stroke="transparent" points="8,-38.2 8,-172.2 264,-172.2 264,-38.2 8,-38.2"/>
<polygon fill="#f5f5f5" stroke="transparent" points="10,-147.2 10,-170.2 262,-170.2 262,-147.2 10,-147.2"/>
<polygon fill="none" stroke="#000000" points="10,-147.2 10,-170.2 262,-170.2 262,-147.2 10,-147.2"/>
<text text-anchor="start" x="15" y="-155.8" font-family="Helvetica,sans-Serif" font-weight="bold" font-size="11.00" fill="#000000">cg_cohort_count_neg_ctrl</text>
<text text-anchor="start" x="227.0437" y="-155.3" font-family="Helvetica,sans-Serif" font-size="11.00" fill="#000000">[table]</text>
<polygon fill="none" stroke="#000000" points="10,-125.2 10,-147.2 200,-147.2 200,-125.2 10,-125.2"/>
<text text-anchor="start" x="30" y="-132.3" font-family="Helvetica,sans-Serif" font-size="11.00" fill="#000000">cohort_entries</text>
<polygon fill="none" stroke="#000000" points="200,-125.2 200,-147.2 262,-147.2 262,-125.2 200,-125.2"/>
<text text-anchor="start" x="202.878" y="-132.9" font-family="Helvetica,sans-Serif" font-size="11.00" fill="#000000">unknown[0]</text>
<polygon fill="none" stroke="#000000" points="10,-103.2 10,-125.2 200,-125.2 200,-103.2 10,-103.2"/>
<text text-anchor="start" x="30" y="-110.3" font-family="Helvetica,sans-Serif" font-size="11.00" fill="#000000">cohort_id</text>
<polygon fill="none" stroke="#000000" points="200,-103.2 200,-125.2 262,-125.2 262,-103.2 200,-103.2"/>
<text text-anchor="start" x="202.878" y="-110.9" font-family="Helvetica,sans-Serif" font-size="11.00" fill="#000000">unknown[0]</text>
<polygon fill="none" stroke="#000000" points="10,-81.2 10,-103.2 200,-103.2 200,-81.2 10,-81.2"/>
<text text-anchor="start" x="30" y="-88.3" font-family="Helvetica,sans-Serif" font-size="11.00" fill="#000000">cohort_subjects</text>
<polygon fill="none" stroke="#000000" points="200,-81.2 200,-103.2 262,-103.2 262,-81.2 200,-81.2"/>
<text text-anchor="start" x="202.878" y="-88.9" font-family="Helvetica,sans-Serif" font-size="11.00" fill="#000000">unknown[0]</text>
<polygon fill="none" stroke="#000000" points="10,-59.2 10,-81.2 200,-81.2 200,-59.2 10,-59.2"/>
<text text-anchor="start" x="30" y="-66.3" font-family="Helvetica,sans-Serif" font-size="11.00" fill="#000000">database_id</text>
<polygon fill="none" stroke="#000000" points="200,-59.2 200,-81.2 262,-81.2 262,-59.2 200,-59.2"/>
<text text-anchor="start" x="202.878" y="-66.9" font-family="Helvetica,sans-Serif" font-size="11.00" fill="#000000">unknown[0]</text>
<polygon fill="#ffffff" stroke="transparent" points="10,-40.2 10,-59.2 96,-59.2 96,-40.2 10,-40.2"/>
<polygon fill="none" stroke="#000000" points="10,-40.2 10,-59.2 96,-59.2 96,-40.2 10,-40.2"/>
<text text-anchor="start" x="13" y="-46.3" font-family="Helvetica,sans-Serif" font-size="11.00" fill="#000000">&lt; 0</text>
<polygon fill="#ffffff" stroke="transparent" points="96,-40.2 96,-59.2 200,-59.2 200,-40.2 96,-40.2"/>
<polygon fill="none" stroke="#000000" points="96,-40.2 96,-59.2 200,-59.2 200,-40.2 96,-40.2"/>
<text text-anchor="start" x="164.6105" y="-46.3" font-family="Helvetica,sans-Serif" font-size="11.00" fill="#000000">0 rows</text>
<polygon fill="#ffffff" stroke="transparent" points="200,-40.2 200,-59.2 262,-59.2 262,-40.2 200,-40.2"/>
<polygon fill="none" stroke="#000000" points="200,-40.2 200,-59.2 262,-59.2 262,-40.2 200,-40.2"/>
<text text-anchor="start" x="243.4053" y="-46.3" font-family="Helvetica,sans-Serif" font-size="11.00" fill="#000000">0 &gt;</text>
<polygon fill="none" stroke="#000000" stroke-width="2" points="9,-39.2 9,-171.2 263,-171.2 263,-39.2 9,-39.2"/>
</a>
</g>
</g>
</g>
</svg>
