<?xml version="1.0" encoding="UTF-8" standalone="no"?>
<!DOCTYPE svg PUBLIC "-//W3C//DTD SVG 1.1//EN"
 "http://www.w3.org/Graphics/SVG/1.1/DTD/svg11.dtd">
<!-- Generated by graphviz version 2.40.1 (20161225.0304)
 -->
<!-- Title: oneDegreeRelationshipsDiagram Pages: 1 -->
<svg width="468pt" height="184pt"
 viewBox="0.00 0.00 468.00 184.20" xmlns="http://www.w3.org/2000/svg" xmlns:xlink="http://www.w3.org/1999/xlink">
<g id="graph0" class="graph" transform="scale(1 1) rotate(0) translate(4 180.2)">
<title>oneDegreeRelationshipsDiagram</title>
<polygon fill="#ffffff" stroke="transparent" points="-4,4 -4,-180.2 464,-180.2 464,4 -4,4"/>
<text text-anchor="middle" x="72.4936" y="-7.3" font-family="Helvetica,sans-Serif" font-size="11.00" fill="#000000">Generated by SchemaSpy</text>
<!-- cg_cohort_inclusion -->
<g id="node1" class="node">
<title>cg_cohort_inclusion</title>
<g id="a_node1"><a xlink:href="../../tables/cg_cohort_inclusion.html" xlink:title="cg_cohort_inclusion" target="_top">
<polygon fill="#ffffff" stroke="transparent" points="232,-38.2 232,-172.2 452,-172.2 452,-38.2 232,-38.2"/>
<polygon fill="#f5f5f5" stroke="transparent" points="234,-147.2 234,-170.2 450,-170.2 450,-147.2 234,-147.2"/>
<polygon fill="none" stroke="#000000" points="234,-147.2 234,-170.2 450,-170.2 450,-147.2 234,-147.2"/>
<text text-anchor="start" x="239" y="-155.8" font-family="Helvetica,sans-Serif" font-weight="bold" font-size="11.00" fill="#000000">cg_cohort_inclusion</text>
<text text-anchor="start" x="415.0437" y="-155.3" font-family="Helvetica,sans-Serif" font-size="11.00" fill="#000000">[table]</text>
<polygon fill="none" stroke="#000000" points="234,-125.2 234,-147.2 388,-147.2 388,-125.2 234,-125.2"/>
<image xlink:href="../../images/foreignKeys.png" width="11px" height="12px" preserveAspectRatio="xMinYMin meet" x="239" y="-142.2"/>
<text text-anchor="start" x="254" y="-132.3" font-family="Helvetica,sans-Serif" font-size="11.00" fill="#000000">cohort_definition_id</text>
<polygon fill="none" stroke="#000000" points="388,-125.2 388,-147.2 450,-147.2 450,-125.2 388,-125.2"/>
<text text-anchor="start" x="390.878" y="-132.9" font-family="Helvetica,sans-Serif" font-size="11.00" fill="#000000">unknown[0]</text>
<polygon fill="none" stroke="#000000" points="234,-103.2 234,-125.2 388,-125.2 388,-103.2 234,-103.2"/>
<text text-anchor="start" x="254" y="-110.3" font-family="Helvetica,sans-Serif" font-size="11.00" fill="#000000">description</text>
<polygon fill="none" stroke="#000000" points="388,-103.2 388,-125.2 450,-125.2 450,-103.2 388,-103.2"/>
<text text-anchor="start" x="390.878" y="-110.9" font-family="Helvetica,sans-Serif" font-size="11.00" fill="#000000">unknown[0]</text>
<polygon fill="none" stroke="#000000" points="234,-81.2 234,-103.2 388,-103.2 388,-81.2 234,-81.2"/>
<text text-anchor="start" x="254" y="-88.3" font-family="Helvetica,sans-Serif" font-size="11.00" fill="#000000">name</text>
<polygon fill="none" stroke="#000000" points="388,-81.2 388,-103.2 450,-103.2 450,-81.2 388,-81.2"/>
<text text-anchor="start" x="390.878" y="-88.9" font-family="Helvetica,sans-Serif" font-size="11.00" fill="#000000">unknown[0]</text>
<polygon fill="none" stroke="#000000" points="234,-59.2 234,-81.2 388,-81.2 388,-59.2 234,-59.2"/>
<text text-anchor="start" x="254" y="-66.3" font-family="Helvetica,sans-Serif" font-size="11.00" fill="#000000">rule_sequence</text>
<polygon fill="none" stroke="#000000" points="388,-59.2 388,-81.2 450,-81.2 450,-59.2 388,-59.2"/>
<text text-anchor="start" x="390.878" y="-66.9" font-family="Helvetica,sans-Serif" font-size="11.00" fill="#000000">unknown[0]</text>
<polygon fill="#ffffff" stroke="transparent" points="234,-40.2 234,-59.2 302,-59.2 302,-40.2 234,-40.2"/>
<polygon fill="none" stroke="#000000" points="234,-40.2 234,-59.2 302,-59.2 302,-40.2 234,-40.2"/>
<text text-anchor="start" x="237" y="-46.3" font-family="Helvetica,sans-Serif" font-size="11.00" fill="#000000">&lt; 1</text>
<polygon fill="#ffffff" stroke="transparent" points="302,-40.2 302,-59.2 388,-59.2 388,-40.2 302,-40.2"/>
<polygon fill="none" stroke="#000000" points="302,-40.2 302,-59.2 388,-59.2 388,-40.2 302,-40.2"/>
<text text-anchor="start" x="352.6105" y="-46.3" font-family="Helvetica,sans-Serif" font-size="11.00" fill="#000000">0 rows</text>
<polygon fill="#ffffff" stroke="transparent" points="388,-40.2 388,-59.2 450,-59.2 450,-40.2 388,-40.2"/>
<polygon fill="none" stroke="#000000" points="388,-40.2 388,-59.2 450,-59.2 450,-40.2 388,-40.2"/>
<text text-anchor="start" x="431.4053" y="-46.3" font-family="Helvetica,sans-Serif" font-size="11.00" fill="#000000">0 &gt;</text>
<polygon fill="none" stroke="#000000" stroke-width="2" points="233,-39.2 233,-171.2 451,-171.2 451,-39.2 233,-39.2"/>
</a>
</g>
</g>
<!-- cg_cohort_definition -->
<g id="node2" class="node">
<title>cg_cohort_definition</title>
<g id="a_node2"><a xlink:href="../../tables/cg_cohort_definition.html" xlink:title="cg_cohort_definition" target="_top">
<polygon fill="#ffffff" stroke="transparent" points="8,-87.7 8,-170.7 183,-170.7 183,-87.7 8,-87.7"/>
<polygon fill="#f5f5f5" stroke="transparent" points="8.5,-147.2 8.5,-170.2 183.5,-170.2 183.5,-147.2 8.5,-147.2"/>
<polygon fill="none" stroke="#000000" points="8.5,-147.2 8.5,-170.2 183.5,-170.2 183.5,-147.2 8.5,-147.2"/>
<text text-anchor="start" x="13.5" y="-155.8" font-family="Helvetica,sans-Serif" font-weight="bold" font-size="11.00" fill="#000000">cg_cohort_definition</text>
<text text-anchor="start" x="149.0219" y="-155.3" font-family="Helvetica,sans-Serif" font-size="11.00" fill="#000000">[table]</text>
<polygon fill="none" stroke="#000000" points="8.5,-125.2 8.5,-147.2 183.5,-147.2 183.5,-125.2 8.5,-125.2"/>
<image xlink:href="../../images/primaryKeys.png" width="11px" height="12px" preserveAspectRatio="xMinYMin meet" x="13.5" y="-142.2"/>
<text text-anchor="start" x="37.5" y="-132.3" font-family="Helvetica,sans-Serif" font-size="11.00" fill="#000000">cohort_definition_id</text>
<polygon fill="none" stroke="#000000" points="8.5,-106.2 8.5,-125.2 183.5,-125.2 183.5,-106.2 8.5,-106.2"/>
<text text-anchor="start" x="11.5" y="-112.3" font-family="Helvetica,sans-Serif" font-size="11.00" fill="#000000">...</text>
<polygon fill="#ffffff" stroke="transparent" points="8.5,-87.2 8.5,-106.2 69.5,-106.2 69.5,-87.2 8.5,-87.2"/>
<polygon fill="none" stroke="#000000" points="8.5,-87.2 8.5,-106.2 69.5,-106.2 69.5,-87.2 8.5,-87.2"/>
<text text-anchor="start" x="11.5" y="-93.3" font-family="Helvetica,sans-Serif" font-size="11.00" fill="#000000"> &#160;</text>
<polygon fill="#ffffff" stroke="transparent" points="69.5,-87.2 69.5,-106.2 131.5,-106.2 131.5,-87.2 69.5,-87.2"/>
<polygon fill="none" stroke="#000000" points="69.5,-87.2 69.5,-106.2 131.5,-106.2 131.5,-87.2 69.5,-87.2"/>
<text text-anchor="start" x="96.1105" y="-93.3" font-family="Helvetica,sans-Serif" font-size="11.00" fill="#000000">0 rows</text>
<polygon fill="#ffffff" stroke="transparent" points="131.5,-87.2 131.5,-106.2 183.5,-106.2 183.5,-87.2 131.5,-87.2"/>
<polygon fill="none" stroke="#000000" points="131.5,-87.2 131.5,-106.2 183.5,-106.2 183.5,-87.2 131.5,-87.2"/>
<text text-anchor="start" x="158.7904" y="-93.3" font-family="Helvetica,sans-Serif" font-size="11.00" fill="#000000">17 &gt;</text>
</a>
</g>
</g>
<!-- cg_cohort_inclusion&#45;&gt;cg_cohort_definition -->
<g id="edge1" class="edge">
<title>cg_cohort_inclusion:w&#45;&gt;cg_cohort_definition:e</title>
<path fill="none" stroke="#000000" d="M219.4203,-136.2C207.5435,-136.2 200.158,-136.2 183.5,-136.2"/>
<polygon fill="#000000" stroke="#000000" points="226,-136.2001 234,-139.8 230,-136.2 234,-136.2 234,-136.2 234,-136.2 230,-136.2 234,-132.6 226,-136.2001 226,-136.2001"/>
<ellipse fill="none" stroke="#000000" cx="222.8" cy="-136.2001" rx="3.2" ry="3.2"/>
</g>
</g>
</svg>
