<?xml version="1.0" encoding="UTF-8" standalone="no"?>
<!DOCTYPE svg PUBLIC "-//W3C//DTD SVG 1.1//EN"
 "http://www.w3.org/Graphics/SVG/1.1/DTD/svg11.dtd">
<!-- Generated by graphviz version 2.40.1 (20161225.0304)
 -->
<!-- Title: twoDegreesRelationshipsDiagram Pages: 1 -->
<svg width="1273pt" height="1360pt"
 viewBox="0.00 0.00 1273.00 1360.10" xmlns="http://www.w3.org/2000/svg" xmlns:xlink="http://www.w3.org/1999/xlink">
<g id="graph0" class="graph" transform="scale(1 1) rotate(0) translate(4 1356.1043)">
<title>twoDegreesRelationshipsDiagram</title>
<polygon fill="#ffffff" stroke="transparent" points="-4,4 -4,-1356.1043 1269,-1356.1043 1269,4 -4,4"/>
<text text-anchor="middle" x="72.4936" y="-7.3" font-family="Helvetica,sans-Serif" font-size="11.00" fill="#000000">Generated by SchemaSpy</text>
<!-- c_cohort_details -->
<g id="node1" class="node">
<title>c_cohort_details</title>
<g id="a_node1"><a xlink:href="../../tables/c_cohort_details.html" xlink:title="c_cohort_details" target="_top">
<polygon fill="#ffffff" stroke="transparent" points="243.5,-796.1043 243.5,-857.1043 390.5,-857.1043 390.5,-796.1043 243.5,-796.1043"/>
<polygon fill="#f5f5f5" stroke="transparent" points="244,-833.6043 244,-856.6043 391,-856.6043 391,-833.6043 244,-833.6043"/>
<polygon fill="none" stroke="#000000" points="244,-833.6043 244,-856.6043 391,-856.6043 391,-833.6043 244,-833.6043"/>
<text text-anchor="start" x="249" y="-842.2043" font-family="Helvetica,sans-Serif" font-weight="bold" font-size="11.00" fill="#000000">c_cohort_details</text>
<text text-anchor="start" x="356.5219" y="-841.7043" font-family="Helvetica,sans-Serif" font-size="11.00" fill="#000000">[table]</text>
<polygon fill="none" stroke="#000000" points="244,-814.6043 244,-833.6043 391,-833.6043 391,-814.6043 244,-814.6043"/>
<text text-anchor="start" x="247" y="-820.7043" font-family="Helvetica,sans-Serif" font-size="11.00" fill="#000000">...</text>
<polygon fill="#ffffff" stroke="transparent" points="244,-795.6043 244,-814.6043 298,-814.6043 298,-795.6043 244,-795.6043"/>
<polygon fill="none" stroke="#000000" points="244,-795.6043 244,-814.6043 298,-814.6043 298,-795.6043 244,-795.6043"/>
<text text-anchor="start" x="247" y="-801.7043" font-family="Helvetica,sans-Serif" font-size="11.00" fill="#000000">&lt; 2</text>
<polygon fill="#ffffff" stroke="transparent" points="298,-795.6043 298,-814.6043 353,-814.6043 353,-795.6043 298,-795.6043"/>
<polygon fill="none" stroke="#000000" points="298,-795.6043 298,-814.6043 353,-814.6043 353,-795.6043 298,-795.6043"/>
<text text-anchor="start" x="317.6105" y="-801.7043" font-family="Helvetica,sans-Serif" font-size="11.00" fill="#000000">0 rows</text>
<polygon fill="#ffffff" stroke="transparent" points="353,-795.6043 353,-814.6043 391,-814.6043 391,-795.6043 353,-795.6043"/>
<polygon fill="none" stroke="#000000" points="353,-795.6043 353,-814.6043 391,-814.6043 391,-795.6043 353,-795.6043"/>
<text text-anchor="start" x="372.4053" y="-801.7043" font-family="Helvetica,sans-Serif" font-size="11.00" fill="#000000">3 &gt;</text>
</a>
</g>
</g>
<!-- cg_cohort_definition -->
<g id="node2" class="node">
<title>cg_cohort_definition</title>
<g id="a_node2"><a xlink:href="../../tables/cg_cohort_definition.html" xlink:title="cg_cohort_definition" target="_top">
<polygon fill="#ffffff" stroke="transparent" points="8,-256.1043 8,-339.1043 183,-339.1043 183,-256.1043 8,-256.1043"/>
<polygon fill="#f5f5f5" stroke="transparent" points="8.5,-315.6043 8.5,-338.6043 183.5,-338.6043 183.5,-315.6043 8.5,-315.6043"/>
<polygon fill="none" stroke="#000000" points="8.5,-315.6043 8.5,-338.6043 183.5,-338.6043 183.5,-315.6043 8.5,-315.6043"/>
<text text-anchor="start" x="13.5" y="-324.2043" font-family="Helvetica,sans-Serif" font-weight="bold" font-size="11.00" fill="#000000">cg_cohort_definition</text>
<text text-anchor="start" x="149.0219" y="-323.7043" font-family="Helvetica,sans-Serif" font-size="11.00" fill="#000000">[table]</text>
<polygon fill="none" stroke="#000000" points="8.5,-293.6043 8.5,-315.6043 183.5,-315.6043 183.5,-293.6043 8.5,-293.6043"/>
<image xlink:href="../../images/primaryKeys.png" width="11px" height="12px" preserveAspectRatio="xMinYMin meet" x="13.5" y="-310.604"/>
<text text-anchor="start" x="37.5" y="-300.7043" font-family="Helvetica,sans-Serif" font-size="11.00" fill="#000000">cohort_definition_id</text>
<polygon fill="none" stroke="#000000" points="8.5,-274.6043 8.5,-293.6043 183.5,-293.6043 183.5,-274.6043 8.5,-274.6043"/>
<text text-anchor="start" x="11.5" y="-280.7043" font-family="Helvetica,sans-Serif" font-size="11.00" fill="#000000">...</text>
<polygon fill="#ffffff" stroke="transparent" points="8.5,-255.6043 8.5,-274.6043 69.5,-274.6043 69.5,-255.6043 8.5,-255.6043"/>
<polygon fill="none" stroke="#000000" points="8.5,-255.6043 8.5,-274.6043 69.5,-274.6043 69.5,-255.6043 8.5,-255.6043"/>
<text text-anchor="start" x="11.5" y="-261.7043" font-family="Helvetica,sans-Serif" font-size="11.00" fill="#000000"> &#160;</text>
<polygon fill="#ffffff" stroke="transparent" points="69.5,-255.6043 69.5,-274.6043 131.5,-274.6043 131.5,-255.6043 69.5,-255.6043"/>
<polygon fill="none" stroke="#000000" points="69.5,-255.6043 69.5,-274.6043 131.5,-274.6043 131.5,-255.6043 69.5,-255.6043"/>
<text text-anchor="start" x="96.1105" y="-261.7043" font-family="Helvetica,sans-Serif" font-size="11.00" fill="#000000">0 rows</text>
<polygon fill="#ffffff" stroke="transparent" points="131.5,-255.6043 131.5,-274.6043 183.5,-274.6043 183.5,-255.6043 131.5,-255.6043"/>
<polygon fill="none" stroke="#000000" points="131.5,-255.6043 131.5,-274.6043 183.5,-274.6043 183.5,-255.6043 131.5,-255.6043"/>
<text text-anchor="start" x="158.7904" y="-261.7043" font-family="Helvetica,sans-Serif" font-size="11.00" fill="#000000">15 &gt;</text>
</a>
</g>
</g>
<!-- c_cohort_details&#45;&gt;cg_cohort_definition -->
<g id="edge1" class="edge">
<title>c_cohort_details:w&#45;&gt;cg_cohort_definition:e</title>
<path fill="none" stroke="#000000" d="M232.8587,-814.2153C193.5719,-743.4572 237.2482,-299.0496 183.5,-304.6043"/>
<polygon fill="#000000" stroke="#000000" points="237.8826,-818.449 241.6801,-826.3572 240.9413,-821.0266 244,-823.6043 244,-823.6043 244,-823.6043 240.9413,-821.0266 246.3199,-820.8515 237.8826,-818.449 237.8826,-818.449"/>
<ellipse fill="none" stroke="#000000" cx="235.4356" cy="-816.3869" rx="3.2" ry="3.2"/>
</g>
<!-- c_cohort_details&#45;&gt;cg_cohort_definition -->
<g id="edge2" class="edge">
<title>c_cohort_details:w&#45;&gt;cg_cohort_definition:e</title>
<path fill="none" stroke="#000000" d="M231.8817,-815.2814C194.3022,-748.9012 236.7946,-311.0301 183.5,-304.6043"/>
<polygon fill="#000000" stroke="#000000" points="237.4055,-819.0752 241.9619,-826.5718 240.7028,-821.3397 244,-823.6043 244,-823.6043 244,-823.6043 240.7028,-821.3397 246.0381,-820.6368 237.4055,-819.0752 237.4055,-819.0752"/>
<ellipse fill="none" stroke="#000000" cx="234.7677" cy="-817.2635" rx="3.2" ry="3.2"/>
</g>
<!-- c_covariates_continuous -->
<g id="node3" class="node">
<title>c_covariates_continuous</title>
<g id="a_node3"><a xlink:href="../../tables/c_covariates_continuous.html" xlink:title="c_covariates_continuous" target="_top">
<polygon fill="#ffffff" stroke="transparent" points="1054,-1205.1043 1054,-1266.1043 1257,-1266.1043 1257,-1205.1043 1054,-1205.1043"/>
<polygon fill="#f5f5f5" stroke="transparent" points="1054.5,-1242.6043 1054.5,-1265.6043 1257.5,-1265.6043 1257.5,-1242.6043 1054.5,-1242.6043"/>
<polygon fill="none" stroke="#000000" points="1054.5,-1242.6043 1054.5,-1265.6043 1257.5,-1265.6043 1257.5,-1242.6043 1054.5,-1242.6043"/>
<text text-anchor="start" x="1059.5" y="-1251.2043" font-family="Helvetica,sans-Serif" font-weight="bold" font-size="11.00" fill="#000000">c_covariates_continuous</text>
<text text-anchor="start" x="1223.0219" y="-1250.7043" font-family="Helvetica,sans-Serif" font-size="11.00" fill="#000000">[table]</text>
<polygon fill="none" stroke="#000000" points="1054.5,-1223.6043 1054.5,-1242.6043 1257.5,-1242.6043 1257.5,-1223.6043 1054.5,-1223.6043"/>
<text text-anchor="start" x="1057.5" y="-1229.7043" font-family="Helvetica,sans-Serif" font-size="11.00" fill="#000000">...</text>
<polygon fill="#ffffff" stroke="transparent" points="1054.5,-1204.6043 1054.5,-1223.6043 1141.5,-1223.6043 1141.5,-1204.6043 1054.5,-1204.6043"/>
<polygon fill="none" stroke="#000000" points="1054.5,-1204.6043 1054.5,-1223.6043 1141.5,-1223.6043 1141.5,-1204.6043 1054.5,-1204.6043"/>
<text text-anchor="start" x="1057.5" y="-1210.7043" font-family="Helvetica,sans-Serif" font-size="11.00" fill="#000000">&lt; 6</text>
<polygon fill="#ffffff" stroke="transparent" points="1141.5,-1204.6043 1141.5,-1223.6043 1212.5,-1223.6043 1212.5,-1204.6043 1141.5,-1204.6043"/>
<polygon fill="none" stroke="#000000" points="1141.5,-1204.6043 1141.5,-1223.6043 1212.5,-1223.6043 1212.5,-1204.6043 1141.5,-1204.6043"/>
<text text-anchor="start" x="1177.1105" y="-1210.7043" font-family="Helvetica,sans-Serif" font-size="11.00" fill="#000000">0 rows</text>
<polygon fill="#ffffff" stroke="transparent" points="1212.5,-1204.6043 1212.5,-1223.6043 1257.5,-1223.6043 1257.5,-1204.6043 1212.5,-1204.6043"/>
<polygon fill="none" stroke="#000000" points="1212.5,-1204.6043 1212.5,-1223.6043 1257.5,-1223.6043 1257.5,-1204.6043 1212.5,-1204.6043"/>
<text text-anchor="start" x="1248.3862" y="-1210.7043" font-family="Helvetica,sans-Serif" font-size="11.00" fill="#000000"> &#160;</text>
</a>
</g>
</g>
<!-- c_settings -->
<g id="node4" class="node">
<title>c_settings</title>
<g id="a_node4"><a xlink:href="../../tables/c_settings.html" xlink:title="c_settings" target="_top">
<polygon fill="#ffffff" stroke="transparent" points="821.5,-1205.1043 821.5,-1266.1043 928.5,-1266.1043 928.5,-1205.1043 821.5,-1205.1043"/>
<polygon fill="#f5f5f5" stroke="transparent" points="822,-1242.6043 822,-1265.6043 929,-1265.6043 929,-1242.6043 822,-1242.6043"/>
<polygon fill="none" stroke="#000000" points="822,-1242.6043 822,-1265.6043 929,-1265.6043 929,-1242.6043 822,-1242.6043"/>
<text text-anchor="start" x="827" y="-1251.2043" font-family="Helvetica,sans-Serif" font-weight="bold" font-size="11.00" fill="#000000">c_settings</text>
<text text-anchor="start" x="894.5219" y="-1250.7043" font-family="Helvetica,sans-Serif" font-size="11.00" fill="#000000">[table]</text>
<polygon fill="none" stroke="#000000" points="822,-1223.6043 822,-1242.6043 929,-1242.6043 929,-1223.6043 822,-1223.6043"/>
<text text-anchor="start" x="825" y="-1229.7043" font-family="Helvetica,sans-Serif" font-size="11.00" fill="#000000">...</text>
<polygon fill="#ffffff" stroke="transparent" points="822,-1204.6043 822,-1223.6043 856,-1223.6043 856,-1204.6043 822,-1204.6043"/>
<polygon fill="none" stroke="#000000" points="822,-1204.6043 822,-1223.6043 856,-1223.6043 856,-1204.6043 822,-1204.6043"/>
<text text-anchor="start" x="825" y="-1210.7043" font-family="Helvetica,sans-Serif" font-size="11.00" fill="#000000">&lt; 3</text>
<polygon fill="#ffffff" stroke="transparent" points="856,-1204.6043 856,-1223.6043 901,-1223.6043 901,-1204.6043 856,-1204.6043"/>
<polygon fill="none" stroke="#000000" points="856,-1204.6043 856,-1223.6043 901,-1223.6043 901,-1204.6043 856,-1204.6043"/>
<text text-anchor="start" x="865.6105" y="-1210.7043" font-family="Helvetica,sans-Serif" font-size="11.00" fill="#000000">0 rows</text>
<polygon fill="#ffffff" stroke="transparent" points="901,-1204.6043 901,-1223.6043 929,-1223.6043 929,-1204.6043 901,-1204.6043"/>
<polygon fill="none" stroke="#000000" points="901,-1204.6043 901,-1223.6043 929,-1223.6043 929,-1204.6043 901,-1204.6043"/>
<text text-anchor="start" x="910.4053" y="-1210.7043" font-family="Helvetica,sans-Serif" font-size="11.00" fill="#000000">6 &gt;</text>
</a>
</g>
</g>
<!-- c_covariates_continuous&#45;&gt;c_settings -->
<g id="edge3" class="edge">
<title>c_covariates_continuous:w&#45;&gt;c_settings:e</title>
<path fill="none" stroke="#000000" d="M1040.1321,-1231.1036C995.8096,-1226.6549 979.6576,-1227.1551 929,-1232.6043"/>
<polygon fill="#000000" stroke="#000000" points="1046.5433,-1231.7732 1054.126,-1236.1848 1050.5216,-1232.1888 1054.5,-1232.6043 1054.5,-1232.6043 1054.5,-1232.6043 1050.5216,-1232.1888 1054.874,-1229.0238 1046.5433,-1231.7732 1046.5433,-1231.7732"/>
<ellipse fill="none" stroke="#000000" cx="1043.3606" cy="-1231.4408" rx="3.2" ry="3.2"/>
</g>
<!-- c_covariates_continuous&#45;&gt;c_settings -->
<g id="edge5" class="edge">
<title>c_covariates_continuous:w&#45;&gt;c_settings:e</title>
<path fill="none" stroke="#000000" d="M1040.1321,-1234.3551C995.8096,-1239.5453 979.6576,-1238.9617 929,-1232.6043"/>
<polygon fill="#000000" stroke="#000000" points="1046.5587,-1233.572 1054.9355,-1236.1779 1050.5294,-1233.0882 1054.5,-1232.6043 1054.5,-1232.6043 1054.5,-1232.6043 1050.5294,-1233.0882 1054.0645,-1229.0307 1046.5587,-1233.572 1046.5587,-1233.572"/>
<ellipse fill="none" stroke="#000000" cx="1043.3822" cy="-1233.9591" rx="3.2" ry="3.2"/>
</g>
<!-- database_meta_data -->
<g id="node5" class="node">
<title>database_meta_data</title>
<g id="a_node5"><a xlink:href="../../tables/database_meta_data.html" xlink:title="database_meta_data" target="_top">
<polygon fill="#ffffff" stroke="transparent" points="451,-664.1043 451,-747.1043 696,-747.1043 696,-664.1043 451,-664.1043"/>
<polygon fill="#f5f5f5" stroke="transparent" points="451.5,-723.6043 451.5,-746.6043 696.5,-746.6043 696.5,-723.6043 451.5,-723.6043"/>
<polygon fill="none" stroke="#000000" points="451.5,-723.6043 451.5,-746.6043 696.5,-746.6043 696.5,-723.6043 451.5,-723.6043"/>
<text text-anchor="start" x="456.5" y="-732.2043" font-family="Helvetica,sans-Serif" font-weight="bold" font-size="11.00" fill="#000000">database_meta_data</text>
<text text-anchor="start" x="661.5437" y="-731.7043" font-family="Helvetica,sans-Serif" font-size="11.00" fill="#000000">[table]</text>
<polygon fill="none" stroke="#000000" points="451.5,-701.6043 451.5,-723.6043 696.5,-723.6043 696.5,-701.6043 451.5,-701.6043"/>
<image xlink:href="../../images/primaryKeys.png" width="11px" height="12px" preserveAspectRatio="xMinYMin meet" x="456.5" y="-718.604"/>
<text text-anchor="start" x="471.5" y="-708.7043" font-family="Helvetica,sans-Serif" font-size="11.00" fill="#000000">database_id</text>
<polygon fill="none" stroke="#000000" points="451.5,-682.6043 451.5,-701.6043 696.5,-701.6043 696.5,-682.6043 451.5,-682.6043"/>
<text text-anchor="start" x="454.5" y="-688.7043" font-family="Helvetica,sans-Serif" font-size="11.00" fill="#000000">...</text>
<polygon fill="#ffffff" stroke="transparent" points="451.5,-663.6043 451.5,-682.6043 551.5,-682.6043 551.5,-663.6043 451.5,-663.6043"/>
<polygon fill="none" stroke="#000000" points="451.5,-663.6043 451.5,-682.6043 551.5,-682.6043 551.5,-663.6043 451.5,-663.6043"/>
<text text-anchor="start" x="454.5" y="-669.7043" font-family="Helvetica,sans-Serif" font-size="11.00" fill="#000000">&lt; 1</text>
<polygon fill="#ffffff" stroke="transparent" points="551.5,-663.6043 551.5,-682.6043 629.5,-682.6043 629.5,-663.6043 551.5,-663.6043"/>
<polygon fill="none" stroke="#000000" points="551.5,-663.6043 551.5,-682.6043 629.5,-682.6043 629.5,-663.6043 551.5,-663.6043"/>
<text text-anchor="start" x="594.1105" y="-669.7043" font-family="Helvetica,sans-Serif" font-size="11.00" fill="#000000">0 rows</text>
<polygon fill="#ffffff" stroke="transparent" points="629.5,-663.6043 629.5,-682.6043 696.5,-682.6043 696.5,-663.6043 629.5,-663.6043"/>
<polygon fill="none" stroke="#000000" points="629.5,-663.6043 629.5,-682.6043 696.5,-682.6043 696.5,-663.6043 629.5,-663.6043"/>
<text text-anchor="start" x="671.7904" y="-669.7043" font-family="Helvetica,sans-Serif" font-size="11.00" fill="#000000">17 &gt;</text>
</a>
</g>
</g>
<!-- c_covariates_continuous&#45;&gt;database_meta_data -->
<g id="edge4" class="edge">
<title>c_covariates_continuous:w&#45;&gt;database_meta_data:e</title>
<path fill="none" stroke="#000000" d="M1040.2456,-1229.9268C1009.401,-1215.2347 1052.5845,-1143.9312 1013,-1112.6043 964.6586,-1074.3473 780.6073,-1128.1806 737,-1084.6043 678.1795,-1025.8256 779.6551,-712.6043 696.5,-712.6043"/>
<polygon fill="#000000" stroke="#000000" points="1046.6375,-1231.1274 1053.8354,-1236.1424 1050.5688,-1231.8658 1054.5,-1232.6043 1054.5,-1232.6043 1054.5,-1232.6043 1050.5688,-1231.8658 1055.1646,-1229.0662 1046.6375,-1231.1274 1046.6375,-1231.1274"/>
<ellipse fill="none" stroke="#000000" cx="1043.4925" cy="-1230.5366" rx="3.2" ry="3.2"/>
</g>
<!-- c_settings&#45;&gt;c_cohort_details -->
<g id="edge9" class="edge">
<title>c_settings:w&#45;&gt;c_cohort_details:e</title>
<path fill="none" stroke="#000000" d="M807.5583,-1232.2712C776.2174,-1230.6298 760.2868,-1222.3311 737,-1194.6043 698.3856,-1148.6275 736.9898,-1113.7701 704,-1063.6043 607.6814,-917.1379 566.2988,-823.6043 391,-823.6043"/>
<polygon fill="#000000" stroke="#000000" points="814.0021,-1232.4198 821.917,-1236.2034 818.0011,-1232.512 822,-1232.6043 822,-1232.6043 822,-1232.6043 818.0011,-1232.512 822.083,-1229.0053 814.0021,-1232.4198 814.0021,-1232.4198"/>
<ellipse fill="none" stroke="#000000" cx="810.803" cy="-1232.346" rx="3.2" ry="3.2"/>
</g>
<!-- c_settings&#45;&gt;c_cohort_details -->
<g id="edge11" class="edge">
<title>c_settings:w&#45;&gt;c_cohort_details:e</title>
<path fill="none" stroke="#000000" d="M807.5632,-1232.2671C776.2432,-1230.608 760.3899,-1222.2442 737,-1194.6043 699.3272,-1150.0863 736.0301,-1116.3399 704,-1067.6043 607.1246,-920.2026 567.3862,-823.6043 391,-823.6043"/>
<polygon fill="#000000" stroke="#000000" points="814.0022,-1232.4175 821.9159,-1236.2033 818.0011,-1232.5109 822,-1232.6043 822,-1232.6043 822,-1232.6043 818.0011,-1232.5109 822.0841,-1229.0053 814.0022,-1232.4175 814.0022,-1232.4175"/>
<ellipse fill="none" stroke="#000000" cx="810.8031" cy="-1232.3427" rx="3.2" ry="3.2"/>
</g>
<!-- c_settings&#45;&gt;database_meta_data -->
<g id="edge10" class="edge">
<title>c_settings:w&#45;&gt;database_meta_data:e</title>
<path fill="none" stroke="#000000" d="M807.4489,-1232.3557C775.634,-1231.0806 757.9531,-1224.1343 737,-1194.6043 705.8992,-1150.7729 750.2443,-712.6043 696.5,-712.6043"/>
<polygon fill="#000000" stroke="#000000" points="814.0012,-1232.4676 821.9385,-1236.2038 818.0006,-1232.536 822,-1232.6043 822,-1232.6043 822,-1232.6043 818.0006,-1232.536 822.0615,-1229.0048 814.0012,-1232.4676 814.0012,-1232.4676"/>
<ellipse fill="none" stroke="#000000" cx="810.8016" cy="-1232.4129" rx="3.2" ry="3.2"/>
</g>
<!-- database_meta_data&#45;&gt;c_cohort_details -->
<g id="edge28" class="edge">
<title>database_meta_data:w&#45;&gt;c_cohort_details:e</title>
<path fill="none" stroke="#000000" d="M441.1759,-714.1734C402.0748,-727.6649 443.2348,-823.6043 391,-823.6043"/>
<polygon fill="#000000" stroke="#000000" points="450.108,-708.7699 451.3102,-716.6791 449.7283,-716.9195 448.5262,-709.0104 450.108,-708.7699"/>
<polyline fill="none" stroke="#000000" points="451.5,-712.6043 447.5454,-713.2054 "/>
<ellipse fill="none" stroke="#000000" cx="444.3817" cy="-713.6863" rx="3.2" ry="3.2"/>
</g>
<!-- c_dechallenge_rechallenge -->
<g id="node6" class="node">
<title>c_dechallenge_rechallenge</title>
<g id="a_node6"><a xlink:href="../../tables/c_dechallenge_rechallenge.html" xlink:title="c_dechallenge_rechallenge" target="_top">
<polygon fill="#ffffff" stroke="transparent" points="765.5,-1287.1043 765.5,-1348.1043 984.5,-1348.1043 984.5,-1287.1043 765.5,-1287.1043"/>
<polygon fill="#f5f5f5" stroke="transparent" points="766,-1324.6043 766,-1347.6043 985,-1347.6043 985,-1324.6043 766,-1324.6043"/>
<polygon fill="none" stroke="#000000" points="766,-1324.6043 766,-1347.6043 985,-1347.6043 985,-1324.6043 766,-1324.6043"/>
<text text-anchor="start" x="771" y="-1333.2043" font-family="Helvetica,sans-Serif" font-weight="bold" font-size="11.00" fill="#000000">c_dechallenge_rechallenge</text>
<text text-anchor="start" x="950.5219" y="-1332.7043" font-family="Helvetica,sans-Serif" font-size="11.00" fill="#000000">[table]</text>
<polygon fill="none" stroke="#000000" points="766,-1305.6043 766,-1324.6043 985,-1324.6043 985,-1305.6043 766,-1305.6043"/>
<text text-anchor="start" x="769" y="-1311.7043" font-family="Helvetica,sans-Serif" font-size="11.00" fill="#000000">...</text>
<polygon fill="#ffffff" stroke="transparent" points="766,-1286.6043 766,-1305.6043 861,-1305.6043 861,-1286.6043 766,-1286.6043"/>
<polygon fill="none" stroke="#000000" points="766,-1286.6043 766,-1305.6043 861,-1305.6043 861,-1286.6043 766,-1286.6043"/>
<text text-anchor="start" x="769" y="-1292.7043" font-family="Helvetica,sans-Serif" font-size="11.00" fill="#000000">&lt; 3</text>
<polygon fill="#ffffff" stroke="transparent" points="861,-1286.6043 861,-1305.6043 936,-1305.6043 936,-1286.6043 861,-1286.6043"/>
<polygon fill="none" stroke="#000000" points="861,-1286.6043 861,-1305.6043 936,-1305.6043 936,-1286.6043 861,-1286.6043"/>
<text text-anchor="start" x="900.6105" y="-1292.7043" font-family="Helvetica,sans-Serif" font-size="11.00" fill="#000000">0 rows</text>
<polygon fill="#ffffff" stroke="transparent" points="936,-1286.6043 936,-1305.6043 985,-1305.6043 985,-1286.6043 936,-1286.6043"/>
<polygon fill="none" stroke="#000000" points="936,-1286.6043 936,-1305.6043 985,-1305.6043 985,-1286.6043 936,-1286.6043"/>
<text text-anchor="start" x="975.8862" y="-1292.7043" font-family="Helvetica,sans-Serif" font-size="11.00" fill="#000000"> &#160;</text>
</a>
</g>
</g>
<!-- c_dechallenge_rechallenge&#45;&gt;cg_cohort_definition -->
<g id="edge7" class="edge">
<title>c_dechallenge_rechallenge:w&#45;&gt;cg_cohort_definition:e</title>
<path fill="none" stroke="#000000" d="M751.5278,-1314.4804C451.0384,-1309.2799 364.9758,-1140.7321 224,-867.6043 195.2341,-811.8731 246.2172,-304.6043 183.5,-304.6043"/>
<polygon fill="#000000" stroke="#000000" points="758.0003,-1314.5357 765.9691,-1318.2042 762.0001,-1314.57 766,-1314.6043 766,-1314.6043 766,-1314.6043 762.0001,-1314.57 766.0309,-1311.0044 758.0003,-1314.5357 758.0003,-1314.5357"/>
<ellipse fill="none" stroke="#000000" cx="754.8004" cy="-1314.5083" rx="3.2" ry="3.2"/>
</g>
<!-- c_dechallenge_rechallenge&#45;&gt;cg_cohort_definition -->
<g id="edge8" class="edge">
<title>c_dechallenge_rechallenge:w&#45;&gt;cg_cohort_definition:e</title>
<path fill="none" stroke="#000000" d="M751.4763,-1314.4784C449.9388,-1309.1954 364.9579,-1137.997 224,-863.6043 195.5444,-808.2119 245.7739,-304.6043 183.5,-304.6043"/>
<polygon fill="#000000" stroke="#000000" points="758.0003,-1314.5349 765.9688,-1318.2042 762.0002,-1314.5696 766,-1314.6043 766,-1314.6043 766,-1314.6043 762.0002,-1314.5696 766.0312,-1311.0044 758.0003,-1314.5349 758.0003,-1314.5349"/>
<ellipse fill="none" stroke="#000000" cx="754.8004" cy="-1314.5071" rx="3.2" ry="3.2"/>
</g>
<!-- c_dechallenge_rechallenge&#45;&gt;database_meta_data -->
<g id="edge6" class="edge">
<title>c_dechallenge_rechallenge:w&#45;&gt;database_meta_data:e</title>
<path fill="none" stroke="#000000" d="M752.1596,-1310.4555C744.0101,-1303.9775 742.3459,-1290.7306 737,-1276.6043 714.7628,-1217.8432 759.328,-712.6043 696.5,-712.6043"/>
<polygon fill="#000000" stroke="#000000" points="758.3369,-1312.3072 764.9663,-1318.0527 762.1684,-1313.4557 766,-1314.6043 766,-1314.6043 766,-1314.6043 762.1684,-1313.4557 767.0337,-1311.1559 758.3369,-1312.3072 758.3369,-1312.3072"/>
<ellipse fill="none" stroke="#000000" cx="755.2716" cy="-1311.3883" rx="3.2" ry="3.2"/>
</g>
<!-- c_time_to_event -->
<g id="node7" class="node">
<title>c_time_to_event</title>
<g id="a_node7"><a xlink:href="../../tables/c_time_to_event.html" xlink:title="c_time_to_event" target="_top">
<polygon fill="#ffffff" stroke="transparent" points="802,-1013.1043 802,-1074.1043 948,-1074.1043 948,-1013.1043 802,-1013.1043"/>
<polygon fill="#f5f5f5" stroke="transparent" points="802,-1050.6043 802,-1073.6043 948,-1073.6043 948,-1050.6043 802,-1050.6043"/>
<polygon fill="none" stroke="#000000" points="802,-1050.6043 802,-1073.6043 948,-1073.6043 948,-1050.6043 802,-1050.6043"/>
<text text-anchor="start" x="807" y="-1059.2043" font-family="Helvetica,sans-Serif" font-weight="bold" font-size="11.00" fill="#000000">c_time_to_event</text>
<text text-anchor="start" x="913.5219" y="-1058.7043" font-family="Helvetica,sans-Serif" font-size="11.00" fill="#000000">[table]</text>
<polygon fill="none" stroke="#000000" points="802,-1031.6043 802,-1050.6043 948,-1050.6043 948,-1031.6043 802,-1031.6043"/>
<text text-anchor="start" x="805" y="-1037.7043" font-family="Helvetica,sans-Serif" font-size="11.00" fill="#000000">...</text>
<polygon fill="#ffffff" stroke="transparent" points="802,-1012.6043 802,-1031.6043 860,-1031.6043 860,-1012.6043 802,-1012.6043"/>
<polygon fill="none" stroke="#000000" points="802,-1012.6043 802,-1031.6043 860,-1031.6043 860,-1012.6043 802,-1012.6043"/>
<text text-anchor="start" x="805" y="-1018.7043" font-family="Helvetica,sans-Serif" font-size="11.00" fill="#000000">&lt; 1</text>
<polygon fill="#ffffff" stroke="transparent" points="860,-1012.6043 860,-1031.6043 917,-1031.6043 917,-1012.6043 860,-1012.6043"/>
<polygon fill="none" stroke="#000000" points="860,-1012.6043 860,-1031.6043 917,-1031.6043 917,-1012.6043 860,-1012.6043"/>
<text text-anchor="start" x="881.6105" y="-1018.7043" font-family="Helvetica,sans-Serif" font-size="11.00" fill="#000000">0 rows</text>
<polygon fill="#ffffff" stroke="transparent" points="917,-1012.6043 917,-1031.6043 948,-1031.6043 948,-1012.6043 917,-1012.6043"/>
<polygon fill="none" stroke="#000000" points="917,-1012.6043 917,-1031.6043 948,-1031.6043 948,-1012.6043 917,-1012.6043"/>
<text text-anchor="start" x="938.8862" y="-1018.7043" font-family="Helvetica,sans-Serif" font-size="11.00" fill="#000000"> &#160;</text>
</a>
</g>
</g>
<!-- c_time_to_event&#45;&gt;database_meta_data -->
<g id="edge12" class="edge">
<title>c_time_to_event:w&#45;&gt;database_meta_data:e</title>
<path fill="none" stroke="#000000" d="M787.393,-1039.7907C764.2443,-1036.8927 752.6109,-1025.9739 737,-1002.6043 700.8558,-948.4962 761.5699,-712.6043 696.5,-712.6043"/>
<polygon fill="#000000" stroke="#000000" points="794.0124,-1040.1594 801.7998,-1044.1987 798.0062,-1040.3818 802,-1040.6043 802,-1040.6043 802,-1040.6043 798.0062,-1040.3818 802.2002,-1037.0099 794.0124,-1040.1594 794.0124,-1040.1594"/>
<ellipse fill="none" stroke="#000000" cx="790.8173" cy="-1039.9814" rx="3.2" ry="3.2"/>
</g>
<!-- cd_cohort_count -->
<g id="node8" class="node">
<title>cd_cohort_count</title>
<g id="a_node8"><a xlink:href="../../tables/cd_cohort_count.html" xlink:title="cd_cohort_count" target="_top">
<polygon fill="#ffffff" stroke="transparent" points="801,-931.1043 801,-992.1043 949,-992.1043 949,-931.1043 801,-931.1043"/>
<polygon fill="#f5f5f5" stroke="transparent" points="801,-968.6043 801,-991.6043 949,-991.6043 949,-968.6043 801,-968.6043"/>
<polygon fill="none" stroke="#000000" points="801,-968.6043 801,-991.6043 949,-991.6043 949,-968.6043 801,-968.6043"/>
<text text-anchor="start" x="806" y="-977.2043" font-family="Helvetica,sans-Serif" font-weight="bold" font-size="11.00" fill="#000000">cd_cohort_count</text>
<text text-anchor="start" x="914.5219" y="-976.7043" font-family="Helvetica,sans-Serif" font-size="11.00" fill="#000000">[table]</text>
<polygon fill="none" stroke="#000000" points="801,-949.6043 801,-968.6043 949,-968.6043 949,-949.6043 801,-949.6043"/>
<text text-anchor="start" x="804" y="-955.7043" font-family="Helvetica,sans-Serif" font-size="11.00" fill="#000000">...</text>
<polygon fill="#ffffff" stroke="transparent" points="801,-930.6043 801,-949.6043 856,-949.6043 856,-930.6043 801,-930.6043"/>
<polygon fill="none" stroke="#000000" points="801,-930.6043 801,-949.6043 856,-949.6043 856,-930.6043 801,-930.6043"/>
<text text-anchor="start" x="804" y="-936.7043" font-family="Helvetica,sans-Serif" font-size="11.00" fill="#000000">&lt; 1</text>
<polygon fill="#ffffff" stroke="transparent" points="856,-930.6043 856,-949.6043 911,-949.6043 911,-930.6043 856,-930.6043"/>
<polygon fill="none" stroke="#000000" points="856,-930.6043 856,-949.6043 911,-949.6043 911,-930.6043 856,-930.6043"/>
<text text-anchor="start" x="875.6105" y="-936.7043" font-family="Helvetica,sans-Serif" font-size="11.00" fill="#000000">0 rows</text>
<polygon fill="#ffffff" stroke="transparent" points="911,-930.6043 911,-949.6043 949,-949.6043 949,-930.6043 911,-930.6043"/>
<polygon fill="none" stroke="#000000" points="911,-930.6043 911,-949.6043 949,-949.6043 949,-930.6043 911,-930.6043"/>
<text text-anchor="start" x="930.4053" y="-936.7043" font-family="Helvetica,sans-Serif" font-size="11.00" fill="#000000">2 &gt;</text>
</a>
</g>
</g>
<!-- cd_cohort_count&#45;&gt;database_meta_data -->
<g id="edge13" class="edge">
<title>cd_cohort_count:w&#45;&gt;database_meta_data:e</title>
<path fill="none" stroke="#000000" d="M786.6214,-957.7402C763.9332,-954.6826 752.9986,-943.318 737,-920.6043 682.766,-843.6066 790.6805,-712.6043 696.5,-712.6043"/>
<polygon fill="#000000" stroke="#000000" points="793.0144,-958.1244 800.784,-962.1978 797.0072,-958.3643 801,-958.6043 801,-958.6043 801,-958.6043 797.0072,-958.3643 801.216,-955.0108 793.0144,-958.1244 793.0144,-958.1244"/>
<ellipse fill="none" stroke="#000000" cx="789.8202" cy="-957.9324" rx="3.2" ry="3.2"/>
</g>
<!-- cg_cohort_count -->
<g id="node9" class="node">
<title>cg_cohort_count</title>
<g id="a_node9"><a xlink:href="../../tables/cg_cohort_count.html" xlink:title="cg_cohort_count" target="_top">
<polygon fill="#ffffff" stroke="transparent" points="801,-1123.1043 801,-1184.1043 949,-1184.1043 949,-1123.1043 801,-1123.1043"/>
<polygon fill="#f5f5f5" stroke="transparent" points="801,-1160.6043 801,-1183.6043 949,-1183.6043 949,-1160.6043 801,-1160.6043"/>
<polygon fill="none" stroke="#000000" points="801,-1160.6043 801,-1183.6043 949,-1183.6043 949,-1160.6043 801,-1160.6043"/>
<text text-anchor="start" x="806" y="-1169.2043" font-family="Helvetica,sans-Serif" font-weight="bold" font-size="11.00" fill="#000000">cg_cohort_count</text>
<text text-anchor="start" x="914.5219" y="-1168.7043" font-family="Helvetica,sans-Serif" font-size="11.00" fill="#000000">[table]</text>
<polygon fill="none" stroke="#000000" points="801,-1141.6043 801,-1160.6043 949,-1160.6043 949,-1141.6043 801,-1141.6043"/>
<text text-anchor="start" x="804" y="-1147.7043" font-family="Helvetica,sans-Serif" font-size="11.00" fill="#000000">...</text>
<polygon fill="#ffffff" stroke="transparent" points="801,-1122.6043 801,-1141.6043 860,-1141.6043 860,-1122.6043 801,-1122.6043"/>
<polygon fill="none" stroke="#000000" points="801,-1122.6043 801,-1141.6043 860,-1141.6043 860,-1122.6043 801,-1122.6043"/>
<text text-anchor="start" x="804" y="-1128.7043" font-family="Helvetica,sans-Serif" font-size="11.00" fill="#000000">&lt; 2</text>
<polygon fill="#ffffff" stroke="transparent" points="860,-1122.6043 860,-1141.6043 917,-1141.6043 917,-1122.6043 860,-1122.6043"/>
<polygon fill="none" stroke="#000000" points="860,-1122.6043 860,-1141.6043 917,-1141.6043 917,-1122.6043 860,-1122.6043"/>
<text text-anchor="start" x="881.6105" y="-1128.7043" font-family="Helvetica,sans-Serif" font-size="11.00" fill="#000000">0 rows</text>
<polygon fill="#ffffff" stroke="transparent" points="917,-1122.6043 917,-1141.6043 949,-1141.6043 949,-1122.6043 917,-1122.6043"/>
<polygon fill="none" stroke="#000000" points="917,-1122.6043 917,-1141.6043 949,-1141.6043 949,-1122.6043 917,-1122.6043"/>
<text text-anchor="start" x="939.8862" y="-1128.7043" font-family="Helvetica,sans-Serif" font-size="11.00" fill="#000000"> &#160;</text>
</a>
</g>
</g>
<!-- cg_cohort_count&#45;&gt;cg_cohort_definition -->
<g id="edge14" class="edge">
<title>cg_cohort_count:w&#45;&gt;cg_cohort_definition:e</title>
<path fill="none" stroke="#000000" d="M786.3111,-1149.8312C642.8269,-1134.0041 752.2705,-879.9079 704,-824.6043 625.2479,-734.3778 539.8025,-828.1166 443,-757.6043 295.5921,-650.2303 305.6111,-573.6929 224,-410.6043 201.431,-365.5033 233.9327,-304.6043 183.5,-304.6043"/>
<polygon fill="#000000" stroke="#000000" points="793.0111,-1150.1838 800.8108,-1154.1993 797.0055,-1150.394 801,-1150.6043 801,-1150.6043 801,-1150.6043 797.0055,-1150.394 801.1892,-1147.0093 793.0111,-1150.1838 793.0111,-1150.1838"/>
<ellipse fill="none" stroke="#000000" cx="789.8155" cy="-1150.0155" rx="3.2" ry="3.2"/>
</g>
<!-- cg_cohort_count&#45;&gt;database_meta_data -->
<g id="edge15" class="edge">
<title>cg_cohort_count:w&#45;&gt;database_meta_data:e</title>
<path fill="none" stroke="#000000" d="M786.5325,-1149.6493C762.9723,-1146.1878 751.8188,-1133.1902 737,-1108.6043 691.336,-1032.8429 784.959,-712.6043 696.5,-712.6043"/>
<polygon fill="#000000" stroke="#000000" points="793.0174,-1150.0773 800.7629,-1154.1965 797.0087,-1150.3408 801,-1150.6043 801,-1150.6043 801,-1150.6043 797.0087,-1150.3408 801.2371,-1147.0121 793.0174,-1150.0773 793.0174,-1150.0773"/>
<ellipse fill="none" stroke="#000000" cx="789.8243" cy="-1149.8665" rx="3.2" ry="3.2"/>
</g>
<!-- cg_cohort_generation -->
<g id="node10" class="node">
<title>cg_cohort_generation</title>
<g id="a_node10"><a xlink:href="../../tables/cg_cohort_generation.html" xlink:title="cg_cohort_generation" target="_top">
<polygon fill="#ffffff" stroke="transparent" points="783,-849.1043 783,-910.1043 967,-910.1043 967,-849.1043 783,-849.1043"/>
<polygon fill="#f5f5f5" stroke="transparent" points="783,-886.6043 783,-909.6043 967,-909.6043 967,-886.6043 783,-886.6043"/>
<polygon fill="none" stroke="#000000" points="783,-886.6043 783,-909.6043 967,-909.6043 967,-886.6043 783,-886.6043"/>
<text text-anchor="start" x="788" y="-895.2043" font-family="Helvetica,sans-Serif" font-weight="bold" font-size="11.00" fill="#000000">cg_cohort_generation</text>
<text text-anchor="start" x="932.5219" y="-894.7043" font-family="Helvetica,sans-Serif" font-size="11.00" fill="#000000">[table]</text>
<polygon fill="none" stroke="#000000" points="783,-867.6043 783,-886.6043 967,-886.6043 967,-867.6043 783,-867.6043"/>
<text text-anchor="start" x="786" y="-873.7043" font-family="Helvetica,sans-Serif" font-size="11.00" fill="#000000">...</text>
<polygon fill="#ffffff" stroke="transparent" points="783,-848.6043 783,-867.6043 860,-867.6043 860,-848.6043 783,-848.6043"/>
<polygon fill="none" stroke="#000000" points="783,-848.6043 783,-867.6043 860,-867.6043 860,-848.6043 783,-848.6043"/>
<text text-anchor="start" x="786" y="-854.7043" font-family="Helvetica,sans-Serif" font-size="11.00" fill="#000000">&lt; 1</text>
<polygon fill="#ffffff" stroke="transparent" points="860,-848.6043 860,-867.6043 926,-867.6043 926,-848.6043 860,-848.6043"/>
<polygon fill="none" stroke="#000000" points="860,-848.6043 860,-867.6043 926,-867.6043 926,-848.6043 860,-848.6043"/>
<text text-anchor="start" x="890.6105" y="-854.7043" font-family="Helvetica,sans-Serif" font-size="11.00" fill="#000000">0 rows</text>
<polygon fill="#ffffff" stroke="transparent" points="926,-848.6043 926,-867.6043 967,-867.6043 967,-848.6043 926,-848.6043"/>
<polygon fill="none" stroke="#000000" points="926,-848.6043 926,-867.6043 967,-867.6043 967,-848.6043 926,-848.6043"/>
<text text-anchor="start" x="957.8862" y="-854.7043" font-family="Helvetica,sans-Serif" font-size="11.00" fill="#000000"> &#160;</text>
</a>
</g>
</g>
<!-- cg_cohort_generation&#45;&gt;database_meta_data -->
<g id="edge16" class="edge">
<title>cg_cohort_generation:w&#45;&gt;database_meta_data:e</title>
<path fill="none" stroke="#000000" d="M768.4065,-874.4066C753.9762,-869.3004 748.6238,-855.7535 737,-838.6043 703.9971,-789.9134 755.3218,-712.6043 696.5,-712.6043"/>
<polygon fill="#000000" stroke="#000000" points="775.0892,-875.4129 782.4639,-880.1642 779.0446,-876.0086 783,-876.6043 783,-876.6043 783,-876.6043 779.0446,-876.0086 783.5361,-873.0444 775.0892,-875.4129 775.0892,-875.4129"/>
<ellipse fill="none" stroke="#000000" cx="771.9249" cy="-874.9364" rx="3.2" ry="3.2"/>
</g>
<!-- cg_cohort_inc_result -->
<g id="node11" class="node">
<title>cg_cohort_inc_result</title>
<g id="a_node11"><a xlink:href="../../tables/cg_cohort_inc_result.html" xlink:title="cg_cohort_inc_result" target="_top">
<polygon fill="#ffffff" stroke="transparent" points="787.5,-767.1043 787.5,-828.1043 962.5,-828.1043 962.5,-767.1043 787.5,-767.1043"/>
<polygon fill="#f5f5f5" stroke="transparent" points="788,-804.6043 788,-827.6043 963,-827.6043 963,-804.6043 788,-804.6043"/>
<polygon fill="none" stroke="#000000" points="788,-804.6043 788,-827.6043 963,-827.6043 963,-804.6043 788,-804.6043"/>
<text text-anchor="start" x="793" y="-813.2043" font-family="Helvetica,sans-Serif" font-weight="bold" font-size="11.00" fill="#000000">cg_cohort_inc_result</text>
<text text-anchor="start" x="928.5219" y="-812.7043" font-family="Helvetica,sans-Serif" font-size="11.00" fill="#000000">[table]</text>
<polygon fill="none" stroke="#000000" points="788,-785.6043 788,-804.6043 963,-804.6043 963,-785.6043 788,-785.6043"/>
<text text-anchor="start" x="791" y="-791.7043" font-family="Helvetica,sans-Serif" font-size="11.00" fill="#000000">...</text>
<polygon fill="#ffffff" stroke="transparent" points="788,-766.6043 788,-785.6043 861,-785.6043 861,-766.6043 788,-766.6043"/>
<polygon fill="none" stroke="#000000" points="788,-766.6043 788,-785.6043 861,-785.6043 861,-766.6043 788,-766.6043"/>
<text text-anchor="start" x="791" y="-772.7043" font-family="Helvetica,sans-Serif" font-size="11.00" fill="#000000">&lt; 1</text>
<polygon fill="#ffffff" stroke="transparent" points="861,-766.6043 861,-785.6043 925,-785.6043 925,-766.6043 861,-766.6043"/>
<polygon fill="none" stroke="#000000" points="861,-766.6043 861,-785.6043 925,-785.6043 925,-766.6043 861,-766.6043"/>
<text text-anchor="start" x="889.6105" y="-772.7043" font-family="Helvetica,sans-Serif" font-size="11.00" fill="#000000">0 rows</text>
<polygon fill="#ffffff" stroke="transparent" points="925,-766.6043 925,-785.6043 963,-785.6043 963,-766.6043 925,-766.6043"/>
<polygon fill="none" stroke="#000000" points="925,-766.6043 925,-785.6043 963,-785.6043 963,-766.6043 925,-766.6043"/>
<text text-anchor="start" x="953.8862" y="-772.7043" font-family="Helvetica,sans-Serif" font-size="11.00" fill="#000000"> &#160;</text>
</a>
</g>
</g>
<!-- cg_cohort_inc_result&#45;&gt;database_meta_data -->
<g id="edge17" class="edge">
<title>cg_cohort_inc_result:w&#45;&gt;database_meta_data:e</title>
<path fill="none" stroke="#000000" d="M773.675,-792.4044C758.2329,-786.8614 753.7313,-771.6855 737,-756.6043 717.2578,-738.8092 723.0786,-712.6043 696.5,-712.6043"/>
<polygon fill="#000000" stroke="#000000" points="780.0927,-793.3899 787.4535,-798.1626 784.0464,-793.9971 788,-794.6043 788,-794.6043 788,-794.6043 784.0464,-793.9971 788.5465,-791.046 780.0927,-793.3899 780.0927,-793.3899"/>
<ellipse fill="none" stroke="#000000" cx="776.9298" cy="-792.9042" rx="3.2" ry="3.2"/>
</g>
<!-- cg_cohort_inclusion -->
<g id="node12" class="node">
<title>cg_cohort_inclusion</title>
<g id="a_node12"><a xlink:href="../../tables/cg_cohort_inclusion.html" xlink:title="cg_cohort_inclusion" target="_top">
<polygon fill="#ffffff" stroke="transparent" points="232,-141.1043 232,-202.1043 402,-202.1043 402,-141.1043 232,-141.1043"/>
<polygon fill="#f5f5f5" stroke="transparent" points="232,-178.6043 232,-201.6043 402,-201.6043 402,-178.6043 232,-178.6043"/>
<polygon fill="none" stroke="#000000" points="232,-178.6043 232,-201.6043 402,-201.6043 402,-178.6043 232,-178.6043"/>
<text text-anchor="start" x="237" y="-187.2043" font-family="Helvetica,sans-Serif" font-weight="bold" font-size="11.00" fill="#000000">cg_cohort_inclusion</text>
<text text-anchor="start" x="367.5219" y="-186.7043" font-family="Helvetica,sans-Serif" font-size="11.00" fill="#000000">[table]</text>
<polygon fill="none" stroke="#000000" points="232,-159.6043 232,-178.6043 402,-178.6043 402,-159.6043 232,-159.6043"/>
<text text-anchor="start" x="235" y="-165.7043" font-family="Helvetica,sans-Serif" font-size="11.00" fill="#000000">...</text>
<polygon fill="#ffffff" stroke="transparent" points="232,-140.6043 232,-159.6043 302,-159.6043 302,-140.6043 232,-140.6043"/>
<polygon fill="none" stroke="#000000" points="232,-140.6043 232,-159.6043 302,-159.6043 302,-140.6043 232,-140.6043"/>
<text text-anchor="start" x="235" y="-146.7043" font-family="Helvetica,sans-Serif" font-size="11.00" fill="#000000">&lt; 1</text>
<polygon fill="#ffffff" stroke="transparent" points="302,-140.6043 302,-159.6043 365,-159.6043 365,-140.6043 302,-140.6043"/>
<polygon fill="none" stroke="#000000" points="302,-140.6043 302,-159.6043 365,-159.6043 365,-140.6043 302,-140.6043"/>
<text text-anchor="start" x="329.6105" y="-146.7043" font-family="Helvetica,sans-Serif" font-size="11.00" fill="#000000">0 rows</text>
<polygon fill="#ffffff" stroke="transparent" points="365,-140.6043 365,-159.6043 402,-159.6043 402,-140.6043 365,-140.6043"/>
<polygon fill="none" stroke="#000000" points="365,-140.6043 365,-159.6043 402,-159.6043 402,-140.6043 365,-140.6043"/>
<text text-anchor="start" x="392.8862" y="-146.7043" font-family="Helvetica,sans-Serif" font-size="11.00" fill="#000000"> &#160;</text>
</a>
</g>
</g>
<!-- cg_cohort_inclusion&#45;&gt;cg_cohort_definition -->
<g id="edge18" class="edge">
<title>cg_cohort_inclusion:w&#45;&gt;cg_cohort_definition:e</title>
<path fill="none" stroke="#000000" d="M217.5114,-171.9661C181.5323,-192.909 241.6568,-304.6043 183.5,-304.6043"/>
<polygon fill="#000000" stroke="#000000" points="224.207,-170.4126 232.8137,-172.1111 228.1035,-169.5084 232,-168.6043 232,-168.6043 232,-168.6043 228.1035,-169.5084 231.1863,-165.0975 224.207,-170.4126 224.207,-170.4126"/>
<ellipse fill="none" stroke="#000000" cx="221.0898" cy="-171.1359" rx="3.2" ry="3.2"/>
</g>
<!-- cg_cohort_summary_stats -->
<g id="node13" class="node">
<title>cg_cohort_summary_stats</title>
<g id="a_node13"><a xlink:href="../../tables/cg_cohort_summary_stats.html" xlink:title="cg_cohort_summary_stats" target="_top">
<polygon fill="#ffffff" stroke="transparent" points="745,-398.6043 745,-554.6043 1005,-554.6043 1005,-398.6043 745,-398.6043"/>
<polygon fill="#f5f5f5" stroke="transparent" points="747,-529.6043 747,-552.6043 1003,-552.6043 1003,-529.6043 747,-529.6043"/>
<polygon fill="none" stroke="#000000" points="747,-529.6043 747,-552.6043 1003,-552.6043 1003,-529.6043 747,-529.6043"/>
<text text-anchor="start" x="752" y="-538.2043" font-family="Helvetica,sans-Serif" font-weight="bold" font-size="11.00" fill="#000000">cg_cohort_summary_stats</text>
<text text-anchor="start" x="968.0437" y="-537.7043" font-family="Helvetica,sans-Serif" font-size="11.00" fill="#000000">[table]</text>
<polygon fill="none" stroke="#000000" points="747,-507.6043 747,-529.6043 941,-529.6043 941,-507.6043 747,-507.6043"/>
<text text-anchor="start" x="767" y="-514.7043" font-family="Helvetica,sans-Serif" font-size="11.00" fill="#000000">base_count</text>
<polygon fill="none" stroke="#000000" points="941,-507.6043 941,-529.6043 1003,-529.6043 1003,-507.6043 941,-507.6043"/>
<text text-anchor="start" x="943.878" y="-515.3043" font-family="Helvetica,sans-Serif" font-size="11.00" fill="#000000">unknown[0]</text>
<polygon fill="none" stroke="#000000" points="747,-485.6043 747,-507.6043 941,-507.6043 941,-485.6043 747,-485.6043"/>
<image xlink:href="../../images/foreignKeys.png" width="11px" height="12px" preserveAspectRatio="xMinYMin meet" x="752" y="-502.604"/>
<text text-anchor="start" x="767" y="-492.7043" font-family="Helvetica,sans-Serif" font-size="11.00" fill="#000000">cohort_definition_id</text>
<polygon fill="none" stroke="#000000" points="941,-485.6043 941,-507.6043 1003,-507.6043 1003,-485.6043 941,-485.6043"/>
<text text-anchor="start" x="943.878" y="-493.3043" font-family="Helvetica,sans-Serif" font-size="11.00" fill="#000000">unknown[0]</text>
<polygon fill="none" stroke="#000000" points="747,-463.6043 747,-485.6043 941,-485.6043 941,-463.6043 747,-463.6043"/>
<image xlink:href="../../images/foreignKeys.png" width="11px" height="12px" preserveAspectRatio="xMinYMin meet" x="752" y="-480.604"/>
<text text-anchor="start" x="767" y="-470.7043" font-family="Helvetica,sans-Serif" font-size="11.00" fill="#000000">database_id</text>
<polygon fill="none" stroke="#000000" points="941,-463.6043 941,-485.6043 1003,-485.6043 1003,-463.6043 941,-463.6043"/>
<text text-anchor="start" x="943.878" y="-471.3043" font-family="Helvetica,sans-Serif" font-size="11.00" fill="#000000">unknown[0]</text>
<polygon fill="none" stroke="#000000" points="747,-441.6043 747,-463.6043 941,-463.6043 941,-441.6043 747,-441.6043"/>
<text text-anchor="start" x="767" y="-448.7043" font-family="Helvetica,sans-Serif" font-size="11.00" fill="#000000">final_count</text>
<polygon fill="none" stroke="#000000" points="941,-441.6043 941,-463.6043 1003,-463.6043 1003,-441.6043 941,-441.6043"/>
<text text-anchor="start" x="943.878" y="-449.3043" font-family="Helvetica,sans-Serif" font-size="11.00" fill="#000000">unknown[0]</text>
<polygon fill="none" stroke="#000000" points="747,-419.6043 747,-441.6043 941,-441.6043 941,-419.6043 747,-419.6043"/>
<text text-anchor="start" x="767" y="-426.7043" font-family="Helvetica,sans-Serif" font-size="11.00" fill="#000000">mode_id</text>
<polygon fill="none" stroke="#000000" points="941,-419.6043 941,-441.6043 1003,-441.6043 1003,-419.6043 941,-419.6043"/>
<text text-anchor="start" x="943.878" y="-427.3043" font-family="Helvetica,sans-Serif" font-size="11.00" fill="#000000">unknown[0]</text>
<polygon fill="#ffffff" stroke="transparent" points="747,-400.6043 747,-419.6043 835,-419.6043 835,-400.6043 747,-400.6043"/>
<polygon fill="none" stroke="#000000" points="747,-400.6043 747,-419.6043 835,-419.6043 835,-400.6043 747,-400.6043"/>
<text text-anchor="start" x="750" y="-406.7043" font-family="Helvetica,sans-Serif" font-size="11.00" fill="#000000">&lt; 2</text>
<polygon fill="#ffffff" stroke="transparent" points="835,-400.6043 835,-419.6043 941,-419.6043 941,-400.6043 835,-400.6043"/>
<polygon fill="none" stroke="#000000" points="835,-400.6043 835,-419.6043 941,-419.6043 941,-400.6043 835,-400.6043"/>
<text text-anchor="start" x="905.6105" y="-406.7043" font-family="Helvetica,sans-Serif" font-size="11.00" fill="#000000">0 rows</text>
<polygon fill="#ffffff" stroke="transparent" points="941,-400.6043 941,-419.6043 1003,-419.6043 1003,-400.6043 941,-400.6043"/>
<polygon fill="none" stroke="#000000" points="941,-400.6043 941,-419.6043 1003,-419.6043 1003,-400.6043 941,-400.6043"/>
<text text-anchor="start" x="984.4053" y="-406.7043" font-family="Helvetica,sans-Serif" font-size="11.00" fill="#000000">0 &gt;</text>
<polygon fill="none" stroke="#000000" stroke-width="2" points="746,-399.6043 746,-553.6043 1004,-553.6043 1004,-399.6043 746,-399.6043"/>
</a>
</g>
</g>
<!-- cg_cohort_summary_stats&#45;&gt;cg_cohort_definition -->
<g id="edge19" class="edge">
<title>cg_cohort_summary_stats:w&#45;&gt;cg_cohort_definition:e</title>
<path fill="none" stroke="#000000" d="M732.3569,-496.5812C502.4455,-495.8321 424.2056,-476.2801 224,-350.6043 200.9296,-336.1222 210.7392,-304.6043 183.5,-304.6043"/>
<polygon fill="#000000" stroke="#000000" points="739,-496.5916 746.9943,-500.2043 743,-496.598 747,-496.6043 747,-496.6043 747,-496.6043 743,-496.598 747.0057,-493.0043 739,-496.5916 739,-496.5916"/>
<ellipse fill="none" stroke="#000000" cx="735.8" cy="-496.5865" rx="3.2" ry="3.2"/>
</g>
<!-- cg_cohort_summary_stats&#45;&gt;database_meta_data -->
<g id="edge20" class="edge">
<title>cg_cohort_summary_stats:w&#45;&gt;database_meta_data:e</title>
<path fill="none" stroke="#000000" d="M732.5739,-476.3832C654.9965,-498.1624 799.1416,-712.6043 696.5,-712.6043"/>
<polygon fill="#000000" stroke="#000000" points="739.0601,-475.5834 747.4406,-478.1772 743.0301,-475.0939 747,-474.6043 747,-474.6043 747,-474.6043 743.0301,-475.0939 746.5594,-471.0314 739.0601,-475.5834 739.0601,-475.5834"/>
<ellipse fill="none" stroke="#000000" cx="735.8842" cy="-475.9751" rx="3.2" ry="3.2"/>
</g>
<!-- ci_incidence_summary -->
<g id="node14" class="node">
<title>ci_incidence_summary</title>
<g id="a_node14"><a xlink:href="../../tables/ci_incidence_summary.html" xlink:title="ci_incidence_summary" target="_top">
<polygon fill="#ffffff" stroke="transparent" points="780.5,-316.1043 780.5,-377.1043 969.5,-377.1043 969.5,-316.1043 780.5,-316.1043"/>
<polygon fill="#f5f5f5" stroke="transparent" points="781,-353.6043 781,-376.6043 970,-376.6043 970,-353.6043 781,-353.6043"/>
<polygon fill="none" stroke="#000000" points="781,-353.6043 781,-376.6043 970,-376.6043 970,-353.6043 781,-353.6043"/>
<text text-anchor="start" x="786" y="-362.2043" font-family="Helvetica,sans-Serif" font-weight="bold" font-size="11.00" fill="#000000">ci_incidence_summary</text>
<text text-anchor="start" x="935.5219" y="-361.7043" font-family="Helvetica,sans-Serif" font-size="11.00" fill="#000000">[table]</text>
<polygon fill="none" stroke="#000000" points="781,-334.6043 781,-353.6043 970,-353.6043 970,-334.6043 781,-334.6043"/>
<text text-anchor="start" x="784" y="-340.7043" font-family="Helvetica,sans-Serif" font-size="11.00" fill="#000000">...</text>
<polygon fill="#ffffff" stroke="transparent" points="781,-315.6043 781,-334.6043 864,-334.6043 864,-315.6043 781,-315.6043"/>
<polygon fill="none" stroke="#000000" points="781,-315.6043 781,-334.6043 864,-334.6043 864,-315.6043 781,-315.6043"/>
<text text-anchor="start" x="784" y="-321.7043" font-family="Helvetica,sans-Serif" font-size="11.00" fill="#000000">&lt; 10</text>
<polygon fill="#ffffff" stroke="transparent" points="864,-315.6043 864,-334.6043 930,-334.6043 930,-315.6043 864,-315.6043"/>
<polygon fill="none" stroke="#000000" points="864,-315.6043 864,-334.6043 930,-334.6043 930,-315.6043 864,-315.6043"/>
<text text-anchor="start" x="894.6105" y="-321.7043" font-family="Helvetica,sans-Serif" font-size="11.00" fill="#000000">0 rows</text>
<polygon fill="#ffffff" stroke="transparent" points="930,-315.6043 930,-334.6043 970,-334.6043 970,-315.6043 930,-315.6043"/>
<polygon fill="none" stroke="#000000" points="930,-315.6043 930,-334.6043 970,-334.6043 970,-315.6043 930,-315.6043"/>
<text text-anchor="start" x="960.8862" y="-321.7043" font-family="Helvetica,sans-Serif" font-size="11.00" fill="#000000"> &#160;</text>
</a>
</g>
</g>
<!-- ci_incidence_summary&#45;&gt;cg_cohort_definition -->
<g id="edge22" class="edge">
<title>ci_incidence_summary:w&#45;&gt;cg_cohort_definition:e</title>
<path fill="none" stroke="#000000" d="M766.3355,-343.653C530.4659,-345.2218 459.4093,-383.8117 224,-324.6043 204.5312,-319.7077 203.5752,-304.6043 183.5,-304.6043"/>
<polygon fill="#000000" stroke="#000000" points="773,-343.6309 781.012,-347.2043 777,-343.6176 781,-343.6043 781,-343.6043 781,-343.6043 777,-343.6176 780.988,-340.0043 773,-343.6309 773,-343.6309"/>
<ellipse fill="none" stroke="#000000" cx="769.8001" cy="-343.6415" rx="3.2" ry="3.2"/>
</g>
<!-- ci_incidence_summary&#45;&gt;database_meta_data -->
<g id="edge21" class="edge">
<title>ci_incidence_summary:w&#45;&gt;database_meta_data:e</title>
<path fill="none" stroke="#000000" d="M766.3355,-346.0347C751.2195,-351.9382 746.5839,-367.9994 737,-387.6043 705.036,-452.9905 769.2808,-712.6043 696.5,-712.6043"/>
<polygon fill="#000000" stroke="#000000" points="773.1077,-344.9124 781.5886,-347.1559 777.0538,-344.2583 781,-343.6043 781,-343.6043 781,-343.6043 777.0538,-344.2583 780.4114,-340.0528 773.1077,-344.9124 773.1077,-344.9124"/>
<ellipse fill="none" stroke="#000000" cx="769.9507" cy="-345.4356" rx="3.2" ry="3.2"/>
</g>
<!-- cm_covariate_balance -->
<g id="node15" class="node">
<title>cm_covariate_balance</title>
<g id="a_node15"><a xlink:href="../../tables/cm_covariate_balance.html" xlink:title="cm_covariate_balance" target="_top">
<polygon fill="#ffffff" stroke="transparent" points="782,-685.1043 782,-746.1043 968,-746.1043 968,-685.1043 782,-685.1043"/>
<polygon fill="#f5f5f5" stroke="transparent" points="782,-722.6043 782,-745.6043 968,-745.6043 968,-722.6043 782,-722.6043"/>
<polygon fill="none" stroke="#000000" points="782,-722.6043 782,-745.6043 968,-745.6043 968,-722.6043 782,-722.6043"/>
<text text-anchor="start" x="787" y="-731.2043" font-family="Helvetica,sans-Serif" font-weight="bold" font-size="11.00" fill="#000000">cm_covariate_balance</text>
<text text-anchor="start" x="933.5219" y="-730.7043" font-family="Helvetica,sans-Serif" font-size="11.00" fill="#000000">[table]</text>
<polygon fill="none" stroke="#000000" points="782,-703.6043 782,-722.6043 968,-722.6043 968,-703.6043 782,-703.6043"/>
<text text-anchor="start" x="785" y="-709.7043" font-family="Helvetica,sans-Serif" font-size="11.00" fill="#000000">...</text>
<polygon fill="#ffffff" stroke="transparent" points="782,-684.6043 782,-703.6043 860,-703.6043 860,-684.6043 782,-684.6043"/>
<polygon fill="none" stroke="#000000" points="782,-684.6043 782,-703.6043 860,-703.6043 860,-684.6043 782,-684.6043"/>
<text text-anchor="start" x="785" y="-690.7043" font-family="Helvetica,sans-Serif" font-size="11.00" fill="#000000">&lt; 4</text>
<polygon fill="#ffffff" stroke="transparent" points="860,-684.6043 860,-703.6043 927,-703.6043 927,-684.6043 860,-684.6043"/>
<polygon fill="none" stroke="#000000" points="860,-684.6043 860,-703.6043 927,-703.6043 927,-684.6043 860,-684.6043"/>
<text text-anchor="start" x="891.6105" y="-690.7043" font-family="Helvetica,sans-Serif" font-size="11.00" fill="#000000">0 rows</text>
<polygon fill="#ffffff" stroke="transparent" points="927,-684.6043 927,-703.6043 968,-703.6043 968,-684.6043 927,-684.6043"/>
<polygon fill="none" stroke="#000000" points="927,-684.6043 927,-703.6043 968,-703.6043 968,-684.6043 927,-684.6043"/>
<text text-anchor="start" x="958.8862" y="-690.7043" font-family="Helvetica,sans-Serif" font-size="11.00" fill="#000000"> &#160;</text>
</a>
</g>
</g>
<!-- cm_covariate_balance&#45;&gt;database_meta_data -->
<g id="edge23" class="edge">
<title>cm_covariate_balance:w&#45;&gt;database_meta_data:e</title>
<path fill="none" stroke="#000000" d="M767.501,-712.6043C740.7645,-712.6043 729.1563,-712.6043 696.5,-712.6043"/>
<polygon fill="#000000" stroke="#000000" points="774,-712.6044 782,-716.2043 778,-712.6043 782,-712.6043 782,-712.6043 782,-712.6043 778,-712.6043 782,-709.0043 774,-712.6044 774,-712.6044"/>
<ellipse fill="none" stroke="#000000" cx="770.8" cy="-712.6044" rx="3.2" ry="3.2"/>
</g>
<!-- cm_diagnostics_summary -->
<g id="node16" class="node">
<title>cm_diagnostics_summary</title>
<g id="a_node16"><a xlink:href="../../tables/cm_diagnostics_summary.html" xlink:title="cm_diagnostics_summary" target="_top">
<polygon fill="#ffffff" stroke="transparent" points="770,-234.1043 770,-295.1043 980,-295.1043 980,-234.1043 770,-234.1043"/>
<polygon fill="#f5f5f5" stroke="transparent" points="770,-271.6043 770,-294.6043 980,-294.6043 980,-271.6043 770,-271.6043"/>
<polygon fill="none" stroke="#000000" points="770,-271.6043 770,-294.6043 980,-294.6043 980,-271.6043 770,-271.6043"/>
<text text-anchor="start" x="775" y="-280.2043" font-family="Helvetica,sans-Serif" font-weight="bold" font-size="11.00" fill="#000000">cm_diagnostics_summary</text>
<text text-anchor="start" x="945.5219" y="-279.7043" font-family="Helvetica,sans-Serif" font-size="11.00" fill="#000000">[table]</text>
<polygon fill="none" stroke="#000000" points="770,-252.6043 770,-271.6043 980,-271.6043 980,-252.6043 770,-252.6043"/>
<text text-anchor="start" x="773" y="-258.7043" font-family="Helvetica,sans-Serif" font-size="11.00" fill="#000000">...</text>
<polygon fill="#ffffff" stroke="transparent" points="770,-233.6043 770,-252.6043 856,-252.6043 856,-233.6043 770,-233.6043"/>
<polygon fill="none" stroke="#000000" points="770,-233.6043 770,-252.6043 856,-252.6043 856,-233.6043 770,-233.6043"/>
<text text-anchor="start" x="773" y="-239.7043" font-family="Helvetica,sans-Serif" font-size="11.00" fill="#000000">&lt; 5</text>
<polygon fill="#ffffff" stroke="transparent" points="856,-233.6043 856,-252.6043 926,-252.6043 926,-233.6043 856,-233.6043"/>
<polygon fill="none" stroke="#000000" points="856,-233.6043 856,-252.6043 926,-252.6043 926,-233.6043 856,-233.6043"/>
<text text-anchor="start" x="890.6105" y="-239.7043" font-family="Helvetica,sans-Serif" font-size="11.00" fill="#000000">0 rows</text>
<polygon fill="#ffffff" stroke="transparent" points="926,-233.6043 926,-252.6043 980,-252.6043 980,-233.6043 926,-233.6043"/>
<polygon fill="none" stroke="#000000" points="926,-233.6043 926,-252.6043 980,-252.6043 980,-233.6043 926,-233.6043"/>
<text text-anchor="start" x="961.4053" y="-239.7043" font-family="Helvetica,sans-Serif" font-size="11.00" fill="#000000">1 &gt;</text>
</a>
</g>
</g>
<!-- cm_diagnostics_summary&#45;&gt;cg_cohort_definition -->
<g id="edge24" class="edge">
<title>cm_diagnostics_summary:w&#45;&gt;cg_cohort_definition:e</title>
<path fill="none" stroke="#000000" d="M755.5887,-262.5201C736.9144,-265.0869 728.2667,-272.374 704,-275.6043 474.3339,-306.1771 415.1921,-304.6043 183.5,-304.6043"/>
<polygon fill="#000000" stroke="#000000" points="762.0161,-262.1117 770.2283,-265.1971 766.0081,-261.858 770,-261.6043 770,-261.6043 770,-261.6043 766.0081,-261.858 769.7717,-258.0116 762.0161,-262.1117 762.0161,-262.1117"/>
<ellipse fill="none" stroke="#000000" cx="758.8225" cy="-262.3146" rx="3.2" ry="3.2"/>
</g>
<!-- cm_diagnostics_summary&#45;&gt;cg_cohort_definition -->
<g id="edge26" class="edge">
<title>cm_diagnostics_summary:w&#45;&gt;cg_cohort_definition:e</title>
<path fill="none" stroke="#000000" d="M755.6869,-259.4955C737.0589,-257.9907 728.0831,-263.0213 704,-265.6043 473.524,-290.3233 415.2978,-298.6043 183.5,-304.6043"/>
<polygon fill="#000000" stroke="#000000" points="762.0854,-260.4382 769.4752,-265.1659 766.0427,-261.0212 770,-261.6043 770,-261.6043 770,-261.6043 766.0427,-261.0212 770.5248,-258.0428 762.0854,-260.4382 762.0854,-260.4382"/>
<ellipse fill="none" stroke="#000000" cx="758.9196" cy="-259.9717" rx="3.2" ry="3.2"/>
</g>
<!-- cm_diagnostics_summary&#45;&gt;cg_cohort_definition -->
<g id="edge27" class="edge">
<title>cm_diagnostics_summary:w&#45;&gt;cg_cohort_definition:e</title>
<path fill="none" stroke="#000000" d="M755.9549,-265.3415C737.1445,-270.9425 728.1984,-276.009 704,-278.6043 473.524,-303.3233 415.2978,-311.6043 183.5,-304.6043"/>
<polygon fill="#000000" stroke="#000000" points="762.269,-263.6615 770.9257,-265.0833 766.1345,-262.6329 770,-261.6043 770,-261.6043 770,-261.6043 766.1345,-262.6329 769.0743,-258.1254 762.269,-263.6615 762.269,-263.6615"/>
<ellipse fill="none" stroke="#000000" cx="759.1766" cy="-264.4843" rx="3.2" ry="3.2"/>
</g>
<!-- cm_diagnostics_summary&#45;&gt;database_meta_data -->
<g id="edge25" class="edge">
<title>cm_diagnostics_summary:w&#45;&gt;database_meta_data:e</title>
<path fill="none" stroke="#000000" d="M755.7786,-265.2761C745.1388,-272.3124 743.6525,-288.5206 737,-305.6043 720.5094,-347.9524 741.9456,-712.6043 696.5,-712.6043"/>
<polygon fill="#000000" stroke="#000000" points="762.254,-263.6043 770.9,-265.09 766.127,-262.6043 770,-261.6043 770,-261.6043 770,-261.6043 766.127,-262.6043 769.1,-258.1186 762.254,-263.6043 762.254,-263.6043"/>
<ellipse fill="none" stroke="#000000" cx="759.1556" cy="-264.4043" rx="3.2" ry="3.2"/>
</g>
<!-- plp_cohorts -->
<g id="node17" class="node">
<title>plp_cohorts</title>
<g id="a_node17"><a xlink:href="../../tables/plp_cohorts.html" xlink:title="plp_cohorts" target="_top">
<polygon fill="#ffffff" stroke="transparent" points="258.5,-59.1043 258.5,-120.1043 375.5,-120.1043 375.5,-59.1043 258.5,-59.1043"/>
<polygon fill="#f5f5f5" stroke="transparent" points="259,-96.6043 259,-119.6043 376,-119.6043 376,-96.6043 259,-96.6043"/>
<polygon fill="none" stroke="#000000" points="259,-96.6043 259,-119.6043 376,-119.6043 376,-96.6043 259,-96.6043"/>
<text text-anchor="start" x="264" y="-105.2043" font-family="Helvetica,sans-Serif" font-weight="bold" font-size="11.00" fill="#000000">plp_cohorts</text>
<text text-anchor="start" x="341.5219" y="-104.7043" font-family="Helvetica,sans-Serif" font-size="11.00" fill="#000000">[table]</text>
<polygon fill="none" stroke="#000000" points="259,-77.6043 259,-96.6043 376,-96.6043 376,-77.6043 259,-77.6043"/>
<text text-anchor="start" x="262" y="-83.7043" font-family="Helvetica,sans-Serif" font-size="11.00" fill="#000000">...</text>
<polygon fill="#ffffff" stroke="transparent" points="259,-58.6043 259,-77.6043 298,-77.6043 298,-58.6043 259,-58.6043"/>
<polygon fill="none" stroke="#000000" points="259,-58.6043 259,-77.6043 298,-77.6043 298,-58.6043 259,-58.6043"/>
<text text-anchor="start" x="262" y="-64.7043" font-family="Helvetica,sans-Serif" font-size="11.00" fill="#000000">&lt; 1</text>
<polygon fill="#ffffff" stroke="transparent" points="298,-58.6043 298,-77.6043 345,-77.6043 345,-58.6043 298,-58.6043"/>
<polygon fill="none" stroke="#000000" points="298,-58.6043 298,-77.6043 345,-77.6043 345,-58.6043 298,-58.6043"/>
<text text-anchor="start" x="309.6105" y="-64.7043" font-family="Helvetica,sans-Serif" font-size="11.00" fill="#000000">0 rows</text>
<polygon fill="#ffffff" stroke="transparent" points="345,-58.6043 345,-77.6043 376,-77.6043 376,-58.6043 345,-58.6043"/>
<polygon fill="none" stroke="#000000" points="345,-58.6043 345,-77.6043 376,-77.6043 376,-58.6043 345,-58.6043"/>
<text text-anchor="start" x="357.4053" y="-64.7043" font-family="Helvetica,sans-Serif" font-size="11.00" fill="#000000">2 &gt;</text>
</a>
</g>
</g>
<!-- plp_cohorts&#45;&gt;cg_cohort_definition -->
<g id="edge29" class="edge">
<title>plp_cohorts:w&#45;&gt;cg_cohort_definition:e</title>
<path fill="none" stroke="#000000" d="M248.6228,-88.2501C233.9796,-93.6868 233.0918,-111.7984 224,-130.6043 189.4403,-202.0891 262.9005,-304.6043 183.5,-304.6043"/>
<polygon fill="#000000" stroke="#000000" points="257.5833,-82.779 258.8365,-90.6803 257.2562,-90.9309 256.003,-83.0296 257.5833,-82.779"/>
<polyline fill="none" stroke="#000000" points="259,-86.6043 255.0494,-87.2309 "/>
<ellipse fill="none" stroke="#000000" cx="251.8889" cy="-87.7322" rx="3.2" ry="3.2"/>
</g>
<!-- plp_diagnostics -->
<g id="node18" class="node">
<title>plp_diagnostics</title>
<g id="a_node18"><a xlink:href="../../tables/plp_diagnostics.html" xlink:title="plp_diagnostics" target="_top">
<polygon fill="#ffffff" stroke="transparent" points="803.5,-603.1043 803.5,-664.1043 946.5,-664.1043 946.5,-603.1043 803.5,-603.1043"/>
<polygon fill="#f5f5f5" stroke="transparent" points="804,-640.6043 804,-663.6043 947,-663.6043 947,-640.6043 804,-640.6043"/>
<polygon fill="none" stroke="#000000" points="804,-640.6043 804,-663.6043 947,-663.6043 947,-640.6043 804,-640.6043"/>
<text text-anchor="start" x="809" y="-649.2043" font-family="Helvetica,sans-Serif" font-weight="bold" font-size="11.00" fill="#000000">plp_diagnostics</text>
<text text-anchor="start" x="912.5219" y="-648.7043" font-family="Helvetica,sans-Serif" font-size="11.00" fill="#000000">[table]</text>
<polygon fill="none" stroke="#000000" points="804,-621.6043 804,-640.6043 947,-640.6043 947,-621.6043 804,-621.6043"/>
<text text-anchor="start" x="807" y="-627.7043" font-family="Helvetica,sans-Serif" font-size="11.00" fill="#000000">...</text>
<polygon fill="#ffffff" stroke="transparent" points="804,-602.6043 804,-621.6043 861,-621.6043 861,-602.6043 804,-602.6043"/>
<polygon fill="none" stroke="#000000" points="804,-602.6043 804,-621.6043 861,-621.6043 861,-602.6043 804,-602.6043"/>
<text text-anchor="start" x="807" y="-608.7043" font-family="Helvetica,sans-Serif" font-size="11.00" fill="#000000">&lt; 3</text>
<polygon fill="#ffffff" stroke="transparent" points="861,-602.6043 861,-621.6043 917,-621.6043 917,-602.6043 861,-602.6043"/>
<polygon fill="none" stroke="#000000" points="861,-602.6043 861,-621.6043 917,-621.6043 917,-602.6043 861,-602.6043"/>
<text text-anchor="start" x="881.6105" y="-608.7043" font-family="Helvetica,sans-Serif" font-size="11.00" fill="#000000">0 rows</text>
<polygon fill="#ffffff" stroke="transparent" points="917,-602.6043 917,-621.6043 947,-621.6043 947,-602.6043 917,-602.6043"/>
<polygon fill="none" stroke="#000000" points="917,-602.6043 917,-621.6043 947,-621.6043 947,-602.6043 917,-602.6043"/>
<text text-anchor="start" x="937.8862" y="-608.7043" font-family="Helvetica,sans-Serif" font-size="11.00" fill="#000000"> &#160;</text>
</a>
</g>
</g>
<!-- plp_diagnostics&#45;&gt;database_meta_data -->
<g id="edge30" class="edge">
<title>plp_diagnostics:w&#45;&gt;database_meta_data:e</title>
<path fill="none" stroke="#000000" d="M789.4448,-632.1288C766.7146,-637.4667 760.6104,-656.0015 737,-674.6043 717.6122,-689.88 721.1827,-712.6043 696.5,-712.6043"/>
<polygon fill="#000000" stroke="#000000" points="796.0435,-631.4377 804.375,-634.1847 800.0218,-631.021 804,-630.6043 804,-630.6043 804,-630.6043 800.0218,-631.021 803.625,-627.0239 796.0435,-631.4377 796.0435,-631.4377"/>
<ellipse fill="none" stroke="#000000" cx="792.8609" cy="-631.771" rx="3.2" ry="3.2"/>
</g>
<!-- plp_performances -->
<g id="node19" class="node">
<title>plp_performances</title>
<g id="a_node19"><a xlink:href="../../tables/plp_performances.html" xlink:title="plp_performances" target="_top">
<polygon fill="#ffffff" stroke="transparent" points="795.5,-152.1043 795.5,-213.1043 954.5,-213.1043 954.5,-152.1043 795.5,-152.1043"/>
<polygon fill="#f5f5f5" stroke="transparent" points="796,-189.6043 796,-212.6043 955,-212.6043 955,-189.6043 796,-189.6043"/>
<polygon fill="none" stroke="#000000" points="796,-189.6043 796,-212.6043 955,-212.6043 955,-189.6043 796,-189.6043"/>
<text text-anchor="start" x="801" y="-198.2043" font-family="Helvetica,sans-Serif" font-weight="bold" font-size="11.00" fill="#000000">plp_performances</text>
<text text-anchor="start" x="920.5219" y="-197.7043" font-family="Helvetica,sans-Serif" font-size="11.00" fill="#000000">[table]</text>
<polygon fill="none" stroke="#000000" points="796,-170.6043 796,-189.6043 955,-189.6043 955,-170.6043 796,-170.6043"/>
<text text-anchor="start" x="799" y="-176.7043" font-family="Helvetica,sans-Serif" font-size="11.00" fill="#000000">...</text>
<polygon fill="#ffffff" stroke="transparent" points="796,-151.6043 796,-170.6043 861,-170.6043 861,-151.6043 796,-151.6043"/>
<polygon fill="none" stroke="#000000" points="796,-151.6043 796,-170.6043 861,-170.6043 861,-151.6043 796,-151.6043"/>
<text text-anchor="start" x="799" y="-157.7043" font-family="Helvetica,sans-Serif" font-size="11.00" fill="#000000">&lt; 4</text>
<polygon fill="#ffffff" stroke="transparent" points="861,-151.6043 861,-170.6043 921,-170.6043 921,-151.6043 861,-151.6043"/>
<polygon fill="none" stroke="#000000" points="861,-151.6043 861,-170.6043 921,-170.6043 921,-151.6043 861,-151.6043"/>
<text text-anchor="start" x="885.6105" y="-157.7043" font-family="Helvetica,sans-Serif" font-size="11.00" fill="#000000">0 rows</text>
<polygon fill="#ffffff" stroke="transparent" points="921,-151.6043 921,-170.6043 955,-170.6043 955,-151.6043 921,-151.6043"/>
<polygon fill="none" stroke="#000000" points="921,-151.6043 921,-170.6043 955,-170.6043 955,-151.6043 921,-151.6043"/>
<text text-anchor="start" x="945.8862" y="-157.7043" font-family="Helvetica,sans-Serif" font-size="11.00" fill="#000000"> &#160;</text>
</a>
</g>
</g>
<!-- plp_performances&#45;&gt;cg_cohort_definition -->
<g id="edge32" class="edge">
<title>plp_performances:w&#45;&gt;cg_cohort_definition:e</title>
<path fill="none" stroke="#000000" d="M781.6231,-181.8806C689.6954,-198.8223 199.4741,-304.6043 183.5,-304.6043"/>
<polygon fill="#000000" stroke="#000000" points="788.0984,-180.8554 796.563,-183.16 792.0492,-180.2299 796,-179.6043 796,-179.6043 796,-179.6043 792.0492,-180.2299 795.437,-176.0486 788.0984,-180.8554 788.0984,-180.8554"/>
<ellipse fill="none" stroke="#000000" cx="784.9378" cy="-181.3559" rx="3.2" ry="3.2"/>
</g>
<!-- plp_performances&#45;&gt;cg_cohort_definition -->
<g id="edge33" class="edge">
<title>plp_performances:w&#45;&gt;cg_cohort_definition:e</title>
<path fill="none" stroke="#000000" d="M781.4357,-180.6474C676.8343,-192.6714 249.2277,-304.6043 183.5,-304.6043"/>
<polygon fill="#000000" stroke="#000000" points="788.0204,-180.1759 796.2572,-183.1951 792.0102,-179.8901 796,-179.6043 796,-179.6043 796,-179.6043 792.0102,-179.8901 795.7428,-176.0135 788.0204,-180.1759 788.0204,-180.1759"/>
<ellipse fill="none" stroke="#000000" cx="784.8286" cy="-180.4045" rx="3.2" ry="3.2"/>
</g>
<!-- plp_performances&#45;&gt;database_meta_data -->
<g id="edge31" class="edge">
<title>plp_performances:w&#45;&gt;database_meta_data:e</title>
<path fill="none" stroke="#000000" d="M781.5771,-178.3425C759.7217,-179.0108 750.2611,-193.6906 737,-217.6043 710.56,-265.2833 751.0194,-706.6043 696.5,-712.6043"/>
<polygon fill="#000000" stroke="#000000" points="788.0304,-178.907 795.6862,-183.1906 792.0152,-179.2557 796,-179.6043 796,-179.6043 796,-179.6043 792.0152,-179.2557 796.3138,-176.018 788.0304,-178.907 788.0304,-178.907"/>
<ellipse fill="none" stroke="#000000" cx="784.8426" cy="-178.6281" rx="3.2" ry="3.2"/>
</g>
<!-- plp_performances&#45;&gt;database_meta_data -->
<g id="edge34" class="edge">
<title>plp_performances:w&#45;&gt;database_meta_data:e</title>
<path fill="none" stroke="#000000" d="M781.8843,-183.6332C759.81,-191.8738 750.3231,-206.5788 737,-230.6043 710.56,-278.2833 751.0194,-719.6043 696.5,-712.6043"/>
<polygon fill="#000000" stroke="#000000" points="788.3072,-181.8 796.9881,-183.0661 792.1536,-180.7022 796,-179.6043 796,-179.6043 796,-179.6043 792.1536,-180.7022 795.0119,-176.1426 788.3072,-181.8 788.3072,-181.8"/>
<ellipse fill="none" stroke="#000000" cx="785.2301" cy="-182.6783" rx="3.2" ry="3.2"/>
</g>
<!-- sccs_diagnostics_summary -->
<g id="node20" class="node">
<title>sccs_diagnostics_summary</title>
<g id="a_node20"><a xlink:href="../../tables/sccs_diagnostics_summary.html" xlink:title="sccs_diagnostics_summary" target="_top">
<polygon fill="#ffffff" stroke="transparent" points="765.5,-70.1043 765.5,-131.1043 984.5,-131.1043 984.5,-70.1043 765.5,-70.1043"/>
<polygon fill="#f5f5f5" stroke="transparent" points="766,-107.6043 766,-130.6043 985,-130.6043 985,-107.6043 766,-107.6043"/>
<polygon fill="none" stroke="#000000" points="766,-107.6043 766,-130.6043 985,-130.6043 985,-107.6043 766,-107.6043"/>
<text text-anchor="start" x="771" y="-116.2043" font-family="Helvetica,sans-Serif" font-weight="bold" font-size="11.00" fill="#000000">sccs_diagnostics_summary</text>
<text text-anchor="start" x="950.5219" y="-115.7043" font-family="Helvetica,sans-Serif" font-size="11.00" fill="#000000">[table]</text>
<polygon fill="none" stroke="#000000" points="766,-88.6043 766,-107.6043 985,-107.6043 985,-88.6043 766,-88.6043"/>
<text text-anchor="start" x="769" y="-94.7043" font-family="Helvetica,sans-Serif" font-size="11.00" fill="#000000">...</text>
<polygon fill="#ffffff" stroke="transparent" points="766,-69.6043 766,-88.6043 856,-88.6043 856,-69.6043 766,-69.6043"/>
<polygon fill="none" stroke="#000000" points="766,-69.6043 766,-88.6043 856,-88.6043 856,-69.6043 766,-69.6043"/>
<text text-anchor="start" x="769" y="-75.7043" font-family="Helvetica,sans-Serif" font-size="11.00" fill="#000000">&lt; 7</text>
<polygon fill="#ffffff" stroke="transparent" points="856,-69.6043 856,-88.6043 929,-88.6043 929,-69.6043 856,-69.6043"/>
<polygon fill="none" stroke="#000000" points="856,-69.6043 856,-88.6043 929,-88.6043 929,-69.6043 856,-69.6043"/>
<text text-anchor="start" x="893.6105" y="-75.7043" font-family="Helvetica,sans-Serif" font-size="11.00" fill="#000000">0 rows</text>
<polygon fill="#ffffff" stroke="transparent" points="929,-69.6043 929,-88.6043 985,-88.6043 985,-69.6043 929,-69.6043"/>
<polygon fill="none" stroke="#000000" points="929,-69.6043 929,-88.6043 985,-88.6043 985,-69.6043 929,-69.6043"/>
<text text-anchor="start" x="966.4053" y="-75.7043" font-family="Helvetica,sans-Serif" font-size="11.00" fill="#000000">4 &gt;</text>
</a>
</g>
</g>
<!-- sccs_diagnostics_summary&#45;&gt;database_meta_data -->
<g id="edge35" class="edge">
<title>sccs_diagnostics_summary:w&#45;&gt;database_meta_data:e</title>
<path fill="none" stroke="#000000" d="M752.0518,-101.8205C742.9418,-109.221 742.521,-125.3147 737,-141.6043 716.5838,-201.8424 760.1038,-712.6043 696.5,-712.6043"/>
<polygon fill="#000000" stroke="#000000" points="758.3422,-99.9191 767.0417,-101.0503 762.1711,-98.7617 766,-97.6043 766,-97.6043 766,-97.6043 762.1711,-98.7617 764.9583,-94.1583 758.3422,-99.9191 758.3422,-99.9191"/>
<ellipse fill="none" stroke="#000000" cx="755.2791" cy="-100.845" rx="3.2" ry="3.2"/>
</g>
<!-- sccs_exposures_outcome_set -->
<g id="node21" class="node">
<title>sccs_exposures_outcome_set</title>
<g id="a_node21"><a xlink:href="../../tables/sccs_exposures_outcome_set.html" xlink:title="sccs_exposures_outcome_set" target="_top">
<polygon fill="#ffffff" stroke="transparent" points="456.5,-70.1043 456.5,-131.1043 690.5,-131.1043 690.5,-70.1043 456.5,-70.1043"/>
<polygon fill="#f5f5f5" stroke="transparent" points="456.5,-107.6043 456.5,-130.6043 690.5,-130.6043 690.5,-107.6043 456.5,-107.6043"/>
<polygon fill="none" stroke="#000000" points="456.5,-107.6043 456.5,-130.6043 690.5,-130.6043 690.5,-107.6043 456.5,-107.6043"/>
<text text-anchor="start" x="461.5" y="-116.2043" font-family="Helvetica,sans-Serif" font-weight="bold" font-size="11.00" fill="#000000">sccs_exposures_outcome_set</text>
<text text-anchor="start" x="656.0219" y="-115.7043" font-family="Helvetica,sans-Serif" font-size="11.00" fill="#000000">[table]</text>
<polygon fill="none" stroke="#000000" points="456.5,-88.6043 456.5,-107.6043 690.5,-107.6043 690.5,-88.6043 456.5,-88.6043"/>
<text text-anchor="start" x="459.5" y="-94.7043" font-family="Helvetica,sans-Serif" font-size="11.00" fill="#000000">...</text>
<polygon fill="#ffffff" stroke="transparent" points="456.5,-69.6043 456.5,-88.6043 551.5,-88.6043 551.5,-69.6043 456.5,-69.6043"/>
<polygon fill="none" stroke="#000000" points="456.5,-69.6043 456.5,-88.6043 551.5,-88.6043 551.5,-69.6043 456.5,-69.6043"/>
<text text-anchor="start" x="459.5" y="-75.7043" font-family="Helvetica,sans-Serif" font-size="11.00" fill="#000000">&lt; 3</text>
<polygon fill="#ffffff" stroke="transparent" points="551.5,-69.6043 551.5,-88.6043 626.5,-88.6043 626.5,-69.6043 551.5,-69.6043"/>
<polygon fill="none" stroke="#000000" points="551.5,-69.6043 551.5,-88.6043 626.5,-88.6043 626.5,-69.6043 551.5,-69.6043"/>
<text text-anchor="start" x="591.1105" y="-75.7043" font-family="Helvetica,sans-Serif" font-size="11.00" fill="#000000">0 rows</text>
<polygon fill="#ffffff" stroke="transparent" points="626.5,-69.6043 626.5,-88.6043 690.5,-88.6043 690.5,-69.6043 626.5,-69.6043"/>
<polygon fill="none" stroke="#000000" points="626.5,-69.6043 626.5,-88.6043 690.5,-88.6043 690.5,-69.6043 626.5,-69.6043"/>
<text text-anchor="start" x="665.7904" y="-75.7043" font-family="Helvetica,sans-Serif" font-size="11.00" fill="#000000">10 &gt;</text>
</a>
</g>
</g>
<!-- sccs_diagnostics_summary&#45;&gt;sccs_exposures_outcome_set -->
<g id="edge36" class="edge">
<title>sccs_diagnostics_summary:w&#45;&gt;sccs_exposures_outcome_set:e</title>
<path fill="none" stroke="#000000" d="M751.2943,-97.6043C729.0144,-97.6043 718.5503,-97.6043 690.5,-97.6043"/>
<polygon fill="#000000" stroke="#000000" points="758,-97.6044 766,-101.2043 762,-97.6043 766,-97.6043 766,-97.6043 766,-97.6043 762,-97.6043 766,-94.0043 758,-97.6044 758,-97.6044"/>
<ellipse fill="none" stroke="#000000" cx="754.8" cy="-97.6044" rx="3.2" ry="3.2"/>
</g>
<!-- sccs_exposures_outcome_set&#45;&gt;cg_cohort_definition -->
<g id="edge37" class="edge">
<title>sccs_exposures_outcome_set:w&#45;&gt;cg_cohort_definition:e</title>
<path fill="none" stroke="#000000" d="M441.9785,-100.3282C411.5334,-114.6658 448.3077,-181.8885 410,-212.6043 344.6158,-265.0305 294.3339,-198.0329 224,-243.6043 196.6892,-261.2998 216.0425,-304.6043 183.5,-304.6043"/>
<polygon fill="#000000" stroke="#000000" points="448.6371,-99.0792 457.1637,-101.1426 452.5686,-98.3418 456.5,-97.6043 456.5,-97.6043 456.5,-97.6043 452.5686,-98.3418 455.8363,-94.066 448.6371,-99.0792 448.6371,-99.0792"/>
<ellipse fill="none" stroke="#000000" cx="445.492" cy="-99.6692" rx="3.2" ry="3.2"/>
</g>
<!-- sccs_result -->
<g id="node22" class="node">
<title>sccs_result</title>
<g id="a_node22"><a xlink:href="../../tables/sccs_result.html" xlink:title="sccs_result" target="_top">
<polygon fill="#ffffff" stroke="transparent" points="1099,-70.1043 1099,-131.1043 1212,-131.1043 1212,-70.1043 1099,-70.1043"/>
<polygon fill="#f5f5f5" stroke="transparent" points="1099.5,-107.6043 1099.5,-130.6043 1212.5,-130.6043 1212.5,-107.6043 1099.5,-107.6043"/>
<polygon fill="none" stroke="#000000" points="1099.5,-107.6043 1099.5,-130.6043 1212.5,-130.6043 1212.5,-107.6043 1099.5,-107.6043"/>
<text text-anchor="start" x="1104.5" y="-116.2043" font-family="Helvetica,sans-Serif" font-weight="bold" font-size="11.00" fill="#000000">sccs_result</text>
<text text-anchor="start" x="1178.0219" y="-115.7043" font-family="Helvetica,sans-Serif" font-size="11.00" fill="#000000">[table]</text>
<polygon fill="none" stroke="#000000" points="1099.5,-88.6043 1099.5,-107.6043 1212.5,-107.6043 1212.5,-88.6043 1099.5,-88.6043"/>
<text text-anchor="start" x="1102.5" y="-94.7043" font-family="Helvetica,sans-Serif" font-size="11.00" fill="#000000">...</text>
<polygon fill="#ffffff" stroke="transparent" points="1099.5,-69.6043 1099.5,-88.6043 1144.5,-88.6043 1144.5,-69.6043 1099.5,-69.6043"/>
<polygon fill="none" stroke="#000000" points="1099.5,-69.6043 1099.5,-88.6043 1144.5,-88.6043 1144.5,-69.6043 1099.5,-69.6043"/>
<text text-anchor="start" x="1102.5" y="-75.7043" font-family="Helvetica,sans-Serif" font-size="11.00" fill="#000000">&lt; 12</text>
<polygon fill="#ffffff" stroke="transparent" points="1144.5,-69.6043 1144.5,-88.6043 1191.5,-88.6043 1191.5,-69.6043 1144.5,-69.6043"/>
<polygon fill="none" stroke="#000000" points="1144.5,-69.6043 1144.5,-88.6043 1191.5,-88.6043 1191.5,-69.6043 1144.5,-69.6043"/>
<text text-anchor="start" x="1156.1105" y="-75.7043" font-family="Helvetica,sans-Serif" font-size="11.00" fill="#000000">0 rows</text>
<polygon fill="#ffffff" stroke="transparent" points="1191.5,-69.6043 1191.5,-88.6043 1212.5,-88.6043 1212.5,-69.6043 1191.5,-69.6043"/>
<polygon fill="none" stroke="#000000" points="1191.5,-69.6043 1191.5,-88.6043 1212.5,-88.6043 1212.5,-69.6043 1191.5,-69.6043"/>
<text text-anchor="start" x="1203.3862" y="-75.7043" font-family="Helvetica,sans-Serif" font-size="11.00" fill="#000000"> &#160;</text>
</a>
</g>
</g>
<!-- sccs_result&#45;&gt;database_meta_data -->
<g id="edge40" class="edge">
<title>sccs_result:w&#45;&gt;database_meta_data:e</title>
<path fill="none" stroke="#000000" d="M1084.8745,-98.178C901.4292,-113.3621 1165.0031,-426.037 1013,-565.6043 967.6064,-607.2841 785.2499,-554.2674 737,-592.6043 692.9288,-627.621 752.7889,-712.6043 696.5,-712.6043"/>
<polygon fill="#000000" stroke="#000000" points="1091.5061,-97.9179 1099.6411,-101.2015 1095.5031,-97.7611 1099.5,-97.6043 1099.5,-97.6043 1099.5,-97.6043 1095.5031,-97.7611 1099.3589,-94.0071 1091.5061,-97.9179 1091.5061,-97.9179"/>
<ellipse fill="none" stroke="#000000" cx="1088.3086" cy="-98.0433" rx="3.2" ry="3.2"/>
</g>
<!-- sccs_result&#45;&gt;sccs_diagnostics_summary -->
<g id="edge38" class="edge">
<title>sccs_result:w&#45;&gt;sccs_diagnostics_summary:e</title>
<path fill="none" stroke="#000000" d="M1085.8711,-92.6713C1045.8264,-78.7783 1031.0187,-80.4227 985,-97.6043"/>
<polygon fill="#000000" stroke="#000000" points="1091.9776,-94.8815 1098.2747,-100.9894 1095.7388,-96.2429 1099.5,-97.6043 1099.5,-97.6043 1099.5,-97.6043 1095.7388,-96.2429 1100.7253,-94.2192 1091.9776,-94.8815 1091.9776,-94.8815"/>
<ellipse fill="none" stroke="#000000" cx="1088.9686" cy="-93.7924" rx="3.2" ry="3.2"/>
</g>
<!-- sccs_result&#45;&gt;sccs_diagnostics_summary -->
<g id="edge39" class="edge">
<title>sccs_result:w&#45;&gt;sccs_diagnostics_summary:e</title>
<path fill="none" stroke="#000000" d="M1085.0959,-95.9619C1045.6332,-91.6662 1030.7205,-92.2137 985,-97.6043"/>
<polygon fill="#000000" stroke="#000000" points="1091.5515,-96.6979 1099.0921,-101.1811 1095.5258,-97.1511 1099.5,-97.6043 1099.5,-97.6043 1099.5,-97.6043 1095.5258,-97.1511 1099.9079,-94.0275 1091.5515,-96.6979 1091.5515,-96.6979"/>
<ellipse fill="none" stroke="#000000" cx="1088.3721" cy="-96.3354" rx="3.2" ry="3.2"/>
</g>
<!-- sccs_result&#45;&gt;sccs_diagnostics_summary -->
<g id="edge41" class="edge">
<title>sccs_result:w&#45;&gt;sccs_diagnostics_summary:e</title>
<path fill="none" stroke="#000000" d="M1085.0959,-99.5205C1045.6332,-104.5321 1030.7205,-103.8934 985,-97.6043"/>
<polygon fill="#000000" stroke="#000000" points="1091.5699,-98.6593 1099.9748,-101.1729 1095.5349,-98.1318 1099.5,-97.6043 1099.5,-97.6043 1099.5,-97.6043 1095.5349,-98.1318 1099.0252,-94.0357 1091.5699,-98.6593 1091.5699,-98.6593"/>
<ellipse fill="none" stroke="#000000" cx="1088.3978" cy="-99.0813" rx="3.2" ry="3.2"/>
</g>
<!-- sccs_result&#45;&gt;sccs_diagnostics_summary -->
<g id="edge42" class="edge">
<title>sccs_result:w&#45;&gt;sccs_diagnostics_summary:e</title>
<path fill="none" stroke="#000000" d="M1085.8711,-102.797C1045.8264,-117.4211 1031.0187,-115.6902 985,-97.6043"/>
<polygon fill="#000000" stroke="#000000" points="1092.0242,-100.4526 1100.7817,-100.9684 1095.7621,-99.0285 1099.5,-97.6043 1099.5,-97.6043 1099.5,-97.6043 1095.7621,-99.0285 1098.2183,-94.2402 1092.0242,-100.4526 1092.0242,-100.4526"/>
<ellipse fill="none" stroke="#000000" cx="1089.0339" cy="-101.592" rx="3.2" ry="3.2"/>
</g>
<!-- sccs_result&#45;&gt;sccs_exposures_outcome_set -->
<g id="edge43" class="edge">
<title>sccs_result:w&#45;&gt;sccs_exposures_outcome_set:e</title>
<path fill="none" stroke="#000000" d="M1085.0211,-96.2475C1056.0029,-90.3767 1048.7972,-67.1206 1013,-59.6043 892.9511,-34.3977 852.539,-18.3993 737,-59.6043 711.861,-68.5697 717.1898,-97.6043 690.5,-97.6043"/>
<polygon fill="#000000" stroke="#000000" points="1091.5349,-96.8578 1099.1641,-101.1886 1095.5174,-97.2311 1099.5,-97.6043 1099.5,-97.6043 1099.5,-97.6043 1095.5174,-97.2311 1099.8359,-94.02 1091.5349,-96.8578 1091.5349,-96.8578"/>
<ellipse fill="none" stroke="#000000" cx="1088.3489" cy="-96.5593" rx="3.2" ry="3.2"/>
</g>
</g>
</svg>
