<?xml version="1.0" encoding="UTF-8" standalone="no"?>
<!DOCTYPE svg PUBLIC "-//W3C//DTD SVG 1.1//EN"
 "http://www.w3.org/Graphics/SVG/1.1/DTD/svg11.dtd">
<!-- Generated by graphviz version 2.40.1 (20161225.0304)
 -->
<!-- Title: oneDegreeRelationshipsDiagram Pages: 1 -->
<svg width="541pt" height="206pt"
 viewBox="0.00 0.00 541.00 206.20" xmlns="http://www.w3.org/2000/svg" xmlns:xlink="http://www.w3.org/1999/xlink">
<g id="graph0" class="graph" transform="scale(1 1) rotate(0) translate(4 202.2)">
<title>oneDegreeRelationshipsDiagram</title>
<polygon fill="#ffffff" stroke="transparent" points="-4,4 -4,-202.2 537,-202.2 537,4 -4,4"/>
<text text-anchor="middle" x="72.4936" y="-7.3" font-family="Helvetica,sans-Serif" font-size="11.00" fill="#000000">Generated by SchemaSpy</text>
<!-- cg_cohort_inc_result -->
<g id="node1" class="node">
<title>cg_cohort_inc_result</title>
<g id="a_node1"><a xlink:href="../../tables/cg_cohort_inc_result.html" xlink:title="cg_cohort_inc_result" target="_top">
<polygon fill="#ffffff" stroke="transparent" points="302,-38.2 302,-194.2 525,-194.2 525,-38.2 302,-38.2"/>
<polygon fill="#f5f5f5" stroke="transparent" points="304.5,-169.2 304.5,-192.2 523.5,-192.2 523.5,-169.2 304.5,-169.2"/>
<polygon fill="none" stroke="#000000" points="304.5,-169.2 304.5,-192.2 523.5,-192.2 523.5,-169.2 304.5,-169.2"/>
<text text-anchor="start" x="309.5" y="-177.8" font-family="Helvetica,sans-Serif" font-weight="bold" font-size="11.00" fill="#000000">cg_cohort_inc_result</text>
<text text-anchor="start" x="488.5437" y="-177.3" font-family="Helvetica,sans-Serif" font-size="11.00" fill="#000000">[table]</text>
<polygon fill="none" stroke="#000000" points="304.5,-147.2 304.5,-169.2 461.5,-169.2 461.5,-147.2 304.5,-147.2"/>
<text text-anchor="start" x="324.5" y="-154.3" font-family="Helvetica,sans-Serif" font-size="11.00" fill="#000000">cohort_definition_id</text>
<polygon fill="none" stroke="#000000" points="461.5,-147.2 461.5,-169.2 523.5,-169.2 523.5,-147.2 461.5,-147.2"/>
<text text-anchor="start" x="464.378" y="-154.9" font-family="Helvetica,sans-Serif" font-size="11.00" fill="#000000">unknown[0]</text>
<polygon fill="none" stroke="#000000" points="304.5,-125.2 304.5,-147.2 461.5,-147.2 461.5,-125.2 304.5,-125.2"/>
<image xlink:href="../../images/foreignKeys.png" width="11px" height="12px" preserveAspectRatio="xMinYMin meet" x="309.5" y="-142.2"/>
<text text-anchor="start" x="324.5" y="-132.3" font-family="Helvetica,sans-Serif" font-size="11.00" fill="#000000">database_id</text>
<polygon fill="none" stroke="#000000" points="461.5,-125.2 461.5,-147.2 523.5,-147.2 523.5,-125.2 461.5,-125.2"/>
<text text-anchor="start" x="464.378" y="-132.9" font-family="Helvetica,sans-Serif" font-size="11.00" fill="#000000">unknown[0]</text>
<polygon fill="none" stroke="#000000" points="304.5,-103.2 304.5,-125.2 461.5,-125.2 461.5,-103.2 304.5,-103.2"/>
<text text-anchor="start" x="324.5" y="-110.3" font-family="Helvetica,sans-Serif" font-size="11.00" fill="#000000">inclusion_rule_mask</text>
<polygon fill="none" stroke="#000000" points="461.5,-103.2 461.5,-125.2 523.5,-125.2 523.5,-103.2 461.5,-103.2"/>
<text text-anchor="start" x="464.378" y="-110.9" font-family="Helvetica,sans-Serif" font-size="11.00" fill="#000000">unknown[0]</text>
<polygon fill="none" stroke="#000000" points="304.5,-81.2 304.5,-103.2 461.5,-103.2 461.5,-81.2 304.5,-81.2"/>
<text text-anchor="start" x="324.5" y="-88.3" font-family="Helvetica,sans-Serif" font-size="11.00" fill="#000000">mode_id</text>
<polygon fill="none" stroke="#000000" points="461.5,-81.2 461.5,-103.2 523.5,-103.2 523.5,-81.2 461.5,-81.2"/>
<text text-anchor="start" x="464.378" y="-88.9" font-family="Helvetica,sans-Serif" font-size="11.00" fill="#000000">unknown[0]</text>
<polygon fill="none" stroke="#000000" points="304.5,-59.2 304.5,-81.2 461.5,-81.2 461.5,-59.2 304.5,-59.2"/>
<text text-anchor="start" x="324.5" y="-66.3" font-family="Helvetica,sans-Serif" font-size="11.00" fill="#000000">person_count</text>
<polygon fill="none" stroke="#000000" points="461.5,-59.2 461.5,-81.2 523.5,-81.2 523.5,-59.2 461.5,-59.2"/>
<text text-anchor="start" x="464.378" y="-66.9" font-family="Helvetica,sans-Serif" font-size="11.00" fill="#000000">unknown[0]</text>
<polygon fill="#ffffff" stroke="transparent" points="304.5,-40.2 304.5,-59.2 374.5,-59.2 374.5,-40.2 304.5,-40.2"/>
<polygon fill="none" stroke="#000000" points="304.5,-40.2 304.5,-59.2 374.5,-59.2 374.5,-40.2 304.5,-40.2"/>
<text text-anchor="start" x="307.5" y="-46.3" font-family="Helvetica,sans-Serif" font-size="11.00" fill="#000000">&lt; 1</text>
<polygon fill="#ffffff" stroke="transparent" points="374.5,-40.2 374.5,-59.2 461.5,-59.2 461.5,-40.2 374.5,-40.2"/>
<polygon fill="none" stroke="#000000" points="374.5,-40.2 374.5,-59.2 461.5,-59.2 461.5,-40.2 374.5,-40.2"/>
<text text-anchor="start" x="426.1105" y="-46.3" font-family="Helvetica,sans-Serif" font-size="11.00" fill="#000000">0 rows</text>
<polygon fill="#ffffff" stroke="transparent" points="461.5,-40.2 461.5,-59.2 523.5,-59.2 523.5,-40.2 461.5,-40.2"/>
<polygon fill="none" stroke="#000000" points="461.5,-40.2 461.5,-59.2 523.5,-59.2 523.5,-40.2 461.5,-40.2"/>
<text text-anchor="start" x="504.9053" y="-46.3" font-family="Helvetica,sans-Serif" font-size="11.00" fill="#000000">0 &gt;</text>
<polygon fill="none" stroke="#000000" stroke-width="2" points="303,-39.2 303,-193.2 524,-193.2 524,-39.2 303,-39.2"/>
</a>
</g>
</g>
<!-- database_meta_data -->
<g id="node2" class="node">
<title>database_meta_data</title>
<g id="a_node2"><a xlink:href="../../tables/database_meta_data.html" xlink:title="database_meta_data" target="_top">
<polygon fill="#ffffff" stroke="transparent" points="8,-87.7 8,-170.7 253,-170.7 253,-87.7 8,-87.7"/>
<polygon fill="#f5f5f5" stroke="transparent" points="8.5,-147.2 8.5,-170.2 253.5,-170.2 253.5,-147.2 8.5,-147.2"/>
<polygon fill="none" stroke="#000000" points="8.5,-147.2 8.5,-170.2 253.5,-170.2 253.5,-147.2 8.5,-147.2"/>
<text text-anchor="start" x="13.5" y="-155.8" font-family="Helvetica,sans-Serif" font-weight="bold" font-size="11.00" fill="#000000">database_meta_data</text>
<text text-anchor="start" x="218.5437" y="-155.3" font-family="Helvetica,sans-Serif" font-size="11.00" fill="#000000">[table]</text>
<polygon fill="none" stroke="#000000" points="8.5,-125.2 8.5,-147.2 253.5,-147.2 253.5,-125.2 8.5,-125.2"/>
<image xlink:href="../../images/primaryKeys.png" width="11px" height="12px" preserveAspectRatio="xMinYMin meet" x="13.5" y="-142.2"/>
<text text-anchor="start" x="28.5" y="-132.3" font-family="Helvetica,sans-Serif" font-size="11.00" fill="#000000">database_id</text>
<polygon fill="none" stroke="#000000" points="8.5,-106.2 8.5,-125.2 253.5,-125.2 253.5,-106.2 8.5,-106.2"/>
<text text-anchor="start" x="11.5" y="-112.3" font-family="Helvetica,sans-Serif" font-size="11.00" fill="#000000">...</text>
<polygon fill="#ffffff" stroke="transparent" points="8.5,-87.2 8.5,-106.2 108.5,-106.2 108.5,-87.2 8.5,-87.2"/>
<polygon fill="none" stroke="#000000" points="8.5,-87.2 8.5,-106.2 108.5,-106.2 108.5,-87.2 8.5,-87.2"/>
<text text-anchor="start" x="11.5" y="-93.3" font-family="Helvetica,sans-Serif" font-size="11.00" fill="#000000">&lt; 1</text>
<polygon fill="#ffffff" stroke="transparent" points="108.5,-87.2 108.5,-106.2 186.5,-106.2 186.5,-87.2 108.5,-87.2"/>
<polygon fill="none" stroke="#000000" points="108.5,-87.2 108.5,-106.2 186.5,-106.2 186.5,-87.2 108.5,-87.2"/>
<text text-anchor="start" x="151.1105" y="-93.3" font-family="Helvetica,sans-Serif" font-size="11.00" fill="#000000">0 rows</text>
<polygon fill="#ffffff" stroke="transparent" points="186.5,-87.2 186.5,-106.2 253.5,-106.2 253.5,-87.2 186.5,-87.2"/>
<polygon fill="none" stroke="#000000" points="186.5,-87.2 186.5,-106.2 253.5,-106.2 253.5,-87.2 186.5,-87.2"/>
<text text-anchor="start" x="228.7904" y="-93.3" font-family="Helvetica,sans-Serif" font-size="11.00" fill="#000000">17 &gt;</text>
</a>
</g>
</g>
<!-- cg_cohort_inc_result&#45;&gt;database_meta_data -->
<g id="edge1" class="edge">
<title>cg_cohort_inc_result:w&#45;&gt;database_meta_data:e</title>
<path fill="none" stroke="#000000" d="M289.776,-136.2C277.7815,-136.2 270.3229,-136.2 253.5,-136.2"/>
<polygon fill="#000000" stroke="#000000" points="296.5,-136.2001 304.5,-139.8 300.5,-136.2 304.5,-136.2 304.5,-136.2 304.5,-136.2 300.5,-136.2 304.5,-132.6 296.5,-136.2001 296.5,-136.2001"/>
<ellipse fill="none" stroke="#000000" cx="293.3" cy="-136.2001" rx="3.2" ry="3.2"/>
</g>
</g>
</svg>
