<?xml version="1.0" encoding="UTF-8" standalone="no"?>
<!DOCTYPE svg PUBLIC "-//W3C//DTD SVG 1.1//EN"
 "http://www.w3.org/Graphics/SVG/1.1/DTD/svg11.dtd">
<!-- Generated by graphviz version 2.40.1 (20161225.0304)
 -->
<!-- Title: twoDegreesRelationshipsDiagram Pages: 1 -->
<svg width="486pt" height="617pt"
 viewBox="0.00 0.00 486.00 617.20" xmlns="http://www.w3.org/2000/svg" xmlns:xlink="http://www.w3.org/1999/xlink">
<g id="graph0" class="graph" transform="scale(1 1) rotate(0) translate(4 613.2)">
<title>twoDegreesRelationshipsDiagram</title>
<polygon fill="#ffffff" stroke="transparent" points="-4,4 -4,-613.2 482,-613.2 482,4 -4,4"/>
<text text-anchor="middle" x="72.4936" y="-7.3" font-family="Helvetica,sans-Serif" font-size="11.00" fill="#000000">Generated by SchemaSpy</text>
<!-- ci_incidence_summary -->
<g id="node1" class="node">
<title>ci_incidence_summary</title>
<g id="a_node1"><a xlink:href="../../tables/ci_incidence_summary.html" xlink:title="ci_incidence_summary" target="_top">
<polygon fill="#ffffff" stroke="transparent" points="259,-156.2 259,-371.2 470,-371.2 470,-156.2 259,-156.2"/>
<polygon fill="#f5f5f5" stroke="transparent" points="259.5,-347.7 259.5,-370.7 470.5,-370.7 470.5,-347.7 259.5,-347.7"/>
<polygon fill="none" stroke="#000000" points="259.5,-347.7 259.5,-370.7 470.5,-370.7 470.5,-347.7 259.5,-347.7"/>
<text text-anchor="start" x="264.5" y="-356.3" font-family="Helvetica,sans-Serif" font-weight="bold" font-size="11.00" fill="#000000">ci_incidence_summary</text>
<text text-anchor="start" x="435.5437" y="-355.8" font-family="Helvetica,sans-Serif" font-size="11.00" fill="#000000">[table]</text>
<polygon fill="none" stroke="#000000" points="259.5,-325.7 259.5,-347.7 470.5,-347.7 470.5,-325.7 259.5,-325.7"/>
<image xlink:href="../../images/foreignKeys.png" width="11px" height="12px" preserveAspectRatio="xMinYMin meet" x="264.5" y="-342.7"/>
<text text-anchor="start" x="279.5" y="-332.8" font-family="Helvetica,sans-Serif" font-size="11.00" fill="#000000">age_group_id</text>
<polygon fill="none" stroke="#000000" points="259.5,-303.7 259.5,-325.7 470.5,-325.7 470.5,-303.7 259.5,-303.7"/>
<image xlink:href="../../images/foreignKeys.png" width="11px" height="12px" preserveAspectRatio="xMinYMin meet" x="264.5" y="-320.7"/>
<text text-anchor="start" x="279.5" y="-310.8" font-family="Helvetica,sans-Serif" font-size="11.00" fill="#000000">database_id</text>
<polygon fill="none" stroke="#000000" points="259.5,-281.7 259.5,-303.7 470.5,-303.7 470.5,-281.7 259.5,-281.7"/>
<image xlink:href="../../images/foreignKeys.png" width="11px" height="12px" preserveAspectRatio="xMinYMin meet" x="264.5" y="-298.7"/>
<text text-anchor="start" x="279.5" y="-288.8" font-family="Helvetica,sans-Serif" font-size="11.00" fill="#000000">outcome_id</text>
<polygon fill="none" stroke="#000000" points="259.5,-259.7 259.5,-281.7 470.5,-281.7 470.5,-259.7 259.5,-259.7"/>
<image xlink:href="../../images/foreignKeys.png" width="11px" height="12px" preserveAspectRatio="xMinYMin meet" x="264.5" y="-276.7"/>
<text text-anchor="start" x="279.5" y="-266.8" font-family="Helvetica,sans-Serif" font-size="11.00" fill="#000000">ref_id</text>
<polygon fill="none" stroke="#000000" points="259.5,-237.7 259.5,-259.7 470.5,-259.7 470.5,-237.7 259.5,-237.7"/>
<image xlink:href="../../images/foreignKeys.png" width="11px" height="12px" preserveAspectRatio="xMinYMin meet" x="264.5" y="-254.7"/>
<text text-anchor="start" x="279.5" y="-244.8" font-family="Helvetica,sans-Serif" font-size="11.00" fill="#000000">subgroup_id</text>
<polygon fill="none" stroke="#000000" points="259.5,-215.7 259.5,-237.7 470.5,-237.7 470.5,-215.7 259.5,-215.7"/>
<image xlink:href="../../images/foreignKeys.png" width="11px" height="12px" preserveAspectRatio="xMinYMin meet" x="264.5" y="-232.7"/>
<text text-anchor="start" x="279.5" y="-222.8" font-family="Helvetica,sans-Serif" font-size="11.00" fill="#000000">tar_id</text>
<polygon fill="none" stroke="#000000" points="259.5,-193.7 259.5,-215.7 470.5,-215.7 470.5,-193.7 259.5,-193.7"/>
<image xlink:href="../../images/foreignKeys.png" width="11px" height="12px" preserveAspectRatio="xMinYMin meet" x="264.5" y="-210.7"/>
<text text-anchor="start" x="279.5" y="-200.8" font-family="Helvetica,sans-Serif" font-size="11.00" fill="#000000">target_cohort_definition_id</text>
<polygon fill="none" stroke="#000000" points="259.5,-174.7 259.5,-193.7 470.5,-193.7 470.5,-174.7 259.5,-174.7"/>
<text text-anchor="start" x="262.5" y="-180.8" font-family="Helvetica,sans-Serif" font-size="11.00" fill="#000000">...</text>
<polygon fill="#ffffff" stroke="transparent" points="259.5,-155.7 259.5,-174.7 353.5,-174.7 353.5,-155.7 259.5,-155.7"/>
<polygon fill="none" stroke="#000000" points="259.5,-155.7 259.5,-174.7 353.5,-174.7 353.5,-155.7 259.5,-155.7"/>
<text text-anchor="start" x="262.5" y="-161.8" font-family="Helvetica,sans-Serif" font-size="11.00" fill="#000000">&lt; 10</text>
<polygon fill="#ffffff" stroke="transparent" points="353.5,-155.7 353.5,-174.7 424.5,-174.7 424.5,-155.7 353.5,-155.7"/>
<polygon fill="none" stroke="#000000" points="353.5,-155.7 353.5,-174.7 424.5,-174.7 424.5,-155.7 353.5,-155.7"/>
<text text-anchor="start" x="389.1105" y="-161.8" font-family="Helvetica,sans-Serif" font-size="11.00" fill="#000000">0 rows</text>
<polygon fill="#ffffff" stroke="transparent" points="424.5,-155.7 424.5,-174.7 470.5,-174.7 470.5,-155.7 424.5,-155.7"/>
<polygon fill="none" stroke="#000000" points="424.5,-155.7 424.5,-174.7 470.5,-174.7 470.5,-155.7 424.5,-155.7"/>
<text text-anchor="start" x="461.3862" y="-161.8" font-family="Helvetica,sans-Serif" font-size="11.00" fill="#000000"> &#160;</text>
</a>
</g>
</g>
<!-- ci_age_group_def -->
<g id="node2" class="node">
<title>ci_age_group_def</title>
<g id="a_node2"><a xlink:href="../../tables/ci_age_group_def.html" xlink:title="ci_age_group_def" target="_top">
<polygon fill="#ffffff" stroke="transparent" points="8,-366.7 8,-522.7 210,-522.7 210,-366.7 8,-366.7"/>
<polygon fill="#f5f5f5" stroke="transparent" points="10,-497.7 10,-520.7 208,-520.7 208,-497.7 10,-497.7"/>
<polygon fill="none" stroke="#000000" points="10,-497.7 10,-520.7 208,-520.7 208,-497.7 10,-497.7"/>
<text text-anchor="start" x="15" y="-506.3" font-family="Helvetica,sans-Serif" font-weight="bold" font-size="11.00" fill="#000000">ci_age_group_def</text>
<text text-anchor="start" x="173.0437" y="-505.8" font-family="Helvetica,sans-Serif" font-size="11.00" fill="#000000">[table]</text>
<polygon fill="none" stroke="#000000" points="10,-475.7 10,-497.7 146,-497.7 146,-475.7 10,-475.7"/>
<image xlink:href="../../images/primaryKeys.png" width="11px" height="12px" preserveAspectRatio="xMinYMin meet" x="15" y="-492.7"/>
<text text-anchor="start" x="30" y="-482.8" font-family="Helvetica,sans-Serif" font-size="11.00" fill="#000000">age_group_id</text>
<polygon fill="none" stroke="#000000" points="146,-475.7 146,-497.7 208,-497.7 208,-475.7 146,-475.7"/>
<text text-anchor="start" x="148.878" y="-483.4" font-family="Helvetica,sans-Serif" font-size="11.00" fill="#000000">unknown[0]</text>
<polygon fill="none" stroke="#000000" points="10,-453.7 10,-475.7 146,-475.7 146,-453.7 10,-453.7"/>
<text text-anchor="start" x="30" y="-460.8" font-family="Helvetica,sans-Serif" font-size="11.00" fill="#000000">age_group_name</text>
<polygon fill="none" stroke="#000000" points="146,-453.7 146,-475.7 208,-475.7 208,-453.7 146,-453.7"/>
<text text-anchor="start" x="148.878" y="-461.4" font-family="Helvetica,sans-Serif" font-size="11.00" fill="#000000">unknown[0]</text>
<polygon fill="none" stroke="#000000" points="10,-431.7 10,-453.7 146,-453.7 146,-431.7 10,-431.7"/>
<text text-anchor="start" x="30" y="-438.8" font-family="Helvetica,sans-Serif" font-size="11.00" fill="#000000">max_age</text>
<polygon fill="none" stroke="#000000" points="146,-431.7 146,-453.7 208,-453.7 208,-431.7 146,-431.7"/>
<text text-anchor="start" x="148.878" y="-439.4" font-family="Helvetica,sans-Serif" font-size="11.00" fill="#000000">unknown[0]</text>
<polygon fill="none" stroke="#000000" points="10,-409.7 10,-431.7 146,-431.7 146,-409.7 10,-409.7"/>
<text text-anchor="start" x="30" y="-416.8" font-family="Helvetica,sans-Serif" font-size="11.00" fill="#000000">min_age</text>
<polygon fill="none" stroke="#000000" points="146,-409.7 146,-431.7 208,-431.7 208,-409.7 146,-409.7"/>
<text text-anchor="start" x="148.878" y="-417.4" font-family="Helvetica,sans-Serif" font-size="11.00" fill="#000000">unknown[0]</text>
<polygon fill="none" stroke="#000000" points="10,-387.7 10,-409.7 146,-409.7 146,-387.7 10,-387.7"/>
<image xlink:href="../../images/primaryKeys.png" width="11px" height="12px" preserveAspectRatio="xMinYMin meet" x="15" y="-404.7"/>
<text text-anchor="start" x="30" y="-394.8" font-family="Helvetica,sans-Serif" font-size="11.00" fill="#000000">ref_id</text>
<polygon fill="none" stroke="#000000" points="146,-387.7 146,-409.7 208,-409.7 208,-387.7 146,-387.7"/>
<text text-anchor="start" x="148.878" y="-395.4" font-family="Helvetica,sans-Serif" font-size="11.00" fill="#000000">unknown[0]</text>
<polygon fill="#ffffff" stroke="transparent" points="10,-368.7 10,-387.7 69,-387.7 69,-368.7 10,-368.7"/>
<polygon fill="none" stroke="#000000" points="10,-368.7 10,-387.7 69,-387.7 69,-368.7 10,-368.7"/>
<text text-anchor="start" x="13" y="-374.8" font-family="Helvetica,sans-Serif" font-size="11.00" fill="#000000">&lt; 0</text>
<polygon fill="#ffffff" stroke="transparent" points="69,-368.7 69,-387.7 146,-387.7 146,-368.7 69,-368.7"/>
<polygon fill="none" stroke="#000000" points="69,-368.7 69,-387.7 146,-387.7 146,-368.7 69,-368.7"/>
<text text-anchor="start" x="110.6105" y="-374.8" font-family="Helvetica,sans-Serif" font-size="11.00" fill="#000000">0 rows</text>
<polygon fill="#ffffff" stroke="transparent" points="146,-368.7 146,-387.7 208,-387.7 208,-368.7 146,-368.7"/>
<polygon fill="none" stroke="#000000" points="146,-368.7 146,-387.7 208,-387.7 208,-368.7 146,-368.7"/>
<text text-anchor="start" x="189.4053" y="-374.8" font-family="Helvetica,sans-Serif" font-size="11.00" fill="#000000">2 &gt;</text>
<polygon fill="none" stroke="#000000" stroke-width="2" points="9,-367.7 9,-521.7 209,-521.7 209,-367.7 9,-367.7"/>
</a>
</g>
</g>
<!-- ci_incidence_summary&#45;&gt;ci_age_group_def -->
<g id="edge1" class="edge">
<title>ci_incidence_summary:w&#45;&gt;ci_age_group_def:e</title>
<path fill="none" stroke="#000000" d="M245.2063,-339.5625C202.6163,-360.3 272.7044,-486.7 208,-486.7"/>
<polygon fill="#000000" stroke="#000000" points="251.6558,-338.271 260.2069,-340.2299 255.5779,-337.4855 259.5,-336.7 259.5,-336.7 259.5,-336.7 255.5779,-337.4855 258.7931,-333.1701 251.6558,-338.271 251.6558,-338.271"/>
<ellipse fill="none" stroke="#000000" cx="248.5181" cy="-338.8993" rx="3.2" ry="3.2"/>
</g>
<!-- ci_incidence_summary&#45;&gt;ci_age_group_def -->
<g id="edge4" class="edge">
<title>ci_incidence_summary:w&#45;&gt;ci_age_group_def:e</title>
<path fill="none" stroke="#000000" d="M245.078,-274.1237C210.8108,-294.4793 263.3325,-398.7 208,-398.7"/>
<polygon fill="#000000" stroke="#000000" points="251.7163,-272.5478 260.3315,-274.2027 255.6082,-271.6239 259.5,-270.7 259.5,-270.7 259.5,-270.7 255.6082,-271.6239 258.6685,-267.1973 251.7163,-272.5478 251.7163,-272.5478"/>
<ellipse fill="none" stroke="#000000" cx="248.6028" cy="-273.287" rx="3.2" ry="3.2"/>
</g>
<!-- database_meta_data -->
<g id="node3" class="node">
<title>database_meta_data</title>
<g id="a_node3"><a xlink:href="../../tables/database_meta_data.html" xlink:title="database_meta_data" target="_top">
<polygon fill="#ffffff" stroke="transparent" points="20,-544.2 20,-605.2 198,-605.2 198,-544.2 20,-544.2"/>
<polygon fill="#f5f5f5" stroke="transparent" points="20,-581.7 20,-604.7 198,-604.7 198,-581.7 20,-581.7"/>
<polygon fill="none" stroke="#000000" points="20,-581.7 20,-604.7 198,-604.7 198,-581.7 20,-581.7"/>
<text text-anchor="start" x="25" y="-590.3" font-family="Helvetica,sans-Serif" font-weight="bold" font-size="11.00" fill="#000000">database_meta_data</text>
<text text-anchor="start" x="163.5219" y="-589.8" font-family="Helvetica,sans-Serif" font-size="11.00" fill="#000000">[table]</text>
<polygon fill="none" stroke="#000000" points="20,-562.7 20,-581.7 198,-581.7 198,-562.7 20,-562.7"/>
<text text-anchor="start" x="23" y="-568.8" font-family="Helvetica,sans-Serif" font-size="11.00" fill="#000000">...</text>
<polygon fill="#ffffff" stroke="transparent" points="20,-543.7 20,-562.7 87,-562.7 87,-543.7 20,-543.7"/>
<polygon fill="none" stroke="#000000" points="20,-543.7 20,-562.7 87,-562.7 87,-543.7 20,-543.7"/>
<text text-anchor="start" x="23" y="-549.8" font-family="Helvetica,sans-Serif" font-size="11.00" fill="#000000">&lt; 1</text>
<polygon fill="#ffffff" stroke="transparent" points="87,-543.7 87,-562.7 148,-562.7 148,-543.7 87,-543.7"/>
<polygon fill="none" stroke="#000000" points="87,-543.7 87,-562.7 148,-562.7 148,-543.7 87,-543.7"/>
<text text-anchor="start" x="112.6105" y="-549.8" font-family="Helvetica,sans-Serif" font-size="11.00" fill="#000000">0 rows</text>
<polygon fill="#ffffff" stroke="transparent" points="148,-543.7 148,-562.7 198,-562.7 198,-543.7 148,-543.7"/>
<polygon fill="none" stroke="#000000" points="148,-543.7 148,-562.7 198,-562.7 198,-543.7 148,-543.7"/>
<text text-anchor="start" x="173.2904" y="-549.8" font-family="Helvetica,sans-Serif" font-size="11.00" fill="#000000">17 &gt;</text>
</a>
</g>
</g>
<!-- ci_incidence_summary&#45;&gt;database_meta_data -->
<g id="edge2" class="edge">
<title>ci_incidence_summary:w&#45;&gt;database_meta_data:e</title>
<path fill="none" stroke="#000000" d="M246.2827,-320.5507C209.9038,-358.8052 251.4476,-571.7 198,-571.7"/>
<polygon fill="#000000" stroke="#000000" points="252.1846,-317.9382 260.9572,-317.9919 255.8423,-316.3191 259.5,-314.7 259.5,-314.7 259.5,-314.7 255.8423,-316.3191 258.0428,-311.4081 252.1846,-317.9382 252.1846,-317.9382"/>
<ellipse fill="none" stroke="#000000" cx="249.2585" cy="-319.2335" rx="3.2" ry="3.2"/>
</g>
<!-- ci_outcome_def -->
<g id="node4" class="node">
<title>ci_outcome_def</title>
<g id="a_node4"><a xlink:href="../../tables/ci_outcome_def.html" xlink:title="ci_outcome_def" target="_top">
<polygon fill="#ffffff" stroke="transparent" points="38,-284.2 38,-345.2 180,-345.2 180,-284.2 38,-284.2"/>
<polygon fill="#f5f5f5" stroke="transparent" points="38,-321.7 38,-344.7 180,-344.7 180,-321.7 38,-321.7"/>
<polygon fill="none" stroke="#000000" points="38,-321.7 38,-344.7 180,-344.7 180,-321.7 38,-321.7"/>
<text text-anchor="start" x="43" y="-330.3" font-family="Helvetica,sans-Serif" font-weight="bold" font-size="11.00" fill="#000000">ci_outcome_def</text>
<text text-anchor="start" x="145.5219" y="-329.8" font-family="Helvetica,sans-Serif" font-size="11.00" fill="#000000">[table]</text>
<polygon fill="none" stroke="#000000" points="38,-302.7 38,-321.7 180,-321.7 180,-302.7 38,-302.7"/>
<text text-anchor="start" x="41" y="-308.8" font-family="Helvetica,sans-Serif" font-size="11.00" fill="#000000">...</text>
<polygon fill="#ffffff" stroke="transparent" points="38,-283.7 38,-302.7 85,-302.7 85,-283.7 38,-283.7"/>
<polygon fill="none" stroke="#000000" points="38,-283.7 38,-302.7 85,-302.7 85,-283.7 38,-283.7"/>
<text text-anchor="start" x="41" y="-289.8" font-family="Helvetica,sans-Serif" font-size="11.00" fill="#000000"> &#160;</text>
<polygon fill="#ffffff" stroke="transparent" points="85,-283.7 85,-302.7 141,-302.7 141,-283.7 85,-283.7"/>
<polygon fill="none" stroke="#000000" points="85,-283.7 85,-302.7 141,-302.7 141,-283.7 85,-283.7"/>
<text text-anchor="start" x="105.6105" y="-289.8" font-family="Helvetica,sans-Serif" font-size="11.00" fill="#000000">0 rows</text>
<polygon fill="#ffffff" stroke="transparent" points="141,-283.7 141,-302.7 180,-302.7 180,-283.7 141,-283.7"/>
<polygon fill="none" stroke="#000000" points="141,-283.7 141,-302.7 180,-302.7 180,-283.7 141,-283.7"/>
<text text-anchor="start" x="161.4053" y="-289.8" font-family="Helvetica,sans-Serif" font-size="11.00" fill="#000000">2 &gt;</text>
</a>
</g>
</g>
<!-- ci_incidence_summary&#45;&gt;ci_outcome_def -->
<g id="edge3" class="edge">
<title>ci_incidence_summary:w&#45;&gt;ci_outcome_def:e</title>
<path fill="none" stroke="#000000" d="M245.0786,-293.8316C220.4904,-297.922 210.9359,-311.7 180,-311.7"/>
<polygon fill="#000000" stroke="#000000" points="251.5245,-293.3259 259.7816,-296.289 255.5123,-293.0129 259.5,-292.7 259.5,-292.7 259.5,-292.7 255.5123,-293.0129 259.2184,-289.111 251.5245,-293.3259 251.5245,-293.3259"/>
<ellipse fill="none" stroke="#000000" cx="248.3343" cy="-293.5762" rx="3.2" ry="3.2"/>
</g>
<!-- ci_incidence_summary&#45;&gt;ci_outcome_def -->
<g id="edge5" class="edge">
<title>ci_incidence_summary:w&#45;&gt;ci_outcome_def:e</title>
<path fill="none" stroke="#000000" d="M245.2208,-272.7896C219.0042,-281.1446 214.3201,-311.7 180,-311.7"/>
<polygon fill="#000000" stroke="#000000" points="251.5843,-271.8584 260.0213,-274.2621 255.5422,-271.2792 259.5,-270.7 259.5,-270.7 259.5,-270.7 255.5422,-271.2792 258.9787,-267.1379 251.5843,-271.8584 251.5843,-271.8584"/>
<ellipse fill="none" stroke="#000000" cx="248.418" cy="-272.3218" rx="3.2" ry="3.2"/>
</g>
<!-- ci_subgroup_def -->
<g id="node5" class="node">
<title>ci_subgroup_def</title>
<g id="a_node5"><a xlink:href="../../tables/ci_subgroup_def.html" xlink:title="ci_subgroup_def" target="_top">
<polygon fill="#ffffff" stroke="transparent" points="35,-202.2 35,-263.2 183,-263.2 183,-202.2 35,-202.2"/>
<polygon fill="#f5f5f5" stroke="transparent" points="35,-239.7 35,-262.7 183,-262.7 183,-239.7 35,-239.7"/>
<polygon fill="none" stroke="#000000" points="35,-239.7 35,-262.7 183,-262.7 183,-239.7 35,-239.7"/>
<text text-anchor="start" x="40" y="-248.3" font-family="Helvetica,sans-Serif" font-weight="bold" font-size="11.00" fill="#000000">ci_subgroup_def</text>
<text text-anchor="start" x="148.5219" y="-247.8" font-family="Helvetica,sans-Serif" font-size="11.00" fill="#000000">[table]</text>
<polygon fill="none" stroke="#000000" points="35,-220.7 35,-239.7 183,-239.7 183,-220.7 35,-220.7"/>
<text text-anchor="start" x="38" y="-226.8" font-family="Helvetica,sans-Serif" font-size="11.00" fill="#000000">...</text>
<polygon fill="#ffffff" stroke="transparent" points="35,-201.7 35,-220.7 85,-220.7 85,-201.7 35,-201.7"/>
<polygon fill="none" stroke="#000000" points="35,-201.7 35,-220.7 85,-220.7 85,-201.7 35,-201.7"/>
<text text-anchor="start" x="38" y="-207.8" font-family="Helvetica,sans-Serif" font-size="11.00" fill="#000000"> &#160;</text>
<polygon fill="#ffffff" stroke="transparent" points="85,-201.7 85,-220.7 142,-220.7 142,-201.7 85,-201.7"/>
<polygon fill="none" stroke="#000000" points="85,-201.7 85,-220.7 142,-220.7 142,-201.7 85,-201.7"/>
<text text-anchor="start" x="106.6105" y="-207.8" font-family="Helvetica,sans-Serif" font-size="11.00" fill="#000000">0 rows</text>
<polygon fill="#ffffff" stroke="transparent" points="142,-201.7 142,-220.7 183,-220.7 183,-201.7 142,-201.7"/>
<polygon fill="none" stroke="#000000" points="142,-201.7 142,-220.7 183,-220.7 183,-201.7 142,-201.7"/>
<text text-anchor="start" x="164.4053" y="-207.8" font-family="Helvetica,sans-Serif" font-size="11.00" fill="#000000">2 &gt;</text>
</a>
</g>
</g>
<!-- ci_incidence_summary&#45;&gt;ci_subgroup_def -->
<g id="edge6" class="edge">
<title>ci_incidence_summary:w&#45;&gt;ci_subgroup_def:e</title>
<path fill="none" stroke="#000000" d="M244.9954,-268.3782C220.2934,-259.7049 215.9999,-229.7 183,-229.7"/>
<polygon fill="#000000" stroke="#000000" points="251.6006,-269.4355 258.931,-274.2547 255.5503,-270.0677 259.5,-270.7 259.5,-270.7 259.5,-270.7 255.5503,-270.0677 260.069,-267.1453 251.6006,-269.4355 251.6006,-269.4355"/>
<ellipse fill="none" stroke="#000000" cx="248.4408" cy="-268.9296" rx="3.2" ry="3.2"/>
</g>
<!-- ci_incidence_summary&#45;&gt;ci_subgroup_def -->
<g id="edge8" class="edge">
<title>ci_incidence_summary:w&#45;&gt;ci_subgroup_def:e</title>
<path fill="none" stroke="#000000" d="M244.9548,-247.4534C221.7582,-243.2264 212.5591,-229.7 183,-229.7"/>
<polygon fill="#000000" stroke="#000000" points="251.5292,-248.0168 259.1926,-252.2868 255.5146,-248.3584 259.5,-248.7 259.5,-248.7 259.5,-248.7 255.5146,-248.3584 259.8074,-245.1132 251.5292,-248.0168 251.5292,-248.0168"/>
<ellipse fill="none" stroke="#000000" cx="248.3409" cy="-247.7435" rx="3.2" ry="3.2"/>
</g>
<!-- ci_tar_def -->
<g id="node6" class="node">
<title>ci_tar_def</title>
<g id="a_node6"><a xlink:href="../../tables/ci_tar_def.html" xlink:title="ci_tar_def" target="_top">
<polygon fill="#ffffff" stroke="transparent" points="57.5,-120.2 57.5,-181.2 160.5,-181.2 160.5,-120.2 57.5,-120.2"/>
<polygon fill="#f5f5f5" stroke="transparent" points="58,-157.7 58,-180.7 161,-180.7 161,-157.7 58,-157.7"/>
<polygon fill="none" stroke="#000000" points="58,-157.7 58,-180.7 161,-180.7 161,-157.7 58,-157.7"/>
<text text-anchor="start" x="63" y="-166.3" font-family="Helvetica,sans-Serif" font-weight="bold" font-size="11.00" fill="#000000">ci_tar_def</text>
<text text-anchor="start" x="126.5219" y="-165.8" font-family="Helvetica,sans-Serif" font-size="11.00" fill="#000000">[table]</text>
<polygon fill="none" stroke="#000000" points="58,-138.7 58,-157.7 161,-157.7 161,-138.7 58,-138.7"/>
<text text-anchor="start" x="61" y="-144.8" font-family="Helvetica,sans-Serif" font-size="11.00" fill="#000000">...</text>
<polygon fill="#ffffff" stroke="transparent" points="58,-119.7 58,-138.7 86,-138.7 86,-119.7 58,-119.7"/>
<polygon fill="none" stroke="#000000" points="58,-119.7 58,-138.7 86,-138.7 86,-119.7 58,-119.7"/>
<text text-anchor="start" x="61" y="-125.8" font-family="Helvetica,sans-Serif" font-size="11.00" fill="#000000"> &#160;</text>
<polygon fill="#ffffff" stroke="transparent" points="86,-119.7 86,-138.7 132,-138.7 132,-119.7 86,-119.7"/>
<polygon fill="none" stroke="#000000" points="86,-119.7 86,-138.7 132,-138.7 132,-119.7 86,-119.7"/>
<text text-anchor="start" x="96.6105" y="-125.8" font-family="Helvetica,sans-Serif" font-size="11.00" fill="#000000">0 rows</text>
<polygon fill="#ffffff" stroke="transparent" points="132,-119.7 132,-138.7 161,-138.7 161,-119.7 132,-119.7"/>
<polygon fill="none" stroke="#000000" points="132,-119.7 132,-138.7 161,-138.7 161,-119.7 132,-119.7"/>
<text text-anchor="start" x="142.4053" y="-125.8" font-family="Helvetica,sans-Serif" font-size="11.00" fill="#000000">2 &gt;</text>
</a>
</g>
</g>
<!-- ci_incidence_summary&#45;&gt;ci_tar_def -->
<g id="edge7" class="edge">
<title>ci_incidence_summary:w&#45;&gt;ci_tar_def:e</title>
<path fill="none" stroke="#000000" d="M245.3852,-267.5507C225.9089,-256.3072 239.6206,-217.4444 218,-191.7 197.4185,-167.1928 193.0031,-147.7 161,-147.7"/>
<polygon fill="#000000" stroke="#000000" points="251.692,-268.9578 258.716,-274.2136 255.596,-269.8289 259.5,-270.7 259.5,-270.7 259.5,-270.7 255.596,-269.8289 260.284,-267.1864 251.692,-268.9578 251.692,-268.9578"/>
<ellipse fill="none" stroke="#000000" cx="248.5688" cy="-268.2609" rx="3.2" ry="3.2"/>
</g>
<!-- ci_incidence_summary&#45;&gt;ci_tar_def -->
<g id="edge9" class="edge">
<title>ci_incidence_summary:w&#45;&gt;ci_tar_def:e</title>
<path fill="none" stroke="#000000" d="M245.477,-223.3622C234.8128,-217.0699 232.0823,-203.0648 218,-191.7 193.0954,-171.6013 193.0031,-147.7 161,-147.7"/>
<polygon fill="#000000" stroke="#000000" points="251.7174,-224.8475 258.6664,-230.2022 255.6087,-225.7738 259.5,-226.7 259.5,-226.7 259.5,-226.7 255.6087,-225.7738 260.3336,-223.1978 251.7174,-224.8475 251.7174,-224.8475"/>
<ellipse fill="none" stroke="#000000" cx="248.6044" cy="-224.1065" rx="3.2" ry="3.2"/>
</g>
<!-- cg_cohort_definition -->
<g id="node7" class="node">
<title>cg_cohort_definition</title>
<g id="a_node7"><a xlink:href="../../tables/cg_cohort_definition.html" xlink:title="cg_cohort_definition" target="_top">
<polygon fill="#ffffff" stroke="transparent" points="21.5,-38.2 21.5,-99.2 196.5,-99.2 196.5,-38.2 21.5,-38.2"/>
<polygon fill="#f5f5f5" stroke="transparent" points="22,-75.7 22,-98.7 197,-98.7 197,-75.7 22,-75.7"/>
<polygon fill="none" stroke="#000000" points="22,-75.7 22,-98.7 197,-98.7 197,-75.7 22,-75.7"/>
<text text-anchor="start" x="27" y="-84.3" font-family="Helvetica,sans-Serif" font-weight="bold" font-size="11.00" fill="#000000">cg_cohort_definition</text>
<text text-anchor="start" x="162.5219" y="-83.8" font-family="Helvetica,sans-Serif" font-size="11.00" fill="#000000">[table]</text>
<polygon fill="none" stroke="#000000" points="22,-56.7 22,-75.7 197,-75.7 197,-56.7 22,-56.7"/>
<text text-anchor="start" x="25" y="-62.8" font-family="Helvetica,sans-Serif" font-size="11.00" fill="#000000">...</text>
<polygon fill="#ffffff" stroke="transparent" points="22,-37.7 22,-56.7 83,-56.7 83,-37.7 22,-37.7"/>
<polygon fill="none" stroke="#000000" points="22,-37.7 22,-56.7 83,-56.7 83,-37.7 22,-37.7"/>
<text text-anchor="start" x="25" y="-43.8" font-family="Helvetica,sans-Serif" font-size="11.00" fill="#000000"> &#160;</text>
<polygon fill="#ffffff" stroke="transparent" points="83,-37.7 83,-56.7 145,-56.7 145,-37.7 83,-37.7"/>
<polygon fill="none" stroke="#000000" points="83,-37.7 83,-56.7 145,-56.7 145,-37.7 83,-37.7"/>
<text text-anchor="start" x="109.6105" y="-43.8" font-family="Helvetica,sans-Serif" font-size="11.00" fill="#000000">0 rows</text>
<polygon fill="#ffffff" stroke="transparent" points="145,-37.7 145,-56.7 197,-56.7 197,-37.7 145,-37.7"/>
<polygon fill="none" stroke="#000000" points="145,-37.7 145,-56.7 197,-56.7 197,-37.7 145,-37.7"/>
<text text-anchor="start" x="172.2904" y="-43.8" font-family="Helvetica,sans-Serif" font-size="11.00" fill="#000000">17 &gt;</text>
</a>
</g>
</g>
<!-- ci_incidence_summary&#45;&gt;cg_cohort_definition -->
<g id="edge10" class="edge">
<title>ci_incidence_summary:w&#45;&gt;cg_cohort_definition:e</title>
<path fill="none" stroke="#000000" d="M245.2445,-201.9234C203.0289,-182.3328 259.0468,-65.7 197,-65.7"/>
<polygon fill="#000000" stroke="#000000" points="251.6476,-203.1705 258.8117,-208.2336 255.5738,-203.9353 259.5,-204.7 259.5,-204.7 259.5,-204.7 255.5738,-203.9353 260.1883,-201.1664 251.6476,-203.1705 251.6476,-203.1705"/>
<ellipse fill="none" stroke="#000000" cx="248.5066" cy="-202.5587" rx="3.2" ry="3.2"/>
</g>
</g>
</svg>
