<?xml version="1.0" encoding="UTF-8" standalone="no"?>
<!DOCTYPE svg PUBLIC "-//W3C//DTD SVG 1.1//EN"
 "http://www.w3.org/Graphics/SVG/1.1/DTD/svg11.dtd">
<!-- Generated by graphviz version 2.40.1 (20161225.0304)
 -->
<!-- Title: oneDegreeRelationshipsDiagram Pages: 1 -->
<svg width="486pt" height="278pt"
 viewBox="0.00 0.00 486.00 277.70" xmlns="http://www.w3.org/2000/svg" xmlns:xlink="http://www.w3.org/1999/xlink">
<g id="graph0" class="graph" transform="scale(1 1) rotate(0) translate(4 273.7)">
<title>oneDegreeRelationshipsDiagram</title>
<polygon fill="#ffffff" stroke="transparent" points="-4,4 -4,-273.7 482,-273.7 482,4 -4,4"/>
<text text-anchor="middle" x="72.4936" y="-7.3" font-family="Helvetica,sans-Serif" font-size="11.00" fill="#000000">Generated by SchemaSpy</text>
<!-- ci_incidence_summary -->
<g id="node1" class="node">
<title>ci_incidence_summary</title>
<g id="a_node1"><a xlink:href="../../tables/ci_incidence_summary.html" xlink:title="ci_incidence_summary" target="_top">
<polygon fill="#ffffff" stroke="transparent" points="259,-38.2 259,-253.2 470,-253.2 470,-38.2 259,-38.2"/>
<polygon fill="#f5f5f5" stroke="transparent" points="259.5,-229.7 259.5,-252.7 470.5,-252.7 470.5,-229.7 259.5,-229.7"/>
<polygon fill="none" stroke="#000000" points="259.5,-229.7 259.5,-252.7 470.5,-252.7 470.5,-229.7 259.5,-229.7"/>
<text text-anchor="start" x="264.5" y="-238.3" font-family="Helvetica,sans-Serif" font-weight="bold" font-size="11.00" fill="#000000">ci_incidence_summary</text>
<text text-anchor="start" x="435.5437" y="-237.8" font-family="Helvetica,sans-Serif" font-size="11.00" fill="#000000">[table]</text>
<polygon fill="none" stroke="#000000" points="259.5,-207.7 259.5,-229.7 470.5,-229.7 470.5,-207.7 259.5,-207.7"/>
<image xlink:href="../../images/foreignKeys.png" width="11px" height="12px" preserveAspectRatio="xMinYMin meet" x="264.5" y="-224.7"/>
<text text-anchor="start" x="279.5" y="-214.8" font-family="Helvetica,sans-Serif" font-size="11.00" fill="#000000">age_group_id</text>
<polygon fill="none" stroke="#000000" points="259.5,-185.7 259.5,-207.7 470.5,-207.7 470.5,-185.7 259.5,-185.7"/>
<image xlink:href="../../images/foreignKeys.png" width="11px" height="12px" preserveAspectRatio="xMinYMin meet" x="264.5" y="-202.7"/>
<text text-anchor="start" x="279.5" y="-192.8" font-family="Helvetica,sans-Serif" font-size="11.00" fill="#000000">database_id</text>
<polygon fill="none" stroke="#000000" points="259.5,-163.7 259.5,-185.7 470.5,-185.7 470.5,-163.7 259.5,-163.7"/>
<image xlink:href="../../images/foreignKeys.png" width="11px" height="12px" preserveAspectRatio="xMinYMin meet" x="264.5" y="-180.7"/>
<text text-anchor="start" x="279.5" y="-170.8" font-family="Helvetica,sans-Serif" font-size="11.00" fill="#000000">outcome_id</text>
<polygon fill="none" stroke="#000000" points="259.5,-141.7 259.5,-163.7 470.5,-163.7 470.5,-141.7 259.5,-141.7"/>
<image xlink:href="../../images/foreignKeys.png" width="11px" height="12px" preserveAspectRatio="xMinYMin meet" x="264.5" y="-158.7"/>
<text text-anchor="start" x="279.5" y="-148.8" font-family="Helvetica,sans-Serif" font-size="11.00" fill="#000000">ref_id</text>
<polygon fill="none" stroke="#000000" points="259.5,-119.7 259.5,-141.7 470.5,-141.7 470.5,-119.7 259.5,-119.7"/>
<image xlink:href="../../images/foreignKeys.png" width="11px" height="12px" preserveAspectRatio="xMinYMin meet" x="264.5" y="-136.7"/>
<text text-anchor="start" x="279.5" y="-126.8" font-family="Helvetica,sans-Serif" font-size="11.00" fill="#000000">subgroup_id</text>
<polygon fill="none" stroke="#000000" points="259.5,-97.7 259.5,-119.7 470.5,-119.7 470.5,-97.7 259.5,-97.7"/>
<image xlink:href="../../images/foreignKeys.png" width="11px" height="12px" preserveAspectRatio="xMinYMin meet" x="264.5" y="-114.7"/>
<text text-anchor="start" x="279.5" y="-104.8" font-family="Helvetica,sans-Serif" font-size="11.00" fill="#000000">tar_id</text>
<polygon fill="none" stroke="#000000" points="259.5,-75.7 259.5,-97.7 470.5,-97.7 470.5,-75.7 259.5,-75.7"/>
<image xlink:href="../../images/foreignKeys.png" width="11px" height="12px" preserveAspectRatio="xMinYMin meet" x="264.5" y="-92.7"/>
<text text-anchor="start" x="279.5" y="-82.8" font-family="Helvetica,sans-Serif" font-size="11.00" fill="#000000">target_cohort_definition_id</text>
<polygon fill="none" stroke="#000000" points="259.5,-56.7 259.5,-75.7 470.5,-75.7 470.5,-56.7 259.5,-56.7"/>
<text text-anchor="start" x="262.5" y="-62.8" font-family="Helvetica,sans-Serif" font-size="11.00" fill="#000000">...</text>
<polygon fill="#ffffff" stroke="transparent" points="259.5,-37.7 259.5,-56.7 353.5,-56.7 353.5,-37.7 259.5,-37.7"/>
<polygon fill="none" stroke="#000000" points="259.5,-37.7 259.5,-56.7 353.5,-56.7 353.5,-37.7 259.5,-37.7"/>
<text text-anchor="start" x="262.5" y="-43.8" font-family="Helvetica,sans-Serif" font-size="11.00" fill="#000000">&lt; 10</text>
<polygon fill="#ffffff" stroke="transparent" points="353.5,-37.7 353.5,-56.7 424.5,-56.7 424.5,-37.7 353.5,-37.7"/>
<polygon fill="none" stroke="#000000" points="353.5,-37.7 353.5,-56.7 424.5,-56.7 424.5,-37.7 353.5,-37.7"/>
<text text-anchor="start" x="389.1105" y="-43.8" font-family="Helvetica,sans-Serif" font-size="11.00" fill="#000000">0 rows</text>
<polygon fill="#ffffff" stroke="transparent" points="424.5,-37.7 424.5,-56.7 470.5,-56.7 470.5,-37.7 424.5,-37.7"/>
<polygon fill="none" stroke="#000000" points="424.5,-37.7 424.5,-56.7 470.5,-56.7 470.5,-37.7 424.5,-37.7"/>
<text text-anchor="start" x="461.3862" y="-43.8" font-family="Helvetica,sans-Serif" font-size="11.00" fill="#000000"> &#160;</text>
</a>
</g>
</g>
<!-- ci_age_group_def -->
<g id="node2" class="node">
<title>ci_age_group_def</title>
<g id="a_node2"><a xlink:href="../../tables/ci_age_group_def.html" xlink:title="ci_age_group_def" target="_top">
<polygon fill="#ffffff" stroke="transparent" points="8,-109.7 8,-265.7 210,-265.7 210,-109.7 8,-109.7"/>
<polygon fill="#f5f5f5" stroke="transparent" points="10,-240.7 10,-263.7 208,-263.7 208,-240.7 10,-240.7"/>
<polygon fill="none" stroke="#000000" points="10,-240.7 10,-263.7 208,-263.7 208,-240.7 10,-240.7"/>
<text text-anchor="start" x="15" y="-249.3" font-family="Helvetica,sans-Serif" font-weight="bold" font-size="11.00" fill="#000000">ci_age_group_def</text>
<text text-anchor="start" x="173.0437" y="-248.8" font-family="Helvetica,sans-Serif" font-size="11.00" fill="#000000">[table]</text>
<polygon fill="none" stroke="#000000" points="10,-218.7 10,-240.7 146,-240.7 146,-218.7 10,-218.7"/>
<image xlink:href="../../images/primaryKeys.png" width="11px" height="12px" preserveAspectRatio="xMinYMin meet" x="15" y="-235.7"/>
<text text-anchor="start" x="30" y="-225.8" font-family="Helvetica,sans-Serif" font-size="11.00" fill="#000000">age_group_id</text>
<polygon fill="none" stroke="#000000" points="146,-218.7 146,-240.7 208,-240.7 208,-218.7 146,-218.7"/>
<text text-anchor="start" x="148.878" y="-226.4" font-family="Helvetica,sans-Serif" font-size="11.00" fill="#000000">unknown[0]</text>
<polygon fill="none" stroke="#000000" points="10,-196.7 10,-218.7 146,-218.7 146,-196.7 10,-196.7"/>
<text text-anchor="start" x="30" y="-203.8" font-family="Helvetica,sans-Serif" font-size="11.00" fill="#000000">age_group_name</text>
<polygon fill="none" stroke="#000000" points="146,-196.7 146,-218.7 208,-218.7 208,-196.7 146,-196.7"/>
<text text-anchor="start" x="148.878" y="-204.4" font-family="Helvetica,sans-Serif" font-size="11.00" fill="#000000">unknown[0]</text>
<polygon fill="none" stroke="#000000" points="10,-174.7 10,-196.7 146,-196.7 146,-174.7 10,-174.7"/>
<text text-anchor="start" x="30" y="-181.8" font-family="Helvetica,sans-Serif" font-size="11.00" fill="#000000">max_age</text>
<polygon fill="none" stroke="#000000" points="146,-174.7 146,-196.7 208,-196.7 208,-174.7 146,-174.7"/>
<text text-anchor="start" x="148.878" y="-182.4" font-family="Helvetica,sans-Serif" font-size="11.00" fill="#000000">unknown[0]</text>
<polygon fill="none" stroke="#000000" points="10,-152.7 10,-174.7 146,-174.7 146,-152.7 10,-152.7"/>
<text text-anchor="start" x="30" y="-159.8" font-family="Helvetica,sans-Serif" font-size="11.00" fill="#000000">min_age</text>
<polygon fill="none" stroke="#000000" points="146,-152.7 146,-174.7 208,-174.7 208,-152.7 146,-152.7"/>
<text text-anchor="start" x="148.878" y="-160.4" font-family="Helvetica,sans-Serif" font-size="11.00" fill="#000000">unknown[0]</text>
<polygon fill="none" stroke="#000000" points="10,-130.7 10,-152.7 146,-152.7 146,-130.7 10,-130.7"/>
<image xlink:href="../../images/primaryKeys.png" width="11px" height="12px" preserveAspectRatio="xMinYMin meet" x="15" y="-147.7"/>
<text text-anchor="start" x="30" y="-137.8" font-family="Helvetica,sans-Serif" font-size="11.00" fill="#000000">ref_id</text>
<polygon fill="none" stroke="#000000" points="146,-130.7 146,-152.7 208,-152.7 208,-130.7 146,-130.7"/>
<text text-anchor="start" x="148.878" y="-138.4" font-family="Helvetica,sans-Serif" font-size="11.00" fill="#000000">unknown[0]</text>
<polygon fill="#ffffff" stroke="transparent" points="10,-111.7 10,-130.7 69,-130.7 69,-111.7 10,-111.7"/>
<polygon fill="none" stroke="#000000" points="10,-111.7 10,-130.7 69,-130.7 69,-111.7 10,-111.7"/>
<text text-anchor="start" x="13" y="-117.8" font-family="Helvetica,sans-Serif" font-size="11.00" fill="#000000">&lt; 0</text>
<polygon fill="#ffffff" stroke="transparent" points="69,-111.7 69,-130.7 146,-130.7 146,-111.7 69,-111.7"/>
<polygon fill="none" stroke="#000000" points="69,-111.7 69,-130.7 146,-130.7 146,-111.7 69,-111.7"/>
<text text-anchor="start" x="110.6105" y="-117.8" font-family="Helvetica,sans-Serif" font-size="11.00" fill="#000000">0 rows</text>
<polygon fill="#ffffff" stroke="transparent" points="146,-111.7 146,-130.7 208,-130.7 208,-111.7 146,-111.7"/>
<polygon fill="none" stroke="#000000" points="146,-111.7 146,-130.7 208,-130.7 208,-111.7 146,-111.7"/>
<text text-anchor="start" x="189.4053" y="-117.8" font-family="Helvetica,sans-Serif" font-size="11.00" fill="#000000">2 &gt;</text>
<polygon fill="none" stroke="#000000" stroke-width="2" points="9,-110.7 9,-264.7 209,-264.7 209,-110.7 9,-110.7"/>
</a>
</g>
</g>
<!-- ci_incidence_summary&#45;&gt;ci_age_group_def -->
<g id="edge1" class="edge">
<title>ci_incidence_summary:w&#45;&gt;ci_age_group_def:e</title>
<path fill="none" stroke="#000000" d="M244.8704,-220.4188C232.5803,-223.5125 225.5539,-229.7 208,-229.7"/>
<polygon fill="#000000" stroke="#000000" points="251.5546,-219.6335 259.9201,-222.2754 255.5273,-219.1668 259.5,-218.7 259.5,-218.7 259.5,-218.7 255.5273,-219.1668 259.0799,-215.1246 251.5546,-219.6335 251.5546,-219.6335"/>
<ellipse fill="none" stroke="#000000" cx="248.3765" cy="-220.0069" rx="3.2" ry="3.2"/>
</g>
<!-- ci_incidence_summary&#45;&gt;ci_age_group_def -->
<g id="edge2" class="edge">
<title>ci_incidence_summary:w&#45;&gt;ci_age_group_def:e</title>
<path fill="none" stroke="#000000" d="M244.8704,-150.9813C232.5803,-147.8875 225.5539,-141.7 208,-141.7"/>
<polygon fill="#000000" stroke="#000000" points="251.5546,-151.7665 259.0799,-156.2754 255.5273,-152.2332 259.5,-152.7 259.5,-152.7 259.5,-152.7 255.5273,-152.2332 259.9201,-149.1246 251.5546,-151.7665 251.5546,-151.7665"/>
<ellipse fill="none" stroke="#000000" cx="248.3765" cy="-151.3931" rx="3.2" ry="3.2"/>
</g>
</g>
</svg>
