<?xml version="1.0" encoding="UTF-8" standalone="no"?>
<!DOCTYPE svg PUBLIC "-//W3C//DTD SVG 1.1//EN"
 "http://www.w3.org/Graphics/SVG/1.1/DTD/svg11.dtd">
<!-- Generated by graphviz version 2.40.1 (20161225.0304)
 -->
<!-- Title: oneDegreeRelationshipsDiagram Pages: 1 -->
<svg width="595pt" height="719pt"
 viewBox="0.00 0.00 595.00 719.20" xmlns="http://www.w3.org/2000/svg" xmlns:xlink="http://www.w3.org/1999/xlink">
<g id="graph0" class="graph" transform="scale(1 1) rotate(0) translate(4 715.2)">
<title>oneDegreeRelationshipsDiagram</title>
<polygon fill="#ffffff" stroke="transparent" points="-4,4 -4,-715.2 591,-715.2 591,4 -4,4"/>
<text text-anchor="middle" x="72.4936" y="-7.3" font-family="Helvetica,sans-Serif" font-size="11.00" fill="#000000">Generated by SchemaSpy</text>
<!-- ci_incidence_summary -->
<g id="node1" class="node">
<title>ci_incidence_summary</title>
<g id="a_node1"><a xlink:href="../../tables/ci_incidence_summary.html" xlink:title="ci_incidence_summary" target="_top">
<polygon fill="#ffffff" stroke="transparent" points="302,-155.7 302,-663.7 579,-663.7 579,-155.7 302,-155.7"/>
<polygon fill="#f5f5f5" stroke="transparent" points="304.5,-638.7 304.5,-661.7 577.5,-661.7 577.5,-638.7 304.5,-638.7"/>
<polygon fill="none" stroke="#000000" points="304.5,-638.7 304.5,-661.7 577.5,-661.7 577.5,-638.7 304.5,-638.7"/>
<text text-anchor="start" x="309.5" y="-647.3" font-family="Helvetica,sans-Serif" font-weight="bold" font-size="11.00" fill="#000000">ci_incidence_summary</text>
<text text-anchor="start" x="542.5437" y="-646.8" font-family="Helvetica,sans-Serif" font-size="11.00" fill="#000000">[table]</text>
<polygon fill="none" stroke="#000000" points="304.5,-616.7 304.5,-638.7 515.5,-638.7 515.5,-616.7 304.5,-616.7"/>
<image xlink:href="../../images/foreignKeys.png" width="11px" height="12px" preserveAspectRatio="xMinYMin meet" x="309.5" y="-633.7"/>
<text text-anchor="start" x="324.5" y="-623.8" font-family="Helvetica,sans-Serif" font-size="11.00" fill="#000000">age_group_id</text>
<polygon fill="none" stroke="#000000" points="515.5,-616.7 515.5,-638.7 577.5,-638.7 577.5,-616.7 515.5,-616.7"/>
<text text-anchor="start" x="518.378" y="-624.4" font-family="Helvetica,sans-Serif" font-size="11.00" fill="#000000">unknown[0]</text>
<polygon fill="none" stroke="#000000" points="304.5,-594.7 304.5,-616.7 515.5,-616.7 515.5,-594.7 304.5,-594.7"/>
<image xlink:href="../../images/foreignKeys.png" width="11px" height="12px" preserveAspectRatio="xMinYMin meet" x="309.5" y="-611.7"/>
<text text-anchor="start" x="324.5" y="-601.8" font-family="Helvetica,sans-Serif" font-size="11.00" fill="#000000">database_id</text>
<polygon fill="none" stroke="#000000" points="515.5,-594.7 515.5,-616.7 577.5,-616.7 577.5,-594.7 515.5,-594.7"/>
<text text-anchor="start" x="518.378" y="-602.4" font-family="Helvetica,sans-Serif" font-size="11.00" fill="#000000">unknown[0]</text>
<polygon fill="none" stroke="#000000" points="304.5,-572.7 304.5,-594.7 515.5,-594.7 515.5,-572.7 304.5,-572.7"/>
<text text-anchor="start" x="324.5" y="-579.8" font-family="Helvetica,sans-Serif" font-size="11.00" fill="#000000">gender_id</text>
<polygon fill="none" stroke="#000000" points="515.5,-572.7 515.5,-594.7 577.5,-594.7 577.5,-572.7 515.5,-572.7"/>
<text text-anchor="start" x="518.378" y="-580.4" font-family="Helvetica,sans-Serif" font-size="11.00" fill="#000000">unknown[0]</text>
<polygon fill="none" stroke="#000000" points="304.5,-550.7 304.5,-572.7 515.5,-572.7 515.5,-550.7 304.5,-550.7"/>
<text text-anchor="start" x="324.5" y="-557.8" font-family="Helvetica,sans-Serif" font-size="11.00" fill="#000000">gender_name</text>
<polygon fill="none" stroke="#000000" points="515.5,-550.7 515.5,-572.7 577.5,-572.7 577.5,-550.7 515.5,-550.7"/>
<text text-anchor="start" x="518.378" y="-558.4" font-family="Helvetica,sans-Serif" font-size="11.00" fill="#000000">unknown[0]</text>
<polygon fill="none" stroke="#000000" points="304.5,-528.7 304.5,-550.7 515.5,-550.7 515.5,-528.7 304.5,-528.7"/>
<text text-anchor="start" x="324.5" y="-535.8" font-family="Helvetica,sans-Serif" font-size="11.00" fill="#000000">incidence_proportion_p100p</text>
<polygon fill="none" stroke="#000000" points="515.5,-528.7 515.5,-550.7 577.5,-550.7 577.5,-528.7 515.5,-528.7"/>
<text text-anchor="start" x="518.378" y="-536.4" font-family="Helvetica,sans-Serif" font-size="11.00" fill="#000000">unknown[0]</text>
<polygon fill="none" stroke="#000000" points="304.5,-506.7 304.5,-528.7 515.5,-528.7 515.5,-506.7 304.5,-506.7"/>
<text text-anchor="start" x="324.5" y="-513.8" font-family="Helvetica,sans-Serif" font-size="11.00" fill="#000000">incidence_rate_p100py</text>
<polygon fill="none" stroke="#000000" points="515.5,-506.7 515.5,-528.7 577.5,-528.7 577.5,-506.7 515.5,-506.7"/>
<text text-anchor="start" x="518.378" y="-514.4" font-family="Helvetica,sans-Serif" font-size="11.00" fill="#000000">unknown[0]</text>
<polygon fill="none" stroke="#000000" points="304.5,-484.7 304.5,-506.7 515.5,-506.7 515.5,-484.7 304.5,-484.7"/>
<image xlink:href="../../images/foreignKeys.png" width="11px" height="12px" preserveAspectRatio="xMinYMin meet" x="309.5" y="-501.7"/>
<text text-anchor="start" x="324.5" y="-491.8" font-family="Helvetica,sans-Serif" font-size="11.00" fill="#000000">outcome_id</text>
<polygon fill="none" stroke="#000000" points="515.5,-484.7 515.5,-506.7 577.5,-506.7 577.5,-484.7 515.5,-484.7"/>
<text text-anchor="start" x="518.378" y="-492.4" font-family="Helvetica,sans-Serif" font-size="11.00" fill="#000000">unknown[0]</text>
<polygon fill="none" stroke="#000000" points="304.5,-462.7 304.5,-484.7 515.5,-484.7 515.5,-462.7 304.5,-462.7"/>
<text text-anchor="start" x="324.5" y="-469.8" font-family="Helvetica,sans-Serif" font-size="11.00" fill="#000000">outcomes</text>
<polygon fill="none" stroke="#000000" points="515.5,-462.7 515.5,-484.7 577.5,-484.7 577.5,-462.7 515.5,-462.7"/>
<text text-anchor="start" x="518.378" y="-470.4" font-family="Helvetica,sans-Serif" font-size="11.00" fill="#000000">unknown[0]</text>
<polygon fill="none" stroke="#000000" points="304.5,-440.7 304.5,-462.7 515.5,-462.7 515.5,-440.7 304.5,-440.7"/>
<text text-anchor="start" x="324.5" y="-447.8" font-family="Helvetica,sans-Serif" font-size="11.00" fill="#000000">outcomes_pe</text>
<polygon fill="none" stroke="#000000" points="515.5,-440.7 515.5,-462.7 577.5,-462.7 577.5,-440.7 515.5,-440.7"/>
<text text-anchor="start" x="518.378" y="-448.4" font-family="Helvetica,sans-Serif" font-size="11.00" fill="#000000">unknown[0]</text>
<polygon fill="none" stroke="#000000" points="304.5,-418.7 304.5,-440.7 515.5,-440.7 515.5,-418.7 304.5,-418.7"/>
<text text-anchor="start" x="324.5" y="-425.8" font-family="Helvetica,sans-Serif" font-size="11.00" fill="#000000">person_days</text>
<polygon fill="none" stroke="#000000" points="515.5,-418.7 515.5,-440.7 577.5,-440.7 577.5,-418.7 515.5,-418.7"/>
<text text-anchor="start" x="518.378" y="-426.4" font-family="Helvetica,sans-Serif" font-size="11.00" fill="#000000">unknown[0]</text>
<polygon fill="none" stroke="#000000" points="304.5,-396.7 304.5,-418.7 515.5,-418.7 515.5,-396.7 304.5,-396.7"/>
<text text-anchor="start" x="324.5" y="-403.8" font-family="Helvetica,sans-Serif" font-size="11.00" fill="#000000">person_days_pe</text>
<polygon fill="none" stroke="#000000" points="515.5,-396.7 515.5,-418.7 577.5,-418.7 577.5,-396.7 515.5,-396.7"/>
<text text-anchor="start" x="518.378" y="-404.4" font-family="Helvetica,sans-Serif" font-size="11.00" fill="#000000">unknown[0]</text>
<polygon fill="none" stroke="#000000" points="304.5,-374.7 304.5,-396.7 515.5,-396.7 515.5,-374.7 304.5,-374.7"/>
<text text-anchor="start" x="324.5" y="-381.8" font-family="Helvetica,sans-Serif" font-size="11.00" fill="#000000">person_outcomes</text>
<polygon fill="none" stroke="#000000" points="515.5,-374.7 515.5,-396.7 577.5,-396.7 577.5,-374.7 515.5,-374.7"/>
<text text-anchor="start" x="518.378" y="-382.4" font-family="Helvetica,sans-Serif" font-size="11.00" fill="#000000">unknown[0]</text>
<polygon fill="none" stroke="#000000" points="304.5,-352.7 304.5,-374.7 515.5,-374.7 515.5,-352.7 304.5,-352.7"/>
<text text-anchor="start" x="324.5" y="-359.8" font-family="Helvetica,sans-Serif" font-size="11.00" fill="#000000">person_outcomes_pe</text>
<polygon fill="none" stroke="#000000" points="515.5,-352.7 515.5,-374.7 577.5,-374.7 577.5,-352.7 515.5,-352.7"/>
<text text-anchor="start" x="518.378" y="-360.4" font-family="Helvetica,sans-Serif" font-size="11.00" fill="#000000">unknown[0]</text>
<polygon fill="none" stroke="#000000" points="304.5,-330.7 304.5,-352.7 515.5,-352.7 515.5,-330.7 304.5,-330.7"/>
<text text-anchor="start" x="324.5" y="-337.8" font-family="Helvetica,sans-Serif" font-size="11.00" fill="#000000">persons_at_risk</text>
<polygon fill="none" stroke="#000000" points="515.5,-330.7 515.5,-352.7 577.5,-352.7 577.5,-330.7 515.5,-330.7"/>
<text text-anchor="start" x="518.378" y="-338.4" font-family="Helvetica,sans-Serif" font-size="11.00" fill="#000000">unknown[0]</text>
<polygon fill="none" stroke="#000000" points="304.5,-308.7 304.5,-330.7 515.5,-330.7 515.5,-308.7 304.5,-308.7"/>
<text text-anchor="start" x="324.5" y="-315.8" font-family="Helvetica,sans-Serif" font-size="11.00" fill="#000000">persons_at_risk_pe</text>
<polygon fill="none" stroke="#000000" points="515.5,-308.7 515.5,-330.7 577.5,-330.7 577.5,-308.7 515.5,-308.7"/>
<text text-anchor="start" x="518.378" y="-316.4" font-family="Helvetica,sans-Serif" font-size="11.00" fill="#000000">unknown[0]</text>
<polygon fill="none" stroke="#000000" points="304.5,-286.7 304.5,-308.7 515.5,-308.7 515.5,-286.7 304.5,-286.7"/>
<image xlink:href="../../images/foreignKeys.png" width="11px" height="12px" preserveAspectRatio="xMinYMin meet" x="309.5" y="-303.7"/>
<text text-anchor="start" x="324.5" y="-293.8" font-family="Helvetica,sans-Serif" font-size="11.00" fill="#000000">ref_id</text>
<polygon fill="none" stroke="#000000" points="515.5,-286.7 515.5,-308.7 577.5,-308.7 577.5,-286.7 515.5,-286.7"/>
<text text-anchor="start" x="518.378" y="-294.4" font-family="Helvetica,sans-Serif" font-size="11.00" fill="#000000">unknown[0]</text>
<polygon fill="none" stroke="#000000" points="304.5,-264.7 304.5,-286.7 515.5,-286.7 515.5,-264.7 304.5,-264.7"/>
<text text-anchor="start" x="324.5" y="-271.8" font-family="Helvetica,sans-Serif" font-size="11.00" fill="#000000">source_name</text>
<polygon fill="none" stroke="#000000" points="515.5,-264.7 515.5,-286.7 577.5,-286.7 577.5,-264.7 515.5,-264.7"/>
<text text-anchor="start" x="518.378" y="-272.4" font-family="Helvetica,sans-Serif" font-size="11.00" fill="#000000">unknown[0]</text>
<polygon fill="none" stroke="#000000" points="304.5,-242.7 304.5,-264.7 515.5,-264.7 515.5,-242.7 304.5,-242.7"/>
<text text-anchor="start" x="324.5" y="-249.8" font-family="Helvetica,sans-Serif" font-size="11.00" fill="#000000">start_year</text>
<polygon fill="none" stroke="#000000" points="515.5,-242.7 515.5,-264.7 577.5,-264.7 577.5,-242.7 515.5,-242.7"/>
<text text-anchor="start" x="518.378" y="-250.4" font-family="Helvetica,sans-Serif" font-size="11.00" fill="#000000">unknown[0]</text>
<polygon fill="none" stroke="#000000" points="304.5,-220.7 304.5,-242.7 515.5,-242.7 515.5,-220.7 304.5,-220.7"/>
<image xlink:href="../../images/foreignKeys.png" width="11px" height="12px" preserveAspectRatio="xMinYMin meet" x="309.5" y="-237.7"/>
<text text-anchor="start" x="324.5" y="-227.8" font-family="Helvetica,sans-Serif" font-size="11.00" fill="#000000">subgroup_id</text>
<polygon fill="none" stroke="#000000" points="515.5,-220.7 515.5,-242.7 577.5,-242.7 577.5,-220.7 515.5,-220.7"/>
<text text-anchor="start" x="518.378" y="-228.4" font-family="Helvetica,sans-Serif" font-size="11.00" fill="#000000">unknown[0]</text>
<polygon fill="none" stroke="#000000" points="304.5,-198.7 304.5,-220.7 515.5,-220.7 515.5,-198.7 304.5,-198.7"/>
<image xlink:href="../../images/foreignKeys.png" width="11px" height="12px" preserveAspectRatio="xMinYMin meet" x="309.5" y="-215.7"/>
<text text-anchor="start" x="324.5" y="-205.8" font-family="Helvetica,sans-Serif" font-size="11.00" fill="#000000">tar_id</text>
<polygon fill="none" stroke="#000000" points="515.5,-198.7 515.5,-220.7 577.5,-220.7 577.5,-198.7 515.5,-198.7"/>
<text text-anchor="start" x="518.378" y="-206.4" font-family="Helvetica,sans-Serif" font-size="11.00" fill="#000000">unknown[0]</text>
<polygon fill="none" stroke="#000000" points="304.5,-176.7 304.5,-198.7 515.5,-198.7 515.5,-176.7 304.5,-176.7"/>
<image xlink:href="../../images/foreignKeys.png" width="11px" height="12px" preserveAspectRatio="xMinYMin meet" x="309.5" y="-193.7"/>
<text text-anchor="start" x="324.5" y="-183.8" font-family="Helvetica,sans-Serif" font-size="11.00" fill="#000000">target_cohort_definition_id</text>
<polygon fill="none" stroke="#000000" points="515.5,-176.7 515.5,-198.7 577.5,-198.7 577.5,-176.7 515.5,-176.7"/>
<text text-anchor="start" x="518.378" y="-184.4" font-family="Helvetica,sans-Serif" font-size="11.00" fill="#000000">unknown[0]</text>
<polygon fill="#ffffff" stroke="transparent" points="304.5,-157.7 304.5,-176.7 404.5,-176.7 404.5,-157.7 304.5,-157.7"/>
<polygon fill="none" stroke="#000000" points="304.5,-157.7 304.5,-176.7 404.5,-176.7 404.5,-157.7 304.5,-157.7"/>
<text text-anchor="start" x="307.5" y="-163.8" font-family="Helvetica,sans-Serif" font-size="11.00" fill="#000000">&lt; 10</text>
<polygon fill="#ffffff" stroke="transparent" points="404.5,-157.7 404.5,-176.7 515.5,-176.7 515.5,-157.7 404.5,-157.7"/>
<polygon fill="none" stroke="#000000" points="404.5,-157.7 404.5,-176.7 515.5,-176.7 515.5,-157.7 404.5,-157.7"/>
<text text-anchor="start" x="480.1105" y="-163.8" font-family="Helvetica,sans-Serif" font-size="11.00" fill="#000000">0 rows</text>
<polygon fill="#ffffff" stroke="transparent" points="515.5,-157.7 515.5,-176.7 577.5,-176.7 577.5,-157.7 515.5,-157.7"/>
<polygon fill="none" stroke="#000000" points="515.5,-157.7 515.5,-176.7 577.5,-176.7 577.5,-157.7 515.5,-157.7"/>
<text text-anchor="start" x="558.9053" y="-163.8" font-family="Helvetica,sans-Serif" font-size="11.00" fill="#000000">0 &gt;</text>
<polygon fill="none" stroke="#000000" stroke-width="2" points="303,-156.7 303,-662.7 578,-662.7 578,-156.7 303,-156.7"/>
</a>
</g>
</g>
<!-- ci_age_group_def -->
<g id="node2" class="node">
<title>ci_age_group_def</title>
<g id="a_node2"><a xlink:href="../../tables/ci_age_group_def.html" xlink:title="ci_age_group_def" target="_top">
<polygon fill="#ffffff" stroke="transparent" points="53.5,-498.2 53.5,-603.2 207.5,-603.2 207.5,-498.2 53.5,-498.2"/>
<polygon fill="#f5f5f5" stroke="transparent" points="53.5,-579.7 53.5,-602.7 207.5,-602.7 207.5,-579.7 53.5,-579.7"/>
<polygon fill="none" stroke="#000000" points="53.5,-579.7 53.5,-602.7 207.5,-602.7 207.5,-579.7 53.5,-579.7"/>
<text text-anchor="start" x="58.5" y="-588.3" font-family="Helvetica,sans-Serif" font-weight="bold" font-size="11.00" fill="#000000">ci_age_group_def</text>
<text text-anchor="start" x="173.0219" y="-587.8" font-family="Helvetica,sans-Serif" font-size="11.00" fill="#000000">[table]</text>
<polygon fill="none" stroke="#000000" points="53.5,-557.7 53.5,-579.7 207.5,-579.7 207.5,-557.7 53.5,-557.7"/>
<image xlink:href="../../images/primaryKeys.png" width="11px" height="12px" preserveAspectRatio="xMinYMin meet" x="58.5" y="-574.7"/>
<text text-anchor="start" x="82.5" y="-564.8" font-family="Helvetica,sans-Serif" font-size="11.00" fill="#000000">age_group_id</text>
<polygon fill="none" stroke="#000000" points="53.5,-535.7 53.5,-557.7 207.5,-557.7 207.5,-535.7 53.5,-535.7"/>
<image xlink:href="../../images/primaryKeys.png" width="11px" height="12px" preserveAspectRatio="xMinYMin meet" x="58.5" y="-552.7"/>
<text text-anchor="start" x="82.5" y="-542.8" font-family="Helvetica,sans-Serif" font-size="11.00" fill="#000000">ref_id</text>
<polygon fill="none" stroke="#000000" points="53.5,-516.7 53.5,-535.7 207.5,-535.7 207.5,-516.7 53.5,-516.7"/>
<text text-anchor="start" x="56.5" y="-522.8" font-family="Helvetica,sans-Serif" font-size="11.00" fill="#000000">...</text>
<polygon fill="#ffffff" stroke="transparent" points="53.5,-497.7 53.5,-516.7 106.5,-516.7 106.5,-497.7 53.5,-497.7"/>
<polygon fill="none" stroke="#000000" points="53.5,-497.7 53.5,-516.7 106.5,-516.7 106.5,-497.7 53.5,-497.7"/>
<text text-anchor="start" x="56.5" y="-503.8" font-family="Helvetica,sans-Serif" font-size="11.00" fill="#000000"> &#160;</text>
<polygon fill="#ffffff" stroke="transparent" points="106.5,-497.7 106.5,-516.7 165.5,-516.7 165.5,-497.7 106.5,-497.7"/>
<polygon fill="none" stroke="#000000" points="106.5,-497.7 106.5,-516.7 165.5,-516.7 165.5,-497.7 106.5,-497.7"/>
<text text-anchor="start" x="130.1105" y="-503.8" font-family="Helvetica,sans-Serif" font-size="11.00" fill="#000000">0 rows</text>
<polygon fill="#ffffff" stroke="transparent" points="165.5,-497.7 165.5,-516.7 207.5,-516.7 207.5,-497.7 165.5,-497.7"/>
<polygon fill="none" stroke="#000000" points="165.5,-497.7 165.5,-516.7 207.5,-516.7 207.5,-497.7 165.5,-497.7"/>
<text text-anchor="start" x="188.9053" y="-503.8" font-family="Helvetica,sans-Serif" font-size="11.00" fill="#000000">2 &gt;</text>
</a>
</g>
</g>
<!-- ci_incidence_summary&#45;&gt;ci_age_group_def -->
<g id="edge1" class="edge">
<title>ci_incidence_summary:w&#45;&gt;ci_age_group_def:e</title>
<path fill="none" stroke="#000000" d="M289.7522,-625.737C254.2472,-615.4996 252.4406,-568.7 207.5,-568.7"/>
<polygon fill="#000000" stroke="#000000" points="296.5699,-626.6444 304.025,-631.2685 300.535,-627.1722 304.5,-627.7 304.5,-627.7 304.5,-627.7 300.535,-627.1722 304.975,-624.1315 296.5699,-626.6444 296.5699,-626.6444"/>
<ellipse fill="none" stroke="#000000" cx="293.3979" cy="-626.2222" rx="3.2" ry="3.2"/>
</g>
<!-- ci_incidence_summary&#45;&gt;ci_age_group_def -->
<g id="edge4" class="edge">
<title>ci_incidence_summary:w&#45;&gt;ci_age_group_def:e</title>
<path fill="none" stroke="#000000" d="M289.7874,-299.0706C228.083,-312.1401 298.4834,-415.8431 261,-487.7 244.6288,-519.0842 242.8976,-546.7 207.5,-546.7"/>
<polygon fill="#000000" stroke="#000000" points="296.5345,-298.4421 304.834,-301.2845 300.5172,-298.0711 304.5,-297.7 304.5,-297.7 304.5,-297.7 300.5172,-298.0711 304.166,-294.1155 296.5345,-298.4421 296.5345,-298.4421"/>
<ellipse fill="none" stroke="#000000" cx="293.3483" cy="-298.739" rx="3.2" ry="3.2"/>
</g>
<!-- database_meta_data -->
<g id="node3" class="node">
<title>database_meta_data</title>
<g id="a_node3"><a xlink:href="../../tables/database_meta_data.html" xlink:title="database_meta_data" target="_top">
<polygon fill="#ffffff" stroke="transparent" points="8,-624.2 8,-707.2 253,-707.2 253,-624.2 8,-624.2"/>
<polygon fill="#f5f5f5" stroke="transparent" points="8.5,-683.7 8.5,-706.7 253.5,-706.7 253.5,-683.7 8.5,-683.7"/>
<polygon fill="none" stroke="#000000" points="8.5,-683.7 8.5,-706.7 253.5,-706.7 253.5,-683.7 8.5,-683.7"/>
<text text-anchor="start" x="13.5" y="-692.3" font-family="Helvetica,sans-Serif" font-weight="bold" font-size="11.00" fill="#000000">database_meta_data</text>
<text text-anchor="start" x="218.5437" y="-691.8" font-family="Helvetica,sans-Serif" font-size="11.00" fill="#000000">[table]</text>
<polygon fill="none" stroke="#000000" points="8.5,-661.7 8.5,-683.7 253.5,-683.7 253.5,-661.7 8.5,-661.7"/>
<image xlink:href="../../images/primaryKeys.png" width="11px" height="12px" preserveAspectRatio="xMinYMin meet" x="13.5" y="-678.7"/>
<text text-anchor="start" x="28.5" y="-668.8" font-family="Helvetica,sans-Serif" font-size="11.00" fill="#000000">database_id</text>
<polygon fill="none" stroke="#000000" points="8.5,-642.7 8.5,-661.7 253.5,-661.7 253.5,-642.7 8.5,-642.7"/>
<text text-anchor="start" x="11.5" y="-648.8" font-family="Helvetica,sans-Serif" font-size="11.00" fill="#000000">...</text>
<polygon fill="#ffffff" stroke="transparent" points="8.5,-623.7 8.5,-642.7 108.5,-642.7 108.5,-623.7 8.5,-623.7"/>
<polygon fill="none" stroke="#000000" points="8.5,-623.7 8.5,-642.7 108.5,-642.7 108.5,-623.7 8.5,-623.7"/>
<text text-anchor="start" x="11.5" y="-629.8" font-family="Helvetica,sans-Serif" font-size="11.00" fill="#000000">&lt; 1</text>
<polygon fill="#ffffff" stroke="transparent" points="108.5,-623.7 108.5,-642.7 186.5,-642.7 186.5,-623.7 108.5,-623.7"/>
<polygon fill="none" stroke="#000000" points="108.5,-623.7 108.5,-642.7 186.5,-642.7 186.5,-623.7 108.5,-623.7"/>
<text text-anchor="start" x="151.1105" y="-629.8" font-family="Helvetica,sans-Serif" font-size="11.00" fill="#000000">0 rows</text>
<polygon fill="#ffffff" stroke="transparent" points="186.5,-623.7 186.5,-642.7 253.5,-642.7 253.5,-623.7 186.5,-623.7"/>
<polygon fill="none" stroke="#000000" points="186.5,-623.7 186.5,-642.7 253.5,-642.7 253.5,-623.7 186.5,-623.7"/>
<text text-anchor="start" x="228.7904" y="-629.8" font-family="Helvetica,sans-Serif" font-size="11.00" fill="#000000">17 &gt;</text>
</a>
</g>
</g>
<!-- ci_incidence_summary&#45;&gt;database_meta_data -->
<g id="edge2" class="edge">
<title>ci_incidence_summary:w&#45;&gt;database_meta_data:e</title>
<path fill="none" stroke="#000000" d="M290.4871,-610.5185C273.2522,-625.881 284.7834,-672.7 253.5,-672.7"/>
<polygon fill="#000000" stroke="#000000" points="296.9348,-608.3014 305.6706,-609.1044 300.7174,-607.0007 304.5,-605.7 304.5,-605.7 304.5,-605.7 300.7174,-607.0007 303.3294,-602.2956 296.9348,-608.3014 296.9348,-608.3014"/>
<ellipse fill="none" stroke="#000000" cx="293.9087" cy="-609.342" rx="3.2" ry="3.2"/>
</g>
<!-- ci_outcome_def -->
<g id="node4" class="node">
<title>ci_outcome_def</title>
<g id="a_node4"><a xlink:href="../../tables/ci_outcome_def.html" xlink:title="ci_outcome_def" target="_top">
<polygon fill="#ffffff" stroke="transparent" points="20,-372.2 20,-477.2 241,-477.2 241,-372.2 20,-372.2"/>
<polygon fill="#f5f5f5" stroke="transparent" points="20.5,-453.7 20.5,-476.7 241.5,-476.7 241.5,-453.7 20.5,-453.7"/>
<polygon fill="none" stroke="#000000" points="20.5,-453.7 20.5,-476.7 241.5,-476.7 241.5,-453.7 20.5,-453.7"/>
<text text-anchor="start" x="25.5" y="-462.3" font-family="Helvetica,sans-Serif" font-weight="bold" font-size="11.00" fill="#000000">ci_outcome_def</text>
<text text-anchor="start" x="206.5437" y="-461.8" font-family="Helvetica,sans-Serif" font-size="11.00" fill="#000000">[table]</text>
<polygon fill="none" stroke="#000000" points="20.5,-431.7 20.5,-453.7 241.5,-453.7 241.5,-431.7 20.5,-431.7"/>
<image xlink:href="../../images/primaryKeys.png" width="11px" height="12px" preserveAspectRatio="xMinYMin meet" x="25.5" y="-448.7"/>
<text text-anchor="start" x="40.5" y="-438.8" font-family="Helvetica,sans-Serif" font-size="11.00" fill="#000000">outcome_id</text>
<polygon fill="none" stroke="#000000" points="20.5,-409.7 20.5,-431.7 241.5,-431.7 241.5,-409.7 20.5,-409.7"/>
<image xlink:href="../../images/primaryKeys.png" width="11px" height="12px" preserveAspectRatio="xMinYMin meet" x="25.5" y="-426.7"/>
<text text-anchor="start" x="40.5" y="-416.8" font-family="Helvetica,sans-Serif" font-size="11.00" fill="#000000">ref_id</text>
<polygon fill="none" stroke="#000000" points="20.5,-390.7 20.5,-409.7 241.5,-409.7 241.5,-390.7 20.5,-390.7"/>
<text text-anchor="start" x="23.5" y="-396.8" font-family="Helvetica,sans-Serif" font-size="11.00" fill="#000000">...</text>
<polygon fill="#ffffff" stroke="transparent" points="20.5,-371.7 20.5,-390.7 107.5,-390.7 107.5,-371.7 20.5,-371.7"/>
<polygon fill="none" stroke="#000000" points="20.5,-371.7 20.5,-390.7 107.5,-390.7 107.5,-371.7 20.5,-371.7"/>
<text text-anchor="start" x="23.5" y="-377.8" font-family="Helvetica,sans-Serif" font-size="11.00" fill="#000000"> &#160;</text>
<polygon fill="#ffffff" stroke="transparent" points="107.5,-371.7 107.5,-390.7 182.5,-390.7 182.5,-371.7 107.5,-371.7"/>
<polygon fill="none" stroke="#000000" points="107.5,-371.7 107.5,-390.7 182.5,-390.7 182.5,-371.7 107.5,-371.7"/>
<text text-anchor="start" x="147.1105" y="-377.8" font-family="Helvetica,sans-Serif" font-size="11.00" fill="#000000">0 rows</text>
<polygon fill="#ffffff" stroke="transparent" points="182.5,-371.7 182.5,-390.7 241.5,-390.7 241.5,-371.7 182.5,-371.7"/>
<polygon fill="none" stroke="#000000" points="182.5,-371.7 182.5,-390.7 241.5,-390.7 241.5,-371.7 182.5,-371.7"/>
<text text-anchor="start" x="222.9053" y="-377.8" font-family="Helvetica,sans-Serif" font-size="11.00" fill="#000000">2 &gt;</text>
</a>
</g>
</g>
<!-- ci_incidence_summary&#45;&gt;ci_outcome_def -->
<g id="edge3" class="edge">
<title>ci_incidence_summary:w&#45;&gt;ci_outcome_def:e</title>
<path fill="none" stroke="#000000" d="M290.417,-492.2225C269.9492,-480.4314 272.3732,-442.7 241.5,-442.7"/>
<polygon fill="#000000" stroke="#000000" points="296.7333,-493.7821 303.637,-499.195 300.6166,-494.7411 304.5,-495.7 304.5,-495.7 304.5,-495.7 300.6166,-494.7411 305.363,-492.205 296.7333,-493.7821 296.7333,-493.7821"/>
<ellipse fill="none" stroke="#000000" cx="293.6266" cy="-493.015" rx="3.2" ry="3.2"/>
</g>
<!-- ci_incidence_summary&#45;&gt;ci_outcome_def -->
<g id="edge5" class="edge">
<title>ci_incidence_summary:w&#45;&gt;ci_outcome_def:e</title>
<path fill="none" stroke="#000000" d="M290.223,-300.7405C253.2341,-319.6814 297.1621,-420.7 241.5,-420.7"/>
<polygon fill="#000000" stroke="#000000" points="296.6755,-299.3664 305.2499,-301.221 300.5877,-298.5332 304.5,-297.7 304.5,-297.7 304.5,-297.7 300.5877,-298.5332 303.7501,-294.179 296.6755,-299.3664 296.6755,-299.3664"/>
<ellipse fill="none" stroke="#000000" cx="293.5457" cy="-300.0329" rx="3.2" ry="3.2"/>
</g>
<!-- ci_subgroup_def -->
<g id="node5" class="node">
<title>ci_subgroup_def</title>
<g id="a_node5"><a xlink:href="../../tables/ci_subgroup_def.html" xlink:title="ci_subgroup_def" target="_top">
<polygon fill="#ffffff" stroke="transparent" points="56.5,-246.2 56.5,-351.2 204.5,-351.2 204.5,-246.2 56.5,-246.2"/>
<polygon fill="#f5f5f5" stroke="transparent" points="56.5,-327.7 56.5,-350.7 204.5,-350.7 204.5,-327.7 56.5,-327.7"/>
<polygon fill="none" stroke="#000000" points="56.5,-327.7 56.5,-350.7 204.5,-350.7 204.5,-327.7 56.5,-327.7"/>
<text text-anchor="start" x="61.5" y="-336.3" font-family="Helvetica,sans-Serif" font-weight="bold" font-size="11.00" fill="#000000">ci_subgroup_def</text>
<text text-anchor="start" x="170.0219" y="-335.8" font-family="Helvetica,sans-Serif" font-size="11.00" fill="#000000">[table]</text>
<polygon fill="none" stroke="#000000" points="56.5,-305.7 56.5,-327.7 204.5,-327.7 204.5,-305.7 56.5,-305.7"/>
<image xlink:href="../../images/primaryKeys.png" width="11px" height="12px" preserveAspectRatio="xMinYMin meet" x="61.5" y="-322.7"/>
<text text-anchor="start" x="85.5" y="-312.8" font-family="Helvetica,sans-Serif" font-size="11.00" fill="#000000">ref_id</text>
<polygon fill="none" stroke="#000000" points="56.5,-283.7 56.5,-305.7 204.5,-305.7 204.5,-283.7 56.5,-283.7"/>
<image xlink:href="../../images/primaryKeys.png" width="11px" height="12px" preserveAspectRatio="xMinYMin meet" x="61.5" y="-300.7"/>
<text text-anchor="start" x="85.5" y="-290.8" font-family="Helvetica,sans-Serif" font-size="11.00" fill="#000000">subgroup_id</text>
<polygon fill="none" stroke="#000000" points="56.5,-264.7 56.5,-283.7 204.5,-283.7 204.5,-264.7 56.5,-264.7"/>
<text text-anchor="start" x="59.5" y="-270.8" font-family="Helvetica,sans-Serif" font-size="11.00" fill="#000000">...</text>
<polygon fill="#ffffff" stroke="transparent" points="56.5,-245.7 56.5,-264.7 106.5,-264.7 106.5,-245.7 56.5,-245.7"/>
<polygon fill="none" stroke="#000000" points="56.5,-245.7 56.5,-264.7 106.5,-264.7 106.5,-245.7 56.5,-245.7"/>
<text text-anchor="start" x="59.5" y="-251.8" font-family="Helvetica,sans-Serif" font-size="11.00" fill="#000000"> &#160;</text>
<polygon fill="#ffffff" stroke="transparent" points="106.5,-245.7 106.5,-264.7 163.5,-264.7 163.5,-245.7 106.5,-245.7"/>
<polygon fill="none" stroke="#000000" points="106.5,-245.7 106.5,-264.7 163.5,-264.7 163.5,-245.7 106.5,-245.7"/>
<text text-anchor="start" x="128.1105" y="-251.8" font-family="Helvetica,sans-Serif" font-size="11.00" fill="#000000">0 rows</text>
<polygon fill="#ffffff" stroke="transparent" points="163.5,-245.7 163.5,-264.7 204.5,-264.7 204.5,-245.7 163.5,-245.7"/>
<polygon fill="none" stroke="#000000" points="163.5,-245.7 163.5,-264.7 204.5,-264.7 204.5,-245.7 163.5,-245.7"/>
<text text-anchor="start" x="185.9053" y="-251.8" font-family="Helvetica,sans-Serif" font-size="11.00" fill="#000000">2 &gt;</text>
</a>
</g>
</g>
<!-- ci_incidence_summary&#45;&gt;ci_subgroup_def -->
<g id="edge6" class="edge">
<title>ci_incidence_summary:w&#45;&gt;ci_subgroup_def:e</title>
<path fill="none" stroke="#000000" d="M289.9521,-298.4216C256.5385,-301.8922 244.438,-316.7 204.5,-316.7"/>
<polygon fill="#000000" stroke="#000000" points="296.5098,-298.0964 304.6784,-301.2956 300.5049,-297.8982 304.5,-297.7 304.5,-297.7 304.5,-297.7 300.5049,-297.8982 304.3216,-294.1044 296.5098,-298.0964 296.5098,-298.0964"/>
<ellipse fill="none" stroke="#000000" cx="293.3138" cy="-298.2549" rx="3.2" ry="3.2"/>
</g>
<!-- ci_incidence_summary&#45;&gt;ci_subgroup_def -->
<g id="edge8" class="edge">
<title>ci_incidence_summary:w&#45;&gt;ci_subgroup_def:e</title>
<path fill="none" stroke="#000000" d="M290.1564,-233.5175C252.4043,-243.847 251.6941,-294.7 204.5,-294.7"/>
<polygon fill="#000000" stroke="#000000" points="296.5635,-232.7057 304.9526,-235.2714 300.5317,-232.2029 304.5,-231.7 304.5,-231.7 304.5,-231.7 300.5317,-232.2029 304.0474,-228.1286 296.5635,-232.7057 296.5635,-232.7057"/>
<ellipse fill="none" stroke="#000000" cx="293.3888" cy="-233.108" rx="3.2" ry="3.2"/>
</g>
<!-- ci_tar_def -->
<g id="node6" class="node">
<title>ci_tar_def</title>
<g id="a_node6"><a xlink:href="../../tables/ci_tar_def.html" xlink:title="ci_tar_def" target="_top">
<polygon fill="#ffffff" stroke="transparent" points="68,-142.2 68,-225.2 193,-225.2 193,-142.2 68,-142.2"/>
<polygon fill="#f5f5f5" stroke="transparent" points="68.5,-201.7 68.5,-224.7 193.5,-224.7 193.5,-201.7 68.5,-201.7"/>
<polygon fill="none" stroke="#000000" points="68.5,-201.7 68.5,-224.7 193.5,-224.7 193.5,-201.7 68.5,-201.7"/>
<text text-anchor="start" x="73.5" y="-210.3" font-family="Helvetica,sans-Serif" font-weight="bold" font-size="11.00" fill="#000000">ci_tar_def</text>
<text text-anchor="start" x="158.5437" y="-209.8" font-family="Helvetica,sans-Serif" font-size="11.00" fill="#000000">[table]</text>
<polygon fill="none" stroke="#000000" points="68.5,-179.7 68.5,-201.7 193.5,-201.7 193.5,-179.7 68.5,-179.7"/>
<image xlink:href="../../images/primaryKeys.png" width="11px" height="12px" preserveAspectRatio="xMinYMin meet" x="73.5" y="-196.7"/>
<text text-anchor="start" x="88.5" y="-186.8" font-family="Helvetica,sans-Serif" font-size="11.00" fill="#000000">ref_id</text>
<polygon fill="none" stroke="#000000" points="68.5,-160.7 68.5,-179.7 193.5,-179.7 193.5,-160.7 68.5,-160.7"/>
<text text-anchor="start" x="71.5" y="-166.8" font-family="Helvetica,sans-Serif" font-size="11.00" fill="#000000">...</text>
<polygon fill="#ffffff" stroke="transparent" points="68.5,-141.7 68.5,-160.7 107.5,-160.7 107.5,-141.7 68.5,-141.7"/>
<polygon fill="none" stroke="#000000" points="68.5,-141.7 68.5,-160.7 107.5,-160.7 107.5,-141.7 68.5,-141.7"/>
<text text-anchor="start" x="71.5" y="-147.8" font-family="Helvetica,sans-Serif" font-size="11.00" fill="#000000"> &#160;</text>
<polygon fill="#ffffff" stroke="transparent" points="107.5,-141.7 107.5,-160.7 158.5,-160.7 158.5,-141.7 107.5,-141.7"/>
<polygon fill="none" stroke="#000000" points="107.5,-141.7 107.5,-160.7 158.5,-160.7 158.5,-141.7 107.5,-141.7"/>
<text text-anchor="start" x="123.1105" y="-147.8" font-family="Helvetica,sans-Serif" font-size="11.00" fill="#000000">0 rows</text>
<polygon fill="#ffffff" stroke="transparent" points="158.5,-141.7 158.5,-160.7 193.5,-160.7 193.5,-141.7 158.5,-141.7"/>
<polygon fill="none" stroke="#000000" points="158.5,-141.7 158.5,-160.7 193.5,-160.7 193.5,-141.7 158.5,-141.7"/>
<text text-anchor="start" x="174.9053" y="-147.8" font-family="Helvetica,sans-Serif" font-size="11.00" fill="#000000">2 &gt;</text>
</a>
</g>
</g>
<!-- ci_incidence_summary&#45;&gt;ci_tar_def -->
<g id="edge7" class="edge">
<title>ci_incidence_summary:w&#45;&gt;ci_tar_def:e</title>
<path fill="none" stroke="#000000" d="M290.4945,-294.2825C274.7204,-284.3534 280.7562,-254.9914 261,-235.7 235.2033,-210.5102 229.5555,-190.7 193.5,-190.7"/>
<polygon fill="#000000" stroke="#000000" points="296.728,-295.8035 303.6466,-301.1974 300.614,-296.7518 304.5,-297.7 304.5,-297.7 304.5,-297.7 300.614,-296.7518 305.3534,-294.2026 296.728,-295.8035 296.728,-295.8035"/>
<ellipse fill="none" stroke="#000000" cx="293.6192" cy="-295.0449" rx="3.2" ry="3.2"/>
</g>
<!-- ci_incidence_summary&#45;&gt;ci_tar_def -->
<g id="edge9" class="edge">
<title>ci_incidence_summary:w&#45;&gt;ci_tar_def:e</title>
<path fill="none" stroke="#000000" d="M289.8783,-209.1105C251.7148,-205.9035 238.272,-190.7 193.5,-190.7"/>
<polygon fill="#000000" stroke="#000000" points="296.5065,-209.3777 304.355,-213.2971 300.5032,-209.5388 304.5,-209.7 304.5,-209.7 304.5,-209.7 300.5032,-209.5388 304.645,-206.1029 296.5065,-209.3777 296.5065,-209.3777"/>
<ellipse fill="none" stroke="#000000" cx="293.3091" cy="-209.2488" rx="3.2" ry="3.2"/>
</g>
<!-- cg_cohort_definition -->
<g id="node7" class="node">
<title>cg_cohort_definition</title>
<g id="a_node7"><a xlink:href="../../tables/cg_cohort_definition.html" xlink:title="cg_cohort_definition" target="_top">
<polygon fill="#ffffff" stroke="transparent" points="43,-38.2 43,-121.2 218,-121.2 218,-38.2 43,-38.2"/>
<polygon fill="#f5f5f5" stroke="transparent" points="43.5,-97.7 43.5,-120.7 218.5,-120.7 218.5,-97.7 43.5,-97.7"/>
<polygon fill="none" stroke="#000000" points="43.5,-97.7 43.5,-120.7 218.5,-120.7 218.5,-97.7 43.5,-97.7"/>
<text text-anchor="start" x="48.5" y="-106.3" font-family="Helvetica,sans-Serif" font-weight="bold" font-size="11.00" fill="#000000">cg_cohort_definition</text>
<text text-anchor="start" x="184.0219" y="-105.8" font-family="Helvetica,sans-Serif" font-size="11.00" fill="#000000">[table]</text>
<polygon fill="none" stroke="#000000" points="43.5,-75.7 43.5,-97.7 218.5,-97.7 218.5,-75.7 43.5,-75.7"/>
<image xlink:href="../../images/primaryKeys.png" width="11px" height="12px" preserveAspectRatio="xMinYMin meet" x="48.5" y="-92.7"/>
<text text-anchor="start" x="72.5" y="-82.8" font-family="Helvetica,sans-Serif" font-size="11.00" fill="#000000">cohort_definition_id</text>
<polygon fill="none" stroke="#000000" points="43.5,-56.7 43.5,-75.7 218.5,-75.7 218.5,-56.7 43.5,-56.7"/>
<text text-anchor="start" x="46.5" y="-62.8" font-family="Helvetica,sans-Serif" font-size="11.00" fill="#000000">...</text>
<polygon fill="#ffffff" stroke="transparent" points="43.5,-37.7 43.5,-56.7 104.5,-56.7 104.5,-37.7 43.5,-37.7"/>
<polygon fill="none" stroke="#000000" points="43.5,-37.7 43.5,-56.7 104.5,-56.7 104.5,-37.7 43.5,-37.7"/>
<text text-anchor="start" x="46.5" y="-43.8" font-family="Helvetica,sans-Serif" font-size="11.00" fill="#000000"> &#160;</text>
<polygon fill="#ffffff" stroke="transparent" points="104.5,-37.7 104.5,-56.7 166.5,-56.7 166.5,-37.7 104.5,-37.7"/>
<polygon fill="none" stroke="#000000" points="104.5,-37.7 104.5,-56.7 166.5,-56.7 166.5,-37.7 104.5,-37.7"/>
<text text-anchor="start" x="131.1105" y="-43.8" font-family="Helvetica,sans-Serif" font-size="11.00" fill="#000000">0 rows</text>
<polygon fill="#ffffff" stroke="transparent" points="166.5,-37.7 166.5,-56.7 218.5,-56.7 218.5,-37.7 166.5,-37.7"/>
<polygon fill="none" stroke="#000000" points="166.5,-37.7 166.5,-56.7 218.5,-56.7 218.5,-37.7 166.5,-37.7"/>
<text text-anchor="start" x="193.7904" y="-43.8" font-family="Helvetica,sans-Serif" font-size="11.00" fill="#000000">17 &gt;</text>
</a>
</g>
</g>
<!-- ci_incidence_summary&#45;&gt;cg_cohort_definition -->
<g id="edge10" class="edge">
<title>ci_incidence_summary:w&#45;&gt;cg_cohort_definition:e</title>
<path fill="none" stroke="#000000" d="M290.1015,-184.3293C275.2071,-175.4827 277.5043,-150.9549 261,-131.7 243.0968,-110.813 246.0098,-86.7 218.5,-86.7"/>
<polygon fill="#000000" stroke="#000000" points="296.7106,-185.8765 303.6794,-191.2052 300.6053,-186.7882 304.5,-187.7 304.5,-187.7 304.5,-187.7 300.6053,-186.7882 305.3206,-184.1948 296.7106,-185.8765 296.7106,-185.8765"/>
<ellipse fill="none" stroke="#000000" cx="293.5948" cy="-185.147" rx="3.2" ry="3.2"/>
</g>
</g>
</svg>
