<?xml version="1.0" encoding="UTF-8" standalone="no"?>
<!DOCTYPE svg PUBLIC "-//W3C//DTD SVG 1.1//EN"
 "http://www.w3.org/Graphics/SVG/1.1/DTD/svg11.dtd">
<!-- Generated by graphviz version 2.40.1 (20161225.0304)
 -->
<!-- Title: oneDegreeRelationshipsDiagram Pages: 1 -->
<svg width="301pt" height="558pt"
 viewBox="0.00 0.00 301.00 558.20" xmlns="http://www.w3.org/2000/svg" xmlns:xlink="http://www.w3.org/1999/xlink">
<g id="graph0" class="graph" transform="scale(1 1) rotate(0) translate(4 554.2)">
<title>oneDegreeRelationshipsDiagram</title>
<polygon fill="#ffffff" stroke="transparent" points="-4,4 -4,-554.2 297,-554.2 297,4 -4,4"/>
<text text-anchor="middle" x="72.4936" y="-7.3" font-family="Helvetica,sans-Serif" font-size="11.00" fill="#000000">Generated by SchemaSpy</text>
<!-- ci_incidence_summary -->
<g id="node1" class="node">
<title>ci_incidence_summary</title>
<g id="a_node1"><a xlink:href="../../tables/ci_incidence_summary.html" xlink:title="ci_incidence_summary" target="_top">
<polygon fill="#ffffff" stroke="transparent" points="8,-38.2 8,-546.2 285,-546.2 285,-38.2 8,-38.2"/>
<polygon fill="#f5f5f5" stroke="transparent" points="10.5,-521.2 10.5,-544.2 283.5,-544.2 283.5,-521.2 10.5,-521.2"/>
<polygon fill="none" stroke="#000000" points="10.5,-521.2 10.5,-544.2 283.5,-544.2 283.5,-521.2 10.5,-521.2"/>
<text text-anchor="start" x="15.5" y="-529.8" font-family="Helvetica,sans-Serif" font-weight="bold" font-size="11.00" fill="#000000">ci_incidence_summary</text>
<text text-anchor="start" x="248.5437" y="-529.3" font-family="Helvetica,sans-Serif" font-size="11.00" fill="#000000">[table]</text>
<polygon fill="none" stroke="#000000" points="10.5,-499.2 10.5,-521.2 221.5,-521.2 221.5,-499.2 10.5,-499.2"/>
<text text-anchor="start" x="30.5" y="-506.3" font-family="Helvetica,sans-Serif" font-size="11.00" fill="#000000">age_group_id</text>
<polygon fill="none" stroke="#000000" points="221.5,-499.2 221.5,-521.2 283.5,-521.2 283.5,-499.2 221.5,-499.2"/>
<text text-anchor="start" x="224.378" y="-506.9" font-family="Helvetica,sans-Serif" font-size="11.00" fill="#000000">unknown[0]</text>
<polygon fill="none" stroke="#000000" points="10.5,-477.2 10.5,-499.2 221.5,-499.2 221.5,-477.2 10.5,-477.2"/>
<text text-anchor="start" x="30.5" y="-484.3" font-family="Helvetica,sans-Serif" font-size="11.00" fill="#000000">database_id</text>
<polygon fill="none" stroke="#000000" points="221.5,-477.2 221.5,-499.2 283.5,-499.2 283.5,-477.2 221.5,-477.2"/>
<text text-anchor="start" x="224.378" y="-484.9" font-family="Helvetica,sans-Serif" font-size="11.00" fill="#000000">unknown[0]</text>
<polygon fill="none" stroke="#000000" points="10.5,-455.2 10.5,-477.2 221.5,-477.2 221.5,-455.2 10.5,-455.2"/>
<text text-anchor="start" x="30.5" y="-462.3" font-family="Helvetica,sans-Serif" font-size="11.00" fill="#000000">gender_id</text>
<polygon fill="none" stroke="#000000" points="221.5,-455.2 221.5,-477.2 283.5,-477.2 283.5,-455.2 221.5,-455.2"/>
<text text-anchor="start" x="224.378" y="-462.9" font-family="Helvetica,sans-Serif" font-size="11.00" fill="#000000">unknown[0]</text>
<polygon fill="none" stroke="#000000" points="10.5,-433.2 10.5,-455.2 221.5,-455.2 221.5,-433.2 10.5,-433.2"/>
<text text-anchor="start" x="30.5" y="-440.3" font-family="Helvetica,sans-Serif" font-size="11.00" fill="#000000">gender_name</text>
<polygon fill="none" stroke="#000000" points="221.5,-433.2 221.5,-455.2 283.5,-455.2 283.5,-433.2 221.5,-433.2"/>
<text text-anchor="start" x="224.378" y="-440.9" font-family="Helvetica,sans-Serif" font-size="11.00" fill="#000000">unknown[0]</text>
<polygon fill="none" stroke="#000000" points="10.5,-411.2 10.5,-433.2 221.5,-433.2 221.5,-411.2 10.5,-411.2"/>
<text text-anchor="start" x="30.5" y="-418.3" font-family="Helvetica,sans-Serif" font-size="11.00" fill="#000000">incidence_proportion_p100p</text>
<polygon fill="none" stroke="#000000" points="221.5,-411.2 221.5,-433.2 283.5,-433.2 283.5,-411.2 221.5,-411.2"/>
<text text-anchor="start" x="224.378" y="-418.9" font-family="Helvetica,sans-Serif" font-size="11.00" fill="#000000">unknown[0]</text>
<polygon fill="none" stroke="#000000" points="10.5,-389.2 10.5,-411.2 221.5,-411.2 221.5,-389.2 10.5,-389.2"/>
<text text-anchor="start" x="30.5" y="-396.3" font-family="Helvetica,sans-Serif" font-size="11.00" fill="#000000">incidence_rate_p100py</text>
<polygon fill="none" stroke="#000000" points="221.5,-389.2 221.5,-411.2 283.5,-411.2 283.5,-389.2 221.5,-389.2"/>
<text text-anchor="start" x="224.378" y="-396.9" font-family="Helvetica,sans-Serif" font-size="11.00" fill="#000000">unknown[0]</text>
<polygon fill="none" stroke="#000000" points="10.5,-367.2 10.5,-389.2 221.5,-389.2 221.5,-367.2 10.5,-367.2"/>
<text text-anchor="start" x="30.5" y="-374.3" font-family="Helvetica,sans-Serif" font-size="11.00" fill="#000000">outcome_id</text>
<polygon fill="none" stroke="#000000" points="221.5,-367.2 221.5,-389.2 283.5,-389.2 283.5,-367.2 221.5,-367.2"/>
<text text-anchor="start" x="224.378" y="-374.9" font-family="Helvetica,sans-Serif" font-size="11.00" fill="#000000">unknown[0]</text>
<polygon fill="none" stroke="#000000" points="10.5,-345.2 10.5,-367.2 221.5,-367.2 221.5,-345.2 10.5,-345.2"/>
<text text-anchor="start" x="30.5" y="-352.3" font-family="Helvetica,sans-Serif" font-size="11.00" fill="#000000">outcomes</text>
<polygon fill="none" stroke="#000000" points="221.5,-345.2 221.5,-367.2 283.5,-367.2 283.5,-345.2 221.5,-345.2"/>
<text text-anchor="start" x="224.378" y="-352.9" font-family="Helvetica,sans-Serif" font-size="11.00" fill="#000000">unknown[0]</text>
<polygon fill="none" stroke="#000000" points="10.5,-323.2 10.5,-345.2 221.5,-345.2 221.5,-323.2 10.5,-323.2"/>
<text text-anchor="start" x="30.5" y="-330.3" font-family="Helvetica,sans-Serif" font-size="11.00" fill="#000000">outcomes_pe</text>
<polygon fill="none" stroke="#000000" points="221.5,-323.2 221.5,-345.2 283.5,-345.2 283.5,-323.2 221.5,-323.2"/>
<text text-anchor="start" x="224.378" y="-330.9" font-family="Helvetica,sans-Serif" font-size="11.00" fill="#000000">unknown[0]</text>
<polygon fill="none" stroke="#000000" points="10.5,-301.2 10.5,-323.2 221.5,-323.2 221.5,-301.2 10.5,-301.2"/>
<text text-anchor="start" x="30.5" y="-308.3" font-family="Helvetica,sans-Serif" font-size="11.00" fill="#000000">person_days</text>
<polygon fill="none" stroke="#000000" points="221.5,-301.2 221.5,-323.2 283.5,-323.2 283.5,-301.2 221.5,-301.2"/>
<text text-anchor="start" x="224.378" y="-308.9" font-family="Helvetica,sans-Serif" font-size="11.00" fill="#000000">unknown[0]</text>
<polygon fill="none" stroke="#000000" points="10.5,-279.2 10.5,-301.2 221.5,-301.2 221.5,-279.2 10.5,-279.2"/>
<text text-anchor="start" x="30.5" y="-286.3" font-family="Helvetica,sans-Serif" font-size="11.00" fill="#000000">person_days_pe</text>
<polygon fill="none" stroke="#000000" points="221.5,-279.2 221.5,-301.2 283.5,-301.2 283.5,-279.2 221.5,-279.2"/>
<text text-anchor="start" x="224.378" y="-286.9" font-family="Helvetica,sans-Serif" font-size="11.00" fill="#000000">unknown[0]</text>
<polygon fill="none" stroke="#000000" points="10.5,-257.2 10.5,-279.2 221.5,-279.2 221.5,-257.2 10.5,-257.2"/>
<text text-anchor="start" x="30.5" y="-264.3" font-family="Helvetica,sans-Serif" font-size="11.00" fill="#000000">person_outcomes</text>
<polygon fill="none" stroke="#000000" points="221.5,-257.2 221.5,-279.2 283.5,-279.2 283.5,-257.2 221.5,-257.2"/>
<text text-anchor="start" x="224.378" y="-264.9" font-family="Helvetica,sans-Serif" font-size="11.00" fill="#000000">unknown[0]</text>
<polygon fill="none" stroke="#000000" points="10.5,-235.2 10.5,-257.2 221.5,-257.2 221.5,-235.2 10.5,-235.2"/>
<text text-anchor="start" x="30.5" y="-242.3" font-family="Helvetica,sans-Serif" font-size="11.00" fill="#000000">person_outcomes_pe</text>
<polygon fill="none" stroke="#000000" points="221.5,-235.2 221.5,-257.2 283.5,-257.2 283.5,-235.2 221.5,-235.2"/>
<text text-anchor="start" x="224.378" y="-242.9" font-family="Helvetica,sans-Serif" font-size="11.00" fill="#000000">unknown[0]</text>
<polygon fill="none" stroke="#000000" points="10.5,-213.2 10.5,-235.2 221.5,-235.2 221.5,-213.2 10.5,-213.2"/>
<text text-anchor="start" x="30.5" y="-220.3" font-family="Helvetica,sans-Serif" font-size="11.00" fill="#000000">persons_at_risk</text>
<polygon fill="none" stroke="#000000" points="221.5,-213.2 221.5,-235.2 283.5,-235.2 283.5,-213.2 221.5,-213.2"/>
<text text-anchor="start" x="224.378" y="-220.9" font-family="Helvetica,sans-Serif" font-size="11.00" fill="#000000">unknown[0]</text>
<polygon fill="none" stroke="#000000" points="10.5,-191.2 10.5,-213.2 221.5,-213.2 221.5,-191.2 10.5,-191.2"/>
<text text-anchor="start" x="30.5" y="-198.3" font-family="Helvetica,sans-Serif" font-size="11.00" fill="#000000">persons_at_risk_pe</text>
<polygon fill="none" stroke="#000000" points="221.5,-191.2 221.5,-213.2 283.5,-213.2 283.5,-191.2 221.5,-191.2"/>
<text text-anchor="start" x="224.378" y="-198.9" font-family="Helvetica,sans-Serif" font-size="11.00" fill="#000000">unknown[0]</text>
<polygon fill="none" stroke="#000000" points="10.5,-169.2 10.5,-191.2 221.5,-191.2 221.5,-169.2 10.5,-169.2"/>
<text text-anchor="start" x="30.5" y="-176.3" font-family="Helvetica,sans-Serif" font-size="11.00" fill="#000000">ref_id</text>
<polygon fill="none" stroke="#000000" points="221.5,-169.2 221.5,-191.2 283.5,-191.2 283.5,-169.2 221.5,-169.2"/>
<text text-anchor="start" x="224.378" y="-176.9" font-family="Helvetica,sans-Serif" font-size="11.00" fill="#000000">unknown[0]</text>
<polygon fill="none" stroke="#000000" points="10.5,-147.2 10.5,-169.2 221.5,-169.2 221.5,-147.2 10.5,-147.2"/>
<text text-anchor="start" x="30.5" y="-154.3" font-family="Helvetica,sans-Serif" font-size="11.00" fill="#000000">source_name</text>
<polygon fill="none" stroke="#000000" points="221.5,-147.2 221.5,-169.2 283.5,-169.2 283.5,-147.2 221.5,-147.2"/>
<text text-anchor="start" x="224.378" y="-154.9" font-family="Helvetica,sans-Serif" font-size="11.00" fill="#000000">unknown[0]</text>
<polygon fill="none" stroke="#000000" points="10.5,-125.2 10.5,-147.2 221.5,-147.2 221.5,-125.2 10.5,-125.2"/>
<text text-anchor="start" x="30.5" y="-132.3" font-family="Helvetica,sans-Serif" font-size="11.00" fill="#000000">start_year</text>
<polygon fill="none" stroke="#000000" points="221.5,-125.2 221.5,-147.2 283.5,-147.2 283.5,-125.2 221.5,-125.2"/>
<text text-anchor="start" x="224.378" y="-132.9" font-family="Helvetica,sans-Serif" font-size="11.00" fill="#000000">unknown[0]</text>
<polygon fill="none" stroke="#000000" points="10.5,-103.2 10.5,-125.2 221.5,-125.2 221.5,-103.2 10.5,-103.2"/>
<text text-anchor="start" x="30.5" y="-110.3" font-family="Helvetica,sans-Serif" font-size="11.00" fill="#000000">subgroup_id</text>
<polygon fill="none" stroke="#000000" points="221.5,-103.2 221.5,-125.2 283.5,-125.2 283.5,-103.2 221.5,-103.2"/>
<text text-anchor="start" x="224.378" y="-110.9" font-family="Helvetica,sans-Serif" font-size="11.00" fill="#000000">unknown[0]</text>
<polygon fill="none" stroke="#000000" points="10.5,-81.2 10.5,-103.2 221.5,-103.2 221.5,-81.2 10.5,-81.2"/>
<text text-anchor="start" x="30.5" y="-88.3" font-family="Helvetica,sans-Serif" font-size="11.00" fill="#000000">tar_id</text>
<polygon fill="none" stroke="#000000" points="221.5,-81.2 221.5,-103.2 283.5,-103.2 283.5,-81.2 221.5,-81.2"/>
<text text-anchor="start" x="224.378" y="-88.9" font-family="Helvetica,sans-Serif" font-size="11.00" fill="#000000">unknown[0]</text>
<polygon fill="none" stroke="#000000" points="10.5,-59.2 10.5,-81.2 221.5,-81.2 221.5,-59.2 10.5,-59.2"/>
<text text-anchor="start" x="30.5" y="-66.3" font-family="Helvetica,sans-Serif" font-size="11.00" fill="#000000">target_cohort_definition_id</text>
<polygon fill="none" stroke="#000000" points="221.5,-59.2 221.5,-81.2 283.5,-81.2 283.5,-59.2 221.5,-59.2"/>
<text text-anchor="start" x="224.378" y="-66.9" font-family="Helvetica,sans-Serif" font-size="11.00" fill="#000000">unknown[0]</text>
<polygon fill="#ffffff" stroke="transparent" points="10.5,-40.2 10.5,-59.2 107.5,-59.2 107.5,-40.2 10.5,-40.2"/>
<polygon fill="none" stroke="#000000" points="10.5,-40.2 10.5,-59.2 107.5,-59.2 107.5,-40.2 10.5,-40.2"/>
<text text-anchor="start" x="13.5" y="-46.3" font-family="Helvetica,sans-Serif" font-size="11.00" fill="#000000">&lt; 0</text>
<polygon fill="#ffffff" stroke="transparent" points="107.5,-40.2 107.5,-59.2 221.5,-59.2 221.5,-40.2 107.5,-40.2"/>
<polygon fill="none" stroke="#000000" points="107.5,-40.2 107.5,-59.2 221.5,-59.2 221.5,-40.2 107.5,-40.2"/>
<text text-anchor="start" x="186.1105" y="-46.3" font-family="Helvetica,sans-Serif" font-size="11.00" fill="#000000">0 rows</text>
<polygon fill="#ffffff" stroke="transparent" points="221.5,-40.2 221.5,-59.2 283.5,-59.2 283.5,-40.2 221.5,-40.2"/>
<polygon fill="none" stroke="#000000" points="221.5,-40.2 221.5,-59.2 283.5,-59.2 283.5,-40.2 221.5,-40.2"/>
<text text-anchor="start" x="264.9053" y="-46.3" font-family="Helvetica,sans-Serif" font-size="11.00" fill="#000000">0 &gt;</text>
<polygon fill="none" stroke="#000000" stroke-width="2" points="9,-39.2 9,-545.2 284,-545.2 284,-39.2 9,-39.2"/>
</a>
</g>
</g>
</g>
</svg>
