<?xml version="1.0" encoding="UTF-8" standalone="no"?>
<!DOCTYPE svg PUBLIC "-//W3C//DTD SVG 1.1//EN"
 "http://www.w3.org/Graphics/SVG/1.1/DTD/svg11.dtd">
<!-- Generated by graphviz version 2.40.1 (20161225.0304)
 -->
<!-- Title: twoDegreesRelationshipsDiagram Pages: 1 -->
<svg width="571pt" height="639pt"
 viewBox="0.00 0.00 571.00 639.20" xmlns="http://www.w3.org/2000/svg" xmlns:xlink="http://www.w3.org/1999/xlink">
<g id="graph0" class="graph" transform="scale(1 1) rotate(0) translate(4 635.2)">
<title>twoDegreesRelationshipsDiagram</title>
<polygon fill="#ffffff" stroke="transparent" points="-4,4 -4,-635.2 567,-635.2 567,4 -4,4"/>
<text text-anchor="middle" x="72.4936" y="-7.3" font-family="Helvetica,sans-Serif" font-size="11.00" fill="#000000">Generated by SchemaSpy</text>
<!-- ci_incidence_summary -->
<g id="node1" class="node">
<title>ci_incidence_summary</title>
<g id="a_node1"><a xlink:href="../../tables/ci_incidence_summary.html" xlink:title="ci_incidence_summary" target="_top">
<polygon fill="#ffffff" stroke="transparent" points="344,-169.2 344,-384.2 555,-384.2 555,-169.2 344,-169.2"/>
<polygon fill="#f5f5f5" stroke="transparent" points="344.5,-360.7 344.5,-383.7 555.5,-383.7 555.5,-360.7 344.5,-360.7"/>
<polygon fill="none" stroke="#000000" points="344.5,-360.7 344.5,-383.7 555.5,-383.7 555.5,-360.7 344.5,-360.7"/>
<text text-anchor="start" x="349.5" y="-369.3" font-family="Helvetica,sans-Serif" font-weight="bold" font-size="11.00" fill="#000000">ci_incidence_summary</text>
<text text-anchor="start" x="520.5437" y="-368.8" font-family="Helvetica,sans-Serif" font-size="11.00" fill="#000000">[table]</text>
<polygon fill="none" stroke="#000000" points="344.5,-338.7 344.5,-360.7 555.5,-360.7 555.5,-338.7 344.5,-338.7"/>
<image xlink:href="../../images/foreignKeys.png" width="11px" height="12px" preserveAspectRatio="xMinYMin meet" x="349.5" y="-355.7"/>
<text text-anchor="start" x="364.5" y="-345.8" font-family="Helvetica,sans-Serif" font-size="11.00" fill="#000000">age_group_id</text>
<polygon fill="none" stroke="#000000" points="344.5,-316.7 344.5,-338.7 555.5,-338.7 555.5,-316.7 344.5,-316.7"/>
<image xlink:href="../../images/foreignKeys.png" width="11px" height="12px" preserveAspectRatio="xMinYMin meet" x="349.5" y="-333.7"/>
<text text-anchor="start" x="364.5" y="-323.8" font-family="Helvetica,sans-Serif" font-size="11.00" fill="#000000">database_id</text>
<polygon fill="none" stroke="#000000" points="344.5,-294.7 344.5,-316.7 555.5,-316.7 555.5,-294.7 344.5,-294.7"/>
<image xlink:href="../../images/foreignKeys.png" width="11px" height="12px" preserveAspectRatio="xMinYMin meet" x="349.5" y="-311.7"/>
<text text-anchor="start" x="364.5" y="-301.8" font-family="Helvetica,sans-Serif" font-size="11.00" fill="#000000">outcome_id</text>
<polygon fill="none" stroke="#000000" points="344.5,-272.7 344.5,-294.7 555.5,-294.7 555.5,-272.7 344.5,-272.7"/>
<image xlink:href="../../images/foreignKeys.png" width="11px" height="12px" preserveAspectRatio="xMinYMin meet" x="349.5" y="-289.7"/>
<text text-anchor="start" x="364.5" y="-279.8" font-family="Helvetica,sans-Serif" font-size="11.00" fill="#000000">ref_id</text>
<polygon fill="none" stroke="#000000" points="344.5,-250.7 344.5,-272.7 555.5,-272.7 555.5,-250.7 344.5,-250.7"/>
<image xlink:href="../../images/foreignKeys.png" width="11px" height="12px" preserveAspectRatio="xMinYMin meet" x="349.5" y="-267.7"/>
<text text-anchor="start" x="364.5" y="-257.8" font-family="Helvetica,sans-Serif" font-size="11.00" fill="#000000">subgroup_id</text>
<polygon fill="none" stroke="#000000" points="344.5,-228.7 344.5,-250.7 555.5,-250.7 555.5,-228.7 344.5,-228.7"/>
<image xlink:href="../../images/foreignKeys.png" width="11px" height="12px" preserveAspectRatio="xMinYMin meet" x="349.5" y="-245.7"/>
<text text-anchor="start" x="364.5" y="-235.8" font-family="Helvetica,sans-Serif" font-size="11.00" fill="#000000">tar_id</text>
<polygon fill="none" stroke="#000000" points="344.5,-206.7 344.5,-228.7 555.5,-228.7 555.5,-206.7 344.5,-206.7"/>
<image xlink:href="../../images/foreignKeys.png" width="11px" height="12px" preserveAspectRatio="xMinYMin meet" x="349.5" y="-223.7"/>
<text text-anchor="start" x="364.5" y="-213.8" font-family="Helvetica,sans-Serif" font-size="11.00" fill="#000000">target_cohort_definition_id</text>
<polygon fill="none" stroke="#000000" points="344.5,-187.7 344.5,-206.7 555.5,-206.7 555.5,-187.7 344.5,-187.7"/>
<text text-anchor="start" x="347.5" y="-193.8" font-family="Helvetica,sans-Serif" font-size="11.00" fill="#000000">...</text>
<polygon fill="#ffffff" stroke="transparent" points="344.5,-168.7 344.5,-187.7 438.5,-187.7 438.5,-168.7 344.5,-168.7"/>
<polygon fill="none" stroke="#000000" points="344.5,-168.7 344.5,-187.7 438.5,-187.7 438.5,-168.7 344.5,-168.7"/>
<text text-anchor="start" x="347.5" y="-174.8" font-family="Helvetica,sans-Serif" font-size="11.00" fill="#000000">&lt; 10</text>
<polygon fill="#ffffff" stroke="transparent" points="438.5,-168.7 438.5,-187.7 509.5,-187.7 509.5,-168.7 438.5,-168.7"/>
<polygon fill="none" stroke="#000000" points="438.5,-168.7 438.5,-187.7 509.5,-187.7 509.5,-168.7 438.5,-168.7"/>
<text text-anchor="start" x="474.1105" y="-174.8" font-family="Helvetica,sans-Serif" font-size="11.00" fill="#000000">0 rows</text>
<polygon fill="#ffffff" stroke="transparent" points="509.5,-168.7 509.5,-187.7 555.5,-187.7 555.5,-168.7 509.5,-168.7"/>
<polygon fill="none" stroke="#000000" points="509.5,-168.7 509.5,-187.7 555.5,-187.7 555.5,-168.7 509.5,-168.7"/>
<text text-anchor="start" x="546.3862" y="-174.8" font-family="Helvetica,sans-Serif" font-size="11.00" fill="#000000"> &#160;</text>
</a>
</g>
</g>
<!-- ci_age_group_def -->
<g id="node2" class="node">
<title>ci_age_group_def</title>
<g id="a_node2"><a xlink:href="../../tables/ci_age_group_def.html" xlink:title="ci_age_group_def" target="_top">
<polygon fill="#ffffff" stroke="transparent" points="74.5,-484.2 74.5,-545.2 228.5,-545.2 228.5,-484.2 74.5,-484.2"/>
<polygon fill="#f5f5f5" stroke="transparent" points="74.5,-521.7 74.5,-544.7 228.5,-544.7 228.5,-521.7 74.5,-521.7"/>
<polygon fill="none" stroke="#000000" points="74.5,-521.7 74.5,-544.7 228.5,-544.7 228.5,-521.7 74.5,-521.7"/>
<text text-anchor="start" x="79.5" y="-530.3" font-family="Helvetica,sans-Serif" font-weight="bold" font-size="11.00" fill="#000000">ci_age_group_def</text>
<text text-anchor="start" x="194.0219" y="-529.8" font-family="Helvetica,sans-Serif" font-size="11.00" fill="#000000">[table]</text>
<polygon fill="none" stroke="#000000" points="74.5,-502.7 74.5,-521.7 228.5,-521.7 228.5,-502.7 74.5,-502.7"/>
<text text-anchor="start" x="77.5" y="-508.8" font-family="Helvetica,sans-Serif" font-size="11.00" fill="#000000">...</text>
<polygon fill="#ffffff" stroke="transparent" points="74.5,-483.7 74.5,-502.7 127.5,-502.7 127.5,-483.7 74.5,-483.7"/>
<polygon fill="none" stroke="#000000" points="74.5,-483.7 74.5,-502.7 127.5,-502.7 127.5,-483.7 74.5,-483.7"/>
<text text-anchor="start" x="77.5" y="-489.8" font-family="Helvetica,sans-Serif" font-size="11.00" fill="#000000"> &#160;</text>
<polygon fill="#ffffff" stroke="transparent" points="127.5,-483.7 127.5,-502.7 186.5,-502.7 186.5,-483.7 127.5,-483.7"/>
<polygon fill="none" stroke="#000000" points="127.5,-483.7 127.5,-502.7 186.5,-502.7 186.5,-483.7 127.5,-483.7"/>
<text text-anchor="start" x="151.1105" y="-489.8" font-family="Helvetica,sans-Serif" font-size="11.00" fill="#000000">0 rows</text>
<polygon fill="#ffffff" stroke="transparent" points="186.5,-483.7 186.5,-502.7 228.5,-502.7 228.5,-483.7 186.5,-483.7"/>
<polygon fill="none" stroke="#000000" points="186.5,-483.7 186.5,-502.7 228.5,-502.7 228.5,-483.7 186.5,-483.7"/>
<text text-anchor="start" x="209.9053" y="-489.8" font-family="Helvetica,sans-Serif" font-size="11.00" fill="#000000">2 &gt;</text>
</a>
</g>
</g>
<!-- ci_incidence_summary&#45;&gt;ci_age_group_def -->
<g id="edge1" class="edge">
<title>ci_incidence_summary:w&#45;&gt;ci_age_group_def:e</title>
<path fill="none" stroke="#000000" d="M330.0642,-352.0531C296.5096,-365.5726 337.0757,-434.139 303,-473.7 278.7422,-501.8627 265.6696,-511.7 228.5,-511.7"/>
<polygon fill="#000000" stroke="#000000" points="336.6042,-350.9871 345.0792,-353.2531 340.5521,-350.3436 344.5,-349.7 344.5,-349.7 344.5,-349.7 340.5521,-350.3436 343.9208,-346.1469 336.6042,-350.9871 336.6042,-350.9871"/>
<ellipse fill="none" stroke="#000000" cx="333.4459" cy="-351.502" rx="3.2" ry="3.2"/>
</g>
<!-- ci_incidence_summary&#45;&gt;ci_age_group_def -->
<g id="edge4" class="edge">
<title>ci_incidence_summary:w&#45;&gt;ci_age_group_def:e</title>
<path fill="none" stroke="#000000" d="M329.9925,-285.1682C270.0375,-299.1495 352.3929,-409.6736 303,-473.7 280.2964,-503.13 265.6696,-511.7 228.5,-511.7"/>
<polygon fill="#000000" stroke="#000000" points="336.5407,-284.5056 344.8625,-287.2817 340.5203,-284.1028 344.5,-283.7 344.5,-283.7 344.5,-283.7 340.5203,-284.1028 344.1375,-280.1183 336.5407,-284.5056 336.5407,-284.5056"/>
<ellipse fill="none" stroke="#000000" cx="333.3569" cy="-284.8278" rx="3.2" ry="3.2"/>
</g>
<!-- database_meta_data -->
<g id="node3" class="node">
<title>database_meta_data</title>
<g id="a_node3"><a xlink:href="../../tables/database_meta_data.html" xlink:title="database_meta_data" target="_top">
<polygon fill="#ffffff" stroke="transparent" points="62.5,-566.2 62.5,-627.2 240.5,-627.2 240.5,-566.2 62.5,-566.2"/>
<polygon fill="#f5f5f5" stroke="transparent" points="62.5,-603.7 62.5,-626.7 240.5,-626.7 240.5,-603.7 62.5,-603.7"/>
<polygon fill="none" stroke="#000000" points="62.5,-603.7 62.5,-626.7 240.5,-626.7 240.5,-603.7 62.5,-603.7"/>
<text text-anchor="start" x="67.5" y="-612.3" font-family="Helvetica,sans-Serif" font-weight="bold" font-size="11.00" fill="#000000">database_meta_data</text>
<text text-anchor="start" x="206.0219" y="-611.8" font-family="Helvetica,sans-Serif" font-size="11.00" fill="#000000">[table]</text>
<polygon fill="none" stroke="#000000" points="62.5,-584.7 62.5,-603.7 240.5,-603.7 240.5,-584.7 62.5,-584.7"/>
<text text-anchor="start" x="65.5" y="-590.8" font-family="Helvetica,sans-Serif" font-size="11.00" fill="#000000">...</text>
<polygon fill="#ffffff" stroke="transparent" points="62.5,-565.7 62.5,-584.7 129.5,-584.7 129.5,-565.7 62.5,-565.7"/>
<polygon fill="none" stroke="#000000" points="62.5,-565.7 62.5,-584.7 129.5,-584.7 129.5,-565.7 62.5,-565.7"/>
<text text-anchor="start" x="65.5" y="-571.8" font-family="Helvetica,sans-Serif" font-size="11.00" fill="#000000">&lt; 1</text>
<polygon fill="#ffffff" stroke="transparent" points="129.5,-565.7 129.5,-584.7 190.5,-584.7 190.5,-565.7 129.5,-565.7"/>
<polygon fill="none" stroke="#000000" points="129.5,-565.7 129.5,-584.7 190.5,-584.7 190.5,-565.7 129.5,-565.7"/>
<text text-anchor="start" x="155.1105" y="-571.8" font-family="Helvetica,sans-Serif" font-size="11.00" fill="#000000">0 rows</text>
<polygon fill="#ffffff" stroke="transparent" points="190.5,-565.7 190.5,-584.7 240.5,-584.7 240.5,-565.7 190.5,-565.7"/>
<polygon fill="none" stroke="#000000" points="190.5,-565.7 190.5,-584.7 240.5,-584.7 240.5,-565.7 190.5,-565.7"/>
<text text-anchor="start" x="215.7904" y="-571.8" font-family="Helvetica,sans-Serif" font-size="11.00" fill="#000000">17 &gt;</text>
</a>
</g>
</g>
<!-- ci_incidence_summary&#45;&gt;database_meta_data -->
<g id="edge2" class="edge">
<title>ci_incidence_summary:w&#45;&gt;database_meta_data:e</title>
<path fill="none" stroke="#000000" d="M331.0447,-333.5068C300.504,-365.25 329.0984,-517.7382 303,-555.7 284.5828,-582.489 273.0091,-593.7 240.5,-593.7"/>
<polygon fill="#000000" stroke="#000000" points="337.1548,-330.8699 345.9265,-331.0053 340.8274,-329.285 344.5,-327.7 344.5,-327.7 344.5,-327.7 340.8274,-329.285 343.0735,-324.3947 337.1548,-330.8699 337.1548,-330.8699"/>
<ellipse fill="none" stroke="#000000" cx="334.2167" cy="-332.1379" rx="3.2" ry="3.2"/>
</g>
<!-- ci_outcome_def -->
<g id="node4" class="node">
<title>ci_outcome_def</title>
<g id="a_node4"><a xlink:href="../../tables/ci_outcome_def.html" xlink:title="ci_outcome_def" target="_top">
<polygon fill="#ffffff" stroke="transparent" points="8,-284.7 8,-462.7 295,-462.7 295,-284.7 8,-284.7"/>
<polygon fill="#f5f5f5" stroke="transparent" points="10.5,-437.7 10.5,-460.7 293.5,-460.7 293.5,-437.7 10.5,-437.7"/>
<polygon fill="none" stroke="#000000" points="10.5,-437.7 10.5,-460.7 293.5,-460.7 293.5,-437.7 10.5,-437.7"/>
<text text-anchor="start" x="15.5" y="-446.3" font-family="Helvetica,sans-Serif" font-weight="bold" font-size="11.00" fill="#000000">ci_outcome_def</text>
<text text-anchor="start" x="258.5437" y="-445.8" font-family="Helvetica,sans-Serif" font-size="11.00" fill="#000000">[table]</text>
<polygon fill="none" stroke="#000000" points="10.5,-415.7 10.5,-437.7 231.5,-437.7 231.5,-415.7 10.5,-415.7"/>
<text text-anchor="start" x="30.5" y="-422.8" font-family="Helvetica,sans-Serif" font-size="11.00" fill="#000000">clean_window</text>
<polygon fill="none" stroke="#000000" points="231.5,-415.7 231.5,-437.7 293.5,-437.7 293.5,-415.7 231.5,-415.7"/>
<text text-anchor="start" x="234.378" y="-423.4" font-family="Helvetica,sans-Serif" font-size="11.00" fill="#000000">unknown[0]</text>
<polygon fill="none" stroke="#000000" points="10.5,-393.7 10.5,-415.7 231.5,-415.7 231.5,-393.7 10.5,-393.7"/>
<text text-anchor="start" x="30.5" y="-400.8" font-family="Helvetica,sans-Serif" font-size="11.00" fill="#000000">excluded_cohort_definition_id</text>
<polygon fill="none" stroke="#000000" points="231.5,-393.7 231.5,-415.7 293.5,-415.7 293.5,-393.7 231.5,-393.7"/>
<text text-anchor="start" x="234.378" y="-401.4" font-family="Helvetica,sans-Serif" font-size="11.00" fill="#000000">unknown[0]</text>
<polygon fill="none" stroke="#000000" points="10.5,-371.7 10.5,-393.7 231.5,-393.7 231.5,-371.7 10.5,-371.7"/>
<text text-anchor="start" x="30.5" y="-378.8" font-family="Helvetica,sans-Serif" font-size="11.00" fill="#000000">outcome_cohort_definition_id</text>
<polygon fill="none" stroke="#000000" points="231.5,-371.7 231.5,-393.7 293.5,-393.7 293.5,-371.7 231.5,-371.7"/>
<text text-anchor="start" x="234.378" y="-379.4" font-family="Helvetica,sans-Serif" font-size="11.00" fill="#000000">unknown[0]</text>
<polygon fill="none" stroke="#000000" points="10.5,-349.7 10.5,-371.7 231.5,-371.7 231.5,-349.7 10.5,-349.7"/>
<image xlink:href="../../images/primaryKeys.png" width="11px" height="12px" preserveAspectRatio="xMinYMin meet" x="15.5" y="-366.7"/>
<text text-anchor="start" x="30.5" y="-356.8" font-family="Helvetica,sans-Serif" font-size="11.00" fill="#000000">outcome_id</text>
<polygon fill="none" stroke="#000000" points="231.5,-349.7 231.5,-371.7 293.5,-371.7 293.5,-349.7 231.5,-349.7"/>
<text text-anchor="start" x="234.378" y="-357.4" font-family="Helvetica,sans-Serif" font-size="11.00" fill="#000000">unknown[0]</text>
<polygon fill="none" stroke="#000000" points="10.5,-327.7 10.5,-349.7 231.5,-349.7 231.5,-327.7 10.5,-327.7"/>
<text text-anchor="start" x="30.5" y="-334.8" font-family="Helvetica,sans-Serif" font-size="11.00" fill="#000000">outcome_name</text>
<polygon fill="none" stroke="#000000" points="231.5,-327.7 231.5,-349.7 293.5,-349.7 293.5,-327.7 231.5,-327.7"/>
<text text-anchor="start" x="234.378" y="-335.4" font-family="Helvetica,sans-Serif" font-size="11.00" fill="#000000">unknown[0]</text>
<polygon fill="none" stroke="#000000" points="10.5,-305.7 10.5,-327.7 231.5,-327.7 231.5,-305.7 10.5,-305.7"/>
<image xlink:href="../../images/primaryKeys.png" width="11px" height="12px" preserveAspectRatio="xMinYMin meet" x="15.5" y="-322.7"/>
<text text-anchor="start" x="30.5" y="-312.8" font-family="Helvetica,sans-Serif" font-size="11.00" fill="#000000">ref_id</text>
<polygon fill="none" stroke="#000000" points="231.5,-305.7 231.5,-327.7 293.5,-327.7 293.5,-305.7 231.5,-305.7"/>
<text text-anchor="start" x="234.378" y="-313.4" font-family="Helvetica,sans-Serif" font-size="11.00" fill="#000000">unknown[0]</text>
<polygon fill="#ffffff" stroke="transparent" points="10.5,-286.7 10.5,-305.7 112.5,-305.7 112.5,-286.7 10.5,-286.7"/>
<polygon fill="none" stroke="#000000" points="10.5,-286.7 10.5,-305.7 112.5,-305.7 112.5,-286.7 10.5,-286.7"/>
<text text-anchor="start" x="13.5" y="-292.8" font-family="Helvetica,sans-Serif" font-size="11.00" fill="#000000">&lt; 0</text>
<polygon fill="#ffffff" stroke="transparent" points="112.5,-286.7 112.5,-305.7 231.5,-305.7 231.5,-286.7 112.5,-286.7"/>
<polygon fill="none" stroke="#000000" points="112.5,-286.7 112.5,-305.7 231.5,-305.7 231.5,-286.7 112.5,-286.7"/>
<text text-anchor="start" x="196.1105" y="-292.8" font-family="Helvetica,sans-Serif" font-size="11.00" fill="#000000">0 rows</text>
<polygon fill="#ffffff" stroke="transparent" points="231.5,-286.7 231.5,-305.7 293.5,-305.7 293.5,-286.7 231.5,-286.7"/>
<polygon fill="none" stroke="#000000" points="231.5,-286.7 231.5,-305.7 293.5,-305.7 293.5,-286.7 231.5,-286.7"/>
<text text-anchor="start" x="274.9053" y="-292.8" font-family="Helvetica,sans-Serif" font-size="11.00" fill="#000000">2 &gt;</text>
<polygon fill="none" stroke="#000000" stroke-width="2" points="9,-285.7 9,-461.7 294,-461.7 294,-285.7 9,-285.7"/>
</a>
</g>
</g>
<!-- ci_incidence_summary&#45;&gt;ci_outcome_def -->
<g id="edge3" class="edge">
<title>ci_incidence_summary:w&#45;&gt;ci_outcome_def:e</title>
<path fill="none" stroke="#000000" d="M330.7081,-310.3893C315.2137,-323.6898 320.8462,-360.7 293.5,-360.7"/>
<polygon fill="#000000" stroke="#000000" points="336.9258,-308.2753 345.6589,-309.1084 340.7129,-306.9876 344.5,-305.7 344.5,-305.7 344.5,-305.7 340.7129,-306.9876 343.3411,-302.2916 336.9258,-308.2753 336.9258,-308.2753"/>
<ellipse fill="none" stroke="#000000" cx="333.8961" cy="-309.3054" rx="3.2" ry="3.2"/>
</g>
<!-- ci_incidence_summary&#45;&gt;ci_outcome_def -->
<g id="edge5" class="edge">
<title>ci_incidence_summary:w&#45;&gt;ci_outcome_def:e</title>
<path fill="none" stroke="#000000" d="M330.4604,-287.7464C317.3775,-296.5584 314.5921,-316.7 293.5,-316.7"/>
<polygon fill="#000000" stroke="#000000" points="336.8129,-285.9156 345.497,-287.1592 340.6565,-284.8078 344.5,-283.7 344.5,-283.7 344.5,-283.7 340.6565,-284.8078 343.503,-280.2408 336.8129,-285.9156 336.8129,-285.9156"/>
<ellipse fill="none" stroke="#000000" cx="333.7381" cy="-286.8018" rx="3.2" ry="3.2"/>
</g>
<!-- ci_subgroup_def -->
<g id="node5" class="node">
<title>ci_subgroup_def</title>
<g id="a_node5"><a xlink:href="../../tables/ci_subgroup_def.html" xlink:title="ci_subgroup_def" target="_top">
<polygon fill="#ffffff" stroke="transparent" points="77.5,-202.2 77.5,-263.2 225.5,-263.2 225.5,-202.2 77.5,-202.2"/>
<polygon fill="#f5f5f5" stroke="transparent" points="77.5,-239.7 77.5,-262.7 225.5,-262.7 225.5,-239.7 77.5,-239.7"/>
<polygon fill="none" stroke="#000000" points="77.5,-239.7 77.5,-262.7 225.5,-262.7 225.5,-239.7 77.5,-239.7"/>
<text text-anchor="start" x="82.5" y="-248.3" font-family="Helvetica,sans-Serif" font-weight="bold" font-size="11.00" fill="#000000">ci_subgroup_def</text>
<text text-anchor="start" x="191.0219" y="-247.8" font-family="Helvetica,sans-Serif" font-size="11.00" fill="#000000">[table]</text>
<polygon fill="none" stroke="#000000" points="77.5,-220.7 77.5,-239.7 225.5,-239.7 225.5,-220.7 77.5,-220.7"/>
<text text-anchor="start" x="80.5" y="-226.8" font-family="Helvetica,sans-Serif" font-size="11.00" fill="#000000">...</text>
<polygon fill="#ffffff" stroke="transparent" points="77.5,-201.7 77.5,-220.7 127.5,-220.7 127.5,-201.7 77.5,-201.7"/>
<polygon fill="none" stroke="#000000" points="77.5,-201.7 77.5,-220.7 127.5,-220.7 127.5,-201.7 77.5,-201.7"/>
<text text-anchor="start" x="80.5" y="-207.8" font-family="Helvetica,sans-Serif" font-size="11.00" fill="#000000"> &#160;</text>
<polygon fill="#ffffff" stroke="transparent" points="127.5,-201.7 127.5,-220.7 184.5,-220.7 184.5,-201.7 127.5,-201.7"/>
<polygon fill="none" stroke="#000000" points="127.5,-201.7 127.5,-220.7 184.5,-220.7 184.5,-201.7 127.5,-201.7"/>
<text text-anchor="start" x="149.1105" y="-207.8" font-family="Helvetica,sans-Serif" font-size="11.00" fill="#000000">0 rows</text>
<polygon fill="#ffffff" stroke="transparent" points="184.5,-201.7 184.5,-220.7 225.5,-220.7 225.5,-201.7 184.5,-201.7"/>
<polygon fill="none" stroke="#000000" points="184.5,-201.7 184.5,-220.7 225.5,-220.7 225.5,-201.7 184.5,-201.7"/>
<text text-anchor="start" x="206.9053" y="-207.8" font-family="Helvetica,sans-Serif" font-size="11.00" fill="#000000">2 &gt;</text>
</a>
</g>
</g>
<!-- ci_incidence_summary&#45;&gt;ci_subgroup_def -->
<g id="edge6" class="edge">
<title>ci_incidence_summary:w&#45;&gt;ci_subgroup_def:e</title>
<path fill="none" stroke="#000000" d="M330.1033,-282.4707C285.4641,-274.4328 278.3615,-229.7 225.5,-229.7"/>
<polygon fill="#000000" stroke="#000000" points="336.529,-283.0193 344.1937,-287.2869 340.5145,-283.3597 344.5,-283.7 344.5,-283.7 344.5,-283.7 340.5145,-283.3597 344.8063,-280.1131 336.529,-283.0193 336.529,-283.0193"/>
<ellipse fill="none" stroke="#000000" cx="333.3406" cy="-282.747" rx="3.2" ry="3.2"/>
</g>
<!-- ci_incidence_summary&#45;&gt;ci_subgroup_def -->
<g id="edge8" class="edge">
<title>ci_incidence_summary:w&#45;&gt;ci_subgroup_def:e</title>
<path fill="none" stroke="#000000" d="M329.9411,-260.8768C287.5058,-255.8681 275.0263,-229.7 225.5,-229.7"/>
<polygon fill="#000000" stroke="#000000" points="336.5128,-261.2483 344.2968,-265.2943 340.5064,-261.4742 344.5,-261.7 344.5,-261.7 344.5,-261.7 340.5064,-261.4742 344.7032,-258.1057 336.5128,-261.2483 336.5128,-261.2483"/>
<ellipse fill="none" stroke="#000000" cx="333.3179" cy="-261.0677" rx="3.2" ry="3.2"/>
</g>
<!-- ci_tar_def -->
<g id="node6" class="node">
<title>ci_tar_def</title>
<g id="a_node6"><a xlink:href="../../tables/ci_tar_def.html" xlink:title="ci_tar_def" target="_top">
<polygon fill="#ffffff" stroke="transparent" points="100,-120.2 100,-181.2 203,-181.2 203,-120.2 100,-120.2"/>
<polygon fill="#f5f5f5" stroke="transparent" points="100.5,-157.7 100.5,-180.7 203.5,-180.7 203.5,-157.7 100.5,-157.7"/>
<polygon fill="none" stroke="#000000" points="100.5,-157.7 100.5,-180.7 203.5,-180.7 203.5,-157.7 100.5,-157.7"/>
<text text-anchor="start" x="105.5" y="-166.3" font-family="Helvetica,sans-Serif" font-weight="bold" font-size="11.00" fill="#000000">ci_tar_def</text>
<text text-anchor="start" x="169.0219" y="-165.8" font-family="Helvetica,sans-Serif" font-size="11.00" fill="#000000">[table]</text>
<polygon fill="none" stroke="#000000" points="100.5,-138.7 100.5,-157.7 203.5,-157.7 203.5,-138.7 100.5,-138.7"/>
<text text-anchor="start" x="103.5" y="-144.8" font-family="Helvetica,sans-Serif" font-size="11.00" fill="#000000">...</text>
<polygon fill="#ffffff" stroke="transparent" points="100.5,-119.7 100.5,-138.7 128.5,-138.7 128.5,-119.7 100.5,-119.7"/>
<polygon fill="none" stroke="#000000" points="100.5,-119.7 100.5,-138.7 128.5,-138.7 128.5,-119.7 100.5,-119.7"/>
<text text-anchor="start" x="103.5" y="-125.8" font-family="Helvetica,sans-Serif" font-size="11.00" fill="#000000"> &#160;</text>
<polygon fill="#ffffff" stroke="transparent" points="128.5,-119.7 128.5,-138.7 174.5,-138.7 174.5,-119.7 128.5,-119.7"/>
<polygon fill="none" stroke="#000000" points="128.5,-119.7 128.5,-138.7 174.5,-138.7 174.5,-119.7 128.5,-119.7"/>
<text text-anchor="start" x="139.1105" y="-125.8" font-family="Helvetica,sans-Serif" font-size="11.00" fill="#000000">0 rows</text>
<polygon fill="#ffffff" stroke="transparent" points="174.5,-119.7 174.5,-138.7 203.5,-138.7 203.5,-119.7 174.5,-119.7"/>
<polygon fill="none" stroke="#000000" points="174.5,-119.7 174.5,-138.7 203.5,-138.7 203.5,-119.7 174.5,-119.7"/>
<text text-anchor="start" x="184.9053" y="-125.8" font-family="Helvetica,sans-Serif" font-size="11.00" fill="#000000">2 &gt;</text>
</a>
</g>
</g>
<!-- ci_incidence_summary&#45;&gt;ci_tar_def -->
<g id="edge7" class="edge">
<title>ci_incidence_summary:w&#45;&gt;ci_tar_def:e</title>
<path fill="none" stroke="#000000" d="M330.2148,-280.541C308.0135,-267.7229 330.4829,-218.9803 303,-191.7 268.6829,-157.6359 251.8531,-147.7 203.5,-147.7"/>
<polygon fill="#000000" stroke="#000000" points="336.6887,-281.9726 343.7227,-287.2151 340.5944,-282.8363 344.5,-283.7 344.5,-283.7 344.5,-283.7 340.5944,-282.8363 345.2773,-280.1849 336.6887,-281.9726 336.6887,-281.9726"/>
<ellipse fill="none" stroke="#000000" cx="333.5642" cy="-281.2816" rx="3.2" ry="3.2"/>
</g>
<!-- ci_incidence_summary&#45;&gt;ci_tar_def -->
<g id="edge9" class="edge">
<title>ci_incidence_summary:w&#45;&gt;ci_tar_def:e</title>
<path fill="none" stroke="#000000" d="M330.6578,-235.6958C318.8649,-226.7311 320.7097,-204.8067 303,-191.7 264.1334,-162.9353 251.8531,-147.7 203.5,-147.7"/>
<polygon fill="#000000" stroke="#000000" points="336.8151,-237.4769 343.4996,-243.1582 340.6575,-238.5885 344.5,-239.7 344.5,-239.7 344.5,-239.7 340.6575,-238.5885 345.5004,-236.2418 336.8151,-237.4769 336.8151,-237.4769"/>
<ellipse fill="none" stroke="#000000" cx="333.7411" cy="-236.5877" rx="3.2" ry="3.2"/>
</g>
<!-- cg_cohort_definition -->
<g id="node7" class="node">
<title>cg_cohort_definition</title>
<g id="a_node7"><a xlink:href="../../tables/cg_cohort_definition.html" xlink:title="cg_cohort_definition" target="_top">
<polygon fill="#ffffff" stroke="transparent" points="64,-38.2 64,-99.2 239,-99.2 239,-38.2 64,-38.2"/>
<polygon fill="#f5f5f5" stroke="transparent" points="64.5,-75.7 64.5,-98.7 239.5,-98.7 239.5,-75.7 64.5,-75.7"/>
<polygon fill="none" stroke="#000000" points="64.5,-75.7 64.5,-98.7 239.5,-98.7 239.5,-75.7 64.5,-75.7"/>
<text text-anchor="start" x="69.5" y="-84.3" font-family="Helvetica,sans-Serif" font-weight="bold" font-size="11.00" fill="#000000">cg_cohort_definition</text>
<text text-anchor="start" x="205.0219" y="-83.8" font-family="Helvetica,sans-Serif" font-size="11.00" fill="#000000">[table]</text>
<polygon fill="none" stroke="#000000" points="64.5,-56.7 64.5,-75.7 239.5,-75.7 239.5,-56.7 64.5,-56.7"/>
<text text-anchor="start" x="67.5" y="-62.8" font-family="Helvetica,sans-Serif" font-size="11.00" fill="#000000">...</text>
<polygon fill="#ffffff" stroke="transparent" points="64.5,-37.7 64.5,-56.7 125.5,-56.7 125.5,-37.7 64.5,-37.7"/>
<polygon fill="none" stroke="#000000" points="64.5,-37.7 64.5,-56.7 125.5,-56.7 125.5,-37.7 64.5,-37.7"/>
<text text-anchor="start" x="67.5" y="-43.8" font-family="Helvetica,sans-Serif" font-size="11.00" fill="#000000"> &#160;</text>
<polygon fill="#ffffff" stroke="transparent" points="125.5,-37.7 125.5,-56.7 187.5,-56.7 187.5,-37.7 125.5,-37.7"/>
<polygon fill="none" stroke="#000000" points="125.5,-37.7 125.5,-56.7 187.5,-56.7 187.5,-37.7 125.5,-37.7"/>
<text text-anchor="start" x="152.1105" y="-43.8" font-family="Helvetica,sans-Serif" font-size="11.00" fill="#000000">0 rows</text>
<polygon fill="#ffffff" stroke="transparent" points="187.5,-37.7 187.5,-56.7 239.5,-56.7 239.5,-37.7 187.5,-37.7"/>
<polygon fill="none" stroke="#000000" points="187.5,-37.7 187.5,-56.7 239.5,-56.7 239.5,-37.7 187.5,-37.7"/>
<text text-anchor="start" x="214.7904" y="-43.8" font-family="Helvetica,sans-Serif" font-size="11.00" fill="#000000">17 &gt;</text>
</a>
</g>
</g>
<!-- ci_incidence_summary&#45;&gt;cg_cohort_definition -->
<g id="edge10" class="edge">
<title>ci_incidence_summary:w&#45;&gt;cg_cohort_definition:e</title>
<path fill="none" stroke="#000000" d="M329.9899,-215.0689C301.8398,-202.2376 331.0423,-145.3988 303,-109.7 281.79,-82.699 273.8353,-65.7 239.5,-65.7"/>
<polygon fill="#000000" stroke="#000000" points="336.6284,-216.2726 343.8577,-221.2422 340.5642,-216.9863 344.5,-217.7 344.5,-217.7 344.5,-217.7 340.5642,-216.9863 345.1423,-214.1578 336.6284,-216.2726 336.6284,-216.2726"/>
<ellipse fill="none" stroke="#000000" cx="333.4797" cy="-215.7016" rx="3.2" ry="3.2"/>
</g>
</g>
</svg>
