<?xml version="1.0" encoding="UTF-8" standalone="no"?>
<!DOCTYPE svg PUBLIC "-//W3C//DTD SVG 1.1//EN"
 "http://www.w3.org/Graphics/SVG/1.1/DTD/svg11.dtd">
<!-- Generated by graphviz version 2.40.1 (20161225.0304)
 -->
<!-- Title: oneDegreeRelationshipsDiagram Pages: 1 -->
<svg width="571pt" height="300pt"
 viewBox="0.00 0.00 571.00 299.70" xmlns="http://www.w3.org/2000/svg" xmlns:xlink="http://www.w3.org/1999/xlink">
<g id="graph0" class="graph" transform="scale(1 1) rotate(0) translate(4 295.7)">
<title>oneDegreeRelationshipsDiagram</title>
<polygon fill="#ffffff" stroke="transparent" points="-4,4 -4,-295.7 567,-295.7 567,4 -4,4"/>
<text text-anchor="middle" x="72.4936" y="-7.3" font-family="Helvetica,sans-Serif" font-size="11.00" fill="#000000">Generated by SchemaSpy</text>
<!-- ci_incidence_summary -->
<g id="node1" class="node">
<title>ci_incidence_summary</title>
<g id="a_node1"><a xlink:href="../../tables/ci_incidence_summary.html" xlink:title="ci_incidence_summary" target="_top">
<polygon fill="#ffffff" stroke="transparent" points="344,-38.2 344,-253.2 555,-253.2 555,-38.2 344,-38.2"/>
<polygon fill="#f5f5f5" stroke="transparent" points="344.5,-229.7 344.5,-252.7 555.5,-252.7 555.5,-229.7 344.5,-229.7"/>
<polygon fill="none" stroke="#000000" points="344.5,-229.7 344.5,-252.7 555.5,-252.7 555.5,-229.7 344.5,-229.7"/>
<text text-anchor="start" x="349.5" y="-238.3" font-family="Helvetica,sans-Serif" font-weight="bold" font-size="11.00" fill="#000000">ci_incidence_summary</text>
<text text-anchor="start" x="520.5437" y="-237.8" font-family="Helvetica,sans-Serif" font-size="11.00" fill="#000000">[table]</text>
<polygon fill="none" stroke="#000000" points="344.5,-207.7 344.5,-229.7 555.5,-229.7 555.5,-207.7 344.5,-207.7"/>
<image xlink:href="../../images/foreignKeys.png" width="11px" height="12px" preserveAspectRatio="xMinYMin meet" x="349.5" y="-224.7"/>
<text text-anchor="start" x="364.5" y="-214.8" font-family="Helvetica,sans-Serif" font-size="11.00" fill="#000000">age_group_id</text>
<polygon fill="none" stroke="#000000" points="344.5,-185.7 344.5,-207.7 555.5,-207.7 555.5,-185.7 344.5,-185.7"/>
<image xlink:href="../../images/foreignKeys.png" width="11px" height="12px" preserveAspectRatio="xMinYMin meet" x="349.5" y="-202.7"/>
<text text-anchor="start" x="364.5" y="-192.8" font-family="Helvetica,sans-Serif" font-size="11.00" fill="#000000">database_id</text>
<polygon fill="none" stroke="#000000" points="344.5,-163.7 344.5,-185.7 555.5,-185.7 555.5,-163.7 344.5,-163.7"/>
<image xlink:href="../../images/foreignKeys.png" width="11px" height="12px" preserveAspectRatio="xMinYMin meet" x="349.5" y="-180.7"/>
<text text-anchor="start" x="364.5" y="-170.8" font-family="Helvetica,sans-Serif" font-size="11.00" fill="#000000">outcome_id</text>
<polygon fill="none" stroke="#000000" points="344.5,-141.7 344.5,-163.7 555.5,-163.7 555.5,-141.7 344.5,-141.7"/>
<image xlink:href="../../images/foreignKeys.png" width="11px" height="12px" preserveAspectRatio="xMinYMin meet" x="349.5" y="-158.7"/>
<text text-anchor="start" x="364.5" y="-148.8" font-family="Helvetica,sans-Serif" font-size="11.00" fill="#000000">ref_id</text>
<polygon fill="none" stroke="#000000" points="344.5,-119.7 344.5,-141.7 555.5,-141.7 555.5,-119.7 344.5,-119.7"/>
<image xlink:href="../../images/foreignKeys.png" width="11px" height="12px" preserveAspectRatio="xMinYMin meet" x="349.5" y="-136.7"/>
<text text-anchor="start" x="364.5" y="-126.8" font-family="Helvetica,sans-Serif" font-size="11.00" fill="#000000">subgroup_id</text>
<polygon fill="none" stroke="#000000" points="344.5,-97.7 344.5,-119.7 555.5,-119.7 555.5,-97.7 344.5,-97.7"/>
<image xlink:href="../../images/foreignKeys.png" width="11px" height="12px" preserveAspectRatio="xMinYMin meet" x="349.5" y="-114.7"/>
<text text-anchor="start" x="364.5" y="-104.8" font-family="Helvetica,sans-Serif" font-size="11.00" fill="#000000">tar_id</text>
<polygon fill="none" stroke="#000000" points="344.5,-75.7 344.5,-97.7 555.5,-97.7 555.5,-75.7 344.5,-75.7"/>
<image xlink:href="../../images/foreignKeys.png" width="11px" height="12px" preserveAspectRatio="xMinYMin meet" x="349.5" y="-92.7"/>
<text text-anchor="start" x="364.5" y="-82.8" font-family="Helvetica,sans-Serif" font-size="11.00" fill="#000000">target_cohort_definition_id</text>
<polygon fill="none" stroke="#000000" points="344.5,-56.7 344.5,-75.7 555.5,-75.7 555.5,-56.7 344.5,-56.7"/>
<text text-anchor="start" x="347.5" y="-62.8" font-family="Helvetica,sans-Serif" font-size="11.00" fill="#000000">...</text>
<polygon fill="#ffffff" stroke="transparent" points="344.5,-37.7 344.5,-56.7 438.5,-56.7 438.5,-37.7 344.5,-37.7"/>
<polygon fill="none" stroke="#000000" points="344.5,-37.7 344.5,-56.7 438.5,-56.7 438.5,-37.7 344.5,-37.7"/>
<text text-anchor="start" x="347.5" y="-43.8" font-family="Helvetica,sans-Serif" font-size="11.00" fill="#000000">&lt; 10</text>
<polygon fill="#ffffff" stroke="transparent" points="438.5,-37.7 438.5,-56.7 509.5,-56.7 509.5,-37.7 438.5,-37.7"/>
<polygon fill="none" stroke="#000000" points="438.5,-37.7 438.5,-56.7 509.5,-56.7 509.5,-37.7 438.5,-37.7"/>
<text text-anchor="start" x="474.1105" y="-43.8" font-family="Helvetica,sans-Serif" font-size="11.00" fill="#000000">0 rows</text>
<polygon fill="#ffffff" stroke="transparent" points="509.5,-37.7 509.5,-56.7 555.5,-56.7 555.5,-37.7 509.5,-37.7"/>
<polygon fill="none" stroke="#000000" points="509.5,-37.7 509.5,-56.7 555.5,-56.7 555.5,-37.7 509.5,-37.7"/>
<text text-anchor="start" x="546.3862" y="-43.8" font-family="Helvetica,sans-Serif" font-size="11.00" fill="#000000"> &#160;</text>
</a>
</g>
</g>
<!-- ci_outcome_def -->
<g id="node2" class="node">
<title>ci_outcome_def</title>
<g id="a_node2"><a xlink:href="../../tables/ci_outcome_def.html" xlink:title="ci_outcome_def" target="_top">
<polygon fill="#ffffff" stroke="transparent" points="8,-109.7 8,-287.7 295,-287.7 295,-109.7 8,-109.7"/>
<polygon fill="#f5f5f5" stroke="transparent" points="10.5,-262.7 10.5,-285.7 293.5,-285.7 293.5,-262.7 10.5,-262.7"/>
<polygon fill="none" stroke="#000000" points="10.5,-262.7 10.5,-285.7 293.5,-285.7 293.5,-262.7 10.5,-262.7"/>
<text text-anchor="start" x="15.5" y="-271.3" font-family="Helvetica,sans-Serif" font-weight="bold" font-size="11.00" fill="#000000">ci_outcome_def</text>
<text text-anchor="start" x="258.5437" y="-270.8" font-family="Helvetica,sans-Serif" font-size="11.00" fill="#000000">[table]</text>
<polygon fill="none" stroke="#000000" points="10.5,-240.7 10.5,-262.7 231.5,-262.7 231.5,-240.7 10.5,-240.7"/>
<text text-anchor="start" x="30.5" y="-247.8" font-family="Helvetica,sans-Serif" font-size="11.00" fill="#000000">clean_window</text>
<polygon fill="none" stroke="#000000" points="231.5,-240.7 231.5,-262.7 293.5,-262.7 293.5,-240.7 231.5,-240.7"/>
<text text-anchor="start" x="234.378" y="-248.4" font-family="Helvetica,sans-Serif" font-size="11.00" fill="#000000">unknown[0]</text>
<polygon fill="none" stroke="#000000" points="10.5,-218.7 10.5,-240.7 231.5,-240.7 231.5,-218.7 10.5,-218.7"/>
<text text-anchor="start" x="30.5" y="-225.8" font-family="Helvetica,sans-Serif" font-size="11.00" fill="#000000">excluded_cohort_definition_id</text>
<polygon fill="none" stroke="#000000" points="231.5,-218.7 231.5,-240.7 293.5,-240.7 293.5,-218.7 231.5,-218.7"/>
<text text-anchor="start" x="234.378" y="-226.4" font-family="Helvetica,sans-Serif" font-size="11.00" fill="#000000">unknown[0]</text>
<polygon fill="none" stroke="#000000" points="10.5,-196.7 10.5,-218.7 231.5,-218.7 231.5,-196.7 10.5,-196.7"/>
<text text-anchor="start" x="30.5" y="-203.8" font-family="Helvetica,sans-Serif" font-size="11.00" fill="#000000">outcome_cohort_definition_id</text>
<polygon fill="none" stroke="#000000" points="231.5,-196.7 231.5,-218.7 293.5,-218.7 293.5,-196.7 231.5,-196.7"/>
<text text-anchor="start" x="234.378" y="-204.4" font-family="Helvetica,sans-Serif" font-size="11.00" fill="#000000">unknown[0]</text>
<polygon fill="none" stroke="#000000" points="10.5,-174.7 10.5,-196.7 231.5,-196.7 231.5,-174.7 10.5,-174.7"/>
<image xlink:href="../../images/primaryKeys.png" width="11px" height="12px" preserveAspectRatio="xMinYMin meet" x="15.5" y="-191.7"/>
<text text-anchor="start" x="30.5" y="-181.8" font-family="Helvetica,sans-Serif" font-size="11.00" fill="#000000">outcome_id</text>
<polygon fill="none" stroke="#000000" points="231.5,-174.7 231.5,-196.7 293.5,-196.7 293.5,-174.7 231.5,-174.7"/>
<text text-anchor="start" x="234.378" y="-182.4" font-family="Helvetica,sans-Serif" font-size="11.00" fill="#000000">unknown[0]</text>
<polygon fill="none" stroke="#000000" points="10.5,-152.7 10.5,-174.7 231.5,-174.7 231.5,-152.7 10.5,-152.7"/>
<text text-anchor="start" x="30.5" y="-159.8" font-family="Helvetica,sans-Serif" font-size="11.00" fill="#000000">outcome_name</text>
<polygon fill="none" stroke="#000000" points="231.5,-152.7 231.5,-174.7 293.5,-174.7 293.5,-152.7 231.5,-152.7"/>
<text text-anchor="start" x="234.378" y="-160.4" font-family="Helvetica,sans-Serif" font-size="11.00" fill="#000000">unknown[0]</text>
<polygon fill="none" stroke="#000000" points="10.5,-130.7 10.5,-152.7 231.5,-152.7 231.5,-130.7 10.5,-130.7"/>
<image xlink:href="../../images/primaryKeys.png" width="11px" height="12px" preserveAspectRatio="xMinYMin meet" x="15.5" y="-147.7"/>
<text text-anchor="start" x="30.5" y="-137.8" font-family="Helvetica,sans-Serif" font-size="11.00" fill="#000000">ref_id</text>
<polygon fill="none" stroke="#000000" points="231.5,-130.7 231.5,-152.7 293.5,-152.7 293.5,-130.7 231.5,-130.7"/>
<text text-anchor="start" x="234.378" y="-138.4" font-family="Helvetica,sans-Serif" font-size="11.00" fill="#000000">unknown[0]</text>
<polygon fill="#ffffff" stroke="transparent" points="10.5,-111.7 10.5,-130.7 112.5,-130.7 112.5,-111.7 10.5,-111.7"/>
<polygon fill="none" stroke="#000000" points="10.5,-111.7 10.5,-130.7 112.5,-130.7 112.5,-111.7 10.5,-111.7"/>
<text text-anchor="start" x="13.5" y="-117.8" font-family="Helvetica,sans-Serif" font-size="11.00" fill="#000000">&lt; 0</text>
<polygon fill="#ffffff" stroke="transparent" points="112.5,-111.7 112.5,-130.7 231.5,-130.7 231.5,-111.7 112.5,-111.7"/>
<polygon fill="none" stroke="#000000" points="112.5,-111.7 112.5,-130.7 231.5,-130.7 231.5,-111.7 112.5,-111.7"/>
<text text-anchor="start" x="196.1105" y="-117.8" font-family="Helvetica,sans-Serif" font-size="11.00" fill="#000000">0 rows</text>
<polygon fill="#ffffff" stroke="transparent" points="231.5,-111.7 231.5,-130.7 293.5,-130.7 293.5,-111.7 231.5,-111.7"/>
<polygon fill="none" stroke="#000000" points="231.5,-111.7 231.5,-130.7 293.5,-130.7 293.5,-111.7 231.5,-111.7"/>
<text text-anchor="start" x="274.9053" y="-117.8" font-family="Helvetica,sans-Serif" font-size="11.00" fill="#000000">2 &gt;</text>
<polygon fill="none" stroke="#000000" stroke-width="2" points="9,-110.7 9,-286.7 294,-286.7 294,-110.7 9,-110.7"/>
</a>
</g>
</g>
<!-- ci_incidence_summary&#45;&gt;ci_outcome_def -->
<g id="edge1" class="edge">
<title>ci_incidence_summary:w&#45;&gt;ci_outcome_def:e</title>
<path fill="none" stroke="#000000" d="M330.0097,-176.4188C317.8398,-179.5125 310.8909,-185.7 293.5,-185.7"/>
<polygon fill="#000000" stroke="#000000" points="336.5557,-175.6424 344.9241,-178.2749 340.5278,-175.1712 344.5,-174.7 344.5,-174.7 344.5,-174.7 340.5278,-175.1712 344.0759,-171.1251 336.5557,-175.6424 336.5557,-175.6424"/>
<ellipse fill="none" stroke="#000000" cx="333.378" cy="-176.0193" rx="3.2" ry="3.2"/>
</g>
<!-- ci_incidence_summary&#45;&gt;ci_outcome_def -->
<g id="edge2" class="edge">
<title>ci_incidence_summary:w&#45;&gt;ci_outcome_def:e</title>
<path fill="none" stroke="#000000" d="M330.0097,-150.9813C317.8398,-147.8875 310.8909,-141.7 293.5,-141.7"/>
<polygon fill="#000000" stroke="#000000" points="336.5557,-151.7576 344.0759,-156.2749 340.5278,-152.2288 344.5,-152.7 344.5,-152.7 344.5,-152.7 340.5278,-152.2288 344.9241,-149.1251 336.5557,-151.7576 336.5557,-151.7576"/>
<ellipse fill="none" stroke="#000000" cx="333.378" cy="-151.3807" rx="3.2" ry="3.2"/>
</g>
</g>
</svg>
