<?xml version="1.0" encoding="UTF-8" standalone="no"?>
<!DOCTYPE svg PUBLIC "-//W3C//DTD SVG 1.1//EN"
 "http://www.w3.org/Graphics/SVG/1.1/DTD/svg11.dtd">
<!-- Generated by graphviz version 2.40.1 (20161225.0304)
 -->
<!-- Title: oneDegreeRelationshipsDiagram Pages: 1 -->
<svg width="311pt" height="228pt"
 viewBox="0.00 0.00 311.00 228.20" xmlns="http://www.w3.org/2000/svg" xmlns:xlink="http://www.w3.org/1999/xlink">
<g id="graph0" class="graph" transform="scale(1 1) rotate(0) translate(4 224.2)">
<title>oneDegreeRelationshipsDiagram</title>
<polygon fill="#ffffff" stroke="transparent" points="-4,4 -4,-224.2 307,-224.2 307,4 -4,4"/>
<text text-anchor="middle" x="72.4936" y="-7.3" font-family="Helvetica,sans-Serif" font-size="11.00" fill="#000000">Generated by SchemaSpy</text>
<!-- ci_outcome_def -->
<g id="node1" class="node">
<title>ci_outcome_def</title>
<g id="a_node1"><a xlink:href="../../tables/ci_outcome_def.html" xlink:title="ci_outcome_def" target="_top">
<polygon fill="#ffffff" stroke="transparent" points="8,-38.2 8,-216.2 295,-216.2 295,-38.2 8,-38.2"/>
<polygon fill="#f5f5f5" stroke="transparent" points="10.5,-191.2 10.5,-214.2 293.5,-214.2 293.5,-191.2 10.5,-191.2"/>
<polygon fill="none" stroke="#000000" points="10.5,-191.2 10.5,-214.2 293.5,-214.2 293.5,-191.2 10.5,-191.2"/>
<text text-anchor="start" x="15.5" y="-199.8" font-family="Helvetica,sans-Serif" font-weight="bold" font-size="11.00" fill="#000000">ci_outcome_def</text>
<text text-anchor="start" x="258.5437" y="-199.3" font-family="Helvetica,sans-Serif" font-size="11.00" fill="#000000">[table]</text>
<polygon fill="none" stroke="#000000" points="10.5,-169.2 10.5,-191.2 231.5,-191.2 231.5,-169.2 10.5,-169.2"/>
<text text-anchor="start" x="30.5" y="-176.3" font-family="Helvetica,sans-Serif" font-size="11.00" fill="#000000">clean_window</text>
<polygon fill="none" stroke="#000000" points="231.5,-169.2 231.5,-191.2 293.5,-191.2 293.5,-169.2 231.5,-169.2"/>
<text text-anchor="start" x="234.378" y="-176.9" font-family="Helvetica,sans-Serif" font-size="11.00" fill="#000000">unknown[0]</text>
<polygon fill="none" stroke="#000000" points="10.5,-147.2 10.5,-169.2 231.5,-169.2 231.5,-147.2 10.5,-147.2"/>
<text text-anchor="start" x="30.5" y="-154.3" font-family="Helvetica,sans-Serif" font-size="11.00" fill="#000000">excluded_cohort_definition_id</text>
<polygon fill="none" stroke="#000000" points="231.5,-147.2 231.5,-169.2 293.5,-169.2 293.5,-147.2 231.5,-147.2"/>
<text text-anchor="start" x="234.378" y="-154.9" font-family="Helvetica,sans-Serif" font-size="11.00" fill="#000000">unknown[0]</text>
<polygon fill="none" stroke="#000000" points="10.5,-125.2 10.5,-147.2 231.5,-147.2 231.5,-125.2 10.5,-125.2"/>
<text text-anchor="start" x="30.5" y="-132.3" font-family="Helvetica,sans-Serif" font-size="11.00" fill="#000000">outcome_cohort_definition_id</text>
<polygon fill="none" stroke="#000000" points="231.5,-125.2 231.5,-147.2 293.5,-147.2 293.5,-125.2 231.5,-125.2"/>
<text text-anchor="start" x="234.378" y="-132.9" font-family="Helvetica,sans-Serif" font-size="11.00" fill="#000000">unknown[0]</text>
<polygon fill="none" stroke="#000000" points="10.5,-103.2 10.5,-125.2 231.5,-125.2 231.5,-103.2 10.5,-103.2"/>
<text text-anchor="start" x="30.5" y="-110.3" font-family="Helvetica,sans-Serif" font-size="11.00" fill="#000000">outcome_id</text>
<polygon fill="none" stroke="#000000" points="231.5,-103.2 231.5,-125.2 293.5,-125.2 293.5,-103.2 231.5,-103.2"/>
<text text-anchor="start" x="234.378" y="-110.9" font-family="Helvetica,sans-Serif" font-size="11.00" fill="#000000">unknown[0]</text>
<polygon fill="none" stroke="#000000" points="10.5,-81.2 10.5,-103.2 231.5,-103.2 231.5,-81.2 10.5,-81.2"/>
<text text-anchor="start" x="30.5" y="-88.3" font-family="Helvetica,sans-Serif" font-size="11.00" fill="#000000">outcome_name</text>
<polygon fill="none" stroke="#000000" points="231.5,-81.2 231.5,-103.2 293.5,-103.2 293.5,-81.2 231.5,-81.2"/>
<text text-anchor="start" x="234.378" y="-88.9" font-family="Helvetica,sans-Serif" font-size="11.00" fill="#000000">unknown[0]</text>
<polygon fill="none" stroke="#000000" points="10.5,-59.2 10.5,-81.2 231.5,-81.2 231.5,-59.2 10.5,-59.2"/>
<text text-anchor="start" x="30.5" y="-66.3" font-family="Helvetica,sans-Serif" font-size="11.00" fill="#000000">ref_id</text>
<polygon fill="none" stroke="#000000" points="231.5,-59.2 231.5,-81.2 293.5,-81.2 293.5,-59.2 231.5,-59.2"/>
<text text-anchor="start" x="234.378" y="-66.9" font-family="Helvetica,sans-Serif" font-size="11.00" fill="#000000">unknown[0]</text>
<polygon fill="#ffffff" stroke="transparent" points="10.5,-40.2 10.5,-59.2 112.5,-59.2 112.5,-40.2 10.5,-40.2"/>
<polygon fill="none" stroke="#000000" points="10.5,-40.2 10.5,-59.2 112.5,-59.2 112.5,-40.2 10.5,-40.2"/>
<text text-anchor="start" x="13.5" y="-46.3" font-family="Helvetica,sans-Serif" font-size="11.00" fill="#000000">&lt; 0</text>
<polygon fill="#ffffff" stroke="transparent" points="112.5,-40.2 112.5,-59.2 231.5,-59.2 231.5,-40.2 112.5,-40.2"/>
<polygon fill="none" stroke="#000000" points="112.5,-40.2 112.5,-59.2 231.5,-59.2 231.5,-40.2 112.5,-40.2"/>
<text text-anchor="start" x="196.1105" y="-46.3" font-family="Helvetica,sans-Serif" font-size="11.00" fill="#000000">0 rows</text>
<polygon fill="#ffffff" stroke="transparent" points="231.5,-40.2 231.5,-59.2 293.5,-59.2 293.5,-40.2 231.5,-40.2"/>
<polygon fill="none" stroke="#000000" points="231.5,-40.2 231.5,-59.2 293.5,-59.2 293.5,-40.2 231.5,-40.2"/>
<text text-anchor="start" x="274.9053" y="-46.3" font-family="Helvetica,sans-Serif" font-size="11.00" fill="#000000">0 &gt;</text>
<polygon fill="none" stroke="#000000" stroke-width="2" points="9,-39.2 9,-215.2 294,-215.2 294,-39.2 9,-39.2"/>
</a>
</g>
</g>
</g>
</svg>
