<?xml version="1.0" encoding="UTF-8" standalone="no"?>
<!DOCTYPE svg PUBLIC "-//W3C//DTD SVG 1.1//EN"
 "http://www.w3.org/Graphics/SVG/1.1/DTD/svg11.dtd">
<!-- Generated by graphviz version 2.40.1 (20161225.0304)
 -->
<!-- Title: twoDegreesRelationshipsDiagram Pages: 1 -->
<svg width="480pt" height="573pt"
 viewBox="0.00 0.00 480.00 573.20" xmlns="http://www.w3.org/2000/svg" xmlns:xlink="http://www.w3.org/1999/xlink">
<g id="graph0" class="graph" transform="scale(1 1) rotate(0) translate(4 569.2)">
<title>twoDegreesRelationshipsDiagram</title>
<polygon fill="#ffffff" stroke="transparent" points="-4,4 -4,-569.2 476,-569.2 476,4 -4,4"/>
<text text-anchor="middle" x="72.4936" y="-7.3" font-family="Helvetica,sans-Serif" font-size="11.00" fill="#000000">Generated by SchemaSpy</text>
<!-- ci_incidence_summary -->
<g id="node1" class="node">
<title>ci_incidence_summary</title>
<g id="a_node1"><a xlink:href="../../tables/ci_incidence_summary.html" xlink:title="ci_incidence_summary" target="_top">
<polygon fill="#ffffff" stroke="transparent" points="253,-195.2 253,-410.2 464,-410.2 464,-195.2 253,-195.2"/>
<polygon fill="#f5f5f5" stroke="transparent" points="253.5,-386.7 253.5,-409.7 464.5,-409.7 464.5,-386.7 253.5,-386.7"/>
<polygon fill="none" stroke="#000000" points="253.5,-386.7 253.5,-409.7 464.5,-409.7 464.5,-386.7 253.5,-386.7"/>
<text text-anchor="start" x="258.5" y="-395.3" font-family="Helvetica,sans-Serif" font-weight="bold" font-size="11.00" fill="#000000">ci_incidence_summary</text>
<text text-anchor="start" x="429.5437" y="-394.8" font-family="Helvetica,sans-Serif" font-size="11.00" fill="#000000">[table]</text>
<polygon fill="none" stroke="#000000" points="253.5,-364.7 253.5,-386.7 464.5,-386.7 464.5,-364.7 253.5,-364.7"/>
<image xlink:href="../../images/foreignKeys.png" width="11px" height="12px" preserveAspectRatio="xMinYMin meet" x="258.5" y="-381.7"/>
<text text-anchor="start" x="273.5" y="-371.8" font-family="Helvetica,sans-Serif" font-size="11.00" fill="#000000">age_group_id</text>
<polygon fill="none" stroke="#000000" points="253.5,-342.7 253.5,-364.7 464.5,-364.7 464.5,-342.7 253.5,-342.7"/>
<image xlink:href="../../images/foreignKeys.png" width="11px" height="12px" preserveAspectRatio="xMinYMin meet" x="258.5" y="-359.7"/>
<text text-anchor="start" x="273.5" y="-349.8" font-family="Helvetica,sans-Serif" font-size="11.00" fill="#000000">database_id</text>
<polygon fill="none" stroke="#000000" points="253.5,-320.7 253.5,-342.7 464.5,-342.7 464.5,-320.7 253.5,-320.7"/>
<image xlink:href="../../images/foreignKeys.png" width="11px" height="12px" preserveAspectRatio="xMinYMin meet" x="258.5" y="-337.7"/>
<text text-anchor="start" x="273.5" y="-327.8" font-family="Helvetica,sans-Serif" font-size="11.00" fill="#000000">outcome_id</text>
<polygon fill="none" stroke="#000000" points="253.5,-298.7 253.5,-320.7 464.5,-320.7 464.5,-298.7 253.5,-298.7"/>
<image xlink:href="../../images/foreignKeys.png" width="11px" height="12px" preserveAspectRatio="xMinYMin meet" x="258.5" y="-315.7"/>
<text text-anchor="start" x="273.5" y="-305.8" font-family="Helvetica,sans-Serif" font-size="11.00" fill="#000000">ref_id</text>
<polygon fill="none" stroke="#000000" points="253.5,-276.7 253.5,-298.7 464.5,-298.7 464.5,-276.7 253.5,-276.7"/>
<image xlink:href="../../images/foreignKeys.png" width="11px" height="12px" preserveAspectRatio="xMinYMin meet" x="258.5" y="-293.7"/>
<text text-anchor="start" x="273.5" y="-283.8" font-family="Helvetica,sans-Serif" font-size="11.00" fill="#000000">subgroup_id</text>
<polygon fill="none" stroke="#000000" points="253.5,-254.7 253.5,-276.7 464.5,-276.7 464.5,-254.7 253.5,-254.7"/>
<image xlink:href="../../images/foreignKeys.png" width="11px" height="12px" preserveAspectRatio="xMinYMin meet" x="258.5" y="-271.7"/>
<text text-anchor="start" x="273.5" y="-261.8" font-family="Helvetica,sans-Serif" font-size="11.00" fill="#000000">tar_id</text>
<polygon fill="none" stroke="#000000" points="253.5,-232.7 253.5,-254.7 464.5,-254.7 464.5,-232.7 253.5,-232.7"/>
<image xlink:href="../../images/foreignKeys.png" width="11px" height="12px" preserveAspectRatio="xMinYMin meet" x="258.5" y="-249.7"/>
<text text-anchor="start" x="273.5" y="-239.8" font-family="Helvetica,sans-Serif" font-size="11.00" fill="#000000">target_cohort_definition_id</text>
<polygon fill="none" stroke="#000000" points="253.5,-213.7 253.5,-232.7 464.5,-232.7 464.5,-213.7 253.5,-213.7"/>
<text text-anchor="start" x="256.5" y="-219.8" font-family="Helvetica,sans-Serif" font-size="11.00" fill="#000000">...</text>
<polygon fill="#ffffff" stroke="transparent" points="253.5,-194.7 253.5,-213.7 347.5,-213.7 347.5,-194.7 253.5,-194.7"/>
<polygon fill="none" stroke="#000000" points="253.5,-194.7 253.5,-213.7 347.5,-213.7 347.5,-194.7 253.5,-194.7"/>
<text text-anchor="start" x="256.5" y="-200.8" font-family="Helvetica,sans-Serif" font-size="11.00" fill="#000000">&lt; 10</text>
<polygon fill="#ffffff" stroke="transparent" points="347.5,-194.7 347.5,-213.7 418.5,-213.7 418.5,-194.7 347.5,-194.7"/>
<polygon fill="none" stroke="#000000" points="347.5,-194.7 347.5,-213.7 418.5,-213.7 418.5,-194.7 347.5,-194.7"/>
<text text-anchor="start" x="383.1105" y="-200.8" font-family="Helvetica,sans-Serif" font-size="11.00" fill="#000000">0 rows</text>
<polygon fill="#ffffff" stroke="transparent" points="418.5,-194.7 418.5,-213.7 464.5,-213.7 464.5,-194.7 418.5,-194.7"/>
<polygon fill="none" stroke="#000000" points="418.5,-194.7 418.5,-213.7 464.5,-213.7 464.5,-194.7 418.5,-194.7"/>
<text text-anchor="start" x="455.3862" y="-200.8" font-family="Helvetica,sans-Serif" font-size="11.00" fill="#000000"> &#160;</text>
</a>
</g>
</g>
<!-- ci_age_group_def -->
<g id="node2" class="node">
<title>ci_age_group_def</title>
<g id="a_node2"><a xlink:href="../../tables/ci_age_group_def.html" xlink:title="ci_age_group_def" target="_top">
<polygon fill="#ffffff" stroke="transparent" points="29,-418.2 29,-479.2 183,-479.2 183,-418.2 29,-418.2"/>
<polygon fill="#f5f5f5" stroke="transparent" points="29,-455.7 29,-478.7 183,-478.7 183,-455.7 29,-455.7"/>
<polygon fill="none" stroke="#000000" points="29,-455.7 29,-478.7 183,-478.7 183,-455.7 29,-455.7"/>
<text text-anchor="start" x="34" y="-464.3" font-family="Helvetica,sans-Serif" font-weight="bold" font-size="11.00" fill="#000000">ci_age_group_def</text>
<text text-anchor="start" x="148.5219" y="-463.8" font-family="Helvetica,sans-Serif" font-size="11.00" fill="#000000">[table]</text>
<polygon fill="none" stroke="#000000" points="29,-436.7 29,-455.7 183,-455.7 183,-436.7 29,-436.7"/>
<text text-anchor="start" x="32" y="-442.8" font-family="Helvetica,sans-Serif" font-size="11.00" fill="#000000">...</text>
<polygon fill="#ffffff" stroke="transparent" points="29,-417.7 29,-436.7 82,-436.7 82,-417.7 29,-417.7"/>
<polygon fill="none" stroke="#000000" points="29,-417.7 29,-436.7 82,-436.7 82,-417.7 29,-417.7"/>
<text text-anchor="start" x="32" y="-423.8" font-family="Helvetica,sans-Serif" font-size="11.00" fill="#000000"> &#160;</text>
<polygon fill="#ffffff" stroke="transparent" points="82,-417.7 82,-436.7 141,-436.7 141,-417.7 82,-417.7"/>
<polygon fill="none" stroke="#000000" points="82,-417.7 82,-436.7 141,-436.7 141,-417.7 82,-417.7"/>
<text text-anchor="start" x="105.6105" y="-423.8" font-family="Helvetica,sans-Serif" font-size="11.00" fill="#000000">0 rows</text>
<polygon fill="#ffffff" stroke="transparent" points="141,-417.7 141,-436.7 183,-436.7 183,-417.7 141,-417.7"/>
<polygon fill="none" stroke="#000000" points="141,-417.7 141,-436.7 183,-436.7 183,-417.7 141,-417.7"/>
<text text-anchor="start" x="164.4053" y="-423.8" font-family="Helvetica,sans-Serif" font-size="11.00" fill="#000000">2 &gt;</text>
</a>
</g>
</g>
<!-- ci_incidence_summary&#45;&gt;ci_age_group_def -->
<g id="edge1" class="edge">
<title>ci_incidence_summary:w&#45;&gt;ci_age_group_def:e</title>
<path fill="none" stroke="#000000" d="M239.2479,-378.8897C212.9069,-392.5837 221.4633,-445.7 183,-445.7"/>
<polygon fill="#000000" stroke="#000000" points="245.6931,-377.4472 254.2863,-379.2131 249.5966,-376.5736 253.5,-375.7 253.5,-375.7 253.5,-375.7 249.5966,-376.5736 252.7137,-372.1869 245.6931,-377.4472 245.6931,-377.4472"/>
<ellipse fill="none" stroke="#000000" cx="242.5704" cy="-378.1461" rx="3.2" ry="3.2"/>
</g>
<!-- ci_incidence_summary&#45;&gt;ci_age_group_def -->
<g id="edge4" class="edge">
<title>ci_incidence_summary:w&#45;&gt;ci_age_group_def:e</title>
<path fill="none" stroke="#000000" d="M239.2976,-312.2953C195.2902,-331.0973 245.4982,-445.7 183,-445.7"/>
<polygon fill="#000000" stroke="#000000" points="245.6303,-311.1381 254.1472,-313.2414 249.5652,-310.4191 253.5,-309.7 253.5,-309.7 253.5,-309.7 249.5652,-310.4191 252.8528,-306.1586 245.6303,-311.1381 245.6303,-311.1381"/>
<ellipse fill="none" stroke="#000000" cx="242.4824" cy="-311.7134" rx="3.2" ry="3.2"/>
</g>
<!-- database_meta_data -->
<g id="node3" class="node">
<title>database_meta_data</title>
<g id="a_node3"><a xlink:href="../../tables/database_meta_data.html" xlink:title="database_meta_data" target="_top">
<polygon fill="#ffffff" stroke="transparent" points="17,-500.2 17,-561.2 195,-561.2 195,-500.2 17,-500.2"/>
<polygon fill="#f5f5f5" stroke="transparent" points="17,-537.7 17,-560.7 195,-560.7 195,-537.7 17,-537.7"/>
<polygon fill="none" stroke="#000000" points="17,-537.7 17,-560.7 195,-560.7 195,-537.7 17,-537.7"/>
<text text-anchor="start" x="22" y="-546.3" font-family="Helvetica,sans-Serif" font-weight="bold" font-size="11.00" fill="#000000">database_meta_data</text>
<text text-anchor="start" x="160.5219" y="-545.8" font-family="Helvetica,sans-Serif" font-size="11.00" fill="#000000">[table]</text>
<polygon fill="none" stroke="#000000" points="17,-518.7 17,-537.7 195,-537.7 195,-518.7 17,-518.7"/>
<text text-anchor="start" x="20" y="-524.8" font-family="Helvetica,sans-Serif" font-size="11.00" fill="#000000">...</text>
<polygon fill="#ffffff" stroke="transparent" points="17,-499.7 17,-518.7 84,-518.7 84,-499.7 17,-499.7"/>
<polygon fill="none" stroke="#000000" points="17,-499.7 17,-518.7 84,-518.7 84,-499.7 17,-499.7"/>
<text text-anchor="start" x="20" y="-505.8" font-family="Helvetica,sans-Serif" font-size="11.00" fill="#000000">&lt; 1</text>
<polygon fill="#ffffff" stroke="transparent" points="84,-499.7 84,-518.7 145,-518.7 145,-499.7 84,-499.7"/>
<polygon fill="none" stroke="#000000" points="84,-499.7 84,-518.7 145,-518.7 145,-499.7 84,-499.7"/>
<text text-anchor="start" x="109.6105" y="-505.8" font-family="Helvetica,sans-Serif" font-size="11.00" fill="#000000">0 rows</text>
<polygon fill="#ffffff" stroke="transparent" points="145,-499.7 145,-518.7 195,-518.7 195,-499.7 145,-499.7"/>
<polygon fill="none" stroke="#000000" points="145,-499.7 145,-518.7 195,-518.7 195,-499.7 145,-499.7"/>
<text text-anchor="start" x="170.2904" y="-505.8" font-family="Helvetica,sans-Serif" font-size="11.00" fill="#000000">17 &gt;</text>
</a>
</g>
</g>
<!-- ci_incidence_summary&#45;&gt;database_meta_data -->
<g id="edge2" class="edge">
<title>ci_incidence_summary:w&#45;&gt;database_meta_data:e</title>
<path fill="none" stroke="#000000" d="M239.2605,-356.0281C185.3535,-376.676 271.0098,-527.7 195,-527.7"/>
<polygon fill="#000000" stroke="#000000" points="245.6048,-354.9909 254.0809,-357.2528 249.5524,-354.3454 253.5,-353.7 253.5,-353.7 253.5,-353.7 249.5524,-354.3454 252.9191,-350.1472 245.6048,-354.9909 245.6048,-354.9909"/>
<ellipse fill="none" stroke="#000000" cx="242.4468" cy="-355.5073" rx="3.2" ry="3.2"/>
</g>
<!-- ci_outcome_def -->
<g id="node4" class="node">
<title>ci_outcome_def</title>
<g id="a_node4"><a xlink:href="../../tables/ci_outcome_def.html" xlink:title="ci_outcome_def" target="_top">
<polygon fill="#ffffff" stroke="transparent" points="35,-336.2 35,-397.2 177,-397.2 177,-336.2 35,-336.2"/>
<polygon fill="#f5f5f5" stroke="transparent" points="35,-373.7 35,-396.7 177,-396.7 177,-373.7 35,-373.7"/>
<polygon fill="none" stroke="#000000" points="35,-373.7 35,-396.7 177,-396.7 177,-373.7 35,-373.7"/>
<text text-anchor="start" x="40" y="-382.3" font-family="Helvetica,sans-Serif" font-weight="bold" font-size="11.00" fill="#000000">ci_outcome_def</text>
<text text-anchor="start" x="142.5219" y="-381.8" font-family="Helvetica,sans-Serif" font-size="11.00" fill="#000000">[table]</text>
<polygon fill="none" stroke="#000000" points="35,-354.7 35,-373.7 177,-373.7 177,-354.7 35,-354.7"/>
<text text-anchor="start" x="38" y="-360.8" font-family="Helvetica,sans-Serif" font-size="11.00" fill="#000000">...</text>
<polygon fill="#ffffff" stroke="transparent" points="35,-335.7 35,-354.7 82,-354.7 82,-335.7 35,-335.7"/>
<polygon fill="none" stroke="#000000" points="35,-335.7 35,-354.7 82,-354.7 82,-335.7 35,-335.7"/>
<text text-anchor="start" x="38" y="-341.8" font-family="Helvetica,sans-Serif" font-size="11.00" fill="#000000"> &#160;</text>
<polygon fill="#ffffff" stroke="transparent" points="82,-335.7 82,-354.7 138,-354.7 138,-335.7 82,-335.7"/>
<polygon fill="none" stroke="#000000" points="82,-335.7 82,-354.7 138,-354.7 138,-335.7 82,-335.7"/>
<text text-anchor="start" x="102.6105" y="-341.8" font-family="Helvetica,sans-Serif" font-size="11.00" fill="#000000">0 rows</text>
<polygon fill="#ffffff" stroke="transparent" points="138,-335.7 138,-354.7 177,-354.7 177,-335.7 138,-335.7"/>
<polygon fill="none" stroke="#000000" points="138,-335.7 138,-354.7 177,-354.7 177,-335.7 138,-335.7"/>
<text text-anchor="start" x="158.4053" y="-341.8" font-family="Helvetica,sans-Serif" font-size="11.00" fill="#000000">2 &gt;</text>
</a>
</g>
</g>
<!-- ci_incidence_summary&#45;&gt;ci_outcome_def -->
<g id="edge3" class="edge">
<title>ci_incidence_summary:w&#45;&gt;ci_outcome_def:e</title>
<path fill="none" stroke="#000000" d="M239.117,-333.6059C215.0663,-340.4949 208.3841,-363.7 177,-363.7"/>
<polygon fill="#000000" stroke="#000000" points="245.5693,-332.751 253.9729,-335.2688 249.5347,-332.2255 253.5,-331.7 253.5,-331.7 253.5,-331.7 249.5347,-332.2255 253.0271,-328.1312 245.5693,-332.751 245.5693,-332.751"/>
<ellipse fill="none" stroke="#000000" cx="242.3971" cy="-333.1713" rx="3.2" ry="3.2"/>
</g>
<!-- ci_incidence_summary&#45;&gt;ci_outcome_def -->
<g id="edge5" class="edge">
<title>ci_incidence_summary:w&#45;&gt;ci_outcome_def:e</title>
<path fill="none" stroke="#000000" d="M239.2502,-312.3045C212.8187,-323.0912 213.09,-363.7 177,-363.7"/>
<polygon fill="#000000" stroke="#000000" points="245.6304,-311.1384 254.1473,-313.2413 249.5652,-310.4192 253.5,-309.7 253.5,-309.7 253.5,-309.7 249.5652,-310.4192 252.8527,-306.1587 245.6304,-311.1384 245.6304,-311.1384"/>
<ellipse fill="none" stroke="#000000" cx="242.4825" cy="-311.7138" rx="3.2" ry="3.2"/>
</g>
<!-- ci_subgroup_def -->
<g id="node5" class="node">
<title>ci_subgroup_def</title>
<g id="a_node5"><a xlink:href="../../tables/ci_subgroup_def.html" xlink:title="ci_subgroup_def" target="_top">
<polygon fill="#ffffff" stroke="transparent" points="8,-202.7 8,-314.7 204,-314.7 204,-202.7 8,-202.7"/>
<polygon fill="#f5f5f5" stroke="transparent" points="10,-289.7 10,-312.7 202,-312.7 202,-289.7 10,-289.7"/>
<polygon fill="none" stroke="#000000" points="10,-289.7 10,-312.7 202,-312.7 202,-289.7 10,-289.7"/>
<text text-anchor="start" x="15" y="-298.3" font-family="Helvetica,sans-Serif" font-weight="bold" font-size="11.00" fill="#000000">ci_subgroup_def</text>
<text text-anchor="start" x="167.0437" y="-297.8" font-family="Helvetica,sans-Serif" font-size="11.00" fill="#000000">[table]</text>
<polygon fill="none" stroke="#000000" points="10,-267.7 10,-289.7 140,-289.7 140,-267.7 10,-267.7"/>
<image xlink:href="../../images/primaryKeys.png" width="11px" height="12px" preserveAspectRatio="xMinYMin meet" x="15" y="-284.7"/>
<text text-anchor="start" x="30" y="-274.8" font-family="Helvetica,sans-Serif" font-size="11.00" fill="#000000">ref_id</text>
<polygon fill="none" stroke="#000000" points="140,-267.7 140,-289.7 202,-289.7 202,-267.7 140,-267.7"/>
<text text-anchor="start" x="142.878" y="-275.4" font-family="Helvetica,sans-Serif" font-size="11.00" fill="#000000">unknown[0]</text>
<polygon fill="none" stroke="#000000" points="10,-245.7 10,-267.7 140,-267.7 140,-245.7 10,-245.7"/>
<image xlink:href="../../images/primaryKeys.png" width="11px" height="12px" preserveAspectRatio="xMinYMin meet" x="15" y="-262.7"/>
<text text-anchor="start" x="30" y="-252.8" font-family="Helvetica,sans-Serif" font-size="11.00" fill="#000000">subgroup_id</text>
<polygon fill="none" stroke="#000000" points="140,-245.7 140,-267.7 202,-267.7 202,-245.7 140,-245.7"/>
<text text-anchor="start" x="142.878" y="-253.4" font-family="Helvetica,sans-Serif" font-size="11.00" fill="#000000">unknown[0]</text>
<polygon fill="none" stroke="#000000" points="10,-223.7 10,-245.7 140,-245.7 140,-223.7 10,-223.7"/>
<text text-anchor="start" x="30" y="-230.8" font-family="Helvetica,sans-Serif" font-size="11.00" fill="#000000">subgroup_name</text>
<polygon fill="none" stroke="#000000" points="140,-223.7 140,-245.7 202,-245.7 202,-223.7 140,-223.7"/>
<text text-anchor="start" x="142.878" y="-231.4" font-family="Helvetica,sans-Serif" font-size="11.00" fill="#000000">unknown[0]</text>
<polygon fill="#ffffff" stroke="transparent" points="10,-204.7 10,-223.7 66,-223.7 66,-204.7 10,-204.7"/>
<polygon fill="none" stroke="#000000" points="10,-204.7 10,-223.7 66,-223.7 66,-204.7 10,-204.7"/>
<text text-anchor="start" x="13" y="-210.8" font-family="Helvetica,sans-Serif" font-size="11.00" fill="#000000">&lt; 0</text>
<polygon fill="#ffffff" stroke="transparent" points="66,-204.7 66,-223.7 140,-223.7 140,-204.7 66,-204.7"/>
<polygon fill="none" stroke="#000000" points="66,-204.7 66,-223.7 140,-223.7 140,-204.7 66,-204.7"/>
<text text-anchor="start" x="104.6105" y="-210.8" font-family="Helvetica,sans-Serif" font-size="11.00" fill="#000000">0 rows</text>
<polygon fill="#ffffff" stroke="transparent" points="140,-204.7 140,-223.7 202,-223.7 202,-204.7 140,-204.7"/>
<polygon fill="none" stroke="#000000" points="140,-204.7 140,-223.7 202,-223.7 202,-204.7 140,-204.7"/>
<text text-anchor="start" x="183.4053" y="-210.8" font-family="Helvetica,sans-Serif" font-size="11.00" fill="#000000">2 &gt;</text>
<polygon fill="none" stroke="#000000" stroke-width="2" points="9,-203.7 9,-313.7 203,-313.7 203,-203.7 9,-203.7"/>
</a>
</g>
</g>
<!-- ci_incidence_summary&#45;&gt;ci_subgroup_def -->
<g id="edge6" class="edge">
<title>ci_incidence_summary:w&#45;&gt;ci_subgroup_def:e</title>
<path fill="none" stroke="#000000" d="M239.4805,-305.8988C226.2585,-297.6209 222.8716,-278.7 202,-278.7"/>
<polygon fill="#000000" stroke="#000000" points="245.7788,-307.6064 252.5579,-313.1745 249.6394,-308.6532 253.5,-309.7 253.5,-309.7 253.5,-309.7 249.6394,-308.6532 254.4421,-306.2255 245.7788,-307.6064 245.7788,-307.6064"/>
<ellipse fill="none" stroke="#000000" cx="242.6903" cy="-306.769" rx="3.2" ry="3.2"/>
</g>
<!-- ci_incidence_summary&#45;&gt;ci_subgroup_def -->
<g id="edge8" class="edge">
<title>ci_incidence_summary:w&#45;&gt;ci_subgroup_def:e</title>
<path fill="none" stroke="#000000" d="M239.4805,-283.8988C226.2585,-275.6209 222.8716,-256.7 202,-256.7"/>
<polygon fill="#000000" stroke="#000000" points="245.7788,-285.6064 252.5579,-291.1745 249.6394,-286.6532 253.5,-287.7 253.5,-287.7 253.5,-287.7 249.6394,-286.6532 254.4421,-284.2255 245.7788,-285.6064 245.7788,-285.6064"/>
<ellipse fill="none" stroke="#000000" cx="242.6903" cy="-284.769" rx="3.2" ry="3.2"/>
</g>
<!-- ci_tar_def -->
<g id="node6" class="node">
<title>ci_tar_def</title>
<g id="a_node6"><a xlink:href="../../tables/ci_tar_def.html" xlink:title="ci_tar_def" target="_top">
<polygon fill="#ffffff" stroke="transparent" points="54.5,-120.2 54.5,-181.2 157.5,-181.2 157.5,-120.2 54.5,-120.2"/>
<polygon fill="#f5f5f5" stroke="transparent" points="55,-157.7 55,-180.7 158,-180.7 158,-157.7 55,-157.7"/>
<polygon fill="none" stroke="#000000" points="55,-157.7 55,-180.7 158,-180.7 158,-157.7 55,-157.7"/>
<text text-anchor="start" x="60" y="-166.3" font-family="Helvetica,sans-Serif" font-weight="bold" font-size="11.00" fill="#000000">ci_tar_def</text>
<text text-anchor="start" x="123.5219" y="-165.8" font-family="Helvetica,sans-Serif" font-size="11.00" fill="#000000">[table]</text>
<polygon fill="none" stroke="#000000" points="55,-138.7 55,-157.7 158,-157.7 158,-138.7 55,-138.7"/>
<text text-anchor="start" x="58" y="-144.8" font-family="Helvetica,sans-Serif" font-size="11.00" fill="#000000">...</text>
<polygon fill="#ffffff" stroke="transparent" points="55,-119.7 55,-138.7 83,-138.7 83,-119.7 55,-119.7"/>
<polygon fill="none" stroke="#000000" points="55,-119.7 55,-138.7 83,-138.7 83,-119.7 55,-119.7"/>
<text text-anchor="start" x="58" y="-125.8" font-family="Helvetica,sans-Serif" font-size="11.00" fill="#000000"> &#160;</text>
<polygon fill="#ffffff" stroke="transparent" points="83,-119.7 83,-138.7 129,-138.7 129,-119.7 83,-119.7"/>
<polygon fill="none" stroke="#000000" points="83,-119.7 83,-138.7 129,-138.7 129,-119.7 83,-119.7"/>
<text text-anchor="start" x="93.6105" y="-125.8" font-family="Helvetica,sans-Serif" font-size="11.00" fill="#000000">0 rows</text>
<polygon fill="#ffffff" stroke="transparent" points="129,-119.7 129,-138.7 158,-138.7 158,-119.7 129,-119.7"/>
<polygon fill="none" stroke="#000000" points="129,-119.7 129,-138.7 158,-138.7 158,-119.7 129,-119.7"/>
<text text-anchor="start" x="139.4053" y="-125.8" font-family="Helvetica,sans-Serif" font-size="11.00" fill="#000000">2 &gt;</text>
</a>
</g>
</g>
<!-- ci_incidence_summary&#45;&gt;ci_tar_def -->
<g id="edge7" class="edge">
<title>ci_incidence_summary:w&#45;&gt;ci_tar_def:e</title>
<path fill="none" stroke="#000000" d="M239.1847,-307.4216C207.0089,-294.8642 240.2115,-233.1974 212,-192.7 194.1426,-167.0658 189.241,-147.7 158,-147.7"/>
<polygon fill="#000000" stroke="#000000" points="245.5994,-308.4425 252.9341,-313.2553 249.5497,-309.0712 253.5,-309.7 253.5,-309.7 253.5,-309.7 249.5497,-309.0712 254.0659,-306.1447 245.5994,-308.4425 245.5994,-308.4425"/>
<ellipse fill="none" stroke="#000000" cx="242.4392" cy="-307.9395" rx="3.2" ry="3.2"/>
</g>
<!-- ci_incidence_summary&#45;&gt;ci_tar_def -->
<g id="edge9" class="edge">
<title>ci_incidence_summary:w&#45;&gt;ci_tar_def:e</title>
<path fill="none" stroke="#000000" d="M239.2956,-262.3825C221.4876,-251.5644 232.0144,-216.6317 212,-192.7 191.9579,-168.7352 189.241,-147.7 158,-147.7"/>
<polygon fill="#000000" stroke="#000000" points="245.7097,-263.8805 252.6812,-269.2057 249.6048,-264.7902 253.5,-265.7 253.5,-265.7 253.5,-265.7 249.6048,-264.7902 254.3188,-262.1943 245.7097,-263.8805 245.7097,-263.8805"/>
<ellipse fill="none" stroke="#000000" cx="242.5935" cy="-263.1527" rx="3.2" ry="3.2"/>
</g>
<!-- cg_cohort_definition -->
<g id="node7" class="node">
<title>cg_cohort_definition</title>
<g id="a_node7"><a xlink:href="../../tables/cg_cohort_definition.html" xlink:title="cg_cohort_definition" target="_top">
<polygon fill="#ffffff" stroke="transparent" points="18.5,-38.2 18.5,-99.2 193.5,-99.2 193.5,-38.2 18.5,-38.2"/>
<polygon fill="#f5f5f5" stroke="transparent" points="19,-75.7 19,-98.7 194,-98.7 194,-75.7 19,-75.7"/>
<polygon fill="none" stroke="#000000" points="19,-75.7 19,-98.7 194,-98.7 194,-75.7 19,-75.7"/>
<text text-anchor="start" x="24" y="-84.3" font-family="Helvetica,sans-Serif" font-weight="bold" font-size="11.00" fill="#000000">cg_cohort_definition</text>
<text text-anchor="start" x="159.5219" y="-83.8" font-family="Helvetica,sans-Serif" font-size="11.00" fill="#000000">[table]</text>
<polygon fill="none" stroke="#000000" points="19,-56.7 19,-75.7 194,-75.7 194,-56.7 19,-56.7"/>
<text text-anchor="start" x="22" y="-62.8" font-family="Helvetica,sans-Serif" font-size="11.00" fill="#000000">...</text>
<polygon fill="#ffffff" stroke="transparent" points="19,-37.7 19,-56.7 80,-56.7 80,-37.7 19,-37.7"/>
<polygon fill="none" stroke="#000000" points="19,-37.7 19,-56.7 80,-56.7 80,-37.7 19,-37.7"/>
<text text-anchor="start" x="22" y="-43.8" font-family="Helvetica,sans-Serif" font-size="11.00" fill="#000000"> &#160;</text>
<polygon fill="#ffffff" stroke="transparent" points="80,-37.7 80,-56.7 142,-56.7 142,-37.7 80,-37.7"/>
<polygon fill="none" stroke="#000000" points="80,-37.7 80,-56.7 142,-56.7 142,-37.7 80,-37.7"/>
<text text-anchor="start" x="106.6105" y="-43.8" font-family="Helvetica,sans-Serif" font-size="11.00" fill="#000000">0 rows</text>
<polygon fill="#ffffff" stroke="transparent" points="142,-37.7 142,-56.7 194,-56.7 194,-37.7 142,-37.7"/>
<polygon fill="none" stroke="#000000" points="142,-37.7 142,-56.7 194,-56.7 194,-37.7 142,-37.7"/>
<text text-anchor="start" x="169.2904" y="-43.8" font-family="Helvetica,sans-Serif" font-size="11.00" fill="#000000">17 &gt;</text>
</a>
</g>
</g>
<!-- ci_incidence_summary&#45;&gt;cg_cohort_definition -->
<g id="edge10" class="edge">
<title>ci_incidence_summary:w&#45;&gt;cg_cohort_definition:e</title>
<path fill="none" stroke="#000000" d="M238.9458,-241.3183C183.8685,-220.1959 271.7118,-65.7 194,-65.7"/>
<polygon fill="#000000" stroke="#000000" points="245.605,-242.408 252.9186,-247.2527 249.5525,-243.054 253.5,-243.7 253.5,-243.7 253.5,-243.7 249.5525,-243.054 254.0814,-240.1473 245.605,-242.408 245.605,-242.408"/>
<ellipse fill="none" stroke="#000000" cx="242.447" cy="-241.8912" rx="3.2" ry="3.2"/>
</g>
</g>
</svg>
