<?xml version="1.0" encoding="UTF-8" standalone="no"?>
<!DOCTYPE svg PUBLIC "-//W3C//DTD SVG 1.1//EN"
 "http://www.w3.org/Graphics/SVG/1.1/DTD/svg11.dtd">
<!-- Generated by graphviz version 2.40.1 (20161225.0304)
 -->
<!-- Title: oneDegreeRelationshipsDiagram Pages: 1 -->
<svg width="480pt" height="265pt"
 viewBox="0.00 0.00 480.00 265.20" xmlns="http://www.w3.org/2000/svg" xmlns:xlink="http://www.w3.org/1999/xlink">
<g id="graph0" class="graph" transform="scale(1 1) rotate(0) translate(4 261.2)">
<title>oneDegreeRelationshipsDiagram</title>
<polygon fill="#ffffff" stroke="transparent" points="-4,4 -4,-261.2 476,-261.2 476,4 -4,4"/>
<text text-anchor="middle" x="72.4936" y="-7.3" font-family="Helvetica,sans-Serif" font-size="11.00" fill="#000000">Generated by SchemaSpy</text>
<!-- ci_incidence_summary -->
<g id="node1" class="node">
<title>ci_incidence_summary</title>
<g id="a_node1"><a xlink:href="../../tables/ci_incidence_summary.html" xlink:title="ci_incidence_summary" target="_top">
<polygon fill="#ffffff" stroke="transparent" points="253,-38.2 253,-253.2 464,-253.2 464,-38.2 253,-38.2"/>
<polygon fill="#f5f5f5" stroke="transparent" points="253.5,-229.7 253.5,-252.7 464.5,-252.7 464.5,-229.7 253.5,-229.7"/>
<polygon fill="none" stroke="#000000" points="253.5,-229.7 253.5,-252.7 464.5,-252.7 464.5,-229.7 253.5,-229.7"/>
<text text-anchor="start" x="258.5" y="-238.3" font-family="Helvetica,sans-Serif" font-weight="bold" font-size="11.00" fill="#000000">ci_incidence_summary</text>
<text text-anchor="start" x="429.5437" y="-237.8" font-family="Helvetica,sans-Serif" font-size="11.00" fill="#000000">[table]</text>
<polygon fill="none" stroke="#000000" points="253.5,-207.7 253.5,-229.7 464.5,-229.7 464.5,-207.7 253.5,-207.7"/>
<image xlink:href="../../images/foreignKeys.png" width="11px" height="12px" preserveAspectRatio="xMinYMin meet" x="258.5" y="-224.7"/>
<text text-anchor="start" x="273.5" y="-214.8" font-family="Helvetica,sans-Serif" font-size="11.00" fill="#000000">age_group_id</text>
<polygon fill="none" stroke="#000000" points="253.5,-185.7 253.5,-207.7 464.5,-207.7 464.5,-185.7 253.5,-185.7"/>
<image xlink:href="../../images/foreignKeys.png" width="11px" height="12px" preserveAspectRatio="xMinYMin meet" x="258.5" y="-202.7"/>
<text text-anchor="start" x="273.5" y="-192.8" font-family="Helvetica,sans-Serif" font-size="11.00" fill="#000000">database_id</text>
<polygon fill="none" stroke="#000000" points="253.5,-163.7 253.5,-185.7 464.5,-185.7 464.5,-163.7 253.5,-163.7"/>
<image xlink:href="../../images/foreignKeys.png" width="11px" height="12px" preserveAspectRatio="xMinYMin meet" x="258.5" y="-180.7"/>
<text text-anchor="start" x="273.5" y="-170.8" font-family="Helvetica,sans-Serif" font-size="11.00" fill="#000000">outcome_id</text>
<polygon fill="none" stroke="#000000" points="253.5,-141.7 253.5,-163.7 464.5,-163.7 464.5,-141.7 253.5,-141.7"/>
<image xlink:href="../../images/foreignKeys.png" width="11px" height="12px" preserveAspectRatio="xMinYMin meet" x="258.5" y="-158.7"/>
<text text-anchor="start" x="273.5" y="-148.8" font-family="Helvetica,sans-Serif" font-size="11.00" fill="#000000">ref_id</text>
<polygon fill="none" stroke="#000000" points="253.5,-119.7 253.5,-141.7 464.5,-141.7 464.5,-119.7 253.5,-119.7"/>
<image xlink:href="../../images/foreignKeys.png" width="11px" height="12px" preserveAspectRatio="xMinYMin meet" x="258.5" y="-136.7"/>
<text text-anchor="start" x="273.5" y="-126.8" font-family="Helvetica,sans-Serif" font-size="11.00" fill="#000000">subgroup_id</text>
<polygon fill="none" stroke="#000000" points="253.5,-97.7 253.5,-119.7 464.5,-119.7 464.5,-97.7 253.5,-97.7"/>
<image xlink:href="../../images/foreignKeys.png" width="11px" height="12px" preserveAspectRatio="xMinYMin meet" x="258.5" y="-114.7"/>
<text text-anchor="start" x="273.5" y="-104.8" font-family="Helvetica,sans-Serif" font-size="11.00" fill="#000000">tar_id</text>
<polygon fill="none" stroke="#000000" points="253.5,-75.7 253.5,-97.7 464.5,-97.7 464.5,-75.7 253.5,-75.7"/>
<image xlink:href="../../images/foreignKeys.png" width="11px" height="12px" preserveAspectRatio="xMinYMin meet" x="258.5" y="-92.7"/>
<text text-anchor="start" x="273.5" y="-82.8" font-family="Helvetica,sans-Serif" font-size="11.00" fill="#000000">target_cohort_definition_id</text>
<polygon fill="none" stroke="#000000" points="253.5,-56.7 253.5,-75.7 464.5,-75.7 464.5,-56.7 253.5,-56.7"/>
<text text-anchor="start" x="256.5" y="-62.8" font-family="Helvetica,sans-Serif" font-size="11.00" fill="#000000">...</text>
<polygon fill="#ffffff" stroke="transparent" points="253.5,-37.7 253.5,-56.7 347.5,-56.7 347.5,-37.7 253.5,-37.7"/>
<polygon fill="none" stroke="#000000" points="253.5,-37.7 253.5,-56.7 347.5,-56.7 347.5,-37.7 253.5,-37.7"/>
<text text-anchor="start" x="256.5" y="-43.8" font-family="Helvetica,sans-Serif" font-size="11.00" fill="#000000">&lt; 10</text>
<polygon fill="#ffffff" stroke="transparent" points="347.5,-37.7 347.5,-56.7 418.5,-56.7 418.5,-37.7 347.5,-37.7"/>
<polygon fill="none" stroke="#000000" points="347.5,-37.7 347.5,-56.7 418.5,-56.7 418.5,-37.7 347.5,-37.7"/>
<text text-anchor="start" x="383.1105" y="-43.8" font-family="Helvetica,sans-Serif" font-size="11.00" fill="#000000">0 rows</text>
<polygon fill="#ffffff" stroke="transparent" points="418.5,-37.7 418.5,-56.7 464.5,-56.7 464.5,-37.7 418.5,-37.7"/>
<polygon fill="none" stroke="#000000" points="418.5,-37.7 418.5,-56.7 464.5,-56.7 464.5,-37.7 418.5,-37.7"/>
<text text-anchor="start" x="455.3862" y="-43.8" font-family="Helvetica,sans-Serif" font-size="11.00" fill="#000000"> &#160;</text>
</a>
</g>
</g>
<!-- ci_subgroup_def -->
<g id="node2" class="node">
<title>ci_subgroup_def</title>
<g id="a_node2"><a xlink:href="../../tables/ci_subgroup_def.html" xlink:title="ci_subgroup_def" target="_top">
<polygon fill="#ffffff" stroke="transparent" points="8,-76.7 8,-188.7 204,-188.7 204,-76.7 8,-76.7"/>
<polygon fill="#f5f5f5" stroke="transparent" points="10,-163.7 10,-186.7 202,-186.7 202,-163.7 10,-163.7"/>
<polygon fill="none" stroke="#000000" points="10,-163.7 10,-186.7 202,-186.7 202,-163.7 10,-163.7"/>
<text text-anchor="start" x="15" y="-172.3" font-family="Helvetica,sans-Serif" font-weight="bold" font-size="11.00" fill="#000000">ci_subgroup_def</text>
<text text-anchor="start" x="167.0437" y="-171.8" font-family="Helvetica,sans-Serif" font-size="11.00" fill="#000000">[table]</text>
<polygon fill="none" stroke="#000000" points="10,-141.7 10,-163.7 140,-163.7 140,-141.7 10,-141.7"/>
<image xlink:href="../../images/primaryKeys.png" width="11px" height="12px" preserveAspectRatio="xMinYMin meet" x="15" y="-158.7"/>
<text text-anchor="start" x="30" y="-148.8" font-family="Helvetica,sans-Serif" font-size="11.00" fill="#000000">ref_id</text>
<polygon fill="none" stroke="#000000" points="140,-141.7 140,-163.7 202,-163.7 202,-141.7 140,-141.7"/>
<text text-anchor="start" x="142.878" y="-149.4" font-family="Helvetica,sans-Serif" font-size="11.00" fill="#000000">unknown[0]</text>
<polygon fill="none" stroke="#000000" points="10,-119.7 10,-141.7 140,-141.7 140,-119.7 10,-119.7"/>
<image xlink:href="../../images/primaryKeys.png" width="11px" height="12px" preserveAspectRatio="xMinYMin meet" x="15" y="-136.7"/>
<text text-anchor="start" x="30" y="-126.8" font-family="Helvetica,sans-Serif" font-size="11.00" fill="#000000">subgroup_id</text>
<polygon fill="none" stroke="#000000" points="140,-119.7 140,-141.7 202,-141.7 202,-119.7 140,-119.7"/>
<text text-anchor="start" x="142.878" y="-127.4" font-family="Helvetica,sans-Serif" font-size="11.00" fill="#000000">unknown[0]</text>
<polygon fill="none" stroke="#000000" points="10,-97.7 10,-119.7 140,-119.7 140,-97.7 10,-97.7"/>
<text text-anchor="start" x="30" y="-104.8" font-family="Helvetica,sans-Serif" font-size="11.00" fill="#000000">subgroup_name</text>
<polygon fill="none" stroke="#000000" points="140,-97.7 140,-119.7 202,-119.7 202,-97.7 140,-97.7"/>
<text text-anchor="start" x="142.878" y="-105.4" font-family="Helvetica,sans-Serif" font-size="11.00" fill="#000000">unknown[0]</text>
<polygon fill="#ffffff" stroke="transparent" points="10,-78.7 10,-97.7 66,-97.7 66,-78.7 10,-78.7"/>
<polygon fill="none" stroke="#000000" points="10,-78.7 10,-97.7 66,-97.7 66,-78.7 10,-78.7"/>
<text text-anchor="start" x="13" y="-84.8" font-family="Helvetica,sans-Serif" font-size="11.00" fill="#000000">&lt; 0</text>
<polygon fill="#ffffff" stroke="transparent" points="66,-78.7 66,-97.7 140,-97.7 140,-78.7 66,-78.7"/>
<polygon fill="none" stroke="#000000" points="66,-78.7 66,-97.7 140,-97.7 140,-78.7 66,-78.7"/>
<text text-anchor="start" x="104.6105" y="-84.8" font-family="Helvetica,sans-Serif" font-size="11.00" fill="#000000">0 rows</text>
<polygon fill="#ffffff" stroke="transparent" points="140,-78.7 140,-97.7 202,-97.7 202,-78.7 140,-78.7"/>
<polygon fill="none" stroke="#000000" points="140,-78.7 140,-97.7 202,-97.7 202,-78.7 140,-78.7"/>
<text text-anchor="start" x="183.4053" y="-84.8" font-family="Helvetica,sans-Serif" font-size="11.00" fill="#000000">2 &gt;</text>
<polygon fill="none" stroke="#000000" stroke-width="2" points="9,-77.7 9,-187.7 203,-187.7 203,-77.7 9,-77.7"/>
</a>
</g>
</g>
<!-- ci_incidence_summary&#45;&gt;ci_subgroup_def -->
<g id="edge1" class="edge">
<title>ci_incidence_summary:w&#45;&gt;ci_subgroup_def:e</title>
<path fill="none" stroke="#000000" d="M239.0156,-152.7C226.6771,-152.7 219.1667,-152.7 202,-152.7"/>
<polygon fill="#000000" stroke="#000000" points="245.5,-152.7001 253.5,-156.3 249.5,-152.7 253.5,-152.7 253.5,-152.7 253.5,-152.7 249.5,-152.7 253.5,-149.1 245.5,-152.7001 245.5,-152.7001"/>
<ellipse fill="none" stroke="#000000" cx="242.3" cy="-152.7001" rx="3.2" ry="3.2"/>
</g>
<!-- ci_incidence_summary&#45;&gt;ci_subgroup_def -->
<g id="edge2" class="edge">
<title>ci_incidence_summary:w&#45;&gt;ci_subgroup_def:e</title>
<path fill="none" stroke="#000000" d="M239.0156,-130.7C226.6771,-130.7 219.1667,-130.7 202,-130.7"/>
<polygon fill="#000000" stroke="#000000" points="245.5,-130.7001 253.5,-134.3 249.5,-130.7 253.5,-130.7 253.5,-130.7 253.5,-130.7 249.5,-130.7 253.5,-127.1 245.5,-130.7001 245.5,-130.7001"/>
<ellipse fill="none" stroke="#000000" cx="242.3" cy="-130.7001" rx="3.2" ry="3.2"/>
</g>
</g>
</svg>
