<?xml version="1.0" encoding="UTF-8" standalone="no"?>
<!DOCTYPE svg PUBLIC "-//W3C//DTD SVG 1.1//EN"
 "http://www.w3.org/Graphics/SVG/1.1/DTD/svg11.dtd">
<!-- Generated by graphviz version 2.40.1 (20161225.0304)
 -->
<!-- Title: oneDegreeRelationshipsDiagram Pages: 1 -->
<svg width="293pt" height="162pt"
 viewBox="0.00 0.00 293.00 162.20" xmlns="http://www.w3.org/2000/svg" xmlns:xlink="http://www.w3.org/1999/xlink">
<g id="graph0" class="graph" transform="scale(1 1) rotate(0) translate(4 158.2)">
<title>oneDegreeRelationshipsDiagram</title>
<polygon fill="#ffffff" stroke="transparent" points="-4,4 -4,-158.2 289,-158.2 289,4 -4,4"/>
<text text-anchor="middle" x="72.4936" y="-7.3" font-family="Helvetica,sans-Serif" font-size="11.00" fill="#000000">Generated by SchemaSpy</text>
<!-- ci_target_def -->
<g id="node1" class="node">
<title>ci_target_def</title>
<g id="a_node1"><a xlink:href="../../tables/ci_target_def.html" xlink:title="ci_target_def" target="_top">
<polygon fill="#ffffff" stroke="transparent" points="8,-38.2 8,-150.2 277,-150.2 277,-38.2 8,-38.2"/>
<polygon fill="#f5f5f5" stroke="transparent" points="10.5,-125.2 10.5,-148.2 275.5,-148.2 275.5,-125.2 10.5,-125.2"/>
<polygon fill="none" stroke="#000000" points="10.5,-125.2 10.5,-148.2 275.5,-148.2 275.5,-125.2 10.5,-125.2"/>
<text text-anchor="start" x="15.5" y="-133.8" font-family="Helvetica,sans-Serif" font-weight="bold" font-size="11.00" fill="#000000">ci_target_def</text>
<text text-anchor="start" x="240.5437" y="-133.3" font-family="Helvetica,sans-Serif" font-size="11.00" fill="#000000">[table]</text>
<polygon fill="none" stroke="#000000" points="10.5,-103.2 10.5,-125.2 213.5,-125.2 213.5,-103.2 10.5,-103.2"/>
<text text-anchor="start" x="30.5" y="-110.3" font-family="Helvetica,sans-Serif" font-size="11.00" fill="#000000">ref_id</text>
<polygon fill="none" stroke="#000000" points="213.5,-103.2 213.5,-125.2 275.5,-125.2 275.5,-103.2 213.5,-103.2"/>
<text text-anchor="start" x="216.378" y="-110.9" font-family="Helvetica,sans-Serif" font-size="11.00" fill="#000000">unknown[0]</text>
<polygon fill="none" stroke="#000000" points="10.5,-81.2 10.5,-103.2 213.5,-103.2 213.5,-81.2 10.5,-81.2"/>
<text text-anchor="start" x="30.5" y="-88.3" font-family="Helvetica,sans-Serif" font-size="11.00" fill="#000000">target_cohort_definition_id</text>
<polygon fill="none" stroke="#000000" points="213.5,-81.2 213.5,-103.2 275.5,-103.2 275.5,-81.2 213.5,-81.2"/>
<text text-anchor="start" x="216.378" y="-88.9" font-family="Helvetica,sans-Serif" font-size="11.00" fill="#000000">unknown[0]</text>
<polygon fill="none" stroke="#000000" points="10.5,-59.2 10.5,-81.2 213.5,-81.2 213.5,-59.2 10.5,-59.2"/>
<text text-anchor="start" x="30.5" y="-66.3" font-family="Helvetica,sans-Serif" font-size="11.00" fill="#000000">target_name</text>
<polygon fill="none" stroke="#000000" points="213.5,-59.2 213.5,-81.2 275.5,-81.2 275.5,-59.2 213.5,-59.2"/>
<text text-anchor="start" x="216.378" y="-66.9" font-family="Helvetica,sans-Serif" font-size="11.00" fill="#000000">unknown[0]</text>
<polygon fill="#ffffff" stroke="transparent" points="10.5,-40.2 10.5,-59.2 103.5,-59.2 103.5,-40.2 10.5,-40.2"/>
<polygon fill="none" stroke="#000000" points="10.5,-40.2 10.5,-59.2 103.5,-59.2 103.5,-40.2 10.5,-40.2"/>
<text text-anchor="start" x="13.5" y="-46.3" font-family="Helvetica,sans-Serif" font-size="11.00" fill="#000000">&lt; 0</text>
<polygon fill="#ffffff" stroke="transparent" points="103.5,-40.2 103.5,-59.2 213.5,-59.2 213.5,-40.2 103.5,-40.2"/>
<polygon fill="none" stroke="#000000" points="103.5,-40.2 103.5,-59.2 213.5,-59.2 213.5,-40.2 103.5,-40.2"/>
<text text-anchor="start" x="178.1105" y="-46.3" font-family="Helvetica,sans-Serif" font-size="11.00" fill="#000000">0 rows</text>
<polygon fill="#ffffff" stroke="transparent" points="213.5,-40.2 213.5,-59.2 275.5,-59.2 275.5,-40.2 213.5,-40.2"/>
<polygon fill="none" stroke="#000000" points="213.5,-40.2 213.5,-59.2 275.5,-59.2 275.5,-40.2 213.5,-40.2"/>
<text text-anchor="start" x="256.9053" y="-46.3" font-family="Helvetica,sans-Serif" font-size="11.00" fill="#000000">0 &gt;</text>
<polygon fill="none" stroke="#000000" stroke-width="2" points="9,-39.2 9,-149.2 276,-149.2 276,-39.2 9,-39.2"/>
</a>
</g>
</g>
</g>
</svg>
