<?xml version="1.0" encoding="UTF-8" standalone="no"?>
<!DOCTYPE svg PUBLIC "-//W3C//DTD SVG 1.1//EN"
 "http://www.w3.org/Graphics/SVG/1.1/DTD/svg11.dtd">
<!-- Generated by graphviz version 2.40.1 (20161225.0304)
 -->
<!-- Title: twoDegreesRelationshipsDiagram Pages: 1 -->
<svg width="475pt" height="639pt"
 viewBox="0.00 0.00 475.00 639.20" xmlns="http://www.w3.org/2000/svg" xmlns:xlink="http://www.w3.org/1999/xlink">
<g id="graph0" class="graph" transform="scale(1 1) rotate(0) translate(4 635.2)">
<title>twoDegreesRelationshipsDiagram</title>
<polygon fill="#ffffff" stroke="transparent" points="-4,4 -4,-635.2 471,-635.2 471,4 -4,4"/>
<text text-anchor="middle" x="72.4936" y="-7.3" font-family="Helvetica,sans-Serif" font-size="11.00" fill="#000000">Generated by SchemaSpy</text>
<!-- ci_incidence_summary -->
<g id="node1" class="node">
<title>ci_incidence_summary</title>
<g id="a_node1"><a xlink:href="../../tables/ci_incidence_summary.html" xlink:title="ci_incidence_summary" target="_top">
<polygon fill="#ffffff" stroke="transparent" points="248,-274.2 248,-489.2 459,-489.2 459,-274.2 248,-274.2"/>
<polygon fill="#f5f5f5" stroke="transparent" points="248.5,-465.7 248.5,-488.7 459.5,-488.7 459.5,-465.7 248.5,-465.7"/>
<polygon fill="none" stroke="#000000" points="248.5,-465.7 248.5,-488.7 459.5,-488.7 459.5,-465.7 248.5,-465.7"/>
<text text-anchor="start" x="253.5" y="-474.3" font-family="Helvetica,sans-Serif" font-weight="bold" font-size="11.00" fill="#000000">ci_incidence_summary</text>
<text text-anchor="start" x="424.5437" y="-473.8" font-family="Helvetica,sans-Serif" font-size="11.00" fill="#000000">[table]</text>
<polygon fill="none" stroke="#000000" points="248.5,-443.7 248.5,-465.7 459.5,-465.7 459.5,-443.7 248.5,-443.7"/>
<image xlink:href="../../images/foreignKeys.png" width="11px" height="12px" preserveAspectRatio="xMinYMin meet" x="253.5" y="-460.7"/>
<text text-anchor="start" x="268.5" y="-450.8" font-family="Helvetica,sans-Serif" font-size="11.00" fill="#000000">age_group_id</text>
<polygon fill="none" stroke="#000000" points="248.5,-421.7 248.5,-443.7 459.5,-443.7 459.5,-421.7 248.5,-421.7"/>
<image xlink:href="../../images/foreignKeys.png" width="11px" height="12px" preserveAspectRatio="xMinYMin meet" x="253.5" y="-438.7"/>
<text text-anchor="start" x="268.5" y="-428.8" font-family="Helvetica,sans-Serif" font-size="11.00" fill="#000000">database_id</text>
<polygon fill="none" stroke="#000000" points="248.5,-399.7 248.5,-421.7 459.5,-421.7 459.5,-399.7 248.5,-399.7"/>
<image xlink:href="../../images/foreignKeys.png" width="11px" height="12px" preserveAspectRatio="xMinYMin meet" x="253.5" y="-416.7"/>
<text text-anchor="start" x="268.5" y="-406.8" font-family="Helvetica,sans-Serif" font-size="11.00" fill="#000000">outcome_id</text>
<polygon fill="none" stroke="#000000" points="248.5,-377.7 248.5,-399.7 459.5,-399.7 459.5,-377.7 248.5,-377.7"/>
<image xlink:href="../../images/foreignKeys.png" width="11px" height="12px" preserveAspectRatio="xMinYMin meet" x="253.5" y="-394.7"/>
<text text-anchor="start" x="268.5" y="-384.8" font-family="Helvetica,sans-Serif" font-size="11.00" fill="#000000">ref_id</text>
<polygon fill="none" stroke="#000000" points="248.5,-355.7 248.5,-377.7 459.5,-377.7 459.5,-355.7 248.5,-355.7"/>
<image xlink:href="../../images/foreignKeys.png" width="11px" height="12px" preserveAspectRatio="xMinYMin meet" x="253.5" y="-372.7"/>
<text text-anchor="start" x="268.5" y="-362.8" font-family="Helvetica,sans-Serif" font-size="11.00" fill="#000000">subgroup_id</text>
<polygon fill="none" stroke="#000000" points="248.5,-333.7 248.5,-355.7 459.5,-355.7 459.5,-333.7 248.5,-333.7"/>
<image xlink:href="../../images/foreignKeys.png" width="11px" height="12px" preserveAspectRatio="xMinYMin meet" x="253.5" y="-350.7"/>
<text text-anchor="start" x="268.5" y="-340.8" font-family="Helvetica,sans-Serif" font-size="11.00" fill="#000000">tar_id</text>
<polygon fill="none" stroke="#000000" points="248.5,-311.7 248.5,-333.7 459.5,-333.7 459.5,-311.7 248.5,-311.7"/>
<image xlink:href="../../images/foreignKeys.png" width="11px" height="12px" preserveAspectRatio="xMinYMin meet" x="253.5" y="-328.7"/>
<text text-anchor="start" x="268.5" y="-318.8" font-family="Helvetica,sans-Serif" font-size="11.00" fill="#000000">target_cohort_definition_id</text>
<polygon fill="none" stroke="#000000" points="248.5,-292.7 248.5,-311.7 459.5,-311.7 459.5,-292.7 248.5,-292.7"/>
<text text-anchor="start" x="251.5" y="-298.8" font-family="Helvetica,sans-Serif" font-size="11.00" fill="#000000">...</text>
<polygon fill="#ffffff" stroke="transparent" points="248.5,-273.7 248.5,-292.7 342.5,-292.7 342.5,-273.7 248.5,-273.7"/>
<polygon fill="none" stroke="#000000" points="248.5,-273.7 248.5,-292.7 342.5,-292.7 342.5,-273.7 248.5,-273.7"/>
<text text-anchor="start" x="251.5" y="-279.8" font-family="Helvetica,sans-Serif" font-size="11.00" fill="#000000">&lt; 10</text>
<polygon fill="#ffffff" stroke="transparent" points="342.5,-273.7 342.5,-292.7 413.5,-292.7 413.5,-273.7 342.5,-273.7"/>
<polygon fill="none" stroke="#000000" points="342.5,-273.7 342.5,-292.7 413.5,-292.7 413.5,-273.7 342.5,-273.7"/>
<text text-anchor="start" x="378.1105" y="-279.8" font-family="Helvetica,sans-Serif" font-size="11.00" fill="#000000">0 rows</text>
<polygon fill="#ffffff" stroke="transparent" points="413.5,-273.7 413.5,-292.7 459.5,-292.7 459.5,-273.7 413.5,-273.7"/>
<polygon fill="none" stroke="#000000" points="413.5,-273.7 413.5,-292.7 459.5,-292.7 459.5,-273.7 413.5,-273.7"/>
<text text-anchor="start" x="450.3862" y="-279.8" font-family="Helvetica,sans-Serif" font-size="11.00" fill="#000000"> &#160;</text>
</a>
</g>
</g>
<!-- ci_age_group_def -->
<g id="node2" class="node">
<title>ci_age_group_def</title>
<g id="a_node2"><a xlink:href="../../tables/ci_age_group_def.html" xlink:title="ci_age_group_def" target="_top">
<polygon fill="#ffffff" stroke="transparent" points="26.5,-484.2 26.5,-545.2 180.5,-545.2 180.5,-484.2 26.5,-484.2"/>
<polygon fill="#f5f5f5" stroke="transparent" points="26.5,-521.7 26.5,-544.7 180.5,-544.7 180.5,-521.7 26.5,-521.7"/>
<polygon fill="none" stroke="#000000" points="26.5,-521.7 26.5,-544.7 180.5,-544.7 180.5,-521.7 26.5,-521.7"/>
<text text-anchor="start" x="31.5" y="-530.3" font-family="Helvetica,sans-Serif" font-weight="bold" font-size="11.00" fill="#000000">ci_age_group_def</text>
<text text-anchor="start" x="146.0219" y="-529.8" font-family="Helvetica,sans-Serif" font-size="11.00" fill="#000000">[table]</text>
<polygon fill="none" stroke="#000000" points="26.5,-502.7 26.5,-521.7 180.5,-521.7 180.5,-502.7 26.5,-502.7"/>
<text text-anchor="start" x="29.5" y="-508.8" font-family="Helvetica,sans-Serif" font-size="11.00" fill="#000000">...</text>
<polygon fill="#ffffff" stroke="transparent" points="26.5,-483.7 26.5,-502.7 79.5,-502.7 79.5,-483.7 26.5,-483.7"/>
<polygon fill="none" stroke="#000000" points="26.5,-483.7 26.5,-502.7 79.5,-502.7 79.5,-483.7 26.5,-483.7"/>
<text text-anchor="start" x="29.5" y="-489.8" font-family="Helvetica,sans-Serif" font-size="11.00" fill="#000000"> &#160;</text>
<polygon fill="#ffffff" stroke="transparent" points="79.5,-483.7 79.5,-502.7 138.5,-502.7 138.5,-483.7 79.5,-483.7"/>
<polygon fill="none" stroke="#000000" points="79.5,-483.7 79.5,-502.7 138.5,-502.7 138.5,-483.7 79.5,-483.7"/>
<text text-anchor="start" x="103.1105" y="-489.8" font-family="Helvetica,sans-Serif" font-size="11.00" fill="#000000">0 rows</text>
<polygon fill="#ffffff" stroke="transparent" points="138.5,-483.7 138.5,-502.7 180.5,-502.7 180.5,-483.7 138.5,-483.7"/>
<polygon fill="none" stroke="#000000" points="138.5,-483.7 138.5,-502.7 180.5,-502.7 180.5,-483.7 138.5,-483.7"/>
<text text-anchor="start" x="161.9053" y="-489.8" font-family="Helvetica,sans-Serif" font-size="11.00" fill="#000000">2 &gt;</text>
</a>
</g>
</g>
<!-- ci_incidence_summary&#45;&gt;ci_age_group_def -->
<g id="edge1" class="edge">
<title>ci_incidence_summary:w&#45;&gt;ci_age_group_def:e</title>
<path fill="none" stroke="#000000" d="M234.2498,-457.9279C211.156,-469.9859 214.2359,-511.7 180.5,-511.7"/>
<polygon fill="#000000" stroke="#000000" points="240.6977,-456.4674 249.2953,-458.2111 244.5988,-455.5837 248.5,-454.7 248.5,-454.7 248.5,-454.7 244.5988,-455.5837 247.7047,-451.1889 240.6977,-456.4674 240.6977,-456.4674"/>
<ellipse fill="none" stroke="#000000" cx="237.5767" cy="-457.1744" rx="3.2" ry="3.2"/>
</g>
<!-- ci_incidence_summary&#45;&gt;ci_age_group_def -->
<g id="edge4" class="edge">
<title>ci_incidence_summary:w&#45;&gt;ci_age_group_def:e</title>
<path fill="none" stroke="#000000" d="M234.1314,-391.6191C195.4811,-410.2456 237.2306,-511.7 180.5,-511.7"/>
<polygon fill="#000000" stroke="#000000" points="240.6602,-390.2928 249.2168,-392.2279 244.5801,-389.4964 248.5,-388.7 248.5,-388.7 248.5,-388.7 244.5801,-389.4964 247.7832,-385.1721 240.6602,-390.2928 240.6602,-390.2928"/>
<ellipse fill="none" stroke="#000000" cx="237.5242" cy="-390.9299" rx="3.2" ry="3.2"/>
</g>
<!-- database_meta_data -->
<g id="node3" class="node">
<title>database_meta_data</title>
<g id="a_node3"><a xlink:href="../../tables/database_meta_data.html" xlink:title="database_meta_data" target="_top">
<polygon fill="#ffffff" stroke="transparent" points="14.5,-566.2 14.5,-627.2 192.5,-627.2 192.5,-566.2 14.5,-566.2"/>
<polygon fill="#f5f5f5" stroke="transparent" points="14.5,-603.7 14.5,-626.7 192.5,-626.7 192.5,-603.7 14.5,-603.7"/>
<polygon fill="none" stroke="#000000" points="14.5,-603.7 14.5,-626.7 192.5,-626.7 192.5,-603.7 14.5,-603.7"/>
<text text-anchor="start" x="19.5" y="-612.3" font-family="Helvetica,sans-Serif" font-weight="bold" font-size="11.00" fill="#000000">database_meta_data</text>
<text text-anchor="start" x="158.0219" y="-611.8" font-family="Helvetica,sans-Serif" font-size="11.00" fill="#000000">[table]</text>
<polygon fill="none" stroke="#000000" points="14.5,-584.7 14.5,-603.7 192.5,-603.7 192.5,-584.7 14.5,-584.7"/>
<text text-anchor="start" x="17.5" y="-590.8" font-family="Helvetica,sans-Serif" font-size="11.00" fill="#000000">...</text>
<polygon fill="#ffffff" stroke="transparent" points="14.5,-565.7 14.5,-584.7 81.5,-584.7 81.5,-565.7 14.5,-565.7"/>
<polygon fill="none" stroke="#000000" points="14.5,-565.7 14.5,-584.7 81.5,-584.7 81.5,-565.7 14.5,-565.7"/>
<text text-anchor="start" x="17.5" y="-571.8" font-family="Helvetica,sans-Serif" font-size="11.00" fill="#000000">&lt; 1</text>
<polygon fill="#ffffff" stroke="transparent" points="81.5,-565.7 81.5,-584.7 142.5,-584.7 142.5,-565.7 81.5,-565.7"/>
<polygon fill="none" stroke="#000000" points="81.5,-565.7 81.5,-584.7 142.5,-584.7 142.5,-565.7 81.5,-565.7"/>
<text text-anchor="start" x="107.1105" y="-571.8" font-family="Helvetica,sans-Serif" font-size="11.00" fill="#000000">0 rows</text>
<polygon fill="#ffffff" stroke="transparent" points="142.5,-565.7 142.5,-584.7 192.5,-584.7 192.5,-565.7 142.5,-565.7"/>
<polygon fill="none" stroke="#000000" points="142.5,-565.7 142.5,-584.7 192.5,-584.7 192.5,-565.7 142.5,-565.7"/>
<text text-anchor="start" x="167.7904" y="-571.8" font-family="Helvetica,sans-Serif" font-size="11.00" fill="#000000">17 &gt;</text>
</a>
</g>
</g>
<!-- ci_incidence_summary&#45;&gt;database_meta_data -->
<g id="edge2" class="edge">
<title>ci_incidence_summary:w&#45;&gt;database_meta_data:e</title>
<path fill="none" stroke="#000000" d="M234.3219,-435.2289C185.9749,-455.7116 262.6377,-593.7 192.5,-593.7"/>
<polygon fill="#000000" stroke="#000000" points="240.6243,-434.1048 249.1322,-436.2441 244.5622,-433.4024 248.5,-432.7 248.5,-432.7 248.5,-432.7 244.5622,-433.4024 247.8678,-429.1559 240.6243,-434.1048 240.6243,-434.1048"/>
<ellipse fill="none" stroke="#000000" cx="237.474" cy="-434.6667" rx="3.2" ry="3.2"/>
</g>
<!-- ci_outcome_def -->
<g id="node4" class="node">
<title>ci_outcome_def</title>
<g id="a_node4"><a xlink:href="../../tables/ci_outcome_def.html" xlink:title="ci_outcome_def" target="_top">
<polygon fill="#ffffff" stroke="transparent" points="32.5,-402.2 32.5,-463.2 174.5,-463.2 174.5,-402.2 32.5,-402.2"/>
<polygon fill="#f5f5f5" stroke="transparent" points="32.5,-439.7 32.5,-462.7 174.5,-462.7 174.5,-439.7 32.5,-439.7"/>
<polygon fill="none" stroke="#000000" points="32.5,-439.7 32.5,-462.7 174.5,-462.7 174.5,-439.7 32.5,-439.7"/>
<text text-anchor="start" x="37.5" y="-448.3" font-family="Helvetica,sans-Serif" font-weight="bold" font-size="11.00" fill="#000000">ci_outcome_def</text>
<text text-anchor="start" x="140.0219" y="-447.8" font-family="Helvetica,sans-Serif" font-size="11.00" fill="#000000">[table]</text>
<polygon fill="none" stroke="#000000" points="32.5,-420.7 32.5,-439.7 174.5,-439.7 174.5,-420.7 32.5,-420.7"/>
<text text-anchor="start" x="35.5" y="-426.8" font-family="Helvetica,sans-Serif" font-size="11.00" fill="#000000">...</text>
<polygon fill="#ffffff" stroke="transparent" points="32.5,-401.7 32.5,-420.7 79.5,-420.7 79.5,-401.7 32.5,-401.7"/>
<polygon fill="none" stroke="#000000" points="32.5,-401.7 32.5,-420.7 79.5,-420.7 79.5,-401.7 32.5,-401.7"/>
<text text-anchor="start" x="35.5" y="-407.8" font-family="Helvetica,sans-Serif" font-size="11.00" fill="#000000"> &#160;</text>
<polygon fill="#ffffff" stroke="transparent" points="79.5,-401.7 79.5,-420.7 135.5,-420.7 135.5,-401.7 79.5,-401.7"/>
<polygon fill="none" stroke="#000000" points="79.5,-401.7 79.5,-420.7 135.5,-420.7 135.5,-401.7 79.5,-401.7"/>
<text text-anchor="start" x="100.1105" y="-407.8" font-family="Helvetica,sans-Serif" font-size="11.00" fill="#000000">0 rows</text>
<polygon fill="#ffffff" stroke="transparent" points="135.5,-401.7 135.5,-420.7 174.5,-420.7 174.5,-401.7 135.5,-401.7"/>
<polygon fill="none" stroke="#000000" points="135.5,-401.7 135.5,-420.7 174.5,-420.7 174.5,-401.7 135.5,-401.7"/>
<text text-anchor="start" x="155.9053" y="-407.8" font-family="Helvetica,sans-Serif" font-size="11.00" fill="#000000">2 &gt;</text>
</a>
</g>
</g>
<!-- ci_incidence_summary&#45;&gt;ci_outcome_def -->
<g id="edge3" class="edge">
<title>ci_incidence_summary:w&#45;&gt;ci_outcome_def:e</title>
<path fill="none" stroke="#000000" d="M234.1008,-412.0059C211.8793,-416.2986 203.0175,-429.7 174.5,-429.7"/>
<polygon fill="#000000" stroke="#000000" points="240.5327,-411.4226 248.8252,-414.2853 244.5164,-411.0613 248.5,-410.7 248.5,-410.7 248.5,-410.7 244.5164,-411.0613 248.1748,-407.1147 240.5327,-411.4226 240.5327,-411.4226"/>
<ellipse fill="none" stroke="#000000" cx="237.3458" cy="-411.7117" rx="3.2" ry="3.2"/>
</g>
<!-- ci_incidence_summary&#45;&gt;ci_outcome_def -->
<g id="edge5" class="edge">
<title>ci_incidence_summary:w&#45;&gt;ci_outcome_def:e</title>
<path fill="none" stroke="#000000" d="M234.0673,-391.142C210.4015,-399.9685 206.5184,-429.7 174.5,-429.7"/>
<polygon fill="#000000" stroke="#000000" points="240.6121,-390.0346 249.1006,-392.2496 244.5561,-389.3673 248.5,-388.7 248.5,-388.7 248.5,-388.7 244.5561,-389.3673 247.8994,-385.1504 240.6121,-390.0346 240.6121,-390.0346"/>
<ellipse fill="none" stroke="#000000" cx="237.4569" cy="-390.5685" rx="3.2" ry="3.2"/>
</g>
<!-- ci_subgroup_def -->
<g id="node5" class="node">
<title>ci_subgroup_def</title>
<g id="a_node5"><a xlink:href="../../tables/ci_subgroup_def.html" xlink:title="ci_subgroup_def" target="_top">
<polygon fill="#ffffff" stroke="transparent" points="29.5,-320.2 29.5,-381.2 177.5,-381.2 177.5,-320.2 29.5,-320.2"/>
<polygon fill="#f5f5f5" stroke="transparent" points="29.5,-357.7 29.5,-380.7 177.5,-380.7 177.5,-357.7 29.5,-357.7"/>
<polygon fill="none" stroke="#000000" points="29.5,-357.7 29.5,-380.7 177.5,-380.7 177.5,-357.7 29.5,-357.7"/>
<text text-anchor="start" x="34.5" y="-366.3" font-family="Helvetica,sans-Serif" font-weight="bold" font-size="11.00" fill="#000000">ci_subgroup_def</text>
<text text-anchor="start" x="143.0219" y="-365.8" font-family="Helvetica,sans-Serif" font-size="11.00" fill="#000000">[table]</text>
<polygon fill="none" stroke="#000000" points="29.5,-338.7 29.5,-357.7 177.5,-357.7 177.5,-338.7 29.5,-338.7"/>
<text text-anchor="start" x="32.5" y="-344.8" font-family="Helvetica,sans-Serif" font-size="11.00" fill="#000000">...</text>
<polygon fill="#ffffff" stroke="transparent" points="29.5,-319.7 29.5,-338.7 79.5,-338.7 79.5,-319.7 29.5,-319.7"/>
<polygon fill="none" stroke="#000000" points="29.5,-319.7 29.5,-338.7 79.5,-338.7 79.5,-319.7 29.5,-319.7"/>
<text text-anchor="start" x="32.5" y="-325.8" font-family="Helvetica,sans-Serif" font-size="11.00" fill="#000000"> &#160;</text>
<polygon fill="#ffffff" stroke="transparent" points="79.5,-319.7 79.5,-338.7 136.5,-338.7 136.5,-319.7 79.5,-319.7"/>
<polygon fill="none" stroke="#000000" points="79.5,-319.7 79.5,-338.7 136.5,-338.7 136.5,-319.7 79.5,-319.7"/>
<text text-anchor="start" x="101.1105" y="-325.8" font-family="Helvetica,sans-Serif" font-size="11.00" fill="#000000">0 rows</text>
<polygon fill="#ffffff" stroke="transparent" points="136.5,-319.7 136.5,-338.7 177.5,-338.7 177.5,-319.7 136.5,-319.7"/>
<polygon fill="none" stroke="#000000" points="136.5,-319.7 136.5,-338.7 177.5,-338.7 177.5,-319.7 136.5,-319.7"/>
<text text-anchor="start" x="158.9053" y="-325.8" font-family="Helvetica,sans-Serif" font-size="11.00" fill="#000000">2 &gt;</text>
</a>
</g>
</g>
<!-- ci_incidence_summary&#45;&gt;ci_subgroup_def -->
<g id="edge6" class="edge">
<title>ci_incidence_summary:w&#45;&gt;ci_subgroup_def:e</title>
<path fill="none" stroke="#000000" d="M234.2431,-386.1353C211.7439,-377.1594 208.3878,-347.7 177.5,-347.7"/>
<polygon fill="#000000" stroke="#000000" points="240.6264,-387.2835 247.8626,-392.2431 244.5632,-387.9918 248.5,-388.7 248.5,-388.7 248.5,-388.7 244.5632,-387.9918 249.1374,-385.1569 240.6264,-387.2835 240.6264,-387.2835"/>
<ellipse fill="none" stroke="#000000" cx="237.4769" cy="-386.7169" rx="3.2" ry="3.2"/>
</g>
<!-- ci_incidence_summary&#45;&gt;ci_subgroup_def -->
<g id="edge8" class="edge">
<title>ci_incidence_summary:w&#45;&gt;ci_subgroup_def:e</title>
<path fill="none" stroke="#000000" d="M234.0687,-365.2719C213.1682,-360.8532 204.6791,-347.7 177.5,-347.7"/>
<polygon fill="#000000" stroke="#000000" points="240.5389,-365.9121 248.1455,-370.2825 244.5194,-366.3061 248.5,-366.7 248.5,-366.7 248.5,-366.7 244.5194,-366.3061 248.8545,-363.1175 240.5389,-365.9121 240.5389,-365.9121"/>
<ellipse fill="none" stroke="#000000" cx="237.3544" cy="-365.597" rx="3.2" ry="3.2"/>
</g>
<!-- ci_tar_def -->
<g id="node6" class="node">
<title>ci_tar_def</title>
<g id="a_node6"><a xlink:href="../../tables/ci_tar_def.html" xlink:title="ci_tar_def" target="_top">
<polygon fill="#ffffff" stroke="transparent" points="8,-120.7 8,-298.7 199,-298.7 199,-120.7 8,-120.7"/>
<polygon fill="#f5f5f5" stroke="transparent" points="10.5,-273.7 10.5,-296.7 197.5,-296.7 197.5,-273.7 10.5,-273.7"/>
<polygon fill="none" stroke="#000000" points="10.5,-273.7 10.5,-296.7 197.5,-296.7 197.5,-273.7 10.5,-273.7"/>
<text text-anchor="start" x="15.5" y="-282.3" font-family="Helvetica,sans-Serif" font-weight="bold" font-size="11.00" fill="#000000">ci_tar_def</text>
<text text-anchor="start" x="162.5437" y="-281.8" font-family="Helvetica,sans-Serif" font-size="11.00" fill="#000000">[table]</text>
<polygon fill="none" stroke="#000000" points="10.5,-251.7 10.5,-273.7 135.5,-273.7 135.5,-251.7 10.5,-251.7"/>
<image xlink:href="../../images/primaryKeys.png" width="11px" height="12px" preserveAspectRatio="xMinYMin meet" x="15.5" y="-268.7"/>
<text text-anchor="start" x="30.5" y="-258.8" font-family="Helvetica,sans-Serif" font-size="11.00" fill="#000000">ref_id</text>
<polygon fill="none" stroke="#000000" points="135.5,-251.7 135.5,-273.7 197.5,-273.7 197.5,-251.7 135.5,-251.7"/>
<text text-anchor="start" x="138.378" y="-259.4" font-family="Helvetica,sans-Serif" font-size="11.00" fill="#000000">unknown[0]</text>
<polygon fill="none" stroke="#000000" points="10.5,-229.7 10.5,-251.7 135.5,-251.7 135.5,-229.7 10.5,-229.7"/>
<text text-anchor="start" x="30.5" y="-236.8" font-family="Helvetica,sans-Serif" font-size="11.00" fill="#000000">tar_end_offset</text>
<polygon fill="none" stroke="#000000" points="135.5,-229.7 135.5,-251.7 197.5,-251.7 197.5,-229.7 135.5,-229.7"/>
<text text-anchor="start" x="138.378" y="-237.4" font-family="Helvetica,sans-Serif" font-size="11.00" fill="#000000">unknown[0]</text>
<polygon fill="none" stroke="#000000" points="10.5,-207.7 10.5,-229.7 135.5,-229.7 135.5,-207.7 10.5,-207.7"/>
<text text-anchor="start" x="30.5" y="-214.8" font-family="Helvetica,sans-Serif" font-size="11.00" fill="#000000">tar_end_with</text>
<polygon fill="none" stroke="#000000" points="135.5,-207.7 135.5,-229.7 197.5,-229.7 197.5,-207.7 135.5,-207.7"/>
<text text-anchor="start" x="138.378" y="-215.4" font-family="Helvetica,sans-Serif" font-size="11.00" fill="#000000">unknown[0]</text>
<polygon fill="none" stroke="#000000" points="10.5,-185.7 10.5,-207.7 135.5,-207.7 135.5,-185.7 10.5,-185.7"/>
<text text-anchor="start" x="30.5" y="-192.8" font-family="Helvetica,sans-Serif" font-size="11.00" fill="#000000">tar_id</text>
<polygon fill="none" stroke="#000000" points="135.5,-185.7 135.5,-207.7 197.5,-207.7 197.5,-185.7 135.5,-185.7"/>
<text text-anchor="start" x="138.378" y="-193.4" font-family="Helvetica,sans-Serif" font-size="11.00" fill="#000000">unknown[0]</text>
<polygon fill="none" stroke="#000000" points="10.5,-163.7 10.5,-185.7 135.5,-185.7 135.5,-163.7 10.5,-163.7"/>
<text text-anchor="start" x="30.5" y="-170.8" font-family="Helvetica,sans-Serif" font-size="11.00" fill="#000000">tar_start_offset</text>
<polygon fill="none" stroke="#000000" points="135.5,-163.7 135.5,-185.7 197.5,-185.7 197.5,-163.7 135.5,-163.7"/>
<text text-anchor="start" x="138.378" y="-171.4" font-family="Helvetica,sans-Serif" font-size="11.00" fill="#000000">unknown[0]</text>
<polygon fill="none" stroke="#000000" points="10.5,-141.7 10.5,-163.7 135.5,-163.7 135.5,-141.7 10.5,-141.7"/>
<text text-anchor="start" x="30.5" y="-148.8" font-family="Helvetica,sans-Serif" font-size="11.00" fill="#000000">tar_start_with</text>
<polygon fill="none" stroke="#000000" points="135.5,-141.7 135.5,-163.7 197.5,-163.7 197.5,-141.7 135.5,-141.7"/>
<text text-anchor="start" x="138.378" y="-149.4" font-family="Helvetica,sans-Serif" font-size="11.00" fill="#000000">unknown[0]</text>
<polygon fill="#ffffff" stroke="transparent" points="10.5,-122.7 10.5,-141.7 64.5,-141.7 64.5,-122.7 10.5,-122.7"/>
<polygon fill="none" stroke="#000000" points="10.5,-122.7 10.5,-141.7 64.5,-141.7 64.5,-122.7 10.5,-122.7"/>
<text text-anchor="start" x="13.5" y="-128.8" font-family="Helvetica,sans-Serif" font-size="11.00" fill="#000000">&lt; 0</text>
<polygon fill="#ffffff" stroke="transparent" points="64.5,-122.7 64.5,-141.7 135.5,-141.7 135.5,-122.7 64.5,-122.7"/>
<polygon fill="none" stroke="#000000" points="64.5,-122.7 64.5,-141.7 135.5,-141.7 135.5,-122.7 64.5,-122.7"/>
<text text-anchor="start" x="100.1105" y="-128.8" font-family="Helvetica,sans-Serif" font-size="11.00" fill="#000000">0 rows</text>
<polygon fill="#ffffff" stroke="transparent" points="135.5,-122.7 135.5,-141.7 197.5,-141.7 197.5,-122.7 135.5,-122.7"/>
<polygon fill="none" stroke="#000000" points="135.5,-122.7 135.5,-141.7 197.5,-141.7 197.5,-122.7 135.5,-122.7"/>
<text text-anchor="start" x="178.9053" y="-128.8" font-family="Helvetica,sans-Serif" font-size="11.00" fill="#000000">2 &gt;</text>
<polygon fill="none" stroke="#000000" stroke-width="2" points="9,-121.7 9,-297.7 198,-297.7 198,-121.7 9,-121.7"/>
</a>
</g>
</g>
<!-- ci_incidence_summary&#45;&gt;ci_tar_def -->
<g id="edge7" class="edge">
<title>ci_incidence_summary:w&#45;&gt;ci_tar_def:e</title>
<path fill="none" stroke="#000000" d="M234.2844,-385.3298C200.4826,-365.2923 252.0136,-262.7 197.5,-262.7"/>
<polygon fill="#000000" stroke="#000000" points="240.7158,-386.8545 247.6695,-392.2029 244.6079,-387.7772 248.5,-388.7 248.5,-388.7 248.5,-388.7 244.6079,-387.7772 249.3305,-385.1971 240.7158,-386.8545 240.7158,-386.8545"/>
<ellipse fill="none" stroke="#000000" cx="237.6021" cy="-386.1163" rx="3.2" ry="3.2"/>
</g>
<!-- ci_incidence_summary&#45;&gt;ci_tar_def -->
<g id="edge9" class="edge">
<title>ci_incidence_summary:w&#45;&gt;ci_tar_def:e</title>
<path fill="none" stroke="#000000" d="M234.5743,-340.2913C213.8419,-323.2591 234.3829,-262.7 197.5,-262.7"/>
<polygon fill="#000000" stroke="#000000" points="240.8731,-342.2854 247.4134,-348.1321 244.6865,-343.4927 248.5,-344.7 248.5,-344.7 248.5,-344.7 244.6865,-343.4927 249.5866,-341.2679 240.8731,-342.2854 240.8731,-342.2854"/>
<ellipse fill="none" stroke="#000000" cx="237.8223" cy="-341.3195" rx="3.2" ry="3.2"/>
</g>
<!-- cg_cohort_definition -->
<g id="node7" class="node">
<title>cg_cohort_definition</title>
<g id="a_node7"><a xlink:href="../../tables/cg_cohort_definition.html" xlink:title="cg_cohort_definition" target="_top">
<polygon fill="#ffffff" stroke="transparent" points="16,-38.2 16,-99.2 191,-99.2 191,-38.2 16,-38.2"/>
<polygon fill="#f5f5f5" stroke="transparent" points="16.5,-75.7 16.5,-98.7 191.5,-98.7 191.5,-75.7 16.5,-75.7"/>
<polygon fill="none" stroke="#000000" points="16.5,-75.7 16.5,-98.7 191.5,-98.7 191.5,-75.7 16.5,-75.7"/>
<text text-anchor="start" x="21.5" y="-84.3" font-family="Helvetica,sans-Serif" font-weight="bold" font-size="11.00" fill="#000000">cg_cohort_definition</text>
<text text-anchor="start" x="157.0219" y="-83.8" font-family="Helvetica,sans-Serif" font-size="11.00" fill="#000000">[table]</text>
<polygon fill="none" stroke="#000000" points="16.5,-56.7 16.5,-75.7 191.5,-75.7 191.5,-56.7 16.5,-56.7"/>
<text text-anchor="start" x="19.5" y="-62.8" font-family="Helvetica,sans-Serif" font-size="11.00" fill="#000000">...</text>
<polygon fill="#ffffff" stroke="transparent" points="16.5,-37.7 16.5,-56.7 77.5,-56.7 77.5,-37.7 16.5,-37.7"/>
<polygon fill="none" stroke="#000000" points="16.5,-37.7 16.5,-56.7 77.5,-56.7 77.5,-37.7 16.5,-37.7"/>
<text text-anchor="start" x="19.5" y="-43.8" font-family="Helvetica,sans-Serif" font-size="11.00" fill="#000000"> &#160;</text>
<polygon fill="#ffffff" stroke="transparent" points="77.5,-37.7 77.5,-56.7 139.5,-56.7 139.5,-37.7 77.5,-37.7"/>
<polygon fill="none" stroke="#000000" points="77.5,-37.7 77.5,-56.7 139.5,-56.7 139.5,-37.7 77.5,-37.7"/>
<text text-anchor="start" x="104.1105" y="-43.8" font-family="Helvetica,sans-Serif" font-size="11.00" fill="#000000">0 rows</text>
<polygon fill="#ffffff" stroke="transparent" points="139.5,-37.7 139.5,-56.7 191.5,-56.7 191.5,-37.7 139.5,-37.7"/>
<polygon fill="none" stroke="#000000" points="139.5,-37.7 139.5,-56.7 191.5,-56.7 191.5,-37.7 139.5,-37.7"/>
<text text-anchor="start" x="166.7904" y="-43.8" font-family="Helvetica,sans-Serif" font-size="11.00" fill="#000000">17 &gt;</text>
</a>
</g>
</g>
<!-- ci_incidence_summary&#45;&gt;cg_cohort_definition -->
<g id="edge10" class="edge">
<title>ci_incidence_summary:w&#45;&gt;cg_cohort_definition:e</title>
<path fill="none" stroke="#000000" d="M234.9763,-316.3472C200.2092,-276.7713 244.5146,-65.7 191.5,-65.7"/>
<polygon fill="#000000" stroke="#000000" points="241.2591,-319.2985 246.9693,-325.9584 244.8796,-320.9993 248.5,-322.7 248.5,-322.7 248.5,-322.7 244.8796,-320.9993 250.0307,-319.4416 241.2591,-319.2985 241.2591,-319.2985"/>
<ellipse fill="none" stroke="#000000" cx="238.3628" cy="-317.9379" rx="3.2" ry="3.2"/>
</g>
</g>
</svg>
