<?xml version="1.0" encoding="UTF-8" standalone="no"?>
<!DOCTYPE svg PUBLIC "-//W3C//DTD SVG 1.1//EN"
 "http://www.w3.org/Graphics/SVG/1.1/DTD/svg11.dtd">
<!-- Generated by graphviz version 2.40.1 (20161225.0304)
 -->
<!-- Title: oneDegreeRelationshipsDiagram Pages: 1 -->
<svg width="475pt" height="315pt"
 viewBox="0.00 0.00 475.00 314.70" xmlns="http://www.w3.org/2000/svg" xmlns:xlink="http://www.w3.org/1999/xlink">
<g id="graph0" class="graph" transform="scale(1 1) rotate(0) translate(4 310.7)">
<title>oneDegreeRelationshipsDiagram</title>
<polygon fill="#ffffff" stroke="transparent" points="-4,4 -4,-310.7 471,-310.7 471,4 -4,4"/>
<text text-anchor="middle" x="72.4936" y="-7.3" font-family="Helvetica,sans-Serif" font-size="11.00" fill="#000000">Generated by SchemaSpy</text>
<!-- ci_incidence_summary -->
<g id="node1" class="node">
<title>ci_incidence_summary</title>
<g id="a_node1"><a xlink:href="../../tables/ci_incidence_summary.html" xlink:title="ci_incidence_summary" target="_top">
<polygon fill="#ffffff" stroke="transparent" points="248,-87.7 248,-302.7 459,-302.7 459,-87.7 248,-87.7"/>
<polygon fill="#f5f5f5" stroke="transparent" points="248.5,-279.2 248.5,-302.2 459.5,-302.2 459.5,-279.2 248.5,-279.2"/>
<polygon fill="none" stroke="#000000" points="248.5,-279.2 248.5,-302.2 459.5,-302.2 459.5,-279.2 248.5,-279.2"/>
<text text-anchor="start" x="253.5" y="-287.8" font-family="Helvetica,sans-Serif" font-weight="bold" font-size="11.00" fill="#000000">ci_incidence_summary</text>
<text text-anchor="start" x="424.5437" y="-287.3" font-family="Helvetica,sans-Serif" font-size="11.00" fill="#000000">[table]</text>
<polygon fill="none" stroke="#000000" points="248.5,-257.2 248.5,-279.2 459.5,-279.2 459.5,-257.2 248.5,-257.2"/>
<image xlink:href="../../images/foreignKeys.png" width="11px" height="12px" preserveAspectRatio="xMinYMin meet" x="253.5" y="-274.2"/>
<text text-anchor="start" x="268.5" y="-264.3" font-family="Helvetica,sans-Serif" font-size="11.00" fill="#000000">age_group_id</text>
<polygon fill="none" stroke="#000000" points="248.5,-235.2 248.5,-257.2 459.5,-257.2 459.5,-235.2 248.5,-235.2"/>
<image xlink:href="../../images/foreignKeys.png" width="11px" height="12px" preserveAspectRatio="xMinYMin meet" x="253.5" y="-252.2"/>
<text text-anchor="start" x="268.5" y="-242.3" font-family="Helvetica,sans-Serif" font-size="11.00" fill="#000000">database_id</text>
<polygon fill="none" stroke="#000000" points="248.5,-213.2 248.5,-235.2 459.5,-235.2 459.5,-213.2 248.5,-213.2"/>
<image xlink:href="../../images/foreignKeys.png" width="11px" height="12px" preserveAspectRatio="xMinYMin meet" x="253.5" y="-230.2"/>
<text text-anchor="start" x="268.5" y="-220.3" font-family="Helvetica,sans-Serif" font-size="11.00" fill="#000000">outcome_id</text>
<polygon fill="none" stroke="#000000" points="248.5,-191.2 248.5,-213.2 459.5,-213.2 459.5,-191.2 248.5,-191.2"/>
<image xlink:href="../../images/foreignKeys.png" width="11px" height="12px" preserveAspectRatio="xMinYMin meet" x="253.5" y="-208.2"/>
<text text-anchor="start" x="268.5" y="-198.3" font-family="Helvetica,sans-Serif" font-size="11.00" fill="#000000">ref_id</text>
<polygon fill="none" stroke="#000000" points="248.5,-169.2 248.5,-191.2 459.5,-191.2 459.5,-169.2 248.5,-169.2"/>
<image xlink:href="../../images/foreignKeys.png" width="11px" height="12px" preserveAspectRatio="xMinYMin meet" x="253.5" y="-186.2"/>
<text text-anchor="start" x="268.5" y="-176.3" font-family="Helvetica,sans-Serif" font-size="11.00" fill="#000000">subgroup_id</text>
<polygon fill="none" stroke="#000000" points="248.5,-147.2 248.5,-169.2 459.5,-169.2 459.5,-147.2 248.5,-147.2"/>
<image xlink:href="../../images/foreignKeys.png" width="11px" height="12px" preserveAspectRatio="xMinYMin meet" x="253.5" y="-164.2"/>
<text text-anchor="start" x="268.5" y="-154.3" font-family="Helvetica,sans-Serif" font-size="11.00" fill="#000000">tar_id</text>
<polygon fill="none" stroke="#000000" points="248.5,-125.2 248.5,-147.2 459.5,-147.2 459.5,-125.2 248.5,-125.2"/>
<image xlink:href="../../images/foreignKeys.png" width="11px" height="12px" preserveAspectRatio="xMinYMin meet" x="253.5" y="-142.2"/>
<text text-anchor="start" x="268.5" y="-132.3" font-family="Helvetica,sans-Serif" font-size="11.00" fill="#000000">target_cohort_definition_id</text>
<polygon fill="none" stroke="#000000" points="248.5,-106.2 248.5,-125.2 459.5,-125.2 459.5,-106.2 248.5,-106.2"/>
<text text-anchor="start" x="251.5" y="-112.3" font-family="Helvetica,sans-Serif" font-size="11.00" fill="#000000">...</text>
<polygon fill="#ffffff" stroke="transparent" points="248.5,-87.2 248.5,-106.2 342.5,-106.2 342.5,-87.2 248.5,-87.2"/>
<polygon fill="none" stroke="#000000" points="248.5,-87.2 248.5,-106.2 342.5,-106.2 342.5,-87.2 248.5,-87.2"/>
<text text-anchor="start" x="251.5" y="-93.3" font-family="Helvetica,sans-Serif" font-size="11.00" fill="#000000">&lt; 10</text>
<polygon fill="#ffffff" stroke="transparent" points="342.5,-87.2 342.5,-106.2 413.5,-106.2 413.5,-87.2 342.5,-87.2"/>
<polygon fill="none" stroke="#000000" points="342.5,-87.2 342.5,-106.2 413.5,-106.2 413.5,-87.2 342.5,-87.2"/>
<text text-anchor="start" x="378.1105" y="-93.3" font-family="Helvetica,sans-Serif" font-size="11.00" fill="#000000">0 rows</text>
<polygon fill="#ffffff" stroke="transparent" points="413.5,-87.2 413.5,-106.2 459.5,-106.2 459.5,-87.2 413.5,-87.2"/>
<polygon fill="none" stroke="#000000" points="413.5,-87.2 413.5,-106.2 459.5,-106.2 459.5,-87.2 413.5,-87.2"/>
<text text-anchor="start" x="450.3862" y="-93.3" font-family="Helvetica,sans-Serif" font-size="11.00" fill="#000000"> &#160;</text>
</a>
</g>
</g>
<!-- ci_tar_def -->
<g id="node2" class="node">
<title>ci_tar_def</title>
<g id="a_node2"><a xlink:href="../../tables/ci_tar_def.html" xlink:title="ci_tar_def" target="_top">
<polygon fill="#ffffff" stroke="transparent" points="8,-38.2 8,-216.2 199,-216.2 199,-38.2 8,-38.2"/>
<polygon fill="#f5f5f5" stroke="transparent" points="10.5,-191.2 10.5,-214.2 197.5,-214.2 197.5,-191.2 10.5,-191.2"/>
<polygon fill="none" stroke="#000000" points="10.5,-191.2 10.5,-214.2 197.5,-214.2 197.5,-191.2 10.5,-191.2"/>
<text text-anchor="start" x="15.5" y="-199.8" font-family="Helvetica,sans-Serif" font-weight="bold" font-size="11.00" fill="#000000">ci_tar_def</text>
<text text-anchor="start" x="162.5437" y="-199.3" font-family="Helvetica,sans-Serif" font-size="11.00" fill="#000000">[table]</text>
<polygon fill="none" stroke="#000000" points="10.5,-169.2 10.5,-191.2 135.5,-191.2 135.5,-169.2 10.5,-169.2"/>
<image xlink:href="../../images/primaryKeys.png" width="11px" height="12px" preserveAspectRatio="xMinYMin meet" x="15.5" y="-186.2"/>
<text text-anchor="start" x="30.5" y="-176.3" font-family="Helvetica,sans-Serif" font-size="11.00" fill="#000000">ref_id</text>
<polygon fill="none" stroke="#000000" points="135.5,-169.2 135.5,-191.2 197.5,-191.2 197.5,-169.2 135.5,-169.2"/>
<text text-anchor="start" x="138.378" y="-176.9" font-family="Helvetica,sans-Serif" font-size="11.00" fill="#000000">unknown[0]</text>
<polygon fill="none" stroke="#000000" points="10.5,-147.2 10.5,-169.2 135.5,-169.2 135.5,-147.2 10.5,-147.2"/>
<text text-anchor="start" x="30.5" y="-154.3" font-family="Helvetica,sans-Serif" font-size="11.00" fill="#000000">tar_end_offset</text>
<polygon fill="none" stroke="#000000" points="135.5,-147.2 135.5,-169.2 197.5,-169.2 197.5,-147.2 135.5,-147.2"/>
<text text-anchor="start" x="138.378" y="-154.9" font-family="Helvetica,sans-Serif" font-size="11.00" fill="#000000">unknown[0]</text>
<polygon fill="none" stroke="#000000" points="10.5,-125.2 10.5,-147.2 135.5,-147.2 135.5,-125.2 10.5,-125.2"/>
<text text-anchor="start" x="30.5" y="-132.3" font-family="Helvetica,sans-Serif" font-size="11.00" fill="#000000">tar_end_with</text>
<polygon fill="none" stroke="#000000" points="135.5,-125.2 135.5,-147.2 197.5,-147.2 197.5,-125.2 135.5,-125.2"/>
<text text-anchor="start" x="138.378" y="-132.9" font-family="Helvetica,sans-Serif" font-size="11.00" fill="#000000">unknown[0]</text>
<polygon fill="none" stroke="#000000" points="10.5,-103.2 10.5,-125.2 135.5,-125.2 135.5,-103.2 10.5,-103.2"/>
<text text-anchor="start" x="30.5" y="-110.3" font-family="Helvetica,sans-Serif" font-size="11.00" fill="#000000">tar_id</text>
<polygon fill="none" stroke="#000000" points="135.5,-103.2 135.5,-125.2 197.5,-125.2 197.5,-103.2 135.5,-103.2"/>
<text text-anchor="start" x="138.378" y="-110.9" font-family="Helvetica,sans-Serif" font-size="11.00" fill="#000000">unknown[0]</text>
<polygon fill="none" stroke="#000000" points="10.5,-81.2 10.5,-103.2 135.5,-103.2 135.5,-81.2 10.5,-81.2"/>
<text text-anchor="start" x="30.5" y="-88.3" font-family="Helvetica,sans-Serif" font-size="11.00" fill="#000000">tar_start_offset</text>
<polygon fill="none" stroke="#000000" points="135.5,-81.2 135.5,-103.2 197.5,-103.2 197.5,-81.2 135.5,-81.2"/>
<text text-anchor="start" x="138.378" y="-88.9" font-family="Helvetica,sans-Serif" font-size="11.00" fill="#000000">unknown[0]</text>
<polygon fill="none" stroke="#000000" points="10.5,-59.2 10.5,-81.2 135.5,-81.2 135.5,-59.2 10.5,-59.2"/>
<text text-anchor="start" x="30.5" y="-66.3" font-family="Helvetica,sans-Serif" font-size="11.00" fill="#000000">tar_start_with</text>
<polygon fill="none" stroke="#000000" points="135.5,-59.2 135.5,-81.2 197.5,-81.2 197.5,-59.2 135.5,-59.2"/>
<text text-anchor="start" x="138.378" y="-66.9" font-family="Helvetica,sans-Serif" font-size="11.00" fill="#000000">unknown[0]</text>
<polygon fill="#ffffff" stroke="transparent" points="10.5,-40.2 10.5,-59.2 64.5,-59.2 64.5,-40.2 10.5,-40.2"/>
<polygon fill="none" stroke="#000000" points="10.5,-40.2 10.5,-59.2 64.5,-59.2 64.5,-40.2 10.5,-40.2"/>
<text text-anchor="start" x="13.5" y="-46.3" font-family="Helvetica,sans-Serif" font-size="11.00" fill="#000000">&lt; 0</text>
<polygon fill="#ffffff" stroke="transparent" points="64.5,-40.2 64.5,-59.2 135.5,-59.2 135.5,-40.2 64.5,-40.2"/>
<polygon fill="none" stroke="#000000" points="64.5,-40.2 64.5,-59.2 135.5,-59.2 135.5,-40.2 64.5,-40.2"/>
<text text-anchor="start" x="100.1105" y="-46.3" font-family="Helvetica,sans-Serif" font-size="11.00" fill="#000000">0 rows</text>
<polygon fill="#ffffff" stroke="transparent" points="135.5,-40.2 135.5,-59.2 197.5,-59.2 197.5,-40.2 135.5,-40.2"/>
<polygon fill="none" stroke="#000000" points="135.5,-40.2 135.5,-59.2 197.5,-59.2 197.5,-40.2 135.5,-40.2"/>
<text text-anchor="start" x="178.9053" y="-46.3" font-family="Helvetica,sans-Serif" font-size="11.00" fill="#000000">2 &gt;</text>
<polygon fill="none" stroke="#000000" stroke-width="2" points="9,-39.2 9,-215.2 198,-215.2 198,-39.2 9,-39.2"/>
</a>
</g>
</g>
<!-- ci_incidence_summary&#45;&gt;ci_tar_def -->
<g id="edge1" class="edge">
<title>ci_incidence_summary:w&#45;&gt;ci_tar_def:e</title>
<path fill="none" stroke="#000000" d="M234.3489,-199.141C221.7843,-193.096 216.4,-180.2 197.5,-180.2"/>
<polygon fill="#000000" stroke="#000000" points="240.6806,-200.5097 247.7393,-205.7187 244.5903,-201.3548 248.5,-202.2 248.5,-202.2 248.5,-202.2 244.5903,-201.3548 249.2607,-198.6813 240.6806,-200.5097 240.6806,-200.5097"/>
<ellipse fill="none" stroke="#000000" cx="237.5528" cy="-199.8335" rx="3.2" ry="3.2"/>
</g>
<!-- ci_incidence_summary&#45;&gt;ci_tar_def -->
<g id="edge2" class="edge">
<title>ci_incidence_summary:w&#45;&gt;ci_tar_def:e</title>
<path fill="none" stroke="#000000" d="M234.3489,-161.259C221.7843,-167.304 216.4,-180.2 197.5,-180.2"/>
<polygon fill="#000000" stroke="#000000" points="240.6806,-159.8903 249.2607,-161.7187 244.5903,-159.0452 248.5,-158.2 248.5,-158.2 248.5,-158.2 244.5903,-159.0452 247.7393,-154.6813 240.6806,-159.8903 240.6806,-159.8903"/>
<ellipse fill="none" stroke="#000000" cx="237.5528" cy="-160.5665" rx="3.2" ry="3.2"/>
</g>
</g>
</svg>
