<?xml version="1.0" encoding="UTF-8" standalone="no"?>
<!DOCTYPE svg PUBLIC "-//W3C//DTD SVG 1.1//EN"
 "http://www.w3.org/Graphics/SVG/1.1/DTD/svg11.dtd">
<!-- Generated by graphviz version 2.40.1 (20161225.0304)
 -->
<!-- Title: oneDegreeRelationshipsDiagram Pages: 1 -->
<svg width="474pt" height="393pt"
 viewBox="0.00 0.00 474.00 392.70" xmlns="http://www.w3.org/2000/svg" xmlns:xlink="http://www.w3.org/1999/xlink">
<g id="graph0" class="graph" transform="scale(1 1) rotate(0) translate(4 388.7)">
<title>oneDegreeRelationshipsDiagram</title>
<polygon fill="#ffffff" stroke="transparent" points="-4,4 -4,-388.7 470,-388.7 470,4 -4,4"/>
<text text-anchor="middle" x="72.4936" y="-7.3" font-family="Helvetica,sans-Serif" font-size="11.00" fill="#000000">Generated by SchemaSpy</text>
<!-- cm_analysis -->
<g id="node1" class="node">
<title>cm_analysis</title>
<g id="a_node1"><a xlink:href="../../tables/cm_analysis.html" xlink:title="cm_analysis" target="_top">
<polygon fill="#ffffff" stroke="transparent" points="291,-268.7 291,-380.7 458,-380.7 458,-268.7 291,-268.7"/>
<polygon fill="#f5f5f5" stroke="transparent" points="293.5,-355.7 293.5,-378.7 456.5,-378.7 456.5,-355.7 293.5,-355.7"/>
<polygon fill="none" stroke="#000000" points="293.5,-355.7 293.5,-378.7 456.5,-378.7 456.5,-355.7 293.5,-355.7"/>
<text text-anchor="start" x="298.5" y="-364.3" font-family="Helvetica,sans-Serif" font-weight="bold" font-size="11.00" fill="#000000">cm_analysis</text>
<text text-anchor="start" x="421.5437" y="-363.8" font-family="Helvetica,sans-Serif" font-size="11.00" fill="#000000">[table]</text>
<polygon fill="none" stroke="#000000" points="293.5,-333.7 293.5,-355.7 394.5,-355.7 394.5,-333.7 293.5,-333.7"/>
<image xlink:href="../../images/primaryKeys.png" width="11px" height="12px" preserveAspectRatio="xMinYMin meet" x="298.5" y="-350.7"/>
<text text-anchor="start" x="313.5" y="-340.8" font-family="Helvetica,sans-Serif" font-size="11.00" fill="#000000">analysis_id</text>
<polygon fill="none" stroke="#000000" points="394.5,-333.7 394.5,-355.7 456.5,-355.7 456.5,-333.7 394.5,-333.7"/>
<text text-anchor="start" x="397.378" y="-341.4" font-family="Helvetica,sans-Serif" font-size="11.00" fill="#000000">unknown[0]</text>
<polygon fill="none" stroke="#000000" points="293.5,-311.7 293.5,-333.7 394.5,-333.7 394.5,-311.7 293.5,-311.7"/>
<text text-anchor="start" x="313.5" y="-318.8" font-family="Helvetica,sans-Serif" font-size="11.00" fill="#000000">definition</text>
<polygon fill="none" stroke="#000000" points="394.5,-311.7 394.5,-333.7 456.5,-333.7 456.5,-311.7 394.5,-311.7"/>
<text text-anchor="start" x="397.378" y="-319.4" font-family="Helvetica,sans-Serif" font-size="11.00" fill="#000000">unknown[0]</text>
<polygon fill="none" stroke="#000000" points="293.5,-289.7 293.5,-311.7 394.5,-311.7 394.5,-289.7 293.5,-289.7"/>
<text text-anchor="start" x="313.5" y="-296.8" font-family="Helvetica,sans-Serif" font-size="11.00" fill="#000000">description</text>
<polygon fill="none" stroke="#000000" points="394.5,-289.7 394.5,-311.7 456.5,-311.7 456.5,-289.7 394.5,-289.7"/>
<text text-anchor="start" x="397.378" y="-297.4" font-family="Helvetica,sans-Serif" font-size="11.00" fill="#000000">unknown[0]</text>
<polygon fill="#ffffff" stroke="transparent" points="293.5,-270.7 293.5,-289.7 335.5,-289.7 335.5,-270.7 293.5,-270.7"/>
<polygon fill="none" stroke="#000000" points="293.5,-270.7 293.5,-289.7 335.5,-289.7 335.5,-270.7 293.5,-270.7"/>
<text text-anchor="start" x="296.5" y="-276.8" font-family="Helvetica,sans-Serif" font-size="11.00" fill="#000000">&lt; 2</text>
<polygon fill="#ffffff" stroke="transparent" points="335.5,-270.7 335.5,-289.7 394.5,-289.7 394.5,-270.7 335.5,-270.7"/>
<polygon fill="none" stroke="#000000" points="335.5,-270.7 335.5,-289.7 394.5,-289.7 394.5,-270.7 335.5,-270.7"/>
<text text-anchor="start" x="359.1105" y="-276.8" font-family="Helvetica,sans-Serif" font-size="11.00" fill="#000000">0 rows</text>
<polygon fill="#ffffff" stroke="transparent" points="394.5,-270.7 394.5,-289.7 456.5,-289.7 456.5,-270.7 394.5,-270.7"/>
<polygon fill="none" stroke="#000000" points="394.5,-270.7 394.5,-289.7 456.5,-289.7 456.5,-270.7 394.5,-270.7"/>
<text text-anchor="start" x="437.9053" y="-276.8" font-family="Helvetica,sans-Serif" font-size="11.00" fill="#000000">1 &gt;</text>
<polygon fill="none" stroke="#000000" stroke-width="2" points="292,-269.7 292,-379.7 457,-379.7 457,-269.7 292,-269.7"/>
</a>
</g>
</g>
<!-- cm_diagnostics_summary -->
<g id="node2" class="node">
<title>cm_diagnostics_summary</title>
<g id="a_node2"><a xlink:href="../../tables/cm_diagnostics_summary.html" xlink:title="cm_diagnostics_summary" target="_top">
<polygon fill="#ffffff" stroke="transparent" points="8,-208.2 8,-379.2 242,-379.2 242,-208.2 8,-208.2"/>
<polygon fill="#f5f5f5" stroke="transparent" points="8,-355.7 8,-378.7 242,-378.7 242,-355.7 8,-355.7"/>
<polygon fill="none" stroke="#000000" points="8,-355.7 8,-378.7 242,-378.7 242,-355.7 8,-355.7"/>
<text text-anchor="start" x="13" y="-364.3" font-family="Helvetica,sans-Serif" font-weight="bold" font-size="11.00" fill="#000000">cm_diagnostics_summary</text>
<text text-anchor="start" x="207.0437" y="-363.8" font-family="Helvetica,sans-Serif" font-size="11.00" fill="#000000">[table]</text>
<polygon fill="none" stroke="#000000" points="8,-333.7 8,-355.7 242,-355.7 242,-333.7 8,-333.7"/>
<image xlink:href="../../images/primaryKeys.png" width="11px" height="12px" preserveAspectRatio="xMinYMin meet" x="13" y="-350.7"/>
<text text-anchor="start" x="28" y="-340.8" font-family="Helvetica,sans-Serif" font-size="11.00" fill="#000000">analysis_id</text>
<polygon fill="none" stroke="#000000" points="8,-311.7 8,-333.7 242,-333.7 242,-311.7 8,-311.7"/>
<image xlink:href="../../images/foreignKeys.png" width="11px" height="12px" preserveAspectRatio="xMinYMin meet" x="13" y="-328.7"/>
<text text-anchor="start" x="28" y="-318.8" font-family="Helvetica,sans-Serif" font-size="11.00" fill="#000000">comparator_id</text>
<polygon fill="none" stroke="#000000" points="8,-289.7 8,-311.7 242,-311.7 242,-289.7 8,-289.7"/>
<image xlink:href="../../images/foreignKeys.png" width="11px" height="12px" preserveAspectRatio="xMinYMin meet" x="13" y="-306.7"/>
<text text-anchor="start" x="28" y="-296.8" font-family="Helvetica,sans-Serif" font-size="11.00" fill="#000000">database_id</text>
<polygon fill="none" stroke="#000000" points="8,-267.7 8,-289.7 242,-289.7 242,-267.7 8,-267.7"/>
<image xlink:href="../../images/foreignKeys.png" width="11px" height="12px" preserveAspectRatio="xMinYMin meet" x="13" y="-284.7"/>
<text text-anchor="start" x="28" y="-274.8" font-family="Helvetica,sans-Serif" font-size="11.00" fill="#000000">outcome_id</text>
<polygon fill="none" stroke="#000000" points="8,-245.7 8,-267.7 242,-267.7 242,-245.7 8,-245.7"/>
<image xlink:href="../../images/foreignKeys.png" width="11px" height="12px" preserveAspectRatio="xMinYMin meet" x="13" y="-262.7"/>
<text text-anchor="start" x="28" y="-252.8" font-family="Helvetica,sans-Serif" font-size="11.00" fill="#000000">target_id</text>
<polygon fill="none" stroke="#000000" points="8,-226.7 8,-245.7 242,-245.7 242,-226.7 8,-226.7"/>
<text text-anchor="start" x="11" y="-232.8" font-family="Helvetica,sans-Serif" font-size="11.00" fill="#000000">...</text>
<polygon fill="#ffffff" stroke="transparent" points="8,-207.7 8,-226.7 106,-226.7 106,-207.7 8,-207.7"/>
<polygon fill="none" stroke="#000000" points="8,-207.7 8,-226.7 106,-226.7 106,-207.7 8,-207.7"/>
<text text-anchor="start" x="11" y="-213.8" font-family="Helvetica,sans-Serif" font-size="11.00" fill="#000000">&lt; 5</text>
<polygon fill="#ffffff" stroke="transparent" points="106,-207.7 106,-226.7 182,-226.7 182,-207.7 106,-207.7"/>
<polygon fill="none" stroke="#000000" points="106,-207.7 106,-226.7 182,-226.7 182,-207.7 106,-207.7"/>
<text text-anchor="start" x="146.6105" y="-213.8" font-family="Helvetica,sans-Serif" font-size="11.00" fill="#000000">0 rows</text>
<polygon fill="#ffffff" stroke="transparent" points="182,-207.7 182,-226.7 242,-226.7 242,-207.7 182,-207.7"/>
<polygon fill="none" stroke="#000000" points="182,-207.7 182,-226.7 242,-226.7 242,-207.7 182,-207.7"/>
<text text-anchor="start" x="223.4053" y="-213.8" font-family="Helvetica,sans-Serif" font-size="11.00" fill="#000000">1 &gt;</text>
</a>
</g>
</g>
<!-- cm_analysis&#45;&gt;cm_diagnostics_summary -->
<g id="edge1" class="edge">
<title>cm_analysis:w&#45;&gt;cm_diagnostics_summary:e</title>
<path fill="none" stroke="#000000" d="M283.045,-344.7C268.137,-344.7 260.9549,-344.7 242,-344.7"/>
<polygon fill="#000000" stroke="#000000" points="292.7,-340.7 292.7,-348.7 291.1,-348.7 291.1,-340.7 292.7,-340.7"/>
<polyline fill="none" stroke="#000000" points="293.5,-344.7 289.5,-344.7 "/>
<ellipse fill="none" stroke="#000000" cx="286.3" cy="-344.7001" rx="3.2" ry="3.2"/>
</g>
<!-- cm_result -->
<g id="node3" class="node">
<title>cm_result</title>
<g id="a_node3"><a xlink:href="../../tables/cm_result.html" xlink:title="cm_result" target="_top">
<polygon fill="#ffffff" stroke="transparent" points="36.5,-38.2 36.5,-187.2 213.5,-187.2 213.5,-38.2 36.5,-38.2"/>
<polygon fill="#f5f5f5" stroke="transparent" points="37,-163.7 37,-186.7 214,-186.7 214,-163.7 37,-163.7"/>
<polygon fill="none" stroke="#000000" points="37,-163.7 37,-186.7 214,-186.7 214,-163.7 37,-163.7"/>
<text text-anchor="start" x="42" y="-172.3" font-family="Helvetica,sans-Serif" font-weight="bold" font-size="11.00" fill="#000000">cm_result</text>
<text text-anchor="start" x="179.0437" y="-171.8" font-family="Helvetica,sans-Serif" font-size="11.00" fill="#000000">[table]</text>
<polygon fill="none" stroke="#000000" points="37,-141.7 37,-163.7 214,-163.7 214,-141.7 37,-141.7"/>
<image xlink:href="../../images/primaryKeys.png" width="11px" height="12px" preserveAspectRatio="xMinYMin meet" x="42" y="-158.7"/>
<text text-anchor="start" x="57" y="-148.8" font-family="Helvetica,sans-Serif" font-size="11.00" fill="#000000">analysis_id</text>
<polygon fill="none" stroke="#000000" points="37,-119.7 37,-141.7 214,-141.7 214,-119.7 37,-119.7"/>
<image xlink:href="../../images/foreignKeys.png" width="11px" height="12px" preserveAspectRatio="xMinYMin meet" x="42" y="-136.7"/>
<text text-anchor="start" x="57" y="-126.8" font-family="Helvetica,sans-Serif" font-size="11.00" fill="#000000">comparator_id</text>
<polygon fill="none" stroke="#000000" points="37,-97.7 37,-119.7 214,-119.7 214,-97.7 37,-97.7"/>
<image xlink:href="../../images/foreignKeys.png" width="11px" height="12px" preserveAspectRatio="xMinYMin meet" x="42" y="-114.7"/>
<text text-anchor="start" x="57" y="-104.8" font-family="Helvetica,sans-Serif" font-size="11.00" fill="#000000">outcome_id</text>
<polygon fill="none" stroke="#000000" points="37,-75.7 37,-97.7 214,-97.7 214,-75.7 37,-75.7"/>
<image xlink:href="../../images/foreignKeys.png" width="11px" height="12px" preserveAspectRatio="xMinYMin meet" x="42" y="-92.7"/>
<text text-anchor="start" x="57" y="-82.8" font-family="Helvetica,sans-Serif" font-size="11.00" fill="#000000">target_id</text>
<polygon fill="none" stroke="#000000" points="37,-56.7 37,-75.7 214,-75.7 214,-56.7 37,-56.7"/>
<text text-anchor="start" x="40" y="-62.8" font-family="Helvetica,sans-Serif" font-size="11.00" fill="#000000">...</text>
<polygon fill="#ffffff" stroke="transparent" points="37,-37.7 37,-56.7 106,-56.7 106,-37.7 37,-37.7"/>
<polygon fill="none" stroke="#000000" points="37,-37.7 37,-56.7 106,-56.7 106,-37.7 37,-37.7"/>
<text text-anchor="start" x="40" y="-43.8" font-family="Helvetica,sans-Serif" font-size="11.00" fill="#000000">&lt; 3</text>
<polygon fill="#ffffff" stroke="transparent" points="106,-37.7 106,-56.7 168,-56.7 168,-37.7 106,-37.7"/>
<polygon fill="none" stroke="#000000" points="106,-37.7 106,-56.7 168,-56.7 168,-37.7 106,-37.7"/>
<text text-anchor="start" x="132.6105" y="-43.8" font-family="Helvetica,sans-Serif" font-size="11.00" fill="#000000">0 rows</text>
<polygon fill="#ffffff" stroke="transparent" points="168,-37.7 168,-56.7 214,-56.7 214,-37.7 168,-37.7"/>
<polygon fill="none" stroke="#000000" points="168,-37.7 168,-56.7 214,-56.7 214,-37.7 168,-37.7"/>
<text text-anchor="start" x="195.4053" y="-43.8" font-family="Helvetica,sans-Serif" font-size="11.00" fill="#000000">1 &gt;</text>
</a>
</g>
</g>
<!-- cm_analysis&#45;&gt;cm_result -->
<g id="edge2" class="edge">
<title>cm_analysis:w&#45;&gt;cm_result:e</title>
<path fill="none" stroke="#000000" d="M283.1054,-343.7575C209.4396,-329.273 302.571,-152.7 214,-152.7"/>
<polygon fill="#000000" stroke="#000000" points="293.0645,-340.6441 292.342,-348.6114 290.7486,-348.4669 291.471,-340.4996 293.0645,-340.6441"/>
<polyline fill="none" stroke="#000000" points="293.5,-344.7 289.5163,-344.3388 "/>
<ellipse fill="none" stroke="#000000" cx="286.3294" cy="-344.0498" rx="3.2" ry="3.2"/>
</g>
<!-- cm_diagnostics_summary&#45;&gt;cm_analysis -->
<g id="edge3" class="edge">
<title>cm_diagnostics_summary:w&#45;&gt;cm_analysis:e</title>
<path fill="none" stroke="#000000" d="M18.3984,-346.3543C64.7188,-353.7234 250,-383.2 250,-383.2 250,-383.2 456.5,-344.7 456.5,-344.7"/>
<polygon fill="#000000" stroke="#000000" points="8.1616,-348.776 9.4186,-340.8754 10.9987,-341.1268 9.7417,-349.0274 8.1616,-348.776"/>
<polyline fill="none" stroke="#000000" points="8,-344.7 11.9503,-345.3285 "/>
<ellipse fill="none" stroke="#000000" cx="15.1106" cy="-345.8313" rx="3.2" ry="3.2"/>
</g>
</g>
</svg>
