<?xml version="1.0" encoding="UTF-8" standalone="no"?>
<!DOCTYPE svg PUBLIC "-//W3C//DTD SVG 1.1//EN"
 "http://www.w3.org/Graphics/SVG/1.1/DTD/svg11.dtd">
<!-- Generated by graphviz version 2.40.1 (20161225.0304)
 -->
<!-- Title: twoDegreesRelationshipsDiagram Pages: 1 -->
<svg width="778pt" height="395pt"
 viewBox="0.00 0.00 778.00 395.20" xmlns="http://www.w3.org/2000/svg" xmlns:xlink="http://www.w3.org/1999/xlink">
<g id="graph0" class="graph" transform="scale(1 1) rotate(0) translate(4 391.2)">
<title>twoDegreesRelationshipsDiagram</title>
<polygon fill="#ffffff" stroke="transparent" points="-4,4 -4,-391.2 774,-391.2 774,4 -4,4"/>
<text text-anchor="middle" x="72.4936" y="-7.3" font-family="Helvetica,sans-Serif" font-size="11.00" fill="#000000">Generated by SchemaSpy</text>
<!-- cm_analysis -->
<g id="node1" class="node">
<title>cm_analysis</title>
<g id="a_node1"><a xlink:href="../../tables/cm_analysis.html" xlink:title="cm_analysis" target="_top">
<polygon fill="#ffffff" stroke="transparent" points="595,-268.7 595,-380.7 762,-380.7 762,-268.7 595,-268.7"/>
<polygon fill="#f5f5f5" stroke="transparent" points="597.5,-355.7 597.5,-378.7 760.5,-378.7 760.5,-355.7 597.5,-355.7"/>
<polygon fill="none" stroke="#000000" points="597.5,-355.7 597.5,-378.7 760.5,-378.7 760.5,-355.7 597.5,-355.7"/>
<text text-anchor="start" x="602.5" y="-364.3" font-family="Helvetica,sans-Serif" font-weight="bold" font-size="11.00" fill="#000000">cm_analysis</text>
<text text-anchor="start" x="725.5437" y="-363.8" font-family="Helvetica,sans-Serif" font-size="11.00" fill="#000000">[table]</text>
<polygon fill="none" stroke="#000000" points="597.5,-333.7 597.5,-355.7 698.5,-355.7 698.5,-333.7 597.5,-333.7"/>
<image xlink:href="../../images/primaryKeys.png" width="11px" height="12px" preserveAspectRatio="xMinYMin meet" x="602.5" y="-350.7"/>
<text text-anchor="start" x="617.5" y="-340.8" font-family="Helvetica,sans-Serif" font-size="11.00" fill="#000000">analysis_id</text>
<polygon fill="none" stroke="#000000" points="698.5,-333.7 698.5,-355.7 760.5,-355.7 760.5,-333.7 698.5,-333.7"/>
<text text-anchor="start" x="701.378" y="-341.4" font-family="Helvetica,sans-Serif" font-size="11.00" fill="#000000">unknown[0]</text>
<polygon fill="none" stroke="#000000" points="597.5,-311.7 597.5,-333.7 698.5,-333.7 698.5,-311.7 597.5,-311.7"/>
<text text-anchor="start" x="617.5" y="-318.8" font-family="Helvetica,sans-Serif" font-size="11.00" fill="#000000">definition</text>
<polygon fill="none" stroke="#000000" points="698.5,-311.7 698.5,-333.7 760.5,-333.7 760.5,-311.7 698.5,-311.7"/>
<text text-anchor="start" x="701.378" y="-319.4" font-family="Helvetica,sans-Serif" font-size="11.00" fill="#000000">unknown[0]</text>
<polygon fill="none" stroke="#000000" points="597.5,-289.7 597.5,-311.7 698.5,-311.7 698.5,-289.7 597.5,-289.7"/>
<text text-anchor="start" x="617.5" y="-296.8" font-family="Helvetica,sans-Serif" font-size="11.00" fill="#000000">description</text>
<polygon fill="none" stroke="#000000" points="698.5,-289.7 698.5,-311.7 760.5,-311.7 760.5,-289.7 698.5,-289.7"/>
<text text-anchor="start" x="701.378" y="-297.4" font-family="Helvetica,sans-Serif" font-size="11.00" fill="#000000">unknown[0]</text>
<polygon fill="#ffffff" stroke="transparent" points="597.5,-270.7 597.5,-289.7 639.5,-289.7 639.5,-270.7 597.5,-270.7"/>
<polygon fill="none" stroke="#000000" points="597.5,-270.7 597.5,-289.7 639.5,-289.7 639.5,-270.7 597.5,-270.7"/>
<text text-anchor="start" x="600.5" y="-276.8" font-family="Helvetica,sans-Serif" font-size="11.00" fill="#000000">&lt; 2</text>
<polygon fill="#ffffff" stroke="transparent" points="639.5,-270.7 639.5,-289.7 698.5,-289.7 698.5,-270.7 639.5,-270.7"/>
<polygon fill="none" stroke="#000000" points="639.5,-270.7 639.5,-289.7 698.5,-289.7 698.5,-270.7 639.5,-270.7"/>
<text text-anchor="start" x="663.1105" y="-276.8" font-family="Helvetica,sans-Serif" font-size="11.00" fill="#000000">0 rows</text>
<polygon fill="#ffffff" stroke="transparent" points="698.5,-270.7 698.5,-289.7 760.5,-289.7 760.5,-270.7 698.5,-270.7"/>
<polygon fill="none" stroke="#000000" points="698.5,-270.7 698.5,-289.7 760.5,-289.7 760.5,-270.7 698.5,-270.7"/>
<text text-anchor="start" x="741.9053" y="-276.8" font-family="Helvetica,sans-Serif" font-size="11.00" fill="#000000">1 &gt;</text>
<polygon fill="none" stroke="#000000" stroke-width="2" points="596,-269.7 596,-379.7 761,-379.7 761,-269.7 596,-269.7"/>
</a>
</g>
</g>
<!-- cm_diagnostics_summary -->
<g id="node2" class="node">
<title>cm_diagnostics_summary</title>
<g id="a_node2"><a xlink:href="../../tables/cm_diagnostics_summary.html" xlink:title="cm_diagnostics_summary" target="_top">
<polygon fill="#ffffff" stroke="transparent" points="312,-208.2 312,-379.2 546,-379.2 546,-208.2 312,-208.2"/>
<polygon fill="#f5f5f5" stroke="transparent" points="312,-355.7 312,-378.7 546,-378.7 546,-355.7 312,-355.7"/>
<polygon fill="none" stroke="#000000" points="312,-355.7 312,-378.7 546,-378.7 546,-355.7 312,-355.7"/>
<text text-anchor="start" x="317" y="-364.3" font-family="Helvetica,sans-Serif" font-weight="bold" font-size="11.00" fill="#000000">cm_diagnostics_summary</text>
<text text-anchor="start" x="511.0437" y="-363.8" font-family="Helvetica,sans-Serif" font-size="11.00" fill="#000000">[table]</text>
<polygon fill="none" stroke="#000000" points="312,-333.7 312,-355.7 546,-355.7 546,-333.7 312,-333.7"/>
<image xlink:href="../../images/primaryKeys.png" width="11px" height="12px" preserveAspectRatio="xMinYMin meet" x="317" y="-350.7"/>
<text text-anchor="start" x="332" y="-340.8" font-family="Helvetica,sans-Serif" font-size="11.00" fill="#000000">analysis_id</text>
<polygon fill="none" stroke="#000000" points="312,-311.7 312,-333.7 546,-333.7 546,-311.7 312,-311.7"/>
<image xlink:href="../../images/foreignKeys.png" width="11px" height="12px" preserveAspectRatio="xMinYMin meet" x="317" y="-328.7"/>
<text text-anchor="start" x="332" y="-318.8" font-family="Helvetica,sans-Serif" font-size="11.00" fill="#000000">comparator_id</text>
<polygon fill="none" stroke="#000000" points="312,-289.7 312,-311.7 546,-311.7 546,-289.7 312,-289.7"/>
<image xlink:href="../../images/foreignKeys.png" width="11px" height="12px" preserveAspectRatio="xMinYMin meet" x="317" y="-306.7"/>
<text text-anchor="start" x="332" y="-296.8" font-family="Helvetica,sans-Serif" font-size="11.00" fill="#000000">database_id</text>
<polygon fill="none" stroke="#000000" points="312,-267.7 312,-289.7 546,-289.7 546,-267.7 312,-267.7"/>
<image xlink:href="../../images/foreignKeys.png" width="11px" height="12px" preserveAspectRatio="xMinYMin meet" x="317" y="-284.7"/>
<text text-anchor="start" x="332" y="-274.8" font-family="Helvetica,sans-Serif" font-size="11.00" fill="#000000">outcome_id</text>
<polygon fill="none" stroke="#000000" points="312,-245.7 312,-267.7 546,-267.7 546,-245.7 312,-245.7"/>
<image xlink:href="../../images/foreignKeys.png" width="11px" height="12px" preserveAspectRatio="xMinYMin meet" x="317" y="-262.7"/>
<text text-anchor="start" x="332" y="-252.8" font-family="Helvetica,sans-Serif" font-size="11.00" fill="#000000">target_id</text>
<polygon fill="none" stroke="#000000" points="312,-226.7 312,-245.7 546,-245.7 546,-226.7 312,-226.7"/>
<text text-anchor="start" x="315" y="-232.8" font-family="Helvetica,sans-Serif" font-size="11.00" fill="#000000">...</text>
<polygon fill="#ffffff" stroke="transparent" points="312,-207.7 312,-226.7 410,-226.7 410,-207.7 312,-207.7"/>
<polygon fill="none" stroke="#000000" points="312,-207.7 312,-226.7 410,-226.7 410,-207.7 312,-207.7"/>
<text text-anchor="start" x="315" y="-213.8" font-family="Helvetica,sans-Serif" font-size="11.00" fill="#000000">&lt; 5</text>
<polygon fill="#ffffff" stroke="transparent" points="410,-207.7 410,-226.7 486,-226.7 486,-207.7 410,-207.7"/>
<polygon fill="none" stroke="#000000" points="410,-207.7 410,-226.7 486,-226.7 486,-207.7 410,-207.7"/>
<text text-anchor="start" x="450.6105" y="-213.8" font-family="Helvetica,sans-Serif" font-size="11.00" fill="#000000">0 rows</text>
<polygon fill="#ffffff" stroke="transparent" points="486,-207.7 486,-226.7 546,-226.7 546,-207.7 486,-207.7"/>
<polygon fill="none" stroke="#000000" points="486,-207.7 486,-226.7 546,-226.7 546,-207.7 486,-207.7"/>
<text text-anchor="start" x="527.4053" y="-213.8" font-family="Helvetica,sans-Serif" font-size="11.00" fill="#000000">1 &gt;</text>
</a>
</g>
</g>
<!-- cm_analysis&#45;&gt;cm_diagnostics_summary -->
<g id="edge1" class="edge">
<title>cm_analysis:w&#45;&gt;cm_diagnostics_summary:e</title>
<path fill="none" stroke="#000000" d="M587.045,-344.7C572.137,-344.7 564.9549,-344.7 546,-344.7"/>
<polygon fill="#000000" stroke="#000000" points="596.7,-340.7 596.7,-348.7 595.1,-348.7 595.1,-340.7 596.7,-340.7"/>
<polyline fill="none" stroke="#000000" points="597.5,-344.7 593.5,-344.7 "/>
<ellipse fill="none" stroke="#000000" cx="590.3" cy="-344.7001" rx="3.2" ry="3.2"/>
</g>
<!-- cm_result -->
<g id="node3" class="node">
<title>cm_result</title>
<g id="a_node3"><a xlink:href="../../tables/cm_result.html" xlink:title="cm_result" target="_top">
<polygon fill="#ffffff" stroke="transparent" points="340.5,-38.2 340.5,-187.2 517.5,-187.2 517.5,-38.2 340.5,-38.2"/>
<polygon fill="#f5f5f5" stroke="transparent" points="341,-163.7 341,-186.7 518,-186.7 518,-163.7 341,-163.7"/>
<polygon fill="none" stroke="#000000" points="341,-163.7 341,-186.7 518,-186.7 518,-163.7 341,-163.7"/>
<text text-anchor="start" x="346" y="-172.3" font-family="Helvetica,sans-Serif" font-weight="bold" font-size="11.00" fill="#000000">cm_result</text>
<text text-anchor="start" x="483.0437" y="-171.8" font-family="Helvetica,sans-Serif" font-size="11.00" fill="#000000">[table]</text>
<polygon fill="none" stroke="#000000" points="341,-141.7 341,-163.7 518,-163.7 518,-141.7 341,-141.7"/>
<image xlink:href="../../images/primaryKeys.png" width="11px" height="12px" preserveAspectRatio="xMinYMin meet" x="346" y="-158.7"/>
<text text-anchor="start" x="361" y="-148.8" font-family="Helvetica,sans-Serif" font-size="11.00" fill="#000000">analysis_id</text>
<polygon fill="none" stroke="#000000" points="341,-119.7 341,-141.7 518,-141.7 518,-119.7 341,-119.7"/>
<image xlink:href="../../images/foreignKeys.png" width="11px" height="12px" preserveAspectRatio="xMinYMin meet" x="346" y="-136.7"/>
<text text-anchor="start" x="361" y="-126.8" font-family="Helvetica,sans-Serif" font-size="11.00" fill="#000000">comparator_id</text>
<polygon fill="none" stroke="#000000" points="341,-97.7 341,-119.7 518,-119.7 518,-97.7 341,-97.7"/>
<image xlink:href="../../images/foreignKeys.png" width="11px" height="12px" preserveAspectRatio="xMinYMin meet" x="346" y="-114.7"/>
<text text-anchor="start" x="361" y="-104.8" font-family="Helvetica,sans-Serif" font-size="11.00" fill="#000000">outcome_id</text>
<polygon fill="none" stroke="#000000" points="341,-75.7 341,-97.7 518,-97.7 518,-75.7 341,-75.7"/>
<image xlink:href="../../images/foreignKeys.png" width="11px" height="12px" preserveAspectRatio="xMinYMin meet" x="346" y="-92.7"/>
<text text-anchor="start" x="361" y="-82.8" font-family="Helvetica,sans-Serif" font-size="11.00" fill="#000000">target_id</text>
<polygon fill="none" stroke="#000000" points="341,-56.7 341,-75.7 518,-75.7 518,-56.7 341,-56.7"/>
<text text-anchor="start" x="344" y="-62.8" font-family="Helvetica,sans-Serif" font-size="11.00" fill="#000000">...</text>
<polygon fill="#ffffff" stroke="transparent" points="341,-37.7 341,-56.7 410,-56.7 410,-37.7 341,-37.7"/>
<polygon fill="none" stroke="#000000" points="341,-37.7 341,-56.7 410,-56.7 410,-37.7 341,-37.7"/>
<text text-anchor="start" x="344" y="-43.8" font-family="Helvetica,sans-Serif" font-size="11.00" fill="#000000">&lt; 3</text>
<polygon fill="#ffffff" stroke="transparent" points="410,-37.7 410,-56.7 472,-56.7 472,-37.7 410,-37.7"/>
<polygon fill="none" stroke="#000000" points="410,-37.7 410,-56.7 472,-56.7 472,-37.7 410,-37.7"/>
<text text-anchor="start" x="436.6105" y="-43.8" font-family="Helvetica,sans-Serif" font-size="11.00" fill="#000000">0 rows</text>
<polygon fill="#ffffff" stroke="transparent" points="472,-37.7 472,-56.7 518,-56.7 518,-37.7 472,-37.7"/>
<polygon fill="none" stroke="#000000" points="472,-37.7 472,-56.7 518,-56.7 518,-37.7 472,-37.7"/>
<text text-anchor="start" x="499.4053" y="-43.8" font-family="Helvetica,sans-Serif" font-size="11.00" fill="#000000">1 &gt;</text>
</a>
</g>
</g>
<!-- cm_analysis&#45;&gt;cm_result -->
<g id="edge2" class="edge">
<title>cm_analysis:w&#45;&gt;cm_result:e</title>
<path fill="none" stroke="#000000" d="M587.1054,-343.7575C513.4396,-329.273 606.571,-152.7 518,-152.7"/>
<polygon fill="#000000" stroke="#000000" points="597.0645,-340.6441 596.342,-348.6114 594.7486,-348.4669 595.471,-340.4996 597.0645,-340.6441"/>
<polyline fill="none" stroke="#000000" points="597.5,-344.7 593.5163,-344.3388 "/>
<ellipse fill="none" stroke="#000000" cx="590.3294" cy="-344.0498" rx="3.2" ry="3.2"/>
</g>
<!-- cm_diagnostics_summary&#45;&gt;cm_analysis -->
<g id="edge3" class="edge">
<title>cm_diagnostics_summary:w&#45;&gt;cm_analysis:e</title>
<path fill="none" stroke="#000000" d="M322.3984,-346.3543C368.7188,-353.7234 554,-383.2 554,-383.2 554,-383.2 760.5,-344.7 760.5,-344.7"/>
<polygon fill="#000000" stroke="#000000" points="312.1616,-348.776 313.4186,-340.8754 314.9987,-341.1268 313.7417,-349.0274 312.1616,-348.776"/>
<polyline fill="none" stroke="#000000" points="312,-344.7 315.9503,-345.3285 "/>
<ellipse fill="none" stroke="#000000" cx="319.1106" cy="-345.8313" rx="3.2" ry="3.2"/>
</g>
<!-- cg_cohort_definition -->
<g id="node4" class="node">
<title>cg_cohort_definition</title>
<g id="a_node4"><a xlink:href="../../tables/cg_cohort_definition.html" xlink:title="cg_cohort_definition" target="_top">
<polygon fill="#ffffff" stroke="transparent" points="48,-240.2 48,-301.2 223,-301.2 223,-240.2 48,-240.2"/>
<polygon fill="#f5f5f5" stroke="transparent" points="48.5,-277.7 48.5,-300.7 223.5,-300.7 223.5,-277.7 48.5,-277.7"/>
<polygon fill="none" stroke="#000000" points="48.5,-277.7 48.5,-300.7 223.5,-300.7 223.5,-277.7 48.5,-277.7"/>
<text text-anchor="start" x="53.5" y="-286.3" font-family="Helvetica,sans-Serif" font-weight="bold" font-size="11.00" fill="#000000">cg_cohort_definition</text>
<text text-anchor="start" x="189.0219" y="-285.8" font-family="Helvetica,sans-Serif" font-size="11.00" fill="#000000">[table]</text>
<polygon fill="none" stroke="#000000" points="48.5,-258.7 48.5,-277.7 223.5,-277.7 223.5,-258.7 48.5,-258.7"/>
<text text-anchor="start" x="51.5" y="-264.8" font-family="Helvetica,sans-Serif" font-size="11.00" fill="#000000">...</text>
<polygon fill="#ffffff" stroke="transparent" points="48.5,-239.7 48.5,-258.7 109.5,-258.7 109.5,-239.7 48.5,-239.7"/>
<polygon fill="none" stroke="#000000" points="48.5,-239.7 48.5,-258.7 109.5,-258.7 109.5,-239.7 48.5,-239.7"/>
<text text-anchor="start" x="51.5" y="-245.8" font-family="Helvetica,sans-Serif" font-size="11.00" fill="#000000"> &#160;</text>
<polygon fill="#ffffff" stroke="transparent" points="109.5,-239.7 109.5,-258.7 171.5,-258.7 171.5,-239.7 109.5,-239.7"/>
<polygon fill="none" stroke="#000000" points="109.5,-239.7 109.5,-258.7 171.5,-258.7 171.5,-239.7 109.5,-239.7"/>
<text text-anchor="start" x="136.1105" y="-245.8" font-family="Helvetica,sans-Serif" font-size="11.00" fill="#000000">0 rows</text>
<polygon fill="#ffffff" stroke="transparent" points="171.5,-239.7 171.5,-258.7 223.5,-258.7 223.5,-239.7 171.5,-239.7"/>
<polygon fill="none" stroke="#000000" points="171.5,-239.7 171.5,-258.7 223.5,-258.7 223.5,-239.7 171.5,-239.7"/>
<text text-anchor="start" x="198.7904" y="-245.8" font-family="Helvetica,sans-Serif" font-size="11.00" fill="#000000">17 &gt;</text>
</a>
</g>
</g>
<!-- cm_diagnostics_summary&#45;&gt;cg_cohort_definition -->
<g id="edge4" class="edge">
<title>cm_diagnostics_summary:w&#45;&gt;cg_cohort_definition:e</title>
<path fill="none" stroke="#000000" d="M297.6344,-320.6111C265.9629,-310.5647 264.3833,-267.7 223.5,-267.7"/>
<polygon fill="#000000" stroke="#000000" points="304.0833,-321.5488 311.4819,-326.2625 308.0416,-322.1244 312,-322.7 312,-322.7 312,-322.7 308.0416,-322.1244 312.5181,-319.1375 304.0833,-321.5488 304.0833,-321.5488"/>
<ellipse fill="none" stroke="#000000" cx="300.9166" cy="-321.0883" rx="3.2" ry="3.2"/>
</g>
<!-- cm_diagnostics_summary&#45;&gt;cg_cohort_definition -->
<g id="edge6" class="edge">
<title>cm_diagnostics_summary:w&#45;&gt;cg_cohort_definition:e</title>
<path fill="none" stroke="#000000" d="M297.2928,-278.1394C269.2723,-275.8978 257.717,-267.7 223.5,-267.7"/>
<polygon fill="#000000" stroke="#000000" points="304.0058,-278.3952 311.8629,-282.2974 308.0029,-278.5476 312,-278.7 312,-278.7 312,-278.7 308.0029,-278.5476 312.1371,-275.1026 304.0058,-278.3952 304.0058,-278.3952"/>
<ellipse fill="none" stroke="#000000" cx="300.8081" cy="-278.2733" rx="3.2" ry="3.2"/>
</g>
<!-- cm_diagnostics_summary&#45;&gt;cg_cohort_definition -->
<g id="edge7" class="edge">
<title>cm_diagnostics_summary:w&#45;&gt;cg_cohort_definition:e</title>
<path fill="none" stroke="#000000" d="M297.2928,-257.2606C269.2723,-259.5022 257.717,-267.7 223.5,-267.7"/>
<polygon fill="#000000" stroke="#000000" points="304.0058,-257.0048 312.1371,-260.2974 308.0029,-256.8524 312,-256.7 312,-256.7 312,-256.7 308.0029,-256.8524 311.8629,-253.1026 304.0058,-257.0048 304.0058,-257.0048"/>
<ellipse fill="none" stroke="#000000" cx="300.8081" cy="-257.1267" rx="3.2" ry="3.2"/>
</g>
<!-- database_meta_data -->
<g id="node5" class="node">
<title>database_meta_data</title>
<g id="a_node5"><a xlink:href="../../tables/database_meta_data.html" xlink:title="database_meta_data" target="_top">
<polygon fill="#ffffff" stroke="transparent" points="46.5,-322.2 46.5,-383.2 224.5,-383.2 224.5,-322.2 46.5,-322.2"/>
<polygon fill="#f5f5f5" stroke="transparent" points="46.5,-359.7 46.5,-382.7 224.5,-382.7 224.5,-359.7 46.5,-359.7"/>
<polygon fill="none" stroke="#000000" points="46.5,-359.7 46.5,-382.7 224.5,-382.7 224.5,-359.7 46.5,-359.7"/>
<text text-anchor="start" x="51.5" y="-368.3" font-family="Helvetica,sans-Serif" font-weight="bold" font-size="11.00" fill="#000000">database_meta_data</text>
<text text-anchor="start" x="190.0219" y="-367.8" font-family="Helvetica,sans-Serif" font-size="11.00" fill="#000000">[table]</text>
<polygon fill="none" stroke="#000000" points="46.5,-340.7 46.5,-359.7 224.5,-359.7 224.5,-340.7 46.5,-340.7"/>
<text text-anchor="start" x="49.5" y="-346.8" font-family="Helvetica,sans-Serif" font-size="11.00" fill="#000000">...</text>
<polygon fill="#ffffff" stroke="transparent" points="46.5,-321.7 46.5,-340.7 113.5,-340.7 113.5,-321.7 46.5,-321.7"/>
<polygon fill="none" stroke="#000000" points="46.5,-321.7 46.5,-340.7 113.5,-340.7 113.5,-321.7 46.5,-321.7"/>
<text text-anchor="start" x="49.5" y="-327.8" font-family="Helvetica,sans-Serif" font-size="11.00" fill="#000000">&lt; 1</text>
<polygon fill="#ffffff" stroke="transparent" points="113.5,-321.7 113.5,-340.7 174.5,-340.7 174.5,-321.7 113.5,-321.7"/>
<polygon fill="none" stroke="#000000" points="113.5,-321.7 113.5,-340.7 174.5,-340.7 174.5,-321.7 113.5,-321.7"/>
<text text-anchor="start" x="139.1105" y="-327.8" font-family="Helvetica,sans-Serif" font-size="11.00" fill="#000000">0 rows</text>
<polygon fill="#ffffff" stroke="transparent" points="174.5,-321.7 174.5,-340.7 224.5,-340.7 224.5,-321.7 174.5,-321.7"/>
<polygon fill="none" stroke="#000000" points="174.5,-321.7 174.5,-340.7 224.5,-340.7 224.5,-321.7 174.5,-321.7"/>
<text text-anchor="start" x="199.7904" y="-327.8" font-family="Helvetica,sans-Serif" font-size="11.00" fill="#000000">17 &gt;</text>
</a>
</g>
</g>
<!-- cm_diagnostics_summary&#45;&gt;database_meta_data -->
<g id="edge5" class="edge">
<title>cm_diagnostics_summary:w&#45;&gt;database_meta_data:e</title>
<path fill="none" stroke="#000000" d="M297.6769,-302.6815C267.1487,-311.8487 263.6742,-349.7 224.5,-349.7"/>
<polygon fill="#000000" stroke="#000000" points="304.0755,-301.7964 312.4934,-304.266 308.0377,-301.2482 312,-300.7 312,-300.7 312,-300.7 308.0377,-301.2482 311.5066,-297.134 304.0755,-301.7964 304.0755,-301.7964"/>
<ellipse fill="none" stroke="#000000" cx="300.9057" cy="-302.2349" rx="3.2" ry="3.2"/>
</g>
<!-- cm_target_comparator_outcome -->
<g id="node6" class="node">
<title>cm_target_comparator_outcome</title>
<g id="a_node6"><a xlink:href="../../tables/cm_target_comparator_outcome.html" xlink:title="cm_target_comparator_outcome" target="_top">
<polygon fill="#ffffff" stroke="transparent" points="8,-81.2 8,-142.2 263,-142.2 263,-81.2 8,-81.2"/>
<polygon fill="#f5f5f5" stroke="transparent" points="8.5,-118.7 8.5,-141.7 263.5,-141.7 263.5,-118.7 8.5,-118.7"/>
<polygon fill="none" stroke="#000000" points="8.5,-118.7 8.5,-141.7 263.5,-141.7 263.5,-118.7 8.5,-118.7"/>
<text text-anchor="start" x="13.5" y="-127.3" font-family="Helvetica,sans-Serif" font-weight="bold" font-size="11.00" fill="#000000">cm_target_comparator_outcome</text>
<text text-anchor="start" x="229.0219" y="-126.8" font-family="Helvetica,sans-Serif" font-size="11.00" fill="#000000">[table]</text>
<polygon fill="none" stroke="#000000" points="8.5,-99.7 8.5,-118.7 263.5,-118.7 263.5,-99.7 8.5,-99.7"/>
<text text-anchor="start" x="11.5" y="-105.8" font-family="Helvetica,sans-Serif" font-size="11.00" fill="#000000">...</text>
<polygon fill="#ffffff" stroke="transparent" points="8.5,-80.7 8.5,-99.7 112.5,-99.7 112.5,-80.7 8.5,-80.7"/>
<polygon fill="none" stroke="#000000" points="8.5,-80.7 8.5,-99.7 112.5,-99.7 112.5,-80.7 8.5,-80.7"/>
<text text-anchor="start" x="11.5" y="-86.8" font-family="Helvetica,sans-Serif" font-size="11.00" fill="#000000"> &#160;</text>
<polygon fill="#ffffff" stroke="transparent" points="112.5,-80.7 112.5,-99.7 196.5,-99.7 196.5,-80.7 112.5,-80.7"/>
<polygon fill="none" stroke="#000000" points="112.5,-80.7 112.5,-99.7 196.5,-99.7 196.5,-80.7 112.5,-80.7"/>
<text text-anchor="start" x="161.1105" y="-86.8" font-family="Helvetica,sans-Serif" font-size="11.00" fill="#000000">0 rows</text>
<polygon fill="#ffffff" stroke="transparent" points="196.5,-80.7 196.5,-99.7 263.5,-99.7 263.5,-80.7 196.5,-80.7"/>
<polygon fill="none" stroke="#000000" points="196.5,-80.7 196.5,-99.7 263.5,-99.7 263.5,-80.7 196.5,-80.7"/>
<text text-anchor="start" x="244.9053" y="-86.8" font-family="Helvetica,sans-Serif" font-size="11.00" fill="#000000">3 &gt;</text>
</a>
</g>
</g>
<!-- cm_result&#45;&gt;cm_target_comparator_outcome -->
<g id="edge8" class="edge">
<title>cm_result:w&#45;&gt;cm_target_comparator_outcome:e</title>
<path fill="none" stroke="#000000" d="M326.5072,-129.3238C302.7059,-124.5075 293.8506,-108.7 263.5,-108.7"/>
<polygon fill="#000000" stroke="#000000" points="333.0358,-129.9437 340.6597,-134.2839 337.0179,-130.3218 341,-130.7 341,-130.7 341,-130.7 337.0179,-130.3218 341.3403,-127.1161 333.0358,-129.9437 333.0358,-129.9437"/>
<ellipse fill="none" stroke="#000000" cx="329.8502" cy="-129.6412" rx="3.2" ry="3.2"/>
</g>
<!-- cm_result&#45;&gt;cm_target_comparator_outcome -->
<g id="edge9" class="edge">
<title>cm_result:w&#45;&gt;cm_target_comparator_outcome:e</title>
<path fill="none" stroke="#000000" d="M326.5492,-108.7C303.2339,-108.7 292.5625,-108.7 263.5,-108.7"/>
<polygon fill="#000000" stroke="#000000" points="333,-108.7001 341,-112.3 337,-108.7 341,-108.7 341,-108.7 341,-108.7 337,-108.7 341,-105.1 333,-108.7001 333,-108.7001"/>
<ellipse fill="none" stroke="#000000" cx="329.8" cy="-108.7001" rx="3.2" ry="3.2"/>
</g>
<!-- cm_result&#45;&gt;cm_target_comparator_outcome -->
<g id="edge10" class="edge">
<title>cm_result:w&#45;&gt;cm_target_comparator_outcome:e</title>
<path fill="none" stroke="#000000" d="M326.5072,-88.0762C302.7059,-92.8925 293.8506,-108.7 263.5,-108.7"/>
<polygon fill="#000000" stroke="#000000" points="333.0358,-87.4563 341.3403,-90.2839 337.0179,-87.0782 341,-86.7 341,-86.7 341,-86.7 337.0179,-87.0782 340.6597,-83.1161 333.0358,-87.4563 333.0358,-87.4563"/>
<ellipse fill="none" stroke="#000000" cx="329.8502" cy="-87.7588" rx="3.2" ry="3.2"/>
</g>
</g>
</svg>
