<?xml version="1.0" encoding="UTF-8" standalone="no"?>
<!DOCTYPE svg PUBLIC "-//W3C//DTD SVG 1.1//EN"
 "http://www.w3.org/Graphics/SVG/1.1/DTD/svg11.dtd">
<!-- Generated by graphviz version 2.40.1 (20161225.0304)
 -->
<!-- Title: twoDegreesRelationshipsDiagram Pages: 1 -->
<svg width="776pt" height="371pt"
 viewBox="0.00 0.00 776.00 371.20" xmlns="http://www.w3.org/2000/svg" xmlns:xlink="http://www.w3.org/1999/xlink">
<g id="graph0" class="graph" transform="scale(1 1) rotate(0) translate(4 367.2)">
<title>twoDegreesRelationshipsDiagram</title>
<polygon fill="#ffffff" stroke="transparent" points="-4,4 -4,-367.2 772,-367.2 772,4 -4,4"/>
<text text-anchor="middle" x="72.4936" y="-7.3" font-family="Helvetica,sans-Serif" font-size="11.00" fill="#000000">Generated by SchemaSpy</text>
<!-- cm_covariate -->
<g id="node1" class="node">
<title>cm_covariate</title>
<g id="a_node1"><a xlink:href="../../tables/cm_covariate.html" xlink:title="cm_covariate" target="_top">
<polygon fill="#ffffff" stroke="transparent" points="242,-120.7 242,-276.7 472,-276.7 472,-120.7 242,-120.7"/>
<polygon fill="#f5f5f5" stroke="transparent" points="244,-251.7 244,-274.7 470,-274.7 470,-251.7 244,-251.7"/>
<polygon fill="none" stroke="#000000" points="244,-251.7 244,-274.7 470,-274.7 470,-251.7 244,-251.7"/>
<text text-anchor="start" x="249" y="-260.3" font-family="Helvetica,sans-Serif" font-weight="bold" font-size="11.00" fill="#000000">cm_covariate</text>
<text text-anchor="start" x="435.0437" y="-259.8" font-family="Helvetica,sans-Serif" font-size="11.00" fill="#000000">[table]</text>
<polygon fill="none" stroke="#000000" points="244,-229.7 244,-251.7 408,-251.7 408,-229.7 244,-229.7"/>
<image xlink:href="../../images/primaryKeys.png" width="11px" height="12px" preserveAspectRatio="xMinYMin meet" x="249" y="-246.7"/>
<text text-anchor="start" x="264" y="-236.8" font-family="Helvetica,sans-Serif" font-size="11.00" fill="#000000">analysis_id</text>
<polygon fill="none" stroke="#000000" points="408,-229.7 408,-251.7 470,-251.7 470,-229.7 408,-229.7"/>
<text text-anchor="start" x="410.878" y="-237.4" font-family="Helvetica,sans-Serif" font-size="11.00" fill="#000000">unknown[0]</text>
<polygon fill="none" stroke="#000000" points="244,-207.7 244,-229.7 408,-229.7 408,-207.7 244,-207.7"/>
<text text-anchor="start" x="264" y="-214.8" font-family="Helvetica,sans-Serif" font-size="11.00" fill="#000000">covariate_analysis_id</text>
<polygon fill="none" stroke="#000000" points="408,-207.7 408,-229.7 470,-229.7 470,-207.7 408,-207.7"/>
<text text-anchor="start" x="410.878" y="-215.4" font-family="Helvetica,sans-Serif" font-size="11.00" fill="#000000">unknown[0]</text>
<polygon fill="none" stroke="#000000" points="244,-185.7 244,-207.7 408,-207.7 408,-185.7 244,-185.7"/>
<image xlink:href="../../images/primaryKeys.png" width="11px" height="12px" preserveAspectRatio="xMinYMin meet" x="249" y="-202.7"/>
<text text-anchor="start" x="264" y="-192.8" font-family="Helvetica,sans-Serif" font-size="11.00" fill="#000000">covariate_id</text>
<polygon fill="none" stroke="#000000" points="408,-185.7 408,-207.7 470,-207.7 470,-185.7 408,-185.7"/>
<text text-anchor="start" x="410.878" y="-193.4" font-family="Helvetica,sans-Serif" font-size="11.00" fill="#000000">unknown[0]</text>
<polygon fill="none" stroke="#000000" points="244,-163.7 244,-185.7 408,-185.7 408,-163.7 244,-163.7"/>
<text text-anchor="start" x="264" y="-170.8" font-family="Helvetica,sans-Serif" font-size="11.00" fill="#000000">covariate_name</text>
<polygon fill="none" stroke="#000000" points="408,-163.7 408,-185.7 470,-185.7 470,-163.7 408,-163.7"/>
<text text-anchor="start" x="410.878" y="-171.4" font-family="Helvetica,sans-Serif" font-size="11.00" fill="#000000">unknown[0]</text>
<polygon fill="none" stroke="#000000" points="244,-141.7 244,-163.7 408,-163.7 408,-141.7 244,-141.7"/>
<image xlink:href="../../images/primaryKeys.png" width="11px" height="12px" preserveAspectRatio="xMinYMin meet" x="249" y="-158.7"/>
<text text-anchor="start" x="264" y="-148.8" font-family="Helvetica,sans-Serif" font-size="11.00" fill="#000000">database_id</text>
<polygon fill="none" stroke="#000000" points="408,-141.7 408,-163.7 470,-163.7 470,-141.7 408,-141.7"/>
<text text-anchor="start" x="410.878" y="-149.4" font-family="Helvetica,sans-Serif" font-size="11.00" fill="#000000">unknown[0]</text>
<polygon fill="#ffffff" stroke="transparent" points="244,-122.7 244,-141.7 317,-141.7 317,-122.7 244,-122.7"/>
<polygon fill="none" stroke="#000000" points="244,-122.7 244,-141.7 317,-141.7 317,-122.7 244,-122.7"/>
<text text-anchor="start" x="247" y="-128.8" font-family="Helvetica,sans-Serif" font-size="11.00" fill="#000000">&lt; 1</text>
<polygon fill="#ffffff" stroke="transparent" points="317,-122.7 317,-141.7 408,-141.7 408,-122.7 317,-122.7"/>
<polygon fill="none" stroke="#000000" points="317,-122.7 317,-141.7 408,-141.7 408,-122.7 317,-122.7"/>
<text text-anchor="start" x="372.6105" y="-128.8" font-family="Helvetica,sans-Serif" font-size="11.00" fill="#000000">0 rows</text>
<polygon fill="#ffffff" stroke="transparent" points="408,-122.7 408,-141.7 470,-141.7 470,-122.7 408,-122.7"/>
<polygon fill="none" stroke="#000000" points="408,-122.7 408,-141.7 470,-141.7 470,-122.7 408,-122.7"/>
<text text-anchor="start" x="451.4053" y="-128.8" font-family="Helvetica,sans-Serif" font-size="11.00" fill="#000000">6 &gt;</text>
<polygon fill="none" stroke="#000000" stroke-width="2" points="243,-121.7 243,-275.7 471,-275.7 471,-121.7 243,-121.7"/>
</a>
</g>
</g>
<!-- cm_propensity_model -->
<g id="node2" class="node">
<title>cm_propensity_model</title>
<g id="a_node2"><a xlink:href="../../tables/cm_propensity_model.html" xlink:title="cm_propensity_model" target="_top">
<polygon fill="#ffffff" stroke="transparent" points="8,-148.2 8,-231.2 193,-231.2 193,-148.2 8,-148.2"/>
<polygon fill="#f5f5f5" stroke="transparent" points="8.5,-207.7 8.5,-230.7 193.5,-230.7 193.5,-207.7 8.5,-207.7"/>
<polygon fill="none" stroke="#000000" points="8.5,-207.7 8.5,-230.7 193.5,-230.7 193.5,-207.7 8.5,-207.7"/>
<text text-anchor="start" x="13.5" y="-216.3" font-family="Helvetica,sans-Serif" font-weight="bold" font-size="11.00" fill="#000000">cm_propensity_model</text>
<text text-anchor="start" x="159.0219" y="-215.8" font-family="Helvetica,sans-Serif" font-size="11.00" fill="#000000">[table]</text>
<polygon fill="none" stroke="#000000" points="8.5,-185.7 8.5,-207.7 193.5,-207.7 193.5,-185.7 8.5,-185.7"/>
<image xlink:href="../../images/primaryKeys.png" width="11px" height="12px" preserveAspectRatio="xMinYMin meet" x="13.5" y="-202.7"/>
<text text-anchor="start" x="37.5" y="-192.8" font-family="Helvetica,sans-Serif" font-size="11.00" fill="#000000">covariate_id</text>
<polygon fill="none" stroke="#000000" points="8.5,-166.7 8.5,-185.7 193.5,-185.7 193.5,-166.7 8.5,-166.7"/>
<text text-anchor="start" x="11.5" y="-172.8" font-family="Helvetica,sans-Serif" font-size="11.00" fill="#000000">...</text>
<polygon fill="#ffffff" stroke="transparent" points="8.5,-147.7 8.5,-166.7 77.5,-166.7 77.5,-147.7 8.5,-147.7"/>
<polygon fill="none" stroke="#000000" points="8.5,-147.7 8.5,-166.7 77.5,-166.7 77.5,-147.7 8.5,-147.7"/>
<text text-anchor="start" x="11.5" y="-153.8" font-family="Helvetica,sans-Serif" font-size="11.00" fill="#000000"> &#160;</text>
<polygon fill="#ffffff" stroke="transparent" points="77.5,-147.7 77.5,-166.7 143.5,-166.7 143.5,-147.7 77.5,-147.7"/>
<polygon fill="none" stroke="#000000" points="77.5,-147.7 77.5,-166.7 143.5,-166.7 143.5,-147.7 77.5,-147.7"/>
<text text-anchor="start" x="108.1105" y="-153.8" font-family="Helvetica,sans-Serif" font-size="11.00" fill="#000000">0 rows</text>
<polygon fill="#ffffff" stroke="transparent" points="143.5,-147.7 143.5,-166.7 193.5,-166.7 193.5,-147.7 143.5,-147.7"/>
<polygon fill="none" stroke="#000000" points="143.5,-147.7 143.5,-166.7 193.5,-166.7 193.5,-147.7 143.5,-147.7"/>
<text text-anchor="start" x="174.9053" y="-153.8" font-family="Helvetica,sans-Serif" font-size="11.00" fill="#000000">1 &gt;</text>
</a>
</g>
</g>
<!-- cm_covariate&#45;&gt;cm_propensity_model -->
<g id="edge1" class="edge">
<title>cm_covariate:w&#45;&gt;cm_propensity_model:e</title>
<path fill="none" stroke="#000000" d="M229.4203,-196.7C217.5435,-196.7 210.158,-196.7 193.5,-196.7"/>
<polygon fill="#000000" stroke="#000000" points="236,-196.7001 244,-200.3 240,-196.7 244,-196.7 244,-196.7 244,-196.7 240,-196.7 244,-193.1 236,-196.7001 236,-196.7001"/>
<ellipse fill="none" stroke="#000000" cx="232.8" cy="-196.7001" rx="3.2" ry="3.2"/>
</g>
<!-- cm_covariate_balance -->
<g id="node3" class="node">
<title>cm_covariate_balance</title>
<g id="a_node3"><a xlink:href="../../tables/cm_covariate_balance.html" xlink:title="cm_covariate_balance" target="_top">
<polygon fill="#ffffff" stroke="transparent" points="538.5,-200.2 538.5,-327.2 742.5,-327.2 742.5,-200.2 538.5,-200.2"/>
<polygon fill="#f5f5f5" stroke="transparent" points="538.5,-303.7 538.5,-326.7 742.5,-326.7 742.5,-303.7 538.5,-303.7"/>
<polygon fill="none" stroke="#000000" points="538.5,-303.7 538.5,-326.7 742.5,-326.7 742.5,-303.7 538.5,-303.7"/>
<text text-anchor="start" x="543.5" y="-312.3" font-family="Helvetica,sans-Serif" font-weight="bold" font-size="11.00" fill="#000000">cm_covariate_balance</text>
<text text-anchor="start" x="707.5437" y="-311.8" font-family="Helvetica,sans-Serif" font-size="11.00" fill="#000000">[table]</text>
<polygon fill="none" stroke="#000000" points="538.5,-281.7 538.5,-303.7 742.5,-303.7 742.5,-281.7 538.5,-281.7"/>
<image xlink:href="../../images/foreignKeys.png" width="11px" height="12px" preserveAspectRatio="xMinYMin meet" x="543.5" y="-298.7"/>
<text text-anchor="start" x="558.5" y="-288.8" font-family="Helvetica,sans-Serif" font-size="11.00" fill="#000000">analysis_id</text>
<polygon fill="none" stroke="#000000" points="538.5,-259.7 538.5,-281.7 742.5,-281.7 742.5,-259.7 538.5,-259.7"/>
<image xlink:href="../../images/foreignKeys.png" width="11px" height="12px" preserveAspectRatio="xMinYMin meet" x="543.5" y="-276.7"/>
<text text-anchor="start" x="558.5" y="-266.8" font-family="Helvetica,sans-Serif" font-size="11.00" fill="#000000">covariate_id</text>
<polygon fill="none" stroke="#000000" points="538.5,-237.7 538.5,-259.7 742.5,-259.7 742.5,-237.7 538.5,-237.7"/>
<image xlink:href="../../images/foreignKeys.png" width="11px" height="12px" preserveAspectRatio="xMinYMin meet" x="543.5" y="-254.7"/>
<text text-anchor="start" x="558.5" y="-244.8" font-family="Helvetica,sans-Serif" font-size="11.00" fill="#000000">database_id</text>
<polygon fill="none" stroke="#000000" points="538.5,-218.7 538.5,-237.7 742.5,-237.7 742.5,-218.7 538.5,-218.7"/>
<text text-anchor="start" x="541.5" y="-224.8" font-family="Helvetica,sans-Serif" font-size="11.00" fill="#000000">...</text>
<polygon fill="#ffffff" stroke="transparent" points="538.5,-199.7 538.5,-218.7 625.5,-218.7 625.5,-199.7 538.5,-199.7"/>
<polygon fill="none" stroke="#000000" points="538.5,-199.7 538.5,-218.7 625.5,-218.7 625.5,-199.7 538.5,-199.7"/>
<text text-anchor="start" x="541.5" y="-205.8" font-family="Helvetica,sans-Serif" font-size="11.00" fill="#000000">&lt; 4</text>
<polygon fill="#ffffff" stroke="transparent" points="625.5,-199.7 625.5,-218.7 696.5,-218.7 696.5,-199.7 625.5,-199.7"/>
<polygon fill="none" stroke="#000000" points="625.5,-199.7 625.5,-218.7 696.5,-218.7 696.5,-199.7 625.5,-199.7"/>
<text text-anchor="start" x="661.1105" y="-205.8" font-family="Helvetica,sans-Serif" font-size="11.00" fill="#000000">0 rows</text>
<polygon fill="#ffffff" stroke="transparent" points="696.5,-199.7 696.5,-218.7 742.5,-218.7 742.5,-199.7 696.5,-199.7"/>
<polygon fill="none" stroke="#000000" points="696.5,-199.7 696.5,-218.7 742.5,-218.7 742.5,-199.7 696.5,-199.7"/>
<text text-anchor="start" x="733.3862" y="-205.8" font-family="Helvetica,sans-Serif" font-size="11.00" fill="#000000"> &#160;</text>
</a>
</g>
</g>
<!-- cm_covariate_balance&#45;&gt;cm_covariate -->
<g id="edge2" class="edge">
<title>cm_covariate_balance:w&#45;&gt;cm_covariate:e</title>
<path fill="none" stroke="#000000" d="M524.2287,-289.6029C501.6188,-278.4083 502.5492,-240.7 470,-240.7"/>
<polygon fill="#000000" stroke="#000000" points="530.682,-291.0033 537.7365,-296.2181 534.591,-291.8517 538.5,-292.7 538.5,-292.7 538.5,-292.7 534.591,-291.8517 539.2635,-289.1819 530.682,-291.0033 530.682,-291.0033"/>
<ellipse fill="none" stroke="#000000" cx="527.5548" cy="-290.3246" rx="3.2" ry="3.2"/>
</g>
<!-- cm_covariate_balance&#45;&gt;cm_covariate -->
<g id="edge3" class="edge">
<title>cm_covariate_balance:w&#45;&gt;cm_covariate:e</title>
<path fill="none" stroke="#000000" d="M524.1736,-267.3281C498.0358,-252.8515 509.0396,-196.7 470,-196.7"/>
<polygon fill="#000000" stroke="#000000" points="530.7128,-268.8671 537.6752,-274.2042 534.6064,-269.7836 538.5,-270.7 538.5,-270.7 538.5,-270.7 534.6064,-269.7836 539.3248,-267.1958 530.7128,-268.8671 530.7128,-268.8671"/>
<ellipse fill="none" stroke="#000000" cx="527.5979" cy="-268.134" rx="3.2" ry="3.2"/>
</g>
<!-- cm_covariate_balance&#45;&gt;cm_covariate -->
<g id="edge4" class="edge">
<title>cm_covariate_balance:w&#45;&gt;cm_covariate:e</title>
<path fill="none" stroke="#000000" d="M524.2541,-245.5059C492.9707,-228.8484 516.6819,-152.7 470,-152.7"/>
<polygon fill="#000000" stroke="#000000" points="530.6938,-246.9497 537.7124,-252.2128 534.5969,-247.8249 538.5,-248.7 538.5,-248.7 538.5,-248.7 534.5969,-247.8249 539.2876,-245.1872 530.6938,-246.9497 530.6938,-246.9497"/>
<ellipse fill="none" stroke="#000000" cx="527.5713" cy="-246.2496" rx="3.2" ry="3.2"/>
</g>
<!-- database_meta_data -->
<g id="node4" class="node">
<title>database_meta_data</title>
<g id="a_node4"><a xlink:href="../../tables/database_meta_data.html" xlink:title="database_meta_data" target="_top">
<polygon fill="#ffffff" stroke="transparent" points="268,-298.2 268,-359.2 446,-359.2 446,-298.2 268,-298.2"/>
<polygon fill="#f5f5f5" stroke="transparent" points="268,-335.7 268,-358.7 446,-358.7 446,-335.7 268,-335.7"/>
<polygon fill="none" stroke="#000000" points="268,-335.7 268,-358.7 446,-358.7 446,-335.7 268,-335.7"/>
<text text-anchor="start" x="273" y="-344.3" font-family="Helvetica,sans-Serif" font-weight="bold" font-size="11.00" fill="#000000">database_meta_data</text>
<text text-anchor="start" x="411.5219" y="-343.8" font-family="Helvetica,sans-Serif" font-size="11.00" fill="#000000">[table]</text>
<polygon fill="none" stroke="#000000" points="268,-316.7 268,-335.7 446,-335.7 446,-316.7 268,-316.7"/>
<text text-anchor="start" x="271" y="-322.8" font-family="Helvetica,sans-Serif" font-size="11.00" fill="#000000">...</text>
<polygon fill="#ffffff" stroke="transparent" points="268,-297.7 268,-316.7 335,-316.7 335,-297.7 268,-297.7"/>
<polygon fill="none" stroke="#000000" points="268,-297.7 268,-316.7 335,-316.7 335,-297.7 268,-297.7"/>
<text text-anchor="start" x="271" y="-303.8" font-family="Helvetica,sans-Serif" font-size="11.00" fill="#000000">&lt; 1</text>
<polygon fill="#ffffff" stroke="transparent" points="335,-297.7 335,-316.7 396,-316.7 396,-297.7 335,-297.7"/>
<polygon fill="none" stroke="#000000" points="335,-297.7 335,-316.7 396,-316.7 396,-297.7 335,-297.7"/>
<text text-anchor="start" x="360.6105" y="-303.8" font-family="Helvetica,sans-Serif" font-size="11.00" fill="#000000">0 rows</text>
<polygon fill="#ffffff" stroke="transparent" points="396,-297.7 396,-316.7 446,-316.7 446,-297.7 396,-297.7"/>
<polygon fill="none" stroke="#000000" points="396,-297.7 396,-316.7 446,-316.7 446,-297.7 396,-297.7"/>
<text text-anchor="start" x="421.2904" y="-303.8" font-family="Helvetica,sans-Serif" font-size="11.00" fill="#000000">17 &gt;</text>
</a>
</g>
</g>
<!-- cm_covariate_balance&#45;&gt;database_meta_data -->
<g id="edge5" class="edge">
<title>cm_covariate_balance:w&#45;&gt;database_meta_data:e</title>
<path fill="none" stroke="#000000" d="M524.163,-250.9214C487.2495,-263.5464 494.0583,-325.7 446,-325.7"/>
<polygon fill="#000000" stroke="#000000" points="530.5943,-249.925 539.0512,-252.2576 534.5472,-249.3125 538.5,-248.7 538.5,-248.7 538.5,-248.7 534.5472,-249.3125 537.9488,-245.1424 530.5943,-249.925 530.5943,-249.925"/>
<ellipse fill="none" stroke="#000000" cx="527.4321" cy="-250.415" rx="3.2" ry="3.2"/>
</g>
<!-- cm_shared_covariate_balance -->
<g id="node5" class="node">
<title>cm_shared_covariate_balance</title>
<g id="a_node5"><a xlink:href="../../tables/cm_shared_covariate_balance.html" xlink:title="cm_shared_covariate_balance" target="_top">
<polygon fill="#ffffff" stroke="transparent" points="521,-52.2 521,-179.2 760,-179.2 760,-52.2 521,-52.2"/>
<polygon fill="#f5f5f5" stroke="transparent" points="521.5,-155.7 521.5,-178.7 760.5,-178.7 760.5,-155.7 521.5,-155.7"/>
<polygon fill="none" stroke="#000000" points="521.5,-155.7 521.5,-178.7 760.5,-178.7 760.5,-155.7 521.5,-155.7"/>
<text text-anchor="start" x="526.5" y="-164.3" font-family="Helvetica,sans-Serif" font-weight="bold" font-size="11.00" fill="#000000">cm_shared_covariate_balance</text>
<text text-anchor="start" x="726.0219" y="-163.8" font-family="Helvetica,sans-Serif" font-size="11.00" fill="#000000">[table]</text>
<polygon fill="none" stroke="#000000" points="521.5,-133.7 521.5,-155.7 760.5,-155.7 760.5,-133.7 521.5,-133.7"/>
<image xlink:href="../../images/foreignKeys.png" width="11px" height="12px" preserveAspectRatio="xMinYMin meet" x="526.5" y="-150.7"/>
<text text-anchor="start" x="550.5" y="-140.8" font-family="Helvetica,sans-Serif" font-size="11.00" fill="#000000">analysis_id</text>
<polygon fill="none" stroke="#000000" points="521.5,-111.7 521.5,-133.7 760.5,-133.7 760.5,-111.7 521.5,-111.7"/>
<image xlink:href="../../images/foreignKeys.png" width="11px" height="12px" preserveAspectRatio="xMinYMin meet" x="526.5" y="-128.7"/>
<text text-anchor="start" x="550.5" y="-118.8" font-family="Helvetica,sans-Serif" font-size="11.00" fill="#000000">covariate_id</text>
<polygon fill="none" stroke="#000000" points="521.5,-89.7 521.5,-111.7 760.5,-111.7 760.5,-89.7 521.5,-89.7"/>
<image xlink:href="../../images/foreignKeys.png" width="11px" height="12px" preserveAspectRatio="xMinYMin meet" x="526.5" y="-106.7"/>
<text text-anchor="start" x="550.5" y="-96.8" font-family="Helvetica,sans-Serif" font-size="11.00" fill="#000000">database_id</text>
<polygon fill="none" stroke="#000000" points="521.5,-70.7 521.5,-89.7 760.5,-89.7 760.5,-70.7 521.5,-70.7"/>
<text text-anchor="start" x="524.5" y="-76.8" font-family="Helvetica,sans-Serif" font-size="11.00" fill="#000000">...</text>
<polygon fill="#ffffff" stroke="transparent" points="521.5,-51.7 521.5,-70.7 626.5,-70.7 626.5,-51.7 521.5,-51.7"/>
<polygon fill="none" stroke="#000000" points="521.5,-51.7 521.5,-70.7 626.5,-70.7 626.5,-51.7 521.5,-51.7"/>
<text text-anchor="start" x="524.5" y="-57.8" font-family="Helvetica,sans-Serif" font-size="11.00" fill="#000000">&lt; 4</text>
<polygon fill="#ffffff" stroke="transparent" points="626.5,-51.7 626.5,-70.7 706.5,-70.7 706.5,-51.7 626.5,-51.7"/>
<polygon fill="none" stroke="#000000" points="626.5,-51.7 626.5,-70.7 706.5,-70.7 706.5,-51.7 626.5,-51.7"/>
<text text-anchor="start" x="671.1105" y="-57.8" font-family="Helvetica,sans-Serif" font-size="11.00" fill="#000000">0 rows</text>
<polygon fill="#ffffff" stroke="transparent" points="706.5,-51.7 706.5,-70.7 760.5,-70.7 760.5,-51.7 706.5,-51.7"/>
<polygon fill="none" stroke="#000000" points="706.5,-51.7 706.5,-70.7 760.5,-70.7 760.5,-51.7 706.5,-51.7"/>
<text text-anchor="start" x="751.3862" y="-57.8" font-family="Helvetica,sans-Serif" font-size="11.00" fill="#000000"> &#160;</text>
</a>
</g>
</g>
<!-- cm_shared_covariate_balance&#45;&gt;cm_covariate -->
<g id="edge6" class="edge">
<title>cm_shared_covariate_balance:w&#45;&gt;cm_covariate:e</title>
<path fill="none" stroke="#000000" d="M507.3716,-148.825C482.9509,-167.2 512.3661,-240.7 470,-240.7"/>
<polygon fill="#000000" stroke="#000000" points="513.8206,-146.9422 522.509,-148.1557 517.6603,-145.8211 521.5,-144.7 521.5,-144.7 521.5,-144.7 517.6603,-145.8211 520.491,-141.2443 513.8206,-146.9422 513.8206,-146.9422"/>
<ellipse fill="none" stroke="#000000" cx="510.7489" cy="-147.839" rx="3.2" ry="3.2"/>
</g>
<!-- cm_shared_covariate_balance&#45;&gt;cm_covariate -->
<g id="edge8" class="edge">
<title>cm_shared_covariate_balance:w&#45;&gt;cm_covariate:e</title>
<path fill="none" stroke="#000000" d="M507.7488,-127.1074C488.4187,-143.0383 504.1218,-196.7 470,-196.7"/>
<polygon fill="#000000" stroke="#000000" points="513.8817,-125.1418 522.5988,-126.1282 517.6909,-123.9209 521.5,-122.7 521.5,-122.7 521.5,-122.7 517.6909,-123.9209 520.4012,-119.2718 513.8817,-125.1418 513.8817,-125.1418"/>
<ellipse fill="none" stroke="#000000" cx="510.8344" cy="-126.1185" rx="3.2" ry="3.2"/>
</g>
<!-- cm_shared_covariate_balance&#45;&gt;cm_covariate -->
<g id="edge9" class="edge">
<title>cm_shared_covariate_balance:w&#45;&gt;cm_covariate:e</title>
<path fill="none" stroke="#000000" d="M507.4561,-105.4988C492.4356,-118.3719 496.4284,-152.7 470,-152.7"/>
<polygon fill="#000000" stroke="#000000" points="513.9297,-103.2868 522.6641,-104.1066 517.7149,-101.9934 521.5,-100.7 521.5,-100.7 521.5,-100.7 517.7149,-101.9934 520.3359,-97.2934 513.9297,-103.2868 513.9297,-103.2868"/>
<ellipse fill="none" stroke="#000000" cx="510.9016" cy="-104.3215" rx="3.2" ry="3.2"/>
</g>
<!-- cm_covariate_analysis -->
<g id="node6" class="node">
<title>cm_covariate_analysis</title>
<g id="a_node6"><a xlink:href="../../tables/cm_covariate_analysis.html" xlink:title="cm_covariate_analysis" target="_top">
<polygon fill="#ffffff" stroke="transparent" points="263,-38.2 263,-99.2 451,-99.2 451,-38.2 263,-38.2"/>
<polygon fill="#f5f5f5" stroke="transparent" points="263,-75.7 263,-98.7 451,-98.7 451,-75.7 263,-75.7"/>
<polygon fill="none" stroke="#000000" points="263,-75.7 263,-98.7 451,-98.7 451,-75.7 263,-75.7"/>
<text text-anchor="start" x="268" y="-84.3" font-family="Helvetica,sans-Serif" font-weight="bold" font-size="11.00" fill="#000000">cm_covariate_analysis</text>
<text text-anchor="start" x="416.5219" y="-83.8" font-family="Helvetica,sans-Serif" font-size="11.00" fill="#000000">[table]</text>
<polygon fill="none" stroke="#000000" points="263,-56.7 263,-75.7 451,-75.7 451,-56.7 263,-56.7"/>
<text text-anchor="start" x="266" y="-62.8" font-family="Helvetica,sans-Serif" font-size="11.00" fill="#000000">...</text>
<polygon fill="#ffffff" stroke="transparent" points="263,-37.7 263,-56.7 333,-56.7 333,-37.7 263,-37.7"/>
<polygon fill="none" stroke="#000000" points="263,-37.7 263,-56.7 333,-56.7 333,-37.7 263,-37.7"/>
<text text-anchor="start" x="266" y="-43.8" font-family="Helvetica,sans-Serif" font-size="11.00" fill="#000000"> &#160;</text>
<polygon fill="#ffffff" stroke="transparent" points="333,-37.7 333,-56.7 400,-56.7 400,-37.7 333,-37.7"/>
<polygon fill="none" stroke="#000000" points="333,-37.7 333,-56.7 400,-56.7 400,-37.7 333,-37.7"/>
<text text-anchor="start" x="364.6105" y="-43.8" font-family="Helvetica,sans-Serif" font-size="11.00" fill="#000000">0 rows</text>
<polygon fill="#ffffff" stroke="transparent" points="400,-37.7 400,-56.7 451,-56.7 451,-37.7 400,-37.7"/>
<polygon fill="none" stroke="#000000" points="400,-37.7 400,-56.7 451,-56.7 451,-37.7 400,-37.7"/>
<text text-anchor="start" x="432.4053" y="-43.8" font-family="Helvetica,sans-Serif" font-size="11.00" fill="#000000">1 &gt;</text>
</a>
</g>
</g>
<!-- cm_shared_covariate_balance&#45;&gt;cm_covariate_analysis -->
<g id="edge7" class="edge">
<title>cm_shared_covariate_balance:w&#45;&gt;cm_covariate_analysis:e</title>
<path fill="none" stroke="#000000" d="M507.2625,-141.5053C479.1245,-126.7256 492.3606,-65.7 451,-65.7"/>
<polygon fill="#000000" stroke="#000000" points="513.6941,-142.9484 520.7118,-148.2127 517.597,-143.8242 521.5,-144.7 521.5,-144.7 521.5,-144.7 517.597,-143.8242 522.2882,-141.1873 513.6941,-142.9484 513.6941,-142.9484"/>
<ellipse fill="none" stroke="#000000" cx="510.5717" cy="-142.2478" rx="3.2" ry="3.2"/>
</g>
</g>
</svg>
