<?xml version="1.0" encoding="UTF-8" standalone="no"?>
<!DOCTYPE svg PUBLIC "-//W3C//DTD SVG 1.1//EN"
 "http://www.w3.org/Graphics/SVG/1.1/DTD/svg11.dtd">
<!-- Generated by graphviz version 2.40.1 (20161225.0304)
 -->
<!-- Title: twoDegreesRelationshipsDiagram Pages: 1 -->
<svg width="566pt" height="277pt"
 viewBox="0.00 0.00 566.00 276.70" xmlns="http://www.w3.org/2000/svg" xmlns:xlink="http://www.w3.org/1999/xlink">
<g id="graph0" class="graph" transform="scale(1 1) rotate(0) translate(4 272.7)">
<title>twoDegreesRelationshipsDiagram</title>
<polygon fill="#ffffff" stroke="transparent" points="-4,4 -4,-272.7 562,-272.7 562,4 -4,4"/>
<text text-anchor="middle" x="72.4936" y="-7.3" font-family="Helvetica,sans-Serif" font-size="11.00" fill="#000000">Generated by SchemaSpy</text>
<!-- cm_shared_covariate_balance -->
<g id="node1" class="node">
<title>cm_shared_covariate_balance</title>
<g id="a_node1"><a xlink:href="../../tables/cm_shared_covariate_balance.html" xlink:title="cm_shared_covariate_balance" target="_top">
<polygon fill="#ffffff" stroke="transparent" points="311,-38.2 311,-165.2 550,-165.2 550,-38.2 311,-38.2"/>
<polygon fill="#f5f5f5" stroke="transparent" points="311.5,-141.7 311.5,-164.7 550.5,-164.7 550.5,-141.7 311.5,-141.7"/>
<polygon fill="none" stroke="#000000" points="311.5,-141.7 311.5,-164.7 550.5,-164.7 550.5,-141.7 311.5,-141.7"/>
<text text-anchor="start" x="316.5" y="-150.3" font-family="Helvetica,sans-Serif" font-weight="bold" font-size="11.00" fill="#000000">cm_shared_covariate_balance</text>
<text text-anchor="start" x="516.0219" y="-149.8" font-family="Helvetica,sans-Serif" font-size="11.00" fill="#000000">[table]</text>
<polygon fill="none" stroke="#000000" points="311.5,-119.7 311.5,-141.7 550.5,-141.7 550.5,-119.7 311.5,-119.7"/>
<image xlink:href="../../images/foreignKeys.png" width="11px" height="12px" preserveAspectRatio="xMinYMin meet" x="316.5" y="-136.7"/>
<text text-anchor="start" x="340.5" y="-126.8" font-family="Helvetica,sans-Serif" font-size="11.00" fill="#000000">analysis_id</text>
<polygon fill="none" stroke="#000000" points="311.5,-97.7 311.5,-119.7 550.5,-119.7 550.5,-97.7 311.5,-97.7"/>
<image xlink:href="../../images/foreignKeys.png" width="11px" height="12px" preserveAspectRatio="xMinYMin meet" x="316.5" y="-114.7"/>
<text text-anchor="start" x="340.5" y="-104.8" font-family="Helvetica,sans-Serif" font-size="11.00" fill="#000000">covariate_id</text>
<polygon fill="none" stroke="#000000" points="311.5,-75.7 311.5,-97.7 550.5,-97.7 550.5,-75.7 311.5,-75.7"/>
<image xlink:href="../../images/foreignKeys.png" width="11px" height="12px" preserveAspectRatio="xMinYMin meet" x="316.5" y="-92.7"/>
<text text-anchor="start" x="340.5" y="-82.8" font-family="Helvetica,sans-Serif" font-size="11.00" fill="#000000">database_id</text>
<polygon fill="none" stroke="#000000" points="311.5,-56.7 311.5,-75.7 550.5,-75.7 550.5,-56.7 311.5,-56.7"/>
<text text-anchor="start" x="314.5" y="-62.8" font-family="Helvetica,sans-Serif" font-size="11.00" fill="#000000">...</text>
<polygon fill="#ffffff" stroke="transparent" points="311.5,-37.7 311.5,-56.7 416.5,-56.7 416.5,-37.7 311.5,-37.7"/>
<polygon fill="none" stroke="#000000" points="311.5,-37.7 311.5,-56.7 416.5,-56.7 416.5,-37.7 311.5,-37.7"/>
<text text-anchor="start" x="314.5" y="-43.8" font-family="Helvetica,sans-Serif" font-size="11.00" fill="#000000">&lt; 4</text>
<polygon fill="#ffffff" stroke="transparent" points="416.5,-37.7 416.5,-56.7 496.5,-56.7 496.5,-37.7 416.5,-37.7"/>
<polygon fill="none" stroke="#000000" points="416.5,-37.7 416.5,-56.7 496.5,-56.7 496.5,-37.7 416.5,-37.7"/>
<text text-anchor="start" x="461.1105" y="-43.8" font-family="Helvetica,sans-Serif" font-size="11.00" fill="#000000">0 rows</text>
<polygon fill="#ffffff" stroke="transparent" points="496.5,-37.7 496.5,-56.7 550.5,-56.7 550.5,-37.7 496.5,-37.7"/>
<polygon fill="none" stroke="#000000" points="496.5,-37.7 496.5,-56.7 550.5,-56.7 550.5,-37.7 496.5,-37.7"/>
<text text-anchor="start" x="541.3862" y="-43.8" font-family="Helvetica,sans-Serif" font-size="11.00" fill="#000000"> &#160;</text>
</a>
</g>
</g>
<!-- cm_covariate -->
<g id="node2" class="node">
<title>cm_covariate</title>
<g id="a_node2"><a xlink:href="../../tables/cm_covariate.html" xlink:title="cm_covariate" target="_top">
<polygon fill="#ffffff" stroke="transparent" points="71.5,-70.2 71.5,-131.2 198.5,-131.2 198.5,-70.2 71.5,-70.2"/>
<polygon fill="#f5f5f5" stroke="transparent" points="72,-107.7 72,-130.7 199,-130.7 199,-107.7 72,-107.7"/>
<polygon fill="none" stroke="#000000" points="72,-107.7 72,-130.7 199,-130.7 199,-107.7 72,-107.7"/>
<text text-anchor="start" x="77" y="-116.3" font-family="Helvetica,sans-Serif" font-weight="bold" font-size="11.00" fill="#000000">cm_covariate</text>
<text text-anchor="start" x="164.5219" y="-115.8" font-family="Helvetica,sans-Serif" font-size="11.00" fill="#000000">[table]</text>
<polygon fill="none" stroke="#000000" points="72,-88.7 72,-107.7 199,-107.7 199,-88.7 72,-88.7"/>
<text text-anchor="start" x="75" y="-94.8" font-family="Helvetica,sans-Serif" font-size="11.00" fill="#000000">...</text>
<polygon fill="#ffffff" stroke="transparent" points="72,-69.7 72,-88.7 116,-88.7 116,-69.7 72,-69.7"/>
<polygon fill="none" stroke="#000000" points="72,-69.7 72,-88.7 116,-88.7 116,-69.7 72,-69.7"/>
<text text-anchor="start" x="75" y="-75.8" font-family="Helvetica,sans-Serif" font-size="11.00" fill="#000000">&lt; 1</text>
<polygon fill="#ffffff" stroke="transparent" points="116,-69.7 116,-88.7 166,-88.7 166,-69.7 116,-69.7"/>
<polygon fill="none" stroke="#000000" points="116,-69.7 116,-88.7 166,-88.7 166,-69.7 116,-69.7"/>
<text text-anchor="start" x="130.6105" y="-75.8" font-family="Helvetica,sans-Serif" font-size="11.00" fill="#000000">0 rows</text>
<polygon fill="#ffffff" stroke="transparent" points="166,-69.7 166,-88.7 199,-88.7 199,-69.7 166,-69.7"/>
<polygon fill="none" stroke="#000000" points="166,-69.7 166,-88.7 199,-88.7 199,-69.7 166,-69.7"/>
<text text-anchor="start" x="180.4053" y="-75.8" font-family="Helvetica,sans-Serif" font-size="11.00" fill="#000000">6 &gt;</text>
</a>
</g>
</g>
<!-- cm_shared_covariate_balance&#45;&gt;cm_covariate -->
<g id="edge1" class="edge">
<title>cm_shared_covariate_balance:w&#45;&gt;cm_covariate:e</title>
<path fill="none" stroke="#000000" d="M296.8879,-129.748C257.2581,-124.3373 245.8146,-97.7 199,-97.7"/>
<polygon fill="#000000" stroke="#000000" points="303.5169,-130.1798 311.2659,-134.2924 307.5085,-130.4399 311.5,-130.7 311.5,-130.7 311.5,-130.7 307.5085,-130.4399 311.7341,-127.1076 303.5169,-130.1798 303.5169,-130.1798"/>
<ellipse fill="none" stroke="#000000" cx="300.3237" cy="-129.9717" rx="3.2" ry="3.2"/>
</g>
<!-- cm_shared_covariate_balance&#45;&gt;cm_covariate -->
<g id="edge3" class="edge">
<title>cm_shared_covariate_balance:w&#45;&gt;cm_covariate:e</title>
<path fill="none" stroke="#000000" d="M297.0423,-108.3708C258.3629,-106.5405 244.038,-97.7 199,-97.7"/>
<polygon fill="#000000" stroke="#000000" points="303.5021,-108.5178 311.418,-112.2991 307.501,-108.6089 311.5,-108.7 311.5,-108.7 311.5,-108.7 307.501,-108.6089 311.582,-105.1009 303.5021,-108.5178 303.5021,-108.5178"/>
<ellipse fill="none" stroke="#000000" cx="300.3029" cy="-108.445" rx="3.2" ry="3.2"/>
</g>
<!-- cm_shared_covariate_balance&#45;&gt;cm_covariate -->
<g id="edge4" class="edge">
<title>cm_shared_covariate_balance:w&#45;&gt;cm_covariate:e</title>
<path fill="none" stroke="#000000" d="M297.0423,-87.0292C258.3629,-88.8595 244.038,-97.7 199,-97.7"/>
<polygon fill="#000000" stroke="#000000" points="303.5021,-86.8822 311.582,-90.2991 307.501,-86.7911 311.5,-86.7 311.5,-86.7 311.5,-86.7 307.501,-86.7911 311.418,-83.1009 303.5021,-86.8822 303.5021,-86.8822"/>
<ellipse fill="none" stroke="#000000" cx="300.3029" cy="-86.955" rx="3.2" ry="3.2"/>
</g>
<!-- cm_covariate_analysis -->
<g id="node3" class="node">
<title>cm_covariate_analysis</title>
<g id="a_node3"><a xlink:href="../../tables/cm_covariate_analysis.html" xlink:title="cm_covariate_analysis" target="_top">
<polygon fill="#ffffff" stroke="transparent" points="8,-152.7 8,-264.7 262,-264.7 262,-152.7 8,-152.7"/>
<polygon fill="#f5f5f5" stroke="transparent" points="10,-239.7 10,-262.7 260,-262.7 260,-239.7 10,-239.7"/>
<polygon fill="none" stroke="#000000" points="10,-239.7 10,-262.7 260,-262.7 260,-239.7 10,-239.7"/>
<text text-anchor="start" x="15" y="-248.3" font-family="Helvetica,sans-Serif" font-weight="bold" font-size="11.00" fill="#000000">cm_covariate_analysis</text>
<text text-anchor="start" x="225.0437" y="-247.8" font-family="Helvetica,sans-Serif" font-size="11.00" fill="#000000">[table]</text>
<polygon fill="none" stroke="#000000" points="10,-217.7 10,-239.7 198,-239.7 198,-217.7 10,-217.7"/>
<image xlink:href="../../images/primaryKeys.png" width="11px" height="12px" preserveAspectRatio="xMinYMin meet" x="15" y="-234.7"/>
<text text-anchor="start" x="30" y="-224.8" font-family="Helvetica,sans-Serif" font-size="11.00" fill="#000000">analysis_id</text>
<polygon fill="none" stroke="#000000" points="198,-217.7 198,-239.7 260,-239.7 260,-217.7 198,-217.7"/>
<text text-anchor="start" x="200.878" y="-225.4" font-family="Helvetica,sans-Serif" font-size="11.00" fill="#000000">unknown[0]</text>
<polygon fill="none" stroke="#000000" points="10,-195.7 10,-217.7 198,-217.7 198,-195.7 10,-195.7"/>
<text text-anchor="start" x="30" y="-202.8" font-family="Helvetica,sans-Serif" font-size="11.00" fill="#000000">covariate_analysis_id</text>
<polygon fill="none" stroke="#000000" points="198,-195.7 198,-217.7 260,-217.7 260,-195.7 198,-195.7"/>
<text text-anchor="start" x="200.878" y="-203.4" font-family="Helvetica,sans-Serif" font-size="11.00" fill="#000000">unknown[0]</text>
<polygon fill="none" stroke="#000000" points="10,-173.7 10,-195.7 198,-195.7 198,-173.7 10,-173.7"/>
<text text-anchor="start" x="30" y="-180.8" font-family="Helvetica,sans-Serif" font-size="11.00" fill="#000000">covariate_analysis_name</text>
<polygon fill="none" stroke="#000000" points="198,-173.7 198,-195.7 260,-195.7 260,-173.7 198,-173.7"/>
<text text-anchor="start" x="200.878" y="-181.4" font-family="Helvetica,sans-Serif" font-size="11.00" fill="#000000">unknown[0]</text>
<polygon fill="#ffffff" stroke="transparent" points="10,-154.7 10,-173.7 95,-173.7 95,-154.7 10,-154.7"/>
<polygon fill="none" stroke="#000000" points="10,-154.7 10,-173.7 95,-173.7 95,-154.7 10,-154.7"/>
<text text-anchor="start" x="13" y="-160.8" font-family="Helvetica,sans-Serif" font-size="11.00" fill="#000000">&lt; 0</text>
<polygon fill="#ffffff" stroke="transparent" points="95,-154.7 95,-173.7 198,-173.7 198,-154.7 95,-154.7"/>
<polygon fill="none" stroke="#000000" points="95,-154.7 95,-173.7 198,-173.7 198,-154.7 95,-154.7"/>
<text text-anchor="start" x="162.6105" y="-160.8" font-family="Helvetica,sans-Serif" font-size="11.00" fill="#000000">0 rows</text>
<polygon fill="#ffffff" stroke="transparent" points="198,-154.7 198,-173.7 260,-173.7 260,-154.7 198,-154.7"/>
<polygon fill="none" stroke="#000000" points="198,-154.7 198,-173.7 260,-173.7 260,-154.7 198,-154.7"/>
<text text-anchor="start" x="241.4053" y="-160.8" font-family="Helvetica,sans-Serif" font-size="11.00" fill="#000000">1 &gt;</text>
<polygon fill="none" stroke="#000000" stroke-width="2" points="9,-153.7 9,-263.7 261,-263.7 261,-153.7 9,-153.7"/>
</a>
</g>
</g>
<!-- cm_shared_covariate_balance&#45;&gt;cm_covariate_analysis -->
<g id="edge2" class="edge">
<title>cm_shared_covariate_balance:w&#45;&gt;cm_covariate_analysis:e</title>
<path fill="none" stroke="#000000" d="M297.512,-134.6631C272.2474,-152.9973 303.2453,-228.7 260,-228.7"/>
<polygon fill="#000000" stroke="#000000" points="303.803,-132.8808 312.4813,-134.1637 307.6515,-131.7904 311.5,-130.7 311.5,-130.7 311.5,-130.7 307.6515,-131.7904 310.5187,-127.2363 303.803,-132.8808 303.803,-132.8808"/>
<ellipse fill="none" stroke="#000000" cx="300.7241" cy="-133.7531" rx="3.2" ry="3.2"/>
</g>
</g>
</svg>
