<?xml version="1.0" encoding="UTF-8" standalone="no"?>
<!DOCTYPE svg PUBLIC "-//W3C//DTD SVG 1.1//EN"
 "http://www.w3.org/Graphics/SVG/1.1/DTD/svg11.dtd">
<!-- Generated by graphviz version 2.40.1 (20161225.0304)
 -->
<!-- Title: oneDegreeRelationshipsDiagram Pages: 1 -->
<svg width="776pt" height="325pt"
 viewBox="0.00 0.00 776.00 325.20" xmlns="http://www.w3.org/2000/svg" xmlns:xlink="http://www.w3.org/1999/xlink">
<g id="graph0" class="graph" transform="scale(1 1) rotate(0) translate(4 321.2)">
<title>oneDegreeRelationshipsDiagram</title>
<polygon fill="#ffffff" stroke="transparent" points="-4,4 -4,-321.2 772,-321.2 772,4 -4,4"/>
<text text-anchor="middle" x="72.4936" y="-7.3" font-family="Helvetica,sans-Serif" font-size="11.00" fill="#000000">Generated by SchemaSpy</text>
<!-- cm_covariate -->
<g id="node1" class="node">
<title>cm_covariate</title>
<g id="a_node1"><a xlink:href="../../tables/cm_covariate.html" xlink:title="cm_covariate" target="_top">
<polygon fill="#ffffff" stroke="transparent" points="242,-106.7 242,-262.7 472,-262.7 472,-106.7 242,-106.7"/>
<polygon fill="#f5f5f5" stroke="transparent" points="244,-237.7 244,-260.7 470,-260.7 470,-237.7 244,-237.7"/>
<polygon fill="none" stroke="#000000" points="244,-237.7 244,-260.7 470,-260.7 470,-237.7 244,-237.7"/>
<text text-anchor="start" x="249" y="-246.3" font-family="Helvetica,sans-Serif" font-weight="bold" font-size="11.00" fill="#000000">cm_covariate</text>
<text text-anchor="start" x="435.0437" y="-245.8" font-family="Helvetica,sans-Serif" font-size="11.00" fill="#000000">[table]</text>
<polygon fill="none" stroke="#000000" points="244,-215.7 244,-237.7 408,-237.7 408,-215.7 244,-215.7"/>
<image xlink:href="../../images/primaryKeys.png" width="11px" height="12px" preserveAspectRatio="xMinYMin meet" x="249" y="-232.7"/>
<text text-anchor="start" x="264" y="-222.8" font-family="Helvetica,sans-Serif" font-size="11.00" fill="#000000">analysis_id</text>
<polygon fill="none" stroke="#000000" points="408,-215.7 408,-237.7 470,-237.7 470,-215.7 408,-215.7"/>
<text text-anchor="start" x="410.878" y="-223.4" font-family="Helvetica,sans-Serif" font-size="11.00" fill="#000000">unknown[0]</text>
<polygon fill="none" stroke="#000000" points="244,-193.7 244,-215.7 408,-215.7 408,-193.7 244,-193.7"/>
<text text-anchor="start" x="264" y="-200.8" font-family="Helvetica,sans-Serif" font-size="11.00" fill="#000000">covariate_analysis_id</text>
<polygon fill="none" stroke="#000000" points="408,-193.7 408,-215.7 470,-215.7 470,-193.7 408,-193.7"/>
<text text-anchor="start" x="410.878" y="-201.4" font-family="Helvetica,sans-Serif" font-size="11.00" fill="#000000">unknown[0]</text>
<polygon fill="none" stroke="#000000" points="244,-171.7 244,-193.7 408,-193.7 408,-171.7 244,-171.7"/>
<image xlink:href="../../images/primaryKeys.png" width="11px" height="12px" preserveAspectRatio="xMinYMin meet" x="249" y="-188.7"/>
<text text-anchor="start" x="264" y="-178.8" font-family="Helvetica,sans-Serif" font-size="11.00" fill="#000000">covariate_id</text>
<polygon fill="none" stroke="#000000" points="408,-171.7 408,-193.7 470,-193.7 470,-171.7 408,-171.7"/>
<text text-anchor="start" x="410.878" y="-179.4" font-family="Helvetica,sans-Serif" font-size="11.00" fill="#000000">unknown[0]</text>
<polygon fill="none" stroke="#000000" points="244,-149.7 244,-171.7 408,-171.7 408,-149.7 244,-149.7"/>
<text text-anchor="start" x="264" y="-156.8" font-family="Helvetica,sans-Serif" font-size="11.00" fill="#000000">covariate_name</text>
<polygon fill="none" stroke="#000000" points="408,-149.7 408,-171.7 470,-171.7 470,-149.7 408,-149.7"/>
<text text-anchor="start" x="410.878" y="-157.4" font-family="Helvetica,sans-Serif" font-size="11.00" fill="#000000">unknown[0]</text>
<polygon fill="none" stroke="#000000" points="244,-127.7 244,-149.7 408,-149.7 408,-127.7 244,-127.7"/>
<image xlink:href="../../images/primaryKeys.png" width="11px" height="12px" preserveAspectRatio="xMinYMin meet" x="249" y="-144.7"/>
<text text-anchor="start" x="264" y="-134.8" font-family="Helvetica,sans-Serif" font-size="11.00" fill="#000000">database_id</text>
<polygon fill="none" stroke="#000000" points="408,-127.7 408,-149.7 470,-149.7 470,-127.7 408,-127.7"/>
<text text-anchor="start" x="410.878" y="-135.4" font-family="Helvetica,sans-Serif" font-size="11.00" fill="#000000">unknown[0]</text>
<polygon fill="#ffffff" stroke="transparent" points="244,-108.7 244,-127.7 317,-127.7 317,-108.7 244,-108.7"/>
<polygon fill="none" stroke="#000000" points="244,-108.7 244,-127.7 317,-127.7 317,-108.7 244,-108.7"/>
<text text-anchor="start" x="247" y="-114.8" font-family="Helvetica,sans-Serif" font-size="11.00" fill="#000000">&lt; 1</text>
<polygon fill="#ffffff" stroke="transparent" points="317,-108.7 317,-127.7 408,-127.7 408,-108.7 317,-108.7"/>
<polygon fill="none" stroke="#000000" points="317,-108.7 317,-127.7 408,-127.7 408,-108.7 317,-108.7"/>
<text text-anchor="start" x="372.6105" y="-114.8" font-family="Helvetica,sans-Serif" font-size="11.00" fill="#000000">0 rows</text>
<polygon fill="#ffffff" stroke="transparent" points="408,-108.7 408,-127.7 470,-127.7 470,-108.7 408,-108.7"/>
<polygon fill="none" stroke="#000000" points="408,-108.7 408,-127.7 470,-127.7 470,-108.7 408,-108.7"/>
<text text-anchor="start" x="451.4053" y="-114.8" font-family="Helvetica,sans-Serif" font-size="11.00" fill="#000000">6 &gt;</text>
<polygon fill="none" stroke="#000000" stroke-width="2" points="243,-107.7 243,-261.7 471,-261.7 471,-107.7 243,-107.7"/>
</a>
</g>
</g>
<!-- cm_propensity_model -->
<g id="node2" class="node">
<title>cm_propensity_model</title>
<g id="a_node2"><a xlink:href="../../tables/cm_propensity_model.html" xlink:title="cm_propensity_model" target="_top">
<polygon fill="#ffffff" stroke="transparent" points="8,-134.2 8,-217.2 193,-217.2 193,-134.2 8,-134.2"/>
<polygon fill="#f5f5f5" stroke="transparent" points="8.5,-193.7 8.5,-216.7 193.5,-216.7 193.5,-193.7 8.5,-193.7"/>
<polygon fill="none" stroke="#000000" points="8.5,-193.7 8.5,-216.7 193.5,-216.7 193.5,-193.7 8.5,-193.7"/>
<text text-anchor="start" x="13.5" y="-202.3" font-family="Helvetica,sans-Serif" font-weight="bold" font-size="11.00" fill="#000000">cm_propensity_model</text>
<text text-anchor="start" x="159.0219" y="-201.8" font-family="Helvetica,sans-Serif" font-size="11.00" fill="#000000">[table]</text>
<polygon fill="none" stroke="#000000" points="8.5,-171.7 8.5,-193.7 193.5,-193.7 193.5,-171.7 8.5,-171.7"/>
<image xlink:href="../../images/primaryKeys.png" width="11px" height="12px" preserveAspectRatio="xMinYMin meet" x="13.5" y="-188.7"/>
<text text-anchor="start" x="37.5" y="-178.8" font-family="Helvetica,sans-Serif" font-size="11.00" fill="#000000">covariate_id</text>
<polygon fill="none" stroke="#000000" points="8.5,-152.7 8.5,-171.7 193.5,-171.7 193.5,-152.7 8.5,-152.7"/>
<text text-anchor="start" x="11.5" y="-158.8" font-family="Helvetica,sans-Serif" font-size="11.00" fill="#000000">...</text>
<polygon fill="#ffffff" stroke="transparent" points="8.5,-133.7 8.5,-152.7 77.5,-152.7 77.5,-133.7 8.5,-133.7"/>
<polygon fill="none" stroke="#000000" points="8.5,-133.7 8.5,-152.7 77.5,-152.7 77.5,-133.7 8.5,-133.7"/>
<text text-anchor="start" x="11.5" y="-139.8" font-family="Helvetica,sans-Serif" font-size="11.00" fill="#000000"> &#160;</text>
<polygon fill="#ffffff" stroke="transparent" points="77.5,-133.7 77.5,-152.7 143.5,-152.7 143.5,-133.7 77.5,-133.7"/>
<polygon fill="none" stroke="#000000" points="77.5,-133.7 77.5,-152.7 143.5,-152.7 143.5,-133.7 77.5,-133.7"/>
<text text-anchor="start" x="108.1105" y="-139.8" font-family="Helvetica,sans-Serif" font-size="11.00" fill="#000000">0 rows</text>
<polygon fill="#ffffff" stroke="transparent" points="143.5,-133.7 143.5,-152.7 193.5,-152.7 193.5,-133.7 143.5,-133.7"/>
<polygon fill="none" stroke="#000000" points="143.5,-133.7 143.5,-152.7 193.5,-152.7 193.5,-133.7 143.5,-133.7"/>
<text text-anchor="start" x="174.9053" y="-139.8" font-family="Helvetica,sans-Serif" font-size="11.00" fill="#000000">1 &gt;</text>
</a>
</g>
</g>
<!-- cm_covariate&#45;&gt;cm_propensity_model -->
<g id="edge1" class="edge">
<title>cm_covariate:w&#45;&gt;cm_propensity_model:e</title>
<path fill="none" stroke="#000000" d="M229.4203,-182.7C217.5435,-182.7 210.158,-182.7 193.5,-182.7"/>
<polygon fill="#000000" stroke="#000000" points="236,-182.7001 244,-186.3 240,-182.7 244,-182.7 244,-182.7 244,-182.7 240,-182.7 244,-179.1 236,-182.7001 236,-182.7001"/>
<ellipse fill="none" stroke="#000000" cx="232.8" cy="-182.7001" rx="3.2" ry="3.2"/>
</g>
<!-- cm_covariate_balance -->
<g id="node3" class="node">
<title>cm_covariate_balance</title>
<g id="a_node3"><a xlink:href="../../tables/cm_covariate_balance.html" xlink:title="cm_covariate_balance" target="_top">
<polygon fill="#ffffff" stroke="transparent" points="538.5,-186.2 538.5,-313.2 742.5,-313.2 742.5,-186.2 538.5,-186.2"/>
<polygon fill="#f5f5f5" stroke="transparent" points="538.5,-289.7 538.5,-312.7 742.5,-312.7 742.5,-289.7 538.5,-289.7"/>
<polygon fill="none" stroke="#000000" points="538.5,-289.7 538.5,-312.7 742.5,-312.7 742.5,-289.7 538.5,-289.7"/>
<text text-anchor="start" x="543.5" y="-298.3" font-family="Helvetica,sans-Serif" font-weight="bold" font-size="11.00" fill="#000000">cm_covariate_balance</text>
<text text-anchor="start" x="707.5437" y="-297.8" font-family="Helvetica,sans-Serif" font-size="11.00" fill="#000000">[table]</text>
<polygon fill="none" stroke="#000000" points="538.5,-267.7 538.5,-289.7 742.5,-289.7 742.5,-267.7 538.5,-267.7"/>
<image xlink:href="../../images/foreignKeys.png" width="11px" height="12px" preserveAspectRatio="xMinYMin meet" x="543.5" y="-284.7"/>
<text text-anchor="start" x="558.5" y="-274.8" font-family="Helvetica,sans-Serif" font-size="11.00" fill="#000000">analysis_id</text>
<polygon fill="none" stroke="#000000" points="538.5,-245.7 538.5,-267.7 742.5,-267.7 742.5,-245.7 538.5,-245.7"/>
<image xlink:href="../../images/foreignKeys.png" width="11px" height="12px" preserveAspectRatio="xMinYMin meet" x="543.5" y="-262.7"/>
<text text-anchor="start" x="558.5" y="-252.8" font-family="Helvetica,sans-Serif" font-size="11.00" fill="#000000">covariate_id</text>
<polygon fill="none" stroke="#000000" points="538.5,-223.7 538.5,-245.7 742.5,-245.7 742.5,-223.7 538.5,-223.7"/>
<image xlink:href="../../images/foreignKeys.png" width="11px" height="12px" preserveAspectRatio="xMinYMin meet" x="543.5" y="-240.7"/>
<text text-anchor="start" x="558.5" y="-230.8" font-family="Helvetica,sans-Serif" font-size="11.00" fill="#000000">database_id</text>
<polygon fill="none" stroke="#000000" points="538.5,-204.7 538.5,-223.7 742.5,-223.7 742.5,-204.7 538.5,-204.7"/>
<text text-anchor="start" x="541.5" y="-210.8" font-family="Helvetica,sans-Serif" font-size="11.00" fill="#000000">...</text>
<polygon fill="#ffffff" stroke="transparent" points="538.5,-185.7 538.5,-204.7 625.5,-204.7 625.5,-185.7 538.5,-185.7"/>
<polygon fill="none" stroke="#000000" points="538.5,-185.7 538.5,-204.7 625.5,-204.7 625.5,-185.7 538.5,-185.7"/>
<text text-anchor="start" x="541.5" y="-191.8" font-family="Helvetica,sans-Serif" font-size="11.00" fill="#000000">&lt; 4</text>
<polygon fill="#ffffff" stroke="transparent" points="625.5,-185.7 625.5,-204.7 696.5,-204.7 696.5,-185.7 625.5,-185.7"/>
<polygon fill="none" stroke="#000000" points="625.5,-185.7 625.5,-204.7 696.5,-204.7 696.5,-185.7 625.5,-185.7"/>
<text text-anchor="start" x="661.1105" y="-191.8" font-family="Helvetica,sans-Serif" font-size="11.00" fill="#000000">0 rows</text>
<polygon fill="#ffffff" stroke="transparent" points="696.5,-185.7 696.5,-204.7 742.5,-204.7 742.5,-185.7 696.5,-185.7"/>
<polygon fill="none" stroke="#000000" points="696.5,-185.7 696.5,-204.7 742.5,-204.7 742.5,-185.7 696.5,-185.7"/>
<text text-anchor="start" x="733.3862" y="-191.8" font-family="Helvetica,sans-Serif" font-size="11.00" fill="#000000"> &#160;</text>
</a>
</g>
</g>
<!-- cm_covariate_balance&#45;&gt;cm_covariate -->
<g id="edge2" class="edge">
<title>cm_covariate_balance:w&#45;&gt;cm_covariate:e</title>
<path fill="none" stroke="#000000" d="M524.2287,-275.6029C501.6188,-264.4083 502.5492,-226.7 470,-226.7"/>
<polygon fill="#000000" stroke="#000000" points="530.682,-277.0033 537.7365,-282.2181 534.591,-277.8517 538.5,-278.7 538.5,-278.7 538.5,-278.7 534.591,-277.8517 539.2635,-275.1819 530.682,-277.0033 530.682,-277.0033"/>
<ellipse fill="none" stroke="#000000" cx="527.5548" cy="-276.3246" rx="3.2" ry="3.2"/>
</g>
<!-- cm_covariate_balance&#45;&gt;cm_covariate -->
<g id="edge3" class="edge">
<title>cm_covariate_balance:w&#45;&gt;cm_covariate:e</title>
<path fill="none" stroke="#000000" d="M524.1736,-253.3281C498.0358,-238.8515 509.0396,-182.7 470,-182.7"/>
<polygon fill="#000000" stroke="#000000" points="530.7128,-254.8671 537.6752,-260.2042 534.6064,-255.7836 538.5,-256.7 538.5,-256.7 538.5,-256.7 534.6064,-255.7836 539.3248,-253.1958 530.7128,-254.8671 530.7128,-254.8671"/>
<ellipse fill="none" stroke="#000000" cx="527.5979" cy="-254.134" rx="3.2" ry="3.2"/>
</g>
<!-- cm_covariate_balance&#45;&gt;cm_covariate -->
<g id="edge4" class="edge">
<title>cm_covariate_balance:w&#45;&gt;cm_covariate:e</title>
<path fill="none" stroke="#000000" d="M524.2541,-231.5059C492.9707,-214.8484 516.6819,-138.7 470,-138.7"/>
<polygon fill="#000000" stroke="#000000" points="530.6938,-232.9497 537.7124,-238.2128 534.5969,-233.8249 538.5,-234.7 538.5,-234.7 538.5,-234.7 534.5969,-233.8249 539.2876,-231.1872 530.6938,-232.9497 530.6938,-232.9497"/>
<ellipse fill="none" stroke="#000000" cx="527.5713" cy="-232.2496" rx="3.2" ry="3.2"/>
</g>
<!-- cm_shared_covariate_balance -->
<g id="node4" class="node">
<title>cm_shared_covariate_balance</title>
<g id="a_node4"><a xlink:href="../../tables/cm_shared_covariate_balance.html" xlink:title="cm_shared_covariate_balance" target="_top">
<polygon fill="#ffffff" stroke="transparent" points="521,-38.2 521,-165.2 760,-165.2 760,-38.2 521,-38.2"/>
<polygon fill="#f5f5f5" stroke="transparent" points="521.5,-141.7 521.5,-164.7 760.5,-164.7 760.5,-141.7 521.5,-141.7"/>
<polygon fill="none" stroke="#000000" points="521.5,-141.7 521.5,-164.7 760.5,-164.7 760.5,-141.7 521.5,-141.7"/>
<text text-anchor="start" x="526.5" y="-150.3" font-family="Helvetica,sans-Serif" font-weight="bold" font-size="11.00" fill="#000000">cm_shared_covariate_balance</text>
<text text-anchor="start" x="726.0219" y="-149.8" font-family="Helvetica,sans-Serif" font-size="11.00" fill="#000000">[table]</text>
<polygon fill="none" stroke="#000000" points="521.5,-119.7 521.5,-141.7 760.5,-141.7 760.5,-119.7 521.5,-119.7"/>
<image xlink:href="../../images/foreignKeys.png" width="11px" height="12px" preserveAspectRatio="xMinYMin meet" x="526.5" y="-136.7"/>
<text text-anchor="start" x="550.5" y="-126.8" font-family="Helvetica,sans-Serif" font-size="11.00" fill="#000000">analysis_id</text>
<polygon fill="none" stroke="#000000" points="521.5,-97.7 521.5,-119.7 760.5,-119.7 760.5,-97.7 521.5,-97.7"/>
<image xlink:href="../../images/foreignKeys.png" width="11px" height="12px" preserveAspectRatio="xMinYMin meet" x="526.5" y="-114.7"/>
<text text-anchor="start" x="550.5" y="-104.8" font-family="Helvetica,sans-Serif" font-size="11.00" fill="#000000">covariate_id</text>
<polygon fill="none" stroke="#000000" points="521.5,-75.7 521.5,-97.7 760.5,-97.7 760.5,-75.7 521.5,-75.7"/>
<image xlink:href="../../images/foreignKeys.png" width="11px" height="12px" preserveAspectRatio="xMinYMin meet" x="526.5" y="-92.7"/>
<text text-anchor="start" x="550.5" y="-82.8" font-family="Helvetica,sans-Serif" font-size="11.00" fill="#000000">database_id</text>
<polygon fill="none" stroke="#000000" points="521.5,-56.7 521.5,-75.7 760.5,-75.7 760.5,-56.7 521.5,-56.7"/>
<text text-anchor="start" x="524.5" y="-62.8" font-family="Helvetica,sans-Serif" font-size="11.00" fill="#000000">...</text>
<polygon fill="#ffffff" stroke="transparent" points="521.5,-37.7 521.5,-56.7 626.5,-56.7 626.5,-37.7 521.5,-37.7"/>
<polygon fill="none" stroke="#000000" points="521.5,-37.7 521.5,-56.7 626.5,-56.7 626.5,-37.7 521.5,-37.7"/>
<text text-anchor="start" x="524.5" y="-43.8" font-family="Helvetica,sans-Serif" font-size="11.00" fill="#000000">&lt; 4</text>
<polygon fill="#ffffff" stroke="transparent" points="626.5,-37.7 626.5,-56.7 706.5,-56.7 706.5,-37.7 626.5,-37.7"/>
<polygon fill="none" stroke="#000000" points="626.5,-37.7 626.5,-56.7 706.5,-56.7 706.5,-37.7 626.5,-37.7"/>
<text text-anchor="start" x="671.1105" y="-43.8" font-family="Helvetica,sans-Serif" font-size="11.00" fill="#000000">0 rows</text>
<polygon fill="#ffffff" stroke="transparent" points="706.5,-37.7 706.5,-56.7 760.5,-56.7 760.5,-37.7 706.5,-37.7"/>
<polygon fill="none" stroke="#000000" points="706.5,-37.7 706.5,-56.7 760.5,-56.7 760.5,-37.7 706.5,-37.7"/>
<text text-anchor="start" x="751.3862" y="-43.8" font-family="Helvetica,sans-Serif" font-size="11.00" fill="#000000"> &#160;</text>
</a>
</g>
</g>
<!-- cm_shared_covariate_balance&#45;&gt;cm_covariate -->
<g id="edge5" class="edge">
<title>cm_shared_covariate_balance:w&#45;&gt;cm_covariate:e</title>
<path fill="none" stroke="#000000" d="M507.3716,-134.825C482.9509,-153.2 512.3661,-226.7 470,-226.7"/>
<polygon fill="#000000" stroke="#000000" points="513.8206,-132.9422 522.509,-134.1557 517.6603,-131.8211 521.5,-130.7 521.5,-130.7 521.5,-130.7 517.6603,-131.8211 520.491,-127.2443 513.8206,-132.9422 513.8206,-132.9422"/>
<ellipse fill="none" stroke="#000000" cx="510.7489" cy="-133.839" rx="3.2" ry="3.2"/>
</g>
<!-- cm_shared_covariate_balance&#45;&gt;cm_covariate -->
<g id="edge6" class="edge">
<title>cm_shared_covariate_balance:w&#45;&gt;cm_covariate:e</title>
<path fill="none" stroke="#000000" d="M507.7488,-113.1074C488.4187,-129.0383 504.1218,-182.7 470,-182.7"/>
<polygon fill="#000000" stroke="#000000" points="513.8817,-111.1418 522.5988,-112.1282 517.6909,-109.9209 521.5,-108.7 521.5,-108.7 521.5,-108.7 517.6909,-109.9209 520.4012,-105.2718 513.8817,-111.1418 513.8817,-111.1418"/>
<ellipse fill="none" stroke="#000000" cx="510.8344" cy="-112.1185" rx="3.2" ry="3.2"/>
</g>
<!-- cm_shared_covariate_balance&#45;&gt;cm_covariate -->
<g id="edge7" class="edge">
<title>cm_shared_covariate_balance:w&#45;&gt;cm_covariate:e</title>
<path fill="none" stroke="#000000" d="M507.4561,-91.4988C492.4356,-104.3719 496.4284,-138.7 470,-138.7"/>
<polygon fill="#000000" stroke="#000000" points="513.9297,-89.2868 522.6641,-90.1066 517.7149,-87.9934 521.5,-86.7 521.5,-86.7 521.5,-86.7 517.7149,-87.9934 520.3359,-83.2934 513.9297,-89.2868 513.9297,-89.2868"/>
<ellipse fill="none" stroke="#000000" cx="510.9016" cy="-90.3215" rx="3.2" ry="3.2"/>
</g>
</g>
</svg>
