<?xml version="1.0" encoding="UTF-8" standalone="no"?>
<!DOCTYPE svg PUBLIC "-//W3C//DTD SVG 1.1//EN"
 "http://www.w3.org/Graphics/SVG/1.1/DTD/svg11.dtd">
<!-- Generated by graphviz version 2.40.1 (20161225.0304)
 -->
<!-- Title: oneDegreeRelationshipsDiagram Pages: 1 -->
<svg width="588pt" height="470pt"
 viewBox="0.00 0.00 588.00 470.20" xmlns="http://www.w3.org/2000/svg" xmlns:xlink="http://www.w3.org/1999/xlink">
<g id="graph0" class="graph" transform="scale(1 1) rotate(0) translate(4 466.2)">
<title>oneDegreeRelationshipsDiagram</title>
<polygon fill="#ffffff" stroke="transparent" points="-4,4 -4,-466.2 584,-466.2 584,4 -4,4"/>
<text text-anchor="middle" x="72.4936" y="-7.3" font-family="Helvetica,sans-Serif" font-size="11.00" fill="#000000">Generated by SchemaSpy</text>
<!-- cm_covariate_balance -->
<g id="node1" class="node">
<title>cm_covariate_balance</title>
<g id="a_node1"><a xlink:href="../../tables/cm_covariate_balance.html" xlink:title="cm_covariate_balance" target="_top">
<polygon fill="#ffffff" stroke="transparent" points="302,-38.2 302,-458.2 572,-458.2 572,-38.2 302,-38.2"/>
<polygon fill="#f5f5f5" stroke="transparent" points="304,-433.2 304,-456.2 570,-456.2 570,-433.2 304,-433.2"/>
<polygon fill="none" stroke="#000000" points="304,-433.2 304,-456.2 570,-456.2 570,-433.2 304,-433.2"/>
<text text-anchor="start" x="309" y="-441.8" font-family="Helvetica,sans-Serif" font-weight="bold" font-size="11.00" fill="#000000">cm_covariate_balance</text>
<text text-anchor="start" x="535.0437" y="-441.3" font-family="Helvetica,sans-Serif" font-size="11.00" fill="#000000">[table]</text>
<polygon fill="none" stroke="#000000" points="304,-411.2 304,-433.2 508,-433.2 508,-411.2 304,-411.2"/>
<image xlink:href="../../images/foreignKeys.png" width="11px" height="12px" preserveAspectRatio="xMinYMin meet" x="309" y="-428.2"/>
<text text-anchor="start" x="324" y="-418.3" font-family="Helvetica,sans-Serif" font-size="11.00" fill="#000000">analysis_id</text>
<polygon fill="none" stroke="#000000" points="508,-411.2 508,-433.2 570,-433.2 570,-411.2 508,-411.2"/>
<text text-anchor="start" x="510.878" y="-418.9" font-family="Helvetica,sans-Serif" font-size="11.00" fill="#000000">unknown[0]</text>
<polygon fill="none" stroke="#000000" points="304,-389.2 304,-411.2 508,-411.2 508,-389.2 304,-389.2"/>
<text text-anchor="start" x="324" y="-396.3" font-family="Helvetica,sans-Serif" font-size="11.00" fill="#000000">comparator_id</text>
<polygon fill="none" stroke="#000000" points="508,-389.2 508,-411.2 570,-411.2 570,-389.2 508,-389.2"/>
<text text-anchor="start" x="510.878" y="-396.9" font-family="Helvetica,sans-Serif" font-size="11.00" fill="#000000">unknown[0]</text>
<polygon fill="none" stroke="#000000" points="304,-367.2 304,-389.2 508,-389.2 508,-367.2 304,-367.2"/>
<text text-anchor="start" x="324" y="-374.3" font-family="Helvetica,sans-Serif" font-size="11.00" fill="#000000">comparator_mean_after</text>
<polygon fill="none" stroke="#000000" points="508,-367.2 508,-389.2 570,-389.2 570,-367.2 508,-367.2"/>
<text text-anchor="start" x="510.878" y="-374.9" font-family="Helvetica,sans-Serif" font-size="11.00" fill="#000000">unknown[0]</text>
<polygon fill="none" stroke="#000000" points="304,-345.2 304,-367.2 508,-367.2 508,-345.2 304,-345.2"/>
<text text-anchor="start" x="324" y="-352.3" font-family="Helvetica,sans-Serif" font-size="11.00" fill="#000000">comparator_mean_before</text>
<polygon fill="none" stroke="#000000" points="508,-345.2 508,-367.2 570,-367.2 570,-345.2 508,-345.2"/>
<text text-anchor="start" x="510.878" y="-352.9" font-family="Helvetica,sans-Serif" font-size="11.00" fill="#000000">unknown[0]</text>
<polygon fill="none" stroke="#000000" points="304,-323.2 304,-345.2 508,-345.2 508,-323.2 304,-323.2"/>
<text text-anchor="start" x="324" y="-330.3" font-family="Helvetica,sans-Serif" font-size="11.00" fill="#000000">comparator_std_diff</text>
<polygon fill="none" stroke="#000000" points="508,-323.2 508,-345.2 570,-345.2 570,-323.2 508,-323.2"/>
<text text-anchor="start" x="510.878" y="-330.9" font-family="Helvetica,sans-Serif" font-size="11.00" fill="#000000">unknown[0]</text>
<polygon fill="none" stroke="#000000" points="304,-301.2 304,-323.2 508,-323.2 508,-301.2 304,-301.2"/>
<image xlink:href="../../images/foreignKeys.png" width="11px" height="12px" preserveAspectRatio="xMinYMin meet" x="309" y="-318.2"/>
<text text-anchor="start" x="324" y="-308.3" font-family="Helvetica,sans-Serif" font-size="11.00" fill="#000000">covariate_id</text>
<polygon fill="none" stroke="#000000" points="508,-301.2 508,-323.2 570,-323.2 570,-301.2 508,-301.2"/>
<text text-anchor="start" x="510.878" y="-308.9" font-family="Helvetica,sans-Serif" font-size="11.00" fill="#000000">unknown[0]</text>
<polygon fill="none" stroke="#000000" points="304,-279.2 304,-301.2 508,-301.2 508,-279.2 304,-279.2"/>
<image xlink:href="../../images/foreignKeys.png" width="11px" height="12px" preserveAspectRatio="xMinYMin meet" x="309" y="-296.2"/>
<text text-anchor="start" x="324" y="-286.3" font-family="Helvetica,sans-Serif" font-size="11.00" fill="#000000">database_id</text>
<polygon fill="none" stroke="#000000" points="508,-279.2 508,-301.2 570,-301.2 570,-279.2 508,-279.2"/>
<text text-anchor="start" x="510.878" y="-286.9" font-family="Helvetica,sans-Serif" font-size="11.00" fill="#000000">unknown[0]</text>
<polygon fill="none" stroke="#000000" points="304,-257.2 304,-279.2 508,-279.2 508,-257.2 304,-257.2"/>
<text text-anchor="start" x="324" y="-264.3" font-family="Helvetica,sans-Serif" font-size="11.00" fill="#000000">mean_after</text>
<polygon fill="none" stroke="#000000" points="508,-257.2 508,-279.2 570,-279.2 570,-257.2 508,-257.2"/>
<text text-anchor="start" x="510.878" y="-264.9" font-family="Helvetica,sans-Serif" font-size="11.00" fill="#000000">unknown[0]</text>
<polygon fill="none" stroke="#000000" points="304,-235.2 304,-257.2 508,-257.2 508,-235.2 304,-235.2"/>
<text text-anchor="start" x="324" y="-242.3" font-family="Helvetica,sans-Serif" font-size="11.00" fill="#000000">mean_before</text>
<polygon fill="none" stroke="#000000" points="508,-235.2 508,-257.2 570,-257.2 570,-235.2 508,-235.2"/>
<text text-anchor="start" x="510.878" y="-242.9" font-family="Helvetica,sans-Serif" font-size="11.00" fill="#000000">unknown[0]</text>
<polygon fill="none" stroke="#000000" points="304,-213.2 304,-235.2 508,-235.2 508,-213.2 304,-213.2"/>
<text text-anchor="start" x="324" y="-220.3" font-family="Helvetica,sans-Serif" font-size="11.00" fill="#000000">outcome_id</text>
<polygon fill="none" stroke="#000000" points="508,-213.2 508,-235.2 570,-235.2 570,-213.2 508,-213.2"/>
<text text-anchor="start" x="510.878" y="-220.9" font-family="Helvetica,sans-Serif" font-size="11.00" fill="#000000">unknown[0]</text>
<polygon fill="none" stroke="#000000" points="304,-191.2 304,-213.2 508,-213.2 508,-191.2 304,-191.2"/>
<text text-anchor="start" x="324" y="-198.3" font-family="Helvetica,sans-Serif" font-size="11.00" fill="#000000">std_diff_after</text>
<polygon fill="none" stroke="#000000" points="508,-191.2 508,-213.2 570,-213.2 570,-191.2 508,-191.2"/>
<text text-anchor="start" x="510.878" y="-198.9" font-family="Helvetica,sans-Serif" font-size="11.00" fill="#000000">unknown[0]</text>
<polygon fill="none" stroke="#000000" points="304,-169.2 304,-191.2 508,-191.2 508,-169.2 304,-169.2"/>
<text text-anchor="start" x="324" y="-176.3" font-family="Helvetica,sans-Serif" font-size="11.00" fill="#000000">std_diff_before</text>
<polygon fill="none" stroke="#000000" points="508,-169.2 508,-191.2 570,-191.2 570,-169.2 508,-169.2"/>
<text text-anchor="start" x="510.878" y="-176.9" font-family="Helvetica,sans-Serif" font-size="11.00" fill="#000000">unknown[0]</text>
<polygon fill="none" stroke="#000000" points="304,-147.2 304,-169.2 508,-169.2 508,-147.2 304,-147.2"/>
<text text-anchor="start" x="324" y="-154.3" font-family="Helvetica,sans-Serif" font-size="11.00" fill="#000000">target_comparator_std_diff</text>
<polygon fill="none" stroke="#000000" points="508,-147.2 508,-169.2 570,-169.2 570,-147.2 508,-147.2"/>
<text text-anchor="start" x="510.878" y="-154.9" font-family="Helvetica,sans-Serif" font-size="11.00" fill="#000000">unknown[0]</text>
<polygon fill="none" stroke="#000000" points="304,-125.2 304,-147.2 508,-147.2 508,-125.2 304,-125.2"/>
<text text-anchor="start" x="324" y="-132.3" font-family="Helvetica,sans-Serif" font-size="11.00" fill="#000000">target_id</text>
<polygon fill="none" stroke="#000000" points="508,-125.2 508,-147.2 570,-147.2 570,-125.2 508,-125.2"/>
<text text-anchor="start" x="510.878" y="-132.9" font-family="Helvetica,sans-Serif" font-size="11.00" fill="#000000">unknown[0]</text>
<polygon fill="none" stroke="#000000" points="304,-103.2 304,-125.2 508,-125.2 508,-103.2 304,-103.2"/>
<text text-anchor="start" x="324" y="-110.3" font-family="Helvetica,sans-Serif" font-size="11.00" fill="#000000">target_mean_after</text>
<polygon fill="none" stroke="#000000" points="508,-103.2 508,-125.2 570,-125.2 570,-103.2 508,-103.2"/>
<text text-anchor="start" x="510.878" y="-110.9" font-family="Helvetica,sans-Serif" font-size="11.00" fill="#000000">unknown[0]</text>
<polygon fill="none" stroke="#000000" points="304,-81.2 304,-103.2 508,-103.2 508,-81.2 304,-81.2"/>
<text text-anchor="start" x="324" y="-88.3" font-family="Helvetica,sans-Serif" font-size="11.00" fill="#000000">target_mean_before</text>
<polygon fill="none" stroke="#000000" points="508,-81.2 508,-103.2 570,-103.2 570,-81.2 508,-81.2"/>
<text text-anchor="start" x="510.878" y="-88.9" font-family="Helvetica,sans-Serif" font-size="11.00" fill="#000000">unknown[0]</text>
<polygon fill="none" stroke="#000000" points="304,-59.2 304,-81.2 508,-81.2 508,-59.2 304,-59.2"/>
<text text-anchor="start" x="324" y="-66.3" font-family="Helvetica,sans-Serif" font-size="11.00" fill="#000000">target_std_diff</text>
<polygon fill="none" stroke="#000000" points="508,-59.2 508,-81.2 570,-81.2 570,-59.2 508,-59.2"/>
<text text-anchor="start" x="510.878" y="-66.9" font-family="Helvetica,sans-Serif" font-size="11.00" fill="#000000">unknown[0]</text>
<polygon fill="#ffffff" stroke="transparent" points="304,-40.2 304,-59.2 397,-59.2 397,-40.2 304,-40.2"/>
<polygon fill="none" stroke="#000000" points="304,-40.2 304,-59.2 397,-59.2 397,-40.2 304,-40.2"/>
<text text-anchor="start" x="307" y="-46.3" font-family="Helvetica,sans-Serif" font-size="11.00" fill="#000000">&lt; 4</text>
<polygon fill="#ffffff" stroke="transparent" points="397,-40.2 397,-59.2 508,-59.2 508,-40.2 397,-40.2"/>
<polygon fill="none" stroke="#000000" points="397,-40.2 397,-59.2 508,-59.2 508,-40.2 397,-40.2"/>
<text text-anchor="start" x="472.6105" y="-46.3" font-family="Helvetica,sans-Serif" font-size="11.00" fill="#000000">0 rows</text>
<polygon fill="#ffffff" stroke="transparent" points="508,-40.2 508,-59.2 570,-59.2 570,-40.2 508,-40.2"/>
<polygon fill="none" stroke="#000000" points="508,-40.2 508,-59.2 570,-59.2 570,-40.2 508,-40.2"/>
<text text-anchor="start" x="551.4053" y="-46.3" font-family="Helvetica,sans-Serif" font-size="11.00" fill="#000000">0 &gt;</text>
<polygon fill="none" stroke="#000000" stroke-width="2" points="303,-39.2 303,-457.2 571,-457.2 571,-39.2 303,-39.2"/>
</a>
</g>
</g>
<!-- cm_covariate -->
<g id="node2" class="node">
<title>cm_covariate</title>
<g id="a_node2"><a xlink:href="../../tables/cm_covariate.html" xlink:title="cm_covariate" target="_top">
<polygon fill="#ffffff" stroke="transparent" points="48.5,-285.7 48.5,-412.7 212.5,-412.7 212.5,-285.7 48.5,-285.7"/>
<polygon fill="#f5f5f5" stroke="transparent" points="48.5,-389.2 48.5,-412.2 212.5,-412.2 212.5,-389.2 48.5,-389.2"/>
<polygon fill="none" stroke="#000000" points="48.5,-389.2 48.5,-412.2 212.5,-412.2 212.5,-389.2 48.5,-389.2"/>
<text text-anchor="start" x="53.5" y="-397.8" font-family="Helvetica,sans-Serif" font-weight="bold" font-size="11.00" fill="#000000">cm_covariate</text>
<text text-anchor="start" x="177.5437" y="-397.3" font-family="Helvetica,sans-Serif" font-size="11.00" fill="#000000">[table]</text>
<polygon fill="none" stroke="#000000" points="48.5,-367.2 48.5,-389.2 212.5,-389.2 212.5,-367.2 48.5,-367.2"/>
<image xlink:href="../../images/primaryKeys.png" width="11px" height="12px" preserveAspectRatio="xMinYMin meet" x="53.5" y="-384.2"/>
<text text-anchor="start" x="68.5" y="-374.3" font-family="Helvetica,sans-Serif" font-size="11.00" fill="#000000">analysis_id</text>
<polygon fill="none" stroke="#000000" points="48.5,-345.2 48.5,-367.2 212.5,-367.2 212.5,-345.2 48.5,-345.2"/>
<image xlink:href="../../images/primaryKeys.png" width="11px" height="12px" preserveAspectRatio="xMinYMin meet" x="53.5" y="-362.2"/>
<text text-anchor="start" x="68.5" y="-352.3" font-family="Helvetica,sans-Serif" font-size="11.00" fill="#000000">covariate_id</text>
<polygon fill="none" stroke="#000000" points="48.5,-323.2 48.5,-345.2 212.5,-345.2 212.5,-323.2 48.5,-323.2"/>
<image xlink:href="../../images/primaryKeys.png" width="11px" height="12px" preserveAspectRatio="xMinYMin meet" x="53.5" y="-340.2"/>
<text text-anchor="start" x="68.5" y="-330.3" font-family="Helvetica,sans-Serif" font-size="11.00" fill="#000000">database_id</text>
<polygon fill="none" stroke="#000000" points="48.5,-304.2 48.5,-323.2 212.5,-323.2 212.5,-304.2 48.5,-304.2"/>
<text text-anchor="start" x="51.5" y="-310.3" font-family="Helvetica,sans-Serif" font-size="11.00" fill="#000000">...</text>
<polygon fill="#ffffff" stroke="transparent" points="48.5,-285.2 48.5,-304.2 111.5,-304.2 111.5,-285.2 48.5,-285.2"/>
<polygon fill="none" stroke="#000000" points="48.5,-285.2 48.5,-304.2 111.5,-304.2 111.5,-285.2 48.5,-285.2"/>
<text text-anchor="start" x="51.5" y="-291.3" font-family="Helvetica,sans-Serif" font-size="11.00" fill="#000000">&lt; 1</text>
<polygon fill="#ffffff" stroke="transparent" points="111.5,-285.2 111.5,-304.2 170.5,-304.2 170.5,-285.2 111.5,-285.2"/>
<polygon fill="none" stroke="#000000" points="111.5,-285.2 111.5,-304.2 170.5,-304.2 170.5,-285.2 111.5,-285.2"/>
<text text-anchor="start" x="135.1105" y="-291.3" font-family="Helvetica,sans-Serif" font-size="11.00" fill="#000000">0 rows</text>
<polygon fill="#ffffff" stroke="transparent" points="170.5,-285.2 170.5,-304.2 212.5,-304.2 212.5,-285.2 170.5,-285.2"/>
<polygon fill="none" stroke="#000000" points="170.5,-285.2 170.5,-304.2 212.5,-304.2 212.5,-285.2 170.5,-285.2"/>
<text text-anchor="start" x="193.9053" y="-291.3" font-family="Helvetica,sans-Serif" font-size="11.00" fill="#000000">6 &gt;</text>
</a>
</g>
</g>
<!-- cm_covariate_balance&#45;&gt;cm_covariate -->
<g id="edge1" class="edge">
<title>cm_covariate_balance:w&#45;&gt;cm_covariate:e</title>
<path fill="none" stroke="#000000" d="M289.3814,-420.4207C257.9293,-412.189 252.16,-378.2 212.5,-378.2"/>
<polygon fill="#000000" stroke="#000000" points="296.0586,-421.2333 303.565,-425.7736 300.0293,-421.7167 304,-422.2 304,-422.2 304,-422.2 300.0293,-421.7167 304.435,-418.6264 296.0586,-421.2333 296.0586,-421.2333"/>
<ellipse fill="none" stroke="#000000" cx="292.8821" cy="-420.8467" rx="3.2" ry="3.2"/>
</g>
<!-- cm_covariate_balance&#45;&gt;cm_covariate -->
<g id="edge2" class="edge">
<title>cm_covariate_balance:w&#45;&gt;cm_covariate:e</title>
<path fill="none" stroke="#000000" d="M289.3814,-313.9793C257.9293,-322.211 252.16,-356.2 212.5,-356.2"/>
<polygon fill="#000000" stroke="#000000" points="296.0586,-313.1667 304.435,-315.7736 300.0293,-312.6833 304,-312.2 304,-312.2 304,-312.2 300.0293,-312.6833 303.565,-308.6264 296.0586,-313.1667 296.0586,-313.1667"/>
<ellipse fill="none" stroke="#000000" cx="292.8821" cy="-313.5533" rx="3.2" ry="3.2"/>
</g>
<!-- cm_covariate_balance&#45;&gt;cm_covariate -->
<g id="edge3" class="edge">
<title>cm_covariate_balance:w&#45;&gt;cm_covariate:e</title>
<path fill="none" stroke="#000000" d="M289.3814,-291.9793C257.9293,-300.211 252.16,-334.2 212.5,-334.2"/>
<polygon fill="#000000" stroke="#000000" points="296.0586,-291.1667 304.435,-293.7736 300.0293,-290.6833 304,-290.2 304,-290.2 304,-290.2 300.0293,-290.6833 303.565,-286.6264 296.0586,-291.1667 296.0586,-291.1667"/>
<ellipse fill="none" stroke="#000000" cx="292.8821" cy="-291.5533" rx="3.2" ry="3.2"/>
</g>
<!-- database_meta_data -->
<g id="node3" class="node">
<title>database_meta_data</title>
<g id="a_node3"><a xlink:href="../../tables/database_meta_data.html" xlink:title="database_meta_data" target="_top">
<polygon fill="#ffffff" stroke="transparent" points="8,-181.7 8,-264.7 253,-264.7 253,-181.7 8,-181.7"/>
<polygon fill="#f5f5f5" stroke="transparent" points="8.5,-241.2 8.5,-264.2 253.5,-264.2 253.5,-241.2 8.5,-241.2"/>
<polygon fill="none" stroke="#000000" points="8.5,-241.2 8.5,-264.2 253.5,-264.2 253.5,-241.2 8.5,-241.2"/>
<text text-anchor="start" x="13.5" y="-249.8" font-family="Helvetica,sans-Serif" font-weight="bold" font-size="11.00" fill="#000000">database_meta_data</text>
<text text-anchor="start" x="218.5437" y="-249.3" font-family="Helvetica,sans-Serif" font-size="11.00" fill="#000000">[table]</text>
<polygon fill="none" stroke="#000000" points="8.5,-219.2 8.5,-241.2 253.5,-241.2 253.5,-219.2 8.5,-219.2"/>
<image xlink:href="../../images/primaryKeys.png" width="11px" height="12px" preserveAspectRatio="xMinYMin meet" x="13.5" y="-236.2"/>
<text text-anchor="start" x="28.5" y="-226.3" font-family="Helvetica,sans-Serif" font-size="11.00" fill="#000000">database_id</text>
<polygon fill="none" stroke="#000000" points="8.5,-200.2 8.5,-219.2 253.5,-219.2 253.5,-200.2 8.5,-200.2"/>
<text text-anchor="start" x="11.5" y="-206.3" font-family="Helvetica,sans-Serif" font-size="11.00" fill="#000000">...</text>
<polygon fill="#ffffff" stroke="transparent" points="8.5,-181.2 8.5,-200.2 108.5,-200.2 108.5,-181.2 8.5,-181.2"/>
<polygon fill="none" stroke="#000000" points="8.5,-181.2 8.5,-200.2 108.5,-200.2 108.5,-181.2 8.5,-181.2"/>
<text text-anchor="start" x="11.5" y="-187.3" font-family="Helvetica,sans-Serif" font-size="11.00" fill="#000000">&lt; 1</text>
<polygon fill="#ffffff" stroke="transparent" points="108.5,-181.2 108.5,-200.2 186.5,-200.2 186.5,-181.2 108.5,-181.2"/>
<polygon fill="none" stroke="#000000" points="108.5,-181.2 108.5,-200.2 186.5,-200.2 186.5,-181.2 108.5,-181.2"/>
<text text-anchor="start" x="151.1105" y="-187.3" font-family="Helvetica,sans-Serif" font-size="11.00" fill="#000000">0 rows</text>
<polygon fill="#ffffff" stroke="transparent" points="186.5,-181.2 186.5,-200.2 253.5,-200.2 253.5,-181.2 186.5,-181.2"/>
<polygon fill="none" stroke="#000000" points="186.5,-181.2 186.5,-200.2 253.5,-200.2 253.5,-181.2 186.5,-181.2"/>
<text text-anchor="start" x="228.7904" y="-187.3" font-family="Helvetica,sans-Serif" font-size="11.00" fill="#000000">17 &gt;</text>
</a>
</g>
</g>
<!-- cm_covariate_balance&#45;&gt;database_meta_data -->
<g id="edge4" class="edge">
<title>cm_covariate_balance:w&#45;&gt;database_meta_data:e</title>
<path fill="none" stroke="#000000" d="M290.2703,-285.4919C274.1513,-271.3475 282.3642,-230.2 253.5,-230.2"/>
<polygon fill="#000000" stroke="#000000" points="296.4326,-287.605 302.8322,-293.6053 300.2163,-288.9025 304,-290.2 304,-290.2 304,-290.2 300.2163,-288.9025 305.1678,-286.7947 296.4326,-287.605 296.4326,-287.605"/>
<ellipse fill="none" stroke="#000000" cx="293.4056" cy="-286.567" rx="3.2" ry="3.2"/>
</g>
</g>
</svg>
