<?xml version="1.0" encoding="UTF-8" standalone="no"?>
<!DOCTYPE svg PUBLIC "-//W3C//DTD SVG 1.1//EN"
 "http://www.w3.org/Graphics/SVG/1.1/DTD/svg11.dtd">
<!-- Generated by graphviz version 2.40.1 (20161225.0304)
 -->
<!-- Title: oneDegreeRelationshipsDiagram Pages: 1 -->
<svg width="566pt" height="179pt"
 viewBox="0.00 0.00 566.00 178.70" xmlns="http://www.w3.org/2000/svg" xmlns:xlink="http://www.w3.org/1999/xlink">
<g id="graph0" class="graph" transform="scale(1 1) rotate(0) translate(4 174.7)">
<title>oneDegreeRelationshipsDiagram</title>
<polygon fill="#ffffff" stroke="transparent" points="-4,4 -4,-174.7 562,-174.7 562,4 -4,4"/>
<text text-anchor="middle" x="72.4936" y="-7.3" font-family="Helvetica,sans-Serif" font-size="11.00" fill="#000000">Generated by SchemaSpy</text>
<!-- cm_shared_covariate_balance -->
<g id="node1" class="node">
<title>cm_shared_covariate_balance</title>
<g id="a_node1"><a xlink:href="../../tables/cm_shared_covariate_balance.html" xlink:title="cm_shared_covariate_balance" target="_top">
<polygon fill="#ffffff" stroke="transparent" points="311,-38.2 311,-165.2 550,-165.2 550,-38.2 311,-38.2"/>
<polygon fill="#f5f5f5" stroke="transparent" points="311.5,-141.7 311.5,-164.7 550.5,-164.7 550.5,-141.7 311.5,-141.7"/>
<polygon fill="none" stroke="#000000" points="311.5,-141.7 311.5,-164.7 550.5,-164.7 550.5,-141.7 311.5,-141.7"/>
<text text-anchor="start" x="316.5" y="-150.3" font-family="Helvetica,sans-Serif" font-weight="bold" font-size="11.00" fill="#000000">cm_shared_covariate_balance</text>
<text text-anchor="start" x="516.0219" y="-149.8" font-family="Helvetica,sans-Serif" font-size="11.00" fill="#000000">[table]</text>
<polygon fill="none" stroke="#000000" points="311.5,-119.7 311.5,-141.7 550.5,-141.7 550.5,-119.7 311.5,-119.7"/>
<image xlink:href="../../images/foreignKeys.png" width="11px" height="12px" preserveAspectRatio="xMinYMin meet" x="316.5" y="-136.7"/>
<text text-anchor="start" x="340.5" y="-126.8" font-family="Helvetica,sans-Serif" font-size="11.00" fill="#000000">analysis_id</text>
<polygon fill="none" stroke="#000000" points="311.5,-97.7 311.5,-119.7 550.5,-119.7 550.5,-97.7 311.5,-97.7"/>
<image xlink:href="../../images/foreignKeys.png" width="11px" height="12px" preserveAspectRatio="xMinYMin meet" x="316.5" y="-114.7"/>
<text text-anchor="start" x="340.5" y="-104.8" font-family="Helvetica,sans-Serif" font-size="11.00" fill="#000000">covariate_id</text>
<polygon fill="none" stroke="#000000" points="311.5,-75.7 311.5,-97.7 550.5,-97.7 550.5,-75.7 311.5,-75.7"/>
<image xlink:href="../../images/foreignKeys.png" width="11px" height="12px" preserveAspectRatio="xMinYMin meet" x="316.5" y="-92.7"/>
<text text-anchor="start" x="340.5" y="-82.8" font-family="Helvetica,sans-Serif" font-size="11.00" fill="#000000">database_id</text>
<polygon fill="none" stroke="#000000" points="311.5,-56.7 311.5,-75.7 550.5,-75.7 550.5,-56.7 311.5,-56.7"/>
<text text-anchor="start" x="314.5" y="-62.8" font-family="Helvetica,sans-Serif" font-size="11.00" fill="#000000">...</text>
<polygon fill="#ffffff" stroke="transparent" points="311.5,-37.7 311.5,-56.7 416.5,-56.7 416.5,-37.7 311.5,-37.7"/>
<polygon fill="none" stroke="#000000" points="311.5,-37.7 311.5,-56.7 416.5,-56.7 416.5,-37.7 311.5,-37.7"/>
<text text-anchor="start" x="314.5" y="-43.8" font-family="Helvetica,sans-Serif" font-size="11.00" fill="#000000">&lt; 4</text>
<polygon fill="#ffffff" stroke="transparent" points="416.5,-37.7 416.5,-56.7 496.5,-56.7 496.5,-37.7 416.5,-37.7"/>
<polygon fill="none" stroke="#000000" points="416.5,-37.7 416.5,-56.7 496.5,-56.7 496.5,-37.7 416.5,-37.7"/>
<text text-anchor="start" x="461.1105" y="-43.8" font-family="Helvetica,sans-Serif" font-size="11.00" fill="#000000">0 rows</text>
<polygon fill="#ffffff" stroke="transparent" points="496.5,-37.7 496.5,-56.7 550.5,-56.7 550.5,-37.7 496.5,-37.7"/>
<polygon fill="none" stroke="#000000" points="496.5,-37.7 496.5,-56.7 550.5,-56.7 550.5,-37.7 496.5,-37.7"/>
<text text-anchor="start" x="541.3862" y="-43.8" font-family="Helvetica,sans-Serif" font-size="11.00" fill="#000000"> &#160;</text>
</a>
</g>
</g>
<!-- cm_covariate_analysis -->
<g id="node2" class="node">
<title>cm_covariate_analysis</title>
<g id="a_node2"><a xlink:href="../../tables/cm_covariate_analysis.html" xlink:title="cm_covariate_analysis" target="_top">
<polygon fill="#ffffff" stroke="transparent" points="8,-54.7 8,-166.7 262,-166.7 262,-54.7 8,-54.7"/>
<polygon fill="#f5f5f5" stroke="transparent" points="10,-141.7 10,-164.7 260,-164.7 260,-141.7 10,-141.7"/>
<polygon fill="none" stroke="#000000" points="10,-141.7 10,-164.7 260,-164.7 260,-141.7 10,-141.7"/>
<text text-anchor="start" x="15" y="-150.3" font-family="Helvetica,sans-Serif" font-weight="bold" font-size="11.00" fill="#000000">cm_covariate_analysis</text>
<text text-anchor="start" x="225.0437" y="-149.8" font-family="Helvetica,sans-Serif" font-size="11.00" fill="#000000">[table]</text>
<polygon fill="none" stroke="#000000" points="10,-119.7 10,-141.7 198,-141.7 198,-119.7 10,-119.7"/>
<image xlink:href="../../images/primaryKeys.png" width="11px" height="12px" preserveAspectRatio="xMinYMin meet" x="15" y="-136.7"/>
<text text-anchor="start" x="30" y="-126.8" font-family="Helvetica,sans-Serif" font-size="11.00" fill="#000000">analysis_id</text>
<polygon fill="none" stroke="#000000" points="198,-119.7 198,-141.7 260,-141.7 260,-119.7 198,-119.7"/>
<text text-anchor="start" x="200.878" y="-127.4" font-family="Helvetica,sans-Serif" font-size="11.00" fill="#000000">unknown[0]</text>
<polygon fill="none" stroke="#000000" points="10,-97.7 10,-119.7 198,-119.7 198,-97.7 10,-97.7"/>
<text text-anchor="start" x="30" y="-104.8" font-family="Helvetica,sans-Serif" font-size="11.00" fill="#000000">covariate_analysis_id</text>
<polygon fill="none" stroke="#000000" points="198,-97.7 198,-119.7 260,-119.7 260,-97.7 198,-97.7"/>
<text text-anchor="start" x="200.878" y="-105.4" font-family="Helvetica,sans-Serif" font-size="11.00" fill="#000000">unknown[0]</text>
<polygon fill="none" stroke="#000000" points="10,-75.7 10,-97.7 198,-97.7 198,-75.7 10,-75.7"/>
<text text-anchor="start" x="30" y="-82.8" font-family="Helvetica,sans-Serif" font-size="11.00" fill="#000000">covariate_analysis_name</text>
<polygon fill="none" stroke="#000000" points="198,-75.7 198,-97.7 260,-97.7 260,-75.7 198,-75.7"/>
<text text-anchor="start" x="200.878" y="-83.4" font-family="Helvetica,sans-Serif" font-size="11.00" fill="#000000">unknown[0]</text>
<polygon fill="#ffffff" stroke="transparent" points="10,-56.7 10,-75.7 95,-75.7 95,-56.7 10,-56.7"/>
<polygon fill="none" stroke="#000000" points="10,-56.7 10,-75.7 95,-75.7 95,-56.7 10,-56.7"/>
<text text-anchor="start" x="13" y="-62.8" font-family="Helvetica,sans-Serif" font-size="11.00" fill="#000000">&lt; 0</text>
<polygon fill="#ffffff" stroke="transparent" points="95,-56.7 95,-75.7 198,-75.7 198,-56.7 95,-56.7"/>
<polygon fill="none" stroke="#000000" points="95,-56.7 95,-75.7 198,-75.7 198,-56.7 95,-56.7"/>
<text text-anchor="start" x="162.6105" y="-62.8" font-family="Helvetica,sans-Serif" font-size="11.00" fill="#000000">0 rows</text>
<polygon fill="#ffffff" stroke="transparent" points="198,-56.7 198,-75.7 260,-75.7 260,-56.7 198,-56.7"/>
<polygon fill="none" stroke="#000000" points="198,-56.7 198,-75.7 260,-75.7 260,-56.7 198,-56.7"/>
<text text-anchor="start" x="241.4053" y="-62.8" font-family="Helvetica,sans-Serif" font-size="11.00" fill="#000000">1 &gt;</text>
<polygon fill="none" stroke="#000000" stroke-width="2" points="9,-55.7 9,-165.7 261,-165.7 261,-55.7 9,-55.7"/>
</a>
</g>
</g>
<!-- cm_shared_covariate_balance&#45;&gt;cm_covariate_analysis -->
<g id="edge1" class="edge">
<title>cm_shared_covariate_balance:w&#45;&gt;cm_covariate_analysis:e</title>
<path fill="none" stroke="#000000" d="M297.0156,-130.7C284.6771,-130.7 277.1667,-130.7 260,-130.7"/>
<polygon fill="#000000" stroke="#000000" points="303.5,-130.7001 311.5,-134.3 307.5,-130.7 311.5,-130.7 311.5,-130.7 311.5,-130.7 307.5,-130.7 311.5,-127.1 303.5,-130.7001 303.5,-130.7001"/>
<ellipse fill="none" stroke="#000000" cx="300.3" cy="-130.7001" rx="3.2" ry="3.2"/>
</g>
</g>
</svg>
