<?xml version="1.0" encoding="UTF-8" standalone="no"?>
<!DOCTYPE svg PUBLIC "-//W3C//DTD SVG 1.1//EN"
 "http://www.w3.org/Graphics/SVG/1.1/DTD/svg11.dtd">
<!-- Generated by graphviz version 2.40.1 (20161225.0304)
 -->
<!-- Title: oneDegreeRelationshipsDiagram Pages: 1 -->
<svg width="254pt" height="206pt"
 viewBox="0.00 0.00 254.00 206.20" xmlns="http://www.w3.org/2000/svg" xmlns:xlink="http://www.w3.org/1999/xlink">
<g id="graph0" class="graph" transform="scale(1 1) rotate(0) translate(4 202.2)">
<title>oneDegreeRelationshipsDiagram</title>
<polygon fill="#ffffff" stroke="transparent" points="-4,4 -4,-202.2 250,-202.2 250,4 -4,4"/>
<text text-anchor="middle" x="72.4936" y="-7.3" font-family="Helvetica,sans-Serif" font-size="11.00" fill="#000000">Generated by SchemaSpy</text>
<!-- cm_covariate -->
<g id="node1" class="node">
<title>cm_covariate</title>
<g id="a_node1"><a xlink:href="../../tables/cm_covariate.html" xlink:title="cm_covariate" target="_top">
<polygon fill="#ffffff" stroke="transparent" points="8,-38.2 8,-194.2 238,-194.2 238,-38.2 8,-38.2"/>
<polygon fill="#f5f5f5" stroke="transparent" points="10,-169.2 10,-192.2 236,-192.2 236,-169.2 10,-169.2"/>
<polygon fill="none" stroke="#000000" points="10,-169.2 10,-192.2 236,-192.2 236,-169.2 10,-169.2"/>
<text text-anchor="start" x="15" y="-177.8" font-family="Helvetica,sans-Serif" font-weight="bold" font-size="11.00" fill="#000000">cm_covariate</text>
<text text-anchor="start" x="201.0437" y="-177.3" font-family="Helvetica,sans-Serif" font-size="11.00" fill="#000000">[table]</text>
<polygon fill="none" stroke="#000000" points="10,-147.2 10,-169.2 174,-169.2 174,-147.2 10,-147.2"/>
<text text-anchor="start" x="30" y="-154.3" font-family="Helvetica,sans-Serif" font-size="11.00" fill="#000000">analysis_id</text>
<polygon fill="none" stroke="#000000" points="174,-147.2 174,-169.2 236,-169.2 236,-147.2 174,-147.2"/>
<text text-anchor="start" x="176.878" y="-154.9" font-family="Helvetica,sans-Serif" font-size="11.00" fill="#000000">unknown[0]</text>
<polygon fill="none" stroke="#000000" points="10,-125.2 10,-147.2 174,-147.2 174,-125.2 10,-125.2"/>
<text text-anchor="start" x="30" y="-132.3" font-family="Helvetica,sans-Serif" font-size="11.00" fill="#000000">covariate_analysis_id</text>
<polygon fill="none" stroke="#000000" points="174,-125.2 174,-147.2 236,-147.2 236,-125.2 174,-125.2"/>
<text text-anchor="start" x="176.878" y="-132.9" font-family="Helvetica,sans-Serif" font-size="11.00" fill="#000000">unknown[0]</text>
<polygon fill="none" stroke="#000000" points="10,-103.2 10,-125.2 174,-125.2 174,-103.2 10,-103.2"/>
<text text-anchor="start" x="30" y="-110.3" font-family="Helvetica,sans-Serif" font-size="11.00" fill="#000000">covariate_id</text>
<polygon fill="none" stroke="#000000" points="174,-103.2 174,-125.2 236,-125.2 236,-103.2 174,-103.2"/>
<text text-anchor="start" x="176.878" y="-110.9" font-family="Helvetica,sans-Serif" font-size="11.00" fill="#000000">unknown[0]</text>
<polygon fill="none" stroke="#000000" points="10,-81.2 10,-103.2 174,-103.2 174,-81.2 10,-81.2"/>
<text text-anchor="start" x="30" y="-88.3" font-family="Helvetica,sans-Serif" font-size="11.00" fill="#000000">covariate_name</text>
<polygon fill="none" stroke="#000000" points="174,-81.2 174,-103.2 236,-103.2 236,-81.2 174,-81.2"/>
<text text-anchor="start" x="176.878" y="-88.9" font-family="Helvetica,sans-Serif" font-size="11.00" fill="#000000">unknown[0]</text>
<polygon fill="none" stroke="#000000" points="10,-59.2 10,-81.2 174,-81.2 174,-59.2 10,-59.2"/>
<text text-anchor="start" x="30" y="-66.3" font-family="Helvetica,sans-Serif" font-size="11.00" fill="#000000">database_id</text>
<polygon fill="none" stroke="#000000" points="174,-59.2 174,-81.2 236,-81.2 236,-59.2 174,-59.2"/>
<text text-anchor="start" x="176.878" y="-66.9" font-family="Helvetica,sans-Serif" font-size="11.00" fill="#000000">unknown[0]</text>
<polygon fill="#ffffff" stroke="transparent" points="10,-40.2 10,-59.2 83,-59.2 83,-40.2 10,-40.2"/>
<polygon fill="none" stroke="#000000" points="10,-40.2 10,-59.2 83,-59.2 83,-40.2 10,-40.2"/>
<text text-anchor="start" x="13" y="-46.3" font-family="Helvetica,sans-Serif" font-size="11.00" fill="#000000">&lt; 0</text>
<polygon fill="#ffffff" stroke="transparent" points="83,-40.2 83,-59.2 174,-59.2 174,-40.2 83,-40.2"/>
<polygon fill="none" stroke="#000000" points="83,-40.2 83,-59.2 174,-59.2 174,-40.2 83,-40.2"/>
<text text-anchor="start" x="138.6105" y="-46.3" font-family="Helvetica,sans-Serif" font-size="11.00" fill="#000000">0 rows</text>
<polygon fill="#ffffff" stroke="transparent" points="174,-40.2 174,-59.2 236,-59.2 236,-40.2 174,-40.2"/>
<polygon fill="none" stroke="#000000" points="174,-40.2 174,-59.2 236,-59.2 236,-40.2 174,-40.2"/>
<text text-anchor="start" x="217.4053" y="-46.3" font-family="Helvetica,sans-Serif" font-size="11.00" fill="#000000">0 &gt;</text>
<polygon fill="none" stroke="#000000" stroke-width="2" points="9,-39.2 9,-193.2 237,-193.2 237,-39.2 9,-39.2"/>
</a>
</g>
</g>
</g>
</svg>
