<?xml version="1.0" encoding="UTF-8" standalone="no"?>
<!DOCTYPE svg PUBLIC "-//W3C//DTD SVG 1.1//EN"
 "http://www.w3.org/Graphics/SVG/1.1/DTD/svg11.dtd">
<!-- Generated by graphviz version 2.40.1 (20161225.0304)
 -->
<!-- Title: oneDegreeRelationshipsDiagram Pages: 1 -->
<svg width="294pt" height="470pt"
 viewBox="0.00 0.00 294.00 470.20" xmlns="http://www.w3.org/2000/svg" xmlns:xlink="http://www.w3.org/1999/xlink">
<g id="graph0" class="graph" transform="scale(1 1) rotate(0) translate(4 466.2)">
<title>oneDegreeRelationshipsDiagram</title>
<polygon fill="#ffffff" stroke="transparent" points="-4,4 -4,-466.2 290,-466.2 290,4 -4,4"/>
<text text-anchor="middle" x="72.4936" y="-7.3" font-family="Helvetica,sans-Serif" font-size="11.00" fill="#000000">Generated by SchemaSpy</text>
<!-- cm_covariate_balance -->
<g id="node1" class="node">
<title>cm_covariate_balance</title>
<g id="a_node1"><a xlink:href="../../tables/cm_covariate_balance.html" xlink:title="cm_covariate_balance" target="_top">
<polygon fill="#ffffff" stroke="transparent" points="8,-38.2 8,-458.2 278,-458.2 278,-38.2 8,-38.2"/>
<polygon fill="#f5f5f5" stroke="transparent" points="10,-433.2 10,-456.2 276,-456.2 276,-433.2 10,-433.2"/>
<polygon fill="none" stroke="#000000" points="10,-433.2 10,-456.2 276,-456.2 276,-433.2 10,-433.2"/>
<text text-anchor="start" x="15" y="-441.8" font-family="Helvetica,sans-Serif" font-weight="bold" font-size="11.00" fill="#000000">cm_covariate_balance</text>
<text text-anchor="start" x="241.0437" y="-441.3" font-family="Helvetica,sans-Serif" font-size="11.00" fill="#000000">[table]</text>
<polygon fill="none" stroke="#000000" points="10,-411.2 10,-433.2 214,-433.2 214,-411.2 10,-411.2"/>
<text text-anchor="start" x="30" y="-418.3" font-family="Helvetica,sans-Serif" font-size="11.00" fill="#000000">analysis_id</text>
<polygon fill="none" stroke="#000000" points="214,-411.2 214,-433.2 276,-433.2 276,-411.2 214,-411.2"/>
<text text-anchor="start" x="216.878" y="-418.9" font-family="Helvetica,sans-Serif" font-size="11.00" fill="#000000">unknown[0]</text>
<polygon fill="none" stroke="#000000" points="10,-389.2 10,-411.2 214,-411.2 214,-389.2 10,-389.2"/>
<text text-anchor="start" x="30" y="-396.3" font-family="Helvetica,sans-Serif" font-size="11.00" fill="#000000">comparator_id</text>
<polygon fill="none" stroke="#000000" points="214,-389.2 214,-411.2 276,-411.2 276,-389.2 214,-389.2"/>
<text text-anchor="start" x="216.878" y="-396.9" font-family="Helvetica,sans-Serif" font-size="11.00" fill="#000000">unknown[0]</text>
<polygon fill="none" stroke="#000000" points="10,-367.2 10,-389.2 214,-389.2 214,-367.2 10,-367.2"/>
<text text-anchor="start" x="30" y="-374.3" font-family="Helvetica,sans-Serif" font-size="11.00" fill="#000000">comparator_mean_after</text>
<polygon fill="none" stroke="#000000" points="214,-367.2 214,-389.2 276,-389.2 276,-367.2 214,-367.2"/>
<text text-anchor="start" x="216.878" y="-374.9" font-family="Helvetica,sans-Serif" font-size="11.00" fill="#000000">unknown[0]</text>
<polygon fill="none" stroke="#000000" points="10,-345.2 10,-367.2 214,-367.2 214,-345.2 10,-345.2"/>
<text text-anchor="start" x="30" y="-352.3" font-family="Helvetica,sans-Serif" font-size="11.00" fill="#000000">comparator_mean_before</text>
<polygon fill="none" stroke="#000000" points="214,-345.2 214,-367.2 276,-367.2 276,-345.2 214,-345.2"/>
<text text-anchor="start" x="216.878" y="-352.9" font-family="Helvetica,sans-Serif" font-size="11.00" fill="#000000">unknown[0]</text>
<polygon fill="none" stroke="#000000" points="10,-323.2 10,-345.2 214,-345.2 214,-323.2 10,-323.2"/>
<text text-anchor="start" x="30" y="-330.3" font-family="Helvetica,sans-Serif" font-size="11.00" fill="#000000">comparator_std_diff</text>
<polygon fill="none" stroke="#000000" points="214,-323.2 214,-345.2 276,-345.2 276,-323.2 214,-323.2"/>
<text text-anchor="start" x="216.878" y="-330.9" font-family="Helvetica,sans-Serif" font-size="11.00" fill="#000000">unknown[0]</text>
<polygon fill="none" stroke="#000000" points="10,-301.2 10,-323.2 214,-323.2 214,-301.2 10,-301.2"/>
<text text-anchor="start" x="30" y="-308.3" font-family="Helvetica,sans-Serif" font-size="11.00" fill="#000000">covariate_id</text>
<polygon fill="none" stroke="#000000" points="214,-301.2 214,-323.2 276,-323.2 276,-301.2 214,-301.2"/>
<text text-anchor="start" x="216.878" y="-308.9" font-family="Helvetica,sans-Serif" font-size="11.00" fill="#000000">unknown[0]</text>
<polygon fill="none" stroke="#000000" points="10,-279.2 10,-301.2 214,-301.2 214,-279.2 10,-279.2"/>
<text text-anchor="start" x="30" y="-286.3" font-family="Helvetica,sans-Serif" font-size="11.00" fill="#000000">database_id</text>
<polygon fill="none" stroke="#000000" points="214,-279.2 214,-301.2 276,-301.2 276,-279.2 214,-279.2"/>
<text text-anchor="start" x="216.878" y="-286.9" font-family="Helvetica,sans-Serif" font-size="11.00" fill="#000000">unknown[0]</text>
<polygon fill="none" stroke="#000000" points="10,-257.2 10,-279.2 214,-279.2 214,-257.2 10,-257.2"/>
<text text-anchor="start" x="30" y="-264.3" font-family="Helvetica,sans-Serif" font-size="11.00" fill="#000000">mean_after</text>
<polygon fill="none" stroke="#000000" points="214,-257.2 214,-279.2 276,-279.2 276,-257.2 214,-257.2"/>
<text text-anchor="start" x="216.878" y="-264.9" font-family="Helvetica,sans-Serif" font-size="11.00" fill="#000000">unknown[0]</text>
<polygon fill="none" stroke="#000000" points="10,-235.2 10,-257.2 214,-257.2 214,-235.2 10,-235.2"/>
<text text-anchor="start" x="30" y="-242.3" font-family="Helvetica,sans-Serif" font-size="11.00" fill="#000000">mean_before</text>
<polygon fill="none" stroke="#000000" points="214,-235.2 214,-257.2 276,-257.2 276,-235.2 214,-235.2"/>
<text text-anchor="start" x="216.878" y="-242.9" font-family="Helvetica,sans-Serif" font-size="11.00" fill="#000000">unknown[0]</text>
<polygon fill="none" stroke="#000000" points="10,-213.2 10,-235.2 214,-235.2 214,-213.2 10,-213.2"/>
<text text-anchor="start" x="30" y="-220.3" font-family="Helvetica,sans-Serif" font-size="11.00" fill="#000000">outcome_id</text>
<polygon fill="none" stroke="#000000" points="214,-213.2 214,-235.2 276,-235.2 276,-213.2 214,-213.2"/>
<text text-anchor="start" x="216.878" y="-220.9" font-family="Helvetica,sans-Serif" font-size="11.00" fill="#000000">unknown[0]</text>
<polygon fill="none" stroke="#000000" points="10,-191.2 10,-213.2 214,-213.2 214,-191.2 10,-191.2"/>
<text text-anchor="start" x="30" y="-198.3" font-family="Helvetica,sans-Serif" font-size="11.00" fill="#000000">std_diff_after</text>
<polygon fill="none" stroke="#000000" points="214,-191.2 214,-213.2 276,-213.2 276,-191.2 214,-191.2"/>
<text text-anchor="start" x="216.878" y="-198.9" font-family="Helvetica,sans-Serif" font-size="11.00" fill="#000000">unknown[0]</text>
<polygon fill="none" stroke="#000000" points="10,-169.2 10,-191.2 214,-191.2 214,-169.2 10,-169.2"/>
<text text-anchor="start" x="30" y="-176.3" font-family="Helvetica,sans-Serif" font-size="11.00" fill="#000000">std_diff_before</text>
<polygon fill="none" stroke="#000000" points="214,-169.2 214,-191.2 276,-191.2 276,-169.2 214,-169.2"/>
<text text-anchor="start" x="216.878" y="-176.9" font-family="Helvetica,sans-Serif" font-size="11.00" fill="#000000">unknown[0]</text>
<polygon fill="none" stroke="#000000" points="10,-147.2 10,-169.2 214,-169.2 214,-147.2 10,-147.2"/>
<text text-anchor="start" x="30" y="-154.3" font-family="Helvetica,sans-Serif" font-size="11.00" fill="#000000">target_comparator_std_diff</text>
<polygon fill="none" stroke="#000000" points="214,-147.2 214,-169.2 276,-169.2 276,-147.2 214,-147.2"/>
<text text-anchor="start" x="216.878" y="-154.9" font-family="Helvetica,sans-Serif" font-size="11.00" fill="#000000">unknown[0]</text>
<polygon fill="none" stroke="#000000" points="10,-125.2 10,-147.2 214,-147.2 214,-125.2 10,-125.2"/>
<text text-anchor="start" x="30" y="-132.3" font-family="Helvetica,sans-Serif" font-size="11.00" fill="#000000">target_id</text>
<polygon fill="none" stroke="#000000" points="214,-125.2 214,-147.2 276,-147.2 276,-125.2 214,-125.2"/>
<text text-anchor="start" x="216.878" y="-132.9" font-family="Helvetica,sans-Serif" font-size="11.00" fill="#000000">unknown[0]</text>
<polygon fill="none" stroke="#000000" points="10,-103.2 10,-125.2 214,-125.2 214,-103.2 10,-103.2"/>
<text text-anchor="start" x="30" y="-110.3" font-family="Helvetica,sans-Serif" font-size="11.00" fill="#000000">target_mean_after</text>
<polygon fill="none" stroke="#000000" points="214,-103.2 214,-125.2 276,-125.2 276,-103.2 214,-103.2"/>
<text text-anchor="start" x="216.878" y="-110.9" font-family="Helvetica,sans-Serif" font-size="11.00" fill="#000000">unknown[0]</text>
<polygon fill="none" stroke="#000000" points="10,-81.2 10,-103.2 214,-103.2 214,-81.2 10,-81.2"/>
<text text-anchor="start" x="30" y="-88.3" font-family="Helvetica,sans-Serif" font-size="11.00" fill="#000000">target_mean_before</text>
<polygon fill="none" stroke="#000000" points="214,-81.2 214,-103.2 276,-103.2 276,-81.2 214,-81.2"/>
<text text-anchor="start" x="216.878" y="-88.9" font-family="Helvetica,sans-Serif" font-size="11.00" fill="#000000">unknown[0]</text>
<polygon fill="none" stroke="#000000" points="10,-59.2 10,-81.2 214,-81.2 214,-59.2 10,-59.2"/>
<text text-anchor="start" x="30" y="-66.3" font-family="Helvetica,sans-Serif" font-size="11.00" fill="#000000">target_std_diff</text>
<polygon fill="none" stroke="#000000" points="214,-59.2 214,-81.2 276,-81.2 276,-59.2 214,-59.2"/>
<text text-anchor="start" x="216.878" y="-66.9" font-family="Helvetica,sans-Serif" font-size="11.00" fill="#000000">unknown[0]</text>
<polygon fill="#ffffff" stroke="transparent" points="10,-40.2 10,-59.2 103,-59.2 103,-40.2 10,-40.2"/>
<polygon fill="none" stroke="#000000" points="10,-40.2 10,-59.2 103,-59.2 103,-40.2 10,-40.2"/>
<text text-anchor="start" x="13" y="-46.3" font-family="Helvetica,sans-Serif" font-size="11.00" fill="#000000">&lt; 0</text>
<polygon fill="#ffffff" stroke="transparent" points="103,-40.2 103,-59.2 214,-59.2 214,-40.2 103,-40.2"/>
<polygon fill="none" stroke="#000000" points="103,-40.2 103,-59.2 214,-59.2 214,-40.2 103,-40.2"/>
<text text-anchor="start" x="178.6105" y="-46.3" font-family="Helvetica,sans-Serif" font-size="11.00" fill="#000000">0 rows</text>
<polygon fill="#ffffff" stroke="transparent" points="214,-40.2 214,-59.2 276,-59.2 276,-40.2 214,-40.2"/>
<polygon fill="none" stroke="#000000" points="214,-40.2 214,-59.2 276,-59.2 276,-40.2 214,-40.2"/>
<text text-anchor="start" x="257.4053" y="-46.3" font-family="Helvetica,sans-Serif" font-size="11.00" fill="#000000">0 &gt;</text>
<polygon fill="none" stroke="#000000" stroke-width="2" points="9,-39.2 9,-457.2 277,-457.2 277,-39.2 9,-39.2"/>
</a>
</g>
</g>
</g>
</svg>
