<?xml version="1.0" encoding="UTF-8" standalone="no"?>
<!DOCTYPE svg PUBLIC "-//W3C//DTD SVG 1.1//EN"
 "http://www.w3.org/Graphics/SVG/1.1/DTD/svg11.dtd">
<!-- Generated by graphviz version 2.40.1 (20161225.0304)
 -->
<!-- Title: oneDegreeRelationshipsDiagram Pages: 1 -->
<svg width="790pt" height="580pt"
 viewBox="0.00 0.00 789.75 579.78" xmlns="http://www.w3.org/2000/svg" xmlns:xlink="http://www.w3.org/1999/xlink">
<g id="graph0" class="graph" transform="scale(1 1) rotate(0) translate(4 575.7778)">
<title>oneDegreeRelationshipsDiagram</title>
<polygon fill="#ffffff" stroke="transparent" points="-4,4 -4,-575.7778 785.7495,-575.7778 785.7495,4 -4,4"/>
<text text-anchor="middle" x="72.4936" y="-7.3" font-family="Helvetica,sans-Serif" font-size="11.00" fill="#000000">Generated by SchemaSpy</text>
<!-- cm_analysis -->
<g id="node1" class="node">
<title>cm_analysis</title>
<g id="a_node1"><a xlink:href="../../tables/cm_analysis.html" xlink:title="cm_analysis" target="_top">
<polygon fill="#ffffff" stroke="transparent" points="651,-461.7 651,-544.7 770,-544.7 770,-461.7 651,-461.7"/>
<polygon fill="#f5f5f5" stroke="transparent" points="651.5,-521.2 651.5,-544.2 770.5,-544.2 770.5,-521.2 651.5,-521.2"/>
<polygon fill="none" stroke="#000000" points="651.5,-521.2 651.5,-544.2 770.5,-544.2 770.5,-521.2 651.5,-521.2"/>
<text text-anchor="start" x="656.5" y="-529.8" font-family="Helvetica,sans-Serif" font-weight="bold" font-size="11.00" fill="#000000">cm_analysis</text>
<text text-anchor="start" x="736.0219" y="-529.3" font-family="Helvetica,sans-Serif" font-size="11.00" fill="#000000">[table]</text>
<polygon fill="none" stroke="#000000" points="651.5,-499.2 651.5,-521.2 770.5,-521.2 770.5,-499.2 651.5,-499.2"/>
<image xlink:href="../../images/primaryKeys.png" width="11px" height="12px" preserveAspectRatio="xMinYMin meet" x="656.5" y="-516.2"/>
<text text-anchor="start" x="680.5" y="-506.3" font-family="Helvetica,sans-Serif" font-size="11.00" fill="#000000">analysis_id</text>
<polygon fill="none" stroke="#000000" points="651.5,-480.2 651.5,-499.2 770.5,-499.2 770.5,-480.2 651.5,-480.2"/>
<text text-anchor="start" x="654.5" y="-486.3" font-family="Helvetica,sans-Serif" font-size="11.00" fill="#000000">...</text>
<polygon fill="#ffffff" stroke="transparent" points="651.5,-461.2 651.5,-480.2 691.5,-480.2 691.5,-461.2 651.5,-461.2"/>
<polygon fill="none" stroke="#000000" points="651.5,-461.2 651.5,-480.2 691.5,-480.2 691.5,-461.2 651.5,-461.2"/>
<text text-anchor="start" x="654.5" y="-467.3" font-family="Helvetica,sans-Serif" font-size="11.00" fill="#000000">&lt; 2</text>
<polygon fill="#ffffff" stroke="transparent" points="691.5,-461.2 691.5,-480.2 739.5,-480.2 739.5,-461.2 691.5,-461.2"/>
<polygon fill="none" stroke="#000000" points="691.5,-461.2 691.5,-480.2 739.5,-480.2 739.5,-461.2 691.5,-461.2"/>
<text text-anchor="start" x="704.1105" y="-467.3" font-family="Helvetica,sans-Serif" font-size="11.00" fill="#000000">0 rows</text>
<polygon fill="#ffffff" stroke="transparent" points="739.5,-461.2 739.5,-480.2 770.5,-480.2 770.5,-461.2 739.5,-461.2"/>
<polygon fill="none" stroke="#000000" points="739.5,-461.2 739.5,-480.2 770.5,-480.2 770.5,-461.2 739.5,-461.2"/>
<text text-anchor="start" x="751.9053" y="-467.3" font-family="Helvetica,sans-Serif" font-size="11.00" fill="#000000">1 &gt;</text>
</a>
</g>
</g>
<!-- cm_diagnostics_summary -->
<g id="node2" class="node">
<title>cm_diagnostics_summary</title>
<g id="a_node2"><a xlink:href="../../tables/cm_diagnostics_summary.html" xlink:title="cm_diagnostics_summary" target="_top">
<polygon fill="#ffffff" stroke="transparent" points="302,-38.2 302,-546.2 602,-546.2 602,-38.2 302,-38.2"/>
<polygon fill="#f5f5f5" stroke="transparent" points="304,-521.2 304,-544.2 600,-544.2 600,-521.2 304,-521.2"/>
<polygon fill="none" stroke="#000000" points="304,-521.2 304,-544.2 600,-544.2 600,-521.2 304,-521.2"/>
<text text-anchor="start" x="309" y="-529.8" font-family="Helvetica,sans-Serif" font-weight="bold" font-size="11.00" fill="#000000">cm_diagnostics_summary</text>
<text text-anchor="start" x="565.0437" y="-529.3" font-family="Helvetica,sans-Serif" font-size="11.00" fill="#000000">[table]</text>
<polygon fill="none" stroke="#000000" points="304,-499.2 304,-521.2 538,-521.2 538,-499.2 304,-499.2"/>
<image xlink:href="../../images/primaryKeys.png" width="11px" height="12px" preserveAspectRatio="xMinYMin meet" x="309" y="-516.2"/>
<text text-anchor="start" x="324" y="-506.3" font-family="Helvetica,sans-Serif" font-size="11.00" fill="#000000">analysis_id</text>
<polygon fill="none" stroke="#000000" points="538,-499.2 538,-521.2 600,-521.2 600,-499.2 538,-499.2"/>
<text text-anchor="start" x="540.878" y="-506.9" font-family="Helvetica,sans-Serif" font-size="11.00" fill="#000000">unknown[0]</text>
<polygon fill="none" stroke="#000000" points="304,-477.2 304,-499.2 538,-499.2 538,-477.2 304,-477.2"/>
<text text-anchor="start" x="324" y="-484.3" font-family="Helvetica,sans-Serif" font-size="11.00" fill="#000000">attrition_diagnostic</text>
<polygon fill="none" stroke="#000000" points="538,-477.2 538,-499.2 600,-499.2 600,-477.2 538,-477.2"/>
<text text-anchor="start" x="540.878" y="-484.9" font-family="Helvetica,sans-Serif" font-size="11.00" fill="#000000">unknown[0]</text>
<polygon fill="none" stroke="#000000" points="304,-455.2 304,-477.2 538,-477.2 538,-455.2 304,-455.2"/>
<text text-anchor="start" x="324" y="-462.3" font-family="Helvetica,sans-Serif" font-size="11.00" fill="#000000">attrition_fraction</text>
<polygon fill="none" stroke="#000000" points="538,-455.2 538,-477.2 600,-477.2 600,-455.2 538,-455.2"/>
<text text-anchor="start" x="540.878" y="-462.9" font-family="Helvetica,sans-Serif" font-size="11.00" fill="#000000">unknown[0]</text>
<polygon fill="none" stroke="#000000" points="304,-433.2 304,-455.2 538,-455.2 538,-433.2 304,-433.2"/>
<text text-anchor="start" x="324" y="-440.3" font-family="Helvetica,sans-Serif" font-size="11.00" fill="#000000">balance_diagnostic</text>
<polygon fill="none" stroke="#000000" points="538,-433.2 538,-455.2 600,-455.2 600,-433.2 538,-433.2"/>
<text text-anchor="start" x="540.878" y="-440.9" font-family="Helvetica,sans-Serif" font-size="11.00" fill="#000000">unknown[0]</text>
<polygon fill="none" stroke="#000000" points="304,-411.2 304,-433.2 538,-433.2 538,-411.2 304,-411.2"/>
<image xlink:href="../../images/foreignKeys.png" width="11px" height="12px" preserveAspectRatio="xMinYMin meet" x="309" y="-428.2"/>
<text text-anchor="start" x="324" y="-418.3" font-family="Helvetica,sans-Serif" font-size="11.00" fill="#000000">comparator_id</text>
<polygon fill="none" stroke="#000000" points="538,-411.2 538,-433.2 600,-433.2 600,-411.2 538,-411.2"/>
<text text-anchor="start" x="540.878" y="-418.9" font-family="Helvetica,sans-Serif" font-size="11.00" fill="#000000">unknown[0]</text>
<polygon fill="none" stroke="#000000" points="304,-389.2 304,-411.2 538,-411.2 538,-389.2 304,-389.2"/>
<image xlink:href="../../images/foreignKeys.png" width="11px" height="12px" preserveAspectRatio="xMinYMin meet" x="309" y="-406.2"/>
<text text-anchor="start" x="324" y="-396.3" font-family="Helvetica,sans-Serif" font-size="11.00" fill="#000000">database_id</text>
<polygon fill="none" stroke="#000000" points="538,-389.2 538,-411.2 600,-411.2 600,-389.2 538,-389.2"/>
<text text-anchor="start" x="540.878" y="-396.9" font-family="Helvetica,sans-Serif" font-size="11.00" fill="#000000">unknown[0]</text>
<polygon fill="none" stroke="#000000" points="304,-367.2 304,-389.2 538,-389.2 538,-367.2 304,-367.2"/>
<text text-anchor="start" x="324" y="-374.3" font-family="Helvetica,sans-Serif" font-size="11.00" fill="#000000">ease</text>
<polygon fill="none" stroke="#000000" points="538,-367.2 538,-389.2 600,-389.2 600,-367.2 538,-367.2"/>
<text text-anchor="start" x="540.878" y="-374.9" font-family="Helvetica,sans-Serif" font-size="11.00" fill="#000000">unknown[0]</text>
<polygon fill="none" stroke="#000000" points="304,-345.2 304,-367.2 538,-367.2 538,-345.2 304,-345.2"/>
<text text-anchor="start" x="324" y="-352.3" font-family="Helvetica,sans-Serif" font-size="11.00" fill="#000000">ease_diagnostic</text>
<polygon fill="none" stroke="#000000" points="538,-345.2 538,-367.2 600,-367.2 600,-345.2 538,-345.2"/>
<text text-anchor="start" x="540.878" y="-352.9" font-family="Helvetica,sans-Serif" font-size="11.00" fill="#000000">unknown[0]</text>
<polygon fill="none" stroke="#000000" points="304,-323.2 304,-345.2 538,-345.2 538,-323.2 304,-323.2"/>
<text text-anchor="start" x="324" y="-330.3" font-family="Helvetica,sans-Serif" font-size="11.00" fill="#000000">equipoise</text>
<polygon fill="none" stroke="#000000" points="538,-323.2 538,-345.2 600,-345.2 600,-323.2 538,-323.2"/>
<text text-anchor="start" x="540.878" y="-330.9" font-family="Helvetica,sans-Serif" font-size="11.00" fill="#000000">unknown[0]</text>
<polygon fill="none" stroke="#000000" points="304,-301.2 304,-323.2 538,-323.2 538,-301.2 304,-301.2"/>
<text text-anchor="start" x="324" y="-308.3" font-family="Helvetica,sans-Serif" font-size="11.00" fill="#000000">equipoise_diagnostic</text>
<polygon fill="none" stroke="#000000" points="538,-301.2 538,-323.2 600,-323.2 600,-301.2 538,-301.2"/>
<text text-anchor="start" x="540.878" y="-308.9" font-family="Helvetica,sans-Serif" font-size="11.00" fill="#000000">unknown[0]</text>
<polygon fill="none" stroke="#000000" points="304,-279.2 304,-301.2 538,-301.2 538,-279.2 304,-279.2"/>
<text text-anchor="start" x="324" y="-286.3" font-family="Helvetica,sans-Serif" font-size="11.00" fill="#000000">generalizability_diagnostic</text>
<polygon fill="none" stroke="#000000" points="538,-279.2 538,-301.2 600,-301.2 600,-279.2 538,-279.2"/>
<text text-anchor="start" x="540.878" y="-286.9" font-family="Helvetica,sans-Serif" font-size="11.00" fill="#000000">unknown[0]</text>
<polygon fill="none" stroke="#000000" points="304,-257.2 304,-279.2 538,-279.2 538,-257.2 304,-257.2"/>
<text text-anchor="start" x="324" y="-264.3" font-family="Helvetica,sans-Serif" font-size="11.00" fill="#000000">generalizability_max_sdm</text>
<polygon fill="none" stroke="#000000" points="538,-257.2 538,-279.2 600,-279.2 600,-257.2 538,-257.2"/>
<text text-anchor="start" x="540.878" y="-264.9" font-family="Helvetica,sans-Serif" font-size="11.00" fill="#000000">unknown[0]</text>
<polygon fill="none" stroke="#000000" points="304,-235.2 304,-257.2 538,-257.2 538,-235.2 304,-235.2"/>
<text text-anchor="start" x="324" y="-242.3" font-family="Helvetica,sans-Serif" font-size="11.00" fill="#000000">max_sdm</text>
<polygon fill="none" stroke="#000000" points="538,-235.2 538,-257.2 600,-257.2 600,-235.2 538,-235.2"/>
<text text-anchor="start" x="540.878" y="-242.9" font-family="Helvetica,sans-Serif" font-size="11.00" fill="#000000">unknown[0]</text>
<polygon fill="none" stroke="#000000" points="304,-213.2 304,-235.2 538,-235.2 538,-213.2 304,-213.2"/>
<text text-anchor="start" x="324" y="-220.3" font-family="Helvetica,sans-Serif" font-size="11.00" fill="#000000">mdrr</text>
<polygon fill="none" stroke="#000000" points="538,-213.2 538,-235.2 600,-235.2 600,-213.2 538,-213.2"/>
<text text-anchor="start" x="540.878" y="-220.9" font-family="Helvetica,sans-Serif" font-size="11.00" fill="#000000">unknown[0]</text>
<polygon fill="none" stroke="#000000" points="304,-191.2 304,-213.2 538,-213.2 538,-191.2 304,-191.2"/>
<text text-anchor="start" x="324" y="-198.3" font-family="Helvetica,sans-Serif" font-size="11.00" fill="#000000">mdrr_diagnostic</text>
<polygon fill="none" stroke="#000000" points="538,-191.2 538,-213.2 600,-213.2 600,-191.2 538,-191.2"/>
<text text-anchor="start" x="540.878" y="-198.9" font-family="Helvetica,sans-Serif" font-size="11.00" fill="#000000">unknown[0]</text>
<polygon fill="none" stroke="#000000" points="304,-169.2 304,-191.2 538,-191.2 538,-169.2 304,-169.2"/>
<image xlink:href="../../images/foreignKeys.png" width="11px" height="12px" preserveAspectRatio="xMinYMin meet" x="309" y="-186.2"/>
<text text-anchor="start" x="324" y="-176.3" font-family="Helvetica,sans-Serif" font-size="11.00" fill="#000000">outcome_id</text>
<polygon fill="none" stroke="#000000" points="538,-169.2 538,-191.2 600,-191.2 600,-169.2 538,-169.2"/>
<text text-anchor="start" x="540.878" y="-176.9" font-family="Helvetica,sans-Serif" font-size="11.00" fill="#000000">unknown[0]</text>
<polygon fill="none" stroke="#000000" points="304,-147.2 304,-169.2 538,-169.2 538,-147.2 304,-147.2"/>
<text text-anchor="start" x="324" y="-154.3" font-family="Helvetica,sans-Serif" font-size="11.00" fill="#000000">shared_balance_diagnostic</text>
<polygon fill="none" stroke="#000000" points="538,-147.2 538,-169.2 600,-169.2 600,-147.2 538,-147.2"/>
<text text-anchor="start" x="540.878" y="-154.9" font-family="Helvetica,sans-Serif" font-size="11.00" fill="#000000">unknown[0]</text>
<polygon fill="none" stroke="#000000" points="304,-125.2 304,-147.2 538,-147.2 538,-125.2 304,-125.2"/>
<text text-anchor="start" x="324" y="-132.3" font-family="Helvetica,sans-Serif" font-size="11.00" fill="#000000">shared_max_sdm</text>
<polygon fill="none" stroke="#000000" points="538,-125.2 538,-147.2 600,-147.2 600,-125.2 538,-125.2"/>
<text text-anchor="start" x="540.878" y="-132.9" font-family="Helvetica,sans-Serif" font-size="11.00" fill="#000000">unknown[0]</text>
<polygon fill="none" stroke="#000000" points="304,-103.2 304,-125.2 538,-125.2 538,-103.2 304,-103.2"/>
<image xlink:href="../../images/foreignKeys.png" width="11px" height="12px" preserveAspectRatio="xMinYMin meet" x="309" y="-120.2"/>
<text text-anchor="start" x="324" y="-110.3" font-family="Helvetica,sans-Serif" font-size="11.00" fill="#000000">target_id</text>
<polygon fill="none" stroke="#000000" points="538,-103.2 538,-125.2 600,-125.2 600,-103.2 538,-103.2"/>
<text text-anchor="start" x="540.878" y="-110.9" font-family="Helvetica,sans-Serif" font-size="11.00" fill="#000000">unknown[0]</text>
<polygon fill="none" stroke="#000000" points="304,-81.2 304,-103.2 538,-103.2 538,-81.2 304,-81.2"/>
<text text-anchor="start" x="324" y="-88.3" font-family="Helvetica,sans-Serif" font-size="11.00" fill="#000000">unblind</text>
<polygon fill="none" stroke="#000000" points="538,-81.2 538,-103.2 600,-103.2 600,-81.2 538,-81.2"/>
<text text-anchor="start" x="540.878" y="-88.9" font-family="Helvetica,sans-Serif" font-size="11.00" fill="#000000">unknown[0]</text>
<polygon fill="none" stroke="#000000" points="304,-59.2 304,-81.2 538,-81.2 538,-59.2 304,-59.2"/>
<text text-anchor="start" x="324" y="-66.3" font-family="Helvetica,sans-Serif" font-size="11.00" fill="#000000">unblind_for_evidence_synthesis</text>
<polygon fill="none" stroke="#000000" points="538,-59.2 538,-81.2 600,-81.2 600,-59.2 538,-59.2"/>
<text text-anchor="start" x="540.878" y="-66.9" font-family="Helvetica,sans-Serif" font-size="11.00" fill="#000000">unknown[0]</text>
<polygon fill="#ffffff" stroke="transparent" points="304,-40.2 304,-59.2 412,-59.2 412,-40.2 304,-40.2"/>
<polygon fill="none" stroke="#000000" points="304,-40.2 304,-59.2 412,-59.2 412,-40.2 304,-40.2"/>
<text text-anchor="start" x="307" y="-46.3" font-family="Helvetica,sans-Serif" font-size="11.00" fill="#000000">&lt; 5</text>
<polygon fill="#ffffff" stroke="transparent" points="412,-40.2 412,-59.2 538,-59.2 538,-40.2 412,-40.2"/>
<polygon fill="none" stroke="#000000" points="412,-40.2 412,-59.2 538,-59.2 538,-40.2 412,-40.2"/>
<text text-anchor="start" x="502.6105" y="-46.3" font-family="Helvetica,sans-Serif" font-size="11.00" fill="#000000">0 rows</text>
<polygon fill="#ffffff" stroke="transparent" points="538,-40.2 538,-59.2 600,-59.2 600,-40.2 538,-40.2"/>
<polygon fill="none" stroke="#000000" points="538,-40.2 538,-59.2 600,-59.2 600,-40.2 538,-40.2"/>
<text text-anchor="start" x="581.4053" y="-46.3" font-family="Helvetica,sans-Serif" font-size="11.00" fill="#000000">1 &gt;</text>
<polygon fill="none" stroke="#000000" stroke-width="2" points="303,-39.2 303,-545.2 601,-545.2 601,-39.2 303,-39.2"/>
</a>
</g>
</g>
<!-- cm_analysis&#45;&gt;cm_diagnostics_summary -->
<g id="edge1" class="edge">
<title>cm_analysis:w&#45;&gt;cm_diagnostics_summary:e</title>
<path fill="none" stroke="#000000" d="M641.045,-510.2C626.137,-510.2 618.9549,-510.2 600,-510.2"/>
<polygon fill="#000000" stroke="#000000" points="650.7,-506.2 650.7,-514.2 649.1,-514.2 649.1,-506.2 650.7,-506.2"/>
<polyline fill="none" stroke="#000000" points="651.5,-510.2 647.5,-510.2 "/>
<ellipse fill="none" stroke="#000000" cx="644.3" cy="-510.2001" rx="3.2" ry="3.2"/>
</g>
<!-- cm_diagnostics_summary&#45;&gt;cm_analysis -->
<g id="edge2" class="edge">
<title>cm_diagnostics_summary:w&#45;&gt;cm_analysis:e</title>
<path fill="none" stroke="#000000" d="M314.5332,-511.5769C368.3403,-518.6105 610,-550.2 610,-550.2 681.3357,-549.8667 720.2938,-599.3776 770.5,-548.7 782.5427,-536.5442 787.6111,-510.2 770.5,-510.2"/>
<polygon fill="#000000" stroke="#000000" points="304.2748,-514.27 305.3117,-506.3374 306.8983,-506.5448 305.8613,-514.4774 304.2748,-514.27"/>
<polyline fill="none" stroke="#000000" points="304,-510.2 307.9663,-510.7185 "/>
<ellipse fill="none" stroke="#000000" cx="311.1393" cy="-511.1333" rx="3.2" ry="3.2"/>
</g>
<!-- cg_cohort_definition -->
<g id="node3" class="node">
<title>cg_cohort_definition</title>
<g id="a_node3"><a xlink:href="../../tables/cg_cohort_definition.html" xlink:title="cg_cohort_definition" target="_top">
<polygon fill="#ffffff" stroke="transparent" points="43,-131.7 43,-214.7 218,-214.7 218,-131.7 43,-131.7"/>
<polygon fill="#f5f5f5" stroke="transparent" points="43.5,-191.2 43.5,-214.2 218.5,-214.2 218.5,-191.2 43.5,-191.2"/>
<polygon fill="none" stroke="#000000" points="43.5,-191.2 43.5,-214.2 218.5,-214.2 218.5,-191.2 43.5,-191.2"/>
<text text-anchor="start" x="48.5" y="-199.8" font-family="Helvetica,sans-Serif" font-weight="bold" font-size="11.00" fill="#000000">cg_cohort_definition</text>
<text text-anchor="start" x="184.0219" y="-199.3" font-family="Helvetica,sans-Serif" font-size="11.00" fill="#000000">[table]</text>
<polygon fill="none" stroke="#000000" points="43.5,-169.2 43.5,-191.2 218.5,-191.2 218.5,-169.2 43.5,-169.2"/>
<image xlink:href="../../images/primaryKeys.png" width="11px" height="12px" preserveAspectRatio="xMinYMin meet" x="48.5" y="-186.2"/>
<text text-anchor="start" x="72.5" y="-176.3" font-family="Helvetica,sans-Serif" font-size="11.00" fill="#000000">cohort_definition_id</text>
<polygon fill="none" stroke="#000000" points="43.5,-150.2 43.5,-169.2 218.5,-169.2 218.5,-150.2 43.5,-150.2"/>
<text text-anchor="start" x="46.5" y="-156.3" font-family="Helvetica,sans-Serif" font-size="11.00" fill="#000000">...</text>
<polygon fill="#ffffff" stroke="transparent" points="43.5,-131.2 43.5,-150.2 104.5,-150.2 104.5,-131.2 43.5,-131.2"/>
<polygon fill="none" stroke="#000000" points="43.5,-131.2 43.5,-150.2 104.5,-150.2 104.5,-131.2 43.5,-131.2"/>
<text text-anchor="start" x="46.5" y="-137.3" font-family="Helvetica,sans-Serif" font-size="11.00" fill="#000000"> &#160;</text>
<polygon fill="#ffffff" stroke="transparent" points="104.5,-131.2 104.5,-150.2 166.5,-150.2 166.5,-131.2 104.5,-131.2"/>
<polygon fill="none" stroke="#000000" points="104.5,-131.2 104.5,-150.2 166.5,-150.2 166.5,-131.2 104.5,-131.2"/>
<text text-anchor="start" x="131.1105" y="-137.3" font-family="Helvetica,sans-Serif" font-size="11.00" fill="#000000">0 rows</text>
<polygon fill="#ffffff" stroke="transparent" points="166.5,-131.2 166.5,-150.2 218.5,-150.2 218.5,-131.2 166.5,-131.2"/>
<polygon fill="none" stroke="#000000" points="166.5,-131.2 166.5,-150.2 218.5,-150.2 218.5,-131.2 166.5,-131.2"/>
<text text-anchor="start" x="193.7904" y="-137.3" font-family="Helvetica,sans-Serif" font-size="11.00" fill="#000000">17 &gt;</text>
</a>
</g>
</g>
<!-- cm_diagnostics_summary&#45;&gt;cg_cohort_definition -->
<g id="edge3" class="edge">
<title>cm_diagnostics_summary:w&#45;&gt;cg_cohort_definition:e</title>
<path fill="none" stroke="#000000" d="M290.576,-416.6908C251.4073,-380.669 270.4112,-180.2 218.5,-180.2"/>
<polygon fill="#000000" stroke="#000000" points="296.599,-419.1626 302.6332,-425.5304 300.2995,-420.6813 304,-422.2 304,-422.2 304,-422.2 300.2995,-420.6813 305.3668,-418.8696 296.599,-419.1626 296.599,-419.1626"/>
<ellipse fill="none" stroke="#000000" cx="293.6386" cy="-417.9477" rx="3.2" ry="3.2"/>
</g>
<!-- cm_diagnostics_summary&#45;&gt;cg_cohort_definition -->
<g id="edge5" class="edge">
<title>cm_diagnostics_summary:w&#45;&gt;cg_cohort_definition:e</title>
<path fill="none" stroke="#000000" d="M289.501,-180.2C262.7645,-180.2 251.1563,-180.2 218.5,-180.2"/>
<polygon fill="#000000" stroke="#000000" points="296,-180.2001 304,-183.8 300,-180.2 304,-180.2 304,-180.2 304,-180.2 300,-180.2 304,-176.6 296,-180.2001 296,-180.2001"/>
<ellipse fill="none" stroke="#000000" cx="292.8" cy="-180.2001" rx="3.2" ry="3.2"/>
</g>
<!-- cm_diagnostics_summary&#45;&gt;cg_cohort_definition -->
<g id="edge6" class="edge">
<title>cm_diagnostics_summary:w&#45;&gt;cg_cohort_definition:e</title>
<path fill="none" stroke="#000000" d="M289.7685,-116.549C257.6255,-128.3062 261.0666,-180.2 218.5,-180.2"/>
<polygon fill="#000000" stroke="#000000" points="296.1068,-115.5029 304.5863,-117.7519 300.0534,-114.8514 304,-114.2 304,-114.2 304,-114.2 300.0534,-114.8514 303.4137,-110.6481 296.1068,-115.5029 296.1068,-115.5029"/>
<ellipse fill="none" stroke="#000000" cx="292.9495" cy="-116.024" rx="3.2" ry="3.2"/>
</g>
<!-- database_meta_data -->
<g id="node4" class="node">
<title>database_meta_data</title>
<g id="a_node4"><a xlink:href="../../tables/database_meta_data.html" xlink:title="database_meta_data" target="_top">
<polygon fill="#ffffff" stroke="transparent" points="8,-351.7 8,-434.7 253,-434.7 253,-351.7 8,-351.7"/>
<polygon fill="#f5f5f5" stroke="transparent" points="8.5,-411.2 8.5,-434.2 253.5,-434.2 253.5,-411.2 8.5,-411.2"/>
<polygon fill="none" stroke="#000000" points="8.5,-411.2 8.5,-434.2 253.5,-434.2 253.5,-411.2 8.5,-411.2"/>
<text text-anchor="start" x="13.5" y="-419.8" font-family="Helvetica,sans-Serif" font-weight="bold" font-size="11.00" fill="#000000">database_meta_data</text>
<text text-anchor="start" x="218.5437" y="-419.3" font-family="Helvetica,sans-Serif" font-size="11.00" fill="#000000">[table]</text>
<polygon fill="none" stroke="#000000" points="8.5,-389.2 8.5,-411.2 253.5,-411.2 253.5,-389.2 8.5,-389.2"/>
<image xlink:href="../../images/primaryKeys.png" width="11px" height="12px" preserveAspectRatio="xMinYMin meet" x="13.5" y="-406.2"/>
<text text-anchor="start" x="28.5" y="-396.3" font-family="Helvetica,sans-Serif" font-size="11.00" fill="#000000">database_id</text>
<polygon fill="none" stroke="#000000" points="8.5,-370.2 8.5,-389.2 253.5,-389.2 253.5,-370.2 8.5,-370.2"/>
<text text-anchor="start" x="11.5" y="-376.3" font-family="Helvetica,sans-Serif" font-size="11.00" fill="#000000">...</text>
<polygon fill="#ffffff" stroke="transparent" points="8.5,-351.2 8.5,-370.2 108.5,-370.2 108.5,-351.2 8.5,-351.2"/>
<polygon fill="none" stroke="#000000" points="8.5,-351.2 8.5,-370.2 108.5,-370.2 108.5,-351.2 8.5,-351.2"/>
<text text-anchor="start" x="11.5" y="-357.3" font-family="Helvetica,sans-Serif" font-size="11.00" fill="#000000">&lt; 1</text>
<polygon fill="#ffffff" stroke="transparent" points="108.5,-351.2 108.5,-370.2 186.5,-370.2 186.5,-351.2 108.5,-351.2"/>
<polygon fill="none" stroke="#000000" points="108.5,-351.2 108.5,-370.2 186.5,-370.2 186.5,-351.2 108.5,-351.2"/>
<text text-anchor="start" x="151.1105" y="-357.3" font-family="Helvetica,sans-Serif" font-size="11.00" fill="#000000">0 rows</text>
<polygon fill="#ffffff" stroke="transparent" points="186.5,-351.2 186.5,-370.2 253.5,-370.2 253.5,-351.2 186.5,-351.2"/>
<polygon fill="none" stroke="#000000" points="186.5,-351.2 186.5,-370.2 253.5,-370.2 253.5,-351.2 186.5,-351.2"/>
<text text-anchor="start" x="228.7904" y="-357.3" font-family="Helvetica,sans-Serif" font-size="11.00" fill="#000000">17 &gt;</text>
</a>
</g>
</g>
<!-- cm_diagnostics_summary&#45;&gt;database_meta_data -->
<g id="edge4" class="edge">
<title>cm_diagnostics_summary:w&#45;&gt;database_meta_data:e</title>
<path fill="none" stroke="#000000" d="M289.4203,-400.2C277.5435,-400.2 270.158,-400.2 253.5,-400.2"/>
<polygon fill="#000000" stroke="#000000" points="296,-400.2001 304,-403.8 300,-400.2 304,-400.2 304,-400.2 304,-400.2 300,-400.2 304,-396.6 296,-400.2001 296,-400.2001"/>
<ellipse fill="none" stroke="#000000" cx="292.8" cy="-400.2001" rx="3.2" ry="3.2"/>
</g>
</g>
</svg>
