<?xml version="1.0" encoding="UTF-8" standalone="no"?>
<!DOCTYPE svg PUBLIC "-//W3C//DTD SVG 1.1//EN"
 "http://www.w3.org/Graphics/SVG/1.1/DTD/svg11.dtd">
<!-- Generated by graphviz version 2.40.1 (20161225.0304)
 -->
<!-- Title: oneDegreeRelationshipsDiagram Pages: 1 -->
<svg width="324pt" height="558pt"
 viewBox="0.00 0.00 324.00 558.20" xmlns="http://www.w3.org/2000/svg" xmlns:xlink="http://www.w3.org/1999/xlink">
<g id="graph0" class="graph" transform="scale(1 1) rotate(0) translate(4 554.2)">
<title>oneDegreeRelationshipsDiagram</title>
<polygon fill="#ffffff" stroke="transparent" points="-4,4 -4,-554.2 320,-554.2 320,4 -4,4"/>
<text text-anchor="middle" x="72.4936" y="-7.3" font-family="Helvetica,sans-Serif" font-size="11.00" fill="#000000">Generated by SchemaSpy</text>
<!-- cm_diagnostics_summary -->
<g id="node1" class="node">
<title>cm_diagnostics_summary</title>
<g id="a_node1"><a xlink:href="../../tables/cm_diagnostics_summary.html" xlink:title="cm_diagnostics_summary" target="_top">
<polygon fill="#ffffff" stroke="transparent" points="8,-38.2 8,-546.2 308,-546.2 308,-38.2 8,-38.2"/>
<polygon fill="#f5f5f5" stroke="transparent" points="10,-521.2 10,-544.2 306,-544.2 306,-521.2 10,-521.2"/>
<polygon fill="none" stroke="#000000" points="10,-521.2 10,-544.2 306,-544.2 306,-521.2 10,-521.2"/>
<text text-anchor="start" x="15" y="-529.8" font-family="Helvetica,sans-Serif" font-weight="bold" font-size="11.00" fill="#000000">cm_diagnostics_summary</text>
<text text-anchor="start" x="271.0437" y="-529.3" font-family="Helvetica,sans-Serif" font-size="11.00" fill="#000000">[table]</text>
<polygon fill="none" stroke="#000000" points="10,-499.2 10,-521.2 244,-521.2 244,-499.2 10,-499.2"/>
<text text-anchor="start" x="30" y="-506.3" font-family="Helvetica,sans-Serif" font-size="11.00" fill="#000000">analysis_id</text>
<polygon fill="none" stroke="#000000" points="244,-499.2 244,-521.2 306,-521.2 306,-499.2 244,-499.2"/>
<text text-anchor="start" x="246.878" y="-506.9" font-family="Helvetica,sans-Serif" font-size="11.00" fill="#000000">unknown[0]</text>
<polygon fill="none" stroke="#000000" points="10,-477.2 10,-499.2 244,-499.2 244,-477.2 10,-477.2"/>
<text text-anchor="start" x="30" y="-484.3" font-family="Helvetica,sans-Serif" font-size="11.00" fill="#000000">attrition_diagnostic</text>
<polygon fill="none" stroke="#000000" points="244,-477.2 244,-499.2 306,-499.2 306,-477.2 244,-477.2"/>
<text text-anchor="start" x="246.878" y="-484.9" font-family="Helvetica,sans-Serif" font-size="11.00" fill="#000000">unknown[0]</text>
<polygon fill="none" stroke="#000000" points="10,-455.2 10,-477.2 244,-477.2 244,-455.2 10,-455.2"/>
<text text-anchor="start" x="30" y="-462.3" font-family="Helvetica,sans-Serif" font-size="11.00" fill="#000000">attrition_fraction</text>
<polygon fill="none" stroke="#000000" points="244,-455.2 244,-477.2 306,-477.2 306,-455.2 244,-455.2"/>
<text text-anchor="start" x="246.878" y="-462.9" font-family="Helvetica,sans-Serif" font-size="11.00" fill="#000000">unknown[0]</text>
<polygon fill="none" stroke="#000000" points="10,-433.2 10,-455.2 244,-455.2 244,-433.2 10,-433.2"/>
<text text-anchor="start" x="30" y="-440.3" font-family="Helvetica,sans-Serif" font-size="11.00" fill="#000000">balance_diagnostic</text>
<polygon fill="none" stroke="#000000" points="244,-433.2 244,-455.2 306,-455.2 306,-433.2 244,-433.2"/>
<text text-anchor="start" x="246.878" y="-440.9" font-family="Helvetica,sans-Serif" font-size="11.00" fill="#000000">unknown[0]</text>
<polygon fill="none" stroke="#000000" points="10,-411.2 10,-433.2 244,-433.2 244,-411.2 10,-411.2"/>
<text text-anchor="start" x="30" y="-418.3" font-family="Helvetica,sans-Serif" font-size="11.00" fill="#000000">comparator_id</text>
<polygon fill="none" stroke="#000000" points="244,-411.2 244,-433.2 306,-433.2 306,-411.2 244,-411.2"/>
<text text-anchor="start" x="246.878" y="-418.9" font-family="Helvetica,sans-Serif" font-size="11.00" fill="#000000">unknown[0]</text>
<polygon fill="none" stroke="#000000" points="10,-389.2 10,-411.2 244,-411.2 244,-389.2 10,-389.2"/>
<text text-anchor="start" x="30" y="-396.3" font-family="Helvetica,sans-Serif" font-size="11.00" fill="#000000">database_id</text>
<polygon fill="none" stroke="#000000" points="244,-389.2 244,-411.2 306,-411.2 306,-389.2 244,-389.2"/>
<text text-anchor="start" x="246.878" y="-396.9" font-family="Helvetica,sans-Serif" font-size="11.00" fill="#000000">unknown[0]</text>
<polygon fill="none" stroke="#000000" points="10,-367.2 10,-389.2 244,-389.2 244,-367.2 10,-367.2"/>
<text text-anchor="start" x="30" y="-374.3" font-family="Helvetica,sans-Serif" font-size="11.00" fill="#000000">ease</text>
<polygon fill="none" stroke="#000000" points="244,-367.2 244,-389.2 306,-389.2 306,-367.2 244,-367.2"/>
<text text-anchor="start" x="246.878" y="-374.9" font-family="Helvetica,sans-Serif" font-size="11.00" fill="#000000">unknown[0]</text>
<polygon fill="none" stroke="#000000" points="10,-345.2 10,-367.2 244,-367.2 244,-345.2 10,-345.2"/>
<text text-anchor="start" x="30" y="-352.3" font-family="Helvetica,sans-Serif" font-size="11.00" fill="#000000">ease_diagnostic</text>
<polygon fill="none" stroke="#000000" points="244,-345.2 244,-367.2 306,-367.2 306,-345.2 244,-345.2"/>
<text text-anchor="start" x="246.878" y="-352.9" font-family="Helvetica,sans-Serif" font-size="11.00" fill="#000000">unknown[0]</text>
<polygon fill="none" stroke="#000000" points="10,-323.2 10,-345.2 244,-345.2 244,-323.2 10,-323.2"/>
<text text-anchor="start" x="30" y="-330.3" font-family="Helvetica,sans-Serif" font-size="11.00" fill="#000000">equipoise</text>
<polygon fill="none" stroke="#000000" points="244,-323.2 244,-345.2 306,-345.2 306,-323.2 244,-323.2"/>
<text text-anchor="start" x="246.878" y="-330.9" font-family="Helvetica,sans-Serif" font-size="11.00" fill="#000000">unknown[0]</text>
<polygon fill="none" stroke="#000000" points="10,-301.2 10,-323.2 244,-323.2 244,-301.2 10,-301.2"/>
<text text-anchor="start" x="30" y="-308.3" font-family="Helvetica,sans-Serif" font-size="11.00" fill="#000000">equipoise_diagnostic</text>
<polygon fill="none" stroke="#000000" points="244,-301.2 244,-323.2 306,-323.2 306,-301.2 244,-301.2"/>
<text text-anchor="start" x="246.878" y="-308.9" font-family="Helvetica,sans-Serif" font-size="11.00" fill="#000000">unknown[0]</text>
<polygon fill="none" stroke="#000000" points="10,-279.2 10,-301.2 244,-301.2 244,-279.2 10,-279.2"/>
<text text-anchor="start" x="30" y="-286.3" font-family="Helvetica,sans-Serif" font-size="11.00" fill="#000000">generalizability_diagnostic</text>
<polygon fill="none" stroke="#000000" points="244,-279.2 244,-301.2 306,-301.2 306,-279.2 244,-279.2"/>
<text text-anchor="start" x="246.878" y="-286.9" font-family="Helvetica,sans-Serif" font-size="11.00" fill="#000000">unknown[0]</text>
<polygon fill="none" stroke="#000000" points="10,-257.2 10,-279.2 244,-279.2 244,-257.2 10,-257.2"/>
<text text-anchor="start" x="30" y="-264.3" font-family="Helvetica,sans-Serif" font-size="11.00" fill="#000000">generalizability_max_sdm</text>
<polygon fill="none" stroke="#000000" points="244,-257.2 244,-279.2 306,-279.2 306,-257.2 244,-257.2"/>
<text text-anchor="start" x="246.878" y="-264.9" font-family="Helvetica,sans-Serif" font-size="11.00" fill="#000000">unknown[0]</text>
<polygon fill="none" stroke="#000000" points="10,-235.2 10,-257.2 244,-257.2 244,-235.2 10,-235.2"/>
<text text-anchor="start" x="30" y="-242.3" font-family="Helvetica,sans-Serif" font-size="11.00" fill="#000000">max_sdm</text>
<polygon fill="none" stroke="#000000" points="244,-235.2 244,-257.2 306,-257.2 306,-235.2 244,-235.2"/>
<text text-anchor="start" x="246.878" y="-242.9" font-family="Helvetica,sans-Serif" font-size="11.00" fill="#000000">unknown[0]</text>
<polygon fill="none" stroke="#000000" points="10,-213.2 10,-235.2 244,-235.2 244,-213.2 10,-213.2"/>
<text text-anchor="start" x="30" y="-220.3" font-family="Helvetica,sans-Serif" font-size="11.00" fill="#000000">mdrr</text>
<polygon fill="none" stroke="#000000" points="244,-213.2 244,-235.2 306,-235.2 306,-213.2 244,-213.2"/>
<text text-anchor="start" x="246.878" y="-220.9" font-family="Helvetica,sans-Serif" font-size="11.00" fill="#000000">unknown[0]</text>
<polygon fill="none" stroke="#000000" points="10,-191.2 10,-213.2 244,-213.2 244,-191.2 10,-191.2"/>
<text text-anchor="start" x="30" y="-198.3" font-family="Helvetica,sans-Serif" font-size="11.00" fill="#000000">mdrr_diagnostic</text>
<polygon fill="none" stroke="#000000" points="244,-191.2 244,-213.2 306,-213.2 306,-191.2 244,-191.2"/>
<text text-anchor="start" x="246.878" y="-198.9" font-family="Helvetica,sans-Serif" font-size="11.00" fill="#000000">unknown[0]</text>
<polygon fill="none" stroke="#000000" points="10,-169.2 10,-191.2 244,-191.2 244,-169.2 10,-169.2"/>
<text text-anchor="start" x="30" y="-176.3" font-family="Helvetica,sans-Serif" font-size="11.00" fill="#000000">outcome_id</text>
<polygon fill="none" stroke="#000000" points="244,-169.2 244,-191.2 306,-191.2 306,-169.2 244,-169.2"/>
<text text-anchor="start" x="246.878" y="-176.9" font-family="Helvetica,sans-Serif" font-size="11.00" fill="#000000">unknown[0]</text>
<polygon fill="none" stroke="#000000" points="10,-147.2 10,-169.2 244,-169.2 244,-147.2 10,-147.2"/>
<text text-anchor="start" x="30" y="-154.3" font-family="Helvetica,sans-Serif" font-size="11.00" fill="#000000">shared_balance_diagnostic</text>
<polygon fill="none" stroke="#000000" points="244,-147.2 244,-169.2 306,-169.2 306,-147.2 244,-147.2"/>
<text text-anchor="start" x="246.878" y="-154.9" font-family="Helvetica,sans-Serif" font-size="11.00" fill="#000000">unknown[0]</text>
<polygon fill="none" stroke="#000000" points="10,-125.2 10,-147.2 244,-147.2 244,-125.2 10,-125.2"/>
<text text-anchor="start" x="30" y="-132.3" font-family="Helvetica,sans-Serif" font-size="11.00" fill="#000000">shared_max_sdm</text>
<polygon fill="none" stroke="#000000" points="244,-125.2 244,-147.2 306,-147.2 306,-125.2 244,-125.2"/>
<text text-anchor="start" x="246.878" y="-132.9" font-family="Helvetica,sans-Serif" font-size="11.00" fill="#000000">unknown[0]</text>
<polygon fill="none" stroke="#000000" points="10,-103.2 10,-125.2 244,-125.2 244,-103.2 10,-103.2"/>
<text text-anchor="start" x="30" y="-110.3" font-family="Helvetica,sans-Serif" font-size="11.00" fill="#000000">target_id</text>
<polygon fill="none" stroke="#000000" points="244,-103.2 244,-125.2 306,-125.2 306,-103.2 244,-103.2"/>
<text text-anchor="start" x="246.878" y="-110.9" font-family="Helvetica,sans-Serif" font-size="11.00" fill="#000000">unknown[0]</text>
<polygon fill="none" stroke="#000000" points="10,-81.2 10,-103.2 244,-103.2 244,-81.2 10,-81.2"/>
<text text-anchor="start" x="30" y="-88.3" font-family="Helvetica,sans-Serif" font-size="11.00" fill="#000000">unblind</text>
<polygon fill="none" stroke="#000000" points="244,-81.2 244,-103.2 306,-103.2 306,-81.2 244,-81.2"/>
<text text-anchor="start" x="246.878" y="-88.9" font-family="Helvetica,sans-Serif" font-size="11.00" fill="#000000">unknown[0]</text>
<polygon fill="none" stroke="#000000" points="10,-59.2 10,-81.2 244,-81.2 244,-59.2 10,-59.2"/>
<text text-anchor="start" x="30" y="-66.3" font-family="Helvetica,sans-Serif" font-size="11.00" fill="#000000">unblind_for_evidence_synthesis</text>
<polygon fill="none" stroke="#000000" points="244,-59.2 244,-81.2 306,-81.2 306,-59.2 244,-59.2"/>
<text text-anchor="start" x="246.878" y="-66.9" font-family="Helvetica,sans-Serif" font-size="11.00" fill="#000000">unknown[0]</text>
<polygon fill="#ffffff" stroke="transparent" points="10,-40.2 10,-59.2 118,-59.2 118,-40.2 10,-40.2"/>
<polygon fill="none" stroke="#000000" points="10,-40.2 10,-59.2 118,-59.2 118,-40.2 10,-40.2"/>
<text text-anchor="start" x="13" y="-46.3" font-family="Helvetica,sans-Serif" font-size="11.00" fill="#000000">&lt; 0</text>
<polygon fill="#ffffff" stroke="transparent" points="118,-40.2 118,-59.2 244,-59.2 244,-40.2 118,-40.2"/>
<polygon fill="none" stroke="#000000" points="118,-40.2 118,-59.2 244,-59.2 244,-40.2 118,-40.2"/>
<text text-anchor="start" x="208.6105" y="-46.3" font-family="Helvetica,sans-Serif" font-size="11.00" fill="#000000">0 rows</text>
<polygon fill="#ffffff" stroke="transparent" points="244,-40.2 244,-59.2 306,-59.2 306,-40.2 244,-40.2"/>
<polygon fill="none" stroke="#000000" points="244,-40.2 244,-59.2 306,-59.2 306,-40.2 244,-40.2"/>
<text text-anchor="start" x="287.4053" y="-46.3" font-family="Helvetica,sans-Serif" font-size="11.00" fill="#000000">0 &gt;</text>
<polygon fill="none" stroke="#000000" stroke-width="2" points="9,-39.2 9,-545.2 307,-545.2 307,-39.2 9,-39.2"/>
</a>
</g>
</g>
</g>
</svg>
