<?xml version="1.0" encoding="UTF-8" standalone="no"?>
<!DOCTYPE svg PUBLIC "-//W3C//DTD SVG 1.1//EN"
 "http://www.w3.org/Graphics/SVG/1.1/DTD/svg11.dtd">
<!-- Generated by graphviz version 2.40.1 (20161225.0304)
 -->
<!-- Title: twoDegreesRelationshipsDiagram Pages: 1 -->
<svg width="1313pt" height="1757pt"
 viewBox="0.00 0.00 1313.00 1756.64" xmlns="http://www.w3.org/2000/svg" xmlns:xlink="http://www.w3.org/1999/xlink">
<g id="graph0" class="graph" transform="scale(1 1) rotate(0) translate(4 1752.6359)">
<title>twoDegreesRelationshipsDiagram</title>
<polygon fill="#ffffff" stroke="transparent" points="-4,4 -4,-1752.6359 1309,-1752.6359 1309,4 -4,4"/>
<text text-anchor="middle" x="72.4936" y="-7.3" font-family="Helvetica,sans-Serif" font-size="11.00" fill="#000000">Generated by SchemaSpy</text>
<!-- c_cohort_details -->
<g id="node1" class="node">
<title>c_cohort_details</title>
<g id="a_node1"><a xlink:href="../../tables/c_cohort_details.html" xlink:title="c_cohort_details" target="_top">
<polygon fill="#ffffff" stroke="transparent" points="243.5,-1109.6359 243.5,-1170.6359 390.5,-1170.6359 390.5,-1109.6359 243.5,-1109.6359"/>
<polygon fill="#f5f5f5" stroke="transparent" points="244,-1147.1359 244,-1170.1359 391,-1170.1359 391,-1147.1359 244,-1147.1359"/>
<polygon fill="none" stroke="#000000" points="244,-1147.1359 244,-1170.1359 391,-1170.1359 391,-1147.1359 244,-1147.1359"/>
<text text-anchor="start" x="249" y="-1155.7359" font-family="Helvetica,sans-Serif" font-weight="bold" font-size="11.00" fill="#000000">c_cohort_details</text>
<text text-anchor="start" x="356.5219" y="-1155.2359" font-family="Helvetica,sans-Serif" font-size="11.00" fill="#000000">[table]</text>
<polygon fill="none" stroke="#000000" points="244,-1128.1359 244,-1147.1359 391,-1147.1359 391,-1128.1359 244,-1128.1359"/>
<text text-anchor="start" x="247" y="-1134.2359" font-family="Helvetica,sans-Serif" font-size="11.00" fill="#000000">...</text>
<polygon fill="#ffffff" stroke="transparent" points="244,-1109.1359 244,-1128.1359 298,-1128.1359 298,-1109.1359 244,-1109.1359"/>
<polygon fill="none" stroke="#000000" points="244,-1109.1359 244,-1128.1359 298,-1128.1359 298,-1109.1359 244,-1109.1359"/>
<text text-anchor="start" x="247" y="-1115.2359" font-family="Helvetica,sans-Serif" font-size="11.00" fill="#000000">&lt; 2</text>
<polygon fill="#ffffff" stroke="transparent" points="298,-1109.1359 298,-1128.1359 353,-1128.1359 353,-1109.1359 298,-1109.1359"/>
<polygon fill="none" stroke="#000000" points="298,-1109.1359 298,-1128.1359 353,-1128.1359 353,-1109.1359 298,-1109.1359"/>
<text text-anchor="start" x="317.6105" y="-1115.2359" font-family="Helvetica,sans-Serif" font-size="11.00" fill="#000000">0 rows</text>
<polygon fill="#ffffff" stroke="transparent" points="353,-1109.1359 353,-1128.1359 391,-1128.1359 391,-1109.1359 353,-1109.1359"/>
<polygon fill="none" stroke="#000000" points="353,-1109.1359 353,-1128.1359 391,-1128.1359 391,-1109.1359 353,-1109.1359"/>
<text text-anchor="start" x="372.4053" y="-1115.2359" font-family="Helvetica,sans-Serif" font-size="11.00" fill="#000000">3 &gt;</text>
</a>
</g>
</g>
<!-- cg_cohort_definition -->
<g id="node2" class="node">
<title>cg_cohort_definition</title>
<g id="a_node2"><a xlink:href="../../tables/cg_cohort_definition.html" xlink:title="cg_cohort_definition" target="_top">
<polygon fill="#ffffff" stroke="transparent" points="8,-843.6359 8,-926.6359 183,-926.6359 183,-843.6359 8,-843.6359"/>
<polygon fill="#f5f5f5" stroke="transparent" points="8.5,-903.1359 8.5,-926.1359 183.5,-926.1359 183.5,-903.1359 8.5,-903.1359"/>
<polygon fill="none" stroke="#000000" points="8.5,-903.1359 8.5,-926.1359 183.5,-926.1359 183.5,-903.1359 8.5,-903.1359"/>
<text text-anchor="start" x="13.5" y="-911.7359" font-family="Helvetica,sans-Serif" font-weight="bold" font-size="11.00" fill="#000000">cg_cohort_definition</text>
<text text-anchor="start" x="149.0219" y="-911.2359" font-family="Helvetica,sans-Serif" font-size="11.00" fill="#000000">[table]</text>
<polygon fill="none" stroke="#000000" points="8.5,-881.1359 8.5,-903.1359 183.5,-903.1359 183.5,-881.1359 8.5,-881.1359"/>
<image xlink:href="../../images/primaryKeys.png" width="11px" height="12px" preserveAspectRatio="xMinYMin meet" x="13.5" y="-898.136"/>
<text text-anchor="start" x="37.5" y="-888.2359" font-family="Helvetica,sans-Serif" font-size="11.00" fill="#000000">cohort_definition_id</text>
<polygon fill="none" stroke="#000000" points="8.5,-862.1359 8.5,-881.1359 183.5,-881.1359 183.5,-862.1359 8.5,-862.1359"/>
<text text-anchor="start" x="11.5" y="-868.2359" font-family="Helvetica,sans-Serif" font-size="11.00" fill="#000000">...</text>
<polygon fill="#ffffff" stroke="transparent" points="8.5,-843.1359 8.5,-862.1359 69.5,-862.1359 69.5,-843.1359 8.5,-843.1359"/>
<polygon fill="none" stroke="#000000" points="8.5,-843.1359 8.5,-862.1359 69.5,-862.1359 69.5,-843.1359 8.5,-843.1359"/>
<text text-anchor="start" x="11.5" y="-849.2359" font-family="Helvetica,sans-Serif" font-size="11.00" fill="#000000"> &#160;</text>
<polygon fill="#ffffff" stroke="transparent" points="69.5,-843.1359 69.5,-862.1359 131.5,-862.1359 131.5,-843.1359 69.5,-843.1359"/>
<polygon fill="none" stroke="#000000" points="69.5,-843.1359 69.5,-862.1359 131.5,-862.1359 131.5,-843.1359 69.5,-843.1359"/>
<text text-anchor="start" x="96.1105" y="-849.2359" font-family="Helvetica,sans-Serif" font-size="11.00" fill="#000000">0 rows</text>
<polygon fill="#ffffff" stroke="transparent" points="131.5,-843.1359 131.5,-862.1359 183.5,-862.1359 183.5,-843.1359 131.5,-843.1359"/>
<polygon fill="none" stroke="#000000" points="131.5,-843.1359 131.5,-862.1359 183.5,-862.1359 183.5,-843.1359 131.5,-843.1359"/>
<text text-anchor="start" x="158.7904" y="-849.2359" font-family="Helvetica,sans-Serif" font-size="11.00" fill="#000000">15 &gt;</text>
</a>
</g>
</g>
<!-- c_cohort_details&#45;&gt;cg_cohort_definition -->
<g id="edge1" class="edge">
<title>c_cohort_details:w&#45;&gt;cg_cohort_definition:e</title>
<path fill="none" stroke="#000000" d="M229.7343,-1134.6865C146.8864,-1108.2634 290.2927,-886.423 183.5,-892.1359"/>
<polygon fill="#000000" stroke="#000000" points="236.1154,-1135.7821 243.3908,-1140.684 240.0577,-1136.459 244,-1137.1359 244,-1137.1359 244,-1137.1359 240.0577,-1136.459 244.6092,-1133.5878 236.1154,-1135.7821 236.1154,-1135.7821"/>
<ellipse fill="none" stroke="#000000" cx="232.9615" cy="-1135.2406" rx="3.2" ry="3.2"/>
</g>
<!-- c_cohort_details&#45;&gt;cg_cohort_definition -->
<g id="edge2" class="edge">
<title>c_cohort_details:w&#45;&gt;cg_cohort_definition:e</title>
<path fill="none" stroke="#000000" d="M229.4801,-1136.4159C147.1803,-1120.7776 290.1832,-898.7941 183.5,-892.1359"/>
<polygon fill="#000000" stroke="#000000" points="236.0098,-1136.7396 243.8217,-1140.7315 240.0049,-1136.9378 244,-1137.1359 244,-1137.1359 244,-1137.1359 240.0049,-1136.9378 244.1783,-1133.5403 236.0098,-1136.7396 236.0098,-1136.7396"/>
<ellipse fill="none" stroke="#000000" cx="232.8137" cy="-1136.5811" rx="3.2" ry="3.2"/>
</g>
<!-- c_covariates_continuous -->
<g id="node3" class="node">
<title>c_covariates_continuous</title>
<g id="a_node3"><a xlink:href="../../tables/c_covariates_continuous.html" xlink:title="c_covariates_continuous" target="_top">
<polygon fill="#ffffff" stroke="transparent" points="1094,-1437.6359 1094,-1498.6359 1297,-1498.6359 1297,-1437.6359 1094,-1437.6359"/>
<polygon fill="#f5f5f5" stroke="transparent" points="1094.5,-1475.1359 1094.5,-1498.1359 1297.5,-1498.1359 1297.5,-1475.1359 1094.5,-1475.1359"/>
<polygon fill="none" stroke="#000000" points="1094.5,-1475.1359 1094.5,-1498.1359 1297.5,-1498.1359 1297.5,-1475.1359 1094.5,-1475.1359"/>
<text text-anchor="start" x="1099.5" y="-1483.7359" font-family="Helvetica,sans-Serif" font-weight="bold" font-size="11.00" fill="#000000">c_covariates_continuous</text>
<text text-anchor="start" x="1263.0219" y="-1483.2359" font-family="Helvetica,sans-Serif" font-size="11.00" fill="#000000">[table]</text>
<polygon fill="none" stroke="#000000" points="1094.5,-1456.1359 1094.5,-1475.1359 1297.5,-1475.1359 1297.5,-1456.1359 1094.5,-1456.1359"/>
<text text-anchor="start" x="1097.5" y="-1462.2359" font-family="Helvetica,sans-Serif" font-size="11.00" fill="#000000">...</text>
<polygon fill="#ffffff" stroke="transparent" points="1094.5,-1437.1359 1094.5,-1456.1359 1181.5,-1456.1359 1181.5,-1437.1359 1094.5,-1437.1359"/>
<polygon fill="none" stroke="#000000" points="1094.5,-1437.1359 1094.5,-1456.1359 1181.5,-1456.1359 1181.5,-1437.1359 1094.5,-1437.1359"/>
<text text-anchor="start" x="1097.5" y="-1443.2359" font-family="Helvetica,sans-Serif" font-size="11.00" fill="#000000">&lt; 6</text>
<polygon fill="#ffffff" stroke="transparent" points="1181.5,-1437.1359 1181.5,-1456.1359 1252.5,-1456.1359 1252.5,-1437.1359 1181.5,-1437.1359"/>
<polygon fill="none" stroke="#000000" points="1181.5,-1437.1359 1181.5,-1456.1359 1252.5,-1456.1359 1252.5,-1437.1359 1181.5,-1437.1359"/>
<text text-anchor="start" x="1217.1105" y="-1443.2359" font-family="Helvetica,sans-Serif" font-size="11.00" fill="#000000">0 rows</text>
<polygon fill="#ffffff" stroke="transparent" points="1252.5,-1437.1359 1252.5,-1456.1359 1297.5,-1456.1359 1297.5,-1437.1359 1252.5,-1437.1359"/>
<polygon fill="none" stroke="#000000" points="1252.5,-1437.1359 1252.5,-1456.1359 1297.5,-1456.1359 1297.5,-1437.1359 1252.5,-1437.1359"/>
<text text-anchor="start" x="1288.3862" y="-1443.2359" font-family="Helvetica,sans-Serif" font-size="11.00" fill="#000000"> &#160;</text>
</a>
</g>
</g>
<!-- c_settings -->
<g id="node4" class="node">
<title>c_settings</title>
<g id="a_node4"><a xlink:href="../../tables/c_settings.html" xlink:title="c_settings" target="_top">
<polygon fill="#ffffff" stroke="transparent" points="841.5,-1437.6359 841.5,-1498.6359 948.5,-1498.6359 948.5,-1437.6359 841.5,-1437.6359"/>
<polygon fill="#f5f5f5" stroke="transparent" points="842,-1475.1359 842,-1498.1359 949,-1498.1359 949,-1475.1359 842,-1475.1359"/>
<polygon fill="none" stroke="#000000" points="842,-1475.1359 842,-1498.1359 949,-1498.1359 949,-1475.1359 842,-1475.1359"/>
<text text-anchor="start" x="847" y="-1483.7359" font-family="Helvetica,sans-Serif" font-weight="bold" font-size="11.00" fill="#000000">c_settings</text>
<text text-anchor="start" x="914.5219" y="-1483.2359" font-family="Helvetica,sans-Serif" font-size="11.00" fill="#000000">[table]</text>
<polygon fill="none" stroke="#000000" points="842,-1456.1359 842,-1475.1359 949,-1475.1359 949,-1456.1359 842,-1456.1359"/>
<text text-anchor="start" x="845" y="-1462.2359" font-family="Helvetica,sans-Serif" font-size="11.00" fill="#000000">...</text>
<polygon fill="#ffffff" stroke="transparent" points="842,-1437.1359 842,-1456.1359 876,-1456.1359 876,-1437.1359 842,-1437.1359"/>
<polygon fill="none" stroke="#000000" points="842,-1437.1359 842,-1456.1359 876,-1456.1359 876,-1437.1359 842,-1437.1359"/>
<text text-anchor="start" x="845" y="-1443.2359" font-family="Helvetica,sans-Serif" font-size="11.00" fill="#000000">&lt; 3</text>
<polygon fill="#ffffff" stroke="transparent" points="876,-1437.1359 876,-1456.1359 921,-1456.1359 921,-1437.1359 876,-1437.1359"/>
<polygon fill="none" stroke="#000000" points="876,-1437.1359 876,-1456.1359 921,-1456.1359 921,-1437.1359 876,-1437.1359"/>
<text text-anchor="start" x="885.6105" y="-1443.2359" font-family="Helvetica,sans-Serif" font-size="11.00" fill="#000000">0 rows</text>
<polygon fill="#ffffff" stroke="transparent" points="921,-1437.1359 921,-1456.1359 949,-1456.1359 949,-1437.1359 921,-1437.1359"/>
<polygon fill="none" stroke="#000000" points="921,-1437.1359 921,-1456.1359 949,-1456.1359 949,-1437.1359 921,-1437.1359"/>
<text text-anchor="start" x="930.4053" y="-1443.2359" font-family="Helvetica,sans-Serif" font-size="11.00" fill="#000000">6 &gt;</text>
</a>
</g>
</g>
<!-- c_covariates_continuous&#45;&gt;c_settings -->
<g id="edge3" class="edge">
<title>c_covariates_continuous:w&#45;&gt;c_settings:e</title>
<path fill="none" stroke="#000000" d="M1079.8481,-1463.8099C1026.9331,-1459.1744 1008.4883,-1459.6164 949,-1465.1359"/>
<polygon fill="#000000" stroke="#000000" points="1086.5326,-1464.4148 1094.1755,-1468.7213 1090.5163,-1464.7754 1094.5,-1465.1359 1094.5,-1465.1359 1094.5,-1465.1359 1090.5163,-1464.7754 1094.8245,-1461.5506 1086.5326,-1464.4148 1086.5326,-1464.4148"/>
<ellipse fill="none" stroke="#000000" cx="1083.3456" cy="-1464.1264" rx="3.2" ry="3.2"/>
</g>
<!-- c_covariates_continuous&#45;&gt;c_settings -->
<g id="edge5" class="edge">
<title>c_covariates_continuous:w&#45;&gt;c_settings:e</title>
<path fill="none" stroke="#000000" d="M1079.8481,-1466.6829C1026.9331,-1472.091 1008.4883,-1471.5754 949,-1465.1359"/>
<polygon fill="#000000" stroke="#000000" points="1086.5442,-1465.9759 1094.878,-1468.716 1090.5221,-1465.5559 1094.5,-1465.1359 1094.5,-1465.1359 1094.5,-1465.1359 1090.5221,-1465.5559 1094.122,-1461.5558 1086.5442,-1465.9759 1086.5442,-1465.9759"/>
<ellipse fill="none" stroke="#000000" cx="1083.3619" cy="-1466.312" rx="3.2" ry="3.2"/>
</g>
<!-- database_meta_data -->
<g id="node5" class="node">
<title>database_meta_data</title>
<g id="a_node5"><a xlink:href="../../tables/database_meta_data.html" xlink:title="database_meta_data" target="_top">
<polygon fill="#ffffff" stroke="transparent" points="451,-1088.6359 451,-1171.6359 696,-1171.6359 696,-1088.6359 451,-1088.6359"/>
<polygon fill="#f5f5f5" stroke="transparent" points="451.5,-1148.1359 451.5,-1171.1359 696.5,-1171.1359 696.5,-1148.1359 451.5,-1148.1359"/>
<polygon fill="none" stroke="#000000" points="451.5,-1148.1359 451.5,-1171.1359 696.5,-1171.1359 696.5,-1148.1359 451.5,-1148.1359"/>
<text text-anchor="start" x="456.5" y="-1156.7359" font-family="Helvetica,sans-Serif" font-weight="bold" font-size="11.00" fill="#000000">database_meta_data</text>
<text text-anchor="start" x="661.5437" y="-1156.2359" font-family="Helvetica,sans-Serif" font-size="11.00" fill="#000000">[table]</text>
<polygon fill="none" stroke="#000000" points="451.5,-1126.1359 451.5,-1148.1359 696.5,-1148.1359 696.5,-1126.1359 451.5,-1126.1359"/>
<image xlink:href="../../images/primaryKeys.png" width="11px" height="12px" preserveAspectRatio="xMinYMin meet" x="456.5" y="-1143.14"/>
<text text-anchor="start" x="471.5" y="-1133.2359" font-family="Helvetica,sans-Serif" font-size="11.00" fill="#000000">database_id</text>
<polygon fill="none" stroke="#000000" points="451.5,-1107.1359 451.5,-1126.1359 696.5,-1126.1359 696.5,-1107.1359 451.5,-1107.1359"/>
<text text-anchor="start" x="454.5" y="-1113.2359" font-family="Helvetica,sans-Serif" font-size="11.00" fill="#000000">...</text>
<polygon fill="#ffffff" stroke="transparent" points="451.5,-1088.1359 451.5,-1107.1359 551.5,-1107.1359 551.5,-1088.1359 451.5,-1088.1359"/>
<polygon fill="none" stroke="#000000" points="451.5,-1088.1359 451.5,-1107.1359 551.5,-1107.1359 551.5,-1088.1359 451.5,-1088.1359"/>
<text text-anchor="start" x="454.5" y="-1094.2359" font-family="Helvetica,sans-Serif" font-size="11.00" fill="#000000">&lt; 1</text>
<polygon fill="#ffffff" stroke="transparent" points="551.5,-1088.1359 551.5,-1107.1359 629.5,-1107.1359 629.5,-1088.1359 551.5,-1088.1359"/>
<polygon fill="none" stroke="#000000" points="551.5,-1088.1359 551.5,-1107.1359 629.5,-1107.1359 629.5,-1088.1359 551.5,-1088.1359"/>
<text text-anchor="start" x="594.1105" y="-1094.2359" font-family="Helvetica,sans-Serif" font-size="11.00" fill="#000000">0 rows</text>
<polygon fill="#ffffff" stroke="transparent" points="629.5,-1088.1359 629.5,-1107.1359 696.5,-1107.1359 696.5,-1088.1359 629.5,-1088.1359"/>
<polygon fill="none" stroke="#000000" points="629.5,-1088.1359 629.5,-1107.1359 696.5,-1107.1359 696.5,-1088.1359 629.5,-1088.1359"/>
<text text-anchor="start" x="671.7904" y="-1094.2359" font-family="Helvetica,sans-Serif" font-size="11.00" fill="#000000">17 &gt;</text>
</a>
</g>
</g>
<!-- c_covariates_continuous&#45;&gt;database_meta_data -->
<g id="edge4" class="edge">
<title>c_covariates_continuous:w&#45;&gt;database_meta_data:e</title>
<path fill="none" stroke="#000000" d="M1082.7461,-1456.6137C1044.3156,-1391.3351 1092.9797,-972.1075 1053,-935.1359 1027.2219,-911.2973 764.1582,-912.8823 737,-935.1359 666.1755,-993.1699 788.0645,-1137.1359 696.5,-1137.1359"/>
<polygon fill="#000000" stroke="#000000" points="1088.0233,-1460.4399 1092.3868,-1468.0504 1091.2616,-1462.7879 1094.5,-1465.1359 1094.5,-1465.1359 1094.5,-1465.1359 1091.2616,-1462.7879 1096.6132,-1462.2214 1088.0233,-1460.4399 1088.0233,-1460.4399"/>
<ellipse fill="none" stroke="#000000" cx="1085.4326" cy="-1458.5615" rx="3.2" ry="3.2"/>
</g>
<!-- c_settings&#45;&gt;c_cohort_details -->
<g id="edge9" class="edge">
<title>c_settings:w&#45;&gt;c_cohort_details:e</title>
<path fill="none" stroke="#000000" d="M827.5905,-1464.8889C788.7102,-1463.4093 771.8217,-1454.8295 737,-1427.1359 715.8698,-1410.3311 722.4611,-1395.8356 704,-1376.1359 605.1678,-1270.6728 555.7238,-1272.5993 443,-1182.1359 419.1633,-1163.0064 421.5634,-1137.1359 391,-1137.1359"/>
<polygon fill="#000000" stroke="#000000" points="834.0012,-1464.9987 841.9383,-1468.7354 838.0006,-1465.0673 842,-1465.1359 842,-1465.1359 842,-1465.1359 838.0006,-1465.0673 842.0617,-1461.5364 834.0012,-1464.9987 834.0012,-1464.9987"/>
<ellipse fill="none" stroke="#000000" cx="830.8016" cy="-1464.9439" rx="3.2" ry="3.2"/>
</g>
<!-- c_settings&#45;&gt;c_cohort_details -->
<g id="edge11" class="edge">
<title>c_settings:w&#45;&gt;c_cohort_details:e</title>
<path fill="none" stroke="#000000" d="M827.354,-1464.857C788.7455,-1463.2321 772.2625,-1454.1067 737,-1427.1359 716.7266,-1411.6296 721.6235,-1398.5985 704,-1380.1359 602.7184,-1274.0318 558.5942,-1268.4356 443,-1178.1359 419.807,-1160.018 420.4308,-1137.1359 391,-1137.1359"/>
<polygon fill="#000000" stroke="#000000" points="834.0015,-1464.9835 841.9314,-1468.7353 838.0007,-1465.0597 842,-1465.1359 842,-1465.1359 842,-1465.1359 838.0007,-1465.0597 842.0686,-1461.5366 834.0015,-1464.9835 834.0015,-1464.9835"/>
<ellipse fill="none" stroke="#000000" cx="830.802" cy="-1464.9226" rx="3.2" ry="3.2"/>
</g>
<!-- c_settings&#45;&gt;database_meta_data -->
<g id="edge10" class="edge">
<title>c_settings:w&#45;&gt;database_meta_data:e</title>
<path fill="none" stroke="#000000" d="M827.3717,-1465.1097C787.3012,-1464.8315 765.0159,-1461.6988 737,-1427.1359 696.026,-1376.5867 761.5699,-1137.1359 696.5,-1137.1359"/>
<polygon fill="#000000" stroke="#000000" points="834,-1465.1215 841.9935,-1468.7359 838,-1465.1287 842,-1465.1359 842,-1465.1359 842,-1465.1359 838,-1465.1287 842.0065,-1461.5359 834,-1465.1215 834,-1465.1215"/>
<ellipse fill="none" stroke="#000000" cx="830.8" cy="-1465.1158" rx="3.2" ry="3.2"/>
</g>
<!-- database_meta_data&#45;&gt;c_cohort_details -->
<g id="edge31" class="edge">
<title>database_meta_data:w&#45;&gt;c_cohort_details:e</title>
<path fill="none" stroke="#000000" d="M440.9832,-1137.1359C422.2467,-1137.1359 414.0026,-1137.1359 391,-1137.1359"/>
<polygon fill="#000000" stroke="#000000" points="450.7,-1133.1359 450.7,-1141.1359 449.1,-1141.1359 449.1,-1133.1359 450.7,-1133.1359"/>
<polyline fill="none" stroke="#000000" points="451.5,-1137.1359 447.5,-1137.1359 "/>
<ellipse fill="none" stroke="#000000" cx="444.3" cy="-1137.136" rx="3.2" ry="3.2"/>
</g>
<!-- c_dechallenge_rechallenge -->
<g id="node6" class="node">
<title>c_dechallenge_rechallenge</title>
<g id="a_node6"><a xlink:href="../../tables/c_dechallenge_rechallenge.html" xlink:title="c_dechallenge_rechallenge" target="_top">
<polygon fill="#ffffff" stroke="transparent" points="785.5,-1601.6359 785.5,-1662.6359 1004.5,-1662.6359 1004.5,-1601.6359 785.5,-1601.6359"/>
<polygon fill="#f5f5f5" stroke="transparent" points="786,-1639.1359 786,-1662.1359 1005,-1662.1359 1005,-1639.1359 786,-1639.1359"/>
<polygon fill="none" stroke="#000000" points="786,-1639.1359 786,-1662.1359 1005,-1662.1359 1005,-1639.1359 786,-1639.1359"/>
<text text-anchor="start" x="791" y="-1647.7359" font-family="Helvetica,sans-Serif" font-weight="bold" font-size="11.00" fill="#000000">c_dechallenge_rechallenge</text>
<text text-anchor="start" x="970.5219" y="-1647.2359" font-family="Helvetica,sans-Serif" font-size="11.00" fill="#000000">[table]</text>
<polygon fill="none" stroke="#000000" points="786,-1620.1359 786,-1639.1359 1005,-1639.1359 1005,-1620.1359 786,-1620.1359"/>
<text text-anchor="start" x="789" y="-1626.2359" font-family="Helvetica,sans-Serif" font-size="11.00" fill="#000000">...</text>
<polygon fill="#ffffff" stroke="transparent" points="786,-1601.1359 786,-1620.1359 881,-1620.1359 881,-1601.1359 786,-1601.1359"/>
<polygon fill="none" stroke="#000000" points="786,-1601.1359 786,-1620.1359 881,-1620.1359 881,-1601.1359 786,-1601.1359"/>
<text text-anchor="start" x="789" y="-1607.2359" font-family="Helvetica,sans-Serif" font-size="11.00" fill="#000000">&lt; 3</text>
<polygon fill="#ffffff" stroke="transparent" points="881,-1601.1359 881,-1620.1359 956,-1620.1359 956,-1601.1359 881,-1601.1359"/>
<polygon fill="none" stroke="#000000" points="881,-1601.1359 881,-1620.1359 956,-1620.1359 956,-1601.1359 881,-1601.1359"/>
<text text-anchor="start" x="920.6105" y="-1607.2359" font-family="Helvetica,sans-Serif" font-size="11.00" fill="#000000">0 rows</text>
<polygon fill="#ffffff" stroke="transparent" points="956,-1601.1359 956,-1620.1359 1005,-1620.1359 1005,-1601.1359 956,-1601.1359"/>
<polygon fill="none" stroke="#000000" points="956,-1601.1359 956,-1620.1359 1005,-1620.1359 1005,-1601.1359 956,-1601.1359"/>
<text text-anchor="start" x="995.8862" y="-1607.2359" font-family="Helvetica,sans-Serif" font-size="11.00" fill="#000000"> &#160;</text>
</a>
</g>
</g>
<!-- c_dechallenge_rechallenge&#45;&gt;cg_cohort_definition -->
<g id="edge7" class="edge">
<title>c_dechallenge_rechallenge:w&#45;&gt;cg_cohort_definition:e</title>
<path fill="none" stroke="#000000" d="M771.1689,-1629.0361C481.4866,-1625.0916 377.5946,-1504.1932 224,-1251.1359 182.3438,-1182.5046 263.7838,-892.1359 183.5,-892.1359"/>
<polygon fill="#000000" stroke="#000000" points="778.0002,-1629.082 785.9757,-1632.7358 782.0001,-1629.109 786,-1629.1359 786,-1629.1359 786,-1629.1359 782.0001,-1629.109 786.0243,-1625.536 778.0002,-1629.082 778.0002,-1629.082"/>
<ellipse fill="none" stroke="#000000" cx="774.8003" cy="-1629.0604" rx="3.2" ry="3.2"/>
</g>
<!-- c_dechallenge_rechallenge&#45;&gt;cg_cohort_definition -->
<g id="edge8" class="edge">
<title>c_dechallenge_rechallenge:w&#45;&gt;cg_cohort_definition:e</title>
<path fill="none" stroke="#000000" d="M771.554,-1629.0396C480.6273,-1625.1198 377.718,-1501.4357 224,-1247.1359 182.9253,-1179.185 262.9006,-892.1359 183.5,-892.1359"/>
<polygon fill="#000000" stroke="#000000" points="778.0002,-1629.0825 785.976,-1632.7358 782.0001,-1629.1092 786,-1629.1359 786,-1629.1359 786,-1629.1359 782.0001,-1629.1092 786.024,-1625.536 778.0002,-1629.0825 778.0002,-1629.0825"/>
<ellipse fill="none" stroke="#000000" cx="774.8002" cy="-1629.0612" rx="3.2" ry="3.2"/>
</g>
<!-- c_dechallenge_rechallenge&#45;&gt;database_meta_data -->
<g id="edge6" class="edge">
<title>c_dechallenge_rechallenge:w&#45;&gt;database_meta_data:e</title>
<path fill="none" stroke="#000000" d="M771.3953,-1627.4547C754.893,-1623.0955 747.5301,-1610.4079 737,-1591.1359 712.7165,-1546.6926 747.1448,-1137.1359 696.5,-1137.1359"/>
<polygon fill="#000000" stroke="#000000" points="778.0525,-1628.221 785.5883,-1632.7123 782.0262,-1628.6785 786,-1629.1359 786,-1629.1359 786,-1629.1359 782.0262,-1628.6785 786.4117,-1625.5595 778.0525,-1628.221 778.0525,-1628.221"/>
<ellipse fill="none" stroke="#000000" cx="774.8735" cy="-1627.855" rx="3.2" ry="3.2"/>
</g>
<!-- c_time_to_event -->
<g id="node7" class="node">
<title>c_time_to_event</title>
<g id="a_node7"><a xlink:href="../../tables/c_time_to_event.html" xlink:title="c_time_to_event" target="_top">
<polygon fill="#ffffff" stroke="transparent" points="822,-1355.6359 822,-1416.6359 968,-1416.6359 968,-1355.6359 822,-1355.6359"/>
<polygon fill="#f5f5f5" stroke="transparent" points="822,-1393.1359 822,-1416.1359 968,-1416.1359 968,-1393.1359 822,-1393.1359"/>
<polygon fill="none" stroke="#000000" points="822,-1393.1359 822,-1416.1359 968,-1416.1359 968,-1393.1359 822,-1393.1359"/>
<text text-anchor="start" x="827" y="-1401.7359" font-family="Helvetica,sans-Serif" font-weight="bold" font-size="11.00" fill="#000000">c_time_to_event</text>
<text text-anchor="start" x="933.5219" y="-1401.2359" font-family="Helvetica,sans-Serif" font-size="11.00" fill="#000000">[table]</text>
<polygon fill="none" stroke="#000000" points="822,-1374.1359 822,-1393.1359 968,-1393.1359 968,-1374.1359 822,-1374.1359"/>
<text text-anchor="start" x="825" y="-1380.2359" font-family="Helvetica,sans-Serif" font-size="11.00" fill="#000000">...</text>
<polygon fill="#ffffff" stroke="transparent" points="822,-1355.1359 822,-1374.1359 880,-1374.1359 880,-1355.1359 822,-1355.1359"/>
<polygon fill="none" stroke="#000000" points="822,-1355.1359 822,-1374.1359 880,-1374.1359 880,-1355.1359 822,-1355.1359"/>
<text text-anchor="start" x="825" y="-1361.2359" font-family="Helvetica,sans-Serif" font-size="11.00" fill="#000000">&lt; 1</text>
<polygon fill="#ffffff" stroke="transparent" points="880,-1355.1359 880,-1374.1359 937,-1374.1359 937,-1355.1359 880,-1355.1359"/>
<polygon fill="none" stroke="#000000" points="880,-1355.1359 880,-1374.1359 937,-1374.1359 937,-1355.1359 880,-1355.1359"/>
<text text-anchor="start" x="901.6105" y="-1361.2359" font-family="Helvetica,sans-Serif" font-size="11.00" fill="#000000">0 rows</text>
<polygon fill="#ffffff" stroke="transparent" points="937,-1355.1359 937,-1374.1359 968,-1374.1359 968,-1355.1359 937,-1355.1359"/>
<polygon fill="none" stroke="#000000" points="937,-1355.1359 937,-1374.1359 968,-1374.1359 968,-1355.1359 937,-1355.1359"/>
<text text-anchor="start" x="958.8862" y="-1361.2359" font-family="Helvetica,sans-Serif" font-size="11.00" fill="#000000"> &#160;</text>
</a>
</g>
</g>
<!-- c_time_to_event&#45;&gt;database_meta_data -->
<g id="edge12" class="edge">
<title>c_time_to_event:w&#45;&gt;database_meta_data:e</title>
<path fill="none" stroke="#000000" d="M807.5225,-1382.832C776.0265,-1381.3173 759.5232,-1373.4865 737,-1345.1359 678.4157,-1271.3941 790.6805,-1137.1359 696.5,-1137.1359"/>
<polygon fill="#000000" stroke="#000000" points="814.0018,-1382.968 821.9244,-1386.7351 818.0009,-1383.0519 822,-1383.1359 822,-1383.1359 822,-1383.1359 818.0009,-1383.0519 822.0756,-1379.5367 814.0018,-1382.968 814.0018,-1382.968"/>
<ellipse fill="none" stroke="#000000" cx="810.8025" cy="-1382.9008" rx="3.2" ry="3.2"/>
</g>
<!-- cd_cohort_count -->
<g id="node8" class="node">
<title>cd_cohort_count</title>
<g id="a_node8"><a xlink:href="../../tables/cd_cohort_count.html" xlink:title="cd_cohort_count" target="_top">
<polygon fill="#ffffff" stroke="transparent" points="821,-1273.6359 821,-1334.6359 969,-1334.6359 969,-1273.6359 821,-1273.6359"/>
<polygon fill="#f5f5f5" stroke="transparent" points="821,-1311.1359 821,-1334.1359 969,-1334.1359 969,-1311.1359 821,-1311.1359"/>
<polygon fill="none" stroke="#000000" points="821,-1311.1359 821,-1334.1359 969,-1334.1359 969,-1311.1359 821,-1311.1359"/>
<text text-anchor="start" x="826" y="-1319.7359" font-family="Helvetica,sans-Serif" font-weight="bold" font-size="11.00" fill="#000000">cd_cohort_count</text>
<text text-anchor="start" x="934.5219" y="-1319.2359" font-family="Helvetica,sans-Serif" font-size="11.00" fill="#000000">[table]</text>
<polygon fill="none" stroke="#000000" points="821,-1292.1359 821,-1311.1359 969,-1311.1359 969,-1292.1359 821,-1292.1359"/>
<text text-anchor="start" x="824" y="-1298.2359" font-family="Helvetica,sans-Serif" font-size="11.00" fill="#000000">...</text>
<polygon fill="#ffffff" stroke="transparent" points="821,-1273.1359 821,-1292.1359 876,-1292.1359 876,-1273.1359 821,-1273.1359"/>
<polygon fill="none" stroke="#000000" points="821,-1273.1359 821,-1292.1359 876,-1292.1359 876,-1273.1359 821,-1273.1359"/>
<text text-anchor="start" x="824" y="-1279.2359" font-family="Helvetica,sans-Serif" font-size="11.00" fill="#000000">&lt; 1</text>
<polygon fill="#ffffff" stroke="transparent" points="876,-1273.1359 876,-1292.1359 931,-1292.1359 931,-1273.1359 876,-1273.1359"/>
<polygon fill="none" stroke="#000000" points="876,-1273.1359 876,-1292.1359 931,-1292.1359 931,-1273.1359 876,-1273.1359"/>
<text text-anchor="start" x="895.6105" y="-1279.2359" font-family="Helvetica,sans-Serif" font-size="11.00" fill="#000000">0 rows</text>
<polygon fill="#ffffff" stroke="transparent" points="931,-1273.1359 931,-1292.1359 969,-1292.1359 969,-1273.1359 931,-1273.1359"/>
<polygon fill="none" stroke="#000000" points="931,-1273.1359 931,-1292.1359 969,-1292.1359 969,-1273.1359 931,-1273.1359"/>
<text text-anchor="start" x="950.4053" y="-1279.2359" font-family="Helvetica,sans-Serif" font-size="11.00" fill="#000000">2 &gt;</text>
</a>
</g>
</g>
<!-- cd_cohort_count&#45;&gt;database_meta_data -->
<g id="edge13" class="edge">
<title>cd_cohort_count:w&#45;&gt;database_meta_data:e</title>
<path fill="none" stroke="#000000" d="M806.3329,-1300.7321C775.7733,-1298.8371 760.7626,-1289.7701 737,-1263.1359 697.8402,-1219.2439 755.3218,-1137.1359 696.5,-1137.1359"/>
<polygon fill="#000000" stroke="#000000" points="813.003,-1300.9157 820.9009,-1304.7345 817.0015,-1301.0258 821,-1301.1359 821,-1301.1359 821,-1301.1359 817.0015,-1301.0258 821.0991,-1297.5373 813.003,-1300.9157 813.003,-1300.9157"/>
<ellipse fill="none" stroke="#000000" cx="809.8042" cy="-1300.8276" rx="3.2" ry="3.2"/>
</g>
<!-- cg_cohort_count -->
<g id="node9" class="node">
<title>cg_cohort_count</title>
<g id="a_node9"><a xlink:href="../../tables/cg_cohort_count.html" xlink:title="cg_cohort_count" target="_top">
<polygon fill="#ffffff" stroke="transparent" points="821,-1519.6359 821,-1580.6359 969,-1580.6359 969,-1519.6359 821,-1519.6359"/>
<polygon fill="#f5f5f5" stroke="transparent" points="821,-1557.1359 821,-1580.1359 969,-1580.1359 969,-1557.1359 821,-1557.1359"/>
<polygon fill="none" stroke="#000000" points="821,-1557.1359 821,-1580.1359 969,-1580.1359 969,-1557.1359 821,-1557.1359"/>
<text text-anchor="start" x="826" y="-1565.7359" font-family="Helvetica,sans-Serif" font-weight="bold" font-size="11.00" fill="#000000">cg_cohort_count</text>
<text text-anchor="start" x="934.5219" y="-1565.2359" font-family="Helvetica,sans-Serif" font-size="11.00" fill="#000000">[table]</text>
<polygon fill="none" stroke="#000000" points="821,-1538.1359 821,-1557.1359 969,-1557.1359 969,-1538.1359 821,-1538.1359"/>
<text text-anchor="start" x="824" y="-1544.2359" font-family="Helvetica,sans-Serif" font-size="11.00" fill="#000000">...</text>
<polygon fill="#ffffff" stroke="transparent" points="821,-1519.1359 821,-1538.1359 880,-1538.1359 880,-1519.1359 821,-1519.1359"/>
<polygon fill="none" stroke="#000000" points="821,-1519.1359 821,-1538.1359 880,-1538.1359 880,-1519.1359 821,-1519.1359"/>
<text text-anchor="start" x="824" y="-1525.2359" font-family="Helvetica,sans-Serif" font-size="11.00" fill="#000000">&lt; 2</text>
<polygon fill="#ffffff" stroke="transparent" points="880,-1519.1359 880,-1538.1359 937,-1538.1359 937,-1519.1359 880,-1519.1359"/>
<polygon fill="none" stroke="#000000" points="880,-1519.1359 880,-1538.1359 937,-1538.1359 937,-1519.1359 880,-1519.1359"/>
<text text-anchor="start" x="901.6105" y="-1525.2359" font-family="Helvetica,sans-Serif" font-size="11.00" fill="#000000">0 rows</text>
<polygon fill="#ffffff" stroke="transparent" points="937,-1519.1359 937,-1538.1359 969,-1538.1359 969,-1519.1359 937,-1519.1359"/>
<polygon fill="none" stroke="#000000" points="937,-1519.1359 937,-1538.1359 969,-1538.1359 969,-1519.1359 937,-1519.1359"/>
<text text-anchor="start" x="959.8862" y="-1525.2359" font-family="Helvetica,sans-Serif" font-size="11.00" fill="#000000"> &#160;</text>
</a>
</g>
</g>
<!-- cg_cohort_count&#45;&gt;cg_cohort_definition -->
<g id="edge14" class="edge">
<title>cg_cohort_count:w&#45;&gt;cg_cohort_definition:e</title>
<path fill="none" stroke="#000000" d="M806.3824,-1546.6862C776.0293,-1544.5998 761.7558,-1534.8496 737,-1509.1359 710.0392,-1481.1319 730.3032,-1456.7585 704,-1428.1359 541.6586,-1251.4794 362.4323,-1377.092 224,-1181.1359 186.5823,-1128.1698 248.3498,-892.1359 183.5,-892.1359"/>
<polygon fill="#000000" stroke="#000000" points="813.0038,-1546.8899 820.8893,-1550.7342 817.0019,-1547.0129 821,-1547.1359 821,-1547.1359 821,-1547.1359 817.0019,-1547.0129 821.1107,-1543.5376 813.0038,-1546.8899 813.0038,-1546.8899"/>
<ellipse fill="none" stroke="#000000" cx="809.8053" cy="-1546.7914" rx="3.2" ry="3.2"/>
</g>
<!-- cg_cohort_count&#45;&gt;database_meta_data -->
<g id="edge15" class="edge">
<title>cg_cohort_count:w&#45;&gt;database_meta_data:e</title>
<path fill="none" stroke="#000000" d="M806.1926,-1546.8451C775.0477,-1545.4213 757.948,-1538.0361 737,-1509.1359 688.1976,-1441.8076 779.6551,-1137.1359 696.5,-1137.1359"/>
<polygon fill="#000000" stroke="#000000" points="813.0015,-1546.9788 820.9293,-1550.7352 817.0008,-1547.0573 821,-1547.1359 821,-1547.1359 821,-1547.1359 817.0008,-1547.0573 821.0707,-1543.5366 813.0015,-1546.9788 813.0015,-1546.9788"/>
<ellipse fill="none" stroke="#000000" cx="809.8022" cy="-1546.9159" rx="3.2" ry="3.2"/>
</g>
<!-- cg_cohort_generation -->
<g id="node10" class="node">
<title>cg_cohort_generation</title>
<g id="a_node10"><a xlink:href="../../tables/cg_cohort_generation.html" xlink:title="cg_cohort_generation" target="_top">
<polygon fill="#ffffff" stroke="transparent" points="803,-1191.6359 803,-1252.6359 987,-1252.6359 987,-1191.6359 803,-1191.6359"/>
<polygon fill="#f5f5f5" stroke="transparent" points="803,-1229.1359 803,-1252.1359 987,-1252.1359 987,-1229.1359 803,-1229.1359"/>
<polygon fill="none" stroke="#000000" points="803,-1229.1359 803,-1252.1359 987,-1252.1359 987,-1229.1359 803,-1229.1359"/>
<text text-anchor="start" x="808" y="-1237.7359" font-family="Helvetica,sans-Serif" font-weight="bold" font-size="11.00" fill="#000000">cg_cohort_generation</text>
<text text-anchor="start" x="952.5219" y="-1237.2359" font-family="Helvetica,sans-Serif" font-size="11.00" fill="#000000">[table]</text>
<polygon fill="none" stroke="#000000" points="803,-1210.1359 803,-1229.1359 987,-1229.1359 987,-1210.1359 803,-1210.1359"/>
<text text-anchor="start" x="806" y="-1216.2359" font-family="Helvetica,sans-Serif" font-size="11.00" fill="#000000">...</text>
<polygon fill="#ffffff" stroke="transparent" points="803,-1191.1359 803,-1210.1359 880,-1210.1359 880,-1191.1359 803,-1191.1359"/>
<polygon fill="none" stroke="#000000" points="803,-1191.1359 803,-1210.1359 880,-1210.1359 880,-1191.1359 803,-1191.1359"/>
<text text-anchor="start" x="806" y="-1197.2359" font-family="Helvetica,sans-Serif" font-size="11.00" fill="#000000">&lt; 1</text>
<polygon fill="#ffffff" stroke="transparent" points="880,-1191.1359 880,-1210.1359 946,-1210.1359 946,-1191.1359 880,-1191.1359"/>
<polygon fill="none" stroke="#000000" points="880,-1191.1359 880,-1210.1359 946,-1210.1359 946,-1191.1359 880,-1191.1359"/>
<text text-anchor="start" x="910.6105" y="-1197.2359" font-family="Helvetica,sans-Serif" font-size="11.00" fill="#000000">0 rows</text>
<polygon fill="#ffffff" stroke="transparent" points="946,-1191.1359 946,-1210.1359 987,-1210.1359 987,-1191.1359 946,-1191.1359"/>
<polygon fill="none" stroke="#000000" points="946,-1191.1359 946,-1210.1359 987,-1210.1359 987,-1191.1359 946,-1191.1359"/>
<text text-anchor="start" x="977.8862" y="-1197.2359" font-family="Helvetica,sans-Serif" font-size="11.00" fill="#000000"> &#160;</text>
</a>
</g>
</g>
<!-- cg_cohort_generation&#45;&gt;database_meta_data -->
<g id="edge16" class="edge">
<title>cg_cohort_generation:w&#45;&gt;database_meta_data:e</title>
<path fill="none" stroke="#000000" d="M788.3962,-1217.8301C766.7182,-1213.4888 759.097,-1198.8083 737,-1181.1359 716.2433,-1164.5354 723.0786,-1137.1359 696.5,-1137.1359"/>
<polygon fill="#000000" stroke="#000000" points="795.0318,-1218.4234 802.6794,-1222.7216 799.0159,-1218.7796 803,-1219.1359 803,-1219.1359 803,-1219.1359 799.0159,-1218.7796 803.3206,-1215.5502 795.0318,-1218.4234 795.0318,-1218.4234"/>
<ellipse fill="none" stroke="#000000" cx="791.8445" cy="-1218.1383" rx="3.2" ry="3.2"/>
</g>
<!-- cg_cohort_inc_result -->
<g id="node11" class="node">
<title>cg_cohort_inc_result</title>
<g id="a_node11"><a xlink:href="../../tables/cg_cohort_inc_result.html" xlink:title="cg_cohort_inc_result" target="_top">
<polygon fill="#ffffff" stroke="transparent" points="807.5,-1109.6359 807.5,-1170.6359 982.5,-1170.6359 982.5,-1109.6359 807.5,-1109.6359"/>
<polygon fill="#f5f5f5" stroke="transparent" points="808,-1147.1359 808,-1170.1359 983,-1170.1359 983,-1147.1359 808,-1147.1359"/>
<polygon fill="none" stroke="#000000" points="808,-1147.1359 808,-1170.1359 983,-1170.1359 983,-1147.1359 808,-1147.1359"/>
<text text-anchor="start" x="813" y="-1155.7359" font-family="Helvetica,sans-Serif" font-weight="bold" font-size="11.00" fill="#000000">cg_cohort_inc_result</text>
<text text-anchor="start" x="948.5219" y="-1155.2359" font-family="Helvetica,sans-Serif" font-size="11.00" fill="#000000">[table]</text>
<polygon fill="none" stroke="#000000" points="808,-1128.1359 808,-1147.1359 983,-1147.1359 983,-1128.1359 808,-1128.1359"/>
<text text-anchor="start" x="811" y="-1134.2359" font-family="Helvetica,sans-Serif" font-size="11.00" fill="#000000">...</text>
<polygon fill="#ffffff" stroke="transparent" points="808,-1109.1359 808,-1128.1359 881,-1128.1359 881,-1109.1359 808,-1109.1359"/>
<polygon fill="none" stroke="#000000" points="808,-1109.1359 808,-1128.1359 881,-1128.1359 881,-1109.1359 808,-1109.1359"/>
<text text-anchor="start" x="811" y="-1115.2359" font-family="Helvetica,sans-Serif" font-size="11.00" fill="#000000">&lt; 1</text>
<polygon fill="#ffffff" stroke="transparent" points="881,-1109.1359 881,-1128.1359 945,-1128.1359 945,-1109.1359 881,-1109.1359"/>
<polygon fill="none" stroke="#000000" points="881,-1109.1359 881,-1128.1359 945,-1128.1359 945,-1109.1359 881,-1109.1359"/>
<text text-anchor="start" x="909.6105" y="-1115.2359" font-family="Helvetica,sans-Serif" font-size="11.00" fill="#000000">0 rows</text>
<polygon fill="#ffffff" stroke="transparent" points="945,-1109.1359 945,-1128.1359 983,-1128.1359 983,-1109.1359 945,-1109.1359"/>
<polygon fill="none" stroke="#000000" points="945,-1109.1359 945,-1128.1359 983,-1128.1359 983,-1109.1359 945,-1109.1359"/>
<text text-anchor="start" x="973.8862" y="-1115.2359" font-family="Helvetica,sans-Serif" font-size="11.00" fill="#000000"> &#160;</text>
</a>
</g>
</g>
<!-- cg_cohort_inc_result&#45;&gt;database_meta_data -->
<g id="edge17" class="edge">
<title>cg_cohort_inc_result:w&#45;&gt;database_meta_data:e</title>
<path fill="none" stroke="#000000" d="M793.4734,-1137.1359C755.4177,-1137.1359 740.829,-1137.1359 696.5,-1137.1359"/>
<polygon fill="#000000" stroke="#000000" points="800,-1137.136 808,-1140.7359 804,-1137.1359 808,-1137.1359 808,-1137.1359 808,-1137.1359 804,-1137.1359 808,-1133.5359 800,-1137.136 800,-1137.136"/>
<ellipse fill="none" stroke="#000000" cx="796.8" cy="-1137.136" rx="3.2" ry="3.2"/>
</g>
<!-- cg_cohort_inclusion -->
<g id="node12" class="node">
<title>cg_cohort_inclusion</title>
<g id="a_node12"><a xlink:href="../../tables/cg_cohort_inclusion.html" xlink:title="cg_cohort_inclusion" target="_top">
<polygon fill="#ffffff" stroke="transparent" points="232,-779.6359 232,-840.6359 402,-840.6359 402,-779.6359 232,-779.6359"/>
<polygon fill="#f5f5f5" stroke="transparent" points="232,-817.1359 232,-840.1359 402,-840.1359 402,-817.1359 232,-817.1359"/>
<polygon fill="none" stroke="#000000" points="232,-817.1359 232,-840.1359 402,-840.1359 402,-817.1359 232,-817.1359"/>
<text text-anchor="start" x="237" y="-825.7359" font-family="Helvetica,sans-Serif" font-weight="bold" font-size="11.00" fill="#000000">cg_cohort_inclusion</text>
<text text-anchor="start" x="367.5219" y="-825.2359" font-family="Helvetica,sans-Serif" font-size="11.00" fill="#000000">[table]</text>
<polygon fill="none" stroke="#000000" points="232,-798.1359 232,-817.1359 402,-817.1359 402,-798.1359 232,-798.1359"/>
<text text-anchor="start" x="235" y="-804.2359" font-family="Helvetica,sans-Serif" font-size="11.00" fill="#000000">...</text>
<polygon fill="#ffffff" stroke="transparent" points="232,-779.1359 232,-798.1359 302,-798.1359 302,-779.1359 232,-779.1359"/>
<polygon fill="none" stroke="#000000" points="232,-779.1359 232,-798.1359 302,-798.1359 302,-779.1359 232,-779.1359"/>
<text text-anchor="start" x="235" y="-785.2359" font-family="Helvetica,sans-Serif" font-size="11.00" fill="#000000">&lt; 1</text>
<polygon fill="#ffffff" stroke="transparent" points="302,-779.1359 302,-798.1359 365,-798.1359 365,-779.1359 302,-779.1359"/>
<polygon fill="none" stroke="#000000" points="302,-779.1359 302,-798.1359 365,-798.1359 365,-779.1359 302,-779.1359"/>
<text text-anchor="start" x="329.6105" y="-785.2359" font-family="Helvetica,sans-Serif" font-size="11.00" fill="#000000">0 rows</text>
<polygon fill="#ffffff" stroke="transparent" points="365,-779.1359 365,-798.1359 402,-798.1359 402,-779.1359 365,-779.1359"/>
<polygon fill="none" stroke="#000000" points="365,-779.1359 365,-798.1359 402,-798.1359 402,-779.1359 365,-779.1359"/>
<text text-anchor="start" x="392.8862" y="-785.2359" font-family="Helvetica,sans-Serif" font-size="11.00" fill="#000000"> &#160;</text>
</a>
</g>
</g>
<!-- cg_cohort_inclusion&#45;&gt;cg_cohort_definition -->
<g id="edge18" class="edge">
<title>cg_cohort_inclusion:w&#45;&gt;cg_cohort_definition:e</title>
<path fill="none" stroke="#000000" d="M218.0585,-811.7059C197.7091,-829.3613 220.8784,-892.1359 183.5,-892.1359"/>
<polygon fill="#000000" stroke="#000000" points="224.398,-809.6278 233.1214,-810.5568 228.199,-808.3819 232,-807.1359 232,-807.1359 232,-807.1359 228.199,-808.3819 230.8786,-803.715 224.398,-809.6278 224.398,-809.6278"/>
<ellipse fill="none" stroke="#000000" cx="221.3572" cy="-810.6246" rx="3.2" ry="3.2"/>
</g>
<!-- cg_cohort_summary_stats -->
<g id="node13" class="node">
<title>cg_cohort_summary_stats</title>
<g id="a_node13"><a xlink:href="../../tables/cg_cohort_summary_stats.html" xlink:title="cg_cohort_summary_stats" target="_top">
<polygon fill="#ffffff" stroke="transparent" points="789,-808.6359 789,-869.6359 1001,-869.6359 1001,-808.6359 789,-808.6359"/>
<polygon fill="#f5f5f5" stroke="transparent" points="789,-846.1359 789,-869.1359 1001,-869.1359 1001,-846.1359 789,-846.1359"/>
<polygon fill="none" stroke="#000000" points="789,-846.1359 789,-869.1359 1001,-869.1359 1001,-846.1359 789,-846.1359"/>
<text text-anchor="start" x="794" y="-854.7359" font-family="Helvetica,sans-Serif" font-weight="bold" font-size="11.00" fill="#000000">cg_cohort_summary_stats</text>
<text text-anchor="start" x="966.5219" y="-854.2359" font-family="Helvetica,sans-Serif" font-size="11.00" fill="#000000">[table]</text>
<polygon fill="none" stroke="#000000" points="789,-827.1359 789,-846.1359 1001,-846.1359 1001,-827.1359 789,-827.1359"/>
<text text-anchor="start" x="792" y="-833.2359" font-family="Helvetica,sans-Serif" font-size="11.00" fill="#000000">...</text>
<polygon fill="#ffffff" stroke="transparent" points="789,-808.1359 789,-827.1359 880,-827.1359 880,-808.1359 789,-808.1359"/>
<polygon fill="none" stroke="#000000" points="789,-808.1359 789,-827.1359 880,-827.1359 880,-808.1359 789,-808.1359"/>
<text text-anchor="start" x="792" y="-814.2359" font-family="Helvetica,sans-Serif" font-size="11.00" fill="#000000">&lt; 2</text>
<polygon fill="#ffffff" stroke="transparent" points="880,-808.1359 880,-827.1359 953,-827.1359 953,-808.1359 880,-808.1359"/>
<polygon fill="none" stroke="#000000" points="880,-808.1359 880,-827.1359 953,-827.1359 953,-808.1359 880,-808.1359"/>
<text text-anchor="start" x="917.6105" y="-814.2359" font-family="Helvetica,sans-Serif" font-size="11.00" fill="#000000">0 rows</text>
<polygon fill="#ffffff" stroke="transparent" points="953,-808.1359 953,-827.1359 1001,-827.1359 1001,-808.1359 953,-808.1359"/>
<polygon fill="none" stroke="#000000" points="953,-808.1359 953,-827.1359 1001,-827.1359 1001,-808.1359 953,-808.1359"/>
<text text-anchor="start" x="991.8862" y="-814.2359" font-family="Helvetica,sans-Serif" font-size="11.00" fill="#000000"> &#160;</text>
</a>
</g>
</g>
<!-- cg_cohort_summary_stats&#45;&gt;cg_cohort_definition -->
<g id="edge19" class="edge">
<title>cg_cohort_summary_stats:w&#45;&gt;cg_cohort_definition:e</title>
<path fill="none" stroke="#000000" d="M774.3028,-837.5795C745.9832,-843.6115 739.0834,-866.8692 704,-875.1359 478.7129,-928.2202 414.9567,-892.1359 183.5,-892.1359"/>
<polygon fill="#000000" stroke="#000000" points="781.0383,-836.918 789.3519,-839.7187 785.0192,-836.5269 789,-836.1359 789,-836.1359 789,-836.1359 785.0192,-836.5269 788.6481,-832.5532 781.0383,-836.918 781.0383,-836.918"/>
<ellipse fill="none" stroke="#000000" cx="777.8536" cy="-837.2308" rx="3.2" ry="3.2"/>
</g>
<!-- cg_cohort_summary_stats&#45;&gt;database_meta_data -->
<g id="edge20" class="edge">
<title>cg_cohort_summary_stats:w&#45;&gt;database_meta_data:e</title>
<path fill="none" stroke="#000000" d="M774.6124,-837.946C755.2646,-843.4953 749.2472,-861.2879 737,-884.1359 710.1003,-934.319 753.438,-1137.1359 696.5,-1137.1359"/>
<polygon fill="#000000" stroke="#000000" points="781.0626,-837.1346 789.4494,-839.7078 785.0313,-836.6352 789,-836.1359 789,-836.1359 789,-836.1359 785.0313,-836.6352 788.5506,-832.5641 781.0626,-837.1346 781.0626,-837.1346"/>
<ellipse fill="none" stroke="#000000" cx="777.8876" cy="-837.534" rx="3.2" ry="3.2"/>
</g>
<!-- ci_incidence_summary -->
<g id="node14" class="node">
<title>ci_incidence_summary</title>
<g id="a_node14"><a xlink:href="../../tables/ci_incidence_summary.html" xlink:title="ci_incidence_summary" target="_top">
<polygon fill="#ffffff" stroke="transparent" points="800.5,-726.6359 800.5,-787.6359 989.5,-787.6359 989.5,-726.6359 800.5,-726.6359"/>
<polygon fill="#f5f5f5" stroke="transparent" points="801,-764.1359 801,-787.1359 990,-787.1359 990,-764.1359 801,-764.1359"/>
<polygon fill="none" stroke="#000000" points="801,-764.1359 801,-787.1359 990,-787.1359 990,-764.1359 801,-764.1359"/>
<text text-anchor="start" x="806" y="-772.7359" font-family="Helvetica,sans-Serif" font-weight="bold" font-size="11.00" fill="#000000">ci_incidence_summary</text>
<text text-anchor="start" x="955.5219" y="-772.2359" font-family="Helvetica,sans-Serif" font-size="11.00" fill="#000000">[table]</text>
<polygon fill="none" stroke="#000000" points="801,-745.1359 801,-764.1359 990,-764.1359 990,-745.1359 801,-745.1359"/>
<text text-anchor="start" x="804" y="-751.2359" font-family="Helvetica,sans-Serif" font-size="11.00" fill="#000000">...</text>
<polygon fill="#ffffff" stroke="transparent" points="801,-726.1359 801,-745.1359 884,-745.1359 884,-726.1359 801,-726.1359"/>
<polygon fill="none" stroke="#000000" points="801,-726.1359 801,-745.1359 884,-745.1359 884,-726.1359 801,-726.1359"/>
<text text-anchor="start" x="804" y="-732.2359" font-family="Helvetica,sans-Serif" font-size="11.00" fill="#000000">&lt; 10</text>
<polygon fill="#ffffff" stroke="transparent" points="884,-726.1359 884,-745.1359 950,-745.1359 950,-726.1359 884,-726.1359"/>
<polygon fill="none" stroke="#000000" points="884,-726.1359 884,-745.1359 950,-745.1359 950,-726.1359 884,-726.1359"/>
<text text-anchor="start" x="914.6105" y="-732.2359" font-family="Helvetica,sans-Serif" font-size="11.00" fill="#000000">0 rows</text>
<polygon fill="#ffffff" stroke="transparent" points="950,-726.1359 950,-745.1359 990,-745.1359 990,-726.1359 950,-726.1359"/>
<polygon fill="none" stroke="#000000" points="950,-726.1359 950,-745.1359 990,-745.1359 990,-726.1359 950,-726.1359"/>
<text text-anchor="start" x="980.8862" y="-732.2359" font-family="Helvetica,sans-Serif" font-size="11.00" fill="#000000"> &#160;</text>
</a>
</g>
</g>
<!-- ci_incidence_summary&#45;&gt;cg_cohort_definition -->
<g id="edge22" class="edge">
<title>ci_incidence_summary:w&#45;&gt;cg_cohort_definition:e</title>
<path fill="none" stroke="#000000" d="M786.4321,-754.7232C690.0747,-761.9287 493.0898,-833.3282 410,-851.1359 359.9845,-861.8552 234.6513,-892.1359 183.5,-892.1359"/>
<polygon fill="#000000" stroke="#000000" points="793.0065,-754.4582 801.145,-757.733 797.0032,-754.297 801,-754.1359 801,-754.1359 801,-754.1359 797.0032,-754.297 800.855,-750.5388 793.0065,-754.4582 793.0065,-754.4582"/>
<ellipse fill="none" stroke="#000000" cx="789.8091" cy="-754.5871" rx="3.2" ry="3.2"/>
</g>
<!-- ci_incidence_summary&#45;&gt;database_meta_data -->
<g id="edge21" class="edge">
<title>ci_incidence_summary:w&#45;&gt;database_meta_data:e</title>
<path fill="none" stroke="#000000" d="M786.3852,-755.1973C762.6968,-759.0227 752.0666,-773.2111 737,-798.1359 697.752,-863.0644 772.369,-1137.1359 696.5,-1137.1359"/>
<polygon fill="#000000" stroke="#000000" points="793.021,-754.7154 801.2608,-757.7265 797.0105,-754.4257 801,-754.1359 801,-754.1359 801,-754.1359 797.0105,-754.4257 800.7392,-750.5454 793.021,-754.7154 793.021,-754.7154"/>
<ellipse fill="none" stroke="#000000" cx="789.8294" cy="-754.9473" rx="3.2" ry="3.2"/>
</g>
<!-- cm_analysis -->
<g id="node15" class="node">
<title>cm_analysis</title>
<g id="a_node15"><a xlink:href="../../tables/cm_analysis.html" xlink:title="cm_analysis" target="_top">
<polygon fill="#ffffff" stroke="transparent" points="514,-669.6359 514,-752.6359 633,-752.6359 633,-669.6359 514,-669.6359"/>
<polygon fill="#f5f5f5" stroke="transparent" points="514.5,-729.1359 514.5,-752.1359 633.5,-752.1359 633.5,-729.1359 514.5,-729.1359"/>
<polygon fill="none" stroke="#000000" points="514.5,-729.1359 514.5,-752.1359 633.5,-752.1359 633.5,-729.1359 514.5,-729.1359"/>
<text text-anchor="start" x="519.5" y="-737.7359" font-family="Helvetica,sans-Serif" font-weight="bold" font-size="11.00" fill="#000000">cm_analysis</text>
<text text-anchor="start" x="599.0219" y="-737.2359" font-family="Helvetica,sans-Serif" font-size="11.00" fill="#000000">[table]</text>
<polygon fill="none" stroke="#000000" points="514.5,-707.1359 514.5,-729.1359 633.5,-729.1359 633.5,-707.1359 514.5,-707.1359"/>
<image xlink:href="../../images/primaryKeys.png" width="11px" height="12px" preserveAspectRatio="xMinYMin meet" x="519.5" y="-724.136"/>
<text text-anchor="start" x="543.5" y="-714.2359" font-family="Helvetica,sans-Serif" font-size="11.00" fill="#000000">analysis_id</text>
<polygon fill="none" stroke="#000000" points="514.5,-688.1359 514.5,-707.1359 633.5,-707.1359 633.5,-688.1359 514.5,-688.1359"/>
<text text-anchor="start" x="517.5" y="-694.2359" font-family="Helvetica,sans-Serif" font-size="11.00" fill="#000000">...</text>
<polygon fill="#ffffff" stroke="transparent" points="514.5,-669.1359 514.5,-688.1359 554.5,-688.1359 554.5,-669.1359 514.5,-669.1359"/>
<polygon fill="none" stroke="#000000" points="514.5,-669.1359 514.5,-688.1359 554.5,-688.1359 554.5,-669.1359 514.5,-669.1359"/>
<text text-anchor="start" x="517.5" y="-675.2359" font-family="Helvetica,sans-Serif" font-size="11.00" fill="#000000">&lt; 2</text>
<polygon fill="#ffffff" stroke="transparent" points="554.5,-669.1359 554.5,-688.1359 602.5,-688.1359 602.5,-669.1359 554.5,-669.1359"/>
<polygon fill="none" stroke="#000000" points="554.5,-669.1359 554.5,-688.1359 602.5,-688.1359 602.5,-669.1359 554.5,-669.1359"/>
<text text-anchor="start" x="567.1105" y="-675.2359" font-family="Helvetica,sans-Serif" font-size="11.00" fill="#000000">0 rows</text>
<polygon fill="#ffffff" stroke="transparent" points="602.5,-669.1359 602.5,-688.1359 633.5,-688.1359 633.5,-669.1359 602.5,-669.1359"/>
<polygon fill="none" stroke="#000000" points="602.5,-669.1359 602.5,-688.1359 633.5,-688.1359 633.5,-669.1359 602.5,-669.1359"/>
<text text-anchor="start" x="614.9053" y="-675.2359" font-family="Helvetica,sans-Serif" font-size="11.00" fill="#000000">1 &gt;</text>
</a>
</g>
</g>
<!-- cm_diagnostics_summary -->
<g id="node16" class="node">
<title>cm_diagnostics_summary</title>
<g id="a_node16"><a xlink:href="../../tables/cm_diagnostics_summary.html" xlink:title="cm_diagnostics_summary" target="_top">
<polygon fill="#ffffff" stroke="transparent" points="745,-115.1359 745,-623.1359 1045,-623.1359 1045,-115.1359 745,-115.1359"/>
<polygon fill="#f5f5f5" stroke="transparent" points="747,-598.1359 747,-621.1359 1043,-621.1359 1043,-598.1359 747,-598.1359"/>
<polygon fill="none" stroke="#000000" points="747,-598.1359 747,-621.1359 1043,-621.1359 1043,-598.1359 747,-598.1359"/>
<text text-anchor="start" x="752" y="-606.7359" font-family="Helvetica,sans-Serif" font-weight="bold" font-size="11.00" fill="#000000">cm_diagnostics_summary</text>
<text text-anchor="start" x="1008.0437" y="-606.2359" font-family="Helvetica,sans-Serif" font-size="11.00" fill="#000000">[table]</text>
<polygon fill="none" stroke="#000000" points="747,-576.1359 747,-598.1359 981,-598.1359 981,-576.1359 747,-576.1359"/>
<image xlink:href="../../images/primaryKeys.png" width="11px" height="12px" preserveAspectRatio="xMinYMin meet" x="752" y="-593.136"/>
<text text-anchor="start" x="767" y="-583.2359" font-family="Helvetica,sans-Serif" font-size="11.00" fill="#000000">analysis_id</text>
<polygon fill="none" stroke="#000000" points="981,-576.1359 981,-598.1359 1043,-598.1359 1043,-576.1359 981,-576.1359"/>
<text text-anchor="start" x="983.878" y="-583.8359" font-family="Helvetica,sans-Serif" font-size="11.00" fill="#000000">unknown[0]</text>
<polygon fill="none" stroke="#000000" points="747,-554.1359 747,-576.1359 981,-576.1359 981,-554.1359 747,-554.1359"/>
<text text-anchor="start" x="767" y="-561.2359" font-family="Helvetica,sans-Serif" font-size="11.00" fill="#000000">attrition_diagnostic</text>
<polygon fill="none" stroke="#000000" points="981,-554.1359 981,-576.1359 1043,-576.1359 1043,-554.1359 981,-554.1359"/>
<text text-anchor="start" x="983.878" y="-561.8359" font-family="Helvetica,sans-Serif" font-size="11.00" fill="#000000">unknown[0]</text>
<polygon fill="none" stroke="#000000" points="747,-532.1359 747,-554.1359 981,-554.1359 981,-532.1359 747,-532.1359"/>
<text text-anchor="start" x="767" y="-539.2359" font-family="Helvetica,sans-Serif" font-size="11.00" fill="#000000">attrition_fraction</text>
<polygon fill="none" stroke="#000000" points="981,-532.1359 981,-554.1359 1043,-554.1359 1043,-532.1359 981,-532.1359"/>
<text text-anchor="start" x="983.878" y="-539.8359" font-family="Helvetica,sans-Serif" font-size="11.00" fill="#000000">unknown[0]</text>
<polygon fill="none" stroke="#000000" points="747,-510.1359 747,-532.1359 981,-532.1359 981,-510.1359 747,-510.1359"/>
<text text-anchor="start" x="767" y="-517.2359" font-family="Helvetica,sans-Serif" font-size="11.00" fill="#000000">balance_diagnostic</text>
<polygon fill="none" stroke="#000000" points="981,-510.1359 981,-532.1359 1043,-532.1359 1043,-510.1359 981,-510.1359"/>
<text text-anchor="start" x="983.878" y="-517.8359" font-family="Helvetica,sans-Serif" font-size="11.00" fill="#000000">unknown[0]</text>
<polygon fill="none" stroke="#000000" points="747,-488.1359 747,-510.1359 981,-510.1359 981,-488.1359 747,-488.1359"/>
<image xlink:href="../../images/foreignKeys.png" width="11px" height="12px" preserveAspectRatio="xMinYMin meet" x="752" y="-505.136"/>
<text text-anchor="start" x="767" y="-495.2359" font-family="Helvetica,sans-Serif" font-size="11.00" fill="#000000">comparator_id</text>
<polygon fill="none" stroke="#000000" points="981,-488.1359 981,-510.1359 1043,-510.1359 1043,-488.1359 981,-488.1359"/>
<text text-anchor="start" x="983.878" y="-495.8359" font-family="Helvetica,sans-Serif" font-size="11.00" fill="#000000">unknown[0]</text>
<polygon fill="none" stroke="#000000" points="747,-466.1359 747,-488.1359 981,-488.1359 981,-466.1359 747,-466.1359"/>
<image xlink:href="../../images/foreignKeys.png" width="11px" height="12px" preserveAspectRatio="xMinYMin meet" x="752" y="-483.136"/>
<text text-anchor="start" x="767" y="-473.2359" font-family="Helvetica,sans-Serif" font-size="11.00" fill="#000000">database_id</text>
<polygon fill="none" stroke="#000000" points="981,-466.1359 981,-488.1359 1043,-488.1359 1043,-466.1359 981,-466.1359"/>
<text text-anchor="start" x="983.878" y="-473.8359" font-family="Helvetica,sans-Serif" font-size="11.00" fill="#000000">unknown[0]</text>
<polygon fill="none" stroke="#000000" points="747,-444.1359 747,-466.1359 981,-466.1359 981,-444.1359 747,-444.1359"/>
<text text-anchor="start" x="767" y="-451.2359" font-family="Helvetica,sans-Serif" font-size="11.00" fill="#000000">ease</text>
<polygon fill="none" stroke="#000000" points="981,-444.1359 981,-466.1359 1043,-466.1359 1043,-444.1359 981,-444.1359"/>
<text text-anchor="start" x="983.878" y="-451.8359" font-family="Helvetica,sans-Serif" font-size="11.00" fill="#000000">unknown[0]</text>
<polygon fill="none" stroke="#000000" points="747,-422.1359 747,-444.1359 981,-444.1359 981,-422.1359 747,-422.1359"/>
<text text-anchor="start" x="767" y="-429.2359" font-family="Helvetica,sans-Serif" font-size="11.00" fill="#000000">ease_diagnostic</text>
<polygon fill="none" stroke="#000000" points="981,-422.1359 981,-444.1359 1043,-444.1359 1043,-422.1359 981,-422.1359"/>
<text text-anchor="start" x="983.878" y="-429.8359" font-family="Helvetica,sans-Serif" font-size="11.00" fill="#000000">unknown[0]</text>
<polygon fill="none" stroke="#000000" points="747,-400.1359 747,-422.1359 981,-422.1359 981,-400.1359 747,-400.1359"/>
<text text-anchor="start" x="767" y="-407.2359" font-family="Helvetica,sans-Serif" font-size="11.00" fill="#000000">equipoise</text>
<polygon fill="none" stroke="#000000" points="981,-400.1359 981,-422.1359 1043,-422.1359 1043,-400.1359 981,-400.1359"/>
<text text-anchor="start" x="983.878" y="-407.8359" font-family="Helvetica,sans-Serif" font-size="11.00" fill="#000000">unknown[0]</text>
<polygon fill="none" stroke="#000000" points="747,-378.1359 747,-400.1359 981,-400.1359 981,-378.1359 747,-378.1359"/>
<text text-anchor="start" x="767" y="-385.2359" font-family="Helvetica,sans-Serif" font-size="11.00" fill="#000000">equipoise_diagnostic</text>
<polygon fill="none" stroke="#000000" points="981,-378.1359 981,-400.1359 1043,-400.1359 1043,-378.1359 981,-378.1359"/>
<text text-anchor="start" x="983.878" y="-385.8359" font-family="Helvetica,sans-Serif" font-size="11.00" fill="#000000">unknown[0]</text>
<polygon fill="none" stroke="#000000" points="747,-356.1359 747,-378.1359 981,-378.1359 981,-356.1359 747,-356.1359"/>
<text text-anchor="start" x="767" y="-363.2359" font-family="Helvetica,sans-Serif" font-size="11.00" fill="#000000">generalizability_diagnostic</text>
<polygon fill="none" stroke="#000000" points="981,-356.1359 981,-378.1359 1043,-378.1359 1043,-356.1359 981,-356.1359"/>
<text text-anchor="start" x="983.878" y="-363.8359" font-family="Helvetica,sans-Serif" font-size="11.00" fill="#000000">unknown[0]</text>
<polygon fill="none" stroke="#000000" points="747,-334.1359 747,-356.1359 981,-356.1359 981,-334.1359 747,-334.1359"/>
<text text-anchor="start" x="767" y="-341.2359" font-family="Helvetica,sans-Serif" font-size="11.00" fill="#000000">generalizability_max_sdm</text>
<polygon fill="none" stroke="#000000" points="981,-334.1359 981,-356.1359 1043,-356.1359 1043,-334.1359 981,-334.1359"/>
<text text-anchor="start" x="983.878" y="-341.8359" font-family="Helvetica,sans-Serif" font-size="11.00" fill="#000000">unknown[0]</text>
<polygon fill="none" stroke="#000000" points="747,-312.1359 747,-334.1359 981,-334.1359 981,-312.1359 747,-312.1359"/>
<text text-anchor="start" x="767" y="-319.2359" font-family="Helvetica,sans-Serif" font-size="11.00" fill="#000000">max_sdm</text>
<polygon fill="none" stroke="#000000" points="981,-312.1359 981,-334.1359 1043,-334.1359 1043,-312.1359 981,-312.1359"/>
<text text-anchor="start" x="983.878" y="-319.8359" font-family="Helvetica,sans-Serif" font-size="11.00" fill="#000000">unknown[0]</text>
<polygon fill="none" stroke="#000000" points="747,-290.1359 747,-312.1359 981,-312.1359 981,-290.1359 747,-290.1359"/>
<text text-anchor="start" x="767" y="-297.2359" font-family="Helvetica,sans-Serif" font-size="11.00" fill="#000000">mdrr</text>
<polygon fill="none" stroke="#000000" points="981,-290.1359 981,-312.1359 1043,-312.1359 1043,-290.1359 981,-290.1359"/>
<text text-anchor="start" x="983.878" y="-297.8359" font-family="Helvetica,sans-Serif" font-size="11.00" fill="#000000">unknown[0]</text>
<polygon fill="none" stroke="#000000" points="747,-268.1359 747,-290.1359 981,-290.1359 981,-268.1359 747,-268.1359"/>
<text text-anchor="start" x="767" y="-275.2359" font-family="Helvetica,sans-Serif" font-size="11.00" fill="#000000">mdrr_diagnostic</text>
<polygon fill="none" stroke="#000000" points="981,-268.1359 981,-290.1359 1043,-290.1359 1043,-268.1359 981,-268.1359"/>
<text text-anchor="start" x="983.878" y="-275.8359" font-family="Helvetica,sans-Serif" font-size="11.00" fill="#000000">unknown[0]</text>
<polygon fill="none" stroke="#000000" points="747,-246.1359 747,-268.1359 981,-268.1359 981,-246.1359 747,-246.1359"/>
<image xlink:href="../../images/foreignKeys.png" width="11px" height="12px" preserveAspectRatio="xMinYMin meet" x="752" y="-263.136"/>
<text text-anchor="start" x="767" y="-253.2359" font-family="Helvetica,sans-Serif" font-size="11.00" fill="#000000">outcome_id</text>
<polygon fill="none" stroke="#000000" points="981,-246.1359 981,-268.1359 1043,-268.1359 1043,-246.1359 981,-246.1359"/>
<text text-anchor="start" x="983.878" y="-253.8359" font-family="Helvetica,sans-Serif" font-size="11.00" fill="#000000">unknown[0]</text>
<polygon fill="none" stroke="#000000" points="747,-224.1359 747,-246.1359 981,-246.1359 981,-224.1359 747,-224.1359"/>
<text text-anchor="start" x="767" y="-231.2359" font-family="Helvetica,sans-Serif" font-size="11.00" fill="#000000">shared_balance_diagnostic</text>
<polygon fill="none" stroke="#000000" points="981,-224.1359 981,-246.1359 1043,-246.1359 1043,-224.1359 981,-224.1359"/>
<text text-anchor="start" x="983.878" y="-231.8359" font-family="Helvetica,sans-Serif" font-size="11.00" fill="#000000">unknown[0]</text>
<polygon fill="none" stroke="#000000" points="747,-202.1359 747,-224.1359 981,-224.1359 981,-202.1359 747,-202.1359"/>
<text text-anchor="start" x="767" y="-209.2359" font-family="Helvetica,sans-Serif" font-size="11.00" fill="#000000">shared_max_sdm</text>
<polygon fill="none" stroke="#000000" points="981,-202.1359 981,-224.1359 1043,-224.1359 1043,-202.1359 981,-202.1359"/>
<text text-anchor="start" x="983.878" y="-209.8359" font-family="Helvetica,sans-Serif" font-size="11.00" fill="#000000">unknown[0]</text>
<polygon fill="none" stroke="#000000" points="747,-180.1359 747,-202.1359 981,-202.1359 981,-180.1359 747,-180.1359"/>
<image xlink:href="../../images/foreignKeys.png" width="11px" height="12px" preserveAspectRatio="xMinYMin meet" x="752" y="-197.136"/>
<text text-anchor="start" x="767" y="-187.2359" font-family="Helvetica,sans-Serif" font-size="11.00" fill="#000000">target_id</text>
<polygon fill="none" stroke="#000000" points="981,-180.1359 981,-202.1359 1043,-202.1359 1043,-180.1359 981,-180.1359"/>
<text text-anchor="start" x="983.878" y="-187.8359" font-family="Helvetica,sans-Serif" font-size="11.00" fill="#000000">unknown[0]</text>
<polygon fill="none" stroke="#000000" points="747,-158.1359 747,-180.1359 981,-180.1359 981,-158.1359 747,-158.1359"/>
<text text-anchor="start" x="767" y="-165.2359" font-family="Helvetica,sans-Serif" font-size="11.00" fill="#000000">unblind</text>
<polygon fill="none" stroke="#000000" points="981,-158.1359 981,-180.1359 1043,-180.1359 1043,-158.1359 981,-158.1359"/>
<text text-anchor="start" x="983.878" y="-165.8359" font-family="Helvetica,sans-Serif" font-size="11.00" fill="#000000">unknown[0]</text>
<polygon fill="none" stroke="#000000" points="747,-136.1359 747,-158.1359 981,-158.1359 981,-136.1359 747,-136.1359"/>
<text text-anchor="start" x="767" y="-143.2359" font-family="Helvetica,sans-Serif" font-size="11.00" fill="#000000">unblind_for_evidence_synthesis</text>
<polygon fill="none" stroke="#000000" points="981,-136.1359 981,-158.1359 1043,-158.1359 1043,-136.1359 981,-136.1359"/>
<text text-anchor="start" x="983.878" y="-143.8359" font-family="Helvetica,sans-Serif" font-size="11.00" fill="#000000">unknown[0]</text>
<polygon fill="#ffffff" stroke="transparent" points="747,-117.1359 747,-136.1359 855,-136.1359 855,-117.1359 747,-117.1359"/>
<polygon fill="none" stroke="#000000" points="747,-117.1359 747,-136.1359 855,-136.1359 855,-117.1359 747,-117.1359"/>
<text text-anchor="start" x="750" y="-123.2359" font-family="Helvetica,sans-Serif" font-size="11.00" fill="#000000">&lt; 5</text>
<polygon fill="#ffffff" stroke="transparent" points="855,-117.1359 855,-136.1359 981,-136.1359 981,-117.1359 855,-117.1359"/>
<polygon fill="none" stroke="#000000" points="855,-117.1359 855,-136.1359 981,-136.1359 981,-117.1359 855,-117.1359"/>
<text text-anchor="start" x="945.6105" y="-123.2359" font-family="Helvetica,sans-Serif" font-size="11.00" fill="#000000">0 rows</text>
<polygon fill="#ffffff" stroke="transparent" points="981,-117.1359 981,-136.1359 1043,-136.1359 1043,-117.1359 981,-117.1359"/>
<polygon fill="none" stroke="#000000" points="981,-117.1359 981,-136.1359 1043,-136.1359 1043,-117.1359 981,-117.1359"/>
<text text-anchor="start" x="1024.4053" y="-123.2359" font-family="Helvetica,sans-Serif" font-size="11.00" fill="#000000">1 &gt;</text>
<polygon fill="none" stroke="#000000" stroke-width="2" points="746,-116.1359 746,-622.1359 1044,-622.1359 1044,-116.1359 746,-116.1359"/>
</a>
</g>
</g>
<!-- cm_analysis&#45;&gt;cm_diagnostics_summary -->
<g id="edge23" class="edge">
<title>cm_analysis:w&#45;&gt;cm_diagnostics_summary:e</title>
<path fill="none" stroke="#000000" d="M524.852,-721.2865C555.0639,-730.4815 641,-756.6359 641,-756.6359 703.193,-726.3593 677.2924,-669.0593 737,-634.1359 737,-634.1359 1043,-587.1359 1043,-587.1359"/>
<polygon fill="#000000" stroke="#000000" points="514.1007,-722.1955 516.43,-714.5421 517.9607,-715.008 515.6313,-722.6614 514.1007,-722.1955"/>
<polyline fill="none" stroke="#000000" points="514.5,-718.1359 518.3267,-719.3006 "/>
<ellipse fill="none" stroke="#000000" cx="521.3881" cy="-720.2323" rx="3.2" ry="3.2"/>
</g>
<!-- cm_result -->
<g id="node17" class="node">
<title>cm_result</title>
<g id="a_node17"><a xlink:href="../../tables/cm_result.html" xlink:title="cm_result" target="_top">
<polygon fill="#ffffff" stroke="transparent" points="265,-690.6359 265,-751.6359 369,-751.6359 369,-690.6359 265,-690.6359"/>
<polygon fill="#f5f5f5" stroke="transparent" points="265,-728.1359 265,-751.1359 369,-751.1359 369,-728.1359 265,-728.1359"/>
<polygon fill="none" stroke="#000000" points="265,-728.1359 265,-751.1359 369,-751.1359 369,-728.1359 265,-728.1359"/>
<text text-anchor="start" x="270" y="-736.7359" font-family="Helvetica,sans-Serif" font-weight="bold" font-size="11.00" fill="#000000">cm_result</text>
<text text-anchor="start" x="334.5219" y="-736.2359" font-family="Helvetica,sans-Serif" font-size="11.00" fill="#000000">[table]</text>
<polygon fill="none" stroke="#000000" points="265,-709.1359 265,-728.1359 369,-728.1359 369,-709.1359 265,-709.1359"/>
<text text-anchor="start" x="268" y="-715.2359" font-family="Helvetica,sans-Serif" font-size="11.00" fill="#000000">...</text>
<polygon fill="#ffffff" stroke="transparent" points="265,-690.1359 265,-709.1359 298,-709.1359 298,-690.1359 265,-690.1359"/>
<polygon fill="none" stroke="#000000" points="265,-690.1359 265,-709.1359 298,-709.1359 298,-690.1359 265,-690.1359"/>
<text text-anchor="start" x="268" y="-696.2359" font-family="Helvetica,sans-Serif" font-size="11.00" fill="#000000">&lt; 3</text>
<polygon fill="#ffffff" stroke="transparent" points="298,-690.1359 298,-709.1359 342,-709.1359 342,-690.1359 298,-690.1359"/>
<polygon fill="none" stroke="#000000" points="298,-690.1359 298,-709.1359 342,-709.1359 342,-690.1359 298,-690.1359"/>
<text text-anchor="start" x="306.6105" y="-696.2359" font-family="Helvetica,sans-Serif" font-size="11.00" fill="#000000">0 rows</text>
<polygon fill="#ffffff" stroke="transparent" points="342,-690.1359 342,-709.1359 369,-709.1359 369,-690.1359 342,-690.1359"/>
<polygon fill="none" stroke="#000000" points="342,-690.1359 342,-709.1359 369,-709.1359 369,-690.1359 342,-690.1359"/>
<text text-anchor="start" x="350.4053" y="-696.2359" font-family="Helvetica,sans-Serif" font-size="11.00" fill="#000000">1 &gt;</text>
</a>
</g>
</g>
<!-- cm_analysis&#45;&gt;cm_result -->
<g id="edge24" class="edge">
<title>cm_analysis:w&#45;&gt;cm_result:e</title>
<path fill="none" stroke="#000000" d="M503.9609,-718.1359C447.8464,-718.1359 430.0039,-718.1359 369,-718.1359"/>
<polygon fill="#000000" stroke="#000000" points="513.7,-714.1359 513.7,-722.1359 512.1,-722.1359 512.1,-714.1359 513.7,-714.1359"/>
<polyline fill="none" stroke="#000000" points="514.5,-718.1359 510.5,-718.1359 "/>
<ellipse fill="none" stroke="#000000" cx="507.3" cy="-718.136" rx="3.2" ry="3.2"/>
</g>
<!-- cm_diagnostics_summary&#45;&gt;cg_cohort_definition -->
<g id="edge27" class="edge">
<title>cm_diagnostics_summary:w&#45;&gt;cg_cohort_definition:e</title>
<path fill="none" stroke="#000000" d="M733.2123,-503.4496C721.5748,-513.0322 723.6801,-536.0394 704,-546.1359 512.4025,-644.4311 375.1355,-458.7422 224,-612.1359 179.8752,-656.92 246.3697,-892.1359 183.5,-892.1359"/>
<polygon fill="#000000" stroke="#000000" points="739.365,-501.5247 748.075,-502.5717 743.1825,-500.3303 747,-499.1359 747,-499.1359 747,-499.1359 743.1825,-500.3303 745.925,-495.7001 739.365,-501.5247 739.365,-501.5247"/>
<ellipse fill="none" stroke="#000000" cx="736.3109" cy="-502.4802" rx="3.2" ry="3.2"/>
</g>
<!-- cm_diagnostics_summary&#45;&gt;cg_cohort_definition -->
<g id="edge29" class="edge">
<title>cm_diagnostics_summary:w&#45;&gt;cg_cohort_definition:e</title>
<path fill="none" stroke="#000000" d="M733.3561,-262.6688C698.3078,-297.2486 743.7302,-483.3514 704,-519.1359 624.6077,-590.6437 301.7335,-473.8284 224,-547.1359 167.8409,-600.0975 260.6931,-892.1359 183.5,-892.1359"/>
<polygon fill="#000000" stroke="#000000" points="739.5864,-260.1423 748.3529,-260.472 743.2932,-258.6391 747,-257.1359 747,-257.1359 747,-257.1359 743.2932,-258.6391 745.6471,-253.7998 739.5864,-260.1423 739.5864,-260.1423"/>
<ellipse fill="none" stroke="#000000" cx="736.6209" cy="-261.3449" rx="3.2" ry="3.2"/>
</g>
<!-- cm_diagnostics_summary&#45;&gt;cg_cohort_definition -->
<g id="edge30" class="edge">
<title>cm_diagnostics_summary:w&#45;&gt;cg_cohort_definition:e</title>
<path fill="none" stroke="#000000" d="M732.3872,-191.5383C547.5212,-201.9706 588.4733,-412.4653 410,-495.1359 372.1576,-512.6649 253.1165,-490.2773 224,-520.1359 165.9449,-579.6706 266.6551,-892.1359 183.5,-892.1359"/>
<polygon fill="#000000" stroke="#000000" points="739.003,-191.3562 747.0991,-194.7345 743.0015,-191.246 747,-191.1359 747,-191.1359 747,-191.1359 743.0015,-191.246 746.9009,-187.5373 739.003,-191.3562 739.003,-191.3562"/>
<ellipse fill="none" stroke="#000000" cx="735.8042" cy="-191.4443" rx="3.2" ry="3.2"/>
</g>
<!-- cm_diagnostics_summary&#45;&gt;database_meta_data -->
<g id="edge28" class="edge">
<title>cm_diagnostics_summary:w&#45;&gt;database_meta_data:e</title>
<path fill="none" stroke="#000000" d="M734.8082,-485.0078C685.1973,-559.4723 765.3073,-1137.1359 696.5,-1137.1359"/>
<polygon fill="#000000" stroke="#000000" points="740.2792,-481.4754 748.9528,-480.1603 743.6396,-479.3056 747,-477.1359 747,-477.1359 747,-477.1359 743.6396,-479.3056 745.0472,-474.1115 740.2792,-481.4754 740.2792,-481.4754"/>
<ellipse fill="none" stroke="#000000" cx="737.5908" cy="-483.2111" rx="3.2" ry="3.2"/>
</g>
<!-- cm_diagnostics_summary&#45;&gt;cm_analysis -->
<g id="edge26" class="edge">
<title>cm_diagnostics_summary:w&#45;&gt;cm_analysis:e</title>
<path fill="none" stroke="#000000" d="M736.6414,-588.625C713.2554,-596.4996 725.5416,-633.8789 704,-659.1359 677.4861,-690.2228 674.3581,-718.1359 633.5,-718.1359"/>
<polygon fill="#000000" stroke="#000000" points="745.6389,-583.2905 746.7774,-591.209 745.1936,-591.4367 744.0552,-583.5181 745.6389,-583.2905"/>
<polyline fill="none" stroke="#000000" points="747,-587.1359 743.0407,-587.7051 "/>
<ellipse fill="none" stroke="#000000" cx="739.8733" cy="-588.1605" rx="3.2" ry="3.2"/>
</g>
<!-- cm_covariate_balance -->
<g id="node18" class="node">
<title>cm_covariate_balance</title>
<g id="a_node18"><a xlink:href="../../tables/cm_covariate_balance.html" xlink:title="cm_covariate_balance" target="_top">
<polygon fill="#ffffff" stroke="transparent" points="802,-1027.6359 802,-1088.6359 988,-1088.6359 988,-1027.6359 802,-1027.6359"/>
<polygon fill="#f5f5f5" stroke="transparent" points="802,-1065.1359 802,-1088.1359 988,-1088.1359 988,-1065.1359 802,-1065.1359"/>
<polygon fill="none" stroke="#000000" points="802,-1065.1359 802,-1088.1359 988,-1088.1359 988,-1065.1359 802,-1065.1359"/>
<text text-anchor="start" x="807" y="-1073.7359" font-family="Helvetica,sans-Serif" font-weight="bold" font-size="11.00" fill="#000000">cm_covariate_balance</text>
<text text-anchor="start" x="953.5219" y="-1073.2359" font-family="Helvetica,sans-Serif" font-size="11.00" fill="#000000">[table]</text>
<polygon fill="none" stroke="#000000" points="802,-1046.1359 802,-1065.1359 988,-1065.1359 988,-1046.1359 802,-1046.1359"/>
<text text-anchor="start" x="805" y="-1052.2359" font-family="Helvetica,sans-Serif" font-size="11.00" fill="#000000">...</text>
<polygon fill="#ffffff" stroke="transparent" points="802,-1027.1359 802,-1046.1359 880,-1046.1359 880,-1027.1359 802,-1027.1359"/>
<polygon fill="none" stroke="#000000" points="802,-1027.1359 802,-1046.1359 880,-1046.1359 880,-1027.1359 802,-1027.1359"/>
<text text-anchor="start" x="805" y="-1033.2359" font-family="Helvetica,sans-Serif" font-size="11.00" fill="#000000">&lt; 4</text>
<polygon fill="#ffffff" stroke="transparent" points="880,-1027.1359 880,-1046.1359 947,-1046.1359 947,-1027.1359 880,-1027.1359"/>
<polygon fill="none" stroke="#000000" points="880,-1027.1359 880,-1046.1359 947,-1046.1359 947,-1027.1359 880,-1027.1359"/>
<text text-anchor="start" x="911.6105" y="-1033.2359" font-family="Helvetica,sans-Serif" font-size="11.00" fill="#000000">0 rows</text>
<polygon fill="#ffffff" stroke="transparent" points="947,-1027.1359 947,-1046.1359 988,-1046.1359 988,-1027.1359 947,-1027.1359"/>
<polygon fill="none" stroke="#000000" points="947,-1027.1359 947,-1046.1359 988,-1046.1359 988,-1027.1359 947,-1027.1359"/>
<text text-anchor="start" x="978.8862" y="-1033.2359" font-family="Helvetica,sans-Serif" font-size="11.00" fill="#000000"> &#160;</text>
</a>
</g>
</g>
<!-- cm_covariate_balance&#45;&gt;database_meta_data -->
<g id="edge25" class="edge">
<title>cm_covariate_balance:w&#45;&gt;database_meta_data:e</title>
<path fill="none" stroke="#000000" d="M787.471,-1056.7526C765.5716,-1062.2417 759.8859,-1080.8432 737,-1099.1359 717.7195,-1114.5469 721.1827,-1137.1359 696.5,-1137.1359"/>
<polygon fill="#000000" stroke="#000000" points="794.0491,-1056.0207 802.3981,-1058.7138 798.0245,-1055.5783 802,-1055.1359 802,-1055.1359 802,-1055.1359 798.0245,-1055.5783 801.6019,-1051.558 794.0491,-1056.0207 794.0491,-1056.0207"/>
<ellipse fill="none" stroke="#000000" cx="790.8687" cy="-1056.3746" rx="3.2" ry="3.2"/>
</g>
<!-- plp_cohorts -->
<g id="node19" class="node">
<title>plp_cohorts</title>
<g id="a_node19"><a xlink:href="../../tables/plp_cohorts.html" xlink:title="plp_cohorts" target="_top">
<polygon fill="#ffffff" stroke="transparent" points="258.5,-423.6359 258.5,-484.6359 375.5,-484.6359 375.5,-423.6359 258.5,-423.6359"/>
<polygon fill="#f5f5f5" stroke="transparent" points="259,-461.1359 259,-484.1359 376,-484.1359 376,-461.1359 259,-461.1359"/>
<polygon fill="none" stroke="#000000" points="259,-461.1359 259,-484.1359 376,-484.1359 376,-461.1359 259,-461.1359"/>
<text text-anchor="start" x="264" y="-469.7359" font-family="Helvetica,sans-Serif" font-weight="bold" font-size="11.00" fill="#000000">plp_cohorts</text>
<text text-anchor="start" x="341.5219" y="-469.2359" font-family="Helvetica,sans-Serif" font-size="11.00" fill="#000000">[table]</text>
<polygon fill="none" stroke="#000000" points="259,-442.1359 259,-461.1359 376,-461.1359 376,-442.1359 259,-442.1359"/>
<text text-anchor="start" x="262" y="-448.2359" font-family="Helvetica,sans-Serif" font-size="11.00" fill="#000000">...</text>
<polygon fill="#ffffff" stroke="transparent" points="259,-423.1359 259,-442.1359 298,-442.1359 298,-423.1359 259,-423.1359"/>
<polygon fill="none" stroke="#000000" points="259,-423.1359 259,-442.1359 298,-442.1359 298,-423.1359 259,-423.1359"/>
<text text-anchor="start" x="262" y="-429.2359" font-family="Helvetica,sans-Serif" font-size="11.00" fill="#000000">&lt; 1</text>
<polygon fill="#ffffff" stroke="transparent" points="298,-423.1359 298,-442.1359 345,-442.1359 345,-423.1359 298,-423.1359"/>
<polygon fill="none" stroke="#000000" points="298,-423.1359 298,-442.1359 345,-442.1359 345,-423.1359 298,-423.1359"/>
<text text-anchor="start" x="309.6105" y="-429.2359" font-family="Helvetica,sans-Serif" font-size="11.00" fill="#000000">0 rows</text>
<polygon fill="#ffffff" stroke="transparent" points="345,-423.1359 345,-442.1359 376,-442.1359 376,-423.1359 345,-423.1359"/>
<polygon fill="none" stroke="#000000" points="345,-423.1359 345,-442.1359 376,-442.1359 376,-423.1359 345,-423.1359"/>
<text text-anchor="start" x="357.4053" y="-429.2359" font-family="Helvetica,sans-Serif" font-size="11.00" fill="#000000">2 &gt;</text>
</a>
</g>
</g>
<!-- plp_cohorts&#45;&gt;cg_cohort_definition -->
<g id="edge32" class="edge">
<title>plp_cohorts:w&#45;&gt;cg_cohort_definition:e</title>
<path fill="none" stroke="#000000" d="M248.4773,-452.762C232.6145,-458.4645 231.9801,-478.3373 224,-499.1359 208.2748,-540.1206 227.3979,-892.1359 183.5,-892.1359"/>
<polygon fill="#000000" stroke="#000000" points="257.5985,-447.305 258.8203,-455.2112 257.2391,-455.4555 256.0172,-447.5494 257.5985,-447.305"/>
<polyline fill="none" stroke="#000000" points="259,-451.1359 255.0469,-451.7468 "/>
<ellipse fill="none" stroke="#000000" cx="251.8845" cy="-452.2355" rx="3.2" ry="3.2"/>
</g>
<!-- plp_diagnostics -->
<g id="node20" class="node">
<title>plp_diagnostics</title>
<g id="a_node20"><a xlink:href="../../tables/plp_diagnostics.html" xlink:title="plp_diagnostics" target="_top">
<polygon fill="#ffffff" stroke="transparent" points="823.5,-945.6359 823.5,-1006.6359 966.5,-1006.6359 966.5,-945.6359 823.5,-945.6359"/>
<polygon fill="#f5f5f5" stroke="transparent" points="824,-983.1359 824,-1006.1359 967,-1006.1359 967,-983.1359 824,-983.1359"/>
<polygon fill="none" stroke="#000000" points="824,-983.1359 824,-1006.1359 967,-1006.1359 967,-983.1359 824,-983.1359"/>
<text text-anchor="start" x="829" y="-991.7359" font-family="Helvetica,sans-Serif" font-weight="bold" font-size="11.00" fill="#000000">plp_diagnostics</text>
<text text-anchor="start" x="932.5219" y="-991.2359" font-family="Helvetica,sans-Serif" font-size="11.00" fill="#000000">[table]</text>
<polygon fill="none" stroke="#000000" points="824,-964.1359 824,-983.1359 967,-983.1359 967,-964.1359 824,-964.1359"/>
<text text-anchor="start" x="827" y="-970.2359" font-family="Helvetica,sans-Serif" font-size="11.00" fill="#000000">...</text>
<polygon fill="#ffffff" stroke="transparent" points="824,-945.1359 824,-964.1359 881,-964.1359 881,-945.1359 824,-945.1359"/>
<polygon fill="none" stroke="#000000" points="824,-945.1359 824,-964.1359 881,-964.1359 881,-945.1359 824,-945.1359"/>
<text text-anchor="start" x="827" y="-951.2359" font-family="Helvetica,sans-Serif" font-size="11.00" fill="#000000">&lt; 3</text>
<polygon fill="#ffffff" stroke="transparent" points="881,-945.1359 881,-964.1359 937,-964.1359 937,-945.1359 881,-945.1359"/>
<polygon fill="none" stroke="#000000" points="881,-945.1359 881,-964.1359 937,-964.1359 937,-945.1359 881,-945.1359"/>
<text text-anchor="start" x="901.6105" y="-951.2359" font-family="Helvetica,sans-Serif" font-size="11.00" fill="#000000">0 rows</text>
<polygon fill="#ffffff" stroke="transparent" points="937,-945.1359 937,-964.1359 967,-964.1359 967,-945.1359 937,-945.1359"/>
<polygon fill="none" stroke="#000000" points="937,-945.1359 937,-964.1359 967,-964.1359 967,-945.1359 937,-945.1359"/>
<text text-anchor="start" x="957.8862" y="-951.2359" font-family="Helvetica,sans-Serif" font-size="11.00" fill="#000000"> &#160;</text>
</a>
</g>
</g>
<!-- plp_diagnostics&#45;&gt;database_meta_data -->
<g id="edge33" class="edge">
<title>plp_diagnostics:w&#45;&gt;database_meta_data:e</title>
<path fill="none" stroke="#000000" d="M809.4192,-973.6492C776.7739,-976.1766 761.9402,-988.3551 737,-1017.1359 700.1373,-1059.6751 752.7889,-1137.1359 696.5,-1137.1359"/>
<polygon fill="#000000" stroke="#000000" points="816.005,-973.4174 824.1267,-976.7337 820.0025,-973.2767 824,-973.1359 824,-973.1359 824,-973.1359 820.0025,-973.2767 823.8733,-969.5381 816.005,-973.4174 816.005,-973.4174"/>
<ellipse fill="none" stroke="#000000" cx="812.8069" cy="-973.53" rx="3.2" ry="3.2"/>
</g>
<!-- plp_performances -->
<g id="node21" class="node">
<title>plp_performances</title>
<g id="a_node21"><a xlink:href="../../tables/plp_performances.html" xlink:title="plp_performances" target="_top">
<polygon fill="#ffffff" stroke="transparent" points="815.5,-1683.6359 815.5,-1744.6359 974.5,-1744.6359 974.5,-1683.6359 815.5,-1683.6359"/>
<polygon fill="#f5f5f5" stroke="transparent" points="816,-1721.1359 816,-1744.1359 975,-1744.1359 975,-1721.1359 816,-1721.1359"/>
<polygon fill="none" stroke="#000000" points="816,-1721.1359 816,-1744.1359 975,-1744.1359 975,-1721.1359 816,-1721.1359"/>
<text text-anchor="start" x="821" y="-1729.7359" font-family="Helvetica,sans-Serif" font-weight="bold" font-size="11.00" fill="#000000">plp_performances</text>
<text text-anchor="start" x="940.5219" y="-1729.2359" font-family="Helvetica,sans-Serif" font-size="11.00" fill="#000000">[table]</text>
<polygon fill="none" stroke="#000000" points="816,-1702.1359 816,-1721.1359 975,-1721.1359 975,-1702.1359 816,-1702.1359"/>
<text text-anchor="start" x="819" y="-1708.2359" font-family="Helvetica,sans-Serif" font-size="11.00" fill="#000000">...</text>
<polygon fill="#ffffff" stroke="transparent" points="816,-1683.1359 816,-1702.1359 881,-1702.1359 881,-1683.1359 816,-1683.1359"/>
<polygon fill="none" stroke="#000000" points="816,-1683.1359 816,-1702.1359 881,-1702.1359 881,-1683.1359 816,-1683.1359"/>
<text text-anchor="start" x="819" y="-1689.2359" font-family="Helvetica,sans-Serif" font-size="11.00" fill="#000000">&lt; 4</text>
<polygon fill="#ffffff" stroke="transparent" points="881,-1683.1359 881,-1702.1359 941,-1702.1359 941,-1683.1359 881,-1683.1359"/>
<polygon fill="none" stroke="#000000" points="881,-1683.1359 881,-1702.1359 941,-1702.1359 941,-1683.1359 881,-1683.1359"/>
<text text-anchor="start" x="905.6105" y="-1689.2359" font-family="Helvetica,sans-Serif" font-size="11.00" fill="#000000">0 rows</text>
<polygon fill="#ffffff" stroke="transparent" points="941,-1683.1359 941,-1702.1359 975,-1702.1359 975,-1683.1359 941,-1683.1359"/>
<polygon fill="none" stroke="#000000" points="941,-1683.1359 941,-1702.1359 975,-1702.1359 975,-1683.1359 941,-1683.1359"/>
<text text-anchor="start" x="965.8862" y="-1689.2359" font-family="Helvetica,sans-Serif" font-size="11.00" fill="#000000"> &#160;</text>
</a>
</g>
</g>
<!-- plp_performances&#45;&gt;cg_cohort_definition -->
<g id="edge35" class="edge">
<title>plp_performances:w&#45;&gt;cg_cohort_definition:e</title>
<path fill="none" stroke="#000000" d="M801.1961,-1711.0918C511.1191,-1709.3347 352.4007,-1654.2164 224,-1389.1359 199.8469,-1339.2724 238.9053,-892.1359 183.5,-892.1359"/>
<polygon fill="#000000" stroke="#000000" points="808,-1711.112 815.9892,-1714.7359 812,-1711.124 816,-1711.1359 816,-1711.1359 816,-1711.1359 812,-1711.124 816.0108,-1707.5359 808,-1711.112 808,-1711.112"/>
<ellipse fill="none" stroke="#000000" cx="804.8" cy="-1711.1025" rx="3.2" ry="3.2"/>
</g>
<!-- plp_performances&#45;&gt;cg_cohort_definition -->
<g id="edge36" class="edge">
<title>plp_performances:w&#45;&gt;cg_cohort_definition:e</title>
<path fill="none" stroke="#000000" d="M801.5877,-1711.0923C510.4235,-1709.3046 351.6278,-1651.6829 224,-1385.1359 200.2637,-1335.5633 238.4623,-892.1359 183.5,-892.1359"/>
<polygon fill="#000000" stroke="#000000" points="808,-1711.1117 815.9891,-1714.7359 812,-1711.1238 816,-1711.1359 816,-1711.1359 816,-1711.1359 812,-1711.1238 816.0109,-1707.5359 808,-1711.1117 808,-1711.1117"/>
<ellipse fill="none" stroke="#000000" cx="804.8001" cy="-1711.102" rx="3.2" ry="3.2"/>
</g>
<!-- plp_performances&#45;&gt;database_meta_data -->
<g id="edge34" class="edge">
<title>plp_performances:w&#45;&gt;database_meta_data:e</title>
<path fill="none" stroke="#000000" d="M801.5235,-1708.6926C772.1689,-1703.125 756.048,-1695.042 737,-1667.1359 703.3291,-1617.8066 756.2253,-1131.1359 696.5,-1137.1359"/>
<polygon fill="#000000" stroke="#000000" points="808.1116,-1709.8045 815.4009,-1714.6857 812.0558,-1710.4702 816,-1711.1359 816,-1711.1359 816,-1711.1359 812.0558,-1710.4702 816.5991,-1707.5861 808.1116,-1709.8045 808.1116,-1709.8045"/>
<ellipse fill="none" stroke="#000000" cx="804.9562" cy="-1709.2719" rx="3.2" ry="3.2"/>
</g>
<!-- plp_performances&#45;&gt;database_meta_data -->
<g id="edge37" class="edge">
<title>plp_performances:w&#45;&gt;database_meta_data:e</title>
<path fill="none" stroke="#000000" d="M801.5235,-1713.2148C772.1689,-1716.125 756.048,-1708.042 737,-1680.1359 703.3291,-1630.8066 756.2253,-1144.1359 696.5,-1137.1359"/>
<polygon fill="#000000" stroke="#000000" points="808.0812,-1712.2732 816.5118,-1714.6994 812.0406,-1711.7045 816,-1711.1359 816,-1711.1359 816,-1711.1359 812.0406,-1711.7045 815.4882,-1707.5725 808.0812,-1712.2732 808.0812,-1712.2732"/>
<ellipse fill="none" stroke="#000000" cx="804.9137" cy="-1712.728" rx="3.2" ry="3.2"/>
</g>
<!-- sccs_diagnostics_summary -->
<g id="node22" class="node">
<title>sccs_diagnostics_summary</title>
<g id="a_node22"><a xlink:href="../../tables/sccs_diagnostics_summary.html" xlink:title="sccs_diagnostics_summary" target="_top">
<polygon fill="#ffffff" stroke="transparent" points="785.5,-644.6359 785.5,-705.6359 1004.5,-705.6359 1004.5,-644.6359 785.5,-644.6359"/>
<polygon fill="#f5f5f5" stroke="transparent" points="786,-682.1359 786,-705.1359 1005,-705.1359 1005,-682.1359 786,-682.1359"/>
<polygon fill="none" stroke="#000000" points="786,-682.1359 786,-705.1359 1005,-705.1359 1005,-682.1359 786,-682.1359"/>
<text text-anchor="start" x="791" y="-690.7359" font-family="Helvetica,sans-Serif" font-weight="bold" font-size="11.00" fill="#000000">sccs_diagnostics_summary</text>
<text text-anchor="start" x="970.5219" y="-690.2359" font-family="Helvetica,sans-Serif" font-size="11.00" fill="#000000">[table]</text>
<polygon fill="none" stroke="#000000" points="786,-663.1359 786,-682.1359 1005,-682.1359 1005,-663.1359 786,-663.1359"/>
<text text-anchor="start" x="789" y="-669.2359" font-family="Helvetica,sans-Serif" font-size="11.00" fill="#000000">...</text>
<polygon fill="#ffffff" stroke="transparent" points="786,-644.1359 786,-663.1359 876,-663.1359 876,-644.1359 786,-644.1359"/>
<polygon fill="none" stroke="#000000" points="786,-644.1359 786,-663.1359 876,-663.1359 876,-644.1359 786,-644.1359"/>
<text text-anchor="start" x="789" y="-650.2359" font-family="Helvetica,sans-Serif" font-size="11.00" fill="#000000">&lt; 7</text>
<polygon fill="#ffffff" stroke="transparent" points="876,-644.1359 876,-663.1359 949,-663.1359 949,-644.1359 876,-644.1359"/>
<polygon fill="none" stroke="#000000" points="876,-644.1359 876,-663.1359 949,-663.1359 949,-644.1359 876,-644.1359"/>
<text text-anchor="start" x="913.6105" y="-650.2359" font-family="Helvetica,sans-Serif" font-size="11.00" fill="#000000">0 rows</text>
<polygon fill="#ffffff" stroke="transparent" points="949,-644.1359 949,-663.1359 1005,-663.1359 1005,-644.1359 949,-644.1359"/>
<polygon fill="none" stroke="#000000" points="949,-644.1359 949,-663.1359 1005,-663.1359 1005,-644.1359 949,-644.1359"/>
<text text-anchor="start" x="986.4053" y="-650.2359" font-family="Helvetica,sans-Serif" font-size="11.00" fill="#000000">4 &gt;</text>
</a>
</g>
</g>
<!-- sccs_diagnostics_summary&#45;&gt;database_meta_data -->
<g id="edge38" class="edge">
<title>sccs_diagnostics_summary:w&#45;&gt;database_meta_data:e</title>
<path fill="none" stroke="#000000" d="M771.4851,-674.0327C753.9834,-679.2798 747.6658,-695.0085 737,-716.1359 715.8217,-758.087 743.4937,-1137.1359 696.5,-1137.1359"/>
<polygon fill="#000000" stroke="#000000" points="778.0674,-673.1726 786.4665,-675.7056 782.0337,-672.6542 786,-672.1359 786,-672.1359 786,-672.1359 782.0337,-672.6542 785.5335,-668.5663 778.0674,-673.1726 778.0674,-673.1726"/>
<ellipse fill="none" stroke="#000000" cx="774.8944" cy="-673.5873" rx="3.2" ry="3.2"/>
</g>
<!-- sccs_exposures_outcome_set -->
<g id="node23" class="node">
<title>sccs_exposures_outcome_set</title>
<g id="a_node23"><a xlink:href="../../tables/sccs_exposures_outcome_set.html" xlink:title="sccs_exposures_outcome_set" target="_top">
<polygon fill="#ffffff" stroke="transparent" points="456.5,-587.6359 456.5,-648.6359 690.5,-648.6359 690.5,-587.6359 456.5,-587.6359"/>
<polygon fill="#f5f5f5" stroke="transparent" points="456.5,-625.1359 456.5,-648.1359 690.5,-648.1359 690.5,-625.1359 456.5,-625.1359"/>
<polygon fill="none" stroke="#000000" points="456.5,-625.1359 456.5,-648.1359 690.5,-648.1359 690.5,-625.1359 456.5,-625.1359"/>
<text text-anchor="start" x="461.5" y="-633.7359" font-family="Helvetica,sans-Serif" font-weight="bold" font-size="11.00" fill="#000000">sccs_exposures_outcome_set</text>
<text text-anchor="start" x="656.0219" y="-633.2359" font-family="Helvetica,sans-Serif" font-size="11.00" fill="#000000">[table]</text>
<polygon fill="none" stroke="#000000" points="456.5,-606.1359 456.5,-625.1359 690.5,-625.1359 690.5,-606.1359 456.5,-606.1359"/>
<text text-anchor="start" x="459.5" y="-612.2359" font-family="Helvetica,sans-Serif" font-size="11.00" fill="#000000">...</text>
<polygon fill="#ffffff" stroke="transparent" points="456.5,-587.1359 456.5,-606.1359 551.5,-606.1359 551.5,-587.1359 456.5,-587.1359"/>
<polygon fill="none" stroke="#000000" points="456.5,-587.1359 456.5,-606.1359 551.5,-606.1359 551.5,-587.1359 456.5,-587.1359"/>
<text text-anchor="start" x="459.5" y="-593.2359" font-family="Helvetica,sans-Serif" font-size="11.00" fill="#000000">&lt; 3</text>
<polygon fill="#ffffff" stroke="transparent" points="551.5,-587.1359 551.5,-606.1359 626.5,-606.1359 626.5,-587.1359 551.5,-587.1359"/>
<polygon fill="none" stroke="#000000" points="551.5,-587.1359 551.5,-606.1359 626.5,-606.1359 626.5,-587.1359 551.5,-587.1359"/>
<text text-anchor="start" x="591.1105" y="-593.2359" font-family="Helvetica,sans-Serif" font-size="11.00" fill="#000000">0 rows</text>
<polygon fill="#ffffff" stroke="transparent" points="626.5,-587.1359 626.5,-606.1359 690.5,-606.1359 690.5,-587.1359 626.5,-587.1359"/>
<polygon fill="none" stroke="#000000" points="626.5,-587.1359 626.5,-606.1359 690.5,-606.1359 690.5,-587.1359 626.5,-587.1359"/>
<text text-anchor="start" x="665.7904" y="-593.2359" font-family="Helvetica,sans-Serif" font-size="11.00" fill="#000000">10 &gt;</text>
</a>
</g>
</g>
<!-- sccs_diagnostics_summary&#45;&gt;sccs_exposures_outcome_set -->
<g id="edge39" class="edge">
<title>sccs_diagnostics_summary:w&#45;&gt;sccs_exposures_outcome_set:e</title>
<path fill="none" stroke="#000000" d="M771.5372,-670.2394C736.6736,-660.349 734.5234,-615.1359 690.5,-615.1359"/>
<polygon fill="#000000" stroke="#000000" points="778.0679,-671.0957 785.5319,-675.7054 782.034,-671.6158 786,-672.1359 786,-672.1359 786,-672.1359 782.034,-671.6158 786.4681,-668.5665 778.0679,-671.0957 778.0679,-671.0957"/>
<ellipse fill="none" stroke="#000000" cx="774.8951" cy="-670.6797" rx="3.2" ry="3.2"/>
</g>
<!-- sccs_exposures_outcome_set&#45;&gt;cg_cohort_definition -->
<g id="edge40" class="edge">
<title>sccs_exposures_outcome_set:w&#45;&gt;cg_cohort_definition:e</title>
<path fill="none" stroke="#000000" d="M442.0645,-615.0579C344.3354,-614.0482 293.2897,-604.7785 224,-680.1359 159.0724,-750.7492 279.4262,-892.1359 183.5,-892.1359"/>
<polygon fill="#000000" stroke="#000000" points="448.5001,-615.0926 456.4805,-618.7359 452.5001,-615.1143 456.5,-615.1359 456.5,-615.1359 456.5,-615.1359 452.5001,-615.1143 456.5195,-611.536 448.5001,-615.0926 448.5001,-615.0926"/>
<ellipse fill="none" stroke="#000000" cx="445.3002" cy="-615.0753" rx="3.2" ry="3.2"/>
</g>
<!-- sccs_result -->
<g id="node24" class="node">
<title>sccs_result</title>
<g id="a_node24"><a xlink:href="../../tables/sccs_result.html" xlink:title="sccs_result" target="_top">
<polygon fill="#ffffff" stroke="transparent" points="1139,-644.6359 1139,-705.6359 1252,-705.6359 1252,-644.6359 1139,-644.6359"/>
<polygon fill="#f5f5f5" stroke="transparent" points="1139.5,-682.1359 1139.5,-705.1359 1252.5,-705.1359 1252.5,-682.1359 1139.5,-682.1359"/>
<polygon fill="none" stroke="#000000" points="1139.5,-682.1359 1139.5,-705.1359 1252.5,-705.1359 1252.5,-682.1359 1139.5,-682.1359"/>
<text text-anchor="start" x="1144.5" y="-690.7359" font-family="Helvetica,sans-Serif" font-weight="bold" font-size="11.00" fill="#000000">sccs_result</text>
<text text-anchor="start" x="1218.0219" y="-690.2359" font-family="Helvetica,sans-Serif" font-size="11.00" fill="#000000">[table]</text>
<polygon fill="none" stroke="#000000" points="1139.5,-663.1359 1139.5,-682.1359 1252.5,-682.1359 1252.5,-663.1359 1139.5,-663.1359"/>
<text text-anchor="start" x="1142.5" y="-669.2359" font-family="Helvetica,sans-Serif" font-size="11.00" fill="#000000">...</text>
<polygon fill="#ffffff" stroke="transparent" points="1139.5,-644.1359 1139.5,-663.1359 1184.5,-663.1359 1184.5,-644.1359 1139.5,-644.1359"/>
<polygon fill="none" stroke="#000000" points="1139.5,-644.1359 1139.5,-663.1359 1184.5,-663.1359 1184.5,-644.1359 1139.5,-644.1359"/>
<text text-anchor="start" x="1142.5" y="-650.2359" font-family="Helvetica,sans-Serif" font-size="11.00" fill="#000000">&lt; 12</text>
<polygon fill="#ffffff" stroke="transparent" points="1184.5,-644.1359 1184.5,-663.1359 1231.5,-663.1359 1231.5,-644.1359 1184.5,-644.1359"/>
<polygon fill="none" stroke="#000000" points="1184.5,-644.1359 1184.5,-663.1359 1231.5,-663.1359 1231.5,-644.1359 1184.5,-644.1359"/>
<text text-anchor="start" x="1196.1105" y="-650.2359" font-family="Helvetica,sans-Serif" font-size="11.00" fill="#000000">0 rows</text>
<polygon fill="#ffffff" stroke="transparent" points="1231.5,-644.1359 1231.5,-663.1359 1252.5,-663.1359 1252.5,-644.1359 1231.5,-644.1359"/>
<polygon fill="none" stroke="#000000" points="1231.5,-644.1359 1231.5,-663.1359 1252.5,-663.1359 1252.5,-644.1359 1231.5,-644.1359"/>
<text text-anchor="start" x="1243.3862" y="-650.2359" font-family="Helvetica,sans-Serif" font-size="11.00" fill="#000000"> &#160;</text>
</a>
</g>
</g>
<!-- sccs_result&#45;&gt;database_meta_data -->
<g id="edge43" class="edge">
<title>sccs_result:w&#45;&gt;database_meta_data:e</title>
<path fill="none" stroke="#000000" d="M1124.7539,-673.4256C1049.1203,-688.0658 1128.8043,-823.4679 1053,-880.1359 996.4317,-922.4239 788.7177,-866.0368 737,-914.1359 663.2377,-982.7372 797.2324,-1137.1359 696.5,-1137.1359"/>
<polygon fill="#000000" stroke="#000000" points="1131.5304,-672.833 1139.8137,-675.7222 1135.5152,-672.4845 1139.5,-672.1359 1139.5,-672.1359 1139.5,-672.1359 1135.5152,-672.4845 1139.1863,-668.5496 1131.5304,-672.833 1131.5304,-672.833"/>
<ellipse fill="none" stroke="#000000" cx="1128.3426" cy="-673.1118" rx="3.2" ry="3.2"/>
</g>
<!-- sccs_result&#45;&gt;sccs_diagnostics_summary -->
<g id="edge41" class="edge">
<title>sccs_result:w&#45;&gt;sccs_diagnostics_summary:e</title>
<path fill="none" stroke="#000000" d="M1125.6446,-667.8437C1076.9687,-653.2638 1059.8741,-654.6945 1005,-672.1359"/>
<polygon fill="#000000" stroke="#000000" points="1131.8583,-669.7686 1138.4347,-675.5747 1135.6791,-670.9522 1139.5,-672.1359 1139.5,-672.1359 1139.5,-672.1359 1135.6791,-670.9522 1140.5653,-668.6971 1131.8583,-669.7686 1131.8583,-669.7686"/>
<ellipse fill="none" stroke="#000000" cx="1128.8016" cy="-668.8216" rx="3.2" ry="3.2"/>
</g>
<!-- sccs_result&#45;&gt;sccs_diagnostics_summary -->
<g id="edge42" class="edge">
<title>sccs_result:w&#45;&gt;sccs_diagnostics_summary:e</title>
<path fill="none" stroke="#000000" d="M1125.0249,-670.722C1076.8225,-666.1802 1059.6406,-666.6515 1005,-672.1359"/>
<polygon fill="#000000" stroke="#000000" points="1131.5379,-671.3581 1139.15,-675.7189 1135.5189,-671.747 1139.5,-672.1359 1139.5,-672.1359 1139.5,-672.1359 1135.5189,-671.747 1139.85,-668.553 1131.5379,-671.3581 1131.5379,-671.3581"/>
<ellipse fill="none" stroke="#000000" cx="1128.3531" cy="-671.047" rx="3.2" ry="3.2"/>
</g>
<!-- sccs_result&#45;&gt;sccs_diagnostics_summary -->
<g id="edge44" class="edge">
<title>sccs_result:w&#45;&gt;sccs_diagnostics_summary:e</title>
<path fill="none" stroke="#000000" d="M1125.0249,-673.7855C1076.8225,-679.0842 1059.6406,-678.5343 1005,-672.1359"/>
<polygon fill="#000000" stroke="#000000" points="1131.5514,-673.0418 1139.9076,-675.7128 1135.5257,-672.5888 1139.5,-672.1359 1139.5,-672.1359 1139.5,-672.1359 1135.5257,-672.5888 1139.0924,-668.5591 1131.5514,-673.0418 1131.5514,-673.0418"/>
<ellipse fill="none" stroke="#000000" cx="1128.372" cy="-673.4041" rx="3.2" ry="3.2"/>
</g>
<!-- sccs_result&#45;&gt;sccs_diagnostics_summary -->
<g id="edge45" class="edge">
<title>sccs_result:w&#45;&gt;sccs_diagnostics_summary:e</title>
<path fill="none" stroke="#000000" d="M1125.6446,-676.654C1076.9687,-692.0013 1059.8741,-690.4953 1005,-672.1359"/>
<polygon fill="#000000" stroke="#000000" points="1131.8942,-674.6161 1140.6161,-675.5585 1135.6971,-673.376 1139.5,-672.1359 1139.5,-672.1359 1139.5,-672.1359 1135.6971,-673.376 1138.3839,-668.7133 1131.8942,-674.6161 1131.8942,-674.6161"/>
<ellipse fill="none" stroke="#000000" cx="1128.8518" cy="-675.6082" rx="3.2" ry="3.2"/>
</g>
<!-- sccs_result&#45;&gt;sccs_exposures_outcome_set -->
<g id="edge46" class="edge">
<title>sccs_result:w&#45;&gt;sccs_exposures_outcome_set:e</title>
<path fill="none" stroke="#000000" d="M1125.0961,-669.7504C1022.7491,-633.0434 1145.8676,-183.9315 1053,-104.1359 946.4771,-12.6071 840.7115,-9.4334 737,-104.1359 652.7982,-181.0234 804.5247,-615.1359 690.5,-615.1359"/>
<polygon fill="#000000" stroke="#000000" points="1131.6075,-670.8287 1138.9118,-675.6875 1135.5538,-671.4823 1139.5,-672.1359 1139.5,-672.1359 1139.5,-672.1359 1135.5538,-671.4823 1140.0882,-668.5843 1131.6075,-670.8287 1131.6075,-670.8287"/>
<ellipse fill="none" stroke="#000000" cx="1128.4505" cy="-670.3059" rx="3.2" ry="3.2"/>
</g>
</g>
</svg>
