<?xml version="1.0" encoding="UTF-8" standalone="no"?>
<!DOCTYPE svg PUBLIC "-//W3C//DTD SVG 1.1//EN"
 "http://www.w3.org/Graphics/SVG/1.1/DTD/svg11.dtd">
<!-- Generated by graphviz version 2.40.1 (20161225.0304)
 -->
<!-- Title: oneDegreeRelationshipsDiagram Pages: 1 -->
<svg width="283pt" height="602pt"
 viewBox="0.00 0.00 283.00 602.20" xmlns="http://www.w3.org/2000/svg" xmlns:xlink="http://www.w3.org/1999/xlink">
<g id="graph0" class="graph" transform="scale(1 1) rotate(0) translate(4 598.2)">
<title>oneDegreeRelationshipsDiagram</title>
<polygon fill="#ffffff" stroke="transparent" points="-4,4 -4,-598.2 279,-598.2 279,4 -4,4"/>
<text text-anchor="middle" x="72.4936" y="-7.3" font-family="Helvetica,sans-Serif" font-size="11.00" fill="#000000">Generated by SchemaSpy</text>
<!-- cm_follow_up_dist -->
<g id="node1" class="node">
<title>cm_follow_up_dist</title>
<g id="a_node1"><a xlink:href="../../tables/cm_follow_up_dist.html" xlink:title="cm_follow_up_dist" target="_top">
<polygon fill="#ffffff" stroke="transparent" points="8,-38.2 8,-590.2 267,-590.2 267,-38.2 8,-38.2"/>
<polygon fill="#f5f5f5" stroke="transparent" points="10.5,-565.2 10.5,-588.2 265.5,-588.2 265.5,-565.2 10.5,-565.2"/>
<polygon fill="none" stroke="#000000" points="10.5,-565.2 10.5,-588.2 265.5,-588.2 265.5,-565.2 10.5,-565.2"/>
<text text-anchor="start" x="15.5" y="-573.8" font-family="Helvetica,sans-Serif" font-weight="bold" font-size="11.00" fill="#000000">cm_follow_up_dist</text>
<text text-anchor="start" x="230.5437" y="-573.3" font-family="Helvetica,sans-Serif" font-size="11.00" fill="#000000">[table]</text>
<polygon fill="none" stroke="#000000" points="10.5,-543.2 10.5,-565.2 203.5,-565.2 203.5,-543.2 10.5,-543.2"/>
<text text-anchor="start" x="30.5" y="-550.3" font-family="Helvetica,sans-Serif" font-size="11.00" fill="#000000">analysis_id</text>
<polygon fill="none" stroke="#000000" points="203.5,-543.2 203.5,-565.2 265.5,-565.2 265.5,-543.2 203.5,-543.2"/>
<text text-anchor="start" x="206.378" y="-550.9" font-family="Helvetica,sans-Serif" font-size="11.00" fill="#000000">unknown[0]</text>
<polygon fill="none" stroke="#000000" points="10.5,-521.2 10.5,-543.2 203.5,-543.2 203.5,-521.2 10.5,-521.2"/>
<text text-anchor="start" x="30.5" y="-528.3" font-family="Helvetica,sans-Serif" font-size="11.00" fill="#000000">comparator_id</text>
<polygon fill="none" stroke="#000000" points="203.5,-521.2 203.5,-543.2 265.5,-543.2 265.5,-521.2 203.5,-521.2"/>
<text text-anchor="start" x="206.378" y="-528.9" font-family="Helvetica,sans-Serif" font-size="11.00" fill="#000000">unknown[0]</text>
<polygon fill="none" stroke="#000000" points="10.5,-499.2 10.5,-521.2 203.5,-521.2 203.5,-499.2 10.5,-499.2"/>
<text text-anchor="start" x="30.5" y="-506.3" font-family="Helvetica,sans-Serif" font-size="11.00" fill="#000000">comparator_max_date</text>
<polygon fill="none" stroke="#000000" points="203.5,-499.2 203.5,-521.2 265.5,-521.2 265.5,-499.2 203.5,-499.2"/>
<text text-anchor="start" x="206.378" y="-506.9" font-family="Helvetica,sans-Serif" font-size="11.00" fill="#000000">unknown[0]</text>
<polygon fill="none" stroke="#000000" points="10.5,-477.2 10.5,-499.2 203.5,-499.2 203.5,-477.2 10.5,-477.2"/>
<text text-anchor="start" x="30.5" y="-484.3" font-family="Helvetica,sans-Serif" font-size="11.00" fill="#000000">comparator_max_days</text>
<polygon fill="none" stroke="#000000" points="203.5,-477.2 203.5,-499.2 265.5,-499.2 265.5,-477.2 203.5,-477.2"/>
<text text-anchor="start" x="206.378" y="-484.9" font-family="Helvetica,sans-Serif" font-size="11.00" fill="#000000">unknown[0]</text>
<polygon fill="none" stroke="#000000" points="10.5,-455.2 10.5,-477.2 203.5,-477.2 203.5,-455.2 10.5,-455.2"/>
<text text-anchor="start" x="30.5" y="-462.3" font-family="Helvetica,sans-Serif" font-size="11.00" fill="#000000">comparator_median_days</text>
<polygon fill="none" stroke="#000000" points="203.5,-455.2 203.5,-477.2 265.5,-477.2 265.5,-455.2 203.5,-455.2"/>
<text text-anchor="start" x="206.378" y="-462.9" font-family="Helvetica,sans-Serif" font-size="11.00" fill="#000000">unknown[0]</text>
<polygon fill="none" stroke="#000000" points="10.5,-433.2 10.5,-455.2 203.5,-455.2 203.5,-433.2 10.5,-433.2"/>
<text text-anchor="start" x="30.5" y="-440.3" font-family="Helvetica,sans-Serif" font-size="11.00" fill="#000000">comparator_min_date</text>
<polygon fill="none" stroke="#000000" points="203.5,-433.2 203.5,-455.2 265.5,-455.2 265.5,-433.2 203.5,-433.2"/>
<text text-anchor="start" x="206.378" y="-440.9" font-family="Helvetica,sans-Serif" font-size="11.00" fill="#000000">unknown[0]</text>
<polygon fill="none" stroke="#000000" points="10.5,-411.2 10.5,-433.2 203.5,-433.2 203.5,-411.2 10.5,-411.2"/>
<text text-anchor="start" x="30.5" y="-418.3" font-family="Helvetica,sans-Serif" font-size="11.00" fill="#000000">comparator_min_days</text>
<polygon fill="none" stroke="#000000" points="203.5,-411.2 203.5,-433.2 265.5,-433.2 265.5,-411.2 203.5,-411.2"/>
<text text-anchor="start" x="206.378" y="-418.9" font-family="Helvetica,sans-Serif" font-size="11.00" fill="#000000">unknown[0]</text>
<polygon fill="none" stroke="#000000" points="10.5,-389.2 10.5,-411.2 203.5,-411.2 203.5,-389.2 10.5,-389.2"/>
<text text-anchor="start" x="30.5" y="-396.3" font-family="Helvetica,sans-Serif" font-size="11.00" fill="#000000">comparator_p_10_days</text>
<polygon fill="none" stroke="#000000" points="203.5,-389.2 203.5,-411.2 265.5,-411.2 265.5,-389.2 203.5,-389.2"/>
<text text-anchor="start" x="206.378" y="-396.9" font-family="Helvetica,sans-Serif" font-size="11.00" fill="#000000">unknown[0]</text>
<polygon fill="none" stroke="#000000" points="10.5,-367.2 10.5,-389.2 203.5,-389.2 203.5,-367.2 10.5,-367.2"/>
<text text-anchor="start" x="30.5" y="-374.3" font-family="Helvetica,sans-Serif" font-size="11.00" fill="#000000">comparator_p_25_days</text>
<polygon fill="none" stroke="#000000" points="203.5,-367.2 203.5,-389.2 265.5,-389.2 265.5,-367.2 203.5,-367.2"/>
<text text-anchor="start" x="206.378" y="-374.9" font-family="Helvetica,sans-Serif" font-size="11.00" fill="#000000">unknown[0]</text>
<polygon fill="none" stroke="#000000" points="10.5,-345.2 10.5,-367.2 203.5,-367.2 203.5,-345.2 10.5,-345.2"/>
<text text-anchor="start" x="30.5" y="-352.3" font-family="Helvetica,sans-Serif" font-size="11.00" fill="#000000">comparator_p_75_days</text>
<polygon fill="none" stroke="#000000" points="203.5,-345.2 203.5,-367.2 265.5,-367.2 265.5,-345.2 203.5,-345.2"/>
<text text-anchor="start" x="206.378" y="-352.9" font-family="Helvetica,sans-Serif" font-size="11.00" fill="#000000">unknown[0]</text>
<polygon fill="none" stroke="#000000" points="10.5,-323.2 10.5,-345.2 203.5,-345.2 203.5,-323.2 10.5,-323.2"/>
<text text-anchor="start" x="30.5" y="-330.3" font-family="Helvetica,sans-Serif" font-size="11.00" fill="#000000">comparator_p_90_days</text>
<polygon fill="none" stroke="#000000" points="203.5,-323.2 203.5,-345.2 265.5,-345.2 265.5,-323.2 203.5,-323.2"/>
<text text-anchor="start" x="206.378" y="-330.9" font-family="Helvetica,sans-Serif" font-size="11.00" fill="#000000">unknown[0]</text>
<polygon fill="none" stroke="#000000" points="10.5,-301.2 10.5,-323.2 203.5,-323.2 203.5,-301.2 10.5,-301.2"/>
<text text-anchor="start" x="30.5" y="-308.3" font-family="Helvetica,sans-Serif" font-size="11.00" fill="#000000">database_id</text>
<polygon fill="none" stroke="#000000" points="203.5,-301.2 203.5,-323.2 265.5,-323.2 265.5,-301.2 203.5,-301.2"/>
<text text-anchor="start" x="206.378" y="-308.9" font-family="Helvetica,sans-Serif" font-size="11.00" fill="#000000">unknown[0]</text>
<polygon fill="none" stroke="#000000" points="10.5,-279.2 10.5,-301.2 203.5,-301.2 203.5,-279.2 10.5,-279.2"/>
<text text-anchor="start" x="30.5" y="-286.3" font-family="Helvetica,sans-Serif" font-size="11.00" fill="#000000">outcome_id</text>
<polygon fill="none" stroke="#000000" points="203.5,-279.2 203.5,-301.2 265.5,-301.2 265.5,-279.2 203.5,-279.2"/>
<text text-anchor="start" x="206.378" y="-286.9" font-family="Helvetica,sans-Serif" font-size="11.00" fill="#000000">unknown[0]</text>
<polygon fill="none" stroke="#000000" points="10.5,-257.2 10.5,-279.2 203.5,-279.2 203.5,-257.2 10.5,-257.2"/>
<text text-anchor="start" x="30.5" y="-264.3" font-family="Helvetica,sans-Serif" font-size="11.00" fill="#000000">target_id</text>
<polygon fill="none" stroke="#000000" points="203.5,-257.2 203.5,-279.2 265.5,-279.2 265.5,-257.2 203.5,-257.2"/>
<text text-anchor="start" x="206.378" y="-264.9" font-family="Helvetica,sans-Serif" font-size="11.00" fill="#000000">unknown[0]</text>
<polygon fill="none" stroke="#000000" points="10.5,-235.2 10.5,-257.2 203.5,-257.2 203.5,-235.2 10.5,-235.2"/>
<text text-anchor="start" x="30.5" y="-242.3" font-family="Helvetica,sans-Serif" font-size="11.00" fill="#000000">target_max_date</text>
<polygon fill="none" stroke="#000000" points="203.5,-235.2 203.5,-257.2 265.5,-257.2 265.5,-235.2 203.5,-235.2"/>
<text text-anchor="start" x="206.378" y="-242.9" font-family="Helvetica,sans-Serif" font-size="11.00" fill="#000000">unknown[0]</text>
<polygon fill="none" stroke="#000000" points="10.5,-213.2 10.5,-235.2 203.5,-235.2 203.5,-213.2 10.5,-213.2"/>
<text text-anchor="start" x="30.5" y="-220.3" font-family="Helvetica,sans-Serif" font-size="11.00" fill="#000000">target_max_days</text>
<polygon fill="none" stroke="#000000" points="203.5,-213.2 203.5,-235.2 265.5,-235.2 265.5,-213.2 203.5,-213.2"/>
<text text-anchor="start" x="206.378" y="-220.9" font-family="Helvetica,sans-Serif" font-size="11.00" fill="#000000">unknown[0]</text>
<polygon fill="none" stroke="#000000" points="10.5,-191.2 10.5,-213.2 203.5,-213.2 203.5,-191.2 10.5,-191.2"/>
<text text-anchor="start" x="30.5" y="-198.3" font-family="Helvetica,sans-Serif" font-size="11.00" fill="#000000">target_median_days</text>
<polygon fill="none" stroke="#000000" points="203.5,-191.2 203.5,-213.2 265.5,-213.2 265.5,-191.2 203.5,-191.2"/>
<text text-anchor="start" x="206.378" y="-198.9" font-family="Helvetica,sans-Serif" font-size="11.00" fill="#000000">unknown[0]</text>
<polygon fill="none" stroke="#000000" points="10.5,-169.2 10.5,-191.2 203.5,-191.2 203.5,-169.2 10.5,-169.2"/>
<text text-anchor="start" x="30.5" y="-176.3" font-family="Helvetica,sans-Serif" font-size="11.00" fill="#000000">target_min_date</text>
<polygon fill="none" stroke="#000000" points="203.5,-169.2 203.5,-191.2 265.5,-191.2 265.5,-169.2 203.5,-169.2"/>
<text text-anchor="start" x="206.378" y="-176.9" font-family="Helvetica,sans-Serif" font-size="11.00" fill="#000000">unknown[0]</text>
<polygon fill="none" stroke="#000000" points="10.5,-147.2 10.5,-169.2 203.5,-169.2 203.5,-147.2 10.5,-147.2"/>
<text text-anchor="start" x="30.5" y="-154.3" font-family="Helvetica,sans-Serif" font-size="11.00" fill="#000000">target_min_days</text>
<polygon fill="none" stroke="#000000" points="203.5,-147.2 203.5,-169.2 265.5,-169.2 265.5,-147.2 203.5,-147.2"/>
<text text-anchor="start" x="206.378" y="-154.9" font-family="Helvetica,sans-Serif" font-size="11.00" fill="#000000">unknown[0]</text>
<polygon fill="none" stroke="#000000" points="10.5,-125.2 10.5,-147.2 203.5,-147.2 203.5,-125.2 10.5,-125.2"/>
<text text-anchor="start" x="30.5" y="-132.3" font-family="Helvetica,sans-Serif" font-size="11.00" fill="#000000">target_p_10_days</text>
<polygon fill="none" stroke="#000000" points="203.5,-125.2 203.5,-147.2 265.5,-147.2 265.5,-125.2 203.5,-125.2"/>
<text text-anchor="start" x="206.378" y="-132.9" font-family="Helvetica,sans-Serif" font-size="11.00" fill="#000000">unknown[0]</text>
<polygon fill="none" stroke="#000000" points="10.5,-103.2 10.5,-125.2 203.5,-125.2 203.5,-103.2 10.5,-103.2"/>
<text text-anchor="start" x="30.5" y="-110.3" font-family="Helvetica,sans-Serif" font-size="11.00" fill="#000000">target_p_25_days</text>
<polygon fill="none" stroke="#000000" points="203.5,-103.2 203.5,-125.2 265.5,-125.2 265.5,-103.2 203.5,-103.2"/>
<text text-anchor="start" x="206.378" y="-110.9" font-family="Helvetica,sans-Serif" font-size="11.00" fill="#000000">unknown[0]</text>
<polygon fill="none" stroke="#000000" points="10.5,-81.2 10.5,-103.2 203.5,-103.2 203.5,-81.2 10.5,-81.2"/>
<text text-anchor="start" x="30.5" y="-88.3" font-family="Helvetica,sans-Serif" font-size="11.00" fill="#000000">target_p_75_days</text>
<polygon fill="none" stroke="#000000" points="203.5,-81.2 203.5,-103.2 265.5,-103.2 265.5,-81.2 203.5,-81.2"/>
<text text-anchor="start" x="206.378" y="-88.9" font-family="Helvetica,sans-Serif" font-size="11.00" fill="#000000">unknown[0]</text>
<polygon fill="none" stroke="#000000" points="10.5,-59.2 10.5,-81.2 203.5,-81.2 203.5,-59.2 10.5,-59.2"/>
<text text-anchor="start" x="30.5" y="-66.3" font-family="Helvetica,sans-Serif" font-size="11.00" fill="#000000">target_p_90_days</text>
<polygon fill="none" stroke="#000000" points="203.5,-59.2 203.5,-81.2 265.5,-81.2 265.5,-59.2 203.5,-59.2"/>
<text text-anchor="start" x="206.378" y="-66.9" font-family="Helvetica,sans-Serif" font-size="11.00" fill="#000000">unknown[0]</text>
<polygon fill="#ffffff" stroke="transparent" points="10.5,-40.2 10.5,-59.2 98.5,-59.2 98.5,-40.2 10.5,-40.2"/>
<polygon fill="none" stroke="#000000" points="10.5,-40.2 10.5,-59.2 98.5,-59.2 98.5,-40.2 10.5,-40.2"/>
<text text-anchor="start" x="13.5" y="-46.3" font-family="Helvetica,sans-Serif" font-size="11.00" fill="#000000">&lt; 0</text>
<polygon fill="#ffffff" stroke="transparent" points="98.5,-40.2 98.5,-59.2 203.5,-59.2 203.5,-40.2 98.5,-40.2"/>
<polygon fill="none" stroke="#000000" points="98.5,-40.2 98.5,-59.2 203.5,-59.2 203.5,-40.2 98.5,-40.2"/>
<text text-anchor="start" x="168.1105" y="-46.3" font-family="Helvetica,sans-Serif" font-size="11.00" fill="#000000">0 rows</text>
<polygon fill="#ffffff" stroke="transparent" points="203.5,-40.2 203.5,-59.2 265.5,-59.2 265.5,-40.2 203.5,-40.2"/>
<polygon fill="none" stroke="#000000" points="203.5,-40.2 203.5,-59.2 265.5,-59.2 265.5,-40.2 203.5,-40.2"/>
<text text-anchor="start" x="246.9053" y="-46.3" font-family="Helvetica,sans-Serif" font-size="11.00" fill="#000000">0 &gt;</text>
<polygon fill="none" stroke="#000000" stroke-width="2" points="9,-39.2 9,-589.2 266,-589.2 266,-39.2 9,-39.2"/>
</a>
</g>
</g>
</g>
</svg>
