<?xml version="1.0" encoding="UTF-8" standalone="no"?>
<!DOCTYPE svg PUBLIC "-//W3C//DTD SVG 1.1//EN"
 "http://www.w3.org/Graphics/SVG/1.1/DTD/svg11.dtd">
<!-- Generated by graphviz version 2.40.1 (20161225.0304)
 -->
<!-- Title: oneDegreeRelationshipsDiagram Pages: 1 -->
<svg width="273pt" height="646pt"
 viewBox="0.00 0.00 273.00 646.20" xmlns="http://www.w3.org/2000/svg" xmlns:xlink="http://www.w3.org/1999/xlink">
<g id="graph0" class="graph" transform="scale(1 1) rotate(0) translate(4 642.2)">
<title>oneDegreeRelationshipsDiagram</title>
<polygon fill="#ffffff" stroke="transparent" points="-4,4 -4,-642.2 269,-642.2 269,4 -4,4"/>
<text text-anchor="middle" x="72.4936" y="-7.3" font-family="Helvetica,sans-Serif" font-size="11.00" fill="#000000">Generated by SchemaSpy</text>
<!-- cm_interaction_result -->
<g id="node1" class="node">
<title>cm_interaction_result</title>
<g id="a_node1"><a xlink:href="../../tables/cm_interaction_result.html" xlink:title="cm_interaction_result" target="_top">
<polygon fill="#ffffff" stroke="transparent" points="8,-38.2 8,-634.2 257,-634.2 257,-38.2 8,-38.2"/>
<polygon fill="#f5f5f5" stroke="transparent" points="10.5,-609.2 10.5,-632.2 255.5,-632.2 255.5,-609.2 10.5,-609.2"/>
<polygon fill="none" stroke="#000000" points="10.5,-609.2 10.5,-632.2 255.5,-632.2 255.5,-609.2 10.5,-609.2"/>
<text text-anchor="start" x="15.5" y="-617.8" font-family="Helvetica,sans-Serif" font-weight="bold" font-size="11.00" fill="#000000">cm_interaction_result</text>
<text text-anchor="start" x="220.5437" y="-617.3" font-family="Helvetica,sans-Serif" font-size="11.00" fill="#000000">[table]</text>
<polygon fill="none" stroke="#000000" points="10.5,-587.2 10.5,-609.2 193.5,-609.2 193.5,-587.2 10.5,-587.2"/>
<text text-anchor="start" x="30.5" y="-594.3" font-family="Helvetica,sans-Serif" font-size="11.00" fill="#000000">analysis_id</text>
<polygon fill="none" stroke="#000000" points="193.5,-587.2 193.5,-609.2 255.5,-609.2 255.5,-587.2 193.5,-587.2"/>
<text text-anchor="start" x="196.378" y="-594.9" font-family="Helvetica,sans-Serif" font-size="11.00" fill="#000000">unknown[0]</text>
<polygon fill="none" stroke="#000000" points="10.5,-565.2 10.5,-587.2 193.5,-587.2 193.5,-565.2 10.5,-565.2"/>
<text text-anchor="start" x="30.5" y="-572.3" font-family="Helvetica,sans-Serif" font-size="11.00" fill="#000000">calibrated_ci_95_lb</text>
<polygon fill="none" stroke="#000000" points="193.5,-565.2 193.5,-587.2 255.5,-587.2 255.5,-565.2 193.5,-565.2"/>
<text text-anchor="start" x="196.378" y="-572.9" font-family="Helvetica,sans-Serif" font-size="11.00" fill="#000000">unknown[0]</text>
<polygon fill="none" stroke="#000000" points="10.5,-543.2 10.5,-565.2 193.5,-565.2 193.5,-543.2 10.5,-543.2"/>
<text text-anchor="start" x="30.5" y="-550.3" font-family="Helvetica,sans-Serif" font-size="11.00" fill="#000000">calibrated_ci_95_ub</text>
<polygon fill="none" stroke="#000000" points="193.5,-543.2 193.5,-565.2 255.5,-565.2 255.5,-543.2 193.5,-543.2"/>
<text text-anchor="start" x="196.378" y="-550.9" font-family="Helvetica,sans-Serif" font-size="11.00" fill="#000000">unknown[0]</text>
<polygon fill="none" stroke="#000000" points="10.5,-521.2 10.5,-543.2 193.5,-543.2 193.5,-521.2 10.5,-521.2"/>
<text text-anchor="start" x="30.5" y="-528.3" font-family="Helvetica,sans-Serif" font-size="11.00" fill="#000000">calibrated_log_rr</text>
<polygon fill="none" stroke="#000000" points="193.5,-521.2 193.5,-543.2 255.5,-543.2 255.5,-521.2 193.5,-521.2"/>
<text text-anchor="start" x="196.378" y="-528.9" font-family="Helvetica,sans-Serif" font-size="11.00" fill="#000000">unknown[0]</text>
<polygon fill="none" stroke="#000000" points="10.5,-499.2 10.5,-521.2 193.5,-521.2 193.5,-499.2 10.5,-499.2"/>
<text text-anchor="start" x="30.5" y="-506.3" font-family="Helvetica,sans-Serif" font-size="11.00" fill="#000000">calibrated_p</text>
<polygon fill="none" stroke="#000000" points="193.5,-499.2 193.5,-521.2 255.5,-521.2 255.5,-499.2 193.5,-499.2"/>
<text text-anchor="start" x="196.378" y="-506.9" font-family="Helvetica,sans-Serif" font-size="11.00" fill="#000000">unknown[0]</text>
<polygon fill="none" stroke="#000000" points="10.5,-477.2 10.5,-499.2 193.5,-499.2 193.5,-477.2 10.5,-477.2"/>
<text text-anchor="start" x="30.5" y="-484.3" font-family="Helvetica,sans-Serif" font-size="11.00" fill="#000000">calibrated_rr</text>
<polygon fill="none" stroke="#000000" points="193.5,-477.2 193.5,-499.2 255.5,-499.2 255.5,-477.2 193.5,-477.2"/>
<text text-anchor="start" x="196.378" y="-484.9" font-family="Helvetica,sans-Serif" font-size="11.00" fill="#000000">unknown[0]</text>
<polygon fill="none" stroke="#000000" points="10.5,-455.2 10.5,-477.2 193.5,-477.2 193.5,-455.2 10.5,-455.2"/>
<text text-anchor="start" x="30.5" y="-462.3" font-family="Helvetica,sans-Serif" font-size="11.00" fill="#000000">calibrated_se_log_rr</text>
<polygon fill="none" stroke="#000000" points="193.5,-455.2 193.5,-477.2 255.5,-477.2 255.5,-455.2 193.5,-455.2"/>
<text text-anchor="start" x="196.378" y="-462.9" font-family="Helvetica,sans-Serif" font-size="11.00" fill="#000000">unknown[0]</text>
<polygon fill="none" stroke="#000000" points="10.5,-433.2 10.5,-455.2 193.5,-455.2 193.5,-433.2 10.5,-433.2"/>
<text text-anchor="start" x="30.5" y="-440.3" font-family="Helvetica,sans-Serif" font-size="11.00" fill="#000000">ci_95_lb</text>
<polygon fill="none" stroke="#000000" points="193.5,-433.2 193.5,-455.2 255.5,-455.2 255.5,-433.2 193.5,-433.2"/>
<text text-anchor="start" x="196.378" y="-440.9" font-family="Helvetica,sans-Serif" font-size="11.00" fill="#000000">unknown[0]</text>
<polygon fill="none" stroke="#000000" points="10.5,-411.2 10.5,-433.2 193.5,-433.2 193.5,-411.2 10.5,-411.2"/>
<text text-anchor="start" x="30.5" y="-418.3" font-family="Helvetica,sans-Serif" font-size="11.00" fill="#000000">ci_95_ub</text>
<polygon fill="none" stroke="#000000" points="193.5,-411.2 193.5,-433.2 255.5,-433.2 255.5,-411.2 193.5,-411.2"/>
<text text-anchor="start" x="196.378" y="-418.9" font-family="Helvetica,sans-Serif" font-size="11.00" fill="#000000">unknown[0]</text>
<polygon fill="none" stroke="#000000" points="10.5,-389.2 10.5,-411.2 193.5,-411.2 193.5,-389.2 10.5,-389.2"/>
<text text-anchor="start" x="30.5" y="-396.3" font-family="Helvetica,sans-Serif" font-size="11.00" fill="#000000">comparator_days</text>
<polygon fill="none" stroke="#000000" points="193.5,-389.2 193.5,-411.2 255.5,-411.2 255.5,-389.2 193.5,-389.2"/>
<text text-anchor="start" x="196.378" y="-396.9" font-family="Helvetica,sans-Serif" font-size="11.00" fill="#000000">unknown[0]</text>
<polygon fill="none" stroke="#000000" points="10.5,-367.2 10.5,-389.2 193.5,-389.2 193.5,-367.2 10.5,-367.2"/>
<text text-anchor="start" x="30.5" y="-374.3" font-family="Helvetica,sans-Serif" font-size="11.00" fill="#000000">comparator_id</text>
<polygon fill="none" stroke="#000000" points="193.5,-367.2 193.5,-389.2 255.5,-389.2 255.5,-367.2 193.5,-367.2"/>
<text text-anchor="start" x="196.378" y="-374.9" font-family="Helvetica,sans-Serif" font-size="11.00" fill="#000000">unknown[0]</text>
<polygon fill="none" stroke="#000000" points="10.5,-345.2 10.5,-367.2 193.5,-367.2 193.5,-345.2 10.5,-345.2"/>
<text text-anchor="start" x="30.5" y="-352.3" font-family="Helvetica,sans-Serif" font-size="11.00" fill="#000000">comparator_outcomes</text>
<polygon fill="none" stroke="#000000" points="193.5,-345.2 193.5,-367.2 255.5,-367.2 255.5,-345.2 193.5,-345.2"/>
<text text-anchor="start" x="196.378" y="-352.9" font-family="Helvetica,sans-Serif" font-size="11.00" fill="#000000">unknown[0]</text>
<polygon fill="none" stroke="#000000" points="10.5,-323.2 10.5,-345.2 193.5,-345.2 193.5,-323.2 10.5,-323.2"/>
<text text-anchor="start" x="30.5" y="-330.3" font-family="Helvetica,sans-Serif" font-size="11.00" fill="#000000">comparator_subjects</text>
<polygon fill="none" stroke="#000000" points="193.5,-323.2 193.5,-345.2 255.5,-345.2 255.5,-323.2 193.5,-323.2"/>
<text text-anchor="start" x="196.378" y="-330.9" font-family="Helvetica,sans-Serif" font-size="11.00" fill="#000000">unknown[0]</text>
<polygon fill="none" stroke="#000000" points="10.5,-301.2 10.5,-323.2 193.5,-323.2 193.5,-301.2 10.5,-301.2"/>
<text text-anchor="start" x="30.5" y="-308.3" font-family="Helvetica,sans-Serif" font-size="11.00" fill="#000000">database_id</text>
<polygon fill="none" stroke="#000000" points="193.5,-301.2 193.5,-323.2 255.5,-323.2 255.5,-301.2 193.5,-301.2"/>
<text text-anchor="start" x="196.378" y="-308.9" font-family="Helvetica,sans-Serif" font-size="11.00" fill="#000000">unknown[0]</text>
<polygon fill="none" stroke="#000000" points="10.5,-279.2 10.5,-301.2 193.5,-301.2 193.5,-279.2 10.5,-279.2"/>
<text text-anchor="start" x="30.5" y="-286.3" font-family="Helvetica,sans-Serif" font-size="11.00" fill="#000000">interaction_covariate_id</text>
<polygon fill="none" stroke="#000000" points="193.5,-279.2 193.5,-301.2 255.5,-301.2 255.5,-279.2 193.5,-279.2"/>
<text text-anchor="start" x="196.378" y="-286.9" font-family="Helvetica,sans-Serif" font-size="11.00" fill="#000000">unknown[0]</text>
<polygon fill="none" stroke="#000000" points="10.5,-257.2 10.5,-279.2 193.5,-279.2 193.5,-257.2 10.5,-257.2"/>
<text text-anchor="start" x="30.5" y="-264.3" font-family="Helvetica,sans-Serif" font-size="11.00" fill="#000000">log_rr</text>
<polygon fill="none" stroke="#000000" points="193.5,-257.2 193.5,-279.2 255.5,-279.2 255.5,-257.2 193.5,-257.2"/>
<text text-anchor="start" x="196.378" y="-264.9" font-family="Helvetica,sans-Serif" font-size="11.00" fill="#000000">unknown[0]</text>
<polygon fill="none" stroke="#000000" points="10.5,-235.2 10.5,-257.2 193.5,-257.2 193.5,-235.2 10.5,-235.2"/>
<text text-anchor="start" x="30.5" y="-242.3" font-family="Helvetica,sans-Serif" font-size="11.00" fill="#000000">outcome_id</text>
<polygon fill="none" stroke="#000000" points="193.5,-235.2 193.5,-257.2 255.5,-257.2 255.5,-235.2 193.5,-235.2"/>
<text text-anchor="start" x="196.378" y="-242.9" font-family="Helvetica,sans-Serif" font-size="11.00" fill="#000000">unknown[0]</text>
<polygon fill="none" stroke="#000000" points="10.5,-213.2 10.5,-235.2 193.5,-235.2 193.5,-213.2 10.5,-213.2"/>
<text text-anchor="start" x="30.5" y="-220.3" font-family="Helvetica,sans-Serif" font-size="11.00" fill="#000000">p</text>
<polygon fill="none" stroke="#000000" points="193.5,-213.2 193.5,-235.2 255.5,-235.2 255.5,-213.2 193.5,-213.2"/>
<text text-anchor="start" x="196.378" y="-220.9" font-family="Helvetica,sans-Serif" font-size="11.00" fill="#000000">unknown[0]</text>
<polygon fill="none" stroke="#000000" points="10.5,-191.2 10.5,-213.2 193.5,-213.2 193.5,-191.2 10.5,-191.2"/>
<text text-anchor="start" x="30.5" y="-198.3" font-family="Helvetica,sans-Serif" font-size="11.00" fill="#000000">rr</text>
<polygon fill="none" stroke="#000000" points="193.5,-191.2 193.5,-213.2 255.5,-213.2 255.5,-191.2 193.5,-191.2"/>
<text text-anchor="start" x="196.378" y="-198.9" font-family="Helvetica,sans-Serif" font-size="11.00" fill="#000000">unknown[0]</text>
<polygon fill="none" stroke="#000000" points="10.5,-169.2 10.5,-191.2 193.5,-191.2 193.5,-169.2 10.5,-169.2"/>
<text text-anchor="start" x="30.5" y="-176.3" font-family="Helvetica,sans-Serif" font-size="11.00" fill="#000000">se_log_rr</text>
<polygon fill="none" stroke="#000000" points="193.5,-169.2 193.5,-191.2 255.5,-191.2 255.5,-169.2 193.5,-169.2"/>
<text text-anchor="start" x="196.378" y="-176.9" font-family="Helvetica,sans-Serif" font-size="11.00" fill="#000000">unknown[0]</text>
<polygon fill="none" stroke="#000000" points="10.5,-147.2 10.5,-169.2 193.5,-169.2 193.5,-147.2 10.5,-147.2"/>
<text text-anchor="start" x="30.5" y="-154.3" font-family="Helvetica,sans-Serif" font-size="11.00" fill="#000000">target_days</text>
<polygon fill="none" stroke="#000000" points="193.5,-147.2 193.5,-169.2 255.5,-169.2 255.5,-147.2 193.5,-147.2"/>
<text text-anchor="start" x="196.378" y="-154.9" font-family="Helvetica,sans-Serif" font-size="11.00" fill="#000000">unknown[0]</text>
<polygon fill="none" stroke="#000000" points="10.5,-125.2 10.5,-147.2 193.5,-147.2 193.5,-125.2 10.5,-125.2"/>
<text text-anchor="start" x="30.5" y="-132.3" font-family="Helvetica,sans-Serif" font-size="11.00" fill="#000000">target_estimator</text>
<polygon fill="none" stroke="#000000" points="193.5,-125.2 193.5,-147.2 255.5,-147.2 255.5,-125.2 193.5,-125.2"/>
<text text-anchor="start" x="196.378" y="-132.9" font-family="Helvetica,sans-Serif" font-size="11.00" fill="#000000">unknown[0]</text>
<polygon fill="none" stroke="#000000" points="10.5,-103.2 10.5,-125.2 193.5,-125.2 193.5,-103.2 10.5,-103.2"/>
<text text-anchor="start" x="30.5" y="-110.3" font-family="Helvetica,sans-Serif" font-size="11.00" fill="#000000">target_id</text>
<polygon fill="none" stroke="#000000" points="193.5,-103.2 193.5,-125.2 255.5,-125.2 255.5,-103.2 193.5,-103.2"/>
<text text-anchor="start" x="196.378" y="-110.9" font-family="Helvetica,sans-Serif" font-size="11.00" fill="#000000">unknown[0]</text>
<polygon fill="none" stroke="#000000" points="10.5,-81.2 10.5,-103.2 193.5,-103.2 193.5,-81.2 10.5,-81.2"/>
<text text-anchor="start" x="30.5" y="-88.3" font-family="Helvetica,sans-Serif" font-size="11.00" fill="#000000">target_outcomes</text>
<polygon fill="none" stroke="#000000" points="193.5,-81.2 193.5,-103.2 255.5,-103.2 255.5,-81.2 193.5,-81.2"/>
<text text-anchor="start" x="196.378" y="-88.9" font-family="Helvetica,sans-Serif" font-size="11.00" fill="#000000">unknown[0]</text>
<polygon fill="none" stroke="#000000" points="10.5,-59.2 10.5,-81.2 193.5,-81.2 193.5,-59.2 10.5,-59.2"/>
<text text-anchor="start" x="30.5" y="-66.3" font-family="Helvetica,sans-Serif" font-size="11.00" fill="#000000">target_subjects</text>
<polygon fill="none" stroke="#000000" points="193.5,-59.2 193.5,-81.2 255.5,-81.2 255.5,-59.2 193.5,-59.2"/>
<text text-anchor="start" x="196.378" y="-66.9" font-family="Helvetica,sans-Serif" font-size="11.00" fill="#000000">unknown[0]</text>
<polygon fill="#ffffff" stroke="transparent" points="10.5,-40.2 10.5,-59.2 93.5,-59.2 93.5,-40.2 10.5,-40.2"/>
<polygon fill="none" stroke="#000000" points="10.5,-40.2 10.5,-59.2 93.5,-59.2 93.5,-40.2 10.5,-40.2"/>
<text text-anchor="start" x="13.5" y="-46.3" font-family="Helvetica,sans-Serif" font-size="11.00" fill="#000000">&lt; 0</text>
<polygon fill="#ffffff" stroke="transparent" points="93.5,-40.2 93.5,-59.2 193.5,-59.2 193.5,-40.2 93.5,-40.2"/>
<polygon fill="none" stroke="#000000" points="93.5,-40.2 93.5,-59.2 193.5,-59.2 193.5,-40.2 93.5,-40.2"/>
<text text-anchor="start" x="158.1105" y="-46.3" font-family="Helvetica,sans-Serif" font-size="11.00" fill="#000000">0 rows</text>
<polygon fill="#ffffff" stroke="transparent" points="193.5,-40.2 193.5,-59.2 255.5,-59.2 255.5,-40.2 193.5,-40.2"/>
<polygon fill="none" stroke="#000000" points="193.5,-40.2 193.5,-59.2 255.5,-59.2 255.5,-40.2 193.5,-40.2"/>
<text text-anchor="start" x="236.9053" y="-46.3" font-family="Helvetica,sans-Serif" font-size="11.00" fill="#000000">0 &gt;</text>
<polygon fill="none" stroke="#000000" stroke-width="2" points="9,-39.2 9,-633.2 256,-633.2 256,-39.2 9,-39.2"/>
</a>
</g>
</g>
</g>
</svg>
