<?xml version="1.0" encoding="UTF-8" standalone="no"?>
<!DOCTYPE svg PUBLIC "-//W3C//DTD SVG 1.1//EN"
 "http://www.w3.org/Graphics/SVG/1.1/DTD/svg11.dtd">
<!-- Generated by graphviz version 2.40.1 (20161225.0304)
 -->
<!-- Title: oneDegreeRelationshipsDiagram Pages: 1 -->
<svg width="272pt" height="404pt"
 viewBox="0.00 0.00 272.00 404.20" xmlns="http://www.w3.org/2000/svg" xmlns:xlink="http://www.w3.org/1999/xlink">
<g id="graph0" class="graph" transform="scale(1 1) rotate(0) translate(4 400.2)">
<title>oneDegreeRelationshipsDiagram</title>
<polygon fill="#ffffff" stroke="transparent" points="-4,4 -4,-400.2 268,-400.2 268,4 -4,4"/>
<text text-anchor="middle" x="72.4936" y="-7.3" font-family="Helvetica,sans-Serif" font-size="11.00" fill="#000000">Generated by SchemaSpy</text>
<!-- cm_kaplan_meier_dist -->
<g id="node1" class="node">
<title>cm_kaplan_meier_dist</title>
<g id="a_node1"><a xlink:href="../../tables/cm_kaplan_meier_dist.html" xlink:title="cm_kaplan_meier_dist" target="_top">
<polygon fill="#ffffff" stroke="transparent" points="8,-38.2 8,-392.2 256,-392.2 256,-38.2 8,-38.2"/>
<polygon fill="#f5f5f5" stroke="transparent" points="10,-367.2 10,-390.2 254,-390.2 254,-367.2 10,-367.2"/>
<polygon fill="none" stroke="#000000" points="10,-367.2 10,-390.2 254,-390.2 254,-367.2 10,-367.2"/>
<text text-anchor="start" x="15" y="-375.8" font-family="Helvetica,sans-Serif" font-weight="bold" font-size="11.00" fill="#000000">cm_kaplan_meier_dist</text>
<text text-anchor="start" x="219.0437" y="-375.3" font-family="Helvetica,sans-Serif" font-size="11.00" fill="#000000">[table]</text>
<polygon fill="none" stroke="#000000" points="10,-345.2 10,-367.2 192,-367.2 192,-345.2 10,-345.2"/>
<text text-anchor="start" x="30" y="-352.3" font-family="Helvetica,sans-Serif" font-size="11.00" fill="#000000">analysis_id</text>
<polygon fill="none" stroke="#000000" points="192,-345.2 192,-367.2 254,-367.2 254,-345.2 192,-345.2"/>
<text text-anchor="start" x="194.878" y="-352.9" font-family="Helvetica,sans-Serif" font-size="11.00" fill="#000000">unknown[0]</text>
<polygon fill="none" stroke="#000000" points="10,-323.2 10,-345.2 192,-345.2 192,-323.2 10,-323.2"/>
<text text-anchor="start" x="30" y="-330.3" font-family="Helvetica,sans-Serif" font-size="11.00" fill="#000000">comparator_at_risk</text>
<polygon fill="none" stroke="#000000" points="192,-323.2 192,-345.2 254,-345.2 254,-323.2 192,-323.2"/>
<text text-anchor="start" x="194.878" y="-330.9" font-family="Helvetica,sans-Serif" font-size="11.00" fill="#000000">unknown[0]</text>
<polygon fill="none" stroke="#000000" points="10,-301.2 10,-323.2 192,-323.2 192,-301.2 10,-301.2"/>
<text text-anchor="start" x="30" y="-308.3" font-family="Helvetica,sans-Serif" font-size="11.00" fill="#000000">comparator_id</text>
<polygon fill="none" stroke="#000000" points="192,-301.2 192,-323.2 254,-323.2 254,-301.2 192,-301.2"/>
<text text-anchor="start" x="194.878" y="-308.9" font-family="Helvetica,sans-Serif" font-size="11.00" fill="#000000">unknown[0]</text>
<polygon fill="none" stroke="#000000" points="10,-279.2 10,-301.2 192,-301.2 192,-279.2 10,-279.2"/>
<text text-anchor="start" x="30" y="-286.3" font-family="Helvetica,sans-Serif" font-size="11.00" fill="#000000">comparator_survival</text>
<polygon fill="none" stroke="#000000" points="192,-279.2 192,-301.2 254,-301.2 254,-279.2 192,-279.2"/>
<text text-anchor="start" x="194.878" y="-286.9" font-family="Helvetica,sans-Serif" font-size="11.00" fill="#000000">unknown[0]</text>
<polygon fill="none" stroke="#000000" points="10,-257.2 10,-279.2 192,-279.2 192,-257.2 10,-257.2"/>
<text text-anchor="start" x="30" y="-264.3" font-family="Helvetica,sans-Serif" font-size="11.00" fill="#000000">comparator_survival_lb</text>
<polygon fill="none" stroke="#000000" points="192,-257.2 192,-279.2 254,-279.2 254,-257.2 192,-257.2"/>
<text text-anchor="start" x="194.878" y="-264.9" font-family="Helvetica,sans-Serif" font-size="11.00" fill="#000000">unknown[0]</text>
<polygon fill="none" stroke="#000000" points="10,-235.2 10,-257.2 192,-257.2 192,-235.2 10,-235.2"/>
<text text-anchor="start" x="30" y="-242.3" font-family="Helvetica,sans-Serif" font-size="11.00" fill="#000000">comparator_survival_ub</text>
<polygon fill="none" stroke="#000000" points="192,-235.2 192,-257.2 254,-257.2 254,-235.2 192,-235.2"/>
<text text-anchor="start" x="194.878" y="-242.9" font-family="Helvetica,sans-Serif" font-size="11.00" fill="#000000">unknown[0]</text>
<polygon fill="none" stroke="#000000" points="10,-213.2 10,-235.2 192,-235.2 192,-213.2 10,-213.2"/>
<text text-anchor="start" x="30" y="-220.3" font-family="Helvetica,sans-Serif" font-size="11.00" fill="#000000">database_id</text>
<polygon fill="none" stroke="#000000" points="192,-213.2 192,-235.2 254,-235.2 254,-213.2 192,-213.2"/>
<text text-anchor="start" x="194.878" y="-220.9" font-family="Helvetica,sans-Serif" font-size="11.00" fill="#000000">unknown[0]</text>
<polygon fill="none" stroke="#000000" points="10,-191.2 10,-213.2 192,-213.2 192,-191.2 10,-191.2"/>
<text text-anchor="start" x="30" y="-198.3" font-family="Helvetica,sans-Serif" font-size="11.00" fill="#000000">outcome_id</text>
<polygon fill="none" stroke="#000000" points="192,-191.2 192,-213.2 254,-213.2 254,-191.2 192,-191.2"/>
<text text-anchor="start" x="194.878" y="-198.9" font-family="Helvetica,sans-Serif" font-size="11.00" fill="#000000">unknown[0]</text>
<polygon fill="none" stroke="#000000" points="10,-169.2 10,-191.2 192,-191.2 192,-169.2 10,-169.2"/>
<text text-anchor="start" x="30" y="-176.3" font-family="Helvetica,sans-Serif" font-size="11.00" fill="#000000">target_at_risk</text>
<polygon fill="none" stroke="#000000" points="192,-169.2 192,-191.2 254,-191.2 254,-169.2 192,-169.2"/>
<text text-anchor="start" x="194.878" y="-176.9" font-family="Helvetica,sans-Serif" font-size="11.00" fill="#000000">unknown[0]</text>
<polygon fill="none" stroke="#000000" points="10,-147.2 10,-169.2 192,-169.2 192,-147.2 10,-147.2"/>
<text text-anchor="start" x="30" y="-154.3" font-family="Helvetica,sans-Serif" font-size="11.00" fill="#000000">target_id</text>
<polygon fill="none" stroke="#000000" points="192,-147.2 192,-169.2 254,-169.2 254,-147.2 192,-147.2"/>
<text text-anchor="start" x="194.878" y="-154.9" font-family="Helvetica,sans-Serif" font-size="11.00" fill="#000000">unknown[0]</text>
<polygon fill="none" stroke="#000000" points="10,-125.2 10,-147.2 192,-147.2 192,-125.2 10,-125.2"/>
<text text-anchor="start" x="30" y="-132.3" font-family="Helvetica,sans-Serif" font-size="11.00" fill="#000000">target_survival</text>
<polygon fill="none" stroke="#000000" points="192,-125.2 192,-147.2 254,-147.2 254,-125.2 192,-125.2"/>
<text text-anchor="start" x="194.878" y="-132.9" font-family="Helvetica,sans-Serif" font-size="11.00" fill="#000000">unknown[0]</text>
<polygon fill="none" stroke="#000000" points="10,-103.2 10,-125.2 192,-125.2 192,-103.2 10,-103.2"/>
<text text-anchor="start" x="30" y="-110.3" font-family="Helvetica,sans-Serif" font-size="11.00" fill="#000000">target_survival_lb</text>
<polygon fill="none" stroke="#000000" points="192,-103.2 192,-125.2 254,-125.2 254,-103.2 192,-103.2"/>
<text text-anchor="start" x="194.878" y="-110.9" font-family="Helvetica,sans-Serif" font-size="11.00" fill="#000000">unknown[0]</text>
<polygon fill="none" stroke="#000000" points="10,-81.2 10,-103.2 192,-103.2 192,-81.2 10,-81.2"/>
<text text-anchor="start" x="30" y="-88.3" font-family="Helvetica,sans-Serif" font-size="11.00" fill="#000000">target_survival_ub</text>
<polygon fill="none" stroke="#000000" points="192,-81.2 192,-103.2 254,-103.2 254,-81.2 192,-81.2"/>
<text text-anchor="start" x="194.878" y="-88.9" font-family="Helvetica,sans-Serif" font-size="11.00" fill="#000000">unknown[0]</text>
<polygon fill="none" stroke="#000000" points="10,-59.2 10,-81.2 192,-81.2 192,-59.2 10,-59.2"/>
<text text-anchor="start" x="30" y="-66.3" font-family="Helvetica,sans-Serif" font-size="11.00" fill="#000000">time_day</text>
<polygon fill="none" stroke="#000000" points="192,-59.2 192,-81.2 254,-81.2 254,-59.2 192,-59.2"/>
<text text-anchor="start" x="194.878" y="-66.9" font-family="Helvetica,sans-Serif" font-size="11.00" fill="#000000">unknown[0]</text>
<polygon fill="#ffffff" stroke="transparent" points="10,-40.2 10,-59.2 92,-59.2 92,-40.2 10,-40.2"/>
<polygon fill="none" stroke="#000000" points="10,-40.2 10,-59.2 92,-59.2 92,-40.2 10,-40.2"/>
<text text-anchor="start" x="13" y="-46.3" font-family="Helvetica,sans-Serif" font-size="11.00" fill="#000000">&lt; 0</text>
<polygon fill="#ffffff" stroke="transparent" points="92,-40.2 92,-59.2 192,-59.2 192,-40.2 92,-40.2"/>
<polygon fill="none" stroke="#000000" points="92,-40.2 92,-59.2 192,-59.2 192,-40.2 92,-40.2"/>
<text text-anchor="start" x="156.6105" y="-46.3" font-family="Helvetica,sans-Serif" font-size="11.00" fill="#000000">0 rows</text>
<polygon fill="#ffffff" stroke="transparent" points="192,-40.2 192,-59.2 254,-59.2 254,-40.2 192,-40.2"/>
<polygon fill="none" stroke="#000000" points="192,-40.2 192,-59.2 254,-59.2 254,-40.2 192,-40.2"/>
<text text-anchor="start" x="235.4053" y="-46.3" font-family="Helvetica,sans-Serif" font-size="11.00" fill="#000000">0 &gt;</text>
<polygon fill="none" stroke="#000000" stroke-width="2" points="9,-39.2 9,-391.2 255,-391.2 255,-39.2 9,-39.2"/>
</a>
</g>
</g>
</g>
</svg>
