<?xml version="1.0" encoding="UTF-8" standalone="no"?>
<!DOCTYPE svg PUBLIC "-//W3C//DTD SVG 1.1//EN"
 "http://www.w3.org/Graphics/SVG/1.1/DTD/svg11.dtd">
<!-- Generated by graphviz version 2.40.1 (20161225.0304)
 -->
<!-- Title: oneDegreeRelationshipsDiagram Pages: 1 -->
<svg width="284pt" height="250pt"
 viewBox="0.00 0.00 284.00 250.20" xmlns="http://www.w3.org/2000/svg" xmlns:xlink="http://www.w3.org/1999/xlink">
<g id="graph0" class="graph" transform="scale(1 1) rotate(0) translate(4 246.2)">
<title>oneDegreeRelationshipsDiagram</title>
<polygon fill="#ffffff" stroke="transparent" points="-4,4 -4,-246.2 280,-246.2 280,4 -4,4"/>
<text text-anchor="middle" x="72.4936" y="-7.3" font-family="Helvetica,sans-Serif" font-size="11.00" fill="#000000">Generated by SchemaSpy</text>
<!-- cm_preference_score_dist -->
<g id="node1" class="node">
<title>cm_preference_score_dist</title>
<g id="a_node1"><a xlink:href="../../tables/cm_preference_score_dist.html" xlink:title="cm_preference_score_dist" target="_top">
<polygon fill="#ffffff" stroke="transparent" points="8,-38.2 8,-238.2 268,-238.2 268,-38.2 8,-38.2"/>
<polygon fill="#f5f5f5" stroke="transparent" points="10,-213.2 10,-236.2 266,-236.2 266,-213.2 10,-213.2"/>
<polygon fill="none" stroke="#000000" points="10,-213.2 10,-236.2 266,-236.2 266,-213.2 10,-213.2"/>
<text text-anchor="start" x="15" y="-221.8" font-family="Helvetica,sans-Serif" font-weight="bold" font-size="11.00" fill="#000000">cm_preference_score_dist</text>
<text text-anchor="start" x="231.0437" y="-221.3" font-family="Helvetica,sans-Serif" font-size="11.00" fill="#000000">[table]</text>
<polygon fill="none" stroke="#000000" points="10,-191.2 10,-213.2 204,-213.2 204,-191.2 10,-191.2"/>
<text text-anchor="start" x="30" y="-198.3" font-family="Helvetica,sans-Serif" font-size="11.00" fill="#000000">analysis_id</text>
<polygon fill="none" stroke="#000000" points="204,-191.2 204,-213.2 266,-213.2 266,-191.2 204,-191.2"/>
<text text-anchor="start" x="206.878" y="-198.9" font-family="Helvetica,sans-Serif" font-size="11.00" fill="#000000">unknown[0]</text>
<polygon fill="none" stroke="#000000" points="10,-169.2 10,-191.2 204,-191.2 204,-169.2 10,-169.2"/>
<text text-anchor="start" x="30" y="-176.3" font-family="Helvetica,sans-Serif" font-size="11.00" fill="#000000">comparator_density</text>
<polygon fill="none" stroke="#000000" points="204,-169.2 204,-191.2 266,-191.2 266,-169.2 204,-169.2"/>
<text text-anchor="start" x="206.878" y="-176.9" font-family="Helvetica,sans-Serif" font-size="11.00" fill="#000000">unknown[0]</text>
<polygon fill="none" stroke="#000000" points="10,-147.2 10,-169.2 204,-169.2 204,-147.2 10,-147.2"/>
<text text-anchor="start" x="30" y="-154.3" font-family="Helvetica,sans-Serif" font-size="11.00" fill="#000000">comparator_id</text>
<polygon fill="none" stroke="#000000" points="204,-147.2 204,-169.2 266,-169.2 266,-147.2 204,-147.2"/>
<text text-anchor="start" x="206.878" y="-154.9" font-family="Helvetica,sans-Serif" font-size="11.00" fill="#000000">unknown[0]</text>
<polygon fill="none" stroke="#000000" points="10,-125.2 10,-147.2 204,-147.2 204,-125.2 10,-125.2"/>
<text text-anchor="start" x="30" y="-132.3" font-family="Helvetica,sans-Serif" font-size="11.00" fill="#000000">database_id</text>
<polygon fill="none" stroke="#000000" points="204,-125.2 204,-147.2 266,-147.2 266,-125.2 204,-125.2"/>
<text text-anchor="start" x="206.878" y="-132.9" font-family="Helvetica,sans-Serif" font-size="11.00" fill="#000000">unknown[0]</text>
<polygon fill="none" stroke="#000000" points="10,-103.2 10,-125.2 204,-125.2 204,-103.2 10,-103.2"/>
<text text-anchor="start" x="30" y="-110.3" font-family="Helvetica,sans-Serif" font-size="11.00" fill="#000000">preference_score</text>
<polygon fill="none" stroke="#000000" points="204,-103.2 204,-125.2 266,-125.2 266,-103.2 204,-103.2"/>
<text text-anchor="start" x="206.878" y="-110.9" font-family="Helvetica,sans-Serif" font-size="11.00" fill="#000000">unknown[0]</text>
<polygon fill="none" stroke="#000000" points="10,-81.2 10,-103.2 204,-103.2 204,-81.2 10,-81.2"/>
<text text-anchor="start" x="30" y="-88.3" font-family="Helvetica,sans-Serif" font-size="11.00" fill="#000000">target_density</text>
<polygon fill="none" stroke="#000000" points="204,-81.2 204,-103.2 266,-103.2 266,-81.2 204,-81.2"/>
<text text-anchor="start" x="206.878" y="-88.9" font-family="Helvetica,sans-Serif" font-size="11.00" fill="#000000">unknown[0]</text>
<polygon fill="none" stroke="#000000" points="10,-59.2 10,-81.2 204,-81.2 204,-59.2 10,-59.2"/>
<text text-anchor="start" x="30" y="-66.3" font-family="Helvetica,sans-Serif" font-size="11.00" fill="#000000">target_id</text>
<polygon fill="none" stroke="#000000" points="204,-59.2 204,-81.2 266,-81.2 266,-59.2 204,-59.2"/>
<text text-anchor="start" x="206.878" y="-66.9" font-family="Helvetica,sans-Serif" font-size="11.00" fill="#000000">unknown[0]</text>
<polygon fill="#ffffff" stroke="transparent" points="10,-40.2 10,-59.2 98,-59.2 98,-40.2 10,-40.2"/>
<polygon fill="none" stroke="#000000" points="10,-40.2 10,-59.2 98,-59.2 98,-40.2 10,-40.2"/>
<text text-anchor="start" x="13" y="-46.3" font-family="Helvetica,sans-Serif" font-size="11.00" fill="#000000">&lt; 0</text>
<polygon fill="#ffffff" stroke="transparent" points="98,-40.2 98,-59.2 204,-59.2 204,-40.2 98,-40.2"/>
<polygon fill="none" stroke="#000000" points="98,-40.2 98,-59.2 204,-59.2 204,-40.2 98,-40.2"/>
<text text-anchor="start" x="168.6105" y="-46.3" font-family="Helvetica,sans-Serif" font-size="11.00" fill="#000000">0 rows</text>
<polygon fill="#ffffff" stroke="transparent" points="204,-40.2 204,-59.2 266,-59.2 266,-40.2 204,-40.2"/>
<polygon fill="none" stroke="#000000" points="204,-40.2 204,-59.2 266,-59.2 266,-40.2 204,-40.2"/>
<text text-anchor="start" x="247.4053" y="-46.3" font-family="Helvetica,sans-Serif" font-size="11.00" fill="#000000">0 &gt;</text>
<polygon fill="none" stroke="#000000" stroke-width="2" points="9,-39.2 9,-237.2 267,-237.2 267,-39.2 9,-39.2"/>
</a>
</g>
</g>
</g>
</svg>
