<?xml version="1.0" encoding="UTF-8" standalone="no"?>
<!DOCTYPE svg PUBLIC "-//W3C//DTD SVG 1.1//EN"
 "http://www.w3.org/Graphics/SVG/1.1/DTD/svg11.dtd">
<!-- Generated by graphviz version 2.40.1 (20161225.0304)
 -->
<!-- Title: twoDegreesRelationshipsDiagram Pages: 1 -->
<svg width="758pt" height="228pt"
 viewBox="0.00 0.00 758.00 228.20" xmlns="http://www.w3.org/2000/svg" xmlns:xlink="http://www.w3.org/1999/xlink">
<g id="graph0" class="graph" transform="scale(1 1) rotate(0) translate(4 224.2)">
<title>twoDegreesRelationshipsDiagram</title>
<polygon fill="#ffffff" stroke="transparent" points="-4,4 -4,-224.2 754,-224.2 754,4 -4,4"/>
<text text-anchor="middle" x="72.4936" y="-7.3" font-family="Helvetica,sans-Serif" font-size="11.00" fill="#000000">Generated by SchemaSpy</text>
<!-- cm_covariate -->
<g id="node1" class="node">
<title>cm_covariate</title>
<g id="a_node1"><a xlink:href="../../tables/cm_covariate.html" xlink:title="cm_covariate" target="_top">
<polygon fill="#ffffff" stroke="transparent" points="290,-43.7 290,-170.7 454,-170.7 454,-43.7 290,-43.7"/>
<polygon fill="#f5f5f5" stroke="transparent" points="290,-147.2 290,-170.2 454,-170.2 454,-147.2 290,-147.2"/>
<polygon fill="none" stroke="#000000" points="290,-147.2 290,-170.2 454,-170.2 454,-147.2 290,-147.2"/>
<text text-anchor="start" x="295" y="-155.8" font-family="Helvetica,sans-Serif" font-weight="bold" font-size="11.00" fill="#000000">cm_covariate</text>
<text text-anchor="start" x="419.0437" y="-155.3" font-family="Helvetica,sans-Serif" font-size="11.00" fill="#000000">[table]</text>
<polygon fill="none" stroke="#000000" points="290,-125.2 290,-147.2 454,-147.2 454,-125.2 290,-125.2"/>
<image xlink:href="../../images/primaryKeys.png" width="11px" height="12px" preserveAspectRatio="xMinYMin meet" x="295" y="-142.2"/>
<text text-anchor="start" x="310" y="-132.3" font-family="Helvetica,sans-Serif" font-size="11.00" fill="#000000">analysis_id</text>
<polygon fill="none" stroke="#000000" points="290,-103.2 290,-125.2 454,-125.2 454,-103.2 290,-103.2"/>
<image xlink:href="../../images/primaryKeys.png" width="11px" height="12px" preserveAspectRatio="xMinYMin meet" x="295" y="-120.2"/>
<text text-anchor="start" x="310" y="-110.3" font-family="Helvetica,sans-Serif" font-size="11.00" fill="#000000">covariate_id</text>
<polygon fill="none" stroke="#000000" points="290,-81.2 290,-103.2 454,-103.2 454,-81.2 290,-81.2"/>
<image xlink:href="../../images/primaryKeys.png" width="11px" height="12px" preserveAspectRatio="xMinYMin meet" x="295" y="-98.2"/>
<text text-anchor="start" x="310" y="-88.3" font-family="Helvetica,sans-Serif" font-size="11.00" fill="#000000">database_id</text>
<polygon fill="none" stroke="#000000" points="290,-62.2 290,-81.2 454,-81.2 454,-62.2 290,-62.2"/>
<text text-anchor="start" x="293" y="-68.3" font-family="Helvetica,sans-Serif" font-size="11.00" fill="#000000">...</text>
<polygon fill="#ffffff" stroke="transparent" points="290,-43.2 290,-62.2 353,-62.2 353,-43.2 290,-43.2"/>
<polygon fill="none" stroke="#000000" points="290,-43.2 290,-62.2 353,-62.2 353,-43.2 290,-43.2"/>
<text text-anchor="start" x="293" y="-49.3" font-family="Helvetica,sans-Serif" font-size="11.00" fill="#000000">&lt; 1</text>
<polygon fill="#ffffff" stroke="transparent" points="353,-43.2 353,-62.2 412,-62.2 412,-43.2 353,-43.2"/>
<polygon fill="none" stroke="#000000" points="353,-43.2 353,-62.2 412,-62.2 412,-43.2 353,-43.2"/>
<text text-anchor="start" x="376.6105" y="-49.3" font-family="Helvetica,sans-Serif" font-size="11.00" fill="#000000">0 rows</text>
<polygon fill="#ffffff" stroke="transparent" points="412,-43.2 412,-62.2 454,-62.2 454,-43.2 412,-43.2"/>
<polygon fill="none" stroke="#000000" points="412,-43.2 412,-62.2 454,-62.2 454,-43.2 412,-43.2"/>
<text text-anchor="start" x="435.4053" y="-49.3" font-family="Helvetica,sans-Serif" font-size="11.00" fill="#000000">6 &gt;</text>
</a>
</g>
</g>
<!-- cm_propensity_model -->
<g id="node2" class="node">
<title>cm_propensity_model</title>
<g id="a_node2"><a xlink:href="../../tables/cm_propensity_model.html" xlink:title="cm_propensity_model" target="_top">
<polygon fill="#ffffff" stroke="transparent" points="8,-38.2 8,-216.2 241,-216.2 241,-38.2 8,-38.2"/>
<polygon fill="#f5f5f5" stroke="transparent" points="10.5,-191.2 10.5,-214.2 239.5,-214.2 239.5,-191.2 10.5,-191.2"/>
<polygon fill="none" stroke="#000000" points="10.5,-191.2 10.5,-214.2 239.5,-214.2 239.5,-191.2 10.5,-191.2"/>
<text text-anchor="start" x="15.5" y="-199.8" font-family="Helvetica,sans-Serif" font-weight="bold" font-size="11.00" fill="#000000">cm_propensity_model</text>
<text text-anchor="start" x="204.5437" y="-199.3" font-family="Helvetica,sans-Serif" font-size="11.00" fill="#000000">[table]</text>
<polygon fill="none" stroke="#000000" points="10.5,-169.2 10.5,-191.2 177.5,-191.2 177.5,-169.2 10.5,-169.2"/>
<text text-anchor="start" x="30.5" y="-176.3" font-family="Helvetica,sans-Serif" font-size="11.00" fill="#000000">analysis_id</text>
<polygon fill="none" stroke="#000000" points="177.5,-169.2 177.5,-191.2 239.5,-191.2 239.5,-169.2 177.5,-169.2"/>
<text text-anchor="start" x="180.378" y="-176.9" font-family="Helvetica,sans-Serif" font-size="11.00" fill="#000000">unknown[0]</text>
<polygon fill="none" stroke="#000000" points="10.5,-147.2 10.5,-169.2 177.5,-169.2 177.5,-147.2 10.5,-147.2"/>
<text text-anchor="start" x="30.5" y="-154.3" font-family="Helvetica,sans-Serif" font-size="11.00" fill="#000000">coefficient</text>
<polygon fill="none" stroke="#000000" points="177.5,-147.2 177.5,-169.2 239.5,-169.2 239.5,-147.2 177.5,-147.2"/>
<text text-anchor="start" x="180.378" y="-154.9" font-family="Helvetica,sans-Serif" font-size="11.00" fill="#000000">unknown[0]</text>
<polygon fill="none" stroke="#000000" points="10.5,-125.2 10.5,-147.2 177.5,-147.2 177.5,-125.2 10.5,-125.2"/>
<text text-anchor="start" x="30.5" y="-132.3" font-family="Helvetica,sans-Serif" font-size="11.00" fill="#000000">comparator_id</text>
<polygon fill="none" stroke="#000000" points="177.5,-125.2 177.5,-147.2 239.5,-147.2 239.5,-125.2 177.5,-125.2"/>
<text text-anchor="start" x="180.378" y="-132.9" font-family="Helvetica,sans-Serif" font-size="11.00" fill="#000000">unknown[0]</text>
<polygon fill="none" stroke="#000000" points="10.5,-103.2 10.5,-125.2 177.5,-125.2 177.5,-103.2 10.5,-103.2"/>
<image xlink:href="../../images/primaryKeys.png" width="11px" height="12px" preserveAspectRatio="xMinYMin meet" x="15.5" y="-120.2"/>
<text text-anchor="start" x="30.5" y="-110.3" font-family="Helvetica,sans-Serif" font-size="11.00" fill="#000000">covariate_id</text>
<polygon fill="none" stroke="#000000" points="177.5,-103.2 177.5,-125.2 239.5,-125.2 239.5,-103.2 177.5,-103.2"/>
<text text-anchor="start" x="180.378" y="-110.9" font-family="Helvetica,sans-Serif" font-size="11.00" fill="#000000">unknown[0]</text>
<polygon fill="none" stroke="#000000" points="10.5,-81.2 10.5,-103.2 177.5,-103.2 177.5,-81.2 10.5,-81.2"/>
<text text-anchor="start" x="30.5" y="-88.3" font-family="Helvetica,sans-Serif" font-size="11.00" fill="#000000">database_id</text>
<polygon fill="none" stroke="#000000" points="177.5,-81.2 177.5,-103.2 239.5,-103.2 239.5,-81.2 177.5,-81.2"/>
<text text-anchor="start" x="180.378" y="-88.9" font-family="Helvetica,sans-Serif" font-size="11.00" fill="#000000">unknown[0]</text>
<polygon fill="none" stroke="#000000" points="10.5,-59.2 10.5,-81.2 177.5,-81.2 177.5,-59.2 10.5,-59.2"/>
<text text-anchor="start" x="30.5" y="-66.3" font-family="Helvetica,sans-Serif" font-size="11.00" fill="#000000">target_id</text>
<polygon fill="none" stroke="#000000" points="177.5,-59.2 177.5,-81.2 239.5,-81.2 239.5,-59.2 177.5,-59.2"/>
<text text-anchor="start" x="180.378" y="-66.9" font-family="Helvetica,sans-Serif" font-size="11.00" fill="#000000">unknown[0]</text>
<polygon fill="#ffffff" stroke="transparent" points="10.5,-40.2 10.5,-59.2 85.5,-59.2 85.5,-40.2 10.5,-40.2"/>
<polygon fill="none" stroke="#000000" points="10.5,-40.2 10.5,-59.2 85.5,-59.2 85.5,-40.2 10.5,-40.2"/>
<text text-anchor="start" x="13.5" y="-46.3" font-family="Helvetica,sans-Serif" font-size="11.00" fill="#000000">&lt; 0</text>
<polygon fill="#ffffff" stroke="transparent" points="85.5,-40.2 85.5,-59.2 177.5,-59.2 177.5,-40.2 85.5,-40.2"/>
<polygon fill="none" stroke="#000000" points="85.5,-40.2 85.5,-59.2 177.5,-59.2 177.5,-40.2 85.5,-40.2"/>
<text text-anchor="start" x="142.1105" y="-46.3" font-family="Helvetica,sans-Serif" font-size="11.00" fill="#000000">0 rows</text>
<polygon fill="#ffffff" stroke="transparent" points="177.5,-40.2 177.5,-59.2 239.5,-59.2 239.5,-40.2 177.5,-40.2"/>
<polygon fill="none" stroke="#000000" points="177.5,-40.2 177.5,-59.2 239.5,-59.2 239.5,-40.2 177.5,-40.2"/>
<text text-anchor="start" x="220.9053" y="-46.3" font-family="Helvetica,sans-Serif" font-size="11.00" fill="#000000">1 &gt;</text>
<polygon fill="none" stroke="#000000" stroke-width="2" points="9,-39.2 9,-215.2 240,-215.2 240,-39.2 9,-39.2"/>
</a>
</g>
</g>
<!-- cm_covariate&#45;&gt;cm_propensity_model -->
<g id="edge1" class="edge">
<title>cm_covariate:w&#45;&gt;cm_propensity_model:e</title>
<path fill="none" stroke="#000000" d="M275.4203,-114.2C263.5435,-114.2 256.158,-114.2 239.5,-114.2"/>
<polygon fill="#000000" stroke="#000000" points="282,-114.2001 290,-117.8 286,-114.2 290,-114.2 290,-114.2 290,-114.2 286,-114.2 290,-110.6 282,-114.2001 282,-114.2001"/>
<ellipse fill="none" stroke="#000000" cx="278.8" cy="-114.2001" rx="3.2" ry="3.2"/>
</g>
<!-- cm_covariate_balance -->
<g id="node3" class="node">
<title>cm_covariate_balance</title>
<g id="a_node3"><a xlink:href="../../tables/cm_covariate_balance.html" xlink:title="cm_covariate_balance" target="_top">
<polygon fill="#ffffff" stroke="transparent" points="529.5,-127.7 529.5,-188.7 715.5,-188.7 715.5,-127.7 529.5,-127.7"/>
<polygon fill="#f5f5f5" stroke="transparent" points="529.5,-165.2 529.5,-188.2 715.5,-188.2 715.5,-165.2 529.5,-165.2"/>
<polygon fill="none" stroke="#000000" points="529.5,-165.2 529.5,-188.2 715.5,-188.2 715.5,-165.2 529.5,-165.2"/>
<text text-anchor="start" x="534.5" y="-173.8" font-family="Helvetica,sans-Serif" font-weight="bold" font-size="11.00" fill="#000000">cm_covariate_balance</text>
<text text-anchor="start" x="681.0219" y="-173.3" font-family="Helvetica,sans-Serif" font-size="11.00" fill="#000000">[table]</text>
<polygon fill="none" stroke="#000000" points="529.5,-146.2 529.5,-165.2 715.5,-165.2 715.5,-146.2 529.5,-146.2"/>
<text text-anchor="start" x="532.5" y="-152.3" font-family="Helvetica,sans-Serif" font-size="11.00" fill="#000000">...</text>
<polygon fill="#ffffff" stroke="transparent" points="529.5,-127.2 529.5,-146.2 607.5,-146.2 607.5,-127.2 529.5,-127.2"/>
<polygon fill="none" stroke="#000000" points="529.5,-127.2 529.5,-146.2 607.5,-146.2 607.5,-127.2 529.5,-127.2"/>
<text text-anchor="start" x="532.5" y="-133.3" font-family="Helvetica,sans-Serif" font-size="11.00" fill="#000000">&lt; 4</text>
<polygon fill="#ffffff" stroke="transparent" points="607.5,-127.2 607.5,-146.2 674.5,-146.2 674.5,-127.2 607.5,-127.2"/>
<polygon fill="none" stroke="#000000" points="607.5,-127.2 607.5,-146.2 674.5,-146.2 674.5,-127.2 607.5,-127.2"/>
<text text-anchor="start" x="639.1105" y="-133.3" font-family="Helvetica,sans-Serif" font-size="11.00" fill="#000000">0 rows</text>
<polygon fill="#ffffff" stroke="transparent" points="674.5,-127.2 674.5,-146.2 715.5,-146.2 715.5,-127.2 674.5,-127.2"/>
<polygon fill="none" stroke="#000000" points="674.5,-127.2 674.5,-146.2 715.5,-146.2 715.5,-127.2 674.5,-127.2"/>
<text text-anchor="start" x="706.3862" y="-133.3" font-family="Helvetica,sans-Serif" font-size="11.00" fill="#000000"> &#160;</text>
</a>
</g>
</g>
<!-- cm_covariate_balance&#45;&gt;cm_covariate -->
<g id="edge2" class="edge">
<title>cm_covariate_balance:w&#45;&gt;cm_covariate:e</title>
<path fill="none" stroke="#000000" d="M515.1376,-153.9534C492.2395,-149.7264 483.1953,-136.2 454,-136.2"/>
<polygon fill="#000000" stroke="#000000" points="521.53,-154.5082 529.1887,-158.7865 525.515,-154.8541 529.5,-155.2 529.5,-155.2 529.5,-155.2 525.515,-154.8541 529.8113,-151.6135 521.53,-154.5082 521.53,-154.5082"/>
<ellipse fill="none" stroke="#000000" cx="518.342" cy="-154.2314" rx="3.2" ry="3.2"/>
</g>
<!-- cm_covariate_balance&#45;&gt;cm_covariate -->
<g id="edge3" class="edge">
<title>cm_covariate_balance:w&#45;&gt;cm_covariate:e</title>
<path fill="none" stroke="#000000" d="M515.1551,-152.8782C490.7511,-144.2049 486.6653,-114.2 454,-114.2"/>
<polygon fill="#000000" stroke="#000000" points="521.6028,-153.9217 528.9248,-158.7538 525.5514,-154.5609 529.5,-155.2 529.5,-155.2 529.5,-155.2 525.5514,-154.5609 530.0752,-151.6462 521.6028,-153.9217 521.6028,-153.9217"/>
<ellipse fill="none" stroke="#000000" cx="518.4439" cy="-153.4104" rx="3.2" ry="3.2"/>
</g>
<!-- cm_covariate_balance&#45;&gt;cm_covariate -->
<g id="edge4" class="edge">
<title>cm_covariate_balance:w&#45;&gt;cm_covariate:e</title>
<path fill="none" stroke="#000000" d="M515.1331,-152.3293C487.9423,-140.0047 492.0696,-92.2 454,-92.2"/>
<polygon fill="#000000" stroke="#000000" points="521.6551,-153.6324 528.7946,-158.7302 525.5775,-154.4162 529.5,-155.2 529.5,-155.2 529.5,-155.2 525.5775,-154.4162 530.2054,-151.6698 521.6551,-153.6324 521.6551,-153.6324"/>
<ellipse fill="none" stroke="#000000" cx="518.5171" cy="-153.0054" rx="3.2" ry="3.2"/>
</g>
<!-- cm_shared_covariate_balance -->
<g id="node4" class="node">
<title>cm_shared_covariate_balance</title>
<g id="a_node4"><a xlink:href="../../tables/cm_shared_covariate_balance.html" xlink:title="cm_shared_covariate_balance" target="_top">
<polygon fill="#ffffff" stroke="transparent" points="503,-45.7 503,-106.7 742,-106.7 742,-45.7 503,-45.7"/>
<polygon fill="#f5f5f5" stroke="transparent" points="503.5,-83.2 503.5,-106.2 742.5,-106.2 742.5,-83.2 503.5,-83.2"/>
<polygon fill="none" stroke="#000000" points="503.5,-83.2 503.5,-106.2 742.5,-106.2 742.5,-83.2 503.5,-83.2"/>
<text text-anchor="start" x="508.5" y="-91.8" font-family="Helvetica,sans-Serif" font-weight="bold" font-size="11.00" fill="#000000">cm_shared_covariate_balance</text>
<text text-anchor="start" x="708.0219" y="-91.3" font-family="Helvetica,sans-Serif" font-size="11.00" fill="#000000">[table]</text>
<polygon fill="none" stroke="#000000" points="503.5,-64.2 503.5,-83.2 742.5,-83.2 742.5,-64.2 503.5,-64.2"/>
<text text-anchor="start" x="506.5" y="-70.3" font-family="Helvetica,sans-Serif" font-size="11.00" fill="#000000">...</text>
<polygon fill="#ffffff" stroke="transparent" points="503.5,-45.2 503.5,-64.2 608.5,-64.2 608.5,-45.2 503.5,-45.2"/>
<polygon fill="none" stroke="#000000" points="503.5,-45.2 503.5,-64.2 608.5,-64.2 608.5,-45.2 503.5,-45.2"/>
<text text-anchor="start" x="506.5" y="-51.3" font-family="Helvetica,sans-Serif" font-size="11.00" fill="#000000">&lt; 4</text>
<polygon fill="#ffffff" stroke="transparent" points="608.5,-45.2 608.5,-64.2 688.5,-64.2 688.5,-45.2 608.5,-45.2"/>
<polygon fill="none" stroke="#000000" points="608.5,-45.2 608.5,-64.2 688.5,-64.2 688.5,-45.2 608.5,-45.2"/>
<text text-anchor="start" x="653.1105" y="-51.3" font-family="Helvetica,sans-Serif" font-size="11.00" fill="#000000">0 rows</text>
<polygon fill="#ffffff" stroke="transparent" points="688.5,-45.2 688.5,-64.2 742.5,-64.2 742.5,-45.2 688.5,-45.2"/>
<polygon fill="none" stroke="#000000" points="688.5,-45.2 688.5,-64.2 742.5,-64.2 742.5,-45.2 688.5,-45.2"/>
<text text-anchor="start" x="733.3862" y="-51.3" font-family="Helvetica,sans-Serif" font-size="11.00" fill="#000000"> &#160;</text>
</a>
</g>
</g>
<!-- cm_shared_covariate_balance&#45;&gt;cm_covariate -->
<g id="edge5" class="edge">
<title>cm_shared_covariate_balance:w&#45;&gt;cm_covariate:e</title>
<path fill="none" stroke="#000000" d="M489.6375,-78.1435C473.6631,-92.9952 483.4887,-136.2 454,-136.2"/>
<polygon fill="#000000" stroke="#000000" points="495.9648,-75.8872 504.7092,-76.5908 499.7324,-74.5436 503.5,-73.2 503.5,-73.2 503.5,-73.2 499.7324,-74.5436 502.2908,-69.8092 495.9648,-75.8872 495.9648,-75.8872"/>
<ellipse fill="none" stroke="#000000" cx="492.9507" cy="-76.962" rx="3.2" ry="3.2"/>
</g>
<!-- cm_shared_covariate_balance&#45;&gt;cm_covariate -->
<g id="edge6" class="edge">
<title>cm_shared_covariate_balance:w&#45;&gt;cm_covariate:e</title>
<path fill="none" stroke="#000000" d="M489.5753,-77.9032C476.543,-88.6726 476.5408,-114.2 454,-114.2"/>
<polygon fill="#000000" stroke="#000000" points="495.9207,-75.76 504.652,-76.6107 499.7103,-74.48 503.5,-73.2 503.5,-73.2 503.5,-73.2 499.7103,-74.48 502.348,-69.7893 495.9207,-75.76 495.9207,-75.76"/>
<ellipse fill="none" stroke="#000000" cx="492.8889" cy="-76.7841" rx="3.2" ry="3.2"/>
</g>
<!-- cm_shared_covariate_balance&#45;&gt;cm_covariate -->
<g id="edge7" class="edge">
<title>cm_shared_covariate_balance:w&#45;&gt;cm_covariate:e</title>
<path fill="none" stroke="#000000" d="M489.138,-76.1688C477.4253,-81.5125 471.6737,-92.2 454,-92.2"/>
<polygon fill="#000000" stroke="#000000" points="495.6656,-74.8195 504.2288,-76.7255 499.5828,-74.0097 503.5,-73.2 503.5,-73.2 503.5,-73.2 499.5828,-74.0097 502.7712,-69.6745 495.6656,-74.8195 495.6656,-74.8195"/>
<ellipse fill="none" stroke="#000000" cx="492.5319" cy="-75.4673" rx="3.2" ry="3.2"/>
</g>
</g>
</svg>
