<?xml version="1.0" encoding="UTF-8" standalone="no"?>
<!DOCTYPE svg PUBLIC "-//W3C//DTD SVG 1.1//EN"
 "http://www.w3.org/Graphics/SVG/1.1/DTD/svg11.dtd">
<!-- Generated by graphviz version 2.40.1 (20161225.0304)
 -->
<!-- Title: oneDegreeRelationshipsDiagram Pages: 1 -->
<svg width="470pt" height="228pt"
 viewBox="0.00 0.00 470.00 228.20" xmlns="http://www.w3.org/2000/svg" xmlns:xlink="http://www.w3.org/1999/xlink">
<g id="graph0" class="graph" transform="scale(1 1) rotate(0) translate(4 224.2)">
<title>oneDegreeRelationshipsDiagram</title>
<polygon fill="#ffffff" stroke="transparent" points="-4,4 -4,-224.2 466,-224.2 466,4 -4,4"/>
<text text-anchor="middle" x="72.4936" y="-7.3" font-family="Helvetica,sans-Serif" font-size="11.00" fill="#000000">Generated by SchemaSpy</text>
<!-- cm_covariate -->
<g id="node1" class="node">
<title>cm_covariate</title>
<g id="a_node1"><a xlink:href="../../tables/cm_covariate.html" xlink:title="cm_covariate" target="_top">
<polygon fill="#ffffff" stroke="transparent" points="290,-43.7 290,-170.7 454,-170.7 454,-43.7 290,-43.7"/>
<polygon fill="#f5f5f5" stroke="transparent" points="290,-147.2 290,-170.2 454,-170.2 454,-147.2 290,-147.2"/>
<polygon fill="none" stroke="#000000" points="290,-147.2 290,-170.2 454,-170.2 454,-147.2 290,-147.2"/>
<text text-anchor="start" x="295" y="-155.8" font-family="Helvetica,sans-Serif" font-weight="bold" font-size="11.00" fill="#000000">cm_covariate</text>
<text text-anchor="start" x="419.0437" y="-155.3" font-family="Helvetica,sans-Serif" font-size="11.00" fill="#000000">[table]</text>
<polygon fill="none" stroke="#000000" points="290,-125.2 290,-147.2 454,-147.2 454,-125.2 290,-125.2"/>
<image xlink:href="../../images/primaryKeys.png" width="11px" height="12px" preserveAspectRatio="xMinYMin meet" x="295" y="-142.2"/>
<text text-anchor="start" x="310" y="-132.3" font-family="Helvetica,sans-Serif" font-size="11.00" fill="#000000">analysis_id</text>
<polygon fill="none" stroke="#000000" points="290,-103.2 290,-125.2 454,-125.2 454,-103.2 290,-103.2"/>
<image xlink:href="../../images/primaryKeys.png" width="11px" height="12px" preserveAspectRatio="xMinYMin meet" x="295" y="-120.2"/>
<text text-anchor="start" x="310" y="-110.3" font-family="Helvetica,sans-Serif" font-size="11.00" fill="#000000">covariate_id</text>
<polygon fill="none" stroke="#000000" points="290,-81.2 290,-103.2 454,-103.2 454,-81.2 290,-81.2"/>
<image xlink:href="../../images/primaryKeys.png" width="11px" height="12px" preserveAspectRatio="xMinYMin meet" x="295" y="-98.2"/>
<text text-anchor="start" x="310" y="-88.3" font-family="Helvetica,sans-Serif" font-size="11.00" fill="#000000">database_id</text>
<polygon fill="none" stroke="#000000" points="290,-62.2 290,-81.2 454,-81.2 454,-62.2 290,-62.2"/>
<text text-anchor="start" x="293" y="-68.3" font-family="Helvetica,sans-Serif" font-size="11.00" fill="#000000">...</text>
<polygon fill="#ffffff" stroke="transparent" points="290,-43.2 290,-62.2 353,-62.2 353,-43.2 290,-43.2"/>
<polygon fill="none" stroke="#000000" points="290,-43.2 290,-62.2 353,-62.2 353,-43.2 290,-43.2"/>
<text text-anchor="start" x="293" y="-49.3" font-family="Helvetica,sans-Serif" font-size="11.00" fill="#000000">&lt; 1</text>
<polygon fill="#ffffff" stroke="transparent" points="353,-43.2 353,-62.2 412,-62.2 412,-43.2 353,-43.2"/>
<polygon fill="none" stroke="#000000" points="353,-43.2 353,-62.2 412,-62.2 412,-43.2 353,-43.2"/>
<text text-anchor="start" x="376.6105" y="-49.3" font-family="Helvetica,sans-Serif" font-size="11.00" fill="#000000">0 rows</text>
<polygon fill="#ffffff" stroke="transparent" points="412,-43.2 412,-62.2 454,-62.2 454,-43.2 412,-43.2"/>
<polygon fill="none" stroke="#000000" points="412,-43.2 412,-62.2 454,-62.2 454,-43.2 412,-43.2"/>
<text text-anchor="start" x="435.4053" y="-49.3" font-family="Helvetica,sans-Serif" font-size="11.00" fill="#000000">6 &gt;</text>
</a>
</g>
</g>
<!-- cm_propensity_model -->
<g id="node2" class="node">
<title>cm_propensity_model</title>
<g id="a_node2"><a xlink:href="../../tables/cm_propensity_model.html" xlink:title="cm_propensity_model" target="_top">
<polygon fill="#ffffff" stroke="transparent" points="8,-38.2 8,-216.2 241,-216.2 241,-38.2 8,-38.2"/>
<polygon fill="#f5f5f5" stroke="transparent" points="10.5,-191.2 10.5,-214.2 239.5,-214.2 239.5,-191.2 10.5,-191.2"/>
<polygon fill="none" stroke="#000000" points="10.5,-191.2 10.5,-214.2 239.5,-214.2 239.5,-191.2 10.5,-191.2"/>
<text text-anchor="start" x="15.5" y="-199.8" font-family="Helvetica,sans-Serif" font-weight="bold" font-size="11.00" fill="#000000">cm_propensity_model</text>
<text text-anchor="start" x="204.5437" y="-199.3" font-family="Helvetica,sans-Serif" font-size="11.00" fill="#000000">[table]</text>
<polygon fill="none" stroke="#000000" points="10.5,-169.2 10.5,-191.2 177.5,-191.2 177.5,-169.2 10.5,-169.2"/>
<text text-anchor="start" x="30.5" y="-176.3" font-family="Helvetica,sans-Serif" font-size="11.00" fill="#000000">analysis_id</text>
<polygon fill="none" stroke="#000000" points="177.5,-169.2 177.5,-191.2 239.5,-191.2 239.5,-169.2 177.5,-169.2"/>
<text text-anchor="start" x="180.378" y="-176.9" font-family="Helvetica,sans-Serif" font-size="11.00" fill="#000000">unknown[0]</text>
<polygon fill="none" stroke="#000000" points="10.5,-147.2 10.5,-169.2 177.5,-169.2 177.5,-147.2 10.5,-147.2"/>
<text text-anchor="start" x="30.5" y="-154.3" font-family="Helvetica,sans-Serif" font-size="11.00" fill="#000000">coefficient</text>
<polygon fill="none" stroke="#000000" points="177.5,-147.2 177.5,-169.2 239.5,-169.2 239.5,-147.2 177.5,-147.2"/>
<text text-anchor="start" x="180.378" y="-154.9" font-family="Helvetica,sans-Serif" font-size="11.00" fill="#000000">unknown[0]</text>
<polygon fill="none" stroke="#000000" points="10.5,-125.2 10.5,-147.2 177.5,-147.2 177.5,-125.2 10.5,-125.2"/>
<text text-anchor="start" x="30.5" y="-132.3" font-family="Helvetica,sans-Serif" font-size="11.00" fill="#000000">comparator_id</text>
<polygon fill="none" stroke="#000000" points="177.5,-125.2 177.5,-147.2 239.5,-147.2 239.5,-125.2 177.5,-125.2"/>
<text text-anchor="start" x="180.378" y="-132.9" font-family="Helvetica,sans-Serif" font-size="11.00" fill="#000000">unknown[0]</text>
<polygon fill="none" stroke="#000000" points="10.5,-103.2 10.5,-125.2 177.5,-125.2 177.5,-103.2 10.5,-103.2"/>
<image xlink:href="../../images/primaryKeys.png" width="11px" height="12px" preserveAspectRatio="xMinYMin meet" x="15.5" y="-120.2"/>
<text text-anchor="start" x="30.5" y="-110.3" font-family="Helvetica,sans-Serif" font-size="11.00" fill="#000000">covariate_id</text>
<polygon fill="none" stroke="#000000" points="177.5,-103.2 177.5,-125.2 239.5,-125.2 239.5,-103.2 177.5,-103.2"/>
<text text-anchor="start" x="180.378" y="-110.9" font-family="Helvetica,sans-Serif" font-size="11.00" fill="#000000">unknown[0]</text>
<polygon fill="none" stroke="#000000" points="10.5,-81.2 10.5,-103.2 177.5,-103.2 177.5,-81.2 10.5,-81.2"/>
<text text-anchor="start" x="30.5" y="-88.3" font-family="Helvetica,sans-Serif" font-size="11.00" fill="#000000">database_id</text>
<polygon fill="none" stroke="#000000" points="177.5,-81.2 177.5,-103.2 239.5,-103.2 239.5,-81.2 177.5,-81.2"/>
<text text-anchor="start" x="180.378" y="-88.9" font-family="Helvetica,sans-Serif" font-size="11.00" fill="#000000">unknown[0]</text>
<polygon fill="none" stroke="#000000" points="10.5,-59.2 10.5,-81.2 177.5,-81.2 177.5,-59.2 10.5,-59.2"/>
<text text-anchor="start" x="30.5" y="-66.3" font-family="Helvetica,sans-Serif" font-size="11.00" fill="#000000">target_id</text>
<polygon fill="none" stroke="#000000" points="177.5,-59.2 177.5,-81.2 239.5,-81.2 239.5,-59.2 177.5,-59.2"/>
<text text-anchor="start" x="180.378" y="-66.9" font-family="Helvetica,sans-Serif" font-size="11.00" fill="#000000">unknown[0]</text>
<polygon fill="#ffffff" stroke="transparent" points="10.5,-40.2 10.5,-59.2 85.5,-59.2 85.5,-40.2 10.5,-40.2"/>
<polygon fill="none" stroke="#000000" points="10.5,-40.2 10.5,-59.2 85.5,-59.2 85.5,-40.2 10.5,-40.2"/>
<text text-anchor="start" x="13.5" y="-46.3" font-family="Helvetica,sans-Serif" font-size="11.00" fill="#000000">&lt; 0</text>
<polygon fill="#ffffff" stroke="transparent" points="85.5,-40.2 85.5,-59.2 177.5,-59.2 177.5,-40.2 85.5,-40.2"/>
<polygon fill="none" stroke="#000000" points="85.5,-40.2 85.5,-59.2 177.5,-59.2 177.5,-40.2 85.5,-40.2"/>
<text text-anchor="start" x="142.1105" y="-46.3" font-family="Helvetica,sans-Serif" font-size="11.00" fill="#000000">0 rows</text>
<polygon fill="#ffffff" stroke="transparent" points="177.5,-40.2 177.5,-59.2 239.5,-59.2 239.5,-40.2 177.5,-40.2"/>
<polygon fill="none" stroke="#000000" points="177.5,-40.2 177.5,-59.2 239.5,-59.2 239.5,-40.2 177.5,-40.2"/>
<text text-anchor="start" x="220.9053" y="-46.3" font-family="Helvetica,sans-Serif" font-size="11.00" fill="#000000">1 &gt;</text>
<polygon fill="none" stroke="#000000" stroke-width="2" points="9,-39.2 9,-215.2 240,-215.2 240,-39.2 9,-39.2"/>
</a>
</g>
</g>
<!-- cm_covariate&#45;&gt;cm_propensity_model -->
<g id="edge1" class="edge">
<title>cm_covariate:w&#45;&gt;cm_propensity_model:e</title>
<path fill="none" stroke="#000000" d="M275.4203,-114.2C263.5435,-114.2 256.158,-114.2 239.5,-114.2"/>
<polygon fill="#000000" stroke="#000000" points="282,-114.2001 290,-117.8 286,-114.2 290,-114.2 290,-114.2 290,-114.2 286,-114.2 290,-110.6 282,-114.2001 282,-114.2001"/>
<ellipse fill="none" stroke="#000000" cx="278.8" cy="-114.2001" rx="3.2" ry="3.2"/>
</g>
</g>
</svg>
