<?xml version="1.0" encoding="UTF-8" standalone="no"?>
<!DOCTYPE svg PUBLIC "-//W3C//DTD SVG 1.1//EN"
 "http://www.w3.org/Graphics/SVG/1.1/DTD/svg11.dtd">
<!-- Generated by graphviz version 2.40.1 (20161225.0304)
 -->
<!-- Title: twoDegreesRelationshipsDiagram Pages: 1 -->
<svg width="739pt" height="774pt"
 viewBox="0.00 0.00 739.00 773.70" xmlns="http://www.w3.org/2000/svg" xmlns:xlink="http://www.w3.org/1999/xlink">
<g id="graph0" class="graph" transform="scale(1 1) rotate(0) translate(4 769.7)">
<title>twoDegreesRelationshipsDiagram</title>
<polygon fill="#ffffff" stroke="transparent" points="-4,4 -4,-769.7 735,-769.7 735,4 -4,4"/>
<text text-anchor="middle" x="72.4936" y="-7.3" font-family="Helvetica,sans-Serif" font-size="11.00" fill="#000000">Generated by SchemaSpy</text>
<!-- cm_analysis -->
<g id="node1" class="node">
<title>cm_analysis</title>
<g id="a_node1"><a xlink:href="../../tables/cm_analysis.html" xlink:title="cm_analysis" target="_top">
<polygon fill="#ffffff" stroke="transparent" points="604,-678.7 604,-761.7 723,-761.7 723,-678.7 604,-678.7"/>
<polygon fill="#f5f5f5" stroke="transparent" points="604.5,-738.2 604.5,-761.2 723.5,-761.2 723.5,-738.2 604.5,-738.2"/>
<polygon fill="none" stroke="#000000" points="604.5,-738.2 604.5,-761.2 723.5,-761.2 723.5,-738.2 604.5,-738.2"/>
<text text-anchor="start" x="609.5" y="-746.8" font-family="Helvetica,sans-Serif" font-weight="bold" font-size="11.00" fill="#000000">cm_analysis</text>
<text text-anchor="start" x="689.0219" y="-746.3" font-family="Helvetica,sans-Serif" font-size="11.00" fill="#000000">[table]</text>
<polygon fill="none" stroke="#000000" points="604.5,-716.2 604.5,-738.2 723.5,-738.2 723.5,-716.2 604.5,-716.2"/>
<image xlink:href="../../images/primaryKeys.png" width="11px" height="12px" preserveAspectRatio="xMinYMin meet" x="609.5" y="-733.2"/>
<text text-anchor="start" x="633.5" y="-723.3" font-family="Helvetica,sans-Serif" font-size="11.00" fill="#000000">analysis_id</text>
<polygon fill="none" stroke="#000000" points="604.5,-697.2 604.5,-716.2 723.5,-716.2 723.5,-697.2 604.5,-697.2"/>
<text text-anchor="start" x="607.5" y="-703.3" font-family="Helvetica,sans-Serif" font-size="11.00" fill="#000000">...</text>
<polygon fill="#ffffff" stroke="transparent" points="604.5,-678.2 604.5,-697.2 644.5,-697.2 644.5,-678.2 604.5,-678.2"/>
<polygon fill="none" stroke="#000000" points="604.5,-678.2 604.5,-697.2 644.5,-697.2 644.5,-678.2 604.5,-678.2"/>
<text text-anchor="start" x="607.5" y="-684.3" font-family="Helvetica,sans-Serif" font-size="11.00" fill="#000000">&lt; 2</text>
<polygon fill="#ffffff" stroke="transparent" points="644.5,-678.2 644.5,-697.2 692.5,-697.2 692.5,-678.2 644.5,-678.2"/>
<polygon fill="none" stroke="#000000" points="644.5,-678.2 644.5,-697.2 692.5,-697.2 692.5,-678.2 644.5,-678.2"/>
<text text-anchor="start" x="657.1105" y="-684.3" font-family="Helvetica,sans-Serif" font-size="11.00" fill="#000000">0 rows</text>
<polygon fill="#ffffff" stroke="transparent" points="692.5,-678.2 692.5,-697.2 723.5,-697.2 723.5,-678.2 692.5,-678.2"/>
<polygon fill="none" stroke="#000000" points="692.5,-678.2 692.5,-697.2 723.5,-697.2 723.5,-678.2 692.5,-678.2"/>
<text text-anchor="start" x="704.9053" y="-684.3" font-family="Helvetica,sans-Serif" font-size="11.00" fill="#000000">1 &gt;</text>
</a>
</g>
</g>
<!-- cm_diagnostics_summary -->
<g id="node2" class="node">
<title>cm_diagnostics_summary</title>
<g id="a_node2"><a xlink:href="../../tables/cm_diagnostics_summary.html" xlink:title="cm_diagnostics_summary" target="_top">
<polygon fill="#ffffff" stroke="transparent" points="328.5,-699.7 328.5,-760.7 538.5,-760.7 538.5,-699.7 328.5,-699.7"/>
<polygon fill="#f5f5f5" stroke="transparent" points="328.5,-737.2 328.5,-760.2 538.5,-760.2 538.5,-737.2 328.5,-737.2"/>
<polygon fill="none" stroke="#000000" points="328.5,-737.2 328.5,-760.2 538.5,-760.2 538.5,-737.2 328.5,-737.2"/>
<text text-anchor="start" x="333.5" y="-745.8" font-family="Helvetica,sans-Serif" font-weight="bold" font-size="11.00" fill="#000000">cm_diagnostics_summary</text>
<text text-anchor="start" x="504.0219" y="-745.3" font-family="Helvetica,sans-Serif" font-size="11.00" fill="#000000">[table]</text>
<polygon fill="none" stroke="#000000" points="328.5,-718.2 328.5,-737.2 538.5,-737.2 538.5,-718.2 328.5,-718.2"/>
<text text-anchor="start" x="331.5" y="-724.3" font-family="Helvetica,sans-Serif" font-size="11.00" fill="#000000">...</text>
<polygon fill="#ffffff" stroke="transparent" points="328.5,-699.2 328.5,-718.2 414.5,-718.2 414.5,-699.2 328.5,-699.2"/>
<polygon fill="none" stroke="#000000" points="328.5,-699.2 328.5,-718.2 414.5,-718.2 414.5,-699.2 328.5,-699.2"/>
<text text-anchor="start" x="331.5" y="-705.3" font-family="Helvetica,sans-Serif" font-size="11.00" fill="#000000">&lt; 5</text>
<polygon fill="#ffffff" stroke="transparent" points="414.5,-699.2 414.5,-718.2 484.5,-718.2 484.5,-699.2 414.5,-699.2"/>
<polygon fill="none" stroke="#000000" points="414.5,-699.2 414.5,-718.2 484.5,-718.2 484.5,-699.2 414.5,-699.2"/>
<text text-anchor="start" x="449.1105" y="-705.3" font-family="Helvetica,sans-Serif" font-size="11.00" fill="#000000">0 rows</text>
<polygon fill="#ffffff" stroke="transparent" points="484.5,-699.2 484.5,-718.2 538.5,-718.2 538.5,-699.2 484.5,-699.2"/>
<polygon fill="none" stroke="#000000" points="484.5,-699.2 484.5,-718.2 538.5,-718.2 538.5,-699.2 484.5,-699.2"/>
<text text-anchor="start" x="519.9053" y="-705.3" font-family="Helvetica,sans-Serif" font-size="11.00" fill="#000000">1 &gt;</text>
</a>
</g>
</g>
<!-- cm_analysis&#45;&gt;cm_diagnostics_summary -->
<g id="edge1" class="edge">
<title>cm_analysis:w&#45;&gt;cm_diagnostics_summary:e</title>
<path fill="none" stroke="#000000" d="M593.8736,-727.2C572.8307,-727.2 563.9375,-727.2 538.5,-727.2"/>
<polygon fill="#000000" stroke="#000000" points="603.7,-723.2 603.7,-731.2 602.1,-731.2 602.1,-723.2 603.7,-723.2"/>
<polyline fill="none" stroke="#000000" points="604.5,-727.2 600.5,-727.2 "/>
<ellipse fill="none" stroke="#000000" cx="597.3" cy="-727.2001" rx="3.2" ry="3.2"/>
</g>
<!-- cm_result -->
<g id="node3" class="node">
<title>cm_result</title>
<g id="a_node3"><a xlink:href="../../tables/cm_result.html" xlink:title="cm_result" target="_top">
<polygon fill="#ffffff" stroke="transparent" points="312,-38.2 312,-678.2 555,-678.2 555,-38.2 312,-38.2"/>
<polygon fill="#f5f5f5" stroke="transparent" points="314.5,-653.2 314.5,-676.2 553.5,-676.2 553.5,-653.2 314.5,-653.2"/>
<polygon fill="none" stroke="#000000" points="314.5,-653.2 314.5,-676.2 553.5,-676.2 553.5,-653.2 314.5,-653.2"/>
<text text-anchor="start" x="319.5" y="-661.8" font-family="Helvetica,sans-Serif" font-weight="bold" font-size="11.00" fill="#000000">cm_result</text>
<text text-anchor="start" x="518.5437" y="-661.3" font-family="Helvetica,sans-Serif" font-size="11.00" fill="#000000">[table]</text>
<polygon fill="none" stroke="#000000" points="314.5,-631.2 314.5,-653.2 491.5,-653.2 491.5,-631.2 314.5,-631.2"/>
<image xlink:href="../../images/primaryKeys.png" width="11px" height="12px" preserveAspectRatio="xMinYMin meet" x="319.5" y="-648.2"/>
<text text-anchor="start" x="334.5" y="-638.3" font-family="Helvetica,sans-Serif" font-size="11.00" fill="#000000">analysis_id</text>
<polygon fill="none" stroke="#000000" points="491.5,-631.2 491.5,-653.2 553.5,-653.2 553.5,-631.2 491.5,-631.2"/>
<text text-anchor="start" x="494.378" y="-638.9" font-family="Helvetica,sans-Serif" font-size="11.00" fill="#000000">unknown[0]</text>
<polygon fill="none" stroke="#000000" points="314.5,-609.2 314.5,-631.2 491.5,-631.2 491.5,-609.2 314.5,-609.2"/>
<text text-anchor="start" x="334.5" y="-616.3" font-family="Helvetica,sans-Serif" font-size="11.00" fill="#000000">calibrated_ci_95_lb</text>
<polygon fill="none" stroke="#000000" points="491.5,-609.2 491.5,-631.2 553.5,-631.2 553.5,-609.2 491.5,-609.2"/>
<text text-anchor="start" x="494.378" y="-616.9" font-family="Helvetica,sans-Serif" font-size="11.00" fill="#000000">unknown[0]</text>
<polygon fill="none" stroke="#000000" points="314.5,-587.2 314.5,-609.2 491.5,-609.2 491.5,-587.2 314.5,-587.2"/>
<text text-anchor="start" x="334.5" y="-594.3" font-family="Helvetica,sans-Serif" font-size="11.00" fill="#000000">calibrated_ci_95_ub</text>
<polygon fill="none" stroke="#000000" points="491.5,-587.2 491.5,-609.2 553.5,-609.2 553.5,-587.2 491.5,-587.2"/>
<text text-anchor="start" x="494.378" y="-594.9" font-family="Helvetica,sans-Serif" font-size="11.00" fill="#000000">unknown[0]</text>
<polygon fill="none" stroke="#000000" points="314.5,-565.2 314.5,-587.2 491.5,-587.2 491.5,-565.2 314.5,-565.2"/>
<text text-anchor="start" x="334.5" y="-572.3" font-family="Helvetica,sans-Serif" font-size="11.00" fill="#000000">calibrated_log_rr</text>
<polygon fill="none" stroke="#000000" points="491.5,-565.2 491.5,-587.2 553.5,-587.2 553.5,-565.2 491.5,-565.2"/>
<text text-anchor="start" x="494.378" y="-572.9" font-family="Helvetica,sans-Serif" font-size="11.00" fill="#000000">unknown[0]</text>
<polygon fill="none" stroke="#000000" points="314.5,-543.2 314.5,-565.2 491.5,-565.2 491.5,-543.2 314.5,-543.2"/>
<text text-anchor="start" x="334.5" y="-550.3" font-family="Helvetica,sans-Serif" font-size="11.00" fill="#000000">calibrated_one_sided_p</text>
<polygon fill="none" stroke="#000000" points="491.5,-543.2 491.5,-565.2 553.5,-565.2 553.5,-543.2 491.5,-543.2"/>
<text text-anchor="start" x="494.378" y="-550.9" font-family="Helvetica,sans-Serif" font-size="11.00" fill="#000000">unknown[0]</text>
<polygon fill="none" stroke="#000000" points="314.5,-521.2 314.5,-543.2 491.5,-543.2 491.5,-521.2 314.5,-521.2"/>
<text text-anchor="start" x="334.5" y="-528.3" font-family="Helvetica,sans-Serif" font-size="11.00" fill="#000000">calibrated_p</text>
<polygon fill="none" stroke="#000000" points="491.5,-521.2 491.5,-543.2 553.5,-543.2 553.5,-521.2 491.5,-521.2"/>
<text text-anchor="start" x="494.378" y="-528.9" font-family="Helvetica,sans-Serif" font-size="11.00" fill="#000000">unknown[0]</text>
<polygon fill="none" stroke="#000000" points="314.5,-499.2 314.5,-521.2 491.5,-521.2 491.5,-499.2 314.5,-499.2"/>
<text text-anchor="start" x="334.5" y="-506.3" font-family="Helvetica,sans-Serif" font-size="11.00" fill="#000000">calibrated_rr</text>
<polygon fill="none" stroke="#000000" points="491.5,-499.2 491.5,-521.2 553.5,-521.2 553.5,-499.2 491.5,-499.2"/>
<text text-anchor="start" x="494.378" y="-506.9" font-family="Helvetica,sans-Serif" font-size="11.00" fill="#000000">unknown[0]</text>
<polygon fill="none" stroke="#000000" points="314.5,-477.2 314.5,-499.2 491.5,-499.2 491.5,-477.2 314.5,-477.2"/>
<text text-anchor="start" x="334.5" y="-484.3" font-family="Helvetica,sans-Serif" font-size="11.00" fill="#000000">calibrated_se_log_rr</text>
<polygon fill="none" stroke="#000000" points="491.5,-477.2 491.5,-499.2 553.5,-499.2 553.5,-477.2 491.5,-477.2"/>
<text text-anchor="start" x="494.378" y="-484.9" font-family="Helvetica,sans-Serif" font-size="11.00" fill="#000000">unknown[0]</text>
<polygon fill="none" stroke="#000000" points="314.5,-455.2 314.5,-477.2 491.5,-477.2 491.5,-455.2 314.5,-455.2"/>
<text text-anchor="start" x="334.5" y="-462.3" font-family="Helvetica,sans-Serif" font-size="11.00" fill="#000000">ci_95_lb</text>
<polygon fill="none" stroke="#000000" points="491.5,-455.2 491.5,-477.2 553.5,-477.2 553.5,-455.2 491.5,-455.2"/>
<text text-anchor="start" x="494.378" y="-462.9" font-family="Helvetica,sans-Serif" font-size="11.00" fill="#000000">unknown[0]</text>
<polygon fill="none" stroke="#000000" points="314.5,-433.2 314.5,-455.2 491.5,-455.2 491.5,-433.2 314.5,-433.2"/>
<text text-anchor="start" x="334.5" y="-440.3" font-family="Helvetica,sans-Serif" font-size="11.00" fill="#000000">ci_95_ub</text>
<polygon fill="none" stroke="#000000" points="491.5,-433.2 491.5,-455.2 553.5,-455.2 553.5,-433.2 491.5,-433.2"/>
<text text-anchor="start" x="494.378" y="-440.9" font-family="Helvetica,sans-Serif" font-size="11.00" fill="#000000">unknown[0]</text>
<polygon fill="none" stroke="#000000" points="314.5,-411.2 314.5,-433.2 491.5,-433.2 491.5,-411.2 314.5,-411.2"/>
<text text-anchor="start" x="334.5" y="-418.3" font-family="Helvetica,sans-Serif" font-size="11.00" fill="#000000">comparator_days</text>
<polygon fill="none" stroke="#000000" points="491.5,-411.2 491.5,-433.2 553.5,-433.2 553.5,-411.2 491.5,-411.2"/>
<text text-anchor="start" x="494.378" y="-418.9" font-family="Helvetica,sans-Serif" font-size="11.00" fill="#000000">unknown[0]</text>
<polygon fill="none" stroke="#000000" points="314.5,-389.2 314.5,-411.2 491.5,-411.2 491.5,-389.2 314.5,-389.2"/>
<image xlink:href="../../images/foreignKeys.png" width="11px" height="12px" preserveAspectRatio="xMinYMin meet" x="319.5" y="-406.2"/>
<text text-anchor="start" x="334.5" y="-396.3" font-family="Helvetica,sans-Serif" font-size="11.00" fill="#000000">comparator_id</text>
<polygon fill="none" stroke="#000000" points="491.5,-389.2 491.5,-411.2 553.5,-411.2 553.5,-389.2 491.5,-389.2"/>
<text text-anchor="start" x="494.378" y="-396.9" font-family="Helvetica,sans-Serif" font-size="11.00" fill="#000000">unknown[0]</text>
<polygon fill="none" stroke="#000000" points="314.5,-367.2 314.5,-389.2 491.5,-389.2 491.5,-367.2 314.5,-367.2"/>
<text text-anchor="start" x="334.5" y="-374.3" font-family="Helvetica,sans-Serif" font-size="11.00" fill="#000000">comparator_outcomes</text>
<polygon fill="none" stroke="#000000" points="491.5,-367.2 491.5,-389.2 553.5,-389.2 553.5,-367.2 491.5,-367.2"/>
<text text-anchor="start" x="494.378" y="-374.9" font-family="Helvetica,sans-Serif" font-size="11.00" fill="#000000">unknown[0]</text>
<polygon fill="none" stroke="#000000" points="314.5,-345.2 314.5,-367.2 491.5,-367.2 491.5,-345.2 314.5,-345.2"/>
<text text-anchor="start" x="334.5" y="-352.3" font-family="Helvetica,sans-Serif" font-size="11.00" fill="#000000">comparator_subjects</text>
<polygon fill="none" stroke="#000000" points="491.5,-345.2 491.5,-367.2 553.5,-367.2 553.5,-345.2 491.5,-345.2"/>
<text text-anchor="start" x="494.378" y="-352.9" font-family="Helvetica,sans-Serif" font-size="11.00" fill="#000000">unknown[0]</text>
<polygon fill="none" stroke="#000000" points="314.5,-323.2 314.5,-345.2 491.5,-345.2 491.5,-323.2 314.5,-323.2"/>
<text text-anchor="start" x="334.5" y="-330.3" font-family="Helvetica,sans-Serif" font-size="11.00" fill="#000000">database_id</text>
<polygon fill="none" stroke="#000000" points="491.5,-323.2 491.5,-345.2 553.5,-345.2 553.5,-323.2 491.5,-323.2"/>
<text text-anchor="start" x="494.378" y="-330.9" font-family="Helvetica,sans-Serif" font-size="11.00" fill="#000000">unknown[0]</text>
<polygon fill="none" stroke="#000000" points="314.5,-301.2 314.5,-323.2 491.5,-323.2 491.5,-301.2 314.5,-301.2"/>
<text text-anchor="start" x="334.5" y="-308.3" font-family="Helvetica,sans-Serif" font-size="11.00" fill="#000000">llr</text>
<polygon fill="none" stroke="#000000" points="491.5,-301.2 491.5,-323.2 553.5,-323.2 553.5,-301.2 491.5,-301.2"/>
<text text-anchor="start" x="494.378" y="-308.9" font-family="Helvetica,sans-Serif" font-size="11.00" fill="#000000">unknown[0]</text>
<polygon fill="none" stroke="#000000" points="314.5,-279.2 314.5,-301.2 491.5,-301.2 491.5,-279.2 314.5,-279.2"/>
<text text-anchor="start" x="334.5" y="-286.3" font-family="Helvetica,sans-Serif" font-size="11.00" fill="#000000">log_rr</text>
<polygon fill="none" stroke="#000000" points="491.5,-279.2 491.5,-301.2 553.5,-301.2 553.5,-279.2 491.5,-279.2"/>
<text text-anchor="start" x="494.378" y="-286.9" font-family="Helvetica,sans-Serif" font-size="11.00" fill="#000000">unknown[0]</text>
<polygon fill="none" stroke="#000000" points="314.5,-257.2 314.5,-279.2 491.5,-279.2 491.5,-257.2 314.5,-257.2"/>
<text text-anchor="start" x="334.5" y="-264.3" font-family="Helvetica,sans-Serif" font-size="11.00" fill="#000000">one_sided_p</text>
<polygon fill="none" stroke="#000000" points="491.5,-257.2 491.5,-279.2 553.5,-279.2 553.5,-257.2 491.5,-257.2"/>
<text text-anchor="start" x="494.378" y="-264.9" font-family="Helvetica,sans-Serif" font-size="11.00" fill="#000000">unknown[0]</text>
<polygon fill="none" stroke="#000000" points="314.5,-235.2 314.5,-257.2 491.5,-257.2 491.5,-235.2 314.5,-235.2"/>
<image xlink:href="../../images/foreignKeys.png" width="11px" height="12px" preserveAspectRatio="xMinYMin meet" x="319.5" y="-252.2"/>
<text text-anchor="start" x="334.5" y="-242.3" font-family="Helvetica,sans-Serif" font-size="11.00" fill="#000000">outcome_id</text>
<polygon fill="none" stroke="#000000" points="491.5,-235.2 491.5,-257.2 553.5,-257.2 553.5,-235.2 491.5,-235.2"/>
<text text-anchor="start" x="494.378" y="-242.9" font-family="Helvetica,sans-Serif" font-size="11.00" fill="#000000">unknown[0]</text>
<polygon fill="none" stroke="#000000" points="314.5,-213.2 314.5,-235.2 491.5,-235.2 491.5,-213.2 314.5,-213.2"/>
<text text-anchor="start" x="334.5" y="-220.3" font-family="Helvetica,sans-Serif" font-size="11.00" fill="#000000">p</text>
<polygon fill="none" stroke="#000000" points="491.5,-213.2 491.5,-235.2 553.5,-235.2 553.5,-213.2 491.5,-213.2"/>
<text text-anchor="start" x="494.378" y="-220.9" font-family="Helvetica,sans-Serif" font-size="11.00" fill="#000000">unknown[0]</text>
<polygon fill="none" stroke="#000000" points="314.5,-191.2 314.5,-213.2 491.5,-213.2 491.5,-191.2 314.5,-191.2"/>
<text text-anchor="start" x="334.5" y="-198.3" font-family="Helvetica,sans-Serif" font-size="11.00" fill="#000000">rr</text>
<polygon fill="none" stroke="#000000" points="491.5,-191.2 491.5,-213.2 553.5,-213.2 553.5,-191.2 491.5,-191.2"/>
<text text-anchor="start" x="494.378" y="-198.9" font-family="Helvetica,sans-Serif" font-size="11.00" fill="#000000">unknown[0]</text>
<polygon fill="none" stroke="#000000" points="314.5,-169.2 314.5,-191.2 491.5,-191.2 491.5,-169.2 314.5,-169.2"/>
<text text-anchor="start" x="334.5" y="-176.3" font-family="Helvetica,sans-Serif" font-size="11.00" fill="#000000">se_log_rr</text>
<polygon fill="none" stroke="#000000" points="491.5,-169.2 491.5,-191.2 553.5,-191.2 553.5,-169.2 491.5,-169.2"/>
<text text-anchor="start" x="494.378" y="-176.9" font-family="Helvetica,sans-Serif" font-size="11.00" fill="#000000">unknown[0]</text>
<polygon fill="none" stroke="#000000" points="314.5,-147.2 314.5,-169.2 491.5,-169.2 491.5,-147.2 314.5,-147.2"/>
<text text-anchor="start" x="334.5" y="-154.3" font-family="Helvetica,sans-Serif" font-size="11.00" fill="#000000">target_days</text>
<polygon fill="none" stroke="#000000" points="491.5,-147.2 491.5,-169.2 553.5,-169.2 553.5,-147.2 491.5,-147.2"/>
<text text-anchor="start" x="494.378" y="-154.9" font-family="Helvetica,sans-Serif" font-size="11.00" fill="#000000">unknown[0]</text>
<polygon fill="none" stroke="#000000" points="314.5,-125.2 314.5,-147.2 491.5,-147.2 491.5,-125.2 314.5,-125.2"/>
<text text-anchor="start" x="334.5" y="-132.3" font-family="Helvetica,sans-Serif" font-size="11.00" fill="#000000">target_estimator</text>
<polygon fill="none" stroke="#000000" points="491.5,-125.2 491.5,-147.2 553.5,-147.2 553.5,-125.2 491.5,-125.2"/>
<text text-anchor="start" x="494.378" y="-132.9" font-family="Helvetica,sans-Serif" font-size="11.00" fill="#000000">unknown[0]</text>
<polygon fill="none" stroke="#000000" points="314.5,-103.2 314.5,-125.2 491.5,-125.2 491.5,-103.2 314.5,-103.2"/>
<image xlink:href="../../images/foreignKeys.png" width="11px" height="12px" preserveAspectRatio="xMinYMin meet" x="319.5" y="-120.2"/>
<text text-anchor="start" x="334.5" y="-110.3" font-family="Helvetica,sans-Serif" font-size="11.00" fill="#000000">target_id</text>
<polygon fill="none" stroke="#000000" points="491.5,-103.2 491.5,-125.2 553.5,-125.2 553.5,-103.2 491.5,-103.2"/>
<text text-anchor="start" x="494.378" y="-110.9" font-family="Helvetica,sans-Serif" font-size="11.00" fill="#000000">unknown[0]</text>
<polygon fill="none" stroke="#000000" points="314.5,-81.2 314.5,-103.2 491.5,-103.2 491.5,-81.2 314.5,-81.2"/>
<text text-anchor="start" x="334.5" y="-88.3" font-family="Helvetica,sans-Serif" font-size="11.00" fill="#000000">target_outcomes</text>
<polygon fill="none" stroke="#000000" points="491.5,-81.2 491.5,-103.2 553.5,-103.2 553.5,-81.2 491.5,-81.2"/>
<text text-anchor="start" x="494.378" y="-88.9" font-family="Helvetica,sans-Serif" font-size="11.00" fill="#000000">unknown[0]</text>
<polygon fill="none" stroke="#000000" points="314.5,-59.2 314.5,-81.2 491.5,-81.2 491.5,-59.2 314.5,-59.2"/>
<text text-anchor="start" x="334.5" y="-66.3" font-family="Helvetica,sans-Serif" font-size="11.00" fill="#000000">target_subjects</text>
<polygon fill="none" stroke="#000000" points="491.5,-59.2 491.5,-81.2 553.5,-81.2 553.5,-59.2 491.5,-59.2"/>
<text text-anchor="start" x="494.378" y="-66.9" font-family="Helvetica,sans-Serif" font-size="11.00" fill="#000000">unknown[0]</text>
<polygon fill="#ffffff" stroke="transparent" points="314.5,-40.2 314.5,-59.2 394.5,-59.2 394.5,-40.2 314.5,-40.2"/>
<polygon fill="none" stroke="#000000" points="314.5,-40.2 314.5,-59.2 394.5,-59.2 394.5,-40.2 314.5,-40.2"/>
<text text-anchor="start" x="317.5" y="-46.3" font-family="Helvetica,sans-Serif" font-size="11.00" fill="#000000">&lt; 3</text>
<polygon fill="#ffffff" stroke="transparent" points="394.5,-40.2 394.5,-59.2 491.5,-59.2 491.5,-40.2 394.5,-40.2"/>
<polygon fill="none" stroke="#000000" points="394.5,-40.2 394.5,-59.2 491.5,-59.2 491.5,-40.2 394.5,-40.2"/>
<text text-anchor="start" x="456.1105" y="-46.3" font-family="Helvetica,sans-Serif" font-size="11.00" fill="#000000">0 rows</text>
<polygon fill="#ffffff" stroke="transparent" points="491.5,-40.2 491.5,-59.2 553.5,-59.2 553.5,-40.2 491.5,-40.2"/>
<polygon fill="none" stroke="#000000" points="491.5,-40.2 491.5,-59.2 553.5,-59.2 553.5,-40.2 491.5,-40.2"/>
<text text-anchor="start" x="534.9053" y="-46.3" font-family="Helvetica,sans-Serif" font-size="11.00" fill="#000000">1 &gt;</text>
<polygon fill="none" stroke="#000000" stroke-width="2" points="313,-39.2 313,-677.2 554,-677.2 554,-39.2 313,-39.2"/>
</a>
</g>
</g>
<!-- cm_analysis&#45;&gt;cm_result -->
<g id="edge2" class="edge">
<title>cm_analysis:w&#45;&gt;cm_result:e</title>
<path fill="none" stroke="#000000" d="M594.1156,-725.0989C566.6891,-712.0096 593.4258,-642.2 553.5,-642.2"/>
<polygon fill="#000000" stroke="#000000" points="604.5092,-723.1208 602.9226,-730.9619 601.3544,-730.6446 602.941,-722.8035 604.5092,-723.1208"/>
<polyline fill="none" stroke="#000000" points="604.5,-727.2 600.5794,-726.4067 "/>
<ellipse fill="none" stroke="#000000" cx="597.443" cy="-725.7721" rx="3.2" ry="3.2"/>
</g>
<!-- cm_diagnostics_summary&#45;&gt;cm_analysis -->
<g id="edge3" class="edge">
<title>cm_diagnostics_summary:w&#45;&gt;cm_analysis:e</title>
<path fill="none" stroke="#000000" d="M339.0146,-725.6807C382.5609,-719.3884 546.5,-695.7 546.5,-695.7 580.3392,-713.216 562.1608,-748.184 596,-765.7 596,-765.7 723.5,-727.2 723.5,-727.2"/>
<polygon fill="#000000" stroke="#000000" points="329.8639,-731.0445 328.7197,-723.1267 330.3033,-722.8979 331.4474,-730.8156 329.8639,-731.0445"/>
<polyline fill="none" stroke="#000000" points="328.5,-727.2 332.4589,-726.6279 "/>
<ellipse fill="none" stroke="#000000" cx="335.626" cy="-726.1703" rx="3.2" ry="3.2"/>
</g>
<!-- cm_target_comparator_outcome -->
<g id="node4" class="node">
<title>cm_target_comparator_outcome</title>
<g id="a_node4"><a xlink:href="../../tables/cm_target_comparator_outcome.html" xlink:title="cm_target_comparator_outcome" target="_top">
<polygon fill="#ffffff" stroke="transparent" points="8,-175.7 8,-302.7 263,-302.7 263,-175.7 8,-175.7"/>
<polygon fill="#f5f5f5" stroke="transparent" points="8.5,-279.2 8.5,-302.2 263.5,-302.2 263.5,-279.2 8.5,-279.2"/>
<polygon fill="none" stroke="#000000" points="8.5,-279.2 8.5,-302.2 263.5,-302.2 263.5,-279.2 8.5,-279.2"/>
<text text-anchor="start" x="13.5" y="-287.8" font-family="Helvetica,sans-Serif" font-weight="bold" font-size="11.00" fill="#000000">cm_target_comparator_outcome</text>
<text text-anchor="start" x="229.0219" y="-287.3" font-family="Helvetica,sans-Serif" font-size="11.00" fill="#000000">[table]</text>
<polygon fill="none" stroke="#000000" points="8.5,-257.2 8.5,-279.2 263.5,-279.2 263.5,-257.2 8.5,-257.2"/>
<image xlink:href="../../images/primaryKeys.png" width="11px" height="12px" preserveAspectRatio="xMinYMin meet" x="13.5" y="-274.2"/>
<text text-anchor="start" x="37.5" y="-264.3" font-family="Helvetica,sans-Serif" font-size="11.00" fill="#000000">comparator_id</text>
<polygon fill="none" stroke="#000000" points="8.5,-235.2 8.5,-257.2 263.5,-257.2 263.5,-235.2 8.5,-235.2"/>
<image xlink:href="../../images/primaryKeys.png" width="11px" height="12px" preserveAspectRatio="xMinYMin meet" x="13.5" y="-252.2"/>
<text text-anchor="start" x="37.5" y="-242.3" font-family="Helvetica,sans-Serif" font-size="11.00" fill="#000000">outcome_id</text>
<polygon fill="none" stroke="#000000" points="8.5,-213.2 8.5,-235.2 263.5,-235.2 263.5,-213.2 8.5,-213.2"/>
<image xlink:href="../../images/primaryKeys.png" width="11px" height="12px" preserveAspectRatio="xMinYMin meet" x="13.5" y="-230.2"/>
<text text-anchor="start" x="37.5" y="-220.3" font-family="Helvetica,sans-Serif" font-size="11.00" fill="#000000">target_id</text>
<polygon fill="none" stroke="#000000" points="8.5,-194.2 8.5,-213.2 263.5,-213.2 263.5,-194.2 8.5,-194.2"/>
<text text-anchor="start" x="11.5" y="-200.3" font-family="Helvetica,sans-Serif" font-size="11.00" fill="#000000">...</text>
<polygon fill="#ffffff" stroke="transparent" points="8.5,-175.2 8.5,-194.2 112.5,-194.2 112.5,-175.2 8.5,-175.2"/>
<polygon fill="none" stroke="#000000" points="8.5,-175.2 8.5,-194.2 112.5,-194.2 112.5,-175.2 8.5,-175.2"/>
<text text-anchor="start" x="11.5" y="-181.3" font-family="Helvetica,sans-Serif" font-size="11.00" fill="#000000"> &#160;</text>
<polygon fill="#ffffff" stroke="transparent" points="112.5,-175.2 112.5,-194.2 196.5,-194.2 196.5,-175.2 112.5,-175.2"/>
<polygon fill="none" stroke="#000000" points="112.5,-175.2 112.5,-194.2 196.5,-194.2 196.5,-175.2 112.5,-175.2"/>
<text text-anchor="start" x="161.1105" y="-181.3" font-family="Helvetica,sans-Serif" font-size="11.00" fill="#000000">0 rows</text>
<polygon fill="#ffffff" stroke="transparent" points="196.5,-175.2 196.5,-194.2 263.5,-194.2 263.5,-175.2 196.5,-175.2"/>
<polygon fill="none" stroke="#000000" points="196.5,-175.2 196.5,-194.2 263.5,-194.2 263.5,-175.2 196.5,-175.2"/>
<text text-anchor="start" x="244.9053" y="-181.3" font-family="Helvetica,sans-Serif" font-size="11.00" fill="#000000">3 &gt;</text>
</a>
</g>
</g>
<!-- cm_result&#45;&gt;cm_target_comparator_outcome -->
<g id="edge4" class="edge">
<title>cm_result:w&#45;&gt;cm_target_comparator_outcome:e</title>
<path fill="none" stroke="#000000" d="M300.2146,-396.9371C264.4192,-376.6102 320.497,-268.2 263.5,-268.2"/>
<polygon fill="#000000" stroke="#000000" points="306.7009,-398.4185 313.6983,-403.7096 310.6004,-399.3093 314.5,-400.2 314.5,-400.2 314.5,-400.2 310.6004,-399.3093 315.3017,-396.6904 306.7009,-398.4185 306.7009,-398.4185"/>
<ellipse fill="none" stroke="#000000" cx="303.5812" cy="-397.706" rx="3.2" ry="3.2"/>
</g>
<!-- cm_result&#45;&gt;cm_target_comparator_outcome -->
<g id="edge5" class="edge">
<title>cm_result:w&#45;&gt;cm_target_comparator_outcome:e</title>
<path fill="none" stroke="#000000" d="M299.776,-246.2C287.7815,-246.2 280.3229,-246.2 263.5,-246.2"/>
<polygon fill="#000000" stroke="#000000" points="306.5,-246.2001 314.5,-249.8 310.5,-246.2 314.5,-246.2 314.5,-246.2 314.5,-246.2 310.5,-246.2 314.5,-242.6 306.5,-246.2001 306.5,-246.2001"/>
<ellipse fill="none" stroke="#000000" cx="303.3" cy="-246.2001" rx="3.2" ry="3.2"/>
</g>
<!-- cm_result&#45;&gt;cm_target_comparator_outcome -->
<g id="edge6" class="edge">
<title>cm_result:w&#45;&gt;cm_target_comparator_outcome:e</title>
<path fill="none" stroke="#000000" d="M300.5,-117.8599C271.708,-136.9466 311.4939,-224.2 263.5,-224.2"/>
<polygon fill="#000000" stroke="#000000" points="306.7601,-116.2234 315.4105,-117.683 310.6301,-115.2117 314.5,-114.2 314.5,-114.2 314.5,-114.2 310.6301,-115.2117 313.5895,-110.717 306.7601,-116.2234 306.7601,-116.2234"/>
<ellipse fill="none" stroke="#000000" cx="303.6641" cy="-117.0328" rx="3.2" ry="3.2"/>
</g>
</g>
</svg>
