<?xml version="1.0" encoding="UTF-8" standalone="no"?>
<!DOCTYPE svg PUBLIC "-//W3C//DTD SVG 1.1//EN"
 "http://www.w3.org/Graphics/SVG/1.1/DTD/svg11.dtd">
<!-- Generated by graphviz version 2.40.1 (20161225.0304)
 -->
<!-- Title: oneDegreeRelationshipsDiagram Pages: 1 -->
<svg width="548pt" height="463pt"
 viewBox="0.00 0.00 548.00 462.70" xmlns="http://www.w3.org/2000/svg" xmlns:xlink="http://www.w3.org/1999/xlink">
<g id="graph0" class="graph" transform="scale(1 1) rotate(0) translate(4 458.7)">
<title>oneDegreeRelationshipsDiagram</title>
<polygon fill="#ffffff" stroke="transparent" points="-4,4 -4,-458.7 544,-458.7 544,4 -4,4"/>
<text text-anchor="middle" x="72.4936" y="-7.3" font-family="Helvetica,sans-Serif" font-size="11.00" fill="#000000">Generated by SchemaSpy</text>
<!-- cm_shared_covariate_balance -->
<g id="node1" class="node">
<title>cm_shared_covariate_balance</title>
<g id="a_node1"><a xlink:href="../../tables/cm_shared_covariate_balance.html" xlink:title="cm_shared_covariate_balance" target="_top">
<polygon fill="#ffffff" stroke="transparent" points="245,-38.2 245,-436.2 532,-436.2 532,-38.2 245,-38.2"/>
<polygon fill="#f5f5f5" stroke="transparent" points="247.5,-411.2 247.5,-434.2 530.5,-434.2 530.5,-411.2 247.5,-411.2"/>
<polygon fill="none" stroke="#000000" points="247.5,-411.2 247.5,-434.2 530.5,-434.2 530.5,-411.2 247.5,-411.2"/>
<text text-anchor="start" x="252.5" y="-419.8" font-family="Helvetica,sans-Serif" font-weight="bold" font-size="11.00" fill="#000000">cm_shared_covariate_balance</text>
<text text-anchor="start" x="495.5437" y="-419.3" font-family="Helvetica,sans-Serif" font-size="11.00" fill="#000000">[table]</text>
<polygon fill="none" stroke="#000000" points="247.5,-389.2 247.5,-411.2 468.5,-411.2 468.5,-389.2 247.5,-389.2"/>
<image xlink:href="../../images/foreignKeys.png" width="11px" height="12px" preserveAspectRatio="xMinYMin meet" x="252.5" y="-406.2"/>
<text text-anchor="start" x="267.5" y="-396.3" font-family="Helvetica,sans-Serif" font-size="11.00" fill="#000000">analysis_id</text>
<polygon fill="none" stroke="#000000" points="468.5,-389.2 468.5,-411.2 530.5,-411.2 530.5,-389.2 468.5,-389.2"/>
<text text-anchor="start" x="471.378" y="-396.9" font-family="Helvetica,sans-Serif" font-size="11.00" fill="#000000">unknown[0]</text>
<polygon fill="none" stroke="#000000" points="247.5,-367.2 247.5,-389.2 468.5,-389.2 468.5,-367.2 247.5,-367.2"/>
<text text-anchor="start" x="267.5" y="-374.3" font-family="Helvetica,sans-Serif" font-size="11.00" fill="#000000">comparator_id</text>
<polygon fill="none" stroke="#000000" points="468.5,-367.2 468.5,-389.2 530.5,-389.2 530.5,-367.2 468.5,-367.2"/>
<text text-anchor="start" x="471.378" y="-374.9" font-family="Helvetica,sans-Serif" font-size="11.00" fill="#000000">unknown[0]</text>
<polygon fill="none" stroke="#000000" points="247.5,-345.2 247.5,-367.2 468.5,-367.2 468.5,-345.2 247.5,-345.2"/>
<text text-anchor="start" x="267.5" y="-352.3" font-family="Helvetica,sans-Serif" font-size="11.00" fill="#000000">comparator_mean_after</text>
<polygon fill="none" stroke="#000000" points="468.5,-345.2 468.5,-367.2 530.5,-367.2 530.5,-345.2 468.5,-345.2"/>
<text text-anchor="start" x="471.378" y="-352.9" font-family="Helvetica,sans-Serif" font-size="11.00" fill="#000000">unknown[0]</text>
<polygon fill="none" stroke="#000000" points="247.5,-323.2 247.5,-345.2 468.5,-345.2 468.5,-323.2 247.5,-323.2"/>
<text text-anchor="start" x="267.5" y="-330.3" font-family="Helvetica,sans-Serif" font-size="11.00" fill="#000000">comparator_mean_before</text>
<polygon fill="none" stroke="#000000" points="468.5,-323.2 468.5,-345.2 530.5,-345.2 530.5,-323.2 468.5,-323.2"/>
<text text-anchor="start" x="471.378" y="-330.9" font-family="Helvetica,sans-Serif" font-size="11.00" fill="#000000">unknown[0]</text>
<polygon fill="none" stroke="#000000" points="247.5,-301.2 247.5,-323.2 468.5,-323.2 468.5,-301.2 247.5,-301.2"/>
<text text-anchor="start" x="267.5" y="-308.3" font-family="Helvetica,sans-Serif" font-size="11.00" fill="#000000">comparator_std_diff</text>
<polygon fill="none" stroke="#000000" points="468.5,-301.2 468.5,-323.2 530.5,-323.2 530.5,-301.2 468.5,-301.2"/>
<text text-anchor="start" x="471.378" y="-308.9" font-family="Helvetica,sans-Serif" font-size="11.00" fill="#000000">unknown[0]</text>
<polygon fill="none" stroke="#000000" points="247.5,-279.2 247.5,-301.2 468.5,-301.2 468.5,-279.2 247.5,-279.2"/>
<image xlink:href="../../images/foreignKeys.png" width="11px" height="12px" preserveAspectRatio="xMinYMin meet" x="252.5" y="-296.2"/>
<text text-anchor="start" x="267.5" y="-286.3" font-family="Helvetica,sans-Serif" font-size="11.00" fill="#000000">covariate_id</text>
<polygon fill="none" stroke="#000000" points="468.5,-279.2 468.5,-301.2 530.5,-301.2 530.5,-279.2 468.5,-279.2"/>
<text text-anchor="start" x="471.378" y="-286.9" font-family="Helvetica,sans-Serif" font-size="11.00" fill="#000000">unknown[0]</text>
<polygon fill="none" stroke="#000000" points="247.5,-257.2 247.5,-279.2 468.5,-279.2 468.5,-257.2 247.5,-257.2"/>
<image xlink:href="../../images/foreignKeys.png" width="11px" height="12px" preserveAspectRatio="xMinYMin meet" x="252.5" y="-274.2"/>
<text text-anchor="start" x="267.5" y="-264.3" font-family="Helvetica,sans-Serif" font-size="11.00" fill="#000000">database_id</text>
<polygon fill="none" stroke="#000000" points="468.5,-257.2 468.5,-279.2 530.5,-279.2 530.5,-257.2 468.5,-257.2"/>
<text text-anchor="start" x="471.378" y="-264.9" font-family="Helvetica,sans-Serif" font-size="11.00" fill="#000000">unknown[0]</text>
<polygon fill="none" stroke="#000000" points="247.5,-235.2 247.5,-257.2 468.5,-257.2 468.5,-235.2 247.5,-235.2"/>
<text text-anchor="start" x="267.5" y="-242.3" font-family="Helvetica,sans-Serif" font-size="11.00" fill="#000000">mean_after</text>
<polygon fill="none" stroke="#000000" points="468.5,-235.2 468.5,-257.2 530.5,-257.2 530.5,-235.2 468.5,-235.2"/>
<text text-anchor="start" x="471.378" y="-242.9" font-family="Helvetica,sans-Serif" font-size="11.00" fill="#000000">unknown[0]</text>
<polygon fill="none" stroke="#000000" points="247.5,-213.2 247.5,-235.2 468.5,-235.2 468.5,-213.2 247.5,-213.2"/>
<text text-anchor="start" x="267.5" y="-220.3" font-family="Helvetica,sans-Serif" font-size="11.00" fill="#000000">mean_before</text>
<polygon fill="none" stroke="#000000" points="468.5,-213.2 468.5,-235.2 530.5,-235.2 530.5,-213.2 468.5,-213.2"/>
<text text-anchor="start" x="471.378" y="-220.9" font-family="Helvetica,sans-Serif" font-size="11.00" fill="#000000">unknown[0]</text>
<polygon fill="none" stroke="#000000" points="247.5,-191.2 247.5,-213.2 468.5,-213.2 468.5,-191.2 247.5,-191.2"/>
<text text-anchor="start" x="267.5" y="-198.3" font-family="Helvetica,sans-Serif" font-size="11.00" fill="#000000">std_diff_after</text>
<polygon fill="none" stroke="#000000" points="468.5,-191.2 468.5,-213.2 530.5,-213.2 530.5,-191.2 468.5,-191.2"/>
<text text-anchor="start" x="471.378" y="-198.9" font-family="Helvetica,sans-Serif" font-size="11.00" fill="#000000">unknown[0]</text>
<polygon fill="none" stroke="#000000" points="247.5,-169.2 247.5,-191.2 468.5,-191.2 468.5,-169.2 247.5,-169.2"/>
<text text-anchor="start" x="267.5" y="-176.3" font-family="Helvetica,sans-Serif" font-size="11.00" fill="#000000">std_diff_before</text>
<polygon fill="none" stroke="#000000" points="468.5,-169.2 468.5,-191.2 530.5,-191.2 530.5,-169.2 468.5,-169.2"/>
<text text-anchor="start" x="471.378" y="-176.9" font-family="Helvetica,sans-Serif" font-size="11.00" fill="#000000">unknown[0]</text>
<polygon fill="none" stroke="#000000" points="247.5,-147.2 247.5,-169.2 468.5,-169.2 468.5,-147.2 247.5,-147.2"/>
<text text-anchor="start" x="267.5" y="-154.3" font-family="Helvetica,sans-Serif" font-size="11.00" fill="#000000">target_comparator_std_diff</text>
<polygon fill="none" stroke="#000000" points="468.5,-147.2 468.5,-169.2 530.5,-169.2 530.5,-147.2 468.5,-147.2"/>
<text text-anchor="start" x="471.378" y="-154.9" font-family="Helvetica,sans-Serif" font-size="11.00" fill="#000000">unknown[0]</text>
<polygon fill="none" stroke="#000000" points="247.5,-125.2 247.5,-147.2 468.5,-147.2 468.5,-125.2 247.5,-125.2"/>
<text text-anchor="start" x="267.5" y="-132.3" font-family="Helvetica,sans-Serif" font-size="11.00" fill="#000000">target_id</text>
<polygon fill="none" stroke="#000000" points="468.5,-125.2 468.5,-147.2 530.5,-147.2 530.5,-125.2 468.5,-125.2"/>
<text text-anchor="start" x="471.378" y="-132.9" font-family="Helvetica,sans-Serif" font-size="11.00" fill="#000000">unknown[0]</text>
<polygon fill="none" stroke="#000000" points="247.5,-103.2 247.5,-125.2 468.5,-125.2 468.5,-103.2 247.5,-103.2"/>
<text text-anchor="start" x="267.5" y="-110.3" font-family="Helvetica,sans-Serif" font-size="11.00" fill="#000000">target_mean_after</text>
<polygon fill="none" stroke="#000000" points="468.5,-103.2 468.5,-125.2 530.5,-125.2 530.5,-103.2 468.5,-103.2"/>
<text text-anchor="start" x="471.378" y="-110.9" font-family="Helvetica,sans-Serif" font-size="11.00" fill="#000000">unknown[0]</text>
<polygon fill="none" stroke="#000000" points="247.5,-81.2 247.5,-103.2 468.5,-103.2 468.5,-81.2 247.5,-81.2"/>
<text text-anchor="start" x="267.5" y="-88.3" font-family="Helvetica,sans-Serif" font-size="11.00" fill="#000000">target_mean_before</text>
<polygon fill="none" stroke="#000000" points="468.5,-81.2 468.5,-103.2 530.5,-103.2 530.5,-81.2 468.5,-81.2"/>
<text text-anchor="start" x="471.378" y="-88.9" font-family="Helvetica,sans-Serif" font-size="11.00" fill="#000000">unknown[0]</text>
<polygon fill="none" stroke="#000000" points="247.5,-59.2 247.5,-81.2 468.5,-81.2 468.5,-59.2 247.5,-59.2"/>
<text text-anchor="start" x="267.5" y="-66.3" font-family="Helvetica,sans-Serif" font-size="11.00" fill="#000000">target_std_diff</text>
<polygon fill="none" stroke="#000000" points="468.5,-59.2 468.5,-81.2 530.5,-81.2 530.5,-59.2 468.5,-59.2"/>
<text text-anchor="start" x="471.378" y="-66.9" font-family="Helvetica,sans-Serif" font-size="11.00" fill="#000000">unknown[0]</text>
<polygon fill="#ffffff" stroke="transparent" points="247.5,-40.2 247.5,-59.2 349.5,-59.2 349.5,-40.2 247.5,-40.2"/>
<polygon fill="none" stroke="#000000" points="247.5,-40.2 247.5,-59.2 349.5,-59.2 349.5,-40.2 247.5,-40.2"/>
<text text-anchor="start" x="250.5" y="-46.3" font-family="Helvetica,sans-Serif" font-size="11.00" fill="#000000">&lt; 4</text>
<polygon fill="#ffffff" stroke="transparent" points="349.5,-40.2 349.5,-59.2 468.5,-59.2 468.5,-40.2 349.5,-40.2"/>
<polygon fill="none" stroke="#000000" points="349.5,-40.2 349.5,-59.2 468.5,-59.2 468.5,-40.2 349.5,-40.2"/>
<text text-anchor="start" x="433.1105" y="-46.3" font-family="Helvetica,sans-Serif" font-size="11.00" fill="#000000">0 rows</text>
<polygon fill="#ffffff" stroke="transparent" points="468.5,-40.2 468.5,-59.2 530.5,-59.2 530.5,-40.2 468.5,-40.2"/>
<polygon fill="none" stroke="#000000" points="468.5,-40.2 468.5,-59.2 530.5,-59.2 530.5,-40.2 468.5,-40.2"/>
<text text-anchor="start" x="511.9053" y="-46.3" font-family="Helvetica,sans-Serif" font-size="11.00" fill="#000000">0 &gt;</text>
<polygon fill="none" stroke="#000000" stroke-width="2" points="246,-39.2 246,-435.2 531,-435.2 531,-39.2 246,-39.2"/>
</a>
</g>
</g>
<!-- cm_covariate -->
<g id="node2" class="node">
<title>cm_covariate</title>
<g id="a_node2"><a xlink:href="../../tables/cm_covariate.html" xlink:title="cm_covariate" target="_top">
<polygon fill="#ffffff" stroke="transparent" points="20,-219.7 20,-346.7 184,-346.7 184,-219.7 20,-219.7"/>
<polygon fill="#f5f5f5" stroke="transparent" points="20,-323.2 20,-346.2 184,-346.2 184,-323.2 20,-323.2"/>
<polygon fill="none" stroke="#000000" points="20,-323.2 20,-346.2 184,-346.2 184,-323.2 20,-323.2"/>
<text text-anchor="start" x="25" y="-331.8" font-family="Helvetica,sans-Serif" font-weight="bold" font-size="11.00" fill="#000000">cm_covariate</text>
<text text-anchor="start" x="149.0437" y="-331.3" font-family="Helvetica,sans-Serif" font-size="11.00" fill="#000000">[table]</text>
<polygon fill="none" stroke="#000000" points="20,-301.2 20,-323.2 184,-323.2 184,-301.2 20,-301.2"/>
<image xlink:href="../../images/primaryKeys.png" width="11px" height="12px" preserveAspectRatio="xMinYMin meet" x="25" y="-318.2"/>
<text text-anchor="start" x="40" y="-308.3" font-family="Helvetica,sans-Serif" font-size="11.00" fill="#000000">analysis_id</text>
<polygon fill="none" stroke="#000000" points="20,-279.2 20,-301.2 184,-301.2 184,-279.2 20,-279.2"/>
<image xlink:href="../../images/primaryKeys.png" width="11px" height="12px" preserveAspectRatio="xMinYMin meet" x="25" y="-296.2"/>
<text text-anchor="start" x="40" y="-286.3" font-family="Helvetica,sans-Serif" font-size="11.00" fill="#000000">covariate_id</text>
<polygon fill="none" stroke="#000000" points="20,-257.2 20,-279.2 184,-279.2 184,-257.2 20,-257.2"/>
<image xlink:href="../../images/primaryKeys.png" width="11px" height="12px" preserveAspectRatio="xMinYMin meet" x="25" y="-274.2"/>
<text text-anchor="start" x="40" y="-264.3" font-family="Helvetica,sans-Serif" font-size="11.00" fill="#000000">database_id</text>
<polygon fill="none" stroke="#000000" points="20,-238.2 20,-257.2 184,-257.2 184,-238.2 20,-238.2"/>
<text text-anchor="start" x="23" y="-244.3" font-family="Helvetica,sans-Serif" font-size="11.00" fill="#000000">...</text>
<polygon fill="#ffffff" stroke="transparent" points="20,-219.2 20,-238.2 83,-238.2 83,-219.2 20,-219.2"/>
<polygon fill="none" stroke="#000000" points="20,-219.2 20,-238.2 83,-238.2 83,-219.2 20,-219.2"/>
<text text-anchor="start" x="23" y="-225.3" font-family="Helvetica,sans-Serif" font-size="11.00" fill="#000000">&lt; 1</text>
<polygon fill="#ffffff" stroke="transparent" points="83,-219.2 83,-238.2 142,-238.2 142,-219.2 83,-219.2"/>
<polygon fill="none" stroke="#000000" points="83,-219.2 83,-238.2 142,-238.2 142,-219.2 83,-219.2"/>
<text text-anchor="start" x="106.6105" y="-225.3" font-family="Helvetica,sans-Serif" font-size="11.00" fill="#000000">0 rows</text>
<polygon fill="#ffffff" stroke="transparent" points="142,-219.2 142,-238.2 184,-238.2 184,-219.2 142,-219.2"/>
<polygon fill="none" stroke="#000000" points="142,-219.2 142,-238.2 184,-238.2 184,-219.2 142,-219.2"/>
<text text-anchor="start" x="165.4053" y="-225.3" font-family="Helvetica,sans-Serif" font-size="11.00" fill="#000000">6 &gt;</text>
</a>
</g>
</g>
<!-- cm_shared_covariate_balance&#45;&gt;cm_covariate -->
<g id="edge1" class="edge">
<title>cm_shared_covariate_balance:w&#45;&gt;cm_covariate:e</title>
<path fill="none" stroke="#000000" d="M233.2621,-396.6413C206.0617,-380.1779 226.39,-312.2 184,-312.2"/>
<polygon fill="#000000" stroke="#000000" points="239.7388,-398.2601 246.627,-403.6926 243.6194,-399.23 247.5,-400.2 247.5,-400.2 247.5,-400.2 243.6194,-399.23 248.373,-396.7074 239.7388,-398.2601 239.7388,-398.2601"/>
<ellipse fill="none" stroke="#000000" cx="236.6343" cy="-397.4841" rx="3.2" ry="3.2"/>
</g>
<!-- cm_shared_covariate_balance&#45;&gt;cm_covariate -->
<g id="edge3" class="edge">
<title>cm_shared_covariate_balance:w&#45;&gt;cm_covariate:e</title>
<path fill="none" stroke="#000000" d="M233.0705,-290.2C215.7143,-290.2 206.7101,-290.2 184,-290.2"/>
<polygon fill="#000000" stroke="#000000" points="239.5,-290.2001 247.5,-293.8 243.5,-290.2 247.5,-290.2 247.5,-290.2 247.5,-290.2 243.5,-290.2 247.5,-286.6 239.5,-290.2001 239.5,-290.2001"/>
<ellipse fill="none" stroke="#000000" cx="236.3" cy="-290.2001" rx="3.2" ry="3.2"/>
</g>
<!-- cm_shared_covariate_balance&#45;&gt;cm_covariate -->
<g id="edge4" class="edge">
<title>cm_shared_covariate_balance:w&#45;&gt;cm_covariate:e</title>
<path fill="none" stroke="#000000" d="M233.0705,-268.2C215.7143,-268.2 206.7101,-268.2 184,-268.2"/>
<polygon fill="#000000" stroke="#000000" points="239.5,-268.2001 247.5,-271.8 243.5,-268.2 247.5,-268.2 247.5,-268.2 247.5,-268.2 243.5,-268.2 247.5,-264.6 239.5,-268.2001 239.5,-268.2001"/>
<ellipse fill="none" stroke="#000000" cx="236.3" cy="-268.2001" rx="3.2" ry="3.2"/>
</g>
<!-- cm_covariate_analysis -->
<g id="node3" class="node">
<title>cm_covariate_analysis</title>
<g id="a_node3"><a xlink:href="../../tables/cm_covariate_analysis.html" xlink:title="cm_covariate_analysis" target="_top">
<polygon fill="#ffffff" stroke="transparent" points="8,-367.7 8,-450.7 196,-450.7 196,-367.7 8,-367.7"/>
<polygon fill="#f5f5f5" stroke="transparent" points="8,-427.2 8,-450.2 196,-450.2 196,-427.2 8,-427.2"/>
<polygon fill="none" stroke="#000000" points="8,-427.2 8,-450.2 196,-450.2 196,-427.2 8,-427.2"/>
<text text-anchor="start" x="13" y="-435.8" font-family="Helvetica,sans-Serif" font-weight="bold" font-size="11.00" fill="#000000">cm_covariate_analysis</text>
<text text-anchor="start" x="161.5219" y="-435.3" font-family="Helvetica,sans-Serif" font-size="11.00" fill="#000000">[table]</text>
<polygon fill="none" stroke="#000000" points="8,-405.2 8,-427.2 196,-427.2 196,-405.2 8,-405.2"/>
<image xlink:href="../../images/primaryKeys.png" width="11px" height="12px" preserveAspectRatio="xMinYMin meet" x="13" y="-422.2"/>
<text text-anchor="start" x="28" y="-412.3" font-family="Helvetica,sans-Serif" font-size="11.00" fill="#000000">analysis_id</text>
<polygon fill="none" stroke="#000000" points="8,-386.2 8,-405.2 196,-405.2 196,-386.2 8,-386.2"/>
<text text-anchor="start" x="11" y="-392.3" font-family="Helvetica,sans-Serif" font-size="11.00" fill="#000000">...</text>
<polygon fill="#ffffff" stroke="transparent" points="8,-367.2 8,-386.2 78,-386.2 78,-367.2 8,-367.2"/>
<polygon fill="none" stroke="#000000" points="8,-367.2 8,-386.2 78,-386.2 78,-367.2 8,-367.2"/>
<text text-anchor="start" x="11" y="-373.3" font-family="Helvetica,sans-Serif" font-size="11.00" fill="#000000"> &#160;</text>
<polygon fill="#ffffff" stroke="transparent" points="78,-367.2 78,-386.2 145,-386.2 145,-367.2 78,-367.2"/>
<polygon fill="none" stroke="#000000" points="78,-367.2 78,-386.2 145,-386.2 145,-367.2 78,-367.2"/>
<text text-anchor="start" x="109.6105" y="-373.3" font-family="Helvetica,sans-Serif" font-size="11.00" fill="#000000">0 rows</text>
<polygon fill="#ffffff" stroke="transparent" points="145,-367.2 145,-386.2 196,-386.2 196,-367.2 145,-367.2"/>
<polygon fill="none" stroke="#000000" points="145,-367.2 145,-386.2 196,-386.2 196,-367.2 145,-367.2"/>
<text text-anchor="start" x="177.4053" y="-373.3" font-family="Helvetica,sans-Serif" font-size="11.00" fill="#000000">1 &gt;</text>
</a>
</g>
</g>
<!-- cm_shared_covariate_balance&#45;&gt;cm_covariate_analysis -->
<g id="edge2" class="edge">
<title>cm_shared_covariate_balance:w&#45;&gt;cm_covariate_analysis:e</title>
<path fill="none" stroke="#000000" d="M233.0964,-402.5609C220.6089,-407.0115 214.1633,-416.2 196,-416.2"/>
<polygon fill="#000000" stroke="#000000" points="239.6053,-401.494 248.0823,-403.7526 243.5527,-400.847 247.5,-400.2 247.5,-400.2 247.5,-400.2 243.5527,-400.847 246.9177,-396.6474 239.6053,-401.494 239.6053,-401.494"/>
<ellipse fill="none" stroke="#000000" cx="236.4475" cy="-402.0117" rx="3.2" ry="3.2"/>
</g>
</g>
</svg>
