<?xml version="1.0" encoding="UTF-8" standalone="no"?>
<!DOCTYPE svg PUBLIC "-//W3C//DTD SVG 1.1//EN"
 "http://www.w3.org/Graphics/SVG/1.1/DTD/svg11.dtd">
<!-- Generated by graphviz version 2.40.1 (20161225.0304)
 -->
<!-- Title: twoDegreesRelationshipsDiagram Pages: 1 -->
<svg width="782pt" height="532pt"
 viewBox="0.00 0.00 782.00 531.70" xmlns="http://www.w3.org/2000/svg" xmlns:xlink="http://www.w3.org/1999/xlink">
<g id="graph0" class="graph" transform="scale(1 1) rotate(0) translate(4 527.7)">
<title>twoDegreesRelationshipsDiagram</title>
<polygon fill="#ffffff" stroke="transparent" points="-4,4 -4,-527.7 778,-527.7 778,4 -4,4"/>
<text text-anchor="middle" x="72.4936" y="-7.3" font-family="Helvetica,sans-Serif" font-size="11.00" fill="#000000">Generated by SchemaSpy</text>
<!-- cm_covariate -->
<g id="node1" class="node">
<title>cm_covariate</title>
<g id="a_node1"><a xlink:href="../../tables/cm_covariate.html" xlink:title="cm_covariate" target="_top">
<polygon fill="#ffffff" stroke="transparent" points="254,-392.7 254,-519.7 418,-519.7 418,-392.7 254,-392.7"/>
<polygon fill="#f5f5f5" stroke="transparent" points="254,-496.2 254,-519.2 418,-519.2 418,-496.2 254,-496.2"/>
<polygon fill="none" stroke="#000000" points="254,-496.2 254,-519.2 418,-519.2 418,-496.2 254,-496.2"/>
<text text-anchor="start" x="259" y="-504.8" font-family="Helvetica,sans-Serif" font-weight="bold" font-size="11.00" fill="#000000">cm_covariate</text>
<text text-anchor="start" x="383.0437" y="-504.3" font-family="Helvetica,sans-Serif" font-size="11.00" fill="#000000">[table]</text>
<polygon fill="none" stroke="#000000" points="254,-474.2 254,-496.2 418,-496.2 418,-474.2 254,-474.2"/>
<image xlink:href="../../images/primaryKeys.png" width="11px" height="12px" preserveAspectRatio="xMinYMin meet" x="259" y="-491.2"/>
<text text-anchor="start" x="274" y="-481.3" font-family="Helvetica,sans-Serif" font-size="11.00" fill="#000000">analysis_id</text>
<polygon fill="none" stroke="#000000" points="254,-452.2 254,-474.2 418,-474.2 418,-452.2 254,-452.2"/>
<image xlink:href="../../images/primaryKeys.png" width="11px" height="12px" preserveAspectRatio="xMinYMin meet" x="259" y="-469.2"/>
<text text-anchor="start" x="274" y="-459.3" font-family="Helvetica,sans-Serif" font-size="11.00" fill="#000000">covariate_id</text>
<polygon fill="none" stroke="#000000" points="254,-430.2 254,-452.2 418,-452.2 418,-430.2 254,-430.2"/>
<image xlink:href="../../images/primaryKeys.png" width="11px" height="12px" preserveAspectRatio="xMinYMin meet" x="259" y="-447.2"/>
<text text-anchor="start" x="274" y="-437.3" font-family="Helvetica,sans-Serif" font-size="11.00" fill="#000000">database_id</text>
<polygon fill="none" stroke="#000000" points="254,-411.2 254,-430.2 418,-430.2 418,-411.2 254,-411.2"/>
<text text-anchor="start" x="257" y="-417.3" font-family="Helvetica,sans-Serif" font-size="11.00" fill="#000000">...</text>
<polygon fill="#ffffff" stroke="transparent" points="254,-392.2 254,-411.2 317,-411.2 317,-392.2 254,-392.2"/>
<polygon fill="none" stroke="#000000" points="254,-392.2 254,-411.2 317,-411.2 317,-392.2 254,-392.2"/>
<text text-anchor="start" x="257" y="-398.3" font-family="Helvetica,sans-Serif" font-size="11.00" fill="#000000">&lt; 1</text>
<polygon fill="#ffffff" stroke="transparent" points="317,-392.2 317,-411.2 376,-411.2 376,-392.2 317,-392.2"/>
<polygon fill="none" stroke="#000000" points="317,-392.2 317,-411.2 376,-411.2 376,-392.2 317,-392.2"/>
<text text-anchor="start" x="340.6105" y="-398.3" font-family="Helvetica,sans-Serif" font-size="11.00" fill="#000000">0 rows</text>
<polygon fill="#ffffff" stroke="transparent" points="376,-392.2 376,-411.2 418,-411.2 418,-392.2 376,-392.2"/>
<polygon fill="none" stroke="#000000" points="376,-392.2 376,-411.2 418,-411.2 418,-392.2 376,-392.2"/>
<text text-anchor="start" x="399.4053" y="-398.3" font-family="Helvetica,sans-Serif" font-size="11.00" fill="#000000">6 &gt;</text>
</a>
</g>
</g>
<!-- cm_propensity_model -->
<g id="node2" class="node">
<title>cm_propensity_model</title>
<g id="a_node2"><a xlink:href="../../tables/cm_propensity_model.html" xlink:title="cm_propensity_model" target="_top">
<polygon fill="#ffffff" stroke="transparent" points="8,-435.7 8,-496.7 193,-496.7 193,-435.7 8,-435.7"/>
<polygon fill="#f5f5f5" stroke="transparent" points="8.5,-473.2 8.5,-496.2 193.5,-496.2 193.5,-473.2 8.5,-473.2"/>
<polygon fill="none" stroke="#000000" points="8.5,-473.2 8.5,-496.2 193.5,-496.2 193.5,-473.2 8.5,-473.2"/>
<text text-anchor="start" x="13.5" y="-481.8" font-family="Helvetica,sans-Serif" font-weight="bold" font-size="11.00" fill="#000000">cm_propensity_model</text>
<text text-anchor="start" x="159.0219" y="-481.3" font-family="Helvetica,sans-Serif" font-size="11.00" fill="#000000">[table]</text>
<polygon fill="none" stroke="#000000" points="8.5,-454.2 8.5,-473.2 193.5,-473.2 193.5,-454.2 8.5,-454.2"/>
<text text-anchor="start" x="11.5" y="-460.3" font-family="Helvetica,sans-Serif" font-size="11.00" fill="#000000">...</text>
<polygon fill="#ffffff" stroke="transparent" points="8.5,-435.2 8.5,-454.2 77.5,-454.2 77.5,-435.2 8.5,-435.2"/>
<polygon fill="none" stroke="#000000" points="8.5,-435.2 8.5,-454.2 77.5,-454.2 77.5,-435.2 8.5,-435.2"/>
<text text-anchor="start" x="11.5" y="-441.3" font-family="Helvetica,sans-Serif" font-size="11.00" fill="#000000"> &#160;</text>
<polygon fill="#ffffff" stroke="transparent" points="77.5,-435.2 77.5,-454.2 143.5,-454.2 143.5,-435.2 77.5,-435.2"/>
<polygon fill="none" stroke="#000000" points="77.5,-435.2 77.5,-454.2 143.5,-454.2 143.5,-435.2 77.5,-435.2"/>
<text text-anchor="start" x="108.1105" y="-441.3" font-family="Helvetica,sans-Serif" font-size="11.00" fill="#000000">0 rows</text>
<polygon fill="#ffffff" stroke="transparent" points="143.5,-435.2 143.5,-454.2 193.5,-454.2 193.5,-435.2 143.5,-435.2"/>
<polygon fill="none" stroke="#000000" points="143.5,-435.2 143.5,-454.2 193.5,-454.2 193.5,-435.2 143.5,-435.2"/>
<text text-anchor="start" x="174.9053" y="-441.3" font-family="Helvetica,sans-Serif" font-size="11.00" fill="#000000">1 &gt;</text>
</a>
</g>
</g>
<!-- cm_covariate&#45;&gt;cm_propensity_model -->
<g id="edge1" class="edge">
<title>cm_covariate:w&#45;&gt;cm_propensity_model:e</title>
<path fill="none" stroke="#000000" d="M239.2977,-463.2C223.3779,-463.2 214.717,-463.2 193.5,-463.2"/>
<polygon fill="#000000" stroke="#000000" points="246,-463.2001 254,-466.8 250,-463.2 254,-463.2 254,-463.2 254,-463.2 250,-463.2 254,-459.6 246,-463.2001 246,-463.2001"/>
<ellipse fill="none" stroke="#000000" cx="242.8" cy="-463.2001" rx="3.2" ry="3.2"/>
</g>
<!-- cm_covariate_balance -->
<g id="node3" class="node">
<title>cm_covariate_balance</title>
<g id="a_node3"><a xlink:href="../../tables/cm_covariate_balance.html" xlink:title="cm_covariate_balance" target="_top">
<polygon fill="#ffffff" stroke="transparent" points="529.5,-457.7 529.5,-518.7 715.5,-518.7 715.5,-457.7 529.5,-457.7"/>
<polygon fill="#f5f5f5" stroke="transparent" points="529.5,-495.2 529.5,-518.2 715.5,-518.2 715.5,-495.2 529.5,-495.2"/>
<polygon fill="none" stroke="#000000" points="529.5,-495.2 529.5,-518.2 715.5,-518.2 715.5,-495.2 529.5,-495.2"/>
<text text-anchor="start" x="534.5" y="-503.8" font-family="Helvetica,sans-Serif" font-weight="bold" font-size="11.00" fill="#000000">cm_covariate_balance</text>
<text text-anchor="start" x="681.0219" y="-503.3" font-family="Helvetica,sans-Serif" font-size="11.00" fill="#000000">[table]</text>
<polygon fill="none" stroke="#000000" points="529.5,-476.2 529.5,-495.2 715.5,-495.2 715.5,-476.2 529.5,-476.2"/>
<text text-anchor="start" x="532.5" y="-482.3" font-family="Helvetica,sans-Serif" font-size="11.00" fill="#000000">...</text>
<polygon fill="#ffffff" stroke="transparent" points="529.5,-457.2 529.5,-476.2 607.5,-476.2 607.5,-457.2 529.5,-457.2"/>
<polygon fill="none" stroke="#000000" points="529.5,-457.2 529.5,-476.2 607.5,-476.2 607.5,-457.2 529.5,-457.2"/>
<text text-anchor="start" x="532.5" y="-463.3" font-family="Helvetica,sans-Serif" font-size="11.00" fill="#000000">&lt; 4</text>
<polygon fill="#ffffff" stroke="transparent" points="607.5,-457.2 607.5,-476.2 674.5,-476.2 674.5,-457.2 607.5,-457.2"/>
<polygon fill="none" stroke="#000000" points="607.5,-457.2 607.5,-476.2 674.5,-476.2 674.5,-457.2 607.5,-457.2"/>
<text text-anchor="start" x="639.1105" y="-463.3" font-family="Helvetica,sans-Serif" font-size="11.00" fill="#000000">0 rows</text>
<polygon fill="#ffffff" stroke="transparent" points="674.5,-457.2 674.5,-476.2 715.5,-476.2 715.5,-457.2 674.5,-457.2"/>
<polygon fill="none" stroke="#000000" points="674.5,-457.2 674.5,-476.2 715.5,-476.2 715.5,-457.2 674.5,-457.2"/>
<text text-anchor="start" x="706.3862" y="-463.3" font-family="Helvetica,sans-Serif" font-size="11.00" fill="#000000"> &#160;</text>
</a>
</g>
</g>
<!-- cm_covariate_balance&#45;&gt;cm_covariate -->
<g id="edge2" class="edge">
<title>cm_covariate_balance:w&#45;&gt;cm_covariate:e</title>
<path fill="none" stroke="#000000" d="M514.9734,-485.2C476.9177,-485.2 462.329,-485.2 418,-485.2"/>
<polygon fill="#000000" stroke="#000000" points="521.5,-485.2001 529.5,-488.8 525.5,-485.2 529.5,-485.2 529.5,-485.2 529.5,-485.2 525.5,-485.2 529.5,-481.6 521.5,-485.2001 521.5,-485.2001"/>
<ellipse fill="none" stroke="#000000" cx="518.3" cy="-485.2001" rx="3.2" ry="3.2"/>
</g>
<!-- cm_covariate_balance&#45;&gt;cm_covariate -->
<g id="edge3" class="edge">
<title>cm_covariate_balance:w&#45;&gt;cm_covariate:e</title>
<path fill="none" stroke="#000000" d="M515.0121,-484.5416C476.3908,-480.8811 463.2823,-463.2 418,-463.2"/>
<polygon fill="#000000" stroke="#000000" points="521.5082,-484.8368 529.3365,-488.7963 525.5041,-485.0184 529.5,-485.2 529.5,-485.2 529.5,-485.2 525.5041,-485.0184 529.6635,-481.6037 521.5082,-484.8368 521.5082,-484.8368"/>
<ellipse fill="none" stroke="#000000" cx="518.3115" cy="-484.6915" rx="3.2" ry="3.2"/>
</g>
<!-- cm_covariate_balance&#45;&gt;cm_covariate -->
<g id="edge4" class="edge">
<title>cm_covariate_balance:w&#45;&gt;cm_covariate:e</title>
<path fill="none" stroke="#000000" d="M514.923,-483.9773C474.7597,-476.8709 465.9679,-441.2 418,-441.2"/>
<polygon fill="#000000" stroke="#000000" points="521.528,-484.5313 529.1991,-488.7874 525.514,-484.8656 529.5,-485.2 529.5,-485.2 529.5,-485.2 525.514,-484.8656 529.8009,-481.6126 521.528,-484.5313 521.528,-484.5313"/>
<ellipse fill="none" stroke="#000000" cx="518.3392" cy="-484.2638" rx="3.2" ry="3.2"/>
</g>
<!-- cm_shared_covariate_balance -->
<g id="node4" class="node">
<title>cm_shared_covariate_balance</title>
<g id="a_node4"><a xlink:href="../../tables/cm_shared_covariate_balance.html" xlink:title="cm_shared_covariate_balance" target="_top">
<polygon fill="#ffffff" stroke="transparent" points="479,-38.2 479,-436.2 766,-436.2 766,-38.2 479,-38.2"/>
<polygon fill="#f5f5f5" stroke="transparent" points="481.5,-411.2 481.5,-434.2 764.5,-434.2 764.5,-411.2 481.5,-411.2"/>
<polygon fill="none" stroke="#000000" points="481.5,-411.2 481.5,-434.2 764.5,-434.2 764.5,-411.2 481.5,-411.2"/>
<text text-anchor="start" x="486.5" y="-419.8" font-family="Helvetica,sans-Serif" font-weight="bold" font-size="11.00" fill="#000000">cm_shared_covariate_balance</text>
<text text-anchor="start" x="729.5437" y="-419.3" font-family="Helvetica,sans-Serif" font-size="11.00" fill="#000000">[table]</text>
<polygon fill="none" stroke="#000000" points="481.5,-389.2 481.5,-411.2 702.5,-411.2 702.5,-389.2 481.5,-389.2"/>
<image xlink:href="../../images/foreignKeys.png" width="11px" height="12px" preserveAspectRatio="xMinYMin meet" x="486.5" y="-406.2"/>
<text text-anchor="start" x="501.5" y="-396.3" font-family="Helvetica,sans-Serif" font-size="11.00" fill="#000000">analysis_id</text>
<polygon fill="none" stroke="#000000" points="702.5,-389.2 702.5,-411.2 764.5,-411.2 764.5,-389.2 702.5,-389.2"/>
<text text-anchor="start" x="705.378" y="-396.9" font-family="Helvetica,sans-Serif" font-size="11.00" fill="#000000">unknown[0]</text>
<polygon fill="none" stroke="#000000" points="481.5,-367.2 481.5,-389.2 702.5,-389.2 702.5,-367.2 481.5,-367.2"/>
<text text-anchor="start" x="501.5" y="-374.3" font-family="Helvetica,sans-Serif" font-size="11.00" fill="#000000">comparator_id</text>
<polygon fill="none" stroke="#000000" points="702.5,-367.2 702.5,-389.2 764.5,-389.2 764.5,-367.2 702.5,-367.2"/>
<text text-anchor="start" x="705.378" y="-374.9" font-family="Helvetica,sans-Serif" font-size="11.00" fill="#000000">unknown[0]</text>
<polygon fill="none" stroke="#000000" points="481.5,-345.2 481.5,-367.2 702.5,-367.2 702.5,-345.2 481.5,-345.2"/>
<text text-anchor="start" x="501.5" y="-352.3" font-family="Helvetica,sans-Serif" font-size="11.00" fill="#000000">comparator_mean_after</text>
<polygon fill="none" stroke="#000000" points="702.5,-345.2 702.5,-367.2 764.5,-367.2 764.5,-345.2 702.5,-345.2"/>
<text text-anchor="start" x="705.378" y="-352.9" font-family="Helvetica,sans-Serif" font-size="11.00" fill="#000000">unknown[0]</text>
<polygon fill="none" stroke="#000000" points="481.5,-323.2 481.5,-345.2 702.5,-345.2 702.5,-323.2 481.5,-323.2"/>
<text text-anchor="start" x="501.5" y="-330.3" font-family="Helvetica,sans-Serif" font-size="11.00" fill="#000000">comparator_mean_before</text>
<polygon fill="none" stroke="#000000" points="702.5,-323.2 702.5,-345.2 764.5,-345.2 764.5,-323.2 702.5,-323.2"/>
<text text-anchor="start" x="705.378" y="-330.9" font-family="Helvetica,sans-Serif" font-size="11.00" fill="#000000">unknown[0]</text>
<polygon fill="none" stroke="#000000" points="481.5,-301.2 481.5,-323.2 702.5,-323.2 702.5,-301.2 481.5,-301.2"/>
<text text-anchor="start" x="501.5" y="-308.3" font-family="Helvetica,sans-Serif" font-size="11.00" fill="#000000">comparator_std_diff</text>
<polygon fill="none" stroke="#000000" points="702.5,-301.2 702.5,-323.2 764.5,-323.2 764.5,-301.2 702.5,-301.2"/>
<text text-anchor="start" x="705.378" y="-308.9" font-family="Helvetica,sans-Serif" font-size="11.00" fill="#000000">unknown[0]</text>
<polygon fill="none" stroke="#000000" points="481.5,-279.2 481.5,-301.2 702.5,-301.2 702.5,-279.2 481.5,-279.2"/>
<image xlink:href="../../images/foreignKeys.png" width="11px" height="12px" preserveAspectRatio="xMinYMin meet" x="486.5" y="-296.2"/>
<text text-anchor="start" x="501.5" y="-286.3" font-family="Helvetica,sans-Serif" font-size="11.00" fill="#000000">covariate_id</text>
<polygon fill="none" stroke="#000000" points="702.5,-279.2 702.5,-301.2 764.5,-301.2 764.5,-279.2 702.5,-279.2"/>
<text text-anchor="start" x="705.378" y="-286.9" font-family="Helvetica,sans-Serif" font-size="11.00" fill="#000000">unknown[0]</text>
<polygon fill="none" stroke="#000000" points="481.5,-257.2 481.5,-279.2 702.5,-279.2 702.5,-257.2 481.5,-257.2"/>
<image xlink:href="../../images/foreignKeys.png" width="11px" height="12px" preserveAspectRatio="xMinYMin meet" x="486.5" y="-274.2"/>
<text text-anchor="start" x="501.5" y="-264.3" font-family="Helvetica,sans-Serif" font-size="11.00" fill="#000000">database_id</text>
<polygon fill="none" stroke="#000000" points="702.5,-257.2 702.5,-279.2 764.5,-279.2 764.5,-257.2 702.5,-257.2"/>
<text text-anchor="start" x="705.378" y="-264.9" font-family="Helvetica,sans-Serif" font-size="11.00" fill="#000000">unknown[0]</text>
<polygon fill="none" stroke="#000000" points="481.5,-235.2 481.5,-257.2 702.5,-257.2 702.5,-235.2 481.5,-235.2"/>
<text text-anchor="start" x="501.5" y="-242.3" font-family="Helvetica,sans-Serif" font-size="11.00" fill="#000000">mean_after</text>
<polygon fill="none" stroke="#000000" points="702.5,-235.2 702.5,-257.2 764.5,-257.2 764.5,-235.2 702.5,-235.2"/>
<text text-anchor="start" x="705.378" y="-242.9" font-family="Helvetica,sans-Serif" font-size="11.00" fill="#000000">unknown[0]</text>
<polygon fill="none" stroke="#000000" points="481.5,-213.2 481.5,-235.2 702.5,-235.2 702.5,-213.2 481.5,-213.2"/>
<text text-anchor="start" x="501.5" y="-220.3" font-family="Helvetica,sans-Serif" font-size="11.00" fill="#000000">mean_before</text>
<polygon fill="none" stroke="#000000" points="702.5,-213.2 702.5,-235.2 764.5,-235.2 764.5,-213.2 702.5,-213.2"/>
<text text-anchor="start" x="705.378" y="-220.9" font-family="Helvetica,sans-Serif" font-size="11.00" fill="#000000">unknown[0]</text>
<polygon fill="none" stroke="#000000" points="481.5,-191.2 481.5,-213.2 702.5,-213.2 702.5,-191.2 481.5,-191.2"/>
<text text-anchor="start" x="501.5" y="-198.3" font-family="Helvetica,sans-Serif" font-size="11.00" fill="#000000">std_diff_after</text>
<polygon fill="none" stroke="#000000" points="702.5,-191.2 702.5,-213.2 764.5,-213.2 764.5,-191.2 702.5,-191.2"/>
<text text-anchor="start" x="705.378" y="-198.9" font-family="Helvetica,sans-Serif" font-size="11.00" fill="#000000">unknown[0]</text>
<polygon fill="none" stroke="#000000" points="481.5,-169.2 481.5,-191.2 702.5,-191.2 702.5,-169.2 481.5,-169.2"/>
<text text-anchor="start" x="501.5" y="-176.3" font-family="Helvetica,sans-Serif" font-size="11.00" fill="#000000">std_diff_before</text>
<polygon fill="none" stroke="#000000" points="702.5,-169.2 702.5,-191.2 764.5,-191.2 764.5,-169.2 702.5,-169.2"/>
<text text-anchor="start" x="705.378" y="-176.9" font-family="Helvetica,sans-Serif" font-size="11.00" fill="#000000">unknown[0]</text>
<polygon fill="none" stroke="#000000" points="481.5,-147.2 481.5,-169.2 702.5,-169.2 702.5,-147.2 481.5,-147.2"/>
<text text-anchor="start" x="501.5" y="-154.3" font-family="Helvetica,sans-Serif" font-size="11.00" fill="#000000">target_comparator_std_diff</text>
<polygon fill="none" stroke="#000000" points="702.5,-147.2 702.5,-169.2 764.5,-169.2 764.5,-147.2 702.5,-147.2"/>
<text text-anchor="start" x="705.378" y="-154.9" font-family="Helvetica,sans-Serif" font-size="11.00" fill="#000000">unknown[0]</text>
<polygon fill="none" stroke="#000000" points="481.5,-125.2 481.5,-147.2 702.5,-147.2 702.5,-125.2 481.5,-125.2"/>
<text text-anchor="start" x="501.5" y="-132.3" font-family="Helvetica,sans-Serif" font-size="11.00" fill="#000000">target_id</text>
<polygon fill="none" stroke="#000000" points="702.5,-125.2 702.5,-147.2 764.5,-147.2 764.5,-125.2 702.5,-125.2"/>
<text text-anchor="start" x="705.378" y="-132.9" font-family="Helvetica,sans-Serif" font-size="11.00" fill="#000000">unknown[0]</text>
<polygon fill="none" stroke="#000000" points="481.5,-103.2 481.5,-125.2 702.5,-125.2 702.5,-103.2 481.5,-103.2"/>
<text text-anchor="start" x="501.5" y="-110.3" font-family="Helvetica,sans-Serif" font-size="11.00" fill="#000000">target_mean_after</text>
<polygon fill="none" stroke="#000000" points="702.5,-103.2 702.5,-125.2 764.5,-125.2 764.5,-103.2 702.5,-103.2"/>
<text text-anchor="start" x="705.378" y="-110.9" font-family="Helvetica,sans-Serif" font-size="11.00" fill="#000000">unknown[0]</text>
<polygon fill="none" stroke="#000000" points="481.5,-81.2 481.5,-103.2 702.5,-103.2 702.5,-81.2 481.5,-81.2"/>
<text text-anchor="start" x="501.5" y="-88.3" font-family="Helvetica,sans-Serif" font-size="11.00" fill="#000000">target_mean_before</text>
<polygon fill="none" stroke="#000000" points="702.5,-81.2 702.5,-103.2 764.5,-103.2 764.5,-81.2 702.5,-81.2"/>
<text text-anchor="start" x="705.378" y="-88.9" font-family="Helvetica,sans-Serif" font-size="11.00" fill="#000000">unknown[0]</text>
<polygon fill="none" stroke="#000000" points="481.5,-59.2 481.5,-81.2 702.5,-81.2 702.5,-59.2 481.5,-59.2"/>
<text text-anchor="start" x="501.5" y="-66.3" font-family="Helvetica,sans-Serif" font-size="11.00" fill="#000000">target_std_diff</text>
<polygon fill="none" stroke="#000000" points="702.5,-59.2 702.5,-81.2 764.5,-81.2 764.5,-59.2 702.5,-59.2"/>
<text text-anchor="start" x="705.378" y="-66.9" font-family="Helvetica,sans-Serif" font-size="11.00" fill="#000000">unknown[0]</text>
<polygon fill="#ffffff" stroke="transparent" points="481.5,-40.2 481.5,-59.2 583.5,-59.2 583.5,-40.2 481.5,-40.2"/>
<polygon fill="none" stroke="#000000" points="481.5,-40.2 481.5,-59.2 583.5,-59.2 583.5,-40.2 481.5,-40.2"/>
<text text-anchor="start" x="484.5" y="-46.3" font-family="Helvetica,sans-Serif" font-size="11.00" fill="#000000">&lt; 4</text>
<polygon fill="#ffffff" stroke="transparent" points="583.5,-40.2 583.5,-59.2 702.5,-59.2 702.5,-40.2 583.5,-40.2"/>
<polygon fill="none" stroke="#000000" points="583.5,-40.2 583.5,-59.2 702.5,-59.2 702.5,-40.2 583.5,-40.2"/>
<text text-anchor="start" x="667.1105" y="-46.3" font-family="Helvetica,sans-Serif" font-size="11.00" fill="#000000">0 rows</text>
<polygon fill="#ffffff" stroke="transparent" points="702.5,-40.2 702.5,-59.2 764.5,-59.2 764.5,-40.2 702.5,-40.2"/>
<polygon fill="none" stroke="#000000" points="702.5,-40.2 702.5,-59.2 764.5,-59.2 764.5,-40.2 702.5,-40.2"/>
<text text-anchor="start" x="745.9053" y="-46.3" font-family="Helvetica,sans-Serif" font-size="11.00" fill="#000000">0 &gt;</text>
<polygon fill="none" stroke="#000000" stroke-width="2" points="480,-39.2 480,-435.2 765,-435.2 765,-39.2 480,-39.2"/>
</a>
</g>
</g>
<!-- cm_shared_covariate_balance&#45;&gt;cm_covariate -->
<g id="edge5" class="edge">
<title>cm_shared_covariate_balance:w&#45;&gt;cm_covariate:e</title>
<path fill="none" stroke="#000000" d="M467.1668,-403.8523C440.8289,-420.1219 459.2612,-485.2 418,-485.2"/>
<polygon fill="#000000" stroke="#000000" points="473.7477,-402.1754 482.389,-403.6885 477.6239,-401.1877 481.5,-400.2 481.5,-400.2 481.5,-400.2 477.6239,-401.1877 480.611,-396.7115 473.7477,-402.1754 473.7477,-402.1754"/>
<ellipse fill="none" stroke="#000000" cx="470.6468" cy="-402.9656" rx="3.2" ry="3.2"/>
</g>
<!-- cm_shared_covariate_balance&#45;&gt;cm_covariate -->
<g id="edge7" class="edge">
<title>cm_shared_covariate_balance:w&#45;&gt;cm_covariate:e</title>
<path fill="none" stroke="#000000" d="M467.1412,-292.5148C412.4579,-313.0439 494.3058,-463.2 418,-463.2"/>
<polygon fill="#000000" stroke="#000000" points="473.602,-291.4733 482.073,-293.7541 477.551,-290.8366 481.5,-290.2 481.5,-290.2 481.5,-290.2 477.551,-290.8366 480.927,-286.6459 473.602,-291.4733 473.602,-291.4733"/>
<ellipse fill="none" stroke="#000000" cx="470.4428" cy="-291.9826" rx="3.2" ry="3.2"/>
</g>
<!-- cm_shared_covariate_balance&#45;&gt;cm_covariate -->
<g id="edge8" class="edge">
<title>cm_shared_covariate_balance:w&#45;&gt;cm_covariate:e</title>
<path fill="none" stroke="#000000" d="M467.1412,-270.5148C412.4579,-291.0439 494.3058,-441.2 418,-441.2"/>
<polygon fill="#000000" stroke="#000000" points="473.602,-269.4733 482.073,-271.7541 477.551,-268.8366 481.5,-268.2 481.5,-268.2 481.5,-268.2 477.551,-268.8366 480.927,-264.6459 473.602,-269.4733 473.602,-269.4733"/>
<ellipse fill="none" stroke="#000000" cx="470.4428" cy="-269.9826" rx="3.2" ry="3.2"/>
</g>
<!-- cm_covariate_analysis -->
<g id="node5" class="node">
<title>cm_covariate_analysis</title>
<g id="a_node5"><a xlink:href="../../tables/cm_covariate_analysis.html" xlink:title="cm_covariate_analysis" target="_top">
<polygon fill="#ffffff" stroke="transparent" points="242,-288.7 242,-371.7 430,-371.7 430,-288.7 242,-288.7"/>
<polygon fill="#f5f5f5" stroke="transparent" points="242,-348.2 242,-371.2 430,-371.2 430,-348.2 242,-348.2"/>
<polygon fill="none" stroke="#000000" points="242,-348.2 242,-371.2 430,-371.2 430,-348.2 242,-348.2"/>
<text text-anchor="start" x="247" y="-356.8" font-family="Helvetica,sans-Serif" font-weight="bold" font-size="11.00" fill="#000000">cm_covariate_analysis</text>
<text text-anchor="start" x="395.5219" y="-356.3" font-family="Helvetica,sans-Serif" font-size="11.00" fill="#000000">[table]</text>
<polygon fill="none" stroke="#000000" points="242,-326.2 242,-348.2 430,-348.2 430,-326.2 242,-326.2"/>
<image xlink:href="../../images/primaryKeys.png" width="11px" height="12px" preserveAspectRatio="xMinYMin meet" x="247" y="-343.2"/>
<text text-anchor="start" x="262" y="-333.3" font-family="Helvetica,sans-Serif" font-size="11.00" fill="#000000">analysis_id</text>
<polygon fill="none" stroke="#000000" points="242,-307.2 242,-326.2 430,-326.2 430,-307.2 242,-307.2"/>
<text text-anchor="start" x="245" y="-313.3" font-family="Helvetica,sans-Serif" font-size="11.00" fill="#000000">...</text>
<polygon fill="#ffffff" stroke="transparent" points="242,-288.2 242,-307.2 312,-307.2 312,-288.2 242,-288.2"/>
<polygon fill="none" stroke="#000000" points="242,-288.2 242,-307.2 312,-307.2 312,-288.2 242,-288.2"/>
<text text-anchor="start" x="245" y="-294.3" font-family="Helvetica,sans-Serif" font-size="11.00" fill="#000000"> &#160;</text>
<polygon fill="#ffffff" stroke="transparent" points="312,-288.2 312,-307.2 379,-307.2 379,-288.2 312,-288.2"/>
<polygon fill="none" stroke="#000000" points="312,-288.2 312,-307.2 379,-307.2 379,-288.2 312,-288.2"/>
<text text-anchor="start" x="343.6105" y="-294.3" font-family="Helvetica,sans-Serif" font-size="11.00" fill="#000000">0 rows</text>
<polygon fill="#ffffff" stroke="transparent" points="379,-288.2 379,-307.2 430,-307.2 430,-288.2 379,-288.2"/>
<polygon fill="none" stroke="#000000" points="379,-288.2 379,-307.2 430,-307.2 430,-288.2 379,-288.2"/>
<text text-anchor="start" x="411.4053" y="-294.3" font-family="Helvetica,sans-Serif" font-size="11.00" fill="#000000">1 &gt;</text>
</a>
</g>
</g>
<!-- cm_shared_covariate_balance&#45;&gt;cm_covariate_analysis -->
<g id="edge6" class="edge">
<title>cm_shared_covariate_balance:w&#45;&gt;cm_covariate_analysis:e</title>
<path fill="none" stroke="#000000" d="M467.799,-395.6692C450.6358,-381.2239 460.2316,-337.2 430,-337.2"/>
<polygon fill="#000000" stroke="#000000" points="473.9045,-397.6882 480.3697,-403.618 477.7023,-398.9441 481.5,-400.2 481.5,-400.2 481.5,-400.2 477.7023,-398.9441 482.6303,-396.782 473.9045,-397.6882 473.9045,-397.6882"/>
<ellipse fill="none" stroke="#000000" cx="470.8663" cy="-396.6835" rx="3.2" ry="3.2"/>
</g>
</g>
</svg>
