<?xml version="1.0" encoding="UTF-8" standalone="no"?>
<!DOCTYPE svg PUBLIC "-//W3C//DTD SVG 1.1//EN"
 "http://www.w3.org/Graphics/SVG/1.1/DTD/svg11.dtd">
<!-- Generated by graphviz version 2.40.1 (20161225.0304)
 -->
<!-- Title: oneDegreeRelationshipsDiagram Pages: 1 -->
<svg width="311pt" height="448pt"
 viewBox="0.00 0.00 311.00 448.20" xmlns="http://www.w3.org/2000/svg" xmlns:xlink="http://www.w3.org/1999/xlink">
<g id="graph0" class="graph" transform="scale(1 1) rotate(0) translate(4 444.2)">
<title>oneDegreeRelationshipsDiagram</title>
<polygon fill="#ffffff" stroke="transparent" points="-4,4 -4,-444.2 307,-444.2 307,4 -4,4"/>
<text text-anchor="middle" x="72.4936" y="-7.3" font-family="Helvetica,sans-Serif" font-size="11.00" fill="#000000">Generated by SchemaSpy</text>
<!-- cm_shared_covariate_balance -->
<g id="node1" class="node">
<title>cm_shared_covariate_balance</title>
<g id="a_node1"><a xlink:href="../../tables/cm_shared_covariate_balance.html" xlink:title="cm_shared_covariate_balance" target="_top">
<polygon fill="#ffffff" stroke="transparent" points="8,-38.2 8,-436.2 295,-436.2 295,-38.2 8,-38.2"/>
<polygon fill="#f5f5f5" stroke="transparent" points="10.5,-411.2 10.5,-434.2 293.5,-434.2 293.5,-411.2 10.5,-411.2"/>
<polygon fill="none" stroke="#000000" points="10.5,-411.2 10.5,-434.2 293.5,-434.2 293.5,-411.2 10.5,-411.2"/>
<text text-anchor="start" x="15.5" y="-419.8" font-family="Helvetica,sans-Serif" font-weight="bold" font-size="11.00" fill="#000000">cm_shared_covariate_balance</text>
<text text-anchor="start" x="258.5437" y="-419.3" font-family="Helvetica,sans-Serif" font-size="11.00" fill="#000000">[table]</text>
<polygon fill="none" stroke="#000000" points="10.5,-389.2 10.5,-411.2 231.5,-411.2 231.5,-389.2 10.5,-389.2"/>
<text text-anchor="start" x="30.5" y="-396.3" font-family="Helvetica,sans-Serif" font-size="11.00" fill="#000000">analysis_id</text>
<polygon fill="none" stroke="#000000" points="231.5,-389.2 231.5,-411.2 293.5,-411.2 293.5,-389.2 231.5,-389.2"/>
<text text-anchor="start" x="234.378" y="-396.9" font-family="Helvetica,sans-Serif" font-size="11.00" fill="#000000">unknown[0]</text>
<polygon fill="none" stroke="#000000" points="10.5,-367.2 10.5,-389.2 231.5,-389.2 231.5,-367.2 10.5,-367.2"/>
<text text-anchor="start" x="30.5" y="-374.3" font-family="Helvetica,sans-Serif" font-size="11.00" fill="#000000">comparator_id</text>
<polygon fill="none" stroke="#000000" points="231.5,-367.2 231.5,-389.2 293.5,-389.2 293.5,-367.2 231.5,-367.2"/>
<text text-anchor="start" x="234.378" y="-374.9" font-family="Helvetica,sans-Serif" font-size="11.00" fill="#000000">unknown[0]</text>
<polygon fill="none" stroke="#000000" points="10.5,-345.2 10.5,-367.2 231.5,-367.2 231.5,-345.2 10.5,-345.2"/>
<text text-anchor="start" x="30.5" y="-352.3" font-family="Helvetica,sans-Serif" font-size="11.00" fill="#000000">comparator_mean_after</text>
<polygon fill="none" stroke="#000000" points="231.5,-345.2 231.5,-367.2 293.5,-367.2 293.5,-345.2 231.5,-345.2"/>
<text text-anchor="start" x="234.378" y="-352.9" font-family="Helvetica,sans-Serif" font-size="11.00" fill="#000000">unknown[0]</text>
<polygon fill="none" stroke="#000000" points="10.5,-323.2 10.5,-345.2 231.5,-345.2 231.5,-323.2 10.5,-323.2"/>
<text text-anchor="start" x="30.5" y="-330.3" font-family="Helvetica,sans-Serif" font-size="11.00" fill="#000000">comparator_mean_before</text>
<polygon fill="none" stroke="#000000" points="231.5,-323.2 231.5,-345.2 293.5,-345.2 293.5,-323.2 231.5,-323.2"/>
<text text-anchor="start" x="234.378" y="-330.9" font-family="Helvetica,sans-Serif" font-size="11.00" fill="#000000">unknown[0]</text>
<polygon fill="none" stroke="#000000" points="10.5,-301.2 10.5,-323.2 231.5,-323.2 231.5,-301.2 10.5,-301.2"/>
<text text-anchor="start" x="30.5" y="-308.3" font-family="Helvetica,sans-Serif" font-size="11.00" fill="#000000">comparator_std_diff</text>
<polygon fill="none" stroke="#000000" points="231.5,-301.2 231.5,-323.2 293.5,-323.2 293.5,-301.2 231.5,-301.2"/>
<text text-anchor="start" x="234.378" y="-308.9" font-family="Helvetica,sans-Serif" font-size="11.00" fill="#000000">unknown[0]</text>
<polygon fill="none" stroke="#000000" points="10.5,-279.2 10.5,-301.2 231.5,-301.2 231.5,-279.2 10.5,-279.2"/>
<text text-anchor="start" x="30.5" y="-286.3" font-family="Helvetica,sans-Serif" font-size="11.00" fill="#000000">covariate_id</text>
<polygon fill="none" stroke="#000000" points="231.5,-279.2 231.5,-301.2 293.5,-301.2 293.5,-279.2 231.5,-279.2"/>
<text text-anchor="start" x="234.378" y="-286.9" font-family="Helvetica,sans-Serif" font-size="11.00" fill="#000000">unknown[0]</text>
<polygon fill="none" stroke="#000000" points="10.5,-257.2 10.5,-279.2 231.5,-279.2 231.5,-257.2 10.5,-257.2"/>
<text text-anchor="start" x="30.5" y="-264.3" font-family="Helvetica,sans-Serif" font-size="11.00" fill="#000000">database_id</text>
<polygon fill="none" stroke="#000000" points="231.5,-257.2 231.5,-279.2 293.5,-279.2 293.5,-257.2 231.5,-257.2"/>
<text text-anchor="start" x="234.378" y="-264.9" font-family="Helvetica,sans-Serif" font-size="11.00" fill="#000000">unknown[0]</text>
<polygon fill="none" stroke="#000000" points="10.5,-235.2 10.5,-257.2 231.5,-257.2 231.5,-235.2 10.5,-235.2"/>
<text text-anchor="start" x="30.5" y="-242.3" font-family="Helvetica,sans-Serif" font-size="11.00" fill="#000000">mean_after</text>
<polygon fill="none" stroke="#000000" points="231.5,-235.2 231.5,-257.2 293.5,-257.2 293.5,-235.2 231.5,-235.2"/>
<text text-anchor="start" x="234.378" y="-242.9" font-family="Helvetica,sans-Serif" font-size="11.00" fill="#000000">unknown[0]</text>
<polygon fill="none" stroke="#000000" points="10.5,-213.2 10.5,-235.2 231.5,-235.2 231.5,-213.2 10.5,-213.2"/>
<text text-anchor="start" x="30.5" y="-220.3" font-family="Helvetica,sans-Serif" font-size="11.00" fill="#000000">mean_before</text>
<polygon fill="none" stroke="#000000" points="231.5,-213.2 231.5,-235.2 293.5,-235.2 293.5,-213.2 231.5,-213.2"/>
<text text-anchor="start" x="234.378" y="-220.9" font-family="Helvetica,sans-Serif" font-size="11.00" fill="#000000">unknown[0]</text>
<polygon fill="none" stroke="#000000" points="10.5,-191.2 10.5,-213.2 231.5,-213.2 231.5,-191.2 10.5,-191.2"/>
<text text-anchor="start" x="30.5" y="-198.3" font-family="Helvetica,sans-Serif" font-size="11.00" fill="#000000">std_diff_after</text>
<polygon fill="none" stroke="#000000" points="231.5,-191.2 231.5,-213.2 293.5,-213.2 293.5,-191.2 231.5,-191.2"/>
<text text-anchor="start" x="234.378" y="-198.9" font-family="Helvetica,sans-Serif" font-size="11.00" fill="#000000">unknown[0]</text>
<polygon fill="none" stroke="#000000" points="10.5,-169.2 10.5,-191.2 231.5,-191.2 231.5,-169.2 10.5,-169.2"/>
<text text-anchor="start" x="30.5" y="-176.3" font-family="Helvetica,sans-Serif" font-size="11.00" fill="#000000">std_diff_before</text>
<polygon fill="none" stroke="#000000" points="231.5,-169.2 231.5,-191.2 293.5,-191.2 293.5,-169.2 231.5,-169.2"/>
<text text-anchor="start" x="234.378" y="-176.9" font-family="Helvetica,sans-Serif" font-size="11.00" fill="#000000">unknown[0]</text>
<polygon fill="none" stroke="#000000" points="10.5,-147.2 10.5,-169.2 231.5,-169.2 231.5,-147.2 10.5,-147.2"/>
<text text-anchor="start" x="30.5" y="-154.3" font-family="Helvetica,sans-Serif" font-size="11.00" fill="#000000">target_comparator_std_diff</text>
<polygon fill="none" stroke="#000000" points="231.5,-147.2 231.5,-169.2 293.5,-169.2 293.5,-147.2 231.5,-147.2"/>
<text text-anchor="start" x="234.378" y="-154.9" font-family="Helvetica,sans-Serif" font-size="11.00" fill="#000000">unknown[0]</text>
<polygon fill="none" stroke="#000000" points="10.5,-125.2 10.5,-147.2 231.5,-147.2 231.5,-125.2 10.5,-125.2"/>
<text text-anchor="start" x="30.5" y="-132.3" font-family="Helvetica,sans-Serif" font-size="11.00" fill="#000000">target_id</text>
<polygon fill="none" stroke="#000000" points="231.5,-125.2 231.5,-147.2 293.5,-147.2 293.5,-125.2 231.5,-125.2"/>
<text text-anchor="start" x="234.378" y="-132.9" font-family="Helvetica,sans-Serif" font-size="11.00" fill="#000000">unknown[0]</text>
<polygon fill="none" stroke="#000000" points="10.5,-103.2 10.5,-125.2 231.5,-125.2 231.5,-103.2 10.5,-103.2"/>
<text text-anchor="start" x="30.5" y="-110.3" font-family="Helvetica,sans-Serif" font-size="11.00" fill="#000000">target_mean_after</text>
<polygon fill="none" stroke="#000000" points="231.5,-103.2 231.5,-125.2 293.5,-125.2 293.5,-103.2 231.5,-103.2"/>
<text text-anchor="start" x="234.378" y="-110.9" font-family="Helvetica,sans-Serif" font-size="11.00" fill="#000000">unknown[0]</text>
<polygon fill="none" stroke="#000000" points="10.5,-81.2 10.5,-103.2 231.5,-103.2 231.5,-81.2 10.5,-81.2"/>
<text text-anchor="start" x="30.5" y="-88.3" font-family="Helvetica,sans-Serif" font-size="11.00" fill="#000000">target_mean_before</text>
<polygon fill="none" stroke="#000000" points="231.5,-81.2 231.5,-103.2 293.5,-103.2 293.5,-81.2 231.5,-81.2"/>
<text text-anchor="start" x="234.378" y="-88.9" font-family="Helvetica,sans-Serif" font-size="11.00" fill="#000000">unknown[0]</text>
<polygon fill="none" stroke="#000000" points="10.5,-59.2 10.5,-81.2 231.5,-81.2 231.5,-59.2 10.5,-59.2"/>
<text text-anchor="start" x="30.5" y="-66.3" font-family="Helvetica,sans-Serif" font-size="11.00" fill="#000000">target_std_diff</text>
<polygon fill="none" stroke="#000000" points="231.5,-59.2 231.5,-81.2 293.5,-81.2 293.5,-59.2 231.5,-59.2"/>
<text text-anchor="start" x="234.378" y="-66.9" font-family="Helvetica,sans-Serif" font-size="11.00" fill="#000000">unknown[0]</text>
<polygon fill="#ffffff" stroke="transparent" points="10.5,-40.2 10.5,-59.2 112.5,-59.2 112.5,-40.2 10.5,-40.2"/>
<polygon fill="none" stroke="#000000" points="10.5,-40.2 10.5,-59.2 112.5,-59.2 112.5,-40.2 10.5,-40.2"/>
<text text-anchor="start" x="13.5" y="-46.3" font-family="Helvetica,sans-Serif" font-size="11.00" fill="#000000">&lt; 0</text>
<polygon fill="#ffffff" stroke="transparent" points="112.5,-40.2 112.5,-59.2 231.5,-59.2 231.5,-40.2 112.5,-40.2"/>
<polygon fill="none" stroke="#000000" points="112.5,-40.2 112.5,-59.2 231.5,-59.2 231.5,-40.2 112.5,-40.2"/>
<text text-anchor="start" x="196.1105" y="-46.3" font-family="Helvetica,sans-Serif" font-size="11.00" fill="#000000">0 rows</text>
<polygon fill="#ffffff" stroke="transparent" points="231.5,-40.2 231.5,-59.2 293.5,-59.2 293.5,-40.2 231.5,-40.2"/>
<polygon fill="none" stroke="#000000" points="231.5,-40.2 231.5,-59.2 293.5,-59.2 293.5,-40.2 231.5,-40.2"/>
<text text-anchor="start" x="274.9053" y="-46.3" font-family="Helvetica,sans-Serif" font-size="11.00" fill="#000000">0 &gt;</text>
<polygon fill="none" stroke="#000000" stroke-width="2" points="9,-39.2 9,-435.2 294,-435.2 294,-39.2 9,-39.2"/>
</a>
</g>
</g>
</g>
</svg>
