<?xml version="1.0" encoding="UTF-8" standalone="no"?>
<!DOCTYPE svg PUBLIC "-//W3C//DTD SVG 1.1//EN"
 "http://www.w3.org/Graphics/SVG/1.1/DTD/svg11.dtd">
<!-- Generated by graphviz version 2.40.1 (20161225.0304)
 -->
<!-- Title: twoDegreesRelationshipsDiagram Pages: 1 -->
<svg width="721pt" height="227pt"
 viewBox="0.00 0.00 721.00 226.70" xmlns="http://www.w3.org/2000/svg" xmlns:xlink="http://www.w3.org/1999/xlink">
<g id="graph0" class="graph" transform="scale(1 1) rotate(0) translate(4 222.7)">
<title>twoDegreesRelationshipsDiagram</title>
<polygon fill="#ffffff" stroke="transparent" points="-4,4 -4,-222.7 717,-222.7 717,4 -4,4"/>
<text text-anchor="middle" x="72.4936" y="-7.3" font-family="Helvetica,sans-Serif" font-size="11.00" fill="#000000">Generated by SchemaSpy</text>
<!-- cm_analysis -->
<g id="node1" class="node">
<title>cm_analysis</title>
<g id="a_node1"><a xlink:href="../../tables/cm_analysis.html" xlink:title="cm_analysis" target="_top">
<polygon fill="#ffffff" stroke="transparent" points="586,-152.7 586,-213.7 705,-213.7 705,-152.7 586,-152.7"/>
<polygon fill="#f5f5f5" stroke="transparent" points="586.5,-190.2 586.5,-213.2 705.5,-213.2 705.5,-190.2 586.5,-190.2"/>
<polygon fill="none" stroke="#000000" points="586.5,-190.2 586.5,-213.2 705.5,-213.2 705.5,-190.2 586.5,-190.2"/>
<text text-anchor="start" x="591.5" y="-198.8" font-family="Helvetica,sans-Serif" font-weight="bold" font-size="11.00" fill="#000000">cm_analysis</text>
<text text-anchor="start" x="671.0219" y="-198.3" font-family="Helvetica,sans-Serif" font-size="11.00" fill="#000000">[table]</text>
<polygon fill="none" stroke="#000000" points="586.5,-171.2 586.5,-190.2 705.5,-190.2 705.5,-171.2 586.5,-171.2"/>
<text text-anchor="start" x="589.5" y="-177.3" font-family="Helvetica,sans-Serif" font-size="11.00" fill="#000000">...</text>
<polygon fill="#ffffff" stroke="transparent" points="586.5,-152.2 586.5,-171.2 626.5,-171.2 626.5,-152.2 586.5,-152.2"/>
<polygon fill="none" stroke="#000000" points="586.5,-152.2 586.5,-171.2 626.5,-171.2 626.5,-152.2 586.5,-152.2"/>
<text text-anchor="start" x="589.5" y="-158.3" font-family="Helvetica,sans-Serif" font-size="11.00" fill="#000000">&lt; 2</text>
<polygon fill="#ffffff" stroke="transparent" points="626.5,-152.2 626.5,-171.2 674.5,-171.2 674.5,-152.2 626.5,-152.2"/>
<polygon fill="none" stroke="#000000" points="626.5,-152.2 626.5,-171.2 674.5,-171.2 674.5,-152.2 626.5,-152.2"/>
<text text-anchor="start" x="639.1105" y="-158.3" font-family="Helvetica,sans-Serif" font-size="11.00" fill="#000000">0 rows</text>
<polygon fill="#ffffff" stroke="transparent" points="674.5,-152.2 674.5,-171.2 705.5,-171.2 705.5,-152.2 674.5,-152.2"/>
<polygon fill="none" stroke="#000000" points="674.5,-152.2 674.5,-171.2 705.5,-171.2 705.5,-152.2 674.5,-152.2"/>
<text text-anchor="start" x="686.9053" y="-158.3" font-family="Helvetica,sans-Serif" font-size="11.00" fill="#000000">1 &gt;</text>
</a>
</g>
</g>
<!-- cm_result -->
<g id="node2" class="node">
<title>cm_result</title>
<g id="a_node2"><a xlink:href="../../tables/cm_result.html" xlink:title="cm_result" target="_top">
<polygon fill="#ffffff" stroke="transparent" points="360,-65.7 360,-214.7 537,-214.7 537,-65.7 360,-65.7"/>
<polygon fill="#f5f5f5" stroke="transparent" points="360.5,-191.2 360.5,-214.2 537.5,-214.2 537.5,-191.2 360.5,-191.2"/>
<polygon fill="none" stroke="#000000" points="360.5,-191.2 360.5,-214.2 537.5,-214.2 537.5,-191.2 360.5,-191.2"/>
<text text-anchor="start" x="365.5" y="-199.8" font-family="Helvetica,sans-Serif" font-weight="bold" font-size="11.00" fill="#000000">cm_result</text>
<text text-anchor="start" x="502.5437" y="-199.3" font-family="Helvetica,sans-Serif" font-size="11.00" fill="#000000">[table]</text>
<polygon fill="none" stroke="#000000" points="360.5,-169.2 360.5,-191.2 537.5,-191.2 537.5,-169.2 360.5,-169.2"/>
<image xlink:href="../../images/primaryKeys.png" width="11px" height="12px" preserveAspectRatio="xMinYMin meet" x="365.5" y="-186.2"/>
<text text-anchor="start" x="380.5" y="-176.3" font-family="Helvetica,sans-Serif" font-size="11.00" fill="#000000">analysis_id</text>
<polygon fill="none" stroke="#000000" points="360.5,-147.2 360.5,-169.2 537.5,-169.2 537.5,-147.2 360.5,-147.2"/>
<image xlink:href="../../images/foreignKeys.png" width="11px" height="12px" preserveAspectRatio="xMinYMin meet" x="365.5" y="-164.2"/>
<text text-anchor="start" x="380.5" y="-154.3" font-family="Helvetica,sans-Serif" font-size="11.00" fill="#000000">comparator_id</text>
<polygon fill="none" stroke="#000000" points="360.5,-125.2 360.5,-147.2 537.5,-147.2 537.5,-125.2 360.5,-125.2"/>
<image xlink:href="../../images/foreignKeys.png" width="11px" height="12px" preserveAspectRatio="xMinYMin meet" x="365.5" y="-142.2"/>
<text text-anchor="start" x="380.5" y="-132.3" font-family="Helvetica,sans-Serif" font-size="11.00" fill="#000000">outcome_id</text>
<polygon fill="none" stroke="#000000" points="360.5,-103.2 360.5,-125.2 537.5,-125.2 537.5,-103.2 360.5,-103.2"/>
<image xlink:href="../../images/foreignKeys.png" width="11px" height="12px" preserveAspectRatio="xMinYMin meet" x="365.5" y="-120.2"/>
<text text-anchor="start" x="380.5" y="-110.3" font-family="Helvetica,sans-Serif" font-size="11.00" fill="#000000">target_id</text>
<polygon fill="none" stroke="#000000" points="360.5,-84.2 360.5,-103.2 537.5,-103.2 537.5,-84.2 360.5,-84.2"/>
<text text-anchor="start" x="363.5" y="-90.3" font-family="Helvetica,sans-Serif" font-size="11.00" fill="#000000">...</text>
<polygon fill="#ffffff" stroke="transparent" points="360.5,-65.2 360.5,-84.2 429.5,-84.2 429.5,-65.2 360.5,-65.2"/>
<polygon fill="none" stroke="#000000" points="360.5,-65.2 360.5,-84.2 429.5,-84.2 429.5,-65.2 360.5,-65.2"/>
<text text-anchor="start" x="363.5" y="-71.3" font-family="Helvetica,sans-Serif" font-size="11.00" fill="#000000">&lt; 3</text>
<polygon fill="#ffffff" stroke="transparent" points="429.5,-65.2 429.5,-84.2 491.5,-84.2 491.5,-65.2 429.5,-65.2"/>
<polygon fill="none" stroke="#000000" points="429.5,-65.2 429.5,-84.2 491.5,-84.2 491.5,-65.2 429.5,-65.2"/>
<text text-anchor="start" x="456.1105" y="-71.3" font-family="Helvetica,sans-Serif" font-size="11.00" fill="#000000">0 rows</text>
<polygon fill="#ffffff" stroke="transparent" points="491.5,-65.2 491.5,-84.2 537.5,-84.2 537.5,-65.2 491.5,-65.2"/>
<polygon fill="none" stroke="#000000" points="491.5,-65.2 491.5,-84.2 537.5,-84.2 537.5,-65.2 491.5,-65.2"/>
<text text-anchor="start" x="518.9053" y="-71.3" font-family="Helvetica,sans-Serif" font-size="11.00" fill="#000000">1 &gt;</text>
</a>
</g>
</g>
<!-- cm_analysis&#45;&gt;cm_result -->
<g id="edge1" class="edge">
<title>cm_analysis:w&#45;&gt;cm_result:e</title>
<path fill="none" stroke="#000000" d="M575.7573,-180.2C562.1063,-180.2 555.1944,-180.2 537.5,-180.2"/>
<polygon fill="#000000" stroke="#000000" points="585.7,-176.2 585.7,-184.2 584.1,-184.2 584.1,-176.2 585.7,-176.2"/>
<polyline fill="none" stroke="#000000" points="586.5,-180.2 582.5,-180.2 "/>
<ellipse fill="none" stroke="#000000" cx="579.3" cy="-180.2001" rx="3.2" ry="3.2"/>
</g>
<!-- cm_target_comparator_outcome -->
<g id="node3" class="node">
<title>cm_target_comparator_outcome</title>
<g id="a_node3"><a xlink:href="../../tables/cm_target_comparator_outcome.html" xlink:title="cm_target_comparator_outcome" target="_top">
<polygon fill="#ffffff" stroke="transparent" points="8,-38.2 8,-194.2 311,-194.2 311,-38.2 8,-38.2"/>
<polygon fill="#f5f5f5" stroke="transparent" points="10.5,-169.2 10.5,-192.2 309.5,-192.2 309.5,-169.2 10.5,-169.2"/>
<polygon fill="none" stroke="#000000" points="10.5,-169.2 10.5,-192.2 309.5,-192.2 309.5,-169.2 10.5,-169.2"/>
<text text-anchor="start" x="15.5" y="-177.8" font-family="Helvetica,sans-Serif" font-weight="bold" font-size="11.00" fill="#000000">cm_target_comparator_outcome</text>
<text text-anchor="start" x="274.5437" y="-177.3" font-family="Helvetica,sans-Serif" font-size="11.00" fill="#000000">[table]</text>
<polygon fill="none" stroke="#000000" points="10.5,-147.2 10.5,-169.2 247.5,-169.2 247.5,-147.2 10.5,-147.2"/>
<image xlink:href="../../images/primaryKeys.png" width="11px" height="12px" preserveAspectRatio="xMinYMin meet" x="15.5" y="-164.2"/>
<text text-anchor="start" x="30.5" y="-154.3" font-family="Helvetica,sans-Serif" font-size="11.00" fill="#000000">comparator_id</text>
<polygon fill="none" stroke="#000000" points="247.5,-147.2 247.5,-169.2 309.5,-169.2 309.5,-147.2 247.5,-147.2"/>
<text text-anchor="start" x="250.378" y="-154.9" font-family="Helvetica,sans-Serif" font-size="11.00" fill="#000000">unknown[0]</text>
<polygon fill="none" stroke="#000000" points="10.5,-125.2 10.5,-147.2 247.5,-147.2 247.5,-125.2 10.5,-125.2"/>
<image xlink:href="../../images/primaryKeys.png" width="11px" height="12px" preserveAspectRatio="xMinYMin meet" x="15.5" y="-142.2"/>
<text text-anchor="start" x="30.5" y="-132.3" font-family="Helvetica,sans-Serif" font-size="11.00" fill="#000000">outcome_id</text>
<polygon fill="none" stroke="#000000" points="247.5,-125.2 247.5,-147.2 309.5,-147.2 309.5,-125.2 247.5,-125.2"/>
<text text-anchor="start" x="250.378" y="-132.9" font-family="Helvetica,sans-Serif" font-size="11.00" fill="#000000">unknown[0]</text>
<polygon fill="none" stroke="#000000" points="10.5,-103.2 10.5,-125.2 247.5,-125.2 247.5,-103.2 10.5,-103.2"/>
<text text-anchor="start" x="30.5" y="-110.3" font-family="Helvetica,sans-Serif" font-size="11.00" fill="#000000">outcome_of_interest</text>
<polygon fill="none" stroke="#000000" points="247.5,-103.2 247.5,-125.2 309.5,-125.2 309.5,-103.2 247.5,-103.2"/>
<text text-anchor="start" x="250.378" y="-110.9" font-family="Helvetica,sans-Serif" font-size="11.00" fill="#000000">unknown[0]</text>
<polygon fill="none" stroke="#000000" points="10.5,-81.2 10.5,-103.2 247.5,-103.2 247.5,-81.2 10.5,-81.2"/>
<image xlink:href="../../images/primaryKeys.png" width="11px" height="12px" preserveAspectRatio="xMinYMin meet" x="15.5" y="-98.2"/>
<text text-anchor="start" x="30.5" y="-88.3" font-family="Helvetica,sans-Serif" font-size="11.00" fill="#000000">target_id</text>
<polygon fill="none" stroke="#000000" points="247.5,-81.2 247.5,-103.2 309.5,-103.2 309.5,-81.2 247.5,-81.2"/>
<text text-anchor="start" x="250.378" y="-88.9" font-family="Helvetica,sans-Serif" font-size="11.00" fill="#000000">unknown[0]</text>
<polygon fill="none" stroke="#000000" points="10.5,-59.2 10.5,-81.2 247.5,-81.2 247.5,-59.2 10.5,-59.2"/>
<text text-anchor="start" x="30.5" y="-66.3" font-family="Helvetica,sans-Serif" font-size="11.00" fill="#000000">true_effect_size</text>
<polygon fill="none" stroke="#000000" points="247.5,-59.2 247.5,-81.2 309.5,-81.2 309.5,-59.2 247.5,-59.2"/>
<text text-anchor="start" x="250.378" y="-66.9" font-family="Helvetica,sans-Serif" font-size="11.00" fill="#000000">unknown[0]</text>
<polygon fill="#ffffff" stroke="transparent" points="10.5,-40.2 10.5,-59.2 120.5,-59.2 120.5,-40.2 10.5,-40.2"/>
<polygon fill="none" stroke="#000000" points="10.5,-40.2 10.5,-59.2 120.5,-59.2 120.5,-40.2 10.5,-40.2"/>
<text text-anchor="start" x="13.5" y="-46.3" font-family="Helvetica,sans-Serif" font-size="11.00" fill="#000000">&lt; 0</text>
<polygon fill="#ffffff" stroke="transparent" points="120.5,-40.2 120.5,-59.2 247.5,-59.2 247.5,-40.2 120.5,-40.2"/>
<polygon fill="none" stroke="#000000" points="120.5,-40.2 120.5,-59.2 247.5,-59.2 247.5,-40.2 120.5,-40.2"/>
<text text-anchor="start" x="212.1105" y="-46.3" font-family="Helvetica,sans-Serif" font-size="11.00" fill="#000000">0 rows</text>
<polygon fill="#ffffff" stroke="transparent" points="247.5,-40.2 247.5,-59.2 309.5,-59.2 309.5,-40.2 247.5,-40.2"/>
<polygon fill="none" stroke="#000000" points="247.5,-40.2 247.5,-59.2 309.5,-59.2 309.5,-40.2 247.5,-40.2"/>
<text text-anchor="start" x="290.9053" y="-46.3" font-family="Helvetica,sans-Serif" font-size="11.00" fill="#000000">3 &gt;</text>
<polygon fill="none" stroke="#000000" stroke-width="2" points="9,-39.2 9,-193.2 310,-193.2 310,-39.2 9,-39.2"/>
</a>
</g>
</g>
<!-- cm_result&#45;&gt;cm_target_comparator_outcome -->
<g id="edge2" class="edge">
<title>cm_result:w&#45;&gt;cm_target_comparator_outcome:e</title>
<path fill="none" stroke="#000000" d="M345.776,-158.2C333.7815,-158.2 326.3229,-158.2 309.5,-158.2"/>
<polygon fill="#000000" stroke="#000000" points="352.5,-158.2001 360.5,-161.8 356.5,-158.2 360.5,-158.2 360.5,-158.2 360.5,-158.2 356.5,-158.2 360.5,-154.6 352.5,-158.2001 352.5,-158.2001"/>
<ellipse fill="none" stroke="#000000" cx="349.3" cy="-158.2001" rx="3.2" ry="3.2"/>
</g>
<!-- cm_result&#45;&gt;cm_target_comparator_outcome -->
<g id="edge3" class="edge">
<title>cm_result:w&#45;&gt;cm_target_comparator_outcome:e</title>
<path fill="none" stroke="#000000" d="M345.776,-136.2C333.7815,-136.2 326.3229,-136.2 309.5,-136.2"/>
<polygon fill="#000000" stroke="#000000" points="352.5,-136.2001 360.5,-139.8 356.5,-136.2 360.5,-136.2 360.5,-136.2 360.5,-136.2 356.5,-136.2 360.5,-132.6 352.5,-136.2001 352.5,-136.2001"/>
<ellipse fill="none" stroke="#000000" cx="349.3" cy="-136.2001" rx="3.2" ry="3.2"/>
</g>
<!-- cm_result&#45;&gt;cm_target_comparator_outcome -->
<g id="edge4" class="edge">
<title>cm_result:w&#45;&gt;cm_target_comparator_outcome:e</title>
<path fill="none" stroke="#000000" d="M346.3489,-111.141C333.7843,-105.096 328.4,-92.2 309.5,-92.2"/>
<polygon fill="#000000" stroke="#000000" points="352.6806,-112.5097 359.7393,-117.7187 356.5903,-113.3548 360.5,-114.2 360.5,-114.2 360.5,-114.2 356.5903,-113.3548 361.2607,-110.6813 352.6806,-112.5097 352.6806,-112.5097"/>
<ellipse fill="none" stroke="#000000" cx="349.5528" cy="-111.8335" rx="3.2" ry="3.2"/>
</g>
</g>
</svg>
