<?xml version="1.0" encoding="UTF-8" standalone="no"?>
<!DOCTYPE svg PUBLIC "-//W3C//DTD SVG 1.1//EN"
 "http://www.w3.org/Graphics/SVG/1.1/DTD/svg11.dtd">
<!-- Generated by graphviz version 2.40.1 (20161225.0304)
 -->
<!-- Title: oneDegreeRelationshipsDiagram Pages: 1 -->
<svg width="327pt" height="206pt"
 viewBox="0.00 0.00 327.00 206.20" xmlns="http://www.w3.org/2000/svg" xmlns:xlink="http://www.w3.org/1999/xlink">
<g id="graph0" class="graph" transform="scale(1 1) rotate(0) translate(4 202.2)">
<title>oneDegreeRelationshipsDiagram</title>
<polygon fill="#ffffff" stroke="transparent" points="-4,4 -4,-202.2 323,-202.2 323,4 -4,4"/>
<text text-anchor="middle" x="72.4936" y="-7.3" font-family="Helvetica,sans-Serif" font-size="11.00" fill="#000000">Generated by SchemaSpy</text>
<!-- cm_target_comparator_outcome -->
<g id="node1" class="node">
<title>cm_target_comparator_outcome</title>
<g id="a_node1"><a xlink:href="../../tables/cm_target_comparator_outcome.html" xlink:title="cm_target_comparator_outcome" target="_top">
<polygon fill="#ffffff" stroke="transparent" points="8,-38.2 8,-194.2 311,-194.2 311,-38.2 8,-38.2"/>
<polygon fill="#f5f5f5" stroke="transparent" points="10.5,-169.2 10.5,-192.2 309.5,-192.2 309.5,-169.2 10.5,-169.2"/>
<polygon fill="none" stroke="#000000" points="10.5,-169.2 10.5,-192.2 309.5,-192.2 309.5,-169.2 10.5,-169.2"/>
<text text-anchor="start" x="15.5" y="-177.8" font-family="Helvetica,sans-Serif" font-weight="bold" font-size="11.00" fill="#000000">cm_target_comparator_outcome</text>
<text text-anchor="start" x="274.5437" y="-177.3" font-family="Helvetica,sans-Serif" font-size="11.00" fill="#000000">[table]</text>
<polygon fill="none" stroke="#000000" points="10.5,-147.2 10.5,-169.2 247.5,-169.2 247.5,-147.2 10.5,-147.2"/>
<text text-anchor="start" x="30.5" y="-154.3" font-family="Helvetica,sans-Serif" font-size="11.00" fill="#000000">comparator_id</text>
<polygon fill="none" stroke="#000000" points="247.5,-147.2 247.5,-169.2 309.5,-169.2 309.5,-147.2 247.5,-147.2"/>
<text text-anchor="start" x="250.378" y="-154.9" font-family="Helvetica,sans-Serif" font-size="11.00" fill="#000000">unknown[0]</text>
<polygon fill="none" stroke="#000000" points="10.5,-125.2 10.5,-147.2 247.5,-147.2 247.5,-125.2 10.5,-125.2"/>
<text text-anchor="start" x="30.5" y="-132.3" font-family="Helvetica,sans-Serif" font-size="11.00" fill="#000000">outcome_id</text>
<polygon fill="none" stroke="#000000" points="247.5,-125.2 247.5,-147.2 309.5,-147.2 309.5,-125.2 247.5,-125.2"/>
<text text-anchor="start" x="250.378" y="-132.9" font-family="Helvetica,sans-Serif" font-size="11.00" fill="#000000">unknown[0]</text>
<polygon fill="none" stroke="#000000" points="10.5,-103.2 10.5,-125.2 247.5,-125.2 247.5,-103.2 10.5,-103.2"/>
<text text-anchor="start" x="30.5" y="-110.3" font-family="Helvetica,sans-Serif" font-size="11.00" fill="#000000">outcome_of_interest</text>
<polygon fill="none" stroke="#000000" points="247.5,-103.2 247.5,-125.2 309.5,-125.2 309.5,-103.2 247.5,-103.2"/>
<text text-anchor="start" x="250.378" y="-110.9" font-family="Helvetica,sans-Serif" font-size="11.00" fill="#000000">unknown[0]</text>
<polygon fill="none" stroke="#000000" points="10.5,-81.2 10.5,-103.2 247.5,-103.2 247.5,-81.2 10.5,-81.2"/>
<text text-anchor="start" x="30.5" y="-88.3" font-family="Helvetica,sans-Serif" font-size="11.00" fill="#000000">target_id</text>
<polygon fill="none" stroke="#000000" points="247.5,-81.2 247.5,-103.2 309.5,-103.2 309.5,-81.2 247.5,-81.2"/>
<text text-anchor="start" x="250.378" y="-88.9" font-family="Helvetica,sans-Serif" font-size="11.00" fill="#000000">unknown[0]</text>
<polygon fill="none" stroke="#000000" points="10.5,-59.2 10.5,-81.2 247.5,-81.2 247.5,-59.2 10.5,-59.2"/>
<text text-anchor="start" x="30.5" y="-66.3" font-family="Helvetica,sans-Serif" font-size="11.00" fill="#000000">true_effect_size</text>
<polygon fill="none" stroke="#000000" points="247.5,-59.2 247.5,-81.2 309.5,-81.2 309.5,-59.2 247.5,-59.2"/>
<text text-anchor="start" x="250.378" y="-66.9" font-family="Helvetica,sans-Serif" font-size="11.00" fill="#000000">unknown[0]</text>
<polygon fill="#ffffff" stroke="transparent" points="10.5,-40.2 10.5,-59.2 120.5,-59.2 120.5,-40.2 10.5,-40.2"/>
<polygon fill="none" stroke="#000000" points="10.5,-40.2 10.5,-59.2 120.5,-59.2 120.5,-40.2 10.5,-40.2"/>
<text text-anchor="start" x="13.5" y="-46.3" font-family="Helvetica,sans-Serif" font-size="11.00" fill="#000000">&lt; 0</text>
<polygon fill="#ffffff" stroke="transparent" points="120.5,-40.2 120.5,-59.2 247.5,-59.2 247.5,-40.2 120.5,-40.2"/>
<polygon fill="none" stroke="#000000" points="120.5,-40.2 120.5,-59.2 247.5,-59.2 247.5,-40.2 120.5,-40.2"/>
<text text-anchor="start" x="212.1105" y="-46.3" font-family="Helvetica,sans-Serif" font-size="11.00" fill="#000000">0 rows</text>
<polygon fill="#ffffff" stroke="transparent" points="247.5,-40.2 247.5,-59.2 309.5,-59.2 309.5,-40.2 247.5,-40.2"/>
<polygon fill="none" stroke="#000000" points="247.5,-40.2 247.5,-59.2 309.5,-59.2 309.5,-40.2 247.5,-40.2"/>
<text text-anchor="start" x="290.9053" y="-46.3" font-family="Helvetica,sans-Serif" font-size="11.00" fill="#000000">0 &gt;</text>
<polygon fill="none" stroke="#000000" stroke-width="2" points="9,-39.2 9,-193.2 310,-193.2 310,-39.2 9,-39.2"/>
</a>
</g>
</g>
</g>
</svg>
