<?xml version="1.0" encoding="UTF-8" standalone="no"?>
<!DOCTYPE svg PUBLIC "-//W3C//DTD SVG 1.1//EN"
 "http://www.w3.org/Graphics/SVG/1.1/DTD/svg11.dtd">
<!-- Generated by graphviz version 2.40.1 (20161225.0304)
 -->
<!-- Title: oneDegreeRelationshipsDiagram Pages: 1 -->
<svg width="382pt" height="382pt"
 viewBox="0.00 0.00 382.00 382.20" xmlns="http://www.w3.org/2000/svg" xmlns:xlink="http://www.w3.org/1999/xlink">
<g id="graph0" class="graph" transform="scale(1 1) rotate(0) translate(4 378.2)">
<title>oneDegreeRelationshipsDiagram</title>
<polygon fill="#ffffff" stroke="transparent" points="-4,4 -4,-378.2 378,-378.2 378,4 -4,4"/>
<text text-anchor="middle" x="72.4936" y="-7.3" font-family="Helvetica,sans-Serif" font-size="11.00" fill="#000000">Generated by SchemaSpy</text>
<!-- database_meta_data -->
<g id="node1" class="node">
<title>database_meta_data</title>
<g id="a_node1"><a xlink:href="../../tables/database_meta_data.html" xlink:title="database_meta_data" target="_top">
<polygon fill="#ffffff" stroke="transparent" points="8,-38.2 8,-370.2 366,-370.2 366,-38.2 8,-38.2"/>
<polygon fill="#f5f5f5" stroke="transparent" points="10,-345.2 10,-368.2 364,-368.2 364,-345.2 10,-345.2"/>
<polygon fill="none" stroke="#000000" points="10,-345.2 10,-368.2 364,-368.2 364,-345.2 10,-345.2"/>
<text text-anchor="start" x="15" y="-353.8" font-family="Helvetica,sans-Serif" font-weight="bold" font-size="11.00" fill="#000000">database_meta_data</text>
<text text-anchor="start" x="329.0437" y="-353.3" font-family="Helvetica,sans-Serif" font-size="11.00" fill="#000000">[table]</text>
<polygon fill="none" stroke="#000000" points="10,-323.2 10,-345.2 255,-345.2 255,-323.2 10,-323.2"/>
<text text-anchor="start" x="30" y="-330.3" font-family="Helvetica,sans-Serif" font-size="11.00" fill="#000000">cdm_source_name</text>
<polygon fill="none" stroke="#000000" points="255,-323.2 255,-345.2 364,-345.2 364,-323.2 255,-323.2"/>
<text text-anchor="start" x="257.5344" y="-330.9" font-family="Helvetica,sans-Serif" font-size="11.00" fill="#000000">varchar[2147483647]</text>
<polygon fill="none" stroke="#000000" points="10,-301.2 10,-323.2 255,-323.2 255,-301.2 10,-301.2"/>
<text text-anchor="start" x="30" y="-308.3" font-family="Helvetica,sans-Serif" font-size="11.00" fill="#000000">cdm_source_abbreviation</text>
<polygon fill="none" stroke="#000000" points="255,-301.2 255,-323.2 364,-323.2 364,-301.2 255,-301.2"/>
<text text-anchor="start" x="257.5344" y="-308.9" font-family="Helvetica,sans-Serif" font-size="11.00" fill="#000000">varchar[2147483647]</text>
<polygon fill="none" stroke="#000000" points="10,-279.2 10,-301.2 255,-301.2 255,-279.2 10,-279.2"/>
<text text-anchor="start" x="30" y="-286.3" font-family="Helvetica,sans-Serif" font-size="11.00" fill="#000000">cdm_holder</text>
<polygon fill="none" stroke="#000000" points="255,-279.2 255,-301.2 364,-301.2 364,-279.2 255,-279.2"/>
<text text-anchor="start" x="257.5344" y="-286.9" font-family="Helvetica,sans-Serif" font-size="11.00" fill="#000000">varchar[2147483647]</text>
<polygon fill="none" stroke="#000000" points="10,-257.2 10,-279.2 255,-279.2 255,-257.2 10,-257.2"/>
<text text-anchor="start" x="30" y="-264.3" font-family="Helvetica,sans-Serif" font-size="11.00" fill="#000000">source_description</text>
<polygon fill="none" stroke="#000000" points="255,-257.2 255,-279.2 364,-279.2 364,-257.2 255,-257.2"/>
<text text-anchor="start" x="257.5344" y="-264.9" font-family="Helvetica,sans-Serif" font-size="11.00" fill="#000000">varchar[2147483647]</text>
<polygon fill="none" stroke="#000000" points="10,-235.2 10,-257.2 255,-257.2 255,-235.2 10,-235.2"/>
<text text-anchor="start" x="30" y="-242.3" font-family="Helvetica,sans-Serif" font-size="11.00" fill="#000000">source_documentation_reference</text>
<polygon fill="none" stroke="#000000" points="255,-235.2 255,-257.2 364,-257.2 364,-235.2 255,-235.2"/>
<text text-anchor="start" x="257.5344" y="-242.9" font-family="Helvetica,sans-Serif" font-size="11.00" fill="#000000">varchar[2147483647]</text>
<polygon fill="none" stroke="#000000" points="10,-213.2 10,-235.2 255,-235.2 255,-213.2 10,-213.2"/>
<text text-anchor="start" x="30" y="-220.3" font-family="Helvetica,sans-Serif" font-size="11.00" fill="#000000">cdm_etl_reference</text>
<polygon fill="none" stroke="#000000" points="255,-213.2 255,-235.2 364,-235.2 364,-213.2 255,-213.2"/>
<text text-anchor="start" x="257.5344" y="-220.9" font-family="Helvetica,sans-Serif" font-size="11.00" fill="#000000">varchar[2147483647]</text>
<polygon fill="none" stroke="#000000" points="10,-191.2 10,-213.2 255,-213.2 255,-191.2 10,-191.2"/>
<text text-anchor="start" x="30" y="-198.3" font-family="Helvetica,sans-Serif" font-size="11.00" fill="#000000">source_release_date</text>
<polygon fill="none" stroke="#000000" points="255,-191.2 255,-213.2 364,-213.2 364,-191.2 255,-191.2"/>
<text text-anchor="start" x="258" y="-198.9" font-family="Helvetica,sans-Serif" font-size="11.00" fill="#000000">date[13]</text>
<polygon fill="none" stroke="#000000" points="10,-169.2 10,-191.2 255,-191.2 255,-169.2 10,-169.2"/>
<text text-anchor="start" x="30" y="-176.3" font-family="Helvetica,sans-Serif" font-size="11.00" fill="#000000">cdm_release_date</text>
<polygon fill="none" stroke="#000000" points="255,-169.2 255,-191.2 364,-191.2 364,-169.2 255,-169.2"/>
<text text-anchor="start" x="258" y="-176.9" font-family="Helvetica,sans-Serif" font-size="11.00" fill="#000000">date[13]</text>
<polygon fill="none" stroke="#000000" points="10,-147.2 10,-169.2 255,-169.2 255,-147.2 10,-147.2"/>
<text text-anchor="start" x="30" y="-154.3" font-family="Helvetica,sans-Serif" font-size="11.00" fill="#000000">cdm_version</text>
<polygon fill="none" stroke="#000000" points="255,-147.2 255,-169.2 364,-169.2 364,-147.2 255,-147.2"/>
<text text-anchor="start" x="257.5344" y="-154.9" font-family="Helvetica,sans-Serif" font-size="11.00" fill="#000000">varchar[2147483647]</text>
<polygon fill="none" stroke="#000000" points="10,-125.2 10,-147.2 255,-147.2 255,-125.2 10,-125.2"/>
<text text-anchor="start" x="30" y="-132.3" font-family="Helvetica,sans-Serif" font-size="11.00" fill="#000000">cdm_version_concept_id</text>
<polygon fill="none" stroke="#000000" points="255,-125.2 255,-147.2 364,-147.2 364,-125.2 255,-125.2"/>
<text text-anchor="start" x="258" y="-132.9" font-family="Helvetica,sans-Serif" font-size="11.00" fill="#000000">int4[10]</text>
<polygon fill="none" stroke="#000000" points="10,-103.2 10,-125.2 255,-125.2 255,-103.2 10,-103.2"/>
<text text-anchor="start" x="30" y="-110.3" font-family="Helvetica,sans-Serif" font-size="11.00" fill="#000000">vocabulary_version</text>
<polygon fill="none" stroke="#000000" points="255,-103.2 255,-125.2 364,-125.2 364,-103.2 255,-103.2"/>
<text text-anchor="start" x="257.5344" y="-110.9" font-family="Helvetica,sans-Serif" font-size="11.00" fill="#000000">varchar[2147483647]</text>
<polygon fill="none" stroke="#000000" points="10,-81.2 10,-103.2 255,-103.2 255,-81.2 10,-81.2"/>
<image xlink:href="../../images/primaryKeys.png" width="11px" height="12px" preserveAspectRatio="xMinYMin meet" x="15" y="-98.2"/>
<text text-anchor="start" x="30" y="-88.3" font-family="Helvetica,sans-Serif" font-size="11.00" fill="#000000">database_id</text>
<polygon fill="none" stroke="#000000" points="255,-81.2 255,-103.2 364,-103.2 364,-81.2 255,-81.2"/>
<text text-anchor="start" x="257.5344" y="-88.9" font-family="Helvetica,sans-Serif" font-size="11.00" fill="#000000">varchar[2147483647]</text>
<polygon fill="none" stroke="#000000" points="10,-59.2 10,-81.2 255,-81.2 255,-59.2 10,-59.2"/>
<text text-anchor="start" x="30" y="-66.3" font-family="Helvetica,sans-Serif" font-size="11.00" fill="#000000">max_obs_period_end_date</text>
<polygon fill="none" stroke="#000000" points="255,-59.2 255,-81.2 364,-81.2 364,-59.2 255,-59.2"/>
<text text-anchor="start" x="258" y="-66.9" font-family="Helvetica,sans-Serif" font-size="11.00" fill="#000000">date[13]</text>
<polygon fill="#ffffff" stroke="transparent" points="10,-40.2 10,-59.2 137,-59.2 137,-40.2 10,-40.2"/>
<polygon fill="none" stroke="#000000" points="10,-40.2 10,-59.2 137,-59.2 137,-40.2 10,-40.2"/>
<text text-anchor="start" x="13" y="-46.3" font-family="Helvetica,sans-Serif" font-size="11.00" fill="#000000">&lt; 0</text>
<polygon fill="#ffffff" stroke="transparent" points="137,-40.2 137,-59.2 255,-59.2 255,-40.2 137,-40.2"/>
<polygon fill="none" stroke="#000000" points="137,-40.2 137,-59.2 255,-59.2 255,-40.2 137,-40.2"/>
<text text-anchor="start" x="245.8862" y="-46.3" font-family="Helvetica,sans-Serif" font-size="11.00" fill="#000000"> &#160;</text>
<polygon fill="#ffffff" stroke="transparent" points="255,-40.2 255,-59.2 364,-59.2 364,-40.2 255,-40.2"/>
<polygon fill="none" stroke="#000000" points="255,-40.2 255,-59.2 364,-59.2 364,-40.2 255,-40.2"/>
<text text-anchor="start" x="345.4053" y="-46.3" font-family="Helvetica,sans-Serif" font-size="11.00" fill="#000000">0 &gt;</text>
<polygon fill="none" stroke="#000000" stroke-width="2" points="9,-39.2 9,-369.2 365,-369.2 365,-39.2 9,-39.2"/>
</a>
</g>
</g>
</g>
</svg>
