<?xml version="1.0" encoding="UTF-8" standalone="no"?>
<!DOCTYPE svg PUBLIC "-//W3C//DTD SVG 1.1//EN"
 "http://www.w3.org/Graphics/SVG/1.1/DTD/svg11.dtd">
<!-- Generated by graphviz version 2.40.1 (20161225.0304)
 -->
<!-- Title: oneDegreeRelationshipsDiagram Pages: 1 -->
<svg width="321pt" height="404pt"
 viewBox="0.00 0.00 321.00 404.20" xmlns="http://www.w3.org/2000/svg" xmlns:xlink="http://www.w3.org/1999/xlink">
<g id="graph0" class="graph" transform="scale(1 1) rotate(0) translate(4 400.2)">
<title>oneDegreeRelationshipsDiagram</title>
<polygon fill="#ffffff" stroke="transparent" points="-4,4 -4,-400.2 317,-400.2 317,4 -4,4"/>
<text text-anchor="middle" x="72.4936" y="-7.3" font-family="Helvetica,sans-Serif" font-size="11.00" fill="#000000">Generated by SchemaSpy</text>
<!-- es_cm_diagnostics_summary -->
<g id="node1" class="node">
<title>es_cm_diagnostics_summary</title>
<g id="a_node1"><a xlink:href="../../tables/es_cm_diagnostics_summary.html" xlink:title="es_cm_diagnostics_summary" target="_top">
<polygon fill="#ffffff" stroke="transparent" points="8,-38.2 8,-392.2 305,-392.2 305,-38.2 8,-38.2"/>
<polygon fill="#f5f5f5" stroke="transparent" points="10.5,-367.2 10.5,-390.2 303.5,-390.2 303.5,-367.2 10.5,-367.2"/>
<polygon fill="none" stroke="#000000" points="10.5,-367.2 10.5,-390.2 303.5,-390.2 303.5,-367.2 10.5,-367.2"/>
<text text-anchor="start" x="15.5" y="-375.8" font-family="Helvetica,sans-Serif" font-weight="bold" font-size="11.00" fill="#000000">es_cm_diagnostics_summary</text>
<text text-anchor="start" x="268.5437" y="-375.3" font-family="Helvetica,sans-Serif" font-size="11.00" fill="#000000">[table]</text>
<polygon fill="none" stroke="#000000" points="10.5,-345.2 10.5,-367.2 241.5,-367.2 241.5,-345.2 10.5,-345.2"/>
<text text-anchor="start" x="30.5" y="-352.3" font-family="Helvetica,sans-Serif" font-size="11.00" fill="#000000">analysis_id</text>
<polygon fill="none" stroke="#000000" points="241.5,-345.2 241.5,-367.2 303.5,-367.2 303.5,-345.2 241.5,-345.2"/>
<text text-anchor="start" x="244.378" y="-352.9" font-family="Helvetica,sans-Serif" font-size="11.00" fill="#000000">unknown[0]</text>
<polygon fill="none" stroke="#000000" points="10.5,-323.2 10.5,-345.2 241.5,-345.2 241.5,-323.2 10.5,-323.2"/>
<text text-anchor="start" x="30.5" y="-330.3" font-family="Helvetica,sans-Serif" font-size="11.00" fill="#000000">comparator_id</text>
<polygon fill="none" stroke="#000000" points="241.5,-323.2 241.5,-345.2 303.5,-345.2 303.5,-323.2 241.5,-323.2"/>
<text text-anchor="start" x="244.378" y="-330.9" font-family="Helvetica,sans-Serif" font-size="11.00" fill="#000000">unknown[0]</text>
<polygon fill="none" stroke="#000000" points="10.5,-301.2 10.5,-323.2 241.5,-323.2 241.5,-301.2 10.5,-301.2"/>
<text text-anchor="start" x="30.5" y="-308.3" font-family="Helvetica,sans-Serif" font-size="11.00" fill="#000000">ease</text>
<polygon fill="none" stroke="#000000" points="241.5,-301.2 241.5,-323.2 303.5,-323.2 303.5,-301.2 241.5,-301.2"/>
<text text-anchor="start" x="244.378" y="-308.9" font-family="Helvetica,sans-Serif" font-size="11.00" fill="#000000">unknown[0]</text>
<polygon fill="none" stroke="#000000" points="10.5,-279.2 10.5,-301.2 241.5,-301.2 241.5,-279.2 10.5,-279.2"/>
<text text-anchor="start" x="30.5" y="-286.3" font-family="Helvetica,sans-Serif" font-size="11.00" fill="#000000">ease_diagnostic</text>
<polygon fill="none" stroke="#000000" points="241.5,-279.2 241.5,-301.2 303.5,-301.2 303.5,-279.2 241.5,-279.2"/>
<text text-anchor="start" x="244.378" y="-286.9" font-family="Helvetica,sans-Serif" font-size="11.00" fill="#000000">unknown[0]</text>
<polygon fill="none" stroke="#000000" points="10.5,-257.2 10.5,-279.2 241.5,-279.2 241.5,-257.2 10.5,-257.2"/>
<text text-anchor="start" x="30.5" y="-264.3" font-family="Helvetica,sans-Serif" font-size="11.00" fill="#000000">evidence_synthesis_analysis_id</text>
<polygon fill="none" stroke="#000000" points="241.5,-257.2 241.5,-279.2 303.5,-279.2 303.5,-257.2 241.5,-257.2"/>
<text text-anchor="start" x="244.378" y="-264.9" font-family="Helvetica,sans-Serif" font-size="11.00" fill="#000000">unknown[0]</text>
<polygon fill="none" stroke="#000000" points="10.5,-235.2 10.5,-257.2 241.5,-257.2 241.5,-235.2 10.5,-235.2"/>
<text text-anchor="start" x="30.5" y="-242.3" font-family="Helvetica,sans-Serif" font-size="11.00" fill="#000000">i_2</text>
<polygon fill="none" stroke="#000000" points="241.5,-235.2 241.5,-257.2 303.5,-257.2 303.5,-235.2 241.5,-235.2"/>
<text text-anchor="start" x="244.378" y="-242.9" font-family="Helvetica,sans-Serif" font-size="11.00" fill="#000000">unknown[0]</text>
<polygon fill="none" stroke="#000000" points="10.5,-213.2 10.5,-235.2 241.5,-235.2 241.5,-213.2 10.5,-213.2"/>
<text text-anchor="start" x="30.5" y="-220.3" font-family="Helvetica,sans-Serif" font-size="11.00" fill="#000000">i_2_diagnostic</text>
<polygon fill="none" stroke="#000000" points="241.5,-213.2 241.5,-235.2 303.5,-235.2 303.5,-213.2 241.5,-213.2"/>
<text text-anchor="start" x="244.378" y="-220.9" font-family="Helvetica,sans-Serif" font-size="11.00" fill="#000000">unknown[0]</text>
<polygon fill="none" stroke="#000000" points="10.5,-191.2 10.5,-213.2 241.5,-213.2 241.5,-191.2 10.5,-191.2"/>
<text text-anchor="start" x="30.5" y="-198.3" font-family="Helvetica,sans-Serif" font-size="11.00" fill="#000000">mdrr</text>
<polygon fill="none" stroke="#000000" points="241.5,-191.2 241.5,-213.2 303.5,-213.2 303.5,-191.2 241.5,-191.2"/>
<text text-anchor="start" x="244.378" y="-198.9" font-family="Helvetica,sans-Serif" font-size="11.00" fill="#000000">unknown[0]</text>
<polygon fill="none" stroke="#000000" points="10.5,-169.2 10.5,-191.2 241.5,-191.2 241.5,-169.2 10.5,-169.2"/>
<text text-anchor="start" x="30.5" y="-176.3" font-family="Helvetica,sans-Serif" font-size="11.00" fill="#000000">mdrr_diagnostic</text>
<polygon fill="none" stroke="#000000" points="241.5,-169.2 241.5,-191.2 303.5,-191.2 303.5,-169.2 241.5,-169.2"/>
<text text-anchor="start" x="244.378" y="-176.9" font-family="Helvetica,sans-Serif" font-size="11.00" fill="#000000">unknown[0]</text>
<polygon fill="none" stroke="#000000" points="10.5,-147.2 10.5,-169.2 241.5,-169.2 241.5,-147.2 10.5,-147.2"/>
<text text-anchor="start" x="30.5" y="-154.3" font-family="Helvetica,sans-Serif" font-size="11.00" fill="#000000">outcome_id</text>
<polygon fill="none" stroke="#000000" points="241.5,-147.2 241.5,-169.2 303.5,-169.2 303.5,-147.2 241.5,-147.2"/>
<text text-anchor="start" x="244.378" y="-154.9" font-family="Helvetica,sans-Serif" font-size="11.00" fill="#000000">unknown[0]</text>
<polygon fill="none" stroke="#000000" points="10.5,-125.2 10.5,-147.2 241.5,-147.2 241.5,-125.2 10.5,-125.2"/>
<text text-anchor="start" x="30.5" y="-132.3" font-family="Helvetica,sans-Serif" font-size="11.00" fill="#000000">target_id</text>
<polygon fill="none" stroke="#000000" points="241.5,-125.2 241.5,-147.2 303.5,-147.2 303.5,-125.2 241.5,-125.2"/>
<text text-anchor="start" x="244.378" y="-132.9" font-family="Helvetica,sans-Serif" font-size="11.00" fill="#000000">unknown[0]</text>
<polygon fill="none" stroke="#000000" points="10.5,-103.2 10.5,-125.2 241.5,-125.2 241.5,-103.2 10.5,-103.2"/>
<text text-anchor="start" x="30.5" y="-110.3" font-family="Helvetica,sans-Serif" font-size="11.00" fill="#000000">tau</text>
<polygon fill="none" stroke="#000000" points="241.5,-103.2 241.5,-125.2 303.5,-125.2 303.5,-103.2 241.5,-103.2"/>
<text text-anchor="start" x="244.378" y="-110.9" font-family="Helvetica,sans-Serif" font-size="11.00" fill="#000000">unknown[0]</text>
<polygon fill="none" stroke="#000000" points="10.5,-81.2 10.5,-103.2 241.5,-103.2 241.5,-81.2 10.5,-81.2"/>
<text text-anchor="start" x="30.5" y="-88.3" font-family="Helvetica,sans-Serif" font-size="11.00" fill="#000000">tau_diagnostic</text>
<polygon fill="none" stroke="#000000" points="241.5,-81.2 241.5,-103.2 303.5,-103.2 303.5,-81.2 241.5,-81.2"/>
<text text-anchor="start" x="244.378" y="-88.9" font-family="Helvetica,sans-Serif" font-size="11.00" fill="#000000">unknown[0]</text>
<polygon fill="none" stroke="#000000" points="10.5,-59.2 10.5,-81.2 241.5,-81.2 241.5,-59.2 10.5,-59.2"/>
<text text-anchor="start" x="30.5" y="-66.3" font-family="Helvetica,sans-Serif" font-size="11.00" fill="#000000">unblind</text>
<polygon fill="none" stroke="#000000" points="241.5,-59.2 241.5,-81.2 303.5,-81.2 303.5,-59.2 241.5,-59.2"/>
<text text-anchor="start" x="244.378" y="-66.9" font-family="Helvetica,sans-Serif" font-size="11.00" fill="#000000">unknown[0]</text>
<polygon fill="#ffffff" stroke="transparent" points="10.5,-40.2 10.5,-59.2 117.5,-59.2 117.5,-40.2 10.5,-40.2"/>
<polygon fill="none" stroke="#000000" points="10.5,-40.2 10.5,-59.2 117.5,-59.2 117.5,-40.2 10.5,-40.2"/>
<text text-anchor="start" x="13.5" y="-46.3" font-family="Helvetica,sans-Serif" font-size="11.00" fill="#000000">&lt; 0</text>
<polygon fill="#ffffff" stroke="transparent" points="117.5,-40.2 117.5,-59.2 241.5,-59.2 241.5,-40.2 117.5,-40.2"/>
<polygon fill="none" stroke="#000000" points="117.5,-40.2 117.5,-59.2 241.5,-59.2 241.5,-40.2 117.5,-40.2"/>
<text text-anchor="start" x="206.1105" y="-46.3" font-family="Helvetica,sans-Serif" font-size="11.00" fill="#000000">0 rows</text>
<polygon fill="#ffffff" stroke="transparent" points="241.5,-40.2 241.5,-59.2 303.5,-59.2 303.5,-40.2 241.5,-40.2"/>
<polygon fill="none" stroke="#000000" points="241.5,-40.2 241.5,-59.2 303.5,-59.2 303.5,-40.2 241.5,-40.2"/>
<text text-anchor="start" x="284.9053" y="-46.3" font-family="Helvetica,sans-Serif" font-size="11.00" fill="#000000">0 &gt;</text>
<polygon fill="none" stroke="#000000" stroke-width="2" points="9,-39.2 9,-391.2 304,-391.2 304,-39.2 9,-39.2"/>
</a>
</g>
</g>
</g>
</svg>
