<?xml version="1.0" encoding="UTF-8" standalone="no"?>
<!DOCTYPE svg PUBLIC "-//W3C//DTD SVG 1.1//EN"
 "http://www.w3.org/Graphics/SVG/1.1/DTD/svg11.dtd">
<!-- Generated by graphviz version 2.40.1 (20161225.0304)
 -->
<!-- Title: twoDegreesRelationshipsDiagram Pages: 1 -->
<svg width="486pt" height="327pt"
 viewBox="0.00 0.00 486.00 327.20" xmlns="http://www.w3.org/2000/svg" xmlns:xlink="http://www.w3.org/1999/xlink">
<g id="graph0" class="graph" transform="scale(1 1) rotate(0) translate(4 323.2)">
<title>twoDegreesRelationshipsDiagram</title>
<polygon fill="#ffffff" stroke="transparent" points="-4,4 -4,-323.2 482,-323.2 482,4 -4,4"/>
<text text-anchor="middle" x="72.4936" y="-7.3" font-family="Helvetica,sans-Serif" font-size="11.00" fill="#000000">Generated by SchemaSpy</text>
<!-- plp_diagnostics -->
<g id="node1" class="node">
<title>plp_diagnostics</title>
<g id="a_node1"><a xlink:href="../../tables/plp_diagnostics.html" xlink:title="plp_diagnostics" target="_top">
<polygon fill="#ffffff" stroke="transparent" points="310,-126.2 310,-253.2 470,-253.2 470,-126.2 310,-126.2"/>
<polygon fill="#f5f5f5" stroke="transparent" points="310,-229.7 310,-252.7 470,-252.7 470,-229.7 310,-229.7"/>
<polygon fill="none" stroke="#000000" points="310,-229.7 310,-252.7 470,-252.7 470,-229.7 310,-229.7"/>
<text text-anchor="start" x="315" y="-238.3" font-family="Helvetica,sans-Serif" font-weight="bold" font-size="11.00" fill="#000000">plp_diagnostics</text>
<text text-anchor="start" x="435.0437" y="-237.8" font-family="Helvetica,sans-Serif" font-size="11.00" fill="#000000">[table]</text>
<polygon fill="none" stroke="#000000" points="310,-207.7 310,-229.7 470,-229.7 470,-207.7 310,-207.7"/>
<image xlink:href="../../images/foreignKeys.png" width="11px" height="12px" preserveAspectRatio="xMinYMin meet" x="315" y="-224.7"/>
<text text-anchor="start" x="330" y="-214.8" font-family="Helvetica,sans-Serif" font-size="11.00" fill="#000000">database_id</text>
<polygon fill="none" stroke="#000000" points="310,-185.7 310,-207.7 470,-207.7 470,-185.7 310,-185.7"/>
<image xlink:href="../../images/foreignKeys.png" width="11px" height="12px" preserveAspectRatio="xMinYMin meet" x="315" y="-202.7"/>
<text text-anchor="start" x="330" y="-192.8" font-family="Helvetica,sans-Serif" font-size="11.00" fill="#000000">diagnostic_id</text>
<polygon fill="none" stroke="#000000" points="310,-163.7 310,-185.7 470,-185.7 470,-163.7 310,-163.7"/>
<image xlink:href="../../images/foreignKeys.png" width="11px" height="12px" preserveAspectRatio="xMinYMin meet" x="315" y="-180.7"/>
<text text-anchor="start" x="330" y="-170.8" font-family="Helvetica,sans-Serif" font-size="11.00" fill="#000000">model_design_id</text>
<polygon fill="none" stroke="#000000" points="310,-144.7 310,-163.7 470,-163.7 470,-144.7 310,-144.7"/>
<text text-anchor="start" x="313" y="-150.8" font-family="Helvetica,sans-Serif" font-size="11.00" fill="#000000">...</text>
<polygon fill="#ffffff" stroke="transparent" points="310,-125.7 310,-144.7 375,-144.7 375,-125.7 310,-125.7"/>
<polygon fill="none" stroke="#000000" points="310,-125.7 310,-144.7 375,-144.7 375,-125.7 310,-125.7"/>
<text text-anchor="start" x="313" y="-131.8" font-family="Helvetica,sans-Serif" font-size="11.00" fill="#000000">&lt; 3</text>
<polygon fill="#ffffff" stroke="transparent" points="375,-125.7 375,-144.7 435,-144.7 435,-125.7 375,-125.7"/>
<polygon fill="none" stroke="#000000" points="375,-125.7 375,-144.7 435,-144.7 435,-125.7 375,-125.7"/>
<text text-anchor="start" x="399.6105" y="-131.8" font-family="Helvetica,sans-Serif" font-size="11.00" fill="#000000">0 rows</text>
<polygon fill="#ffffff" stroke="transparent" points="435,-125.7 435,-144.7 470,-144.7 470,-125.7 435,-125.7"/>
<polygon fill="none" stroke="#000000" points="435,-125.7 435,-144.7 470,-144.7 470,-125.7 435,-125.7"/>
<text text-anchor="start" x="460.8862" y="-131.8" font-family="Helvetica,sans-Serif" font-size="11.00" fill="#000000"> &#160;</text>
</a>
</g>
</g>
<!-- database_meta_data -->
<g id="node2" class="node">
<title>database_meta_data</title>
<g id="a_node2"><a xlink:href="../../tables/database_meta_data.html" xlink:title="database_meta_data" target="_top">
<polygon fill="#ffffff" stroke="transparent" points="45.5,-254.2 45.5,-315.2 223.5,-315.2 223.5,-254.2 45.5,-254.2"/>
<polygon fill="#f5f5f5" stroke="transparent" points="45.5,-291.7 45.5,-314.7 223.5,-314.7 223.5,-291.7 45.5,-291.7"/>
<polygon fill="none" stroke="#000000" points="45.5,-291.7 45.5,-314.7 223.5,-314.7 223.5,-291.7 45.5,-291.7"/>
<text text-anchor="start" x="50.5" y="-300.3" font-family="Helvetica,sans-Serif" font-weight="bold" font-size="11.00" fill="#000000">database_meta_data</text>
<text text-anchor="start" x="189.0219" y="-299.8" font-family="Helvetica,sans-Serif" font-size="11.00" fill="#000000">[table]</text>
<polygon fill="none" stroke="#000000" points="45.5,-272.7 45.5,-291.7 223.5,-291.7 223.5,-272.7 45.5,-272.7"/>
<text text-anchor="start" x="48.5" y="-278.8" font-family="Helvetica,sans-Serif" font-size="11.00" fill="#000000">...</text>
<polygon fill="#ffffff" stroke="transparent" points="45.5,-253.7 45.5,-272.7 112.5,-272.7 112.5,-253.7 45.5,-253.7"/>
<polygon fill="none" stroke="#000000" points="45.5,-253.7 45.5,-272.7 112.5,-272.7 112.5,-253.7 45.5,-253.7"/>
<text text-anchor="start" x="48.5" y="-259.8" font-family="Helvetica,sans-Serif" font-size="11.00" fill="#000000">&lt; 1</text>
<polygon fill="#ffffff" stroke="transparent" points="112.5,-253.7 112.5,-272.7 173.5,-272.7 173.5,-253.7 112.5,-253.7"/>
<polygon fill="none" stroke="#000000" points="112.5,-253.7 112.5,-272.7 173.5,-272.7 173.5,-253.7 112.5,-253.7"/>
<text text-anchor="start" x="138.1105" y="-259.8" font-family="Helvetica,sans-Serif" font-size="11.00" fill="#000000">0 rows</text>
<polygon fill="#ffffff" stroke="transparent" points="173.5,-253.7 173.5,-272.7 223.5,-272.7 223.5,-253.7 173.5,-253.7"/>
<polygon fill="none" stroke="#000000" points="173.5,-253.7 173.5,-272.7 223.5,-272.7 223.5,-253.7 173.5,-253.7"/>
<text text-anchor="start" x="198.7904" y="-259.8" font-family="Helvetica,sans-Serif" font-size="11.00" fill="#000000">17 &gt;</text>
</a>
</g>
</g>
<!-- plp_diagnostics&#45;&gt;database_meta_data -->
<g id="edge1" class="edge">
<title>plp_diagnostics:w&#45;&gt;database_meta_data:e</title>
<path fill="none" stroke="#000000" d="M295.4134,-221.0927C263.6887,-232.6005 265.4868,-281.7 223.5,-281.7"/>
<polygon fill="#000000" stroke="#000000" points="302.1055,-219.995 310.5828,-222.2525 306.0528,-219.3475 310,-218.7 310,-218.7 310,-218.7 306.0528,-219.3475 309.4172,-215.1475 302.1055,-219.995 302.1055,-219.995"/>
<ellipse fill="none" stroke="#000000" cx="298.9477" cy="-220.513" rx="3.2" ry="3.2"/>
</g>
<!-- plp_diagnostic_summary -->
<g id="node3" class="node">
<title>plp_diagnostic_summary</title>
<g id="a_node3"><a xlink:href="../../tables/plp_diagnostic_summary.html" xlink:title="plp_diagnostic_summary" target="_top">
<polygon fill="#ffffff" stroke="transparent" points="8,-120.7 8,-232.7 261,-232.7 261,-120.7 8,-120.7"/>
<polygon fill="#f5f5f5" stroke="transparent" points="10.5,-207.7 10.5,-230.7 259.5,-230.7 259.5,-207.7 10.5,-207.7"/>
<polygon fill="none" stroke="#000000" points="10.5,-207.7 10.5,-230.7 259.5,-230.7 259.5,-207.7 10.5,-207.7"/>
<text text-anchor="start" x="15.5" y="-216.3" font-family="Helvetica,sans-Serif" font-weight="bold" font-size="11.00" fill="#000000">plp_diagnostic_summary</text>
<text text-anchor="start" x="224.5437" y="-215.8" font-family="Helvetica,sans-Serif" font-size="11.00" fill="#000000">[table]</text>
<polygon fill="none" stroke="#000000" points="10.5,-185.7 10.5,-207.7 197.5,-207.7 197.5,-185.7 10.5,-185.7"/>
<image xlink:href="../../images/primaryKeys.png" width="11px" height="12px" preserveAspectRatio="xMinYMin meet" x="15.5" y="-202.7"/>
<text text-anchor="start" x="30.5" y="-192.8" font-family="Helvetica,sans-Serif" font-size="11.00" fill="#000000">diagnostic_id</text>
<polygon fill="none" stroke="#000000" points="197.5,-185.7 197.5,-207.7 259.5,-207.7 259.5,-185.7 197.5,-185.7"/>
<text text-anchor="start" x="200.378" y="-193.4" font-family="Helvetica,sans-Serif" font-size="11.00" fill="#000000">unknown[0]</text>
<polygon fill="none" stroke="#000000" points="10.5,-163.7 10.5,-185.7 197.5,-185.7 197.5,-163.7 10.5,-163.7"/>
<text text-anchor="start" x="30.5" y="-170.8" font-family="Helvetica,sans-Serif" font-size="11.00" fill="#000000">probast_id</text>
<polygon fill="none" stroke="#000000" points="197.5,-163.7 197.5,-185.7 259.5,-185.7 259.5,-163.7 197.5,-163.7"/>
<text text-anchor="start" x="200.378" y="-171.4" font-family="Helvetica,sans-Serif" font-size="11.00" fill="#000000">unknown[0]</text>
<polygon fill="none" stroke="#000000" points="10.5,-141.7 10.5,-163.7 197.5,-163.7 197.5,-141.7 10.5,-141.7"/>
<text text-anchor="start" x="30.5" y="-148.8" font-family="Helvetica,sans-Serif" font-size="11.00" fill="#000000">result_value</text>
<polygon fill="none" stroke="#000000" points="197.5,-141.7 197.5,-163.7 259.5,-163.7 259.5,-141.7 197.5,-141.7"/>
<text text-anchor="start" x="200.378" y="-149.4" font-family="Helvetica,sans-Serif" font-size="11.00" fill="#000000">unknown[0]</text>
<polygon fill="#ffffff" stroke="transparent" points="10.5,-122.7 10.5,-141.7 95.5,-141.7 95.5,-122.7 10.5,-122.7"/>
<polygon fill="none" stroke="#000000" points="10.5,-122.7 10.5,-141.7 95.5,-141.7 95.5,-122.7 10.5,-122.7"/>
<text text-anchor="start" x="13.5" y="-128.8" font-family="Helvetica,sans-Serif" font-size="11.00" fill="#000000">&lt; 0</text>
<polygon fill="#ffffff" stroke="transparent" points="95.5,-122.7 95.5,-141.7 197.5,-141.7 197.5,-122.7 95.5,-122.7"/>
<polygon fill="none" stroke="#000000" points="95.5,-122.7 95.5,-141.7 197.5,-141.7 197.5,-122.7 95.5,-122.7"/>
<text text-anchor="start" x="162.1105" y="-128.8" font-family="Helvetica,sans-Serif" font-size="11.00" fill="#000000">0 rows</text>
<polygon fill="#ffffff" stroke="transparent" points="197.5,-122.7 197.5,-141.7 259.5,-141.7 259.5,-122.7 197.5,-122.7"/>
<polygon fill="none" stroke="#000000" points="197.5,-122.7 197.5,-141.7 259.5,-141.7 259.5,-122.7 197.5,-122.7"/>
<text text-anchor="start" x="240.9053" y="-128.8" font-family="Helvetica,sans-Serif" font-size="11.00" fill="#000000">1 &gt;</text>
<polygon fill="none" stroke="#000000" stroke-width="2" points="9,-121.7 9,-231.7 260,-231.7 260,-121.7 9,-121.7"/>
</a>
</g>
</g>
<!-- plp_diagnostics&#45;&gt;plp_diagnostic_summary -->
<g id="edge2" class="edge">
<title>plp_diagnostics:w&#45;&gt;plp_diagnostic_summary:e</title>
<path fill="none" stroke="#000000" d="M295.4203,-196.7C283.5435,-196.7 276.158,-196.7 259.5,-196.7"/>
<polygon fill="#000000" stroke="#000000" points="302,-196.7001 310,-200.3 306,-196.7 310,-196.7 310,-196.7 310,-196.7 306,-196.7 310,-193.1 302,-196.7001 302,-196.7001"/>
<ellipse fill="none" stroke="#000000" cx="298.8" cy="-196.7001" rx="3.2" ry="3.2"/>
</g>
<!-- plp_model_designs -->
<g id="node4" class="node">
<title>plp_model_designs</title>
<g id="a_node4"><a xlink:href="../../tables/plp_model_designs.html" xlink:title="plp_model_designs" target="_top">
<polygon fill="#ffffff" stroke="transparent" points="51.5,-38.2 51.5,-99.2 217.5,-99.2 217.5,-38.2 51.5,-38.2"/>
<polygon fill="#f5f5f5" stroke="transparent" points="51.5,-75.7 51.5,-98.7 217.5,-98.7 217.5,-75.7 51.5,-75.7"/>
<polygon fill="none" stroke="#000000" points="51.5,-75.7 51.5,-98.7 217.5,-98.7 217.5,-75.7 51.5,-75.7"/>
<text text-anchor="start" x="56.5" y="-84.3" font-family="Helvetica,sans-Serif" font-weight="bold" font-size="11.00" fill="#000000">plp_model_designs</text>
<text text-anchor="start" x="183.0219" y="-83.8" font-family="Helvetica,sans-Serif" font-size="11.00" fill="#000000">[table]</text>
<polygon fill="none" stroke="#000000" points="51.5,-56.7 51.5,-75.7 217.5,-75.7 217.5,-56.7 51.5,-56.7"/>
<text text-anchor="start" x="54.5" y="-62.8" font-family="Helvetica,sans-Serif" font-size="11.00" fill="#000000">...</text>
<polygon fill="#ffffff" stroke="transparent" points="51.5,-37.7 51.5,-56.7 115.5,-56.7 115.5,-37.7 51.5,-37.7"/>
<polygon fill="none" stroke="#000000" points="51.5,-37.7 51.5,-56.7 115.5,-56.7 115.5,-37.7 51.5,-37.7"/>
<text text-anchor="start" x="54.5" y="-43.8" font-family="Helvetica,sans-Serif" font-size="11.00" fill="#000000">&lt; 2</text>
<polygon fill="#ffffff" stroke="transparent" points="115.5,-37.7 115.5,-56.7 174.5,-56.7 174.5,-37.7 115.5,-37.7"/>
<polygon fill="none" stroke="#000000" points="115.5,-37.7 115.5,-56.7 174.5,-56.7 174.5,-37.7 115.5,-37.7"/>
<text text-anchor="start" x="139.1105" y="-43.8" font-family="Helvetica,sans-Serif" font-size="11.00" fill="#000000">0 rows</text>
<polygon fill="#ffffff" stroke="transparent" points="174.5,-37.7 174.5,-56.7 217.5,-56.7 217.5,-37.7 174.5,-37.7"/>
<polygon fill="none" stroke="#000000" points="174.5,-37.7 174.5,-56.7 217.5,-56.7 217.5,-37.7 174.5,-37.7"/>
<text text-anchor="start" x="198.9053" y="-43.8" font-family="Helvetica,sans-Serif" font-size="11.00" fill="#000000">1 &gt;</text>
</a>
</g>
</g>
<!-- plp_diagnostics&#45;&gt;plp_model_designs -->
<g id="edge3" class="edge">
<title>plp_diagnostics:w&#45;&gt;plp_model_designs:e</title>
<path fill="none" stroke="#000000" d="M296.0028,-171.2768C280.3584,-161.3108 287.0881,-131.693 269,-110.7 249.1593,-87.6729 247.8957,-65.7 217.5,-65.7"/>
<polygon fill="#000000" stroke="#000000" points="302.229,-172.7995 309.1448,-178.1969 306.1145,-173.7497 310,-174.7 310,-174.7 310,-174.7 306.1145,-173.7497 310.8552,-171.2031 302.229,-172.7995 302.229,-172.7995"/>
<ellipse fill="none" stroke="#000000" cx="299.1206" cy="-172.0393" rx="3.2" ry="3.2"/>
</g>
</g>
</svg>
