<?xml version="1.0" encoding="UTF-8" standalone="no"?>
<!DOCTYPE svg PUBLIC "-//W3C//DTD SVG 1.1//EN"
 "http://www.w3.org/Graphics/SVG/1.1/DTD/svg11.dtd">
<!-- Generated by graphviz version 2.40.1 (20161225.0304)
 -->
<!-- Title: oneDegreeRelationshipsDiagram Pages: 1 -->
<svg width="308pt" height="140pt"
 viewBox="0.00 0.00 308.00 140.20" xmlns="http://www.w3.org/2000/svg" xmlns:xlink="http://www.w3.org/1999/xlink">
<g id="graph0" class="graph" transform="scale(1 1) rotate(0) translate(4 136.2)">
<title>oneDegreeRelationshipsDiagram</title>
<polygon fill="#ffffff" stroke="transparent" points="-4,4 -4,-136.2 304,-136.2 304,4 -4,4"/>
<text text-anchor="middle" x="72.4936" y="-7.3" font-family="Helvetica,sans-Serif" font-size="11.00" fill="#000000">Generated by SchemaSpy</text>
<!-- plp_tidy_covariates_settings -->
<g id="node1" class="node">
<title>plp_tidy_covariates_settings</title>
<g id="a_node1"><a xlink:href="../../tables/plp_tidy_covariates_settings.html" xlink:title="plp_tidy_covariates_settings" target="_top">
<polygon fill="#ffffff" stroke="transparent" points="8,-38.2 8,-128.2 292,-128.2 292,-38.2 8,-38.2"/>
<polygon fill="#f5f5f5" stroke="transparent" points="10,-103.2 10,-126.2 290,-126.2 290,-103.2 10,-103.2"/>
<polygon fill="none" stroke="#000000" points="10,-103.2 10,-126.2 290,-126.2 290,-103.2 10,-103.2"/>
<text text-anchor="start" x="15" y="-111.8" font-family="Helvetica,sans-Serif" font-weight="bold" font-size="11.00" fill="#000000">plp_tidy_covariates_settings</text>
<text text-anchor="start" x="255.0437" y="-111.3" font-family="Helvetica,sans-Serif" font-size="11.00" fill="#000000">[table]</text>
<polygon fill="none" stroke="#000000" points="10,-81.2 10,-103.2 228,-103.2 228,-81.2 10,-81.2"/>
<text text-anchor="start" x="30" y="-88.3" font-family="Helvetica,sans-Serif" font-size="11.00" fill="#000000">tidy_covariates_setting_id</text>
<polygon fill="none" stroke="#000000" points="228,-81.2 228,-103.2 290,-103.2 290,-81.2 228,-81.2"/>
<text text-anchor="start" x="230.878" y="-88.9" font-family="Helvetica,sans-Serif" font-size="11.00" fill="#000000">unknown[0]</text>
<polygon fill="none" stroke="#000000" points="10,-59.2 10,-81.2 228,-81.2 228,-59.2 10,-59.2"/>
<text text-anchor="start" x="30" y="-66.3" font-family="Helvetica,sans-Serif" font-size="11.00" fill="#000000">tidy_covariates_settings_json</text>
<polygon fill="none" stroke="#000000" points="228,-59.2 228,-81.2 290,-81.2 290,-59.2 228,-59.2"/>
<text text-anchor="start" x="230.878" y="-66.9" font-family="Helvetica,sans-Serif" font-size="11.00" fill="#000000">unknown[0]</text>
<polygon fill="#ffffff" stroke="transparent" points="10,-40.2 10,-59.2 110,-59.2 110,-40.2 10,-40.2"/>
<polygon fill="none" stroke="#000000" points="10,-40.2 10,-59.2 110,-59.2 110,-40.2 10,-40.2"/>
<text text-anchor="start" x="13" y="-46.3" font-family="Helvetica,sans-Serif" font-size="11.00" fill="#000000">&lt; 0</text>
<polygon fill="#ffffff" stroke="transparent" points="110,-40.2 110,-59.2 228,-59.2 228,-40.2 110,-40.2"/>
<polygon fill="none" stroke="#000000" points="110,-40.2 110,-59.2 228,-59.2 228,-40.2 110,-40.2"/>
<text text-anchor="start" x="192.6105" y="-46.3" font-family="Helvetica,sans-Serif" font-size="11.00" fill="#000000">0 rows</text>
<polygon fill="#ffffff" stroke="transparent" points="228,-40.2 228,-59.2 290,-59.2 290,-40.2 228,-40.2"/>
<polygon fill="none" stroke="#000000" points="228,-40.2 228,-59.2 290,-59.2 290,-40.2 228,-40.2"/>
<text text-anchor="start" x="271.4053" y="-46.3" font-family="Helvetica,sans-Serif" font-size="11.00" fill="#000000">0 &gt;</text>
<polygon fill="none" stroke="#000000" stroke-width="2" points="9,-39.2 9,-127.2 291,-127.2 291,-39.2 9,-39.2"/>
</a>
</g>
</g>
</g>
</svg>
