<?xml version="1.0" encoding="UTF-8" standalone="no"?>
<!DOCTYPE svg PUBLIC "-//W3C//DTD SVG 1.1//EN"
 "http://www.w3.org/Graphics/SVG/1.1/DTD/svg11.dtd">
<!-- Generated by graphviz version 2.40.1 (20161225.0304)
 -->
<!-- Title: oneDegreeRelationshipsDiagram Pages: 1 -->
<svg width="316pt" height="382pt"
 viewBox="0.00 0.00 316.00 382.20" xmlns="http://www.w3.org/2000/svg" xmlns:xlink="http://www.w3.org/1999/xlink">
<g id="graph0" class="graph" transform="scale(1 1) rotate(0) translate(4 378.2)">
<title>oneDegreeRelationshipsDiagram</title>
<polygon fill="#ffffff" stroke="transparent" points="-4,4 -4,-378.2 312,-378.2 312,4 -4,4"/>
<text text-anchor="middle" x="72.4936" y="-7.3" font-family="Helvetica,sans-Serif" font-size="11.00" fill="#000000">Generated by SchemaSpy</text>
<!-- plp_calibration_summary -->
<g id="node1" class="node">
<title>plp_calibration_summary</title>
<g id="a_node1"><a xlink:href="../../tables/plp_calibration_summary.html" xlink:title="plp_calibration_summary" target="_top">
<polygon fill="#ffffff" stroke="transparent" points="8,-38.2 8,-370.2 300,-370.2 300,-38.2 8,-38.2"/>
<polygon fill="#f5f5f5" stroke="transparent" points="10,-345.2 10,-368.2 298,-368.2 298,-345.2 10,-345.2"/>
<polygon fill="none" stroke="#000000" points="10,-345.2 10,-368.2 298,-368.2 298,-345.2 10,-345.2"/>
<text text-anchor="start" x="15" y="-353.8" font-family="Helvetica,sans-Serif" font-weight="bold" font-size="11.00" fill="#000000">plp_calibration_summary</text>
<text text-anchor="start" x="263.0437" y="-353.3" font-family="Helvetica,sans-Serif" font-size="11.00" fill="#000000">[table]</text>
<polygon fill="none" stroke="#000000" points="10,-323.2 10,-345.2 236,-345.2 236,-323.2 10,-323.2"/>
<text text-anchor="start" x="30" y="-330.3" font-family="Helvetica,sans-Serif" font-size="11.00" fill="#000000">average_predicted_probability</text>
<polygon fill="none" stroke="#000000" points="236,-323.2 236,-345.2 298,-345.2 298,-323.2 236,-323.2"/>
<text text-anchor="start" x="238.878" y="-330.9" font-family="Helvetica,sans-Serif" font-size="11.00" fill="#000000">unknown[0]</text>
<polygon fill="none" stroke="#000000" points="10,-301.2 10,-323.2 236,-323.2 236,-301.2 10,-301.2"/>
<text text-anchor="start" x="30" y="-308.3" font-family="Helvetica,sans-Serif" font-size="11.00" fill="#000000">evaluation</text>
<polygon fill="none" stroke="#000000" points="236,-301.2 236,-323.2 298,-323.2 298,-301.2 236,-301.2"/>
<text text-anchor="start" x="238.878" y="-308.9" font-family="Helvetica,sans-Serif" font-size="11.00" fill="#000000">unknown[0]</text>
<polygon fill="none" stroke="#000000" points="10,-279.2 10,-301.2 236,-301.2 236,-279.2 10,-279.2"/>
<text text-anchor="start" x="30" y="-286.3" font-family="Helvetica,sans-Serif" font-size="11.00" fill="#000000">max_predicted_probability</text>
<polygon fill="none" stroke="#000000" points="236,-279.2 236,-301.2 298,-301.2 298,-279.2 236,-279.2"/>
<text text-anchor="start" x="238.878" y="-286.9" font-family="Helvetica,sans-Serif" font-size="11.00" fill="#000000">unknown[0]</text>
<polygon fill="none" stroke="#000000" points="10,-257.2 10,-279.2 236,-279.2 236,-257.2 10,-257.2"/>
<text text-anchor="start" x="30" y="-264.3" font-family="Helvetica,sans-Serif" font-size="11.00" fill="#000000">median_predicted_probability</text>
<polygon fill="none" stroke="#000000" points="236,-257.2 236,-279.2 298,-279.2 298,-257.2 236,-257.2"/>
<text text-anchor="start" x="238.878" y="-264.9" font-family="Helvetica,sans-Serif" font-size="11.00" fill="#000000">unknown[0]</text>
<polygon fill="none" stroke="#000000" points="10,-235.2 10,-257.2 236,-257.2 236,-235.2 10,-235.2"/>
<text text-anchor="start" x="30" y="-242.3" font-family="Helvetica,sans-Serif" font-size="11.00" fill="#000000">min_predicted_probability</text>
<polygon fill="none" stroke="#000000" points="236,-235.2 236,-257.2 298,-257.2 298,-235.2 236,-235.2"/>
<text text-anchor="start" x="238.878" y="-242.9" font-family="Helvetica,sans-Serif" font-size="11.00" fill="#000000">unknown[0]</text>
<polygon fill="none" stroke="#000000" points="10,-213.2 10,-235.2 236,-235.2 236,-213.2 10,-213.2"/>
<text text-anchor="start" x="30" y="-220.3" font-family="Helvetica,sans-Serif" font-size="11.00" fill="#000000">observed_incidence</text>
<polygon fill="none" stroke="#000000" points="236,-213.2 236,-235.2 298,-235.2 298,-213.2 236,-213.2"/>
<text text-anchor="start" x="238.878" y="-220.9" font-family="Helvetica,sans-Serif" font-size="11.00" fill="#000000">unknown[0]</text>
<polygon fill="none" stroke="#000000" points="10,-191.2 10,-213.2 236,-213.2 236,-191.2 10,-191.2"/>
<text text-anchor="start" x="30" y="-198.3" font-family="Helvetica,sans-Serif" font-size="11.00" fill="#000000">p_25_predicted_probability</text>
<polygon fill="none" stroke="#000000" points="236,-191.2 236,-213.2 298,-213.2 298,-191.2 236,-191.2"/>
<text text-anchor="start" x="238.878" y="-198.9" font-family="Helvetica,sans-Serif" font-size="11.00" fill="#000000">unknown[0]</text>
<polygon fill="none" stroke="#000000" points="10,-169.2 10,-191.2 236,-191.2 236,-169.2 10,-169.2"/>
<text text-anchor="start" x="30" y="-176.3" font-family="Helvetica,sans-Serif" font-size="11.00" fill="#000000">p_75_predicted_probability</text>
<polygon fill="none" stroke="#000000" points="236,-169.2 236,-191.2 298,-191.2 298,-169.2 236,-169.2"/>
<text text-anchor="start" x="238.878" y="-176.9" font-family="Helvetica,sans-Serif" font-size="11.00" fill="#000000">unknown[0]</text>
<polygon fill="none" stroke="#000000" points="10,-147.2 10,-169.2 236,-169.2 236,-147.2 10,-147.2"/>
<text text-anchor="start" x="30" y="-154.3" font-family="Helvetica,sans-Serif" font-size="11.00" fill="#000000">performance_id</text>
<polygon fill="none" stroke="#000000" points="236,-147.2 236,-169.2 298,-169.2 298,-147.2 236,-147.2"/>
<text text-anchor="start" x="238.878" y="-154.9" font-family="Helvetica,sans-Serif" font-size="11.00" fill="#000000">unknown[0]</text>
<polygon fill="none" stroke="#000000" points="10,-125.2 10,-147.2 236,-147.2 236,-125.2 10,-125.2"/>
<text text-anchor="start" x="30" y="-132.3" font-family="Helvetica,sans-Serif" font-size="11.00" fill="#000000">person_count_at_risk</text>
<polygon fill="none" stroke="#000000" points="236,-125.2 236,-147.2 298,-147.2 298,-125.2 236,-125.2"/>
<text text-anchor="start" x="238.878" y="-132.9" font-family="Helvetica,sans-Serif" font-size="11.00" fill="#000000">unknown[0]</text>
<polygon fill="none" stroke="#000000" points="10,-103.2 10,-125.2 236,-125.2 236,-103.2 10,-103.2"/>
<text text-anchor="start" x="30" y="-110.3" font-family="Helvetica,sans-Serif" font-size="11.00" fill="#000000">person_count_with_outcome</text>
<polygon fill="none" stroke="#000000" points="236,-103.2 236,-125.2 298,-125.2 298,-103.2 236,-103.2"/>
<text text-anchor="start" x="238.878" y="-110.9" font-family="Helvetica,sans-Serif" font-size="11.00" fill="#000000">unknown[0]</text>
<polygon fill="none" stroke="#000000" points="10,-81.2 10,-103.2 236,-103.2 236,-81.2 10,-81.2"/>
<text text-anchor="start" x="30" y="-88.3" font-family="Helvetica,sans-Serif" font-size="11.00" fill="#000000">prediction_threshold</text>
<polygon fill="none" stroke="#000000" points="236,-81.2 236,-103.2 298,-103.2 298,-81.2 236,-81.2"/>
<text text-anchor="start" x="238.878" y="-88.9" font-family="Helvetica,sans-Serif" font-size="11.00" fill="#000000">unknown[0]</text>
<polygon fill="none" stroke="#000000" points="10,-59.2 10,-81.2 236,-81.2 236,-59.2 10,-59.2"/>
<text text-anchor="start" x="30" y="-66.3" font-family="Helvetica,sans-Serif" font-size="11.00" fill="#000000">st_dev_predicted_probability</text>
<polygon fill="none" stroke="#000000" points="236,-59.2 236,-81.2 298,-81.2 298,-59.2 236,-59.2"/>
<text text-anchor="start" x="238.878" y="-66.9" font-family="Helvetica,sans-Serif" font-size="11.00" fill="#000000">unknown[0]</text>
<polygon fill="#ffffff" stroke="transparent" points="10,-40.2 10,-59.2 114,-59.2 114,-40.2 10,-40.2"/>
<polygon fill="none" stroke="#000000" points="10,-40.2 10,-59.2 114,-59.2 114,-40.2 10,-40.2"/>
<text text-anchor="start" x="13" y="-46.3" font-family="Helvetica,sans-Serif" font-size="11.00" fill="#000000">&lt; 0</text>
<polygon fill="#ffffff" stroke="transparent" points="114,-40.2 114,-59.2 236,-59.2 236,-40.2 114,-40.2"/>
<polygon fill="none" stroke="#000000" points="114,-40.2 114,-59.2 236,-59.2 236,-40.2 114,-40.2"/>
<text text-anchor="start" x="200.6105" y="-46.3" font-family="Helvetica,sans-Serif" font-size="11.00" fill="#000000">0 rows</text>
<polygon fill="#ffffff" stroke="transparent" points="236,-40.2 236,-59.2 298,-59.2 298,-40.2 236,-40.2"/>
<polygon fill="none" stroke="#000000" points="236,-40.2 236,-59.2 298,-59.2 298,-40.2 236,-40.2"/>
<text text-anchor="start" x="279.4053" y="-46.3" font-family="Helvetica,sans-Serif" font-size="11.00" fill="#000000">0 &gt;</text>
<polygon fill="none" stroke="#000000" stroke-width="2" points="9,-39.2 9,-369.2 299,-369.2 299,-39.2 9,-39.2"/>
</a>
</g>
</g>
</g>
</svg>
