<?xml version="1.0" encoding="UTF-8" standalone="no"?>
<!DOCTYPE svg PUBLIC "-//W3C//DTD SVG 1.1//EN"
 "http://www.w3.org/Graphics/SVG/1.1/DTD/svg11.dtd">
<!-- Generated by graphviz version 2.40.1 (20161225.0304)
 -->
<!-- Title: oneDegreeRelationshipsDiagram Pages: 1 -->
<svg width="335pt" height="360pt"
 viewBox="0.00 0.00 335.00 360.20" xmlns="http://www.w3.org/2000/svg" xmlns:xlink="http://www.w3.org/1999/xlink">
<g id="graph0" class="graph" transform="scale(1 1) rotate(0) translate(4 356.2)">
<title>oneDegreeRelationshipsDiagram</title>
<polygon fill="#ffffff" stroke="transparent" points="-4,4 -4,-356.2 331,-356.2 331,4 -4,4"/>
<text text-anchor="middle" x="72.4936" y="-7.3" font-family="Helvetica,sans-Serif" font-size="11.00" fill="#000000">Generated by SchemaSpy</text>
<!-- plp_database_meta_data -->
<g id="node1" class="node">
<title>plp_database_meta_data</title>
<g id="a_node1"><a xlink:href="../../tables/plp_database_meta_data.html" xlink:title="plp_database_meta_data" target="_top">
<polygon fill="#ffffff" stroke="transparent" points="8,-38.2 8,-348.2 319,-348.2 319,-38.2 8,-38.2"/>
<polygon fill="#f5f5f5" stroke="transparent" points="10.5,-323.2 10.5,-346.2 317.5,-346.2 317.5,-323.2 10.5,-323.2"/>
<polygon fill="none" stroke="#000000" points="10.5,-323.2 10.5,-346.2 317.5,-346.2 317.5,-323.2 10.5,-323.2"/>
<text text-anchor="start" x="15.5" y="-331.8" font-family="Helvetica,sans-Serif" font-weight="bold" font-size="11.00" fill="#000000">plp_database_meta_data</text>
<text text-anchor="start" x="282.5437" y="-331.3" font-family="Helvetica,sans-Serif" font-size="11.00" fill="#000000">[table]</text>
<polygon fill="none" stroke="#000000" points="10.5,-301.2 10.5,-323.2 255.5,-323.2 255.5,-301.2 10.5,-301.2"/>
<text text-anchor="start" x="30.5" y="-308.3" font-family="Helvetica,sans-Serif" font-size="11.00" fill="#000000">cdm_etl_reference</text>
<polygon fill="none" stroke="#000000" points="255.5,-301.2 255.5,-323.2 317.5,-323.2 317.5,-301.2 255.5,-301.2"/>
<text text-anchor="start" x="258.378" y="-308.9" font-family="Helvetica,sans-Serif" font-size="11.00" fill="#000000">unknown[0]</text>
<polygon fill="none" stroke="#000000" points="10.5,-279.2 10.5,-301.2 255.5,-301.2 255.5,-279.2 10.5,-279.2"/>
<text text-anchor="start" x="30.5" y="-286.3" font-family="Helvetica,sans-Serif" font-size="11.00" fill="#000000">cdm_holder</text>
<polygon fill="none" stroke="#000000" points="255.5,-279.2 255.5,-301.2 317.5,-301.2 317.5,-279.2 255.5,-279.2"/>
<text text-anchor="start" x="258.378" y="-286.9" font-family="Helvetica,sans-Serif" font-size="11.00" fill="#000000">unknown[0]</text>
<polygon fill="none" stroke="#000000" points="10.5,-257.2 10.5,-279.2 255.5,-279.2 255.5,-257.2 10.5,-257.2"/>
<text text-anchor="start" x="30.5" y="-264.3" font-family="Helvetica,sans-Serif" font-size="11.00" fill="#000000">cdm_release_date</text>
<polygon fill="none" stroke="#000000" points="255.5,-257.2 255.5,-279.2 317.5,-279.2 317.5,-257.2 255.5,-257.2"/>
<text text-anchor="start" x="258.378" y="-264.9" font-family="Helvetica,sans-Serif" font-size="11.00" fill="#000000">unknown[0]</text>
<polygon fill="none" stroke="#000000" points="10.5,-235.2 10.5,-257.2 255.5,-257.2 255.5,-235.2 10.5,-235.2"/>
<text text-anchor="start" x="30.5" y="-242.3" font-family="Helvetica,sans-Serif" font-size="11.00" fill="#000000">cdm_source_abbreviation</text>
<polygon fill="none" stroke="#000000" points="255.5,-235.2 255.5,-257.2 317.5,-257.2 317.5,-235.2 255.5,-235.2"/>
<text text-anchor="start" x="258.378" y="-242.9" font-family="Helvetica,sans-Serif" font-size="11.00" fill="#000000">unknown[0]</text>
<polygon fill="none" stroke="#000000" points="10.5,-213.2 10.5,-235.2 255.5,-235.2 255.5,-213.2 10.5,-213.2"/>
<text text-anchor="start" x="30.5" y="-220.3" font-family="Helvetica,sans-Serif" font-size="11.00" fill="#000000">cdm_source_name</text>
<polygon fill="none" stroke="#000000" points="255.5,-213.2 255.5,-235.2 317.5,-235.2 317.5,-213.2 255.5,-213.2"/>
<text text-anchor="start" x="258.378" y="-220.9" font-family="Helvetica,sans-Serif" font-size="11.00" fill="#000000">unknown[0]</text>
<polygon fill="none" stroke="#000000" points="10.5,-191.2 10.5,-213.2 255.5,-213.2 255.5,-191.2 10.5,-191.2"/>
<text text-anchor="start" x="30.5" y="-198.3" font-family="Helvetica,sans-Serif" font-size="11.00" fill="#000000">cdm_version</text>
<polygon fill="none" stroke="#000000" points="255.5,-191.2 255.5,-213.2 317.5,-213.2 317.5,-191.2 255.5,-191.2"/>
<text text-anchor="start" x="258.378" y="-198.9" font-family="Helvetica,sans-Serif" font-size="11.00" fill="#000000">unknown[0]</text>
<polygon fill="none" stroke="#000000" points="10.5,-169.2 10.5,-191.2 255.5,-191.2 255.5,-169.2 10.5,-169.2"/>
<text text-anchor="start" x="30.5" y="-176.3" font-family="Helvetica,sans-Serif" font-size="11.00" fill="#000000">database_id</text>
<polygon fill="none" stroke="#000000" points="255.5,-169.2 255.5,-191.2 317.5,-191.2 317.5,-169.2 255.5,-169.2"/>
<text text-anchor="start" x="258.378" y="-176.9" font-family="Helvetica,sans-Serif" font-size="11.00" fill="#000000">unknown[0]</text>
<polygon fill="none" stroke="#000000" points="10.5,-147.2 10.5,-169.2 255.5,-169.2 255.5,-147.2 10.5,-147.2"/>
<text text-anchor="start" x="30.5" y="-154.3" font-family="Helvetica,sans-Serif" font-size="11.00" fill="#000000">max_obs_period_end_date</text>
<polygon fill="none" stroke="#000000" points="255.5,-147.2 255.5,-169.2 317.5,-169.2 317.5,-147.2 255.5,-147.2"/>
<text text-anchor="start" x="258.378" y="-154.9" font-family="Helvetica,sans-Serif" font-size="11.00" fill="#000000">unknown[0]</text>
<polygon fill="none" stroke="#000000" points="10.5,-125.2 10.5,-147.2 255.5,-147.2 255.5,-125.2 10.5,-125.2"/>
<text text-anchor="start" x="30.5" y="-132.3" font-family="Helvetica,sans-Serif" font-size="11.00" fill="#000000">source_description</text>
<polygon fill="none" stroke="#000000" points="255.5,-125.2 255.5,-147.2 317.5,-147.2 317.5,-125.2 255.5,-125.2"/>
<text text-anchor="start" x="258.378" y="-132.9" font-family="Helvetica,sans-Serif" font-size="11.00" fill="#000000">unknown[0]</text>
<polygon fill="none" stroke="#000000" points="10.5,-103.2 10.5,-125.2 255.5,-125.2 255.5,-103.2 10.5,-103.2"/>
<text text-anchor="start" x="30.5" y="-110.3" font-family="Helvetica,sans-Serif" font-size="11.00" fill="#000000">source_documentation_reference</text>
<polygon fill="none" stroke="#000000" points="255.5,-103.2 255.5,-125.2 317.5,-125.2 317.5,-103.2 255.5,-103.2"/>
<text text-anchor="start" x="258.378" y="-110.9" font-family="Helvetica,sans-Serif" font-size="11.00" fill="#000000">unknown[0]</text>
<polygon fill="none" stroke="#000000" points="10.5,-81.2 10.5,-103.2 255.5,-103.2 255.5,-81.2 10.5,-81.2"/>
<text text-anchor="start" x="30.5" y="-88.3" font-family="Helvetica,sans-Serif" font-size="11.00" fill="#000000">source_release_date</text>
<polygon fill="none" stroke="#000000" points="255.5,-81.2 255.5,-103.2 317.5,-103.2 317.5,-81.2 255.5,-81.2"/>
<text text-anchor="start" x="258.378" y="-88.9" font-family="Helvetica,sans-Serif" font-size="11.00" fill="#000000">unknown[0]</text>
<polygon fill="none" stroke="#000000" points="10.5,-59.2 10.5,-81.2 255.5,-81.2 255.5,-59.2 10.5,-59.2"/>
<text text-anchor="start" x="30.5" y="-66.3" font-family="Helvetica,sans-Serif" font-size="11.00" fill="#000000">vocabulary_version</text>
<polygon fill="none" stroke="#000000" points="255.5,-59.2 255.5,-81.2 317.5,-81.2 317.5,-59.2 255.5,-59.2"/>
<text text-anchor="start" x="258.378" y="-66.9" font-family="Helvetica,sans-Serif" font-size="11.00" fill="#000000">unknown[0]</text>
<polygon fill="#ffffff" stroke="transparent" points="10.5,-40.2 10.5,-59.2 124.5,-59.2 124.5,-40.2 10.5,-40.2"/>
<polygon fill="none" stroke="#000000" points="10.5,-40.2 10.5,-59.2 124.5,-59.2 124.5,-40.2 10.5,-40.2"/>
<text text-anchor="start" x="13.5" y="-46.3" font-family="Helvetica,sans-Serif" font-size="11.00" fill="#000000">&lt; 0</text>
<polygon fill="#ffffff" stroke="transparent" points="124.5,-40.2 124.5,-59.2 255.5,-59.2 255.5,-40.2 124.5,-40.2"/>
<polygon fill="none" stroke="#000000" points="124.5,-40.2 124.5,-59.2 255.5,-59.2 255.5,-40.2 124.5,-40.2"/>
<text text-anchor="start" x="220.1105" y="-46.3" font-family="Helvetica,sans-Serif" font-size="11.00" fill="#000000">0 rows</text>
<polygon fill="#ffffff" stroke="transparent" points="255.5,-40.2 255.5,-59.2 317.5,-59.2 317.5,-40.2 255.5,-40.2"/>
<polygon fill="none" stroke="#000000" points="255.5,-40.2 255.5,-59.2 317.5,-59.2 317.5,-40.2 255.5,-40.2"/>
<text text-anchor="start" x="298.9053" y="-46.3" font-family="Helvetica,sans-Serif" font-size="11.00" fill="#000000">0 &gt;</text>
<polygon fill="none" stroke="#000000" stroke-width="2" points="9,-39.2 9,-347.2 318,-347.2 318,-39.2 9,-39.2"/>
</a>
</g>
</g>
</g>
</svg>
