<?xml version="1.0" encoding="UTF-8" standalone="no"?>
<!DOCTYPE svg PUBLIC "-//W3C//DTD SVG 1.1//EN"
 "http://www.w3.org/Graphics/SVG/1.1/DTD/svg11.dtd">
<!-- Generated by graphviz version 2.40.1 (20161225.0304)
 -->
<!-- Title: oneDegreeRelationshipsDiagram Pages: 1 -->
<svg width="732pt" height="360pt"
 viewBox="0.00 0.00 732.00 360.20" xmlns="http://www.w3.org/2000/svg" xmlns:xlink="http://www.w3.org/1999/xlink">
<g id="graph0" class="graph" transform="scale(1 1) rotate(0) translate(4 356.2)">
<title>oneDegreeRelationshipsDiagram</title>
<polygon fill="#ffffff" stroke="transparent" points="-4,4 -4,-356.2 728,-356.2 728,4 -4,4"/>
<text text-anchor="middle" x="72.4936" y="-7.3" font-family="Helvetica,sans-Serif" font-size="11.00" fill="#000000">Generated by SchemaSpy</text>
<!-- plp_diagnostics -->
<g id="node1" class="node">
<title>plp_diagnostics</title>
<g id="a_node1"><a xlink:href="../../tables/plp_diagnostics.html" xlink:title="plp_diagnostics" target="_top">
<polygon fill="#ffffff" stroke="transparent" points="556,-219.7 556,-346.7 716,-346.7 716,-219.7 556,-219.7"/>
<polygon fill="#f5f5f5" stroke="transparent" points="556,-323.2 556,-346.2 716,-346.2 716,-323.2 556,-323.2"/>
<polygon fill="none" stroke="#000000" points="556,-323.2 556,-346.2 716,-346.2 716,-323.2 556,-323.2"/>
<text text-anchor="start" x="561" y="-331.8" font-family="Helvetica,sans-Serif" font-weight="bold" font-size="11.00" fill="#000000">plp_diagnostics</text>
<text text-anchor="start" x="681.0437" y="-331.3" font-family="Helvetica,sans-Serif" font-size="11.00" fill="#000000">[table]</text>
<polygon fill="none" stroke="#000000" points="556,-301.2 556,-323.2 716,-323.2 716,-301.2 556,-301.2"/>
<image xlink:href="../../images/foreignKeys.png" width="11px" height="12px" preserveAspectRatio="xMinYMin meet" x="561" y="-318.2"/>
<text text-anchor="start" x="576" y="-308.3" font-family="Helvetica,sans-Serif" font-size="11.00" fill="#000000">database_id</text>
<polygon fill="none" stroke="#000000" points="556,-279.2 556,-301.2 716,-301.2 716,-279.2 556,-279.2"/>
<image xlink:href="../../images/foreignKeys.png" width="11px" height="12px" preserveAspectRatio="xMinYMin meet" x="561" y="-296.2"/>
<text text-anchor="start" x="576" y="-286.3" font-family="Helvetica,sans-Serif" font-size="11.00" fill="#000000">diagnostic_id</text>
<polygon fill="none" stroke="#000000" points="556,-257.2 556,-279.2 716,-279.2 716,-257.2 556,-257.2"/>
<image xlink:href="../../images/foreignKeys.png" width="11px" height="12px" preserveAspectRatio="xMinYMin meet" x="561" y="-274.2"/>
<text text-anchor="start" x="576" y="-264.3" font-family="Helvetica,sans-Serif" font-size="11.00" fill="#000000">model_design_id</text>
<polygon fill="none" stroke="#000000" points="556,-238.2 556,-257.2 716,-257.2 716,-238.2 556,-238.2"/>
<text text-anchor="start" x="559" y="-244.3" font-family="Helvetica,sans-Serif" font-size="11.00" fill="#000000">...</text>
<polygon fill="#ffffff" stroke="transparent" points="556,-219.2 556,-238.2 621,-238.2 621,-219.2 556,-219.2"/>
<polygon fill="none" stroke="#000000" points="556,-219.2 556,-238.2 621,-238.2 621,-219.2 556,-219.2"/>
<text text-anchor="start" x="559" y="-225.3" font-family="Helvetica,sans-Serif" font-size="11.00" fill="#000000">&lt; 3</text>
<polygon fill="#ffffff" stroke="transparent" points="621,-219.2 621,-238.2 681,-238.2 681,-219.2 621,-219.2"/>
<polygon fill="none" stroke="#000000" points="621,-219.2 621,-238.2 681,-238.2 681,-219.2 621,-219.2"/>
<text text-anchor="start" x="645.6105" y="-225.3" font-family="Helvetica,sans-Serif" font-size="11.00" fill="#000000">0 rows</text>
<polygon fill="#ffffff" stroke="transparent" points="681,-219.2 681,-238.2 716,-238.2 716,-219.2 681,-219.2"/>
<polygon fill="none" stroke="#000000" points="681,-219.2 681,-238.2 716,-238.2 716,-219.2 681,-219.2"/>
<text text-anchor="start" x="706.8862" y="-225.3" font-family="Helvetica,sans-Serif" font-size="11.00" fill="#000000"> &#160;</text>
</a>
</g>
</g>
<!-- plp_model_designs -->
<g id="node2" class="node">
<title>plp_model_designs</title>
<g id="a_node2"><a xlink:href="../../tables/plp_model_designs.html" xlink:title="plp_model_designs" target="_top">
<polygon fill="#ffffff" stroke="transparent" points="211,-38.2 211,-348.2 507,-348.2 507,-38.2 211,-38.2"/>
<polygon fill="#f5f5f5" stroke="transparent" points="213,-323.2 213,-346.2 505,-346.2 505,-323.2 213,-323.2"/>
<polygon fill="none" stroke="#000000" points="213,-323.2 213,-346.2 505,-346.2 505,-323.2 213,-323.2"/>
<text text-anchor="start" x="218" y="-331.8" font-family="Helvetica,sans-Serif" font-weight="bold" font-size="11.00" fill="#000000">plp_model_designs</text>
<text text-anchor="start" x="470.0437" y="-331.3" font-family="Helvetica,sans-Serif" font-size="11.00" fill="#000000">[table]</text>
<polygon fill="none" stroke="#000000" points="213,-301.2 213,-323.2 443,-323.2 443,-301.2 213,-301.2"/>
<text text-anchor="start" x="233" y="-308.3" font-family="Helvetica,sans-Serif" font-size="11.00" fill="#000000">covariate_setting_id</text>
<polygon fill="none" stroke="#000000" points="443,-301.2 443,-323.2 505,-323.2 505,-301.2 443,-301.2"/>
<text text-anchor="start" x="445.878" y="-308.9" font-family="Helvetica,sans-Serif" font-size="11.00" fill="#000000">unknown[0]</text>
<polygon fill="none" stroke="#000000" points="213,-279.2 213,-301.2 443,-301.2 443,-279.2 213,-279.2"/>
<text text-anchor="start" x="233" y="-286.3" font-family="Helvetica,sans-Serif" font-size="11.00" fill="#000000">feature_engineering_setting_id</text>
<polygon fill="none" stroke="#000000" points="443,-279.2 443,-301.2 505,-301.2 505,-279.2 443,-279.2"/>
<text text-anchor="start" x="445.878" y="-286.9" font-family="Helvetica,sans-Serif" font-size="11.00" fill="#000000">unknown[0]</text>
<polygon fill="none" stroke="#000000" points="213,-257.2 213,-279.2 443,-279.2 443,-257.2 213,-257.2"/>
<image xlink:href="../../images/primaryKeys.png" width="11px" height="12px" preserveAspectRatio="xMinYMin meet" x="218" y="-274.2"/>
<text text-anchor="start" x="233" y="-264.3" font-family="Helvetica,sans-Serif" font-size="11.00" fill="#000000">model_design_id</text>
<polygon fill="none" stroke="#000000" points="443,-257.2 443,-279.2 505,-279.2 505,-257.2 443,-257.2"/>
<text text-anchor="start" x="445.878" y="-264.9" font-family="Helvetica,sans-Serif" font-size="11.00" fill="#000000">unknown[0]</text>
<polygon fill="none" stroke="#000000" points="213,-235.2 213,-257.2 443,-257.2 443,-235.2 213,-235.2"/>
<text text-anchor="start" x="233" y="-242.3" font-family="Helvetica,sans-Serif" font-size="11.00" fill="#000000">model_setting_id</text>
<polygon fill="none" stroke="#000000" points="443,-235.2 443,-257.2 505,-257.2 505,-235.2 443,-235.2"/>
<text text-anchor="start" x="445.878" y="-242.9" font-family="Helvetica,sans-Serif" font-size="11.00" fill="#000000">unknown[0]</text>
<polygon fill="none" stroke="#000000" points="213,-213.2 213,-235.2 443,-235.2 443,-213.2 213,-213.2"/>
<image xlink:href="../../images/foreignKeys.png" width="11px" height="12px" preserveAspectRatio="xMinYMin meet" x="218" y="-230.2"/>
<text text-anchor="start" x="233" y="-220.3" font-family="Helvetica,sans-Serif" font-size="11.00" fill="#000000">outcome_id</text>
<polygon fill="none" stroke="#000000" points="443,-213.2 443,-235.2 505,-235.2 505,-213.2 443,-213.2"/>
<text text-anchor="start" x="445.878" y="-220.9" font-family="Helvetica,sans-Serif" font-size="11.00" fill="#000000">unknown[0]</text>
<polygon fill="none" stroke="#000000" points="213,-191.2 213,-213.2 443,-213.2 443,-191.2 213,-191.2"/>
<text text-anchor="start" x="233" y="-198.3" font-family="Helvetica,sans-Serif" font-size="11.00" fill="#000000">plp_data_setting_id</text>
<polygon fill="none" stroke="#000000" points="443,-191.2 443,-213.2 505,-213.2 505,-191.2 443,-191.2"/>
<text text-anchor="start" x="445.878" y="-198.9" font-family="Helvetica,sans-Serif" font-size="11.00" fill="#000000">unknown[0]</text>
<polygon fill="none" stroke="#000000" points="213,-169.2 213,-191.2 443,-191.2 443,-169.2 213,-169.2"/>
<text text-anchor="start" x="233" y="-176.3" font-family="Helvetica,sans-Serif" font-size="11.00" fill="#000000">population_setting_id</text>
<polygon fill="none" stroke="#000000" points="443,-169.2 443,-191.2 505,-191.2 505,-169.2 443,-169.2"/>
<text text-anchor="start" x="445.878" y="-176.9" font-family="Helvetica,sans-Serif" font-size="11.00" fill="#000000">unknown[0]</text>
<polygon fill="none" stroke="#000000" points="213,-147.2 213,-169.2 443,-169.2 443,-147.2 213,-147.2"/>
<text text-anchor="start" x="233" y="-154.3" font-family="Helvetica,sans-Serif" font-size="11.00" fill="#000000">sample_setting_id</text>
<polygon fill="none" stroke="#000000" points="443,-147.2 443,-169.2 505,-169.2 505,-147.2 443,-147.2"/>
<text text-anchor="start" x="445.878" y="-154.9" font-family="Helvetica,sans-Serif" font-size="11.00" fill="#000000">unknown[0]</text>
<polygon fill="none" stroke="#000000" points="213,-125.2 213,-147.2 443,-147.2 443,-125.2 213,-125.2"/>
<text text-anchor="start" x="233" y="-132.3" font-family="Helvetica,sans-Serif" font-size="11.00" fill="#000000">split_setting_id</text>
<polygon fill="none" stroke="#000000" points="443,-125.2 443,-147.2 505,-147.2 505,-125.2 443,-125.2"/>
<text text-anchor="start" x="445.878" y="-132.9" font-family="Helvetica,sans-Serif" font-size="11.00" fill="#000000">unknown[0]</text>
<polygon fill="none" stroke="#000000" points="213,-103.2 213,-125.2 443,-125.2 443,-103.2 213,-103.2"/>
<text text-anchor="start" x="233" y="-110.3" font-family="Helvetica,sans-Serif" font-size="11.00" fill="#000000">tar_id</text>
<polygon fill="none" stroke="#000000" points="443,-103.2 443,-125.2 505,-125.2 505,-103.2 443,-103.2"/>
<text text-anchor="start" x="445.878" y="-110.9" font-family="Helvetica,sans-Serif" font-size="11.00" fill="#000000">unknown[0]</text>
<polygon fill="none" stroke="#000000" points="213,-81.2 213,-103.2 443,-103.2 443,-81.2 213,-81.2"/>
<image xlink:href="../../images/foreignKeys.png" width="11px" height="12px" preserveAspectRatio="xMinYMin meet" x="218" y="-98.2"/>
<text text-anchor="start" x="233" y="-88.3" font-family="Helvetica,sans-Serif" font-size="11.00" fill="#000000">target_id</text>
<polygon fill="none" stroke="#000000" points="443,-81.2 443,-103.2 505,-103.2 505,-81.2 443,-81.2"/>
<text text-anchor="start" x="445.878" y="-88.9" font-family="Helvetica,sans-Serif" font-size="11.00" fill="#000000">unknown[0]</text>
<polygon fill="none" stroke="#000000" points="213,-59.2 213,-81.2 443,-81.2 443,-59.2 213,-59.2"/>
<text text-anchor="start" x="233" y="-66.3" font-family="Helvetica,sans-Serif" font-size="11.00" fill="#000000">tidy_covariates_setting_id</text>
<polygon fill="none" stroke="#000000" points="443,-59.2 443,-81.2 505,-81.2 505,-59.2 443,-59.2"/>
<text text-anchor="start" x="445.878" y="-66.9" font-family="Helvetica,sans-Serif" font-size="11.00" fill="#000000">unknown[0]</text>
<polygon fill="#ffffff" stroke="transparent" points="213,-40.2 213,-59.2 319,-59.2 319,-40.2 213,-40.2"/>
<polygon fill="none" stroke="#000000" points="213,-40.2 213,-59.2 319,-59.2 319,-40.2 213,-40.2"/>
<text text-anchor="start" x="216" y="-46.3" font-family="Helvetica,sans-Serif" font-size="11.00" fill="#000000">&lt; 2</text>
<polygon fill="#ffffff" stroke="transparent" points="319,-40.2 319,-59.2 443,-59.2 443,-40.2 319,-40.2"/>
<polygon fill="none" stroke="#000000" points="319,-40.2 319,-59.2 443,-59.2 443,-40.2 319,-40.2"/>
<text text-anchor="start" x="407.6105" y="-46.3" font-family="Helvetica,sans-Serif" font-size="11.00" fill="#000000">0 rows</text>
<polygon fill="#ffffff" stroke="transparent" points="443,-40.2 443,-59.2 505,-59.2 505,-40.2 443,-40.2"/>
<polygon fill="none" stroke="#000000" points="443,-40.2 443,-59.2 505,-59.2 505,-40.2 443,-40.2"/>
<text text-anchor="start" x="486.4053" y="-46.3" font-family="Helvetica,sans-Serif" font-size="11.00" fill="#000000">1 &gt;</text>
<polygon fill="none" stroke="#000000" stroke-width="2" points="212,-39.2 212,-347.2 506,-347.2 506,-39.2 212,-39.2"/>
</a>
</g>
</g>
<!-- plp_diagnostics&#45;&gt;plp_model_designs -->
<g id="edge1" class="edge">
<title>plp_diagnostics:w&#45;&gt;plp_model_designs:e</title>
<path fill="none" stroke="#000000" d="M541.276,-268.2C529.2815,-268.2 521.8229,-268.2 505,-268.2"/>
<polygon fill="#000000" stroke="#000000" points="548,-268.2001 556,-271.8 552,-268.2 556,-268.2 556,-268.2 556,-268.2 552,-268.2 556,-264.6 548,-268.2001 548,-268.2001"/>
<ellipse fill="none" stroke="#000000" cx="544.8" cy="-268.2001" rx="3.2" ry="3.2"/>
</g>
<!-- plp_cohorts -->
<g id="node3" class="node">
<title>plp_cohorts</title>
<g id="a_node3"><a xlink:href="../../tables/plp_cohorts.html" xlink:title="plp_cohorts" target="_top">
<polygon fill="#ffffff" stroke="transparent" points="8,-109.7 8,-192.7 162,-192.7 162,-109.7 8,-109.7"/>
<polygon fill="#f5f5f5" stroke="transparent" points="8,-169.2 8,-192.2 162,-192.2 162,-169.2 8,-169.2"/>
<polygon fill="none" stroke="#000000" points="8,-169.2 8,-192.2 162,-192.2 162,-169.2 8,-169.2"/>
<text text-anchor="start" x="13" y="-177.8" font-family="Helvetica,sans-Serif" font-weight="bold" font-size="11.00" fill="#000000">plp_cohorts</text>
<text text-anchor="start" x="127.0437" y="-177.3" font-family="Helvetica,sans-Serif" font-size="11.00" fill="#000000">[table]</text>
<polygon fill="none" stroke="#000000" points="8,-147.2 8,-169.2 162,-169.2 162,-147.2 8,-147.2"/>
<image xlink:href="../../images/primaryKeys.png" width="11px" height="12px" preserveAspectRatio="xMinYMin meet" x="13" y="-164.2"/>
<text text-anchor="start" x="28" y="-154.3" font-family="Helvetica,sans-Serif" font-size="11.00" fill="#000000">cohort_definition_id</text>
<polygon fill="none" stroke="#000000" points="8,-128.2 8,-147.2 162,-147.2 162,-128.2 8,-128.2"/>
<text text-anchor="start" x="11" y="-134.3" font-family="Helvetica,sans-Serif" font-size="11.00" fill="#000000">...</text>
<polygon fill="#ffffff" stroke="transparent" points="8,-109.2 8,-128.2 66,-128.2 66,-109.2 8,-109.2"/>
<polygon fill="none" stroke="#000000" points="8,-109.2 8,-128.2 66,-128.2 66,-109.2 8,-109.2"/>
<text text-anchor="start" x="11" y="-115.3" font-family="Helvetica,sans-Serif" font-size="11.00" fill="#000000">&lt; 1</text>
<polygon fill="#ffffff" stroke="transparent" points="66,-109.2 66,-128.2 122,-128.2 122,-109.2 66,-109.2"/>
<polygon fill="none" stroke="#000000" points="66,-109.2 66,-128.2 122,-128.2 122,-109.2 66,-109.2"/>
<text text-anchor="start" x="86.6105" y="-115.3" font-family="Helvetica,sans-Serif" font-size="11.00" fill="#000000">0 rows</text>
<polygon fill="#ffffff" stroke="transparent" points="122,-109.2 122,-128.2 162,-128.2 162,-109.2 122,-109.2"/>
<polygon fill="none" stroke="#000000" points="122,-109.2 122,-128.2 162,-128.2 162,-109.2 122,-109.2"/>
<text text-anchor="start" x="143.4053" y="-115.3" font-family="Helvetica,sans-Serif" font-size="11.00" fill="#000000">2 &gt;</text>
</a>
</g>
</g>
<!-- plp_model_designs&#45;&gt;plp_cohorts -->
<g id="edge2" class="edge">
<title>plp_model_designs:w&#45;&gt;plp_cohorts:e</title>
<path fill="none" stroke="#000000" d="M199.0846,-219.4534C181.902,-204.3202 192.9886,-158.2 162,-158.2"/>
<polygon fill="#000000" stroke="#000000" points="205.4284,-221.6173 211.8378,-227.6072 209.2142,-222.9086 213,-224.2 213,-224.2 213,-224.2 209.2142,-222.9086 214.1622,-220.7928 205.4284,-221.6173 205.4284,-221.6173"/>
<ellipse fill="none" stroke="#000000" cx="202.3997" cy="-220.5842" rx="3.2" ry="3.2"/>
</g>
<!-- plp_model_designs&#45;&gt;plp_cohorts -->
<g id="edge3" class="edge">
<title>plp_model_designs:w&#45;&gt;plp_cohorts:e</title>
<path fill="none" stroke="#000000" d="M199.0846,-96.9466C181.902,-112.0798 192.9886,-158.2 162,-158.2"/>
<polygon fill="#000000" stroke="#000000" points="205.4284,-94.7827 214.1622,-95.6072 209.2142,-93.4914 213,-92.2 213,-92.2 213,-92.2 209.2142,-93.4914 211.8378,-88.7928 205.4284,-94.7827 205.4284,-94.7827"/>
<ellipse fill="none" stroke="#000000" cx="202.3997" cy="-95.8158" rx="3.2" ry="3.2"/>
</g>
</g>
</svg>
