<?xml version="1.0" encoding="UTF-8" standalone="no"?>
<!DOCTYPE svg PUBLIC "-//W3C//DTD SVG 1.1//EN"
 "http://www.w3.org/Graphics/SVG/1.1/DTD/svg11.dtd">
<!-- Generated by graphviz version 2.40.1 (20161225.0304)
 -->
<!-- Title: oneDegreeRelationshipsDiagram Pages: 1 -->
<svg width="296pt" height="206pt"
 viewBox="0.00 0.00 296.00 206.20" xmlns="http://www.w3.org/2000/svg" xmlns:xlink="http://www.w3.org/1999/xlink">
<g id="graph0" class="graph" transform="scale(1 1) rotate(0) translate(4 202.2)">
<title>oneDegreeRelationshipsDiagram</title>
<polygon fill="#ffffff" stroke="transparent" points="-4,4 -4,-202.2 292,-202.2 292,4 -4,4"/>
<text text-anchor="middle" x="72.4936" y="-7.3" font-family="Helvetica,sans-Serif" font-size="11.00" fill="#000000">Generated by SchemaSpy</text>
<!-- plp_diagnostic_participants -->
<g id="node1" class="node">
<title>plp_diagnostic_participants</title>
<g id="a_node1"><a xlink:href="../../tables/plp_diagnostic_participants.html" xlink:title="plp_diagnostic_participants" target="_top">
<polygon fill="#ffffff" stroke="transparent" points="8,-38.2 8,-194.2 280,-194.2 280,-38.2 8,-38.2"/>
<polygon fill="#f5f5f5" stroke="transparent" points="10,-169.2 10,-192.2 278,-192.2 278,-169.2 10,-169.2"/>
<polygon fill="none" stroke="#000000" points="10,-169.2 10,-192.2 278,-192.2 278,-169.2 10,-169.2"/>
<text text-anchor="start" x="15" y="-177.8" font-family="Helvetica,sans-Serif" font-weight="bold" font-size="11.00" fill="#000000">plp_diagnostic_participants</text>
<text text-anchor="start" x="243.0437" y="-177.3" font-family="Helvetica,sans-Serif" font-size="11.00" fill="#000000">[table]</text>
<polygon fill="none" stroke="#000000" points="10,-147.2 10,-169.2 216,-169.2 216,-147.2 10,-147.2"/>
<text text-anchor="start" x="30" y="-154.3" font-family="Helvetica,sans-Serif" font-size="11.00" fill="#000000">design</text>
<polygon fill="none" stroke="#000000" points="216,-147.2 216,-169.2 278,-169.2 278,-147.2 216,-147.2"/>
<text text-anchor="start" x="218.878" y="-154.9" font-family="Helvetica,sans-Serif" font-size="11.00" fill="#000000">unknown[0]</text>
<polygon fill="none" stroke="#000000" points="10,-125.2 10,-147.2 216,-147.2 216,-125.2 10,-125.2"/>
<text text-anchor="start" x="30" y="-132.3" font-family="Helvetica,sans-Serif" font-size="11.00" fill="#000000">diagnostic_id</text>
<polygon fill="none" stroke="#000000" points="216,-125.2 216,-147.2 278,-147.2 278,-125.2 216,-125.2"/>
<text text-anchor="start" x="218.878" y="-132.9" font-family="Helvetica,sans-Serif" font-size="11.00" fill="#000000">unknown[0]</text>
<polygon fill="none" stroke="#000000" points="10,-103.2 10,-125.2 216,-125.2 216,-103.2 10,-103.2"/>
<text text-anchor="start" x="30" y="-110.3" font-family="Helvetica,sans-Serif" font-size="11.00" fill="#000000">metric</text>
<polygon fill="none" stroke="#000000" points="216,-103.2 216,-125.2 278,-125.2 278,-103.2 216,-103.2"/>
<text text-anchor="start" x="218.878" y="-110.9" font-family="Helvetica,sans-Serif" font-size="11.00" fill="#000000">unknown[0]</text>
<polygon fill="none" stroke="#000000" points="10,-81.2 10,-103.2 216,-103.2 216,-81.2 10,-81.2"/>
<text text-anchor="start" x="30" y="-88.3" font-family="Helvetica,sans-Serif" font-size="11.00" fill="#000000">probast_id</text>
<polygon fill="none" stroke="#000000" points="216,-81.2 216,-103.2 278,-103.2 278,-81.2 216,-81.2"/>
<text text-anchor="start" x="218.878" y="-88.9" font-family="Helvetica,sans-Serif" font-size="11.00" fill="#000000">unknown[0]</text>
<polygon fill="none" stroke="#000000" points="10,-59.2 10,-81.2 216,-81.2 216,-59.2 10,-59.2"/>
<text text-anchor="start" x="30" y="-66.3" font-family="Helvetica,sans-Serif" font-size="11.00" fill="#000000">value</text>
<polygon fill="none" stroke="#000000" points="216,-59.2 216,-81.2 278,-81.2 278,-59.2 216,-59.2"/>
<text text-anchor="start" x="218.878" y="-66.9" font-family="Helvetica,sans-Serif" font-size="11.00" fill="#000000">unknown[0]</text>
<polygon fill="#ffffff" stroke="transparent" points="10,-40.2 10,-59.2 104,-59.2 104,-40.2 10,-40.2"/>
<polygon fill="none" stroke="#000000" points="10,-40.2 10,-59.2 104,-59.2 104,-40.2 10,-40.2"/>
<text text-anchor="start" x="13" y="-46.3" font-family="Helvetica,sans-Serif" font-size="11.00" fill="#000000">&lt; 0</text>
<polygon fill="#ffffff" stroke="transparent" points="104,-40.2 104,-59.2 216,-59.2 216,-40.2 104,-40.2"/>
<polygon fill="none" stroke="#000000" points="104,-40.2 104,-59.2 216,-59.2 216,-40.2 104,-40.2"/>
<text text-anchor="start" x="180.6105" y="-46.3" font-family="Helvetica,sans-Serif" font-size="11.00" fill="#000000">0 rows</text>
<polygon fill="#ffffff" stroke="transparent" points="216,-40.2 216,-59.2 278,-59.2 278,-40.2 216,-40.2"/>
<polygon fill="none" stroke="#000000" points="216,-40.2 216,-59.2 278,-59.2 278,-40.2 216,-40.2"/>
<text text-anchor="start" x="259.4053" y="-46.3" font-family="Helvetica,sans-Serif" font-size="11.00" fill="#000000">0 &gt;</text>
<polygon fill="none" stroke="#000000" stroke-width="2" points="9,-39.2 9,-193.2 279,-193.2 279,-39.2 9,-39.2"/>
</a>
</g>
</g>
</g>
</svg>
