<?xml version="1.0" encoding="UTF-8" standalone="no"?>
<!DOCTYPE svg PUBLIC "-//W3C//DTD SVG 1.1//EN"
 "http://www.w3.org/Graphics/SVG/1.1/DTD/svg11.dtd">
<!-- Generated by graphviz version 2.40.1 (20161225.0304)
 -->
<!-- Title: twoDegreesRelationshipsDiagram Pages: 1 -->
<svg width="953pt" height="901pt"
 viewBox="0.00 0.00 953.00 901.20" xmlns="http://www.w3.org/2000/svg" xmlns:xlink="http://www.w3.org/1999/xlink">
<g id="graph0" class="graph" transform="scale(1 1) rotate(0) translate(4 897.2)">
<title>twoDegreesRelationshipsDiagram</title>
<polygon fill="#ffffff" stroke="transparent" points="-4,4 -4,-897.2 949,-897.2 949,4 -4,4"/>
<text text-anchor="middle" x="72.4936" y="-7.3" font-family="Helvetica,sans-Serif" font-size="11.00" fill="#000000">Generated by SchemaSpy</text>
<!-- c_cohort_details -->
<g id="node1" class="node">
<title>c_cohort_details</title>
<g id="a_node1"><a xlink:href="../../tables/c_cohort_details.html" xlink:title="c_cohort_details" target="_top">
<polygon fill="#ffffff" stroke="transparent" points="275.5,-828.2 275.5,-889.2 422.5,-889.2 422.5,-828.2 275.5,-828.2"/>
<polygon fill="#f5f5f5" stroke="transparent" points="276,-865.7 276,-888.7 423,-888.7 423,-865.7 276,-865.7"/>
<polygon fill="none" stroke="#000000" points="276,-865.7 276,-888.7 423,-888.7 423,-865.7 276,-865.7"/>
<text text-anchor="start" x="281" y="-874.3" font-family="Helvetica,sans-Serif" font-weight="bold" font-size="11.00" fill="#000000">c_cohort_details</text>
<text text-anchor="start" x="388.5219" y="-873.8" font-family="Helvetica,sans-Serif" font-size="11.00" fill="#000000">[table]</text>
<polygon fill="none" stroke="#000000" points="276,-846.7 276,-865.7 423,-865.7 423,-846.7 276,-846.7"/>
<text text-anchor="start" x="279" y="-852.8" font-family="Helvetica,sans-Serif" font-size="11.00" fill="#000000">...</text>
<polygon fill="#ffffff" stroke="transparent" points="276,-827.7 276,-846.7 330,-846.7 330,-827.7 276,-827.7"/>
<polygon fill="none" stroke="#000000" points="276,-827.7 276,-846.7 330,-846.7 330,-827.7 276,-827.7"/>
<text text-anchor="start" x="279" y="-833.8" font-family="Helvetica,sans-Serif" font-size="11.00" fill="#000000">&lt; 2</text>
<polygon fill="#ffffff" stroke="transparent" points="330,-827.7 330,-846.7 385,-846.7 385,-827.7 330,-827.7"/>
<polygon fill="none" stroke="#000000" points="330,-827.7 330,-846.7 385,-846.7 385,-827.7 330,-827.7"/>
<text text-anchor="start" x="349.6105" y="-833.8" font-family="Helvetica,sans-Serif" font-size="11.00" fill="#000000">0 rows</text>
<polygon fill="#ffffff" stroke="transparent" points="385,-827.7 385,-846.7 423,-846.7 423,-827.7 385,-827.7"/>
<polygon fill="none" stroke="#000000" points="385,-827.7 385,-846.7 423,-846.7 423,-827.7 385,-827.7"/>
<text text-anchor="start" x="404.4053" y="-833.8" font-family="Helvetica,sans-Serif" font-size="11.00" fill="#000000">3 &gt;</text>
</a>
</g>
</g>
<!-- cg_cohort_definition -->
<g id="node2" class="node">
<title>cg_cohort_definition</title>
<g id="a_node2"><a xlink:href="../../tables/cg_cohort_definition.html" xlink:title="cg_cohort_definition" target="_top">
<polygon fill="#ffffff" stroke="transparent" points="8,-397.2 8,-480.2 183,-480.2 183,-397.2 8,-397.2"/>
<polygon fill="#f5f5f5" stroke="transparent" points="8.5,-456.7 8.5,-479.7 183.5,-479.7 183.5,-456.7 8.5,-456.7"/>
<polygon fill="none" stroke="#000000" points="8.5,-456.7 8.5,-479.7 183.5,-479.7 183.5,-456.7 8.5,-456.7"/>
<text text-anchor="start" x="13.5" y="-465.3" font-family="Helvetica,sans-Serif" font-weight="bold" font-size="11.00" fill="#000000">cg_cohort_definition</text>
<text text-anchor="start" x="149.0219" y="-464.8" font-family="Helvetica,sans-Serif" font-size="11.00" fill="#000000">[table]</text>
<polygon fill="none" stroke="#000000" points="8.5,-434.7 8.5,-456.7 183.5,-456.7 183.5,-434.7 8.5,-434.7"/>
<image xlink:href="../../images/primaryKeys.png" width="11px" height="12px" preserveAspectRatio="xMinYMin meet" x="13.5" y="-451.7"/>
<text text-anchor="start" x="37.5" y="-441.8" font-family="Helvetica,sans-Serif" font-size="11.00" fill="#000000">cohort_definition_id</text>
<polygon fill="none" stroke="#000000" points="8.5,-415.7 8.5,-434.7 183.5,-434.7 183.5,-415.7 8.5,-415.7"/>
<text text-anchor="start" x="11.5" y="-421.8" font-family="Helvetica,sans-Serif" font-size="11.00" fill="#000000">...</text>
<polygon fill="#ffffff" stroke="transparent" points="8.5,-396.7 8.5,-415.7 69.5,-415.7 69.5,-396.7 8.5,-396.7"/>
<polygon fill="none" stroke="#000000" points="8.5,-396.7 8.5,-415.7 69.5,-415.7 69.5,-396.7 8.5,-396.7"/>
<text text-anchor="start" x="11.5" y="-402.8" font-family="Helvetica,sans-Serif" font-size="11.00" fill="#000000"> &#160;</text>
<polygon fill="#ffffff" stroke="transparent" points="69.5,-396.7 69.5,-415.7 131.5,-415.7 131.5,-396.7 69.5,-396.7"/>
<polygon fill="none" stroke="#000000" points="69.5,-396.7 69.5,-415.7 131.5,-415.7 131.5,-396.7 69.5,-396.7"/>
<text text-anchor="start" x="96.1105" y="-402.8" font-family="Helvetica,sans-Serif" font-size="11.00" fill="#000000">0 rows</text>
<polygon fill="#ffffff" stroke="transparent" points="131.5,-396.7 131.5,-415.7 183.5,-415.7 183.5,-396.7 131.5,-396.7"/>
<polygon fill="none" stroke="#000000" points="131.5,-396.7 131.5,-415.7 183.5,-415.7 183.5,-396.7 131.5,-396.7"/>
<text text-anchor="start" x="158.7904" y="-402.8" font-family="Helvetica,sans-Serif" font-size="11.00" fill="#000000">15 &gt;</text>
</a>
</g>
</g>
<!-- c_cohort_details&#45;&gt;cg_cohort_definition -->
<g id="edge1" class="edge">
<title>c_cohort_details:w&#45;&gt;cg_cohort_definition:e</title>
<path fill="none" stroke="#000000" d="M262.0597,-851.6386C243.8743,-844.4569 235.6943,-831.9327 224,-811.7 182.3877,-739.7056 266.6551,-439.7 183.5,-445.7"/>
<polygon fill="#000000" stroke="#000000" points="268.3193,-853.4623 274.993,-859.1563 272.1597,-854.5811 276,-855.7 276,-855.7 276,-855.7 272.1597,-854.5811 277.007,-852.2437 268.3193,-853.4623 268.3193,-853.4623"/>
<ellipse fill="none" stroke="#000000" cx="265.2471" cy="-852.5672" rx="3.2" ry="3.2"/>
</g>
<!-- c_cohort_details&#45;&gt;cg_cohort_definition -->
<g id="edge2" class="edge">
<title>c_cohort_details:w&#45;&gt;cg_cohort_definition:e</title>
<path fill="none" stroke="#000000" d="M261.5403,-857.5581C243.7174,-857.2165 235.5824,-844.739 224,-824.7 182.3877,-752.7056 266.6551,-452.7 183.5,-445.7"/>
<polygon fill="#000000" stroke="#000000" points="268.0652,-856.7197 276.4589,-859.2706 272.0326,-856.2098 276,-855.7 276,-855.7 276,-855.7 272.0326,-856.2098 275.5411,-852.1294 268.0652,-856.7197 268.0652,-856.7197"/>
<ellipse fill="none" stroke="#000000" cx="264.8913" cy="-857.1276" rx="3.2" ry="3.2"/>
</g>
<!-- c_dechallenge_rechallenge -->
<g id="node3" class="node">
<title>c_dechallenge_rechallenge</title>
<g id="a_node3"><a xlink:href="../../tables/c_dechallenge_rechallenge.html" xlink:title="c_dechallenge_rechallenge" target="_top">
<polygon fill="#ffffff" stroke="transparent" points="239.5,-746.2 239.5,-807.2 458.5,-807.2 458.5,-746.2 239.5,-746.2"/>
<polygon fill="#f5f5f5" stroke="transparent" points="240,-783.7 240,-806.7 459,-806.7 459,-783.7 240,-783.7"/>
<polygon fill="none" stroke="#000000" points="240,-783.7 240,-806.7 459,-806.7 459,-783.7 240,-783.7"/>
<text text-anchor="start" x="245" y="-792.3" font-family="Helvetica,sans-Serif" font-weight="bold" font-size="11.00" fill="#000000">c_dechallenge_rechallenge</text>
<text text-anchor="start" x="424.5219" y="-791.8" font-family="Helvetica,sans-Serif" font-size="11.00" fill="#000000">[table]</text>
<polygon fill="none" stroke="#000000" points="240,-764.7 240,-783.7 459,-783.7 459,-764.7 240,-764.7"/>
<text text-anchor="start" x="243" y="-770.8" font-family="Helvetica,sans-Serif" font-size="11.00" fill="#000000">...</text>
<polygon fill="#ffffff" stroke="transparent" points="240,-745.7 240,-764.7 335,-764.7 335,-745.7 240,-745.7"/>
<polygon fill="none" stroke="#000000" points="240,-745.7 240,-764.7 335,-764.7 335,-745.7 240,-745.7"/>
<text text-anchor="start" x="243" y="-751.8" font-family="Helvetica,sans-Serif" font-size="11.00" fill="#000000">&lt; 3</text>
<polygon fill="#ffffff" stroke="transparent" points="335,-745.7 335,-764.7 410,-764.7 410,-745.7 335,-745.7"/>
<polygon fill="none" stroke="#000000" points="335,-745.7 335,-764.7 410,-764.7 410,-745.7 335,-745.7"/>
<text text-anchor="start" x="374.6105" y="-751.8" font-family="Helvetica,sans-Serif" font-size="11.00" fill="#000000">0 rows</text>
<polygon fill="#ffffff" stroke="transparent" points="410,-745.7 410,-764.7 459,-764.7 459,-745.7 410,-745.7"/>
<polygon fill="none" stroke="#000000" points="410,-745.7 410,-764.7 459,-764.7 459,-745.7 410,-745.7"/>
<text text-anchor="start" x="449.8862" y="-751.8" font-family="Helvetica,sans-Serif" font-size="11.00" fill="#000000"> &#160;</text>
</a>
</g>
</g>
<!-- c_dechallenge_rechallenge&#45;&gt;cg_cohort_definition -->
<g id="edge3" class="edge">
<title>c_dechallenge_rechallenge:w&#45;&gt;cg_cohort_definition:e</title>
<path fill="none" stroke="#000000" d="M226.7365,-767.8867C178.0766,-723.2262 252.2619,-440.1219 183.5,-445.7"/>
<polygon fill="#000000" stroke="#000000" points="232.6729,-770.4885 238.5548,-776.9972 236.3364,-772.0943 240,-773.7 240,-773.7 240,-773.7 236.3364,-772.0943 241.4452,-770.4028 232.6729,-770.4885 232.6729,-770.4885"/>
<ellipse fill="none" stroke="#000000" cx="229.742" cy="-769.2039" rx="3.2" ry="3.2"/>
</g>
<!-- c_dechallenge_rechallenge&#45;&gt;cg_cohort_definition -->
<g id="edge4" class="edge">
<title>c_dechallenge_rechallenge:w&#45;&gt;cg_cohort_definition:e</title>
<path fill="none" stroke="#000000" d="M225.8311,-769.7584C179.006,-732.5937 251.8285,-452.1668 183.5,-445.7"/>
<polygon fill="#000000" stroke="#000000" points="232.2927,-771.5559 239.0351,-777.1683 236.1463,-772.6279 240,-773.7 240,-773.7 240,-773.7 236.1463,-772.6279 240.9649,-770.2317 232.2927,-771.5559 232.2927,-771.5559"/>
<ellipse fill="none" stroke="#000000" cx="229.2097" cy="-770.6982" rx="3.2" ry="3.2"/>
</g>
<!-- cg_cohort_count -->
<g id="node4" class="node">
<title>cg_cohort_count</title>
<g id="a_node4"><a xlink:href="../../tables/cg_cohort_count.html" xlink:title="cg_cohort_count" target="_top">
<polygon fill="#ffffff" stroke="transparent" points="275,-664.2 275,-725.2 423,-725.2 423,-664.2 275,-664.2"/>
<polygon fill="#f5f5f5" stroke="transparent" points="275,-701.7 275,-724.7 423,-724.7 423,-701.7 275,-701.7"/>
<polygon fill="none" stroke="#000000" points="275,-701.7 275,-724.7 423,-724.7 423,-701.7 275,-701.7"/>
<text text-anchor="start" x="280" y="-710.3" font-family="Helvetica,sans-Serif" font-weight="bold" font-size="11.00" fill="#000000">cg_cohort_count</text>
<text text-anchor="start" x="388.5219" y="-709.8" font-family="Helvetica,sans-Serif" font-size="11.00" fill="#000000">[table]</text>
<polygon fill="none" stroke="#000000" points="275,-682.7 275,-701.7 423,-701.7 423,-682.7 275,-682.7"/>
<text text-anchor="start" x="278" y="-688.8" font-family="Helvetica,sans-Serif" font-size="11.00" fill="#000000">...</text>
<polygon fill="#ffffff" stroke="transparent" points="275,-663.7 275,-682.7 334,-682.7 334,-663.7 275,-663.7"/>
<polygon fill="none" stroke="#000000" points="275,-663.7 275,-682.7 334,-682.7 334,-663.7 275,-663.7"/>
<text text-anchor="start" x="278" y="-669.8" font-family="Helvetica,sans-Serif" font-size="11.00" fill="#000000">&lt; 2</text>
<polygon fill="#ffffff" stroke="transparent" points="334,-663.7 334,-682.7 391,-682.7 391,-663.7 334,-663.7"/>
<polygon fill="none" stroke="#000000" points="334,-663.7 334,-682.7 391,-682.7 391,-663.7 334,-663.7"/>
<text text-anchor="start" x="355.6105" y="-669.8" font-family="Helvetica,sans-Serif" font-size="11.00" fill="#000000">0 rows</text>
<polygon fill="#ffffff" stroke="transparent" points="391,-663.7 391,-682.7 423,-682.7 423,-663.7 391,-663.7"/>
<polygon fill="none" stroke="#000000" points="391,-663.7 391,-682.7 423,-682.7 423,-663.7 391,-663.7"/>
<text text-anchor="start" x="413.8862" y="-669.8" font-family="Helvetica,sans-Serif" font-size="11.00" fill="#000000"> &#160;</text>
</a>
</g>
</g>
<!-- cg_cohort_count&#45;&gt;cg_cohort_definition -->
<g id="edge5" class="edge">
<title>cg_cohort_count:w&#45;&gt;cg_cohort_definition:e</title>
<path fill="none" stroke="#000000" d="M260.5846,-690.1211C243.4502,-685.8273 236.1088,-672.955 224,-653.7 198.9316,-613.8369 230.5903,-445.7 183.5,-445.7"/>
<polygon fill="#000000" stroke="#000000" points="267.0476,-690.8289 274.608,-695.2786 271.0238,-691.2645 275,-691.7 275,-691.7 275,-691.7 271.0238,-691.2645 275.392,-688.1214 267.0476,-690.8289 267.0476,-690.8289"/>
<ellipse fill="none" stroke="#000000" cx="263.8666" cy="-690.4805" rx="3.2" ry="3.2"/>
</g>
<!-- cg_cohort_inclusion -->
<g id="node5" class="node">
<title>cg_cohort_inclusion</title>
<g id="a_node5"><a xlink:href="../../tables/cg_cohort_inclusion.html" xlink:title="cg_cohort_inclusion" target="_top">
<polygon fill="#ffffff" stroke="transparent" points="264,-582.2 264,-643.2 434,-643.2 434,-582.2 264,-582.2"/>
<polygon fill="#f5f5f5" stroke="transparent" points="264,-619.7 264,-642.7 434,-642.7 434,-619.7 264,-619.7"/>
<polygon fill="none" stroke="#000000" points="264,-619.7 264,-642.7 434,-642.7 434,-619.7 264,-619.7"/>
<text text-anchor="start" x="269" y="-628.3" font-family="Helvetica,sans-Serif" font-weight="bold" font-size="11.00" fill="#000000">cg_cohort_inclusion</text>
<text text-anchor="start" x="399.5219" y="-627.8" font-family="Helvetica,sans-Serif" font-size="11.00" fill="#000000">[table]</text>
<polygon fill="none" stroke="#000000" points="264,-600.7 264,-619.7 434,-619.7 434,-600.7 264,-600.7"/>
<text text-anchor="start" x="267" y="-606.8" font-family="Helvetica,sans-Serif" font-size="11.00" fill="#000000">...</text>
<polygon fill="#ffffff" stroke="transparent" points="264,-581.7 264,-600.7 334,-600.7 334,-581.7 264,-581.7"/>
<polygon fill="none" stroke="#000000" points="264,-581.7 264,-600.7 334,-600.7 334,-581.7 264,-581.7"/>
<text text-anchor="start" x="267" y="-587.8" font-family="Helvetica,sans-Serif" font-size="11.00" fill="#000000">&lt; 1</text>
<polygon fill="#ffffff" stroke="transparent" points="334,-581.7 334,-600.7 397,-600.7 397,-581.7 334,-581.7"/>
<polygon fill="none" stroke="#000000" points="334,-581.7 334,-600.7 397,-600.7 397,-581.7 334,-581.7"/>
<text text-anchor="start" x="361.6105" y="-587.8" font-family="Helvetica,sans-Serif" font-size="11.00" fill="#000000">0 rows</text>
<polygon fill="#ffffff" stroke="transparent" points="397,-581.7 397,-600.7 434,-600.7 434,-581.7 397,-581.7"/>
<polygon fill="none" stroke="#000000" points="397,-581.7 397,-600.7 434,-600.7 434,-581.7 397,-581.7"/>
<text text-anchor="start" x="424.8862" y="-587.8" font-family="Helvetica,sans-Serif" font-size="11.00" fill="#000000"> &#160;</text>
</a>
</g>
</g>
<!-- cg_cohort_inclusion&#45;&gt;cg_cohort_definition -->
<g id="edge6" class="edge">
<title>cg_cohort_inclusion:w&#45;&gt;cg_cohort_definition:e</title>
<path fill="none" stroke="#000000" d="M249.6061,-606.8616C237.6781,-601.1438 233.8867,-587.434 224,-571.7 192.7041,-521.8947 242.3218,-445.7 183.5,-445.7"/>
<polygon fill="#000000" stroke="#000000" points="256.1511,-608.1522 263.3035,-613.232 260.0756,-608.9261 264,-609.7 264,-609.7 264,-609.7 260.0756,-608.9261 264.6965,-606.168 256.1511,-608.1522 256.1511,-608.1522"/>
<ellipse fill="none" stroke="#000000" cx="253.0116" cy="-607.5331" rx="3.2" ry="3.2"/>
</g>
<!-- cg_cohort_summary_stats -->
<g id="node6" class="node">
<title>cg_cohort_summary_stats</title>
<g id="a_node6"><a xlink:href="../../tables/cg_cohort_summary_stats.html" xlink:title="cg_cohort_summary_stats" target="_top">
<polygon fill="#ffffff" stroke="transparent" points="243,-500.2 243,-561.2 455,-561.2 455,-500.2 243,-500.2"/>
<polygon fill="#f5f5f5" stroke="transparent" points="243,-537.7 243,-560.7 455,-560.7 455,-537.7 243,-537.7"/>
<polygon fill="none" stroke="#000000" points="243,-537.7 243,-560.7 455,-560.7 455,-537.7 243,-537.7"/>
<text text-anchor="start" x="248" y="-546.3" font-family="Helvetica,sans-Serif" font-weight="bold" font-size="11.00" fill="#000000">cg_cohort_summary_stats</text>
<text text-anchor="start" x="420.5219" y="-545.8" font-family="Helvetica,sans-Serif" font-size="11.00" fill="#000000">[table]</text>
<polygon fill="none" stroke="#000000" points="243,-518.7 243,-537.7 455,-537.7 455,-518.7 243,-518.7"/>
<text text-anchor="start" x="246" y="-524.8" font-family="Helvetica,sans-Serif" font-size="11.00" fill="#000000">...</text>
<polygon fill="#ffffff" stroke="transparent" points="243,-499.7 243,-518.7 334,-518.7 334,-499.7 243,-499.7"/>
<polygon fill="none" stroke="#000000" points="243,-499.7 243,-518.7 334,-518.7 334,-499.7 243,-499.7"/>
<text text-anchor="start" x="246" y="-505.8" font-family="Helvetica,sans-Serif" font-size="11.00" fill="#000000">&lt; 2</text>
<polygon fill="#ffffff" stroke="transparent" points="334,-499.7 334,-518.7 407,-518.7 407,-499.7 334,-499.7"/>
<polygon fill="none" stroke="#000000" points="334,-499.7 334,-518.7 407,-518.7 407,-499.7 334,-499.7"/>
<text text-anchor="start" x="371.6105" y="-505.8" font-family="Helvetica,sans-Serif" font-size="11.00" fill="#000000">0 rows</text>
<polygon fill="#ffffff" stroke="transparent" points="407,-499.7 407,-518.7 455,-518.7 455,-499.7 407,-499.7"/>
<polygon fill="none" stroke="#000000" points="407,-499.7 407,-518.7 455,-518.7 455,-499.7 407,-499.7"/>
<text text-anchor="start" x="445.8862" y="-505.8" font-family="Helvetica,sans-Serif" font-size="11.00" fill="#000000"> &#160;</text>
</a>
</g>
</g>
<!-- cg_cohort_summary_stats&#45;&gt;cg_cohort_definition -->
<g id="edge7" class="edge">
<title>cg_cohort_summary_stats:w&#45;&gt;cg_cohort_definition:e</title>
<path fill="none" stroke="#000000" d="M229.031,-523.9636C204.5938,-507.922 222.7235,-445.7 183.5,-445.7"/>
<polygon fill="#000000" stroke="#000000" points="235.2717,-525.6328 242.0698,-531.1777 239.1358,-526.6664 243,-527.7 243,-527.7 243,-527.7 239.1358,-526.6664 243.9302,-524.2223 235.2717,-525.6328 235.2717,-525.6328"/>
<ellipse fill="none" stroke="#000000" cx="232.1804" cy="-524.8059" rx="3.2" ry="3.2"/>
</g>
<!-- ci_incidence_summary -->
<g id="node7" class="node">
<title>ci_incidence_summary</title>
<g id="a_node7"><a xlink:href="../../tables/ci_incidence_summary.html" xlink:title="ci_incidence_summary" target="_top">
<polygon fill="#ffffff" stroke="transparent" points="254.5,-418.2 254.5,-479.2 443.5,-479.2 443.5,-418.2 254.5,-418.2"/>
<polygon fill="#f5f5f5" stroke="transparent" points="255,-455.7 255,-478.7 444,-478.7 444,-455.7 255,-455.7"/>
<polygon fill="none" stroke="#000000" points="255,-455.7 255,-478.7 444,-478.7 444,-455.7 255,-455.7"/>
<text text-anchor="start" x="260" y="-464.3" font-family="Helvetica,sans-Serif" font-weight="bold" font-size="11.00" fill="#000000">ci_incidence_summary</text>
<text text-anchor="start" x="409.5219" y="-463.8" font-family="Helvetica,sans-Serif" font-size="11.00" fill="#000000">[table]</text>
<polygon fill="none" stroke="#000000" points="255,-436.7 255,-455.7 444,-455.7 444,-436.7 255,-436.7"/>
<text text-anchor="start" x="258" y="-442.8" font-family="Helvetica,sans-Serif" font-size="11.00" fill="#000000">...</text>
<polygon fill="#ffffff" stroke="transparent" points="255,-417.7 255,-436.7 338,-436.7 338,-417.7 255,-417.7"/>
<polygon fill="none" stroke="#000000" points="255,-417.7 255,-436.7 338,-436.7 338,-417.7 255,-417.7"/>
<text text-anchor="start" x="258" y="-423.8" font-family="Helvetica,sans-Serif" font-size="11.00" fill="#000000">&lt; 10</text>
<polygon fill="#ffffff" stroke="transparent" points="338,-417.7 338,-436.7 404,-436.7 404,-417.7 338,-417.7"/>
<polygon fill="none" stroke="#000000" points="338,-417.7 338,-436.7 404,-436.7 404,-417.7 338,-417.7"/>
<text text-anchor="start" x="368.6105" y="-423.8" font-family="Helvetica,sans-Serif" font-size="11.00" fill="#000000">0 rows</text>
<polygon fill="#ffffff" stroke="transparent" points="404,-417.7 404,-436.7 444,-436.7 444,-417.7 404,-417.7"/>
<polygon fill="none" stroke="#000000" points="404,-417.7 404,-436.7 444,-436.7 444,-417.7 404,-417.7"/>
<text text-anchor="start" x="434.8862" y="-423.8" font-family="Helvetica,sans-Serif" font-size="11.00" fill="#000000"> &#160;</text>
</a>
</g>
</g>
<!-- ci_incidence_summary&#45;&gt;cg_cohort_definition -->
<g id="edge8" class="edge">
<title>ci_incidence_summary:w&#45;&gt;cg_cohort_definition:e</title>
<path fill="none" stroke="#000000" d="M240.4847,-445.7C219.7873,-445.7 209.816,-445.7 183.5,-445.7"/>
<polygon fill="#000000" stroke="#000000" points="247,-445.7001 255,-449.3 251,-445.7 255,-445.7 255,-445.7 255,-445.7 251,-445.7 255,-442.1 247,-445.7001 247,-445.7001"/>
<ellipse fill="none" stroke="#000000" cx="243.8" cy="-445.7001" rx="3.2" ry="3.2"/>
</g>
<!-- cm_diagnostics_summary -->
<g id="node8" class="node">
<title>cm_diagnostics_summary</title>
<g id="a_node8"><a xlink:href="../../tables/cm_diagnostics_summary.html" xlink:title="cm_diagnostics_summary" target="_top">
<polygon fill="#ffffff" stroke="transparent" points="244,-336.2 244,-397.2 454,-397.2 454,-336.2 244,-336.2"/>
<polygon fill="#f5f5f5" stroke="transparent" points="244,-373.7 244,-396.7 454,-396.7 454,-373.7 244,-373.7"/>
<polygon fill="none" stroke="#000000" points="244,-373.7 244,-396.7 454,-396.7 454,-373.7 244,-373.7"/>
<text text-anchor="start" x="249" y="-382.3" font-family="Helvetica,sans-Serif" font-weight="bold" font-size="11.00" fill="#000000">cm_diagnostics_summary</text>
<text text-anchor="start" x="419.5219" y="-381.8" font-family="Helvetica,sans-Serif" font-size="11.00" fill="#000000">[table]</text>
<polygon fill="none" stroke="#000000" points="244,-354.7 244,-373.7 454,-373.7 454,-354.7 244,-354.7"/>
<text text-anchor="start" x="247" y="-360.8" font-family="Helvetica,sans-Serif" font-size="11.00" fill="#000000">...</text>
<polygon fill="#ffffff" stroke="transparent" points="244,-335.7 244,-354.7 330,-354.7 330,-335.7 244,-335.7"/>
<polygon fill="none" stroke="#000000" points="244,-335.7 244,-354.7 330,-354.7 330,-335.7 244,-335.7"/>
<text text-anchor="start" x="247" y="-341.8" font-family="Helvetica,sans-Serif" font-size="11.00" fill="#000000">&lt; 5</text>
<polygon fill="#ffffff" stroke="transparent" points="330,-335.7 330,-354.7 400,-354.7 400,-335.7 330,-335.7"/>
<polygon fill="none" stroke="#000000" points="330,-335.7 330,-354.7 400,-354.7 400,-335.7 330,-335.7"/>
<text text-anchor="start" x="364.6105" y="-341.8" font-family="Helvetica,sans-Serif" font-size="11.00" fill="#000000">0 rows</text>
<polygon fill="#ffffff" stroke="transparent" points="400,-335.7 400,-354.7 454,-354.7 454,-335.7 400,-335.7"/>
<polygon fill="none" stroke="#000000" points="400,-335.7 400,-354.7 454,-354.7 454,-335.7 400,-335.7"/>
<text text-anchor="start" x="435.4053" y="-341.8" font-family="Helvetica,sans-Serif" font-size="11.00" fill="#000000">1 &gt;</text>
</a>
</g>
</g>
<!-- cm_diagnostics_summary&#45;&gt;cg_cohort_definition -->
<g id="edge9" class="edge">
<title>cm_diagnostics_summary:w&#45;&gt;cg_cohort_definition:e</title>
<path fill="none" stroke="#000000" d="M229.5899,-363.1633C205.3704,-371.2641 222.7752,-434.4266 183.5,-445.7"/>
<polygon fill="#000000" stroke="#000000" points="236.0055,-363.4022 243.866,-367.2975 240.0028,-363.5511 244,-363.7 244,-363.7 244,-363.7 240.0028,-363.5511 244.134,-360.1025 236.0055,-363.4022 236.0055,-363.4022"/>
<ellipse fill="none" stroke="#000000" cx="232.8078" cy="-363.283" rx="3.2" ry="3.2"/>
</g>
<!-- cm_diagnostics_summary&#45;&gt;cg_cohort_definition -->
<g id="edge10" class="edge">
<title>cm_diagnostics_summary:w&#45;&gt;cg_cohort_definition:e</title>
<path fill="none" stroke="#000000" d="M229.9198,-367.4364C205.2124,-383.478 222.9521,-445.7 183.5,-445.7"/>
<polygon fill="#000000" stroke="#000000" points="236.2676,-365.752 244.9234,-367.1796 240.1338,-364.726 244,-363.7 244,-363.7 244,-363.7 240.1338,-364.726 243.0766,-360.2204 236.2676,-365.752 236.2676,-365.752"/>
<ellipse fill="none" stroke="#000000" cx="233.1747" cy="-366.5728" rx="3.2" ry="3.2"/>
</g>
<!-- cm_diagnostics_summary&#45;&gt;cg_cohort_definition -->
<g id="edge11" class="edge">
<title>cm_diagnostics_summary:w&#45;&gt;cg_cohort_definition:e</title>
<path fill="none" stroke="#000000" d="M231.2909,-370.5359C204.5576,-394.059 223.6597,-457.2273 183.5,-445.7"/>
<polygon fill="#000000" stroke="#000000" points="236.9545,-367.4896 245.7053,-366.8705 240.4772,-365.5948 244,-363.7 244,-363.7 244,-363.7 240.4772,-365.5948 242.2947,-360.5295 236.9545,-367.4896 236.9545,-367.4896"/>
<ellipse fill="none" stroke="#000000" cx="234.1363" cy="-369.0055" rx="3.2" ry="3.2"/>
</g>
<!-- plp_cohorts -->
<g id="node9" class="node">
<title>plp_cohorts</title>
<g id="a_node9"><a xlink:href="../../tables/plp_cohorts.html" xlink:title="plp_cohorts" target="_top">
<polygon fill="#ffffff" stroke="transparent" points="239,-202.7 239,-314.7 459,-314.7 459,-202.7 239,-202.7"/>
<polygon fill="#f5f5f5" stroke="transparent" points="241,-289.7 241,-312.7 457,-312.7 457,-289.7 241,-289.7"/>
<polygon fill="none" stroke="#000000" points="241,-289.7 241,-312.7 457,-312.7 457,-289.7 241,-289.7"/>
<text text-anchor="start" x="246" y="-298.3" font-family="Helvetica,sans-Serif" font-weight="bold" font-size="11.00" fill="#000000">plp_cohorts</text>
<text text-anchor="start" x="422.0437" y="-297.8" font-family="Helvetica,sans-Serif" font-size="11.00" fill="#000000">[table]</text>
<polygon fill="none" stroke="#000000" points="241,-267.7 241,-289.7 395,-289.7 395,-267.7 241,-267.7"/>
<image xlink:href="../../images/primaryKeys.png" width="11px" height="12px" preserveAspectRatio="xMinYMin meet" x="246" y="-284.7"/>
<text text-anchor="start" x="261" y="-274.8" font-family="Helvetica,sans-Serif" font-size="11.00" fill="#000000">cohort_definition_id</text>
<polygon fill="none" stroke="#000000" points="395,-267.7 395,-289.7 457,-289.7 457,-267.7 395,-267.7"/>
<text text-anchor="start" x="397.878" y="-275.4" font-family="Helvetica,sans-Serif" font-size="11.00" fill="#000000">unknown[0]</text>
<polygon fill="none" stroke="#000000" points="241,-245.7 241,-267.7 395,-267.7 395,-245.7 241,-245.7"/>
<text text-anchor="start" x="261" y="-252.8" font-family="Helvetica,sans-Serif" font-size="11.00" fill="#000000">cohort_id</text>
<polygon fill="none" stroke="#000000" points="395,-245.7 395,-267.7 457,-267.7 457,-245.7 395,-245.7"/>
<text text-anchor="start" x="397.878" y="-253.4" font-family="Helvetica,sans-Serif" font-size="11.00" fill="#000000">unknown[0]</text>
<polygon fill="none" stroke="#000000" points="241,-223.7 241,-245.7 395,-245.7 395,-223.7 241,-223.7"/>
<text text-anchor="start" x="261" y="-230.8" font-family="Helvetica,sans-Serif" font-size="11.00" fill="#000000">cohort_name</text>
<polygon fill="none" stroke="#000000" points="395,-223.7 395,-245.7 457,-245.7 457,-223.7 395,-223.7"/>
<text text-anchor="start" x="397.878" y="-231.4" font-family="Helvetica,sans-Serif" font-size="11.00" fill="#000000">unknown[0]</text>
<polygon fill="#ffffff" stroke="transparent" points="241,-204.7 241,-223.7 309,-223.7 309,-204.7 241,-204.7"/>
<polygon fill="none" stroke="#000000" points="241,-204.7 241,-223.7 309,-223.7 309,-204.7 241,-204.7"/>
<text text-anchor="start" x="244" y="-210.8" font-family="Helvetica,sans-Serif" font-size="11.00" fill="#000000">&lt; 1</text>
<polygon fill="#ffffff" stroke="transparent" points="309,-204.7 309,-223.7 395,-223.7 395,-204.7 309,-204.7"/>
<polygon fill="none" stroke="#000000" points="309,-204.7 309,-223.7 395,-223.7 395,-204.7 309,-204.7"/>
<text text-anchor="start" x="359.6105" y="-210.8" font-family="Helvetica,sans-Serif" font-size="11.00" fill="#000000">0 rows</text>
<polygon fill="#ffffff" stroke="transparent" points="395,-204.7 395,-223.7 457,-223.7 457,-204.7 395,-204.7"/>
<polygon fill="none" stroke="#000000" points="395,-204.7 395,-223.7 457,-223.7 457,-204.7 395,-204.7"/>
<text text-anchor="start" x="438.4053" y="-210.8" font-family="Helvetica,sans-Serif" font-size="11.00" fill="#000000">2 &gt;</text>
<polygon fill="none" stroke="#000000" stroke-width="2" points="240,-203.7 240,-313.7 458,-313.7 458,-203.7 240,-203.7"/>
</a>
</g>
</g>
<!-- plp_cohorts&#45;&gt;cg_cohort_definition -->
<g id="edge12" class="edge">
<title>plp_cohorts:w&#45;&gt;cg_cohort_definition:e</title>
<path fill="none" stroke="#000000" d="M230.3716,-279.9482C172.1476,-295.2303 258.0123,-445.7 183.5,-445.7"/>
<polygon fill="#000000" stroke="#000000" points="239.7389,-274.8206 240.6721,-282.766 239.083,-282.9527 238.1498,-275.0073 239.7389,-274.8206"/>
<polyline fill="none" stroke="#000000" points="241,-278.7 237.0273,-279.1666 "/>
<ellipse fill="none" stroke="#000000" cx="233.8491" cy="-279.5399" rx="3.2" ry="3.2"/>
</g>
<!-- plp_diagnostics -->
<g id="node10" class="node">
<title>plp_diagnostics</title>
<g id="a_node10"><a xlink:href="../../tables/plp_diagnostics.html" xlink:title="plp_diagnostics" target="_top">
<polygon fill="#ffffff" stroke="transparent" points="794,-284.2 794,-345.2 937,-345.2 937,-284.2 794,-284.2"/>
<polygon fill="#f5f5f5" stroke="transparent" points="794.5,-321.7 794.5,-344.7 937.5,-344.7 937.5,-321.7 794.5,-321.7"/>
<polygon fill="none" stroke="#000000" points="794.5,-321.7 794.5,-344.7 937.5,-344.7 937.5,-321.7 794.5,-321.7"/>
<text text-anchor="start" x="799.5" y="-330.3" font-family="Helvetica,sans-Serif" font-weight="bold" font-size="11.00" fill="#000000">plp_diagnostics</text>
<text text-anchor="start" x="903.0219" y="-329.8" font-family="Helvetica,sans-Serif" font-size="11.00" fill="#000000">[table]</text>
<polygon fill="none" stroke="#000000" points="794.5,-302.7 794.5,-321.7 937.5,-321.7 937.5,-302.7 794.5,-302.7"/>
<text text-anchor="start" x="797.5" y="-308.8" font-family="Helvetica,sans-Serif" font-size="11.00" fill="#000000">...</text>
<polygon fill="#ffffff" stroke="transparent" points="794.5,-283.7 794.5,-302.7 851.5,-302.7 851.5,-283.7 794.5,-283.7"/>
<polygon fill="none" stroke="#000000" points="794.5,-283.7 794.5,-302.7 851.5,-302.7 851.5,-283.7 794.5,-283.7"/>
<text text-anchor="start" x="797.5" y="-289.8" font-family="Helvetica,sans-Serif" font-size="11.00" fill="#000000">&lt; 3</text>
<polygon fill="#ffffff" stroke="transparent" points="851.5,-283.7 851.5,-302.7 907.5,-302.7 907.5,-283.7 851.5,-283.7"/>
<polygon fill="none" stroke="#000000" points="851.5,-283.7 851.5,-302.7 907.5,-302.7 907.5,-283.7 851.5,-283.7"/>
<text text-anchor="start" x="872.1105" y="-289.8" font-family="Helvetica,sans-Serif" font-size="11.00" fill="#000000">0 rows</text>
<polygon fill="#ffffff" stroke="transparent" points="907.5,-283.7 907.5,-302.7 937.5,-302.7 937.5,-283.7 907.5,-283.7"/>
<polygon fill="none" stroke="#000000" points="907.5,-283.7 907.5,-302.7 937.5,-302.7 937.5,-283.7 907.5,-283.7"/>
<text text-anchor="start" x="928.3862" y="-289.8" font-family="Helvetica,sans-Serif" font-size="11.00" fill="#000000"> &#160;</text>
</a>
</g>
</g>
<!-- plp_model_designs -->
<g id="node11" class="node">
<title>plp_model_designs</title>
<g id="a_node11"><a xlink:href="../../tables/plp_model_designs.html" xlink:title="plp_model_designs" target="_top">
<polygon fill="#ffffff" stroke="transparent" points="515,-219.2 515,-346.2 745,-346.2 745,-219.2 515,-219.2"/>
<polygon fill="#f5f5f5" stroke="transparent" points="515,-322.7 515,-345.7 745,-345.7 745,-322.7 515,-322.7"/>
<polygon fill="none" stroke="#000000" points="515,-322.7 515,-345.7 745,-345.7 745,-322.7 515,-322.7"/>
<text text-anchor="start" x="520" y="-331.3" font-family="Helvetica,sans-Serif" font-weight="bold" font-size="11.00" fill="#000000">plp_model_designs</text>
<text text-anchor="start" x="710.0437" y="-330.8" font-family="Helvetica,sans-Serif" font-size="11.00" fill="#000000">[table]</text>
<polygon fill="none" stroke="#000000" points="515,-300.7 515,-322.7 745,-322.7 745,-300.7 515,-300.7"/>
<image xlink:href="../../images/primaryKeys.png" width="11px" height="12px" preserveAspectRatio="xMinYMin meet" x="520" y="-317.7"/>
<text text-anchor="start" x="535" y="-307.8" font-family="Helvetica,sans-Serif" font-size="11.00" fill="#000000">model_design_id</text>
<polygon fill="none" stroke="#000000" points="515,-278.7 515,-300.7 745,-300.7 745,-278.7 515,-278.7"/>
<image xlink:href="../../images/foreignKeys.png" width="11px" height="12px" preserveAspectRatio="xMinYMin meet" x="520" y="-295.7"/>
<text text-anchor="start" x="535" y="-285.8" font-family="Helvetica,sans-Serif" font-size="11.00" fill="#000000">outcome_id</text>
<polygon fill="none" stroke="#000000" points="515,-256.7 515,-278.7 745,-278.7 745,-256.7 515,-256.7"/>
<image xlink:href="../../images/foreignKeys.png" width="11px" height="12px" preserveAspectRatio="xMinYMin meet" x="520" y="-273.7"/>
<text text-anchor="start" x="535" y="-263.8" font-family="Helvetica,sans-Serif" font-size="11.00" fill="#000000">target_id</text>
<polygon fill="none" stroke="#000000" points="515,-237.7 515,-256.7 745,-256.7 745,-237.7 515,-237.7"/>
<text text-anchor="start" x="518" y="-243.8" font-family="Helvetica,sans-Serif" font-size="11.00" fill="#000000">...</text>
<polygon fill="#ffffff" stroke="transparent" points="515,-218.7 515,-237.7 611,-237.7 611,-218.7 515,-218.7"/>
<polygon fill="none" stroke="#000000" points="515,-218.7 515,-237.7 611,-237.7 611,-218.7 515,-218.7"/>
<text text-anchor="start" x="518" y="-224.8" font-family="Helvetica,sans-Serif" font-size="11.00" fill="#000000">&lt; 2</text>
<polygon fill="#ffffff" stroke="transparent" points="611,-218.7 611,-237.7 686,-237.7 686,-218.7 611,-218.7"/>
<polygon fill="none" stroke="#000000" points="611,-218.7 611,-237.7 686,-237.7 686,-218.7 611,-218.7"/>
<text text-anchor="start" x="650.6105" y="-224.8" font-family="Helvetica,sans-Serif" font-size="11.00" fill="#000000">0 rows</text>
<polygon fill="#ffffff" stroke="transparent" points="686,-218.7 686,-237.7 745,-237.7 745,-218.7 686,-218.7"/>
<polygon fill="none" stroke="#000000" points="686,-218.7 686,-237.7 745,-237.7 745,-218.7 686,-218.7"/>
<text text-anchor="start" x="726.4053" y="-224.8" font-family="Helvetica,sans-Serif" font-size="11.00" fill="#000000">1 &gt;</text>
</a>
</g>
</g>
<!-- plp_diagnostics&#45;&gt;plp_model_designs -->
<g id="edge13" class="edge">
<title>plp_diagnostics:w&#45;&gt;plp_model_designs:e</title>
<path fill="none" stroke="#000000" d="M779.8428,-311.7C768.4139,-311.7 761.1563,-311.7 745,-311.7"/>
<polygon fill="#000000" stroke="#000000" points="786.5,-311.7001 794.5,-315.3 790.5,-311.7 794.5,-311.7 794.5,-311.7 794.5,-311.7 790.5,-311.7 794.5,-308.1 786.5,-311.7001 786.5,-311.7001"/>
<ellipse fill="none" stroke="#000000" cx="783.3" cy="-311.7001" rx="3.2" ry="3.2"/>
</g>
<!-- plp_model_designs&#45;&gt;plp_cohorts -->
<g id="edge14" class="edge">
<title>plp_model_designs:w&#45;&gt;plp_cohorts:e</title>
<path fill="none" stroke="#000000" d="M500.3215,-288.3512C485.3542,-285.4139 477.4979,-278.7 457,-278.7"/>
<polygon fill="#000000" stroke="#000000" points="507.0336,-288.9679 514.6706,-293.2849 511.0168,-289.334 515,-289.7 515,-289.7 515,-289.7 511.0168,-289.334 515.3294,-286.1151 507.0336,-288.9679 507.0336,-288.9679"/>
<ellipse fill="none" stroke="#000000" cx="503.847" cy="-288.6751" rx="3.2" ry="3.2"/>
</g>
<!-- plp_model_designs&#45;&gt;plp_cohorts -->
<g id="edge15" class="edge">
<title>plp_model_designs:w&#45;&gt;plp_cohorts:e</title>
<path fill="none" stroke="#000000" d="M500.3215,-269.0488C485.3542,-271.9861 477.4979,-278.7 457,-278.7"/>
<polygon fill="#000000" stroke="#000000" points="507.0336,-268.4321 515.3294,-271.2849 511.0168,-268.066 515,-267.7 515,-267.7 515,-267.7 511.0168,-268.066 514.6706,-264.1151 507.0336,-268.4321 507.0336,-268.4321"/>
<ellipse fill="none" stroke="#000000" cx="503.847" cy="-268.7249" rx="3.2" ry="3.2"/>
</g>
<!-- plp_performances -->
<g id="node12" class="node">
<title>plp_performances</title>
<g id="a_node12"><a xlink:href="../../tables/plp_performances.html" xlink:title="plp_performances" target="_top">
<polygon fill="#ffffff" stroke="transparent" points="269.5,-120.2 269.5,-181.2 428.5,-181.2 428.5,-120.2 269.5,-120.2"/>
<polygon fill="#f5f5f5" stroke="transparent" points="270,-157.7 270,-180.7 429,-180.7 429,-157.7 270,-157.7"/>
<polygon fill="none" stroke="#000000" points="270,-157.7 270,-180.7 429,-180.7 429,-157.7 270,-157.7"/>
<text text-anchor="start" x="275" y="-166.3" font-family="Helvetica,sans-Serif" font-weight="bold" font-size="11.00" fill="#000000">plp_performances</text>
<text text-anchor="start" x="394.5219" y="-165.8" font-family="Helvetica,sans-Serif" font-size="11.00" fill="#000000">[table]</text>
<polygon fill="none" stroke="#000000" points="270,-138.7 270,-157.7 429,-157.7 429,-138.7 270,-138.7"/>
<text text-anchor="start" x="273" y="-144.8" font-family="Helvetica,sans-Serif" font-size="11.00" fill="#000000">...</text>
<polygon fill="#ffffff" stroke="transparent" points="270,-119.7 270,-138.7 335,-138.7 335,-119.7 270,-119.7"/>
<polygon fill="none" stroke="#000000" points="270,-119.7 270,-138.7 335,-138.7 335,-119.7 270,-119.7"/>
<text text-anchor="start" x="273" y="-125.8" font-family="Helvetica,sans-Serif" font-size="11.00" fill="#000000">&lt; 4</text>
<polygon fill="#ffffff" stroke="transparent" points="335,-119.7 335,-138.7 395,-138.7 395,-119.7 335,-119.7"/>
<polygon fill="none" stroke="#000000" points="335,-119.7 335,-138.7 395,-138.7 395,-119.7 335,-119.7"/>
<text text-anchor="start" x="359.6105" y="-125.8" font-family="Helvetica,sans-Serif" font-size="11.00" fill="#000000">0 rows</text>
<polygon fill="#ffffff" stroke="transparent" points="395,-119.7 395,-138.7 429,-138.7 429,-119.7 395,-119.7"/>
<polygon fill="none" stroke="#000000" points="395,-119.7 395,-138.7 429,-138.7 429,-119.7 395,-119.7"/>
<text text-anchor="start" x="419.8862" y="-125.8" font-family="Helvetica,sans-Serif" font-size="11.00" fill="#000000"> &#160;</text>
</a>
</g>
</g>
<!-- plp_performances&#45;&gt;cg_cohort_definition -->
<g id="edge16" class="edge">
<title>plp_performances:w&#45;&gt;cg_cohort_definition:e</title>
<path fill="none" stroke="#000000" d="M255.3066,-147.0465C239.3045,-149.9017 234.475,-166.459 224,-186.7 197.8305,-237.2678 240.438,-439.7 183.5,-445.7"/>
<polygon fill="#000000" stroke="#000000" points="262.0079,-147.3445 269.84,-151.2964 266.004,-147.5223 270,-147.7 270,-147.7 270,-147.7 266.004,-147.5223 270.16,-144.1036 262.0079,-147.3445 262.0079,-147.3445"/>
<ellipse fill="none" stroke="#000000" cx="258.8111" cy="-147.2023" rx="3.2" ry="3.2"/>
</g>
<!-- plp_performances&#45;&gt;cg_cohort_definition -->
<g id="edge17" class="edge">
<title>plp_performances:w&#45;&gt;cg_cohort_definition:e</title>
<path fill="none" stroke="#000000" d="M256.261,-152.9215C239.4917,-162.2538 234.6804,-179.0621 224,-199.7 197.8305,-250.2678 240.438,-452.7 183.5,-445.7"/>
<polygon fill="#000000" stroke="#000000" points="262.5219,-150.5421 271.279,-151.0652 266.2609,-149.1211 270,-147.7 270,-147.7 270,-147.7 266.2609,-149.1211 268.721,-144.3348 262.5219,-150.5421 262.5219,-150.5421"/>
<ellipse fill="none" stroke="#000000" cx="259.5306" cy="-151.679" rx="3.2" ry="3.2"/>
</g>
<!-- sccs_exposures_outcome_set -->
<g id="node13" class="node">
<title>sccs_exposures_outcome_set</title>
<g id="a_node13"><a xlink:href="../../tables/sccs_exposures_outcome_set.html" xlink:title="sccs_exposures_outcome_set" target="_top">
<polygon fill="#ffffff" stroke="transparent" points="232,-38.2 232,-99.2 466,-99.2 466,-38.2 232,-38.2"/>
<polygon fill="#f5f5f5" stroke="transparent" points="232,-75.7 232,-98.7 466,-98.7 466,-75.7 232,-75.7"/>
<polygon fill="none" stroke="#000000" points="232,-75.7 232,-98.7 466,-98.7 466,-75.7 232,-75.7"/>
<text text-anchor="start" x="237" y="-84.3" font-family="Helvetica,sans-Serif" font-weight="bold" font-size="11.00" fill="#000000">sccs_exposures_outcome_set</text>
<text text-anchor="start" x="431.5219" y="-83.8" font-family="Helvetica,sans-Serif" font-size="11.00" fill="#000000">[table]</text>
<polygon fill="none" stroke="#000000" points="232,-56.7 232,-75.7 466,-75.7 466,-56.7 232,-56.7"/>
<text text-anchor="start" x="235" y="-62.8" font-family="Helvetica,sans-Serif" font-size="11.00" fill="#000000">...</text>
<polygon fill="#ffffff" stroke="transparent" points="232,-37.7 232,-56.7 327,-56.7 327,-37.7 232,-37.7"/>
<polygon fill="none" stroke="#000000" points="232,-37.7 232,-56.7 327,-56.7 327,-37.7 232,-37.7"/>
<text text-anchor="start" x="235" y="-43.8" font-family="Helvetica,sans-Serif" font-size="11.00" fill="#000000">&lt; 3</text>
<polygon fill="#ffffff" stroke="transparent" points="327,-37.7 327,-56.7 402,-56.7 402,-37.7 327,-37.7"/>
<polygon fill="none" stroke="#000000" points="327,-37.7 327,-56.7 402,-56.7 402,-37.7 327,-37.7"/>
<text text-anchor="start" x="366.6105" y="-43.8" font-family="Helvetica,sans-Serif" font-size="11.00" fill="#000000">0 rows</text>
<polygon fill="#ffffff" stroke="transparent" points="402,-37.7 402,-56.7 466,-56.7 466,-37.7 402,-37.7"/>
<polygon fill="none" stroke="#000000" points="402,-37.7 402,-56.7 466,-56.7 466,-37.7 402,-37.7"/>
<text text-anchor="start" x="441.2904" y="-43.8" font-family="Helvetica,sans-Serif" font-size="11.00" fill="#000000">10 &gt;</text>
</a>
</g>
</g>
<!-- sccs_exposures_outcome_set&#45;&gt;cg_cohort_definition -->
<g id="edge18" class="edge">
<title>sccs_exposures_outcome_set:w&#45;&gt;cg_cohort_definition:e</title>
<path fill="none" stroke="#000000" d="M218.007,-70.2323C161.7066,-113.1058 263.1426,-445.7 183.5,-445.7"/>
<polygon fill="#000000" stroke="#000000" points="224.3893,-68.1651 233.1093,-69.1248 228.1946,-66.9326 232,-65.7 232,-65.7 232,-65.7 228.1946,-66.9326 230.8907,-62.2752 224.3893,-68.1651 224.3893,-68.1651"/>
<ellipse fill="none" stroke="#000000" cx="221.345" cy="-69.1512" rx="3.2" ry="3.2"/>
</g>
</g>
</svg>
