<?xml version="1.0" encoding="UTF-8" standalone="no"?>
<!DOCTYPE svg PUBLIC "-//W3C//DTD SVG 1.1//EN"
 "http://www.w3.org/Graphics/SVG/1.1/DTD/svg11.dtd">
<!-- Generated by graphviz version 2.40.1 (20161225.0304)
 -->
<!-- Title: oneDegreeRelationshipsDiagram Pages: 1 -->
<svg width="753pt" height="360pt"
 viewBox="0.00 0.00 753.00 360.20" xmlns="http://www.w3.org/2000/svg" xmlns:xlink="http://www.w3.org/1999/xlink">
<g id="graph0" class="graph" transform="scale(1 1) rotate(0) translate(4 356.2)">
<title>oneDegreeRelationshipsDiagram</title>
<polygon fill="#ffffff" stroke="transparent" points="-4,4 -4,-356.2 749,-356.2 749,4 -4,4"/>
<text text-anchor="middle" x="72.4936" y="-7.3" font-family="Helvetica,sans-Serif" font-size="11.00" fill="#000000">Generated by SchemaSpy</text>
<!-- plp_diagnostics -->
<g id="node1" class="node">
<title>plp_diagnostics</title>
<g id="a_node1"><a xlink:href="../../tables/plp_diagnostics.html" xlink:title="plp_diagnostics" target="_top">
<polygon fill="#ffffff" stroke="transparent" points="577,-219.7 577,-346.7 737,-346.7 737,-219.7 577,-219.7"/>
<polygon fill="#f5f5f5" stroke="transparent" points="577,-323.2 577,-346.2 737,-346.2 737,-323.2 577,-323.2"/>
<polygon fill="none" stroke="#000000" points="577,-323.2 577,-346.2 737,-346.2 737,-323.2 577,-323.2"/>
<text text-anchor="start" x="582" y="-331.8" font-family="Helvetica,sans-Serif" font-weight="bold" font-size="11.00" fill="#000000">plp_diagnostics</text>
<text text-anchor="start" x="702.0437" y="-331.3" font-family="Helvetica,sans-Serif" font-size="11.00" fill="#000000">[table]</text>
<polygon fill="none" stroke="#000000" points="577,-301.2 577,-323.2 737,-323.2 737,-301.2 577,-301.2"/>
<image xlink:href="../../images/foreignKeys.png" width="11px" height="12px" preserveAspectRatio="xMinYMin meet" x="582" y="-318.2"/>
<text text-anchor="start" x="597" y="-308.3" font-family="Helvetica,sans-Serif" font-size="11.00" fill="#000000">database_id</text>
<polygon fill="none" stroke="#000000" points="577,-279.2 577,-301.2 737,-301.2 737,-279.2 577,-279.2"/>
<image xlink:href="../../images/foreignKeys.png" width="11px" height="12px" preserveAspectRatio="xMinYMin meet" x="582" y="-296.2"/>
<text text-anchor="start" x="597" y="-286.3" font-family="Helvetica,sans-Serif" font-size="11.00" fill="#000000">diagnostic_id</text>
<polygon fill="none" stroke="#000000" points="577,-257.2 577,-279.2 737,-279.2 737,-257.2 577,-257.2"/>
<image xlink:href="../../images/foreignKeys.png" width="11px" height="12px" preserveAspectRatio="xMinYMin meet" x="582" y="-274.2"/>
<text text-anchor="start" x="597" y="-264.3" font-family="Helvetica,sans-Serif" font-size="11.00" fill="#000000">model_design_id</text>
<polygon fill="none" stroke="#000000" points="577,-238.2 577,-257.2 737,-257.2 737,-238.2 577,-238.2"/>
<text text-anchor="start" x="580" y="-244.3" font-family="Helvetica,sans-Serif" font-size="11.00" fill="#000000">...</text>
<polygon fill="#ffffff" stroke="transparent" points="577,-219.2 577,-238.2 642,-238.2 642,-219.2 577,-219.2"/>
<polygon fill="none" stroke="#000000" points="577,-219.2 577,-238.2 642,-238.2 642,-219.2 577,-219.2"/>
<text text-anchor="start" x="580" y="-225.3" font-family="Helvetica,sans-Serif" font-size="11.00" fill="#000000">&lt; 3</text>
<polygon fill="#ffffff" stroke="transparent" points="642,-219.2 642,-238.2 702,-238.2 702,-219.2 642,-219.2"/>
<polygon fill="none" stroke="#000000" points="642,-219.2 642,-238.2 702,-238.2 702,-219.2 642,-219.2"/>
<text text-anchor="start" x="666.6105" y="-225.3" font-family="Helvetica,sans-Serif" font-size="11.00" fill="#000000">0 rows</text>
<polygon fill="#ffffff" stroke="transparent" points="702,-219.2 702,-238.2 737,-238.2 737,-219.2 702,-219.2"/>
<polygon fill="none" stroke="#000000" points="702,-219.2 702,-238.2 737,-238.2 737,-219.2 702,-219.2"/>
<text text-anchor="start" x="727.8862" y="-225.3" font-family="Helvetica,sans-Serif" font-size="11.00" fill="#000000"> &#160;</text>
</a>
</g>
</g>
<!-- plp_model_designs -->
<g id="node2" class="node">
<title>plp_model_designs</title>
<g id="a_node2"><a xlink:href="../../tables/plp_model_designs.html" xlink:title="plp_model_designs" target="_top">
<polygon fill="#ffffff" stroke="transparent" points="232,-38.2 232,-348.2 528,-348.2 528,-38.2 232,-38.2"/>
<polygon fill="#f5f5f5" stroke="transparent" points="234,-323.2 234,-346.2 526,-346.2 526,-323.2 234,-323.2"/>
<polygon fill="none" stroke="#000000" points="234,-323.2 234,-346.2 526,-346.2 526,-323.2 234,-323.2"/>
<text text-anchor="start" x="239" y="-331.8" font-family="Helvetica,sans-Serif" font-weight="bold" font-size="11.00" fill="#000000">plp_model_designs</text>
<text text-anchor="start" x="491.0437" y="-331.3" font-family="Helvetica,sans-Serif" font-size="11.00" fill="#000000">[table]</text>
<polygon fill="none" stroke="#000000" points="234,-301.2 234,-323.2 464,-323.2 464,-301.2 234,-301.2"/>
<text text-anchor="start" x="254" y="-308.3" font-family="Helvetica,sans-Serif" font-size="11.00" fill="#000000">covariate_setting_id</text>
<polygon fill="none" stroke="#000000" points="464,-301.2 464,-323.2 526,-323.2 526,-301.2 464,-301.2"/>
<text text-anchor="start" x="466.878" y="-308.9" font-family="Helvetica,sans-Serif" font-size="11.00" fill="#000000">unknown[0]</text>
<polygon fill="none" stroke="#000000" points="234,-279.2 234,-301.2 464,-301.2 464,-279.2 234,-279.2"/>
<text text-anchor="start" x="254" y="-286.3" font-family="Helvetica,sans-Serif" font-size="11.00" fill="#000000">feature_engineering_setting_id</text>
<polygon fill="none" stroke="#000000" points="464,-279.2 464,-301.2 526,-301.2 526,-279.2 464,-279.2"/>
<text text-anchor="start" x="466.878" y="-286.9" font-family="Helvetica,sans-Serif" font-size="11.00" fill="#000000">unknown[0]</text>
<polygon fill="none" stroke="#000000" points="234,-257.2 234,-279.2 464,-279.2 464,-257.2 234,-257.2"/>
<image xlink:href="../../images/primaryKeys.png" width="11px" height="12px" preserveAspectRatio="xMinYMin meet" x="239" y="-274.2"/>
<text text-anchor="start" x="254" y="-264.3" font-family="Helvetica,sans-Serif" font-size="11.00" fill="#000000">model_design_id</text>
<polygon fill="none" stroke="#000000" points="464,-257.2 464,-279.2 526,-279.2 526,-257.2 464,-257.2"/>
<text text-anchor="start" x="466.878" y="-264.9" font-family="Helvetica,sans-Serif" font-size="11.00" fill="#000000">unknown[0]</text>
<polygon fill="none" stroke="#000000" points="234,-235.2 234,-257.2 464,-257.2 464,-235.2 234,-235.2"/>
<text text-anchor="start" x="254" y="-242.3" font-family="Helvetica,sans-Serif" font-size="11.00" fill="#000000">model_setting_id</text>
<polygon fill="none" stroke="#000000" points="464,-235.2 464,-257.2 526,-257.2 526,-235.2 464,-235.2"/>
<text text-anchor="start" x="466.878" y="-242.9" font-family="Helvetica,sans-Serif" font-size="11.00" fill="#000000">unknown[0]</text>
<polygon fill="none" stroke="#000000" points="234,-213.2 234,-235.2 464,-235.2 464,-213.2 234,-213.2"/>
<image xlink:href="../../images/foreignKeys.png" width="11px" height="12px" preserveAspectRatio="xMinYMin meet" x="239" y="-230.2"/>
<text text-anchor="start" x="254" y="-220.3" font-family="Helvetica,sans-Serif" font-size="11.00" fill="#000000">outcome_id</text>
<polygon fill="none" stroke="#000000" points="464,-213.2 464,-235.2 526,-235.2 526,-213.2 464,-213.2"/>
<text text-anchor="start" x="466.878" y="-220.9" font-family="Helvetica,sans-Serif" font-size="11.00" fill="#000000">unknown[0]</text>
<polygon fill="none" stroke="#000000" points="234,-191.2 234,-213.2 464,-213.2 464,-191.2 234,-191.2"/>
<text text-anchor="start" x="254" y="-198.3" font-family="Helvetica,sans-Serif" font-size="11.00" fill="#000000">plp_data_setting_id</text>
<polygon fill="none" stroke="#000000" points="464,-191.2 464,-213.2 526,-213.2 526,-191.2 464,-191.2"/>
<text text-anchor="start" x="466.878" y="-198.9" font-family="Helvetica,sans-Serif" font-size="11.00" fill="#000000">unknown[0]</text>
<polygon fill="none" stroke="#000000" points="234,-169.2 234,-191.2 464,-191.2 464,-169.2 234,-169.2"/>
<text text-anchor="start" x="254" y="-176.3" font-family="Helvetica,sans-Serif" font-size="11.00" fill="#000000">population_setting_id</text>
<polygon fill="none" stroke="#000000" points="464,-169.2 464,-191.2 526,-191.2 526,-169.2 464,-169.2"/>
<text text-anchor="start" x="466.878" y="-176.9" font-family="Helvetica,sans-Serif" font-size="11.00" fill="#000000">unknown[0]</text>
<polygon fill="none" stroke="#000000" points="234,-147.2 234,-169.2 464,-169.2 464,-147.2 234,-147.2"/>
<text text-anchor="start" x="254" y="-154.3" font-family="Helvetica,sans-Serif" font-size="11.00" fill="#000000">sample_setting_id</text>
<polygon fill="none" stroke="#000000" points="464,-147.2 464,-169.2 526,-169.2 526,-147.2 464,-147.2"/>
<text text-anchor="start" x="466.878" y="-154.9" font-family="Helvetica,sans-Serif" font-size="11.00" fill="#000000">unknown[0]</text>
<polygon fill="none" stroke="#000000" points="234,-125.2 234,-147.2 464,-147.2 464,-125.2 234,-125.2"/>
<text text-anchor="start" x="254" y="-132.3" font-family="Helvetica,sans-Serif" font-size="11.00" fill="#000000">split_setting_id</text>
<polygon fill="none" stroke="#000000" points="464,-125.2 464,-147.2 526,-147.2 526,-125.2 464,-125.2"/>
<text text-anchor="start" x="466.878" y="-132.9" font-family="Helvetica,sans-Serif" font-size="11.00" fill="#000000">unknown[0]</text>
<polygon fill="none" stroke="#000000" points="234,-103.2 234,-125.2 464,-125.2 464,-103.2 234,-103.2"/>
<text text-anchor="start" x="254" y="-110.3" font-family="Helvetica,sans-Serif" font-size="11.00" fill="#000000">tar_id</text>
<polygon fill="none" stroke="#000000" points="464,-103.2 464,-125.2 526,-125.2 526,-103.2 464,-103.2"/>
<text text-anchor="start" x="466.878" y="-110.9" font-family="Helvetica,sans-Serif" font-size="11.00" fill="#000000">unknown[0]</text>
<polygon fill="none" stroke="#000000" points="234,-81.2 234,-103.2 464,-103.2 464,-81.2 234,-81.2"/>
<image xlink:href="../../images/foreignKeys.png" width="11px" height="12px" preserveAspectRatio="xMinYMin meet" x="239" y="-98.2"/>
<text text-anchor="start" x="254" y="-88.3" font-family="Helvetica,sans-Serif" font-size="11.00" fill="#000000">target_id</text>
<polygon fill="none" stroke="#000000" points="464,-81.2 464,-103.2 526,-103.2 526,-81.2 464,-81.2"/>
<text text-anchor="start" x="466.878" y="-88.9" font-family="Helvetica,sans-Serif" font-size="11.00" fill="#000000">unknown[0]</text>
<polygon fill="none" stroke="#000000" points="234,-59.2 234,-81.2 464,-81.2 464,-59.2 234,-59.2"/>
<text text-anchor="start" x="254" y="-66.3" font-family="Helvetica,sans-Serif" font-size="11.00" fill="#000000">tidy_covariates_setting_id</text>
<polygon fill="none" stroke="#000000" points="464,-59.2 464,-81.2 526,-81.2 526,-59.2 464,-59.2"/>
<text text-anchor="start" x="466.878" y="-66.9" font-family="Helvetica,sans-Serif" font-size="11.00" fill="#000000">unknown[0]</text>
<polygon fill="#ffffff" stroke="transparent" points="234,-40.2 234,-59.2 340,-59.2 340,-40.2 234,-40.2"/>
<polygon fill="none" stroke="#000000" points="234,-40.2 234,-59.2 340,-59.2 340,-40.2 234,-40.2"/>
<text text-anchor="start" x="237" y="-46.3" font-family="Helvetica,sans-Serif" font-size="11.00" fill="#000000">&lt; 2</text>
<polygon fill="#ffffff" stroke="transparent" points="340,-40.2 340,-59.2 464,-59.2 464,-40.2 340,-40.2"/>
<polygon fill="none" stroke="#000000" points="340,-40.2 340,-59.2 464,-59.2 464,-40.2 340,-40.2"/>
<text text-anchor="start" x="428.6105" y="-46.3" font-family="Helvetica,sans-Serif" font-size="11.00" fill="#000000">0 rows</text>
<polygon fill="#ffffff" stroke="transparent" points="464,-40.2 464,-59.2 526,-59.2 526,-40.2 464,-40.2"/>
<polygon fill="none" stroke="#000000" points="464,-40.2 464,-59.2 526,-59.2 526,-40.2 464,-40.2"/>
<text text-anchor="start" x="507.4053" y="-46.3" font-family="Helvetica,sans-Serif" font-size="11.00" fill="#000000">1 &gt;</text>
<polygon fill="none" stroke="#000000" stroke-width="2" points="233,-39.2 233,-347.2 527,-347.2 527,-39.2 233,-39.2"/>
</a>
</g>
</g>
<!-- plp_diagnostics&#45;&gt;plp_model_designs -->
<g id="edge1" class="edge">
<title>plp_diagnostics:w&#45;&gt;plp_model_designs:e</title>
<path fill="none" stroke="#000000" d="M562.276,-268.2C550.2815,-268.2 542.8229,-268.2 526,-268.2"/>
<polygon fill="#000000" stroke="#000000" points="569,-268.2001 577,-271.8 573,-268.2 577,-268.2 577,-268.2 577,-268.2 573,-268.2 577,-264.6 569,-268.2001 569,-268.2001"/>
<ellipse fill="none" stroke="#000000" cx="565.8" cy="-268.2001" rx="3.2" ry="3.2"/>
</g>
<!-- cg_cohort_definition -->
<g id="node3" class="node">
<title>cg_cohort_definition</title>
<g id="a_node3"><a xlink:href="../../tables/cg_cohort_definition.html" xlink:title="cg_cohort_definition" target="_top">
<polygon fill="#ffffff" stroke="transparent" points="8,-109.7 8,-192.7 183,-192.7 183,-109.7 8,-109.7"/>
<polygon fill="#f5f5f5" stroke="transparent" points="8.5,-169.2 8.5,-192.2 183.5,-192.2 183.5,-169.2 8.5,-169.2"/>
<polygon fill="none" stroke="#000000" points="8.5,-169.2 8.5,-192.2 183.5,-192.2 183.5,-169.2 8.5,-169.2"/>
<text text-anchor="start" x="13.5" y="-177.8" font-family="Helvetica,sans-Serif" font-weight="bold" font-size="11.00" fill="#000000">cg_cohort_definition</text>
<text text-anchor="start" x="149.0219" y="-177.3" font-family="Helvetica,sans-Serif" font-size="11.00" fill="#000000">[table]</text>
<polygon fill="none" stroke="#000000" points="8.5,-147.2 8.5,-169.2 183.5,-169.2 183.5,-147.2 8.5,-147.2"/>
<image xlink:href="../../images/primaryKeys.png" width="11px" height="12px" preserveAspectRatio="xMinYMin meet" x="13.5" y="-164.2"/>
<text text-anchor="start" x="37.5" y="-154.3" font-family="Helvetica,sans-Serif" font-size="11.00" fill="#000000">cohort_definition_id</text>
<polygon fill="none" stroke="#000000" points="8.5,-128.2 8.5,-147.2 183.5,-147.2 183.5,-128.2 8.5,-128.2"/>
<text text-anchor="start" x="11.5" y="-134.3" font-family="Helvetica,sans-Serif" font-size="11.00" fill="#000000">...</text>
<polygon fill="#ffffff" stroke="transparent" points="8.5,-109.2 8.5,-128.2 69.5,-128.2 69.5,-109.2 8.5,-109.2"/>
<polygon fill="none" stroke="#000000" points="8.5,-109.2 8.5,-128.2 69.5,-128.2 69.5,-109.2 8.5,-109.2"/>
<text text-anchor="start" x="11.5" y="-115.3" font-family="Helvetica,sans-Serif" font-size="11.00" fill="#000000"> &#160;</text>
<polygon fill="#ffffff" stroke="transparent" points="69.5,-109.2 69.5,-128.2 131.5,-128.2 131.5,-109.2 69.5,-109.2"/>
<polygon fill="none" stroke="#000000" points="69.5,-109.2 69.5,-128.2 131.5,-128.2 131.5,-109.2 69.5,-109.2"/>
<text text-anchor="start" x="96.1105" y="-115.3" font-family="Helvetica,sans-Serif" font-size="11.00" fill="#000000">0 rows</text>
<polygon fill="#ffffff" stroke="transparent" points="131.5,-109.2 131.5,-128.2 183.5,-128.2 183.5,-109.2 131.5,-109.2"/>
<polygon fill="none" stroke="#000000" points="131.5,-109.2 131.5,-128.2 183.5,-128.2 183.5,-109.2 131.5,-109.2"/>
<text text-anchor="start" x="158.7904" y="-115.3" font-family="Helvetica,sans-Serif" font-size="11.00" fill="#000000">17 &gt;</text>
</a>
</g>
</g>
<!-- plp_model_designs&#45;&gt;cg_cohort_definition -->
<g id="edge2" class="edge">
<title>plp_model_designs:w&#45;&gt;cg_cohort_definition:e</title>
<path fill="none" stroke="#000000" d="M220.158,-219.4534C203.1101,-204.3202 214.3754,-158.2 183.5,-158.2"/>
<polygon fill="#000000" stroke="#000000" points="226.4326,-221.605 232.8323,-227.6054 230.2163,-222.9025 234,-224.2 234,-224.2 234,-224.2 230.2163,-222.9025 235.1677,-220.7946 226.4326,-221.605 226.4326,-221.605"/>
<ellipse fill="none" stroke="#000000" cx="223.4056" cy="-220.567" rx="3.2" ry="3.2"/>
</g>
<!-- plp_model_designs&#45;&gt;cg_cohort_definition -->
<g id="edge3" class="edge">
<title>plp_model_designs:w&#45;&gt;cg_cohort_definition:e</title>
<path fill="none" stroke="#000000" d="M220.158,-96.9466C203.1101,-112.0798 214.3754,-158.2 183.5,-158.2"/>
<polygon fill="#000000" stroke="#000000" points="226.4326,-94.795 235.1677,-95.6054 230.2163,-93.4975 234,-92.2 234,-92.2 234,-92.2 230.2163,-93.4975 232.8323,-88.7946 226.4326,-94.795 226.4326,-94.795"/>
<ellipse fill="none" stroke="#000000" cx="223.4056" cy="-95.833" rx="3.2" ry="3.2"/>
</g>
</g>
</svg>
