<?xml version="1.0" encoding="UTF-8" standalone="no"?>
<!DOCTYPE svg PUBLIC "-//W3C//DTD SVG 1.1//EN"
 "http://www.w3.org/Graphics/SVG/1.1/DTD/svg11.dtd">
<!-- Generated by graphviz version 2.40.1 (20161225.0304)
 -->
<!-- Title: oneDegreeRelationshipsDiagram Pages: 1 -->
<svg width="287pt" height="646pt"
 viewBox="0.00 0.00 287.00 646.20" xmlns="http://www.w3.org/2000/svg" xmlns:xlink="http://www.w3.org/1999/xlink">
<g id="graph0" class="graph" transform="scale(1 1) rotate(0) translate(4 642.2)">
<title>oneDegreeRelationshipsDiagram</title>
<polygon fill="#ffffff" stroke="transparent" points="-4,4 -4,-642.2 283,-642.2 283,4 -4,4"/>
<text text-anchor="middle" x="72.4936" y="-7.3" font-family="Helvetica,sans-Serif" font-size="11.00" fill="#000000">Generated by SchemaSpy</text>
<!-- plp_threshold_summary -->
<g id="node1" class="node">
<title>plp_threshold_summary</title>
<g id="a_node1"><a xlink:href="../../tables/plp_threshold_summary.html" xlink:title="plp_threshold_summary" target="_top">
<polygon fill="#ffffff" stroke="transparent" points="8,-38.2 8,-634.2 271,-634.2 271,-38.2 8,-38.2"/>
<polygon fill="#f5f5f5" stroke="transparent" points="10.5,-609.2 10.5,-632.2 269.5,-632.2 269.5,-609.2 10.5,-609.2"/>
<polygon fill="none" stroke="#000000" points="10.5,-609.2 10.5,-632.2 269.5,-632.2 269.5,-609.2 10.5,-609.2"/>
<text text-anchor="start" x="15.5" y="-617.8" font-family="Helvetica,sans-Serif" font-weight="bold" font-size="11.00" fill="#000000">plp_threshold_summary</text>
<text text-anchor="start" x="234.5437" y="-617.3" font-family="Helvetica,sans-Serif" font-size="11.00" fill="#000000">[table]</text>
<polygon fill="none" stroke="#000000" points="10.5,-587.2 10.5,-609.2 207.5,-609.2 207.5,-587.2 10.5,-587.2"/>
<text text-anchor="start" x="30.5" y="-594.3" font-family="Helvetica,sans-Serif" font-size="11.00" fill="#000000">accuracy</text>
<polygon fill="none" stroke="#000000" points="207.5,-587.2 207.5,-609.2 269.5,-609.2 269.5,-587.2 207.5,-587.2"/>
<text text-anchor="start" x="210.378" y="-594.9" font-family="Helvetica,sans-Serif" font-size="11.00" fill="#000000">unknown[0]</text>
<polygon fill="none" stroke="#000000" points="10.5,-565.2 10.5,-587.2 207.5,-587.2 207.5,-565.2 10.5,-565.2"/>
<text text-anchor="start" x="30.5" y="-572.3" font-family="Helvetica,sans-Serif" font-size="11.00" fill="#000000">diagnostic_odds_ratio</text>
<polygon fill="none" stroke="#000000" points="207.5,-565.2 207.5,-587.2 269.5,-587.2 269.5,-565.2 207.5,-565.2"/>
<text text-anchor="start" x="210.378" y="-572.9" font-family="Helvetica,sans-Serif" font-size="11.00" fill="#000000">unknown[0]</text>
<polygon fill="none" stroke="#000000" points="10.5,-543.2 10.5,-565.2 207.5,-565.2 207.5,-543.2 10.5,-543.2"/>
<text text-anchor="start" x="30.5" y="-550.3" font-family="Helvetica,sans-Serif" font-size="11.00" fill="#000000">evaluation</text>
<polygon fill="none" stroke="#000000" points="207.5,-543.2 207.5,-565.2 269.5,-565.2 269.5,-543.2 207.5,-543.2"/>
<text text-anchor="start" x="210.378" y="-550.9" font-family="Helvetica,sans-Serif" font-size="11.00" fill="#000000">unknown[0]</text>
<polygon fill="none" stroke="#000000" points="10.5,-521.2 10.5,-543.2 207.5,-543.2 207.5,-521.2 10.5,-521.2"/>
<text text-anchor="start" x="30.5" y="-528.3" font-family="Helvetica,sans-Serif" font-size="11.00" fill="#000000">f_1_score</text>
<polygon fill="none" stroke="#000000" points="207.5,-521.2 207.5,-543.2 269.5,-543.2 269.5,-521.2 207.5,-521.2"/>
<text text-anchor="start" x="210.378" y="-528.9" font-family="Helvetica,sans-Serif" font-size="11.00" fill="#000000">unknown[0]</text>
<polygon fill="none" stroke="#000000" points="10.5,-499.2 10.5,-521.2 207.5,-521.2 207.5,-499.2 10.5,-499.2"/>
<text text-anchor="start" x="30.5" y="-506.3" font-family="Helvetica,sans-Serif" font-size="11.00" fill="#000000">false_count</text>
<polygon fill="none" stroke="#000000" points="207.5,-499.2 207.5,-521.2 269.5,-521.2 269.5,-499.2 207.5,-499.2"/>
<text text-anchor="start" x="210.378" y="-506.9" font-family="Helvetica,sans-Serif" font-size="11.00" fill="#000000">unknown[0]</text>
<polygon fill="none" stroke="#000000" points="10.5,-477.2 10.5,-499.2 207.5,-499.2 207.5,-477.2 10.5,-477.2"/>
<text text-anchor="start" x="30.5" y="-484.3" font-family="Helvetica,sans-Serif" font-size="11.00" fill="#000000">false_discovery_rate</text>
<polygon fill="none" stroke="#000000" points="207.5,-477.2 207.5,-499.2 269.5,-499.2 269.5,-477.2 207.5,-477.2"/>
<text text-anchor="start" x="210.378" y="-484.9" font-family="Helvetica,sans-Serif" font-size="11.00" fill="#000000">unknown[0]</text>
<polygon fill="none" stroke="#000000" points="10.5,-455.2 10.5,-477.2 207.5,-477.2 207.5,-455.2 10.5,-455.2"/>
<text text-anchor="start" x="30.5" y="-462.3" font-family="Helvetica,sans-Serif" font-size="11.00" fill="#000000">false_negative_count</text>
<polygon fill="none" stroke="#000000" points="207.5,-455.2 207.5,-477.2 269.5,-477.2 269.5,-455.2 207.5,-455.2"/>
<text text-anchor="start" x="210.378" y="-462.9" font-family="Helvetica,sans-Serif" font-size="11.00" fill="#000000">unknown[0]</text>
<polygon fill="none" stroke="#000000" points="10.5,-433.2 10.5,-455.2 207.5,-455.2 207.5,-433.2 10.5,-433.2"/>
<text text-anchor="start" x="30.5" y="-440.3" font-family="Helvetica,sans-Serif" font-size="11.00" fill="#000000">false_negative_rate</text>
<polygon fill="none" stroke="#000000" points="207.5,-433.2 207.5,-455.2 269.5,-455.2 269.5,-433.2 207.5,-433.2"/>
<text text-anchor="start" x="210.378" y="-440.9" font-family="Helvetica,sans-Serif" font-size="11.00" fill="#000000">unknown[0]</text>
<polygon fill="none" stroke="#000000" points="10.5,-411.2 10.5,-433.2 207.5,-433.2 207.5,-411.2 10.5,-411.2"/>
<text text-anchor="start" x="30.5" y="-418.3" font-family="Helvetica,sans-Serif" font-size="11.00" fill="#000000">false_omission_rate</text>
<polygon fill="none" stroke="#000000" points="207.5,-411.2 207.5,-433.2 269.5,-433.2 269.5,-411.2 207.5,-411.2"/>
<text text-anchor="start" x="210.378" y="-418.9" font-family="Helvetica,sans-Serif" font-size="11.00" fill="#000000">unknown[0]</text>
<polygon fill="none" stroke="#000000" points="10.5,-389.2 10.5,-411.2 207.5,-411.2 207.5,-389.2 10.5,-389.2"/>
<text text-anchor="start" x="30.5" y="-396.3" font-family="Helvetica,sans-Serif" font-size="11.00" fill="#000000">false_positive_count</text>
<polygon fill="none" stroke="#000000" points="207.5,-389.2 207.5,-411.2 269.5,-411.2 269.5,-389.2 207.5,-389.2"/>
<text text-anchor="start" x="210.378" y="-396.9" font-family="Helvetica,sans-Serif" font-size="11.00" fill="#000000">unknown[0]</text>
<polygon fill="none" stroke="#000000" points="10.5,-367.2 10.5,-389.2 207.5,-389.2 207.5,-367.2 10.5,-367.2"/>
<text text-anchor="start" x="30.5" y="-374.3" font-family="Helvetica,sans-Serif" font-size="11.00" fill="#000000">false_positive_rate</text>
<polygon fill="none" stroke="#000000" points="207.5,-367.2 207.5,-389.2 269.5,-389.2 269.5,-367.2 207.5,-367.2"/>
<text text-anchor="start" x="210.378" y="-374.9" font-family="Helvetica,sans-Serif" font-size="11.00" fill="#000000">unknown[0]</text>
<polygon fill="none" stroke="#000000" points="10.5,-345.2 10.5,-367.2 207.5,-367.2 207.5,-345.2 10.5,-345.2"/>
<text text-anchor="start" x="30.5" y="-352.3" font-family="Helvetica,sans-Serif" font-size="11.00" fill="#000000">negative_count</text>
<polygon fill="none" stroke="#000000" points="207.5,-345.2 207.5,-367.2 269.5,-367.2 269.5,-345.2 207.5,-345.2"/>
<text text-anchor="start" x="210.378" y="-352.9" font-family="Helvetica,sans-Serif" font-size="11.00" fill="#000000">unknown[0]</text>
<polygon fill="none" stroke="#000000" points="10.5,-323.2 10.5,-345.2 207.5,-345.2 207.5,-323.2 10.5,-323.2"/>
<text text-anchor="start" x="30.5" y="-330.3" font-family="Helvetica,sans-Serif" font-size="11.00" fill="#000000">negative_likelihood_ratio</text>
<polygon fill="none" stroke="#000000" points="207.5,-323.2 207.5,-345.2 269.5,-345.2 269.5,-323.2 207.5,-323.2"/>
<text text-anchor="start" x="210.378" y="-330.9" font-family="Helvetica,sans-Serif" font-size="11.00" fill="#000000">unknown[0]</text>
<polygon fill="none" stroke="#000000" points="10.5,-301.2 10.5,-323.2 207.5,-323.2 207.5,-301.2 10.5,-301.2"/>
<text text-anchor="start" x="30.5" y="-308.3" font-family="Helvetica,sans-Serif" font-size="11.00" fill="#000000">negative_predictive_value</text>
<polygon fill="none" stroke="#000000" points="207.5,-301.2 207.5,-323.2 269.5,-323.2 269.5,-301.2 207.5,-301.2"/>
<text text-anchor="start" x="210.378" y="-308.9" font-family="Helvetica,sans-Serif" font-size="11.00" fill="#000000">unknown[0]</text>
<polygon fill="none" stroke="#000000" points="10.5,-279.2 10.5,-301.2 207.5,-301.2 207.5,-279.2 10.5,-279.2"/>
<text text-anchor="start" x="30.5" y="-286.3" font-family="Helvetica,sans-Serif" font-size="11.00" fill="#000000">performance_id</text>
<polygon fill="none" stroke="#000000" points="207.5,-279.2 207.5,-301.2 269.5,-301.2 269.5,-279.2 207.5,-279.2"/>
<text text-anchor="start" x="210.378" y="-286.9" font-family="Helvetica,sans-Serif" font-size="11.00" fill="#000000">unknown[0]</text>
<polygon fill="none" stroke="#000000" points="10.5,-257.2 10.5,-279.2 207.5,-279.2 207.5,-257.2 10.5,-257.2"/>
<text text-anchor="start" x="30.5" y="-264.3" font-family="Helvetica,sans-Serif" font-size="11.00" fill="#000000">positive_count</text>
<polygon fill="none" stroke="#000000" points="207.5,-257.2 207.5,-279.2 269.5,-279.2 269.5,-257.2 207.5,-257.2"/>
<text text-anchor="start" x="210.378" y="-264.9" font-family="Helvetica,sans-Serif" font-size="11.00" fill="#000000">unknown[0]</text>
<polygon fill="none" stroke="#000000" points="10.5,-235.2 10.5,-257.2 207.5,-257.2 207.5,-235.2 10.5,-235.2"/>
<text text-anchor="start" x="30.5" y="-242.3" font-family="Helvetica,sans-Serif" font-size="11.00" fill="#000000">positive_likelihood_ratio</text>
<polygon fill="none" stroke="#000000" points="207.5,-235.2 207.5,-257.2 269.5,-257.2 269.5,-235.2 207.5,-235.2"/>
<text text-anchor="start" x="210.378" y="-242.9" font-family="Helvetica,sans-Serif" font-size="11.00" fill="#000000">unknown[0]</text>
<polygon fill="none" stroke="#000000" points="10.5,-213.2 10.5,-235.2 207.5,-235.2 207.5,-213.2 10.5,-213.2"/>
<text text-anchor="start" x="30.5" y="-220.3" font-family="Helvetica,sans-Serif" font-size="11.00" fill="#000000">positive_predictive_value</text>
<polygon fill="none" stroke="#000000" points="207.5,-213.2 207.5,-235.2 269.5,-235.2 269.5,-213.2 207.5,-213.2"/>
<text text-anchor="start" x="210.378" y="-220.9" font-family="Helvetica,sans-Serif" font-size="11.00" fill="#000000">unknown[0]</text>
<polygon fill="none" stroke="#000000" points="10.5,-191.2 10.5,-213.2 207.5,-213.2 207.5,-191.2 10.5,-191.2"/>
<text text-anchor="start" x="30.5" y="-198.3" font-family="Helvetica,sans-Serif" font-size="11.00" fill="#000000">prediction_threshold</text>
<polygon fill="none" stroke="#000000" points="207.5,-191.2 207.5,-213.2 269.5,-213.2 269.5,-191.2 207.5,-191.2"/>
<text text-anchor="start" x="210.378" y="-198.9" font-family="Helvetica,sans-Serif" font-size="11.00" fill="#000000">unknown[0]</text>
<polygon fill="none" stroke="#000000" points="10.5,-169.2 10.5,-191.2 207.5,-191.2 207.5,-169.2 10.5,-169.2"/>
<text text-anchor="start" x="30.5" y="-176.3" font-family="Helvetica,sans-Serif" font-size="11.00" fill="#000000">preference_threshold</text>
<polygon fill="none" stroke="#000000" points="207.5,-169.2 207.5,-191.2 269.5,-191.2 269.5,-169.2 207.5,-169.2"/>
<text text-anchor="start" x="210.378" y="-176.9" font-family="Helvetica,sans-Serif" font-size="11.00" fill="#000000">unknown[0]</text>
<polygon fill="none" stroke="#000000" points="10.5,-147.2 10.5,-169.2 207.5,-169.2 207.5,-147.2 10.5,-147.2"/>
<text text-anchor="start" x="30.5" y="-154.3" font-family="Helvetica,sans-Serif" font-size="11.00" fill="#000000">sensitivity</text>
<polygon fill="none" stroke="#000000" points="207.5,-147.2 207.5,-169.2 269.5,-169.2 269.5,-147.2 207.5,-147.2"/>
<text text-anchor="start" x="210.378" y="-154.9" font-family="Helvetica,sans-Serif" font-size="11.00" fill="#000000">unknown[0]</text>
<polygon fill="none" stroke="#000000" points="10.5,-125.2 10.5,-147.2 207.5,-147.2 207.5,-125.2 10.5,-125.2"/>
<text text-anchor="start" x="30.5" y="-132.3" font-family="Helvetica,sans-Serif" font-size="11.00" fill="#000000">specificity</text>
<polygon fill="none" stroke="#000000" points="207.5,-125.2 207.5,-147.2 269.5,-147.2 269.5,-125.2 207.5,-125.2"/>
<text text-anchor="start" x="210.378" y="-132.9" font-family="Helvetica,sans-Serif" font-size="11.00" fill="#000000">unknown[0]</text>
<polygon fill="none" stroke="#000000" points="10.5,-103.2 10.5,-125.2 207.5,-125.2 207.5,-103.2 10.5,-103.2"/>
<text text-anchor="start" x="30.5" y="-110.3" font-family="Helvetica,sans-Serif" font-size="11.00" fill="#000000">true_count</text>
<polygon fill="none" stroke="#000000" points="207.5,-103.2 207.5,-125.2 269.5,-125.2 269.5,-103.2 207.5,-103.2"/>
<text text-anchor="start" x="210.378" y="-110.9" font-family="Helvetica,sans-Serif" font-size="11.00" fill="#000000">unknown[0]</text>
<polygon fill="none" stroke="#000000" points="10.5,-81.2 10.5,-103.2 207.5,-103.2 207.5,-81.2 10.5,-81.2"/>
<text text-anchor="start" x="30.5" y="-88.3" font-family="Helvetica,sans-Serif" font-size="11.00" fill="#000000">true_negative_count</text>
<polygon fill="none" stroke="#000000" points="207.5,-81.2 207.5,-103.2 269.5,-103.2 269.5,-81.2 207.5,-81.2"/>
<text text-anchor="start" x="210.378" y="-88.9" font-family="Helvetica,sans-Serif" font-size="11.00" fill="#000000">unknown[0]</text>
<polygon fill="none" stroke="#000000" points="10.5,-59.2 10.5,-81.2 207.5,-81.2 207.5,-59.2 10.5,-59.2"/>
<text text-anchor="start" x="30.5" y="-66.3" font-family="Helvetica,sans-Serif" font-size="11.00" fill="#000000">true_positive_count</text>
<polygon fill="none" stroke="#000000" points="207.5,-59.2 207.5,-81.2 269.5,-81.2 269.5,-59.2 207.5,-59.2"/>
<text text-anchor="start" x="210.378" y="-66.9" font-family="Helvetica,sans-Serif" font-size="11.00" fill="#000000">unknown[0]</text>
<polygon fill="#ffffff" stroke="transparent" points="10.5,-40.2 10.5,-59.2 100.5,-59.2 100.5,-40.2 10.5,-40.2"/>
<polygon fill="none" stroke="#000000" points="10.5,-40.2 10.5,-59.2 100.5,-59.2 100.5,-40.2 10.5,-40.2"/>
<text text-anchor="start" x="13.5" y="-46.3" font-family="Helvetica,sans-Serif" font-size="11.00" fill="#000000">&lt; 0</text>
<polygon fill="#ffffff" stroke="transparent" points="100.5,-40.2 100.5,-59.2 207.5,-59.2 207.5,-40.2 100.5,-40.2"/>
<polygon fill="none" stroke="#000000" points="100.5,-40.2 100.5,-59.2 207.5,-59.2 207.5,-40.2 100.5,-40.2"/>
<text text-anchor="start" x="172.1105" y="-46.3" font-family="Helvetica,sans-Serif" font-size="11.00" fill="#000000">0 rows</text>
<polygon fill="#ffffff" stroke="transparent" points="207.5,-40.2 207.5,-59.2 269.5,-59.2 269.5,-40.2 207.5,-40.2"/>
<polygon fill="none" stroke="#000000" points="207.5,-40.2 207.5,-59.2 269.5,-59.2 269.5,-40.2 207.5,-40.2"/>
<text text-anchor="start" x="250.9053" y="-46.3" font-family="Helvetica,sans-Serif" font-size="11.00" fill="#000000">0 &gt;</text>
<polygon fill="none" stroke="#000000" stroke-width="2" points="9,-39.2 9,-633.2 270,-633.2 270,-39.2 9,-39.2"/>
</a>
</g>
</g>
</g>
</svg>
