<?xml version="1.0" encoding="UTF-8" standalone="no"?>
<!DOCTYPE svg PUBLIC "-//W3C//DTD SVG 1.1//EN"
 "http://www.w3.org/Graphics/SVG/1.1/DTD/svg11.dtd">
<!-- Generated by graphviz version 2.40.1 (20161225.0304)
 -->
<!-- Title: oneDegreeRelationshipsDiagram Pages: 1 -->
<svg width="253pt" height="206pt"
 viewBox="0.00 0.00 253.00 206.20" xmlns="http://www.w3.org/2000/svg" xmlns:xlink="http://www.w3.org/1999/xlink">
<g id="graph0" class="graph" transform="scale(1 1) rotate(0) translate(4 202.2)">
<title>oneDegreeRelationshipsDiagram</title>
<polygon fill="#ffffff" stroke="transparent" points="-4,4 -4,-202.2 249,-202.2 249,4 -4,4"/>
<text text-anchor="middle" x="72.4936" y="-7.3" font-family="Helvetica,sans-Serif" font-size="11.00" fill="#000000">Generated by SchemaSpy</text>
<!-- plp_cohort_definition -->
<g id="node1" class="node">
<title>plp_cohort_definition</title>
<g id="a_node1"><a xlink:href="../../tables/plp_cohort_definition.html" xlink:title="plp_cohort_definition" target="_top">
<polygon fill="#ffffff" stroke="transparent" points="8,-38.2 8,-194.2 237,-194.2 237,-38.2 8,-38.2"/>
<polygon fill="#f5f5f5" stroke="transparent" points="10.5,-169.2 10.5,-192.2 235.5,-192.2 235.5,-169.2 10.5,-169.2"/>
<polygon fill="none" stroke="#000000" points="10.5,-169.2 10.5,-192.2 235.5,-192.2 235.5,-169.2 10.5,-169.2"/>
<text text-anchor="start" x="15.5" y="-177.8" font-family="Helvetica,sans-Serif" font-weight="bold" font-size="11.00" fill="#000000">plp_cohort_definition</text>
<text text-anchor="start" x="200.5437" y="-177.3" font-family="Helvetica,sans-Serif" font-size="11.00" fill="#000000">[table]</text>
<polygon fill="none" stroke="#000000" points="10.5,-147.2 10.5,-169.2 173.5,-169.2 173.5,-147.2 10.5,-147.2"/>
<text text-anchor="start" x="30.5" y="-154.3" font-family="Helvetica,sans-Serif" font-size="11.00" fill="#000000">cohort_definition_id</text>
<polygon fill="none" stroke="#000000" points="173.5,-147.2 173.5,-169.2 235.5,-169.2 235.5,-147.2 173.5,-147.2"/>
<text text-anchor="start" x="176.378" y="-154.9" font-family="Helvetica,sans-Serif" font-size="11.00" fill="#000000">unknown[0]</text>
<polygon fill="none" stroke="#000000" points="10.5,-125.2 10.5,-147.2 173.5,-147.2 173.5,-125.2 10.5,-125.2"/>
<text text-anchor="start" x="30.5" y="-132.3" font-family="Helvetica,sans-Serif" font-size="11.00" fill="#000000">cohort_name</text>
<polygon fill="none" stroke="#000000" points="173.5,-125.2 173.5,-147.2 235.5,-147.2 235.5,-125.2 173.5,-125.2"/>
<text text-anchor="start" x="176.378" y="-132.9" font-family="Helvetica,sans-Serif" font-size="11.00" fill="#000000">unknown[0]</text>
<polygon fill="none" stroke="#000000" points="10.5,-103.2 10.5,-125.2 173.5,-125.2 173.5,-103.2 10.5,-103.2"/>
<text text-anchor="start" x="30.5" y="-110.3" font-family="Helvetica,sans-Serif" font-size="11.00" fill="#000000">description</text>
<polygon fill="none" stroke="#000000" points="173.5,-103.2 173.5,-125.2 235.5,-125.2 235.5,-103.2 173.5,-103.2"/>
<text text-anchor="start" x="176.378" y="-110.9" font-family="Helvetica,sans-Serif" font-size="11.00" fill="#000000">unknown[0]</text>
<polygon fill="none" stroke="#000000" points="10.5,-81.2 10.5,-103.2 173.5,-103.2 173.5,-81.2 10.5,-81.2"/>
<text text-anchor="start" x="30.5" y="-88.3" font-family="Helvetica,sans-Serif" font-size="11.00" fill="#000000">json</text>
<polygon fill="none" stroke="#000000" points="173.5,-81.2 173.5,-103.2 235.5,-103.2 235.5,-81.2 173.5,-81.2"/>
<text text-anchor="start" x="176.378" y="-88.9" font-family="Helvetica,sans-Serif" font-size="11.00" fill="#000000">unknown[0]</text>
<polygon fill="none" stroke="#000000" points="10.5,-59.2 10.5,-81.2 173.5,-81.2 173.5,-59.2 10.5,-59.2"/>
<text text-anchor="start" x="30.5" y="-66.3" font-family="Helvetica,sans-Serif" font-size="11.00" fill="#000000">sql_command</text>
<polygon fill="none" stroke="#000000" points="173.5,-59.2 173.5,-81.2 235.5,-81.2 235.5,-59.2 173.5,-59.2"/>
<text text-anchor="start" x="176.378" y="-66.9" font-family="Helvetica,sans-Serif" font-size="11.00" fill="#000000">unknown[0]</text>
<polygon fill="#ffffff" stroke="transparent" points="10.5,-40.2 10.5,-59.2 83.5,-59.2 83.5,-40.2 10.5,-40.2"/>
<polygon fill="none" stroke="#000000" points="10.5,-40.2 10.5,-59.2 83.5,-59.2 83.5,-40.2 10.5,-40.2"/>
<text text-anchor="start" x="13.5" y="-46.3" font-family="Helvetica,sans-Serif" font-size="11.00" fill="#000000">&lt; 0</text>
<polygon fill="#ffffff" stroke="transparent" points="83.5,-40.2 83.5,-59.2 173.5,-59.2 173.5,-40.2 83.5,-40.2"/>
<polygon fill="none" stroke="#000000" points="83.5,-40.2 83.5,-59.2 173.5,-59.2 173.5,-40.2 83.5,-40.2"/>
<text text-anchor="start" x="138.1105" y="-46.3" font-family="Helvetica,sans-Serif" font-size="11.00" fill="#000000">0 rows</text>
<polygon fill="#ffffff" stroke="transparent" points="173.5,-40.2 173.5,-59.2 235.5,-59.2 235.5,-40.2 173.5,-40.2"/>
<polygon fill="none" stroke="#000000" points="173.5,-40.2 173.5,-59.2 235.5,-59.2 235.5,-40.2 173.5,-40.2"/>
<text text-anchor="start" x="216.9053" y="-46.3" font-family="Helvetica,sans-Serif" font-size="11.00" fill="#000000">0 &gt;</text>
<polygon fill="none" stroke="#000000" stroke-width="2" points="9,-39.2 9,-193.2 236,-193.2 236,-39.2 9,-39.2"/>
</a>
</g>
</g>
</g>
</svg>
