<?xml version="1.0" encoding="UTF-8" standalone="no"?>
<!DOCTYPE svg PUBLIC "-//W3C//DTD SVG 1.1//EN"
 "http://www.w3.org/Graphics/SVG/1.1/DTD/svg11.dtd">
<!-- Generated by graphviz version 2.40.1 (20161225.0304)
 -->
<!-- Title: oneDegreeRelationshipsDiagram Pages: 1 -->
<svg width="486pt" height="183pt"
 viewBox="0.00 0.00 486.00 182.70" xmlns="http://www.w3.org/2000/svg" xmlns:xlink="http://www.w3.org/1999/xlink">
<g id="graph0" class="graph" transform="scale(1 1) rotate(0) translate(4 178.7)">
<title>oneDegreeRelationshipsDiagram</title>
<polygon fill="#ffffff" stroke="transparent" points="-4,4 -4,-178.7 482,-178.7 482,4 -4,4"/>
<text text-anchor="middle" x="72.4936" y="-7.3" font-family="Helvetica,sans-Serif" font-size="11.00" fill="#000000">Generated by SchemaSpy</text>
<!-- plp_diagnostics -->
<g id="node1" class="node">
<title>plp_diagnostics</title>
<g id="a_node1"><a xlink:href="../../tables/plp_diagnostics.html" xlink:title="plp_diagnostics" target="_top">
<polygon fill="#ffffff" stroke="transparent" points="310,-43.7 310,-170.7 470,-170.7 470,-43.7 310,-43.7"/>
<polygon fill="#f5f5f5" stroke="transparent" points="310,-147.2 310,-170.2 470,-170.2 470,-147.2 310,-147.2"/>
<polygon fill="none" stroke="#000000" points="310,-147.2 310,-170.2 470,-170.2 470,-147.2 310,-147.2"/>
<text text-anchor="start" x="315" y="-155.8" font-family="Helvetica,sans-Serif" font-weight="bold" font-size="11.00" fill="#000000">plp_diagnostics</text>
<text text-anchor="start" x="435.0437" y="-155.3" font-family="Helvetica,sans-Serif" font-size="11.00" fill="#000000">[table]</text>
<polygon fill="none" stroke="#000000" points="310,-125.2 310,-147.2 470,-147.2 470,-125.2 310,-125.2"/>
<image xlink:href="../../images/foreignKeys.png" width="11px" height="12px" preserveAspectRatio="xMinYMin meet" x="315" y="-142.2"/>
<text text-anchor="start" x="330" y="-132.3" font-family="Helvetica,sans-Serif" font-size="11.00" fill="#000000">database_id</text>
<polygon fill="none" stroke="#000000" points="310,-103.2 310,-125.2 470,-125.2 470,-103.2 310,-103.2"/>
<image xlink:href="../../images/foreignKeys.png" width="11px" height="12px" preserveAspectRatio="xMinYMin meet" x="315" y="-120.2"/>
<text text-anchor="start" x="330" y="-110.3" font-family="Helvetica,sans-Serif" font-size="11.00" fill="#000000">diagnostic_id</text>
<polygon fill="none" stroke="#000000" points="310,-81.2 310,-103.2 470,-103.2 470,-81.2 310,-81.2"/>
<image xlink:href="../../images/foreignKeys.png" width="11px" height="12px" preserveAspectRatio="xMinYMin meet" x="315" y="-98.2"/>
<text text-anchor="start" x="330" y="-88.3" font-family="Helvetica,sans-Serif" font-size="11.00" fill="#000000">model_design_id</text>
<polygon fill="none" stroke="#000000" points="310,-62.2 310,-81.2 470,-81.2 470,-62.2 310,-62.2"/>
<text text-anchor="start" x="313" y="-68.3" font-family="Helvetica,sans-Serif" font-size="11.00" fill="#000000">...</text>
<polygon fill="#ffffff" stroke="transparent" points="310,-43.2 310,-62.2 375,-62.2 375,-43.2 310,-43.2"/>
<polygon fill="none" stroke="#000000" points="310,-43.2 310,-62.2 375,-62.2 375,-43.2 310,-43.2"/>
<text text-anchor="start" x="313" y="-49.3" font-family="Helvetica,sans-Serif" font-size="11.00" fill="#000000">&lt; 3</text>
<polygon fill="#ffffff" stroke="transparent" points="375,-43.2 375,-62.2 435,-62.2 435,-43.2 375,-43.2"/>
<polygon fill="none" stroke="#000000" points="375,-43.2 375,-62.2 435,-62.2 435,-43.2 375,-43.2"/>
<text text-anchor="start" x="399.6105" y="-49.3" font-family="Helvetica,sans-Serif" font-size="11.00" fill="#000000">0 rows</text>
<polygon fill="#ffffff" stroke="transparent" points="435,-43.2 435,-62.2 470,-62.2 470,-43.2 435,-43.2"/>
<polygon fill="none" stroke="#000000" points="435,-43.2 435,-62.2 470,-62.2 470,-43.2 435,-43.2"/>
<text text-anchor="start" x="460.8862" y="-49.3" font-family="Helvetica,sans-Serif" font-size="11.00" fill="#000000"> &#160;</text>
</a>
</g>
</g>
<!-- plp_diagnostic_summary -->
<g id="node2" class="node">
<title>plp_diagnostic_summary</title>
<g id="a_node2"><a xlink:href="../../tables/plp_diagnostic_summary.html" xlink:title="plp_diagnostic_summary" target="_top">
<polygon fill="#ffffff" stroke="transparent" points="8,-38.2 8,-150.2 261,-150.2 261,-38.2 8,-38.2"/>
<polygon fill="#f5f5f5" stroke="transparent" points="10.5,-125.2 10.5,-148.2 259.5,-148.2 259.5,-125.2 10.5,-125.2"/>
<polygon fill="none" stroke="#000000" points="10.5,-125.2 10.5,-148.2 259.5,-148.2 259.5,-125.2 10.5,-125.2"/>
<text text-anchor="start" x="15.5" y="-133.8" font-family="Helvetica,sans-Serif" font-weight="bold" font-size="11.00" fill="#000000">plp_diagnostic_summary</text>
<text text-anchor="start" x="224.5437" y="-133.3" font-family="Helvetica,sans-Serif" font-size="11.00" fill="#000000">[table]</text>
<polygon fill="none" stroke="#000000" points="10.5,-103.2 10.5,-125.2 197.5,-125.2 197.5,-103.2 10.5,-103.2"/>
<image xlink:href="../../images/primaryKeys.png" width="11px" height="12px" preserveAspectRatio="xMinYMin meet" x="15.5" y="-120.2"/>
<text text-anchor="start" x="30.5" y="-110.3" font-family="Helvetica,sans-Serif" font-size="11.00" fill="#000000">diagnostic_id</text>
<polygon fill="none" stroke="#000000" points="197.5,-103.2 197.5,-125.2 259.5,-125.2 259.5,-103.2 197.5,-103.2"/>
<text text-anchor="start" x="200.378" y="-110.9" font-family="Helvetica,sans-Serif" font-size="11.00" fill="#000000">unknown[0]</text>
<polygon fill="none" stroke="#000000" points="10.5,-81.2 10.5,-103.2 197.5,-103.2 197.5,-81.2 10.5,-81.2"/>
<text text-anchor="start" x="30.5" y="-88.3" font-family="Helvetica,sans-Serif" font-size="11.00" fill="#000000">probast_id</text>
<polygon fill="none" stroke="#000000" points="197.5,-81.2 197.5,-103.2 259.5,-103.2 259.5,-81.2 197.5,-81.2"/>
<text text-anchor="start" x="200.378" y="-88.9" font-family="Helvetica,sans-Serif" font-size="11.00" fill="#000000">unknown[0]</text>
<polygon fill="none" stroke="#000000" points="10.5,-59.2 10.5,-81.2 197.5,-81.2 197.5,-59.2 10.5,-59.2"/>
<text text-anchor="start" x="30.5" y="-66.3" font-family="Helvetica,sans-Serif" font-size="11.00" fill="#000000">result_value</text>
<polygon fill="none" stroke="#000000" points="197.5,-59.2 197.5,-81.2 259.5,-81.2 259.5,-59.2 197.5,-59.2"/>
<text text-anchor="start" x="200.378" y="-66.9" font-family="Helvetica,sans-Serif" font-size="11.00" fill="#000000">unknown[0]</text>
<polygon fill="#ffffff" stroke="transparent" points="10.5,-40.2 10.5,-59.2 95.5,-59.2 95.5,-40.2 10.5,-40.2"/>
<polygon fill="none" stroke="#000000" points="10.5,-40.2 10.5,-59.2 95.5,-59.2 95.5,-40.2 10.5,-40.2"/>
<text text-anchor="start" x="13.5" y="-46.3" font-family="Helvetica,sans-Serif" font-size="11.00" fill="#000000">&lt; 0</text>
<polygon fill="#ffffff" stroke="transparent" points="95.5,-40.2 95.5,-59.2 197.5,-59.2 197.5,-40.2 95.5,-40.2"/>
<polygon fill="none" stroke="#000000" points="95.5,-40.2 95.5,-59.2 197.5,-59.2 197.5,-40.2 95.5,-40.2"/>
<text text-anchor="start" x="162.1105" y="-46.3" font-family="Helvetica,sans-Serif" font-size="11.00" fill="#000000">0 rows</text>
<polygon fill="#ffffff" stroke="transparent" points="197.5,-40.2 197.5,-59.2 259.5,-59.2 259.5,-40.2 197.5,-40.2"/>
<polygon fill="none" stroke="#000000" points="197.5,-40.2 197.5,-59.2 259.5,-59.2 259.5,-40.2 197.5,-40.2"/>
<text text-anchor="start" x="240.9053" y="-46.3" font-family="Helvetica,sans-Serif" font-size="11.00" fill="#000000">1 &gt;</text>
<polygon fill="none" stroke="#000000" stroke-width="2" points="9,-39.2 9,-149.2 260,-149.2 260,-39.2 9,-39.2"/>
</a>
</g>
</g>
<!-- plp_diagnostics&#45;&gt;plp_diagnostic_summary -->
<g id="edge1" class="edge">
<title>plp_diagnostics:w&#45;&gt;plp_diagnostic_summary:e</title>
<path fill="none" stroke="#000000" d="M295.4203,-114.2C283.5435,-114.2 276.158,-114.2 259.5,-114.2"/>
<polygon fill="#000000" stroke="#000000" points="302,-114.2001 310,-117.8 306,-114.2 310,-114.2 310,-114.2 310,-114.2 306,-114.2 310,-110.6 302,-114.2001 302,-114.2001"/>
<ellipse fill="none" stroke="#000000" cx="298.8" cy="-114.2001" rx="3.2" ry="3.2"/>
</g>
</g>
</svg>
