<?xml version="1.0" encoding="UTF-8" standalone="no"?>
<!DOCTYPE svg PUBLIC "-//W3C//DTD SVG 1.1//EN"
 "http://www.w3.org/Graphics/SVG/1.1/DTD/svg11.dtd">
<!-- Generated by graphviz version 2.40.1 (20161225.0304)
 -->
<!-- Title: oneDegreeRelationshipsDiagram Pages: 1 -->
<svg width="284pt" height="206pt"
 viewBox="0.00 0.00 284.00 206.20" xmlns="http://www.w3.org/2000/svg" xmlns:xlink="http://www.w3.org/1999/xlink">
<g id="graph0" class="graph" transform="scale(1 1) rotate(0) translate(4 202.2)">
<title>oneDegreeRelationshipsDiagram</title>
<polygon fill="#ffffff" stroke="transparent" points="-4,4 -4,-202.2 280,-202.2 280,4 -4,4"/>
<text text-anchor="middle" x="72.4936" y="-7.3" font-family="Helvetica,sans-Serif" font-size="11.00" fill="#000000">Generated by SchemaSpy</text>
<!-- plp_diagnostic_predictors -->
<g id="node1" class="node">
<title>plp_diagnostic_predictors</title>
<g id="a_node1"><a xlink:href="../../tables/plp_diagnostic_predictors.html" xlink:title="plp_diagnostic_predictors" target="_top">
<polygon fill="#ffffff" stroke="transparent" points="8,-38.2 8,-194.2 268,-194.2 268,-38.2 8,-38.2"/>
<polygon fill="#f5f5f5" stroke="transparent" points="10,-169.2 10,-192.2 266,-192.2 266,-169.2 10,-169.2"/>
<polygon fill="none" stroke="#000000" points="10,-169.2 10,-192.2 266,-192.2 266,-169.2 10,-169.2"/>
<text text-anchor="start" x="15" y="-177.8" font-family="Helvetica,sans-Serif" font-weight="bold" font-size="11.00" fill="#000000">plp_diagnostic_predictors</text>
<text text-anchor="start" x="231.0437" y="-177.3" font-family="Helvetica,sans-Serif" font-size="11.00" fill="#000000">[table]</text>
<polygon fill="none" stroke="#000000" points="10,-147.2 10,-169.2 204,-169.2 204,-147.2 10,-147.2"/>
<text text-anchor="start" x="30" y="-154.3" font-family="Helvetica,sans-Serif" font-size="11.00" fill="#000000">days_to_event</text>
<polygon fill="none" stroke="#000000" points="204,-147.2 204,-169.2 266,-169.2 266,-147.2 204,-147.2"/>
<text text-anchor="start" x="206.878" y="-154.9" font-family="Helvetica,sans-Serif" font-size="11.00" fill="#000000">unknown[0]</text>
<polygon fill="none" stroke="#000000" points="10,-125.2 10,-147.2 204,-147.2 204,-125.2 10,-125.2"/>
<text text-anchor="start" x="30" y="-132.3" font-family="Helvetica,sans-Serif" font-size="11.00" fill="#000000">diagnostic_id</text>
<polygon fill="none" stroke="#000000" points="204,-125.2 204,-147.2 266,-147.2 266,-125.2 204,-125.2"/>
<text text-anchor="start" x="206.878" y="-132.9" font-family="Helvetica,sans-Serif" font-size="11.00" fill="#000000">unknown[0]</text>
<polygon fill="none" stroke="#000000" points="10,-103.2 10,-125.2 204,-125.2 204,-103.2 10,-103.2"/>
<text text-anchor="start" x="30" y="-110.3" font-family="Helvetica,sans-Serif" font-size="11.00" fill="#000000">input_type</text>
<polygon fill="none" stroke="#000000" points="204,-103.2 204,-125.2 266,-125.2 266,-103.2 204,-103.2"/>
<text text-anchor="start" x="206.878" y="-110.9" font-family="Helvetica,sans-Serif" font-size="11.00" fill="#000000">unknown[0]</text>
<polygon fill="none" stroke="#000000" points="10,-81.2 10,-103.2 204,-103.2 204,-81.2 10,-81.2"/>
<text text-anchor="start" x="30" y="-88.3" font-family="Helvetica,sans-Serif" font-size="11.00" fill="#000000">observed_at_start_of_day</text>
<polygon fill="none" stroke="#000000" points="204,-81.2 204,-103.2 266,-103.2 266,-81.2 204,-81.2"/>
<text text-anchor="start" x="206.878" y="-88.9" font-family="Helvetica,sans-Serif" font-size="11.00" fill="#000000">unknown[0]</text>
<polygon fill="none" stroke="#000000" points="10,-59.2 10,-81.2 204,-81.2 204,-59.2 10,-59.2"/>
<text text-anchor="start" x="30" y="-66.3" font-family="Helvetica,sans-Serif" font-size="11.00" fill="#000000">outcome_at_time</text>
<polygon fill="none" stroke="#000000" points="204,-59.2 204,-81.2 266,-81.2 266,-59.2 204,-59.2"/>
<text text-anchor="start" x="206.878" y="-66.9" font-family="Helvetica,sans-Serif" font-size="11.00" fill="#000000">unknown[0]</text>
<polygon fill="#ffffff" stroke="transparent" points="10,-40.2 10,-59.2 98,-59.2 98,-40.2 10,-40.2"/>
<polygon fill="none" stroke="#000000" points="10,-40.2 10,-59.2 98,-59.2 98,-40.2 10,-40.2"/>
<text text-anchor="start" x="13" y="-46.3" font-family="Helvetica,sans-Serif" font-size="11.00" fill="#000000">&lt; 0</text>
<polygon fill="#ffffff" stroke="transparent" points="98,-40.2 98,-59.2 204,-59.2 204,-40.2 98,-40.2"/>
<polygon fill="none" stroke="#000000" points="98,-40.2 98,-59.2 204,-59.2 204,-40.2 98,-40.2"/>
<text text-anchor="start" x="168.6105" y="-46.3" font-family="Helvetica,sans-Serif" font-size="11.00" fill="#000000">0 rows</text>
<polygon fill="#ffffff" stroke="transparent" points="204,-40.2 204,-59.2 266,-59.2 266,-40.2 204,-40.2"/>
<polygon fill="none" stroke="#000000" points="204,-40.2 204,-59.2 266,-59.2 266,-40.2 204,-40.2"/>
<text text-anchor="start" x="247.4053" y="-46.3" font-family="Helvetica,sans-Serif" font-size="11.00" fill="#000000">0 &gt;</text>
<polygon fill="none" stroke="#000000" stroke-width="2" points="9,-39.2 9,-193.2 267,-193.2 267,-39.2 9,-39.2"/>
</a>
</g>
</g>
</g>
</svg>
