<?xml version="1.0" encoding="UTF-8" standalone="no"?>
<!DOCTYPE svg PUBLIC "-//W3C//DTD SVG 1.1//EN"
 "http://www.w3.org/Graphics/SVG/1.1/DTD/svg11.dtd">
<!-- Generated by graphviz version 2.40.1 (20161225.0304)
 -->
<!-- Title: twoDegreesRelationshipsDiagram Pages: 1 -->
<svg width="482pt" height="983pt"
 viewBox="0.00 0.00 482.00 983.20" xmlns="http://www.w3.org/2000/svg" xmlns:xlink="http://www.w3.org/1999/xlink">
<g id="graph0" class="graph" transform="scale(1 1) rotate(0) translate(4 979.2)">
<title>twoDegreesRelationshipsDiagram</title>
<polygon fill="#ffffff" stroke="transparent" points="-4,4 -4,-979.2 478,-979.2 478,4 -4,4"/>
<text text-anchor="middle" x="72.4936" y="-7.3" font-family="Helvetica,sans-Serif" font-size="11.00" fill="#000000">Generated by SchemaSpy</text>
<!-- c_cohort_details -->
<g id="node1" class="node">
<title>c_cohort_details</title>
<g id="a_node1"><a xlink:href="../../tables/c_cohort_details.html" xlink:title="c_cohort_details" target="_top">
<polygon fill="#ffffff" stroke="transparent" points="275.5,-910.2 275.5,-971.2 422.5,-971.2 422.5,-910.2 275.5,-910.2"/>
<polygon fill="#f5f5f5" stroke="transparent" points="276,-947.7 276,-970.7 423,-970.7 423,-947.7 276,-947.7"/>
<polygon fill="none" stroke="#000000" points="276,-947.7 276,-970.7 423,-970.7 423,-947.7 276,-947.7"/>
<text text-anchor="start" x="281" y="-956.3" font-family="Helvetica,sans-Serif" font-weight="bold" font-size="11.00" fill="#000000">c_cohort_details</text>
<text text-anchor="start" x="388.5219" y="-955.8" font-family="Helvetica,sans-Serif" font-size="11.00" fill="#000000">[table]</text>
<polygon fill="none" stroke="#000000" points="276,-928.7 276,-947.7 423,-947.7 423,-928.7 276,-928.7"/>
<text text-anchor="start" x="279" y="-934.8" font-family="Helvetica,sans-Serif" font-size="11.00" fill="#000000">...</text>
<polygon fill="#ffffff" stroke="transparent" points="276,-909.7 276,-928.7 330,-928.7 330,-909.7 276,-909.7"/>
<polygon fill="none" stroke="#000000" points="276,-909.7 276,-928.7 330,-928.7 330,-909.7 276,-909.7"/>
<text text-anchor="start" x="279" y="-915.8" font-family="Helvetica,sans-Serif" font-size="11.00" fill="#000000">&lt; 2</text>
<polygon fill="#ffffff" stroke="transparent" points="330,-909.7 330,-928.7 385,-928.7 385,-909.7 330,-909.7"/>
<polygon fill="none" stroke="#000000" points="330,-909.7 330,-928.7 385,-928.7 385,-909.7 330,-909.7"/>
<text text-anchor="start" x="349.6105" y="-915.8" font-family="Helvetica,sans-Serif" font-size="11.00" fill="#000000">0 rows</text>
<polygon fill="#ffffff" stroke="transparent" points="385,-909.7 385,-928.7 423,-928.7 423,-909.7 385,-909.7"/>
<polygon fill="none" stroke="#000000" points="385,-909.7 385,-928.7 423,-928.7 423,-909.7 385,-909.7"/>
<text text-anchor="start" x="404.4053" y="-915.8" font-family="Helvetica,sans-Serif" font-size="11.00" fill="#000000">3 &gt;</text>
</a>
</g>
</g>
<!-- cg_cohort_definition -->
<g id="node2" class="node">
<title>cg_cohort_definition</title>
<g id="a_node2"><a xlink:href="../../tables/cg_cohort_definition.html" xlink:title="cg_cohort_definition" target="_top">
<polygon fill="#ffffff" stroke="transparent" points="8,-397.2 8,-480.2 183,-480.2 183,-397.2 8,-397.2"/>
<polygon fill="#f5f5f5" stroke="transparent" points="8.5,-456.7 8.5,-479.7 183.5,-479.7 183.5,-456.7 8.5,-456.7"/>
<polygon fill="none" stroke="#000000" points="8.5,-456.7 8.5,-479.7 183.5,-479.7 183.5,-456.7 8.5,-456.7"/>
<text text-anchor="start" x="13.5" y="-465.3" font-family="Helvetica,sans-Serif" font-weight="bold" font-size="11.00" fill="#000000">cg_cohort_definition</text>
<text text-anchor="start" x="149.0219" y="-464.8" font-family="Helvetica,sans-Serif" font-size="11.00" fill="#000000">[table]</text>
<polygon fill="none" stroke="#000000" points="8.5,-434.7 8.5,-456.7 183.5,-456.7 183.5,-434.7 8.5,-434.7"/>
<image xlink:href="../../images/primaryKeys.png" width="11px" height="12px" preserveAspectRatio="xMinYMin meet" x="13.5" y="-451.7"/>
<text text-anchor="start" x="37.5" y="-441.8" font-family="Helvetica,sans-Serif" font-size="11.00" fill="#000000">cohort_definition_id</text>
<polygon fill="none" stroke="#000000" points="8.5,-415.7 8.5,-434.7 183.5,-434.7 183.5,-415.7 8.5,-415.7"/>
<text text-anchor="start" x="11.5" y="-421.8" font-family="Helvetica,sans-Serif" font-size="11.00" fill="#000000">...</text>
<polygon fill="#ffffff" stroke="transparent" points="8.5,-396.7 8.5,-415.7 69.5,-415.7 69.5,-396.7 8.5,-396.7"/>
<polygon fill="none" stroke="#000000" points="8.5,-396.7 8.5,-415.7 69.5,-415.7 69.5,-396.7 8.5,-396.7"/>
<text text-anchor="start" x="11.5" y="-402.8" font-family="Helvetica,sans-Serif" font-size="11.00" fill="#000000"> &#160;</text>
<polygon fill="#ffffff" stroke="transparent" points="69.5,-396.7 69.5,-415.7 131.5,-415.7 131.5,-396.7 69.5,-396.7"/>
<polygon fill="none" stroke="#000000" points="69.5,-396.7 69.5,-415.7 131.5,-415.7 131.5,-396.7 69.5,-396.7"/>
<text text-anchor="start" x="96.1105" y="-402.8" font-family="Helvetica,sans-Serif" font-size="11.00" fill="#000000">0 rows</text>
<polygon fill="#ffffff" stroke="transparent" points="131.5,-396.7 131.5,-415.7 183.5,-415.7 183.5,-396.7 131.5,-396.7"/>
<polygon fill="none" stroke="#000000" points="131.5,-396.7 131.5,-415.7 183.5,-415.7 183.5,-396.7 131.5,-396.7"/>
<text text-anchor="start" x="158.7904" y="-402.8" font-family="Helvetica,sans-Serif" font-size="11.00" fill="#000000">17 &gt;</text>
</a>
</g>
</g>
<!-- c_cohort_details&#45;&gt;cg_cohort_definition -->
<g id="edge1" class="edge">
<title>c_cohort_details:w&#45;&gt;cg_cohort_definition:e</title>
<path fill="none" stroke="#000000" d="M262.0397,-933.65C243.8017,-926.4984 235.4968,-914.0456 224,-893.7 199.0846,-849.6079 234.1448,-439.7 183.5,-445.7"/>
<polygon fill="#000000" stroke="#000000" points="268.3168,-935.471 274.9969,-941.1574 272.1584,-936.5855 276,-937.7 276,-937.7 276,-937.7 272.1584,-936.5855 277.0031,-934.2426 268.3168,-935.471 268.3168,-935.471"/>
<ellipse fill="none" stroke="#000000" cx="265.2435" cy="-934.5794" rx="3.2" ry="3.2"/>
</g>
<!-- c_cohort_details&#45;&gt;cg_cohort_definition -->
<g id="edge2" class="edge">
<title>c_cohort_details:w&#45;&gt;cg_cohort_definition:e</title>
<path fill="none" stroke="#000000" d="M261.5188,-939.5704C243.6425,-939.2593 235.3868,-926.8509 224,-906.7 199.0846,-862.6079 234.1448,-452.7 183.5,-445.7"/>
<polygon fill="#000000" stroke="#000000" points="268.0659,-938.7248 276.4612,-941.2703 272.033,-938.2124 276,-937.7 276,-937.7 276,-937.7 272.033,-938.2124 275.5388,-934.1297 268.0659,-938.7248 268.0659,-938.7248"/>
<ellipse fill="none" stroke="#000000" cx="264.8923" cy="-939.1348" rx="3.2" ry="3.2"/>
</g>
<!-- c_dechallenge_rechallenge -->
<g id="node3" class="node">
<title>c_dechallenge_rechallenge</title>
<g id="a_node3"><a xlink:href="../../tables/c_dechallenge_rechallenge.html" xlink:title="c_dechallenge_rechallenge" target="_top">
<polygon fill="#ffffff" stroke="transparent" points="239.5,-828.2 239.5,-889.2 458.5,-889.2 458.5,-828.2 239.5,-828.2"/>
<polygon fill="#f5f5f5" stroke="transparent" points="240,-865.7 240,-888.7 459,-888.7 459,-865.7 240,-865.7"/>
<polygon fill="none" stroke="#000000" points="240,-865.7 240,-888.7 459,-888.7 459,-865.7 240,-865.7"/>
<text text-anchor="start" x="245" y="-874.3" font-family="Helvetica,sans-Serif" font-weight="bold" font-size="11.00" fill="#000000">c_dechallenge_rechallenge</text>
<text text-anchor="start" x="424.5219" y="-873.8" font-family="Helvetica,sans-Serif" font-size="11.00" fill="#000000">[table]</text>
<polygon fill="none" stroke="#000000" points="240,-846.7 240,-865.7 459,-865.7 459,-846.7 240,-846.7"/>
<text text-anchor="start" x="243" y="-852.8" font-family="Helvetica,sans-Serif" font-size="11.00" fill="#000000">...</text>
<polygon fill="#ffffff" stroke="transparent" points="240,-827.7 240,-846.7 335,-846.7 335,-827.7 240,-827.7"/>
<polygon fill="none" stroke="#000000" points="240,-827.7 240,-846.7 335,-846.7 335,-827.7 240,-827.7"/>
<text text-anchor="start" x="243" y="-833.8" font-family="Helvetica,sans-Serif" font-size="11.00" fill="#000000">&lt; 3</text>
<polygon fill="#ffffff" stroke="transparent" points="335,-827.7 335,-846.7 410,-846.7 410,-827.7 335,-827.7"/>
<polygon fill="none" stroke="#000000" points="335,-827.7 335,-846.7 410,-846.7 410,-827.7 335,-827.7"/>
<text text-anchor="start" x="374.6105" y="-833.8" font-family="Helvetica,sans-Serif" font-size="11.00" fill="#000000">0 rows</text>
<polygon fill="#ffffff" stroke="transparent" points="410,-827.7 410,-846.7 459,-846.7 459,-827.7 410,-827.7"/>
<polygon fill="none" stroke="#000000" points="410,-827.7 410,-846.7 459,-846.7 459,-827.7 410,-827.7"/>
<text text-anchor="start" x="449.8862" y="-833.8" font-family="Helvetica,sans-Serif" font-size="11.00" fill="#000000"> &#160;</text>
</a>
</g>
</g>
<!-- c_dechallenge_rechallenge&#45;&gt;cg_cohort_definition -->
<g id="edge3" class="edge">
<title>c_dechallenge_rechallenge:w&#45;&gt;cg_cohort_definition:e</title>
<path fill="none" stroke="#000000" d="M226.4039,-850.9412C161.761,-804.5893 270.2628,-440.0398 183.5,-445.7"/>
<polygon fill="#000000" stroke="#000000" points="232.4492,-853.0571 238.8107,-859.0979 236.2246,-854.3785 240,-855.7 240,-855.7 240,-855.7 236.2246,-854.3785 241.1893,-852.3021 232.4492,-853.0571 232.4492,-853.0571"/>
<ellipse fill="none" stroke="#000000" cx="229.4288" cy="-851.9999" rx="3.2" ry="3.2"/>
</g>
<!-- c_dechallenge_rechallenge&#45;&gt;cg_cohort_definition -->
<g id="edge4" class="edge">
<title>c_dechallenge_rechallenge:w&#45;&gt;cg_cohort_definition:e</title>
<path fill="none" stroke="#000000" d="M225.6098,-852.5674C162.6562,-814.5289 269.9035,-452.2762 183.5,-445.7"/>
<polygon fill="#000000" stroke="#000000" points="232.1831,-853.9983 239.2342,-859.2176 236.0915,-854.8492 240,-855.7 240,-855.7 240,-855.7 236.0915,-854.8492 240.7658,-852.1824 232.1831,-853.9983 232.1831,-853.9983"/>
<ellipse fill="none" stroke="#000000" cx="229.0563" cy="-853.3176" rx="3.2" ry="3.2"/>
</g>
<!-- cg_cohort_count -->
<g id="node4" class="node">
<title>cg_cohort_count</title>
<g id="a_node4"><a xlink:href="../../tables/cg_cohort_count.html" xlink:title="cg_cohort_count" target="_top">
<polygon fill="#ffffff" stroke="transparent" points="275,-746.2 275,-807.2 423,-807.2 423,-746.2 275,-746.2"/>
<polygon fill="#f5f5f5" stroke="transparent" points="275,-783.7 275,-806.7 423,-806.7 423,-783.7 275,-783.7"/>
<polygon fill="none" stroke="#000000" points="275,-783.7 275,-806.7 423,-806.7 423,-783.7 275,-783.7"/>
<text text-anchor="start" x="280" y="-792.3" font-family="Helvetica,sans-Serif" font-weight="bold" font-size="11.00" fill="#000000">cg_cohort_count</text>
<text text-anchor="start" x="388.5219" y="-791.8" font-family="Helvetica,sans-Serif" font-size="11.00" fill="#000000">[table]</text>
<polygon fill="none" stroke="#000000" points="275,-764.7 275,-783.7 423,-783.7 423,-764.7 275,-764.7"/>
<text text-anchor="start" x="278" y="-770.8" font-family="Helvetica,sans-Serif" font-size="11.00" fill="#000000">...</text>
<polygon fill="#ffffff" stroke="transparent" points="275,-745.7 275,-764.7 334,-764.7 334,-745.7 275,-745.7"/>
<polygon fill="none" stroke="#000000" points="275,-745.7 275,-764.7 334,-764.7 334,-745.7 275,-745.7"/>
<text text-anchor="start" x="278" y="-751.8" font-family="Helvetica,sans-Serif" font-size="11.00" fill="#000000">&lt; 2</text>
<polygon fill="#ffffff" stroke="transparent" points="334,-745.7 334,-764.7 391,-764.7 391,-745.7 334,-745.7"/>
<polygon fill="none" stroke="#000000" points="334,-745.7 334,-764.7 391,-764.7 391,-745.7 334,-745.7"/>
<text text-anchor="start" x="355.6105" y="-751.8" font-family="Helvetica,sans-Serif" font-size="11.00" fill="#000000">0 rows</text>
<polygon fill="#ffffff" stroke="transparent" points="391,-745.7 391,-764.7 423,-764.7 423,-745.7 391,-745.7"/>
<polygon fill="none" stroke="#000000" points="391,-745.7 391,-764.7 423,-764.7 423,-745.7 391,-745.7"/>
<text text-anchor="start" x="413.8862" y="-751.8" font-family="Helvetica,sans-Serif" font-size="11.00" fill="#000000"> &#160;</text>
</a>
</g>
</g>
<!-- cg_cohort_count&#45;&gt;cg_cohort_definition -->
<g id="edge5" class="edge">
<title>cg_cohort_count:w&#45;&gt;cg_cohort_definition:e</title>
<path fill="none" stroke="#000000" d="M260.5251,-772.1574C243.2472,-767.9513 235.589,-755.2723 224,-735.7 190.8472,-679.7091 248.5699,-445.7 183.5,-445.7"/>
<polygon fill="#000000" stroke="#000000" points="267.045,-772.8522 274.6185,-777.2797 271.0225,-773.2761 275,-773.7 275,-773.7 275,-773.7 271.0225,-773.2761 275.3815,-770.1203 267.045,-772.8522 267.045,-772.8522"/>
<ellipse fill="none" stroke="#000000" cx="263.8631" cy="-772.513" rx="3.2" ry="3.2"/>
</g>
<!-- cg_cohort_inclusion -->
<g id="node5" class="node">
<title>cg_cohort_inclusion</title>
<g id="a_node5"><a xlink:href="../../tables/cg_cohort_inclusion.html" xlink:title="cg_cohort_inclusion" target="_top">
<polygon fill="#ffffff" stroke="transparent" points="264,-664.2 264,-725.2 434,-725.2 434,-664.2 264,-664.2"/>
<polygon fill="#f5f5f5" stroke="transparent" points="264,-701.7 264,-724.7 434,-724.7 434,-701.7 264,-701.7"/>
<polygon fill="none" stroke="#000000" points="264,-701.7 264,-724.7 434,-724.7 434,-701.7 264,-701.7"/>
<text text-anchor="start" x="269" y="-710.3" font-family="Helvetica,sans-Serif" font-weight="bold" font-size="11.00" fill="#000000">cg_cohort_inclusion</text>
<text text-anchor="start" x="399.5219" y="-709.8" font-family="Helvetica,sans-Serif" font-size="11.00" fill="#000000">[table]</text>
<polygon fill="none" stroke="#000000" points="264,-682.7 264,-701.7 434,-701.7 434,-682.7 264,-682.7"/>
<text text-anchor="start" x="267" y="-688.8" font-family="Helvetica,sans-Serif" font-size="11.00" fill="#000000">...</text>
<polygon fill="#ffffff" stroke="transparent" points="264,-663.7 264,-682.7 334,-682.7 334,-663.7 264,-663.7"/>
<polygon fill="none" stroke="#000000" points="264,-663.7 264,-682.7 334,-682.7 334,-663.7 264,-663.7"/>
<text text-anchor="start" x="267" y="-669.8" font-family="Helvetica,sans-Serif" font-size="11.00" fill="#000000">&lt; 1</text>
<polygon fill="#ffffff" stroke="transparent" points="334,-663.7 334,-682.7 397,-682.7 397,-663.7 334,-663.7"/>
<polygon fill="none" stroke="#000000" points="334,-663.7 334,-682.7 397,-682.7 397,-663.7 334,-663.7"/>
<text text-anchor="start" x="361.6105" y="-669.8" font-family="Helvetica,sans-Serif" font-size="11.00" fill="#000000">0 rows</text>
<polygon fill="#ffffff" stroke="transparent" points="397,-663.7 397,-682.7 434,-682.7 434,-663.7 397,-663.7"/>
<polygon fill="none" stroke="#000000" points="397,-663.7 397,-682.7 434,-682.7 434,-663.7 397,-663.7"/>
<text text-anchor="start" x="424.8862" y="-669.8" font-family="Helvetica,sans-Serif" font-size="11.00" fill="#000000"> &#160;</text>
</a>
</g>
</g>
<!-- cg_cohort_inclusion&#45;&gt;cg_cohort_definition -->
<g id="edge6" class="edge">
<title>cg_cohort_inclusion:w&#45;&gt;cg_cohort_definition:e</title>
<path fill="none" stroke="#000000" d="M249.8194,-689.1289C237.3054,-683.6908 233.0282,-670.1607 224,-653.7 201.3548,-612.4121 230.5903,-445.7 183.5,-445.7"/>
<polygon fill="#000000" stroke="#000000" points="256.1283,-690.2727 263.3577,-695.2422 260.0642,-690.9864 264,-691.7 264,-691.7 264,-691.7 260.0642,-690.9864 264.6423,-688.1578 256.1283,-690.2727 256.1283,-690.2727"/>
<ellipse fill="none" stroke="#000000" cx="252.9797" cy="-689.7018" rx="3.2" ry="3.2"/>
</g>
<!-- cg_cohort_summary_stats -->
<g id="node6" class="node">
<title>cg_cohort_summary_stats</title>
<g id="a_node6"><a xlink:href="../../tables/cg_cohort_summary_stats.html" xlink:title="cg_cohort_summary_stats" target="_top">
<polygon fill="#ffffff" stroke="transparent" points="243,-582.2 243,-643.2 455,-643.2 455,-582.2 243,-582.2"/>
<polygon fill="#f5f5f5" stroke="transparent" points="243,-619.7 243,-642.7 455,-642.7 455,-619.7 243,-619.7"/>
<polygon fill="none" stroke="#000000" points="243,-619.7 243,-642.7 455,-642.7 455,-619.7 243,-619.7"/>
<text text-anchor="start" x="248" y="-628.3" font-family="Helvetica,sans-Serif" font-weight="bold" font-size="11.00" fill="#000000">cg_cohort_summary_stats</text>
<text text-anchor="start" x="420.5219" y="-627.8" font-family="Helvetica,sans-Serif" font-size="11.00" fill="#000000">[table]</text>
<polygon fill="none" stroke="#000000" points="243,-600.7 243,-619.7 455,-619.7 455,-600.7 243,-600.7"/>
<text text-anchor="start" x="246" y="-606.8" font-family="Helvetica,sans-Serif" font-size="11.00" fill="#000000">...</text>
<polygon fill="#ffffff" stroke="transparent" points="243,-581.7 243,-600.7 334,-600.7 334,-581.7 243,-581.7"/>
<polygon fill="none" stroke="#000000" points="243,-581.7 243,-600.7 334,-600.7 334,-581.7 243,-581.7"/>
<text text-anchor="start" x="246" y="-587.8" font-family="Helvetica,sans-Serif" font-size="11.00" fill="#000000">&lt; 2</text>
<polygon fill="#ffffff" stroke="transparent" points="334,-581.7 334,-600.7 407,-600.7 407,-581.7 334,-581.7"/>
<polygon fill="none" stroke="#000000" points="334,-581.7 334,-600.7 407,-600.7 407,-581.7 334,-581.7"/>
<text text-anchor="start" x="371.6105" y="-587.8" font-family="Helvetica,sans-Serif" font-size="11.00" fill="#000000">0 rows</text>
<polygon fill="#ffffff" stroke="transparent" points="407,-581.7 407,-600.7 455,-600.7 455,-581.7 407,-581.7"/>
<polygon fill="none" stroke="#000000" points="407,-581.7 407,-600.7 455,-600.7 455,-581.7 407,-581.7"/>
<text text-anchor="start" x="445.8862" y="-587.8" font-family="Helvetica,sans-Serif" font-size="11.00" fill="#000000"> &#160;</text>
</a>
</g>
</g>
<!-- cg_cohort_summary_stats&#45;&gt;cg_cohort_definition -->
<g id="edge7" class="edge">
<title>cg_cohort_summary_stats:w&#45;&gt;cg_cohort_definition:e</title>
<path fill="none" stroke="#000000" d="M228.7716,-607.2544C178.3719,-586.8533 255.4344,-445.7 183.5,-445.7"/>
<polygon fill="#000000" stroke="#000000" points="235.1156,-608.3448 242.3902,-613.248 239.0578,-609.0224 243,-609.7 243,-609.7 243,-609.7 239.0578,-609.0224 243.6098,-606.152 235.1156,-608.3448 235.1156,-608.3448"/>
<ellipse fill="none" stroke="#000000" cx="231.9619" cy="-607.8027" rx="3.2" ry="3.2"/>
</g>
<!-- ci_incidence_summary -->
<g id="node7" class="node">
<title>ci_incidence_summary</title>
<g id="a_node7"><a xlink:href="../../tables/ci_incidence_summary.html" xlink:title="ci_incidence_summary" target="_top">
<polygon fill="#ffffff" stroke="transparent" points="254.5,-500.2 254.5,-561.2 443.5,-561.2 443.5,-500.2 254.5,-500.2"/>
<polygon fill="#f5f5f5" stroke="transparent" points="255,-537.7 255,-560.7 444,-560.7 444,-537.7 255,-537.7"/>
<polygon fill="none" stroke="#000000" points="255,-537.7 255,-560.7 444,-560.7 444,-537.7 255,-537.7"/>
<text text-anchor="start" x="260" y="-546.3" font-family="Helvetica,sans-Serif" font-weight="bold" font-size="11.00" fill="#000000">ci_incidence_summary</text>
<text text-anchor="start" x="409.5219" y="-545.8" font-family="Helvetica,sans-Serif" font-size="11.00" fill="#000000">[table]</text>
<polygon fill="none" stroke="#000000" points="255,-518.7 255,-537.7 444,-537.7 444,-518.7 255,-518.7"/>
<text text-anchor="start" x="258" y="-524.8" font-family="Helvetica,sans-Serif" font-size="11.00" fill="#000000">...</text>
<polygon fill="#ffffff" stroke="transparent" points="255,-499.7 255,-518.7 338,-518.7 338,-499.7 255,-499.7"/>
<polygon fill="none" stroke="#000000" points="255,-499.7 255,-518.7 338,-518.7 338,-499.7 255,-499.7"/>
<text text-anchor="start" x="258" y="-505.8" font-family="Helvetica,sans-Serif" font-size="11.00" fill="#000000">&lt; 10</text>
<polygon fill="#ffffff" stroke="transparent" points="338,-499.7 338,-518.7 404,-518.7 404,-499.7 338,-499.7"/>
<polygon fill="none" stroke="#000000" points="338,-499.7 338,-518.7 404,-518.7 404,-499.7 338,-499.7"/>
<text text-anchor="start" x="368.6105" y="-505.8" font-family="Helvetica,sans-Serif" font-size="11.00" fill="#000000">0 rows</text>
<polygon fill="#ffffff" stroke="transparent" points="404,-499.7 404,-518.7 444,-518.7 444,-499.7 404,-499.7"/>
<polygon fill="none" stroke="#000000" points="404,-499.7 404,-518.7 444,-518.7 444,-499.7 404,-499.7"/>
<text text-anchor="start" x="434.8862" y="-505.8" font-family="Helvetica,sans-Serif" font-size="11.00" fill="#000000"> &#160;</text>
</a>
</g>
</g>
<!-- ci_incidence_summary&#45;&gt;cg_cohort_definition -->
<g id="edge8" class="edge">
<title>ci_incidence_summary:w&#45;&gt;cg_cohort_definition:e</title>
<path fill="none" stroke="#000000" d="M240.7946,-524.5856C211.5444,-509.6073 226.1867,-445.7 183.5,-445.7"/>
<polygon fill="#000000" stroke="#000000" points="247.1856,-525.9867 254.229,-531.2165 251.0928,-526.8434 255,-527.7 255,-527.7 255,-527.7 251.0928,-526.8434 255.771,-524.1835 247.1856,-525.9867 247.1856,-525.9867"/>
<ellipse fill="none" stroke="#000000" cx="244.0598" cy="-525.3014" rx="3.2" ry="3.2"/>
</g>
<!-- cm_diagnostics_summary -->
<g id="node8" class="node">
<title>cm_diagnostics_summary</title>
<g id="a_node8"><a xlink:href="../../tables/cm_diagnostics_summary.html" xlink:title="cm_diagnostics_summary" target="_top">
<polygon fill="#ffffff" stroke="transparent" points="244,-418.2 244,-479.2 454,-479.2 454,-418.2 244,-418.2"/>
<polygon fill="#f5f5f5" stroke="transparent" points="244,-455.7 244,-478.7 454,-478.7 454,-455.7 244,-455.7"/>
<polygon fill="none" stroke="#000000" points="244,-455.7 244,-478.7 454,-478.7 454,-455.7 244,-455.7"/>
<text text-anchor="start" x="249" y="-464.3" font-family="Helvetica,sans-Serif" font-weight="bold" font-size="11.00" fill="#000000">cm_diagnostics_summary</text>
<text text-anchor="start" x="419.5219" y="-463.8" font-family="Helvetica,sans-Serif" font-size="11.00" fill="#000000">[table]</text>
<polygon fill="none" stroke="#000000" points="244,-436.7 244,-455.7 454,-455.7 454,-436.7 244,-436.7"/>
<text text-anchor="start" x="247" y="-442.8" font-family="Helvetica,sans-Serif" font-size="11.00" fill="#000000">...</text>
<polygon fill="#ffffff" stroke="transparent" points="244,-417.7 244,-436.7 330,-436.7 330,-417.7 244,-417.7"/>
<polygon fill="none" stroke="#000000" points="244,-417.7 244,-436.7 330,-436.7 330,-417.7 244,-417.7"/>
<text text-anchor="start" x="247" y="-423.8" font-family="Helvetica,sans-Serif" font-size="11.00" fill="#000000">&lt; 5</text>
<polygon fill="#ffffff" stroke="transparent" points="330,-417.7 330,-436.7 400,-436.7 400,-417.7 330,-417.7"/>
<polygon fill="none" stroke="#000000" points="330,-417.7 330,-436.7 400,-436.7 400,-417.7 330,-417.7"/>
<text text-anchor="start" x="364.6105" y="-423.8" font-family="Helvetica,sans-Serif" font-size="11.00" fill="#000000">0 rows</text>
<polygon fill="#ffffff" stroke="transparent" points="400,-417.7 400,-436.7 454,-436.7 454,-417.7 400,-417.7"/>
<polygon fill="none" stroke="#000000" points="400,-417.7 400,-436.7 454,-436.7 454,-417.7 400,-417.7"/>
<text text-anchor="start" x="435.4053" y="-423.8" font-family="Helvetica,sans-Serif" font-size="11.00" fill="#000000">1 &gt;</text>
</a>
</g>
</g>
<!-- cm_diagnostics_summary&#45;&gt;cg_cohort_definition -->
<g id="edge9" class="edge">
<title>cm_diagnostics_summary:w&#45;&gt;cg_cohort_definition:e</title>
<path fill="none" stroke="#000000" d="M230.7361,-439.7586C213.8813,-433.157 205.3472,-435.1375 183.5,-445.7"/>
<polygon fill="#000000" stroke="#000000" points="236.699,-442.4296 242.5283,-448.9855 240.3495,-444.0648 244,-445.7 244,-445.7 244,-445.7 240.3495,-444.0648 245.4717,-442.4145 236.699,-442.4296 236.699,-442.4296"/>
<ellipse fill="none" stroke="#000000" cx="233.7786" cy="-441.1214" rx="3.2" ry="3.2"/>
</g>
<!-- cm_diagnostics_summary&#45;&gt;cg_cohort_definition -->
<g id="edge10" class="edge">
<title>cm_diagnostics_summary:w&#45;&gt;cg_cohort_definition:e</title>
<path fill="none" stroke="#000000" d="M229.2977,-445.7C213.3779,-445.7 204.717,-445.7 183.5,-445.7"/>
<polygon fill="#000000" stroke="#000000" points="236,-445.7001 244,-449.3 240,-445.7 244,-445.7 244,-445.7 244,-445.7 240,-445.7 244,-442.1 236,-445.7001 236,-445.7001"/>
<ellipse fill="none" stroke="#000000" cx="232.8" cy="-445.7001" rx="3.2" ry="3.2"/>
</g>
<!-- cm_diagnostics_summary&#45;&gt;cg_cohort_definition -->
<g id="edge11" class="edge">
<title>cm_diagnostics_summary:w&#45;&gt;cg_cohort_definition:e</title>
<path fill="none" stroke="#000000" d="M230.7361,-451.6414C213.8813,-458.243 205.3472,-456.2625 183.5,-445.7"/>
<polygon fill="#000000" stroke="#000000" points="236.699,-448.9704 245.4717,-448.9855 240.3495,-447.3352 244,-445.7 244,-445.7 244,-445.7 240.3495,-447.3352 242.5283,-442.4145 236.699,-448.9704 236.699,-448.9704"/>
<ellipse fill="none" stroke="#000000" cx="233.7786" cy="-450.2786" rx="3.2" ry="3.2"/>
</g>
<!-- plp_cohorts -->
<g id="node9" class="node">
<title>plp_cohorts</title>
<g id="a_node9"><a xlink:href="../../tables/plp_cohorts.html" xlink:title="plp_cohorts" target="_top">
<polygon fill="#ffffff" stroke="transparent" points="239,-284.7 239,-396.7 459,-396.7 459,-284.7 239,-284.7"/>
<polygon fill="#f5f5f5" stroke="transparent" points="241,-371.7 241,-394.7 457,-394.7 457,-371.7 241,-371.7"/>
<polygon fill="none" stroke="#000000" points="241,-371.7 241,-394.7 457,-394.7 457,-371.7 241,-371.7"/>
<text text-anchor="start" x="246" y="-380.3" font-family="Helvetica,sans-Serif" font-weight="bold" font-size="11.00" fill="#000000">plp_cohorts</text>
<text text-anchor="start" x="422.0437" y="-379.8" font-family="Helvetica,sans-Serif" font-size="11.00" fill="#000000">[table]</text>
<polygon fill="none" stroke="#000000" points="241,-349.7 241,-371.7 395,-371.7 395,-349.7 241,-349.7"/>
<image xlink:href="../../images/foreignKeys.png" width="11px" height="12px" preserveAspectRatio="xMinYMin meet" x="246" y="-366.7"/>
<text text-anchor="start" x="261" y="-356.8" font-family="Helvetica,sans-Serif" font-size="11.00" fill="#000000">cohort_definition_id</text>
<polygon fill="none" stroke="#000000" points="395,-349.7 395,-371.7 457,-371.7 457,-349.7 395,-349.7"/>
<text text-anchor="start" x="397.878" y="-357.4" font-family="Helvetica,sans-Serif" font-size="11.00" fill="#000000">unknown[0]</text>
<polygon fill="none" stroke="#000000" points="241,-327.7 241,-349.7 395,-349.7 395,-327.7 241,-327.7"/>
<text text-anchor="start" x="261" y="-334.8" font-family="Helvetica,sans-Serif" font-size="11.00" fill="#000000">cohort_id</text>
<polygon fill="none" stroke="#000000" points="395,-327.7 395,-349.7 457,-349.7 457,-327.7 395,-327.7"/>
<text text-anchor="start" x="397.878" y="-335.4" font-family="Helvetica,sans-Serif" font-size="11.00" fill="#000000">unknown[0]</text>
<polygon fill="none" stroke="#000000" points="241,-305.7 241,-327.7 395,-327.7 395,-305.7 241,-305.7"/>
<text text-anchor="start" x="261" y="-312.8" font-family="Helvetica,sans-Serif" font-size="11.00" fill="#000000">cohort_name</text>
<polygon fill="none" stroke="#000000" points="395,-305.7 395,-327.7 457,-327.7 457,-305.7 395,-305.7"/>
<text text-anchor="start" x="397.878" y="-313.4" font-family="Helvetica,sans-Serif" font-size="11.00" fill="#000000">unknown[0]</text>
<polygon fill="#ffffff" stroke="transparent" points="241,-286.7 241,-305.7 309,-305.7 309,-286.7 241,-286.7"/>
<polygon fill="none" stroke="#000000" points="241,-286.7 241,-305.7 309,-305.7 309,-286.7 241,-286.7"/>
<text text-anchor="start" x="244" y="-292.8" font-family="Helvetica,sans-Serif" font-size="11.00" fill="#000000">&lt; 1</text>
<polygon fill="#ffffff" stroke="transparent" points="309,-286.7 309,-305.7 395,-305.7 395,-286.7 309,-286.7"/>
<polygon fill="none" stroke="#000000" points="309,-286.7 309,-305.7 395,-305.7 395,-286.7 309,-286.7"/>
<text text-anchor="start" x="359.6105" y="-292.8" font-family="Helvetica,sans-Serif" font-size="11.00" fill="#000000">0 rows</text>
<polygon fill="#ffffff" stroke="transparent" points="395,-286.7 395,-305.7 457,-305.7 457,-286.7 395,-286.7"/>
<polygon fill="none" stroke="#000000" points="395,-286.7 395,-305.7 457,-305.7 457,-286.7 395,-286.7"/>
<text text-anchor="start" x="438.4053" y="-292.8" font-family="Helvetica,sans-Serif" font-size="11.00" fill="#000000">0 &gt;</text>
<polygon fill="none" stroke="#000000" stroke-width="2" points="240,-285.7 240,-395.7 458,-395.7 458,-285.7 240,-285.7"/>
</a>
</g>
</g>
<!-- plp_cohorts&#45;&gt;cg_cohort_definition -->
<g id="edge12" class="edge">
<title>plp_cohorts:w&#45;&gt;cg_cohort_definition:e</title>
<path fill="none" stroke="#000000" d="M226.9766,-364.5731C202.7654,-381.2016 223.2303,-445.7 183.5,-445.7"/>
<polygon fill="#000000" stroke="#000000" points="233.2887,-362.8298 241.9584,-364.1701 237.1444,-361.7649 241,-360.7 241,-360.7 241,-360.7 237.1444,-361.7649 240.0416,-357.2299 233.2887,-362.8298 233.2887,-362.8298"/>
<ellipse fill="none" stroke="#000000" cx="230.2042" cy="-363.6818" rx="3.2" ry="3.2"/>
</g>
<!-- plp_model_designs -->
<g id="node10" class="node">
<title>plp_model_designs</title>
<g id="a_node10"><a xlink:href="../../tables/plp_model_designs.html" xlink:title="plp_model_designs" target="_top">
<polygon fill="#ffffff" stroke="transparent" points="266,-202.2 266,-263.2 432,-263.2 432,-202.2 266,-202.2"/>
<polygon fill="#f5f5f5" stroke="transparent" points="266,-239.7 266,-262.7 432,-262.7 432,-239.7 266,-239.7"/>
<polygon fill="none" stroke="#000000" points="266,-239.7 266,-262.7 432,-262.7 432,-239.7 266,-239.7"/>
<text text-anchor="start" x="271" y="-248.3" font-family="Helvetica,sans-Serif" font-weight="bold" font-size="11.00" fill="#000000">plp_model_designs</text>
<text text-anchor="start" x="397.5219" y="-247.8" font-family="Helvetica,sans-Serif" font-size="11.00" fill="#000000">[table]</text>
<polygon fill="none" stroke="#000000" points="266,-220.7 266,-239.7 432,-239.7 432,-220.7 266,-220.7"/>
<text text-anchor="start" x="269" y="-226.8" font-family="Helvetica,sans-Serif" font-size="11.00" fill="#000000">...</text>
<polygon fill="#ffffff" stroke="transparent" points="266,-201.7 266,-220.7 330,-220.7 330,-201.7 266,-201.7"/>
<polygon fill="none" stroke="#000000" points="266,-201.7 266,-220.7 330,-220.7 330,-201.7 266,-201.7"/>
<text text-anchor="start" x="269" y="-207.8" font-family="Helvetica,sans-Serif" font-size="11.00" fill="#000000">&lt; 2</text>
<polygon fill="#ffffff" stroke="transparent" points="330,-201.7 330,-220.7 389,-220.7 389,-201.7 330,-201.7"/>
<polygon fill="none" stroke="#000000" points="330,-201.7 330,-220.7 389,-220.7 389,-201.7 330,-201.7"/>
<text text-anchor="start" x="353.6105" y="-207.8" font-family="Helvetica,sans-Serif" font-size="11.00" fill="#000000">0 rows</text>
<polygon fill="#ffffff" stroke="transparent" points="389,-201.7 389,-220.7 432,-220.7 432,-201.7 389,-201.7"/>
<polygon fill="none" stroke="#000000" points="389,-201.7 389,-220.7 432,-220.7 432,-201.7 389,-201.7"/>
<text text-anchor="start" x="413.4053" y="-207.8" font-family="Helvetica,sans-Serif" font-size="11.00" fill="#000000">1 &gt;</text>
</a>
</g>
</g>
<!-- plp_model_designs&#45;&gt;cg_cohort_definition -->
<g id="edge13" class="edge">
<title>plp_model_designs:w&#45;&gt;cg_cohort_definition:e</title>
<path fill="none" stroke="#000000" d="M251.3407,-229.3742C237.352,-232.9914 234.0916,-249.8593 224,-268.7 187.1229,-337.5482 261.6025,-439.7 183.5,-445.7"/>
<polygon fill="#000000" stroke="#000000" points="258.002,-229.5222 265.92,-233.2991 262.001,-229.6111 266,-229.7 266,-229.7 266,-229.7 262.001,-229.6111 266.08,-226.1009 258.002,-229.5222 258.002,-229.5222"/>
<ellipse fill="none" stroke="#000000" cx="254.8028" cy="-229.4511" rx="3.2" ry="3.2"/>
</g>
<!-- plp_model_designs&#45;&gt;cg_cohort_definition -->
<g id="edge14" class="edge">
<title>plp_model_designs:w&#45;&gt;cg_cohort_definition:e</title>
<path fill="none" stroke="#000000" d="M252.6292,-235.3111C237.5415,-244.9811 234.3944,-262.2941 224,-281.7 187.1229,-350.5482 261.6025,-452.7 183.5,-445.7"/>
<polygon fill="#000000" stroke="#000000" points="258.6232,-232.7957 267.3931,-233.0196 262.3116,-231.2479 266,-229.7 266,-229.7 266,-229.7 262.3116,-231.2479 264.6069,-226.3804 258.6232,-232.7957 258.6232,-232.7957"/>
<ellipse fill="none" stroke="#000000" cx="255.6725" cy="-234.034" rx="3.2" ry="3.2"/>
</g>
<!-- plp_performances -->
<g id="node11" class="node">
<title>plp_performances</title>
<g id="a_node11"><a xlink:href="../../tables/plp_performances.html" xlink:title="plp_performances" target="_top">
<polygon fill="#ffffff" stroke="transparent" points="269.5,-120.2 269.5,-181.2 428.5,-181.2 428.5,-120.2 269.5,-120.2"/>
<polygon fill="#f5f5f5" stroke="transparent" points="270,-157.7 270,-180.7 429,-180.7 429,-157.7 270,-157.7"/>
<polygon fill="none" stroke="#000000" points="270,-157.7 270,-180.7 429,-180.7 429,-157.7 270,-157.7"/>
<text text-anchor="start" x="275" y="-166.3" font-family="Helvetica,sans-Serif" font-weight="bold" font-size="11.00" fill="#000000">plp_performances</text>
<text text-anchor="start" x="394.5219" y="-165.8" font-family="Helvetica,sans-Serif" font-size="11.00" fill="#000000">[table]</text>
<polygon fill="none" stroke="#000000" points="270,-138.7 270,-157.7 429,-157.7 429,-138.7 270,-138.7"/>
<text text-anchor="start" x="273" y="-144.8" font-family="Helvetica,sans-Serif" font-size="11.00" fill="#000000">...</text>
<polygon fill="#ffffff" stroke="transparent" points="270,-119.7 270,-138.7 335,-138.7 335,-119.7 270,-119.7"/>
<polygon fill="none" stroke="#000000" points="270,-119.7 270,-138.7 335,-138.7 335,-119.7 270,-119.7"/>
<text text-anchor="start" x="273" y="-125.8" font-family="Helvetica,sans-Serif" font-size="11.00" fill="#000000">&lt; 4</text>
<polygon fill="#ffffff" stroke="transparent" points="335,-119.7 335,-138.7 395,-138.7 395,-119.7 335,-119.7"/>
<polygon fill="none" stroke="#000000" points="335,-119.7 335,-138.7 395,-138.7 395,-119.7 335,-119.7"/>
<text text-anchor="start" x="359.6105" y="-125.8" font-family="Helvetica,sans-Serif" font-size="11.00" fill="#000000">0 rows</text>
<polygon fill="#ffffff" stroke="transparent" points="395,-119.7 395,-138.7 429,-138.7 429,-119.7 395,-119.7"/>
<polygon fill="none" stroke="#000000" points="395,-119.7 395,-138.7 429,-138.7 429,-119.7 395,-119.7"/>
<text text-anchor="start" x="419.8862" y="-125.8" font-family="Helvetica,sans-Serif" font-size="11.00" fill="#000000"> &#160;</text>
</a>
</g>
</g>
<!-- plp_performances&#45;&gt;cg_cohort_definition -->
<g id="edge15" class="edge">
<title>plp_performances:w&#45;&gt;cg_cohort_definition:e</title>
<path fill="none" stroke="#000000" d="M255.4253,-146.9734C239.4978,-149.648 234.4679,-165.733 224,-185.7 197.4606,-236.3225 240.6575,-439.7 183.5,-445.7"/>
<polygon fill="#000000" stroke="#000000" points="262.0099,-147.3016 269.8207,-151.2955 266.005,-147.5008 270,-147.7 270,-147.7 270,-147.7 266.005,-147.5008 270.1793,-144.1045 262.0099,-147.3016 262.0099,-147.3016"/>
<ellipse fill="none" stroke="#000000" cx="258.8139" cy="-147.1423" rx="3.2" ry="3.2"/>
</g>
<!-- plp_performances&#45;&gt;cg_cohort_definition -->
<g id="edge16" class="edge">
<title>plp_performances:w&#45;&gt;cg_cohort_definition:e</title>
<path fill="none" stroke="#000000" d="M256.375,-152.8587C239.693,-162.0187 234.6732,-178.3415 224,-198.7 197.4606,-249.3225 240.6575,-452.7 183.5,-445.7"/>
<polygon fill="#000000" stroke="#000000" points="262.5183,-150.5328 271.2747,-151.0668 266.2592,-149.1164 270,-147.7 270,-147.7 270,-147.7 266.2592,-149.1164 268.7253,-144.3332 262.5183,-150.5328 262.5183,-150.5328"/>
<ellipse fill="none" stroke="#000000" cx="259.5256" cy="-151.6659" rx="3.2" ry="3.2"/>
</g>
<!-- sccs_exposures_outcome_set -->
<g id="node12" class="node">
<title>sccs_exposures_outcome_set</title>
<g id="a_node12"><a xlink:href="../../tables/sccs_exposures_outcome_set.html" xlink:title="sccs_exposures_outcome_set" target="_top">
<polygon fill="#ffffff" stroke="transparent" points="232,-38.2 232,-99.2 466,-99.2 466,-38.2 232,-38.2"/>
<polygon fill="#f5f5f5" stroke="transparent" points="232,-75.7 232,-98.7 466,-98.7 466,-75.7 232,-75.7"/>
<polygon fill="none" stroke="#000000" points="232,-75.7 232,-98.7 466,-98.7 466,-75.7 232,-75.7"/>
<text text-anchor="start" x="237" y="-84.3" font-family="Helvetica,sans-Serif" font-weight="bold" font-size="11.00" fill="#000000">sccs_exposures_outcome_set</text>
<text text-anchor="start" x="431.5219" y="-83.8" font-family="Helvetica,sans-Serif" font-size="11.00" fill="#000000">[table]</text>
<polygon fill="none" stroke="#000000" points="232,-56.7 232,-75.7 466,-75.7 466,-56.7 232,-56.7"/>
<text text-anchor="start" x="235" y="-62.8" font-family="Helvetica,sans-Serif" font-size="11.00" fill="#000000">...</text>
<polygon fill="#ffffff" stroke="transparent" points="232,-37.7 232,-56.7 327,-56.7 327,-37.7 232,-37.7"/>
<polygon fill="none" stroke="#000000" points="232,-37.7 232,-56.7 327,-56.7 327,-37.7 232,-37.7"/>
<text text-anchor="start" x="235" y="-43.8" font-family="Helvetica,sans-Serif" font-size="11.00" fill="#000000">&lt; 3</text>
<polygon fill="#ffffff" stroke="transparent" points="327,-37.7 327,-56.7 402,-56.7 402,-37.7 327,-37.7"/>
<polygon fill="none" stroke="#000000" points="327,-37.7 327,-56.7 402,-56.7 402,-37.7 327,-37.7"/>
<text text-anchor="start" x="366.6105" y="-43.8" font-family="Helvetica,sans-Serif" font-size="11.00" fill="#000000">0 rows</text>
<polygon fill="#ffffff" stroke="transparent" points="402,-37.7 402,-56.7 466,-56.7 466,-37.7 402,-37.7"/>
<polygon fill="none" stroke="#000000" points="402,-37.7 402,-56.7 466,-56.7 466,-37.7 402,-37.7"/>
<text text-anchor="start" x="441.2904" y="-43.8" font-family="Helvetica,sans-Serif" font-size="11.00" fill="#000000">10 &gt;</text>
</a>
</g>
</g>
<!-- sccs_exposures_outcome_set&#45;&gt;cg_cohort_definition -->
<g id="edge17" class="edge">
<title>sccs_exposures_outcome_set:w&#45;&gt;cg_cohort_definition:e</title>
<path fill="none" stroke="#000000" d="M218.007,-70.2323C161.7066,-113.1058 263.1426,-445.7 183.5,-445.7"/>
<polygon fill="#000000" stroke="#000000" points="224.3893,-68.1651 233.1093,-69.1248 228.1946,-66.9326 232,-65.7 232,-65.7 232,-65.7 228.1946,-66.9326 230.8907,-62.2752 224.3893,-68.1651 224.3893,-68.1651"/>
<ellipse fill="none" stroke="#000000" cx="221.345" cy="-69.1512" rx="3.2" ry="3.2"/>
</g>
</g>
</svg>
