<?xml version="1.0" encoding="UTF-8" standalone="no"?>
<!DOCTYPE svg PUBLIC "-//W3C//DTD SVG 1.1//EN"
 "http://www.w3.org/Graphics/SVG/1.1/DTD/svg11.dtd">
<!-- Generated by graphviz version 2.40.1 (20161225.0304)
 -->
<!-- Title: twoDegreesRelationshipsDiagram Pages: 1 -->
<svg width="482pt" height="901pt"
 viewBox="0.00 0.00 482.00 901.20" xmlns="http://www.w3.org/2000/svg" xmlns:xlink="http://www.w3.org/1999/xlink">
<g id="graph0" class="graph" transform="scale(1 1) rotate(0) translate(4 897.2)">
<title>twoDegreesRelationshipsDiagram</title>
<polygon fill="#ffffff" stroke="transparent" points="-4,4 -4,-897.2 478,-897.2 478,4 -4,4"/>
<text text-anchor="middle" x="72.4936" y="-7.3" font-family="Helvetica,sans-Serif" font-size="11.00" fill="#000000">Generated by SchemaSpy</text>
<!-- c_dechallenge_rechallenge -->
<g id="node1" class="node">
<title>c_dechallenge_rechallenge</title>
<g id="a_node1"><a xlink:href="../../tables/c_dechallenge_rechallenge.html" xlink:title="c_dechallenge_rechallenge" target="_top">
<polygon fill="#ffffff" stroke="transparent" points="239.5,-828.2 239.5,-889.2 458.5,-889.2 458.5,-828.2 239.5,-828.2"/>
<polygon fill="#f5f5f5" stroke="transparent" points="240,-865.7 240,-888.7 459,-888.7 459,-865.7 240,-865.7"/>
<polygon fill="none" stroke="#000000" points="240,-865.7 240,-888.7 459,-888.7 459,-865.7 240,-865.7"/>
<text text-anchor="start" x="245" y="-874.3" font-family="Helvetica,sans-Serif" font-weight="bold" font-size="11.00" fill="#000000">c_dechallenge_rechallenge</text>
<text text-anchor="start" x="424.5219" y="-873.8" font-family="Helvetica,sans-Serif" font-size="11.00" fill="#000000">[table]</text>
<polygon fill="none" stroke="#000000" points="240,-846.7 240,-865.7 459,-865.7 459,-846.7 240,-846.7"/>
<text text-anchor="start" x="243" y="-852.8" font-family="Helvetica,sans-Serif" font-size="11.00" fill="#000000">...</text>
<polygon fill="#ffffff" stroke="transparent" points="240,-827.7 240,-846.7 335,-846.7 335,-827.7 240,-827.7"/>
<polygon fill="none" stroke="#000000" points="240,-827.7 240,-846.7 335,-846.7 335,-827.7 240,-827.7"/>
<text text-anchor="start" x="243" y="-833.8" font-family="Helvetica,sans-Serif" font-size="11.00" fill="#000000">&lt; 2</text>
<polygon fill="#ffffff" stroke="transparent" points="335,-827.7 335,-846.7 410,-846.7 410,-827.7 335,-827.7"/>
<polygon fill="none" stroke="#000000" points="335,-827.7 335,-846.7 410,-846.7 410,-827.7 335,-827.7"/>
<text text-anchor="start" x="374.6105" y="-833.8" font-family="Helvetica,sans-Serif" font-size="11.00" fill="#000000">0 rows</text>
<polygon fill="#ffffff" stroke="transparent" points="410,-827.7 410,-846.7 459,-846.7 459,-827.7 410,-827.7"/>
<polygon fill="none" stroke="#000000" points="410,-827.7 410,-846.7 459,-846.7 459,-827.7 410,-827.7"/>
<text text-anchor="start" x="449.8862" y="-833.8" font-family="Helvetica,sans-Serif" font-size="11.00" fill="#000000"> &#160;</text>
</a>
</g>
</g>
<!-- cg_cohort_definition -->
<g id="node2" class="node">
<title>cg_cohort_definition</title>
<g id="a_node2"><a xlink:href="../../tables/cg_cohort_definition.html" xlink:title="cg_cohort_definition" target="_top">
<polygon fill="#ffffff" stroke="transparent" points="8,-354.2 8,-437.2 183,-437.2 183,-354.2 8,-354.2"/>
<polygon fill="#f5f5f5" stroke="transparent" points="8.5,-413.7 8.5,-436.7 183.5,-436.7 183.5,-413.7 8.5,-413.7"/>
<polygon fill="none" stroke="#000000" points="8.5,-413.7 8.5,-436.7 183.5,-436.7 183.5,-413.7 8.5,-413.7"/>
<text text-anchor="start" x="13.5" y="-422.3" font-family="Helvetica,sans-Serif" font-weight="bold" font-size="11.00" fill="#000000">cg_cohort_definition</text>
<text text-anchor="start" x="149.0219" y="-421.8" font-family="Helvetica,sans-Serif" font-size="11.00" fill="#000000">[table]</text>
<polygon fill="none" stroke="#000000" points="8.5,-391.7 8.5,-413.7 183.5,-413.7 183.5,-391.7 8.5,-391.7"/>
<image xlink:href="../../images/primaryKeys.png" width="11px" height="12px" preserveAspectRatio="xMinYMin meet" x="13.5" y="-408.7"/>
<text text-anchor="start" x="37.5" y="-398.8" font-family="Helvetica,sans-Serif" font-size="11.00" fill="#000000">cohort_definition_id</text>
<polygon fill="none" stroke="#000000" points="8.5,-372.7 8.5,-391.7 183.5,-391.7 183.5,-372.7 8.5,-372.7"/>
<text text-anchor="start" x="11.5" y="-378.8" font-family="Helvetica,sans-Serif" font-size="11.00" fill="#000000">...</text>
<polygon fill="#ffffff" stroke="transparent" points="8.5,-353.7 8.5,-372.7 69.5,-372.7 69.5,-353.7 8.5,-353.7"/>
<polygon fill="none" stroke="#000000" points="8.5,-353.7 8.5,-372.7 69.5,-372.7 69.5,-353.7 8.5,-353.7"/>
<text text-anchor="start" x="11.5" y="-359.8" font-family="Helvetica,sans-Serif" font-size="11.00" fill="#000000"> &#160;</text>
<polygon fill="#ffffff" stroke="transparent" points="69.5,-353.7 69.5,-372.7 131.5,-372.7 131.5,-353.7 69.5,-353.7"/>
<polygon fill="none" stroke="#000000" points="69.5,-353.7 69.5,-372.7 131.5,-372.7 131.5,-353.7 69.5,-353.7"/>
<text text-anchor="start" x="96.1105" y="-359.8" font-family="Helvetica,sans-Serif" font-size="11.00" fill="#000000">0 rows</text>
<polygon fill="#ffffff" stroke="transparent" points="131.5,-353.7 131.5,-372.7 183.5,-372.7 183.5,-353.7 131.5,-353.7"/>
<polygon fill="none" stroke="#000000" points="131.5,-353.7 131.5,-372.7 183.5,-372.7 183.5,-353.7 131.5,-353.7"/>
<text text-anchor="start" x="158.7904" y="-359.8" font-family="Helvetica,sans-Serif" font-size="11.00" fill="#000000">12 &gt;</text>
</a>
</g>
</g>
<!-- c_dechallenge_rechallenge&#45;&gt;cg_cohort_definition -->
<g id="edge1" class="edge">
<title>c_dechallenge_rechallenge:w&#45;&gt;cg_cohort_definition:e</title>
<path fill="none" stroke="#000000" d="M225.9458,-852.0536C153.3041,-809.1824 279.5969,-402.7 183.5,-402.7"/>
<polygon fill="#000000" stroke="#000000" points="232.2564,-853.6909 239.0959,-859.1846 236.1282,-854.6954 240,-855.7 240,-855.7 240,-855.7 236.1282,-854.6954 240.9041,-852.2154 232.2564,-853.6909 232.2564,-853.6909"/>
<ellipse fill="none" stroke="#000000" cx="229.1589" cy="-852.8872" rx="3.2" ry="3.2"/>
</g>
<!-- cg_cohort_count -->
<g id="node3" class="node">
<title>cg_cohort_count</title>
<g id="a_node3"><a xlink:href="../../tables/cg_cohort_count.html" xlink:title="cg_cohort_count" target="_top">
<polygon fill="#ffffff" stroke="transparent" points="275,-746.2 275,-807.2 423,-807.2 423,-746.2 275,-746.2"/>
<polygon fill="#f5f5f5" stroke="transparent" points="275,-783.7 275,-806.7 423,-806.7 423,-783.7 275,-783.7"/>
<polygon fill="none" stroke="#000000" points="275,-783.7 275,-806.7 423,-806.7 423,-783.7 275,-783.7"/>
<text text-anchor="start" x="280" y="-792.3" font-family="Helvetica,sans-Serif" font-weight="bold" font-size="11.00" fill="#000000">cg_cohort_count</text>
<text text-anchor="start" x="388.5219" y="-791.8" font-family="Helvetica,sans-Serif" font-size="11.00" fill="#000000">[table]</text>
<polygon fill="none" stroke="#000000" points="275,-764.7 275,-783.7 423,-783.7 423,-764.7 275,-764.7"/>
<text text-anchor="start" x="278" y="-770.8" font-family="Helvetica,sans-Serif" font-size="11.00" fill="#000000">...</text>
<polygon fill="#ffffff" stroke="transparent" points="275,-745.7 275,-764.7 334,-764.7 334,-745.7 275,-745.7"/>
<polygon fill="none" stroke="#000000" points="275,-745.7 275,-764.7 334,-764.7 334,-745.7 275,-745.7"/>
<text text-anchor="start" x="278" y="-751.8" font-family="Helvetica,sans-Serif" font-size="11.00" fill="#000000">&lt; 2</text>
<polygon fill="#ffffff" stroke="transparent" points="334,-745.7 334,-764.7 391,-764.7 391,-745.7 334,-745.7"/>
<polygon fill="none" stroke="#000000" points="334,-745.7 334,-764.7 391,-764.7 391,-745.7 334,-745.7"/>
<text text-anchor="start" x="355.6105" y="-751.8" font-family="Helvetica,sans-Serif" font-size="11.00" fill="#000000">0 rows</text>
<polygon fill="#ffffff" stroke="transparent" points="391,-745.7 391,-764.7 423,-764.7 423,-745.7 391,-745.7"/>
<polygon fill="none" stroke="#000000" points="391,-745.7 391,-764.7 423,-764.7 423,-745.7 391,-745.7"/>
<text text-anchor="start" x="413.8862" y="-751.8" font-family="Helvetica,sans-Serif" font-size="11.00" fill="#000000"> &#160;</text>
</a>
</g>
</g>
<!-- cg_cohort_count&#45;&gt;cg_cohort_definition -->
<g id="edge2" class="edge">
<title>cg_cohort_count:w&#45;&gt;cg_cohort_definition:e</title>
<path fill="none" stroke="#000000" d="M260.5052,-772.169C243.1792,-767.9911 235.415,-755.3742 224,-735.7 186.5896,-671.2216 258.0453,-402.7 183.5,-402.7"/>
<polygon fill="#000000" stroke="#000000" points="267.0443,-772.8596 274.6218,-777.2801 271.0221,-773.2798 275,-773.7 275,-773.7 275,-773.7 271.0221,-773.2798 275.3782,-770.1199 267.0443,-772.8596 267.0443,-772.8596"/>
<ellipse fill="none" stroke="#000000" cx="263.862" cy="-772.5235" rx="3.2" ry="3.2"/>
</g>
<!-- cg_cohort_inclusion -->
<g id="node4" class="node">
<title>cg_cohort_inclusion</title>
<g id="a_node4"><a xlink:href="../../tables/cg_cohort_inclusion.html" xlink:title="cg_cohort_inclusion" target="_top">
<polygon fill="#ffffff" stroke="transparent" points="264,-664.2 264,-725.2 434,-725.2 434,-664.2 264,-664.2"/>
<polygon fill="#f5f5f5" stroke="transparent" points="264,-701.7 264,-724.7 434,-724.7 434,-701.7 264,-701.7"/>
<polygon fill="none" stroke="#000000" points="264,-701.7 264,-724.7 434,-724.7 434,-701.7 264,-701.7"/>
<text text-anchor="start" x="269" y="-710.3" font-family="Helvetica,sans-Serif" font-weight="bold" font-size="11.00" fill="#000000">cg_cohort_inclusion</text>
<text text-anchor="start" x="399.5219" y="-709.8" font-family="Helvetica,sans-Serif" font-size="11.00" fill="#000000">[table]</text>
<polygon fill="none" stroke="#000000" points="264,-682.7 264,-701.7 434,-701.7 434,-682.7 264,-682.7"/>
<text text-anchor="start" x="267" y="-688.8" font-family="Helvetica,sans-Serif" font-size="11.00" fill="#000000">...</text>
<polygon fill="#ffffff" stroke="transparent" points="264,-663.7 264,-682.7 334,-682.7 334,-663.7 264,-663.7"/>
<polygon fill="none" stroke="#000000" points="264,-663.7 264,-682.7 334,-682.7 334,-663.7 264,-663.7"/>
<text text-anchor="start" x="267" y="-669.8" font-family="Helvetica,sans-Serif" font-size="11.00" fill="#000000">&lt; 1</text>
<polygon fill="#ffffff" stroke="transparent" points="334,-663.7 334,-682.7 397,-682.7 397,-663.7 334,-663.7"/>
<polygon fill="none" stroke="#000000" points="334,-663.7 334,-682.7 397,-682.7 397,-663.7 334,-663.7"/>
<text text-anchor="start" x="361.6105" y="-669.8" font-family="Helvetica,sans-Serif" font-size="11.00" fill="#000000">0 rows</text>
<polygon fill="#ffffff" stroke="transparent" points="397,-663.7 397,-682.7 434,-682.7 434,-663.7 397,-663.7"/>
<polygon fill="none" stroke="#000000" points="397,-663.7 397,-682.7 434,-682.7 434,-663.7 397,-663.7"/>
<text text-anchor="start" x="424.8862" y="-669.8" font-family="Helvetica,sans-Serif" font-size="11.00" fill="#000000"> &#160;</text>
</a>
</g>
</g>
<!-- cg_cohort_inclusion&#45;&gt;cg_cohort_definition -->
<g id="edge3" class="edge">
<title>cg_cohort_inclusion:w&#45;&gt;cg_cohort_definition:e</title>
<path fill="none" stroke="#000000" d="M249.7753,-689.1526C237.1802,-683.7582 232.761,-670.3044 224,-653.7 197.6344,-603.7299 239.9992,-402.7 183.5,-402.7"/>
<polygon fill="#000000" stroke="#000000" points="256.1253,-690.2897 263.3654,-695.2436 260.0626,-690.9949 264,-691.7 264,-691.7 264,-691.7 260.0626,-690.9949 264.6346,-688.1564 256.1253,-690.2897 256.1253,-690.2897"/>
<ellipse fill="none" stroke="#000000" cx="252.9754" cy="-689.7256" rx="3.2" ry="3.2"/>
</g>
<!-- cg_cohort_summary_stats -->
<g id="node5" class="node">
<title>cg_cohort_summary_stats</title>
<g id="a_node5"><a xlink:href="../../tables/cg_cohort_summary_stats.html" xlink:title="cg_cohort_summary_stats" target="_top">
<polygon fill="#ffffff" stroke="transparent" points="243,-582.2 243,-643.2 455,-643.2 455,-582.2 243,-582.2"/>
<polygon fill="#f5f5f5" stroke="transparent" points="243,-619.7 243,-642.7 455,-642.7 455,-619.7 243,-619.7"/>
<polygon fill="none" stroke="#000000" points="243,-619.7 243,-642.7 455,-642.7 455,-619.7 243,-619.7"/>
<text text-anchor="start" x="248" y="-628.3" font-family="Helvetica,sans-Serif" font-weight="bold" font-size="11.00" fill="#000000">cg_cohort_summary_stats</text>
<text text-anchor="start" x="420.5219" y="-627.8" font-family="Helvetica,sans-Serif" font-size="11.00" fill="#000000">[table]</text>
<polygon fill="none" stroke="#000000" points="243,-600.7 243,-619.7 455,-619.7 455,-600.7 243,-600.7"/>
<text text-anchor="start" x="246" y="-606.8" font-family="Helvetica,sans-Serif" font-size="11.00" fill="#000000">...</text>
<polygon fill="#ffffff" stroke="transparent" points="243,-581.7 243,-600.7 334,-600.7 334,-581.7 243,-581.7"/>
<polygon fill="none" stroke="#000000" points="243,-581.7 243,-600.7 334,-600.7 334,-581.7 243,-581.7"/>
<text text-anchor="start" x="246" y="-587.8" font-family="Helvetica,sans-Serif" font-size="11.00" fill="#000000">&lt; 2</text>
<polygon fill="#ffffff" stroke="transparent" points="334,-581.7 334,-600.7 407,-600.7 407,-581.7 334,-581.7"/>
<polygon fill="none" stroke="#000000" points="334,-581.7 334,-600.7 407,-600.7 407,-581.7 334,-581.7"/>
<text text-anchor="start" x="371.6105" y="-587.8" font-family="Helvetica,sans-Serif" font-size="11.00" fill="#000000">0 rows</text>
<polygon fill="#ffffff" stroke="transparent" points="407,-581.7 407,-600.7 455,-600.7 455,-581.7 407,-581.7"/>
<polygon fill="none" stroke="#000000" points="407,-581.7 407,-600.7 455,-600.7 455,-581.7 407,-581.7"/>
<text text-anchor="start" x="445.8862" y="-587.8" font-family="Helvetica,sans-Serif" font-size="11.00" fill="#000000"> &#160;</text>
</a>
</g>
</g>
<!-- cg_cohort_summary_stats&#45;&gt;cg_cohort_definition -->
<g id="edge4" class="edge">
<title>cg_cohort_summary_stats:w&#45;&gt;cg_cohort_definition:e</title>
<path fill="none" stroke="#000000" d="M228.4267,-607.6512C161.9561,-586.1529 273.6163,-402.7 183.5,-402.7"/>
<polygon fill="#000000" stroke="#000000" points="235.0779,-608.5862 242.4988,-613.2649 239.039,-609.1431 243,-609.7 243,-609.7 243,-609.7 239.039,-609.1431 243.5012,-606.1351 235.0779,-608.5862 235.0779,-608.5862"/>
<ellipse fill="none" stroke="#000000" cx="231.9091" cy="-608.1407" rx="3.2" ry="3.2"/>
</g>
<!-- ci_incidence_summary -->
<g id="node6" class="node">
<title>ci_incidence_summary</title>
<g id="a_node6"><a xlink:href="../../tables/ci_incidence_summary.html" xlink:title="ci_incidence_summary" target="_top">
<polygon fill="#ffffff" stroke="transparent" points="254.5,-500.2 254.5,-561.2 443.5,-561.2 443.5,-500.2 254.5,-500.2"/>
<polygon fill="#f5f5f5" stroke="transparent" points="255,-537.7 255,-560.7 444,-560.7 444,-537.7 255,-537.7"/>
<polygon fill="none" stroke="#000000" points="255,-537.7 255,-560.7 444,-560.7 444,-537.7 255,-537.7"/>
<text text-anchor="start" x="260" y="-546.3" font-family="Helvetica,sans-Serif" font-weight="bold" font-size="11.00" fill="#000000">ci_incidence_summary</text>
<text text-anchor="start" x="409.5219" y="-545.8" font-family="Helvetica,sans-Serif" font-size="11.00" fill="#000000">[table]</text>
<polygon fill="none" stroke="#000000" points="255,-518.7 255,-537.7 444,-537.7 444,-518.7 255,-518.7"/>
<text text-anchor="start" x="258" y="-524.8" font-family="Helvetica,sans-Serif" font-size="11.00" fill="#000000">...</text>
<polygon fill="#ffffff" stroke="transparent" points="255,-499.7 255,-518.7 338,-518.7 338,-499.7 255,-499.7"/>
<polygon fill="none" stroke="#000000" points="255,-499.7 255,-518.7 338,-518.7 338,-499.7 255,-499.7"/>
<text text-anchor="start" x="258" y="-505.8" font-family="Helvetica,sans-Serif" font-size="11.00" fill="#000000">&lt; 10</text>
<polygon fill="#ffffff" stroke="transparent" points="338,-499.7 338,-518.7 404,-518.7 404,-499.7 338,-499.7"/>
<polygon fill="none" stroke="#000000" points="338,-499.7 338,-518.7 404,-518.7 404,-499.7 338,-499.7"/>
<text text-anchor="start" x="368.6105" y="-505.8" font-family="Helvetica,sans-Serif" font-size="11.00" fill="#000000">0 rows</text>
<polygon fill="#ffffff" stroke="transparent" points="404,-499.7 404,-518.7 444,-518.7 444,-499.7 404,-499.7"/>
<polygon fill="none" stroke="#000000" points="404,-499.7 404,-518.7 444,-518.7 444,-499.7 404,-499.7"/>
<text text-anchor="start" x="434.8862" y="-505.8" font-family="Helvetica,sans-Serif" font-size="11.00" fill="#000000"> &#160;</text>
</a>
</g>
</g>
<!-- ci_incidence_summary&#45;&gt;cg_cohort_definition -->
<g id="edge5" class="edge">
<title>ci_incidence_summary:w&#45;&gt;cg_cohort_definition:e</title>
<path fill="none" stroke="#000000" d="M240.7535,-524.9729C199.9995,-506.6929 241.8768,-402.7 183.5,-402.7"/>
<polygon fill="#000000" stroke="#000000" points="247.1427,-526.1959 254.3232,-531.2358 251.0713,-526.948 255,-527.7 255,-527.7 255,-527.7 251.0713,-526.948 255.6768,-524.1642 247.1427,-526.1959 247.1427,-526.1959"/>
<ellipse fill="none" stroke="#000000" cx="243.9997" cy="-525.5943" rx="3.2" ry="3.2"/>
</g>
<!-- cm_diagnostics_summary -->
<g id="node7" class="node">
<title>cm_diagnostics_summary</title>
<g id="a_node7"><a xlink:href="../../tables/cm_diagnostics_summary.html" xlink:title="cm_diagnostics_summary" target="_top">
<polygon fill="#ffffff" stroke="transparent" points="244,-418.2 244,-479.2 454,-479.2 454,-418.2 244,-418.2"/>
<polygon fill="#f5f5f5" stroke="transparent" points="244,-455.7 244,-478.7 454,-478.7 454,-455.7 244,-455.7"/>
<polygon fill="none" stroke="#000000" points="244,-455.7 244,-478.7 454,-478.7 454,-455.7 244,-455.7"/>
<text text-anchor="start" x="249" y="-464.3" font-family="Helvetica,sans-Serif" font-weight="bold" font-size="11.00" fill="#000000">cm_diagnostics_summary</text>
<text text-anchor="start" x="419.5219" y="-463.8" font-family="Helvetica,sans-Serif" font-size="11.00" fill="#000000">[table]</text>
<polygon fill="none" stroke="#000000" points="244,-436.7 244,-455.7 454,-455.7 454,-436.7 244,-436.7"/>
<text text-anchor="start" x="247" y="-442.8" font-family="Helvetica,sans-Serif" font-size="11.00" fill="#000000">...</text>
<polygon fill="#ffffff" stroke="transparent" points="244,-417.7 244,-436.7 330,-436.7 330,-417.7 244,-417.7"/>
<polygon fill="none" stroke="#000000" points="244,-417.7 244,-436.7 330,-436.7 330,-417.7 244,-417.7"/>
<text text-anchor="start" x="247" y="-423.8" font-family="Helvetica,sans-Serif" font-size="11.00" fill="#000000">&lt; 3</text>
<polygon fill="#ffffff" stroke="transparent" points="330,-417.7 330,-436.7 400,-436.7 400,-417.7 330,-417.7"/>
<polygon fill="none" stroke="#000000" points="330,-417.7 330,-436.7 400,-436.7 400,-417.7 330,-417.7"/>
<text text-anchor="start" x="364.6105" y="-423.8" font-family="Helvetica,sans-Serif" font-size="11.00" fill="#000000">0 rows</text>
<polygon fill="#ffffff" stroke="transparent" points="400,-417.7 400,-436.7 454,-436.7 454,-417.7 400,-417.7"/>
<polygon fill="none" stroke="#000000" points="400,-417.7 400,-436.7 454,-436.7 454,-417.7 400,-417.7"/>
<text text-anchor="start" x="435.4053" y="-423.8" font-family="Helvetica,sans-Serif" font-size="11.00" fill="#000000">1 &gt;</text>
</a>
</g>
</g>
<!-- cm_diagnostics_summary&#45;&gt;cg_cohort_definition -->
<g id="edge6" class="edge">
<title>cm_diagnostics_summary:w&#45;&gt;cg_cohort_definition:e</title>
<path fill="none" stroke="#000000" d="M229.7515,-442.1811C211.7484,-431.9115 210.6898,-402.7 183.5,-402.7"/>
<polygon fill="#000000" stroke="#000000" points="236.2333,-443.7819 243.1368,-449.195 240.1167,-444.7409 244,-445.7 244,-445.7 244,-445.7 240.1167,-444.7409 244.8632,-442.205 236.2333,-443.7819 236.2333,-443.7819"/>
<ellipse fill="none" stroke="#000000" cx="233.1267" cy="-443.0146" rx="3.2" ry="3.2"/>
</g>
<!-- plp_cohorts -->
<g id="node8" class="node">
<title>plp_cohorts</title>
<g id="a_node8"><a xlink:href="../../tables/plp_cohorts.html" xlink:title="plp_cohorts" target="_top">
<polygon fill="#ffffff" stroke="transparent" points="239,-284.7 239,-396.7 459,-396.7 459,-284.7 239,-284.7"/>
<polygon fill="#f5f5f5" stroke="transparent" points="241,-371.7 241,-394.7 457,-394.7 457,-371.7 241,-371.7"/>
<polygon fill="none" stroke="#000000" points="241,-371.7 241,-394.7 457,-394.7 457,-371.7 241,-371.7"/>
<text text-anchor="start" x="246" y="-380.3" font-family="Helvetica,sans-Serif" font-weight="bold" font-size="11.00" fill="#000000">plp_cohorts</text>
<text text-anchor="start" x="422.0437" y="-379.8" font-family="Helvetica,sans-Serif" font-size="11.00" fill="#000000">[table]</text>
<polygon fill="none" stroke="#000000" points="241,-349.7 241,-371.7 395,-371.7 395,-349.7 241,-349.7"/>
<image xlink:href="../../images/foreignKeys.png" width="11px" height="12px" preserveAspectRatio="xMinYMin meet" x="246" y="-366.7"/>
<text text-anchor="start" x="261" y="-356.8" font-family="Helvetica,sans-Serif" font-size="11.00" fill="#000000">cohort_definition_id</text>
<polygon fill="none" stroke="#000000" points="395,-349.7 395,-371.7 457,-371.7 457,-349.7 395,-349.7"/>
<text text-anchor="start" x="397.878" y="-357.4" font-family="Helvetica,sans-Serif" font-size="11.00" fill="#000000">unknown[0]</text>
<polygon fill="none" stroke="#000000" points="241,-327.7 241,-349.7 395,-349.7 395,-327.7 241,-327.7"/>
<text text-anchor="start" x="261" y="-334.8" font-family="Helvetica,sans-Serif" font-size="11.00" fill="#000000">cohort_id</text>
<polygon fill="none" stroke="#000000" points="395,-327.7 395,-349.7 457,-349.7 457,-327.7 395,-327.7"/>
<text text-anchor="start" x="397.878" y="-335.4" font-family="Helvetica,sans-Serif" font-size="11.00" fill="#000000">unknown[0]</text>
<polygon fill="none" stroke="#000000" points="241,-305.7 241,-327.7 395,-327.7 395,-305.7 241,-305.7"/>
<text text-anchor="start" x="261" y="-312.8" font-family="Helvetica,sans-Serif" font-size="11.00" fill="#000000">cohort_name</text>
<polygon fill="none" stroke="#000000" points="395,-305.7 395,-327.7 457,-327.7 457,-305.7 395,-305.7"/>
<text text-anchor="start" x="397.878" y="-313.4" font-family="Helvetica,sans-Serif" font-size="11.00" fill="#000000">unknown[0]</text>
<polygon fill="#ffffff" stroke="transparent" points="241,-286.7 241,-305.7 309,-305.7 309,-286.7 241,-286.7"/>
<polygon fill="none" stroke="#000000" points="241,-286.7 241,-305.7 309,-305.7 309,-286.7 241,-286.7"/>
<text text-anchor="start" x="244" y="-292.8" font-family="Helvetica,sans-Serif" font-size="11.00" fill="#000000">&lt; 1</text>
<polygon fill="#ffffff" stroke="transparent" points="309,-286.7 309,-305.7 395,-305.7 395,-286.7 309,-286.7"/>
<polygon fill="none" stroke="#000000" points="309,-286.7 309,-305.7 395,-305.7 395,-286.7 309,-286.7"/>
<text text-anchor="start" x="359.6105" y="-292.8" font-family="Helvetica,sans-Serif" font-size="11.00" fill="#000000">0 rows</text>
<polygon fill="#ffffff" stroke="transparent" points="395,-286.7 395,-305.7 457,-305.7 457,-286.7 395,-286.7"/>
<polygon fill="none" stroke="#000000" points="395,-286.7 395,-305.7 457,-305.7 457,-286.7 395,-286.7"/>
<text text-anchor="start" x="438.4053" y="-292.8" font-family="Helvetica,sans-Serif" font-size="11.00" fill="#000000">0 &gt;</text>
<polygon fill="none" stroke="#000000" stroke-width="2" points="240,-285.7 240,-395.7 458,-395.7 458,-285.7 240,-285.7"/>
</a>
</g>
</g>
<!-- plp_cohorts&#45;&gt;cg_cohort_definition -->
<g id="edge7" class="edge">
<title>plp_cohorts:w&#45;&gt;cg_cohort_definition:e</title>
<path fill="none" stroke="#000000" d="M226.6538,-364.576C210.2095,-374.9734 209.2132,-402.7 183.5,-402.7"/>
<polygon fill="#000000" stroke="#000000" points="233.2769,-362.7866 241.939,-364.1754 237.1385,-361.7433 241,-360.7 241,-360.7 241,-360.7 237.1385,-361.7433 240.061,-357.2246 233.2769,-362.7866 233.2769,-362.7866"/>
<ellipse fill="none" stroke="#000000" cx="230.1877" cy="-363.6213" rx="3.2" ry="3.2"/>
</g>
<!-- plp_model_designs -->
<g id="node9" class="node">
<title>plp_model_designs</title>
<g id="a_node9"><a xlink:href="../../tables/plp_model_designs.html" xlink:title="plp_model_designs" target="_top">
<polygon fill="#ffffff" stroke="transparent" points="266,-202.2 266,-263.2 432,-263.2 432,-202.2 266,-202.2"/>
<polygon fill="#f5f5f5" stroke="transparent" points="266,-239.7 266,-262.7 432,-262.7 432,-239.7 266,-239.7"/>
<polygon fill="none" stroke="#000000" points="266,-239.7 266,-262.7 432,-262.7 432,-239.7 266,-239.7"/>
<text text-anchor="start" x="271" y="-248.3" font-family="Helvetica,sans-Serif" font-weight="bold" font-size="11.00" fill="#000000">plp_model_designs</text>
<text text-anchor="start" x="397.5219" y="-247.8" font-family="Helvetica,sans-Serif" font-size="11.00" fill="#000000">[table]</text>
<polygon fill="none" stroke="#000000" points="266,-220.7 266,-239.7 432,-239.7 432,-220.7 266,-220.7"/>
<text text-anchor="start" x="269" y="-226.8" font-family="Helvetica,sans-Serif" font-size="11.00" fill="#000000">...</text>
<polygon fill="#ffffff" stroke="transparent" points="266,-201.7 266,-220.7 330,-220.7 330,-201.7 266,-201.7"/>
<polygon fill="none" stroke="#000000" points="266,-201.7 266,-220.7 330,-220.7 330,-201.7 266,-201.7"/>
<text text-anchor="start" x="269" y="-207.8" font-family="Helvetica,sans-Serif" font-size="11.00" fill="#000000">&lt; 2</text>
<polygon fill="#ffffff" stroke="transparent" points="330,-201.7 330,-220.7 389,-220.7 389,-201.7 330,-201.7"/>
<polygon fill="none" stroke="#000000" points="330,-201.7 330,-220.7 389,-220.7 389,-201.7 330,-201.7"/>
<text text-anchor="start" x="353.6105" y="-207.8" font-family="Helvetica,sans-Serif" font-size="11.00" fill="#000000">0 rows</text>
<polygon fill="#ffffff" stroke="transparent" points="389,-201.7 389,-220.7 432,-220.7 432,-201.7 389,-201.7"/>
<polygon fill="none" stroke="#000000" points="389,-201.7 389,-220.7 432,-220.7 432,-201.7 389,-201.7"/>
<text text-anchor="start" x="413.4053" y="-207.8" font-family="Helvetica,sans-Serif" font-size="11.00" fill="#000000">1 &gt;</text>
</a>
</g>
</g>
<!-- plp_model_designs&#45;&gt;cg_cohort_definition -->
<g id="edge8" class="edge">
<title>plp_model_designs:w&#45;&gt;cg_cohort_definition:e</title>
<path fill="none" stroke="#000000" d="M251.4396,-229.4296C237.6535,-233.16 234.7806,-250.2448 224,-268.7 193.9033,-320.2222 243.1686,-396.7 183.5,-402.7"/>
<polygon fill="#000000" stroke="#000000" points="258.0014,-229.5514 265.9331,-233.2994 262.0007,-229.6257 266,-229.7 266,-229.7 266,-229.7 262.0007,-229.6257 266.0669,-226.1006 258.0014,-229.5514 258.0014,-229.5514"/>
<ellipse fill="none" stroke="#000000" cx="254.8019" cy="-229.492" rx="3.2" ry="3.2"/>
</g>
<!-- plp_model_designs&#45;&gt;cg_cohort_definition -->
<g id="edge9" class="edge">
<title>plp_model_designs:w&#45;&gt;cg_cohort_definition:e</title>
<path fill="none" stroke="#000000" d="M252.7104,-235.3565C237.8187,-245.1362 235.104,-262.6912 224,-281.7 193.9033,-333.2222 243.1686,-409.7 183.5,-402.7"/>
<polygon fill="#000000" stroke="#000000" points="258.639,-232.8331 267.4099,-233.0124 262.3195,-231.2666 266,-229.7 266,-229.7 266,-229.7 262.3195,-231.2666 264.5901,-226.3876 258.639,-232.8331 258.639,-232.8331"/>
<ellipse fill="none" stroke="#000000" cx="255.6946" cy="-234.0864" rx="3.2" ry="3.2"/>
</g>
<!-- plp_performances -->
<g id="node10" class="node">
<title>plp_performances</title>
<g id="a_node10"><a xlink:href="../../tables/plp_performances.html" xlink:title="plp_performances" target="_top">
<polygon fill="#ffffff" stroke="transparent" points="269.5,-120.2 269.5,-181.2 428.5,-181.2 428.5,-120.2 269.5,-120.2"/>
<polygon fill="#f5f5f5" stroke="transparent" points="270,-157.7 270,-180.7 429,-180.7 429,-157.7 270,-157.7"/>
<polygon fill="none" stroke="#000000" points="270,-157.7 270,-180.7 429,-180.7 429,-157.7 270,-157.7"/>
<text text-anchor="start" x="275" y="-166.3" font-family="Helvetica,sans-Serif" font-weight="bold" font-size="11.00" fill="#000000">plp_performances</text>
<text text-anchor="start" x="394.5219" y="-165.8" font-family="Helvetica,sans-Serif" font-size="11.00" fill="#000000">[table]</text>
<polygon fill="none" stroke="#000000" points="270,-138.7 270,-157.7 429,-157.7 429,-138.7 270,-138.7"/>
<text text-anchor="start" x="273" y="-144.8" font-family="Helvetica,sans-Serif" font-size="11.00" fill="#000000">...</text>
<polygon fill="#ffffff" stroke="transparent" points="270,-119.7 270,-138.7 335,-138.7 335,-119.7 270,-119.7"/>
<polygon fill="none" stroke="#000000" points="270,-119.7 270,-138.7 335,-138.7 335,-119.7 270,-119.7"/>
<text text-anchor="start" x="273" y="-125.8" font-family="Helvetica,sans-Serif" font-size="11.00" fill="#000000">&lt; 4</text>
<polygon fill="#ffffff" stroke="transparent" points="335,-119.7 335,-138.7 395,-138.7 395,-119.7 335,-119.7"/>
<polygon fill="none" stroke="#000000" points="335,-119.7 335,-138.7 395,-138.7 395,-119.7 335,-119.7"/>
<text text-anchor="start" x="359.6105" y="-125.8" font-family="Helvetica,sans-Serif" font-size="11.00" fill="#000000">0 rows</text>
<polygon fill="#ffffff" stroke="transparent" points="395,-119.7 395,-138.7 429,-138.7 429,-119.7 395,-119.7"/>
<polygon fill="none" stroke="#000000" points="395,-119.7 395,-138.7 429,-138.7 429,-119.7 395,-119.7"/>
<text text-anchor="start" x="419.8862" y="-125.8" font-family="Helvetica,sans-Serif" font-size="11.00" fill="#000000"> &#160;</text>
</a>
</g>
</g>
<!-- plp_performances&#45;&gt;cg_cohort_definition -->
<g id="edge10" class="edge">
<title>plp_performances:w&#45;&gt;cg_cohort_definition:e</title>
<path fill="none" stroke="#000000" d="M255.4641,-146.9941C239.6251,-149.716 234.7813,-165.9004 224,-185.7 201.1675,-227.6314 231.2448,-396.7 183.5,-402.7"/>
<polygon fill="#000000" stroke="#000000" points="262.0094,-147.3119 269.8254,-151.2958 266.0047,-147.506 270,-147.7 270,-147.7 270,-147.7 266.0047,-147.506 270.1746,-144.1042 262.0094,-147.3119 262.0094,-147.3119"/>
<ellipse fill="none" stroke="#000000" cx="258.8132" cy="-147.1567" rx="3.2" ry="3.2"/>
</g>
<!-- plp_performances&#45;&gt;cg_cohort_definition -->
<g id="edge11" class="edge">
<title>plp_performances:w&#45;&gt;cg_cohort_definition:e</title>
<path fill="none" stroke="#000000" d="M256.4087,-152.8767C239.8128,-162.0827 234.9927,-178.5122 224,-198.7 201.1675,-240.6314 231.2448,-409.7 183.5,-402.7"/>
<polygon fill="#000000" stroke="#000000" points="262.5239,-150.5476 271.2814,-151.0642 266.262,-149.1238 270,-147.7 270,-147.7 270,-147.7 266.262,-149.1238 268.7186,-144.3358 262.5239,-150.5476 262.5239,-150.5476"/>
<ellipse fill="none" stroke="#000000" cx="259.5335" cy="-151.6866" rx="3.2" ry="3.2"/>
</g>
<!-- sccs_exposures_outcome_set -->
<g id="node11" class="node">
<title>sccs_exposures_outcome_set</title>
<g id="a_node11"><a xlink:href="../../tables/sccs_exposures_outcome_set.html" xlink:title="sccs_exposures_outcome_set" target="_top">
<polygon fill="#ffffff" stroke="transparent" points="232,-38.2 232,-99.2 466,-99.2 466,-38.2 232,-38.2"/>
<polygon fill="#f5f5f5" stroke="transparent" points="232,-75.7 232,-98.7 466,-98.7 466,-75.7 232,-75.7"/>
<polygon fill="none" stroke="#000000" points="232,-75.7 232,-98.7 466,-98.7 466,-75.7 232,-75.7"/>
<text text-anchor="start" x="237" y="-84.3" font-family="Helvetica,sans-Serif" font-weight="bold" font-size="11.00" fill="#000000">sccs_exposures_outcome_set</text>
<text text-anchor="start" x="431.5219" y="-83.8" font-family="Helvetica,sans-Serif" font-size="11.00" fill="#000000">[table]</text>
<polygon fill="none" stroke="#000000" points="232,-56.7 232,-75.7 466,-75.7 466,-56.7 232,-56.7"/>
<text text-anchor="start" x="235" y="-62.8" font-family="Helvetica,sans-Serif" font-size="11.00" fill="#000000">...</text>
<polygon fill="#ffffff" stroke="transparent" points="232,-37.7 232,-56.7 327,-56.7 327,-37.7 232,-37.7"/>
<polygon fill="none" stroke="#000000" points="232,-37.7 232,-56.7 327,-56.7 327,-37.7 232,-37.7"/>
<text text-anchor="start" x="235" y="-43.8" font-family="Helvetica,sans-Serif" font-size="11.00" fill="#000000">&lt; 3</text>
<polygon fill="#ffffff" stroke="transparent" points="327,-37.7 327,-56.7 402,-56.7 402,-37.7 327,-37.7"/>
<polygon fill="none" stroke="#000000" points="327,-37.7 327,-56.7 402,-56.7 402,-37.7 327,-37.7"/>
<text text-anchor="start" x="366.6105" y="-43.8" font-family="Helvetica,sans-Serif" font-size="11.00" fill="#000000">0 rows</text>
<polygon fill="#ffffff" stroke="transparent" points="402,-37.7 402,-56.7 466,-56.7 466,-37.7 402,-37.7"/>
<polygon fill="none" stroke="#000000" points="402,-37.7 402,-56.7 466,-56.7 466,-37.7 402,-37.7"/>
<text text-anchor="start" x="441.2904" y="-43.8" font-family="Helvetica,sans-Serif" font-size="11.00" fill="#000000">10 &gt;</text>
</a>
</g>
</g>
<!-- sccs_exposures_outcome_set&#45;&gt;cg_cohort_definition -->
<g id="edge12" class="edge">
<title>sccs_exposures_outcome_set:w&#45;&gt;cg_cohort_definition:e</title>
<path fill="none" stroke="#000000" d="M218.2586,-70.7254C170.2683,-112.6471 253.6928,-402.7 183.5,-402.7"/>
<polygon fill="#000000" stroke="#000000" points="224.4867,-68.4478 233.2365,-69.081 228.2433,-67.0739 232,-65.7 232,-65.7 232,-65.7 228.2433,-67.0739 230.7635,-62.319 224.4867,-68.4478 224.4867,-68.4478"/>
<ellipse fill="none" stroke="#000000" cx="221.4813" cy="-69.5469" rx="3.2" ry="3.2"/>
</g>
</g>
</svg>
