<?xml version="1.0" encoding="UTF-8" standalone="no"?>
<!DOCTYPE svg PUBLIC "-//W3C//DTD SVG 1.1//EN"
 "http://www.w3.org/Graphics/SVG/1.1/DTD/svg11.dtd">
<!-- Generated by graphviz version 2.40.1 (20161225.0304)
 -->
<!-- Title: oneDegreeRelationshipsDiagram Pages: 1 -->
<svg width="544pt" height="385pt"
 viewBox="0.00 0.00 544.00 385.20" xmlns="http://www.w3.org/2000/svg" xmlns:xlink="http://www.w3.org/1999/xlink">
<g id="graph0" class="graph" transform="scale(1 1) rotate(0) translate(4 381.2)">
<title>oneDegreeRelationshipsDiagram</title>
<polygon fill="#ffffff" stroke="transparent" points="-4,4 -4,-381.2 540,-381.2 540,4 -4,4"/>
<text text-anchor="middle" x="72.4936" y="-7.3" font-family="Helvetica,sans-Serif" font-size="11.00" fill="#000000">Generated by SchemaSpy</text>
<!-- plp_diagnostics -->
<g id="node1" class="node">
<title>plp_diagnostics</title>
<g id="a_node1"><a xlink:href="../../tables/plp_diagnostics.html" xlink:title="plp_diagnostics" target="_top">
<polygon fill="#ffffff" stroke="transparent" points="302,-158.7 302,-292.7 528,-292.7 528,-158.7 302,-158.7"/>
<polygon fill="#f5f5f5" stroke="transparent" points="304,-267.7 304,-290.7 526,-290.7 526,-267.7 304,-267.7"/>
<polygon fill="none" stroke="#000000" points="304,-267.7 304,-290.7 526,-290.7 526,-267.7 304,-267.7"/>
<text text-anchor="start" x="309" y="-276.3" font-family="Helvetica,sans-Serif" font-weight="bold" font-size="11.00" fill="#000000">plp_diagnostics</text>
<text text-anchor="start" x="491.0437" y="-275.8" font-family="Helvetica,sans-Serif" font-size="11.00" fill="#000000">[table]</text>
<polygon fill="none" stroke="#000000" points="304,-245.7 304,-267.7 464,-267.7 464,-245.7 304,-245.7"/>
<image xlink:href="../../images/foreignKeys.png" width="11px" height="12px" preserveAspectRatio="xMinYMin meet" x="309" y="-262.7"/>
<text text-anchor="start" x="324" y="-252.8" font-family="Helvetica,sans-Serif" font-size="11.00" fill="#000000">database_id</text>
<polygon fill="none" stroke="#000000" points="464,-245.7 464,-267.7 526,-267.7 526,-245.7 464,-245.7"/>
<text text-anchor="start" x="466.878" y="-253.4" font-family="Helvetica,sans-Serif" font-size="11.00" fill="#000000">unknown[0]</text>
<polygon fill="none" stroke="#000000" points="304,-223.7 304,-245.7 464,-245.7 464,-223.7 304,-223.7"/>
<image xlink:href="../../images/foreignKeys.png" width="11px" height="12px" preserveAspectRatio="xMinYMin meet" x="309" y="-240.7"/>
<text text-anchor="start" x="324" y="-230.8" font-family="Helvetica,sans-Serif" font-size="11.00" fill="#000000">diagnostic_id</text>
<polygon fill="none" stroke="#000000" points="464,-223.7 464,-245.7 526,-245.7 526,-223.7 464,-223.7"/>
<text text-anchor="start" x="466.878" y="-231.4" font-family="Helvetica,sans-Serif" font-size="11.00" fill="#000000">unknown[0]</text>
<polygon fill="none" stroke="#000000" points="304,-201.7 304,-223.7 464,-223.7 464,-201.7 304,-201.7"/>
<text text-anchor="start" x="324" y="-208.8" font-family="Helvetica,sans-Serif" font-size="11.00" fill="#000000">execution_date_time</text>
<polygon fill="none" stroke="#000000" points="464,-201.7 464,-223.7 526,-223.7 526,-201.7 464,-201.7"/>
<text text-anchor="start" x="466.878" y="-209.4" font-family="Helvetica,sans-Serif" font-size="11.00" fill="#000000">unknown[0]</text>
<polygon fill="none" stroke="#000000" points="304,-179.7 304,-201.7 464,-201.7 464,-179.7 304,-179.7"/>
<image xlink:href="../../images/foreignKeys.png" width="11px" height="12px" preserveAspectRatio="xMinYMin meet" x="309" y="-196.7"/>
<text text-anchor="start" x="324" y="-186.8" font-family="Helvetica,sans-Serif" font-size="11.00" fill="#000000">model_design_id</text>
<polygon fill="none" stroke="#000000" points="464,-179.7 464,-201.7 526,-201.7 526,-179.7 464,-179.7"/>
<text text-anchor="start" x="466.878" y="-187.4" font-family="Helvetica,sans-Serif" font-size="11.00" fill="#000000">unknown[0]</text>
<polygon fill="#ffffff" stroke="transparent" points="304,-160.7 304,-179.7 375,-179.7 375,-160.7 304,-160.7"/>
<polygon fill="none" stroke="#000000" points="304,-160.7 304,-179.7 375,-179.7 375,-160.7 304,-160.7"/>
<text text-anchor="start" x="307" y="-166.8" font-family="Helvetica,sans-Serif" font-size="11.00" fill="#000000">&lt; 3</text>
<polygon fill="#ffffff" stroke="transparent" points="375,-160.7 375,-179.7 464,-179.7 464,-160.7 375,-160.7"/>
<polygon fill="none" stroke="#000000" points="375,-160.7 375,-179.7 464,-179.7 464,-160.7 375,-160.7"/>
<text text-anchor="start" x="428.6105" y="-166.8" font-family="Helvetica,sans-Serif" font-size="11.00" fill="#000000">0 rows</text>
<polygon fill="#ffffff" stroke="transparent" points="464,-160.7 464,-179.7 526,-179.7 526,-160.7 464,-160.7"/>
<polygon fill="none" stroke="#000000" points="464,-160.7 464,-179.7 526,-179.7 526,-160.7 464,-160.7"/>
<text text-anchor="start" x="507.4053" y="-166.8" font-family="Helvetica,sans-Serif" font-size="11.00" fill="#000000">0 &gt;</text>
<polygon fill="none" stroke="#000000" stroke-width="2" points="303,-159.7 303,-291.7 527,-291.7 527,-159.7 303,-159.7"/>
</a>
</g>
</g>
<!-- database_meta_data -->
<g id="node2" class="node">
<title>database_meta_data</title>
<g id="a_node2"><a xlink:href="../../tables/database_meta_data.html" xlink:title="database_meta_data" target="_top">
<polygon fill="#ffffff" stroke="transparent" points="8,-290.2 8,-373.2 253,-373.2 253,-290.2 8,-290.2"/>
<polygon fill="#f5f5f5" stroke="transparent" points="8.5,-349.7 8.5,-372.7 253.5,-372.7 253.5,-349.7 8.5,-349.7"/>
<polygon fill="none" stroke="#000000" points="8.5,-349.7 8.5,-372.7 253.5,-372.7 253.5,-349.7 8.5,-349.7"/>
<text text-anchor="start" x="13.5" y="-358.3" font-family="Helvetica,sans-Serif" font-weight="bold" font-size="11.00" fill="#000000">database_meta_data</text>
<text text-anchor="start" x="218.5437" y="-357.8" font-family="Helvetica,sans-Serif" font-size="11.00" fill="#000000">[table]</text>
<polygon fill="none" stroke="#000000" points="8.5,-327.7 8.5,-349.7 253.5,-349.7 253.5,-327.7 8.5,-327.7"/>
<image xlink:href="../../images/primaryKeys.png" width="11px" height="12px" preserveAspectRatio="xMinYMin meet" x="13.5" y="-344.7"/>
<text text-anchor="start" x="28.5" y="-334.8" font-family="Helvetica,sans-Serif" font-size="11.00" fill="#000000">database_id</text>
<polygon fill="none" stroke="#000000" points="8.5,-308.7 8.5,-327.7 253.5,-327.7 253.5,-308.7 8.5,-308.7"/>
<text text-anchor="start" x="11.5" y="-314.8" font-family="Helvetica,sans-Serif" font-size="11.00" fill="#000000">...</text>
<polygon fill="#ffffff" stroke="transparent" points="8.5,-289.7 8.5,-308.7 108.5,-308.7 108.5,-289.7 8.5,-289.7"/>
<polygon fill="none" stroke="#000000" points="8.5,-289.7 8.5,-308.7 108.5,-308.7 108.5,-289.7 8.5,-289.7"/>
<text text-anchor="start" x="11.5" y="-295.8" font-family="Helvetica,sans-Serif" font-size="11.00" fill="#000000">&lt; 1</text>
<polygon fill="#ffffff" stroke="transparent" points="108.5,-289.7 108.5,-308.7 186.5,-308.7 186.5,-289.7 108.5,-289.7"/>
<polygon fill="none" stroke="#000000" points="108.5,-289.7 108.5,-308.7 186.5,-308.7 186.5,-289.7 108.5,-289.7"/>
<text text-anchor="start" x="151.1105" y="-295.8" font-family="Helvetica,sans-Serif" font-size="11.00" fill="#000000">0 rows</text>
<polygon fill="#ffffff" stroke="transparent" points="186.5,-289.7 186.5,-308.7 253.5,-308.7 253.5,-289.7 186.5,-289.7"/>
<polygon fill="none" stroke="#000000" points="186.5,-289.7 186.5,-308.7 253.5,-308.7 253.5,-289.7 186.5,-289.7"/>
<text text-anchor="start" x="228.7904" y="-295.8" font-family="Helvetica,sans-Serif" font-size="11.00" fill="#000000">17 &gt;</text>
</a>
</g>
</g>
<!-- plp_diagnostics&#45;&gt;database_meta_data -->
<g id="edge1" class="edge">
<title>plp_diagnostics:w&#45;&gt;database_meta_data:e</title>
<path fill="none" stroke="#000000" d="M290.1317,-261.1087C269.5307,-278.1409 290.2824,-338.7 253.5,-338.7"/>
<polygon fill="#000000" stroke="#000000" points="296.376,-259.1237 305.0907,-260.1308 300.188,-257.9118 304,-256.7 304,-256.7 304,-256.7 300.188,-257.9118 302.9093,-253.2692 296.376,-259.1237 296.376,-259.1237"/>
<ellipse fill="none" stroke="#000000" cx="293.3263" cy="-260.0932" rx="3.2" ry="3.2"/>
</g>
<!-- plp_diagnostic_summary -->
<g id="node3" class="node">
<title>plp_diagnostic_summary</title>
<g id="a_node3"><a xlink:href="../../tables/plp_diagnostic_summary.html" xlink:title="plp_diagnostic_summary" target="_top">
<polygon fill="#ffffff" stroke="transparent" points="28,-186.2 28,-269.2 233,-269.2 233,-186.2 28,-186.2"/>
<polygon fill="#f5f5f5" stroke="transparent" points="28.5,-245.7 28.5,-268.7 233.5,-268.7 233.5,-245.7 28.5,-245.7"/>
<polygon fill="none" stroke="#000000" points="28.5,-245.7 28.5,-268.7 233.5,-268.7 233.5,-245.7 28.5,-245.7"/>
<text text-anchor="start" x="33.5" y="-254.3" font-family="Helvetica,sans-Serif" font-weight="bold" font-size="11.00" fill="#000000">plp_diagnostic_summary</text>
<text text-anchor="start" x="199.0219" y="-253.8" font-family="Helvetica,sans-Serif" font-size="11.00" fill="#000000">[table]</text>
<polygon fill="none" stroke="#000000" points="28.5,-223.7 28.5,-245.7 233.5,-245.7 233.5,-223.7 28.5,-223.7"/>
<image xlink:href="../../images/primaryKeys.png" width="11px" height="12px" preserveAspectRatio="xMinYMin meet" x="33.5" y="-240.7"/>
<text text-anchor="start" x="57.5" y="-230.8" font-family="Helvetica,sans-Serif" font-size="11.00" fill="#000000">diagnostic_id</text>
<polygon fill="none" stroke="#000000" points="28.5,-204.7 28.5,-223.7 233.5,-223.7 233.5,-204.7 28.5,-204.7"/>
<text text-anchor="start" x="31.5" y="-210.8" font-family="Helvetica,sans-Serif" font-size="11.00" fill="#000000">...</text>
<polygon fill="#ffffff" stroke="transparent" points="28.5,-185.7 28.5,-204.7 107.5,-204.7 107.5,-185.7 28.5,-185.7"/>
<polygon fill="none" stroke="#000000" points="28.5,-185.7 28.5,-204.7 107.5,-204.7 107.5,-185.7 28.5,-185.7"/>
<text text-anchor="start" x="31.5" y="-191.8" font-family="Helvetica,sans-Serif" font-size="11.00" fill="#000000"> &#160;</text>
<polygon fill="#ffffff" stroke="transparent" points="107.5,-185.7 107.5,-204.7 178.5,-204.7 178.5,-185.7 107.5,-185.7"/>
<polygon fill="none" stroke="#000000" points="107.5,-185.7 107.5,-204.7 178.5,-204.7 178.5,-185.7 107.5,-185.7"/>
<text text-anchor="start" x="143.1105" y="-191.8" font-family="Helvetica,sans-Serif" font-size="11.00" fill="#000000">0 rows</text>
<polygon fill="#ffffff" stroke="transparent" points="178.5,-185.7 178.5,-204.7 233.5,-204.7 233.5,-185.7 178.5,-185.7"/>
<polygon fill="none" stroke="#000000" points="178.5,-185.7 178.5,-204.7 233.5,-204.7 233.5,-185.7 178.5,-185.7"/>
<text text-anchor="start" x="214.9053" y="-191.8" font-family="Helvetica,sans-Serif" font-size="11.00" fill="#000000">1 &gt;</text>
</a>
</g>
</g>
<!-- plp_diagnostics&#45;&gt;plp_diagnostic_summary -->
<g id="edge2" class="edge">
<title>plp_diagnostics:w&#45;&gt;plp_diagnostic_summary:e</title>
<path fill="none" stroke="#000000" d="M289.3997,-234.7C269.1866,-234.7 259.3255,-234.7 233.5,-234.7"/>
<polygon fill="#000000" stroke="#000000" points="296,-234.7001 304,-238.3 300,-234.7 304,-234.7 304,-234.7 304,-234.7 300,-234.7 304,-231.1 296,-234.7001 296,-234.7001"/>
<ellipse fill="none" stroke="#000000" cx="292.8" cy="-234.7001" rx="3.2" ry="3.2"/>
</g>
<!-- plp_model_designs -->
<g id="node4" class="node">
<title>plp_model_designs</title>
<g id="a_node4"><a xlink:href="../../tables/plp_model_designs.html" xlink:title="plp_model_designs" target="_top">
<polygon fill="#ffffff" stroke="transparent" points="15.5,-38.2 15.5,-165.2 245.5,-165.2 245.5,-38.2 15.5,-38.2"/>
<polygon fill="#f5f5f5" stroke="transparent" points="15.5,-141.7 15.5,-164.7 245.5,-164.7 245.5,-141.7 15.5,-141.7"/>
<polygon fill="none" stroke="#000000" points="15.5,-141.7 15.5,-164.7 245.5,-164.7 245.5,-141.7 15.5,-141.7"/>
<text text-anchor="start" x="20.5" y="-150.3" font-family="Helvetica,sans-Serif" font-weight="bold" font-size="11.00" fill="#000000">plp_model_designs</text>
<text text-anchor="start" x="210.5437" y="-149.8" font-family="Helvetica,sans-Serif" font-size="11.00" fill="#000000">[table]</text>
<polygon fill="none" stroke="#000000" points="15.5,-119.7 15.5,-141.7 245.5,-141.7 245.5,-119.7 15.5,-119.7"/>
<image xlink:href="../../images/primaryKeys.png" width="11px" height="12px" preserveAspectRatio="xMinYMin meet" x="20.5" y="-136.7"/>
<text text-anchor="start" x="35.5" y="-126.8" font-family="Helvetica,sans-Serif" font-size="11.00" fill="#000000">model_design_id</text>
<polygon fill="none" stroke="#000000" points="15.5,-97.7 15.5,-119.7 245.5,-119.7 245.5,-97.7 15.5,-97.7"/>
<image xlink:href="../../images/foreignKeys.png" width="11px" height="12px" preserveAspectRatio="xMinYMin meet" x="20.5" y="-114.7"/>
<text text-anchor="start" x="35.5" y="-104.8" font-family="Helvetica,sans-Serif" font-size="11.00" fill="#000000">outcome_id</text>
<polygon fill="none" stroke="#000000" points="15.5,-75.7 15.5,-97.7 245.5,-97.7 245.5,-75.7 15.5,-75.7"/>
<image xlink:href="../../images/foreignKeys.png" width="11px" height="12px" preserveAspectRatio="xMinYMin meet" x="20.5" y="-92.7"/>
<text text-anchor="start" x="35.5" y="-82.8" font-family="Helvetica,sans-Serif" font-size="11.00" fill="#000000">target_id</text>
<polygon fill="none" stroke="#000000" points="15.5,-56.7 15.5,-75.7 245.5,-75.7 245.5,-56.7 15.5,-56.7"/>
<text text-anchor="start" x="18.5" y="-62.8" font-family="Helvetica,sans-Serif" font-size="11.00" fill="#000000">...</text>
<polygon fill="#ffffff" stroke="transparent" points="15.5,-37.7 15.5,-56.7 111.5,-56.7 111.5,-37.7 15.5,-37.7"/>
<polygon fill="none" stroke="#000000" points="15.5,-37.7 15.5,-56.7 111.5,-56.7 111.5,-37.7 15.5,-37.7"/>
<text text-anchor="start" x="18.5" y="-43.8" font-family="Helvetica,sans-Serif" font-size="11.00" fill="#000000">&lt; 2</text>
<polygon fill="#ffffff" stroke="transparent" points="111.5,-37.7 111.5,-56.7 186.5,-56.7 186.5,-37.7 111.5,-37.7"/>
<polygon fill="none" stroke="#000000" points="111.5,-37.7 111.5,-56.7 186.5,-56.7 186.5,-37.7 111.5,-37.7"/>
<text text-anchor="start" x="151.1105" y="-43.8" font-family="Helvetica,sans-Serif" font-size="11.00" fill="#000000">0 rows</text>
<polygon fill="#ffffff" stroke="transparent" points="186.5,-37.7 186.5,-56.7 245.5,-56.7 245.5,-37.7 186.5,-37.7"/>
<polygon fill="none" stroke="#000000" points="186.5,-37.7 186.5,-56.7 245.5,-56.7 245.5,-37.7 186.5,-37.7"/>
<text text-anchor="start" x="226.9053" y="-43.8" font-family="Helvetica,sans-Serif" font-size="11.00" fill="#000000">1 &gt;</text>
</a>
</g>
</g>
<!-- plp_diagnostics&#45;&gt;plp_model_designs -->
<g id="edge3" class="edge">
<title>plp_diagnostics:w&#45;&gt;plp_model_designs:e</title>
<path fill="none" stroke="#000000" d="M290.0346,-186.7632C270.4527,-173.4148 276.9246,-130.7 245.5,-130.7"/>
<polygon fill="#000000" stroke="#000000" points="296.3001,-188.5294 303.0232,-194.165 300.15,-189.6147 304,-190.7 304,-190.7 304,-190.7 300.15,-189.6147 304.9768,-187.235 296.3001,-188.5294 296.3001,-188.5294"/>
<ellipse fill="none" stroke="#000000" cx="293.2201" cy="-187.6612" rx="3.2" ry="3.2"/>
</g>
</g>
</svg>
