<?xml version="1.0" encoding="UTF-8" standalone="no"?>
<!DOCTYPE svg PUBLIC "-//W3C//DTD SVG 1.1//EN"
 "http://www.w3.org/Graphics/SVG/1.1/DTD/svg11.dtd">
<!-- Generated by graphviz version 2.40.1 (20161225.0304)
 -->
<!-- Title: oneDegreeRelationshipsDiagram Pages: 1 -->
<svg width="216pt" height="228pt"
 viewBox="0.00 0.00 216.00 228.20" xmlns="http://www.w3.org/2000/svg" xmlns:xlink="http://www.w3.org/1999/xlink">
<g id="graph0" class="graph" transform="scale(1 1) rotate(0) translate(4 224.2)">
<title>oneDegreeRelationshipsDiagram</title>
<polygon fill="#ffffff" stroke="transparent" points="-4,4 -4,-224.2 212,-224.2 212,4 -4,4"/>
<text text-anchor="middle" x="72.4936" y="-7.3" font-family="Helvetica,sans-Serif" font-size="11.00" fill="#000000">Generated by SchemaSpy</text>
<!-- plp_attrition -->
<g id="node1" class="node">
<title>plp_attrition</title>
<g id="a_node1"><a xlink:href="../../tables/plp_attrition.html" xlink:title="plp_attrition" target="_top">
<polygon fill="#ffffff" stroke="transparent" points="8,-38.2 8,-216.2 200,-216.2 200,-38.2 8,-38.2"/>
<polygon fill="#f5f5f5" stroke="transparent" points="10,-191.2 10,-214.2 198,-214.2 198,-191.2 10,-191.2"/>
<polygon fill="none" stroke="#000000" points="10,-191.2 10,-214.2 198,-214.2 198,-191.2 10,-191.2"/>
<text text-anchor="start" x="15" y="-199.8" font-family="Helvetica,sans-Serif" font-weight="bold" font-size="11.00" fill="#000000">plp_attrition</text>
<text text-anchor="start" x="163.0437" y="-199.3" font-family="Helvetica,sans-Serif" font-size="11.00" fill="#000000">[table]</text>
<polygon fill="none" stroke="#000000" points="10,-169.2 10,-191.2 136,-191.2 136,-169.2 10,-169.2"/>
<text text-anchor="start" x="30" y="-176.3" font-family="Helvetica,sans-Serif" font-size="11.00" fill="#000000">description</text>
<polygon fill="none" stroke="#000000" points="136,-169.2 136,-191.2 198,-191.2 198,-169.2 136,-169.2"/>
<text text-anchor="start" x="138.878" y="-176.9" font-family="Helvetica,sans-Serif" font-size="11.00" fill="#000000">unknown[0]</text>
<polygon fill="none" stroke="#000000" points="10,-147.2 10,-169.2 136,-169.2 136,-147.2 10,-147.2"/>
<text text-anchor="start" x="30" y="-154.3" font-family="Helvetica,sans-Serif" font-size="11.00" fill="#000000">outcome_id</text>
<polygon fill="none" stroke="#000000" points="136,-147.2 136,-169.2 198,-169.2 198,-147.2 136,-147.2"/>
<text text-anchor="start" x="138.878" y="-154.9" font-family="Helvetica,sans-Serif" font-size="11.00" fill="#000000">unknown[0]</text>
<polygon fill="none" stroke="#000000" points="10,-125.2 10,-147.2 136,-147.2 136,-125.2 10,-125.2"/>
<text text-anchor="start" x="30" y="-132.3" font-family="Helvetica,sans-Serif" font-size="11.00" fill="#000000">outcomes</text>
<polygon fill="none" stroke="#000000" points="136,-125.2 136,-147.2 198,-147.2 198,-125.2 136,-125.2"/>
<text text-anchor="start" x="138.878" y="-132.9" font-family="Helvetica,sans-Serif" font-size="11.00" fill="#000000">unknown[0]</text>
<polygon fill="none" stroke="#000000" points="10,-103.2 10,-125.2 136,-125.2 136,-103.2 10,-103.2"/>
<text text-anchor="start" x="30" y="-110.3" font-family="Helvetica,sans-Serif" font-size="11.00" fill="#000000">performance_id</text>
<polygon fill="none" stroke="#000000" points="136,-103.2 136,-125.2 198,-125.2 198,-103.2 136,-103.2"/>
<text text-anchor="start" x="138.878" y="-110.9" font-family="Helvetica,sans-Serif" font-size="11.00" fill="#000000">unknown[0]</text>
<polygon fill="none" stroke="#000000" points="10,-81.2 10,-103.2 136,-103.2 136,-81.2 10,-81.2"/>
<text text-anchor="start" x="30" y="-88.3" font-family="Helvetica,sans-Serif" font-size="11.00" fill="#000000">target_count</text>
<polygon fill="none" stroke="#000000" points="136,-81.2 136,-103.2 198,-103.2 198,-81.2 136,-81.2"/>
<text text-anchor="start" x="138.878" y="-88.9" font-family="Helvetica,sans-Serif" font-size="11.00" fill="#000000">unknown[0]</text>
<polygon fill="none" stroke="#000000" points="10,-59.2 10,-81.2 136,-81.2 136,-59.2 10,-59.2"/>
<text text-anchor="start" x="30" y="-66.3" font-family="Helvetica,sans-Serif" font-size="11.00" fill="#000000">unique_people</text>
<polygon fill="none" stroke="#000000" points="136,-59.2 136,-81.2 198,-81.2 198,-59.2 136,-59.2"/>
<text text-anchor="start" x="138.878" y="-66.9" font-family="Helvetica,sans-Serif" font-size="11.00" fill="#000000">unknown[0]</text>
<polygon fill="#ffffff" stroke="transparent" points="10,-40.2 10,-59.2 64,-59.2 64,-40.2 10,-40.2"/>
<polygon fill="none" stroke="#000000" points="10,-40.2 10,-59.2 64,-59.2 64,-40.2 10,-40.2"/>
<text text-anchor="start" x="13" y="-46.3" font-family="Helvetica,sans-Serif" font-size="11.00" fill="#000000">&lt; 0</text>
<polygon fill="#ffffff" stroke="transparent" points="64,-40.2 64,-59.2 136,-59.2 136,-40.2 64,-40.2"/>
<polygon fill="none" stroke="#000000" points="64,-40.2 64,-59.2 136,-59.2 136,-40.2 64,-40.2"/>
<text text-anchor="start" x="100.6105" y="-46.3" font-family="Helvetica,sans-Serif" font-size="11.00" fill="#000000">0 rows</text>
<polygon fill="#ffffff" stroke="transparent" points="136,-40.2 136,-59.2 198,-59.2 198,-40.2 136,-40.2"/>
<polygon fill="none" stroke="#000000" points="136,-40.2 136,-59.2 198,-59.2 198,-40.2 136,-40.2"/>
<text text-anchor="start" x="179.4053" y="-46.3" font-family="Helvetica,sans-Serif" font-size="11.00" fill="#000000">0 &gt;</text>
<polygon fill="none" stroke="#000000" stroke-width="2" points="9,-39.2 9,-215.2 199,-215.2 199,-39.2 9,-39.2"/>
</a>
</g>
</g>
</g>
</svg>
