<?xml version="1.0" encoding="UTF-8" standalone="no"?>
<!DOCTYPE svg PUBLIC "-//W3C//DTD SVG 1.1//EN"
 "http://www.w3.org/Graphics/SVG/1.1/DTD/svg11.dtd">
<!-- Generated by graphviz version 2.40.1 (20161225.0304)
 -->
<!-- Title: oneDegreeRelationshipsDiagram Pages: 1 -->
<svg width="320pt" height="360pt"
 viewBox="0.00 0.00 320.00 360.20" xmlns="http://www.w3.org/2000/svg" xmlns:xlink="http://www.w3.org/1999/xlink">
<g id="graph0" class="graph" transform="scale(1 1) rotate(0) translate(4 356.2)">
<title>oneDegreeRelationshipsDiagram</title>
<polygon fill="#ffffff" stroke="transparent" points="-4,4 -4,-356.2 316,-356.2 316,4 -4,4"/>
<text text-anchor="middle" x="72.4936" y="-7.3" font-family="Helvetica,sans-Serif" font-size="11.00" fill="#000000">Generated by SchemaSpy</text>
<!-- plp_model_designs -->
<g id="node1" class="node">
<title>plp_model_designs</title>
<g id="a_node1"><a xlink:href="../../tables/plp_model_designs.html" xlink:title="plp_model_designs" target="_top">
<polygon fill="#ffffff" stroke="transparent" points="8,-38.2 8,-348.2 304,-348.2 304,-38.2 8,-38.2"/>
<polygon fill="#f5f5f5" stroke="transparent" points="10,-323.2 10,-346.2 302,-346.2 302,-323.2 10,-323.2"/>
<polygon fill="none" stroke="#000000" points="10,-323.2 10,-346.2 302,-346.2 302,-323.2 10,-323.2"/>
<text text-anchor="start" x="15" y="-331.8" font-family="Helvetica,sans-Serif" font-weight="bold" font-size="11.00" fill="#000000">plp_model_designs</text>
<text text-anchor="start" x="267.0437" y="-331.3" font-family="Helvetica,sans-Serif" font-size="11.00" fill="#000000">[table]</text>
<polygon fill="none" stroke="#000000" points="10,-301.2 10,-323.2 240,-323.2 240,-301.2 10,-301.2"/>
<text text-anchor="start" x="30" y="-308.3" font-family="Helvetica,sans-Serif" font-size="11.00" fill="#000000">covariate_setting_id</text>
<polygon fill="none" stroke="#000000" points="240,-301.2 240,-323.2 302,-323.2 302,-301.2 240,-301.2"/>
<text text-anchor="start" x="242.878" y="-308.9" font-family="Helvetica,sans-Serif" font-size="11.00" fill="#000000">unknown[0]</text>
<polygon fill="none" stroke="#000000" points="10,-279.2 10,-301.2 240,-301.2 240,-279.2 10,-279.2"/>
<text text-anchor="start" x="30" y="-286.3" font-family="Helvetica,sans-Serif" font-size="11.00" fill="#000000">feature_engineering_setting_id</text>
<polygon fill="none" stroke="#000000" points="240,-279.2 240,-301.2 302,-301.2 302,-279.2 240,-279.2"/>
<text text-anchor="start" x="242.878" y="-286.9" font-family="Helvetica,sans-Serif" font-size="11.00" fill="#000000">unknown[0]</text>
<polygon fill="none" stroke="#000000" points="10,-257.2 10,-279.2 240,-279.2 240,-257.2 10,-257.2"/>
<text text-anchor="start" x="30" y="-264.3" font-family="Helvetica,sans-Serif" font-size="11.00" fill="#000000">model_design_id</text>
<polygon fill="none" stroke="#000000" points="240,-257.2 240,-279.2 302,-279.2 302,-257.2 240,-257.2"/>
<text text-anchor="start" x="242.878" y="-264.9" font-family="Helvetica,sans-Serif" font-size="11.00" fill="#000000">unknown[0]</text>
<polygon fill="none" stroke="#000000" points="10,-235.2 10,-257.2 240,-257.2 240,-235.2 10,-235.2"/>
<text text-anchor="start" x="30" y="-242.3" font-family="Helvetica,sans-Serif" font-size="11.00" fill="#000000">model_setting_id</text>
<polygon fill="none" stroke="#000000" points="240,-235.2 240,-257.2 302,-257.2 302,-235.2 240,-235.2"/>
<text text-anchor="start" x="242.878" y="-242.9" font-family="Helvetica,sans-Serif" font-size="11.00" fill="#000000">unknown[0]</text>
<polygon fill="none" stroke="#000000" points="10,-213.2 10,-235.2 240,-235.2 240,-213.2 10,-213.2"/>
<text text-anchor="start" x="30" y="-220.3" font-family="Helvetica,sans-Serif" font-size="11.00" fill="#000000">outcome_id</text>
<polygon fill="none" stroke="#000000" points="240,-213.2 240,-235.2 302,-235.2 302,-213.2 240,-213.2"/>
<text text-anchor="start" x="242.878" y="-220.9" font-family="Helvetica,sans-Serif" font-size="11.00" fill="#000000">unknown[0]</text>
<polygon fill="none" stroke="#000000" points="10,-191.2 10,-213.2 240,-213.2 240,-191.2 10,-191.2"/>
<text text-anchor="start" x="30" y="-198.3" font-family="Helvetica,sans-Serif" font-size="11.00" fill="#000000">plp_data_setting_id</text>
<polygon fill="none" stroke="#000000" points="240,-191.2 240,-213.2 302,-213.2 302,-191.2 240,-191.2"/>
<text text-anchor="start" x="242.878" y="-198.9" font-family="Helvetica,sans-Serif" font-size="11.00" fill="#000000">unknown[0]</text>
<polygon fill="none" stroke="#000000" points="10,-169.2 10,-191.2 240,-191.2 240,-169.2 10,-169.2"/>
<text text-anchor="start" x="30" y="-176.3" font-family="Helvetica,sans-Serif" font-size="11.00" fill="#000000">population_setting_id</text>
<polygon fill="none" stroke="#000000" points="240,-169.2 240,-191.2 302,-191.2 302,-169.2 240,-169.2"/>
<text text-anchor="start" x="242.878" y="-176.9" font-family="Helvetica,sans-Serif" font-size="11.00" fill="#000000">unknown[0]</text>
<polygon fill="none" stroke="#000000" points="10,-147.2 10,-169.2 240,-169.2 240,-147.2 10,-147.2"/>
<text text-anchor="start" x="30" y="-154.3" font-family="Helvetica,sans-Serif" font-size="11.00" fill="#000000">sample_setting_id</text>
<polygon fill="none" stroke="#000000" points="240,-147.2 240,-169.2 302,-169.2 302,-147.2 240,-147.2"/>
<text text-anchor="start" x="242.878" y="-154.9" font-family="Helvetica,sans-Serif" font-size="11.00" fill="#000000">unknown[0]</text>
<polygon fill="none" stroke="#000000" points="10,-125.2 10,-147.2 240,-147.2 240,-125.2 10,-125.2"/>
<text text-anchor="start" x="30" y="-132.3" font-family="Helvetica,sans-Serif" font-size="11.00" fill="#000000">split_setting_id</text>
<polygon fill="none" stroke="#000000" points="240,-125.2 240,-147.2 302,-147.2 302,-125.2 240,-125.2"/>
<text text-anchor="start" x="242.878" y="-132.9" font-family="Helvetica,sans-Serif" font-size="11.00" fill="#000000">unknown[0]</text>
<polygon fill="none" stroke="#000000" points="10,-103.2 10,-125.2 240,-125.2 240,-103.2 10,-103.2"/>
<text text-anchor="start" x="30" y="-110.3" font-family="Helvetica,sans-Serif" font-size="11.00" fill="#000000">tar_id</text>
<polygon fill="none" stroke="#000000" points="240,-103.2 240,-125.2 302,-125.2 302,-103.2 240,-103.2"/>
<text text-anchor="start" x="242.878" y="-110.9" font-family="Helvetica,sans-Serif" font-size="11.00" fill="#000000">unknown[0]</text>
<polygon fill="none" stroke="#000000" points="10,-81.2 10,-103.2 240,-103.2 240,-81.2 10,-81.2"/>
<text text-anchor="start" x="30" y="-88.3" font-family="Helvetica,sans-Serif" font-size="11.00" fill="#000000">target_id</text>
<polygon fill="none" stroke="#000000" points="240,-81.2 240,-103.2 302,-103.2 302,-81.2 240,-81.2"/>
<text text-anchor="start" x="242.878" y="-88.9" font-family="Helvetica,sans-Serif" font-size="11.00" fill="#000000">unknown[0]</text>
<polygon fill="none" stroke="#000000" points="10,-59.2 10,-81.2 240,-81.2 240,-59.2 10,-59.2"/>
<text text-anchor="start" x="30" y="-66.3" font-family="Helvetica,sans-Serif" font-size="11.00" fill="#000000">tidy_covariates_setting_id</text>
<polygon fill="none" stroke="#000000" points="240,-59.2 240,-81.2 302,-81.2 302,-59.2 240,-59.2"/>
<text text-anchor="start" x="242.878" y="-66.9" font-family="Helvetica,sans-Serif" font-size="11.00" fill="#000000">unknown[0]</text>
<polygon fill="#ffffff" stroke="transparent" points="10,-40.2 10,-59.2 116,-59.2 116,-40.2 10,-40.2"/>
<polygon fill="none" stroke="#000000" points="10,-40.2 10,-59.2 116,-59.2 116,-40.2 10,-40.2"/>
<text text-anchor="start" x="13" y="-46.3" font-family="Helvetica,sans-Serif" font-size="11.00" fill="#000000">&lt; 0</text>
<polygon fill="#ffffff" stroke="transparent" points="116,-40.2 116,-59.2 240,-59.2 240,-40.2 116,-40.2"/>
<polygon fill="none" stroke="#000000" points="116,-40.2 116,-59.2 240,-59.2 240,-40.2 116,-40.2"/>
<text text-anchor="start" x="204.6105" y="-46.3" font-family="Helvetica,sans-Serif" font-size="11.00" fill="#000000">0 rows</text>
<polygon fill="#ffffff" stroke="transparent" points="240,-40.2 240,-59.2 302,-59.2 302,-40.2 240,-40.2"/>
<polygon fill="none" stroke="#000000" points="240,-40.2 240,-59.2 302,-59.2 302,-40.2 240,-40.2"/>
<text text-anchor="start" x="283.4053" y="-46.3" font-family="Helvetica,sans-Serif" font-size="11.00" fill="#000000">0 &gt;</text>
<polygon fill="none" stroke="#000000" stroke-width="2" points="9,-39.2 9,-347.2 303,-347.2 303,-39.2 9,-39.2"/>
</a>
</g>
</g>
</g>
</svg>
