<?xml version="1.0" encoding="UTF-8" standalone="no"?>
<!DOCTYPE svg PUBLIC "-//W3C//DTD SVG 1.1//EN"
 "http://www.w3.org/Graphics/SVG/1.1/DTD/svg11.dtd">
<!-- Generated by graphviz version 2.40.1 (20161225.0304)
 -->
<!-- Title: twoDegreesRelationshipsDiagram Pages: 1 -->
<svg width="956pt" height="525pt"
 viewBox="0.00 0.00 956.00 524.70" xmlns="http://www.w3.org/2000/svg" xmlns:xlink="http://www.w3.org/1999/xlink">
<g id="graph0" class="graph" transform="scale(1 1) rotate(0) translate(4 520.7)">
<title>twoDegreesRelationshipsDiagram</title>
<polygon fill="#ffffff" stroke="transparent" points="-4,4 -4,-520.7 952,-520.7 952,4 -4,4"/>
<text text-anchor="middle" x="72.4936" y="-7.3" font-family="Helvetica,sans-Serif" font-size="11.00" fill="#000000">Generated by SchemaSpy</text>
<!-- plp_cohorts -->
<g id="node1" class="node">
<title>plp_cohorts</title>
<g id="a_node1"><a xlink:href="../../tables/plp_cohorts.html" xlink:title="plp_cohorts" target="_top">
<polygon fill="#ffffff" stroke="transparent" points="232,-109.7 232,-192.7 386,-192.7 386,-109.7 232,-109.7"/>
<polygon fill="#f5f5f5" stroke="transparent" points="232,-169.2 232,-192.2 386,-192.2 386,-169.2 232,-169.2"/>
<polygon fill="none" stroke="#000000" points="232,-169.2 232,-192.2 386,-192.2 386,-169.2 232,-169.2"/>
<text text-anchor="start" x="237" y="-177.8" font-family="Helvetica,sans-Serif" font-weight="bold" font-size="11.00" fill="#000000">plp_cohorts</text>
<text text-anchor="start" x="351.0437" y="-177.3" font-family="Helvetica,sans-Serif" font-size="11.00" fill="#000000">[table]</text>
<polygon fill="none" stroke="#000000" points="232,-147.2 232,-169.2 386,-169.2 386,-147.2 232,-147.2"/>
<image xlink:href="../../images/primaryKeys.png" width="11px" height="12px" preserveAspectRatio="xMinYMin meet" x="237" y="-164.2"/>
<text text-anchor="start" x="252" y="-154.3" font-family="Helvetica,sans-Serif" font-size="11.00" fill="#000000">cohort_definition_id</text>
<polygon fill="none" stroke="#000000" points="232,-128.2 232,-147.2 386,-147.2 386,-128.2 232,-128.2"/>
<text text-anchor="start" x="235" y="-134.3" font-family="Helvetica,sans-Serif" font-size="11.00" fill="#000000">...</text>
<polygon fill="#ffffff" stroke="transparent" points="232,-109.2 232,-128.2 290,-128.2 290,-109.2 232,-109.2"/>
<polygon fill="none" stroke="#000000" points="232,-109.2 232,-128.2 290,-128.2 290,-109.2 232,-109.2"/>
<text text-anchor="start" x="235" y="-115.3" font-family="Helvetica,sans-Serif" font-size="11.00" fill="#000000">&lt; 1</text>
<polygon fill="#ffffff" stroke="transparent" points="290,-109.2 290,-128.2 346,-128.2 346,-109.2 290,-109.2"/>
<polygon fill="none" stroke="#000000" points="290,-109.2 290,-128.2 346,-128.2 346,-109.2 290,-109.2"/>
<text text-anchor="start" x="310.6105" y="-115.3" font-family="Helvetica,sans-Serif" font-size="11.00" fill="#000000">0 rows</text>
<polygon fill="#ffffff" stroke="transparent" points="346,-109.2 346,-128.2 386,-128.2 386,-109.2 346,-109.2"/>
<polygon fill="none" stroke="#000000" points="346,-109.2 346,-128.2 386,-128.2 386,-109.2 346,-109.2"/>
<text text-anchor="start" x="367.4053" y="-115.3" font-family="Helvetica,sans-Serif" font-size="11.00" fill="#000000">2 &gt;</text>
</a>
</g>
</g>
<!-- cg_cohort_definition -->
<g id="node2" class="node">
<title>cg_cohort_definition</title>
<g id="a_node2"><a xlink:href="../../tables/cg_cohort_definition.html" xlink:title="cg_cohort_definition" target="_top">
<polygon fill="#ffffff" stroke="transparent" points="8,-130.7 8,-191.7 183,-191.7 183,-130.7 8,-130.7"/>
<polygon fill="#f5f5f5" stroke="transparent" points="8.5,-168.2 8.5,-191.2 183.5,-191.2 183.5,-168.2 8.5,-168.2"/>
<polygon fill="none" stroke="#000000" points="8.5,-168.2 8.5,-191.2 183.5,-191.2 183.5,-168.2 8.5,-168.2"/>
<text text-anchor="start" x="13.5" y="-176.8" font-family="Helvetica,sans-Serif" font-weight="bold" font-size="11.00" fill="#000000">cg_cohort_definition</text>
<text text-anchor="start" x="149.0219" y="-176.3" font-family="Helvetica,sans-Serif" font-size="11.00" fill="#000000">[table]</text>
<polygon fill="none" stroke="#000000" points="8.5,-149.2 8.5,-168.2 183.5,-168.2 183.5,-149.2 8.5,-149.2"/>
<text text-anchor="start" x="11.5" y="-155.3" font-family="Helvetica,sans-Serif" font-size="11.00" fill="#000000">...</text>
<polygon fill="#ffffff" stroke="transparent" points="8.5,-130.2 8.5,-149.2 69.5,-149.2 69.5,-130.2 8.5,-130.2"/>
<polygon fill="none" stroke="#000000" points="8.5,-130.2 8.5,-149.2 69.5,-149.2 69.5,-130.2 8.5,-130.2"/>
<text text-anchor="start" x="11.5" y="-136.3" font-family="Helvetica,sans-Serif" font-size="11.00" fill="#000000"> &#160;</text>
<polygon fill="#ffffff" stroke="transparent" points="69.5,-130.2 69.5,-149.2 131.5,-149.2 131.5,-130.2 69.5,-130.2"/>
<polygon fill="none" stroke="#000000" points="69.5,-130.2 69.5,-149.2 131.5,-149.2 131.5,-130.2 69.5,-130.2"/>
<text text-anchor="start" x="96.1105" y="-136.3" font-family="Helvetica,sans-Serif" font-size="11.00" fill="#000000">0 rows</text>
<polygon fill="#ffffff" stroke="transparent" points="131.5,-130.2 131.5,-149.2 183.5,-149.2 183.5,-130.2 131.5,-130.2"/>
<polygon fill="none" stroke="#000000" points="131.5,-130.2 131.5,-149.2 183.5,-149.2 183.5,-130.2 131.5,-130.2"/>
<text text-anchor="start" x="158.7904" y="-136.3" font-family="Helvetica,sans-Serif" font-size="11.00" fill="#000000">15 &gt;</text>
</a>
</g>
</g>
<!-- plp_cohorts&#45;&gt;cg_cohort_definition -->
<g id="edge1" class="edge">
<title>plp_cohorts:w&#45;&gt;cg_cohort_definition:e</title>
<path fill="none" stroke="#000000" d="M221.3669,-158.2C207.8553,-158.2 201.0139,-158.2 183.5,-158.2"/>
<polygon fill="#000000" stroke="#000000" points="231.2,-154.2 231.2,-162.2 229.6,-162.2 229.6,-154.2 231.2,-154.2"/>
<polyline fill="none" stroke="#000000" points="232,-158.2 228,-158.2 "/>
<ellipse fill="none" stroke="#000000" cx="224.8" cy="-158.2001" rx="3.2" ry="3.2"/>
</g>
<!-- plp_diagnostics -->
<g id="node3" class="node">
<title>plp_diagnostics</title>
<g id="a_node3"><a xlink:href="../../tables/plp_diagnostics.html" xlink:title="plp_diagnostics" target="_top">
<polygon fill="#ffffff" stroke="transparent" points="780,-326.7 780,-453.7 940,-453.7 940,-326.7 780,-326.7"/>
<polygon fill="#f5f5f5" stroke="transparent" points="780,-430.2 780,-453.2 940,-453.2 940,-430.2 780,-430.2"/>
<polygon fill="none" stroke="#000000" points="780,-430.2 780,-453.2 940,-453.2 940,-430.2 780,-430.2"/>
<text text-anchor="start" x="785" y="-438.8" font-family="Helvetica,sans-Serif" font-weight="bold" font-size="11.00" fill="#000000">plp_diagnostics</text>
<text text-anchor="start" x="905.0437" y="-438.3" font-family="Helvetica,sans-Serif" font-size="11.00" fill="#000000">[table]</text>
<polygon fill="none" stroke="#000000" points="780,-408.2 780,-430.2 940,-430.2 940,-408.2 780,-408.2"/>
<image xlink:href="../../images/foreignKeys.png" width="11px" height="12px" preserveAspectRatio="xMinYMin meet" x="785" y="-425.2"/>
<text text-anchor="start" x="800" y="-415.3" font-family="Helvetica,sans-Serif" font-size="11.00" fill="#000000">database_id</text>
<polygon fill="none" stroke="#000000" points="780,-386.2 780,-408.2 940,-408.2 940,-386.2 780,-386.2"/>
<image xlink:href="../../images/foreignKeys.png" width="11px" height="12px" preserveAspectRatio="xMinYMin meet" x="785" y="-403.2"/>
<text text-anchor="start" x="800" y="-393.3" font-family="Helvetica,sans-Serif" font-size="11.00" fill="#000000">diagnostic_id</text>
<polygon fill="none" stroke="#000000" points="780,-364.2 780,-386.2 940,-386.2 940,-364.2 780,-364.2"/>
<image xlink:href="../../images/foreignKeys.png" width="11px" height="12px" preserveAspectRatio="xMinYMin meet" x="785" y="-381.2"/>
<text text-anchor="start" x="800" y="-371.3" font-family="Helvetica,sans-Serif" font-size="11.00" fill="#000000">model_design_id</text>
<polygon fill="none" stroke="#000000" points="780,-345.2 780,-364.2 940,-364.2 940,-345.2 780,-345.2"/>
<text text-anchor="start" x="783" y="-351.3" font-family="Helvetica,sans-Serif" font-size="11.00" fill="#000000">...</text>
<polygon fill="#ffffff" stroke="transparent" points="780,-326.2 780,-345.2 845,-345.2 845,-326.2 780,-326.2"/>
<polygon fill="none" stroke="#000000" points="780,-326.2 780,-345.2 845,-345.2 845,-326.2 780,-326.2"/>
<text text-anchor="start" x="783" y="-332.3" font-family="Helvetica,sans-Serif" font-size="11.00" fill="#000000">&lt; 3</text>
<polygon fill="#ffffff" stroke="transparent" points="845,-326.2 845,-345.2 905,-345.2 905,-326.2 845,-326.2"/>
<polygon fill="none" stroke="#000000" points="845,-326.2 845,-345.2 905,-345.2 905,-326.2 845,-326.2"/>
<text text-anchor="start" x="869.6105" y="-332.3" font-family="Helvetica,sans-Serif" font-size="11.00" fill="#000000">0 rows</text>
<polygon fill="#ffffff" stroke="transparent" points="905,-326.2 905,-345.2 940,-345.2 940,-326.2 905,-326.2"/>
<polygon fill="none" stroke="#000000" points="905,-326.2 905,-345.2 940,-345.2 940,-326.2 905,-326.2"/>
<text text-anchor="start" x="930.8862" y="-332.3" font-family="Helvetica,sans-Serif" font-size="11.00" fill="#000000"> &#160;</text>
</a>
</g>
</g>
<!-- database_meta_data -->
<g id="node4" class="node">
<title>database_meta_data</title>
<g id="a_node4"><a xlink:href="../../tables/database_meta_data.html" xlink:title="database_meta_data" target="_top">
<polygon fill="#ffffff" stroke="transparent" points="494,-451.7 494,-512.7 672,-512.7 672,-451.7 494,-451.7"/>
<polygon fill="#f5f5f5" stroke="transparent" points="494,-489.2 494,-512.2 672,-512.2 672,-489.2 494,-489.2"/>
<polygon fill="none" stroke="#000000" points="494,-489.2 494,-512.2 672,-512.2 672,-489.2 494,-489.2"/>
<text text-anchor="start" x="499" y="-497.8" font-family="Helvetica,sans-Serif" font-weight="bold" font-size="11.00" fill="#000000">database_meta_data</text>
<text text-anchor="start" x="637.5219" y="-497.3" font-family="Helvetica,sans-Serif" font-size="11.00" fill="#000000">[table]</text>
<polygon fill="none" stroke="#000000" points="494,-470.2 494,-489.2 672,-489.2 672,-470.2 494,-470.2"/>
<text text-anchor="start" x="497" y="-476.3" font-family="Helvetica,sans-Serif" font-size="11.00" fill="#000000">...</text>
<polygon fill="#ffffff" stroke="transparent" points="494,-451.2 494,-470.2 561,-470.2 561,-451.2 494,-451.2"/>
<polygon fill="none" stroke="#000000" points="494,-451.2 494,-470.2 561,-470.2 561,-451.2 494,-451.2"/>
<text text-anchor="start" x="497" y="-457.3" font-family="Helvetica,sans-Serif" font-size="11.00" fill="#000000">&lt; 1</text>
<polygon fill="#ffffff" stroke="transparent" points="561,-451.2 561,-470.2 622,-470.2 622,-451.2 561,-451.2"/>
<polygon fill="none" stroke="#000000" points="561,-451.2 561,-470.2 622,-470.2 622,-451.2 561,-451.2"/>
<text text-anchor="start" x="586.6105" y="-457.3" font-family="Helvetica,sans-Serif" font-size="11.00" fill="#000000">0 rows</text>
<polygon fill="#ffffff" stroke="transparent" points="622,-451.2 622,-470.2 672,-470.2 672,-451.2 622,-451.2"/>
<polygon fill="none" stroke="#000000" points="622,-451.2 622,-470.2 672,-470.2 672,-451.2 622,-451.2"/>
<text text-anchor="start" x="647.2904" y="-457.3" font-family="Helvetica,sans-Serif" font-size="11.00" fill="#000000">17 &gt;</text>
</a>
</g>
</g>
<!-- plp_diagnostics&#45;&gt;database_meta_data -->
<g id="edge2" class="edge">
<title>plp_diagnostics:w&#45;&gt;database_meta_data:e</title>
<path fill="none" stroke="#000000" d="M766.8728,-425.3951C739.0436,-440.725 677.4964,-479.2 672,-479.2"/>
<polygon fill="#000000" stroke="#000000" points="772.7652,-422.6143 781.5364,-422.4557 776.3826,-420.9072 780,-419.2 780,-419.2 780,-419.2 776.3826,-420.9072 778.4636,-415.9443 772.7652,-422.6143 772.7652,-422.6143"/>
<ellipse fill="none" stroke="#000000" cx="769.8712" cy="-423.9801" rx="3.2" ry="3.2"/>
</g>
<!-- plp_diagnostic_summary -->
<g id="node5" class="node">
<title>plp_diagnostic_summary</title>
<g id="a_node5"><a xlink:href="../../tables/plp_diagnostic_summary.html" xlink:title="plp_diagnostic_summary" target="_top">
<polygon fill="#ffffff" stroke="transparent" points="480.5,-369.7 480.5,-430.7 685.5,-430.7 685.5,-369.7 480.5,-369.7"/>
<polygon fill="#f5f5f5" stroke="transparent" points="481,-407.2 481,-430.2 686,-430.2 686,-407.2 481,-407.2"/>
<polygon fill="none" stroke="#000000" points="481,-407.2 481,-430.2 686,-430.2 686,-407.2 481,-407.2"/>
<text text-anchor="start" x="486" y="-415.8" font-family="Helvetica,sans-Serif" font-weight="bold" font-size="11.00" fill="#000000">plp_diagnostic_summary</text>
<text text-anchor="start" x="651.5219" y="-415.3" font-family="Helvetica,sans-Serif" font-size="11.00" fill="#000000">[table]</text>
<polygon fill="none" stroke="#000000" points="481,-388.2 481,-407.2 686,-407.2 686,-388.2 481,-388.2"/>
<text text-anchor="start" x="484" y="-394.3" font-family="Helvetica,sans-Serif" font-size="11.00" fill="#000000">...</text>
<polygon fill="#ffffff" stroke="transparent" points="481,-369.2 481,-388.2 560,-388.2 560,-369.2 481,-369.2"/>
<polygon fill="none" stroke="#000000" points="481,-369.2 481,-388.2 560,-388.2 560,-369.2 481,-369.2"/>
<text text-anchor="start" x="484" y="-375.3" font-family="Helvetica,sans-Serif" font-size="11.00" fill="#000000"> &#160;</text>
<polygon fill="#ffffff" stroke="transparent" points="560,-369.2 560,-388.2 631,-388.2 631,-369.2 560,-369.2"/>
<polygon fill="none" stroke="#000000" points="560,-369.2 560,-388.2 631,-388.2 631,-369.2 560,-369.2"/>
<text text-anchor="start" x="595.6105" y="-375.3" font-family="Helvetica,sans-Serif" font-size="11.00" fill="#000000">0 rows</text>
<polygon fill="#ffffff" stroke="transparent" points="631,-369.2 631,-388.2 686,-388.2 686,-369.2 631,-369.2"/>
<polygon fill="none" stroke="#000000" points="631,-369.2 631,-388.2 686,-388.2 686,-369.2 631,-369.2"/>
<text text-anchor="start" x="667.4053" y="-375.3" font-family="Helvetica,sans-Serif" font-size="11.00" fill="#000000">1 &gt;</text>
</a>
</g>
</g>
<!-- plp_diagnostics&#45;&gt;plp_diagnostic_summary -->
<g id="edge3" class="edge">
<title>plp_diagnostics:w&#45;&gt;plp_diagnostic_summary:e</title>
<path fill="none" stroke="#000000" d="M765.2715,-397.2C735.0089,-397.2 722.3924,-397.2 686,-397.2"/>
<polygon fill="#000000" stroke="#000000" points="772,-397.2001 780,-400.8 776,-397.2 780,-397.2 780,-397.2 780,-397.2 776,-397.2 780,-393.6 772,-397.2001 772,-397.2001"/>
<ellipse fill="none" stroke="#000000" cx="768.8" cy="-397.2001" rx="3.2" ry="3.2"/>
</g>
<!-- plp_model_designs -->
<g id="node6" class="node">
<title>plp_model_designs</title>
<g id="a_node6"><a xlink:href="../../tables/plp_model_designs.html" xlink:title="plp_model_designs" target="_top">
<polygon fill="#ffffff" stroke="transparent" points="435,-38.2 435,-348.2 731,-348.2 731,-38.2 435,-38.2"/>
<polygon fill="#f5f5f5" stroke="transparent" points="437,-323.2 437,-346.2 729,-346.2 729,-323.2 437,-323.2"/>
<polygon fill="none" stroke="#000000" points="437,-323.2 437,-346.2 729,-346.2 729,-323.2 437,-323.2"/>
<text text-anchor="start" x="442" y="-331.8" font-family="Helvetica,sans-Serif" font-weight="bold" font-size="11.00" fill="#000000">plp_model_designs</text>
<text text-anchor="start" x="694.0437" y="-331.3" font-family="Helvetica,sans-Serif" font-size="11.00" fill="#000000">[table]</text>
<polygon fill="none" stroke="#000000" points="437,-301.2 437,-323.2 667,-323.2 667,-301.2 437,-301.2"/>
<text text-anchor="start" x="457" y="-308.3" font-family="Helvetica,sans-Serif" font-size="11.00" fill="#000000">covariate_setting_id</text>
<polygon fill="none" stroke="#000000" points="667,-301.2 667,-323.2 729,-323.2 729,-301.2 667,-301.2"/>
<text text-anchor="start" x="669.878" y="-308.9" font-family="Helvetica,sans-Serif" font-size="11.00" fill="#000000">unknown[0]</text>
<polygon fill="none" stroke="#000000" points="437,-279.2 437,-301.2 667,-301.2 667,-279.2 437,-279.2"/>
<text text-anchor="start" x="457" y="-286.3" font-family="Helvetica,sans-Serif" font-size="11.00" fill="#000000">feature_engineering_setting_id</text>
<polygon fill="none" stroke="#000000" points="667,-279.2 667,-301.2 729,-301.2 729,-279.2 667,-279.2"/>
<text text-anchor="start" x="669.878" y="-286.9" font-family="Helvetica,sans-Serif" font-size="11.00" fill="#000000">unknown[0]</text>
<polygon fill="none" stroke="#000000" points="437,-257.2 437,-279.2 667,-279.2 667,-257.2 437,-257.2"/>
<image xlink:href="../../images/primaryKeys.png" width="11px" height="12px" preserveAspectRatio="xMinYMin meet" x="442" y="-274.2"/>
<text text-anchor="start" x="457" y="-264.3" font-family="Helvetica,sans-Serif" font-size="11.00" fill="#000000">model_design_id</text>
<polygon fill="none" stroke="#000000" points="667,-257.2 667,-279.2 729,-279.2 729,-257.2 667,-257.2"/>
<text text-anchor="start" x="669.878" y="-264.9" font-family="Helvetica,sans-Serif" font-size="11.00" fill="#000000">unknown[0]</text>
<polygon fill="none" stroke="#000000" points="437,-235.2 437,-257.2 667,-257.2 667,-235.2 437,-235.2"/>
<text text-anchor="start" x="457" y="-242.3" font-family="Helvetica,sans-Serif" font-size="11.00" fill="#000000">model_setting_id</text>
<polygon fill="none" stroke="#000000" points="667,-235.2 667,-257.2 729,-257.2 729,-235.2 667,-235.2"/>
<text text-anchor="start" x="669.878" y="-242.9" font-family="Helvetica,sans-Serif" font-size="11.00" fill="#000000">unknown[0]</text>
<polygon fill="none" stroke="#000000" points="437,-213.2 437,-235.2 667,-235.2 667,-213.2 437,-213.2"/>
<image xlink:href="../../images/foreignKeys.png" width="11px" height="12px" preserveAspectRatio="xMinYMin meet" x="442" y="-230.2"/>
<text text-anchor="start" x="457" y="-220.3" font-family="Helvetica,sans-Serif" font-size="11.00" fill="#000000">outcome_id</text>
<polygon fill="none" stroke="#000000" points="667,-213.2 667,-235.2 729,-235.2 729,-213.2 667,-213.2"/>
<text text-anchor="start" x="669.878" y="-220.9" font-family="Helvetica,sans-Serif" font-size="11.00" fill="#000000">unknown[0]</text>
<polygon fill="none" stroke="#000000" points="437,-191.2 437,-213.2 667,-213.2 667,-191.2 437,-191.2"/>
<text text-anchor="start" x="457" y="-198.3" font-family="Helvetica,sans-Serif" font-size="11.00" fill="#000000">plp_data_setting_id</text>
<polygon fill="none" stroke="#000000" points="667,-191.2 667,-213.2 729,-213.2 729,-191.2 667,-191.2"/>
<text text-anchor="start" x="669.878" y="-198.9" font-family="Helvetica,sans-Serif" font-size="11.00" fill="#000000">unknown[0]</text>
<polygon fill="none" stroke="#000000" points="437,-169.2 437,-191.2 667,-191.2 667,-169.2 437,-169.2"/>
<text text-anchor="start" x="457" y="-176.3" font-family="Helvetica,sans-Serif" font-size="11.00" fill="#000000">population_setting_id</text>
<polygon fill="none" stroke="#000000" points="667,-169.2 667,-191.2 729,-191.2 729,-169.2 667,-169.2"/>
<text text-anchor="start" x="669.878" y="-176.9" font-family="Helvetica,sans-Serif" font-size="11.00" fill="#000000">unknown[0]</text>
<polygon fill="none" stroke="#000000" points="437,-147.2 437,-169.2 667,-169.2 667,-147.2 437,-147.2"/>
<text text-anchor="start" x="457" y="-154.3" font-family="Helvetica,sans-Serif" font-size="11.00" fill="#000000">sample_setting_id</text>
<polygon fill="none" stroke="#000000" points="667,-147.2 667,-169.2 729,-169.2 729,-147.2 667,-147.2"/>
<text text-anchor="start" x="669.878" y="-154.9" font-family="Helvetica,sans-Serif" font-size="11.00" fill="#000000">unknown[0]</text>
<polygon fill="none" stroke="#000000" points="437,-125.2 437,-147.2 667,-147.2 667,-125.2 437,-125.2"/>
<text text-anchor="start" x="457" y="-132.3" font-family="Helvetica,sans-Serif" font-size="11.00" fill="#000000">split_setting_id</text>
<polygon fill="none" stroke="#000000" points="667,-125.2 667,-147.2 729,-147.2 729,-125.2 667,-125.2"/>
<text text-anchor="start" x="669.878" y="-132.9" font-family="Helvetica,sans-Serif" font-size="11.00" fill="#000000">unknown[0]</text>
<polygon fill="none" stroke="#000000" points="437,-103.2 437,-125.2 667,-125.2 667,-103.2 437,-103.2"/>
<text text-anchor="start" x="457" y="-110.3" font-family="Helvetica,sans-Serif" font-size="11.00" fill="#000000">tar_id</text>
<polygon fill="none" stroke="#000000" points="667,-103.2 667,-125.2 729,-125.2 729,-103.2 667,-103.2"/>
<text text-anchor="start" x="669.878" y="-110.9" font-family="Helvetica,sans-Serif" font-size="11.00" fill="#000000">unknown[0]</text>
<polygon fill="none" stroke="#000000" points="437,-81.2 437,-103.2 667,-103.2 667,-81.2 437,-81.2"/>
<image xlink:href="../../images/foreignKeys.png" width="11px" height="12px" preserveAspectRatio="xMinYMin meet" x="442" y="-98.2"/>
<text text-anchor="start" x="457" y="-88.3" font-family="Helvetica,sans-Serif" font-size="11.00" fill="#000000">target_id</text>
<polygon fill="none" stroke="#000000" points="667,-81.2 667,-103.2 729,-103.2 729,-81.2 667,-81.2"/>
<text text-anchor="start" x="669.878" y="-88.9" font-family="Helvetica,sans-Serif" font-size="11.00" fill="#000000">unknown[0]</text>
<polygon fill="none" stroke="#000000" points="437,-59.2 437,-81.2 667,-81.2 667,-59.2 437,-59.2"/>
<text text-anchor="start" x="457" y="-66.3" font-family="Helvetica,sans-Serif" font-size="11.00" fill="#000000">tidy_covariates_setting_id</text>
<polygon fill="none" stroke="#000000" points="667,-59.2 667,-81.2 729,-81.2 729,-59.2 667,-59.2"/>
<text text-anchor="start" x="669.878" y="-66.9" font-family="Helvetica,sans-Serif" font-size="11.00" fill="#000000">unknown[0]</text>
<polygon fill="#ffffff" stroke="transparent" points="437,-40.2 437,-59.2 543,-59.2 543,-40.2 437,-40.2"/>
<polygon fill="none" stroke="#000000" points="437,-40.2 437,-59.2 543,-59.2 543,-40.2 437,-40.2"/>
<text text-anchor="start" x="440" y="-46.3" font-family="Helvetica,sans-Serif" font-size="11.00" fill="#000000">&lt; 2</text>
<polygon fill="#ffffff" stroke="transparent" points="543,-40.2 543,-59.2 667,-59.2 667,-40.2 543,-40.2"/>
<polygon fill="none" stroke="#000000" points="543,-40.2 543,-59.2 667,-59.2 667,-40.2 543,-40.2"/>
<text text-anchor="start" x="631.6105" y="-46.3" font-family="Helvetica,sans-Serif" font-size="11.00" fill="#000000">0 rows</text>
<polygon fill="#ffffff" stroke="transparent" points="667,-40.2 667,-59.2 729,-59.2 729,-40.2 667,-40.2"/>
<polygon fill="none" stroke="#000000" points="667,-40.2 667,-59.2 729,-59.2 729,-40.2 667,-40.2"/>
<text text-anchor="start" x="710.4053" y="-46.3" font-family="Helvetica,sans-Serif" font-size="11.00" fill="#000000">1 &gt;</text>
<polygon fill="none" stroke="#000000" stroke-width="2" points="436,-39.2 436,-347.2 730,-347.2 730,-39.2 436,-39.2"/>
</a>
</g>
</g>
<!-- plp_diagnostics&#45;&gt;plp_model_designs -->
<g id="edge4" class="edge">
<title>plp_diagnostics:w&#45;&gt;plp_model_designs:e</title>
<path fill="none" stroke="#000000" d="M765.9064,-371.3918C738.2616,-352.3309 775.7134,-268.2 729,-268.2"/>
<polygon fill="#000000" stroke="#000000" points="772.277,-373.1131 779.0609,-378.6754 776.1385,-374.1566 780,-375.2 780,-375.2 780,-375.2 776.1385,-374.1566 780.9391,-371.7246 772.277,-373.1131 772.277,-373.1131"/>
<ellipse fill="none" stroke="#000000" cx="769.1878" cy="-372.2784" rx="3.2" ry="3.2"/>
</g>
<!-- plp_model_designs&#45;&gt;plp_cohorts -->
<g id="edge5" class="edge">
<title>plp_model_designs:w&#45;&gt;plp_cohorts:e</title>
<path fill="none" stroke="#000000" d="M423.0846,-219.4534C405.902,-204.3202 416.9886,-158.2 386,-158.2"/>
<polygon fill="#000000" stroke="#000000" points="429.4284,-221.6173 435.8378,-227.6072 433.2142,-222.9086 437,-224.2 437,-224.2 437,-224.2 433.2142,-222.9086 438.1622,-220.7928 429.4284,-221.6173 429.4284,-221.6173"/>
<ellipse fill="none" stroke="#000000" cx="426.3997" cy="-220.5842" rx="3.2" ry="3.2"/>
</g>
<!-- plp_model_designs&#45;&gt;plp_cohorts -->
<g id="edge6" class="edge">
<title>plp_model_designs:w&#45;&gt;plp_cohorts:e</title>
<path fill="none" stroke="#000000" d="M423.0846,-96.9466C405.902,-112.0798 416.9886,-158.2 386,-158.2"/>
<polygon fill="#000000" stroke="#000000" points="429.4284,-94.7827 438.1622,-95.6072 433.2142,-93.4914 437,-92.2 437,-92.2 437,-92.2 433.2142,-93.4914 435.8378,-88.7928 429.4284,-94.7827 429.4284,-94.7827"/>
<ellipse fill="none" stroke="#000000" cx="426.3997" cy="-95.8158" rx="3.2" ry="3.2"/>
</g>
</g>
</svg>
