<?xml version="1.0" encoding="UTF-8" standalone="no"?>
<!DOCTYPE svg PUBLIC "-//W3C//DTD SVG 1.1//EN"
 "http://www.w3.org/Graphics/SVG/1.1/DTD/svg11.dtd">
<!-- Generated by graphviz version 2.40.1 (20161225.0304)
 -->
<!-- Title: oneDegreeRelationshipsDiagram Pages: 1 -->
<svg width="316pt" height="140pt"
 viewBox="0.00 0.00 316.00 140.20" xmlns="http://www.w3.org/2000/svg" xmlns:xlink="http://www.w3.org/1999/xlink">
<g id="graph0" class="graph" transform="scale(1 1) rotate(0) translate(4 136.2)">
<title>oneDegreeRelationshipsDiagram</title>
<polygon fill="#ffffff" stroke="transparent" points="-4,4 -4,-136.2 312,-136.2 312,4 -4,4"/>
<text text-anchor="middle" x="72.4936" y="-7.3" font-family="Helvetica,sans-Serif" font-size="11.00" fill="#000000">Generated by SchemaSpy</text>
<!-- plp_hyperparameter_settings -->
<g id="node1" class="node">
<title>plp_hyperparameter_settings</title>
<g id="a_node1"><a xlink:href="../../tables/plp_hyperparameter_settings.html" xlink:title="plp_hyperparameter_settings" target="_top">
<polygon fill="#ffffff" stroke="transparent" points="8,-38.2 8,-128.2 300,-128.2 300,-38.2 8,-38.2"/>
<polygon fill="#f5f5f5" stroke="transparent" points="10,-103.2 10,-126.2 298,-126.2 298,-103.2 10,-103.2"/>
<polygon fill="none" stroke="#000000" points="10,-103.2 10,-126.2 298,-126.2 298,-103.2 10,-103.2"/>
<text text-anchor="start" x="15" y="-111.8" font-family="Helvetica,sans-Serif" font-weight="bold" font-size="11.00" fill="#000000">plp_hyperparameter_settings</text>
<text text-anchor="start" x="263.0437" y="-111.3" font-family="Helvetica,sans-Serif" font-size="11.00" fill="#000000">[table]</text>
<polygon fill="none" stroke="#000000" points="10,-81.2 10,-103.2 236,-103.2 236,-81.2 10,-81.2"/>
<text text-anchor="start" x="30" y="-88.3" font-family="Helvetica,sans-Serif" font-size="11.00" fill="#000000">hyperparameter_setting_id</text>
<polygon fill="none" stroke="#000000" points="236,-81.2 236,-103.2 298,-103.2 298,-81.2 236,-81.2"/>
<text text-anchor="start" x="238.878" y="-88.9" font-family="Helvetica,sans-Serif" font-size="11.00" fill="#000000">unknown[0]</text>
<polygon fill="none" stroke="#000000" points="10,-59.2 10,-81.2 236,-81.2 236,-59.2 10,-59.2"/>
<text text-anchor="start" x="30" y="-66.3" font-family="Helvetica,sans-Serif" font-size="11.00" fill="#000000">hyperparameter_settings_json</text>
<polygon fill="none" stroke="#000000" points="236,-59.2 236,-81.2 298,-81.2 298,-59.2 236,-59.2"/>
<text text-anchor="start" x="238.878" y="-66.9" font-family="Helvetica,sans-Serif" font-size="11.00" fill="#000000">unknown[0]</text>
<polygon fill="#ffffff" stroke="transparent" points="10,-40.2 10,-59.2 114,-59.2 114,-40.2 10,-40.2"/>
<polygon fill="none" stroke="#000000" points="10,-40.2 10,-59.2 114,-59.2 114,-40.2 10,-40.2"/>
<text text-anchor="start" x="13" y="-46.3" font-family="Helvetica,sans-Serif" font-size="11.00" fill="#000000">&lt; 0</text>
<polygon fill="#ffffff" stroke="transparent" points="114,-40.2 114,-59.2 236,-59.2 236,-40.2 114,-40.2"/>
<polygon fill="none" stroke="#000000" points="114,-40.2 114,-59.2 236,-59.2 236,-40.2 114,-40.2"/>
<text text-anchor="start" x="200.6105" y="-46.3" font-family="Helvetica,sans-Serif" font-size="11.00" fill="#000000">0 rows</text>
<polygon fill="#ffffff" stroke="transparent" points="236,-40.2 236,-59.2 298,-59.2 298,-40.2 236,-40.2"/>
<polygon fill="none" stroke="#000000" points="236,-40.2 236,-59.2 298,-59.2 298,-40.2 236,-40.2"/>
<text text-anchor="start" x="279.4053" y="-46.3" font-family="Helvetica,sans-Serif" font-size="11.00" fill="#000000">0 &gt;</text>
<polygon fill="none" stroke="#000000" stroke-width="2" points="9,-39.2 9,-127.2 299,-127.2 299,-39.2 9,-39.2"/>
</a>
</g>
</g>
</g>
</svg>
