<?xml version="1.0" encoding="UTF-8" standalone="no"?>
<!DOCTYPE svg PUBLIC "-//W3C//DTD SVG 1.1//EN"
 "http://www.w3.org/Graphics/SVG/1.1/DTD/svg11.dtd">
<!-- Generated by graphviz version 2.40.1 (20161225.0304)
 -->
<!-- Title: oneDegreeRelationshipsDiagram Pages: 1 -->
<svg width="346pt" height="426pt"
 viewBox="0.00 0.00 346.00 426.20" xmlns="http://www.w3.org/2000/svg" xmlns:xlink="http://www.w3.org/1999/xlink">
<g id="graph0" class="graph" transform="scale(1 1) rotate(0) translate(4 422.2)">
<title>oneDegreeRelationshipsDiagram</title>
<polygon fill="#ffffff" stroke="transparent" points="-4,4 -4,-422.2 342,-422.2 342,4 -4,4"/>
<text text-anchor="middle" x="72.4936" y="-7.3" font-family="Helvetica,sans-Serif" font-size="11.00" fill="#000000">Generated by SchemaSpy</text>
<!-- plp_covariate_summary -->
<g id="node1" class="node">
<title>plp_covariate_summary</title>
<g id="a_node1"><a xlink:href="../../tables/plp_covariate_summary.html" xlink:title="plp_covariate_summary" target="_top">
<polygon fill="#ffffff" stroke="transparent" points="8,-38.2 8,-414.2 330,-414.2 330,-38.2 8,-38.2"/>
<polygon fill="#f5f5f5" stroke="transparent" points="10,-389.2 10,-412.2 328,-412.2 328,-389.2 10,-389.2"/>
<polygon fill="none" stroke="#000000" points="10,-389.2 10,-412.2 328,-412.2 328,-389.2 10,-389.2"/>
<text text-anchor="start" x="15" y="-397.8" font-family="Helvetica,sans-Serif" font-weight="bold" font-size="11.00" fill="#000000">plp_covariate_summary</text>
<text text-anchor="start" x="293.0437" y="-397.3" font-family="Helvetica,sans-Serif" font-size="11.00" fill="#000000">[table]</text>
<polygon fill="none" stroke="#000000" points="10,-367.2 10,-389.2 266,-389.2 266,-367.2 10,-367.2"/>
<text text-anchor="start" x="30" y="-374.3" font-family="Helvetica,sans-Serif" font-size="11.00" fill="#000000">concept_id</text>
<polygon fill="none" stroke="#000000" points="266,-367.2 266,-389.2 328,-389.2 328,-367.2 266,-367.2"/>
<text text-anchor="start" x="268.878" y="-374.9" font-family="Helvetica,sans-Serif" font-size="11.00" fill="#000000">unknown[0]</text>
<polygon fill="none" stroke="#000000" points="10,-345.2 10,-367.2 266,-367.2 266,-345.2 10,-345.2"/>
<text text-anchor="start" x="30" y="-352.3" font-family="Helvetica,sans-Serif" font-size="11.00" fill="#000000">covariate_count</text>
<polygon fill="none" stroke="#000000" points="266,-345.2 266,-367.2 328,-367.2 328,-345.2 266,-345.2"/>
<text text-anchor="start" x="268.878" y="-352.9" font-family="Helvetica,sans-Serif" font-size="11.00" fill="#000000">unknown[0]</text>
<polygon fill="none" stroke="#000000" points="10,-323.2 10,-345.2 266,-345.2 266,-323.2 10,-323.2"/>
<text text-anchor="start" x="30" y="-330.3" font-family="Helvetica,sans-Serif" font-size="11.00" fill="#000000">covariate_id</text>
<polygon fill="none" stroke="#000000" points="266,-323.2 266,-345.2 328,-345.2 328,-323.2 266,-323.2"/>
<text text-anchor="start" x="268.878" y="-330.9" font-family="Helvetica,sans-Serif" font-size="11.00" fill="#000000">unknown[0]</text>
<polygon fill="none" stroke="#000000" points="10,-301.2 10,-323.2 266,-323.2 266,-301.2 10,-301.2"/>
<text text-anchor="start" x="30" y="-308.3" font-family="Helvetica,sans-Serif" font-size="11.00" fill="#000000">covariate_mean</text>
<polygon fill="none" stroke="#000000" points="266,-301.2 266,-323.2 328,-323.2 328,-301.2 266,-301.2"/>
<text text-anchor="start" x="268.878" y="-308.9" font-family="Helvetica,sans-Serif" font-size="11.00" fill="#000000">unknown[0]</text>
<polygon fill="none" stroke="#000000" points="10,-279.2 10,-301.2 266,-301.2 266,-279.2 10,-279.2"/>
<text text-anchor="start" x="30" y="-286.3" font-family="Helvetica,sans-Serif" font-size="11.00" fill="#000000">covariate_name</text>
<polygon fill="none" stroke="#000000" points="266,-279.2 266,-301.2 328,-301.2 328,-279.2 266,-279.2"/>
<text text-anchor="start" x="268.878" y="-286.9" font-family="Helvetica,sans-Serif" font-size="11.00" fill="#000000">unknown[0]</text>
<polygon fill="none" stroke="#000000" points="10,-257.2 10,-279.2 266,-279.2 266,-257.2 10,-257.2"/>
<text text-anchor="start" x="30" y="-264.3" font-family="Helvetica,sans-Serif" font-size="11.00" fill="#000000">covariate_st_dev</text>
<polygon fill="none" stroke="#000000" points="266,-257.2 266,-279.2 328,-279.2 328,-257.2 266,-257.2"/>
<text text-anchor="start" x="268.878" y="-264.9" font-family="Helvetica,sans-Serif" font-size="11.00" fill="#000000">unknown[0]</text>
<polygon fill="none" stroke="#000000" points="10,-235.2 10,-257.2 266,-257.2 266,-235.2 10,-235.2"/>
<text text-anchor="start" x="30" y="-242.3" font-family="Helvetica,sans-Serif" font-size="11.00" fill="#000000">covariate_value</text>
<polygon fill="none" stroke="#000000" points="266,-235.2 266,-257.2 328,-257.2 328,-235.2 266,-235.2"/>
<text text-anchor="start" x="268.878" y="-242.9" font-family="Helvetica,sans-Serif" font-size="11.00" fill="#000000">unknown[0]</text>
<polygon fill="none" stroke="#000000" points="10,-213.2 10,-235.2 266,-235.2 266,-213.2 10,-213.2"/>
<text text-anchor="start" x="30" y="-220.3" font-family="Helvetica,sans-Serif" font-size="11.00" fill="#000000">performance_id</text>
<polygon fill="none" stroke="#000000" points="266,-213.2 266,-235.2 328,-235.2 328,-213.2 266,-213.2"/>
<text text-anchor="start" x="268.878" y="-220.9" font-family="Helvetica,sans-Serif" font-size="11.00" fill="#000000">unknown[0]</text>
<polygon fill="none" stroke="#000000" points="10,-191.2 10,-213.2 266,-213.2 266,-191.2 10,-191.2"/>
<text text-anchor="start" x="30" y="-198.3" font-family="Helvetica,sans-Serif" font-size="11.00" fill="#000000">standardized_mean_diff</text>
<polygon fill="none" stroke="#000000" points="266,-191.2 266,-213.2 328,-213.2 328,-191.2 266,-191.2"/>
<text text-anchor="start" x="268.878" y="-198.9" font-family="Helvetica,sans-Serif" font-size="11.00" fill="#000000">unknown[0]</text>
<polygon fill="none" stroke="#000000" points="10,-169.2 10,-191.2 266,-191.2 266,-169.2 10,-169.2"/>
<text text-anchor="start" x="30" y="-176.3" font-family="Helvetica,sans-Serif" font-size="11.00" fill="#000000">with_no_outcome_covariate_count</text>
<polygon fill="none" stroke="#000000" points="266,-169.2 266,-191.2 328,-191.2 328,-169.2 266,-169.2"/>
<text text-anchor="start" x="268.878" y="-176.9" font-family="Helvetica,sans-Serif" font-size="11.00" fill="#000000">unknown[0]</text>
<polygon fill="none" stroke="#000000" points="10,-147.2 10,-169.2 266,-169.2 266,-147.2 10,-147.2"/>
<text text-anchor="start" x="30" y="-154.3" font-family="Helvetica,sans-Serif" font-size="11.00" fill="#000000">with_no_outcome_covariate_mean</text>
<polygon fill="none" stroke="#000000" points="266,-147.2 266,-169.2 328,-169.2 328,-147.2 266,-147.2"/>
<text text-anchor="start" x="268.878" y="-154.9" font-family="Helvetica,sans-Serif" font-size="11.00" fill="#000000">unknown[0]</text>
<polygon fill="none" stroke="#000000" points="10,-125.2 10,-147.2 266,-147.2 266,-125.2 10,-125.2"/>
<text text-anchor="start" x="30" y="-132.3" font-family="Helvetica,sans-Serif" font-size="11.00" fill="#000000">with_no_outcome_covariate_st_dev</text>
<polygon fill="none" stroke="#000000" points="266,-125.2 266,-147.2 328,-147.2 328,-125.2 266,-125.2"/>
<text text-anchor="start" x="268.878" y="-132.9" font-family="Helvetica,sans-Serif" font-size="11.00" fill="#000000">unknown[0]</text>
<polygon fill="none" stroke="#000000" points="10,-103.2 10,-125.2 266,-125.2 266,-103.2 10,-103.2"/>
<text text-anchor="start" x="30" y="-110.3" font-family="Helvetica,sans-Serif" font-size="11.00" fill="#000000">with_outcome_covariate_count</text>
<polygon fill="none" stroke="#000000" points="266,-103.2 266,-125.2 328,-125.2 328,-103.2 266,-103.2"/>
<text text-anchor="start" x="268.878" y="-110.9" font-family="Helvetica,sans-Serif" font-size="11.00" fill="#000000">unknown[0]</text>
<polygon fill="none" stroke="#000000" points="10,-81.2 10,-103.2 266,-103.2 266,-81.2 10,-81.2"/>
<text text-anchor="start" x="30" y="-88.3" font-family="Helvetica,sans-Serif" font-size="11.00" fill="#000000">with_outcome_covariate_mean</text>
<polygon fill="none" stroke="#000000" points="266,-81.2 266,-103.2 328,-103.2 328,-81.2 266,-81.2"/>
<text text-anchor="start" x="268.878" y="-88.9" font-family="Helvetica,sans-Serif" font-size="11.00" fill="#000000">unknown[0]</text>
<polygon fill="none" stroke="#000000" points="10,-59.2 10,-81.2 266,-81.2 266,-59.2 10,-59.2"/>
<text text-anchor="start" x="30" y="-66.3" font-family="Helvetica,sans-Serif" font-size="11.00" fill="#000000">with_outcome_covariate_st_dev</text>
<polygon fill="none" stroke="#000000" points="266,-59.2 266,-81.2 328,-81.2 328,-59.2 266,-59.2"/>
<text text-anchor="start" x="268.878" y="-66.9" font-family="Helvetica,sans-Serif" font-size="11.00" fill="#000000">unknown[0]</text>
<polygon fill="#ffffff" stroke="transparent" points="10,-40.2 10,-59.2 129,-59.2 129,-40.2 10,-40.2"/>
<polygon fill="none" stroke="#000000" points="10,-40.2 10,-59.2 129,-59.2 129,-40.2 10,-40.2"/>
<text text-anchor="start" x="13" y="-46.3" font-family="Helvetica,sans-Serif" font-size="11.00" fill="#000000">&lt; 0</text>
<polygon fill="#ffffff" stroke="transparent" points="129,-40.2 129,-59.2 266,-59.2 266,-40.2 129,-40.2"/>
<polygon fill="none" stroke="#000000" points="129,-40.2 129,-59.2 266,-59.2 266,-40.2 129,-40.2"/>
<text text-anchor="start" x="230.6105" y="-46.3" font-family="Helvetica,sans-Serif" font-size="11.00" fill="#000000">0 rows</text>
<polygon fill="#ffffff" stroke="transparent" points="266,-40.2 266,-59.2 328,-59.2 328,-40.2 266,-40.2"/>
<polygon fill="none" stroke="#000000" points="266,-40.2 266,-59.2 328,-59.2 328,-40.2 266,-40.2"/>
<text text-anchor="start" x="309.4053" y="-46.3" font-family="Helvetica,sans-Serif" font-size="11.00" fill="#000000">0 &gt;</text>
<polygon fill="none" stroke="#000000" stroke-width="2" points="9,-39.2 9,-413.2 329,-413.2 329,-39.2 9,-39.2"/>
</a>
</g>
</g>
</g>
</svg>
