<?xml version="1.0" encoding="UTF-8" standalone="no"?>
<!DOCTYPE svg PUBLIC "-//W3C//DTD SVG 1.1//EN"
 "http://www.w3.org/Graphics/SVG/1.1/DTD/svg11.dtd">
<!-- Generated by graphviz version 2.40.1 (20161225.0304)
 -->
<!-- Title: twoDegreesRelationshipsDiagram Pages: 1 -->
<svg width="1275pt" height="1515pt"
 viewBox="0.00 0.00 1275.00 1515.29" xmlns="http://www.w3.org/2000/svg" xmlns:xlink="http://www.w3.org/1999/xlink">
<g id="graph0" class="graph" transform="scale(1 1) rotate(0) translate(4 1511.2884)">
<title>twoDegreesRelationshipsDiagram</title>
<polygon fill="#ffffff" stroke="transparent" points="-4,4 -4,-1511.2884 1271,-1511.2884 1271,4 -4,4"/>
<text text-anchor="middle" x="72.4936" y="-7.3" font-family="Helvetica,sans-Serif" font-size="11.00" fill="#000000">Generated by SchemaSpy</text>
<!-- c_cohort_details -->
<g id="node1" class="node">
<title>c_cohort_details</title>
<g id="a_node1"><a xlink:href="../../tables/c_cohort_details.html" xlink:title="c_cohort_details" target="_top">
<polygon fill="#ffffff" stroke="transparent" points="243.5,-840.2884 243.5,-901.2884 390.5,-901.2884 390.5,-840.2884 243.5,-840.2884"/>
<polygon fill="#f5f5f5" stroke="transparent" points="244,-877.7884 244,-900.7884 391,-900.7884 391,-877.7884 244,-877.7884"/>
<polygon fill="none" stroke="#000000" points="244,-877.7884 244,-900.7884 391,-900.7884 391,-877.7884 244,-877.7884"/>
<text text-anchor="start" x="249" y="-886.3884" font-family="Helvetica,sans-Serif" font-weight="bold" font-size="11.00" fill="#000000">c_cohort_details</text>
<text text-anchor="start" x="356.5219" y="-885.8884" font-family="Helvetica,sans-Serif" font-size="11.00" fill="#000000">[table]</text>
<polygon fill="none" stroke="#000000" points="244,-858.7884 244,-877.7884 391,-877.7884 391,-858.7884 244,-858.7884"/>
<text text-anchor="start" x="247" y="-864.8884" font-family="Helvetica,sans-Serif" font-size="11.00" fill="#000000">...</text>
<polygon fill="#ffffff" stroke="transparent" points="244,-839.7884 244,-858.7884 298,-858.7884 298,-839.7884 244,-839.7884"/>
<polygon fill="none" stroke="#000000" points="244,-839.7884 244,-858.7884 298,-858.7884 298,-839.7884 244,-839.7884"/>
<text text-anchor="start" x="247" y="-845.8884" font-family="Helvetica,sans-Serif" font-size="11.00" fill="#000000">&lt; 2</text>
<polygon fill="#ffffff" stroke="transparent" points="298,-839.7884 298,-858.7884 353,-858.7884 353,-839.7884 298,-839.7884"/>
<polygon fill="none" stroke="#000000" points="298,-839.7884 298,-858.7884 353,-858.7884 353,-839.7884 298,-839.7884"/>
<text text-anchor="start" x="317.6105" y="-845.8884" font-family="Helvetica,sans-Serif" font-size="11.00" fill="#000000">0 rows</text>
<polygon fill="#ffffff" stroke="transparent" points="353,-839.7884 353,-858.7884 391,-858.7884 391,-839.7884 353,-839.7884"/>
<polygon fill="none" stroke="#000000" points="353,-839.7884 353,-858.7884 391,-858.7884 391,-839.7884 353,-839.7884"/>
<text text-anchor="start" x="372.4053" y="-845.8884" font-family="Helvetica,sans-Serif" font-size="11.00" fill="#000000">3 &gt;</text>
</a>
</g>
</g>
<!-- cg_cohort_definition -->
<g id="node2" class="node">
<title>cg_cohort_definition</title>
<g id="a_node2"><a xlink:href="../../tables/cg_cohort_definition.html" xlink:title="cg_cohort_definition" target="_top">
<polygon fill="#ffffff" stroke="transparent" points="8,-463.2884 8,-546.2884 183,-546.2884 183,-463.2884 8,-463.2884"/>
<polygon fill="#f5f5f5" stroke="transparent" points="8.5,-522.7884 8.5,-545.7884 183.5,-545.7884 183.5,-522.7884 8.5,-522.7884"/>
<polygon fill="none" stroke="#000000" points="8.5,-522.7884 8.5,-545.7884 183.5,-545.7884 183.5,-522.7884 8.5,-522.7884"/>
<text text-anchor="start" x="13.5" y="-531.3884" font-family="Helvetica,sans-Serif" font-weight="bold" font-size="11.00" fill="#000000">cg_cohort_definition</text>
<text text-anchor="start" x="149.0219" y="-530.8884" font-family="Helvetica,sans-Serif" font-size="11.00" fill="#000000">[table]</text>
<polygon fill="none" stroke="#000000" points="8.5,-500.7884 8.5,-522.7884 183.5,-522.7884 183.5,-500.7884 8.5,-500.7884"/>
<image xlink:href="../../images/primaryKeys.png" width="11px" height="12px" preserveAspectRatio="xMinYMin meet" x="13.5" y="-517.788"/>
<text text-anchor="start" x="37.5" y="-507.8884" font-family="Helvetica,sans-Serif" font-size="11.00" fill="#000000">cohort_definition_id</text>
<polygon fill="none" stroke="#000000" points="8.5,-481.7884 8.5,-500.7884 183.5,-500.7884 183.5,-481.7884 8.5,-481.7884"/>
<text text-anchor="start" x="11.5" y="-487.8884" font-family="Helvetica,sans-Serif" font-size="11.00" fill="#000000">...</text>
<polygon fill="#ffffff" stroke="transparent" points="8.5,-462.7884 8.5,-481.7884 69.5,-481.7884 69.5,-462.7884 8.5,-462.7884"/>
<polygon fill="none" stroke="#000000" points="8.5,-462.7884 8.5,-481.7884 69.5,-481.7884 69.5,-462.7884 8.5,-462.7884"/>
<text text-anchor="start" x="11.5" y="-468.8884" font-family="Helvetica,sans-Serif" font-size="11.00" fill="#000000"> &#160;</text>
<polygon fill="#ffffff" stroke="transparent" points="69.5,-462.7884 69.5,-481.7884 131.5,-481.7884 131.5,-462.7884 69.5,-462.7884"/>
<polygon fill="none" stroke="#000000" points="69.5,-462.7884 69.5,-481.7884 131.5,-481.7884 131.5,-462.7884 69.5,-462.7884"/>
<text text-anchor="start" x="96.1105" y="-468.8884" font-family="Helvetica,sans-Serif" font-size="11.00" fill="#000000">0 rows</text>
<polygon fill="#ffffff" stroke="transparent" points="131.5,-462.7884 131.5,-481.7884 183.5,-481.7884 183.5,-462.7884 131.5,-462.7884"/>
<polygon fill="none" stroke="#000000" points="131.5,-462.7884 131.5,-481.7884 183.5,-481.7884 183.5,-462.7884 131.5,-462.7884"/>
<text text-anchor="start" x="158.7904" y="-468.8884" font-family="Helvetica,sans-Serif" font-size="11.00" fill="#000000">17 &gt;</text>
</a>
</g>
</g>
<!-- c_cohort_details&#45;&gt;cg_cohort_definition -->
<g id="edge1" class="edge">
<title>c_cohort_details:w&#45;&gt;cg_cohort_definition:e</title>
<path fill="none" stroke="#000000" d="M230.2925,-862.1713C176.2398,-816.1035 258.4166,-506.1868 183.5,-511.7884"/>
<polygon fill="#000000" stroke="#000000" points="236.5974,-864.7549 242.6349,-871.1196 240.2987,-866.2717 244,-867.7884 244,-867.7884 244,-867.7884 240.2987,-866.2717 245.3651,-864.4572 236.5974,-864.7549 236.5974,-864.7549"/>
<ellipse fill="none" stroke="#000000" cx="233.6364" cy="-863.5415" rx="3.2" ry="3.2"/>
</g>
<!-- c_cohort_details&#45;&gt;cg_cohort_definition -->
<g id="edge2" class="edge">
<title>c_cohort_details:w&#45;&gt;cg_cohort_definition:e</title>
<path fill="none" stroke="#000000" d="M229.955,-864.3625C176.583,-827.7474 258.2599,-518.3099 183.5,-511.7884"/>
<polygon fill="#000000" stroke="#000000" points="236.2279,-865.8925 243.1469,-871.2859 240.1139,-866.8405 244,-867.7884 244,-867.7884 244,-867.7884 240.1139,-866.8405 244.8531,-864.2909 236.2279,-865.8925 236.2279,-865.8925"/>
<ellipse fill="none" stroke="#000000" cx="233.119" cy="-865.1342" rx="3.2" ry="3.2"/>
</g>
<!-- c_covariates_continuous -->
<g id="node3" class="node">
<title>c_covariates_continuous</title>
<g id="a_node3"><a xlink:href="../../tables/c_covariates_continuous.html" xlink:title="c_covariates_continuous" target="_top">
<polygon fill="#ffffff" stroke="transparent" points="1056,-1278.2884 1056,-1339.2884 1259,-1339.2884 1259,-1278.2884 1056,-1278.2884"/>
<polygon fill="#f5f5f5" stroke="transparent" points="1056.5,-1315.7884 1056.5,-1338.7884 1259.5,-1338.7884 1259.5,-1315.7884 1056.5,-1315.7884"/>
<polygon fill="none" stroke="#000000" points="1056.5,-1315.7884 1056.5,-1338.7884 1259.5,-1338.7884 1259.5,-1315.7884 1056.5,-1315.7884"/>
<text text-anchor="start" x="1061.5" y="-1324.3884" font-family="Helvetica,sans-Serif" font-weight="bold" font-size="11.00" fill="#000000">c_covariates_continuous</text>
<text text-anchor="start" x="1225.0219" y="-1323.8884" font-family="Helvetica,sans-Serif" font-size="11.00" fill="#000000">[table]</text>
<polygon fill="none" stroke="#000000" points="1056.5,-1296.7884 1056.5,-1315.7884 1259.5,-1315.7884 1259.5,-1296.7884 1056.5,-1296.7884"/>
<text text-anchor="start" x="1059.5" y="-1302.8884" font-family="Helvetica,sans-Serif" font-size="11.00" fill="#000000">...</text>
<polygon fill="#ffffff" stroke="transparent" points="1056.5,-1277.7884 1056.5,-1296.7884 1143.5,-1296.7884 1143.5,-1277.7884 1056.5,-1277.7884"/>
<polygon fill="none" stroke="#000000" points="1056.5,-1277.7884 1056.5,-1296.7884 1143.5,-1296.7884 1143.5,-1277.7884 1056.5,-1277.7884"/>
<text text-anchor="start" x="1059.5" y="-1283.8884" font-family="Helvetica,sans-Serif" font-size="11.00" fill="#000000">&lt; 6</text>
<polygon fill="#ffffff" stroke="transparent" points="1143.5,-1277.7884 1143.5,-1296.7884 1214.5,-1296.7884 1214.5,-1277.7884 1143.5,-1277.7884"/>
<polygon fill="none" stroke="#000000" points="1143.5,-1277.7884 1143.5,-1296.7884 1214.5,-1296.7884 1214.5,-1277.7884 1143.5,-1277.7884"/>
<text text-anchor="start" x="1179.1105" y="-1283.8884" font-family="Helvetica,sans-Serif" font-size="11.00" fill="#000000">0 rows</text>
<polygon fill="#ffffff" stroke="transparent" points="1214.5,-1277.7884 1214.5,-1296.7884 1259.5,-1296.7884 1259.5,-1277.7884 1214.5,-1277.7884"/>
<polygon fill="none" stroke="#000000" points="1214.5,-1277.7884 1214.5,-1296.7884 1259.5,-1296.7884 1259.5,-1277.7884 1214.5,-1277.7884"/>
<text text-anchor="start" x="1250.3862" y="-1283.8884" font-family="Helvetica,sans-Serif" font-size="11.00" fill="#000000"> &#160;</text>
</a>
</g>
</g>
<!-- c_settings -->
<g id="node4" class="node">
<title>c_settings</title>
<g id="a_node4"><a xlink:href="../../tables/c_settings.html" xlink:title="c_settings" target="_top">
<polygon fill="#ffffff" stroke="transparent" points="822.5,-1278.2884 822.5,-1339.2884 929.5,-1339.2884 929.5,-1278.2884 822.5,-1278.2884"/>
<polygon fill="#f5f5f5" stroke="transparent" points="823,-1315.7884 823,-1338.7884 930,-1338.7884 930,-1315.7884 823,-1315.7884"/>
<polygon fill="none" stroke="#000000" points="823,-1315.7884 823,-1338.7884 930,-1338.7884 930,-1315.7884 823,-1315.7884"/>
<text text-anchor="start" x="828" y="-1324.3884" font-family="Helvetica,sans-Serif" font-weight="bold" font-size="11.00" fill="#000000">c_settings</text>
<text text-anchor="start" x="895.5219" y="-1323.8884" font-family="Helvetica,sans-Serif" font-size="11.00" fill="#000000">[table]</text>
<polygon fill="none" stroke="#000000" points="823,-1296.7884 823,-1315.7884 930,-1315.7884 930,-1296.7884 823,-1296.7884"/>
<text text-anchor="start" x="826" y="-1302.8884" font-family="Helvetica,sans-Serif" font-size="11.00" fill="#000000">...</text>
<polygon fill="#ffffff" stroke="transparent" points="823,-1277.7884 823,-1296.7884 857,-1296.7884 857,-1277.7884 823,-1277.7884"/>
<polygon fill="none" stroke="#000000" points="823,-1277.7884 823,-1296.7884 857,-1296.7884 857,-1277.7884 823,-1277.7884"/>
<text text-anchor="start" x="826" y="-1283.8884" font-family="Helvetica,sans-Serif" font-size="11.00" fill="#000000">&lt; 3</text>
<polygon fill="#ffffff" stroke="transparent" points="857,-1277.7884 857,-1296.7884 902,-1296.7884 902,-1277.7884 857,-1277.7884"/>
<polygon fill="none" stroke="#000000" points="857,-1277.7884 857,-1296.7884 902,-1296.7884 902,-1277.7884 857,-1277.7884"/>
<text text-anchor="start" x="866.6105" y="-1283.8884" font-family="Helvetica,sans-Serif" font-size="11.00" fill="#000000">0 rows</text>
<polygon fill="#ffffff" stroke="transparent" points="902,-1277.7884 902,-1296.7884 930,-1296.7884 930,-1277.7884 902,-1277.7884"/>
<polygon fill="none" stroke="#000000" points="902,-1277.7884 902,-1296.7884 930,-1296.7884 930,-1277.7884 902,-1277.7884"/>
<text text-anchor="start" x="911.4053" y="-1283.8884" font-family="Helvetica,sans-Serif" font-size="11.00" fill="#000000">6 &gt;</text>
</a>
</g>
</g>
<!-- c_covariates_continuous&#45;&gt;c_settings -->
<g id="edge3" class="edge">
<title>c_covariates_continuous:w&#45;&gt;c_settings:e</title>
<path fill="none" stroke="#000000" d="M1042.0177,-1304.2877C997.3419,-1299.839 981.0612,-1300.3392 930,-1305.7884"/>
<polygon fill="#000000" stroke="#000000" points="1048.5426,-1304.9638 1056.1289,-1309.3692 1052.5213,-1305.3761 1056.5,-1305.7884 1056.5,-1305.7884 1056.5,-1305.7884 1052.5213,-1305.3761 1056.8711,-1302.2076 1048.5426,-1304.9638 1048.5426,-1304.9638"/>
<ellipse fill="none" stroke="#000000" cx="1045.3596" cy="-1304.634" rx="3.2" ry="3.2"/>
</g>
<!-- c_covariates_continuous&#45;&gt;c_settings -->
<g id="edge5" class="edge">
<title>c_covariates_continuous:w&#45;&gt;c_settings:e</title>
<path fill="none" stroke="#000000" d="M1042.0177,-1307.5392C997.3419,-1312.7294 981.0612,-1312.1458 930,-1305.7884"/>
<polygon fill="#000000" stroke="#000000" points="1048.5578,-1306.7486 1056.9321,-1309.3624 1052.5289,-1306.2685 1056.5,-1305.7884 1056.5,-1305.7884 1056.5,-1305.7884 1052.5289,-1306.2685 1056.0679,-1302.2144 1048.5578,-1306.7486 1048.5578,-1306.7486"/>
<ellipse fill="none" stroke="#000000" cx="1045.381" cy="-1307.1327" rx="3.2" ry="3.2"/>
</g>
<!-- database_meta_data -->
<g id="node5" class="node">
<title>database_meta_data</title>
<g id="a_node5"><a xlink:href="../../tables/database_meta_data.html" xlink:title="database_meta_data" target="_top">
<polygon fill="#ffffff" stroke="transparent" points="451,-819.2884 451,-902.2884 696,-902.2884 696,-819.2884 451,-819.2884"/>
<polygon fill="#f5f5f5" stroke="transparent" points="451.5,-878.7884 451.5,-901.7884 696.5,-901.7884 696.5,-878.7884 451.5,-878.7884"/>
<polygon fill="none" stroke="#000000" points="451.5,-878.7884 451.5,-901.7884 696.5,-901.7884 696.5,-878.7884 451.5,-878.7884"/>
<text text-anchor="start" x="456.5" y="-887.3884" font-family="Helvetica,sans-Serif" font-weight="bold" font-size="11.00" fill="#000000">database_meta_data</text>
<text text-anchor="start" x="661.5437" y="-886.8884" font-family="Helvetica,sans-Serif" font-size="11.00" fill="#000000">[table]</text>
<polygon fill="none" stroke="#000000" points="451.5,-856.7884 451.5,-878.7884 696.5,-878.7884 696.5,-856.7884 451.5,-856.7884"/>
<image xlink:href="../../images/primaryKeys.png" width="11px" height="12px" preserveAspectRatio="xMinYMin meet" x="456.5" y="-873.788"/>
<text text-anchor="start" x="471.5" y="-863.8884" font-family="Helvetica,sans-Serif" font-size="11.00" fill="#000000">database_id</text>
<polygon fill="none" stroke="#000000" points="451.5,-837.7884 451.5,-856.7884 696.5,-856.7884 696.5,-837.7884 451.5,-837.7884"/>
<text text-anchor="start" x="454.5" y="-843.8884" font-family="Helvetica,sans-Serif" font-size="11.00" fill="#000000">...</text>
<polygon fill="#ffffff" stroke="transparent" points="451.5,-818.7884 451.5,-837.7884 551.5,-837.7884 551.5,-818.7884 451.5,-818.7884"/>
<polygon fill="none" stroke="#000000" points="451.5,-818.7884 451.5,-837.7884 551.5,-837.7884 551.5,-818.7884 451.5,-818.7884"/>
<text text-anchor="start" x="454.5" y="-824.8884" font-family="Helvetica,sans-Serif" font-size="11.00" fill="#000000">&lt; 1</text>
<polygon fill="#ffffff" stroke="transparent" points="551.5,-818.7884 551.5,-837.7884 629.5,-837.7884 629.5,-818.7884 551.5,-818.7884"/>
<polygon fill="none" stroke="#000000" points="551.5,-818.7884 551.5,-837.7884 629.5,-837.7884 629.5,-818.7884 551.5,-818.7884"/>
<text text-anchor="start" x="594.1105" y="-824.8884" font-family="Helvetica,sans-Serif" font-size="11.00" fill="#000000">0 rows</text>
<polygon fill="#ffffff" stroke="transparent" points="629.5,-818.7884 629.5,-837.7884 696.5,-837.7884 696.5,-818.7884 629.5,-818.7884"/>
<polygon fill="none" stroke="#000000" points="629.5,-818.7884 629.5,-837.7884 696.5,-837.7884 696.5,-818.7884 629.5,-818.7884"/>
<text text-anchor="start" x="671.7904" y="-824.8884" font-family="Helvetica,sans-Serif" font-size="11.00" fill="#000000">17 &gt;</text>
</a>
</g>
</g>
<!-- c_covariates_continuous&#45;&gt;database_meta_data -->
<g id="edge4" class="edge">
<title>c_covariates_continuous:w&#45;&gt;database_meta_data:e</title>
<path fill="none" stroke="#000000" d="M1042.675,-1301.2878C1032.8361,-1292.9951 1032.1195,-1275.4518 1015,-1267.7884 958.3286,-1242.4199 780.8955,-1283.7019 737,-1239.7884 678.2125,-1180.9767 779.6551,-867.7884 696.5,-867.7884"/>
<polygon fill="#000000" stroke="#000000" points="1048.8929,-1303.3119 1055.3856,-1309.2116 1052.6965,-1304.5502 1056.5,-1305.7884 1056.5,-1305.7884 1056.5,-1305.7884 1052.6965,-1304.5502 1057.6144,-1302.3652 1048.8929,-1303.3119 1048.8929,-1303.3119"/>
<ellipse fill="none" stroke="#000000" cx="1045.8501" cy="-1302.3214" rx="3.2" ry="3.2"/>
</g>
<!-- c_settings&#45;&gt;c_cohort_details -->
<g id="edge9" class="edge">
<title>c_settings:w&#45;&gt;c_cohort_details:e</title>
<path fill="none" stroke="#000000" d="M808.1912,-1305.3385C776.1392,-1303.1703 760.4508,-1292.6912 737,-1263.7884 699.1703,-1217.1638 735.8219,-1183.7031 704,-1132.7884 623.5924,-1004.1373 558.3623,-1011.3177 443,-912.7884 419.7594,-892.939 421.5634,-867.7884 391,-867.7884"/>
<polygon fill="#000000" stroke="#000000" points="815.0037,-1305.5454 822.8907,-1309.3867 819.0018,-1305.6669 823,-1305.7884 823,-1305.7884 823,-1305.7884 819.0018,-1305.6669 823.1093,-1302.1901 815.0037,-1305.5454 815.0037,-1305.5454"/>
<ellipse fill="none" stroke="#000000" cx="811.8052" cy="-1305.4482" rx="3.2" ry="3.2"/>
</g>
<!-- c_settings&#45;&gt;c_cohort_details -->
<g id="edge11" class="edge">
<title>c_settings:w&#45;&gt;c_cohort_details:e</title>
<path fill="none" stroke="#000000" d="M808.1963,-1305.3344C776.166,-1303.1485 760.5582,-1292.6037 737,-1263.7884 700.0871,-1218.6384 734.8564,-1186.2754 704,-1136.7884 700.9672,-1131.9244 396.7321,-867.7884 391,-867.7884"/>
<polygon fill="#000000" stroke="#000000" points="815.0038,-1305.5431 822.8896,-1309.3867 819.0019,-1305.6658 823,-1305.7884 823,-1305.7884 823,-1305.7884 819.0019,-1305.6658 823.1104,-1302.1901 815.0038,-1305.5431 815.0038,-1305.5431"/>
<ellipse fill="none" stroke="#000000" cx="811.8053" cy="-1305.445" rx="3.2" ry="3.2"/>
</g>
<!-- c_settings&#45;&gt;database_meta_data -->
<g id="edge10" class="edge">
<title>c_settings:w&#45;&gt;database_meta_data:e</title>
<path fill="none" stroke="#000000" d="M808.5263,-1305.4387C775.7553,-1303.6579 758.3928,-1294.4487 737,-1263.7884 686.3823,-1191.2429 784.959,-867.7884 696.5,-867.7884"/>
<polygon fill="#000000" stroke="#000000" points="815.0023,-1305.5951 822.913,-1309.3873 819.0012,-1305.6918 823,-1305.7884 823,-1305.7884 823,-1305.7884 819.0012,-1305.6918 823.087,-1302.1894 815.0023,-1305.5951 815.0023,-1305.5951"/>
<ellipse fill="none" stroke="#000000" cx="811.8033" cy="-1305.5178" rx="3.2" ry="3.2"/>
</g>
<!-- database_meta_data&#45;&gt;c_cohort_details -->
<g id="edge28" class="edge">
<title>database_meta_data:w&#45;&gt;c_cohort_details:e</title>
<path fill="none" stroke="#000000" d="M440.9832,-867.7884C422.2467,-867.7884 414.0026,-867.7884 391,-867.7884"/>
<polygon fill="#000000" stroke="#000000" points="450.7,-863.7884 450.7,-871.7884 449.1,-871.7884 449.1,-863.7884 450.7,-863.7884"/>
<polyline fill="none" stroke="#000000" points="451.5,-867.7884 447.5,-867.7884 "/>
<ellipse fill="none" stroke="#000000" cx="444.3" cy="-867.7885" rx="3.2" ry="3.2"/>
</g>
<!-- c_dechallenge_rechallenge -->
<g id="node6" class="node">
<title>c_dechallenge_rechallenge</title>
<g id="a_node6"><a xlink:href="../../tables/c_dechallenge_rechallenge.html" xlink:title="c_dechallenge_rechallenge" target="_top">
<polygon fill="#ffffff" stroke="transparent" points="766.5,-1442.2884 766.5,-1503.2884 985.5,-1503.2884 985.5,-1442.2884 766.5,-1442.2884"/>
<polygon fill="#f5f5f5" stroke="transparent" points="767,-1479.7884 767,-1502.7884 986,-1502.7884 986,-1479.7884 767,-1479.7884"/>
<polygon fill="none" stroke="#000000" points="767,-1479.7884 767,-1502.7884 986,-1502.7884 986,-1479.7884 767,-1479.7884"/>
<text text-anchor="start" x="772" y="-1488.3884" font-family="Helvetica,sans-Serif" font-weight="bold" font-size="11.00" fill="#000000">c_dechallenge_rechallenge</text>
<text text-anchor="start" x="951.5219" y="-1487.8884" font-family="Helvetica,sans-Serif" font-size="11.00" fill="#000000">[table]</text>
<polygon fill="none" stroke="#000000" points="767,-1460.7884 767,-1479.7884 986,-1479.7884 986,-1460.7884 767,-1460.7884"/>
<text text-anchor="start" x="770" y="-1466.8884" font-family="Helvetica,sans-Serif" font-size="11.00" fill="#000000">...</text>
<polygon fill="#ffffff" stroke="transparent" points="767,-1441.7884 767,-1460.7884 862,-1460.7884 862,-1441.7884 767,-1441.7884"/>
<polygon fill="none" stroke="#000000" points="767,-1441.7884 767,-1460.7884 862,-1460.7884 862,-1441.7884 767,-1441.7884"/>
<text text-anchor="start" x="770" y="-1447.8884" font-family="Helvetica,sans-Serif" font-size="11.00" fill="#000000">&lt; 3</text>
<polygon fill="#ffffff" stroke="transparent" points="862,-1441.7884 862,-1460.7884 937,-1460.7884 937,-1441.7884 862,-1441.7884"/>
<polygon fill="none" stroke="#000000" points="862,-1441.7884 862,-1460.7884 937,-1460.7884 937,-1441.7884 862,-1441.7884"/>
<text text-anchor="start" x="901.6105" y="-1447.8884" font-family="Helvetica,sans-Serif" font-size="11.00" fill="#000000">0 rows</text>
<polygon fill="#ffffff" stroke="transparent" points="937,-1441.7884 937,-1460.7884 986,-1460.7884 986,-1441.7884 937,-1441.7884"/>
<polygon fill="none" stroke="#000000" points="937,-1441.7884 937,-1460.7884 986,-1460.7884 986,-1441.7884 937,-1441.7884"/>
<text text-anchor="start" x="976.8862" y="-1447.8884" font-family="Helvetica,sans-Serif" font-size="11.00" fill="#000000"> &#160;</text>
</a>
</g>
</g>
<!-- c_dechallenge_rechallenge&#45;&gt;cg_cohort_definition -->
<g id="edge7" class="edge">
<title>c_dechallenge_rechallenge:w&#45;&gt;cg_cohort_definition:e</title>
<path fill="none" stroke="#000000" d="M752.2576,-1469.6728C455.2724,-1464.9694 344.9147,-1316.7815 224,-1038.7884 200.5757,-984.9339 242.2282,-511.7884 183.5,-511.7884"/>
<polygon fill="#000000" stroke="#000000" points="759.0002,-1469.7256 766.9718,-1473.3883 763.0001,-1469.757 767,-1469.7884 767,-1469.7884 767,-1469.7884 763.0001,-1469.757 767.0282,-1466.1885 759.0002,-1469.7256 759.0002,-1469.7256"/>
<ellipse fill="none" stroke="#000000" cx="755.8003" cy="-1469.7005" rx="3.2" ry="3.2"/>
</g>
<!-- c_dechallenge_rechallenge&#45;&gt;cg_cohort_definition -->
<g id="edge8" class="edge">
<title>c_dechallenge_rechallenge:w&#45;&gt;cg_cohort_definition:e</title>
<path fill="none" stroke="#000000" d="M752.2053,-1469.6709C454.1788,-1464.8888 344.2726,-1314.2475 224,-1034.7884 200.9588,-981.251 241.7851,-511.7884 183.5,-511.7884"/>
<polygon fill="#000000" stroke="#000000" points="759.0003,-1469.7248 766.9714,-1473.3883 763.0001,-1469.7566 767,-1469.7884 767,-1469.7884 767,-1469.7884 763.0001,-1469.7566 767.0286,-1466.1885 759.0003,-1469.7248 759.0003,-1469.7248"/>
<ellipse fill="none" stroke="#000000" cx="755.8004" cy="-1469.6994" rx="3.2" ry="3.2"/>
</g>
<!-- c_dechallenge_rechallenge&#45;&gt;database_meta_data -->
<g id="edge6" class="edge">
<title>c_dechallenge_rechallenge:w&#45;&gt;database_meta_data:e</title>
<path fill="none" stroke="#000000" d="M752.8844,-1465.6738C744.4852,-1459.2404 742.5317,-1446.051 737,-1431.7884 714.2812,-1373.2118 759.328,-867.7884 696.5,-867.7884"/>
<polygon fill="#000000" stroke="#000000" points="759.3196,-1467.5496 765.9925,-1473.2446 763.1598,-1468.669 767,-1469.7884 767,-1469.7884 767,-1469.7884 763.1598,-1468.669 768.0075,-1466.3322 759.3196,-1467.5496 759.3196,-1467.5496"/>
<ellipse fill="none" stroke="#000000" cx="756.2475" cy="-1466.654" rx="3.2" ry="3.2"/>
</g>
<!-- c_time_to_event -->
<g id="node7" class="node">
<title>c_time_to_event</title>
<g id="a_node7"><a xlink:href="../../tables/c_time_to_event.html" xlink:title="c_time_to_event" target="_top">
<polygon fill="#ffffff" stroke="transparent" points="803,-1168.2884 803,-1229.2884 949,-1229.2884 949,-1168.2884 803,-1168.2884"/>
<polygon fill="#f5f5f5" stroke="transparent" points="803,-1205.7884 803,-1228.7884 949,-1228.7884 949,-1205.7884 803,-1205.7884"/>
<polygon fill="none" stroke="#000000" points="803,-1205.7884 803,-1228.7884 949,-1228.7884 949,-1205.7884 803,-1205.7884"/>
<text text-anchor="start" x="808" y="-1214.3884" font-family="Helvetica,sans-Serif" font-weight="bold" font-size="11.00" fill="#000000">c_time_to_event</text>
<text text-anchor="start" x="914.5219" y="-1213.8884" font-family="Helvetica,sans-Serif" font-size="11.00" fill="#000000">[table]</text>
<polygon fill="none" stroke="#000000" points="803,-1186.7884 803,-1205.7884 949,-1205.7884 949,-1186.7884 803,-1186.7884"/>
<text text-anchor="start" x="806" y="-1192.8884" font-family="Helvetica,sans-Serif" font-size="11.00" fill="#000000">...</text>
<polygon fill="#ffffff" stroke="transparent" points="803,-1167.7884 803,-1186.7884 861,-1186.7884 861,-1167.7884 803,-1167.7884"/>
<polygon fill="none" stroke="#000000" points="803,-1167.7884 803,-1186.7884 861,-1186.7884 861,-1167.7884 803,-1167.7884"/>
<text text-anchor="start" x="806" y="-1173.8884" font-family="Helvetica,sans-Serif" font-size="11.00" fill="#000000">&lt; 1</text>
<polygon fill="#ffffff" stroke="transparent" points="861,-1167.7884 861,-1186.7884 918,-1186.7884 918,-1167.7884 861,-1167.7884"/>
<polygon fill="none" stroke="#000000" points="861,-1167.7884 861,-1186.7884 918,-1186.7884 918,-1167.7884 861,-1167.7884"/>
<text text-anchor="start" x="882.6105" y="-1173.8884" font-family="Helvetica,sans-Serif" font-size="11.00" fill="#000000">0 rows</text>
<polygon fill="#ffffff" stroke="transparent" points="918,-1167.7884 918,-1186.7884 949,-1186.7884 949,-1167.7884 918,-1167.7884"/>
<polygon fill="none" stroke="#000000" points="918,-1167.7884 918,-1186.7884 949,-1186.7884 949,-1167.7884 918,-1167.7884"/>
<text text-anchor="start" x="939.8862" y="-1173.8884" font-family="Helvetica,sans-Serif" font-size="11.00" fill="#000000"> &#160;</text>
</a>
</g>
</g>
<!-- c_time_to_event&#45;&gt;database_meta_data -->
<g id="edge12" class="edge">
<title>c_time_to_event:w&#45;&gt;database_meta_data:e</title>
<path fill="none" stroke="#000000" d="M788.5442,-1195.029C764.8814,-1192.2393 752.9739,-1181.4624 737,-1157.7884 700.6046,-1103.849 761.5699,-867.7884 696.5,-867.7884"/>
<polygon fill="#000000" stroke="#000000" points="795.011,-1195.3687 802.8111,-1199.3834 799.0055,-1195.5785 803,-1195.7884 803,-1195.7884 803,-1195.7884 799.0055,-1195.5785 803.1889,-1192.1934 795.011,-1195.3687 795.011,-1195.3687"/>
<ellipse fill="none" stroke="#000000" cx="791.8154" cy="-1195.2008" rx="3.2" ry="3.2"/>
</g>
<!-- cd_cohort_count -->
<g id="node8" class="node">
<title>cd_cohort_count</title>
<g id="a_node8"><a xlink:href="../../tables/cd_cohort_count.html" xlink:title="cd_cohort_count" target="_top">
<polygon fill="#ffffff" stroke="transparent" points="802,-1086.2884 802,-1147.2884 950,-1147.2884 950,-1086.2884 802,-1086.2884"/>
<polygon fill="#f5f5f5" stroke="transparent" points="802,-1123.7884 802,-1146.7884 950,-1146.7884 950,-1123.7884 802,-1123.7884"/>
<polygon fill="none" stroke="#000000" points="802,-1123.7884 802,-1146.7884 950,-1146.7884 950,-1123.7884 802,-1123.7884"/>
<text text-anchor="start" x="807" y="-1132.3884" font-family="Helvetica,sans-Serif" font-weight="bold" font-size="11.00" fill="#000000">cd_cohort_count</text>
<text text-anchor="start" x="915.5219" y="-1131.8884" font-family="Helvetica,sans-Serif" font-size="11.00" fill="#000000">[table]</text>
<polygon fill="none" stroke="#000000" points="802,-1104.7884 802,-1123.7884 950,-1123.7884 950,-1104.7884 802,-1104.7884"/>
<text text-anchor="start" x="805" y="-1110.8884" font-family="Helvetica,sans-Serif" font-size="11.00" fill="#000000">...</text>
<polygon fill="#ffffff" stroke="transparent" points="802,-1085.7884 802,-1104.7884 857,-1104.7884 857,-1085.7884 802,-1085.7884"/>
<polygon fill="none" stroke="#000000" points="802,-1085.7884 802,-1104.7884 857,-1104.7884 857,-1085.7884 802,-1085.7884"/>
<text text-anchor="start" x="805" y="-1091.8884" font-family="Helvetica,sans-Serif" font-size="11.00" fill="#000000">&lt; 1</text>
<polygon fill="#ffffff" stroke="transparent" points="857,-1085.7884 857,-1104.7884 912,-1104.7884 912,-1085.7884 857,-1085.7884"/>
<polygon fill="none" stroke="#000000" points="857,-1085.7884 857,-1104.7884 912,-1104.7884 912,-1085.7884 857,-1085.7884"/>
<text text-anchor="start" x="876.6105" y="-1091.8884" font-family="Helvetica,sans-Serif" font-size="11.00" fill="#000000">0 rows</text>
<polygon fill="#ffffff" stroke="transparent" points="912,-1085.7884 912,-1104.7884 950,-1104.7884 950,-1085.7884 912,-1085.7884"/>
<polygon fill="none" stroke="#000000" points="912,-1085.7884 912,-1104.7884 950,-1104.7884 950,-1085.7884 912,-1085.7884"/>
<text text-anchor="start" x="931.4053" y="-1091.8884" font-family="Helvetica,sans-Serif" font-size="11.00" fill="#000000">2 &gt;</text>
</a>
</g>
</g>
<!-- cd_cohort_count&#45;&gt;database_meta_data -->
<g id="edge13" class="edge">
<title>cd_cohort_count:w&#45;&gt;database_meta_data:e</title>
<path fill="none" stroke="#000000" d="M787.4431,-1112.9403C764.4527,-1109.9333 753.2616,-1098.71 737,-1075.7884 682.5053,-998.975 790.6805,-867.7884 696.5,-867.7884"/>
<polygon fill="#000000" stroke="#000000" points="794.0135,-1113.3231 801.7906,-1117.3823 798.0068,-1113.5557 802,-1113.7884 802,-1113.7884 802,-1113.7884 798.0068,-1113.5557 802.2094,-1110.1945 794.0135,-1113.3231 794.0135,-1113.3231"/>
<ellipse fill="none" stroke="#000000" cx="790.819" cy="-1113.1369" rx="3.2" ry="3.2"/>
</g>
<!-- cg_cohort_count -->
<g id="node9" class="node">
<title>cg_cohort_count</title>
<g id="a_node9"><a xlink:href="../../tables/cg_cohort_count.html" xlink:title="cg_cohort_count" target="_top">
<polygon fill="#ffffff" stroke="transparent" points="802,-1360.2884 802,-1421.2884 950,-1421.2884 950,-1360.2884 802,-1360.2884"/>
<polygon fill="#f5f5f5" stroke="transparent" points="802,-1397.7884 802,-1420.7884 950,-1420.7884 950,-1397.7884 802,-1397.7884"/>
<polygon fill="none" stroke="#000000" points="802,-1397.7884 802,-1420.7884 950,-1420.7884 950,-1397.7884 802,-1397.7884"/>
<text text-anchor="start" x="807" y="-1406.3884" font-family="Helvetica,sans-Serif" font-weight="bold" font-size="11.00" fill="#000000">cg_cohort_count</text>
<text text-anchor="start" x="915.5219" y="-1405.8884" font-family="Helvetica,sans-Serif" font-size="11.00" fill="#000000">[table]</text>
<polygon fill="none" stroke="#000000" points="802,-1378.7884 802,-1397.7884 950,-1397.7884 950,-1378.7884 802,-1378.7884"/>
<text text-anchor="start" x="805" y="-1384.8884" font-family="Helvetica,sans-Serif" font-size="11.00" fill="#000000">...</text>
<polygon fill="#ffffff" stroke="transparent" points="802,-1359.7884 802,-1378.7884 861,-1378.7884 861,-1359.7884 802,-1359.7884"/>
<polygon fill="none" stroke="#000000" points="802,-1359.7884 802,-1378.7884 861,-1378.7884 861,-1359.7884 802,-1359.7884"/>
<text text-anchor="start" x="805" y="-1365.8884" font-family="Helvetica,sans-Serif" font-size="11.00" fill="#000000">&lt; 2</text>
<polygon fill="#ffffff" stroke="transparent" points="861,-1359.7884 861,-1378.7884 918,-1378.7884 918,-1359.7884 861,-1359.7884"/>
<polygon fill="none" stroke="#000000" points="861,-1359.7884 861,-1378.7884 918,-1378.7884 918,-1359.7884 861,-1359.7884"/>
<text text-anchor="start" x="882.6105" y="-1365.8884" font-family="Helvetica,sans-Serif" font-size="11.00" fill="#000000">0 rows</text>
<polygon fill="#ffffff" stroke="transparent" points="918,-1359.7884 918,-1378.7884 950,-1378.7884 950,-1359.7884 918,-1359.7884"/>
<polygon fill="none" stroke="#000000" points="918,-1359.7884 918,-1378.7884 950,-1378.7884 950,-1359.7884 918,-1359.7884"/>
<text text-anchor="start" x="940.8862" y="-1365.8884" font-family="Helvetica,sans-Serif" font-size="11.00" fill="#000000"> &#160;</text>
</a>
</g>
</g>
<!-- cg_cohort_count&#45;&gt;cg_cohort_definition -->
<g id="edge14" class="edge">
<title>cg_cohort_count:w&#45;&gt;cg_cohort_definition:e</title>
<path fill="none" stroke="#000000" d="M787.6069,-1385.3499C703.2441,-1363.2659 370.8547,-1192.1545 224,-911.7884 203.2724,-872.2166 228.1717,-511.7884 183.5,-511.7884"/>
<polygon fill="#000000" stroke="#000000" points="794.1124,-1386.452 801.3986,-1391.3378 798.0562,-1387.1202 802,-1387.7884 802,-1387.7884 802,-1387.7884 798.0562,-1387.1202 802.6014,-1384.239 794.1124,-1386.452 794.1124,-1386.452"/>
<ellipse fill="none" stroke="#000000" cx="790.9574" cy="-1385.9175" rx="3.2" ry="3.2"/>
</g>
<!-- cg_cohort_count&#45;&gt;database_meta_data -->
<g id="edge15" class="edge">
<title>cg_cohort_count:w&#45;&gt;database_meta_data:e</title>
<path fill="none" stroke="#000000" d="M787.3456,-1387.0056C764.047,-1384.2049 751.995,-1373.5579 737,-1349.7884 708.3245,-1304.3333 750.2443,-867.7884 696.5,-867.7884"/>
<polygon fill="#000000" stroke="#000000" points="794.0114,-1387.3616 801.8079,-1391.3833 798.0057,-1387.575 802,-1387.7884 802,-1387.7884 802,-1387.7884 798.0057,-1387.575 802.1921,-1384.1935 794.0114,-1387.3616 794.0114,-1387.3616"/>
<ellipse fill="none" stroke="#000000" cx="790.8159" cy="-1387.1909" rx="3.2" ry="3.2"/>
</g>
<!-- cg_cohort_generation -->
<g id="node10" class="node">
<title>cg_cohort_generation</title>
<g id="a_node10"><a xlink:href="../../tables/cg_cohort_generation.html" xlink:title="cg_cohort_generation" target="_top">
<polygon fill="#ffffff" stroke="transparent" points="784,-1004.2884 784,-1065.2884 968,-1065.2884 968,-1004.2884 784,-1004.2884"/>
<polygon fill="#f5f5f5" stroke="transparent" points="784,-1041.7884 784,-1064.7884 968,-1064.7884 968,-1041.7884 784,-1041.7884"/>
<polygon fill="none" stroke="#000000" points="784,-1041.7884 784,-1064.7884 968,-1064.7884 968,-1041.7884 784,-1041.7884"/>
<text text-anchor="start" x="789" y="-1050.3884" font-family="Helvetica,sans-Serif" font-weight="bold" font-size="11.00" fill="#000000">cg_cohort_generation</text>
<text text-anchor="start" x="933.5219" y="-1049.8884" font-family="Helvetica,sans-Serif" font-size="11.00" fill="#000000">[table]</text>
<polygon fill="none" stroke="#000000" points="784,-1022.7884 784,-1041.7884 968,-1041.7884 968,-1022.7884 784,-1022.7884"/>
<text text-anchor="start" x="787" y="-1028.8884" font-family="Helvetica,sans-Serif" font-size="11.00" fill="#000000">...</text>
<polygon fill="#ffffff" stroke="transparent" points="784,-1003.7884 784,-1022.7884 861,-1022.7884 861,-1003.7884 784,-1003.7884"/>
<polygon fill="none" stroke="#000000" points="784,-1003.7884 784,-1022.7884 861,-1022.7884 861,-1003.7884 784,-1003.7884"/>
<text text-anchor="start" x="787" y="-1009.8884" font-family="Helvetica,sans-Serif" font-size="11.00" fill="#000000">&lt; 1</text>
<polygon fill="#ffffff" stroke="transparent" points="861,-1003.7884 861,-1022.7884 927,-1022.7884 927,-1003.7884 861,-1003.7884"/>
<polygon fill="none" stroke="#000000" points="861,-1003.7884 861,-1022.7884 927,-1022.7884 927,-1003.7884 861,-1003.7884"/>
<text text-anchor="start" x="891.6105" y="-1009.8884" font-family="Helvetica,sans-Serif" font-size="11.00" fill="#000000">0 rows</text>
<polygon fill="#ffffff" stroke="transparent" points="927,-1003.7884 927,-1022.7884 968,-1022.7884 968,-1003.7884 927,-1003.7884"/>
<polygon fill="none" stroke="#000000" points="927,-1003.7884 927,-1022.7884 968,-1022.7884 968,-1003.7884 927,-1003.7884"/>
<text text-anchor="start" x="958.8862" y="-1009.8884" font-family="Helvetica,sans-Serif" font-size="11.00" fill="#000000"> &#160;</text>
</a>
</g>
</g>
<!-- cg_cohort_generation&#45;&gt;database_meta_data -->
<g id="edge16" class="edge">
<title>cg_cohort_generation:w&#45;&gt;database_meta_data:e</title>
<path fill="none" stroke="#000000" d="M769.6245,-1029.7629C754.5942,-1024.8234 748.9846,-1011.2709 737,-993.7884 703.741,-945.272 755.3218,-867.7884 696.5,-867.7884"/>
<polygon fill="#000000" stroke="#000000" points="776.0782,-1030.6722 783.4977,-1035.3532 780.0391,-1031.2303 784,-1031.7884 784,-1031.7884 784,-1031.7884 780.0391,-1031.2303 784.5023,-1028.2236 776.0782,-1030.6722 776.0782,-1030.6722"/>
<ellipse fill="none" stroke="#000000" cx="772.9095" cy="-1030.2257" rx="3.2" ry="3.2"/>
</g>
<!-- cg_cohort_inc_result -->
<g id="node11" class="node">
<title>cg_cohort_inc_result</title>
<g id="a_node11"><a xlink:href="../../tables/cg_cohort_inc_result.html" xlink:title="cg_cohort_inc_result" target="_top">
<polygon fill="#ffffff" stroke="transparent" points="788.5,-922.2884 788.5,-983.2884 963.5,-983.2884 963.5,-922.2884 788.5,-922.2884"/>
<polygon fill="#f5f5f5" stroke="transparent" points="789,-959.7884 789,-982.7884 964,-982.7884 964,-959.7884 789,-959.7884"/>
<polygon fill="none" stroke="#000000" points="789,-959.7884 789,-982.7884 964,-982.7884 964,-959.7884 789,-959.7884"/>
<text text-anchor="start" x="794" y="-968.3884" font-family="Helvetica,sans-Serif" font-weight="bold" font-size="11.00" fill="#000000">cg_cohort_inc_result</text>
<text text-anchor="start" x="929.5219" y="-967.8884" font-family="Helvetica,sans-Serif" font-size="11.00" fill="#000000">[table]</text>
<polygon fill="none" stroke="#000000" points="789,-940.7884 789,-959.7884 964,-959.7884 964,-940.7884 789,-940.7884"/>
<text text-anchor="start" x="792" y="-946.8884" font-family="Helvetica,sans-Serif" font-size="11.00" fill="#000000">...</text>
<polygon fill="#ffffff" stroke="transparent" points="789,-921.7884 789,-940.7884 862,-940.7884 862,-921.7884 789,-921.7884"/>
<polygon fill="none" stroke="#000000" points="789,-921.7884 789,-940.7884 862,-940.7884 862,-921.7884 789,-921.7884"/>
<text text-anchor="start" x="792" y="-927.8884" font-family="Helvetica,sans-Serif" font-size="11.00" fill="#000000">&lt; 1</text>
<polygon fill="#ffffff" stroke="transparent" points="862,-921.7884 862,-940.7884 926,-940.7884 926,-921.7884 862,-921.7884"/>
<polygon fill="none" stroke="#000000" points="862,-921.7884 862,-940.7884 926,-940.7884 926,-921.7884 862,-921.7884"/>
<text text-anchor="start" x="890.6105" y="-927.8884" font-family="Helvetica,sans-Serif" font-size="11.00" fill="#000000">0 rows</text>
<polygon fill="#ffffff" stroke="transparent" points="926,-921.7884 926,-940.7884 964,-940.7884 964,-921.7884 926,-921.7884"/>
<polygon fill="none" stroke="#000000" points="926,-921.7884 926,-940.7884 964,-940.7884 964,-921.7884 926,-921.7884"/>
<text text-anchor="start" x="954.8862" y="-927.8884" font-family="Helvetica,sans-Serif" font-size="11.00" fill="#000000"> &#160;</text>
</a>
</g>
</g>
<!-- cg_cohort_inc_result&#45;&gt;database_meta_data -->
<g id="edge17" class="edge">
<title>cg_cohort_inc_result:w&#45;&gt;database_meta_data:e</title>
<path fill="none" stroke="#000000" d="M774.4645,-947.6023C758.7555,-942.091 754.0137,-926.9817 737,-911.7884 717.1755,-894.085 723.0786,-867.7884 696.5,-867.7884"/>
<polygon fill="#000000" stroke="#000000" points="781.089,-948.5986 788.4646,-953.3484 785.0445,-949.1935 789,-949.7884 789,-949.7884 789,-949.7884 785.0445,-949.1935 789.5354,-946.2284 781.089,-948.5986 781.089,-948.5986"/>
<ellipse fill="none" stroke="#000000" cx="777.9246" cy="-948.1226" rx="3.2" ry="3.2"/>
</g>
<!-- cg_cohort_inclusion -->
<g id="node12" class="node">
<title>cg_cohort_inclusion</title>
<g id="a_node12"><a xlink:href="../../tables/cg_cohort_inclusion.html" xlink:title="cg_cohort_inclusion" target="_top">
<polygon fill="#ffffff" stroke="transparent" points="232,-265.2884 232,-326.2884 402,-326.2884 402,-265.2884 232,-265.2884"/>
<polygon fill="#f5f5f5" stroke="transparent" points="232,-302.7884 232,-325.7884 402,-325.7884 402,-302.7884 232,-302.7884"/>
<polygon fill="none" stroke="#000000" points="232,-302.7884 232,-325.7884 402,-325.7884 402,-302.7884 232,-302.7884"/>
<text text-anchor="start" x="237" y="-311.3884" font-family="Helvetica,sans-Serif" font-weight="bold" font-size="11.00" fill="#000000">cg_cohort_inclusion</text>
<text text-anchor="start" x="367.5219" y="-310.8884" font-family="Helvetica,sans-Serif" font-size="11.00" fill="#000000">[table]</text>
<polygon fill="none" stroke="#000000" points="232,-283.7884 232,-302.7884 402,-302.7884 402,-283.7884 232,-283.7884"/>
<text text-anchor="start" x="235" y="-289.8884" font-family="Helvetica,sans-Serif" font-size="11.00" fill="#000000">...</text>
<polygon fill="#ffffff" stroke="transparent" points="232,-264.7884 232,-283.7884 302,-283.7884 302,-264.7884 232,-264.7884"/>
<polygon fill="none" stroke="#000000" points="232,-264.7884 232,-283.7884 302,-283.7884 302,-264.7884 232,-264.7884"/>
<text text-anchor="start" x="235" y="-270.8884" font-family="Helvetica,sans-Serif" font-size="11.00" fill="#000000">&lt; 1</text>
<polygon fill="#ffffff" stroke="transparent" points="302,-264.7884 302,-283.7884 365,-283.7884 365,-264.7884 302,-264.7884"/>
<polygon fill="none" stroke="#000000" points="302,-264.7884 302,-283.7884 365,-283.7884 365,-264.7884 302,-264.7884"/>
<text text-anchor="start" x="329.6105" y="-270.8884" font-family="Helvetica,sans-Serif" font-size="11.00" fill="#000000">0 rows</text>
<polygon fill="#ffffff" stroke="transparent" points="365,-264.7884 365,-283.7884 402,-283.7884 402,-264.7884 365,-264.7884"/>
<polygon fill="none" stroke="#000000" points="365,-264.7884 365,-283.7884 402,-283.7884 402,-264.7884 365,-264.7884"/>
<text text-anchor="start" x="392.8862" y="-270.8884" font-family="Helvetica,sans-Serif" font-size="11.00" fill="#000000"> &#160;</text>
</a>
</g>
</g>
<!-- cg_cohort_inclusion&#45;&gt;cg_cohort_definition -->
<g id="edge18" class="edge">
<title>cg_cohort_inclusion:w&#45;&gt;cg_cohort_definition:e</title>
<path fill="none" stroke="#000000" d="M217.3808,-294.8166C148.5967,-316.8944 277.545,-511.7884 183.5,-511.7884"/>
<polygon fill="#000000" stroke="#000000" points="224.0759,-293.8878 232.4947,-296.3542 228.0379,-293.3381 232,-292.7884 232,-292.7884 232,-292.7884 228.0379,-293.3381 231.5053,-289.2225 224.0759,-293.8878 224.0759,-293.8878"/>
<ellipse fill="none" stroke="#000000" cx="220.9063" cy="-294.3275" rx="3.2" ry="3.2"/>
</g>
<!-- cg_cohort_summary_stats -->
<g id="node13" class="node">
<title>cg_cohort_summary_stats</title>
<g id="a_node13"><a xlink:href="../../tables/cg_cohort_summary_stats.html" xlink:title="cg_cohort_summary_stats" target="_top">
<polygon fill="#ffffff" stroke="transparent" points="770,-730.2884 770,-791.2884 982,-791.2884 982,-730.2884 770,-730.2884"/>
<polygon fill="#f5f5f5" stroke="transparent" points="770,-767.7884 770,-790.7884 982,-790.7884 982,-767.7884 770,-767.7884"/>
<polygon fill="none" stroke="#000000" points="770,-767.7884 770,-790.7884 982,-790.7884 982,-767.7884 770,-767.7884"/>
<text text-anchor="start" x="775" y="-776.3884" font-family="Helvetica,sans-Serif" font-weight="bold" font-size="11.00" fill="#000000">cg_cohort_summary_stats</text>
<text text-anchor="start" x="947.5219" y="-775.8884" font-family="Helvetica,sans-Serif" font-size="11.00" fill="#000000">[table]</text>
<polygon fill="none" stroke="#000000" points="770,-748.7884 770,-767.7884 982,-767.7884 982,-748.7884 770,-748.7884"/>
<text text-anchor="start" x="773" y="-754.8884" font-family="Helvetica,sans-Serif" font-size="11.00" fill="#000000">...</text>
<polygon fill="#ffffff" stroke="transparent" points="770,-729.7884 770,-748.7884 861,-748.7884 861,-729.7884 770,-729.7884"/>
<polygon fill="none" stroke="#000000" points="770,-729.7884 770,-748.7884 861,-748.7884 861,-729.7884 770,-729.7884"/>
<text text-anchor="start" x="773" y="-735.8884" font-family="Helvetica,sans-Serif" font-size="11.00" fill="#000000">&lt; 2</text>
<polygon fill="#ffffff" stroke="transparent" points="861,-729.7884 861,-748.7884 934,-748.7884 934,-729.7884 861,-729.7884"/>
<polygon fill="none" stroke="#000000" points="861,-729.7884 861,-748.7884 934,-748.7884 934,-729.7884 861,-729.7884"/>
<text text-anchor="start" x="898.6105" y="-735.8884" font-family="Helvetica,sans-Serif" font-size="11.00" fill="#000000">0 rows</text>
<polygon fill="#ffffff" stroke="transparent" points="934,-729.7884 934,-748.7884 982,-748.7884 982,-729.7884 934,-729.7884"/>
<polygon fill="none" stroke="#000000" points="934,-729.7884 934,-748.7884 982,-748.7884 982,-729.7884 934,-729.7884"/>
<text text-anchor="start" x="972.8862" y="-735.8884" font-family="Helvetica,sans-Serif" font-size="11.00" fill="#000000"> &#160;</text>
</a>
</g>
</g>
<!-- cg_cohort_summary_stats&#45;&gt;cg_cohort_definition -->
<g id="edge19" class="edge">
<title>cg_cohort_summary_stats:w&#45;&gt;cg_cohort_definition:e</title>
<path fill="none" stroke="#000000" d="M755.333,-757.7906C512.7494,-757.8437 411.4642,-757.6124 224,-594.7884 193.0109,-567.8725 224.5462,-511.7884 183.5,-511.7884"/>
<polygon fill="#000000" stroke="#000000" points="762,-757.7897 770.0006,-761.3884 766,-757.789 770,-757.7884 770,-757.7884 770,-757.7884 766,-757.789 769.9994,-754.1884 762,-757.7897 762,-757.7897"/>
<ellipse fill="none" stroke="#000000" cx="758.8" cy="-757.7902" rx="3.2" ry="3.2"/>
</g>
<!-- cg_cohort_summary_stats&#45;&gt;database_meta_data -->
<g id="edge20" class="edge">
<title>cg_cohort_summary_stats:w&#45;&gt;database_meta_data:e</title>
<path fill="none" stroke="#000000" d="M755.5261,-760.7306C718.8331,-778.2237 749.5562,-867.7884 696.5,-867.7884"/>
<polygon fill="#000000" stroke="#000000" points="762.1603,-759.3821 770.7172,-761.3162 766.0802,-758.5852 770,-757.7884 770,-757.7884 770,-757.7884 766.0802,-758.5852 769.2828,-754.2605 762.1603,-759.3821 762.1603,-759.3821"/>
<ellipse fill="none" stroke="#000000" cx="759.0245" cy="-760.0196" rx="3.2" ry="3.2"/>
</g>
<!-- ci_incidence_summary -->
<g id="node14" class="node">
<title>ci_incidence_summary</title>
<g id="a_node14"><a xlink:href="../../tables/ci_incidence_summary.html" xlink:title="ci_incidence_summary" target="_top">
<polygon fill="#ffffff" stroke="transparent" points="781.5,-648.2884 781.5,-709.2884 970.5,-709.2884 970.5,-648.2884 781.5,-648.2884"/>
<polygon fill="#f5f5f5" stroke="transparent" points="782,-685.7884 782,-708.7884 971,-708.7884 971,-685.7884 782,-685.7884"/>
<polygon fill="none" stroke="#000000" points="782,-685.7884 782,-708.7884 971,-708.7884 971,-685.7884 782,-685.7884"/>
<text text-anchor="start" x="787" y="-694.3884" font-family="Helvetica,sans-Serif" font-weight="bold" font-size="11.00" fill="#000000">ci_incidence_summary</text>
<text text-anchor="start" x="936.5219" y="-693.8884" font-family="Helvetica,sans-Serif" font-size="11.00" fill="#000000">[table]</text>
<polygon fill="none" stroke="#000000" points="782,-666.7884 782,-685.7884 971,-685.7884 971,-666.7884 782,-666.7884"/>
<text text-anchor="start" x="785" y="-672.8884" font-family="Helvetica,sans-Serif" font-size="11.00" fill="#000000">...</text>
<polygon fill="#ffffff" stroke="transparent" points="782,-647.7884 782,-666.7884 865,-666.7884 865,-647.7884 782,-647.7884"/>
<polygon fill="none" stroke="#000000" points="782,-647.7884 782,-666.7884 865,-666.7884 865,-647.7884 782,-647.7884"/>
<text text-anchor="start" x="785" y="-653.8884" font-family="Helvetica,sans-Serif" font-size="11.00" fill="#000000">&lt; 10</text>
<polygon fill="#ffffff" stroke="transparent" points="865,-647.7884 865,-666.7884 931,-666.7884 931,-647.7884 865,-647.7884"/>
<polygon fill="none" stroke="#000000" points="865,-647.7884 865,-666.7884 931,-666.7884 931,-647.7884 865,-647.7884"/>
<text text-anchor="start" x="895.6105" y="-653.8884" font-family="Helvetica,sans-Serif" font-size="11.00" fill="#000000">0 rows</text>
<polygon fill="#ffffff" stroke="transparent" points="931,-647.7884 931,-666.7884 971,-666.7884 971,-647.7884 931,-647.7884"/>
<polygon fill="none" stroke="#000000" points="931,-647.7884 931,-666.7884 971,-666.7884 971,-647.7884 931,-647.7884"/>
<text text-anchor="start" x="961.8862" y="-653.8884" font-family="Helvetica,sans-Serif" font-size="11.00" fill="#000000"> &#160;</text>
</a>
</g>
</g>
<!-- ci_incidence_summary&#45;&gt;cg_cohort_definition -->
<g id="edge22" class="edge">
<title>ci_incidence_summary:w&#45;&gt;cg_cohort_definition:e</title>
<path fill="none" stroke="#000000" d="M767.2725,-675.7638C524.2157,-674.9323 448.939,-652.5821 224,-543.7884 203.3481,-533.7999 206.4406,-511.7884 183.5,-511.7884"/>
<polygon fill="#000000" stroke="#000000" points="774,-675.775 781.994,-679.3884 778,-675.7817 782,-675.7884 782,-675.7884 782,-675.7884 778,-675.7817 782.006,-672.1884 774,-675.775 774,-675.775"/>
<ellipse fill="none" stroke="#000000" cx="770.8" cy="-675.7696" rx="3.2" ry="3.2"/>
</g>
<!-- ci_incidence_summary&#45;&gt;database_meta_data -->
<g id="edge21" class="edge">
<title>ci_incidence_summary:w&#45;&gt;database_meta_data:e</title>
<path fill="none" stroke="#000000" d="M767.7595,-678.1193C752.4055,-684.0436 748.3043,-700.5775 737,-719.7884 702.4145,-778.5639 764.6962,-867.7884 696.5,-867.7884"/>
<polygon fill="#000000" stroke="#000000" points="774.1051,-677.0807 782.5815,-679.3411 778.0525,-676.4345 782,-675.7884 782,-675.7884 782,-675.7884 778.0525,-676.4345 781.4185,-672.2357 774.1051,-677.0807 774.1051,-677.0807"/>
<ellipse fill="none" stroke="#000000" cx="770.9471" cy="-677.5976" rx="3.2" ry="3.2"/>
</g>
<!-- cm_covariate_balance -->
<g id="node15" class="node">
<title>cm_covariate_balance</title>
<g id="a_node15"><a xlink:href="../../tables/cm_covariate_balance.html" xlink:title="cm_covariate_balance" target="_top">
<polygon fill="#ffffff" stroke="transparent" points="783,-840.2884 783,-901.2884 969,-901.2884 969,-840.2884 783,-840.2884"/>
<polygon fill="#f5f5f5" stroke="transparent" points="783,-877.7884 783,-900.7884 969,-900.7884 969,-877.7884 783,-877.7884"/>
<polygon fill="none" stroke="#000000" points="783,-877.7884 783,-900.7884 969,-900.7884 969,-877.7884 783,-877.7884"/>
<text text-anchor="start" x="788" y="-886.3884" font-family="Helvetica,sans-Serif" font-weight="bold" font-size="11.00" fill="#000000">cm_covariate_balance</text>
<text text-anchor="start" x="934.5219" y="-885.8884" font-family="Helvetica,sans-Serif" font-size="11.00" fill="#000000">[table]</text>
<polygon fill="none" stroke="#000000" points="783,-858.7884 783,-877.7884 969,-877.7884 969,-858.7884 783,-858.7884"/>
<text text-anchor="start" x="786" y="-864.8884" font-family="Helvetica,sans-Serif" font-size="11.00" fill="#000000">...</text>
<polygon fill="#ffffff" stroke="transparent" points="783,-839.7884 783,-858.7884 861,-858.7884 861,-839.7884 783,-839.7884"/>
<polygon fill="none" stroke="#000000" points="783,-839.7884 783,-858.7884 861,-858.7884 861,-839.7884 783,-839.7884"/>
<text text-anchor="start" x="786" y="-845.8884" font-family="Helvetica,sans-Serif" font-size="11.00" fill="#000000">&lt; 4</text>
<polygon fill="#ffffff" stroke="transparent" points="861,-839.7884 861,-858.7884 928,-858.7884 928,-839.7884 861,-839.7884"/>
<polygon fill="none" stroke="#000000" points="861,-839.7884 861,-858.7884 928,-858.7884 928,-839.7884 861,-839.7884"/>
<text text-anchor="start" x="892.6105" y="-845.8884" font-family="Helvetica,sans-Serif" font-size="11.00" fill="#000000">0 rows</text>
<polygon fill="#ffffff" stroke="transparent" points="928,-839.7884 928,-858.7884 969,-858.7884 969,-839.7884 928,-839.7884"/>
<polygon fill="none" stroke="#000000" points="928,-839.7884 928,-858.7884 969,-858.7884 969,-839.7884 928,-839.7884"/>
<text text-anchor="start" x="959.8862" y="-845.8884" font-family="Helvetica,sans-Serif" font-size="11.00" fill="#000000"> &#160;</text>
</a>
</g>
</g>
<!-- cm_covariate_balance&#45;&gt;database_meta_data -->
<g id="edge23" class="edge">
<title>cm_covariate_balance:w&#45;&gt;database_meta_data:e</title>
<path fill="none" stroke="#000000" d="M768.3315,-867.7884C741.2822,-867.7884 729.5382,-867.7884 696.5,-867.7884"/>
<polygon fill="#000000" stroke="#000000" points="775,-867.7885 783,-871.3884 779,-867.7884 783,-867.7884 783,-867.7884 783,-867.7884 779,-867.7884 783,-864.1884 775,-867.7885 775,-867.7885"/>
<ellipse fill="none" stroke="#000000" cx="771.8" cy="-867.7885" rx="3.2" ry="3.2"/>
</g>
<!-- cm_diagnostics_summary -->
<g id="node16" class="node">
<title>cm_diagnostics_summary</title>
<g id="a_node16"><a xlink:href="../../tables/cm_diagnostics_summary.html" xlink:title="cm_diagnostics_summary" target="_top">
<polygon fill="#ffffff" stroke="transparent" points="771,-234.2884 771,-295.2884 981,-295.2884 981,-234.2884 771,-234.2884"/>
<polygon fill="#f5f5f5" stroke="transparent" points="771,-271.7884 771,-294.7884 981,-294.7884 981,-271.7884 771,-271.7884"/>
<polygon fill="none" stroke="#000000" points="771,-271.7884 771,-294.7884 981,-294.7884 981,-271.7884 771,-271.7884"/>
<text text-anchor="start" x="776" y="-280.3884" font-family="Helvetica,sans-Serif" font-weight="bold" font-size="11.00" fill="#000000">cm_diagnostics_summary</text>
<text text-anchor="start" x="946.5219" y="-279.8884" font-family="Helvetica,sans-Serif" font-size="11.00" fill="#000000">[table]</text>
<polygon fill="none" stroke="#000000" points="771,-252.7884 771,-271.7884 981,-271.7884 981,-252.7884 771,-252.7884"/>
<text text-anchor="start" x="774" y="-258.8884" font-family="Helvetica,sans-Serif" font-size="11.00" fill="#000000">...</text>
<polygon fill="#ffffff" stroke="transparent" points="771,-233.7884 771,-252.7884 857,-252.7884 857,-233.7884 771,-233.7884"/>
<polygon fill="none" stroke="#000000" points="771,-233.7884 771,-252.7884 857,-252.7884 857,-233.7884 771,-233.7884"/>
<text text-anchor="start" x="774" y="-239.8884" font-family="Helvetica,sans-Serif" font-size="11.00" fill="#000000">&lt; 5</text>
<polygon fill="#ffffff" stroke="transparent" points="857,-233.7884 857,-252.7884 927,-252.7884 927,-233.7884 857,-233.7884"/>
<polygon fill="none" stroke="#000000" points="857,-233.7884 857,-252.7884 927,-252.7884 927,-233.7884 857,-233.7884"/>
<text text-anchor="start" x="891.6105" y="-239.8884" font-family="Helvetica,sans-Serif" font-size="11.00" fill="#000000">0 rows</text>
<polygon fill="#ffffff" stroke="transparent" points="927,-233.7884 927,-252.7884 981,-252.7884 981,-233.7884 927,-233.7884"/>
<polygon fill="none" stroke="#000000" points="927,-233.7884 927,-252.7884 981,-252.7884 981,-233.7884 927,-233.7884"/>
<text text-anchor="start" x="962.4053" y="-239.8884" font-family="Helvetica,sans-Serif" font-size="11.00" fill="#000000">1 &gt;</text>
</a>
</g>
</g>
<!-- cm_diagnostics_summary&#45;&gt;cg_cohort_definition -->
<g id="edge24" class="edge">
<title>cm_diagnostics_summary:w&#45;&gt;cg_cohort_definition:e</title>
<path fill="none" stroke="#000000" d="M756.493,-263.7966C733.6952,-270.9633 731.0817,-295.7095 704,-311.7884 597.4525,-375.0475 307.4116,-511.7884 183.5,-511.7884"/>
<polygon fill="#000000" stroke="#000000" points="763.0756,-262.8854 771.4937,-265.3544 767.0378,-262.3369 771,-261.7884 771,-261.7884 771,-261.7884 767.0378,-262.3369 770.5063,-258.2224 763.0756,-262.8854 763.0756,-262.8854"/>
<ellipse fill="none" stroke="#000000" cx="759.9058" cy="-263.3242" rx="3.2" ry="3.2"/>
</g>
<!-- cm_diagnostics_summary&#45;&gt;cg_cohort_definition -->
<g id="edge26" class="edge">
<title>cm_diagnostics_summary:w&#45;&gt;cg_cohort_definition:e</title>
<path fill="none" stroke="#000000" d="M756.4855,-261.2983C734.2408,-264.2945 730.4233,-286.6016 704,-301.7884 488.5799,-425.6017 431.9664,-505.7884 183.5,-511.7884"/>
<polygon fill="#000000" stroke="#000000" points="763.0046,-261.5184 770.8785,-265.3863 767.0023,-261.6534 771,-261.7884 771,-261.7884 771,-261.7884 767.0023,-261.6534 771.1215,-258.1904 763.0046,-261.5184 763.0046,-261.5184"/>
<ellipse fill="none" stroke="#000000" cx="759.8064" cy="-261.4104" rx="3.2" ry="3.2"/>
</g>
<!-- cm_diagnostics_summary&#45;&gt;cg_cohort_definition -->
<g id="edge27" class="edge">
<title>cm_diagnostics_summary:w&#45;&gt;cg_cohort_definition:e</title>
<path fill="none" stroke="#000000" d="M757.1082,-266.1924C734.3096,-276.8808 730.6679,-299.4609 704,-314.7884 488.5799,-438.6017 431.9664,-518.7884 183.5,-511.7884"/>
<polygon fill="#000000" stroke="#000000" points="763.374,-264.206 772.0879,-265.2201 767.187,-262.9972 771,-261.7884 771,-261.7884 771,-261.7884 767.187,-262.9972 769.9121,-258.3567 763.374,-264.206 763.374,-264.206"/>
<ellipse fill="none" stroke="#000000" cx="760.3236" cy="-265.173" rx="3.2" ry="3.2"/>
</g>
<!-- cm_diagnostics_summary&#45;&gt;database_meta_data -->
<g id="edge25" class="edge">
<title>cm_diagnostics_summary:w&#45;&gt;database_meta_data:e</title>
<path fill="none" stroke="#000000" d="M756.8475,-265.2022C745.5703,-272.0459 743.6836,-288.2932 737,-305.7884 714.6577,-364.2724 759.1064,-867.7884 696.5,-867.7884"/>
<polygon fill="#000000" stroke="#000000" points="763.2231,-263.6644 771.8442,-265.288 767.1115,-262.7264 771,-261.7884 771,-261.7884 771,-261.7884 767.1115,-262.7264 770.1558,-258.2888 763.2231,-263.6644 763.2231,-263.6644"/>
<ellipse fill="none" stroke="#000000" cx="760.1123" cy="-264.4148" rx="3.2" ry="3.2"/>
</g>
<!-- plp_cohorts -->
<g id="node17" class="node">
<title>plp_cohorts</title>
<g id="a_node17"><a xlink:href="../../tables/plp_cohorts.html" xlink:title="plp_cohorts" target="_top">
<polygon fill="#ffffff" stroke="transparent" points="258.5,-183.2884 258.5,-244.2884 375.5,-244.2884 375.5,-183.2884 258.5,-183.2884"/>
<polygon fill="#f5f5f5" stroke="transparent" points="259,-220.7884 259,-243.7884 376,-243.7884 376,-220.7884 259,-220.7884"/>
<polygon fill="none" stroke="#000000" points="259,-220.7884 259,-243.7884 376,-243.7884 376,-220.7884 259,-220.7884"/>
<text text-anchor="start" x="264" y="-229.3884" font-family="Helvetica,sans-Serif" font-weight="bold" font-size="11.00" fill="#000000">plp_cohorts</text>
<text text-anchor="start" x="341.5219" y="-228.8884" font-family="Helvetica,sans-Serif" font-size="11.00" fill="#000000">[table]</text>
<polygon fill="none" stroke="#000000" points="259,-201.7884 259,-220.7884 376,-220.7884 376,-201.7884 259,-201.7884"/>
<text text-anchor="start" x="262" y="-207.8884" font-family="Helvetica,sans-Serif" font-size="11.00" fill="#000000">...</text>
<polygon fill="#ffffff" stroke="transparent" points="259,-182.7884 259,-201.7884 303,-201.7884 303,-182.7884 259,-182.7884"/>
<polygon fill="none" stroke="#000000" points="259,-182.7884 259,-201.7884 303,-201.7884 303,-182.7884 259,-182.7884"/>
<text text-anchor="start" x="262" y="-188.8884" font-family="Helvetica,sans-Serif" font-size="11.00" fill="#000000">&lt; 1</text>
<polygon fill="#ffffff" stroke="transparent" points="303,-182.7884 303,-201.7884 352,-201.7884 352,-182.7884 303,-182.7884"/>
<polygon fill="none" stroke="#000000" points="303,-182.7884 303,-201.7884 352,-201.7884 352,-182.7884 303,-182.7884"/>
<text text-anchor="start" x="316.6105" y="-188.8884" font-family="Helvetica,sans-Serif" font-size="11.00" fill="#000000">0 rows</text>
<polygon fill="#ffffff" stroke="transparent" points="352,-182.7884 352,-201.7884 376,-201.7884 376,-182.7884 352,-182.7884"/>
<polygon fill="none" stroke="#000000" points="352,-182.7884 352,-201.7884 376,-201.7884 376,-182.7884 352,-182.7884"/>
<text text-anchor="start" x="366.8862" y="-188.8884" font-family="Helvetica,sans-Serif" font-size="11.00" fill="#000000"> &#160;</text>
</a>
</g>
</g>
<!-- plp_cohorts&#45;&gt;cg_cohort_definition -->
<g id="edge29" class="edge">
<title>plp_cohorts:w&#45;&gt;cg_cohort_definition:e</title>
<path fill="none" stroke="#000000" d="M244.7502,-214.2303C233.4406,-221.1233 231.6198,-237.453 224,-254.7884 200.7351,-307.7169 241.3159,-511.7884 183.5,-511.7884"/>
<polygon fill="#000000" stroke="#000000" points="251.2236,-212.6668 259.8453,-214.2878 255.1118,-211.7276 259,-210.7884 259,-210.7884 259,-210.7884 255.1118,-211.7276 258.1547,-207.289 251.2236,-212.6668 251.2236,-212.6668"/>
<ellipse fill="none" stroke="#000000" cx="248.1131" cy="-213.4181" rx="3.2" ry="3.2"/>
</g>
<!-- plp_diagnostics -->
<g id="node18" class="node">
<title>plp_diagnostics</title>
<g id="a_node18"><a xlink:href="../../tables/plp_diagnostics.html" xlink:title="plp_diagnostics" target="_top">
<polygon fill="#ffffff" stroke="transparent" points="804.5,-152.2884 804.5,-213.2884 947.5,-213.2884 947.5,-152.2884 804.5,-152.2884"/>
<polygon fill="#f5f5f5" stroke="transparent" points="805,-189.7884 805,-212.7884 948,-212.7884 948,-189.7884 805,-189.7884"/>
<polygon fill="none" stroke="#000000" points="805,-189.7884 805,-212.7884 948,-212.7884 948,-189.7884 805,-189.7884"/>
<text text-anchor="start" x="810" y="-198.3884" font-family="Helvetica,sans-Serif" font-weight="bold" font-size="11.00" fill="#000000">plp_diagnostics</text>
<text text-anchor="start" x="913.5219" y="-197.8884" font-family="Helvetica,sans-Serif" font-size="11.00" fill="#000000">[table]</text>
<polygon fill="none" stroke="#000000" points="805,-170.7884 805,-189.7884 948,-189.7884 948,-170.7884 805,-170.7884"/>
<text text-anchor="start" x="808" y="-176.8884" font-family="Helvetica,sans-Serif" font-size="11.00" fill="#000000">...</text>
<polygon fill="#ffffff" stroke="transparent" points="805,-151.7884 805,-170.7884 862,-170.7884 862,-151.7884 805,-151.7884"/>
<polygon fill="none" stroke="#000000" points="805,-151.7884 805,-170.7884 862,-170.7884 862,-151.7884 805,-151.7884"/>
<text text-anchor="start" x="808" y="-157.8884" font-family="Helvetica,sans-Serif" font-size="11.00" fill="#000000">&lt; 3</text>
<polygon fill="#ffffff" stroke="transparent" points="862,-151.7884 862,-170.7884 918,-170.7884 918,-151.7884 862,-151.7884"/>
<polygon fill="none" stroke="#000000" points="862,-151.7884 862,-170.7884 918,-170.7884 918,-151.7884 862,-151.7884"/>
<text text-anchor="start" x="882.6105" y="-157.8884" font-family="Helvetica,sans-Serif" font-size="11.00" fill="#000000">0 rows</text>
<polygon fill="#ffffff" stroke="transparent" points="918,-151.7884 918,-170.7884 948,-170.7884 948,-151.7884 918,-151.7884"/>
<polygon fill="none" stroke="#000000" points="918,-151.7884 918,-170.7884 948,-170.7884 948,-151.7884 918,-151.7884"/>
<text text-anchor="start" x="938.8862" y="-157.8884" font-family="Helvetica,sans-Serif" font-size="11.00" fill="#000000"> &#160;</text>
</a>
</g>
</g>
<!-- plp_diagnostics&#45;&gt;database_meta_data -->
<g id="edge30" class="edge">
<title>plp_diagnostics:w&#45;&gt;database_meta_data:e</title>
<path fill="none" stroke="#000000" d="M790.3493,-180.6604C764.8049,-184.0279 752.4873,-197.3345 737,-223.7884 700.7766,-285.6617 768.1969,-867.7884 696.5,-867.7884"/>
<polygon fill="#000000" stroke="#000000" points="797.0141,-180.2638 805.2139,-183.382 801.0071,-180.0261 805,-179.7884 805,-179.7884 805,-179.7884 801.0071,-180.0261 804.7861,-176.1948 797.0141,-180.2638 797.0141,-180.2638"/>
<ellipse fill="none" stroke="#000000" cx="793.8198" cy="-180.4539" rx="3.2" ry="3.2"/>
</g>
<!-- plp_model_designs -->
<g id="node19" class="node">
<title>plp_model_designs</title>
<g id="a_node19"><a xlink:href="../../tables/plp_model_designs.html" xlink:title="plp_model_designs" target="_top">
<polygon fill="#ffffff" stroke="transparent" points="234,-375.2884 234,-436.2884 400,-436.2884 400,-375.2884 234,-375.2884"/>
<polygon fill="#f5f5f5" stroke="transparent" points="234,-412.7884 234,-435.7884 400,-435.7884 400,-412.7884 234,-412.7884"/>
<polygon fill="none" stroke="#000000" points="234,-412.7884 234,-435.7884 400,-435.7884 400,-412.7884 234,-412.7884"/>
<text text-anchor="start" x="239" y="-421.3884" font-family="Helvetica,sans-Serif" font-weight="bold" font-size="11.00" fill="#000000">plp_model_designs</text>
<text text-anchor="start" x="365.5219" y="-420.8884" font-family="Helvetica,sans-Serif" font-size="11.00" fill="#000000">[table]</text>
<polygon fill="none" stroke="#000000" points="234,-393.7884 234,-412.7884 400,-412.7884 400,-393.7884 234,-393.7884"/>
<text text-anchor="start" x="237" y="-399.8884" font-family="Helvetica,sans-Serif" font-size="11.00" fill="#000000">...</text>
<polygon fill="#ffffff" stroke="transparent" points="234,-374.7884 234,-393.7884 298,-393.7884 298,-374.7884 234,-374.7884"/>
<polygon fill="none" stroke="#000000" points="234,-374.7884 234,-393.7884 298,-393.7884 298,-374.7884 234,-374.7884"/>
<text text-anchor="start" x="237" y="-380.8884" font-family="Helvetica,sans-Serif" font-size="11.00" fill="#000000">&lt; 2</text>
<polygon fill="#ffffff" stroke="transparent" points="298,-374.7884 298,-393.7884 357,-393.7884 357,-374.7884 298,-374.7884"/>
<polygon fill="none" stroke="#000000" points="298,-374.7884 298,-393.7884 357,-393.7884 357,-374.7884 298,-374.7884"/>
<text text-anchor="start" x="321.6105" y="-380.8884" font-family="Helvetica,sans-Serif" font-size="11.00" fill="#000000">0 rows</text>
<polygon fill="#ffffff" stroke="transparent" points="357,-374.7884 357,-393.7884 400,-393.7884 400,-374.7884 357,-374.7884"/>
<polygon fill="none" stroke="#000000" points="357,-374.7884 357,-393.7884 400,-393.7884 400,-374.7884 357,-374.7884"/>
<text text-anchor="start" x="381.4053" y="-380.8884" font-family="Helvetica,sans-Serif" font-size="11.00" fill="#000000">1 &gt;</text>
</a>
</g>
</g>
<!-- plp_diagnostics&#45;&gt;plp_model_designs -->
<g id="edge31" class="edge">
<title>plp_diagnostics:w&#45;&gt;plp_model_designs:e</title>
<path fill="none" stroke="#000000" d="M790.322,-180.1807C599.6828,-190.5442 600.4657,-402.7884 400,-402.7884"/>
<polygon fill="#000000" stroke="#000000" points="797.0029,-180.0022 805.0962,-183.3871 801.0014,-179.8953 805,-179.7884 805,-179.7884 805,-179.7884 801.0014,-179.8953 804.9038,-176.1897 797.0029,-180.0022 797.0029,-180.0022"/>
<ellipse fill="none" stroke="#000000" cx="793.804" cy="-180.0877" rx="3.2" ry="3.2"/>
</g>
<!-- plp_model_designs&#45;&gt;cg_cohort_definition -->
<g id="edge32" class="edge">
<title>plp_model_designs:w&#45;&gt;cg_cohort_definition:e</title>
<path fill="none" stroke="#000000" d="M219.3951,-405.066C192.2939,-420.9208 230.6344,-506.4915 183.5,-511.7884"/>
<polygon fill="#000000" stroke="#000000" points="226.0955,-404.0211 234.5547,-406.3454 230.0478,-403.4048 234,-402.7884 234,-402.7884 234,-402.7884 230.0478,-403.4048 233.4453,-399.2314 226.0955,-404.0211 226.0955,-404.0211"/>
<ellipse fill="none" stroke="#000000" cx="222.9338" cy="-404.5142" rx="3.2" ry="3.2"/>
</g>
<!-- plp_model_designs&#45;&gt;cg_cohort_definition -->
<g id="edge33" class="edge">
<title>plp_model_designs:w&#45;&gt;cg_cohort_definition:e</title>
<path fill="none" stroke="#000000" d="M220.5093,-408.1513C191.2609,-431.4902 231.2601,-518.0501 183.5,-511.7884"/>
<polygon fill="#000000" stroke="#000000" points="226.5659,-405.7437 235.3299,-406.1338 230.2829,-404.266 234,-402.7884 234,-402.7884 234,-402.7884 230.2829,-404.266 232.6701,-399.443 226.5659,-405.7437 226.5659,-405.7437"/>
<ellipse fill="none" stroke="#000000" cx="223.5922" cy="-406.9258" rx="3.2" ry="3.2"/>
</g>
<!-- plp_performances -->
<g id="node20" class="node">
<title>plp_performances</title>
<g id="a_node20"><a xlink:href="../../tables/plp_performances.html" xlink:title="plp_performances" target="_top">
<polygon fill="#ffffff" stroke="transparent" points="745,-316.7884 745,-626.7884 1007,-626.7884 1007,-316.7884 745,-316.7884"/>
<polygon fill="#f5f5f5" stroke="transparent" points="747,-601.7884 747,-624.7884 1005,-624.7884 1005,-601.7884 747,-601.7884"/>
<polygon fill="none" stroke="#000000" points="747,-601.7884 747,-624.7884 1005,-624.7884 1005,-601.7884 747,-601.7884"/>
<text text-anchor="start" x="752" y="-610.3884" font-family="Helvetica,sans-Serif" font-weight="bold" font-size="11.00" fill="#000000">plp_performances</text>
<text text-anchor="start" x="970.0437" y="-609.8884" font-family="Helvetica,sans-Serif" font-size="11.00" fill="#000000">[table]</text>
<polygon fill="none" stroke="#000000" points="747,-579.7884 747,-601.7884 943,-601.7884 943,-579.7884 747,-579.7884"/>
<image xlink:href="../../images/foreignKeys.png" width="11px" height="12px" preserveAspectRatio="xMinYMin meet" x="752" y="-596.788"/>
<text text-anchor="start" x="767" y="-586.8884" font-family="Helvetica,sans-Serif" font-size="11.00" fill="#000000">development_database_id</text>
<polygon fill="none" stroke="#000000" points="943,-579.7884 943,-601.7884 1005,-601.7884 1005,-579.7884 943,-579.7884"/>
<text text-anchor="start" x="945.878" y="-587.4884" font-family="Helvetica,sans-Serif" font-size="11.00" fill="#000000">unknown[0]</text>
<polygon fill="none" stroke="#000000" points="747,-557.7884 747,-579.7884 943,-579.7884 943,-557.7884 747,-557.7884"/>
<text text-anchor="start" x="767" y="-564.8884" font-family="Helvetica,sans-Serif" font-size="11.00" fill="#000000">execution_date_time</text>
<polygon fill="none" stroke="#000000" points="943,-557.7884 943,-579.7884 1005,-579.7884 1005,-557.7884 943,-557.7884"/>
<text text-anchor="start" x="945.878" y="-565.4884" font-family="Helvetica,sans-Serif" font-size="11.00" fill="#000000">unknown[0]</text>
<polygon fill="none" stroke="#000000" points="747,-535.7884 747,-557.7884 943,-557.7884 943,-535.7884 747,-535.7884"/>
<text text-anchor="start" x="767" y="-542.8884" font-family="Helvetica,sans-Serif" font-size="11.00" fill="#000000">model_design_id</text>
<polygon fill="none" stroke="#000000" points="943,-535.7884 943,-557.7884 1005,-557.7884 1005,-535.7884 943,-535.7884"/>
<text text-anchor="start" x="945.878" y="-543.4884" font-family="Helvetica,sans-Serif" font-size="11.00" fill="#000000">unknown[0]</text>
<polygon fill="none" stroke="#000000" points="747,-513.7884 747,-535.7884 943,-535.7884 943,-513.7884 747,-513.7884"/>
<text text-anchor="start" x="767" y="-520.8884" font-family="Helvetica,sans-Serif" font-size="11.00" fill="#000000">model_development</text>
<polygon fill="none" stroke="#000000" points="943,-513.7884 943,-535.7884 1005,-535.7884 1005,-513.7884 943,-513.7884"/>
<text text-anchor="start" x="945.878" y="-521.4884" font-family="Helvetica,sans-Serif" font-size="11.00" fill="#000000">unknown[0]</text>
<polygon fill="none" stroke="#000000" points="747,-491.7884 747,-513.7884 943,-513.7884 943,-491.7884 747,-491.7884"/>
<image xlink:href="../../images/foreignKeys.png" width="11px" height="12px" preserveAspectRatio="xMinYMin meet" x="752" y="-508.788"/>
<text text-anchor="start" x="767" y="-498.8884" font-family="Helvetica,sans-Serif" font-size="11.00" fill="#000000">outcome_id</text>
<polygon fill="none" stroke="#000000" points="943,-491.7884 943,-513.7884 1005,-513.7884 1005,-491.7884 943,-491.7884"/>
<text text-anchor="start" x="945.878" y="-499.4884" font-family="Helvetica,sans-Serif" font-size="11.00" fill="#000000">unknown[0]</text>
<polygon fill="none" stroke="#000000" points="747,-469.7884 747,-491.7884 943,-491.7884 943,-469.7884 747,-469.7884"/>
<text text-anchor="start" x="767" y="-476.8884" font-family="Helvetica,sans-Serif" font-size="11.00" fill="#000000">performance_id</text>
<polygon fill="none" stroke="#000000" points="943,-469.7884 943,-491.7884 1005,-491.7884 1005,-469.7884 943,-469.7884"/>
<text text-anchor="start" x="945.878" y="-477.4884" font-family="Helvetica,sans-Serif" font-size="11.00" fill="#000000">unknown[0]</text>
<polygon fill="none" stroke="#000000" points="747,-447.7884 747,-469.7884 943,-469.7884 943,-447.7884 747,-447.7884"/>
<text text-anchor="start" x="767" y="-454.8884" font-family="Helvetica,sans-Serif" font-size="11.00" fill="#000000">plp_data_setting_id</text>
<polygon fill="none" stroke="#000000" points="943,-447.7884 943,-469.7884 1005,-469.7884 1005,-447.7884 943,-447.7884"/>
<text text-anchor="start" x="945.878" y="-455.4884" font-family="Helvetica,sans-Serif" font-size="11.00" fill="#000000">unknown[0]</text>
<polygon fill="none" stroke="#000000" points="747,-425.7884 747,-447.7884 943,-447.7884 943,-425.7884 747,-425.7884"/>
<text text-anchor="start" x="767" y="-432.8884" font-family="Helvetica,sans-Serif" font-size="11.00" fill="#000000">plp_version</text>
<polygon fill="none" stroke="#000000" points="943,-425.7884 943,-447.7884 1005,-447.7884 1005,-425.7884 943,-425.7884"/>
<text text-anchor="start" x="945.878" y="-433.4884" font-family="Helvetica,sans-Serif" font-size="11.00" fill="#000000">unknown[0]</text>
<polygon fill="none" stroke="#000000" points="747,-403.7884 747,-425.7884 943,-425.7884 943,-403.7884 747,-403.7884"/>
<text text-anchor="start" x="767" y="-410.8884" font-family="Helvetica,sans-Serif" font-size="11.00" fill="#000000">population_setting_id</text>
<polygon fill="none" stroke="#000000" points="943,-403.7884 943,-425.7884 1005,-425.7884 1005,-403.7884 943,-403.7884"/>
<text text-anchor="start" x="945.878" y="-411.4884" font-family="Helvetica,sans-Serif" font-size="11.00" fill="#000000">unknown[0]</text>
<polygon fill="none" stroke="#000000" points="747,-381.7884 747,-403.7884 943,-403.7884 943,-381.7884 747,-381.7884"/>
<text text-anchor="start" x="767" y="-388.8884" font-family="Helvetica,sans-Serif" font-size="11.00" fill="#000000">tar_id</text>
<polygon fill="none" stroke="#000000" points="943,-381.7884 943,-403.7884 1005,-403.7884 1005,-381.7884 943,-381.7884"/>
<text text-anchor="start" x="945.878" y="-389.4884" font-family="Helvetica,sans-Serif" font-size="11.00" fill="#000000">unknown[0]</text>
<polygon fill="none" stroke="#000000" points="747,-359.7884 747,-381.7884 943,-381.7884 943,-359.7884 747,-359.7884"/>
<image xlink:href="../../images/foreignKeys.png" width="11px" height="12px" preserveAspectRatio="xMinYMin meet" x="752" y="-376.788"/>
<text text-anchor="start" x="767" y="-366.8884" font-family="Helvetica,sans-Serif" font-size="11.00" fill="#000000">target_id</text>
<polygon fill="none" stroke="#000000" points="943,-359.7884 943,-381.7884 1005,-381.7884 1005,-359.7884 943,-359.7884"/>
<text text-anchor="start" x="945.878" y="-367.4884" font-family="Helvetica,sans-Serif" font-size="11.00" fill="#000000">unknown[0]</text>
<polygon fill="none" stroke="#000000" points="747,-337.7884 747,-359.7884 943,-359.7884 943,-337.7884 747,-337.7884"/>
<image xlink:href="../../images/foreignKeys.png" width="11px" height="12px" preserveAspectRatio="xMinYMin meet" x="752" y="-354.788"/>
<text text-anchor="start" x="767" y="-344.8884" font-family="Helvetica,sans-Serif" font-size="11.00" fill="#000000">validation_database_id</text>
<polygon fill="none" stroke="#000000" points="943,-337.7884 943,-359.7884 1005,-359.7884 1005,-337.7884 943,-337.7884"/>
<text text-anchor="start" x="945.878" y="-345.4884" font-family="Helvetica,sans-Serif" font-size="11.00" fill="#000000">unknown[0]</text>
<polygon fill="#ffffff" stroke="transparent" points="747,-318.7884 747,-337.7884 836,-337.7884 836,-318.7884 747,-318.7884"/>
<polygon fill="none" stroke="#000000" points="747,-318.7884 747,-337.7884 836,-337.7884 836,-318.7884 747,-318.7884"/>
<text text-anchor="start" x="750" y="-324.8884" font-family="Helvetica,sans-Serif" font-size="11.00" fill="#000000">&lt; 4</text>
<polygon fill="#ffffff" stroke="transparent" points="836,-318.7884 836,-337.7884 943,-337.7884 943,-318.7884 836,-318.7884"/>
<polygon fill="none" stroke="#000000" points="836,-318.7884 836,-337.7884 943,-337.7884 943,-318.7884 836,-318.7884"/>
<text text-anchor="start" x="907.6105" y="-324.8884" font-family="Helvetica,sans-Serif" font-size="11.00" fill="#000000">0 rows</text>
<polygon fill="#ffffff" stroke="transparent" points="943,-318.7884 943,-337.7884 1005,-337.7884 1005,-318.7884 943,-318.7884"/>
<polygon fill="none" stroke="#000000" points="943,-318.7884 943,-337.7884 1005,-337.7884 1005,-318.7884 943,-318.7884"/>
<text text-anchor="start" x="986.4053" y="-324.8884" font-family="Helvetica,sans-Serif" font-size="11.00" fill="#000000">0 &gt;</text>
<polygon fill="none" stroke="#000000" stroke-width="2" points="746,-317.7884 746,-625.7884 1006,-625.7884 1006,-317.7884 746,-317.7884"/>
</a>
</g>
</g>
<!-- plp_performances&#45;&gt;cg_cohort_definition -->
<g id="edge35" class="edge">
<title>plp_performances:w&#45;&gt;cg_cohort_definition:e</title>
<path fill="none" stroke="#000000" d="M732.7837,-505.8643C723.5756,-510.4116 718.5338,-518.7205 704,-521.7884 495.2663,-565.8492 435.7726,-547.5464 224,-521.7884 205.5951,-519.5498 202.0406,-511.7884 183.5,-511.7884"/>
<polygon fill="#000000" stroke="#000000" points="739.1809,-504.4802 747.7613,-506.307 743.0905,-503.6343 747,-502.7884 747,-502.7884 747,-502.7884 743.0905,-503.6343 746.2387,-499.2698 739.1809,-504.4802 739.1809,-504.4802"/>
<ellipse fill="none" stroke="#000000" cx="736.0533" cy="-505.1569" rx="3.2" ry="3.2"/>
</g>
<!-- plp_performances&#45;&gt;cg_cohort_definition -->
<g id="edge36" class="edge">
<title>plp_performances:w&#45;&gt;cg_cohort_definition:e</title>
<path fill="none" stroke="#000000" d="M732.7193,-373.404C700.1964,-388.3839 746.1965,-463.7095 704,-494.7884 657.4091,-529.1039 241.3642,-511.7884 183.5,-511.7884"/>
<polygon fill="#000000" stroke="#000000" points="739.1309,-372.2297 747.6486,-374.3295 743.0655,-371.5091 747,-370.7884 747,-370.7884 747,-370.7884 743.0655,-371.5091 746.3514,-367.2473 739.1309,-372.2297 739.1309,-372.2297"/>
<ellipse fill="none" stroke="#000000" cx="735.9833" cy="-372.8063" rx="3.2" ry="3.2"/>
</g>
<!-- plp_performances&#45;&gt;database_meta_data -->
<g id="edge34" class="edge">
<title>plp_performances:w&#45;&gt;database_meta_data:e</title>
<path fill="none" stroke="#000000" d="M733.7345,-596.5739C696.2453,-636.3521 753.693,-867.7884 696.5,-867.7884"/>
<polygon fill="#000000" stroke="#000000" points="739.6671,-593.9866 748.4392,-594.0882 743.3335,-592.3875 747,-590.7884 747,-590.7884 747,-590.7884 743.3335,-592.3875 745.5608,-587.4886 739.6671,-593.9866 739.6671,-593.9866"/>
<ellipse fill="none" stroke="#000000" cx="736.7339" cy="-595.2658" rx="3.2" ry="3.2"/>
</g>
<!-- plp_performances&#45;&gt;database_meta_data -->
<g id="edge37" class="edge">
<title>plp_performances:w&#45;&gt;database_meta_data:e</title>
<path fill="none" stroke="#000000" d="M735.5609,-357.7966C698.5236,-426.7144 749.9125,-867.7884 696.5,-867.7884"/>
<polygon fill="#000000" stroke="#000000" points="740.7149,-353.7379 749.2273,-351.6167 743.8574,-351.2632 747,-348.7884 747,-348.7884 747,-348.7884 743.8574,-351.2632 744.7727,-345.9601 740.7149,-353.7379 740.7149,-353.7379"/>
<ellipse fill="none" stroke="#000000" cx="738.2008" cy="-355.7177" rx="3.2" ry="3.2"/>
</g>
<!-- sccs_diagnostics_summary -->
<g id="node21" class="node">
<title>sccs_diagnostics_summary</title>
<g id="a_node21"><a xlink:href="../../tables/sccs_diagnostics_summary.html" xlink:title="sccs_diagnostics_summary" target="_top">
<polygon fill="#ffffff" stroke="transparent" points="766.5,-70.2884 766.5,-131.2884 985.5,-131.2884 985.5,-70.2884 766.5,-70.2884"/>
<polygon fill="#f5f5f5" stroke="transparent" points="767,-107.7884 767,-130.7884 986,-130.7884 986,-107.7884 767,-107.7884"/>
<polygon fill="none" stroke="#000000" points="767,-107.7884 767,-130.7884 986,-130.7884 986,-107.7884 767,-107.7884"/>
<text text-anchor="start" x="772" y="-116.3884" font-family="Helvetica,sans-Serif" font-weight="bold" font-size="11.00" fill="#000000">sccs_diagnostics_summary</text>
<text text-anchor="start" x="951.5219" y="-115.8884" font-family="Helvetica,sans-Serif" font-size="11.00" fill="#000000">[table]</text>
<polygon fill="none" stroke="#000000" points="767,-88.7884 767,-107.7884 986,-107.7884 986,-88.7884 767,-88.7884"/>
<text text-anchor="start" x="770" y="-94.8884" font-family="Helvetica,sans-Serif" font-size="11.00" fill="#000000">...</text>
<polygon fill="#ffffff" stroke="transparent" points="767,-69.7884 767,-88.7884 857,-88.7884 857,-69.7884 767,-69.7884"/>
<polygon fill="none" stroke="#000000" points="767,-69.7884 767,-88.7884 857,-88.7884 857,-69.7884 767,-69.7884"/>
<text text-anchor="start" x="770" y="-75.8884" font-family="Helvetica,sans-Serif" font-size="11.00" fill="#000000">&lt; 7</text>
<polygon fill="#ffffff" stroke="transparent" points="857,-69.7884 857,-88.7884 930,-88.7884 930,-69.7884 857,-69.7884"/>
<polygon fill="none" stroke="#000000" points="857,-69.7884 857,-88.7884 930,-88.7884 930,-69.7884 857,-69.7884"/>
<text text-anchor="start" x="894.6105" y="-75.8884" font-family="Helvetica,sans-Serif" font-size="11.00" fill="#000000">0 rows</text>
<polygon fill="#ffffff" stroke="transparent" points="930,-69.7884 930,-88.7884 986,-88.7884 986,-69.7884 930,-69.7884"/>
<polygon fill="none" stroke="#000000" points="930,-69.7884 930,-88.7884 986,-88.7884 986,-69.7884 930,-69.7884"/>
<text text-anchor="start" x="967.4053" y="-75.8884" font-family="Helvetica,sans-Serif" font-size="11.00" fill="#000000">4 &gt;</text>
</a>
</g>
</g>
<!-- sccs_diagnostics_summary&#45;&gt;database_meta_data -->
<g id="edge38" class="edge">
<title>sccs_diagnostics_summary:w&#45;&gt;database_meta_data:e</title>
<path fill="none" stroke="#000000" d="M753.0877,-101.737C743.3977,-108.9738 742.6436,-125.1532 737,-141.7884 724.0219,-180.0429 736.896,-867.7884 696.5,-867.7884"/>
<polygon fill="#000000" stroke="#000000" points="759.304,-99.9727 767.983,-101.2516 763.152,-98.8806 767,-97.7884 767,-97.7884 767,-97.7884 763.152,-98.8806 766.017,-94.3252 759.304,-99.9727 759.304,-99.9727"/>
<ellipse fill="none" stroke="#000000" cx="756.2256" cy="-100.8465" rx="3.2" ry="3.2"/>
</g>
<!-- sccs_exposures_outcome_set -->
<g id="node22" class="node">
<title>sccs_exposures_outcome_set</title>
<g id="a_node22"><a xlink:href="../../tables/sccs_exposures_outcome_set.html" xlink:title="sccs_exposures_outcome_set" target="_top">
<polygon fill="#ffffff" stroke="transparent" points="456.5,-70.2884 456.5,-131.2884 690.5,-131.2884 690.5,-70.2884 456.5,-70.2884"/>
<polygon fill="#f5f5f5" stroke="transparent" points="456.5,-107.7884 456.5,-130.7884 690.5,-130.7884 690.5,-107.7884 456.5,-107.7884"/>
<polygon fill="none" stroke="#000000" points="456.5,-107.7884 456.5,-130.7884 690.5,-130.7884 690.5,-107.7884 456.5,-107.7884"/>
<text text-anchor="start" x="461.5" y="-116.3884" font-family="Helvetica,sans-Serif" font-weight="bold" font-size="11.00" fill="#000000">sccs_exposures_outcome_set</text>
<text text-anchor="start" x="656.0219" y="-115.8884" font-family="Helvetica,sans-Serif" font-size="11.00" fill="#000000">[table]</text>
<polygon fill="none" stroke="#000000" points="456.5,-88.7884 456.5,-107.7884 690.5,-107.7884 690.5,-88.7884 456.5,-88.7884"/>
<text text-anchor="start" x="459.5" y="-94.8884" font-family="Helvetica,sans-Serif" font-size="11.00" fill="#000000">...</text>
<polygon fill="#ffffff" stroke="transparent" points="456.5,-69.7884 456.5,-88.7884 551.5,-88.7884 551.5,-69.7884 456.5,-69.7884"/>
<polygon fill="none" stroke="#000000" points="456.5,-69.7884 456.5,-88.7884 551.5,-88.7884 551.5,-69.7884 456.5,-69.7884"/>
<text text-anchor="start" x="459.5" y="-75.8884" font-family="Helvetica,sans-Serif" font-size="11.00" fill="#000000">&lt; 3</text>
<polygon fill="#ffffff" stroke="transparent" points="551.5,-69.7884 551.5,-88.7884 626.5,-88.7884 626.5,-69.7884 551.5,-69.7884"/>
<polygon fill="none" stroke="#000000" points="551.5,-69.7884 551.5,-88.7884 626.5,-88.7884 626.5,-69.7884 551.5,-69.7884"/>
<text text-anchor="start" x="591.1105" y="-75.8884" font-family="Helvetica,sans-Serif" font-size="11.00" fill="#000000">0 rows</text>
<polygon fill="#ffffff" stroke="transparent" points="626.5,-69.7884 626.5,-88.7884 690.5,-88.7884 690.5,-69.7884 626.5,-69.7884"/>
<polygon fill="none" stroke="#000000" points="626.5,-69.7884 626.5,-88.7884 690.5,-88.7884 690.5,-69.7884 626.5,-69.7884"/>
<text text-anchor="start" x="665.7904" y="-75.8884" font-family="Helvetica,sans-Serif" font-size="11.00" fill="#000000">10 &gt;</text>
</a>
</g>
</g>
<!-- sccs_diagnostics_summary&#45;&gt;sccs_exposures_outcome_set -->
<g id="edge39" class="edge">
<title>sccs_diagnostics_summary:w&#45;&gt;sccs_exposures_outcome_set:e</title>
<path fill="none" stroke="#000000" d="M752.4168,-97.7884C729.6233,-97.7884 719.0547,-97.7884 690.5,-97.7884"/>
<polygon fill="#000000" stroke="#000000" points="759,-97.7885 767,-101.3884 763,-97.7884 767,-97.7884 767,-97.7884 767,-97.7884 763,-97.7884 767,-94.1884 759,-97.7885 759,-97.7885"/>
<ellipse fill="none" stroke="#000000" cx="755.8" cy="-97.7885" rx="3.2" ry="3.2"/>
</g>
<!-- sccs_exposures_outcome_set&#45;&gt;cg_cohort_definition -->
<g id="edge40" class="edge">
<title>sccs_exposures_outcome_set:w&#45;&gt;cg_cohort_definition:e</title>
<path fill="none" stroke="#000000" d="M441.8723,-99.025C361.9274,-114.228 484.1688,-265.7241 410,-336.7884 349.6374,-394.6244 286.5351,-309.3086 224,-364.7884 173.3068,-409.7623 251.2676,-511.7884 183.5,-511.7884"/>
<polygon fill="#000000" stroke="#000000" points="448.5284,-98.4623 456.8033,-101.3756 452.5142,-98.1254 456.5,-97.7884 456.5,-97.7884 456.5,-97.7884 452.5142,-98.1254 456.1967,-94.2012 448.5284,-98.4623 448.5284,-98.4623"/>
<ellipse fill="none" stroke="#000000" cx="445.3398" cy="-98.7319" rx="3.2" ry="3.2"/>
</g>
<!-- sccs_result -->
<g id="node23" class="node">
<title>sccs_result</title>
<g id="a_node23"><a xlink:href="../../tables/sccs_result.html" xlink:title="sccs_result" target="_top">
<polygon fill="#ffffff" stroke="transparent" points="1101,-70.2884 1101,-131.2884 1214,-131.2884 1214,-70.2884 1101,-70.2884"/>
<polygon fill="#f5f5f5" stroke="transparent" points="1101.5,-107.7884 1101.5,-130.7884 1214.5,-130.7884 1214.5,-107.7884 1101.5,-107.7884"/>
<polygon fill="none" stroke="#000000" points="1101.5,-107.7884 1101.5,-130.7884 1214.5,-130.7884 1214.5,-107.7884 1101.5,-107.7884"/>
<text text-anchor="start" x="1106.5" y="-116.3884" font-family="Helvetica,sans-Serif" font-weight="bold" font-size="11.00" fill="#000000">sccs_result</text>
<text text-anchor="start" x="1180.0219" y="-115.8884" font-family="Helvetica,sans-Serif" font-size="11.00" fill="#000000">[table]</text>
<polygon fill="none" stroke="#000000" points="1101.5,-88.7884 1101.5,-107.7884 1214.5,-107.7884 1214.5,-88.7884 1101.5,-88.7884"/>
<text text-anchor="start" x="1104.5" y="-94.8884" font-family="Helvetica,sans-Serif" font-size="11.00" fill="#000000">...</text>
<polygon fill="#ffffff" stroke="transparent" points="1101.5,-69.7884 1101.5,-88.7884 1146.5,-88.7884 1146.5,-69.7884 1101.5,-69.7884"/>
<polygon fill="none" stroke="#000000" points="1101.5,-69.7884 1101.5,-88.7884 1146.5,-88.7884 1146.5,-69.7884 1101.5,-69.7884"/>
<text text-anchor="start" x="1104.5" y="-75.8884" font-family="Helvetica,sans-Serif" font-size="11.00" fill="#000000">&lt; 12</text>
<polygon fill="#ffffff" stroke="transparent" points="1146.5,-69.7884 1146.5,-88.7884 1193.5,-88.7884 1193.5,-69.7884 1146.5,-69.7884"/>
<polygon fill="none" stroke="#000000" points="1146.5,-69.7884 1146.5,-88.7884 1193.5,-88.7884 1193.5,-69.7884 1146.5,-69.7884"/>
<text text-anchor="start" x="1158.1105" y="-75.8884" font-family="Helvetica,sans-Serif" font-size="11.00" fill="#000000">0 rows</text>
<polygon fill="#ffffff" stroke="transparent" points="1193.5,-69.7884 1193.5,-88.7884 1214.5,-88.7884 1214.5,-69.7884 1193.5,-69.7884"/>
<polygon fill="none" stroke="#000000" points="1193.5,-69.7884 1193.5,-88.7884 1214.5,-88.7884 1214.5,-69.7884 1193.5,-69.7884"/>
<text text-anchor="start" x="1205.3862" y="-75.8884" font-family="Helvetica,sans-Serif" font-size="11.00" fill="#000000"> &#160;</text>
</a>
</g>
</g>
<!-- sccs_result&#45;&gt;database_meta_data -->
<g id="edge43" class="edge">
<title>sccs_result:w&#45;&gt;database_meta_data:e</title>
<path fill="none" stroke="#000000" d="M1086.9053,-99.7128C955.7569,-136.6854 1123.9263,-695.2192 1015,-801.7884 970.6179,-845.2101 793.5161,-804.0758 737,-829.7884 714.5332,-840.0099 721.1827,-867.7884 696.5,-867.7884"/>
<polygon fill="#000000" stroke="#000000" points="1093.5686,-98.8342 1101.9706,-101.3575 1097.5343,-98.3113 1101.5,-97.7884 1101.5,-97.7884 1101.5,-97.7884 1097.5343,-98.3113 1101.0294,-94.2193 1093.5686,-98.8342 1093.5686,-98.8342"/>
<ellipse fill="none" stroke="#000000" cx="1090.3961" cy="-99.2526" rx="3.2" ry="3.2"/>
</g>
<!-- sccs_result&#45;&gt;sccs_diagnostics_summary -->
<g id="edge41" class="edge">
<title>sccs_result:w&#45;&gt;sccs_diagnostics_summary:e</title>
<path fill="none" stroke="#000000" d="M1087.7521,-92.8554C1047.3577,-78.9624 1032.4206,-80.6068 986,-97.7884"/>
<polygon fill="#000000" stroke="#000000" points="1093.9701,-95.0865 1100.2841,-101.1769 1097.735,-96.4374 1101.5,-97.7884 1101.5,-97.7884 1101.5,-97.7884 1097.735,-96.4374 1102.7159,-94.3999 1093.9701,-95.0865 1093.9701,-95.0865"/>
<ellipse fill="none" stroke="#000000" cx="1090.9581" cy="-94.0057" rx="3.2" ry="3.2"/>
</g>
<!-- sccs_result&#45;&gt;sccs_diagnostics_summary -->
<g id="edge42" class="edge">
<title>sccs_result:w&#45;&gt;sccs_diagnostics_summary:e</title>
<path fill="none" stroke="#000000" d="M1086.9701,-96.1459C1047.1628,-91.8503 1032.1198,-92.3978 986,-97.7884"/>
<polygon fill="#000000" stroke="#000000" points="1093.5506,-96.8898 1101.0956,-101.3656 1097.5253,-97.3391 1101.5,-97.7884 1101.5,-97.7884 1101.5,-97.7884 1097.5253,-97.3391 1101.9044,-94.2112 1093.5506,-96.8898 1093.5506,-96.8898"/>
<ellipse fill="none" stroke="#000000" cx="1090.3709" cy="-96.5303" rx="3.2" ry="3.2"/>
</g>
<!-- sccs_result&#45;&gt;sccs_diagnostics_summary -->
<g id="edge44" class="edge">
<title>sccs_result:w&#45;&gt;sccs_diagnostics_summary:e</title>
<path fill="none" stroke="#000000" d="M1086.9701,-99.7046C1047.1628,-104.7162 1032.1198,-104.0775 986,-97.7884"/>
<polygon fill="#000000" stroke="#000000" points="1093.5687,-98.8344 1101.9707,-101.3575 1097.5343,-98.3114 1101.5,-97.7884 1101.5,-97.7884 1101.5,-97.7884 1097.5343,-98.3114 1101.0293,-94.2193 1093.5687,-98.8344 1093.5687,-98.8344"/>
<ellipse fill="none" stroke="#000000" cx="1090.3961" cy="-99.2528" rx="3.2" ry="3.2"/>
</g>
<!-- sccs_result&#45;&gt;sccs_diagnostics_summary -->
<g id="edge45" class="edge">
<title>sccs_result:w&#45;&gt;sccs_diagnostics_summary:e</title>
<path fill="none" stroke="#000000" d="M1088.0142,-102.8861C1047.422,-117.6126 1032.5208,-115.9134 986,-97.7884"/>
<polygon fill="#000000" stroke="#000000" points="1094.0168,-100.6171 1102.7729,-101.1558 1097.7584,-99.2028 1101.5,-97.7884 1101.5,-97.7884 1101.5,-97.7884 1097.7584,-99.2028 1100.2271,-94.4209 1094.0168,-100.6171 1094.0168,-100.6171"/>
<ellipse fill="none" stroke="#000000" cx="1091.0235" cy="-101.7486" rx="3.2" ry="3.2"/>
</g>
<!-- sccs_result&#45;&gt;sccs_exposures_outcome_set -->
<g id="edge46" class="edge">
<title>sccs_result:w&#45;&gt;sccs_exposures_outcome_set:e</title>
<path fill="none" stroke="#000000" d="M1087.0211,-96.4316C1058.0029,-90.5608 1050.7972,-67.3047 1015,-59.7884 894.0812,-34.3992 853.3762,-18.2848 737,-59.7884 711.861,-68.7538 717.1898,-97.7884 690.5,-97.7884"/>
<polygon fill="#000000" stroke="#000000" points="1093.5349,-97.0419 1101.1641,-101.3727 1097.5174,-97.4152 1101.5,-97.7884 1101.5,-97.7884 1101.5,-97.7884 1097.5174,-97.4152 1101.8359,-94.2041 1093.5349,-97.0419 1093.5349,-97.0419"/>
<ellipse fill="none" stroke="#000000" cx="1090.3489" cy="-96.7433" rx="3.2" ry="3.2"/>
</g>
</g>
</svg>
