<?xml version="1.0" encoding="UTF-8" standalone="no"?>
<!DOCTYPE svg PUBLIC "-//W3C//DTD SVG 1.1//EN"
 "http://www.w3.org/Graphics/SVG/1.1/DTD/svg11.dtd">
<!-- Generated by graphviz version 2.40.1 (20161225.0304)
 -->
<!-- Title: oneDegreeRelationshipsDiagram Pages: 1 -->
<svg width="580pt" height="360pt"
 viewBox="0.00 0.00 580.00 360.20" xmlns="http://www.w3.org/2000/svg" xmlns:xlink="http://www.w3.org/1999/xlink">
<g id="graph0" class="graph" transform="scale(1 1) rotate(0) translate(4 356.2)">
<title>oneDegreeRelationshipsDiagram</title>
<polygon fill="#ffffff" stroke="transparent" points="-4,4 -4,-356.2 576,-356.2 576,4 -4,4"/>
<text text-anchor="middle" x="72.4936" y="-7.3" font-family="Helvetica,sans-Serif" font-size="11.00" fill="#000000">Generated by SchemaSpy</text>
<!-- plp_performances -->
<g id="node1" class="node">
<title>plp_performances</title>
<g id="a_node1"><a xlink:href="../../tables/plp_performances.html" xlink:title="plp_performances" target="_top">
<polygon fill="#ffffff" stroke="transparent" points="302,-38.2 302,-348.2 564,-348.2 564,-38.2 302,-38.2"/>
<polygon fill="#f5f5f5" stroke="transparent" points="304,-323.2 304,-346.2 562,-346.2 562,-323.2 304,-323.2"/>
<polygon fill="none" stroke="#000000" points="304,-323.2 304,-346.2 562,-346.2 562,-323.2 304,-323.2"/>
<text text-anchor="start" x="309" y="-331.8" font-family="Helvetica,sans-Serif" font-weight="bold" font-size="11.00" fill="#000000">plp_performances</text>
<text text-anchor="start" x="527.0437" y="-331.3" font-family="Helvetica,sans-Serif" font-size="11.00" fill="#000000">[table]</text>
<polygon fill="none" stroke="#000000" points="304,-301.2 304,-323.2 500,-323.2 500,-301.2 304,-301.2"/>
<image xlink:href="../../images/foreignKeys.png" width="11px" height="12px" preserveAspectRatio="xMinYMin meet" x="309" y="-318.2"/>
<text text-anchor="start" x="324" y="-308.3" font-family="Helvetica,sans-Serif" font-size="11.00" fill="#000000">development_database_id</text>
<polygon fill="none" stroke="#000000" points="500,-301.2 500,-323.2 562,-323.2 562,-301.2 500,-301.2"/>
<text text-anchor="start" x="502.878" y="-308.9" font-family="Helvetica,sans-Serif" font-size="11.00" fill="#000000">unknown[0]</text>
<polygon fill="none" stroke="#000000" points="304,-279.2 304,-301.2 500,-301.2 500,-279.2 304,-279.2"/>
<text text-anchor="start" x="324" y="-286.3" font-family="Helvetica,sans-Serif" font-size="11.00" fill="#000000">execution_date_time</text>
<polygon fill="none" stroke="#000000" points="500,-279.2 500,-301.2 562,-301.2 562,-279.2 500,-279.2"/>
<text text-anchor="start" x="502.878" y="-286.9" font-family="Helvetica,sans-Serif" font-size="11.00" fill="#000000">unknown[0]</text>
<polygon fill="none" stroke="#000000" points="304,-257.2 304,-279.2 500,-279.2 500,-257.2 304,-257.2"/>
<text text-anchor="start" x="324" y="-264.3" font-family="Helvetica,sans-Serif" font-size="11.00" fill="#000000">model_design_id</text>
<polygon fill="none" stroke="#000000" points="500,-257.2 500,-279.2 562,-279.2 562,-257.2 500,-257.2"/>
<text text-anchor="start" x="502.878" y="-264.9" font-family="Helvetica,sans-Serif" font-size="11.00" fill="#000000">unknown[0]</text>
<polygon fill="none" stroke="#000000" points="304,-235.2 304,-257.2 500,-257.2 500,-235.2 304,-235.2"/>
<text text-anchor="start" x="324" y="-242.3" font-family="Helvetica,sans-Serif" font-size="11.00" fill="#000000">model_development</text>
<polygon fill="none" stroke="#000000" points="500,-235.2 500,-257.2 562,-257.2 562,-235.2 500,-235.2"/>
<text text-anchor="start" x="502.878" y="-242.9" font-family="Helvetica,sans-Serif" font-size="11.00" fill="#000000">unknown[0]</text>
<polygon fill="none" stroke="#000000" points="304,-213.2 304,-235.2 500,-235.2 500,-213.2 304,-213.2"/>
<image xlink:href="../../images/foreignKeys.png" width="11px" height="12px" preserveAspectRatio="xMinYMin meet" x="309" y="-230.2"/>
<text text-anchor="start" x="324" y="-220.3" font-family="Helvetica,sans-Serif" font-size="11.00" fill="#000000">outcome_id</text>
<polygon fill="none" stroke="#000000" points="500,-213.2 500,-235.2 562,-235.2 562,-213.2 500,-213.2"/>
<text text-anchor="start" x="502.878" y="-220.9" font-family="Helvetica,sans-Serif" font-size="11.00" fill="#000000">unknown[0]</text>
<polygon fill="none" stroke="#000000" points="304,-191.2 304,-213.2 500,-213.2 500,-191.2 304,-191.2"/>
<text text-anchor="start" x="324" y="-198.3" font-family="Helvetica,sans-Serif" font-size="11.00" fill="#000000">performance_id</text>
<polygon fill="none" stroke="#000000" points="500,-191.2 500,-213.2 562,-213.2 562,-191.2 500,-191.2"/>
<text text-anchor="start" x="502.878" y="-198.9" font-family="Helvetica,sans-Serif" font-size="11.00" fill="#000000">unknown[0]</text>
<polygon fill="none" stroke="#000000" points="304,-169.2 304,-191.2 500,-191.2 500,-169.2 304,-169.2"/>
<text text-anchor="start" x="324" y="-176.3" font-family="Helvetica,sans-Serif" font-size="11.00" fill="#000000">plp_data_setting_id</text>
<polygon fill="none" stroke="#000000" points="500,-169.2 500,-191.2 562,-191.2 562,-169.2 500,-169.2"/>
<text text-anchor="start" x="502.878" y="-176.9" font-family="Helvetica,sans-Serif" font-size="11.00" fill="#000000">unknown[0]</text>
<polygon fill="none" stroke="#000000" points="304,-147.2 304,-169.2 500,-169.2 500,-147.2 304,-147.2"/>
<text text-anchor="start" x="324" y="-154.3" font-family="Helvetica,sans-Serif" font-size="11.00" fill="#000000">plp_version</text>
<polygon fill="none" stroke="#000000" points="500,-147.2 500,-169.2 562,-169.2 562,-147.2 500,-147.2"/>
<text text-anchor="start" x="502.878" y="-154.9" font-family="Helvetica,sans-Serif" font-size="11.00" fill="#000000">unknown[0]</text>
<polygon fill="none" stroke="#000000" points="304,-125.2 304,-147.2 500,-147.2 500,-125.2 304,-125.2"/>
<text text-anchor="start" x="324" y="-132.3" font-family="Helvetica,sans-Serif" font-size="11.00" fill="#000000">population_setting_id</text>
<polygon fill="none" stroke="#000000" points="500,-125.2 500,-147.2 562,-147.2 562,-125.2 500,-125.2"/>
<text text-anchor="start" x="502.878" y="-132.9" font-family="Helvetica,sans-Serif" font-size="11.00" fill="#000000">unknown[0]</text>
<polygon fill="none" stroke="#000000" points="304,-103.2 304,-125.2 500,-125.2 500,-103.2 304,-103.2"/>
<text text-anchor="start" x="324" y="-110.3" font-family="Helvetica,sans-Serif" font-size="11.00" fill="#000000">tar_id</text>
<polygon fill="none" stroke="#000000" points="500,-103.2 500,-125.2 562,-125.2 562,-103.2 500,-103.2"/>
<text text-anchor="start" x="502.878" y="-110.9" font-family="Helvetica,sans-Serif" font-size="11.00" fill="#000000">unknown[0]</text>
<polygon fill="none" stroke="#000000" points="304,-81.2 304,-103.2 500,-103.2 500,-81.2 304,-81.2"/>
<image xlink:href="../../images/foreignKeys.png" width="11px" height="12px" preserveAspectRatio="xMinYMin meet" x="309" y="-98.2"/>
<text text-anchor="start" x="324" y="-88.3" font-family="Helvetica,sans-Serif" font-size="11.00" fill="#000000">target_id</text>
<polygon fill="none" stroke="#000000" points="500,-81.2 500,-103.2 562,-103.2 562,-81.2 500,-81.2"/>
<text text-anchor="start" x="502.878" y="-88.9" font-family="Helvetica,sans-Serif" font-size="11.00" fill="#000000">unknown[0]</text>
<polygon fill="none" stroke="#000000" points="304,-59.2 304,-81.2 500,-81.2 500,-59.2 304,-59.2"/>
<image xlink:href="../../images/foreignKeys.png" width="11px" height="12px" preserveAspectRatio="xMinYMin meet" x="309" y="-76.2"/>
<text text-anchor="start" x="324" y="-66.3" font-family="Helvetica,sans-Serif" font-size="11.00" fill="#000000">validation_database_id</text>
<polygon fill="none" stroke="#000000" points="500,-59.2 500,-81.2 562,-81.2 562,-59.2 500,-59.2"/>
<text text-anchor="start" x="502.878" y="-66.9" font-family="Helvetica,sans-Serif" font-size="11.00" fill="#000000">unknown[0]</text>
<polygon fill="#ffffff" stroke="transparent" points="304,-40.2 304,-59.2 393,-59.2 393,-40.2 304,-40.2"/>
<polygon fill="none" stroke="#000000" points="304,-40.2 304,-59.2 393,-59.2 393,-40.2 304,-40.2"/>
<text text-anchor="start" x="307" y="-46.3" font-family="Helvetica,sans-Serif" font-size="11.00" fill="#000000">&lt; 4</text>
<polygon fill="#ffffff" stroke="transparent" points="393,-40.2 393,-59.2 500,-59.2 500,-40.2 393,-40.2"/>
<polygon fill="none" stroke="#000000" points="393,-40.2 393,-59.2 500,-59.2 500,-40.2 393,-40.2"/>
<text text-anchor="start" x="464.6105" y="-46.3" font-family="Helvetica,sans-Serif" font-size="11.00" fill="#000000">0 rows</text>
<polygon fill="#ffffff" stroke="transparent" points="500,-40.2 500,-59.2 562,-59.2 562,-40.2 500,-40.2"/>
<polygon fill="none" stroke="#000000" points="500,-40.2 500,-59.2 562,-59.2 562,-40.2 500,-40.2"/>
<text text-anchor="start" x="543.4053" y="-46.3" font-family="Helvetica,sans-Serif" font-size="11.00" fill="#000000">0 &gt;</text>
<polygon fill="none" stroke="#000000" stroke-width="2" points="303,-39.2 303,-347.2 563,-347.2 563,-39.2 303,-39.2"/>
</a>
</g>
</g>
<!-- database_meta_data -->
<g id="node2" class="node">
<title>database_meta_data</title>
<g id="a_node2"><a xlink:href="../../tables/database_meta_data.html" xlink:title="database_meta_data" target="_top">
<polygon fill="#ffffff" stroke="transparent" points="8,-234.7 8,-317.7 253,-317.7 253,-234.7 8,-234.7"/>
<polygon fill="#f5f5f5" stroke="transparent" points="8.5,-294.2 8.5,-317.2 253.5,-317.2 253.5,-294.2 8.5,-294.2"/>
<polygon fill="none" stroke="#000000" points="8.5,-294.2 8.5,-317.2 253.5,-317.2 253.5,-294.2 8.5,-294.2"/>
<text text-anchor="start" x="13.5" y="-302.8" font-family="Helvetica,sans-Serif" font-weight="bold" font-size="11.00" fill="#000000">database_meta_data</text>
<text text-anchor="start" x="218.5437" y="-302.3" font-family="Helvetica,sans-Serif" font-size="11.00" fill="#000000">[table]</text>
<polygon fill="none" stroke="#000000" points="8.5,-272.2 8.5,-294.2 253.5,-294.2 253.5,-272.2 8.5,-272.2"/>
<image xlink:href="../../images/primaryKeys.png" width="11px" height="12px" preserveAspectRatio="xMinYMin meet" x="13.5" y="-289.2"/>
<text text-anchor="start" x="28.5" y="-279.3" font-family="Helvetica,sans-Serif" font-size="11.00" fill="#000000">database_id</text>
<polygon fill="none" stroke="#000000" points="8.5,-253.2 8.5,-272.2 253.5,-272.2 253.5,-253.2 8.5,-253.2"/>
<text text-anchor="start" x="11.5" y="-259.3" font-family="Helvetica,sans-Serif" font-size="11.00" fill="#000000">...</text>
<polygon fill="#ffffff" stroke="transparent" points="8.5,-234.2 8.5,-253.2 108.5,-253.2 108.5,-234.2 8.5,-234.2"/>
<polygon fill="none" stroke="#000000" points="8.5,-234.2 8.5,-253.2 108.5,-253.2 108.5,-234.2 8.5,-234.2"/>
<text text-anchor="start" x="11.5" y="-240.3" font-family="Helvetica,sans-Serif" font-size="11.00" fill="#000000">&lt; 1</text>
<polygon fill="#ffffff" stroke="transparent" points="108.5,-234.2 108.5,-253.2 186.5,-253.2 186.5,-234.2 108.5,-234.2"/>
<polygon fill="none" stroke="#000000" points="108.5,-234.2 108.5,-253.2 186.5,-253.2 186.5,-234.2 108.5,-234.2"/>
<text text-anchor="start" x="151.1105" y="-240.3" font-family="Helvetica,sans-Serif" font-size="11.00" fill="#000000">0 rows</text>
<polygon fill="#ffffff" stroke="transparent" points="186.5,-234.2 186.5,-253.2 253.5,-253.2 253.5,-234.2 186.5,-234.2"/>
<polygon fill="none" stroke="#000000" points="186.5,-234.2 186.5,-253.2 253.5,-253.2 253.5,-234.2 186.5,-234.2"/>
<text text-anchor="start" x="228.7904" y="-240.3" font-family="Helvetica,sans-Serif" font-size="11.00" fill="#000000">17 &gt;</text>
</a>
</g>
</g>
<!-- plp_performances&#45;&gt;database_meta_data -->
<g id="edge1" class="edge">
<title>plp_performances:w&#45;&gt;database_meta_data:e</title>
<path fill="none" stroke="#000000" d="M289.9572,-308.4088C277.2973,-300.548 273.5181,-283.2 253.5,-283.2"/>
<polygon fill="#000000" stroke="#000000" points="296.2765,-310.1148 303.0617,-315.6756 300.1383,-311.1574 304,-312.2 304,-312.2 304,-312.2 300.1383,-311.1574 304.9383,-308.7244 296.2765,-310.1148 296.2765,-310.1148"/>
<ellipse fill="none" stroke="#000000" cx="293.1871" cy="-309.2807" rx="3.2" ry="3.2"/>
</g>
<!-- plp_performances&#45;&gt;database_meta_data -->
<g id="edge4" class="edge">
<title>plp_performances:w&#45;&gt;database_meta_data:e</title>
<path fill="none" stroke="#000000" d="M289.7035,-72.1726C222.2565,-93.6456 345.2803,-283.2 253.5,-283.2"/>
<polygon fill="#000000" stroke="#000000" points="296.0751,-71.2935 304.4921,-73.7662 300.0375,-70.7468 304,-70.2 304,-70.2 304,-70.2 300.0375,-70.7468 303.5079,-66.6338 296.0751,-71.2935 296.0751,-71.2935"/>
<ellipse fill="none" stroke="#000000" cx="292.9051" cy="-71.7309" rx="3.2" ry="3.2"/>
</g>
<!-- cg_cohort_definition -->
<g id="node3" class="node">
<title>cg_cohort_definition</title>
<g id="a_node3"><a xlink:href="../../tables/cg_cohort_definition.html" xlink:title="cg_cohort_definition" target="_top">
<polygon fill="#ffffff" stroke="transparent" points="43,-72.7 43,-155.7 218,-155.7 218,-72.7 43,-72.7"/>
<polygon fill="#f5f5f5" stroke="transparent" points="43.5,-132.2 43.5,-155.2 218.5,-155.2 218.5,-132.2 43.5,-132.2"/>
<polygon fill="none" stroke="#000000" points="43.5,-132.2 43.5,-155.2 218.5,-155.2 218.5,-132.2 43.5,-132.2"/>
<text text-anchor="start" x="48.5" y="-140.8" font-family="Helvetica,sans-Serif" font-weight="bold" font-size="11.00" fill="#000000">cg_cohort_definition</text>
<text text-anchor="start" x="184.0219" y="-140.3" font-family="Helvetica,sans-Serif" font-size="11.00" fill="#000000">[table]</text>
<polygon fill="none" stroke="#000000" points="43.5,-110.2 43.5,-132.2 218.5,-132.2 218.5,-110.2 43.5,-110.2"/>
<image xlink:href="../../images/primaryKeys.png" width="11px" height="12px" preserveAspectRatio="xMinYMin meet" x="48.5" y="-127.2"/>
<text text-anchor="start" x="72.5" y="-117.3" font-family="Helvetica,sans-Serif" font-size="11.00" fill="#000000">cohort_definition_id</text>
<polygon fill="none" stroke="#000000" points="43.5,-91.2 43.5,-110.2 218.5,-110.2 218.5,-91.2 43.5,-91.2"/>
<text text-anchor="start" x="46.5" y="-97.3" font-family="Helvetica,sans-Serif" font-size="11.00" fill="#000000">...</text>
<polygon fill="#ffffff" stroke="transparent" points="43.5,-72.2 43.5,-91.2 104.5,-91.2 104.5,-72.2 43.5,-72.2"/>
<polygon fill="none" stroke="#000000" points="43.5,-72.2 43.5,-91.2 104.5,-91.2 104.5,-72.2 43.5,-72.2"/>
<text text-anchor="start" x="46.5" y="-78.3" font-family="Helvetica,sans-Serif" font-size="11.00" fill="#000000"> &#160;</text>
<polygon fill="#ffffff" stroke="transparent" points="104.5,-72.2 104.5,-91.2 166.5,-91.2 166.5,-72.2 104.5,-72.2"/>
<polygon fill="none" stroke="#000000" points="104.5,-72.2 104.5,-91.2 166.5,-91.2 166.5,-72.2 104.5,-72.2"/>
<text text-anchor="start" x="131.1105" y="-78.3" font-family="Helvetica,sans-Serif" font-size="11.00" fill="#000000">0 rows</text>
<polygon fill="#ffffff" stroke="transparent" points="166.5,-72.2 166.5,-91.2 218.5,-91.2 218.5,-72.2 166.5,-72.2"/>
<polygon fill="none" stroke="#000000" points="166.5,-72.2 166.5,-91.2 218.5,-91.2 218.5,-72.2 166.5,-72.2"/>
<text text-anchor="start" x="193.7904" y="-78.3" font-family="Helvetica,sans-Serif" font-size="11.00" fill="#000000">17 &gt;</text>
</a>
</g>
</g>
<!-- plp_performances&#45;&gt;cg_cohort_definition -->
<g id="edge2" class="edge">
<title>plp_performances:w&#45;&gt;cg_cohort_definition:e</title>
<path fill="none" stroke="#000000" d="M289.5656,-221.6539C249.9674,-205.7928 272.417,-121.2 218.5,-121.2"/>
<polygon fill="#000000" stroke="#000000" points="296.1216,-222.8103 303.3746,-227.7453 300.0608,-223.5051 304,-224.2 304,-224.2 304,-224.2 300.0608,-223.5051 304.6254,-220.6547 296.1216,-222.8103 296.1216,-222.8103"/>
<ellipse fill="none" stroke="#000000" cx="292.9703" cy="-222.2544" rx="3.2" ry="3.2"/>
</g>
<!-- plp_performances&#45;&gt;cg_cohort_definition -->
<g id="edge3" class="edge">
<title>plp_performances:w&#45;&gt;cg_cohort_definition:e</title>
<path fill="none" stroke="#000000" d="M289.3195,-93.678C261.7869,-99.5876 253.1403,-121.2 218.5,-121.2"/>
<polygon fill="#000000" stroke="#000000" points="296.0402,-93.0014 304.3606,-95.7819 300.0201,-92.6007 304,-92.2 304,-92.2 304,-92.2 300.0201,-92.6007 303.6394,-88.6181 296.0402,-93.0014 296.0402,-93.0014"/>
<ellipse fill="none" stroke="#000000" cx="292.8563" cy="-93.322" rx="3.2" ry="3.2"/>
</g>
</g>
</svg>
