<?xml version="1.0" encoding="UTF-8" standalone="no"?>
<!DOCTYPE svg PUBLIC "-//W3C//DTD SVG 1.1//EN"
 "http://www.w3.org/Graphics/SVG/1.1/DTD/svg11.dtd">
<!-- Generated by graphviz version 2.40.1 (20161225.0304)
 -->
<!-- Title: oneDegreeRelationshipsDiagram Pages: 1 -->
<svg width="539pt" height="228pt"
 viewBox="0.00 0.00 539.00 228.20" xmlns="http://www.w3.org/2000/svg" xmlns:xlink="http://www.w3.org/1999/xlink">
<g id="graph0" class="graph" transform="scale(1 1) rotate(0) translate(4 224.2)">
<title>oneDegreeRelationshipsDiagram</title>
<polygon fill="#ffffff" stroke="transparent" points="-4,4 -4,-224.2 535,-224.2 535,4 -4,4"/>
<text text-anchor="middle" x="72.4936" y="-7.3" font-family="Helvetica,sans-Serif" font-size="11.00" fill="#000000">Generated by SchemaSpy</text>
<!-- sccs_covariate_result -->
<g id="node1" class="node">
<title>sccs_covariate_result</title>
<g id="a_node1"><a xlink:href="../../tables/sccs_covariate_result.html" xlink:title="sccs_covariate_result" target="_top">
<polygon fill="#ffffff" stroke="transparent" points="323,-65.7 323,-214.7 523,-214.7 523,-65.7 323,-65.7"/>
<polygon fill="#f5f5f5" stroke="transparent" points="323,-191.2 323,-214.2 523,-214.2 523,-191.2 323,-191.2"/>
<polygon fill="none" stroke="#000000" points="323,-191.2 323,-214.2 523,-214.2 523,-191.2 323,-191.2"/>
<text text-anchor="start" x="328" y="-199.8" font-family="Helvetica,sans-Serif" font-weight="bold" font-size="11.00" fill="#000000">sccs_covariate_result</text>
<text text-anchor="start" x="488.0437" y="-199.3" font-family="Helvetica,sans-Serif" font-size="11.00" fill="#000000">[table]</text>
<polygon fill="none" stroke="#000000" points="323,-169.2 323,-191.2 523,-191.2 523,-169.2 323,-169.2"/>
<image xlink:href="../../images/foreignKeys.png" width="11px" height="12px" preserveAspectRatio="xMinYMin meet" x="328" y="-186.2"/>
<text text-anchor="start" x="343" y="-176.3" font-family="Helvetica,sans-Serif" font-size="11.00" fill="#000000">analysis_id</text>
<polygon fill="none" stroke="#000000" points="323,-147.2 323,-169.2 523,-169.2 523,-147.2 323,-147.2"/>
<image xlink:href="../../images/foreignKeys.png" width="11px" height="12px" preserveAspectRatio="xMinYMin meet" x="328" y="-164.2"/>
<text text-anchor="start" x="343" y="-154.3" font-family="Helvetica,sans-Serif" font-size="11.00" fill="#000000">covariate_id</text>
<polygon fill="none" stroke="#000000" points="323,-125.2 323,-147.2 523,-147.2 523,-125.2 323,-125.2"/>
<image xlink:href="../../images/foreignKeys.png" width="11px" height="12px" preserveAspectRatio="xMinYMin meet" x="328" y="-142.2"/>
<text text-anchor="start" x="343" y="-132.3" font-family="Helvetica,sans-Serif" font-size="11.00" fill="#000000">database_id</text>
<polygon fill="none" stroke="#000000" points="323,-103.2 323,-125.2 523,-125.2 523,-103.2 323,-103.2"/>
<image xlink:href="../../images/foreignKeys.png" width="11px" height="12px" preserveAspectRatio="xMinYMin meet" x="328" y="-120.2"/>
<text text-anchor="start" x="343" y="-110.3" font-family="Helvetica,sans-Serif" font-size="11.00" fill="#000000">exposures_outcome_set_id</text>
<polygon fill="none" stroke="#000000" points="323,-84.2 323,-103.2 523,-103.2 523,-84.2 323,-84.2"/>
<text text-anchor="start" x="326" y="-90.3" font-family="Helvetica,sans-Serif" font-size="11.00" fill="#000000">...</text>
<polygon fill="#ffffff" stroke="transparent" points="323,-65.2 323,-84.2 408,-84.2 408,-65.2 323,-65.2"/>
<polygon fill="none" stroke="#000000" points="323,-65.2 323,-84.2 408,-84.2 408,-65.2 323,-65.2"/>
<text text-anchor="start" x="326" y="-71.3" font-family="Helvetica,sans-Serif" font-size="11.00" fill="#000000">&lt; 8</text>
<polygon fill="#ffffff" stroke="transparent" points="408,-65.2 408,-84.2 478,-84.2 478,-65.2 408,-65.2"/>
<polygon fill="none" stroke="#000000" points="408,-65.2 408,-84.2 478,-84.2 478,-65.2 408,-65.2"/>
<text text-anchor="start" x="442.6105" y="-71.3" font-family="Helvetica,sans-Serif" font-size="11.00" fill="#000000">0 rows</text>
<polygon fill="#ffffff" stroke="transparent" points="478,-65.2 478,-84.2 523,-84.2 523,-65.2 478,-65.2"/>
<polygon fill="none" stroke="#000000" points="478,-65.2 478,-84.2 523,-84.2 523,-65.2 478,-65.2"/>
<text text-anchor="start" x="513.8862" y="-71.3" font-family="Helvetica,sans-Serif" font-size="11.00" fill="#000000"> &#160;</text>
</a>
</g>
</g>
<!-- sccs_era -->
<g id="node2" class="node">
<title>sccs_era</title>
<g id="a_node2"><a xlink:href="../../tables/sccs_era.html" xlink:title="sccs_era" target="_top">
<polygon fill="#ffffff" stroke="transparent" points="8,-38.2 8,-216.2 274,-216.2 274,-38.2 8,-38.2"/>
<polygon fill="#f5f5f5" stroke="transparent" points="10,-191.2 10,-214.2 272,-214.2 272,-191.2 10,-191.2"/>
<polygon fill="none" stroke="#000000" points="10,-191.2 10,-214.2 272,-214.2 272,-191.2 10,-191.2"/>
<text text-anchor="start" x="15" y="-199.8" font-family="Helvetica,sans-Serif" font-weight="bold" font-size="11.00" fill="#000000">sccs_era</text>
<text text-anchor="start" x="237.0437" y="-199.3" font-family="Helvetica,sans-Serif" font-size="11.00" fill="#000000">[table]</text>
<polygon fill="none" stroke="#000000" points="10,-169.2 10,-191.2 210,-191.2 210,-169.2 10,-169.2"/>
<image xlink:href="../../images/primaryKeys.png" width="11px" height="12px" preserveAspectRatio="xMinYMin meet" x="15" y="-186.2"/>
<text text-anchor="start" x="30" y="-176.3" font-family="Helvetica,sans-Serif" font-size="11.00" fill="#000000">analysis_id</text>
<polygon fill="none" stroke="#000000" points="210,-169.2 210,-191.2 272,-191.2 272,-169.2 210,-169.2"/>
<text text-anchor="start" x="212.878" y="-176.9" font-family="Helvetica,sans-Serif" font-size="11.00" fill="#000000">unknown[0]</text>
<polygon fill="none" stroke="#000000" points="10,-147.2 10,-169.2 210,-169.2 210,-147.2 10,-147.2"/>
<image xlink:href="../../images/primaryKeys.png" width="11px" height="12px" preserveAspectRatio="xMinYMin meet" x="15" y="-164.2"/>
<text text-anchor="start" x="30" y="-154.3" font-family="Helvetica,sans-Serif" font-size="11.00" fill="#000000">database_id</text>
<polygon fill="none" stroke="#000000" points="210,-147.2 210,-169.2 272,-169.2 272,-147.2 210,-147.2"/>
<text text-anchor="start" x="212.878" y="-154.9" font-family="Helvetica,sans-Serif" font-size="11.00" fill="#000000">unknown[0]</text>
<polygon fill="none" stroke="#000000" points="10,-125.2 10,-147.2 210,-147.2 210,-125.2 10,-125.2"/>
<text text-anchor="start" x="30" y="-132.3" font-family="Helvetica,sans-Serif" font-size="11.00" fill="#000000">era_id</text>
<polygon fill="none" stroke="#000000" points="210,-125.2 210,-147.2 272,-147.2 272,-125.2 210,-125.2"/>
<text text-anchor="start" x="212.878" y="-132.9" font-family="Helvetica,sans-Serif" font-size="11.00" fill="#000000">unknown[0]</text>
<polygon fill="none" stroke="#000000" points="10,-103.2 10,-125.2 210,-125.2 210,-103.2 10,-103.2"/>
<text text-anchor="start" x="30" y="-110.3" font-family="Helvetica,sans-Serif" font-size="11.00" fill="#000000">era_name</text>
<polygon fill="none" stroke="#000000" points="210,-103.2 210,-125.2 272,-125.2 272,-103.2 210,-103.2"/>
<text text-anchor="start" x="212.878" y="-110.9" font-family="Helvetica,sans-Serif" font-size="11.00" fill="#000000">unknown[0]</text>
<polygon fill="none" stroke="#000000" points="10,-81.2 10,-103.2 210,-103.2 210,-81.2 10,-81.2"/>
<text text-anchor="start" x="30" y="-88.3" font-family="Helvetica,sans-Serif" font-size="11.00" fill="#000000">era_type</text>
<polygon fill="none" stroke="#000000" points="210,-81.2 210,-103.2 272,-103.2 272,-81.2 210,-81.2"/>
<text text-anchor="start" x="212.878" y="-88.9" font-family="Helvetica,sans-Serif" font-size="11.00" fill="#000000">unknown[0]</text>
<polygon fill="none" stroke="#000000" points="10,-59.2 10,-81.2 210,-81.2 210,-59.2 10,-59.2"/>
<image xlink:href="../../images/primaryKeys.png" width="11px" height="12px" preserveAspectRatio="xMinYMin meet" x="15" y="-76.2"/>
<text text-anchor="start" x="30" y="-66.3" font-family="Helvetica,sans-Serif" font-size="11.00" fill="#000000">exposures_outcome_set_id</text>
<polygon fill="none" stroke="#000000" points="210,-59.2 210,-81.2 272,-81.2 272,-59.2 210,-59.2"/>
<text text-anchor="start" x="212.878" y="-66.9" font-family="Helvetica,sans-Serif" font-size="11.00" fill="#000000">unknown[0]</text>
<polygon fill="#ffffff" stroke="transparent" points="10,-40.2 10,-59.2 101,-59.2 101,-40.2 10,-40.2"/>
<polygon fill="none" stroke="#000000" points="10,-40.2 10,-59.2 101,-59.2 101,-40.2 10,-40.2"/>
<text text-anchor="start" x="13" y="-46.3" font-family="Helvetica,sans-Serif" font-size="11.00" fill="#000000">&lt; 0</text>
<polygon fill="#ffffff" stroke="transparent" points="101,-40.2 101,-59.2 210,-59.2 210,-40.2 101,-40.2"/>
<polygon fill="none" stroke="#000000" points="101,-40.2 101,-59.2 210,-59.2 210,-40.2 101,-40.2"/>
<text text-anchor="start" x="174.6105" y="-46.3" font-family="Helvetica,sans-Serif" font-size="11.00" fill="#000000">0 rows</text>
<polygon fill="#ffffff" stroke="transparent" points="210,-40.2 210,-59.2 272,-59.2 272,-40.2 210,-40.2"/>
<polygon fill="none" stroke="#000000" points="210,-40.2 210,-59.2 272,-59.2 272,-40.2 210,-40.2"/>
<text text-anchor="start" x="253.4053" y="-46.3" font-family="Helvetica,sans-Serif" font-size="11.00" fill="#000000">3 &gt;</text>
<polygon fill="none" stroke="#000000" stroke-width="2" points="9,-39.2 9,-215.2 273,-215.2 273,-39.2 9,-39.2"/>
</a>
</g>
</g>
<!-- sccs_covariate_result&#45;&gt;sccs_era -->
<g id="edge1" class="edge">
<title>sccs_covariate_result:w&#45;&gt;sccs_era:e</title>
<path fill="none" stroke="#000000" d="M308.276,-180.2C296.2815,-180.2 288.8229,-180.2 272,-180.2"/>
<polygon fill="#000000" stroke="#000000" points="315,-180.2001 323,-183.8 319,-180.2 323,-180.2 323,-180.2 323,-180.2 319,-180.2 323,-176.6 315,-180.2001 315,-180.2001"/>
<ellipse fill="none" stroke="#000000" cx="311.8" cy="-180.2001" rx="3.2" ry="3.2"/>
</g>
<!-- sccs_covariate_result&#45;&gt;sccs_era -->
<g id="edge2" class="edge">
<title>sccs_covariate_result:w&#45;&gt;sccs_era:e</title>
<path fill="none" stroke="#000000" d="M308.8489,-139.259C296.2843,-145.304 290.9,-158.2 272,-158.2"/>
<polygon fill="#000000" stroke="#000000" points="315.1806,-137.8903 323.7607,-139.7187 319.0903,-137.0452 323,-136.2 323,-136.2 323,-136.2 319.0903,-137.0452 322.2393,-132.6813 315.1806,-137.8903 315.1806,-137.8903"/>
<ellipse fill="none" stroke="#000000" cx="312.0528" cy="-138.5665" rx="3.2" ry="3.2"/>
</g>
<!-- sccs_covariate_result&#45;&gt;sccs_era -->
<g id="edge3" class="edge">
<title>sccs_covariate_result:w&#45;&gt;sccs_era:e</title>
<path fill="none" stroke="#000000" d="M308.9107,-109.4912C295.0669,-98.1404 295.8557,-70.2 272,-70.2"/>
<polygon fill="#000000" stroke="#000000" points="315.4125,-111.6642 321.8589,-117.6144 319.2063,-112.9321 323,-114.2 323,-114.2 323,-114.2 319.2063,-112.9321 324.1411,-110.7856 315.4125,-111.6642 315.4125,-111.6642"/>
<ellipse fill="none" stroke="#000000" cx="312.3775" cy="-110.6498" rx="3.2" ry="3.2"/>
</g>
</g>
</svg>
