<?xml version="1.0" encoding="UTF-8" standalone="no"?>
<!DOCTYPE svg PUBLIC "-//W3C//DTD SVG 1.1//EN"
 "http://www.w3.org/Graphics/SVG/1.1/DTD/svg11.dtd">
<!-- Generated by graphviz version 2.40.1 (20161225.0304)
 -->
<!-- Title: oneDegreeRelationshipsDiagram Pages: 1 -->
<svg width="591pt" height="267pt"
 viewBox="0.00 0.00 591.00 266.70" xmlns="http://www.w3.org/2000/svg" xmlns:xlink="http://www.w3.org/1999/xlink">
<g id="graph0" class="graph" transform="scale(1 1) rotate(0) translate(4 262.7)">
<title>oneDegreeRelationshipsDiagram</title>
<polygon fill="#ffffff" stroke="transparent" points="-4,4 -4,-262.7 587,-262.7 587,4 -4,4"/>
<text text-anchor="middle" x="72.4936" y="-7.3" font-family="Helvetica,sans-Serif" font-size="11.00" fill="#000000">Generated by SchemaSpy</text>
<!-- sccs_calendar_time_spanning -->
<g id="node1" class="node">
<title>sccs_calendar_time_spanning</title>
<g id="a_node1"><a xlink:href="../../tables/sccs_calendar_time_spanning.html" xlink:title="sccs_calendar_time_spanning" target="_top">
<polygon fill="#ffffff" stroke="transparent" points="291,-76.7 291,-254.7 575,-254.7 575,-76.7 291,-76.7"/>
<polygon fill="#f5f5f5" stroke="transparent" points="293,-229.7 293,-252.7 573,-252.7 573,-229.7 293,-229.7"/>
<polygon fill="none" stroke="#000000" points="293,-229.7 293,-252.7 573,-252.7 573,-229.7 293,-229.7"/>
<text text-anchor="start" x="298" y="-238.3" font-family="Helvetica,sans-Serif" font-weight="bold" font-size="11.00" fill="#000000">sccs_calendar_time_spanning</text>
<text text-anchor="start" x="538.0437" y="-237.8" font-family="Helvetica,sans-Serif" font-size="11.00" fill="#000000">[table]</text>
<polygon fill="none" stroke="#000000" points="293,-207.7 293,-229.7 511,-229.7 511,-207.7 293,-207.7"/>
<text text-anchor="start" x="313" y="-214.8" font-family="Helvetica,sans-Serif" font-size="11.00" fill="#000000">analysis_id</text>
<polygon fill="none" stroke="#000000" points="511,-207.7 511,-229.7 573,-229.7 573,-207.7 511,-207.7"/>
<text text-anchor="start" x="513.878" y="-215.4" font-family="Helvetica,sans-Serif" font-size="11.00" fill="#000000">unknown[0]</text>
<polygon fill="none" stroke="#000000" points="293,-185.7 293,-207.7 511,-207.7 511,-185.7 293,-185.7"/>
<text text-anchor="start" x="313" y="-192.8" font-family="Helvetica,sans-Serif" font-size="11.00" fill="#000000">calendar_month</text>
<polygon fill="none" stroke="#000000" points="511,-185.7 511,-207.7 573,-207.7 573,-185.7 511,-185.7"/>
<text text-anchor="start" x="513.878" y="-193.4" font-family="Helvetica,sans-Serif" font-size="11.00" fill="#000000">unknown[0]</text>
<polygon fill="none" stroke="#000000" points="293,-163.7 293,-185.7 511,-185.7 511,-163.7 293,-163.7"/>
<text text-anchor="start" x="313" y="-170.8" font-family="Helvetica,sans-Serif" font-size="11.00" fill="#000000">calendar_year</text>
<polygon fill="none" stroke="#000000" points="511,-163.7 511,-185.7 573,-185.7 573,-163.7 511,-163.7"/>
<text text-anchor="start" x="513.878" y="-171.4" font-family="Helvetica,sans-Serif" font-size="11.00" fill="#000000">unknown[0]</text>
<polygon fill="none" stroke="#000000" points="293,-141.7 293,-163.7 511,-163.7 511,-141.7 293,-141.7"/>
<text text-anchor="start" x="313" y="-148.8" font-family="Helvetica,sans-Serif" font-size="11.00" fill="#000000">cover_before_after_subjects</text>
<polygon fill="none" stroke="#000000" points="511,-141.7 511,-163.7 573,-163.7 573,-141.7 511,-141.7"/>
<text text-anchor="start" x="513.878" y="-149.4" font-family="Helvetica,sans-Serif" font-size="11.00" fill="#000000">unknown[0]</text>
<polygon fill="none" stroke="#000000" points="293,-119.7 293,-141.7 511,-141.7 511,-119.7 293,-119.7"/>
<text text-anchor="start" x="313" y="-126.8" font-family="Helvetica,sans-Serif" font-size="11.00" fill="#000000">database_id</text>
<polygon fill="none" stroke="#000000" points="511,-119.7 511,-141.7 573,-141.7 573,-119.7 511,-119.7"/>
<text text-anchor="start" x="513.878" y="-127.4" font-family="Helvetica,sans-Serif" font-size="11.00" fill="#000000">unknown[0]</text>
<polygon fill="none" stroke="#000000" points="293,-97.7 293,-119.7 511,-119.7 511,-97.7 293,-97.7"/>
<image xlink:href="../../images/foreignKeys.png" width="11px" height="12px" preserveAspectRatio="xMinYMin meet" x="298" y="-114.7"/>
<text text-anchor="start" x="313" y="-104.8" font-family="Helvetica,sans-Serif" font-size="11.00" fill="#000000">exposures_outcome_set_id</text>
<polygon fill="none" stroke="#000000" points="511,-97.7 511,-119.7 573,-119.7 573,-97.7 511,-97.7"/>
<text text-anchor="start" x="513.878" y="-105.4" font-family="Helvetica,sans-Serif" font-size="11.00" fill="#000000">unknown[0]</text>
<polygon fill="#ffffff" stroke="transparent" points="293,-78.7 293,-97.7 393,-97.7 393,-78.7 293,-78.7"/>
<polygon fill="none" stroke="#000000" points="293,-78.7 293,-97.7 393,-97.7 393,-78.7 293,-78.7"/>
<text text-anchor="start" x="296" y="-84.8" font-family="Helvetica,sans-Serif" font-size="11.00" fill="#000000">&lt; 1</text>
<polygon fill="#ffffff" stroke="transparent" points="393,-78.7 393,-97.7 511,-97.7 511,-78.7 393,-78.7"/>
<polygon fill="none" stroke="#000000" points="393,-78.7 393,-97.7 511,-97.7 511,-78.7 393,-78.7"/>
<text text-anchor="start" x="475.6105" y="-84.8" font-family="Helvetica,sans-Serif" font-size="11.00" fill="#000000">0 rows</text>
<polygon fill="#ffffff" stroke="transparent" points="511,-78.7 511,-97.7 573,-97.7 573,-78.7 511,-78.7"/>
<polygon fill="none" stroke="#000000" points="511,-78.7 511,-97.7 573,-97.7 573,-78.7 511,-78.7"/>
<text text-anchor="start" x="554.4053" y="-84.8" font-family="Helvetica,sans-Serif" font-size="11.00" fill="#000000">0 &gt;</text>
<polygon fill="none" stroke="#000000" stroke-width="2" points="292,-77.7 292,-253.7 574,-253.7 574,-77.7 292,-77.7"/>
</a>
</g>
</g>
<!-- sccs_exposures_outcome_set -->
<g id="node2" class="node">
<title>sccs_exposures_outcome_set</title>
<g id="a_node2"><a xlink:href="../../tables/sccs_exposures_outcome_set.html" xlink:title="sccs_exposures_outcome_set" target="_top">
<polygon fill="#ffffff" stroke="transparent" points="8,-38.2 8,-143.2 242,-143.2 242,-38.2 8,-38.2"/>
<polygon fill="#f5f5f5" stroke="transparent" points="8,-119.7 8,-142.7 242,-142.7 242,-119.7 8,-119.7"/>
<polygon fill="none" stroke="#000000" points="8,-119.7 8,-142.7 242,-142.7 242,-119.7 8,-119.7"/>
<text text-anchor="start" x="13" y="-128.3" font-family="Helvetica,sans-Serif" font-weight="bold" font-size="11.00" fill="#000000">sccs_exposures_outcome_set</text>
<text text-anchor="start" x="207.5219" y="-127.8" font-family="Helvetica,sans-Serif" font-size="11.00" fill="#000000">[table]</text>
<polygon fill="none" stroke="#000000" points="8,-97.7 8,-119.7 242,-119.7 242,-97.7 8,-97.7"/>
<image xlink:href="../../images/primaryKeys.png" width="11px" height="12px" preserveAspectRatio="xMinYMin meet" x="13" y="-114.7"/>
<text text-anchor="start" x="37" y="-104.8" font-family="Helvetica,sans-Serif" font-size="11.00" fill="#000000">exposures_outcome_set_id</text>
<polygon fill="none" stroke="#000000" points="8,-75.7 8,-97.7 242,-97.7 242,-75.7 8,-75.7"/>
<image xlink:href="../../images/foreignKeys.png" width="11px" height="12px" preserveAspectRatio="xMinYMin meet" x="13" y="-92.7"/>
<text text-anchor="start" x="37" y="-82.8" font-family="Helvetica,sans-Serif" font-size="11.00" fill="#000000">nesting_cohort_id</text>
<polygon fill="none" stroke="#000000" points="8,-56.7 8,-75.7 242,-75.7 242,-56.7 8,-56.7"/>
<text text-anchor="start" x="11" y="-62.8" font-family="Helvetica,sans-Serif" font-size="11.00" fill="#000000">...</text>
<polygon fill="#ffffff" stroke="transparent" points="8,-37.7 8,-56.7 103,-56.7 103,-37.7 8,-37.7"/>
<polygon fill="none" stroke="#000000" points="8,-37.7 8,-56.7 103,-56.7 103,-37.7 8,-37.7"/>
<text text-anchor="start" x="11" y="-43.8" font-family="Helvetica,sans-Serif" font-size="11.00" fill="#000000">&lt; 3</text>
<polygon fill="#ffffff" stroke="transparent" points="103,-37.7 103,-56.7 178,-56.7 178,-37.7 103,-37.7"/>
<polygon fill="none" stroke="#000000" points="103,-37.7 103,-56.7 178,-56.7 178,-37.7 103,-37.7"/>
<text text-anchor="start" x="142.6105" y="-43.8" font-family="Helvetica,sans-Serif" font-size="11.00" fill="#000000">0 rows</text>
<polygon fill="#ffffff" stroke="transparent" points="178,-37.7 178,-56.7 242,-56.7 242,-37.7 178,-37.7"/>
<polygon fill="none" stroke="#000000" points="178,-37.7 178,-56.7 242,-56.7 242,-37.7 178,-37.7"/>
<text text-anchor="start" x="217.2904" y="-43.8" font-family="Helvetica,sans-Serif" font-size="11.00" fill="#000000">10 &gt;</text>
</a>
</g>
</g>
<!-- sccs_calendar_time_spanning&#45;&gt;sccs_exposures_outcome_set -->
<g id="edge1" class="edge">
<title>sccs_calendar_time_spanning:w&#45;&gt;sccs_exposures_outcome_set:e</title>
<path fill="none" stroke="#000000" d="M278.276,-108.7C266.2815,-108.7 258.8229,-108.7 242,-108.7"/>
<polygon fill="#000000" stroke="#000000" points="285,-108.7001 293,-112.3 289,-108.7 293,-108.7 293,-108.7 293,-108.7 289,-108.7 293,-105.1 285,-108.7001 285,-108.7001"/>
<ellipse fill="none" stroke="#000000" cx="281.8" cy="-108.7001" rx="3.2" ry="3.2"/>
</g>
</g>
</svg>
