<?xml version="1.0" encoding="UTF-8" standalone="no"?>
<!DOCTYPE svg PUBLIC "-//W3C//DTD SVG 1.1//EN"
 "http://www.w3.org/Graphics/SVG/1.1/DTD/svg11.dtd">
<!-- Generated by graphviz version 2.40.1 (20161225.0304)
 -->
<!-- Title: oneDegreeRelationshipsDiagram Pages: 1 -->
<svg width="325pt" height="404pt"
 viewBox="0.00 0.00 325.00 404.20" xmlns="http://www.w3.org/2000/svg" xmlns:xlink="http://www.w3.org/1999/xlink">
<g id="graph0" class="graph" transform="scale(1 1) rotate(0) translate(4 400.2)">
<title>oneDegreeRelationshipsDiagram</title>
<polygon fill="#ffffff" stroke="transparent" points="-4,4 -4,-400.2 321,-400.2 321,4 -4,4"/>
<text text-anchor="middle" x="72.4936" y="-7.3" font-family="Helvetica,sans-Serif" font-size="11.00" fill="#000000">Generated by SchemaSpy</text>
<!-- sccs_sccs_diagnostics_summary -->
<g id="node1" class="node">
<title>sccs_sccs_diagnostics_summary</title>
<g id="a_node1"><a xlink:href="../../tables/sccs_sccs_diagnostics_summary.html" xlink:title="sccs_sccs_diagnostics_summary" target="_top">
<polygon fill="#ffffff" stroke="transparent" points="8,-38.2 8,-392.2 309,-392.2 309,-38.2 8,-38.2"/>
<polygon fill="#f5f5f5" stroke="transparent" points="10.5,-367.2 10.5,-390.2 307.5,-390.2 307.5,-367.2 10.5,-367.2"/>
<polygon fill="none" stroke="#000000" points="10.5,-367.2 10.5,-390.2 307.5,-390.2 307.5,-367.2 10.5,-367.2"/>
<text text-anchor="start" x="15.5" y="-375.8" font-family="Helvetica,sans-Serif" font-weight="bold" font-size="11.00" fill="#000000">sccs_sccs_diagnostics_summary</text>
<text text-anchor="start" x="272.5437" y="-375.3" font-family="Helvetica,sans-Serif" font-size="11.00" fill="#000000">[table]</text>
<polygon fill="none" stroke="#000000" points="10.5,-345.2 10.5,-367.2 245.5,-367.2 245.5,-345.2 10.5,-345.2"/>
<text text-anchor="start" x="30.5" y="-352.3" font-family="Helvetica,sans-Serif" font-size="11.00" fill="#000000">analysis_id</text>
<polygon fill="none" stroke="#000000" points="245.5,-345.2 245.5,-367.2 307.5,-367.2 307.5,-345.2 245.5,-345.2"/>
<text text-anchor="start" x="248.378" y="-352.9" font-family="Helvetica,sans-Serif" font-size="11.00" fill="#000000">unknown[0]</text>
<polygon fill="none" stroke="#000000" points="10.5,-323.2 10.5,-345.2 245.5,-345.2 245.5,-323.2 10.5,-323.2"/>
<text text-anchor="start" x="30.5" y="-330.3" font-family="Helvetica,sans-Serif" font-size="11.00" fill="#000000">covariate_id</text>
<polygon fill="none" stroke="#000000" points="245.5,-323.2 245.5,-345.2 307.5,-345.2 307.5,-323.2 245.5,-323.2"/>
<text text-anchor="start" x="248.378" y="-330.9" font-family="Helvetica,sans-Serif" font-size="11.00" fill="#000000">unknown[0]</text>
<polygon fill="none" stroke="#000000" points="10.5,-301.2 10.5,-323.2 245.5,-323.2 245.5,-301.2 10.5,-301.2"/>
<text text-anchor="start" x="30.5" y="-308.3" font-family="Helvetica,sans-Serif" font-size="11.00" fill="#000000">database_id</text>
<polygon fill="none" stroke="#000000" points="245.5,-301.2 245.5,-323.2 307.5,-323.2 307.5,-301.2 245.5,-301.2"/>
<text text-anchor="start" x="248.378" y="-308.9" font-family="Helvetica,sans-Serif" font-size="11.00" fill="#000000">unknown[0]</text>
<polygon fill="none" stroke="#000000" points="10.5,-279.2 10.5,-301.2 245.5,-301.2 245.5,-279.2 10.5,-279.2"/>
<text text-anchor="start" x="30.5" y="-286.3" font-family="Helvetica,sans-Serif" font-size="11.00" fill="#000000">ease</text>
<polygon fill="none" stroke="#000000" points="245.5,-279.2 245.5,-301.2 307.5,-301.2 307.5,-279.2 245.5,-279.2"/>
<text text-anchor="start" x="248.378" y="-286.9" font-family="Helvetica,sans-Serif" font-size="11.00" fill="#000000">unknown[0]</text>
<polygon fill="none" stroke="#000000" points="10.5,-257.2 10.5,-279.2 245.5,-279.2 245.5,-257.2 10.5,-257.2"/>
<text text-anchor="start" x="30.5" y="-264.3" font-family="Helvetica,sans-Serif" font-size="11.00" fill="#000000">ease_diagnostic</text>
<polygon fill="none" stroke="#000000" points="245.5,-257.2 245.5,-279.2 307.5,-279.2 307.5,-257.2 245.5,-257.2"/>
<text text-anchor="start" x="248.378" y="-264.9" font-family="Helvetica,sans-Serif" font-size="11.00" fill="#000000">unknown[0]</text>
<polygon fill="none" stroke="#000000" points="10.5,-235.2 10.5,-257.2 245.5,-257.2 245.5,-235.2 10.5,-235.2"/>
<text text-anchor="start" x="30.5" y="-242.3" font-family="Helvetica,sans-Serif" font-size="11.00" fill="#000000">exposures_outcome_set_id</text>
<polygon fill="none" stroke="#000000" points="245.5,-235.2 245.5,-257.2 307.5,-257.2 307.5,-235.2 245.5,-235.2"/>
<text text-anchor="start" x="248.378" y="-242.9" font-family="Helvetica,sans-Serif" font-size="11.00" fill="#000000">unknown[0]</text>
<polygon fill="none" stroke="#000000" points="10.5,-213.2 10.5,-235.2 245.5,-235.2 245.5,-213.2 10.5,-213.2"/>
<text text-anchor="start" x="30.5" y="-220.3" font-family="Helvetica,sans-Serif" font-size="11.00" fill="#000000">mdrr</text>
<polygon fill="none" stroke="#000000" points="245.5,-213.2 245.5,-235.2 307.5,-235.2 307.5,-213.2 245.5,-213.2"/>
<text text-anchor="start" x="248.378" y="-220.9" font-family="Helvetica,sans-Serif" font-size="11.00" fill="#000000">unknown[0]</text>
<polygon fill="none" stroke="#000000" points="10.5,-191.2 10.5,-213.2 245.5,-213.2 245.5,-191.2 10.5,-191.2"/>
<text text-anchor="start" x="30.5" y="-198.3" font-family="Helvetica,sans-Serif" font-size="11.00" fill="#000000">mdrr_diagnostic</text>
<polygon fill="none" stroke="#000000" points="245.5,-191.2 245.5,-213.2 307.5,-213.2 307.5,-191.2 245.5,-191.2"/>
<text text-anchor="start" x="248.378" y="-198.9" font-family="Helvetica,sans-Serif" font-size="11.00" fill="#000000">unknown[0]</text>
<polygon fill="none" stroke="#000000" points="10.5,-169.2 10.5,-191.2 245.5,-191.2 245.5,-169.2 10.5,-169.2"/>
<text text-anchor="start" x="30.5" y="-176.3" font-family="Helvetica,sans-Serif" font-size="11.00" fill="#000000">pre_exposure_diagnostic</text>
<polygon fill="none" stroke="#000000" points="245.5,-169.2 245.5,-191.2 307.5,-191.2 307.5,-169.2 245.5,-169.2"/>
<text text-anchor="start" x="248.378" y="-176.9" font-family="Helvetica,sans-Serif" font-size="11.00" fill="#000000">unknown[0]</text>
<polygon fill="none" stroke="#000000" points="10.5,-147.2 10.5,-169.2 245.5,-169.2 245.5,-147.2 10.5,-147.2"/>
<text text-anchor="start" x="30.5" y="-154.3" font-family="Helvetica,sans-Serif" font-size="11.00" fill="#000000">pre_exposure_p</text>
<polygon fill="none" stroke="#000000" points="245.5,-147.2 245.5,-169.2 307.5,-169.2 307.5,-147.2 245.5,-147.2"/>
<text text-anchor="start" x="248.378" y="-154.9" font-family="Helvetica,sans-Serif" font-size="11.00" fill="#000000">unknown[0]</text>
<polygon fill="none" stroke="#000000" points="10.5,-125.2 10.5,-147.2 245.5,-147.2 245.5,-125.2 10.5,-125.2"/>
<text text-anchor="start" x="30.5" y="-132.3" font-family="Helvetica,sans-Serif" font-size="11.00" fill="#000000">time_trend_diagnostic</text>
<polygon fill="none" stroke="#000000" points="245.5,-125.2 245.5,-147.2 307.5,-147.2 307.5,-125.2 245.5,-125.2"/>
<text text-anchor="start" x="248.378" y="-132.9" font-family="Helvetica,sans-Serif" font-size="11.00" fill="#000000">unknown[0]</text>
<polygon fill="none" stroke="#000000" points="10.5,-103.2 10.5,-125.2 245.5,-125.2 245.5,-103.2 10.5,-103.2"/>
<text text-anchor="start" x="30.5" y="-110.3" font-family="Helvetica,sans-Serif" font-size="11.00" fill="#000000">time_trend_p</text>
<polygon fill="none" stroke="#000000" points="245.5,-103.2 245.5,-125.2 307.5,-125.2 307.5,-103.2 245.5,-103.2"/>
<text text-anchor="start" x="248.378" y="-110.9" font-family="Helvetica,sans-Serif" font-size="11.00" fill="#000000">unknown[0]</text>
<polygon fill="none" stroke="#000000" points="10.5,-81.2 10.5,-103.2 245.5,-103.2 245.5,-81.2 10.5,-81.2"/>
<text text-anchor="start" x="30.5" y="-88.3" font-family="Helvetica,sans-Serif" font-size="11.00" fill="#000000">unblind</text>
<polygon fill="none" stroke="#000000" points="245.5,-81.2 245.5,-103.2 307.5,-103.2 307.5,-81.2 245.5,-81.2"/>
<text text-anchor="start" x="248.378" y="-88.9" font-family="Helvetica,sans-Serif" font-size="11.00" fill="#000000">unknown[0]</text>
<polygon fill="none" stroke="#000000" points="10.5,-59.2 10.5,-81.2 245.5,-81.2 245.5,-59.2 10.5,-59.2"/>
<text text-anchor="start" x="30.5" y="-66.3" font-family="Helvetica,sans-Serif" font-size="11.00" fill="#000000">unblind_for_evidence_synthesis</text>
<polygon fill="none" stroke="#000000" points="245.5,-59.2 245.5,-81.2 307.5,-81.2 307.5,-59.2 245.5,-59.2"/>
<text text-anchor="start" x="248.378" y="-66.9" font-family="Helvetica,sans-Serif" font-size="11.00" fill="#000000">unknown[0]</text>
<polygon fill="#ffffff" stroke="transparent" points="10.5,-40.2 10.5,-59.2 119.5,-59.2 119.5,-40.2 10.5,-40.2"/>
<polygon fill="none" stroke="#000000" points="10.5,-40.2 10.5,-59.2 119.5,-59.2 119.5,-40.2 10.5,-40.2"/>
<text text-anchor="start" x="13.5" y="-46.3" font-family="Helvetica,sans-Serif" font-size="11.00" fill="#000000">&lt; 0</text>
<polygon fill="#ffffff" stroke="transparent" points="119.5,-40.2 119.5,-59.2 245.5,-59.2 245.5,-40.2 119.5,-40.2"/>
<polygon fill="none" stroke="#000000" points="119.5,-40.2 119.5,-59.2 245.5,-59.2 245.5,-40.2 119.5,-40.2"/>
<text text-anchor="start" x="210.1105" y="-46.3" font-family="Helvetica,sans-Serif" font-size="11.00" fill="#000000">0 rows</text>
<polygon fill="#ffffff" stroke="transparent" points="245.5,-40.2 245.5,-59.2 307.5,-59.2 307.5,-40.2 245.5,-40.2"/>
<polygon fill="none" stroke="#000000" points="245.5,-40.2 245.5,-59.2 307.5,-59.2 307.5,-40.2 245.5,-40.2"/>
<text text-anchor="start" x="288.9053" y="-46.3" font-family="Helvetica,sans-Serif" font-size="11.00" fill="#000000">0 &gt;</text>
<polygon fill="none" stroke="#000000" stroke-width="2" points="9,-39.2 9,-391.2 308,-391.2 308,-39.2 9,-39.2"/>
</a>
</g>
</g>
</g>
</svg>
