<?xml version="1.0" encoding="UTF-8" standalone="no"?>
<!DOCTYPE svg PUBLIC "-//W3C//DTD SVG 1.1//EN"
 "http://www.w3.org/Graphics/SVG/1.1/DTD/svg11.dtd">
<!-- Generated by graphviz version 2.40.1 (20161225.0304)
 -->
<!-- Title: twoDegreesRelationshipsDiagram Pages: 1 -->
<svg width="873pt" height="491pt"
 viewBox="0.00 0.00 873.00 490.61" xmlns="http://www.w3.org/2000/svg" xmlns:xlink="http://www.w3.org/1999/xlink">
<g id="graph0" class="graph" transform="scale(1 1) rotate(0) translate(4 486.6119)">
<title>twoDegreesRelationshipsDiagram</title>
<polygon fill="#ffffff" stroke="transparent" points="-4,4 -4,-486.6119 869,-486.6119 869,4 -4,4"/>
<text text-anchor="middle" x="72.4936" y="-7.3" font-family="Helvetica,sans-Serif" font-size="11.00" fill="#000000">Generated by SchemaSpy</text>
<!-- sccs_diagnostics_summary -->
<g id="node1" class="node">
<title>sccs_diagnostics_summary</title>
<g id="a_node1"><a xlink:href="../../tables/sccs_diagnostics_summary.html" xlink:title="sccs_diagnostics_summary" target="_top">
<polygon fill="#ffffff" stroke="transparent" points="476,-248.1119 476,-309.1119 695,-309.1119 695,-248.1119 476,-248.1119"/>
<polygon fill="#f5f5f5" stroke="transparent" points="476.5,-285.6119 476.5,-308.6119 695.5,-308.6119 695.5,-285.6119 476.5,-285.6119"/>
<polygon fill="none" stroke="#000000" points="476.5,-285.6119 476.5,-308.6119 695.5,-308.6119 695.5,-285.6119 476.5,-285.6119"/>
<text text-anchor="start" x="481.5" y="-294.2119" font-family="Helvetica,sans-Serif" font-weight="bold" font-size="11.00" fill="#000000">sccs_diagnostics_summary</text>
<text text-anchor="start" x="661.0219" y="-293.7119" font-family="Helvetica,sans-Serif" font-size="11.00" fill="#000000">[table]</text>
<polygon fill="none" stroke="#000000" points="476.5,-266.6119 476.5,-285.6119 695.5,-285.6119 695.5,-266.6119 476.5,-266.6119"/>
<text text-anchor="start" x="479.5" y="-272.7119" font-family="Helvetica,sans-Serif" font-size="11.00" fill="#000000">...</text>
<polygon fill="#ffffff" stroke="transparent" points="476.5,-247.6119 476.5,-266.6119 566.5,-266.6119 566.5,-247.6119 476.5,-247.6119"/>
<polygon fill="none" stroke="#000000" points="476.5,-247.6119 476.5,-266.6119 566.5,-266.6119 566.5,-247.6119 476.5,-247.6119"/>
<text text-anchor="start" x="479.5" y="-253.7119" font-family="Helvetica,sans-Serif" font-size="11.00" fill="#000000">&lt; 7</text>
<polygon fill="#ffffff" stroke="transparent" points="566.5,-247.6119 566.5,-266.6119 639.5,-266.6119 639.5,-247.6119 566.5,-247.6119"/>
<polygon fill="none" stroke="#000000" points="566.5,-247.6119 566.5,-266.6119 639.5,-266.6119 639.5,-247.6119 566.5,-247.6119"/>
<text text-anchor="start" x="604.1105" y="-253.7119" font-family="Helvetica,sans-Serif" font-size="11.00" fill="#000000">0 rows</text>
<polygon fill="#ffffff" stroke="transparent" points="639.5,-247.6119 639.5,-266.6119 695.5,-266.6119 695.5,-247.6119 639.5,-247.6119"/>
<polygon fill="none" stroke="#000000" points="639.5,-247.6119 639.5,-266.6119 695.5,-266.6119 695.5,-247.6119 639.5,-247.6119"/>
<text text-anchor="start" x="676.9053" y="-253.7119" font-family="Helvetica,sans-Serif" font-size="11.00" fill="#000000">4 &gt;</text>
</a>
</g>
</g>
<!-- sccs_analysis -->
<g id="node2" class="node">
<title>sccs_analysis</title>
<g id="a_node2"><a xlink:href="../../tables/sccs_analysis.html" xlink:title="sccs_analysis" target="_top">
<polygon fill="#ffffff" stroke="transparent" points="222,-366.6119 222,-478.6119 398,-478.6119 398,-366.6119 222,-366.6119"/>
<polygon fill="#f5f5f5" stroke="transparent" points="224,-453.6119 224,-476.6119 396,-476.6119 396,-453.6119 224,-453.6119"/>
<polygon fill="none" stroke="#000000" points="224,-453.6119 224,-476.6119 396,-476.6119 396,-453.6119 224,-453.6119"/>
<text text-anchor="start" x="229" y="-462.2119" font-family="Helvetica,sans-Serif" font-weight="bold" font-size="11.00" fill="#000000">sccs_analysis</text>
<text text-anchor="start" x="361.0437" y="-461.7119" font-family="Helvetica,sans-Serif" font-size="11.00" fill="#000000">[table]</text>
<polygon fill="none" stroke="#000000" points="224,-431.6119 224,-453.6119 334,-453.6119 334,-431.6119 224,-431.6119"/>
<image xlink:href="../../images/primaryKeys.png" width="11px" height="12px" preserveAspectRatio="xMinYMin meet" x="229" y="-448.612"/>
<text text-anchor="start" x="244" y="-438.7119" font-family="Helvetica,sans-Serif" font-size="11.00" fill="#000000">analysis_id</text>
<polygon fill="none" stroke="#000000" points="334,-431.6119 334,-453.6119 396,-453.6119 396,-431.6119 334,-431.6119"/>
<text text-anchor="start" x="336.878" y="-439.3119" font-family="Helvetica,sans-Serif" font-size="11.00" fill="#000000">unknown[0]</text>
<polygon fill="none" stroke="#000000" points="224,-409.6119 224,-431.6119 334,-431.6119 334,-409.6119 224,-409.6119"/>
<text text-anchor="start" x="244" y="-416.7119" font-family="Helvetica,sans-Serif" font-size="11.00" fill="#000000">definition</text>
<polygon fill="none" stroke="#000000" points="334,-409.6119 334,-431.6119 396,-431.6119 396,-409.6119 334,-409.6119"/>
<text text-anchor="start" x="336.878" y="-417.3119" font-family="Helvetica,sans-Serif" font-size="11.00" fill="#000000">unknown[0]</text>
<polygon fill="none" stroke="#000000" points="224,-387.6119 224,-409.6119 334,-409.6119 334,-387.6119 224,-387.6119"/>
<text text-anchor="start" x="244" y="-394.7119" font-family="Helvetica,sans-Serif" font-size="11.00" fill="#000000">description</text>
<polygon fill="none" stroke="#000000" points="334,-387.6119 334,-409.6119 396,-409.6119 396,-387.6119 334,-387.6119"/>
<text text-anchor="start" x="336.878" y="-395.3119" font-family="Helvetica,sans-Serif" font-size="11.00" fill="#000000">unknown[0]</text>
<polygon fill="#ffffff" stroke="transparent" points="224,-368.6119 224,-387.6119 270,-387.6119 270,-368.6119 224,-368.6119"/>
<polygon fill="none" stroke="#000000" points="224,-368.6119 224,-387.6119 270,-387.6119 270,-368.6119 224,-368.6119"/>
<text text-anchor="start" x="227" y="-374.7119" font-family="Helvetica,sans-Serif" font-size="11.00" fill="#000000">&lt; 0</text>
<polygon fill="#ffffff" stroke="transparent" points="270,-368.6119 270,-387.6119 334,-387.6119 334,-368.6119 270,-368.6119"/>
<polygon fill="none" stroke="#000000" points="270,-368.6119 270,-387.6119 334,-387.6119 334,-368.6119 270,-368.6119"/>
<text text-anchor="start" x="298.6105" y="-374.7119" font-family="Helvetica,sans-Serif" font-size="11.00" fill="#000000">0 rows</text>
<polygon fill="#ffffff" stroke="transparent" points="334,-368.6119 334,-387.6119 396,-387.6119 396,-368.6119 334,-368.6119"/>
<polygon fill="none" stroke="#000000" points="334,-368.6119 334,-387.6119 396,-387.6119 396,-368.6119 334,-368.6119"/>
<text text-anchor="start" x="377.4053" y="-374.7119" font-family="Helvetica,sans-Serif" font-size="11.00" fill="#000000">2 &gt;</text>
<polygon fill="none" stroke="#000000" stroke-width="2" points="223,-367.6119 223,-477.6119 397,-477.6119 397,-367.6119 223,-367.6119"/>
</a>
</g>
</g>
<!-- sccs_diagnostics_summary&#45;&gt;sccs_analysis -->
<g id="edge1" class="edge">
<title>sccs_diagnostics_summary:w&#45;&gt;sccs_analysis:e</title>
<path fill="none" stroke="#000000" d="M532.3677,-322.7222C512.0935,-339.725 488.8504,-359.4258 468,-377.6119 435.5108,-405.9495 439.1111,-442.6119 396,-442.6119"/>
<polygon fill="#000000" stroke="#000000" points="537.47,-318.4526 545.9156,-316.0794 540.5376,-315.8855 543.6053,-313.3185 543.6053,-313.3185 543.6053,-313.3185 540.5376,-315.8855 541.295,-310.5576 537.47,-318.4526 537.47,-318.4526"/>
<ellipse fill="none" stroke="#000000" cx="535.0158" cy="-320.5062" rx="3.2" ry="3.2"/>
</g>
<!-- sccs_covariate -->
<g id="node3" class="node">
<title>sccs_covariate</title>
<g id="a_node3"><a xlink:href="../../tables/sccs_covariate.html" xlink:title="sccs_covariate" target="_top">
<polygon fill="#ffffff" stroke="transparent" points="8,-151.1119 8,-212.1119 144,-212.1119 144,-151.1119 8,-151.1119"/>
<polygon fill="#f5f5f5" stroke="transparent" points="8,-188.6119 8,-211.6119 144,-211.6119 144,-188.6119 8,-188.6119"/>
<polygon fill="none" stroke="#000000" points="8,-188.6119 8,-211.6119 144,-211.6119 144,-188.6119 8,-188.6119"/>
<text text-anchor="start" x="13" y="-197.2119" font-family="Helvetica,sans-Serif" font-weight="bold" font-size="11.00" fill="#000000">sccs_covariate</text>
<text text-anchor="start" x="109.5219" y="-196.7119" font-family="Helvetica,sans-Serif" font-size="11.00" fill="#000000">[table]</text>
<polygon fill="none" stroke="#000000" points="8,-169.6119 8,-188.6119 144,-188.6119 144,-169.6119 8,-169.6119"/>
<text text-anchor="start" x="11" y="-175.7119" font-family="Helvetica,sans-Serif" font-size="11.00" fill="#000000">...</text>
<polygon fill="#ffffff" stroke="transparent" points="8,-150.6119 8,-169.6119 49,-169.6119 49,-150.6119 8,-150.6119"/>
<polygon fill="none" stroke="#000000" points="8,-150.6119 8,-169.6119 49,-169.6119 49,-150.6119 8,-150.6119"/>
<text text-anchor="start" x="11" y="-156.7119" font-family="Helvetica,sans-Serif" font-size="11.00" fill="#000000"> &#160;</text>
<polygon fill="#ffffff" stroke="transparent" points="49,-150.6119 49,-169.6119 102,-169.6119 102,-150.6119 49,-150.6119"/>
<polygon fill="none" stroke="#000000" points="49,-150.6119 49,-169.6119 102,-169.6119 102,-150.6119 49,-150.6119"/>
<text text-anchor="start" x="66.6105" y="-156.7119" font-family="Helvetica,sans-Serif" font-size="11.00" fill="#000000">0 rows</text>
<polygon fill="#ffffff" stroke="transparent" points="102,-150.6119 102,-169.6119 144,-169.6119 144,-150.6119 102,-150.6119"/>
<polygon fill="none" stroke="#000000" points="102,-150.6119 102,-169.6119 144,-169.6119 144,-150.6119 102,-150.6119"/>
<text text-anchor="start" x="119.2904" y="-156.7119" font-family="Helvetica,sans-Serif" font-size="11.00" fill="#000000">13 &gt;</text>
</a>
</g>
</g>
<!-- sccs_diagnostics_summary&#45;&gt;sccs_covariate -->
<g id="edge2" class="edge">
<title>sccs_diagnostics_summary:w&#45;&gt;sccs_covariate:e</title>
<path fill="none" stroke="#000000" d="M453.4923,-304.9663C369.2944,-320.7658 261.9377,-327.7035 185,-273.6119 140.9528,-242.6441 197.8439,-159.6119 144,-178.6119"/>
<polygon fill="#000000" stroke="#000000" points="460.012,-303.6865 468.5557,-305.6779 463.9371,-302.9159 467.8622,-302.1454 467.8622,-302.1454 467.8622,-302.1454 463.9371,-302.9159 467.1687,-298.6128 460.012,-303.6865 460.012,-303.6865"/>
<ellipse fill="none" stroke="#000000" cx="456.872" cy="-304.3029" rx="3.2" ry="3.2"/>
</g>
<!-- sccs_diagnostics_summary&#45;&gt;sccs_covariate -->
<g id="edge3" class="edge">
<title>sccs_diagnostics_summary:w&#45;&gt;sccs_covariate:e</title>
<path fill="none" stroke="#000000" d="M453.7531,-315.9973C369.5163,-333.7514 262.0172,-340.7594 185,-286.6119 140.9528,-255.6441 197.8439,-172.6119 144,-178.6119"/>
<polygon fill="#000000" stroke="#000000" points="460.0507,-314.6057 468.639,-316.3947 463.9564,-313.7426 467.8622,-312.8795 467.8622,-312.8795 467.8622,-312.8795 463.9564,-313.7426 467.0854,-309.3643 460.0507,-314.6057 460.0507,-314.6057"/>
<ellipse fill="none" stroke="#000000" cx="456.926" cy="-315.2962" rx="3.2" ry="3.2"/>
</g>
<!-- sccs_diagnostics_summary&#45;&gt;sccs_covariate -->
<g id="edge5" class="edge">
<title>sccs_diagnostics_summary:w&#45;&gt;sccs_covariate:e</title>
<path fill="none" stroke="#000000" d="M490.1298,-317.4673C402.6698,-343.2415 273.6446,-361.9342 185,-299.6119 140.9528,-268.6441 197.8439,-185.6119 144,-178.6119"/>
<polygon fill="#000000" stroke="#000000" points="496.4177,-315.54 505.1215,-316.6375 500.2421,-314.3678 504.0664,-313.1956 504.0664,-313.1956 504.0664,-313.1956 500.2421,-314.3678 503.0114,-309.7536 496.4177,-315.54 496.4177,-315.54"/>
<ellipse fill="none" stroke="#000000" cx="493.3582" cy="-316.4778" rx="3.2" ry="3.2"/>
</g>
<!-- sccs_diagnostics_summary&#45;&gt;sccs_covariate -->
<g id="edge6" class="edge">
<title>sccs_diagnostics_summary:w&#45;&gt;sccs_covariate:e</title>
<path fill="none" stroke="#000000" d="M515.1462,-318.659C429.0002,-351.6683 282.5495,-381.1949 185,-312.6119 140.9528,-281.6441 197.8439,-198.6119 144,-178.6119"/>
<polygon fill="#000000" stroke="#000000" points="521.2681,-316.2097 530.033,-316.5804 524.9819,-314.7238 528.6957,-313.238 528.6957,-313.238 528.6957,-313.238 524.9819,-314.7238 527.3585,-309.8956 521.2681,-316.2097 521.2681,-316.2097"/>
<ellipse fill="none" stroke="#000000" cx="518.2971" cy="-317.3984" rx="3.2" ry="3.2"/>
</g>
<!-- database_meta_data -->
<g id="node4" class="node">
<title>database_meta_data</title>
<g id="a_node4"><a xlink:href="../../tables/database_meta_data.html" xlink:title="database_meta_data" target="_top">
<polygon fill="#ffffff" stroke="transparent" points="221,-221.1119 221,-282.1119 399,-282.1119 399,-221.1119 221,-221.1119"/>
<polygon fill="#f5f5f5" stroke="transparent" points="221,-258.6119 221,-281.6119 399,-281.6119 399,-258.6119 221,-258.6119"/>
<polygon fill="none" stroke="#000000" points="221,-258.6119 221,-281.6119 399,-281.6119 399,-258.6119 221,-258.6119"/>
<text text-anchor="start" x="226" y="-267.2119" font-family="Helvetica,sans-Serif" font-weight="bold" font-size="11.00" fill="#000000">database_meta_data</text>
<text text-anchor="start" x="364.5219" y="-266.7119" font-family="Helvetica,sans-Serif" font-size="11.00" fill="#000000">[table]</text>
<polygon fill="none" stroke="#000000" points="221,-239.6119 221,-258.6119 399,-258.6119 399,-239.6119 221,-239.6119"/>
<text text-anchor="start" x="224" y="-245.7119" font-family="Helvetica,sans-Serif" font-size="11.00" fill="#000000">...</text>
<polygon fill="#ffffff" stroke="transparent" points="221,-220.6119 221,-239.6119 288,-239.6119 288,-220.6119 221,-220.6119"/>
<polygon fill="none" stroke="#000000" points="221,-220.6119 221,-239.6119 288,-239.6119 288,-220.6119 221,-220.6119"/>
<text text-anchor="start" x="224" y="-226.7119" font-family="Helvetica,sans-Serif" font-size="11.00" fill="#000000">&lt; 1</text>
<polygon fill="#ffffff" stroke="transparent" points="288,-220.6119 288,-239.6119 349,-239.6119 349,-220.6119 288,-220.6119"/>
<polygon fill="none" stroke="#000000" points="288,-220.6119 288,-239.6119 349,-239.6119 349,-220.6119 288,-220.6119"/>
<text text-anchor="start" x="313.6105" y="-226.7119" font-family="Helvetica,sans-Serif" font-size="11.00" fill="#000000">0 rows</text>
<polygon fill="#ffffff" stroke="transparent" points="349,-220.6119 349,-239.6119 399,-239.6119 399,-220.6119 349,-220.6119"/>
<polygon fill="none" stroke="#000000" points="349,-220.6119 349,-239.6119 399,-239.6119 399,-220.6119 349,-220.6119"/>
<text text-anchor="start" x="374.2904" y="-226.7119" font-family="Helvetica,sans-Serif" font-size="11.00" fill="#000000">17 &gt;</text>
</a>
</g>
</g>
<!-- sccs_diagnostics_summary&#45;&gt;database_meta_data -->
<g id="edge4" class="edge">
<title>sccs_diagnostics_summary:w&#45;&gt;database_meta_data:e</title>
<path fill="none" stroke="#000000" d="M453.124,-252.0131C435.0095,-249.9298 416.5964,-248.6119 399,-248.6119"/>
<polygon fill="#000000" stroke="#000000" points="459.6291,-252.8348 467.1149,-257.4091 463.5976,-253.3361 467.5661,-253.8375 467.5661,-253.8375 467.5661,-253.8375 463.5976,-253.3361 468.0173,-250.2658 459.6291,-252.8348 459.6291,-252.8348"/>
<ellipse fill="none" stroke="#000000" cx="456.4544" cy="-252.4337" rx="3.2" ry="3.2"/>
</g>
<!-- sccs_exposures_outcome_set -->
<g id="node5" class="node">
<title>sccs_exposures_outcome_set</title>
<g id="a_node5"><a xlink:href="../../tables/sccs_exposures_outcome_set.html" xlink:title="sccs_exposures_outcome_set" target="_top">
<polygon fill="#ffffff" stroke="transparent" points="193,-75.1119 193,-136.1119 427,-136.1119 427,-75.1119 193,-75.1119"/>
<polygon fill="#f5f5f5" stroke="transparent" points="193,-112.6119 193,-135.6119 427,-135.6119 427,-112.6119 193,-112.6119"/>
<polygon fill="none" stroke="#000000" points="193,-112.6119 193,-135.6119 427,-135.6119 427,-112.6119 193,-112.6119"/>
<text text-anchor="start" x="198" y="-121.2119" font-family="Helvetica,sans-Serif" font-weight="bold" font-size="11.00" fill="#000000">sccs_exposures_outcome_set</text>
<text text-anchor="start" x="392.5219" y="-120.7119" font-family="Helvetica,sans-Serif" font-size="11.00" fill="#000000">[table]</text>
<polygon fill="none" stroke="#000000" points="193,-93.6119 193,-112.6119 427,-112.6119 427,-93.6119 193,-93.6119"/>
<text text-anchor="start" x="196" y="-99.7119" font-family="Helvetica,sans-Serif" font-size="11.00" fill="#000000">...</text>
<polygon fill="#ffffff" stroke="transparent" points="193,-74.6119 193,-93.6119 288,-93.6119 288,-74.6119 193,-74.6119"/>
<polygon fill="none" stroke="#000000" points="193,-74.6119 193,-93.6119 288,-93.6119 288,-74.6119 193,-74.6119"/>
<text text-anchor="start" x="196" y="-80.7119" font-family="Helvetica,sans-Serif" font-size="11.00" fill="#000000">&lt; 3</text>
<polygon fill="#ffffff" stroke="transparent" points="288,-74.6119 288,-93.6119 363,-93.6119 363,-74.6119 288,-74.6119"/>
<polygon fill="none" stroke="#000000" points="288,-74.6119 288,-93.6119 363,-93.6119 363,-74.6119 288,-74.6119"/>
<text text-anchor="start" x="327.6105" y="-80.7119" font-family="Helvetica,sans-Serif" font-size="11.00" fill="#000000">0 rows</text>
<polygon fill="#ffffff" stroke="transparent" points="363,-74.6119 363,-93.6119 427,-93.6119 427,-74.6119 363,-74.6119"/>
<polygon fill="none" stroke="#000000" points="363,-74.6119 363,-93.6119 427,-93.6119 427,-74.6119 363,-74.6119"/>
<text text-anchor="start" x="402.2904" y="-80.7119" font-family="Helvetica,sans-Serif" font-size="11.00" fill="#000000">10 &gt;</text>
</a>
</g>
</g>
<!-- sccs_diagnostics_summary&#45;&gt;sccs_exposures_outcome_set -->
<g id="edge7" class="edge">
<title>sccs_diagnostics_summary:w&#45;&gt;sccs_exposures_outcome_set:e</title>
<path fill="none" stroke="#000000" d="M549.8691,-232.4921C508.7371,-180.3455 444.4896,-102.6119 427,-102.6119"/>
<polygon fill="#000000" stroke="#000000" points="553.8357,-237.5465 555.9426,-246.0625 556.3051,-240.6932 558.7746,-243.8399 558.7746,-243.8399 558.7746,-243.8399 556.3051,-240.6932 561.6067,-241.6174 553.8357,-237.5465 553.8357,-237.5465"/>
<ellipse fill="none" stroke="#000000" cx="551.8601" cy="-235.0292" rx="3.2" ry="3.2"/>
</g>
<!-- sccs_exposures_outcome_set&#45;&gt;sccs_covariate -->
<g id="edge8" class="edge">
<title>sccs_exposures_outcome_set:w&#45;&gt;sccs_covariate:e</title>
<path fill="none" stroke="#000000" d="M182.8194,-104.8044C158.446,-117.2654 180.1079,-178.6119 144,-178.6119"/>
<polygon fill="#000000" stroke="#000000" points="191.3757,-98.87 193.0601,-106.6906 191.496,-107.0275 189.8116,-99.2068 191.3757,-98.87"/>
<polyline fill="none" stroke="#000000" points="193,-102.6119 189.0897,-103.4541 "/>
<ellipse fill="none" stroke="#000000" cx="185.9614" cy="-104.1278" rx="3.2" ry="3.2"/>
</g>
<!-- sccs_exposure -->
<g id="node6" class="node">
<title>sccs_exposure</title>
<g id="a_node6"><a xlink:href="../../tables/sccs_exposure.html" xlink:title="sccs_exposure" target="_top">
<polygon fill="#ffffff" stroke="transparent" points="8.5,-46.1119 8.5,-107.1119 143.5,-107.1119 143.5,-46.1119 8.5,-46.1119"/>
<polygon fill="#f5f5f5" stroke="transparent" points="9,-83.6119 9,-106.6119 144,-106.6119 144,-83.6119 9,-83.6119"/>
<polygon fill="none" stroke="#000000" points="9,-83.6119 9,-106.6119 144,-106.6119 144,-83.6119 9,-83.6119"/>
<text text-anchor="start" x="14" y="-92.2119" font-family="Helvetica,sans-Serif" font-weight="bold" font-size="11.00" fill="#000000">sccs_exposure</text>
<text text-anchor="start" x="109.5219" y="-91.7119" font-family="Helvetica,sans-Serif" font-size="11.00" fill="#000000">[table]</text>
<polygon fill="none" stroke="#000000" points="9,-64.6119 9,-83.6119 144,-83.6119 144,-64.6119 9,-64.6119"/>
<text text-anchor="start" x="12" y="-70.7119" font-family="Helvetica,sans-Serif" font-size="11.00" fill="#000000">...</text>
<polygon fill="#ffffff" stroke="transparent" points="9,-45.6119 9,-64.6119 53,-64.6119 53,-45.6119 9,-45.6119"/>
<polygon fill="none" stroke="#000000" points="9,-45.6119 9,-64.6119 53,-64.6119 53,-45.6119 9,-45.6119"/>
<text text-anchor="start" x="12" y="-51.7119" font-family="Helvetica,sans-Serif" font-size="11.00" fill="#000000"> &#160;</text>
<polygon fill="#ffffff" stroke="transparent" points="53,-45.6119 53,-64.6119 107,-64.6119 107,-45.6119 53,-45.6119"/>
<polygon fill="none" stroke="#000000" points="53,-45.6119 53,-64.6119 107,-64.6119 107,-45.6119 53,-45.6119"/>
<text text-anchor="start" x="71.6105" y="-51.7119" font-family="Helvetica,sans-Serif" font-size="11.00" fill="#000000">0 rows</text>
<polygon fill="#ffffff" stroke="transparent" points="107,-45.6119 107,-64.6119 144,-64.6119 144,-45.6119 107,-45.6119"/>
<polygon fill="none" stroke="#000000" points="107,-45.6119 107,-64.6119 144,-64.6119 144,-45.6119 107,-45.6119"/>
<text text-anchor="start" x="125.4053" y="-51.7119" font-family="Helvetica,sans-Serif" font-size="11.00" fill="#000000">2 &gt;</text>
</a>
</g>
</g>
<!-- sccs_exposures_outcome_set&#45;&gt;sccs_exposure -->
<g id="edge9" class="edge">
<title>sccs_exposures_outcome_set:w&#45;&gt;sccs_exposure:e</title>
<path fill="none" stroke="#000000" d="M182.4806,-100.5263C167.4984,-93.8768 165.1543,-73.6119 144,-73.6119"/>
<polygon fill="#000000" stroke="#000000" points="192.9932,-98.5326 191.4373,-106.3799 189.8679,-106.0687 191.4238,-98.2215 192.9932,-98.5326"/>
<polyline fill="none" stroke="#000000" points="193,-102.6119 189.0764,-101.8339 "/>
<ellipse fill="none" stroke="#000000" cx="185.9375" cy="-101.2116" rx="3.2" ry="3.2"/>
</g>
<!-- sccs_result -->
<g id="node7" class="node">
<title>sccs_result</title>
<g id="a_node7"><a xlink:href="../../tables/sccs_result.html" xlink:title="sccs_result" target="_top">
<polygon fill="#ffffff" stroke="transparent" points="744,-170.1119 744,-231.1119 857,-231.1119 857,-170.1119 744,-170.1119"/>
<polygon fill="#f5f5f5" stroke="transparent" points="744.5,-207.6119 744.5,-230.6119 857.5,-230.6119 857.5,-207.6119 744.5,-207.6119"/>
<polygon fill="none" stroke="#000000" points="744.5,-207.6119 744.5,-230.6119 857.5,-230.6119 857.5,-207.6119 744.5,-207.6119"/>
<text text-anchor="start" x="749.5" y="-216.2119" font-family="Helvetica,sans-Serif" font-weight="bold" font-size="11.00" fill="#000000">sccs_result</text>
<text text-anchor="start" x="823.0219" y="-215.7119" font-family="Helvetica,sans-Serif" font-size="11.00" fill="#000000">[table]</text>
<polygon fill="none" stroke="#000000" points="744.5,-188.6119 744.5,-207.6119 857.5,-207.6119 857.5,-188.6119 744.5,-188.6119"/>
<text text-anchor="start" x="747.5" y="-194.7119" font-family="Helvetica,sans-Serif" font-size="11.00" fill="#000000">...</text>
<polygon fill="#ffffff" stroke="transparent" points="744.5,-169.6119 744.5,-188.6119 789.5,-188.6119 789.5,-169.6119 744.5,-169.6119"/>
<polygon fill="none" stroke="#000000" points="744.5,-169.6119 744.5,-188.6119 789.5,-188.6119 789.5,-169.6119 744.5,-169.6119"/>
<text text-anchor="start" x="747.5" y="-175.7119" font-family="Helvetica,sans-Serif" font-size="11.00" fill="#000000">&lt; 12</text>
<polygon fill="#ffffff" stroke="transparent" points="789.5,-169.6119 789.5,-188.6119 836.5,-188.6119 836.5,-169.6119 789.5,-169.6119"/>
<polygon fill="none" stroke="#000000" points="789.5,-169.6119 789.5,-188.6119 836.5,-188.6119 836.5,-169.6119 789.5,-169.6119"/>
<text text-anchor="start" x="801.1105" y="-175.7119" font-family="Helvetica,sans-Serif" font-size="11.00" fill="#000000">0 rows</text>
<polygon fill="#ffffff" stroke="transparent" points="836.5,-169.6119 836.5,-188.6119 857.5,-188.6119 857.5,-169.6119 836.5,-169.6119"/>
<polygon fill="none" stroke="#000000" points="836.5,-169.6119 836.5,-188.6119 857.5,-188.6119 857.5,-169.6119 836.5,-169.6119"/>
<text text-anchor="start" x="848.3862" y="-175.7119" font-family="Helvetica,sans-Serif" font-size="11.00" fill="#000000"> &#160;</text>
</a>
</g>
</g>
<!-- sccs_result&#45;&gt;sccs_diagnostics_summary -->
<g id="edge12" class="edge">
<title>sccs_result:w&#45;&gt;sccs_diagnostics_summary:e</title>
<path fill="none" stroke="#000000" d="M722.162,-215.2588C696.7592,-223.6251 669.0062,-233.9798 645.1865,-244.0431"/>
<polygon fill="#000000" stroke="#000000" points="728.374,-213.2696 737.0908,-214.2584 732.1835,-212.0498 735.9929,-210.8299 735.9929,-210.8299 735.9929,-210.8299 732.1835,-212.0498 734.895,-207.4014 728.374,-213.2696 728.374,-213.2696"/>
<ellipse fill="none" stroke="#000000" cx="725.3264" cy="-214.2455" rx="3.2" ry="3.2"/>
</g>
<!-- sccs_result&#45;&gt;sccs_diagnostics_summary -->
<g id="edge14" class="edge">
<title>sccs_result:w&#45;&gt;sccs_diagnostics_summary:e</title>
<path fill="none" stroke="#000000" d="M722.2922,-224.6368C704.8628,-230.7751 686.3213,-237.4857 668.6991,-244.0318"/>
<polygon fill="#000000" stroke="#000000" points="728.4404,-222.4892 737.1801,-223.2495 732.2167,-221.17 735.9929,-219.8509 735.9929,-219.8509 735.9929,-219.8509 732.2167,-221.17 734.8057,-216.4523 728.4404,-222.4892 728.4404,-222.4892"/>
<ellipse fill="none" stroke="#000000" cx="725.4195" cy="-223.5445" rx="3.2" ry="3.2"/>
</g>
<!-- sccs_result&#45;&gt;sccs_diagnostics_summary -->
<g id="edge17" class="edge">
<title>sccs_result:w&#45;&gt;sccs_diagnostics_summary:e</title>
<path fill="none" stroke="#000000" d="M722.4163,-234.0112C713.6029,-237.3182 704.5037,-240.6785 695.3816,-243.9967"/>
<polygon fill="#000000" stroke="#000000" points="728.511,-231.7041 737.2674,-232.2388 732.252,-230.288 735.9929,-228.8719 735.9929,-228.8719 735.9929,-228.8719 732.252,-230.288 734.7184,-225.505 728.511,-231.7041 728.511,-231.7041"/>
<ellipse fill="none" stroke="#000000" cx="725.5182" cy="-232.837" rx="3.2" ry="3.2"/>
</g>
<!-- sccs_result&#45;&gt;sccs_diagnostics_summary -->
<g id="edge19" class="edge">
<title>sccs_result:w&#45;&gt;sccs_diagnostics_summary:e</title>
<path fill="none" stroke="#000000" d="M728.7999,-240.8588C720.5663,-244.2105 712.0164,-247.5466 703.3762,-250.7852"/>
<polygon fill="#000000" stroke="#000000" points="734.9349,-238.2989 743.7043,-238.5404 738.6264,-236.7585 742.3179,-235.2181 742.3179,-235.2181 742.3179,-235.2181 738.6264,-236.7585 740.9315,-231.8957 734.9349,-238.2989 734.9349,-238.2989"/>
<ellipse fill="none" stroke="#000000" cx="731.9817" cy="-239.5312" rx="3.2" ry="3.2"/>
</g>
<!-- sccs_result&#45;&gt;sccs_analysis -->
<g id="edge10" class="edge">
<title>sccs_result:w&#45;&gt;sccs_analysis:e</title>
<path fill="none" stroke="#000000" d="M770.965,-247.0037C753.5975,-271.2789 729.8089,-299.953 703,-319.6119 584.4659,-406.5324 542.9882,-442.6119 396,-442.6119"/>
<polygon fill="#000000" stroke="#000000" points="774.6388,-241.7125 782.1586,-237.1943 776.9202,-238.4268 779.2015,-235.1411 779.2015,-235.1411 779.2015,-235.1411 776.9202,-238.4268 776.2444,-233.0879 774.6388,-241.7125 774.6388,-241.7125"/>
<ellipse fill="none" stroke="#000000" cx="772.8138" cy="-244.341" rx="3.2" ry="3.2"/>
</g>
<!-- sccs_result&#45;&gt;sccs_covariate -->
<g id="edge11" class="edge">
<title>sccs_result:w&#45;&gt;sccs_covariate:e</title>
<path fill="none" stroke="#000000" d="M721.3384,-184.6099C598.0046,-172.3843 352.4855,-165.0433 144,-178.6119"/>
<polygon fill="#000000" stroke="#000000" points="727.8064,-185.2888 735.3869,-189.7043 731.7846,-185.7064 735.7627,-186.124 735.7627,-186.124 735.7627,-186.124 731.7846,-185.7064 736.1385,-182.5437 727.8064,-185.2888 727.8064,-185.2888"/>
<ellipse fill="none" stroke="#000000" cx="724.6239" cy="-184.9547" rx="3.2" ry="3.2"/>
</g>
<!-- sccs_result&#45;&gt;sccs_covariate -->
<g id="edge13" class="edge">
<title>sccs_result:w&#45;&gt;sccs_covariate:e</title>
<path fill="none" stroke="#000000" d="M721.3384,-192.5716C598.0046,-184.3219 352.4855,-174.3271 144,-178.6119"/>
<polygon fill="#000000" stroke="#000000" points="727.7817,-193.0166 735.5146,-197.1594 731.7722,-193.2923 735.7627,-193.568 735.7627,-193.568 735.7627,-193.568 731.7722,-193.2923 736.0108,-189.9765 727.7817,-193.0166 727.7817,-193.0166"/>
<ellipse fill="none" stroke="#000000" cx="724.5893" cy="-192.7961" rx="3.2" ry="3.2"/>
</g>
<!-- sccs_result&#45;&gt;sccs_covariate -->
<g id="edge16" class="edge">
<title>sccs_result:w&#45;&gt;sccs_covariate:e</title>
<path fill="none" stroke="#000000" d="M721.3384,-200.5333C598.0046,-196.2596 352.4855,-183.6108 144,-178.6119"/>
<polygon fill="#000000" stroke="#000000" points="727.7671,-200.7466 735.6433,-204.61 731.7649,-200.8793 735.7627,-201.0119 735.7627,-201.0119 735.7627,-201.0119 731.7649,-200.8793 735.8821,-197.4139 727.7671,-200.7466 727.7671,-200.7466"/>
<ellipse fill="none" stroke="#000000" cx="724.5689" cy="-200.6405" rx="3.2" ry="3.2"/>
</g>
<!-- sccs_result&#45;&gt;sccs_covariate -->
<g id="edge18" class="edge">
<title>sccs_result:w&#45;&gt;sccs_covariate:e</title>
<path fill="none" stroke="#000000" d="M721.3384,-208.4951C598.0046,-208.1972 352.4855,-192.8945 144,-178.6119"/>
<polygon fill="#000000" stroke="#000000" points="727.7627,-208.4777 735.7725,-212.0559 731.7627,-208.4668 735.7627,-208.4559 735.7627,-208.4559 735.7627,-208.4559 731.7627,-208.4668 735.7529,-204.8559 727.7627,-208.4777 727.7627,-208.4777"/>
<ellipse fill="none" stroke="#000000" cx="724.5627" cy="-208.4864" rx="3.2" ry="3.2"/>
</g>
<!-- sccs_result&#45;&gt;database_meta_data -->
<g id="edge15" class="edge">
<title>sccs_result:w&#45;&gt;database_meta_data:e</title>
<path fill="none" stroke="#000000" d="M720.9774,-208.3944C653.536,-215.2498 554.2861,-225.9397 468,-237.6119 437.2264,-241.7747 430.0539,-248.6119 399,-248.6119"/>
<polygon fill="#000000" stroke="#000000" points="727.7545,-207.7099 736.0758,-210.4877 731.7342,-207.3079 735.714,-206.9059 735.714,-206.9059 735.714,-206.9059 731.7342,-207.3079 735.3522,-203.3242 727.7545,-207.7099 727.7545,-207.7099"/>
<ellipse fill="none" stroke="#000000" cx="724.5707" cy="-208.0315" rx="3.2" ry="3.2"/>
</g>
<!-- sccs_result&#45;&gt;sccs_exposures_outcome_set -->
<g id="edge21" class="edge">
<title>sccs_result:w&#45;&gt;sccs_exposures_outcome_set:e</title>
<path fill="none" stroke="#000000" d="M726.917,-159.9736C718.9833,-156.4724 710.9161,-153.2617 703,-150.6119 584.9315,-111.089 551.5079,-102.6119 427,-102.6119"/>
<polygon fill="#000000" stroke="#000000" points="732.8371,-162.7229 738.5765,-169.3577 736.465,-164.4078 740.0928,-166.0926 740.0928,-166.0926 740.0928,-166.0926 736.465,-164.4078 741.6092,-162.8275 732.8371,-162.7229 732.8371,-162.7229"/>
<ellipse fill="none" stroke="#000000" cx="729.9348" cy="-161.375" rx="3.2" ry="3.2"/>
</g>
<!-- sccs_result&#45;&gt;sccs_exposure -->
<g id="edge20" class="edge">
<title>sccs_result:w&#45;&gt;sccs_exposure:e</title>
<path fill="none" stroke="#000000" d="M767.1807,-154.6044C750.2581,-134.7215 727.9917,-113.1748 703,-100.6119 496.8081,3.0375 414.4319,-39.7266 185,-64.6119 166.4527,-66.6236 162.6561,-73.6119 144,-73.6119"/>
<polygon fill="#000000" stroke="#000000" points="771.4504,-159.8391 773.7174,-168.3138 773.9788,-162.9387 776.5071,-166.0383 776.5071,-166.0383 776.5071,-166.0383 773.9788,-162.9387 779.2967,-163.7629 771.4504,-159.8391 771.4504,-159.8391"/>
<ellipse fill="none" stroke="#000000" cx="769.4278" cy="-157.3594" rx="3.2" ry="3.2"/>
</g>
</g>
</svg>
