<?xml version="1.0" encoding="UTF-8" standalone="no"?>
<!DOCTYPE svg PUBLIC "-//W3C//DTD SVG 1.1//EN"
 "http://www.w3.org/Graphics/SVG/1.1/DTD/svg11.dtd">
<!-- Generated by graphviz version 2.40.1 (20161225.0304)
 -->
<!-- Title: oneDegreeRelationshipsDiagram Pages: 1 -->
<svg width="300pt" height="206pt"
 viewBox="0.00 0.00 300.00 206.20" xmlns="http://www.w3.org/2000/svg" xmlns:xlink="http://www.w3.org/1999/xlink">
<g id="graph0" class="graph" transform="scale(1 1) rotate(0) translate(4 202.2)">
<title>oneDegreeRelationshipsDiagram</title>
<polygon fill="#ffffff" stroke="transparent" points="-4,4 -4,-202.2 296,-202.2 296,4 -4,4"/>
<text text-anchor="middle" x="72.4936" y="-7.3" font-family="Helvetica,sans-Serif" font-size="11.00" fill="#000000">Generated by SchemaSpy</text>
<!-- sccs_sccs_age_spanning -->
<g id="node1" class="node">
<title>sccs_sccs_age_spanning</title>
<g id="a_node1"><a xlink:href="../../tables/sccs_sccs_age_spanning.html" xlink:title="sccs_sccs_age_spanning" target="_top">
<polygon fill="#ffffff" stroke="transparent" points="8,-38.2 8,-194.2 284,-194.2 284,-38.2 8,-38.2"/>
<polygon fill="#f5f5f5" stroke="transparent" points="10,-169.2 10,-192.2 282,-192.2 282,-169.2 10,-169.2"/>
<polygon fill="none" stroke="#000000" points="10,-169.2 10,-192.2 282,-192.2 282,-169.2 10,-169.2"/>
<text text-anchor="start" x="15" y="-177.8" font-family="Helvetica,sans-Serif" font-weight="bold" font-size="11.00" fill="#000000">sccs_sccs_age_spanning</text>
<text text-anchor="start" x="247.0437" y="-177.3" font-family="Helvetica,sans-Serif" font-size="11.00" fill="#000000">[table]</text>
<polygon fill="none" stroke="#000000" points="10,-147.2 10,-169.2 220,-169.2 220,-147.2 10,-147.2"/>
<text text-anchor="start" x="30" y="-154.3" font-family="Helvetica,sans-Serif" font-size="11.00" fill="#000000">age_month</text>
<polygon fill="none" stroke="#000000" points="220,-147.2 220,-169.2 282,-169.2 282,-147.2 220,-147.2"/>
<text text-anchor="start" x="222.878" y="-154.9" font-family="Helvetica,sans-Serif" font-size="11.00" fill="#000000">unknown[0]</text>
<polygon fill="none" stroke="#000000" points="10,-125.2 10,-147.2 220,-147.2 220,-125.2 10,-125.2"/>
<text text-anchor="start" x="30" y="-132.3" font-family="Helvetica,sans-Serif" font-size="11.00" fill="#000000">analysis_id</text>
<polygon fill="none" stroke="#000000" points="220,-125.2 220,-147.2 282,-147.2 282,-125.2 220,-125.2"/>
<text text-anchor="start" x="222.878" y="-132.9" font-family="Helvetica,sans-Serif" font-size="11.00" fill="#000000">unknown[0]</text>
<polygon fill="none" stroke="#000000" points="10,-103.2 10,-125.2 220,-125.2 220,-103.2 10,-103.2"/>
<text text-anchor="start" x="30" y="-110.3" font-family="Helvetica,sans-Serif" font-size="11.00" fill="#000000">cover_before_after_subjects</text>
<polygon fill="none" stroke="#000000" points="220,-103.2 220,-125.2 282,-125.2 282,-103.2 220,-103.2"/>
<text text-anchor="start" x="222.878" y="-110.9" font-family="Helvetica,sans-Serif" font-size="11.00" fill="#000000">unknown[0]</text>
<polygon fill="none" stroke="#000000" points="10,-81.2 10,-103.2 220,-103.2 220,-81.2 10,-81.2"/>
<text text-anchor="start" x="30" y="-88.3" font-family="Helvetica,sans-Serif" font-size="11.00" fill="#000000">database_id</text>
<polygon fill="none" stroke="#000000" points="220,-81.2 220,-103.2 282,-103.2 282,-81.2 220,-81.2"/>
<text text-anchor="start" x="222.878" y="-88.9" font-family="Helvetica,sans-Serif" font-size="11.00" fill="#000000">unknown[0]</text>
<polygon fill="none" stroke="#000000" points="10,-59.2 10,-81.2 220,-81.2 220,-59.2 10,-59.2"/>
<text text-anchor="start" x="30" y="-66.3" font-family="Helvetica,sans-Serif" font-size="11.00" fill="#000000">exposures_outcome_set_id</text>
<polygon fill="none" stroke="#000000" points="220,-59.2 220,-81.2 282,-81.2 282,-59.2 220,-59.2"/>
<text text-anchor="start" x="222.878" y="-66.9" font-family="Helvetica,sans-Serif" font-size="11.00" fill="#000000">unknown[0]</text>
<polygon fill="#ffffff" stroke="transparent" points="10,-40.2 10,-59.2 106,-59.2 106,-40.2 10,-40.2"/>
<polygon fill="none" stroke="#000000" points="10,-40.2 10,-59.2 106,-59.2 106,-40.2 10,-40.2"/>
<text text-anchor="start" x="13" y="-46.3" font-family="Helvetica,sans-Serif" font-size="11.00" fill="#000000">&lt; 0</text>
<polygon fill="#ffffff" stroke="transparent" points="106,-40.2 106,-59.2 220,-59.2 220,-40.2 106,-40.2"/>
<polygon fill="none" stroke="#000000" points="106,-40.2 106,-59.2 220,-59.2 220,-40.2 106,-40.2"/>
<text text-anchor="start" x="184.6105" y="-46.3" font-family="Helvetica,sans-Serif" font-size="11.00" fill="#000000">0 rows</text>
<polygon fill="#ffffff" stroke="transparent" points="220,-40.2 220,-59.2 282,-59.2 282,-40.2 220,-40.2"/>
<polygon fill="none" stroke="#000000" points="220,-40.2 220,-59.2 282,-59.2 282,-40.2 220,-40.2"/>
<text text-anchor="start" x="263.4053" y="-46.3" font-family="Helvetica,sans-Serif" font-size="11.00" fill="#000000">0 &gt;</text>
<polygon fill="none" stroke="#000000" stroke-width="2" points="9,-39.2 9,-193.2 283,-193.2 283,-39.2 9,-39.2"/>
</a>
</g>
</g>
</g>
</svg>
