<?xml version="1.0" encoding="UTF-8" standalone="no"?>
<!DOCTYPE svg PUBLIC "-//W3C//DTD SVG 1.1//EN"
 "http://www.w3.org/Graphics/SVG/1.1/DTD/svg11.dtd">
<!-- Generated by graphviz version 2.40.1 (20161225.0304)
 -->
<!-- Title: oneDegreeRelationshipsDiagram Pages: 1 -->
<svg width="822pt" height="434pt"
 viewBox="0.00 0.00 822.00 434.20" xmlns="http://www.w3.org/2000/svg" xmlns:xlink="http://www.w3.org/1999/xlink">
<g id="graph0" class="graph" transform="scale(1 1) rotate(0) translate(4 430.2)">
<title>oneDegreeRelationshipsDiagram</title>
<polygon fill="#ffffff" stroke="transparent" points="-4,4 -4,-430.2 818,-430.2 818,4 -4,4"/>
<text text-anchor="middle" x="72.4936" y="-7.3" font-family="Helvetica,sans-Serif" font-size="11.00" fill="#000000">Generated by SchemaSpy</text>
<!-- sccs_covariate_result -->
<g id="node1" class="node">
<title>sccs_covariate_result</title>
<g id="a_node1"><a xlink:href="../../tables/sccs_covariate_result.html" xlink:title="sccs_covariate_result" target="_top">
<polygon fill="#ffffff" stroke="transparent" points="540,-186.7 540,-386.7 806,-386.7 806,-186.7 540,-186.7"/>
<polygon fill="#f5f5f5" stroke="transparent" points="542,-361.7 542,-384.7 804,-384.7 804,-361.7 542,-361.7"/>
<polygon fill="none" stroke="#000000" points="542,-361.7 542,-384.7 804,-384.7 804,-361.7 542,-361.7"/>
<text text-anchor="start" x="547" y="-370.3" font-family="Helvetica,sans-Serif" font-weight="bold" font-size="11.00" fill="#000000">sccs_covariate_result</text>
<text text-anchor="start" x="769.0437" y="-369.8" font-family="Helvetica,sans-Serif" font-size="11.00" fill="#000000">[table]</text>
<polygon fill="none" stroke="#000000" points="542,-339.7 542,-361.7 742,-361.7 742,-339.7 542,-339.7"/>
<image xlink:href="../../images/foreignKeys.png" width="11px" height="12px" preserveAspectRatio="xMinYMin meet" x="547" y="-356.7"/>
<text text-anchor="start" x="562" y="-346.8" font-family="Helvetica,sans-Serif" font-size="11.00" fill="#000000">analysis_id</text>
<polygon fill="none" stroke="#000000" points="742,-339.7 742,-361.7 804,-361.7 804,-339.7 742,-339.7"/>
<text text-anchor="start" x="744.878" y="-347.4" font-family="Helvetica,sans-Serif" font-size="11.00" fill="#000000">unknown[0]</text>
<polygon fill="none" stroke="#000000" points="542,-317.7 542,-339.7 742,-339.7 742,-317.7 542,-317.7"/>
<text text-anchor="start" x="562" y="-324.8" font-family="Helvetica,sans-Serif" font-size="11.00" fill="#000000">ci_95_lb</text>
<polygon fill="none" stroke="#000000" points="742,-317.7 742,-339.7 804,-339.7 804,-317.7 742,-317.7"/>
<text text-anchor="start" x="744.878" y="-325.4" font-family="Helvetica,sans-Serif" font-size="11.00" fill="#000000">unknown[0]</text>
<polygon fill="none" stroke="#000000" points="542,-295.7 542,-317.7 742,-317.7 742,-295.7 542,-295.7"/>
<text text-anchor="start" x="562" y="-302.8" font-family="Helvetica,sans-Serif" font-size="11.00" fill="#000000">ci_95_ub</text>
<polygon fill="none" stroke="#000000" points="742,-295.7 742,-317.7 804,-317.7 804,-295.7 742,-295.7"/>
<text text-anchor="start" x="744.878" y="-303.4" font-family="Helvetica,sans-Serif" font-size="11.00" fill="#000000">unknown[0]</text>
<polygon fill="none" stroke="#000000" points="542,-273.7 542,-295.7 742,-295.7 742,-273.7 542,-273.7"/>
<image xlink:href="../../images/foreignKeys.png" width="11px" height="12px" preserveAspectRatio="xMinYMin meet" x="547" y="-290.7"/>
<text text-anchor="start" x="562" y="-280.8" font-family="Helvetica,sans-Serif" font-size="11.00" fill="#000000">covariate_id</text>
<polygon fill="none" stroke="#000000" points="742,-273.7 742,-295.7 804,-295.7 804,-273.7 742,-273.7"/>
<text text-anchor="start" x="744.878" y="-281.4" font-family="Helvetica,sans-Serif" font-size="11.00" fill="#000000">unknown[0]</text>
<polygon fill="none" stroke="#000000" points="542,-251.7 542,-273.7 742,-273.7 742,-251.7 542,-251.7"/>
<image xlink:href="../../images/foreignKeys.png" width="11px" height="12px" preserveAspectRatio="xMinYMin meet" x="547" y="-268.7"/>
<text text-anchor="start" x="562" y="-258.8" font-family="Helvetica,sans-Serif" font-size="11.00" fill="#000000">database_id</text>
<polygon fill="none" stroke="#000000" points="742,-251.7 742,-273.7 804,-273.7 804,-251.7 742,-251.7"/>
<text text-anchor="start" x="744.878" y="-259.4" font-family="Helvetica,sans-Serif" font-size="11.00" fill="#000000">unknown[0]</text>
<polygon fill="none" stroke="#000000" points="542,-229.7 542,-251.7 742,-251.7 742,-229.7 542,-229.7"/>
<image xlink:href="../../images/foreignKeys.png" width="11px" height="12px" preserveAspectRatio="xMinYMin meet" x="547" y="-246.7"/>
<text text-anchor="start" x="562" y="-236.8" font-family="Helvetica,sans-Serif" font-size="11.00" fill="#000000">exposures_outcome_set_id</text>
<polygon fill="none" stroke="#000000" points="742,-229.7 742,-251.7 804,-251.7 804,-229.7 742,-229.7"/>
<text text-anchor="start" x="744.878" y="-237.4" font-family="Helvetica,sans-Serif" font-size="11.00" fill="#000000">unknown[0]</text>
<polygon fill="none" stroke="#000000" points="542,-207.7 542,-229.7 742,-229.7 742,-207.7 542,-207.7"/>
<text text-anchor="start" x="562" y="-214.8" font-family="Helvetica,sans-Serif" font-size="11.00" fill="#000000">rr</text>
<polygon fill="none" stroke="#000000" points="742,-207.7 742,-229.7 804,-229.7 804,-207.7 742,-207.7"/>
<text text-anchor="start" x="744.878" y="-215.4" font-family="Helvetica,sans-Serif" font-size="11.00" fill="#000000">unknown[0]</text>
<polygon fill="#ffffff" stroke="transparent" points="542,-188.7 542,-207.7 633,-207.7 633,-188.7 542,-188.7"/>
<polygon fill="none" stroke="#000000" points="542,-188.7 542,-207.7 633,-207.7 633,-188.7 542,-188.7"/>
<text text-anchor="start" x="545" y="-194.8" font-family="Helvetica,sans-Serif" font-size="11.00" fill="#000000">&lt; 8</text>
<polygon fill="#ffffff" stroke="transparent" points="633,-188.7 633,-207.7 742,-207.7 742,-188.7 633,-188.7"/>
<polygon fill="none" stroke="#000000" points="633,-188.7 633,-207.7 742,-207.7 742,-188.7 633,-188.7"/>
<text text-anchor="start" x="706.6105" y="-194.8" font-family="Helvetica,sans-Serif" font-size="11.00" fill="#000000">0 rows</text>
<polygon fill="#ffffff" stroke="transparent" points="742,-188.7 742,-207.7 804,-207.7 804,-188.7 742,-188.7"/>
<polygon fill="none" stroke="#000000" points="742,-188.7 742,-207.7 804,-207.7 804,-188.7 742,-188.7"/>
<text text-anchor="start" x="785.4053" y="-194.8" font-family="Helvetica,sans-Serif" font-size="11.00" fill="#000000">0 &gt;</text>
<polygon fill="none" stroke="#000000" stroke-width="2" points="541,-187.7 541,-385.7 805,-385.7 805,-187.7 541,-187.7"/>
</a>
</g>
</g>
<!-- sccs_covariate -->
<g id="node2" class="node">
<title>sccs_covariate</title>
<g id="a_node2"><a xlink:href="../../tables/sccs_covariate.html" xlink:title="sccs_covariate" target="_top">
<polygon fill="#ffffff" stroke="transparent" points="8,-273.2 8,-422.2 208,-422.2 208,-273.2 8,-273.2"/>
<polygon fill="#f5f5f5" stroke="transparent" points="8,-398.7 8,-421.7 208,-421.7 208,-398.7 8,-398.7"/>
<polygon fill="none" stroke="#000000" points="8,-398.7 8,-421.7 208,-421.7 208,-398.7 8,-398.7"/>
<text text-anchor="start" x="13" y="-407.3" font-family="Helvetica,sans-Serif" font-weight="bold" font-size="11.00" fill="#000000">sccs_covariate</text>
<text text-anchor="start" x="173.0437" y="-406.8" font-family="Helvetica,sans-Serif" font-size="11.00" fill="#000000">[table]</text>
<polygon fill="none" stroke="#000000" points="8,-376.7 8,-398.7 208,-398.7 208,-376.7 8,-376.7"/>
<image xlink:href="../../images/primaryKeys.png" width="11px" height="12px" preserveAspectRatio="xMinYMin meet" x="13" y="-393.7"/>
<text text-anchor="start" x="28" y="-383.8" font-family="Helvetica,sans-Serif" font-size="11.00" fill="#000000">analysis_id</text>
<polygon fill="none" stroke="#000000" points="8,-354.7 8,-376.7 208,-376.7 208,-354.7 8,-354.7"/>
<image xlink:href="../../images/primaryKeys.png" width="11px" height="12px" preserveAspectRatio="xMinYMin meet" x="13" y="-371.7"/>
<text text-anchor="start" x="28" y="-361.8" font-family="Helvetica,sans-Serif" font-size="11.00" fill="#000000">covariate_id</text>
<polygon fill="none" stroke="#000000" points="8,-332.7 8,-354.7 208,-354.7 208,-332.7 8,-332.7"/>
<image xlink:href="../../images/primaryKeys.png" width="11px" height="12px" preserveAspectRatio="xMinYMin meet" x="13" y="-349.7"/>
<text text-anchor="start" x="28" y="-339.8" font-family="Helvetica,sans-Serif" font-size="11.00" fill="#000000">database_id</text>
<polygon fill="none" stroke="#000000" points="8,-310.7 8,-332.7 208,-332.7 208,-310.7 8,-310.7"/>
<image xlink:href="../../images/primaryKeys.png" width="11px" height="12px" preserveAspectRatio="xMinYMin meet" x="13" y="-327.7"/>
<text text-anchor="start" x="28" y="-317.8" font-family="Helvetica,sans-Serif" font-size="11.00" fill="#000000">exposures_outcome_set_id</text>
<polygon fill="none" stroke="#000000" points="8,-291.7 8,-310.7 208,-310.7 208,-291.7 8,-291.7"/>
<text text-anchor="start" x="11" y="-297.8" font-family="Helvetica,sans-Serif" font-size="11.00" fill="#000000">...</text>
<polygon fill="#ffffff" stroke="transparent" points="8,-272.7 8,-291.7 81,-291.7 81,-272.7 8,-272.7"/>
<polygon fill="none" stroke="#000000" points="8,-272.7 8,-291.7 81,-291.7 81,-272.7 8,-272.7"/>
<text text-anchor="start" x="11" y="-278.8" font-family="Helvetica,sans-Serif" font-size="11.00" fill="#000000"> &#160;</text>
<polygon fill="#ffffff" stroke="transparent" points="81,-272.7 81,-291.7 150,-291.7 150,-272.7 81,-272.7"/>
<polygon fill="none" stroke="#000000" points="81,-272.7 81,-291.7 150,-291.7 150,-272.7 81,-272.7"/>
<text text-anchor="start" x="114.6105" y="-278.8" font-family="Helvetica,sans-Serif" font-size="11.00" fill="#000000">0 rows</text>
<polygon fill="#ffffff" stroke="transparent" points="150,-272.7 150,-291.7 208,-291.7 208,-272.7 150,-272.7"/>
<polygon fill="none" stroke="#000000" points="150,-272.7 150,-291.7 208,-291.7 208,-272.7 150,-272.7"/>
<text text-anchor="start" x="183.2904" y="-278.8" font-family="Helvetica,sans-Serif" font-size="11.00" fill="#000000">13 &gt;</text>
</a>
</g>
</g>
<!-- sccs_covariate_result&#45;&gt;sccs_covariate -->
<g id="edge1" class="edge">
<title>sccs_covariate_result:w&#45;&gt;sccs_covariate:e</title>
<path fill="none" stroke="#000000" d="M527.9377,-354.7978C518.2623,-361.6903 515.2623,-375.372 499,-380.7 376.0593,-420.9788 337.3707,-387.7 208,-387.7"/>
<polygon fill="#000000" stroke="#000000" points="534.3195,-352.9382 543.0072,-354.1562 538.1597,-351.8191 542,-350.7 542,-350.7 542,-350.7 538.1597,-351.8191 540.9928,-347.2438 534.3195,-352.9382 534.3195,-352.9382"/>
<ellipse fill="none" stroke="#000000" cx="531.2472" cy="-353.8335" rx="3.2" ry="3.2"/>
</g>
<!-- sccs_covariate_result&#45;&gt;sccs_covariate -->
<g id="edge3" class="edge">
<title>sccs_covariate_result:w&#45;&gt;sccs_covariate:e</title>
<path fill="none" stroke="#000000" d="M528.1401,-288.7797C512.5973,-301.2039 524.8582,-338.6409 499,-353.7 443.0715,-386.2713 272.7216,-365.7 208,-365.7"/>
<polygon fill="#000000" stroke="#000000" points="534.3256,-286.959 543.0166,-288.1535 538.1628,-285.8295 542,-284.7 542,-284.7 542,-284.7 538.1628,-285.8295 540.9834,-281.2465 534.3256,-286.959 534.3256,-286.959"/>
<ellipse fill="none" stroke="#000000" cx="531.2558" cy="-287.8627" rx="3.2" ry="3.2"/>
</g>
<!-- sccs_covariate_result&#45;&gt;sccs_covariate -->
<g id="edge4" class="edge">
<title>sccs_covariate_result:w&#45;&gt;sccs_covariate:e</title>
<path fill="none" stroke="#000000" d="M527.933,-267.0053C513.1562,-279.3945 524.1285,-315.1738 499,-329.7 442.9499,-362.1013 272.7415,-343.7 208,-343.7"/>
<polygon fill="#000000" stroke="#000000" points="534.3503,-265.0413 543.0536,-266.1424 538.1751,-263.8707 542,-262.7 542,-262.7 542,-262.7 538.1751,-263.8707 540.9464,-259.2576 534.3503,-265.0413 534.3503,-265.0413"/>
<ellipse fill="none" stroke="#000000" cx="531.2904" cy="-265.9778" rx="3.2" ry="3.2"/>
</g>
<!-- sccs_covariate_result&#45;&gt;sccs_covariate -->
<g id="edge6" class="edge">
<title>sccs_covariate_result:w&#45;&gt;sccs_covariate:e</title>
<path fill="none" stroke="#000000" d="M528.0724,-236.1817C514.924,-224.5274 522.2731,-193.5365 499,-181.7 449.4809,-156.5151 293.4627,-148.391 249,-181.7 197.1102,-220.5729 272.8356,-321.7 208,-321.7"/>
<polygon fill="#000000" stroke="#000000" points="534.3904,-238.2313 540.8891,-244.1243 538.1952,-239.4657 542,-240.7 542,-240.7 542,-240.7 538.1952,-239.4657 543.1109,-237.2757 534.3904,-238.2313 534.3904,-238.2313"/>
<ellipse fill="none" stroke="#000000" cx="531.3466" cy="-237.2439" rx="3.2" ry="3.2"/>
</g>
<!-- sccs_era -->
<g id="node3" class="node">
<title>sccs_era</title>
<g id="a_node3"><a xlink:href="../../tables/sccs_era.html" xlink:title="sccs_era" target="_top">
<polygon fill="#ffffff" stroke="transparent" points="274,-192.2 274,-319.2 474,-319.2 474,-192.2 274,-192.2"/>
<polygon fill="#f5f5f5" stroke="transparent" points="274,-295.7 274,-318.7 474,-318.7 474,-295.7 274,-295.7"/>
<polygon fill="none" stroke="#000000" points="274,-295.7 274,-318.7 474,-318.7 474,-295.7 274,-295.7"/>
<text text-anchor="start" x="279" y="-304.3" font-family="Helvetica,sans-Serif" font-weight="bold" font-size="11.00" fill="#000000">sccs_era</text>
<text text-anchor="start" x="439.0437" y="-303.8" font-family="Helvetica,sans-Serif" font-size="11.00" fill="#000000">[table]</text>
<polygon fill="none" stroke="#000000" points="274,-273.7 274,-295.7 474,-295.7 474,-273.7 274,-273.7"/>
<image xlink:href="../../images/primaryKeys.png" width="11px" height="12px" preserveAspectRatio="xMinYMin meet" x="279" y="-290.7"/>
<text text-anchor="start" x="294" y="-280.8" font-family="Helvetica,sans-Serif" font-size="11.00" fill="#000000">analysis_id</text>
<polygon fill="none" stroke="#000000" points="274,-251.7 274,-273.7 474,-273.7 474,-251.7 274,-251.7"/>
<image xlink:href="../../images/primaryKeys.png" width="11px" height="12px" preserveAspectRatio="xMinYMin meet" x="279" y="-268.7"/>
<text text-anchor="start" x="294" y="-258.8" font-family="Helvetica,sans-Serif" font-size="11.00" fill="#000000">database_id</text>
<polygon fill="none" stroke="#000000" points="274,-229.7 274,-251.7 474,-251.7 474,-229.7 274,-229.7"/>
<image xlink:href="../../images/primaryKeys.png" width="11px" height="12px" preserveAspectRatio="xMinYMin meet" x="279" y="-246.7"/>
<text text-anchor="start" x="294" y="-236.8" font-family="Helvetica,sans-Serif" font-size="11.00" fill="#000000">exposures_outcome_set_id</text>
<polygon fill="none" stroke="#000000" points="274,-210.7 274,-229.7 474,-229.7 474,-210.7 274,-210.7"/>
<text text-anchor="start" x="277" y="-216.8" font-family="Helvetica,sans-Serif" font-size="11.00" fill="#000000">...</text>
<polygon fill="#ffffff" stroke="transparent" points="274,-191.7 274,-210.7 350,-210.7 350,-191.7 274,-191.7"/>
<polygon fill="none" stroke="#000000" points="274,-191.7 274,-210.7 350,-210.7 350,-191.7 274,-191.7"/>
<text text-anchor="start" x="277" y="-197.8" font-family="Helvetica,sans-Serif" font-size="11.00" fill="#000000"> &#160;</text>
<polygon fill="#ffffff" stroke="transparent" points="350,-191.7 350,-210.7 420,-210.7 420,-191.7 350,-191.7"/>
<polygon fill="none" stroke="#000000" points="350,-191.7 350,-210.7 420,-210.7 420,-191.7 350,-191.7"/>
<text text-anchor="start" x="384.6105" y="-197.8" font-family="Helvetica,sans-Serif" font-size="11.00" fill="#000000">0 rows</text>
<polygon fill="#ffffff" stroke="transparent" points="420,-191.7 420,-210.7 474,-210.7 474,-191.7 420,-191.7"/>
<polygon fill="none" stroke="#000000" points="420,-191.7 420,-210.7 474,-210.7 474,-191.7 420,-191.7"/>
<text text-anchor="start" x="455.4053" y="-197.8" font-family="Helvetica,sans-Serif" font-size="11.00" fill="#000000">3 &gt;</text>
</a>
</g>
</g>
<!-- sccs_covariate_result&#45;&gt;sccs_era -->
<g id="edge2" class="edge">
<title>sccs_covariate_result:w&#45;&gt;sccs_era:e</title>
<path fill="none" stroke="#000000" d="M527.6993,-347.3363C503.2314,-333.8868 510.3587,-284.7 474,-284.7"/>
<polygon fill="#000000" stroke="#000000" points="534.2125,-348.8682 541.1757,-354.2044 538.1063,-349.7841 542,-350.7 542,-350.7 542,-350.7 538.1063,-349.7841 542.8243,-347.1956 534.2125,-348.8682 534.2125,-348.8682"/>
<ellipse fill="none" stroke="#000000" cx="531.0975" cy="-348.1355" rx="3.2" ry="3.2"/>
</g>
<!-- sccs_covariate_result&#45;&gt;sccs_era -->
<g id="edge5" class="edge">
<title>sccs_covariate_result:w&#45;&gt;sccs_era:e</title>
<path fill="none" stroke="#000000" d="M527.3657,-262.7C508.2395,-262.7 498.6736,-262.7 474,-262.7"/>
<polygon fill="#000000" stroke="#000000" points="534,-262.7001 542,-266.3 538,-262.7 542,-262.7 542,-262.7 542,-262.7 538,-262.7 542,-259.1 534,-262.7001 534,-262.7001"/>
<ellipse fill="none" stroke="#000000" cx="530.8" cy="-262.7001" rx="3.2" ry="3.2"/>
</g>
<!-- sccs_covariate_result&#45;&gt;sccs_era -->
<g id="edge7" class="edge">
<title>sccs_covariate_result:w&#45;&gt;sccs_era:e</title>
<path fill="none" stroke="#000000" d="M527.3657,-240.7C508.2395,-240.7 498.6736,-240.7 474,-240.7"/>
<polygon fill="#000000" stroke="#000000" points="534,-240.7001 542,-244.3 538,-240.7 542,-240.7 542,-240.7 542,-240.7 538,-240.7 542,-237.1 534,-240.7001 534,-240.7001"/>
<ellipse fill="none" stroke="#000000" cx="530.8" cy="-240.7001" rx="3.2" ry="3.2"/>
</g>
<!-- sccs_exposures_outcome_set -->
<g id="node4" class="node">
<title>sccs_exposures_outcome_set</title>
<g id="a_node4"><a xlink:href="../../tables/sccs_exposures_outcome_set.html" xlink:title="sccs_exposures_outcome_set" target="_top">
<polygon fill="#ffffff" stroke="transparent" points="257,-38.2 257,-143.2 491,-143.2 491,-38.2 257,-38.2"/>
<polygon fill="#f5f5f5" stroke="transparent" points="257,-119.7 257,-142.7 491,-142.7 491,-119.7 257,-119.7"/>
<polygon fill="none" stroke="#000000" points="257,-119.7 257,-142.7 491,-142.7 491,-119.7 257,-119.7"/>
<text text-anchor="start" x="262" y="-128.3" font-family="Helvetica,sans-Serif" font-weight="bold" font-size="11.00" fill="#000000">sccs_exposures_outcome_set</text>
<text text-anchor="start" x="456.5219" y="-127.8" font-family="Helvetica,sans-Serif" font-size="11.00" fill="#000000">[table]</text>
<polygon fill="none" stroke="#000000" points="257,-97.7 257,-119.7 491,-119.7 491,-97.7 257,-97.7"/>
<image xlink:href="../../images/primaryKeys.png" width="11px" height="12px" preserveAspectRatio="xMinYMin meet" x="262" y="-114.7"/>
<text text-anchor="start" x="286" y="-104.8" font-family="Helvetica,sans-Serif" font-size="11.00" fill="#000000">exposures_outcome_set_id</text>
<polygon fill="none" stroke="#000000" points="257,-75.7 257,-97.7 491,-97.7 491,-75.7 257,-75.7"/>
<image xlink:href="../../images/foreignKeys.png" width="11px" height="12px" preserveAspectRatio="xMinYMin meet" x="262" y="-92.7"/>
<text text-anchor="start" x="286" y="-82.8" font-family="Helvetica,sans-Serif" font-size="11.00" fill="#000000">nesting_cohort_id</text>
<polygon fill="none" stroke="#000000" points="257,-56.7 257,-75.7 491,-75.7 491,-56.7 257,-56.7"/>
<text text-anchor="start" x="260" y="-62.8" font-family="Helvetica,sans-Serif" font-size="11.00" fill="#000000">...</text>
<polygon fill="#ffffff" stroke="transparent" points="257,-37.7 257,-56.7 352,-56.7 352,-37.7 257,-37.7"/>
<polygon fill="none" stroke="#000000" points="257,-37.7 257,-56.7 352,-56.7 352,-37.7 257,-37.7"/>
<text text-anchor="start" x="260" y="-43.8" font-family="Helvetica,sans-Serif" font-size="11.00" fill="#000000">&lt; 3</text>
<polygon fill="#ffffff" stroke="transparent" points="352,-37.7 352,-56.7 427,-56.7 427,-37.7 352,-37.7"/>
<polygon fill="none" stroke="#000000" points="352,-37.7 352,-56.7 427,-56.7 427,-37.7 352,-37.7"/>
<text text-anchor="start" x="391.6105" y="-43.8" font-family="Helvetica,sans-Serif" font-size="11.00" fill="#000000">0 rows</text>
<polygon fill="#ffffff" stroke="transparent" points="427,-37.7 427,-56.7 491,-56.7 491,-37.7 427,-37.7"/>
<polygon fill="none" stroke="#000000" points="427,-37.7 427,-56.7 491,-56.7 491,-37.7 427,-37.7"/>
<text text-anchor="start" x="466.2904" y="-43.8" font-family="Helvetica,sans-Serif" font-size="11.00" fill="#000000">10 &gt;</text>
</a>
</g>
</g>
<!-- sccs_covariate_result&#45;&gt;sccs_exposures_outcome_set -->
<g id="edge8" class="edge">
<title>sccs_covariate_result:w&#45;&gt;sccs_exposures_outcome_set:e</title>
<path fill="none" stroke="#000000" d="M527.7146,-237.4371C491.9192,-217.1102 547.997,-108.7 491,-108.7"/>
<polygon fill="#000000" stroke="#000000" points="534.2009,-238.9185 541.1983,-244.2096 538.1004,-239.8093 542,-240.7 542,-240.7 542,-240.7 538.1004,-239.8093 542.8017,-237.1904 534.2009,-238.9185 534.2009,-238.9185"/>
<ellipse fill="none" stroke="#000000" cx="531.0812" cy="-238.206" rx="3.2" ry="3.2"/>
</g>
<!-- sccs_exposures_outcome_set&#45;&gt;sccs_covariate -->
<g id="edge9" class="edge">
<title>sccs_exposures_outcome_set:w&#45;&gt;sccs_covariate:e</title>
<path fill="none" stroke="#000000" d="M246.2373,-109.7456C171.3702,-125.8143 301.1551,-321.7 208,-321.7"/>
<polygon fill="#000000" stroke="#000000" points="255.8169,-104.7961 256.5906,-112.7586 254.9981,-112.9133 254.2244,-104.9508 255.8169,-104.7961"/>
<polyline fill="none" stroke="#000000" points="257,-108.7 253.0187,-109.0868 "/>
<ellipse fill="none" stroke="#000000" cx="249.8337" cy="-109.3963" rx="3.2" ry="3.2"/>
</g>
</g>
</svg>
