<?xml version="1.0" encoding="UTF-8" standalone="no"?>
<!DOCTYPE svg PUBLIC "-//W3C//DTD SVG 1.1//EN"
 "http://www.w3.org/Graphics/SVG/1.1/DTD/svg11.dtd">
<!-- Generated by graphviz version 2.40.1 (20161225.0304)
 -->
<!-- Title: oneDegreeRelationshipsDiagram Pages: 1 -->
<svg width="844pt" height="207pt"
 viewBox="0.00 0.00 844.00 206.98" xmlns="http://www.w3.org/2000/svg" xmlns:xlink="http://www.w3.org/1999/xlink">
<g id="graph0" class="graph" transform="scale(1 1) rotate(0) translate(4 202.983)">
<title>oneDegreeRelationshipsDiagram</title>
<polygon fill="#ffffff" stroke="transparent" points="-4,4 -4,-202.983 840,-202.983 840,4 -4,4"/>
<text text-anchor="middle" x="72.4936" y="-7.3" font-family="Helvetica,sans-Serif" font-size="11.00" fill="#000000">Generated by SchemaSpy</text>
<!-- sccs_exposures_outcome_set -->
<g id="node1" class="node">
<title>sccs_exposures_outcome_set</title>
<g id="a_node1"><a xlink:href="../../tables/sccs_exposures_outcome_set.html" xlink:title="sccs_exposures_outcome_set" target="_top">
<polygon fill="#ffffff" stroke="transparent" points="323,-71.983 323,-176.983 557,-176.983 557,-71.983 323,-71.983"/>
<polygon fill="#f5f5f5" stroke="transparent" points="323,-153.483 323,-176.483 557,-176.483 557,-153.483 323,-153.483"/>
<polygon fill="none" stroke="#000000" points="323,-153.483 323,-176.483 557,-176.483 557,-153.483 323,-153.483"/>
<text text-anchor="start" x="328" y="-162.083" font-family="Helvetica,sans-Serif" font-weight="bold" font-size="11.00" fill="#000000">sccs_exposures_outcome_set</text>
<text text-anchor="start" x="522.5219" y="-161.583" font-family="Helvetica,sans-Serif" font-size="11.00" fill="#000000">[table]</text>
<polygon fill="none" stroke="#000000" points="323,-131.483 323,-153.483 557,-153.483 557,-131.483 323,-131.483"/>
<image xlink:href="../../images/primaryKeys.png" width="11px" height="12px" preserveAspectRatio="xMinYMin meet" x="328" y="-148.483"/>
<text text-anchor="start" x="352" y="-138.583" font-family="Helvetica,sans-Serif" font-size="11.00" fill="#000000">exposures_outcome_set_id</text>
<polygon fill="none" stroke="#000000" points="323,-109.483 323,-131.483 557,-131.483 557,-109.483 323,-109.483"/>
<image xlink:href="../../images/foreignKeys.png" width="11px" height="12px" preserveAspectRatio="xMinYMin meet" x="328" y="-126.483"/>
<text text-anchor="start" x="352" y="-116.583" font-family="Helvetica,sans-Serif" font-size="11.00" fill="#000000">nesting_cohort_id</text>
<polygon fill="none" stroke="#000000" points="323,-90.483 323,-109.483 557,-109.483 557,-90.483 323,-90.483"/>
<text text-anchor="start" x="326" y="-96.583" font-family="Helvetica,sans-Serif" font-size="11.00" fill="#000000">...</text>
<polygon fill="#ffffff" stroke="transparent" points="323,-71.483 323,-90.483 418,-90.483 418,-71.483 323,-71.483"/>
<polygon fill="none" stroke="#000000" points="323,-71.483 323,-90.483 418,-90.483 418,-71.483 323,-71.483"/>
<text text-anchor="start" x="326" y="-77.583" font-family="Helvetica,sans-Serif" font-size="11.00" fill="#000000">&lt; 3</text>
<polygon fill="#ffffff" stroke="transparent" points="418,-71.483 418,-90.483 493,-90.483 493,-71.483 418,-71.483"/>
<polygon fill="none" stroke="#000000" points="418,-71.483 418,-90.483 493,-90.483 493,-71.483 418,-71.483"/>
<text text-anchor="start" x="457.6105" y="-77.583" font-family="Helvetica,sans-Serif" font-size="11.00" fill="#000000">0 rows</text>
<polygon fill="#ffffff" stroke="transparent" points="493,-71.483 493,-90.483 557,-90.483 557,-71.483 493,-71.483"/>
<polygon fill="none" stroke="#000000" points="493,-71.483 493,-90.483 557,-90.483 557,-71.483 493,-71.483"/>
<text text-anchor="start" x="532.2904" y="-77.583" font-family="Helvetica,sans-Serif" font-size="11.00" fill="#000000">10 &gt;</text>
</a>
</g>
</g>
<!-- sccs_exposure -->
<g id="node2" class="node">
<title>sccs_exposure</title>
<g id="a_node2"><a xlink:href="../../tables/sccs_exposure.html" xlink:title="sccs_exposure" target="_top">
<polygon fill="#ffffff" stroke="transparent" points="8,-40.483 8,-152.483 274,-152.483 274,-40.483 8,-40.483"/>
<polygon fill="#f5f5f5" stroke="transparent" points="10,-127.483 10,-150.483 272,-150.483 272,-127.483 10,-127.483"/>
<polygon fill="none" stroke="#000000" points="10,-127.483 10,-150.483 272,-150.483 272,-127.483 10,-127.483"/>
<text text-anchor="start" x="15" y="-136.083" font-family="Helvetica,sans-Serif" font-weight="bold" font-size="11.00" fill="#000000">sccs_exposure</text>
<text text-anchor="start" x="237.0437" y="-135.583" font-family="Helvetica,sans-Serif" font-size="11.00" fill="#000000">[table]</text>
<polygon fill="none" stroke="#000000" points="10,-105.483 10,-127.483 210,-127.483 210,-105.483 10,-105.483"/>
<text text-anchor="start" x="30" y="-112.583" font-family="Helvetica,sans-Serif" font-size="11.00" fill="#000000">era_id</text>
<polygon fill="none" stroke="#000000" points="210,-105.483 210,-127.483 272,-127.483 272,-105.483 210,-105.483"/>
<text text-anchor="start" x="212.878" y="-113.183" font-family="Helvetica,sans-Serif" font-size="11.00" fill="#000000">unknown[0]</text>
<polygon fill="none" stroke="#000000" points="10,-83.483 10,-105.483 210,-105.483 210,-83.483 10,-83.483"/>
<image xlink:href="../../images/primaryKeys.png" width="11px" height="12px" preserveAspectRatio="xMinYMin meet" x="15" y="-100.483"/>
<text text-anchor="start" x="30" y="-90.583" font-family="Helvetica,sans-Serif" font-size="11.00" fill="#000000">exposures_outcome_set_id</text>
<polygon fill="none" stroke="#000000" points="210,-83.483 210,-105.483 272,-105.483 272,-83.483 210,-83.483"/>
<text text-anchor="start" x="212.878" y="-91.183" font-family="Helvetica,sans-Serif" font-size="11.00" fill="#000000">unknown[0]</text>
<polygon fill="none" stroke="#000000" points="10,-61.483 10,-83.483 210,-83.483 210,-61.483 10,-61.483"/>
<text text-anchor="start" x="30" y="-68.583" font-family="Helvetica,sans-Serif" font-size="11.00" fill="#000000">true_effect_size</text>
<polygon fill="none" stroke="#000000" points="210,-61.483 210,-83.483 272,-83.483 272,-61.483 210,-61.483"/>
<text text-anchor="start" x="212.878" y="-69.183" font-family="Helvetica,sans-Serif" font-size="11.00" fill="#000000">unknown[0]</text>
<polygon fill="#ffffff" stroke="transparent" points="10,-42.483 10,-61.483 101,-61.483 101,-42.483 10,-42.483"/>
<polygon fill="none" stroke="#000000" points="10,-42.483 10,-61.483 101,-61.483 101,-42.483 10,-42.483"/>
<text text-anchor="start" x="13" y="-48.583" font-family="Helvetica,sans-Serif" font-size="11.00" fill="#000000">&lt; 0</text>
<polygon fill="#ffffff" stroke="transparent" points="101,-42.483 101,-61.483 210,-61.483 210,-42.483 101,-42.483"/>
<polygon fill="none" stroke="#000000" points="101,-42.483 101,-61.483 210,-61.483 210,-42.483 101,-42.483"/>
<text text-anchor="start" x="174.6105" y="-48.583" font-family="Helvetica,sans-Serif" font-size="11.00" fill="#000000">0 rows</text>
<polygon fill="#ffffff" stroke="transparent" points="210,-42.483 210,-61.483 272,-61.483 272,-42.483 210,-42.483"/>
<polygon fill="none" stroke="#000000" points="210,-42.483 210,-61.483 272,-61.483 272,-42.483 210,-42.483"/>
<text text-anchor="start" x="253.4053" y="-48.583" font-family="Helvetica,sans-Serif" font-size="11.00" fill="#000000">2 &gt;</text>
<polygon fill="none" stroke="#000000" stroke-width="2" points="9,-41.483 9,-151.483 273,-151.483 273,-41.483 9,-41.483"/>
</a>
</g>
</g>
<!-- sccs_exposures_outcome_set&#45;&gt;sccs_exposure -->
<g id="edge1" class="edge">
<title>sccs_exposures_outcome_set:w&#45;&gt;sccs_exposure:e</title>
<path fill="none" stroke="#000000" d="M312.642,-140.1678C294.1148,-130.5797 298.9929,-94.483 272,-94.483"/>
<polygon fill="#000000" stroke="#000000" points="323.0918,-138.4048 321.3467,-146.2121 319.7852,-145.8631 321.5303,-138.0558 323.0918,-138.4048"/>
<polyline fill="none" stroke="#000000" points="323,-142.483 319.0963,-141.6104 "/>
<ellipse fill="none" stroke="#000000" cx="315.9734" cy="-140.9124" rx="3.2" ry="3.2"/>
</g>
<!-- sccs_result -->
<g id="node3" class="node">
<title>sccs_result</title>
<g id="a_node3"><a xlink:href="../../tables/sccs_result.html" xlink:title="sccs_result" target="_top">
<polygon fill="#ffffff" stroke="transparent" points="606,-45.983 606,-194.983 828,-194.983 828,-45.983 606,-45.983"/>
<polygon fill="#f5f5f5" stroke="transparent" points="606,-171.483 606,-194.483 828,-194.483 828,-171.483 606,-171.483"/>
<polygon fill="none" stroke="#000000" points="606,-171.483 606,-194.483 828,-194.483 828,-171.483 606,-171.483"/>
<text text-anchor="start" x="611" y="-180.083" font-family="Helvetica,sans-Serif" font-weight="bold" font-size="11.00" fill="#000000">sccs_result</text>
<text text-anchor="start" x="793.0437" y="-179.583" font-family="Helvetica,sans-Serif" font-size="11.00" fill="#000000">[table]</text>
<polygon fill="none" stroke="#000000" points="606,-149.483 606,-171.483 828,-171.483 828,-149.483 606,-149.483"/>
<image xlink:href="../../images/foreignKeys.png" width="11px" height="12px" preserveAspectRatio="xMinYMin meet" x="611" y="-166.483"/>
<text text-anchor="start" x="626" y="-156.583" font-family="Helvetica,sans-Serif" font-size="11.00" fill="#000000">analysis_id</text>
<polygon fill="none" stroke="#000000" points="606,-127.483 606,-149.483 828,-149.483 828,-127.483 606,-127.483"/>
<image xlink:href="../../images/foreignKeys.png" width="11px" height="12px" preserveAspectRatio="xMinYMin meet" x="611" y="-144.483"/>
<text text-anchor="start" x="626" y="-134.583" font-family="Helvetica,sans-Serif" font-size="11.00" fill="#000000">covariate_id</text>
<polygon fill="none" stroke="#000000" points="606,-105.483 606,-127.483 828,-127.483 828,-105.483 606,-105.483"/>
<image xlink:href="../../images/foreignKeys.png" width="11px" height="12px" preserveAspectRatio="xMinYMin meet" x="611" y="-122.483"/>
<text text-anchor="start" x="626" y="-112.583" font-family="Helvetica,sans-Serif" font-size="11.00" fill="#000000">database_id</text>
<polygon fill="none" stroke="#000000" points="606,-83.483 606,-105.483 828,-105.483 828,-83.483 606,-83.483"/>
<image xlink:href="../../images/foreignKeys.png" width="11px" height="12px" preserveAspectRatio="xMinYMin meet" x="611" y="-100.483"/>
<text text-anchor="start" x="626" y="-90.583" font-family="Helvetica,sans-Serif" font-size="11.00" fill="#000000">exposures_outcome_set_id</text>
<polygon fill="none" stroke="#000000" points="606,-64.483 606,-83.483 828,-83.483 828,-64.483 606,-64.483"/>
<text text-anchor="start" x="609" y="-70.583" font-family="Helvetica,sans-Serif" font-size="11.00" fill="#000000">...</text>
<polygon fill="#ffffff" stroke="transparent" points="606,-45.483 606,-64.483 705,-64.483 705,-45.483 606,-45.483"/>
<polygon fill="none" stroke="#000000" points="606,-45.483 606,-64.483 705,-64.483 705,-45.483 606,-45.483"/>
<text text-anchor="start" x="609" y="-51.583" font-family="Helvetica,sans-Serif" font-size="11.00" fill="#000000">&lt; 12</text>
<polygon fill="#ffffff" stroke="transparent" points="705,-45.483 705,-64.483 779,-64.483 779,-45.483 705,-45.483"/>
<polygon fill="none" stroke="#000000" points="705,-45.483 705,-64.483 779,-64.483 779,-45.483 705,-45.483"/>
<text text-anchor="start" x="743.6105" y="-51.583" font-family="Helvetica,sans-Serif" font-size="11.00" fill="#000000">0 rows</text>
<polygon fill="#ffffff" stroke="transparent" points="779,-45.483 779,-64.483 828,-64.483 828,-45.483 779,-45.483"/>
<polygon fill="none" stroke="#000000" points="779,-45.483 779,-64.483 828,-64.483 828,-45.483 779,-45.483"/>
<text text-anchor="start" x="818.8862" y="-51.583" font-family="Helvetica,sans-Serif" font-size="11.00" fill="#000000"> &#160;</text>
</a>
</g>
</g>
<!-- sccs_result&#45;&gt;sccs_exposures_outcome_set -->
<g id="edge3" class="edge">
<title>sccs_result:w&#45;&gt;sccs_exposures_outcome_set:e</title>
<path fill="none" stroke="#000000" d="M592.3634,-99.2609C578.571,-111.4019 581.5315,-142.483 557,-142.483"/>
<polygon fill="#000000" stroke="#000000" points="598.45,-97.1283 607.1904,-97.8805 602.225,-95.8057 606,-94.483 606,-94.483 606,-94.483 602.225,-95.8057 604.8096,-91.0855 598.45,-97.1283 598.45,-97.1283"/>
<ellipse fill="none" stroke="#000000" cx="595.43" cy="-98.1865" rx="3.2" ry="3.2"/>
</g>
<!-- sccs_result&#45;&gt;sccs_exposure -->
<g id="edge2" class="edge">
<title>sccs_result:w&#45;&gt;sccs_exposure:e</title>
<path fill="none" stroke="#000000" d="M592.235,-89.9435C583.1033,-82.3136 581.2013,-67.1931 565,-61.483 460.2071,-24.5489 420.2132,-25.7637 315,-61.483 292.1884,-69.2274 296.0904,-94.483 272,-94.483"/>
<polygon fill="#000000" stroke="#000000" points="598.4025,-91.9774 604.8725,-97.9019 602.2012,-93.2302 606,-94.483 606,-94.483 606,-94.483 602.2012,-93.2302 607.1275,-91.0641 598.4025,-91.9774 598.4025,-91.9774"/>
<ellipse fill="none" stroke="#000000" cx="595.3635" cy="-90.9752" rx="3.2" ry="3.2"/>
</g>
</g>
</svg>
