<?xml version="1.0" encoding="UTF-8" standalone="no"?>
<!DOCTYPE svg PUBLIC "-//W3C//DTD SVG 1.1//EN"
 "http://www.w3.org/Graphics/SVG/1.1/DTD/svg11.dtd">
<!-- Generated by graphviz version 2.40.1 (20161225.0304)
 -->
<!-- Title: oneDegreeRelationshipsDiagram Pages: 1 -->
<svg width="573pt" height="228pt"
 viewBox="0.00 0.00 573.00 228.20" xmlns="http://www.w3.org/2000/svg" xmlns:xlink="http://www.w3.org/1999/xlink">
<g id="graph0" class="graph" transform="scale(1 1) rotate(0) translate(4 224.2)">
<title>oneDegreeRelationshipsDiagram</title>
<polygon fill="#ffffff" stroke="transparent" points="-4,4 -4,-224.2 569,-224.2 569,4 -4,4"/>
<text text-anchor="middle" x="72.4936" y="-7.3" font-family="Helvetica,sans-Serif" font-size="11.00" fill="#000000">Generated by SchemaSpy</text>
<!-- sccs_spline -->
<g id="node1" class="node">
<title>sccs_spline</title>
<g id="a_node1"><a xlink:href="../../tables/sccs_spline.html" xlink:title="sccs_spline" target="_top">
<polygon fill="#ffffff" stroke="transparent" points="291,-38.2 291,-216.2 557,-216.2 557,-38.2 291,-38.2"/>
<polygon fill="#f5f5f5" stroke="transparent" points="293,-191.2 293,-214.2 555,-214.2 555,-191.2 293,-191.2"/>
<polygon fill="none" stroke="#000000" points="293,-191.2 293,-214.2 555,-214.2 555,-191.2 293,-191.2"/>
<text text-anchor="start" x="298" y="-199.8" font-family="Helvetica,sans-Serif" font-weight="bold" font-size="11.00" fill="#000000">sccs_spline</text>
<text text-anchor="start" x="520.0437" y="-199.3" font-family="Helvetica,sans-Serif" font-size="11.00" fill="#000000">[table]</text>
<polygon fill="none" stroke="#000000" points="293,-169.2 293,-191.2 493,-191.2 493,-169.2 293,-169.2"/>
<text text-anchor="start" x="313" y="-176.3" font-family="Helvetica,sans-Serif" font-size="11.00" fill="#000000">analysis_id</text>
<polygon fill="none" stroke="#000000" points="493,-169.2 493,-191.2 555,-191.2 555,-169.2 493,-169.2"/>
<text text-anchor="start" x="495.878" y="-176.9" font-family="Helvetica,sans-Serif" font-size="11.00" fill="#000000">unknown[0]</text>
<polygon fill="none" stroke="#000000" points="293,-147.2 293,-169.2 493,-169.2 493,-147.2 293,-147.2"/>
<text text-anchor="start" x="313" y="-154.3" font-family="Helvetica,sans-Serif" font-size="11.00" fill="#000000">database_id</text>
<polygon fill="none" stroke="#000000" points="493,-147.2 493,-169.2 555,-169.2 555,-147.2 493,-147.2"/>
<text text-anchor="start" x="495.878" y="-154.9" font-family="Helvetica,sans-Serif" font-size="11.00" fill="#000000">unknown[0]</text>
<polygon fill="none" stroke="#000000" points="293,-125.2 293,-147.2 493,-147.2 493,-125.2 293,-125.2"/>
<image xlink:href="../../images/foreignKeys.png" width="11px" height="12px" preserveAspectRatio="xMinYMin meet" x="298" y="-142.2"/>
<text text-anchor="start" x="313" y="-132.3" font-family="Helvetica,sans-Serif" font-size="11.00" fill="#000000">exposures_outcome_set_id</text>
<polygon fill="none" stroke="#000000" points="493,-125.2 493,-147.2 555,-147.2 555,-125.2 493,-125.2"/>
<text text-anchor="start" x="495.878" y="-132.9" font-family="Helvetica,sans-Serif" font-size="11.00" fill="#000000">unknown[0]</text>
<polygon fill="none" stroke="#000000" points="293,-103.2 293,-125.2 493,-125.2 493,-103.2 293,-103.2"/>
<text text-anchor="start" x="313" y="-110.3" font-family="Helvetica,sans-Serif" font-size="11.00" fill="#000000">knot_month</text>
<polygon fill="none" stroke="#000000" points="493,-103.2 493,-125.2 555,-125.2 555,-103.2 493,-103.2"/>
<text text-anchor="start" x="495.878" y="-110.9" font-family="Helvetica,sans-Serif" font-size="11.00" fill="#000000">unknown[0]</text>
<polygon fill="none" stroke="#000000" points="293,-81.2 293,-103.2 493,-103.2 493,-81.2 293,-81.2"/>
<text text-anchor="start" x="313" y="-88.3" font-family="Helvetica,sans-Serif" font-size="11.00" fill="#000000">rr</text>
<polygon fill="none" stroke="#000000" points="493,-81.2 493,-103.2 555,-103.2 555,-81.2 493,-81.2"/>
<text text-anchor="start" x="495.878" y="-88.9" font-family="Helvetica,sans-Serif" font-size="11.00" fill="#000000">unknown[0]</text>
<polygon fill="none" stroke="#000000" points="293,-59.2 293,-81.2 493,-81.2 493,-59.2 293,-59.2"/>
<text text-anchor="start" x="313" y="-66.3" font-family="Helvetica,sans-Serif" font-size="11.00" fill="#000000">spline_type</text>
<polygon fill="none" stroke="#000000" points="493,-59.2 493,-81.2 555,-81.2 555,-59.2 493,-59.2"/>
<text text-anchor="start" x="495.878" y="-66.9" font-family="Helvetica,sans-Serif" font-size="11.00" fill="#000000">unknown[0]</text>
<polygon fill="#ffffff" stroke="transparent" points="293,-40.2 293,-59.2 384,-59.2 384,-40.2 293,-40.2"/>
<polygon fill="none" stroke="#000000" points="293,-40.2 293,-59.2 384,-59.2 384,-40.2 293,-40.2"/>
<text text-anchor="start" x="296" y="-46.3" font-family="Helvetica,sans-Serif" font-size="11.00" fill="#000000">&lt; 1</text>
<polygon fill="#ffffff" stroke="transparent" points="384,-40.2 384,-59.2 493,-59.2 493,-40.2 384,-40.2"/>
<polygon fill="none" stroke="#000000" points="384,-40.2 384,-59.2 493,-59.2 493,-40.2 384,-40.2"/>
<text text-anchor="start" x="457.6105" y="-46.3" font-family="Helvetica,sans-Serif" font-size="11.00" fill="#000000">0 rows</text>
<polygon fill="#ffffff" stroke="transparent" points="493,-40.2 493,-59.2 555,-59.2 555,-40.2 493,-40.2"/>
<polygon fill="none" stroke="#000000" points="493,-40.2 493,-59.2 555,-59.2 555,-40.2 493,-40.2"/>
<text text-anchor="start" x="536.4053" y="-46.3" font-family="Helvetica,sans-Serif" font-size="11.00" fill="#000000">0 &gt;</text>
<polygon fill="none" stroke="#000000" stroke-width="2" points="292,-39.2 292,-215.2 556,-215.2 556,-39.2 292,-39.2"/>
</a>
</g>
</g>
<!-- sccs_exposures_outcome_set -->
<g id="node2" class="node">
<title>sccs_exposures_outcome_set</title>
<g id="a_node2"><a xlink:href="../../tables/sccs_exposures_outcome_set.html" xlink:title="sccs_exposures_outcome_set" target="_top">
<polygon fill="#ffffff" stroke="transparent" points="8,-65.7 8,-170.7 242,-170.7 242,-65.7 8,-65.7"/>
<polygon fill="#f5f5f5" stroke="transparent" points="8,-147.2 8,-170.2 242,-170.2 242,-147.2 8,-147.2"/>
<polygon fill="none" stroke="#000000" points="8,-147.2 8,-170.2 242,-170.2 242,-147.2 8,-147.2"/>
<text text-anchor="start" x="13" y="-155.8" font-family="Helvetica,sans-Serif" font-weight="bold" font-size="11.00" fill="#000000">sccs_exposures_outcome_set</text>
<text text-anchor="start" x="207.5219" y="-155.3" font-family="Helvetica,sans-Serif" font-size="11.00" fill="#000000">[table]</text>
<polygon fill="none" stroke="#000000" points="8,-125.2 8,-147.2 242,-147.2 242,-125.2 8,-125.2"/>
<image xlink:href="../../images/primaryKeys.png" width="11px" height="12px" preserveAspectRatio="xMinYMin meet" x="13" y="-142.2"/>
<text text-anchor="start" x="37" y="-132.3" font-family="Helvetica,sans-Serif" font-size="11.00" fill="#000000">exposures_outcome_set_id</text>
<polygon fill="none" stroke="#000000" points="8,-103.2 8,-125.2 242,-125.2 242,-103.2 8,-103.2"/>
<image xlink:href="../../images/foreignKeys.png" width="11px" height="12px" preserveAspectRatio="xMinYMin meet" x="13" y="-120.2"/>
<text text-anchor="start" x="37" y="-110.3" font-family="Helvetica,sans-Serif" font-size="11.00" fill="#000000">nesting_cohort_id</text>
<polygon fill="none" stroke="#000000" points="8,-84.2 8,-103.2 242,-103.2 242,-84.2 8,-84.2"/>
<text text-anchor="start" x="11" y="-90.3" font-family="Helvetica,sans-Serif" font-size="11.00" fill="#000000">...</text>
<polygon fill="#ffffff" stroke="transparent" points="8,-65.2 8,-84.2 103,-84.2 103,-65.2 8,-65.2"/>
<polygon fill="none" stroke="#000000" points="8,-65.2 8,-84.2 103,-84.2 103,-65.2 8,-65.2"/>
<text text-anchor="start" x="11" y="-71.3" font-family="Helvetica,sans-Serif" font-size="11.00" fill="#000000">&lt; 3</text>
<polygon fill="#ffffff" stroke="transparent" points="103,-65.2 103,-84.2 178,-84.2 178,-65.2 103,-65.2"/>
<polygon fill="none" stroke="#000000" points="103,-65.2 103,-84.2 178,-84.2 178,-65.2 103,-65.2"/>
<text text-anchor="start" x="142.6105" y="-71.3" font-family="Helvetica,sans-Serif" font-size="11.00" fill="#000000">0 rows</text>
<polygon fill="#ffffff" stroke="transparent" points="178,-65.2 178,-84.2 242,-84.2 242,-65.2 178,-65.2"/>
<polygon fill="none" stroke="#000000" points="178,-65.2 178,-84.2 242,-84.2 242,-65.2 178,-65.2"/>
<text text-anchor="start" x="217.2904" y="-71.3" font-family="Helvetica,sans-Serif" font-size="11.00" fill="#000000">10 &gt;</text>
</a>
</g>
</g>
<!-- sccs_spline&#45;&gt;sccs_exposures_outcome_set -->
<g id="edge1" class="edge">
<title>sccs_spline:w&#45;&gt;sccs_exposures_outcome_set:e</title>
<path fill="none" stroke="#000000" d="M278.276,-136.2C266.2815,-136.2 258.8229,-136.2 242,-136.2"/>
<polygon fill="#000000" stroke="#000000" points="285,-136.2001 293,-139.8 289,-136.2 293,-136.2 293,-136.2 293,-136.2 289,-136.2 293,-132.6 285,-136.2001 285,-136.2001"/>
<ellipse fill="none" stroke="#000000" cx="281.8" cy="-136.2001" rx="3.2" ry="3.2"/>
</g>
</g>
</svg>
