<?xml version="1.0" encoding="UTF-8" standalone="no"?>
<!DOCTYPE svg PUBLIC "-//W3C//DTD SVG 1.1//EN"
 "http://www.w3.org/Graphics/SVG/1.1/DTD/svg11.dtd">
<!-- Generated by graphviz version 2.40.1 (20161225.0304)
 -->
<!-- Title: oneDegreeRelationshipsDiagram Pages: 1 -->
<svg width="754pt" height="231pt"
 viewBox="0.00 0.00 754.00 230.99" xmlns="http://www.w3.org/2000/svg" xmlns:xlink="http://www.w3.org/1999/xlink">
<g id="graph0" class="graph" transform="scale(1 1) rotate(0) translate(4 226.9884)">
<title>oneDegreeRelationshipsDiagram</title>
<polygon fill="#ffffff" stroke="transparent" points="-4,4 -4,-226.9884 750,-226.9884 750,4 -4,4"/>
<text text-anchor="middle" x="72.4936" y="-7.3" font-family="Helvetica,sans-Serif" font-size="11.00" fill="#000000">Generated by SchemaSpy</text>
<!-- sccs_diagnostics_summary -->
<g id="node1" class="node">
<title>sccs_diagnostics_summary</title>
<g id="a_node1"><a xlink:href="../../tables/sccs_diagnostics_summary.html" xlink:title="sccs_diagnostics_summary" target="_top">
<polygon fill="#ffffff" stroke="transparent" points="233,-38.2 233,-187.2 467,-187.2 467,-38.2 233,-38.2"/>
<polygon fill="#f5f5f5" stroke="transparent" points="233,-163.7 233,-186.7 467,-186.7 467,-163.7 233,-163.7"/>
<polygon fill="none" stroke="#000000" points="233,-163.7 233,-186.7 467,-186.7 467,-163.7 233,-163.7"/>
<text text-anchor="start" x="238" y="-172.3" font-family="Helvetica,sans-Serif" font-weight="bold" font-size="11.00" fill="#000000">sccs_diagnostics_summary</text>
<text text-anchor="start" x="432.0437" y="-171.8" font-family="Helvetica,sans-Serif" font-size="11.00" fill="#000000">[table]</text>
<polygon fill="none" stroke="#000000" points="233,-141.7 233,-163.7 467,-163.7 467,-141.7 233,-141.7"/>
<image xlink:href="../../images/primaryKeys.png" width="11px" height="12px" preserveAspectRatio="xMinYMin meet" x="238" y="-158.7"/>
<text text-anchor="start" x="253" y="-148.8" font-family="Helvetica,sans-Serif" font-size="11.00" fill="#000000">analysis_id</text>
<polygon fill="none" stroke="#000000" points="233,-119.7 233,-141.7 467,-141.7 467,-119.7 233,-119.7"/>
<image xlink:href="../../images/primaryKeys.png" width="11px" height="12px" preserveAspectRatio="xMinYMin meet" x="238" y="-136.7"/>
<text text-anchor="start" x="253" y="-126.8" font-family="Helvetica,sans-Serif" font-size="11.00" fill="#000000">covariate_id</text>
<polygon fill="none" stroke="#000000" points="233,-97.7 233,-119.7 467,-119.7 467,-97.7 233,-97.7"/>
<image xlink:href="../../images/primaryKeys.png" width="11px" height="12px" preserveAspectRatio="xMinYMin meet" x="238" y="-114.7"/>
<text text-anchor="start" x="253" y="-104.8" font-family="Helvetica,sans-Serif" font-size="11.00" fill="#000000">database_id</text>
<polygon fill="none" stroke="#000000" points="233,-75.7 233,-97.7 467,-97.7 467,-75.7 233,-75.7"/>
<image xlink:href="../../images/primaryKeys.png" width="11px" height="12px" preserveAspectRatio="xMinYMin meet" x="238" y="-92.7"/>
<text text-anchor="start" x="253" y="-82.8" font-family="Helvetica,sans-Serif" font-size="11.00" fill="#000000">exposures_outcome_set_id</text>
<polygon fill="none" stroke="#000000" points="233,-56.7 233,-75.7 467,-75.7 467,-56.7 233,-56.7"/>
<text text-anchor="start" x="236" y="-62.8" font-family="Helvetica,sans-Serif" font-size="11.00" fill="#000000">...</text>
<polygon fill="#ffffff" stroke="transparent" points="233,-37.7 233,-56.7 331,-56.7 331,-37.7 233,-37.7"/>
<polygon fill="none" stroke="#000000" points="233,-37.7 233,-56.7 331,-56.7 331,-37.7 233,-37.7"/>
<text text-anchor="start" x="236" y="-43.8" font-family="Helvetica,sans-Serif" font-size="11.00" fill="#000000">&lt; 7</text>
<polygon fill="#ffffff" stroke="transparent" points="331,-37.7 331,-56.7 407,-56.7 407,-37.7 331,-37.7"/>
<polygon fill="none" stroke="#000000" points="331,-37.7 331,-56.7 407,-56.7 407,-37.7 331,-37.7"/>
<text text-anchor="start" x="371.6105" y="-43.8" font-family="Helvetica,sans-Serif" font-size="11.00" fill="#000000">0 rows</text>
<polygon fill="#ffffff" stroke="transparent" points="407,-37.7 407,-56.7 467,-56.7 467,-37.7 407,-37.7"/>
<polygon fill="none" stroke="#000000" points="407,-37.7 407,-56.7 467,-56.7 467,-37.7 407,-37.7"/>
<text text-anchor="start" x="448.4053" y="-43.8" font-family="Helvetica,sans-Serif" font-size="11.00" fill="#000000">4 &gt;</text>
</a>
</g>
</g>
<!-- sccs_analysis -->
<g id="node2" class="node">
<title>sccs_analysis</title>
<g id="a_node2"><a xlink:href="../../tables/sccs_analysis.html" xlink:title="sccs_analysis" target="_top">
<polygon fill="#ffffff" stroke="transparent" points="8,-105.7 8,-217.7 184,-217.7 184,-105.7 8,-105.7"/>
<polygon fill="#f5f5f5" stroke="transparent" points="10,-192.7 10,-215.7 182,-215.7 182,-192.7 10,-192.7"/>
<polygon fill="none" stroke="#000000" points="10,-192.7 10,-215.7 182,-215.7 182,-192.7 10,-192.7"/>
<text text-anchor="start" x="15" y="-201.3" font-family="Helvetica,sans-Serif" font-weight="bold" font-size="11.00" fill="#000000">sccs_analysis</text>
<text text-anchor="start" x="147.0437" y="-200.8" font-family="Helvetica,sans-Serif" font-size="11.00" fill="#000000">[table]</text>
<polygon fill="none" stroke="#000000" points="10,-170.7 10,-192.7 120,-192.7 120,-170.7 10,-170.7"/>
<image xlink:href="../../images/primaryKeys.png" width="11px" height="12px" preserveAspectRatio="xMinYMin meet" x="15" y="-187.7"/>
<text text-anchor="start" x="30" y="-177.8" font-family="Helvetica,sans-Serif" font-size="11.00" fill="#000000">analysis_id</text>
<polygon fill="none" stroke="#000000" points="120,-170.7 120,-192.7 182,-192.7 182,-170.7 120,-170.7"/>
<text text-anchor="start" x="122.878" y="-178.4" font-family="Helvetica,sans-Serif" font-size="11.00" fill="#000000">unknown[0]</text>
<polygon fill="none" stroke="#000000" points="10,-148.7 10,-170.7 120,-170.7 120,-148.7 10,-148.7"/>
<text text-anchor="start" x="30" y="-155.8" font-family="Helvetica,sans-Serif" font-size="11.00" fill="#000000">definition</text>
<polygon fill="none" stroke="#000000" points="120,-148.7 120,-170.7 182,-170.7 182,-148.7 120,-148.7"/>
<text text-anchor="start" x="122.878" y="-156.4" font-family="Helvetica,sans-Serif" font-size="11.00" fill="#000000">unknown[0]</text>
<polygon fill="none" stroke="#000000" points="10,-126.7 10,-148.7 120,-148.7 120,-126.7 10,-126.7"/>
<text text-anchor="start" x="30" y="-133.8" font-family="Helvetica,sans-Serif" font-size="11.00" fill="#000000">description</text>
<polygon fill="none" stroke="#000000" points="120,-126.7 120,-148.7 182,-148.7 182,-126.7 120,-126.7"/>
<text text-anchor="start" x="122.878" y="-134.4" font-family="Helvetica,sans-Serif" font-size="11.00" fill="#000000">unknown[0]</text>
<polygon fill="#ffffff" stroke="transparent" points="10,-107.7 10,-126.7 56,-126.7 56,-107.7 10,-107.7"/>
<polygon fill="none" stroke="#000000" points="10,-107.7 10,-126.7 56,-126.7 56,-107.7 10,-107.7"/>
<text text-anchor="start" x="13" y="-113.8" font-family="Helvetica,sans-Serif" font-size="11.00" fill="#000000">&lt; 0</text>
<polygon fill="#ffffff" stroke="transparent" points="56,-107.7 56,-126.7 120,-126.7 120,-107.7 56,-107.7"/>
<polygon fill="none" stroke="#000000" points="56,-107.7 56,-126.7 120,-126.7 120,-107.7 56,-107.7"/>
<text text-anchor="start" x="84.6105" y="-113.8" font-family="Helvetica,sans-Serif" font-size="11.00" fill="#000000">0 rows</text>
<polygon fill="#ffffff" stroke="transparent" points="120,-107.7 120,-126.7 182,-126.7 182,-107.7 120,-107.7"/>
<polygon fill="none" stroke="#000000" points="120,-107.7 120,-126.7 182,-126.7 182,-107.7 120,-107.7"/>
<text text-anchor="start" x="163.4053" y="-113.8" font-family="Helvetica,sans-Serif" font-size="11.00" fill="#000000">2 &gt;</text>
<polygon fill="none" stroke="#000000" stroke-width="2" points="9,-106.7 9,-216.7 183,-216.7 183,-106.7 9,-106.7"/>
</a>
</g>
</g>
<!-- sccs_diagnostics_summary&#45;&gt;sccs_analysis -->
<g id="edge1" class="edge">
<title>sccs_diagnostics_summary:w&#45;&gt;sccs_analysis:e</title>
<path fill="none" stroke="#000000" d="M218.8364,-156.4912C206.0486,-164.352 202.1673,-181.7 182,-181.7"/>
<polygon fill="#000000" stroke="#000000" points="225.2721,-154.7686 233.9309,-156.1776 229.136,-153.7343 233,-152.7 233,-152.7 233,-152.7 229.136,-153.7343 232.0691,-149.2224 225.2721,-154.7686 225.2721,-154.7686"/>
<ellipse fill="none" stroke="#000000" cx="222.1809" cy="-155.5961" rx="3.2" ry="3.2"/>
</g>
<!-- sccs_result -->
<g id="node3" class="node">
<title>sccs_result</title>
<g id="a_node3"><a xlink:href="../../tables/sccs_result.html" xlink:title="sccs_result" target="_top">
<polygon fill="#ffffff" stroke="transparent" points="516,-38.2 516,-187.2 738,-187.2 738,-38.2 516,-38.2"/>
<polygon fill="#f5f5f5" stroke="transparent" points="516,-163.7 516,-186.7 738,-186.7 738,-163.7 516,-163.7"/>
<polygon fill="none" stroke="#000000" points="516,-163.7 516,-186.7 738,-186.7 738,-163.7 516,-163.7"/>
<text text-anchor="start" x="521" y="-172.3" font-family="Helvetica,sans-Serif" font-weight="bold" font-size="11.00" fill="#000000">sccs_result</text>
<text text-anchor="start" x="703.0437" y="-171.8" font-family="Helvetica,sans-Serif" font-size="11.00" fill="#000000">[table]</text>
<polygon fill="none" stroke="#000000" points="516,-141.7 516,-163.7 738,-163.7 738,-141.7 516,-141.7"/>
<image xlink:href="../../images/foreignKeys.png" width="11px" height="12px" preserveAspectRatio="xMinYMin meet" x="521" y="-158.7"/>
<text text-anchor="start" x="536" y="-148.8" font-family="Helvetica,sans-Serif" font-size="11.00" fill="#000000">analysis_id</text>
<polygon fill="none" stroke="#000000" points="516,-119.7 516,-141.7 738,-141.7 738,-119.7 516,-119.7"/>
<image xlink:href="../../images/foreignKeys.png" width="11px" height="12px" preserveAspectRatio="xMinYMin meet" x="521" y="-136.7"/>
<text text-anchor="start" x="536" y="-126.8" font-family="Helvetica,sans-Serif" font-size="11.00" fill="#000000">covariate_id</text>
<polygon fill="none" stroke="#000000" points="516,-97.7 516,-119.7 738,-119.7 738,-97.7 516,-97.7"/>
<image xlink:href="../../images/foreignKeys.png" width="11px" height="12px" preserveAspectRatio="xMinYMin meet" x="521" y="-114.7"/>
<text text-anchor="start" x="536" y="-104.8" font-family="Helvetica,sans-Serif" font-size="11.00" fill="#000000">database_id</text>
<polygon fill="none" stroke="#000000" points="516,-75.7 516,-97.7 738,-97.7 738,-75.7 516,-75.7"/>
<image xlink:href="../../images/foreignKeys.png" width="11px" height="12px" preserveAspectRatio="xMinYMin meet" x="521" y="-92.7"/>
<text text-anchor="start" x="536" y="-82.8" font-family="Helvetica,sans-Serif" font-size="11.00" fill="#000000">exposures_outcome_set_id</text>
<polygon fill="none" stroke="#000000" points="516,-56.7 516,-75.7 738,-75.7 738,-56.7 516,-56.7"/>
<text text-anchor="start" x="519" y="-62.8" font-family="Helvetica,sans-Serif" font-size="11.00" fill="#000000">...</text>
<polygon fill="#ffffff" stroke="transparent" points="516,-37.7 516,-56.7 615,-56.7 615,-37.7 516,-37.7"/>
<polygon fill="none" stroke="#000000" points="516,-37.7 516,-56.7 615,-56.7 615,-37.7 516,-37.7"/>
<text text-anchor="start" x="519" y="-43.8" font-family="Helvetica,sans-Serif" font-size="11.00" fill="#000000">&lt; 12</text>
<polygon fill="#ffffff" stroke="transparent" points="615,-37.7 615,-56.7 689,-56.7 689,-37.7 615,-37.7"/>
<polygon fill="none" stroke="#000000" points="615,-37.7 615,-56.7 689,-56.7 689,-37.7 615,-37.7"/>
<text text-anchor="start" x="653.6105" y="-43.8" font-family="Helvetica,sans-Serif" font-size="11.00" fill="#000000">0 rows</text>
<polygon fill="#ffffff" stroke="transparent" points="689,-37.7 689,-56.7 738,-56.7 738,-37.7 689,-37.7"/>
<polygon fill="none" stroke="#000000" points="689,-37.7 689,-56.7 738,-56.7 738,-37.7 689,-37.7"/>
<text text-anchor="start" x="728.8862" y="-43.8" font-family="Helvetica,sans-Serif" font-size="11.00" fill="#000000"> &#160;</text>
</a>
</g>
</g>
<!-- sccs_result&#45;&gt;sccs_diagnostics_summary -->
<g id="edge3" class="edge">
<title>sccs_result:w&#45;&gt;sccs_diagnostics_summary:e</title>
<path fill="none" stroke="#000000" d="M501.4909,-152.7C490.1774,-152.7 482.9931,-152.7 467,-152.7"/>
<polygon fill="#000000" stroke="#000000" points="508,-152.7001 516,-156.3 512,-152.7 516,-152.7 516,-152.7 516,-152.7 512,-152.7 516,-149.1 508,-152.7001 508,-152.7001"/>
<ellipse fill="none" stroke="#000000" cx="504.8" cy="-152.7001" rx="3.2" ry="3.2"/>
</g>
<!-- sccs_result&#45;&gt;sccs_diagnostics_summary -->
<g id="edge4" class="edge">
<title>sccs_result:w&#45;&gt;sccs_diagnostics_summary:e</title>
<path fill="none" stroke="#000000" d="M501.4909,-130.7C490.1774,-130.7 482.9931,-130.7 467,-130.7"/>
<polygon fill="#000000" stroke="#000000" points="508,-130.7001 516,-134.3 512,-130.7 516,-130.7 516,-130.7 516,-130.7 512,-130.7 516,-127.1 508,-130.7001 508,-130.7001"/>
<ellipse fill="none" stroke="#000000" cx="504.8" cy="-130.7001" rx="3.2" ry="3.2"/>
</g>
<!-- sccs_result&#45;&gt;sccs_diagnostics_summary -->
<g id="edge5" class="edge">
<title>sccs_result:w&#45;&gt;sccs_diagnostics_summary:e</title>
<path fill="none" stroke="#000000" d="M501.4909,-108.7C490.1774,-108.7 482.9931,-108.7 467,-108.7"/>
<polygon fill="#000000" stroke="#000000" points="508,-108.7001 516,-112.3 512,-108.7 516,-108.7 516,-108.7 516,-108.7 512,-108.7 516,-105.1 508,-108.7001 508,-108.7001"/>
<ellipse fill="none" stroke="#000000" cx="504.8" cy="-108.7001" rx="3.2" ry="3.2"/>
</g>
<!-- sccs_result&#45;&gt;sccs_diagnostics_summary -->
<g id="edge6" class="edge">
<title>sccs_result:w&#45;&gt;sccs_diagnostics_summary:e</title>
<path fill="none" stroke="#000000" d="M501.4909,-86.7C490.1774,-86.7 482.9931,-86.7 467,-86.7"/>
<polygon fill="#000000" stroke="#000000" points="508,-86.7001 516,-90.3 512,-86.7 516,-86.7 516,-86.7 516,-86.7 512,-86.7 516,-83.1 508,-86.7001 508,-86.7001"/>
<ellipse fill="none" stroke="#000000" cx="504.8" cy="-86.7001" rx="3.2" ry="3.2"/>
</g>
<!-- sccs_result&#45;&gt;sccs_analysis -->
<g id="edge2" class="edge">
<title>sccs_result:w&#45;&gt;sccs_analysis:e</title>
<path fill="none" stroke="#000000" d="M502.2703,-157.5777C492.0557,-167.3984 493.9488,-189.3301 475,-197.7 373.3625,-242.5943 334.3534,-217.3855 225,-197.7 204.9313,-194.0873 202.3912,-181.7 182,-181.7"/>
<polygon fill="#000000" stroke="#000000" points="508.4616,-155.3782 517.2052,-156.0923 512.2308,-154.0391 516,-152.7 516,-152.7 516,-152.7 512.2308,-154.0391 514.7948,-149.3077 508.4616,-155.3782 508.4616,-155.3782"/>
<ellipse fill="none" stroke="#000000" cx="505.4462" cy="-156.4495" rx="3.2" ry="3.2"/>
</g>
</g>
</svg>
