<?xml version="1.0" encoding="UTF-8" standalone="no"?>
<!DOCTYPE svg PUBLIC "-//W3C//DTD SVG 1.1//EN"
 "http://www.w3.org/Graphics/SVG/1.1/DTD/svg11.dtd">
<!-- Generated by graphviz version 2.40.1 (20161225.0304)
 -->
<!-- Title: oneDegreeRelationshipsDiagram Pages: 1 -->
<svg width="1138pt" height="675pt"
 viewBox="0.00 0.00 1138.00 674.63" xmlns="http://www.w3.org/2000/svg" xmlns:xlink="http://www.w3.org/1999/xlink">
<g id="graph0" class="graph" transform="scale(1 1) rotate(0) translate(4 670.6326)">
<title>oneDegreeRelationshipsDiagram</title>
<polygon fill="#ffffff" stroke="transparent" points="-4,4 -4,-670.6326 1134,-670.6326 1134,4 -4,4"/>
<text text-anchor="middle" x="72.4936" y="-7.3" font-family="Helvetica,sans-Serif" font-size="11.00" fill="#000000">Generated by SchemaSpy</text>
<!-- sccs_diagnostics_summary -->
<g id="node1" class="node">
<title>sccs_diagnostics_summary</title>
<g id="a_node1"><a xlink:href="../../tables/sccs_diagnostics_summary.html" xlink:title="sccs_diagnostics_summary" target="_top">
<polygon fill="#ffffff" stroke="transparent" points="551,-192.3966 551,-546.3966 851,-546.3966 851,-192.3966 551,-192.3966"/>
<polygon fill="#f5f5f5" stroke="transparent" points="553,-521.3966 553,-544.3966 849,-544.3966 849,-521.3966 553,-521.3966"/>
<polygon fill="none" stroke="#000000" points="553,-521.3966 553,-544.3966 849,-544.3966 849,-521.3966 553,-521.3966"/>
<text text-anchor="start" x="558" y="-529.9966" font-family="Helvetica,sans-Serif" font-weight="bold" font-size="11.00" fill="#000000">sccs_diagnostics_summary</text>
<text text-anchor="start" x="814.0437" y="-529.4966" font-family="Helvetica,sans-Serif" font-size="11.00" fill="#000000">[table]</text>
<polygon fill="none" stroke="#000000" points="553,-499.3966 553,-521.3966 787,-521.3966 787,-499.3966 553,-499.3966"/>
<image xlink:href="../../images/primaryKeys.png" width="11px" height="12px" preserveAspectRatio="xMinYMin meet" x="558" y="-516.397"/>
<text text-anchor="start" x="573" y="-506.4966" font-family="Helvetica,sans-Serif" font-size="11.00" fill="#000000">analysis_id</text>
<polygon fill="none" stroke="#000000" points="787,-499.3966 787,-521.3966 849,-521.3966 849,-499.3966 787,-499.3966"/>
<text text-anchor="start" x="789.878" y="-507.0966" font-family="Helvetica,sans-Serif" font-size="11.00" fill="#000000">unknown[0]</text>
<polygon fill="none" stroke="#000000" points="553,-477.3966 553,-499.3966 787,-499.3966 787,-477.3966 553,-477.3966"/>
<image xlink:href="../../images/primaryKeys.png" width="11px" height="12px" preserveAspectRatio="xMinYMin meet" x="558" y="-494.397"/>
<text text-anchor="start" x="573" y="-484.4966" font-family="Helvetica,sans-Serif" font-size="11.00" fill="#000000">covariate_id</text>
<polygon fill="none" stroke="#000000" points="787,-477.3966 787,-499.3966 849,-499.3966 849,-477.3966 787,-477.3966"/>
<text text-anchor="start" x="789.878" y="-485.0966" font-family="Helvetica,sans-Serif" font-size="11.00" fill="#000000">unknown[0]</text>
<polygon fill="none" stroke="#000000" points="553,-455.3966 553,-477.3966 787,-477.3966 787,-455.3966 553,-455.3966"/>
<image xlink:href="../../images/primaryKeys.png" width="11px" height="12px" preserveAspectRatio="xMinYMin meet" x="558" y="-472.397"/>
<text text-anchor="start" x="573" y="-462.4966" font-family="Helvetica,sans-Serif" font-size="11.00" fill="#000000">database_id</text>
<polygon fill="none" stroke="#000000" points="787,-455.3966 787,-477.3966 849,-477.3966 849,-455.3966 787,-455.3966"/>
<text text-anchor="start" x="789.878" y="-463.0966" font-family="Helvetica,sans-Serif" font-size="11.00" fill="#000000">unknown[0]</text>
<polygon fill="none" stroke="#000000" points="553,-433.3966 553,-455.3966 787,-455.3966 787,-433.3966 553,-433.3966"/>
<text text-anchor="start" x="573" y="-440.4966" font-family="Helvetica,sans-Serif" font-size="11.00" fill="#000000">ease</text>
<polygon fill="none" stroke="#000000" points="787,-433.3966 787,-455.3966 849,-455.3966 849,-433.3966 787,-433.3966"/>
<text text-anchor="start" x="789.878" y="-441.0966" font-family="Helvetica,sans-Serif" font-size="11.00" fill="#000000">unknown[0]</text>
<polygon fill="none" stroke="#000000" points="553,-411.3966 553,-433.3966 787,-433.3966 787,-411.3966 553,-411.3966"/>
<text text-anchor="start" x="573" y="-418.4966" font-family="Helvetica,sans-Serif" font-size="11.00" fill="#000000">ease_diagnostic</text>
<polygon fill="none" stroke="#000000" points="787,-411.3966 787,-433.3966 849,-433.3966 849,-411.3966 787,-411.3966"/>
<text text-anchor="start" x="789.878" y="-419.0966" font-family="Helvetica,sans-Serif" font-size="11.00" fill="#000000">unknown[0]</text>
<polygon fill="none" stroke="#000000" points="553,-389.3966 553,-411.3966 787,-411.3966 787,-389.3966 553,-389.3966"/>
<image xlink:href="../../images/primaryKeys.png" width="11px" height="12px" preserveAspectRatio="xMinYMin meet" x="558" y="-406.397"/>
<text text-anchor="start" x="573" y="-396.4966" font-family="Helvetica,sans-Serif" font-size="11.00" fill="#000000">exposures_outcome_set_id</text>
<polygon fill="none" stroke="#000000" points="787,-389.3966 787,-411.3966 849,-411.3966 849,-389.3966 787,-389.3966"/>
<text text-anchor="start" x="789.878" y="-397.0966" font-family="Helvetica,sans-Serif" font-size="11.00" fill="#000000">unknown[0]</text>
<polygon fill="none" stroke="#000000" points="553,-367.3966 553,-389.3966 787,-389.3966 787,-367.3966 553,-367.3966"/>
<text text-anchor="start" x="573" y="-374.4966" font-family="Helvetica,sans-Serif" font-size="11.00" fill="#000000">mdrr</text>
<polygon fill="none" stroke="#000000" points="787,-367.3966 787,-389.3966 849,-389.3966 849,-367.3966 787,-367.3966"/>
<text text-anchor="start" x="789.878" y="-375.0966" font-family="Helvetica,sans-Serif" font-size="11.00" fill="#000000">unknown[0]</text>
<polygon fill="none" stroke="#000000" points="553,-345.3966 553,-367.3966 787,-367.3966 787,-345.3966 553,-345.3966"/>
<text text-anchor="start" x="573" y="-352.4966" font-family="Helvetica,sans-Serif" font-size="11.00" fill="#000000">mdrr_diagnostic</text>
<polygon fill="none" stroke="#000000" points="787,-345.3966 787,-367.3966 849,-367.3966 849,-345.3966 787,-345.3966"/>
<text text-anchor="start" x="789.878" y="-353.0966" font-family="Helvetica,sans-Serif" font-size="11.00" fill="#000000">unknown[0]</text>
<polygon fill="none" stroke="#000000" points="553,-323.3966 553,-345.3966 787,-345.3966 787,-323.3966 553,-323.3966"/>
<text text-anchor="start" x="573" y="-330.4966" font-family="Helvetica,sans-Serif" font-size="11.00" fill="#000000">pre_exposure_diagnostic</text>
<polygon fill="none" stroke="#000000" points="787,-323.3966 787,-345.3966 849,-345.3966 849,-323.3966 787,-323.3966"/>
<text text-anchor="start" x="789.878" y="-331.0966" font-family="Helvetica,sans-Serif" font-size="11.00" fill="#000000">unknown[0]</text>
<polygon fill="none" stroke="#000000" points="553,-301.3966 553,-323.3966 787,-323.3966 787,-301.3966 553,-301.3966"/>
<text text-anchor="start" x="573" y="-308.4966" font-family="Helvetica,sans-Serif" font-size="11.00" fill="#000000">pre_exposure_p</text>
<polygon fill="none" stroke="#000000" points="787,-301.3966 787,-323.3966 849,-323.3966 849,-301.3966 787,-301.3966"/>
<text text-anchor="start" x="789.878" y="-309.0966" font-family="Helvetica,sans-Serif" font-size="11.00" fill="#000000">unknown[0]</text>
<polygon fill="none" stroke="#000000" points="553,-279.3966 553,-301.3966 787,-301.3966 787,-279.3966 553,-279.3966"/>
<text text-anchor="start" x="573" y="-286.4966" font-family="Helvetica,sans-Serif" font-size="11.00" fill="#000000">time_trend_diagnostic</text>
<polygon fill="none" stroke="#000000" points="787,-279.3966 787,-301.3966 849,-301.3966 849,-279.3966 787,-279.3966"/>
<text text-anchor="start" x="789.878" y="-287.0966" font-family="Helvetica,sans-Serif" font-size="11.00" fill="#000000">unknown[0]</text>
<polygon fill="none" stroke="#000000" points="553,-257.3966 553,-279.3966 787,-279.3966 787,-257.3966 553,-257.3966"/>
<text text-anchor="start" x="573" y="-264.4966" font-family="Helvetica,sans-Serif" font-size="11.00" fill="#000000">time_trend_p</text>
<polygon fill="none" stroke="#000000" points="787,-257.3966 787,-279.3966 849,-279.3966 849,-257.3966 787,-257.3966"/>
<text text-anchor="start" x="789.878" y="-265.0966" font-family="Helvetica,sans-Serif" font-size="11.00" fill="#000000">unknown[0]</text>
<polygon fill="none" stroke="#000000" points="553,-235.3966 553,-257.3966 787,-257.3966 787,-235.3966 553,-235.3966"/>
<text text-anchor="start" x="573" y="-242.4966" font-family="Helvetica,sans-Serif" font-size="11.00" fill="#000000">unblind</text>
<polygon fill="none" stroke="#000000" points="787,-235.3966 787,-257.3966 849,-257.3966 849,-235.3966 787,-235.3966"/>
<text text-anchor="start" x="789.878" y="-243.0966" font-family="Helvetica,sans-Serif" font-size="11.00" fill="#000000">unknown[0]</text>
<polygon fill="none" stroke="#000000" points="553,-213.3966 553,-235.3966 787,-235.3966 787,-213.3966 553,-213.3966"/>
<text text-anchor="start" x="573" y="-220.4966" font-family="Helvetica,sans-Serif" font-size="11.00" fill="#000000">unblind_for_evidence_synthesis</text>
<polygon fill="none" stroke="#000000" points="787,-213.3966 787,-235.3966 849,-235.3966 849,-213.3966 787,-213.3966"/>
<text text-anchor="start" x="789.878" y="-221.0966" font-family="Helvetica,sans-Serif" font-size="11.00" fill="#000000">unknown[0]</text>
<polygon fill="#ffffff" stroke="transparent" points="553,-194.3966 553,-213.3966 661,-213.3966 661,-194.3966 553,-194.3966"/>
<polygon fill="none" stroke="#000000" points="553,-194.3966 553,-213.3966 661,-213.3966 661,-194.3966 553,-194.3966"/>
<text text-anchor="start" x="556" y="-200.4966" font-family="Helvetica,sans-Serif" font-size="11.00" fill="#000000">&lt; 7</text>
<polygon fill="#ffffff" stroke="transparent" points="661,-194.3966 661,-213.3966 787,-213.3966 787,-194.3966 661,-194.3966"/>
<polygon fill="none" stroke="#000000" points="661,-194.3966 661,-213.3966 787,-213.3966 787,-194.3966 661,-194.3966"/>
<text text-anchor="start" x="751.6105" y="-200.4966" font-family="Helvetica,sans-Serif" font-size="11.00" fill="#000000">0 rows</text>
<polygon fill="#ffffff" stroke="transparent" points="787,-194.3966 787,-213.3966 849,-213.3966 849,-194.3966 787,-194.3966"/>
<polygon fill="none" stroke="#000000" points="787,-194.3966 787,-213.3966 849,-213.3966 849,-194.3966 787,-194.3966"/>
<text text-anchor="start" x="830.4053" y="-200.4966" font-family="Helvetica,sans-Serif" font-size="11.00" fill="#000000">4 &gt;</text>
<polygon fill="none" stroke="#000000" stroke-width="2" points="552,-193.3966 552,-545.3966 850,-545.3966 850,-193.3966 552,-193.3966"/>
</a>
</g>
</g>
<!-- sccs_analysis -->
<g id="node2" class="node">
<title>sccs_analysis</title>
<g id="a_node2"><a xlink:href="../../tables/sccs_analysis.html" xlink:title="sccs_analysis" target="_top">
<polygon fill="#ffffff" stroke="transparent" points="315.5,-489.8966 315.5,-572.8966 443.5,-572.8966 443.5,-489.8966 315.5,-489.8966"/>
<polygon fill="#f5f5f5" stroke="transparent" points="315.5,-549.3966 315.5,-572.3966 443.5,-572.3966 443.5,-549.3966 315.5,-549.3966"/>
<polygon fill="none" stroke="#000000" points="315.5,-549.3966 315.5,-572.3966 443.5,-572.3966 443.5,-549.3966 315.5,-549.3966"/>
<text text-anchor="start" x="320.5" y="-557.9966" font-family="Helvetica,sans-Serif" font-weight="bold" font-size="11.00" fill="#000000">sccs_analysis</text>
<text text-anchor="start" x="409.0219" y="-557.4966" font-family="Helvetica,sans-Serif" font-size="11.00" fill="#000000">[table]</text>
<polygon fill="none" stroke="#000000" points="315.5,-527.3966 315.5,-549.3966 443.5,-549.3966 443.5,-527.3966 315.5,-527.3966"/>
<image xlink:href="../../images/primaryKeys.png" width="11px" height="12px" preserveAspectRatio="xMinYMin meet" x="320.5" y="-544.397"/>
<text text-anchor="start" x="344.5" y="-534.4966" font-family="Helvetica,sans-Serif" font-size="11.00" fill="#000000">analysis_id</text>
<polygon fill="none" stroke="#000000" points="315.5,-508.3966 315.5,-527.3966 443.5,-527.3966 443.5,-508.3966 315.5,-508.3966"/>
<text text-anchor="start" x="318.5" y="-514.4966" font-family="Helvetica,sans-Serif" font-size="11.00" fill="#000000">...</text>
<polygon fill="#ffffff" stroke="transparent" points="315.5,-489.3966 315.5,-508.3966 355.5,-508.3966 355.5,-489.3966 315.5,-489.3966"/>
<polygon fill="none" stroke="#000000" points="315.5,-489.3966 315.5,-508.3966 355.5,-508.3966 355.5,-489.3966 315.5,-489.3966"/>
<text text-anchor="start" x="318.5" y="-495.4966" font-family="Helvetica,sans-Serif" font-size="11.00" fill="#000000"> &#160;</text>
<polygon fill="#ffffff" stroke="transparent" points="355.5,-489.3966 355.5,-508.3966 407.5,-508.3966 407.5,-489.3966 355.5,-489.3966"/>
<polygon fill="none" stroke="#000000" points="355.5,-489.3966 355.5,-508.3966 407.5,-508.3966 407.5,-489.3966 355.5,-489.3966"/>
<text text-anchor="start" x="372.1105" y="-495.4966" font-family="Helvetica,sans-Serif" font-size="11.00" fill="#000000">0 rows</text>
<polygon fill="#ffffff" stroke="transparent" points="407.5,-489.3966 407.5,-508.3966 443.5,-508.3966 443.5,-489.3966 407.5,-489.3966"/>
<polygon fill="none" stroke="#000000" points="407.5,-489.3966 407.5,-508.3966 443.5,-508.3966 443.5,-489.3966 407.5,-489.3966"/>
<text text-anchor="start" x="424.9053" y="-495.4966" font-family="Helvetica,sans-Serif" font-size="11.00" fill="#000000">2 &gt;</text>
</a>
</g>
</g>
<!-- sccs_diagnostics_summary&#45;&gt;sccs_analysis -->
<g id="edge1" class="edge">
<title>sccs_diagnostics_summary:w&#45;&gt;sccs_analysis:e</title>
<path fill="none" stroke="#000000" d="M538.3842,-511.2653C500.4034,-515.9914 488.4346,-538.3966 443.5,-538.3966"/>
<polygon fill="#000000" stroke="#000000" points="545.0141,-510.8713 553.2136,-513.9903 549.007,-510.6339 553,-510.3966 553,-510.3966 553,-510.3966 549.007,-510.6339 552.7864,-506.8029 545.0141,-510.8713 545.0141,-510.8713"/>
<ellipse fill="none" stroke="#000000" cx="541.8197" cy="-511.0612" rx="3.2" ry="3.2"/>
</g>
<!-- sccs_covariate -->
<g id="node3" class="node">
<title>sccs_covariate</title>
<g id="a_node3"><a xlink:href="../../tables/sccs_covariate.html" xlink:title="sccs_covariate" target="_top">
<polygon fill="#ffffff" stroke="transparent" points="8,-340.8966 8,-489.8966 208,-489.8966 208,-340.8966 8,-340.8966"/>
<polygon fill="#f5f5f5" stroke="transparent" points="8,-466.3966 8,-489.3966 208,-489.3966 208,-466.3966 8,-466.3966"/>
<polygon fill="none" stroke="#000000" points="8,-466.3966 8,-489.3966 208,-489.3966 208,-466.3966 8,-466.3966"/>
<text text-anchor="start" x="13" y="-474.9966" font-family="Helvetica,sans-Serif" font-weight="bold" font-size="11.00" fill="#000000">sccs_covariate</text>
<text text-anchor="start" x="173.0437" y="-474.4966" font-family="Helvetica,sans-Serif" font-size="11.00" fill="#000000">[table]</text>
<polygon fill="none" stroke="#000000" points="8,-444.3966 8,-466.3966 208,-466.3966 208,-444.3966 8,-444.3966"/>
<image xlink:href="../../images/primaryKeys.png" width="11px" height="12px" preserveAspectRatio="xMinYMin meet" x="13" y="-461.397"/>
<text text-anchor="start" x="28" y="-451.4966" font-family="Helvetica,sans-Serif" font-size="11.00" fill="#000000">analysis_id</text>
<polygon fill="none" stroke="#000000" points="8,-422.3966 8,-444.3966 208,-444.3966 208,-422.3966 8,-422.3966"/>
<image xlink:href="../../images/primaryKeys.png" width="11px" height="12px" preserveAspectRatio="xMinYMin meet" x="13" y="-439.397"/>
<text text-anchor="start" x="28" y="-429.4966" font-family="Helvetica,sans-Serif" font-size="11.00" fill="#000000">covariate_id</text>
<polygon fill="none" stroke="#000000" points="8,-400.3966 8,-422.3966 208,-422.3966 208,-400.3966 8,-400.3966"/>
<image xlink:href="../../images/primaryKeys.png" width="11px" height="12px" preserveAspectRatio="xMinYMin meet" x="13" y="-417.397"/>
<text text-anchor="start" x="28" y="-407.4966" font-family="Helvetica,sans-Serif" font-size="11.00" fill="#000000">database_id</text>
<polygon fill="none" stroke="#000000" points="8,-378.3966 8,-400.3966 208,-400.3966 208,-378.3966 8,-378.3966"/>
<image xlink:href="../../images/primaryKeys.png" width="11px" height="12px" preserveAspectRatio="xMinYMin meet" x="13" y="-395.397"/>
<text text-anchor="start" x="28" y="-385.4966" font-family="Helvetica,sans-Serif" font-size="11.00" fill="#000000">exposures_outcome_set_id</text>
<polygon fill="none" stroke="#000000" points="8,-359.3966 8,-378.3966 208,-378.3966 208,-359.3966 8,-359.3966"/>
<text text-anchor="start" x="11" y="-365.4966" font-family="Helvetica,sans-Serif" font-size="11.00" fill="#000000">...</text>
<polygon fill="#ffffff" stroke="transparent" points="8,-340.3966 8,-359.3966 81,-359.3966 81,-340.3966 8,-340.3966"/>
<polygon fill="none" stroke="#000000" points="8,-340.3966 8,-359.3966 81,-359.3966 81,-340.3966 8,-340.3966"/>
<text text-anchor="start" x="11" y="-346.4966" font-family="Helvetica,sans-Serif" font-size="11.00" fill="#000000"> &#160;</text>
<polygon fill="#ffffff" stroke="transparent" points="81,-340.3966 81,-359.3966 150,-359.3966 150,-340.3966 81,-340.3966"/>
<polygon fill="none" stroke="#000000" points="81,-340.3966 81,-359.3966 150,-359.3966 150,-340.3966 81,-340.3966"/>
<text text-anchor="start" x="114.6105" y="-346.4966" font-family="Helvetica,sans-Serif" font-size="11.00" fill="#000000">0 rows</text>
<polygon fill="#ffffff" stroke="transparent" points="150,-340.3966 150,-359.3966 208,-359.3966 208,-340.3966 150,-340.3966"/>
<polygon fill="none" stroke="#000000" points="150,-340.3966 150,-359.3966 208,-359.3966 208,-340.3966 150,-340.3966"/>
<text text-anchor="start" x="183.2904" y="-346.4966" font-family="Helvetica,sans-Serif" font-size="11.00" fill="#000000">13 &gt;</text>
</a>
</g>
</g>
<!-- sccs_diagnostics_summary&#45;&gt;sccs_covariate -->
<g id="edge2" class="edge">
<title>sccs_diagnostics_summary:w&#45;&gt;sccs_covariate:e</title>
<path fill="none" stroke="#000000" d="M539.1349,-506.4796C529.1719,-499.581 526.4138,-485.4248 510,-479.3966 383.609,-432.978 342.6454,-455.3966 208,-455.3966"/>
<polygon fill="#000000" stroke="#000000" points="545.3013,-508.2216 552.0213,-513.861 549.1507,-509.3091 553,-510.3966 553,-510.3966 553,-510.3966 549.1507,-509.3091 553.9787,-506.9322 545.3013,-508.2216 545.3013,-508.2216"/>
<ellipse fill="none" stroke="#000000" cx="542.2218" cy="-507.3516" rx="3.2" ry="3.2"/>
</g>
<!-- sccs_diagnostics_summary&#45;&gt;sccs_covariate -->
<g id="edge3" class="edge">
<title>sccs_diagnostics_summary:w&#45;&gt;sccs_covariate:e</title>
<path fill="none" stroke="#000000" d="M539.0657,-483.9653C528.6192,-475.4361 528.0481,-456.9167 510,-449.3966 447.9645,-423.5483 275.2052,-433.3966 208,-433.3966"/>
<polygon fill="#000000" stroke="#000000" points="545.3762,-485.9721 551.909,-491.8273 549.1881,-487.1843 553,-488.3966 553,-488.3966 553,-488.3966 549.1881,-487.1843 554.091,-484.9659 545.3762,-485.9721 545.3762,-485.9721"/>
<ellipse fill="none" stroke="#000000" cx="542.3267" cy="-485.0023" rx="3.2" ry="3.2"/>
</g>
<!-- sccs_diagnostics_summary&#45;&gt;sccs_covariate -->
<g id="edge5" class="edge">
<title>sccs_diagnostics_summary:w&#45;&gt;sccs_covariate:e</title>
<path fill="none" stroke="#000000" d="M539.1591,-462.0825C528.7062,-453.7784 527.8762,-435.7445 510,-428.3966 385.6596,-377.2873 342.4347,-411.3966 208,-411.3966"/>
<polygon fill="#000000" stroke="#000000" points="545.3624,-464.016 551.9287,-469.8335 549.1812,-465.2063 553,-466.3966 553,-466.3966 553,-466.3966 549.1812,-465.2063 554.0713,-462.9597 545.3624,-464.016 545.3624,-464.016"/>
<ellipse fill="none" stroke="#000000" cx="542.3074" cy="-463.0638" rx="3.2" ry="3.2"/>
</g>
<!-- sccs_diagnostics_summary&#45;&gt;sccs_covariate -->
<g id="edge6" class="edge">
<title>sccs_diagnostics_summary:w&#45;&gt;sccs_covariate:e</title>
<path fill="none" stroke="#000000" d="M538.5612,-397.2953C511.5723,-382.2502 548.2703,-316.5269 510,-290.3966 414.2006,-224.9866 345.4485,-225.9475 249,-290.3966 209.4029,-316.8563 255.624,-389.3966 208,-389.3966"/>
<polygon fill="#000000" stroke="#000000" points="545.1784,-398.7166 552.244,-403.9163 549.0892,-399.5566 553,-400.3966 553,-400.3966 553,-400.3966 549.0892,-399.5566 553.756,-396.8769 545.1784,-398.7166 545.1784,-398.7166"/>
<ellipse fill="none" stroke="#000000" cx="542.0497" cy="-398.0445" rx="3.2" ry="3.2"/>
</g>
<!-- database_meta_data -->
<g id="node4" class="node">
<title>database_meta_data</title>
<g id="a_node4"><a xlink:href="../../tables/database_meta_data.html" xlink:title="database_meta_data" target="_top">
<polygon fill="#ffffff" stroke="transparent" points="257,-300.8966 257,-383.8966 502,-383.8966 502,-300.8966 257,-300.8966"/>
<polygon fill="#f5f5f5" stroke="transparent" points="257.5,-360.3966 257.5,-383.3966 502.5,-383.3966 502.5,-360.3966 257.5,-360.3966"/>
<polygon fill="none" stroke="#000000" points="257.5,-360.3966 257.5,-383.3966 502.5,-383.3966 502.5,-360.3966 257.5,-360.3966"/>
<text text-anchor="start" x="262.5" y="-368.9966" font-family="Helvetica,sans-Serif" font-weight="bold" font-size="11.00" fill="#000000">database_meta_data</text>
<text text-anchor="start" x="467.5437" y="-368.4966" font-family="Helvetica,sans-Serif" font-size="11.00" fill="#000000">[table]</text>
<polygon fill="none" stroke="#000000" points="257.5,-338.3966 257.5,-360.3966 502.5,-360.3966 502.5,-338.3966 257.5,-338.3966"/>
<image xlink:href="../../images/primaryKeys.png" width="11px" height="12px" preserveAspectRatio="xMinYMin meet" x="262.5" y="-355.397"/>
<text text-anchor="start" x="277.5" y="-345.4966" font-family="Helvetica,sans-Serif" font-size="11.00" fill="#000000">database_id</text>
<polygon fill="none" stroke="#000000" points="257.5,-319.3966 257.5,-338.3966 502.5,-338.3966 502.5,-319.3966 257.5,-319.3966"/>
<text text-anchor="start" x="260.5" y="-325.4966" font-family="Helvetica,sans-Serif" font-size="11.00" fill="#000000">...</text>
<polygon fill="#ffffff" stroke="transparent" points="257.5,-300.3966 257.5,-319.3966 357.5,-319.3966 357.5,-300.3966 257.5,-300.3966"/>
<polygon fill="none" stroke="#000000" points="257.5,-300.3966 257.5,-319.3966 357.5,-319.3966 357.5,-300.3966 257.5,-300.3966"/>
<text text-anchor="start" x="260.5" y="-306.4966" font-family="Helvetica,sans-Serif" font-size="11.00" fill="#000000">&lt; 1</text>
<polygon fill="#ffffff" stroke="transparent" points="357.5,-300.3966 357.5,-319.3966 435.5,-319.3966 435.5,-300.3966 357.5,-300.3966"/>
<polygon fill="none" stroke="#000000" points="357.5,-300.3966 357.5,-319.3966 435.5,-319.3966 435.5,-300.3966 357.5,-300.3966"/>
<text text-anchor="start" x="400.1105" y="-306.4966" font-family="Helvetica,sans-Serif" font-size="11.00" fill="#000000">0 rows</text>
<polygon fill="#ffffff" stroke="transparent" points="435.5,-300.3966 435.5,-319.3966 502.5,-319.3966 502.5,-300.3966 435.5,-300.3966"/>
<polygon fill="none" stroke="#000000" points="435.5,-300.3966 435.5,-319.3966 502.5,-319.3966 502.5,-300.3966 435.5,-300.3966"/>
<text text-anchor="start" x="477.7904" y="-306.4966" font-family="Helvetica,sans-Serif" font-size="11.00" fill="#000000">17 &gt;</text>
</a>
</g>
</g>
<!-- sccs_diagnostics_summary&#45;&gt;database_meta_data -->
<g id="edge4" class="edge">
<title>sccs_diagnostics_summary:w&#45;&gt;database_meta_data:e</title>
<path fill="none" stroke="#000000" d="M538.7844,-462.7667C508.2761,-443.0184 553.1636,-349.3966 502.5,-349.3966"/>
<polygon fill="#000000" stroke="#000000" points="545.2487,-464.4173 552.1093,-469.8847 549.1244,-465.4069 553,-466.3966 553,-466.3966 553,-466.3966 549.1244,-465.4069 553.8907,-462.9085 545.2487,-464.4173 545.2487,-464.4173"/>
<ellipse fill="none" stroke="#000000" cx="542.1482" cy="-463.6256" rx="3.2" ry="3.2"/>
</g>
<!-- sccs_exposures_outcome_set -->
<g id="node5" class="node">
<title>sccs_exposures_outcome_set</title>
<g id="a_node5"><a xlink:href="../../tables/sccs_exposures_outcome_set.html" xlink:title="sccs_exposures_outcome_set" target="_top">
<polygon fill="#ffffff" stroke="transparent" points="262.5,-114.8966 262.5,-219.8966 496.5,-219.8966 496.5,-114.8966 262.5,-114.8966"/>
<polygon fill="#f5f5f5" stroke="transparent" points="262.5,-196.3966 262.5,-219.3966 496.5,-219.3966 496.5,-196.3966 262.5,-196.3966"/>
<polygon fill="none" stroke="#000000" points="262.5,-196.3966 262.5,-219.3966 496.5,-219.3966 496.5,-196.3966 262.5,-196.3966"/>
<text text-anchor="start" x="267.5" y="-204.9966" font-family="Helvetica,sans-Serif" font-weight="bold" font-size="11.00" fill="#000000">sccs_exposures_outcome_set</text>
<text text-anchor="start" x="462.0219" y="-204.4966" font-family="Helvetica,sans-Serif" font-size="11.00" fill="#000000">[table]</text>
<polygon fill="none" stroke="#000000" points="262.5,-174.3966 262.5,-196.3966 496.5,-196.3966 496.5,-174.3966 262.5,-174.3966"/>
<image xlink:href="../../images/primaryKeys.png" width="11px" height="12px" preserveAspectRatio="xMinYMin meet" x="267.5" y="-191.397"/>
<text text-anchor="start" x="291.5" y="-181.4966" font-family="Helvetica,sans-Serif" font-size="11.00" fill="#000000">exposures_outcome_set_id</text>
<polygon fill="none" stroke="#000000" points="262.5,-152.3966 262.5,-174.3966 496.5,-174.3966 496.5,-152.3966 262.5,-152.3966"/>
<image xlink:href="../../images/foreignKeys.png" width="11px" height="12px" preserveAspectRatio="xMinYMin meet" x="267.5" y="-169.397"/>
<text text-anchor="start" x="291.5" y="-159.4966" font-family="Helvetica,sans-Serif" font-size="11.00" fill="#000000">nesting_cohort_id</text>
<polygon fill="none" stroke="#000000" points="262.5,-133.3966 262.5,-152.3966 496.5,-152.3966 496.5,-133.3966 262.5,-133.3966"/>
<text text-anchor="start" x="265.5" y="-139.4966" font-family="Helvetica,sans-Serif" font-size="11.00" fill="#000000">...</text>
<polygon fill="#ffffff" stroke="transparent" points="262.5,-114.3966 262.5,-133.3966 357.5,-133.3966 357.5,-114.3966 262.5,-114.3966"/>
<polygon fill="none" stroke="#000000" points="262.5,-114.3966 262.5,-133.3966 357.5,-133.3966 357.5,-114.3966 262.5,-114.3966"/>
<text text-anchor="start" x="265.5" y="-120.4966" font-family="Helvetica,sans-Serif" font-size="11.00" fill="#000000">&lt; 3</text>
<polygon fill="#ffffff" stroke="transparent" points="357.5,-114.3966 357.5,-133.3966 432.5,-133.3966 432.5,-114.3966 357.5,-114.3966"/>
<polygon fill="none" stroke="#000000" points="357.5,-114.3966 357.5,-133.3966 432.5,-133.3966 432.5,-114.3966 357.5,-114.3966"/>
<text text-anchor="start" x="397.1105" y="-120.4966" font-family="Helvetica,sans-Serif" font-size="11.00" fill="#000000">0 rows</text>
<polygon fill="#ffffff" stroke="transparent" points="432.5,-114.3966 432.5,-133.3966 496.5,-133.3966 496.5,-114.3966 432.5,-114.3966"/>
<polygon fill="none" stroke="#000000" points="432.5,-114.3966 432.5,-133.3966 496.5,-133.3966 496.5,-114.3966 432.5,-114.3966"/>
<text text-anchor="start" x="471.7904" y="-120.4966" font-family="Helvetica,sans-Serif" font-size="11.00" fill="#000000">10 &gt;</text>
</a>
</g>
</g>
<!-- sccs_diagnostics_summary&#45;&gt;sccs_exposures_outcome_set -->
<g id="edge7" class="edge">
<title>sccs_diagnostics_summary:w&#45;&gt;sccs_exposures_outcome_set:e</title>
<path fill="none" stroke="#000000" d="M538.4335,-398.4055C469.4144,-376.7309 589.7039,-185.3966 496.5,-185.3966"/>
<polygon fill="#000000" stroke="#000000" points="545.0737,-399.3131 552.5124,-403.9634 549.0369,-399.8548 553,-400.3966 553,-400.3966 553,-400.3966 549.0369,-399.8548 553.4876,-396.8298 545.0737,-399.3131 545.0737,-399.3131"/>
<ellipse fill="none" stroke="#000000" cx="541.9032" cy="-398.8797" rx="3.2" ry="3.2"/>
</g>
<!-- sccs_exposures_outcome_set&#45;&gt;sccs_covariate -->
<g id="edge8" class="edge">
<title>sccs_exposures_outcome_set:w&#45;&gt;sccs_covariate:e</title>
<path fill="none" stroke="#000000" d="M252.067,-186.398C179.1976,-201.7878 297.9973,-389.3966 208,-389.3966"/>
<polygon fill="#000000" stroke="#000000" points="261.3214,-181.4913 262.0859,-189.4547 260.4932,-189.6076 259.7288,-181.6442 261.3214,-181.4913"/>
<polyline fill="none" stroke="#000000" points="262.5,-185.3966 258.5183,-185.7788 "/>
<ellipse fill="none" stroke="#000000" cx="255.3329" cy="-186.0846" rx="3.2" ry="3.2"/>
</g>
<!-- sccs_result -->
<g id="node6" class="node">
<title>sccs_result</title>
<g id="a_node6"><a xlink:href="../../tables/sccs_result.html" xlink:title="sccs_result" target="_top">
<polygon fill="#ffffff" stroke="transparent" points="900,-395.8966 900,-544.8966 1122,-544.8966 1122,-395.8966 900,-395.8966"/>
<polygon fill="#f5f5f5" stroke="transparent" points="900,-521.3966 900,-544.3966 1122,-544.3966 1122,-521.3966 900,-521.3966"/>
<polygon fill="none" stroke="#000000" points="900,-521.3966 900,-544.3966 1122,-544.3966 1122,-521.3966 900,-521.3966"/>
<text text-anchor="start" x="905" y="-529.9966" font-family="Helvetica,sans-Serif" font-weight="bold" font-size="11.00" fill="#000000">sccs_result</text>
<text text-anchor="start" x="1087.0437" y="-529.4966" font-family="Helvetica,sans-Serif" font-size="11.00" fill="#000000">[table]</text>
<polygon fill="none" stroke="#000000" points="900,-499.3966 900,-521.3966 1122,-521.3966 1122,-499.3966 900,-499.3966"/>
<image xlink:href="../../images/foreignKeys.png" width="11px" height="12px" preserveAspectRatio="xMinYMin meet" x="905" y="-516.397"/>
<text text-anchor="start" x="920" y="-506.4966" font-family="Helvetica,sans-Serif" font-size="11.00" fill="#000000">analysis_id</text>
<polygon fill="none" stroke="#000000" points="900,-477.3966 900,-499.3966 1122,-499.3966 1122,-477.3966 900,-477.3966"/>
<image xlink:href="../../images/foreignKeys.png" width="11px" height="12px" preserveAspectRatio="xMinYMin meet" x="905" y="-494.397"/>
<text text-anchor="start" x="920" y="-484.4966" font-family="Helvetica,sans-Serif" font-size="11.00" fill="#000000">covariate_id</text>
<polygon fill="none" stroke="#000000" points="900,-455.3966 900,-477.3966 1122,-477.3966 1122,-455.3966 900,-455.3966"/>
<image xlink:href="../../images/foreignKeys.png" width="11px" height="12px" preserveAspectRatio="xMinYMin meet" x="905" y="-472.397"/>
<text text-anchor="start" x="920" y="-462.4966" font-family="Helvetica,sans-Serif" font-size="11.00" fill="#000000">database_id</text>
<polygon fill="none" stroke="#000000" points="900,-433.3966 900,-455.3966 1122,-455.3966 1122,-433.3966 900,-433.3966"/>
<image xlink:href="../../images/foreignKeys.png" width="11px" height="12px" preserveAspectRatio="xMinYMin meet" x="905" y="-450.397"/>
<text text-anchor="start" x="920" y="-440.4966" font-family="Helvetica,sans-Serif" font-size="11.00" fill="#000000">exposures_outcome_set_id</text>
<polygon fill="none" stroke="#000000" points="900,-414.3966 900,-433.3966 1122,-433.3966 1122,-414.3966 900,-414.3966"/>
<text text-anchor="start" x="903" y="-420.4966" font-family="Helvetica,sans-Serif" font-size="11.00" fill="#000000">...</text>
<polygon fill="#ffffff" stroke="transparent" points="900,-395.3966 900,-414.3966 999,-414.3966 999,-395.3966 900,-395.3966"/>
<polygon fill="none" stroke="#000000" points="900,-395.3966 900,-414.3966 999,-414.3966 999,-395.3966 900,-395.3966"/>
<text text-anchor="start" x="903" y="-401.4966" font-family="Helvetica,sans-Serif" font-size="11.00" fill="#000000">&lt; 12</text>
<polygon fill="#ffffff" stroke="transparent" points="999,-395.3966 999,-414.3966 1073,-414.3966 1073,-395.3966 999,-395.3966"/>
<polygon fill="none" stroke="#000000" points="999,-395.3966 999,-414.3966 1073,-414.3966 1073,-395.3966 999,-395.3966"/>
<text text-anchor="start" x="1037.6105" y="-401.4966" font-family="Helvetica,sans-Serif" font-size="11.00" fill="#000000">0 rows</text>
<polygon fill="#ffffff" stroke="transparent" points="1073,-395.3966 1073,-414.3966 1122,-414.3966 1122,-395.3966 1073,-395.3966"/>
<polygon fill="none" stroke="#000000" points="1073,-395.3966 1073,-414.3966 1122,-414.3966 1122,-395.3966 1073,-395.3966"/>
<text text-anchor="start" x="1112.8862" y="-401.4966" font-family="Helvetica,sans-Serif" font-size="11.00" fill="#000000"> &#160;</text>
</a>
</g>
</g>
<!-- sccs_result&#45;&gt;sccs_diagnostics_summary -->
<g id="edge11" class="edge">
<title>sccs_result:w&#45;&gt;sccs_diagnostics_summary:e</title>
<path fill="none" stroke="#000000" d="M885.276,-510.3966C873.2815,-510.3966 865.8229,-510.3966 849,-510.3966"/>
<polygon fill="#000000" stroke="#000000" points="892,-510.3966 900,-513.9966 896,-510.3966 900,-510.3966 900,-510.3966 900,-510.3966 896,-510.3966 900,-506.7966 892,-510.3966 892,-510.3966"/>
<ellipse fill="none" stroke="#000000" cx="888.8" cy="-510.3967" rx="3.2" ry="3.2"/>
</g>
<!-- sccs_result&#45;&gt;sccs_diagnostics_summary -->
<g id="edge13" class="edge">
<title>sccs_result:w&#45;&gt;sccs_diagnostics_summary:e</title>
<path fill="none" stroke="#000000" d="M885.276,-488.3966C873.2815,-488.3966 865.8229,-488.3966 849,-488.3966"/>
<polygon fill="#000000" stroke="#000000" points="892,-488.3966 900,-491.9966 896,-488.3966 900,-488.3966 900,-488.3966 900,-488.3966 896,-488.3966 900,-484.7966 892,-488.3966 892,-488.3966"/>
<ellipse fill="none" stroke="#000000" cx="888.8" cy="-488.3967" rx="3.2" ry="3.2"/>
</g>
<!-- sccs_result&#45;&gt;sccs_diagnostics_summary -->
<g id="edge16" class="edge">
<title>sccs_result:w&#45;&gt;sccs_diagnostics_summary:e</title>
<path fill="none" stroke="#000000" d="M885.276,-466.3966C873.2815,-466.3966 865.8229,-466.3966 849,-466.3966"/>
<polygon fill="#000000" stroke="#000000" points="892,-466.3966 900,-469.9966 896,-466.3966 900,-466.3966 900,-466.3966 900,-466.3966 896,-466.3966 900,-462.7966 892,-466.3966 892,-466.3966"/>
<ellipse fill="none" stroke="#000000" cx="888.8" cy="-466.3967" rx="3.2" ry="3.2"/>
</g>
<!-- sccs_result&#45;&gt;sccs_diagnostics_summary -->
<g id="edge18" class="edge">
<title>sccs_result:w&#45;&gt;sccs_diagnostics_summary:e</title>
<path fill="none" stroke="#000000" d="M885.9107,-439.6878C872.0669,-428.337 872.8557,-400.3966 849,-400.3966"/>
<polygon fill="#000000" stroke="#000000" points="892.4125,-441.8608 898.8589,-447.811 896.2063,-443.1287 900,-444.3966 900,-444.3966 900,-444.3966 896.2063,-443.1287 901.1411,-440.9822 892.4125,-441.8608 892.4125,-441.8608"/>
<ellipse fill="none" stroke="#000000" cx="889.3775" cy="-440.8464" rx="3.2" ry="3.2"/>
</g>
<!-- sccs_result&#45;&gt;sccs_analysis -->
<g id="edge9" class="edge">
<title>sccs_result:w&#45;&gt;sccs_analysis:e</title>
<path fill="none" stroke="#000000" d="M886.3747,-515.1745C875.7878,-525.2599 878.517,-548.5227 859,-557.3966 731.1505,-615.527 682.8199,-570.6267 543,-557.3966 498.1789,-553.1555 488.5213,-538.3966 443.5,-538.3966"/>
<polygon fill="#000000" stroke="#000000" points="892.4507,-513.0439 901.1913,-513.7938 896.2253,-511.7202 900,-510.3966 900,-510.3966 900,-510.3966 896.2253,-511.7202 898.8087,-506.9994 892.4507,-513.0439 892.4507,-513.0439"/>
<ellipse fill="none" stroke="#000000" cx="889.431" cy="-514.1028" rx="3.2" ry="3.2"/>
</g>
<!-- sccs_result&#45;&gt;sccs_covariate -->
<g id="edge10" class="edge">
<title>sccs_result:w&#45;&gt;sccs_covariate:e</title>
<path fill="none" stroke="#000000" d="M885.7887,-513.8883C863.621,-528.4939 892.8286,-584.9689 859,-607.3966 746.0191,-682.3007 356.6122,-689.8279 249,-607.3966 193.4536,-564.8478 277.97,-455.3966 208,-455.3966"/>
<polygon fill="#000000" stroke="#000000" points="892.2311,-512.3054 900.859,-513.8926 896.1155,-511.351 900,-510.3966 900,-510.3966 900,-510.3966 896.1155,-511.351 899.141,-506.9006 892.2311,-512.3054 892.2311,-512.3054"/>
<ellipse fill="none" stroke="#000000" cx="889.1235" cy="-513.069" rx="3.2" ry="3.2"/>
</g>
<!-- sccs_result&#45;&gt;sccs_covariate -->
<g id="edge12" class="edge">
<title>sccs_result:w&#45;&gt;sccs_covariate:e</title>
<path fill="none" stroke="#000000" d="M885.9311,-491.9368C864.8063,-506.2386 891.6048,-560.0047 859,-581.3966 830.6651,-599.987 275.9377,-603.9594 249,-583.3966 194.0643,-541.4614 277.1122,-433.3966 208,-433.3966"/>
<polygon fill="#000000" stroke="#000000" points="892.2418,-490.3488 900.8785,-491.8878 896.1209,-489.3727 900,-488.3966 900,-488.3966 900,-488.3966 896.1209,-489.3727 899.1215,-484.9054 892.2418,-490.3488 892.2418,-490.3488"/>
<ellipse fill="none" stroke="#000000" cx="889.1386" cy="-491.1297" rx="3.2" ry="3.2"/>
</g>
<!-- sccs_result&#45;&gt;sccs_covariate -->
<g id="edge15" class="edge">
<title>sccs_result:w&#45;&gt;sccs_covariate:e</title>
<path fill="none" stroke="#000000" d="M886.3032,-461.6546C843.5709,-426.2685 906.212,-203.6686 859,-162.3966 806.1311,-116.1793 602.5151,-125.1258 543,-162.3966 514.529,-180.2263 536.2793,-209.4708 510,-230.3966 416.888,-304.5402 337.2947,-210.5771 249,-290.3966 206.879,-328.4745 264.7811,-411.3966 208,-411.3966"/>
<polygon fill="#000000" stroke="#000000" points="892.4403,-463.7793 898.8222,-469.7985 896.2201,-465.0879 900,-466.3966 900,-466.3966 900,-466.3966 896.2201,-465.0879 901.1778,-462.9947 892.4403,-463.7793 892.4403,-463.7793"/>
<ellipse fill="none" stroke="#000000" cx="889.4164" cy="-462.7323" rx="3.2" ry="3.2"/>
</g>
<!-- sccs_result&#45;&gt;sccs_covariate -->
<g id="edge17" class="edge">
<title>sccs_result:w&#45;&gt;sccs_covariate:e</title>
<path fill="none" stroke="#000000" d="M886.1403,-440.2265C835.2531,-404.2896 912.6657,-147.0623 859,-99.3966 757.6463,-9.3746 350.6946,-14.7598 249,-104.3966 200.9994,-146.7058 271.9853,-389.3966 208,-389.3966"/>
<polygon fill="#000000" stroke="#000000" points="892.3392,-442.0916 898.9628,-447.8439 896.1696,-443.2441 900,-444.3966 900,-444.3966 900,-444.3966 896.1696,-443.2441 901.0372,-440.9493 892.3392,-442.0916 892.3392,-442.0916"/>
<ellipse fill="none" stroke="#000000" cx="889.2749" cy="-441.1696" rx="3.2" ry="3.2"/>
</g>
<!-- sccs_result&#45;&gt;database_meta_data -->
<g id="edge14" class="edge">
<title>sccs_result:w&#45;&gt;database_meta_data:e</title>
<path fill="none" stroke="#000000" d="M886.3845,-461.3102C847.5521,-426.2396 903.0603,-220.5528 859,-182.3966 832.4582,-159.4113 570.5984,-160.6913 543,-182.3966 482.9681,-229.61 578.8737,-349.3966 502.5,-349.3966"/>
<polygon fill="#000000" stroke="#000000" points="892.5058,-463.597 898.7402,-469.769 896.2529,-464.9968 900,-466.3966 900,-466.3966 900,-466.3966 896.2529,-464.9968 901.2598,-463.0242 892.5058,-463.597 892.5058,-463.597"/>
<ellipse fill="none" stroke="#000000" cx="889.5082" cy="-462.4771" rx="3.2" ry="3.2"/>
</g>
<!-- sccs_result&#45;&gt;sccs_exposures_outcome_set -->
<g id="edge19" class="edge">
<title>sccs_result:w&#45;&gt;sccs_exposures_outcome_set:e</title>
<path fill="none" stroke="#000000" d="M886.2057,-439.7449C841.8218,-404.0656 907.6071,-174.0518 859,-131.3966 806.2192,-85.0787 606.8312,-102.1266 543,-131.3966 514.2106,-144.5981 528.1719,-185.3966 496.5,-185.3966"/>
<polygon fill="#000000" stroke="#000000" points="892.4194,-441.8403 898.8497,-447.8079 896.2097,-443.1184 900,-444.3966 900,-444.3966 900,-444.3966 896.2097,-443.1184 901.1503,-440.9853 892.4194,-441.8403 892.4194,-441.8403"/>
<ellipse fill="none" stroke="#000000" cx="889.3872" cy="-440.8177" rx="3.2" ry="3.2"/>
</g>
</g>
</svg>
