<?xml version="1.0" encoding="UTF-8" standalone="no"?>
<!DOCTYPE svg PUBLIC "-//W3C//DTD SVG 1.1//EN"
 "http://www.w3.org/Graphics/SVG/1.1/DTD/svg11.dtd">
<!-- Generated by graphviz version 2.40.1 (20161225.0304)
 -->
<!-- Title: oneDegreeRelationshipsDiagram Pages: 1 -->
<svg width="584pt" height="228pt"
 viewBox="0.00 0.00 584.00 228.20" xmlns="http://www.w3.org/2000/svg" xmlns:xlink="http://www.w3.org/1999/xlink">
<g id="graph0" class="graph" transform="scale(1 1) rotate(0) translate(4 224.2)">
<title>oneDegreeRelationshipsDiagram</title>
<polygon fill="#ffffff" stroke="transparent" points="-4,4 -4,-224.2 580,-224.2 580,4 -4,4"/>
<text text-anchor="middle" x="72.4936" y="-7.3" font-family="Helvetica,sans-Serif" font-size="11.00" fill="#000000">Generated by SchemaSpy</text>
<!-- sccs_event_dep_observation -->
<g id="node1" class="node">
<title>sccs_event_dep_observation</title>
<g id="a_node1"><a xlink:href="../../tables/sccs_event_dep_observation.html" xlink:title="sccs_event_dep_observation" target="_top">
<polygon fill="#ffffff" stroke="transparent" points="291,-38.2 291,-216.2 568,-216.2 568,-38.2 291,-38.2"/>
<polygon fill="#f5f5f5" stroke="transparent" points="293.5,-191.2 293.5,-214.2 566.5,-214.2 566.5,-191.2 293.5,-191.2"/>
<polygon fill="none" stroke="#000000" points="293.5,-191.2 293.5,-214.2 566.5,-214.2 566.5,-191.2 293.5,-191.2"/>
<text text-anchor="start" x="298.5" y="-199.8" font-family="Helvetica,sans-Serif" font-weight="bold" font-size="11.00" fill="#000000">sccs_event_dep_observation</text>
<text text-anchor="start" x="531.5437" y="-199.3" font-family="Helvetica,sans-Serif" font-size="11.00" fill="#000000">[table]</text>
<polygon fill="none" stroke="#000000" points="293.5,-169.2 293.5,-191.2 504.5,-191.2 504.5,-169.2 293.5,-169.2"/>
<text text-anchor="start" x="313.5" y="-176.3" font-family="Helvetica,sans-Serif" font-size="11.00" fill="#000000">analysis_id</text>
<polygon fill="none" stroke="#000000" points="504.5,-169.2 504.5,-191.2 566.5,-191.2 566.5,-169.2 504.5,-169.2"/>
<text text-anchor="start" x="507.378" y="-176.9" font-family="Helvetica,sans-Serif" font-size="11.00" fill="#000000">unknown[0]</text>
<polygon fill="none" stroke="#000000" points="293.5,-147.2 293.5,-169.2 504.5,-169.2 504.5,-147.2 293.5,-147.2"/>
<text text-anchor="start" x="313.5" y="-154.3" font-family="Helvetica,sans-Serif" font-size="11.00" fill="#000000">censored</text>
<polygon fill="none" stroke="#000000" points="504.5,-147.2 504.5,-169.2 566.5,-169.2 566.5,-147.2 504.5,-147.2"/>
<text text-anchor="start" x="507.378" y="-154.9" font-family="Helvetica,sans-Serif" font-size="11.00" fill="#000000">unknown[0]</text>
<polygon fill="none" stroke="#000000" points="293.5,-125.2 293.5,-147.2 504.5,-147.2 504.5,-125.2 293.5,-125.2"/>
<text text-anchor="start" x="313.5" y="-132.3" font-family="Helvetica,sans-Serif" font-size="11.00" fill="#000000">database_id</text>
<polygon fill="none" stroke="#000000" points="504.5,-125.2 504.5,-147.2 566.5,-147.2 566.5,-125.2 504.5,-125.2"/>
<text text-anchor="start" x="507.378" y="-132.9" font-family="Helvetica,sans-Serif" font-size="11.00" fill="#000000">unknown[0]</text>
<polygon fill="none" stroke="#000000" points="293.5,-103.2 293.5,-125.2 504.5,-125.2 504.5,-103.2 293.5,-103.2"/>
<image xlink:href="../../images/foreignKeys.png" width="11px" height="12px" preserveAspectRatio="xMinYMin meet" x="298.5" y="-120.2"/>
<text text-anchor="start" x="313.5" y="-110.3" font-family="Helvetica,sans-Serif" font-size="11.00" fill="#000000">exposures_outcome_set_id</text>
<polygon fill="none" stroke="#000000" points="504.5,-103.2 504.5,-125.2 566.5,-125.2 566.5,-103.2 504.5,-103.2"/>
<text text-anchor="start" x="507.378" y="-110.9" font-family="Helvetica,sans-Serif" font-size="11.00" fill="#000000">unknown[0]</text>
<polygon fill="none" stroke="#000000" points="293.5,-81.2 293.5,-103.2 504.5,-103.2 504.5,-81.2 293.5,-81.2"/>
<text text-anchor="start" x="313.5" y="-88.3" font-family="Helvetica,sans-Serif" font-size="11.00" fill="#000000">months_to_end</text>
<polygon fill="none" stroke="#000000" points="504.5,-81.2 504.5,-103.2 566.5,-103.2 566.5,-81.2 504.5,-81.2"/>
<text text-anchor="start" x="507.378" y="-88.9" font-family="Helvetica,sans-Serif" font-size="11.00" fill="#000000">unknown[0]</text>
<polygon fill="none" stroke="#000000" points="293.5,-59.2 293.5,-81.2 504.5,-81.2 504.5,-59.2 293.5,-59.2"/>
<text text-anchor="start" x="313.5" y="-66.3" font-family="Helvetica,sans-Serif" font-size="11.00" fill="#000000">outcomes</text>
<polygon fill="none" stroke="#000000" points="504.5,-59.2 504.5,-81.2 566.5,-81.2 566.5,-59.2 504.5,-59.2"/>
<text text-anchor="start" x="507.378" y="-66.9" font-family="Helvetica,sans-Serif" font-size="11.00" fill="#000000">unknown[0]</text>
<polygon fill="#ffffff" stroke="transparent" points="293.5,-40.2 293.5,-59.2 390.5,-59.2 390.5,-40.2 293.5,-40.2"/>
<polygon fill="none" stroke="#000000" points="293.5,-40.2 293.5,-59.2 390.5,-59.2 390.5,-40.2 293.5,-40.2"/>
<text text-anchor="start" x="296.5" y="-46.3" font-family="Helvetica,sans-Serif" font-size="11.00" fill="#000000">&lt; 1</text>
<polygon fill="#ffffff" stroke="transparent" points="390.5,-40.2 390.5,-59.2 504.5,-59.2 504.5,-40.2 390.5,-40.2"/>
<polygon fill="none" stroke="#000000" points="390.5,-40.2 390.5,-59.2 504.5,-59.2 504.5,-40.2 390.5,-40.2"/>
<text text-anchor="start" x="469.1105" y="-46.3" font-family="Helvetica,sans-Serif" font-size="11.00" fill="#000000">0 rows</text>
<polygon fill="#ffffff" stroke="transparent" points="504.5,-40.2 504.5,-59.2 566.5,-59.2 566.5,-40.2 504.5,-40.2"/>
<polygon fill="none" stroke="#000000" points="504.5,-40.2 504.5,-59.2 566.5,-59.2 566.5,-40.2 504.5,-40.2"/>
<text text-anchor="start" x="547.9053" y="-46.3" font-family="Helvetica,sans-Serif" font-size="11.00" fill="#000000">0 &gt;</text>
<polygon fill="none" stroke="#000000" stroke-width="2" points="292,-39.2 292,-215.2 567,-215.2 567,-39.2 292,-39.2"/>
</a>
</g>
</g>
<!-- sccs_exposures_outcome_set -->
<g id="node2" class="node">
<title>sccs_exposures_outcome_set</title>
<g id="a_node2"><a xlink:href="../../tables/sccs_exposures_outcome_set.html" xlink:title="sccs_exposures_outcome_set" target="_top">
<polygon fill="#ffffff" stroke="transparent" points="8,-43.7 8,-148.7 242,-148.7 242,-43.7 8,-43.7"/>
<polygon fill="#f5f5f5" stroke="transparent" points="8,-125.2 8,-148.2 242,-148.2 242,-125.2 8,-125.2"/>
<polygon fill="none" stroke="#000000" points="8,-125.2 8,-148.2 242,-148.2 242,-125.2 8,-125.2"/>
<text text-anchor="start" x="13" y="-133.8" font-family="Helvetica,sans-Serif" font-weight="bold" font-size="11.00" fill="#000000">sccs_exposures_outcome_set</text>
<text text-anchor="start" x="207.5219" y="-133.3" font-family="Helvetica,sans-Serif" font-size="11.00" fill="#000000">[table]</text>
<polygon fill="none" stroke="#000000" points="8,-103.2 8,-125.2 242,-125.2 242,-103.2 8,-103.2"/>
<image xlink:href="../../images/primaryKeys.png" width="11px" height="12px" preserveAspectRatio="xMinYMin meet" x="13" y="-120.2"/>
<text text-anchor="start" x="37" y="-110.3" font-family="Helvetica,sans-Serif" font-size="11.00" fill="#000000">exposures_outcome_set_id</text>
<polygon fill="none" stroke="#000000" points="8,-81.2 8,-103.2 242,-103.2 242,-81.2 8,-81.2"/>
<image xlink:href="../../images/foreignKeys.png" width="11px" height="12px" preserveAspectRatio="xMinYMin meet" x="13" y="-98.2"/>
<text text-anchor="start" x="37" y="-88.3" font-family="Helvetica,sans-Serif" font-size="11.00" fill="#000000">nesting_cohort_id</text>
<polygon fill="none" stroke="#000000" points="8,-62.2 8,-81.2 242,-81.2 242,-62.2 8,-62.2"/>
<text text-anchor="start" x="11" y="-68.3" font-family="Helvetica,sans-Serif" font-size="11.00" fill="#000000">...</text>
<polygon fill="#ffffff" stroke="transparent" points="8,-43.2 8,-62.2 103,-62.2 103,-43.2 8,-43.2"/>
<polygon fill="none" stroke="#000000" points="8,-43.2 8,-62.2 103,-62.2 103,-43.2 8,-43.2"/>
<text text-anchor="start" x="11" y="-49.3" font-family="Helvetica,sans-Serif" font-size="11.00" fill="#000000">&lt; 3</text>
<polygon fill="#ffffff" stroke="transparent" points="103,-43.2 103,-62.2 178,-62.2 178,-43.2 103,-43.2"/>
<polygon fill="none" stroke="#000000" points="103,-43.2 103,-62.2 178,-62.2 178,-43.2 103,-43.2"/>
<text text-anchor="start" x="142.6105" y="-49.3" font-family="Helvetica,sans-Serif" font-size="11.00" fill="#000000">0 rows</text>
<polygon fill="#ffffff" stroke="transparent" points="178,-43.2 178,-62.2 242,-62.2 242,-43.2 178,-43.2"/>
<polygon fill="none" stroke="#000000" points="178,-43.2 178,-62.2 242,-62.2 242,-43.2 178,-43.2"/>
<text text-anchor="start" x="217.2904" y="-49.3" font-family="Helvetica,sans-Serif" font-size="11.00" fill="#000000">10 &gt;</text>
</a>
</g>
</g>
<!-- sccs_event_dep_observation&#45;&gt;sccs_exposures_outcome_set -->
<g id="edge1" class="edge">
<title>sccs_event_dep_observation:w&#45;&gt;sccs_exposures_outcome_set:e</title>
<path fill="none" stroke="#000000" d="M279.0156,-114.2C266.6771,-114.2 259.1667,-114.2 242,-114.2"/>
<polygon fill="#000000" stroke="#000000" points="285.5,-114.2001 293.5,-117.8 289.5,-114.2 293.5,-114.2 293.5,-114.2 293.5,-114.2 289.5,-114.2 293.5,-110.6 285.5,-114.2001 285.5,-114.2001"/>
<ellipse fill="none" stroke="#000000" cx="282.3" cy="-114.2001" rx="3.2" ry="3.2"/>
</g>
</g>
</svg>
