<?xml version="1.0" encoding="UTF-8" standalone="no"?>
<!DOCTYPE svg PUBLIC "-//W3C//DTD SVG 1.1//EN"
 "http://www.w3.org/Graphics/SVG/1.1/DTD/svg11.dtd">
<!-- Generated by graphviz version 2.40.1 (20161225.0304)
 -->
<!-- Title: oneDegreeRelationshipsDiagram Pages: 1 -->
<svg width="595pt" height="316pt"
 viewBox="0.00 0.00 595.00 316.20" xmlns="http://www.w3.org/2000/svg" xmlns:xlink="http://www.w3.org/1999/xlink">
<g id="graph0" class="graph" transform="scale(1 1) rotate(0) translate(4 312.2)">
<title>oneDegreeRelationshipsDiagram</title>
<polygon fill="#ffffff" stroke="transparent" points="-4,4 -4,-312.2 591,-312.2 591,4 -4,4"/>
<text text-anchor="middle" x="72.4936" y="-7.3" font-family="Helvetica,sans-Serif" font-size="11.00" fill="#000000">Generated by SchemaSpy</text>
<!-- sccs_attrition -->
<g id="node1" class="node">
<title>sccs_attrition</title>
<g id="a_node1"><a xlink:href="../../tables/sccs_attrition.html" xlink:title="sccs_attrition" target="_top">
<polygon fill="#ffffff" stroke="transparent" points="291,-38.2 291,-304.2 579,-304.2 579,-38.2 291,-38.2"/>
<polygon fill="#f5f5f5" stroke="transparent" points="293,-279.2 293,-302.2 577,-302.2 577,-279.2 293,-279.2"/>
<polygon fill="none" stroke="#000000" points="293,-279.2 293,-302.2 577,-302.2 577,-279.2 293,-279.2"/>
<text text-anchor="start" x="298" y="-287.8" font-family="Helvetica,sans-Serif" font-weight="bold" font-size="11.00" fill="#000000">sccs_attrition</text>
<text text-anchor="start" x="542.0437" y="-287.3" font-family="Helvetica,sans-Serif" font-size="11.00" fill="#000000">[table]</text>
<polygon fill="none" stroke="#000000" points="293,-257.2 293,-279.2 515,-279.2 515,-257.2 293,-257.2"/>
<text text-anchor="start" x="313" y="-264.3" font-family="Helvetica,sans-Serif" font-size="11.00" fill="#000000">analysis_id</text>
<polygon fill="none" stroke="#000000" points="515,-257.2 515,-279.2 577,-279.2 577,-257.2 515,-257.2"/>
<text text-anchor="start" x="517.878" y="-264.9" font-family="Helvetica,sans-Serif" font-size="11.00" fill="#000000">unknown[0]</text>
<polygon fill="none" stroke="#000000" points="293,-235.2 293,-257.2 515,-257.2 515,-235.2 293,-235.2"/>
<text text-anchor="start" x="313" y="-242.3" font-family="Helvetica,sans-Serif" font-size="11.00" fill="#000000">covariate_id</text>
<polygon fill="none" stroke="#000000" points="515,-235.2 515,-257.2 577,-257.2 577,-235.2 515,-235.2"/>
<text text-anchor="start" x="517.878" y="-242.9" font-family="Helvetica,sans-Serif" font-size="11.00" fill="#000000">unknown[0]</text>
<polygon fill="none" stroke="#000000" points="293,-213.2 293,-235.2 515,-235.2 515,-213.2 293,-213.2"/>
<text text-anchor="start" x="313" y="-220.3" font-family="Helvetica,sans-Serif" font-size="11.00" fill="#000000">database_id</text>
<polygon fill="none" stroke="#000000" points="515,-213.2 515,-235.2 577,-235.2 577,-213.2 515,-213.2"/>
<text text-anchor="start" x="517.878" y="-220.9" font-family="Helvetica,sans-Serif" font-size="11.00" fill="#000000">unknown[0]</text>
<polygon fill="none" stroke="#000000" points="293,-191.2 293,-213.2 515,-213.2 515,-191.2 293,-191.2"/>
<text text-anchor="start" x="313" y="-198.3" font-family="Helvetica,sans-Serif" font-size="11.00" fill="#000000">description</text>
<polygon fill="none" stroke="#000000" points="515,-191.2 515,-213.2 577,-213.2 577,-191.2 515,-191.2"/>
<text text-anchor="start" x="517.878" y="-198.9" font-family="Helvetica,sans-Serif" font-size="11.00" fill="#000000">unknown[0]</text>
<polygon fill="none" stroke="#000000" points="293,-169.2 293,-191.2 515,-191.2 515,-169.2 293,-169.2"/>
<image xlink:href="../../images/foreignKeys.png" width="11px" height="12px" preserveAspectRatio="xMinYMin meet" x="298" y="-186.2"/>
<text text-anchor="start" x="313" y="-176.3" font-family="Helvetica,sans-Serif" font-size="11.00" fill="#000000">exposures_outcome_set_id</text>
<polygon fill="none" stroke="#000000" points="515,-169.2 515,-191.2 577,-191.2 577,-169.2 515,-169.2"/>
<text text-anchor="start" x="517.878" y="-176.9" font-family="Helvetica,sans-Serif" font-size="11.00" fill="#000000">unknown[0]</text>
<polygon fill="none" stroke="#000000" points="293,-147.2 293,-169.2 515,-169.2 515,-147.2 293,-147.2"/>
<text text-anchor="start" x="313" y="-154.3" font-family="Helvetica,sans-Serif" font-size="11.00" fill="#000000">observed_days</text>
<polygon fill="none" stroke="#000000" points="515,-147.2 515,-169.2 577,-169.2 577,-147.2 515,-147.2"/>
<text text-anchor="start" x="517.878" y="-154.9" font-family="Helvetica,sans-Serif" font-size="11.00" fill="#000000">unknown[0]</text>
<polygon fill="none" stroke="#000000" points="293,-125.2 293,-147.2 515,-147.2 515,-125.2 293,-125.2"/>
<text text-anchor="start" x="313" y="-132.3" font-family="Helvetica,sans-Serif" font-size="11.00" fill="#000000">outcome_events</text>
<polygon fill="none" stroke="#000000" points="515,-125.2 515,-147.2 577,-147.2 577,-125.2 515,-125.2"/>
<text text-anchor="start" x="517.878" y="-132.9" font-family="Helvetica,sans-Serif" font-size="11.00" fill="#000000">unknown[0]</text>
<polygon fill="none" stroke="#000000" points="293,-103.2 293,-125.2 515,-125.2 515,-103.2 293,-103.2"/>
<text text-anchor="start" x="313" y="-110.3" font-family="Helvetica,sans-Serif" font-size="11.00" fill="#000000">outcome_observation_periods</text>
<polygon fill="none" stroke="#000000" points="515,-103.2 515,-125.2 577,-125.2 577,-103.2 515,-103.2"/>
<text text-anchor="start" x="517.878" y="-110.9" font-family="Helvetica,sans-Serif" font-size="11.00" fill="#000000">unknown[0]</text>
<polygon fill="none" stroke="#000000" points="293,-81.2 293,-103.2 515,-103.2 515,-81.2 293,-81.2"/>
<text text-anchor="start" x="313" y="-88.3" font-family="Helvetica,sans-Serif" font-size="11.00" fill="#000000">outcome_subjects</text>
<polygon fill="none" stroke="#000000" points="515,-81.2 515,-103.2 577,-103.2 577,-81.2 515,-81.2"/>
<text text-anchor="start" x="517.878" y="-88.9" font-family="Helvetica,sans-Serif" font-size="11.00" fill="#000000">unknown[0]</text>
<polygon fill="none" stroke="#000000" points="293,-59.2 293,-81.2 515,-81.2 515,-59.2 293,-59.2"/>
<text text-anchor="start" x="313" y="-66.3" font-family="Helvetica,sans-Serif" font-size="11.00" fill="#000000">sequence_number</text>
<polygon fill="none" stroke="#000000" points="515,-59.2 515,-81.2 577,-81.2 577,-59.2 515,-59.2"/>
<text text-anchor="start" x="517.878" y="-66.9" font-family="Helvetica,sans-Serif" font-size="11.00" fill="#000000">unknown[0]</text>
<polygon fill="#ffffff" stroke="transparent" points="293,-40.2 293,-59.2 395,-59.2 395,-40.2 293,-40.2"/>
<polygon fill="none" stroke="#000000" points="293,-40.2 293,-59.2 395,-59.2 395,-40.2 293,-40.2"/>
<text text-anchor="start" x="296" y="-46.3" font-family="Helvetica,sans-Serif" font-size="11.00" fill="#000000">&lt; 1</text>
<polygon fill="#ffffff" stroke="transparent" points="395,-40.2 395,-59.2 515,-59.2 515,-40.2 395,-40.2"/>
<polygon fill="none" stroke="#000000" points="395,-40.2 395,-59.2 515,-59.2 515,-40.2 395,-40.2"/>
<text text-anchor="start" x="479.6105" y="-46.3" font-family="Helvetica,sans-Serif" font-size="11.00" fill="#000000">0 rows</text>
<polygon fill="#ffffff" stroke="transparent" points="515,-40.2 515,-59.2 577,-59.2 577,-40.2 515,-40.2"/>
<polygon fill="none" stroke="#000000" points="515,-40.2 515,-59.2 577,-59.2 577,-40.2 515,-40.2"/>
<text text-anchor="start" x="558.4053" y="-46.3" font-family="Helvetica,sans-Serif" font-size="11.00" fill="#000000">0 &gt;</text>
<polygon fill="none" stroke="#000000" stroke-width="2" points="292,-39.2 292,-303.2 578,-303.2 578,-39.2 292,-39.2"/>
</a>
</g>
</g>
<!-- sccs_exposures_outcome_set -->
<g id="node2" class="node">
<title>sccs_exposures_outcome_set</title>
<g id="a_node2"><a xlink:href="../../tables/sccs_exposures_outcome_set.html" xlink:title="sccs_exposures_outcome_set" target="_top">
<polygon fill="#ffffff" stroke="transparent" points="8,-109.7 8,-214.7 242,-214.7 242,-109.7 8,-109.7"/>
<polygon fill="#f5f5f5" stroke="transparent" points="8,-191.2 8,-214.2 242,-214.2 242,-191.2 8,-191.2"/>
<polygon fill="none" stroke="#000000" points="8,-191.2 8,-214.2 242,-214.2 242,-191.2 8,-191.2"/>
<text text-anchor="start" x="13" y="-199.8" font-family="Helvetica,sans-Serif" font-weight="bold" font-size="11.00" fill="#000000">sccs_exposures_outcome_set</text>
<text text-anchor="start" x="207.5219" y="-199.3" font-family="Helvetica,sans-Serif" font-size="11.00" fill="#000000">[table]</text>
<polygon fill="none" stroke="#000000" points="8,-169.2 8,-191.2 242,-191.2 242,-169.2 8,-169.2"/>
<image xlink:href="../../images/primaryKeys.png" width="11px" height="12px" preserveAspectRatio="xMinYMin meet" x="13" y="-186.2"/>
<text text-anchor="start" x="37" y="-176.3" font-family="Helvetica,sans-Serif" font-size="11.00" fill="#000000">exposures_outcome_set_id</text>
<polygon fill="none" stroke="#000000" points="8,-147.2 8,-169.2 242,-169.2 242,-147.2 8,-147.2"/>
<image xlink:href="../../images/foreignKeys.png" width="11px" height="12px" preserveAspectRatio="xMinYMin meet" x="13" y="-164.2"/>
<text text-anchor="start" x="37" y="-154.3" font-family="Helvetica,sans-Serif" font-size="11.00" fill="#000000">nesting_cohort_id</text>
<polygon fill="none" stroke="#000000" points="8,-128.2 8,-147.2 242,-147.2 242,-128.2 8,-128.2"/>
<text text-anchor="start" x="11" y="-134.3" font-family="Helvetica,sans-Serif" font-size="11.00" fill="#000000">...</text>
<polygon fill="#ffffff" stroke="transparent" points="8,-109.2 8,-128.2 103,-128.2 103,-109.2 8,-109.2"/>
<polygon fill="none" stroke="#000000" points="8,-109.2 8,-128.2 103,-128.2 103,-109.2 8,-109.2"/>
<text text-anchor="start" x="11" y="-115.3" font-family="Helvetica,sans-Serif" font-size="11.00" fill="#000000">&lt; 3</text>
<polygon fill="#ffffff" stroke="transparent" points="103,-109.2 103,-128.2 178,-128.2 178,-109.2 103,-109.2"/>
<polygon fill="none" stroke="#000000" points="103,-109.2 103,-128.2 178,-128.2 178,-109.2 103,-109.2"/>
<text text-anchor="start" x="142.6105" y="-115.3" font-family="Helvetica,sans-Serif" font-size="11.00" fill="#000000">0 rows</text>
<polygon fill="#ffffff" stroke="transparent" points="178,-109.2 178,-128.2 242,-128.2 242,-109.2 178,-109.2"/>
<polygon fill="none" stroke="#000000" points="178,-109.2 178,-128.2 242,-128.2 242,-109.2 178,-109.2"/>
<text text-anchor="start" x="217.2904" y="-115.3" font-family="Helvetica,sans-Serif" font-size="11.00" fill="#000000">10 &gt;</text>
</a>
</g>
</g>
<!-- sccs_attrition&#45;&gt;sccs_exposures_outcome_set -->
<g id="edge1" class="edge">
<title>sccs_attrition:w&#45;&gt;sccs_exposures_outcome_set:e</title>
<path fill="none" stroke="#000000" d="M278.276,-180.2C266.2815,-180.2 258.8229,-180.2 242,-180.2"/>
<polygon fill="#000000" stroke="#000000" points="285,-180.2001 293,-183.8 289,-180.2 293,-180.2 293,-180.2 293,-180.2 289,-180.2 293,-176.6 285,-180.2001 285,-180.2001"/>
<ellipse fill="none" stroke="#000000" cx="281.8" cy="-180.2001" rx="3.2" ry="3.2"/>
</g>
</g>
</svg>
