<?xml version="1.0" encoding="UTF-8" standalone="no"?>
<!DOCTYPE svg PUBLIC "-//W3C//DTD SVG 1.1//EN"
 "http://www.w3.org/Graphics/SVG/1.1/DTD/svg11.dtd">
<!-- Generated by graphviz version 2.40.1 (20161225.0304)
 -->
<!-- Title: oneDegreeRelationshipsDiagram Pages: 1 -->
<svg width="1138pt" height="736pt"
 viewBox="0.00 0.00 1138.00 735.50" xmlns="http://www.w3.org/2000/svg" xmlns:xlink="http://www.w3.org/1999/xlink">
<g id="graph0" class="graph" transform="scale(1 1) rotate(0) translate(4 731.5038)">
<title>oneDegreeRelationshipsDiagram</title>
<polygon fill="#ffffff" stroke="transparent" points="-4,4 -4,-731.5038 1134,-731.5038 1134,4 -4,4"/>
<text text-anchor="middle" x="72.4936" y="-7.3" font-family="Helvetica,sans-Serif" font-size="11.00" fill="#000000">Generated by SchemaSpy</text>
<!-- sccs_diagnostics_summary -->
<g id="node1" class="node">
<title>sccs_diagnostics_summary</title>
<g id="a_node1"><a xlink:href="../../tables/sccs_diagnostics_summary.html" xlink:title="sccs_diagnostics_summary" target="_top">
<polygon fill="#ffffff" stroke="transparent" points="551,-350.7 551,-499.7 785,-499.7 785,-350.7 551,-350.7"/>
<polygon fill="#f5f5f5" stroke="transparent" points="551,-476.2 551,-499.2 785,-499.2 785,-476.2 551,-476.2"/>
<polygon fill="none" stroke="#000000" points="551,-476.2 551,-499.2 785,-499.2 785,-476.2 551,-476.2"/>
<text text-anchor="start" x="556" y="-484.8" font-family="Helvetica,sans-Serif" font-weight="bold" font-size="11.00" fill="#000000">sccs_diagnostics_summary</text>
<text text-anchor="start" x="750.0437" y="-484.3" font-family="Helvetica,sans-Serif" font-size="11.00" fill="#000000">[table]</text>
<polygon fill="none" stroke="#000000" points="551,-454.2 551,-476.2 785,-476.2 785,-454.2 551,-454.2"/>
<image xlink:href="../../images/primaryKeys.png" width="11px" height="12px" preserveAspectRatio="xMinYMin meet" x="556" y="-471.2"/>
<text text-anchor="start" x="571" y="-461.3" font-family="Helvetica,sans-Serif" font-size="11.00" fill="#000000">analysis_id</text>
<polygon fill="none" stroke="#000000" points="551,-432.2 551,-454.2 785,-454.2 785,-432.2 551,-432.2"/>
<image xlink:href="../../images/primaryKeys.png" width="11px" height="12px" preserveAspectRatio="xMinYMin meet" x="556" y="-449.2"/>
<text text-anchor="start" x="571" y="-439.3" font-family="Helvetica,sans-Serif" font-size="11.00" fill="#000000">covariate_id</text>
<polygon fill="none" stroke="#000000" points="551,-410.2 551,-432.2 785,-432.2 785,-410.2 551,-410.2"/>
<image xlink:href="../../images/primaryKeys.png" width="11px" height="12px" preserveAspectRatio="xMinYMin meet" x="556" y="-427.2"/>
<text text-anchor="start" x="571" y="-417.3" font-family="Helvetica,sans-Serif" font-size="11.00" fill="#000000">database_id</text>
<polygon fill="none" stroke="#000000" points="551,-388.2 551,-410.2 785,-410.2 785,-388.2 551,-388.2"/>
<image xlink:href="../../images/primaryKeys.png" width="11px" height="12px" preserveAspectRatio="xMinYMin meet" x="556" y="-405.2"/>
<text text-anchor="start" x="571" y="-395.3" font-family="Helvetica,sans-Serif" font-size="11.00" fill="#000000">exposures_outcome_set_id</text>
<polygon fill="none" stroke="#000000" points="551,-369.2 551,-388.2 785,-388.2 785,-369.2 551,-369.2"/>
<text text-anchor="start" x="554" y="-375.3" font-family="Helvetica,sans-Serif" font-size="11.00" fill="#000000">...</text>
<polygon fill="#ffffff" stroke="transparent" points="551,-350.2 551,-369.2 649,-369.2 649,-350.2 551,-350.2"/>
<polygon fill="none" stroke="#000000" points="551,-350.2 551,-369.2 649,-369.2 649,-350.2 551,-350.2"/>
<text text-anchor="start" x="554" y="-356.3" font-family="Helvetica,sans-Serif" font-size="11.00" fill="#000000">&lt; 7</text>
<polygon fill="#ffffff" stroke="transparent" points="649,-350.2 649,-369.2 725,-369.2 725,-350.2 649,-350.2"/>
<polygon fill="none" stroke="#000000" points="649,-350.2 649,-369.2 725,-369.2 725,-350.2 649,-350.2"/>
<text text-anchor="start" x="689.6105" y="-356.3" font-family="Helvetica,sans-Serif" font-size="11.00" fill="#000000">0 rows</text>
<polygon fill="#ffffff" stroke="transparent" points="725,-350.2 725,-369.2 785,-369.2 785,-350.2 725,-350.2"/>
<polygon fill="none" stroke="#000000" points="725,-350.2 725,-369.2 785,-369.2 785,-350.2 725,-350.2"/>
<text text-anchor="start" x="766.4053" y="-356.3" font-family="Helvetica,sans-Serif" font-size="11.00" fill="#000000">4 &gt;</text>
</a>
</g>
</g>
<!-- sccs_analysis -->
<g id="node2" class="node">
<title>sccs_analysis</title>
<g id="a_node2"><a xlink:href="../../tables/sccs_analysis.html" xlink:title="sccs_analysis" target="_top">
<polygon fill="#ffffff" stroke="transparent" points="315.5,-536.7 315.5,-619.7 443.5,-619.7 443.5,-536.7 315.5,-536.7"/>
<polygon fill="#f5f5f5" stroke="transparent" points="315.5,-596.2 315.5,-619.2 443.5,-619.2 443.5,-596.2 315.5,-596.2"/>
<polygon fill="none" stroke="#000000" points="315.5,-596.2 315.5,-619.2 443.5,-619.2 443.5,-596.2 315.5,-596.2"/>
<text text-anchor="start" x="320.5" y="-604.8" font-family="Helvetica,sans-Serif" font-weight="bold" font-size="11.00" fill="#000000">sccs_analysis</text>
<text text-anchor="start" x="409.0219" y="-604.3" font-family="Helvetica,sans-Serif" font-size="11.00" fill="#000000">[table]</text>
<polygon fill="none" stroke="#000000" points="315.5,-574.2 315.5,-596.2 443.5,-596.2 443.5,-574.2 315.5,-574.2"/>
<image xlink:href="../../images/primaryKeys.png" width="11px" height="12px" preserveAspectRatio="xMinYMin meet" x="320.5" y="-591.2"/>
<text text-anchor="start" x="344.5" y="-581.3" font-family="Helvetica,sans-Serif" font-size="11.00" fill="#000000">analysis_id</text>
<polygon fill="none" stroke="#000000" points="315.5,-555.2 315.5,-574.2 443.5,-574.2 443.5,-555.2 315.5,-555.2"/>
<text text-anchor="start" x="318.5" y="-561.3" font-family="Helvetica,sans-Serif" font-size="11.00" fill="#000000">...</text>
<polygon fill="#ffffff" stroke="transparent" points="315.5,-536.2 315.5,-555.2 355.5,-555.2 355.5,-536.2 315.5,-536.2"/>
<polygon fill="none" stroke="#000000" points="315.5,-536.2 315.5,-555.2 355.5,-555.2 355.5,-536.2 315.5,-536.2"/>
<text text-anchor="start" x="318.5" y="-542.3" font-family="Helvetica,sans-Serif" font-size="11.00" fill="#000000"> &#160;</text>
<polygon fill="#ffffff" stroke="transparent" points="355.5,-536.2 355.5,-555.2 407.5,-555.2 407.5,-536.2 355.5,-536.2"/>
<polygon fill="none" stroke="#000000" points="355.5,-536.2 355.5,-555.2 407.5,-555.2 407.5,-536.2 355.5,-536.2"/>
<text text-anchor="start" x="372.1105" y="-542.3" font-family="Helvetica,sans-Serif" font-size="11.00" fill="#000000">0 rows</text>
<polygon fill="#ffffff" stroke="transparent" points="407.5,-536.2 407.5,-555.2 443.5,-555.2 443.5,-536.2 407.5,-536.2"/>
<polygon fill="none" stroke="#000000" points="407.5,-536.2 407.5,-555.2 443.5,-555.2 443.5,-536.2 407.5,-536.2"/>
<text text-anchor="start" x="424.9053" y="-542.3" font-family="Helvetica,sans-Serif" font-size="11.00" fill="#000000">2 &gt;</text>
</a>
</g>
</g>
<!-- sccs_diagnostics_summary&#45;&gt;sccs_analysis -->
<g id="edge1" class="edge">
<title>sccs_diagnostics_summary:w&#45;&gt;sccs_analysis:e</title>
<path fill="none" stroke="#000000" d="M536.9696,-468.7095C522.7948,-477.9037 526.52,-503.288 510,-522.2 483.2162,-552.862 484.2128,-585.2 443.5,-585.2"/>
<polygon fill="#000000" stroke="#000000" points="543.2391,-467.1413 551.8736,-468.6924 547.1195,-466.1706 551,-465.2 551,-465.2 551,-465.2 547.1195,-466.1706 550.1264,-461.7076 543.2391,-467.1413 543.2391,-467.1413"/>
<ellipse fill="none" stroke="#000000" cx="540.1347" cy="-467.9178" rx="3.2" ry="3.2"/>
</g>
<!-- sccs_covariate -->
<g id="node3" class="node">
<title>sccs_covariate</title>
<g id="a_node3"><a xlink:href="../../tables/sccs_covariate.html" xlink:title="sccs_covariate" target="_top">
<polygon fill="#ffffff" stroke="transparent" points="8,-387.7 8,-536.7 208,-536.7 208,-387.7 8,-387.7"/>
<polygon fill="#f5f5f5" stroke="transparent" points="8,-513.2 8,-536.2 208,-536.2 208,-513.2 8,-513.2"/>
<polygon fill="none" stroke="#000000" points="8,-513.2 8,-536.2 208,-536.2 208,-513.2 8,-513.2"/>
<text text-anchor="start" x="13" y="-521.8" font-family="Helvetica,sans-Serif" font-weight="bold" font-size="11.00" fill="#000000">sccs_covariate</text>
<text text-anchor="start" x="173.0437" y="-521.3" font-family="Helvetica,sans-Serif" font-size="11.00" fill="#000000">[table]</text>
<polygon fill="none" stroke="#000000" points="8,-491.2 8,-513.2 208,-513.2 208,-491.2 8,-491.2"/>
<image xlink:href="../../images/primaryKeys.png" width="11px" height="12px" preserveAspectRatio="xMinYMin meet" x="13" y="-508.2"/>
<text text-anchor="start" x="28" y="-498.3" font-family="Helvetica,sans-Serif" font-size="11.00" fill="#000000">analysis_id</text>
<polygon fill="none" stroke="#000000" points="8,-469.2 8,-491.2 208,-491.2 208,-469.2 8,-469.2"/>
<image xlink:href="../../images/primaryKeys.png" width="11px" height="12px" preserveAspectRatio="xMinYMin meet" x="13" y="-486.2"/>
<text text-anchor="start" x="28" y="-476.3" font-family="Helvetica,sans-Serif" font-size="11.00" fill="#000000">covariate_id</text>
<polygon fill="none" stroke="#000000" points="8,-447.2 8,-469.2 208,-469.2 208,-447.2 8,-447.2"/>
<image xlink:href="../../images/primaryKeys.png" width="11px" height="12px" preserveAspectRatio="xMinYMin meet" x="13" y="-464.2"/>
<text text-anchor="start" x="28" y="-454.3" font-family="Helvetica,sans-Serif" font-size="11.00" fill="#000000">database_id</text>
<polygon fill="none" stroke="#000000" points="8,-425.2 8,-447.2 208,-447.2 208,-425.2 8,-425.2"/>
<image xlink:href="../../images/primaryKeys.png" width="11px" height="12px" preserveAspectRatio="xMinYMin meet" x="13" y="-442.2"/>
<text text-anchor="start" x="28" y="-432.3" font-family="Helvetica,sans-Serif" font-size="11.00" fill="#000000">exposures_outcome_set_id</text>
<polygon fill="none" stroke="#000000" points="8,-406.2 8,-425.2 208,-425.2 208,-406.2 8,-406.2"/>
<text text-anchor="start" x="11" y="-412.3" font-family="Helvetica,sans-Serif" font-size="11.00" fill="#000000">...</text>
<polygon fill="#ffffff" stroke="transparent" points="8,-387.2 8,-406.2 81,-406.2 81,-387.2 8,-387.2"/>
<polygon fill="none" stroke="#000000" points="8,-387.2 8,-406.2 81,-406.2 81,-387.2 8,-387.2"/>
<text text-anchor="start" x="11" y="-393.3" font-family="Helvetica,sans-Serif" font-size="11.00" fill="#000000"> &#160;</text>
<polygon fill="#ffffff" stroke="transparent" points="81,-387.2 81,-406.2 150,-406.2 150,-387.2 81,-387.2"/>
<polygon fill="none" stroke="#000000" points="81,-387.2 81,-406.2 150,-406.2 150,-387.2 81,-387.2"/>
<text text-anchor="start" x="114.6105" y="-393.3" font-family="Helvetica,sans-Serif" font-size="11.00" fill="#000000">0 rows</text>
<polygon fill="#ffffff" stroke="transparent" points="150,-387.2 150,-406.2 208,-406.2 208,-387.2 150,-387.2"/>
<polygon fill="none" stroke="#000000" points="150,-387.2 150,-406.2 208,-406.2 208,-387.2 150,-387.2"/>
<text text-anchor="start" x="183.2904" y="-393.3" font-family="Helvetica,sans-Serif" font-size="11.00" fill="#000000">13 &gt;</text>
</a>
</g>
</g>
<!-- sccs_diagnostics_summary&#45;&gt;sccs_covariate -->
<g id="edge2" class="edge">
<title>sccs_diagnostics_summary:w&#45;&gt;sccs_covariate:e</title>
<path fill="none" stroke="#000000" d="M537.1865,-469.519C528.2191,-476.4778 525.5337,-489.9238 510,-495.2 382.8747,-538.3792 342.2583,-502.2 208,-502.2"/>
<polygon fill="#000000" stroke="#000000" points="543.3645,-467.5874 552.0743,-468.636 547.1823,-466.3937 551,-465.2 551,-465.2 551,-465.2 547.1823,-466.3937 549.9257,-461.764 543.3645,-467.5874 543.3645,-467.5874"/>
<ellipse fill="none" stroke="#000000" cx="540.3103" cy="-468.5423" rx="3.2" ry="3.2"/>
</g>
<!-- sccs_diagnostics_summary&#45;&gt;sccs_covariate -->
<g id="edge3" class="edge">
<title>sccs_diagnostics_summary:w&#45;&gt;sccs_covariate:e</title>
<path fill="none" stroke="#000000" d="M536.9892,-447.1583C528.3321,-453.0252 524.5238,-463.8083 510,-468.2 381.4215,-507.0795 342.3281,-480.2 208,-480.2"/>
<polygon fill="#000000" stroke="#000000" points="543.3013,-445.375 551.9788,-446.6644 547.1507,-444.2875 551,-443.2 551,-443.2 551,-443.2 547.1507,-444.2875 550.0212,-439.7356 543.3013,-445.375 543.3013,-445.375"/>
<ellipse fill="none" stroke="#000000" cx="540.2219" cy="-446.245" rx="3.2" ry="3.2"/>
</g>
<!-- sccs_diagnostics_summary&#45;&gt;sccs_covariate -->
<g id="edge5" class="edge">
<title>sccs_diagnostics_summary:w&#45;&gt;sccs_covariate:e</title>
<path fill="none" stroke="#000000" d="M536.8396,-425.0088C528.3262,-430.4288 524.1236,-440.1574 510,-444.2 380.8212,-481.175 342.3664,-458.2 208,-458.2"/>
<polygon fill="#000000" stroke="#000000" points="543.2746,-423.278 551.9351,-424.6764 547.1373,-422.239 551,-421.2 551,-421.2 551,-421.2 547.1373,-422.239 550.0649,-417.7236 543.2746,-423.278 543.2746,-423.278"/>
<ellipse fill="none" stroke="#000000" cx="540.1844" cy="-424.1092" rx="3.2" ry="3.2"/>
</g>
<!-- sccs_diagnostics_summary&#45;&gt;sccs_covariate -->
<g id="edge6" class="edge">
<title>sccs_diagnostics_summary:w&#45;&gt;sccs_covariate:e</title>
<path fill="none" stroke="#000000" d="M537.0471,-394.3453C524.9191,-382.4552 532.5498,-351.9897 510,-340.2 458.6011,-313.327 297.4007,-308.2411 249,-340.2 210.2836,-365.7644 254.395,-436.2 208,-436.2"/>
<polygon fill="#000000" stroke="#000000" points="543.4443,-396.5711 549.817,-402.6001 547.2221,-397.8855 551,-399.2 551,-399.2 551,-399.2 547.2221,-397.8855 552.183,-395.7999 543.4443,-396.5711 543.4443,-396.5711"/>
<ellipse fill="none" stroke="#000000" cx="540.422" cy="-395.5195" rx="3.2" ry="3.2"/>
</g>
<!-- database_meta_data -->
<g id="node4" class="node">
<title>database_meta_data</title>
<g id="a_node4"><a xlink:href="../../tables/database_meta_data.html" xlink:title="database_meta_data" target="_top">
<polygon fill="#ffffff" stroke="transparent" points="257,-350.7 257,-433.7 502,-433.7 502,-350.7 257,-350.7"/>
<polygon fill="#f5f5f5" stroke="transparent" points="257.5,-410.2 257.5,-433.2 502.5,-433.2 502.5,-410.2 257.5,-410.2"/>
<polygon fill="none" stroke="#000000" points="257.5,-410.2 257.5,-433.2 502.5,-433.2 502.5,-410.2 257.5,-410.2"/>
<text text-anchor="start" x="262.5" y="-418.8" font-family="Helvetica,sans-Serif" font-weight="bold" font-size="11.00" fill="#000000">database_meta_data</text>
<text text-anchor="start" x="467.5437" y="-418.3" font-family="Helvetica,sans-Serif" font-size="11.00" fill="#000000">[table]</text>
<polygon fill="none" stroke="#000000" points="257.5,-388.2 257.5,-410.2 502.5,-410.2 502.5,-388.2 257.5,-388.2"/>
<image xlink:href="../../images/primaryKeys.png" width="11px" height="12px" preserveAspectRatio="xMinYMin meet" x="262.5" y="-405.2"/>
<text text-anchor="start" x="277.5" y="-395.3" font-family="Helvetica,sans-Serif" font-size="11.00" fill="#000000">database_id</text>
<polygon fill="none" stroke="#000000" points="257.5,-369.2 257.5,-388.2 502.5,-388.2 502.5,-369.2 257.5,-369.2"/>
<text text-anchor="start" x="260.5" y="-375.3" font-family="Helvetica,sans-Serif" font-size="11.00" fill="#000000">...</text>
<polygon fill="#ffffff" stroke="transparent" points="257.5,-350.2 257.5,-369.2 357.5,-369.2 357.5,-350.2 257.5,-350.2"/>
<polygon fill="none" stroke="#000000" points="257.5,-350.2 257.5,-369.2 357.5,-369.2 357.5,-350.2 257.5,-350.2"/>
<text text-anchor="start" x="260.5" y="-356.3" font-family="Helvetica,sans-Serif" font-size="11.00" fill="#000000">&lt; 1</text>
<polygon fill="#ffffff" stroke="transparent" points="357.5,-350.2 357.5,-369.2 435.5,-369.2 435.5,-350.2 357.5,-350.2"/>
<polygon fill="none" stroke="#000000" points="357.5,-350.2 357.5,-369.2 435.5,-369.2 435.5,-350.2 357.5,-350.2"/>
<text text-anchor="start" x="400.1105" y="-356.3" font-family="Helvetica,sans-Serif" font-size="11.00" fill="#000000">0 rows</text>
<polygon fill="#ffffff" stroke="transparent" points="435.5,-350.2 435.5,-369.2 502.5,-369.2 502.5,-350.2 435.5,-350.2"/>
<polygon fill="none" stroke="#000000" points="435.5,-350.2 435.5,-369.2 502.5,-369.2 502.5,-350.2 435.5,-350.2"/>
<text text-anchor="start" x="477.7904" y="-356.3" font-family="Helvetica,sans-Serif" font-size="11.00" fill="#000000">17 &gt;</text>
</a>
</g>
</g>
<!-- sccs_diagnostics_summary&#45;&gt;database_meta_data -->
<g id="edge4" class="edge">
<title>sccs_diagnostics_summary:w&#45;&gt;database_meta_data:e</title>
<path fill="none" stroke="#000000" d="M536.7648,-417.7625C525.3432,-411.575 520.2522,-399.2 502.5,-399.2"/>
<polygon fill="#000000" stroke="#000000" points="543.2235,-419.3221 550.1549,-424.6994 547.1118,-420.2611 551,-421.2 551,-421.2 551,-421.2 547.1118,-420.2611 551.8451,-417.7006 543.2235,-419.3221 543.2235,-419.3221"/>
<ellipse fill="none" stroke="#000000" cx="540.1129" cy="-418.5709" rx="3.2" ry="3.2"/>
</g>
<!-- sccs_exposures_outcome_set -->
<g id="node5" class="node">
<title>sccs_exposures_outcome_set</title>
<g id="a_node5"><a xlink:href="../../tables/sccs_exposures_outcome_set.html" xlink:title="sccs_exposures_outcome_set" target="_top">
<polygon fill="#ffffff" stroke="transparent" points="262.5,-142.7 262.5,-247.7 496.5,-247.7 496.5,-142.7 262.5,-142.7"/>
<polygon fill="#f5f5f5" stroke="transparent" points="262.5,-224.2 262.5,-247.2 496.5,-247.2 496.5,-224.2 262.5,-224.2"/>
<polygon fill="none" stroke="#000000" points="262.5,-224.2 262.5,-247.2 496.5,-247.2 496.5,-224.2 262.5,-224.2"/>
<text text-anchor="start" x="267.5" y="-232.8" font-family="Helvetica,sans-Serif" font-weight="bold" font-size="11.00" fill="#000000">sccs_exposures_outcome_set</text>
<text text-anchor="start" x="462.0219" y="-232.3" font-family="Helvetica,sans-Serif" font-size="11.00" fill="#000000">[table]</text>
<polygon fill="none" stroke="#000000" points="262.5,-202.2 262.5,-224.2 496.5,-224.2 496.5,-202.2 262.5,-202.2"/>
<image xlink:href="../../images/primaryKeys.png" width="11px" height="12px" preserveAspectRatio="xMinYMin meet" x="267.5" y="-219.2"/>
<text text-anchor="start" x="291.5" y="-209.3" font-family="Helvetica,sans-Serif" font-size="11.00" fill="#000000">exposures_outcome_set_id</text>
<polygon fill="none" stroke="#000000" points="262.5,-180.2 262.5,-202.2 496.5,-202.2 496.5,-180.2 262.5,-180.2"/>
<image xlink:href="../../images/foreignKeys.png" width="11px" height="12px" preserveAspectRatio="xMinYMin meet" x="267.5" y="-197.2"/>
<text text-anchor="start" x="291.5" y="-187.3" font-family="Helvetica,sans-Serif" font-size="11.00" fill="#000000">nesting_cohort_id</text>
<polygon fill="none" stroke="#000000" points="262.5,-161.2 262.5,-180.2 496.5,-180.2 496.5,-161.2 262.5,-161.2"/>
<text text-anchor="start" x="265.5" y="-167.3" font-family="Helvetica,sans-Serif" font-size="11.00" fill="#000000">...</text>
<polygon fill="#ffffff" stroke="transparent" points="262.5,-142.2 262.5,-161.2 357.5,-161.2 357.5,-142.2 262.5,-142.2"/>
<polygon fill="none" stroke="#000000" points="262.5,-142.2 262.5,-161.2 357.5,-161.2 357.5,-142.2 262.5,-142.2"/>
<text text-anchor="start" x="265.5" y="-148.3" font-family="Helvetica,sans-Serif" font-size="11.00" fill="#000000">&lt; 3</text>
<polygon fill="#ffffff" stroke="transparent" points="357.5,-142.2 357.5,-161.2 432.5,-161.2 432.5,-142.2 357.5,-142.2"/>
<polygon fill="none" stroke="#000000" points="357.5,-142.2 357.5,-161.2 432.5,-161.2 432.5,-142.2 357.5,-142.2"/>
<text text-anchor="start" x="397.1105" y="-148.3" font-family="Helvetica,sans-Serif" font-size="11.00" fill="#000000">0 rows</text>
<polygon fill="#ffffff" stroke="transparent" points="432.5,-142.2 432.5,-161.2 496.5,-161.2 496.5,-142.2 432.5,-142.2"/>
<polygon fill="none" stroke="#000000" points="432.5,-142.2 432.5,-161.2 496.5,-161.2 496.5,-142.2 432.5,-142.2"/>
<text text-anchor="start" x="471.7904" y="-148.3" font-family="Helvetica,sans-Serif" font-size="11.00" fill="#000000">10 &gt;</text>
</a>
</g>
</g>
<!-- sccs_diagnostics_summary&#45;&gt;sccs_exposures_outcome_set -->
<g id="edge7" class="edge">
<title>sccs_diagnostics_summary:w&#45;&gt;sccs_exposures_outcome_set:e</title>
<path fill="none" stroke="#000000" d="M536.4172,-396.8483C479.6017,-375.3171 576.9219,-213.2 496.5,-213.2"/>
<polygon fill="#000000" stroke="#000000" points="543.102,-397.9263 550.4268,-402.7541 547.051,-398.5631 551,-399.2 551,-399.2 551,-399.2 547.051,-398.5631 551.5732,-395.6459 543.102,-397.9263 543.102,-397.9263"/>
<ellipse fill="none" stroke="#000000" cx="539.9429" cy="-397.4168" rx="3.2" ry="3.2"/>
</g>
<!-- sccs_exposures_outcome_set&#45;&gt;sccs_covariate -->
<g id="edge8" class="edge">
<title>sccs_exposures_outcome_set:w&#45;&gt;sccs_covariate:e</title>
<path fill="none" stroke="#000000" d="M251.6653,-214.1942C171.7721,-230.2816 306.0426,-436.2 208,-436.2"/>
<polygon fill="#000000" stroke="#000000" points="261.3378,-209.2898 262.0689,-217.2564 260.4756,-217.4026 259.7445,-209.4361 261.3378,-209.2898"/>
<polyline fill="none" stroke="#000000" points="262.5,-213.2 258.5167,-213.5655 "/>
<ellipse fill="none" stroke="#000000" cx="255.3301" cy="-213.858" rx="3.2" ry="3.2"/>
</g>
<!-- sccs_exposure -->
<g id="node6" class="node">
<title>sccs_exposure</title>
<g id="a_node6"><a xlink:href="../../tables/sccs_exposure.html" xlink:title="sccs_exposure" target="_top">
<polygon fill="#ffffff" stroke="transparent" points="8,-116.7 8,-199.7 208,-199.7 208,-116.7 8,-116.7"/>
<polygon fill="#f5f5f5" stroke="transparent" points="8,-176.2 8,-199.2 208,-199.2 208,-176.2 8,-176.2"/>
<polygon fill="none" stroke="#000000" points="8,-176.2 8,-199.2 208,-199.2 208,-176.2 8,-176.2"/>
<text text-anchor="start" x="13" y="-184.8" font-family="Helvetica,sans-Serif" font-weight="bold" font-size="11.00" fill="#000000">sccs_exposure</text>
<text text-anchor="start" x="173.0437" y="-184.3" font-family="Helvetica,sans-Serif" font-size="11.00" fill="#000000">[table]</text>
<polygon fill="none" stroke="#000000" points="8,-154.2 8,-176.2 208,-176.2 208,-154.2 8,-154.2"/>
<image xlink:href="../../images/primaryKeys.png" width="11px" height="12px" preserveAspectRatio="xMinYMin meet" x="13" y="-171.2"/>
<text text-anchor="start" x="28" y="-161.3" font-family="Helvetica,sans-Serif" font-size="11.00" fill="#000000">exposures_outcome_set_id</text>
<polygon fill="none" stroke="#000000" points="8,-135.2 8,-154.2 208,-154.2 208,-135.2 8,-135.2"/>
<text text-anchor="start" x="11" y="-141.3" font-family="Helvetica,sans-Serif" font-size="11.00" fill="#000000">...</text>
<polygon fill="#ffffff" stroke="transparent" points="8,-116.2 8,-135.2 84,-135.2 84,-116.2 8,-116.2"/>
<polygon fill="none" stroke="#000000" points="8,-116.2 8,-135.2 84,-135.2 84,-116.2 8,-116.2"/>
<text text-anchor="start" x="11" y="-122.3" font-family="Helvetica,sans-Serif" font-size="11.00" fill="#000000"> &#160;</text>
<polygon fill="#ffffff" stroke="transparent" points="84,-116.2 84,-135.2 154,-135.2 154,-116.2 84,-116.2"/>
<polygon fill="none" stroke="#000000" points="84,-116.2 84,-135.2 154,-135.2 154,-116.2 84,-116.2"/>
<text text-anchor="start" x="118.6105" y="-122.3" font-family="Helvetica,sans-Serif" font-size="11.00" fill="#000000">0 rows</text>
<polygon fill="#ffffff" stroke="transparent" points="154,-116.2 154,-135.2 208,-135.2 208,-116.2 154,-116.2"/>
<polygon fill="none" stroke="#000000" points="154,-116.2 154,-135.2 208,-135.2 208,-116.2 154,-116.2"/>
<text text-anchor="start" x="189.4053" y="-122.3" font-family="Helvetica,sans-Serif" font-size="11.00" fill="#000000">2 &gt;</text>
</a>
</g>
</g>
<!-- sccs_exposures_outcome_set&#45;&gt;sccs_exposure -->
<g id="edge9" class="edge">
<title>sccs_exposures_outcome_set:w&#45;&gt;sccs_exposure:e</title>
<path fill="none" stroke="#000000" d="M252.2149,-211.1375C232.0749,-201.95 236.2427,-165.2 208,-165.2"/>
<polygon fill="#000000" stroke="#000000" points="262.5021,-209.1208 260.9291,-216.9646 259.3603,-216.65 260.9334,-208.8062 262.5021,-209.1208"/>
<polyline fill="none" stroke="#000000" points="262.5,-213.2 258.5781,-212.4135 "/>
<ellipse fill="none" stroke="#000000" cx="255.4405" cy="-211.7843" rx="3.2" ry="3.2"/>
</g>
<!-- sccs_result -->
<g id="node7" class="node">
<title>sccs_result</title>
<g id="a_node7"><a xlink:href="../../tables/sccs_result.html" xlink:title="sccs_result" target="_top">
<polygon fill="#ffffff" stroke="transparent" points="834,-38.2 834,-678.2 1122,-678.2 1122,-38.2 834,-38.2"/>
<polygon fill="#f5f5f5" stroke="transparent" points="836,-653.2 836,-676.2 1120,-676.2 1120,-653.2 836,-653.2"/>
<polygon fill="none" stroke="#000000" points="836,-653.2 836,-676.2 1120,-676.2 1120,-653.2 836,-653.2"/>
<text text-anchor="start" x="841" y="-661.8" font-family="Helvetica,sans-Serif" font-weight="bold" font-size="11.00" fill="#000000">sccs_result</text>
<text text-anchor="start" x="1085.0437" y="-661.3" font-family="Helvetica,sans-Serif" font-size="11.00" fill="#000000">[table]</text>
<polygon fill="none" stroke="#000000" points="836,-631.2 836,-653.2 1058,-653.2 1058,-631.2 836,-631.2"/>
<image xlink:href="../../images/foreignKeys.png" width="11px" height="12px" preserveAspectRatio="xMinYMin meet" x="841" y="-648.2"/>
<text text-anchor="start" x="856" y="-638.3" font-family="Helvetica,sans-Serif" font-size="11.00" fill="#000000">analysis_id</text>
<polygon fill="none" stroke="#000000" points="1058,-631.2 1058,-653.2 1120,-653.2 1120,-631.2 1058,-631.2"/>
<text text-anchor="start" x="1060.878" y="-638.9" font-family="Helvetica,sans-Serif" font-size="11.00" fill="#000000">unknown[0]</text>
<polygon fill="none" stroke="#000000" points="836,-609.2 836,-631.2 1058,-631.2 1058,-609.2 836,-609.2"/>
<text text-anchor="start" x="856" y="-616.3" font-family="Helvetica,sans-Serif" font-size="11.00" fill="#000000">calibrated_ci_95_lb</text>
<polygon fill="none" stroke="#000000" points="1058,-609.2 1058,-631.2 1120,-631.2 1120,-609.2 1058,-609.2"/>
<text text-anchor="start" x="1060.878" y="-616.9" font-family="Helvetica,sans-Serif" font-size="11.00" fill="#000000">unknown[0]</text>
<polygon fill="none" stroke="#000000" points="836,-587.2 836,-609.2 1058,-609.2 1058,-587.2 836,-587.2"/>
<text text-anchor="start" x="856" y="-594.3" font-family="Helvetica,sans-Serif" font-size="11.00" fill="#000000">calibrated_ci_95_ub</text>
<polygon fill="none" stroke="#000000" points="1058,-587.2 1058,-609.2 1120,-609.2 1120,-587.2 1058,-587.2"/>
<text text-anchor="start" x="1060.878" y="-594.9" font-family="Helvetica,sans-Serif" font-size="11.00" fill="#000000">unknown[0]</text>
<polygon fill="none" stroke="#000000" points="836,-565.2 836,-587.2 1058,-587.2 1058,-565.2 836,-565.2"/>
<text text-anchor="start" x="856" y="-572.3" font-family="Helvetica,sans-Serif" font-size="11.00" fill="#000000">calibrated_log_rr</text>
<polygon fill="none" stroke="#000000" points="1058,-565.2 1058,-587.2 1120,-587.2 1120,-565.2 1058,-565.2"/>
<text text-anchor="start" x="1060.878" y="-572.9" font-family="Helvetica,sans-Serif" font-size="11.00" fill="#000000">unknown[0]</text>
<polygon fill="none" stroke="#000000" points="836,-543.2 836,-565.2 1058,-565.2 1058,-543.2 836,-543.2"/>
<text text-anchor="start" x="856" y="-550.3" font-family="Helvetica,sans-Serif" font-size="11.00" fill="#000000">calibrated_one_sided_p</text>
<polygon fill="none" stroke="#000000" points="1058,-543.2 1058,-565.2 1120,-565.2 1120,-543.2 1058,-543.2"/>
<text text-anchor="start" x="1060.878" y="-550.9" font-family="Helvetica,sans-Serif" font-size="11.00" fill="#000000">unknown[0]</text>
<polygon fill="none" stroke="#000000" points="836,-521.2 836,-543.2 1058,-543.2 1058,-521.2 836,-521.2"/>
<text text-anchor="start" x="856" y="-528.3" font-family="Helvetica,sans-Serif" font-size="11.00" fill="#000000">calibrated_p</text>
<polygon fill="none" stroke="#000000" points="1058,-521.2 1058,-543.2 1120,-543.2 1120,-521.2 1058,-521.2"/>
<text text-anchor="start" x="1060.878" y="-528.9" font-family="Helvetica,sans-Serif" font-size="11.00" fill="#000000">unknown[0]</text>
<polygon fill="none" stroke="#000000" points="836,-499.2 836,-521.2 1058,-521.2 1058,-499.2 836,-499.2"/>
<text text-anchor="start" x="856" y="-506.3" font-family="Helvetica,sans-Serif" font-size="11.00" fill="#000000">calibrated_rr</text>
<polygon fill="none" stroke="#000000" points="1058,-499.2 1058,-521.2 1120,-521.2 1120,-499.2 1058,-499.2"/>
<text text-anchor="start" x="1060.878" y="-506.9" font-family="Helvetica,sans-Serif" font-size="11.00" fill="#000000">unknown[0]</text>
<polygon fill="none" stroke="#000000" points="836,-477.2 836,-499.2 1058,-499.2 1058,-477.2 836,-477.2"/>
<text text-anchor="start" x="856" y="-484.3" font-family="Helvetica,sans-Serif" font-size="11.00" fill="#000000">calibrated_se_log_rr</text>
<polygon fill="none" stroke="#000000" points="1058,-477.2 1058,-499.2 1120,-499.2 1120,-477.2 1058,-477.2"/>
<text text-anchor="start" x="1060.878" y="-484.9" font-family="Helvetica,sans-Serif" font-size="11.00" fill="#000000">unknown[0]</text>
<polygon fill="none" stroke="#000000" points="836,-455.2 836,-477.2 1058,-477.2 1058,-455.2 836,-455.2"/>
<text text-anchor="start" x="856" y="-462.3" font-family="Helvetica,sans-Serif" font-size="11.00" fill="#000000">ci_95_lb</text>
<polygon fill="none" stroke="#000000" points="1058,-455.2 1058,-477.2 1120,-477.2 1120,-455.2 1058,-455.2"/>
<text text-anchor="start" x="1060.878" y="-462.9" font-family="Helvetica,sans-Serif" font-size="11.00" fill="#000000">unknown[0]</text>
<polygon fill="none" stroke="#000000" points="836,-433.2 836,-455.2 1058,-455.2 1058,-433.2 836,-433.2"/>
<text text-anchor="start" x="856" y="-440.3" font-family="Helvetica,sans-Serif" font-size="11.00" fill="#000000">ci_95_ub</text>
<polygon fill="none" stroke="#000000" points="1058,-433.2 1058,-455.2 1120,-455.2 1120,-433.2 1058,-433.2"/>
<text text-anchor="start" x="1060.878" y="-440.9" font-family="Helvetica,sans-Serif" font-size="11.00" fill="#000000">unknown[0]</text>
<polygon fill="none" stroke="#000000" points="836,-411.2 836,-433.2 1058,-433.2 1058,-411.2 836,-411.2"/>
<text text-anchor="start" x="856" y="-418.3" font-family="Helvetica,sans-Serif" font-size="11.00" fill="#000000">covariate_days</text>
<polygon fill="none" stroke="#000000" points="1058,-411.2 1058,-433.2 1120,-433.2 1120,-411.2 1058,-411.2"/>
<text text-anchor="start" x="1060.878" y="-418.9" font-family="Helvetica,sans-Serif" font-size="11.00" fill="#000000">unknown[0]</text>
<polygon fill="none" stroke="#000000" points="836,-389.2 836,-411.2 1058,-411.2 1058,-389.2 836,-389.2"/>
<text text-anchor="start" x="856" y="-396.3" font-family="Helvetica,sans-Serif" font-size="11.00" fill="#000000">covariate_eras</text>
<polygon fill="none" stroke="#000000" points="1058,-389.2 1058,-411.2 1120,-411.2 1120,-389.2 1058,-389.2"/>
<text text-anchor="start" x="1060.878" y="-396.9" font-family="Helvetica,sans-Serif" font-size="11.00" fill="#000000">unknown[0]</text>
<polygon fill="none" stroke="#000000" points="836,-367.2 836,-389.2 1058,-389.2 1058,-367.2 836,-367.2"/>
<image xlink:href="../../images/foreignKeys.png" width="11px" height="12px" preserveAspectRatio="xMinYMin meet" x="841" y="-384.2"/>
<text text-anchor="start" x="856" y="-374.3" font-family="Helvetica,sans-Serif" font-size="11.00" fill="#000000">covariate_id</text>
<polygon fill="none" stroke="#000000" points="1058,-367.2 1058,-389.2 1120,-389.2 1120,-367.2 1058,-367.2"/>
<text text-anchor="start" x="1060.878" y="-374.9" font-family="Helvetica,sans-Serif" font-size="11.00" fill="#000000">unknown[0]</text>
<polygon fill="none" stroke="#000000" points="836,-345.2 836,-367.2 1058,-367.2 1058,-345.2 836,-345.2"/>
<text text-anchor="start" x="856" y="-352.3" font-family="Helvetica,sans-Serif" font-size="11.00" fill="#000000">covariate_outcomes</text>
<polygon fill="none" stroke="#000000" points="1058,-345.2 1058,-367.2 1120,-367.2 1120,-345.2 1058,-345.2"/>
<text text-anchor="start" x="1060.878" y="-352.9" font-family="Helvetica,sans-Serif" font-size="11.00" fill="#000000">unknown[0]</text>
<polygon fill="none" stroke="#000000" points="836,-323.2 836,-345.2 1058,-345.2 1058,-323.2 836,-323.2"/>
<text text-anchor="start" x="856" y="-330.3" font-family="Helvetica,sans-Serif" font-size="11.00" fill="#000000">covariate_subjects</text>
<polygon fill="none" stroke="#000000" points="1058,-323.2 1058,-345.2 1120,-345.2 1120,-323.2 1058,-323.2"/>
<text text-anchor="start" x="1060.878" y="-330.9" font-family="Helvetica,sans-Serif" font-size="11.00" fill="#000000">unknown[0]</text>
<polygon fill="none" stroke="#000000" points="836,-301.2 836,-323.2 1058,-323.2 1058,-301.2 836,-301.2"/>
<image xlink:href="../../images/foreignKeys.png" width="11px" height="12px" preserveAspectRatio="xMinYMin meet" x="841" y="-318.2"/>
<text text-anchor="start" x="856" y="-308.3" font-family="Helvetica,sans-Serif" font-size="11.00" fill="#000000">database_id</text>
<polygon fill="none" stroke="#000000" points="1058,-301.2 1058,-323.2 1120,-323.2 1120,-301.2 1058,-301.2"/>
<text text-anchor="start" x="1060.878" y="-308.9" font-family="Helvetica,sans-Serif" font-size="11.00" fill="#000000">unknown[0]</text>
<polygon fill="none" stroke="#000000" points="836,-279.2 836,-301.2 1058,-301.2 1058,-279.2 836,-279.2"/>
<image xlink:href="../../images/foreignKeys.png" width="11px" height="12px" preserveAspectRatio="xMinYMin meet" x="841" y="-296.2"/>
<text text-anchor="start" x="856" y="-286.3" font-family="Helvetica,sans-Serif" font-size="11.00" fill="#000000">exposures_outcome_set_id</text>
<polygon fill="none" stroke="#000000" points="1058,-279.2 1058,-301.2 1120,-301.2 1120,-279.2 1058,-279.2"/>
<text text-anchor="start" x="1060.878" y="-286.9" font-family="Helvetica,sans-Serif" font-size="11.00" fill="#000000">unknown[0]</text>
<polygon fill="none" stroke="#000000" points="836,-257.2 836,-279.2 1058,-279.2 1058,-257.2 836,-257.2"/>
<text text-anchor="start" x="856" y="-264.3" font-family="Helvetica,sans-Serif" font-size="11.00" fill="#000000">llr</text>
<polygon fill="none" stroke="#000000" points="1058,-257.2 1058,-279.2 1120,-279.2 1120,-257.2 1058,-257.2"/>
<text text-anchor="start" x="1060.878" y="-264.9" font-family="Helvetica,sans-Serif" font-size="11.00" fill="#000000">unknown[0]</text>
<polygon fill="none" stroke="#000000" points="836,-235.2 836,-257.2 1058,-257.2 1058,-235.2 836,-235.2"/>
<text text-anchor="start" x="856" y="-242.3" font-family="Helvetica,sans-Serif" font-size="11.00" fill="#000000">log_rr</text>
<polygon fill="none" stroke="#000000" points="1058,-235.2 1058,-257.2 1120,-257.2 1120,-235.2 1058,-235.2"/>
<text text-anchor="start" x="1060.878" y="-242.9" font-family="Helvetica,sans-Serif" font-size="11.00" fill="#000000">unknown[0]</text>
<polygon fill="none" stroke="#000000" points="836,-213.2 836,-235.2 1058,-235.2 1058,-213.2 836,-213.2"/>
<text text-anchor="start" x="856" y="-220.3" font-family="Helvetica,sans-Serif" font-size="11.00" fill="#000000">observed_days</text>
<polygon fill="none" stroke="#000000" points="1058,-213.2 1058,-235.2 1120,-235.2 1120,-213.2 1058,-213.2"/>
<text text-anchor="start" x="1060.878" y="-220.9" font-family="Helvetica,sans-Serif" font-size="11.00" fill="#000000">unknown[0]</text>
<polygon fill="none" stroke="#000000" points="836,-191.2 836,-213.2 1058,-213.2 1058,-191.2 836,-191.2"/>
<text text-anchor="start" x="856" y="-198.3" font-family="Helvetica,sans-Serif" font-size="11.00" fill="#000000">one_sided_p</text>
<polygon fill="none" stroke="#000000" points="1058,-191.2 1058,-213.2 1120,-213.2 1120,-191.2 1058,-191.2"/>
<text text-anchor="start" x="1060.878" y="-198.9" font-family="Helvetica,sans-Serif" font-size="11.00" fill="#000000">unknown[0]</text>
<polygon fill="none" stroke="#000000" points="836,-169.2 836,-191.2 1058,-191.2 1058,-169.2 836,-169.2"/>
<text text-anchor="start" x="856" y="-176.3" font-family="Helvetica,sans-Serif" font-size="11.00" fill="#000000">outcome_events</text>
<polygon fill="none" stroke="#000000" points="1058,-169.2 1058,-191.2 1120,-191.2 1120,-169.2 1058,-169.2"/>
<text text-anchor="start" x="1060.878" y="-176.9" font-family="Helvetica,sans-Serif" font-size="11.00" fill="#000000">unknown[0]</text>
<polygon fill="none" stroke="#000000" points="836,-147.2 836,-169.2 1058,-169.2 1058,-147.2 836,-147.2"/>
<text text-anchor="start" x="856" y="-154.3" font-family="Helvetica,sans-Serif" font-size="11.00" fill="#000000">outcome_observation_periods</text>
<polygon fill="none" stroke="#000000" points="1058,-147.2 1058,-169.2 1120,-169.2 1120,-147.2 1058,-147.2"/>
<text text-anchor="start" x="1060.878" y="-154.9" font-family="Helvetica,sans-Serif" font-size="11.00" fill="#000000">unknown[0]</text>
<polygon fill="none" stroke="#000000" points="836,-125.2 836,-147.2 1058,-147.2 1058,-125.2 836,-125.2"/>
<text text-anchor="start" x="856" y="-132.3" font-family="Helvetica,sans-Serif" font-size="11.00" fill="#000000">outcome_subjects</text>
<polygon fill="none" stroke="#000000" points="1058,-125.2 1058,-147.2 1120,-147.2 1120,-125.2 1058,-125.2"/>
<text text-anchor="start" x="1060.878" y="-132.9" font-family="Helvetica,sans-Serif" font-size="11.00" fill="#000000">unknown[0]</text>
<polygon fill="none" stroke="#000000" points="836,-103.2 836,-125.2 1058,-125.2 1058,-103.2 836,-103.2"/>
<text text-anchor="start" x="856" y="-110.3" font-family="Helvetica,sans-Serif" font-size="11.00" fill="#000000">p</text>
<polygon fill="none" stroke="#000000" points="1058,-103.2 1058,-125.2 1120,-125.2 1120,-103.2 1058,-103.2"/>
<text text-anchor="start" x="1060.878" y="-110.9" font-family="Helvetica,sans-Serif" font-size="11.00" fill="#000000">unknown[0]</text>
<polygon fill="none" stroke="#000000" points="836,-81.2 836,-103.2 1058,-103.2 1058,-81.2 836,-81.2"/>
<text text-anchor="start" x="856" y="-88.3" font-family="Helvetica,sans-Serif" font-size="11.00" fill="#000000">rr</text>
<polygon fill="none" stroke="#000000" points="1058,-81.2 1058,-103.2 1120,-103.2 1120,-81.2 1058,-81.2"/>
<text text-anchor="start" x="1060.878" y="-88.9" font-family="Helvetica,sans-Serif" font-size="11.00" fill="#000000">unknown[0]</text>
<polygon fill="none" stroke="#000000" points="836,-59.2 836,-81.2 1058,-81.2 1058,-59.2 836,-59.2"/>
<text text-anchor="start" x="856" y="-66.3" font-family="Helvetica,sans-Serif" font-size="11.00" fill="#000000">se_log_rr</text>
<polygon fill="none" stroke="#000000" points="1058,-59.2 1058,-81.2 1120,-81.2 1120,-59.2 1058,-59.2"/>
<text text-anchor="start" x="1060.878" y="-66.9" font-family="Helvetica,sans-Serif" font-size="11.00" fill="#000000">unknown[0]</text>
<polygon fill="#ffffff" stroke="transparent" points="836,-40.2 836,-59.2 941,-59.2 941,-40.2 836,-40.2"/>
<polygon fill="none" stroke="#000000" points="836,-40.2 836,-59.2 941,-59.2 941,-40.2 836,-40.2"/>
<text text-anchor="start" x="839" y="-46.3" font-family="Helvetica,sans-Serif" font-size="11.00" fill="#000000">&lt; 12</text>
<polygon fill="#ffffff" stroke="transparent" points="941,-40.2 941,-59.2 1058,-59.2 1058,-40.2 941,-40.2"/>
<polygon fill="none" stroke="#000000" points="941,-40.2 941,-59.2 1058,-59.2 1058,-40.2 941,-40.2"/>
<text text-anchor="start" x="1022.6105" y="-46.3" font-family="Helvetica,sans-Serif" font-size="11.00" fill="#000000">0 rows</text>
<polygon fill="#ffffff" stroke="transparent" points="1058,-40.2 1058,-59.2 1120,-59.2 1120,-40.2 1058,-40.2"/>
<polygon fill="none" stroke="#000000" points="1058,-40.2 1058,-59.2 1120,-59.2 1120,-40.2 1058,-40.2"/>
<text text-anchor="start" x="1101.4053" y="-46.3" font-family="Helvetica,sans-Serif" font-size="11.00" fill="#000000">0 &gt;</text>
<polygon fill="none" stroke="#000000" stroke-width="2" points="835,-39.2 835,-677.2 1121,-677.2 1121,-39.2 835,-39.2"/>
</a>
</g>
</g>
<!-- sccs_result&#45;&gt;sccs_diagnostics_summary -->
<g id="edge12" class="edge">
<title>sccs_result:w&#45;&gt;sccs_diagnostics_summary:e</title>
<path fill="none" stroke="#000000" d="M821.4821,-639.6979C769.0241,-618.1844 861.1108,-465.2 785,-465.2"/>
<polygon fill="#000000" stroke="#000000" points="828.1162,-640.8412 835.3885,-645.7477 832.0581,-641.5206 836,-642.2 836,-642.2 836,-642.2 832.0581,-641.5206 836.6115,-638.6523 828.1162,-640.8412 828.1162,-640.8412"/>
<ellipse fill="none" stroke="#000000" cx="824.9627" cy="-640.2977" rx="3.2" ry="3.2"/>
</g>
<!-- sccs_result&#45;&gt;sccs_diagnostics_summary -->
<g id="edge14" class="edge">
<title>sccs_result:w&#45;&gt;sccs_diagnostics_summary:e</title>
<path fill="none" stroke="#000000" d="M822.1816,-382.8746C805.0508,-397.7786 815.6955,-443.2 785,-443.2"/>
<polygon fill="#000000" stroke="#000000" points="828.4219,-380.7636 837.1536,-381.6102 832.2109,-379.4818 836,-378.2 836,-378.2 836,-378.2 832.2109,-379.4818 834.8464,-374.7898 828.4219,-380.7636 828.4219,-380.7636"/>
<ellipse fill="none" stroke="#000000" cx="825.3906" cy="-381.7891" rx="3.2" ry="3.2"/>
</g>
<!-- sccs_result&#45;&gt;sccs_diagnostics_summary -->
<g id="edge17" class="edge">
<title>sccs_result:w&#45;&gt;sccs_diagnostics_summary:e</title>
<path fill="none" stroke="#000000" d="M821.719,-316.0794C793.7911,-335.4966 832.4261,-421.2 785,-421.2"/>
<polygon fill="#000000" stroke="#000000" points="828.2798,-314.2972 836.9437,-315.6741 832.1399,-313.2486 836,-312.2 836,-312.2 836,-312.2 832.1399,-313.2486 835.0563,-308.7259 828.2798,-314.2972 828.2798,-314.2972"/>
<ellipse fill="none" stroke="#000000" cx="825.1917" cy="-315.1361" rx="3.2" ry="3.2"/>
</g>
<!-- sccs_result&#45;&gt;sccs_diagnostics_summary -->
<g id="edge19" class="edge">
<title>sccs_result:w&#45;&gt;sccs_diagnostics_summary:e</title>
<path fill="none" stroke="#000000" d="M821.719,-294.0794C793.7911,-313.4966 832.4261,-399.2 785,-399.2"/>
<polygon fill="#000000" stroke="#000000" points="828.2798,-292.2972 836.9437,-293.6741 832.1399,-291.2486 836,-290.2 836,-290.2 836,-290.2 832.1399,-291.2486 835.0563,-286.7259 828.2798,-292.2972 828.2798,-292.2972"/>
<ellipse fill="none" stroke="#000000" cx="825.1917" cy="-293.1361" rx="3.2" ry="3.2"/>
</g>
<!-- sccs_result&#45;&gt;sccs_analysis -->
<g id="edge10" class="edge">
<title>sccs_result:w&#45;&gt;sccs_analysis:e</title>
<path fill="none" stroke="#000000" d="M821.5818,-641.0303C812.5199,-639.393 806.3401,-636.375 793,-634.2 638.1915,-608.96 600.3525,-585.2 443.5,-585.2"/>
<polygon fill="#000000" stroke="#000000" points="828.0262,-641.553 835.7089,-645.7882 832.0131,-641.8765 836,-642.2 836,-642.2 836,-642.2 832.0131,-641.8765 836.2911,-638.6118 828.0262,-641.553 828.0262,-641.553"/>
<ellipse fill="none" stroke="#000000" cx="824.8367" cy="-641.2943" rx="3.2" ry="3.2"/>
</g>
<!-- sccs_result&#45;&gt;sccs_covariate -->
<g id="edge11" class="edge">
<title>sccs_result:w&#45;&gt;sccs_covariate:e</title>
<path fill="none" stroke="#000000" d="M821.4955,-644.342C812.5255,-647.2581 806.6684,-652.3285 793,-654.2 553.4571,-686.998 440.9378,-801.225 249,-654.2 193.4536,-611.6512 277.97,-502.2 208,-502.2"/>
<polygon fill="#000000" stroke="#000000" points="828.0858,-643.3688 836.526,-645.7614 832.0429,-642.7844 836,-642.2 836,-642.2 836,-642.2 832.0429,-642.7844 835.474,-638.6386 828.0858,-643.3688 828.0858,-643.3688"/>
<ellipse fill="none" stroke="#000000" cx="824.9202" cy="-643.8363" rx="3.2" ry="3.2"/>
</g>
<!-- sccs_result&#45;&gt;sccs_covariate -->
<g id="edge13" class="edge">
<title>sccs_result:w&#45;&gt;sccs_covariate:e</title>
<path fill="none" stroke="#000000" d="M821.2326,-379.489C740.915,-395.3311 871.6986,-553.0452 793,-621.2 747.302,-660.7755 297.0525,-666.8809 249,-630.2 194.0643,-588.2648 277.1122,-480.2 208,-480.2"/>
<polygon fill="#000000" stroke="#000000" points="828.0303,-378.8957 836.3131,-381.7864 832.0152,-378.5478 836,-378.2 836,-378.2 836,-378.2 832.0152,-378.5478 835.6869,-374.6136 828.0303,-378.8957 828.0303,-378.8957"/>
<ellipse fill="none" stroke="#000000" cx="824.8424" cy="-379.174" rx="3.2" ry="3.2"/>
</g>
<!-- sccs_result&#45;&gt;sccs_covariate -->
<g id="edge16" class="edge">
<title>sccs_result:w&#45;&gt;sccs_covariate:e</title>
<path fill="none" stroke="#000000" d="M821.4017,-311.8257C812.4999,-311.3363 806.1495,-310.5056 793,-310.2 732.5702,-308.7954 296.9915,-277.4502 249,-314.2 196.1674,-354.6569 274.5436,-458.2 208,-458.2"/>
<polygon fill="#000000" stroke="#000000" points="828.0026,-311.9949 835.9077,-315.7988 832.0013,-312.0974 836,-312.2 836,-312.2 836,-312.2 832.0013,-312.0974 836.0923,-308.6012 828.0026,-311.9949 828.0026,-311.9949"/>
<ellipse fill="none" stroke="#000000" cx="824.8037" cy="-311.9128" rx="3.2" ry="3.2"/>
</g>
<!-- sccs_result&#45;&gt;sccs_covariate -->
<g id="edge18" class="edge">
<title>sccs_result:w&#45;&gt;sccs_covariate:e</title>
<path fill="none" stroke="#000000" d="M821.4895,-289.8811C719.7708,-286.384 298.0945,-256.0064 249,-293.2 196.2997,-333.1253 274.1162,-436.2 208,-436.2"/>
<polygon fill="#000000" stroke="#000000" points="828.0019,-290.0242 835.9209,-293.7991 832.001,-290.1121 836,-290.2 836,-290.2 836,-290.2 832.001,-290.1121 836.0791,-286.6009 828.0019,-290.0242 828.0019,-290.0242"/>
<ellipse fill="none" stroke="#000000" cx="824.8027" cy="-289.9539" rx="3.2" ry="3.2"/>
</g>
<!-- sccs_result&#45;&gt;database_meta_data -->
<g id="edge15" class="edge">
<title>sccs_result:w&#45;&gt;database_meta_data:e</title>
<path fill="none" stroke="#000000" d="M821.1732,-312.1411C747.7184,-311.6694 595.507,-309.2763 543,-340.2 515.5941,-356.3406 534.3057,-399.2 502.5,-399.2"/>
<polygon fill="#000000" stroke="#000000" points="828.0001,-312.1682 835.9857,-315.8 832,-312.1841 836,-312.2 836,-312.2 836,-312.2 832,-312.1841 836.0143,-308.6 828.0001,-312.1682 828.0001,-312.1682"/>
<ellipse fill="none" stroke="#000000" cx="824.8001" cy="-312.1555" rx="3.2" ry="3.2"/>
</g>
<!-- sccs_result&#45;&gt;sccs_exposures_outcome_set -->
<g id="edge21" class="edge">
<title>sccs_result:w&#45;&gt;sccs_exposures_outcome_set:e</title>
<path fill="none" stroke="#000000" d="M822.0135,-286.6063C812.1846,-280.522 808.6116,-268.2639 793,-262.2 668.4971,-213.8402 630.0652,-213.2 496.5,-213.2"/>
<polygon fill="#000000" stroke="#000000" points="828.2517,-288.2091 835.1041,-293.6867 832.1258,-289.2046 836,-290.2 836,-290.2 836,-290.2 832.1258,-289.2046 836.8959,-286.7133 828.2517,-288.2091 828.2517,-288.2091"/>
<ellipse fill="none" stroke="#000000" cx="825.1523" cy="-287.4128" rx="3.2" ry="3.2"/>
</g>
<!-- sccs_result&#45;&gt;sccs_exposure -->
<g id="edge20" class="edge">
<title>sccs_result:w&#45;&gt;sccs_exposure:e</title>
<path fill="none" stroke="#000000" d="M821.7714,-286.5551C803.4001,-274.0054 819.3898,-232.2055 793,-211.2 690.8286,-129.8745 639.3788,-149.9194 510,-132.2 395.0729,-116.4598 358.4038,-93.6408 249,-132.2 226.9387,-139.9755 231.3915,-165.2 208,-165.2"/>
<polygon fill="#000000" stroke="#000000" points="828.2502,-288.2147 835.1066,-293.6874 832.1251,-289.2074 836,-290.2 836,-290.2 836,-290.2 832.1251,-289.2074 836.8934,-286.7126 828.2502,-288.2147 828.2502,-288.2147"/>
<ellipse fill="none" stroke="#000000" cx="825.1503" cy="-287.4206" rx="3.2" ry="3.2"/>
</g>
</g>
</svg>
