<?xml version="1.0" encoding="UTF-8" standalone="no"?>
<!DOCTYPE svg PUBLIC "-//W3C//DTD SVG 1.1//EN"
 "http://www.w3.org/Graphics/SVG/1.1/DTD/svg11.dtd">
<!-- Generated by graphviz version 2.40.1 (20161225.0304)
 -->
<!-- Title: twoDegreesRelationshipsDiagram Pages: 1 -->
<svg width="970pt" height="1049pt"
 viewBox="0.00 0.00 970.00 1048.67" xmlns="http://www.w3.org/2000/svg" xmlns:xlink="http://www.w3.org/1999/xlink">
<g id="graph0" class="graph" transform="scale(1 1) rotate(0) translate(4 1044.6734)">
<title>twoDegreesRelationshipsDiagram</title>
<polygon fill="#ffffff" stroke="transparent" points="-4,4 -4,-1044.6734 966,-1044.6734 966,4 -4,4"/>
<text text-anchor="middle" x="72.4936" y="-7.3" font-family="Helvetica,sans-Serif" font-size="11.00" fill="#000000">Generated by SchemaSpy</text>
<!-- sccs_age_spanning -->
<g id="node1" class="node">
<title>sccs_age_spanning</title>
<g id="a_node1"><a xlink:href="../../tables/sccs_age_spanning.html" xlink:title="sccs_age_spanning" target="_top">
<polygon fill="#ffffff" stroke="transparent" points="570.5,-475.1025 570.5,-536.1025 736.5,-536.1025 736.5,-475.1025 570.5,-475.1025"/>
<polygon fill="#f5f5f5" stroke="transparent" points="570.5,-512.6025 570.5,-535.6025 736.5,-535.6025 736.5,-512.6025 570.5,-512.6025"/>
<polygon fill="none" stroke="#000000" points="570.5,-512.6025 570.5,-535.6025 736.5,-535.6025 736.5,-512.6025 570.5,-512.6025"/>
<text text-anchor="start" x="575.5" y="-521.2025" font-family="Helvetica,sans-Serif" font-weight="bold" font-size="11.00" fill="#000000">sccs_age_spanning</text>
<text text-anchor="start" x="702.0219" y="-520.7025" font-family="Helvetica,sans-Serif" font-size="11.00" fill="#000000">[table]</text>
<polygon fill="none" stroke="#000000" points="570.5,-493.6025 570.5,-512.6025 736.5,-512.6025 736.5,-493.6025 570.5,-493.6025"/>
<text text-anchor="start" x="573.5" y="-499.7025" font-family="Helvetica,sans-Serif" font-size="11.00" fill="#000000">...</text>
<polygon fill="#ffffff" stroke="transparent" points="570.5,-474.6025 570.5,-493.6025 638.5,-493.6025 638.5,-474.6025 570.5,-474.6025"/>
<polygon fill="none" stroke="#000000" points="570.5,-474.6025 570.5,-493.6025 638.5,-493.6025 638.5,-474.6025 570.5,-474.6025"/>
<text text-anchor="start" x="573.5" y="-480.7025" font-family="Helvetica,sans-Serif" font-size="11.00" fill="#000000">&lt; 1</text>
<polygon fill="#ffffff" stroke="transparent" points="638.5,-474.6025 638.5,-493.6025 700.5,-493.6025 700.5,-474.6025 638.5,-474.6025"/>
<polygon fill="none" stroke="#000000" points="638.5,-474.6025 638.5,-493.6025 700.5,-493.6025 700.5,-474.6025 638.5,-474.6025"/>
<text text-anchor="start" x="665.1105" y="-480.7025" font-family="Helvetica,sans-Serif" font-size="11.00" fill="#000000">0 rows</text>
<polygon fill="#ffffff" stroke="transparent" points="700.5,-474.6025 700.5,-493.6025 736.5,-493.6025 736.5,-474.6025 700.5,-474.6025"/>
<polygon fill="none" stroke="#000000" points="700.5,-474.6025 700.5,-493.6025 736.5,-493.6025 736.5,-474.6025 700.5,-474.6025"/>
<text text-anchor="start" x="727.3862" y="-480.7025" font-family="Helvetica,sans-Serif" font-size="11.00" fill="#000000"> &#160;</text>
</a>
</g>
</g>
<!-- sccs_exposures_outcome_set -->
<g id="node2" class="node">
<title>sccs_exposures_outcome_set</title>
<g id="a_node2"><a xlink:href="../../tables/sccs_exposures_outcome_set.html" xlink:title="sccs_exposures_outcome_set" target="_top">
<polygon fill="#ffffff" stroke="transparent" points="232,-473.1025 232,-578.1025 466,-578.1025 466,-473.1025 232,-473.1025"/>
<polygon fill="#f5f5f5" stroke="transparent" points="232,-554.6025 232,-577.6025 466,-577.6025 466,-554.6025 232,-554.6025"/>
<polygon fill="none" stroke="#000000" points="232,-554.6025 232,-577.6025 466,-577.6025 466,-554.6025 232,-554.6025"/>
<text text-anchor="start" x="237" y="-563.2025" font-family="Helvetica,sans-Serif" font-weight="bold" font-size="11.00" fill="#000000">sccs_exposures_outcome_set</text>
<text text-anchor="start" x="431.5219" y="-562.7025" font-family="Helvetica,sans-Serif" font-size="11.00" fill="#000000">[table]</text>
<polygon fill="none" stroke="#000000" points="232,-532.6025 232,-554.6025 466,-554.6025 466,-532.6025 232,-532.6025"/>
<image xlink:href="../../images/primaryKeys.png" width="11px" height="12px" preserveAspectRatio="xMinYMin meet" x="237" y="-549.603"/>
<text text-anchor="start" x="261" y="-539.7025" font-family="Helvetica,sans-Serif" font-size="11.00" fill="#000000">exposures_outcome_set_id</text>
<polygon fill="none" stroke="#000000" points="232,-510.6025 232,-532.6025 466,-532.6025 466,-510.6025 232,-510.6025"/>
<image xlink:href="../../images/foreignKeys.png" width="11px" height="12px" preserveAspectRatio="xMinYMin meet" x="237" y="-527.603"/>
<text text-anchor="start" x="261" y="-517.7025" font-family="Helvetica,sans-Serif" font-size="11.00" fill="#000000">nesting_cohort_id</text>
<polygon fill="none" stroke="#000000" points="232,-491.6025 232,-510.6025 466,-510.6025 466,-491.6025 232,-491.6025"/>
<text text-anchor="start" x="235" y="-497.7025" font-family="Helvetica,sans-Serif" font-size="11.00" fill="#000000">...</text>
<polygon fill="#ffffff" stroke="transparent" points="232,-472.6025 232,-491.6025 327,-491.6025 327,-472.6025 232,-472.6025"/>
<polygon fill="none" stroke="#000000" points="232,-472.6025 232,-491.6025 327,-491.6025 327,-472.6025 232,-472.6025"/>
<text text-anchor="start" x="235" y="-478.7025" font-family="Helvetica,sans-Serif" font-size="11.00" fill="#000000">&lt; 3</text>
<polygon fill="#ffffff" stroke="transparent" points="327,-472.6025 327,-491.6025 402,-491.6025 402,-472.6025 327,-472.6025"/>
<polygon fill="none" stroke="#000000" points="327,-472.6025 327,-491.6025 402,-491.6025 402,-472.6025 327,-472.6025"/>
<text text-anchor="start" x="366.6105" y="-478.7025" font-family="Helvetica,sans-Serif" font-size="11.00" fill="#000000">0 rows</text>
<polygon fill="#ffffff" stroke="transparent" points="402,-472.6025 402,-491.6025 466,-491.6025 466,-472.6025 402,-472.6025"/>
<polygon fill="none" stroke="#000000" points="402,-472.6025 402,-491.6025 466,-491.6025 466,-472.6025 402,-472.6025"/>
<text text-anchor="start" x="441.2904" y="-478.7025" font-family="Helvetica,sans-Serif" font-size="11.00" fill="#000000">10 &gt;</text>
</a>
</g>
</g>
<!-- sccs_age_spanning&#45;&gt;sccs_exposures_outcome_set -->
<g id="edge1" class="edge">
<title>sccs_age_spanning:w&#45;&gt;sccs_exposures_outcome_set:e</title>
<path fill="none" stroke="#000000" d="M556.1156,-503.8745C519.1112,-510.7949 510.6293,-543.6025 466,-543.6025"/>
<polygon fill="#000000" stroke="#000000" points="562.5311,-503.3073 570.8171,-506.1885 566.5155,-502.9549 570.5,-502.6025 570.5,-502.6025 570.5,-502.6025 566.5155,-502.9549 570.1829,-499.0165 562.5311,-503.3073 562.5311,-503.3073"/>
<ellipse fill="none" stroke="#000000" cx="559.3435" cy="-503.5892" rx="3.2" ry="3.2"/>
</g>
<!-- sccs_covariate -->
<g id="node6" class="node">
<title>sccs_covariate</title>
<g id="a_node6"><a xlink:href="../../tables/sccs_covariate.html" xlink:title="sccs_covariate" target="_top">
<polygon fill="#ffffff" stroke="transparent" points="27.5,-885.1025 27.5,-946.1025 163.5,-946.1025 163.5,-885.1025 27.5,-885.1025"/>
<polygon fill="#f5f5f5" stroke="transparent" points="27.5,-922.6025 27.5,-945.6025 163.5,-945.6025 163.5,-922.6025 27.5,-922.6025"/>
<polygon fill="none" stroke="#000000" points="27.5,-922.6025 27.5,-945.6025 163.5,-945.6025 163.5,-922.6025 27.5,-922.6025"/>
<text text-anchor="start" x="32.5" y="-931.2025" font-family="Helvetica,sans-Serif" font-weight="bold" font-size="11.00" fill="#000000">sccs_covariate</text>
<text text-anchor="start" x="129.0219" y="-930.7025" font-family="Helvetica,sans-Serif" font-size="11.00" fill="#000000">[table]</text>
<polygon fill="none" stroke="#000000" points="27.5,-903.6025 27.5,-922.6025 163.5,-922.6025 163.5,-903.6025 27.5,-903.6025"/>
<text text-anchor="start" x="30.5" y="-909.7025" font-family="Helvetica,sans-Serif" font-size="11.00" fill="#000000">...</text>
<polygon fill="#ffffff" stroke="transparent" points="27.5,-884.6025 27.5,-903.6025 68.5,-903.6025 68.5,-884.6025 27.5,-884.6025"/>
<polygon fill="none" stroke="#000000" points="27.5,-884.6025 27.5,-903.6025 68.5,-903.6025 68.5,-884.6025 27.5,-884.6025"/>
<text text-anchor="start" x="30.5" y="-890.7025" font-family="Helvetica,sans-Serif" font-size="11.00" fill="#000000"> &#160;</text>
<polygon fill="#ffffff" stroke="transparent" points="68.5,-884.6025 68.5,-903.6025 121.5,-903.6025 121.5,-884.6025 68.5,-884.6025"/>
<polygon fill="none" stroke="#000000" points="68.5,-884.6025 68.5,-903.6025 121.5,-903.6025 121.5,-884.6025 68.5,-884.6025"/>
<text text-anchor="start" x="86.1105" y="-890.7025" font-family="Helvetica,sans-Serif" font-size="11.00" fill="#000000">0 rows</text>
<polygon fill="#ffffff" stroke="transparent" points="121.5,-884.6025 121.5,-903.6025 163.5,-903.6025 163.5,-884.6025 121.5,-884.6025"/>
<polygon fill="none" stroke="#000000" points="121.5,-884.6025 121.5,-903.6025 163.5,-903.6025 163.5,-884.6025 121.5,-884.6025"/>
<text text-anchor="start" x="138.7904" y="-890.7025" font-family="Helvetica,sans-Serif" font-size="11.00" fill="#000000">13 &gt;</text>
</a>
</g>
</g>
<!-- sccs_exposures_outcome_set&#45;&gt;sccs_covariate -->
<g id="edge15" class="edge">
<title>sccs_exposures_outcome_set:w&#45;&gt;sccs_covariate:e</title>
<path fill="none" stroke="#000000" d="M221.8275,-545.7695C157.0642,-576.0102 243.1544,-912.6025 163.5,-912.6025"/>
<polygon fill="#000000" stroke="#000000" points="230.3841,-539.857 232.051,-547.6814 230.4861,-548.0148 228.8192,-540.1904 230.3841,-539.857"/>
<polyline fill="none" stroke="#000000" points="232,-543.6025 228.0878,-544.436 "/>
<ellipse fill="none" stroke="#000000" cx="224.958" cy="-545.1027" rx="3.2" ry="3.2"/>
</g>
<!-- sccs_exposure -->
<g id="node9" class="node">
<title>sccs_exposure</title>
<g id="a_node9"><a xlink:href="../../tables/sccs_exposure.html" xlink:title="sccs_exposure" target="_top">
<polygon fill="#ffffff" stroke="transparent" points="28,-222.1025 28,-283.1025 163,-283.1025 163,-222.1025 28,-222.1025"/>
<polygon fill="#f5f5f5" stroke="transparent" points="28.5,-259.6025 28.5,-282.6025 163.5,-282.6025 163.5,-259.6025 28.5,-259.6025"/>
<polygon fill="none" stroke="#000000" points="28.5,-259.6025 28.5,-282.6025 163.5,-282.6025 163.5,-259.6025 28.5,-259.6025"/>
<text text-anchor="start" x="33.5" y="-268.2025" font-family="Helvetica,sans-Serif" font-weight="bold" font-size="11.00" fill="#000000">sccs_exposure</text>
<text text-anchor="start" x="129.0219" y="-267.7025" font-family="Helvetica,sans-Serif" font-size="11.00" fill="#000000">[table]</text>
<polygon fill="none" stroke="#000000" points="28.5,-240.6025 28.5,-259.6025 163.5,-259.6025 163.5,-240.6025 28.5,-240.6025"/>
<text text-anchor="start" x="31.5" y="-246.7025" font-family="Helvetica,sans-Serif" font-size="11.00" fill="#000000">...</text>
<polygon fill="#ffffff" stroke="transparent" points="28.5,-221.6025 28.5,-240.6025 72.5,-240.6025 72.5,-221.6025 28.5,-221.6025"/>
<polygon fill="none" stroke="#000000" points="28.5,-221.6025 28.5,-240.6025 72.5,-240.6025 72.5,-221.6025 28.5,-221.6025"/>
<text text-anchor="start" x="31.5" y="-227.7025" font-family="Helvetica,sans-Serif" font-size="11.00" fill="#000000"> &#160;</text>
<polygon fill="#ffffff" stroke="transparent" points="72.5,-221.6025 72.5,-240.6025 126.5,-240.6025 126.5,-221.6025 72.5,-221.6025"/>
<polygon fill="none" stroke="#000000" points="72.5,-221.6025 72.5,-240.6025 126.5,-240.6025 126.5,-221.6025 72.5,-221.6025"/>
<text text-anchor="start" x="91.1105" y="-227.7025" font-family="Helvetica,sans-Serif" font-size="11.00" fill="#000000">0 rows</text>
<polygon fill="#ffffff" stroke="transparent" points="126.5,-221.6025 126.5,-240.6025 163.5,-240.6025 163.5,-221.6025 126.5,-221.6025"/>
<polygon fill="none" stroke="#000000" points="126.5,-221.6025 126.5,-240.6025 163.5,-240.6025 163.5,-221.6025 126.5,-221.6025"/>
<text text-anchor="start" x="144.9053" y="-227.7025" font-family="Helvetica,sans-Serif" font-size="11.00" fill="#000000">2 &gt;</text>
</a>
</g>
</g>
<!-- sccs_exposures_outcome_set&#45;&gt;sccs_exposure -->
<g id="edge16" class="edge">
<title>sccs_exposures_outcome_set:w&#45;&gt;sccs_exposure:e</title>
<path fill="none" stroke="#000000" d="M221.8305,-540.8798C171.9297,-511.241 226.7836,-249.6025 163.5,-249.6025"/>
<polygon fill="#000000" stroke="#000000" points="232.2618,-539.5317 230.1927,-547.2595 228.6471,-546.8457 230.7162,-539.1179 232.2618,-539.5317"/>
<polyline fill="none" stroke="#000000" points="232,-543.6025 228.1361,-542.568 "/>
<ellipse fill="none" stroke="#000000" cx="225.045" cy="-541.7404" rx="3.2" ry="3.2"/>
</g>
<!-- cg_cohort_definition -->
<g id="node10" class="node">
<title>cg_cohort_definition</title>
<g id="a_node10"><a xlink:href="../../tables/cg_cohort_definition.html" xlink:title="cg_cohort_definition" target="_top">
<polygon fill="#ffffff" stroke="transparent" points="8,-494.1025 8,-555.1025 183,-555.1025 183,-494.1025 8,-494.1025"/>
<polygon fill="#f5f5f5" stroke="transparent" points="8.5,-531.6025 8.5,-554.6025 183.5,-554.6025 183.5,-531.6025 8.5,-531.6025"/>
<polygon fill="none" stroke="#000000" points="8.5,-531.6025 8.5,-554.6025 183.5,-554.6025 183.5,-531.6025 8.5,-531.6025"/>
<text text-anchor="start" x="13.5" y="-540.2025" font-family="Helvetica,sans-Serif" font-weight="bold" font-size="11.00" fill="#000000">cg_cohort_definition</text>
<text text-anchor="start" x="149.0219" y="-539.7025" font-family="Helvetica,sans-Serif" font-size="11.00" fill="#000000">[table]</text>
<polygon fill="none" stroke="#000000" points="8.5,-512.6025 8.5,-531.6025 183.5,-531.6025 183.5,-512.6025 8.5,-512.6025"/>
<text text-anchor="start" x="11.5" y="-518.7025" font-family="Helvetica,sans-Serif" font-size="11.00" fill="#000000">...</text>
<polygon fill="#ffffff" stroke="transparent" points="8.5,-493.6025 8.5,-512.6025 69.5,-512.6025 69.5,-493.6025 8.5,-493.6025"/>
<polygon fill="none" stroke="#000000" points="8.5,-493.6025 8.5,-512.6025 69.5,-512.6025 69.5,-493.6025 8.5,-493.6025"/>
<text text-anchor="start" x="11.5" y="-499.7025" font-family="Helvetica,sans-Serif" font-size="11.00" fill="#000000"> &#160;</text>
<polygon fill="#ffffff" stroke="transparent" points="69.5,-493.6025 69.5,-512.6025 131.5,-512.6025 131.5,-493.6025 69.5,-493.6025"/>
<polygon fill="none" stroke="#000000" points="69.5,-493.6025 69.5,-512.6025 131.5,-512.6025 131.5,-493.6025 69.5,-493.6025"/>
<text text-anchor="start" x="96.1105" y="-499.7025" font-family="Helvetica,sans-Serif" font-size="11.00" fill="#000000">0 rows</text>
<polygon fill="#ffffff" stroke="transparent" points="131.5,-493.6025 131.5,-512.6025 183.5,-512.6025 183.5,-493.6025 131.5,-493.6025"/>
<polygon fill="none" stroke="#000000" points="131.5,-493.6025 131.5,-512.6025 183.5,-512.6025 183.5,-493.6025 131.5,-493.6025"/>
<text text-anchor="start" x="158.7904" y="-499.7025" font-family="Helvetica,sans-Serif" font-size="11.00" fill="#000000">17 &gt;</text>
</a>
</g>
</g>
<!-- sccs_exposures_outcome_set&#45;&gt;cg_cohort_definition -->
<g id="edge17" class="edge">
<title>sccs_exposures_outcome_set:w&#45;&gt;cg_cohort_definition:e</title>
<path fill="none" stroke="#000000" d="M217.2829,-521.6025C206.2886,-521.6025 199.1615,-521.6025 183.5,-521.6025"/>
<polygon fill="#000000" stroke="#000000" points="224,-521.6026 232,-525.2025 228,-521.6026 232,-521.6025 232,-521.6025 232,-521.6025 228,-521.6026 232,-518.0025 224,-521.6026 224,-521.6026"/>
<ellipse fill="none" stroke="#000000" cx="220.8" cy="-521.6026" rx="3.2" ry="3.2"/>
</g>
<!-- sccs_attrition -->
<g id="node3" class="node">
<title>sccs_attrition</title>
<g id="a_node3"><a xlink:href="../../tables/sccs_attrition.html" xlink:title="sccs_attrition" target="_top">
<polygon fill="#ffffff" stroke="transparent" points="589,-393.1025 589,-454.1025 718,-454.1025 718,-393.1025 589,-393.1025"/>
<polygon fill="#f5f5f5" stroke="transparent" points="589.5,-430.6025 589.5,-453.6025 718.5,-453.6025 718.5,-430.6025 589.5,-430.6025"/>
<polygon fill="none" stroke="#000000" points="589.5,-430.6025 589.5,-453.6025 718.5,-453.6025 718.5,-430.6025 589.5,-430.6025"/>
<text text-anchor="start" x="594.5" y="-439.2025" font-family="Helvetica,sans-Serif" font-weight="bold" font-size="11.00" fill="#000000">sccs_attrition</text>
<text text-anchor="start" x="684.0219" y="-438.7025" font-family="Helvetica,sans-Serif" font-size="11.00" fill="#000000">[table]</text>
<polygon fill="none" stroke="#000000" points="589.5,-411.6025 589.5,-430.6025 718.5,-430.6025 718.5,-411.6025 589.5,-411.6025"/>
<text text-anchor="start" x="592.5" y="-417.7025" font-family="Helvetica,sans-Serif" font-size="11.00" fill="#000000">...</text>
<polygon fill="#ffffff" stroke="transparent" points="589.5,-392.6025 589.5,-411.6025 639.5,-411.6025 639.5,-392.6025 589.5,-392.6025"/>
<polygon fill="none" stroke="#000000" points="589.5,-392.6025 589.5,-411.6025 639.5,-411.6025 639.5,-392.6025 589.5,-392.6025"/>
<text text-anchor="start" x="592.5" y="-398.7025" font-family="Helvetica,sans-Serif" font-size="11.00" fill="#000000">&lt; 1</text>
<polygon fill="#ffffff" stroke="transparent" points="639.5,-392.6025 639.5,-411.6025 691.5,-411.6025 691.5,-392.6025 639.5,-392.6025"/>
<polygon fill="none" stroke="#000000" points="639.5,-392.6025 639.5,-411.6025 691.5,-411.6025 691.5,-392.6025 639.5,-392.6025"/>
<text text-anchor="start" x="656.1105" y="-398.7025" font-family="Helvetica,sans-Serif" font-size="11.00" fill="#000000">0 rows</text>
<polygon fill="#ffffff" stroke="transparent" points="691.5,-392.6025 691.5,-411.6025 718.5,-411.6025 718.5,-392.6025 691.5,-392.6025"/>
<polygon fill="none" stroke="#000000" points="691.5,-392.6025 691.5,-411.6025 718.5,-411.6025 718.5,-392.6025 691.5,-392.6025"/>
<text text-anchor="start" x="709.3862" y="-398.7025" font-family="Helvetica,sans-Serif" font-size="11.00" fill="#000000"> &#160;</text>
</a>
</g>
</g>
<!-- sccs_attrition&#45;&gt;sccs_exposures_outcome_set -->
<g id="edge2" class="edge">
<title>sccs_attrition:w&#45;&gt;sccs_exposures_outcome_set:e</title>
<path fill="none" stroke="#000000" d="M574.8154,-421.3243C544.6307,-424.5791 532.4522,-438.8627 507,-464.6025 479.1858,-492.731 505.5581,-543.6025 466,-543.6025"/>
<polygon fill="#000000" stroke="#000000" points="581.5096,-420.9953 589.6768,-424.1982 585.5048,-420.7989 589.5,-420.6025 589.5,-420.6025 589.5,-420.6025 585.5048,-420.7989 589.3232,-417.0069 581.5096,-420.9953 581.5096,-420.9953"/>
<ellipse fill="none" stroke="#000000" cx="578.3135" cy="-421.1524" rx="3.2" ry="3.2"/>
</g>
<!-- sccs_calendar_time_spanning -->
<g id="node4" class="node">
<title>sccs_calendar_time_spanning</title>
<g id="a_node4"><a xlink:href="../../tables/sccs_calendar_time_spanning.html" xlink:title="sccs_calendar_time_spanning" target="_top">
<polygon fill="#ffffff" stroke="transparent" points="535.5,-311.1025 535.5,-372.1025 771.5,-372.1025 771.5,-311.1025 535.5,-311.1025"/>
<polygon fill="#f5f5f5" stroke="transparent" points="535.5,-348.6025 535.5,-371.6025 771.5,-371.6025 771.5,-348.6025 535.5,-348.6025"/>
<polygon fill="none" stroke="#000000" points="535.5,-348.6025 535.5,-371.6025 771.5,-371.6025 771.5,-348.6025 535.5,-348.6025"/>
<text text-anchor="start" x="540.5" y="-357.2025" font-family="Helvetica,sans-Serif" font-weight="bold" font-size="11.00" fill="#000000">sccs_calendar_time_spanning</text>
<text text-anchor="start" x="737.0219" y="-356.7025" font-family="Helvetica,sans-Serif" font-size="11.00" fill="#000000">[table]</text>
<polygon fill="none" stroke="#000000" points="535.5,-329.6025 535.5,-348.6025 771.5,-348.6025 771.5,-329.6025 535.5,-329.6025"/>
<text text-anchor="start" x="538.5" y="-335.7025" font-family="Helvetica,sans-Serif" font-size="11.00" fill="#000000">...</text>
<polygon fill="#ffffff" stroke="transparent" points="535.5,-310.6025 535.5,-329.6025 638.5,-329.6025 638.5,-310.6025 535.5,-310.6025"/>
<polygon fill="none" stroke="#000000" points="535.5,-310.6025 535.5,-329.6025 638.5,-329.6025 638.5,-310.6025 535.5,-310.6025"/>
<text text-anchor="start" x="538.5" y="-316.7025" font-family="Helvetica,sans-Serif" font-size="11.00" fill="#000000">&lt; 1</text>
<polygon fill="#ffffff" stroke="transparent" points="638.5,-310.6025 638.5,-329.6025 717.5,-329.6025 717.5,-310.6025 638.5,-310.6025"/>
<polygon fill="none" stroke="#000000" points="638.5,-310.6025 638.5,-329.6025 717.5,-329.6025 717.5,-310.6025 638.5,-310.6025"/>
<text text-anchor="start" x="682.1105" y="-316.7025" font-family="Helvetica,sans-Serif" font-size="11.00" fill="#000000">0 rows</text>
<polygon fill="#ffffff" stroke="transparent" points="717.5,-310.6025 717.5,-329.6025 771.5,-329.6025 771.5,-310.6025 717.5,-310.6025"/>
<polygon fill="none" stroke="#000000" points="717.5,-310.6025 717.5,-329.6025 771.5,-329.6025 771.5,-310.6025 717.5,-310.6025"/>
<text text-anchor="start" x="762.3862" y="-316.7025" font-family="Helvetica,sans-Serif" font-size="11.00" fill="#000000"> &#160;</text>
</a>
</g>
</g>
<!-- sccs_calendar_time_spanning&#45;&gt;sccs_exposures_outcome_set -->
<g id="edge3" class="edge">
<title>sccs_calendar_time_spanning:w&#45;&gt;sccs_exposures_outcome_set:e</title>
<path fill="none" stroke="#000000" d="M521.1819,-340.501C452.5156,-361.1675 556.7557,-543.6025 466,-543.6025"/>
<polygon fill="#000000" stroke="#000000" points="527.5694,-339.6541 535.9732,-342.1713 531.5347,-339.1283 535.5,-338.6025 535.5,-338.6025 535.5,-338.6025 531.5347,-339.1283 535.0268,-335.0338 527.5694,-339.6541 527.5694,-339.6541"/>
<ellipse fill="none" stroke="#000000" cx="524.3972" cy="-340.0748" rx="3.2" ry="3.2"/>
</g>
<!-- sccs_covariate_result -->
<g id="node5" class="node">
<title>sccs_covariate_result</title>
<g id="a_node5"><a xlink:href="../../tables/sccs_covariate_result.html" xlink:title="sccs_covariate_result" target="_top">
<polygon fill="#ffffff" stroke="transparent" points="562.5,-885.1025 562.5,-946.1025 744.5,-946.1025 744.5,-885.1025 562.5,-885.1025"/>
<polygon fill="#f5f5f5" stroke="transparent" points="562.5,-922.6025 562.5,-945.6025 744.5,-945.6025 744.5,-922.6025 562.5,-922.6025"/>
<polygon fill="none" stroke="#000000" points="562.5,-922.6025 562.5,-945.6025 744.5,-945.6025 744.5,-922.6025 562.5,-922.6025"/>
<text text-anchor="start" x="567.5" y="-931.2025" font-family="Helvetica,sans-Serif" font-weight="bold" font-size="11.00" fill="#000000">sccs_covariate_result</text>
<text text-anchor="start" x="710.0219" y="-930.7025" font-family="Helvetica,sans-Serif" font-size="11.00" fill="#000000">[table]</text>
<polygon fill="none" stroke="#000000" points="562.5,-903.6025 562.5,-922.6025 744.5,-922.6025 744.5,-903.6025 562.5,-903.6025"/>
<text text-anchor="start" x="565.5" y="-909.7025" font-family="Helvetica,sans-Serif" font-size="11.00" fill="#000000">...</text>
<polygon fill="#ffffff" stroke="transparent" points="562.5,-884.6025 562.5,-903.6025 638.5,-903.6025 638.5,-884.6025 562.5,-884.6025"/>
<polygon fill="none" stroke="#000000" points="562.5,-884.6025 562.5,-903.6025 638.5,-903.6025 638.5,-884.6025 562.5,-884.6025"/>
<text text-anchor="start" x="565.5" y="-890.7025" font-family="Helvetica,sans-Serif" font-size="11.00" fill="#000000">&lt; 8</text>
<polygon fill="#ffffff" stroke="transparent" points="638.5,-884.6025 638.5,-903.6025 704.5,-903.6025 704.5,-884.6025 638.5,-884.6025"/>
<polygon fill="none" stroke="#000000" points="638.5,-884.6025 638.5,-903.6025 704.5,-903.6025 704.5,-884.6025 638.5,-884.6025"/>
<text text-anchor="start" x="669.1105" y="-890.7025" font-family="Helvetica,sans-Serif" font-size="11.00" fill="#000000">0 rows</text>
<polygon fill="#ffffff" stroke="transparent" points="704.5,-884.6025 704.5,-903.6025 744.5,-903.6025 744.5,-884.6025 704.5,-884.6025"/>
<polygon fill="none" stroke="#000000" points="704.5,-884.6025 704.5,-903.6025 744.5,-903.6025 744.5,-884.6025 704.5,-884.6025"/>
<text text-anchor="start" x="735.3862" y="-890.7025" font-family="Helvetica,sans-Serif" font-size="11.00" fill="#000000"> &#160;</text>
</a>
</g>
</g>
<!-- sccs_covariate_result&#45;&gt;sccs_exposures_outcome_set -->
<g id="edge8" class="edge">
<title>sccs_covariate_result:w&#45;&gt;sccs_exposures_outcome_set:e</title>
<path fill="none" stroke="#000000" d="M547.8836,-911.3383C528.7265,-907.585 519.6907,-895.4496 507,-874.6025 468.46,-811.2929 540.1177,-543.6025 466,-543.6025"/>
<polygon fill="#000000" stroke="#000000" points="554.5298,-911.9131 562.1898,-916.1891 558.5149,-912.2578 562.5,-912.6025 562.5,-912.6025 562.5,-912.6025 558.5149,-912.2578 562.8102,-909.0159 554.5298,-911.9131 554.5298,-911.9131"/>
<ellipse fill="none" stroke="#000000" cx="551.3417" cy="-911.6374" rx="3.2" ry="3.2"/>
</g>
<!-- sccs_covariate_result&#45;&gt;sccs_covariate -->
<g id="edge4" class="edge">
<title>sccs_covariate_result:w&#45;&gt;sccs_covariate:e</title>
<path fill="none" stroke="#000000" d="M547.7476,-912.6025C382.5489,-912.6025 335.8112,-912.6025 163.5,-912.6025"/>
<polygon fill="#000000" stroke="#000000" points="554.5,-912.6026 562.5,-916.2025 558.5,-912.6026 562.5,-912.6025 562.5,-912.6025 562.5,-912.6025 558.5,-912.6026 562.5,-909.0025 554.5,-912.6026 554.5,-912.6026"/>
<ellipse fill="none" stroke="#000000" cx="551.3" cy="-912.6026" rx="3.2" ry="3.2"/>
</g>
<!-- sccs_covariate_result&#45;&gt;sccs_covariate -->
<g id="edge5" class="edge">
<title>sccs_covariate_result:w&#45;&gt;sccs_covariate:e</title>
<path fill="none" stroke="#000000" d="M547.7476,-911.5293C382.5489,-899.6129 335.8112,-899.9707 163.5,-912.6025"/>
<polygon fill="#000000" stroke="#000000" points="554.5211,-912.022 562.2388,-916.193 558.5105,-912.3123 562.5,-912.6025 562.5,-912.6025 562.5,-912.6025 558.5105,-912.3123 562.7612,-909.012 554.5211,-912.022 554.5211,-912.022"/>
<ellipse fill="none" stroke="#000000" cx="551.3295" cy="-911.7898" rx="3.2" ry="3.2"/>
</g>
<!-- sccs_covariate_result&#45;&gt;sccs_covariate -->
<g id="edge6" class="edge">
<title>sccs_covariate_result:w&#45;&gt;sccs_covariate:e</title>
<path fill="none" stroke="#000000" d="M547.7476,-912.6025C382.5489,-912.6025 335.8112,-912.6025 163.5,-912.6025"/>
<polygon fill="#000000" stroke="#000000" points="554.5,-912.6026 562.5,-916.2025 558.5,-912.6026 562.5,-912.6025 562.5,-912.6025 562.5,-912.6025 558.5,-912.6026 562.5,-909.0025 554.5,-912.6026 554.5,-912.6026"/>
<ellipse fill="none" stroke="#000000" cx="551.3" cy="-912.6026" rx="3.2" ry="3.2"/>
</g>
<!-- sccs_covariate_result&#45;&gt;sccs_covariate -->
<g id="edge7" class="edge">
<title>sccs_covariate_result:w&#45;&gt;sccs_covariate:e</title>
<path fill="none" stroke="#000000" d="M547.7476,-913.6757C382.5489,-925.5921 335.8112,-925.2344 163.5,-912.6025"/>
<polygon fill="#000000" stroke="#000000" points="554.5211,-913.183 562.7612,-916.193 558.5105,-912.8928 562.5,-912.6025 562.5,-912.6025 562.5,-912.6025 558.5105,-912.8928 562.2388,-909.012 554.5211,-913.183 554.5211,-913.183"/>
<ellipse fill="none" stroke="#000000" cx="551.3295" cy="-913.4152" rx="3.2" ry="3.2"/>
</g>
<!-- sccs_diagnostics_summary -->
<g id="node7" class="node">
<title>sccs_diagnostics_summary</title>
<g id="a_node7"><a xlink:href="../../tables/sccs_diagnostics_summary.html" xlink:title="sccs_diagnostics_summary" target="_top">
<polygon fill="#ffffff" stroke="transparent" points="544,-803.1025 544,-864.1025 763,-864.1025 763,-803.1025 544,-803.1025"/>
<polygon fill="#f5f5f5" stroke="transparent" points="544.5,-840.6025 544.5,-863.6025 763.5,-863.6025 763.5,-840.6025 544.5,-840.6025"/>
<polygon fill="none" stroke="#000000" points="544.5,-840.6025 544.5,-863.6025 763.5,-863.6025 763.5,-840.6025 544.5,-840.6025"/>
<text text-anchor="start" x="549.5" y="-849.2025" font-family="Helvetica,sans-Serif" font-weight="bold" font-size="11.00" fill="#000000">sccs_diagnostics_summary</text>
<text text-anchor="start" x="729.0219" y="-848.7025" font-family="Helvetica,sans-Serif" font-size="11.00" fill="#000000">[table]</text>
<polygon fill="none" stroke="#000000" points="544.5,-821.6025 544.5,-840.6025 763.5,-840.6025 763.5,-821.6025 544.5,-821.6025"/>
<text text-anchor="start" x="547.5" y="-827.7025" font-family="Helvetica,sans-Serif" font-size="11.00" fill="#000000">...</text>
<polygon fill="#ffffff" stroke="transparent" points="544.5,-802.6025 544.5,-821.6025 634.5,-821.6025 634.5,-802.6025 544.5,-802.6025"/>
<polygon fill="none" stroke="#000000" points="544.5,-802.6025 544.5,-821.6025 634.5,-821.6025 634.5,-802.6025 544.5,-802.6025"/>
<text text-anchor="start" x="547.5" y="-808.7025" font-family="Helvetica,sans-Serif" font-size="11.00" fill="#000000">&lt; 7</text>
<polygon fill="#ffffff" stroke="transparent" points="634.5,-802.6025 634.5,-821.6025 707.5,-821.6025 707.5,-802.6025 634.5,-802.6025"/>
<polygon fill="none" stroke="#000000" points="634.5,-802.6025 634.5,-821.6025 707.5,-821.6025 707.5,-802.6025 634.5,-802.6025"/>
<text text-anchor="start" x="672.1105" y="-808.7025" font-family="Helvetica,sans-Serif" font-size="11.00" fill="#000000">0 rows</text>
<polygon fill="#ffffff" stroke="transparent" points="707.5,-802.6025 707.5,-821.6025 763.5,-821.6025 763.5,-802.6025 707.5,-802.6025"/>
<polygon fill="none" stroke="#000000" points="707.5,-802.6025 707.5,-821.6025 763.5,-821.6025 763.5,-802.6025 707.5,-802.6025"/>
<text text-anchor="start" x="744.9053" y="-808.7025" font-family="Helvetica,sans-Serif" font-size="11.00" fill="#000000">4 &gt;</text>
</a>
</g>
</g>
<!-- sccs_diagnostics_summary&#45;&gt;sccs_exposures_outcome_set -->
<g id="edge13" class="edge">
<title>sccs_diagnostics_summary:w&#45;&gt;sccs_exposures_outcome_set:e</title>
<path fill="none" stroke="#000000" d="M530.1445,-827.6385C518.7844,-821.9067 515.0751,-808.4608 507,-792.6025 481.5536,-742.6298 522.0784,-543.6025 466,-543.6025"/>
<polygon fill="#000000" stroke="#000000" points="536.6653,-828.9848 543.772,-834.1282 540.5826,-829.7937 544.5,-830.6025 544.5,-830.6025 544.5,-830.6025 540.5826,-829.7937 545.228,-827.0769 536.6653,-828.9848 536.6653,-828.9848"/>
<ellipse fill="none" stroke="#000000" cx="533.5314" cy="-828.3377" rx="3.2" ry="3.2"/>
</g>
<!-- sccs_diagnostics_summary&#45;&gt;sccs_covariate -->
<g id="edge9" class="edge">
<title>sccs_diagnostics_summary:w&#45;&gt;sccs_covariate:e</title>
<path fill="none" stroke="#000000" d="M529.6264,-830.8095C369.1441,-835.3368 331.6362,-912.6025 163.5,-912.6025"/>
<polygon fill="#000000" stroke="#000000" points="536.5008,-830.7139 544.5501,-834.2022 540.5004,-830.6582 544.5,-830.6025 544.5,-830.6025 544.5,-830.6025 540.5004,-830.6582 544.4499,-827.0029 536.5008,-830.7139 536.5008,-830.7139"/>
<ellipse fill="none" stroke="#000000" cx="533.3011" cy="-830.7585" rx="3.2" ry="3.2"/>
</g>
<!-- sccs_diagnostics_summary&#45;&gt;sccs_covariate -->
<g id="edge10" class="edge">
<title>sccs_diagnostics_summary:w&#45;&gt;sccs_covariate:e</title>
<path fill="none" stroke="#000000" d="M530.1111,-829.7229C369.2195,-822.1917 331.8054,-899.9707 163.5,-912.6025"/>
<polygon fill="#000000" stroke="#000000" points="536.5149,-830.1143 544.2803,-834.1958 540.5075,-830.3584 544.5,-830.6025 544.5,-830.6025 544.5,-830.6025 540.5075,-830.3584 544.7197,-827.0092 536.5149,-830.1143 536.5149,-830.1143"/>
<ellipse fill="none" stroke="#000000" cx="533.3209" cy="-829.919" rx="3.2" ry="3.2"/>
</g>
<!-- sccs_diagnostics_summary&#45;&gt;sccs_covariate -->
<g id="edge11" class="edge">
<title>sccs_diagnostics_summary:w&#45;&gt;sccs_covariate:e</title>
<path fill="none" stroke="#000000" d="M529.6264,-830.8095C369.1441,-835.3368 331.6362,-912.6025 163.5,-912.6025"/>
<polygon fill="#000000" stroke="#000000" points="536.5008,-830.7139 544.5501,-834.2022 540.5004,-830.6582 544.5,-830.6025 544.5,-830.6025 544.5,-830.6025 540.5004,-830.6582 544.4499,-827.0029 536.5008,-830.7139 536.5008,-830.7139"/>
<ellipse fill="none" stroke="#000000" cx="533.3011" cy="-830.7585" rx="3.2" ry="3.2"/>
</g>
<!-- sccs_diagnostics_summary&#45;&gt;sccs_covariate -->
<g id="edge12" class="edge">
<title>sccs_diagnostics_summary:w&#45;&gt;sccs_covariate:e</title>
<path fill="none" stroke="#000000" d="M530.1111,-831.8693C369.2195,-848.1709 331.8054,-925.2344 163.5,-912.6025"/>
<polygon fill="#000000" stroke="#000000" points="536.5308,-831.3042 544.8157,-834.1887 540.5154,-830.9533 544.5,-830.6025 544.5,-830.6025 544.5,-830.6025 540.5154,-830.9533 544.1843,-827.0164 536.5308,-831.3042 536.5308,-831.3042"/>
<ellipse fill="none" stroke="#000000" cx="533.3432" cy="-831.5848" rx="3.2" ry="3.2"/>
</g>
<!-- sccs_event_dep_observation -->
<g id="node8" class="node">
<title>sccs_event_dep_observation</title>
<g id="a_node8"><a xlink:href="../../tables/sccs_event_dep_observation.html" xlink:title="sccs_event_dep_observation" target="_top">
<polygon fill="#ffffff" stroke="transparent" points="515,-111.6025 515,-289.6025 792,-289.6025 792,-111.6025 515,-111.6025"/>
<polygon fill="#f5f5f5" stroke="transparent" points="517.5,-264.6025 517.5,-287.6025 790.5,-287.6025 790.5,-264.6025 517.5,-264.6025"/>
<polygon fill="none" stroke="#000000" points="517.5,-264.6025 517.5,-287.6025 790.5,-287.6025 790.5,-264.6025 517.5,-264.6025"/>
<text text-anchor="start" x="522.5" y="-273.2025" font-family="Helvetica,sans-Serif" font-weight="bold" font-size="11.00" fill="#000000">sccs_event_dep_observation</text>
<text text-anchor="start" x="755.5437" y="-272.7025" font-family="Helvetica,sans-Serif" font-size="11.00" fill="#000000">[table]</text>
<polygon fill="none" stroke="#000000" points="517.5,-242.6025 517.5,-264.6025 728.5,-264.6025 728.5,-242.6025 517.5,-242.6025"/>
<text text-anchor="start" x="537.5" y="-249.7025" font-family="Helvetica,sans-Serif" font-size="11.00" fill="#000000">analysis_id</text>
<polygon fill="none" stroke="#000000" points="728.5,-242.6025 728.5,-264.6025 790.5,-264.6025 790.5,-242.6025 728.5,-242.6025"/>
<text text-anchor="start" x="731.378" y="-250.3025" font-family="Helvetica,sans-Serif" font-size="11.00" fill="#000000">unknown[0]</text>
<polygon fill="none" stroke="#000000" points="517.5,-220.6025 517.5,-242.6025 728.5,-242.6025 728.5,-220.6025 517.5,-220.6025"/>
<text text-anchor="start" x="537.5" y="-227.7025" font-family="Helvetica,sans-Serif" font-size="11.00" fill="#000000">censored</text>
<polygon fill="none" stroke="#000000" points="728.5,-220.6025 728.5,-242.6025 790.5,-242.6025 790.5,-220.6025 728.5,-220.6025"/>
<text text-anchor="start" x="731.378" y="-228.3025" font-family="Helvetica,sans-Serif" font-size="11.00" fill="#000000">unknown[0]</text>
<polygon fill="none" stroke="#000000" points="517.5,-198.6025 517.5,-220.6025 728.5,-220.6025 728.5,-198.6025 517.5,-198.6025"/>
<text text-anchor="start" x="537.5" y="-205.7025" font-family="Helvetica,sans-Serif" font-size="11.00" fill="#000000">database_id</text>
<polygon fill="none" stroke="#000000" points="728.5,-198.6025 728.5,-220.6025 790.5,-220.6025 790.5,-198.6025 728.5,-198.6025"/>
<text text-anchor="start" x="731.378" y="-206.3025" font-family="Helvetica,sans-Serif" font-size="11.00" fill="#000000">unknown[0]</text>
<polygon fill="none" stroke="#000000" points="517.5,-176.6025 517.5,-198.6025 728.5,-198.6025 728.5,-176.6025 517.5,-176.6025"/>
<image xlink:href="../../images/foreignKeys.png" width="11px" height="12px" preserveAspectRatio="xMinYMin meet" x="522.5" y="-193.603"/>
<text text-anchor="start" x="537.5" y="-183.7025" font-family="Helvetica,sans-Serif" font-size="11.00" fill="#000000">exposures_outcome_set_id</text>
<polygon fill="none" stroke="#000000" points="728.5,-176.6025 728.5,-198.6025 790.5,-198.6025 790.5,-176.6025 728.5,-176.6025"/>
<text text-anchor="start" x="731.378" y="-184.3025" font-family="Helvetica,sans-Serif" font-size="11.00" fill="#000000">unknown[0]</text>
<polygon fill="none" stroke="#000000" points="517.5,-154.6025 517.5,-176.6025 728.5,-176.6025 728.5,-154.6025 517.5,-154.6025"/>
<text text-anchor="start" x="537.5" y="-161.7025" font-family="Helvetica,sans-Serif" font-size="11.00" fill="#000000">months_to_end</text>
<polygon fill="none" stroke="#000000" points="728.5,-154.6025 728.5,-176.6025 790.5,-176.6025 790.5,-154.6025 728.5,-154.6025"/>
<text text-anchor="start" x="731.378" y="-162.3025" font-family="Helvetica,sans-Serif" font-size="11.00" fill="#000000">unknown[0]</text>
<polygon fill="none" stroke="#000000" points="517.5,-132.6025 517.5,-154.6025 728.5,-154.6025 728.5,-132.6025 517.5,-132.6025"/>
<text text-anchor="start" x="537.5" y="-139.7025" font-family="Helvetica,sans-Serif" font-size="11.00" fill="#000000">outcomes</text>
<polygon fill="none" stroke="#000000" points="728.5,-132.6025 728.5,-154.6025 790.5,-154.6025 790.5,-132.6025 728.5,-132.6025"/>
<text text-anchor="start" x="731.378" y="-140.3025" font-family="Helvetica,sans-Serif" font-size="11.00" fill="#000000">unknown[0]</text>
<polygon fill="#ffffff" stroke="transparent" points="517.5,-113.6025 517.5,-132.6025 614.5,-132.6025 614.5,-113.6025 517.5,-113.6025"/>
<polygon fill="none" stroke="#000000" points="517.5,-113.6025 517.5,-132.6025 614.5,-132.6025 614.5,-113.6025 517.5,-113.6025"/>
<text text-anchor="start" x="520.5" y="-119.7025" font-family="Helvetica,sans-Serif" font-size="11.00" fill="#000000">&lt; 1</text>
<polygon fill="#ffffff" stroke="transparent" points="614.5,-113.6025 614.5,-132.6025 728.5,-132.6025 728.5,-113.6025 614.5,-113.6025"/>
<polygon fill="none" stroke="#000000" points="614.5,-113.6025 614.5,-132.6025 728.5,-132.6025 728.5,-113.6025 614.5,-113.6025"/>
<text text-anchor="start" x="693.1105" y="-119.7025" font-family="Helvetica,sans-Serif" font-size="11.00" fill="#000000">0 rows</text>
<polygon fill="#ffffff" stroke="transparent" points="728.5,-113.6025 728.5,-132.6025 790.5,-132.6025 790.5,-113.6025 728.5,-113.6025"/>
<polygon fill="none" stroke="#000000" points="728.5,-113.6025 728.5,-132.6025 790.5,-132.6025 790.5,-113.6025 728.5,-113.6025"/>
<text text-anchor="start" x="771.9053" y="-119.7025" font-family="Helvetica,sans-Serif" font-size="11.00" fill="#000000">0 &gt;</text>
<polygon fill="none" stroke="#000000" stroke-width="2" points="516,-112.6025 516,-288.6025 791,-288.6025 791,-112.6025 516,-112.6025"/>
</a>
</g>
</g>
<!-- sccs_event_dep_observation&#45;&gt;sccs_exposures_outcome_set -->
<g id="edge14" class="edge">
<title>sccs_event_dep_observation:w&#45;&gt;sccs_exposures_outcome_set:e</title>
<path fill="none" stroke="#000000" d="M503.6267,-192.3658C451.5015,-234.6108 540.4703,-543.6025 466,-543.6025"/>
<polygon fill="#000000" stroke="#000000" points="509.9336,-190.2005 518.6691,-191.0074 513.7168,-188.9015 517.5,-187.6025 517.5,-187.6025 517.5,-187.6025 513.7168,-188.9015 516.3309,-184.1976 509.9336,-190.2005 509.9336,-190.2005"/>
<ellipse fill="none" stroke="#000000" cx="506.907" cy="-191.2396" rx="3.2" ry="3.2"/>
</g>
<!-- sccs_result -->
<g id="node11" class="node">
<title>sccs_result</title>
<g id="a_node11"><a xlink:href="../../tables/sccs_result.html" xlink:title="sccs_result" target="_top">
<polygon fill="#ffffff" stroke="transparent" points="841,-803.1025 841,-864.1025 954,-864.1025 954,-803.1025 841,-803.1025"/>
<polygon fill="#f5f5f5" stroke="transparent" points="841.5,-840.6025 841.5,-863.6025 954.5,-863.6025 954.5,-840.6025 841.5,-840.6025"/>
<polygon fill="none" stroke="#000000" points="841.5,-840.6025 841.5,-863.6025 954.5,-863.6025 954.5,-840.6025 841.5,-840.6025"/>
<text text-anchor="start" x="846.5" y="-849.2025" font-family="Helvetica,sans-Serif" font-weight="bold" font-size="11.00" fill="#000000">sccs_result</text>
<text text-anchor="start" x="920.0219" y="-848.7025" font-family="Helvetica,sans-Serif" font-size="11.00" fill="#000000">[table]</text>
<polygon fill="none" stroke="#000000" points="841.5,-821.6025 841.5,-840.6025 954.5,-840.6025 954.5,-821.6025 841.5,-821.6025"/>
<text text-anchor="start" x="844.5" y="-827.7025" font-family="Helvetica,sans-Serif" font-size="11.00" fill="#000000">...</text>
<polygon fill="#ffffff" stroke="transparent" points="841.5,-802.6025 841.5,-821.6025 886.5,-821.6025 886.5,-802.6025 841.5,-802.6025"/>
<polygon fill="none" stroke="#000000" points="841.5,-802.6025 841.5,-821.6025 886.5,-821.6025 886.5,-802.6025 841.5,-802.6025"/>
<text text-anchor="start" x="844.5" y="-808.7025" font-family="Helvetica,sans-Serif" font-size="11.00" fill="#000000">&lt; 12</text>
<polygon fill="#ffffff" stroke="transparent" points="886.5,-802.6025 886.5,-821.6025 933.5,-821.6025 933.5,-802.6025 886.5,-802.6025"/>
<polygon fill="none" stroke="#000000" points="886.5,-802.6025 886.5,-821.6025 933.5,-821.6025 933.5,-802.6025 886.5,-802.6025"/>
<text text-anchor="start" x="898.1105" y="-808.7025" font-family="Helvetica,sans-Serif" font-size="11.00" fill="#000000">0 rows</text>
<polygon fill="#ffffff" stroke="transparent" points="933.5,-802.6025 933.5,-821.6025 954.5,-821.6025 954.5,-802.6025 933.5,-802.6025"/>
<polygon fill="none" stroke="#000000" points="933.5,-802.6025 933.5,-821.6025 954.5,-821.6025 954.5,-802.6025 933.5,-802.6025"/>
<text text-anchor="start" x="945.3862" y="-808.7025" font-family="Helvetica,sans-Serif" font-size="11.00" fill="#000000"> &#160;</text>
</a>
</g>
</g>
<!-- sccs_result&#45;&gt;sccs_exposures_outcome_set -->
<g id="edge27" class="edge">
<title>sccs_result:w&#45;&gt;sccs_exposures_outcome_set:e</title>
<path fill="none" stroke="#000000" d="M828.6482,-823.4747C771.6429,-751.2273 855.479,-153.0172 800,-100.6025 776.3355,-78.2451 531.0576,-78.6686 507,-100.6025 433.9415,-167.2116 564.8652,-543.6025 466,-543.6025"/>
<polygon fill="#000000" stroke="#000000" points="834.504,-826.7224 839.7539,-833.7507 838.002,-828.6624 841.5,-830.6025 841.5,-830.6025 841.5,-830.6025 838.002,-828.6624 843.2461,-827.4543 834.504,-826.7224 834.504,-826.7224"/>
<ellipse fill="none" stroke="#000000" cx="831.7055" cy="-825.1703" rx="3.2" ry="3.2"/>
</g>
<!-- sccs_result&#45;&gt;sccs_covariate -->
<g id="edge18" class="edge">
<title>sccs_result:w&#45;&gt;sccs_covariate:e</title>
<path fill="none" stroke="#000000" d="M827.1303,-833.2767C794.6246,-848.5896 842.9171,-925.5529 800,-956.6025 592.5099,-1106.7173 472.4531,-1002.7125 224,-940.6025 195.2556,-933.4168 193.129,-912.6025 163.5,-912.6025"/>
<polygon fill="#000000" stroke="#000000" points="833.635,-832.0663 842.1587,-834.1418 837.5675,-831.3344 841.5,-830.6025 841.5,-830.6025 841.5,-830.6025 837.5675,-831.3344 840.8413,-827.0633 833.635,-832.0663 833.635,-832.0663"/>
<ellipse fill="none" stroke="#000000" cx="830.4891" cy="-832.6517" rx="3.2" ry="3.2"/>
</g>
<!-- sccs_result&#45;&gt;sccs_covariate -->
<g id="edge20" class="edge">
<title>sccs_result:w&#45;&gt;sccs_covariate:e</title>
<path fill="none" stroke="#000000" d="M827.1018,-829.6974C796.1647,-835.6878 841.654,-909.7738 800,-939.6025 591.7835,-1088.7081 474.0891,-978.7571 224,-923.6025 195.7515,-917.3726 192.4273,-899.6025 163.5,-912.6025"/>
<polygon fill="#000000" stroke="#000000" points="833.5158,-830.1006 841.2741,-834.1954 837.5079,-830.3515 841.5,-830.6025 841.5,-830.6025 841.5,-830.6025 837.5079,-830.3515 841.7259,-827.0096 833.5158,-830.1006 833.5158,-830.1006"/>
<ellipse fill="none" stroke="#000000" cx="830.3221" cy="-829.8998" rx="3.2" ry="3.2"/>
</g>
<!-- sccs_result&#45;&gt;sccs_covariate -->
<g id="edge22" class="edge">
<title>sccs_result:w&#45;&gt;sccs_covariate:e</title>
<path fill="none" stroke="#000000" d="M827.1018,-833.3921C796.1647,-848.6878 841.654,-922.7738 800,-952.6025 591.7835,-1101.7081 474.0891,-991.7571 224,-936.6025 195.7515,-930.3726 192.4273,-912.6025 163.5,-912.6025"/>
<polygon fill="#000000" stroke="#000000" points="833.646,-832.1242 842.1848,-834.1368 837.573,-831.3634 841.5,-830.6025 841.5,-830.6025 841.5,-830.6025 837.573,-831.3634 840.8152,-827.0682 833.646,-832.1242 833.646,-832.1242"/>
<ellipse fill="none" stroke="#000000" cx="830.5045" cy="-832.7329" rx="3.2" ry="3.2"/>
</g>
<!-- sccs_result&#45;&gt;sccs_covariate -->
<g id="edge24" class="edge">
<title>sccs_result:w&#45;&gt;sccs_covariate:e</title>
<path fill="none" stroke="#000000" d="M827.93,-836.4536C795.3635,-860.3904 842.0178,-935.5132 800,-965.6025 591.7835,-1114.7081 474.0891,-1004.7571 224,-949.6025 195.7515,-943.3726 192.4273,-925.6025 163.5,-912.6025"/>
<polygon fill="#000000" stroke="#000000" points="834.1538,-833.7701 842.9254,-833.9083 837.8269,-832.1863 841.5,-830.6025 841.5,-830.6025 841.5,-830.6025 837.8269,-832.1863 840.0746,-827.2967 834.1538,-833.7701 834.1538,-833.7701"/>
<ellipse fill="none" stroke="#000000" cx="831.2153" cy="-835.0371" rx="3.2" ry="3.2"/>
</g>
<!-- sccs_result&#45;&gt;sccs_diagnostics_summary -->
<g id="edge19" class="edge">
<title>sccs_result:w&#45;&gt;sccs_diagnostics_summary:e</title>
<path fill="none" stroke="#000000" d="M828.6063,-823.875C803.9775,-811.9577 793.4271,-814.2002 763.5,-830.6025"/>
<polygon fill="#000000" stroke="#000000" points="834.4074,-826.9018 839.8347,-833.7942 837.9537,-828.7522 841.5,-830.6025 841.5,-830.6025 841.5,-830.6025 837.9537,-828.7522 843.1653,-827.4109 834.4074,-826.9018 834.4074,-826.9018"/>
<ellipse fill="none" stroke="#000000" cx="831.5704" cy="-825.4215" rx="3.2" ry="3.2"/>
</g>
<!-- sccs_result&#45;&gt;sccs_diagnostics_summary -->
<g id="edge21" class="edge">
<title>sccs_result:w&#45;&gt;sccs_diagnostics_summary:e</title>
<path fill="none" stroke="#000000" d="M827.2827,-828.2781C803.5893,-824.7418 792.8854,-825.5166 763.5,-830.6025"/>
<polygon fill="#000000" stroke="#000000" points="833.6048,-829.3117 840.9191,-834.1554 837.5524,-829.9571 841.5,-830.6025 841.5,-830.6025 841.5,-830.6025 837.5524,-829.9571 842.0809,-827.0497 833.6048,-829.3117 833.6048,-829.3117"/>
<ellipse fill="none" stroke="#000000" cx="830.4468" cy="-828.7953" rx="3.2" ry="3.2"/>
</g>
<!-- sccs_result&#45;&gt;sccs_diagnostics_summary -->
<g id="edge23" class="edge">
<title>sccs_result:w&#45;&gt;sccs_diagnostics_summary:e</title>
<path fill="none" stroke="#000000" d="M827.2827,-833.3144C803.5893,-837.4401 792.8854,-836.5361 763.5,-830.6025"/>
<polygon fill="#000000" stroke="#000000" points="833.6417,-832.1015 842.1745,-834.1388 837.5708,-831.352 841.5,-830.6025 841.5,-830.6025 841.5,-830.6025 837.5708,-831.352 840.8255,-827.0663 833.6417,-832.1015 833.6417,-832.1015"/>
<ellipse fill="none" stroke="#000000" cx="830.4983" cy="-832.7011" rx="3.2" ry="3.2"/>
</g>
<!-- sccs_result&#45;&gt;sccs_diagnostics_summary -->
<g id="edge25" class="edge">
<title>sccs_result:w&#45;&gt;sccs_diagnostics_summary:e</title>
<path fill="none" stroke="#000000" d="M828.6063,-837.6841C803.9775,-850.2287 793.4271,-847.8681 763.5,-830.6025"/>
<polygon fill="#000000" stroke="#000000" points="834.488,-834.4538 843.2331,-833.7579 837.994,-832.5281 841.5,-830.6025 841.5,-830.6025 841.5,-830.6025 837.994,-832.5281 839.7669,-827.4471 834.488,-834.4538 834.488,-834.4538"/>
<ellipse fill="none" stroke="#000000" cx="831.6832" cy="-835.9943" rx="3.2" ry="3.2"/>
</g>
<!-- sccs_result&#45;&gt;sccs_exposure -->
<g id="edge26" class="edge">
<title>sccs_result:w&#45;&gt;sccs_exposure:e</title>
<path fill="none" stroke="#000000" d="M828.6916,-823.7448C769.5902,-751.7202 856.998,-135.5298 800,-81.6025 705.4062,7.8952 633.8686,-52.2397 507,-81.6025 341.4289,-119.9227 333.4477,-249.6025 163.5,-249.6025"/>
<polygon fill="#000000" stroke="#000000" points="834.4472,-826.8264 839.8007,-833.7763 837.9736,-828.7145 841.5,-830.6025 841.5,-830.6025 841.5,-830.6025 837.9736,-828.7145 843.1993,-827.4288 834.4472,-826.8264 834.4472,-826.8264"/>
<ellipse fill="none" stroke="#000000" cx="831.6261" cy="-825.316" rx="3.2" ry="3.2"/>
</g>
<!-- sccs_spline -->
<g id="node12" class="node">
<title>sccs_spline</title>
<g id="a_node12"><a xlink:href="../../tables/sccs_spline.html" xlink:title="sccs_spline" target="_top">
<polygon fill="#ffffff" stroke="transparent" points="596.5,-721.1025 596.5,-782.1025 710.5,-782.1025 710.5,-721.1025 596.5,-721.1025"/>
<polygon fill="#f5f5f5" stroke="transparent" points="596.5,-758.6025 596.5,-781.6025 710.5,-781.6025 710.5,-758.6025 596.5,-758.6025"/>
<polygon fill="none" stroke="#000000" points="596.5,-758.6025 596.5,-781.6025 710.5,-781.6025 710.5,-758.6025 596.5,-758.6025"/>
<text text-anchor="start" x="601.5" y="-767.2025" font-family="Helvetica,sans-Serif" font-weight="bold" font-size="11.00" fill="#000000">sccs_spline</text>
<text text-anchor="start" x="676.0219" y="-766.7025" font-family="Helvetica,sans-Serif" font-size="11.00" fill="#000000">[table]</text>
<polygon fill="none" stroke="#000000" points="596.5,-739.6025 596.5,-758.6025 710.5,-758.6025 710.5,-739.6025 596.5,-739.6025"/>
<text text-anchor="start" x="599.5" y="-745.7025" font-family="Helvetica,sans-Serif" font-size="11.00" fill="#000000">...</text>
<polygon fill="#ffffff" stroke="transparent" points="596.5,-720.6025 596.5,-739.6025 638.5,-739.6025 638.5,-720.6025 596.5,-720.6025"/>
<polygon fill="none" stroke="#000000" points="596.5,-720.6025 596.5,-739.6025 638.5,-739.6025 638.5,-720.6025 596.5,-720.6025"/>
<text text-anchor="start" x="599.5" y="-726.7025" font-family="Helvetica,sans-Serif" font-size="11.00" fill="#000000">&lt; 1</text>
<polygon fill="#ffffff" stroke="transparent" points="638.5,-720.6025 638.5,-739.6025 687.5,-739.6025 687.5,-720.6025 638.5,-720.6025"/>
<polygon fill="none" stroke="#000000" points="638.5,-720.6025 638.5,-739.6025 687.5,-739.6025 687.5,-720.6025 638.5,-720.6025"/>
<text text-anchor="start" x="652.1105" y="-726.7025" font-family="Helvetica,sans-Serif" font-size="11.00" fill="#000000">0 rows</text>
<polygon fill="#ffffff" stroke="transparent" points="687.5,-720.6025 687.5,-739.6025 710.5,-739.6025 710.5,-720.6025 687.5,-720.6025"/>
<polygon fill="none" stroke="#000000" points="687.5,-720.6025 687.5,-739.6025 710.5,-739.6025 710.5,-720.6025 687.5,-720.6025"/>
<text text-anchor="start" x="701.3862" y="-726.7025" font-family="Helvetica,sans-Serif" font-size="11.00" fill="#000000"> &#160;</text>
</a>
</g>
</g>
<!-- sccs_spline&#45;&gt;sccs_exposures_outcome_set -->
<g id="edge28" class="edge">
<title>sccs_spline:w&#45;&gt;sccs_exposures_outcome_set:e</title>
<path fill="none" stroke="#000000" d="M581.8363,-748.3383C548.7155,-746.9624 531.6138,-739.5294 507,-710.6025 457.4723,-652.396 542.4264,-543.6025 466,-543.6025"/>
<polygon fill="#000000" stroke="#000000" points="588.5013,-748.4584 596.4351,-752.2019 592.5006,-748.5304 596.5,-748.6025 596.5,-748.6025 596.5,-748.6025 592.5006,-748.5304 596.5649,-745.0031 588.5013,-748.4584 588.5013,-748.4584"/>
<ellipse fill="none" stroke="#000000" cx="585.3018" cy="-748.4007" rx="3.2" ry="3.2"/>
</g>
<!-- sccs_time_to_event -->
<g id="node13" class="node">
<title>sccs_time_to_event</title>
<g id="a_node13"><a xlink:href="../../tables/sccs_time_to_event.html" xlink:title="sccs_time_to_event" target="_top">
<polygon fill="#ffffff" stroke="transparent" points="569.5,-639.1025 569.5,-700.1025 737.5,-700.1025 737.5,-639.1025 569.5,-639.1025"/>
<polygon fill="#f5f5f5" stroke="transparent" points="569.5,-676.6025 569.5,-699.6025 737.5,-699.6025 737.5,-676.6025 569.5,-676.6025"/>
<polygon fill="none" stroke="#000000" points="569.5,-676.6025 569.5,-699.6025 737.5,-699.6025 737.5,-676.6025 569.5,-676.6025"/>
<text text-anchor="start" x="574.5" y="-685.2025" font-family="Helvetica,sans-Serif" font-weight="bold" font-size="11.00" fill="#000000">sccs_time_to_event</text>
<text text-anchor="start" x="703.0219" y="-684.7025" font-family="Helvetica,sans-Serif" font-size="11.00" fill="#000000">[table]</text>
<polygon fill="none" stroke="#000000" points="569.5,-657.6025 569.5,-676.6025 737.5,-676.6025 737.5,-657.6025 569.5,-657.6025"/>
<text text-anchor="start" x="572.5" y="-663.7025" font-family="Helvetica,sans-Serif" font-size="11.00" fill="#000000">...</text>
<polygon fill="#ffffff" stroke="transparent" points="569.5,-638.6025 569.5,-657.6025 638.5,-657.6025 638.5,-638.6025 569.5,-638.6025"/>
<polygon fill="none" stroke="#000000" points="569.5,-638.6025 569.5,-657.6025 638.5,-657.6025 638.5,-638.6025 569.5,-638.6025"/>
<text text-anchor="start" x="572.5" y="-644.7025" font-family="Helvetica,sans-Serif" font-size="11.00" fill="#000000">&lt; 1</text>
<polygon fill="#ffffff" stroke="transparent" points="638.5,-638.6025 638.5,-657.6025 700.5,-657.6025 700.5,-638.6025 638.5,-638.6025"/>
<polygon fill="none" stroke="#000000" points="638.5,-638.6025 638.5,-657.6025 700.5,-657.6025 700.5,-638.6025 638.5,-638.6025"/>
<text text-anchor="start" x="665.1105" y="-644.7025" font-family="Helvetica,sans-Serif" font-size="11.00" fill="#000000">0 rows</text>
<polygon fill="#ffffff" stroke="transparent" points="700.5,-638.6025 700.5,-657.6025 737.5,-657.6025 737.5,-638.6025 700.5,-638.6025"/>
<polygon fill="none" stroke="#000000" points="700.5,-638.6025 700.5,-657.6025 737.5,-657.6025 737.5,-638.6025 700.5,-638.6025"/>
<text text-anchor="start" x="728.3862" y="-644.7025" font-family="Helvetica,sans-Serif" font-size="11.00" fill="#000000"> &#160;</text>
</a>
</g>
</g>
<!-- sccs_time_to_event&#45;&gt;sccs_exposures_outcome_set -->
<g id="edge29" class="edge">
<title>sccs_time_to_event:w&#45;&gt;sccs_exposures_outcome_set:e</title>
<path fill="none" stroke="#000000" d="M555.0004,-665.4417C533.8687,-661.6377 525.178,-648.6322 507,-628.6025 478.8123,-597.5435 507.9429,-543.6025 466,-543.6025"/>
<polygon fill="#000000" stroke="#000000" points="561.5255,-665.964 569.2127,-670.191 565.5128,-666.2833 569.5,-666.6025 569.5,-666.6025 569.5,-666.6025 565.5128,-666.2833 569.7873,-663.014 561.5255,-665.964 561.5255,-665.964"/>
<ellipse fill="none" stroke="#000000" cx="558.3357" cy="-665.7086" rx="3.2" ry="3.2"/>
</g>
<!-- sccs_time_trend -->
<g id="node14" class="node">
<title>sccs_time_trend</title>
<g id="a_node14"><a xlink:href="../../tables/sccs_time_trend.html" xlink:title="sccs_time_trend" target="_top">
<polygon fill="#ffffff" stroke="transparent" points="580.5,-557.1025 580.5,-618.1025 726.5,-618.1025 726.5,-557.1025 580.5,-557.1025"/>
<polygon fill="#f5f5f5" stroke="transparent" points="580.5,-594.6025 580.5,-617.6025 726.5,-617.6025 726.5,-594.6025 580.5,-594.6025"/>
<polygon fill="none" stroke="#000000" points="580.5,-594.6025 580.5,-617.6025 726.5,-617.6025 726.5,-594.6025 580.5,-594.6025"/>
<text text-anchor="start" x="585.5" y="-603.2025" font-family="Helvetica,sans-Serif" font-weight="bold" font-size="11.00" fill="#000000">sccs_time_trend</text>
<text text-anchor="start" x="692.0219" y="-602.7025" font-family="Helvetica,sans-Serif" font-size="11.00" fill="#000000">[table]</text>
<polygon fill="none" stroke="#000000" points="580.5,-575.6025 580.5,-594.6025 726.5,-594.6025 726.5,-575.6025 580.5,-575.6025"/>
<text text-anchor="start" x="583.5" y="-581.7025" font-family="Helvetica,sans-Serif" font-size="11.00" fill="#000000">...</text>
<polygon fill="#ffffff" stroke="transparent" points="580.5,-556.6025 580.5,-575.6025 638.5,-575.6025 638.5,-556.6025 580.5,-556.6025"/>
<polygon fill="none" stroke="#000000" points="580.5,-556.6025 580.5,-575.6025 638.5,-575.6025 638.5,-556.6025 580.5,-556.6025"/>
<text text-anchor="start" x="583.5" y="-562.7025" font-family="Helvetica,sans-Serif" font-size="11.00" fill="#000000">&lt; 1</text>
<polygon fill="#ffffff" stroke="transparent" points="638.5,-556.6025 638.5,-575.6025 695.5,-575.6025 695.5,-556.6025 638.5,-556.6025"/>
<polygon fill="none" stroke="#000000" points="638.5,-556.6025 638.5,-575.6025 695.5,-575.6025 695.5,-556.6025 638.5,-556.6025"/>
<text text-anchor="start" x="660.1105" y="-562.7025" font-family="Helvetica,sans-Serif" font-size="11.00" fill="#000000">0 rows</text>
<polygon fill="#ffffff" stroke="transparent" points="695.5,-556.6025 695.5,-575.6025 726.5,-575.6025 726.5,-556.6025 695.5,-556.6025"/>
<polygon fill="none" stroke="#000000" points="695.5,-556.6025 695.5,-575.6025 726.5,-575.6025 726.5,-556.6025 695.5,-556.6025"/>
<text text-anchor="start" x="717.3862" y="-562.7025" font-family="Helvetica,sans-Serif" font-size="11.00" fill="#000000"> &#160;</text>
</a>
</g>
</g>
<!-- sccs_time_trend&#45;&gt;sccs_exposures_outcome_set -->
<g id="edge30" class="edge">
<title>sccs_time_trend:w&#45;&gt;sccs_exposures_outcome_set:e</title>
<path fill="none" stroke="#000000" d="M565.9389,-583.5059C524.7437,-576.9857 514.7744,-543.6025 466,-543.6025"/>
<polygon fill="#000000" stroke="#000000" points="572.5226,-584.0017 580.2296,-588.1924 576.5113,-584.3021 580.5,-584.6025 580.5,-584.6025 580.5,-584.6025 576.5113,-584.3021 580.7704,-581.0127 572.5226,-584.0017 572.5226,-584.0017"/>
<ellipse fill="none" stroke="#000000" cx="569.3316" cy="-583.7613" rx="3.2" ry="3.2"/>
</g>
</g>
</svg>
