<?xml version="1.0" encoding="UTF-8" standalone="no"?>
<!DOCTYPE svg PUBLIC "-//W3C//DTD SVG 1.1//EN"
 "http://www.w3.org/Graphics/SVG/1.1/DTD/svg11.dtd">
<!-- Generated by graphviz version 2.40.1 (20161225.0304)
 -->
<!-- Title: oneDegreeRelationshipsDiagram Pages: 1 -->
<svg width="1138pt" height="879pt"
 viewBox="0.00 0.00 1138.00 879.02" xmlns="http://www.w3.org/2000/svg" xmlns:xlink="http://www.w3.org/1999/xlink">
<g id="graph0" class="graph" transform="scale(1 1) rotate(0) translate(4 875.0231)">
<title>oneDegreeRelationshipsDiagram</title>
<polygon fill="#ffffff" stroke="transparent" points="-4,4 -4,-875.0231 1134,-875.0231 1134,4 -4,4"/>
<text text-anchor="middle" x="72.4936" y="-7.3" font-family="Helvetica,sans-Serif" font-size="11.00" fill="#000000">Generated by SchemaSpy</text>
<!-- sccs_diagnostics_summary -->
<g id="node1" class="node">
<title>sccs_diagnostics_summary</title>
<g id="a_node1"><a xlink:href="../../tables/sccs_diagnostics_summary.html" xlink:title="sccs_diagnostics_summary" target="_top">
<polygon fill="#ffffff" stroke="transparent" points="551,-176.7871 551,-750.7871 851,-750.7871 851,-176.7871 551,-176.7871"/>
<polygon fill="#f5f5f5" stroke="transparent" points="553,-725.7871 553,-748.7871 849,-748.7871 849,-725.7871 553,-725.7871"/>
<polygon fill="none" stroke="#000000" points="553,-725.7871 553,-748.7871 849,-748.7871 849,-725.7871 553,-725.7871"/>
<text text-anchor="start" x="558" y="-734.3871" font-family="Helvetica,sans-Serif" font-weight="bold" font-size="11.00" fill="#000000">sccs_diagnostics_summary</text>
<text text-anchor="start" x="814.0437" y="-733.8871" font-family="Helvetica,sans-Serif" font-size="11.00" fill="#000000">[table]</text>
<polygon fill="none" stroke="#000000" points="553,-703.7871 553,-725.7871 787,-725.7871 787,-703.7871 553,-703.7871"/>
<image xlink:href="../../images/primaryKeys.png" width="11px" height="12px" preserveAspectRatio="xMinYMin meet" x="558" y="-720.787"/>
<text text-anchor="start" x="573" y="-710.8871" font-family="Helvetica,sans-Serif" font-size="11.00" fill="#000000">analysis_id</text>
<polygon fill="none" stroke="#000000" points="787,-703.7871 787,-725.7871 849,-725.7871 849,-703.7871 787,-703.7871"/>
<text text-anchor="start" x="789.878" y="-711.4871" font-family="Helvetica,sans-Serif" font-size="11.00" fill="#000000">unknown[0]</text>
<polygon fill="none" stroke="#000000" points="553,-681.7871 553,-703.7871 787,-703.7871 787,-681.7871 553,-681.7871"/>
<image xlink:href="../../images/primaryKeys.png" width="11px" height="12px" preserveAspectRatio="xMinYMin meet" x="558" y="-698.787"/>
<text text-anchor="start" x="573" y="-688.8871" font-family="Helvetica,sans-Serif" font-size="11.00" fill="#000000">covariate_id</text>
<polygon fill="none" stroke="#000000" points="787,-681.7871 787,-703.7871 849,-703.7871 849,-681.7871 787,-681.7871"/>
<text text-anchor="start" x="789.878" y="-689.4871" font-family="Helvetica,sans-Serif" font-size="11.00" fill="#000000">unknown[0]</text>
<polygon fill="none" stroke="#000000" points="553,-659.7871 553,-681.7871 787,-681.7871 787,-659.7871 553,-659.7871"/>
<image xlink:href="../../images/primaryKeys.png" width="11px" height="12px" preserveAspectRatio="xMinYMin meet" x="558" y="-676.787"/>
<text text-anchor="start" x="573" y="-666.8871" font-family="Helvetica,sans-Serif" font-size="11.00" fill="#000000">database_id</text>
<polygon fill="none" stroke="#000000" points="787,-659.7871 787,-681.7871 849,-681.7871 849,-659.7871 787,-659.7871"/>
<text text-anchor="start" x="789.878" y="-667.4871" font-family="Helvetica,sans-Serif" font-size="11.00" fill="#000000">unknown[0]</text>
<polygon fill="none" stroke="#000000" points="553,-637.7871 553,-659.7871 787,-659.7871 787,-637.7871 553,-637.7871"/>
<text text-anchor="start" x="573" y="-644.8871" font-family="Helvetica,sans-Serif" font-size="11.00" fill="#000000">ease</text>
<polygon fill="none" stroke="#000000" points="787,-637.7871 787,-659.7871 849,-659.7871 849,-637.7871 787,-637.7871"/>
<text text-anchor="start" x="789.878" y="-645.4871" font-family="Helvetica,sans-Serif" font-size="11.00" fill="#000000">unknown[0]</text>
<polygon fill="none" stroke="#000000" points="553,-615.7871 553,-637.7871 787,-637.7871 787,-615.7871 553,-615.7871"/>
<text text-anchor="start" x="573" y="-622.8871" font-family="Helvetica,sans-Serif" font-size="11.00" fill="#000000">ease_diagnostic</text>
<polygon fill="none" stroke="#000000" points="787,-615.7871 787,-637.7871 849,-637.7871 849,-615.7871 787,-615.7871"/>
<text text-anchor="start" x="789.878" y="-623.4871" font-family="Helvetica,sans-Serif" font-size="11.00" fill="#000000">unknown[0]</text>
<polygon fill="none" stroke="#000000" points="553,-593.7871 553,-615.7871 787,-615.7871 787,-593.7871 553,-593.7871"/>
<text text-anchor="start" x="573" y="-600.8871" font-family="Helvetica,sans-Serif" font-size="11.00" fill="#000000">event_exposure_diagnostic</text>
<polygon fill="none" stroke="#000000" points="787,-593.7871 787,-615.7871 849,-615.7871 849,-593.7871 787,-593.7871"/>
<text text-anchor="start" x="789.878" y="-601.4871" font-family="Helvetica,sans-Serif" font-size="11.00" fill="#000000">unknown[0]</text>
<polygon fill="none" stroke="#000000" points="553,-571.7871 553,-593.7871 787,-593.7871 787,-571.7871 553,-571.7871"/>
<text text-anchor="start" x="573" y="-578.8871" font-family="Helvetica,sans-Serif" font-size="11.00" fill="#000000">event_exposure_lb</text>
<polygon fill="none" stroke="#000000" points="787,-571.7871 787,-593.7871 849,-593.7871 849,-571.7871 787,-571.7871"/>
<text text-anchor="start" x="789.878" y="-579.4871" font-family="Helvetica,sans-Serif" font-size="11.00" fill="#000000">unknown[0]</text>
<polygon fill="none" stroke="#000000" points="553,-549.7871 553,-571.7871 787,-571.7871 787,-549.7871 553,-549.7871"/>
<text text-anchor="start" x="573" y="-556.8871" font-family="Helvetica,sans-Serif" font-size="11.00" fill="#000000">event_exposure_ub</text>
<polygon fill="none" stroke="#000000" points="787,-549.7871 787,-571.7871 849,-571.7871 849,-549.7871 787,-549.7871"/>
<text text-anchor="start" x="789.878" y="-557.4871" font-family="Helvetica,sans-Serif" font-size="11.00" fill="#000000">unknown[0]</text>
<polygon fill="none" stroke="#000000" points="553,-527.7871 553,-549.7871 787,-549.7871 787,-527.7871 553,-527.7871"/>
<text text-anchor="start" x="573" y="-534.8871" font-family="Helvetica,sans-Serif" font-size="11.00" fill="#000000">event_observation_diagnostic</text>
<polygon fill="none" stroke="#000000" points="787,-527.7871 787,-549.7871 849,-549.7871 849,-527.7871 787,-527.7871"/>
<text text-anchor="start" x="789.878" y="-535.4871" font-family="Helvetica,sans-Serif" font-size="11.00" fill="#000000">unknown[0]</text>
<polygon fill="none" stroke="#000000" points="553,-505.7871 553,-527.7871 787,-527.7871 787,-505.7871 553,-505.7871"/>
<text text-anchor="start" x="573" y="-512.8871" font-family="Helvetica,sans-Serif" font-size="11.00" fill="#000000">event_observation_lb</text>
<polygon fill="none" stroke="#000000" points="787,-505.7871 787,-527.7871 849,-527.7871 849,-505.7871 787,-505.7871"/>
<text text-anchor="start" x="789.878" y="-513.4871" font-family="Helvetica,sans-Serif" font-size="11.00" fill="#000000">unknown[0]</text>
<polygon fill="none" stroke="#000000" points="553,-483.7871 553,-505.7871 787,-505.7871 787,-483.7871 553,-483.7871"/>
<text text-anchor="start" x="573" y="-490.8871" font-family="Helvetica,sans-Serif" font-size="11.00" fill="#000000">event_observation_ub</text>
<polygon fill="none" stroke="#000000" points="787,-483.7871 787,-505.7871 849,-505.7871 849,-483.7871 787,-483.7871"/>
<text text-anchor="start" x="789.878" y="-491.4871" font-family="Helvetica,sans-Serif" font-size="11.00" fill="#000000">unknown[0]</text>
<polygon fill="none" stroke="#000000" points="553,-461.7871 553,-483.7871 787,-483.7871 787,-461.7871 553,-461.7871"/>
<image xlink:href="../../images/primaryKeys.png" width="11px" height="12px" preserveAspectRatio="xMinYMin meet" x="558" y="-478.787"/>
<text text-anchor="start" x="573" y="-468.8871" font-family="Helvetica,sans-Serif" font-size="11.00" fill="#000000">exposures_outcome_set_id</text>
<polygon fill="none" stroke="#000000" points="787,-461.7871 787,-483.7871 849,-483.7871 849,-461.7871 787,-461.7871"/>
<text text-anchor="start" x="789.878" y="-469.4871" font-family="Helvetica,sans-Serif" font-size="11.00" fill="#000000">unknown[0]</text>
<polygon fill="none" stroke="#000000" points="553,-439.7871 553,-461.7871 787,-461.7871 787,-439.7871 553,-439.7871"/>
<text text-anchor="start" x="573" y="-446.8871" font-family="Helvetica,sans-Serif" font-size="11.00" fill="#000000">mdrr</text>
<polygon fill="none" stroke="#000000" points="787,-439.7871 787,-461.7871 849,-461.7871 849,-439.7871 787,-439.7871"/>
<text text-anchor="start" x="789.878" y="-447.4871" font-family="Helvetica,sans-Serif" font-size="11.00" fill="#000000">unknown[0]</text>
<polygon fill="none" stroke="#000000" points="553,-417.7871 553,-439.7871 787,-439.7871 787,-417.7871 553,-417.7871"/>
<text text-anchor="start" x="573" y="-424.8871" font-family="Helvetica,sans-Serif" font-size="11.00" fill="#000000">mdrr_diagnostic</text>
<polygon fill="none" stroke="#000000" points="787,-417.7871 787,-439.7871 849,-439.7871 849,-417.7871 787,-417.7871"/>
<text text-anchor="start" x="789.878" y="-425.4871" font-family="Helvetica,sans-Serif" font-size="11.00" fill="#000000">unknown[0]</text>
<polygon fill="none" stroke="#000000" points="553,-395.7871 553,-417.7871 787,-417.7871 787,-395.7871 553,-395.7871"/>
<text text-anchor="start" x="573" y="-402.8871" font-family="Helvetica,sans-Serif" font-size="11.00" fill="#000000">pre_exposure_diagnostic</text>
<polygon fill="none" stroke="#000000" points="787,-395.7871 787,-417.7871 849,-417.7871 849,-395.7871 787,-395.7871"/>
<text text-anchor="start" x="789.878" y="-403.4871" font-family="Helvetica,sans-Serif" font-size="11.00" fill="#000000">unknown[0]</text>
<polygon fill="none" stroke="#000000" points="553,-373.7871 553,-395.7871 787,-395.7871 787,-373.7871 553,-373.7871"/>
<text text-anchor="start" x="573" y="-380.8871" font-family="Helvetica,sans-Serif" font-size="11.00" fill="#000000">pre_exposure_p</text>
<polygon fill="none" stroke="#000000" points="787,-373.7871 787,-395.7871 849,-395.7871 849,-373.7871 787,-373.7871"/>
<text text-anchor="start" x="789.878" y="-381.4871" font-family="Helvetica,sans-Serif" font-size="11.00" fill="#000000">unknown[0]</text>
<polygon fill="none" stroke="#000000" points="553,-351.7871 553,-373.7871 787,-373.7871 787,-351.7871 553,-351.7871"/>
<text text-anchor="start" x="573" y="-358.8871" font-family="Helvetica,sans-Serif" font-size="11.00" fill="#000000">rare_outcome_diagnostic</text>
<polygon fill="none" stroke="#000000" points="787,-351.7871 787,-373.7871 849,-373.7871 849,-351.7871 787,-351.7871"/>
<text text-anchor="start" x="789.878" y="-359.4871" font-family="Helvetica,sans-Serif" font-size="11.00" fill="#000000">unknown[0]</text>
<polygon fill="none" stroke="#000000" points="553,-329.7871 553,-351.7871 787,-351.7871 787,-329.7871 553,-329.7871"/>
<text text-anchor="start" x="573" y="-336.8871" font-family="Helvetica,sans-Serif" font-size="11.00" fill="#000000">rare_outcome_prevalence</text>
<polygon fill="none" stroke="#000000" points="787,-329.7871 787,-351.7871 849,-351.7871 849,-329.7871 787,-329.7871"/>
<text text-anchor="start" x="789.878" y="-337.4871" font-family="Helvetica,sans-Serif" font-size="11.00" fill="#000000">unknown[0]</text>
<polygon fill="none" stroke="#000000" points="553,-307.7871 553,-329.7871 787,-329.7871 787,-307.7871 553,-307.7871"/>
<text text-anchor="start" x="573" y="-314.8871" font-family="Helvetica,sans-Serif" font-size="11.00" fill="#000000">time_stability_diagnostic</text>
<polygon fill="none" stroke="#000000" points="787,-307.7871 787,-329.7871 849,-329.7871 849,-307.7871 787,-307.7871"/>
<text text-anchor="start" x="789.878" y="-315.4871" font-family="Helvetica,sans-Serif" font-size="11.00" fill="#000000">unknown[0]</text>
<polygon fill="none" stroke="#000000" points="553,-285.7871 553,-307.7871 787,-307.7871 787,-285.7871 553,-285.7871"/>
<text text-anchor="start" x="573" y="-292.8871" font-family="Helvetica,sans-Serif" font-size="11.00" fill="#000000">time_stability_p</text>
<polygon fill="none" stroke="#000000" points="787,-285.7871 787,-307.7871 849,-307.7871 849,-285.7871 787,-285.7871"/>
<text text-anchor="start" x="789.878" y="-293.4871" font-family="Helvetica,sans-Serif" font-size="11.00" fill="#000000">unknown[0]</text>
<polygon fill="none" stroke="#000000" points="553,-263.7871 553,-285.7871 787,-285.7871 787,-263.7871 553,-263.7871"/>
<text text-anchor="start" x="573" y="-270.8871" font-family="Helvetica,sans-Serif" font-size="11.00" fill="#000000">time_trend_diagnostic</text>
<polygon fill="none" stroke="#000000" points="787,-263.7871 787,-285.7871 849,-285.7871 849,-263.7871 787,-263.7871"/>
<text text-anchor="start" x="789.878" y="-271.4871" font-family="Helvetica,sans-Serif" font-size="11.00" fill="#000000">unknown[0]</text>
<polygon fill="none" stroke="#000000" points="553,-241.7871 553,-263.7871 787,-263.7871 787,-241.7871 553,-241.7871"/>
<text text-anchor="start" x="573" y="-248.8871" font-family="Helvetica,sans-Serif" font-size="11.00" fill="#000000">time_trend_p</text>
<polygon fill="none" stroke="#000000" points="787,-241.7871 787,-263.7871 849,-263.7871 849,-241.7871 787,-241.7871"/>
<text text-anchor="start" x="789.878" y="-249.4871" font-family="Helvetica,sans-Serif" font-size="11.00" fill="#000000">unknown[0]</text>
<polygon fill="none" stroke="#000000" points="553,-219.7871 553,-241.7871 787,-241.7871 787,-219.7871 553,-219.7871"/>
<text text-anchor="start" x="573" y="-226.8871" font-family="Helvetica,sans-Serif" font-size="11.00" fill="#000000">unblind</text>
<polygon fill="none" stroke="#000000" points="787,-219.7871 787,-241.7871 849,-241.7871 849,-219.7871 787,-219.7871"/>
<text text-anchor="start" x="789.878" y="-227.4871" font-family="Helvetica,sans-Serif" font-size="11.00" fill="#000000">unknown[0]</text>
<polygon fill="none" stroke="#000000" points="553,-197.7871 553,-219.7871 787,-219.7871 787,-197.7871 553,-197.7871"/>
<text text-anchor="start" x="573" y="-204.8871" font-family="Helvetica,sans-Serif" font-size="11.00" fill="#000000">unblind_for_evidence_synthesis</text>
<polygon fill="none" stroke="#000000" points="787,-197.7871 787,-219.7871 849,-219.7871 849,-197.7871 787,-197.7871"/>
<text text-anchor="start" x="789.878" y="-205.4871" font-family="Helvetica,sans-Serif" font-size="11.00" fill="#000000">unknown[0]</text>
<polygon fill="#ffffff" stroke="transparent" points="553,-178.7871 553,-197.7871 661,-197.7871 661,-178.7871 553,-178.7871"/>
<polygon fill="none" stroke="#000000" points="553,-178.7871 553,-197.7871 661,-197.7871 661,-178.7871 553,-178.7871"/>
<text text-anchor="start" x="556" y="-184.8871" font-family="Helvetica,sans-Serif" font-size="11.00" fill="#000000">&lt; 7</text>
<polygon fill="#ffffff" stroke="transparent" points="661,-178.7871 661,-197.7871 787,-197.7871 787,-178.7871 661,-178.7871"/>
<polygon fill="none" stroke="#000000" points="661,-178.7871 661,-197.7871 787,-197.7871 787,-178.7871 661,-178.7871"/>
<text text-anchor="start" x="751.6105" y="-184.8871" font-family="Helvetica,sans-Serif" font-size="11.00" fill="#000000">0 rows</text>
<polygon fill="#ffffff" stroke="transparent" points="787,-178.7871 787,-197.7871 849,-197.7871 849,-178.7871 787,-178.7871"/>
<polygon fill="none" stroke="#000000" points="787,-178.7871 787,-197.7871 849,-197.7871 849,-178.7871 787,-178.7871"/>
<text text-anchor="start" x="830.4053" y="-184.8871" font-family="Helvetica,sans-Serif" font-size="11.00" fill="#000000">4 &gt;</text>
<polygon fill="none" stroke="#000000" stroke-width="2" points="552,-177.7871 552,-749.7871 850,-749.7871 850,-177.7871 552,-177.7871"/>
</a>
</g>
</g>
<!-- sccs_analysis -->
<g id="node2" class="node">
<title>sccs_analysis</title>
<g id="a_node2"><a xlink:href="../../tables/sccs_analysis.html" xlink:title="sccs_analysis" target="_top">
<polygon fill="#ffffff" stroke="transparent" points="315.5,-694.2871 315.5,-777.2871 443.5,-777.2871 443.5,-694.2871 315.5,-694.2871"/>
<polygon fill="#f5f5f5" stroke="transparent" points="315.5,-753.7871 315.5,-776.7871 443.5,-776.7871 443.5,-753.7871 315.5,-753.7871"/>
<polygon fill="none" stroke="#000000" points="315.5,-753.7871 315.5,-776.7871 443.5,-776.7871 443.5,-753.7871 315.5,-753.7871"/>
<text text-anchor="start" x="320.5" y="-762.3871" font-family="Helvetica,sans-Serif" font-weight="bold" font-size="11.00" fill="#000000">sccs_analysis</text>
<text text-anchor="start" x="409.0219" y="-761.8871" font-family="Helvetica,sans-Serif" font-size="11.00" fill="#000000">[table]</text>
<polygon fill="none" stroke="#000000" points="315.5,-731.7871 315.5,-753.7871 443.5,-753.7871 443.5,-731.7871 315.5,-731.7871"/>
<image xlink:href="../../images/primaryKeys.png" width="11px" height="12px" preserveAspectRatio="xMinYMin meet" x="320.5" y="-748.787"/>
<text text-anchor="start" x="344.5" y="-738.8871" font-family="Helvetica,sans-Serif" font-size="11.00" fill="#000000">analysis_id</text>
<polygon fill="none" stroke="#000000" points="315.5,-712.7871 315.5,-731.7871 443.5,-731.7871 443.5,-712.7871 315.5,-712.7871"/>
<text text-anchor="start" x="318.5" y="-718.8871" font-family="Helvetica,sans-Serif" font-size="11.00" fill="#000000">...</text>
<polygon fill="#ffffff" stroke="transparent" points="315.5,-693.7871 315.5,-712.7871 355.5,-712.7871 355.5,-693.7871 315.5,-693.7871"/>
<polygon fill="none" stroke="#000000" points="315.5,-693.7871 315.5,-712.7871 355.5,-712.7871 355.5,-693.7871 315.5,-693.7871"/>
<text text-anchor="start" x="318.5" y="-699.8871" font-family="Helvetica,sans-Serif" font-size="11.00" fill="#000000"> &#160;</text>
<polygon fill="#ffffff" stroke="transparent" points="355.5,-693.7871 355.5,-712.7871 407.5,-712.7871 407.5,-693.7871 355.5,-693.7871"/>
<polygon fill="none" stroke="#000000" points="355.5,-693.7871 355.5,-712.7871 407.5,-712.7871 407.5,-693.7871 355.5,-693.7871"/>
<text text-anchor="start" x="372.1105" y="-699.8871" font-family="Helvetica,sans-Serif" font-size="11.00" fill="#000000">0 rows</text>
<polygon fill="#ffffff" stroke="transparent" points="407.5,-693.7871 407.5,-712.7871 443.5,-712.7871 443.5,-693.7871 407.5,-693.7871"/>
<polygon fill="none" stroke="#000000" points="407.5,-693.7871 407.5,-712.7871 443.5,-712.7871 443.5,-693.7871 407.5,-693.7871"/>
<text text-anchor="start" x="424.9053" y="-699.8871" font-family="Helvetica,sans-Serif" font-size="11.00" fill="#000000">2 &gt;</text>
</a>
</g>
</g>
<!-- sccs_diagnostics_summary&#45;&gt;sccs_analysis -->
<g id="edge1" class="edge">
<title>sccs_diagnostics_summary:w&#45;&gt;sccs_analysis:e</title>
<path fill="none" stroke="#000000" d="M538.3842,-715.6558C500.4034,-720.3819 488.4346,-742.7871 443.5,-742.7871"/>
<polygon fill="#000000" stroke="#000000" points="545.0141,-715.2618 553.2136,-718.3807 549.007,-715.0244 553,-714.7871 553,-714.7871 553,-714.7871 549.007,-715.0244 552.7864,-711.1934 545.0141,-715.2618 545.0141,-715.2618"/>
<ellipse fill="none" stroke="#000000" cx="541.8197" cy="-715.4517" rx="3.2" ry="3.2"/>
</g>
<!-- sccs_covariate -->
<g id="node3" class="node">
<title>sccs_covariate</title>
<g id="a_node3"><a xlink:href="../../tables/sccs_covariate.html" xlink:title="sccs_covariate" target="_top">
<polygon fill="#ffffff" stroke="transparent" points="8,-545.2871 8,-694.2871 208,-694.2871 208,-545.2871 8,-545.2871"/>
<polygon fill="#f5f5f5" stroke="transparent" points="8,-670.7871 8,-693.7871 208,-693.7871 208,-670.7871 8,-670.7871"/>
<polygon fill="none" stroke="#000000" points="8,-670.7871 8,-693.7871 208,-693.7871 208,-670.7871 8,-670.7871"/>
<text text-anchor="start" x="13" y="-679.3871" font-family="Helvetica,sans-Serif" font-weight="bold" font-size="11.00" fill="#000000">sccs_covariate</text>
<text text-anchor="start" x="173.0437" y="-678.8871" font-family="Helvetica,sans-Serif" font-size="11.00" fill="#000000">[table]</text>
<polygon fill="none" stroke="#000000" points="8,-648.7871 8,-670.7871 208,-670.7871 208,-648.7871 8,-648.7871"/>
<image xlink:href="../../images/primaryKeys.png" width="11px" height="12px" preserveAspectRatio="xMinYMin meet" x="13" y="-665.787"/>
<text text-anchor="start" x="28" y="-655.8871" font-family="Helvetica,sans-Serif" font-size="11.00" fill="#000000">analysis_id</text>
<polygon fill="none" stroke="#000000" points="8,-626.7871 8,-648.7871 208,-648.7871 208,-626.7871 8,-626.7871"/>
<image xlink:href="../../images/primaryKeys.png" width="11px" height="12px" preserveAspectRatio="xMinYMin meet" x="13" y="-643.787"/>
<text text-anchor="start" x="28" y="-633.8871" font-family="Helvetica,sans-Serif" font-size="11.00" fill="#000000">covariate_id</text>
<polygon fill="none" stroke="#000000" points="8,-604.7871 8,-626.7871 208,-626.7871 208,-604.7871 8,-604.7871"/>
<image xlink:href="../../images/primaryKeys.png" width="11px" height="12px" preserveAspectRatio="xMinYMin meet" x="13" y="-621.787"/>
<text text-anchor="start" x="28" y="-611.8871" font-family="Helvetica,sans-Serif" font-size="11.00" fill="#000000">database_id</text>
<polygon fill="none" stroke="#000000" points="8,-582.7871 8,-604.7871 208,-604.7871 208,-582.7871 8,-582.7871"/>
<image xlink:href="../../images/primaryKeys.png" width="11px" height="12px" preserveAspectRatio="xMinYMin meet" x="13" y="-599.787"/>
<text text-anchor="start" x="28" y="-589.8871" font-family="Helvetica,sans-Serif" font-size="11.00" fill="#000000">exposures_outcome_set_id</text>
<polygon fill="none" stroke="#000000" points="8,-563.7871 8,-582.7871 208,-582.7871 208,-563.7871 8,-563.7871"/>
<text text-anchor="start" x="11" y="-569.8871" font-family="Helvetica,sans-Serif" font-size="11.00" fill="#000000">...</text>
<polygon fill="#ffffff" stroke="transparent" points="8,-544.7871 8,-563.7871 81,-563.7871 81,-544.7871 8,-544.7871"/>
<polygon fill="none" stroke="#000000" points="8,-544.7871 8,-563.7871 81,-563.7871 81,-544.7871 8,-544.7871"/>
<text text-anchor="start" x="11" y="-550.8871" font-family="Helvetica,sans-Serif" font-size="11.00" fill="#000000"> &#160;</text>
<polygon fill="#ffffff" stroke="transparent" points="81,-544.7871 81,-563.7871 150,-563.7871 150,-544.7871 81,-544.7871"/>
<polygon fill="none" stroke="#000000" points="81,-544.7871 81,-563.7871 150,-563.7871 150,-544.7871 81,-544.7871"/>
<text text-anchor="start" x="114.6105" y="-550.8871" font-family="Helvetica,sans-Serif" font-size="11.00" fill="#000000">0 rows</text>
<polygon fill="#ffffff" stroke="transparent" points="150,-544.7871 150,-563.7871 208,-563.7871 208,-544.7871 150,-544.7871"/>
<polygon fill="none" stroke="#000000" points="150,-544.7871 150,-563.7871 208,-563.7871 208,-544.7871 150,-544.7871"/>
<text text-anchor="start" x="183.2904" y="-550.8871" font-family="Helvetica,sans-Serif" font-size="11.00" fill="#000000">13 &gt;</text>
</a>
</g>
</g>
<!-- sccs_diagnostics_summary&#45;&gt;sccs_covariate -->
<g id="edge2" class="edge">
<title>sccs_diagnostics_summary:w&#45;&gt;sccs_covariate:e</title>
<path fill="none" stroke="#000000" d="M539.1349,-710.8701C529.1719,-703.9715 526.4138,-689.8153 510,-683.7871 383.609,-637.3685 342.6454,-659.7871 208,-659.7871"/>
<polygon fill="#000000" stroke="#000000" points="545.3013,-712.6121 552.0213,-718.2515 549.1507,-713.6996 553,-714.7871 553,-714.7871 553,-714.7871 549.1507,-713.6996 553.9787,-711.3227 545.3013,-712.6121 545.3013,-712.6121"/>
<ellipse fill="none" stroke="#000000" cx="542.2218" cy="-711.7421" rx="3.2" ry="3.2"/>
</g>
<!-- sccs_diagnostics_summary&#45;&gt;sccs_covariate -->
<g id="edge3" class="edge">
<title>sccs_diagnostics_summary:w&#45;&gt;sccs_covariate:e</title>
<path fill="none" stroke="#000000" d="M539.0657,-688.3558C528.6192,-679.8265 528.0481,-661.3072 510,-653.7871 447.9645,-627.9388 275.2052,-637.7871 208,-637.7871"/>
<polygon fill="#000000" stroke="#000000" points="545.3762,-690.3626 551.909,-696.2178 549.1881,-691.5748 553,-692.7871 553,-692.7871 553,-692.7871 549.1881,-691.5748 554.091,-689.3564 545.3762,-690.3626 545.3762,-690.3626"/>
<ellipse fill="none" stroke="#000000" cx="542.3267" cy="-689.3928" rx="3.2" ry="3.2"/>
</g>
<!-- sccs_diagnostics_summary&#45;&gt;sccs_covariate -->
<g id="edge5" class="edge">
<title>sccs_diagnostics_summary:w&#45;&gt;sccs_covariate:e</title>
<path fill="none" stroke="#000000" d="M539.1591,-666.473C528.7062,-658.1689 527.8762,-640.135 510,-632.7871 385.6596,-581.6778 342.4347,-615.7871 208,-615.7871"/>
<polygon fill="#000000" stroke="#000000" points="545.3624,-668.4065 551.9287,-674.224 549.1812,-669.5968 553,-670.7871 553,-670.7871 553,-670.7871 549.1812,-669.5968 554.0713,-667.3502 545.3624,-668.4065 545.3624,-668.4065"/>
<ellipse fill="none" stroke="#000000" cx="542.3074" cy="-667.4542" rx="3.2" ry="3.2"/>
</g>
<!-- sccs_diagnostics_summary&#45;&gt;sccs_covariate -->
<g id="edge6" class="edge">
<title>sccs_diagnostics_summary:w&#45;&gt;sccs_covariate:e</title>
<path fill="none" stroke="#000000" d="M539.0119,-468.4839C529.146,-460.9286 526.9305,-445.5349 510,-439.7871 400.1575,-402.4961 340.9724,-369.0971 249,-439.7871 192.8424,-482.9498 278.8286,-593.7871 208,-593.7871"/>
<polygon fill="#000000" stroke="#000000" points="545.3536,-470.4348 551.9415,-476.228 549.1768,-471.6109 553,-472.7871 553,-472.7871 553,-472.7871 549.1768,-471.6109 554.0585,-469.3462 545.3536,-470.4348 545.3536,-470.4348"/>
<ellipse fill="none" stroke="#000000" cx="542.2951" cy="-469.4939" rx="3.2" ry="3.2"/>
</g>
<!-- database_meta_data -->
<g id="node4" class="node">
<title>database_meta_data</title>
<g id="a_node4"><a xlink:href="../../tables/database_meta_data.html" xlink:title="database_meta_data" target="_top">
<polygon fill="#ffffff" stroke="transparent" points="257,-450.2871 257,-533.2871 502,-533.2871 502,-450.2871 257,-450.2871"/>
<polygon fill="#f5f5f5" stroke="transparent" points="257.5,-509.7871 257.5,-532.7871 502.5,-532.7871 502.5,-509.7871 257.5,-509.7871"/>
<polygon fill="none" stroke="#000000" points="257.5,-509.7871 257.5,-532.7871 502.5,-532.7871 502.5,-509.7871 257.5,-509.7871"/>
<text text-anchor="start" x="262.5" y="-518.3871" font-family="Helvetica,sans-Serif" font-weight="bold" font-size="11.00" fill="#000000">database_meta_data</text>
<text text-anchor="start" x="467.5437" y="-517.8871" font-family="Helvetica,sans-Serif" font-size="11.00" fill="#000000">[table]</text>
<polygon fill="none" stroke="#000000" points="257.5,-487.7871 257.5,-509.7871 502.5,-509.7871 502.5,-487.7871 257.5,-487.7871"/>
<image xlink:href="../../images/primaryKeys.png" width="11px" height="12px" preserveAspectRatio="xMinYMin meet" x="262.5" y="-504.787"/>
<text text-anchor="start" x="277.5" y="-494.8871" font-family="Helvetica,sans-Serif" font-size="11.00" fill="#000000">database_id</text>
<polygon fill="none" stroke="#000000" points="257.5,-468.7871 257.5,-487.7871 502.5,-487.7871 502.5,-468.7871 257.5,-468.7871"/>
<text text-anchor="start" x="260.5" y="-474.8871" font-family="Helvetica,sans-Serif" font-size="11.00" fill="#000000">...</text>
<polygon fill="#ffffff" stroke="transparent" points="257.5,-449.7871 257.5,-468.7871 357.5,-468.7871 357.5,-449.7871 257.5,-449.7871"/>
<polygon fill="none" stroke="#000000" points="257.5,-449.7871 257.5,-468.7871 357.5,-468.7871 357.5,-449.7871 257.5,-449.7871"/>
<text text-anchor="start" x="260.5" y="-455.8871" font-family="Helvetica,sans-Serif" font-size="11.00" fill="#000000">&lt; 1</text>
<polygon fill="#ffffff" stroke="transparent" points="357.5,-449.7871 357.5,-468.7871 435.5,-468.7871 435.5,-449.7871 357.5,-449.7871"/>
<polygon fill="none" stroke="#000000" points="357.5,-449.7871 357.5,-468.7871 435.5,-468.7871 435.5,-449.7871 357.5,-449.7871"/>
<text text-anchor="start" x="400.1105" y="-455.8871" font-family="Helvetica,sans-Serif" font-size="11.00" fill="#000000">0 rows</text>
<polygon fill="#ffffff" stroke="transparent" points="435.5,-449.7871 435.5,-468.7871 502.5,-468.7871 502.5,-449.7871 435.5,-449.7871"/>
<polygon fill="none" stroke="#000000" points="435.5,-449.7871 435.5,-468.7871 502.5,-468.7871 502.5,-449.7871 435.5,-449.7871"/>
<text text-anchor="start" x="477.7904" y="-455.8871" font-family="Helvetica,sans-Serif" font-size="11.00" fill="#000000">17 &gt;</text>
</a>
</g>
</g>
<!-- sccs_diagnostics_summary&#45;&gt;database_meta_data -->
<g id="edge4" class="edge">
<title>sccs_diagnostics_summary:w&#45;&gt;database_meta_data:e</title>
<path fill="none" stroke="#000000" d="M538.5387,-668.2222C488.0754,-646.826 576.4137,-498.7871 502.5,-498.7871"/>
<polygon fill="#000000" stroke="#000000" points="545.1229,-669.3899 552.3713,-674.3318 549.0615,-670.0885 553,-670.7871 553,-670.7871 553,-670.7871 549.0615,-670.0885 553.6287,-667.2424 545.1229,-669.3899 545.1229,-669.3899"/>
<ellipse fill="none" stroke="#000000" cx="541.9721" cy="-668.8311" rx="3.2" ry="3.2"/>
</g>
<!-- sccs_exposures_outcome_set -->
<g id="node5" class="node">
<title>sccs_exposures_outcome_set</title>
<g id="a_node5"><a xlink:href="../../tables/sccs_exposures_outcome_set.html" xlink:title="sccs_exposures_outcome_set" target="_top">
<polygon fill="#ffffff" stroke="transparent" points="262.5,-154.2871 262.5,-259.2871 496.5,-259.2871 496.5,-154.2871 262.5,-154.2871"/>
<polygon fill="#f5f5f5" stroke="transparent" points="262.5,-235.7871 262.5,-258.7871 496.5,-258.7871 496.5,-235.7871 262.5,-235.7871"/>
<polygon fill="none" stroke="#000000" points="262.5,-235.7871 262.5,-258.7871 496.5,-258.7871 496.5,-235.7871 262.5,-235.7871"/>
<text text-anchor="start" x="267.5" y="-244.3871" font-family="Helvetica,sans-Serif" font-weight="bold" font-size="11.00" fill="#000000">sccs_exposures_outcome_set</text>
<text text-anchor="start" x="462.0219" y="-243.8871" font-family="Helvetica,sans-Serif" font-size="11.00" fill="#000000">[table]</text>
<polygon fill="none" stroke="#000000" points="262.5,-213.7871 262.5,-235.7871 496.5,-235.7871 496.5,-213.7871 262.5,-213.7871"/>
<image xlink:href="../../images/primaryKeys.png" width="11px" height="12px" preserveAspectRatio="xMinYMin meet" x="267.5" y="-230.787"/>
<text text-anchor="start" x="291.5" y="-220.8871" font-family="Helvetica,sans-Serif" font-size="11.00" fill="#000000">exposures_outcome_set_id</text>
<polygon fill="none" stroke="#000000" points="262.5,-191.7871 262.5,-213.7871 496.5,-213.7871 496.5,-191.7871 262.5,-191.7871"/>
<image xlink:href="../../images/foreignKeys.png" width="11px" height="12px" preserveAspectRatio="xMinYMin meet" x="267.5" y="-208.787"/>
<text text-anchor="start" x="291.5" y="-198.8871" font-family="Helvetica,sans-Serif" font-size="11.00" fill="#000000">nesting_cohort_id</text>
<polygon fill="none" stroke="#000000" points="262.5,-172.7871 262.5,-191.7871 496.5,-191.7871 496.5,-172.7871 262.5,-172.7871"/>
<text text-anchor="start" x="265.5" y="-178.8871" font-family="Helvetica,sans-Serif" font-size="11.00" fill="#000000">...</text>
<polygon fill="#ffffff" stroke="transparent" points="262.5,-153.7871 262.5,-172.7871 357.5,-172.7871 357.5,-153.7871 262.5,-153.7871"/>
<polygon fill="none" stroke="#000000" points="262.5,-153.7871 262.5,-172.7871 357.5,-172.7871 357.5,-153.7871 262.5,-153.7871"/>
<text text-anchor="start" x="265.5" y="-159.8871" font-family="Helvetica,sans-Serif" font-size="11.00" fill="#000000">&lt; 3</text>
<polygon fill="#ffffff" stroke="transparent" points="357.5,-153.7871 357.5,-172.7871 432.5,-172.7871 432.5,-153.7871 357.5,-153.7871"/>
<polygon fill="none" stroke="#000000" points="357.5,-153.7871 357.5,-172.7871 432.5,-172.7871 432.5,-153.7871 357.5,-153.7871"/>
<text text-anchor="start" x="397.1105" y="-159.8871" font-family="Helvetica,sans-Serif" font-size="11.00" fill="#000000">0 rows</text>
<polygon fill="#ffffff" stroke="transparent" points="432.5,-153.7871 432.5,-172.7871 496.5,-172.7871 496.5,-153.7871 432.5,-153.7871"/>
<polygon fill="none" stroke="#000000" points="432.5,-153.7871 432.5,-172.7871 496.5,-172.7871 496.5,-153.7871 432.5,-153.7871"/>
<text text-anchor="start" x="471.7904" y="-159.8871" font-family="Helvetica,sans-Serif" font-size="11.00" fill="#000000">10 &gt;</text>
</a>
</g>
</g>
<!-- sccs_diagnostics_summary&#45;&gt;sccs_exposures_outcome_set -->
<g id="edge7" class="edge">
<title>sccs_diagnostics_summary:w&#45;&gt;sccs_exposures_outcome_set:e</title>
<path fill="none" stroke="#000000" d="M538.6513,-471.1378C455.5369,-449.6206 604.137,-224.7871 496.5,-224.7871"/>
<polygon fill="#000000" stroke="#000000" points="545.0523,-471.8735 552.5889,-476.3635 549.0262,-472.3303 553,-472.7871 553,-472.7871 553,-472.7871 549.0262,-472.3303 553.4111,-469.2106 545.0523,-471.8735 545.0523,-471.8735"/>
<ellipse fill="none" stroke="#000000" cx="541.8733" cy="-471.5081" rx="3.2" ry="3.2"/>
</g>
<!-- sccs_exposures_outcome_set&#45;&gt;sccs_covariate -->
<g id="edge8" class="edge">
<title>sccs_exposures_outcome_set:w&#45;&gt;sccs_covariate:e</title>
<path fill="none" stroke="#000000" d="M252.0836,-227.1434C189.6162,-258.57 287.0041,-593.7871 208,-593.7871"/>
<polygon fill="#000000" stroke="#000000" points="260.8371,-221.0622 262.6023,-228.865 261.0417,-229.2181 259.2766,-221.4152 260.8371,-221.0622"/>
<polyline fill="none" stroke="#000000" points="262.5,-224.7871 258.5986,-225.6697 "/>
<ellipse fill="none" stroke="#000000" cx="255.4774" cy="-226.3758" rx="3.2" ry="3.2"/>
</g>
<!-- sccs_result -->
<g id="node6" class="node">
<title>sccs_result</title>
<g id="a_node6"><a xlink:href="../../tables/sccs_result.html" xlink:title="sccs_result" target="_top">
<polygon fill="#ffffff" stroke="transparent" points="900,-600.2871 900,-749.2871 1122,-749.2871 1122,-600.2871 900,-600.2871"/>
<polygon fill="#f5f5f5" stroke="transparent" points="900,-725.7871 900,-748.7871 1122,-748.7871 1122,-725.7871 900,-725.7871"/>
<polygon fill="none" stroke="#000000" points="900,-725.7871 900,-748.7871 1122,-748.7871 1122,-725.7871 900,-725.7871"/>
<text text-anchor="start" x="905" y="-734.3871" font-family="Helvetica,sans-Serif" font-weight="bold" font-size="11.00" fill="#000000">sccs_result</text>
<text text-anchor="start" x="1087.0437" y="-733.8871" font-family="Helvetica,sans-Serif" font-size="11.00" fill="#000000">[table]</text>
<polygon fill="none" stroke="#000000" points="900,-703.7871 900,-725.7871 1122,-725.7871 1122,-703.7871 900,-703.7871"/>
<image xlink:href="../../images/foreignKeys.png" width="11px" height="12px" preserveAspectRatio="xMinYMin meet" x="905" y="-720.787"/>
<text text-anchor="start" x="920" y="-710.8871" font-family="Helvetica,sans-Serif" font-size="11.00" fill="#000000">analysis_id</text>
<polygon fill="none" stroke="#000000" points="900,-681.7871 900,-703.7871 1122,-703.7871 1122,-681.7871 900,-681.7871"/>
<image xlink:href="../../images/foreignKeys.png" width="11px" height="12px" preserveAspectRatio="xMinYMin meet" x="905" y="-698.787"/>
<text text-anchor="start" x="920" y="-688.8871" font-family="Helvetica,sans-Serif" font-size="11.00" fill="#000000">covariate_id</text>
<polygon fill="none" stroke="#000000" points="900,-659.7871 900,-681.7871 1122,-681.7871 1122,-659.7871 900,-659.7871"/>
<image xlink:href="../../images/foreignKeys.png" width="11px" height="12px" preserveAspectRatio="xMinYMin meet" x="905" y="-676.787"/>
<text text-anchor="start" x="920" y="-666.8871" font-family="Helvetica,sans-Serif" font-size="11.00" fill="#000000">database_id</text>
<polygon fill="none" stroke="#000000" points="900,-637.7871 900,-659.7871 1122,-659.7871 1122,-637.7871 900,-637.7871"/>
<image xlink:href="../../images/foreignKeys.png" width="11px" height="12px" preserveAspectRatio="xMinYMin meet" x="905" y="-654.787"/>
<text text-anchor="start" x="920" y="-644.8871" font-family="Helvetica,sans-Serif" font-size="11.00" fill="#000000">exposures_outcome_set_id</text>
<polygon fill="none" stroke="#000000" points="900,-618.7871 900,-637.7871 1122,-637.7871 1122,-618.7871 900,-618.7871"/>
<text text-anchor="start" x="903" y="-624.8871" font-family="Helvetica,sans-Serif" font-size="11.00" fill="#000000">...</text>
<polygon fill="#ffffff" stroke="transparent" points="900,-599.7871 900,-618.7871 999,-618.7871 999,-599.7871 900,-599.7871"/>
<polygon fill="none" stroke="#000000" points="900,-599.7871 900,-618.7871 999,-618.7871 999,-599.7871 900,-599.7871"/>
<text text-anchor="start" x="903" y="-605.8871" font-family="Helvetica,sans-Serif" font-size="11.00" fill="#000000">&lt; 12</text>
<polygon fill="#ffffff" stroke="transparent" points="999,-599.7871 999,-618.7871 1073,-618.7871 1073,-599.7871 999,-599.7871"/>
<polygon fill="none" stroke="#000000" points="999,-599.7871 999,-618.7871 1073,-618.7871 1073,-599.7871 999,-599.7871"/>
<text text-anchor="start" x="1037.6105" y="-605.8871" font-family="Helvetica,sans-Serif" font-size="11.00" fill="#000000">0 rows</text>
<polygon fill="#ffffff" stroke="transparent" points="1073,-599.7871 1073,-618.7871 1122,-618.7871 1122,-599.7871 1073,-599.7871"/>
<polygon fill="none" stroke="#000000" points="1073,-599.7871 1073,-618.7871 1122,-618.7871 1122,-599.7871 1073,-599.7871"/>
<text text-anchor="start" x="1112.8862" y="-605.8871" font-family="Helvetica,sans-Serif" font-size="11.00" fill="#000000"> &#160;</text>
</a>
</g>
</g>
<!-- sccs_result&#45;&gt;sccs_diagnostics_summary -->
<g id="edge11" class="edge">
<title>sccs_result:w&#45;&gt;sccs_diagnostics_summary:e</title>
<path fill="none" stroke="#000000" d="M885.276,-714.7871C873.2815,-714.7871 865.8229,-714.7871 849,-714.7871"/>
<polygon fill="#000000" stroke="#000000" points="892,-714.7871 900,-718.3871 896,-714.7871 900,-714.7871 900,-714.7871 900,-714.7871 896,-714.7871 900,-711.1871 892,-714.7871 892,-714.7871"/>
<ellipse fill="none" stroke="#000000" cx="888.8" cy="-714.7872" rx="3.2" ry="3.2"/>
</g>
<!-- sccs_result&#45;&gt;sccs_diagnostics_summary -->
<g id="edge13" class="edge">
<title>sccs_result:w&#45;&gt;sccs_diagnostics_summary:e</title>
<path fill="none" stroke="#000000" d="M885.276,-692.7871C873.2815,-692.7871 865.8229,-692.7871 849,-692.7871"/>
<polygon fill="#000000" stroke="#000000" points="892,-692.7871 900,-696.3871 896,-692.7871 900,-692.7871 900,-692.7871 900,-692.7871 896,-692.7871 900,-689.1871 892,-692.7871 892,-692.7871"/>
<ellipse fill="none" stroke="#000000" cx="888.8" cy="-692.7872" rx="3.2" ry="3.2"/>
</g>
<!-- sccs_result&#45;&gt;sccs_diagnostics_summary -->
<g id="edge16" class="edge">
<title>sccs_result:w&#45;&gt;sccs_diagnostics_summary:e</title>
<path fill="none" stroke="#000000" d="M885.276,-670.7871C873.2815,-670.7871 865.8229,-670.7871 849,-670.7871"/>
<polygon fill="#000000" stroke="#000000" points="892,-670.7871 900,-674.3871 896,-670.7871 900,-670.7871 900,-670.7871 900,-670.7871 896,-670.7871 900,-667.1871 892,-670.7871 892,-670.7871"/>
<ellipse fill="none" stroke="#000000" cx="888.8" cy="-670.7872" rx="3.2" ry="3.2"/>
</g>
<!-- sccs_result&#45;&gt;sccs_diagnostics_summary -->
<g id="edge18" class="edge">
<title>sccs_result:w&#45;&gt;sccs_diagnostics_summary:e</title>
<path fill="none" stroke="#000000" d="M885.5541,-646.2991C833.3373,-624.9072 924.7139,-472.7871 849,-472.7871"/>
<polygon fill="#000000" stroke="#000000" points="892.1161,-647.4292 899.389,-652.3349 896.058,-648.1081 900,-648.7871 900,-648.7871 900,-648.7871 896.058,-648.1081 900.611,-645.2393 892.1161,-647.4292 892.1161,-647.4292"/>
<ellipse fill="none" stroke="#000000" cx="888.9625" cy="-646.8861" rx="3.2" ry="3.2"/>
</g>
<!-- sccs_result&#45;&gt;sccs_analysis -->
<g id="edge9" class="edge">
<title>sccs_result:w&#45;&gt;sccs_analysis:e</title>
<path fill="none" stroke="#000000" d="M886.3747,-719.565C875.7878,-729.6504 878.517,-752.9132 859,-761.7871 731.1505,-819.9175 682.8199,-775.0172 543,-761.7871 498.1789,-757.546 488.5213,-742.7871 443.5,-742.7871"/>
<polygon fill="#000000" stroke="#000000" points="892.4507,-717.4344 901.1913,-718.1843 896.2253,-716.1107 900,-714.7871 900,-714.7871 900,-714.7871 896.2253,-716.1107 898.8087,-711.3899 892.4507,-717.4344 892.4507,-717.4344"/>
<ellipse fill="none" stroke="#000000" cx="889.431" cy="-718.4933" rx="3.2" ry="3.2"/>
</g>
<!-- sccs_result&#45;&gt;sccs_covariate -->
<g id="edge10" class="edge">
<title>sccs_result:w&#45;&gt;sccs_covariate:e</title>
<path fill="none" stroke="#000000" d="M885.7887,-718.2788C863.621,-732.8844 892.8286,-789.3594 859,-811.7871 746.0191,-886.6912 356.6122,-894.2184 249,-811.7871 193.4536,-769.2383 277.97,-659.7871 208,-659.7871"/>
<polygon fill="#000000" stroke="#000000" points="892.2311,-716.6959 900.859,-718.2831 896.1155,-715.7415 900,-714.7871 900,-714.7871 900,-714.7871 896.1155,-715.7415 899.141,-711.2911 892.2311,-716.6959 892.2311,-716.6959"/>
<ellipse fill="none" stroke="#000000" cx="889.1235" cy="-717.4595" rx="3.2" ry="3.2"/>
</g>
<!-- sccs_result&#45;&gt;sccs_covariate -->
<g id="edge12" class="edge">
<title>sccs_result:w&#45;&gt;sccs_covariate:e</title>
<path fill="none" stroke="#000000" d="M885.9311,-696.3273C864.8063,-710.6291 891.6048,-764.3952 859,-785.7871 830.6651,-804.3775 275.9377,-808.3499 249,-787.7871 194.0643,-745.8519 277.1122,-637.7871 208,-637.7871"/>
<polygon fill="#000000" stroke="#000000" points="892.2418,-694.7393 900.8785,-696.2783 896.1209,-693.7632 900,-692.7871 900,-692.7871 900,-692.7871 896.1209,-693.7632 899.1215,-689.2959 892.2418,-694.7393 892.2418,-694.7393"/>
<ellipse fill="none" stroke="#000000" cx="889.1386" cy="-695.5202" rx="3.2" ry="3.2"/>
</g>
<!-- sccs_result&#45;&gt;sccs_covariate -->
<g id="edge15" class="edge">
<title>sccs_result:w&#45;&gt;sccs_covariate:e</title>
<path fill="none" stroke="#000000" d="M888.1183,-661.9297C850.5097,-595.9251 898.5143,-182.3358 859,-145.7871 807.4486,-98.1047 598.6747,-102.9912 543,-145.7871 497.7851,-180.5428 543.4504,-223.5982 510,-269.7871 428.8004,-381.9088 328.4391,-326.4113 249,-439.7871 202.9118,-505.5643 288.3167,-615.7871 208,-615.7871"/>
<polygon fill="#000000" stroke="#000000" points="893.5861,-666.0057 897.8484,-673.6734 896.793,-668.3964 900,-670.7871 900,-670.7871 900,-670.7871 896.793,-668.3964 902.1516,-667.9008 893.5861,-666.0057 893.5861,-666.0057"/>
<ellipse fill="none" stroke="#000000" cx="891.0205" cy="-664.0932" rx="3.2" ry="3.2"/>
</g>
<!-- sccs_result&#45;&gt;sccs_covariate -->
<g id="edge17" class="edge">
<title>sccs_result:w&#45;&gt;sccs_covariate:e</title>
<path fill="none" stroke="#000000" d="M888.0296,-640.5536C846.4429,-573.7907 901.7417,-122.5446 859,-82.7871 759.2505,9.9981 339.7002,-42.1381 249,-143.7871 182.1463,-218.711 308.4142,-593.7871 208,-593.7871"/>
<polygon fill="#000000" stroke="#000000" points="893.4087,-644.2534 897.9598,-651.7532 896.7043,-646.5202 900,-648.7871 900,-648.7871 900,-648.7871 896.7043,-646.5202 902.0402,-645.821 893.4087,-644.2534 893.4087,-644.2534"/>
<ellipse fill="none" stroke="#000000" cx="890.7721" cy="-642.4399" rx="3.2" ry="3.2"/>
</g>
<!-- sccs_result&#45;&gt;database_meta_data -->
<g id="edge14" class="edge">
<title>sccs_result:w&#45;&gt;database_meta_data:e</title>
<path fill="none" stroke="#000000" d="M888.3317,-661.8748C852.4253,-597.2267 896.9195,-201.7471 859,-166.7871 833.1858,-142.9876 569.2875,-143.5114 543,-166.7871 487.3534,-216.058 576.8247,-498.7871 502.5,-498.7871"/>
<polygon fill="#000000" stroke="#000000" points="893.6424,-665.9311 897.8148,-673.648 896.8212,-668.3591 900,-670.7871 900,-670.7871 900,-670.7871 896.8212,-668.3591 902.1852,-667.9261 893.6424,-665.9311 893.6424,-665.9311"/>
<ellipse fill="none" stroke="#000000" cx="891.0993" cy="-663.9887" rx="3.2" ry="3.2"/>
</g>
<!-- sccs_result&#45;&gt;sccs_exposures_outcome_set -->
<g id="edge19" class="edge">
<title>sccs_result:w&#45;&gt;sccs_exposures_outcome_set:e</title>
<path fill="none" stroke="#000000" d="M888.193,-640.2171C849.6426,-574.5722 899.1763,-152.9916 859,-115.7871 807.4764,-68.0746 601.5923,-77.0817 543,-115.7871 499.0542,-144.8172 549.1685,-224.7871 496.5,-224.7871"/>
<polygon fill="#000000" stroke="#000000" points="893.5257,-644.0878 897.8853,-651.7005 896.7628,-646.4374 900,-648.7871 900,-648.7871 900,-648.7871 896.7628,-646.4374 902.1147,-645.8736 893.5257,-644.0878 893.5257,-644.0878"/>
<ellipse fill="none" stroke="#000000" cx="890.936" cy="-642.208" rx="3.2" ry="3.2"/>
</g>
</g>
</svg>
