<?xml version="1.0" encoding="UTF-8" standalone="no"?>
<!DOCTYPE svg PUBLIC "-//W3C//DTD SVG 1.1//EN"
 "http://www.w3.org/Graphics/SVG/1.1/DTD/svg11.dtd">
<!-- Generated by graphviz version 2.40.1 (20161225.0304)
 -->
<!-- Title: twoDegreesRelationshipsDiagram Pages: 1 -->
<svg width="724pt" height="458pt"
 viewBox="0.00 0.00 724.00 458.11" xmlns="http://www.w3.org/2000/svg" xmlns:xlink="http://www.w3.org/1999/xlink">
<g id="graph0" class="graph" transform="scale(1 1) rotate(0) translate(4 454.1092)">
<title>twoDegreesRelationshipsDiagram</title>
<polygon fill="#ffffff" stroke="transparent" points="-4,4 -4,-454.1092 720,-454.1092 720,4 -4,4"/>
<text text-anchor="middle" x="72.4936" y="-7.3" font-family="Helvetica,sans-Serif" font-size="11.00" fill="#000000">Generated by SchemaSpy</text>
<!-- sccs_covariate_result -->
<g id="node1" class="node">
<title>sccs_covariate_result</title>
<g id="a_node1"><a xlink:href="../../tables/sccs_covariate_result.html" xlink:title="sccs_covariate_result" target="_top">
<polygon fill="#ffffff" stroke="transparent" points="508,-187.3729 508,-336.3729 708,-336.3729 708,-187.3729 508,-187.3729"/>
<polygon fill="#f5f5f5" stroke="transparent" points="508,-312.8729 508,-335.8729 708,-335.8729 708,-312.8729 508,-312.8729"/>
<polygon fill="none" stroke="#000000" points="508,-312.8729 508,-335.8729 708,-335.8729 708,-312.8729 508,-312.8729"/>
<text text-anchor="start" x="513" y="-321.4729" font-family="Helvetica,sans-Serif" font-weight="bold" font-size="11.00" fill="#000000">sccs_covariate_result</text>
<text text-anchor="start" x="673.0437" y="-320.9729" font-family="Helvetica,sans-Serif" font-size="11.00" fill="#000000">[table]</text>
<polygon fill="none" stroke="#000000" points="508,-290.8729 508,-312.8729 708,-312.8729 708,-290.8729 508,-290.8729"/>
<image xlink:href="../../images/foreignKeys.png" width="11px" height="12px" preserveAspectRatio="xMinYMin meet" x="513" y="-307.873"/>
<text text-anchor="start" x="528" y="-297.9729" font-family="Helvetica,sans-Serif" font-size="11.00" fill="#000000">analysis_id</text>
<polygon fill="none" stroke="#000000" points="508,-268.8729 508,-290.8729 708,-290.8729 708,-268.8729 508,-268.8729"/>
<image xlink:href="../../images/foreignKeys.png" width="11px" height="12px" preserveAspectRatio="xMinYMin meet" x="513" y="-285.873"/>
<text text-anchor="start" x="528" y="-275.9729" font-family="Helvetica,sans-Serif" font-size="11.00" fill="#000000">covariate_id</text>
<polygon fill="none" stroke="#000000" points="508,-246.8729 508,-268.8729 708,-268.8729 708,-246.8729 508,-246.8729"/>
<image xlink:href="../../images/foreignKeys.png" width="11px" height="12px" preserveAspectRatio="xMinYMin meet" x="513" y="-263.873"/>
<text text-anchor="start" x="528" y="-253.9729" font-family="Helvetica,sans-Serif" font-size="11.00" fill="#000000">database_id</text>
<polygon fill="none" stroke="#000000" points="508,-224.8729 508,-246.8729 708,-246.8729 708,-224.8729 508,-224.8729"/>
<image xlink:href="../../images/foreignKeys.png" width="11px" height="12px" preserveAspectRatio="xMinYMin meet" x="513" y="-241.873"/>
<text text-anchor="start" x="528" y="-231.9729" font-family="Helvetica,sans-Serif" font-size="11.00" fill="#000000">exposures_outcome_set_id</text>
<polygon fill="none" stroke="#000000" points="508,-205.8729 508,-224.8729 708,-224.8729 708,-205.8729 508,-205.8729"/>
<text text-anchor="start" x="511" y="-211.9729" font-family="Helvetica,sans-Serif" font-size="11.00" fill="#000000">...</text>
<polygon fill="#ffffff" stroke="transparent" points="508,-186.8729 508,-205.8729 593,-205.8729 593,-186.8729 508,-186.8729"/>
<polygon fill="none" stroke="#000000" points="508,-186.8729 508,-205.8729 593,-205.8729 593,-186.8729 508,-186.8729"/>
<text text-anchor="start" x="511" y="-192.9729" font-family="Helvetica,sans-Serif" font-size="11.00" fill="#000000">&lt; 8</text>
<polygon fill="#ffffff" stroke="transparent" points="593,-186.8729 593,-205.8729 663,-205.8729 663,-186.8729 593,-186.8729"/>
<polygon fill="none" stroke="#000000" points="593,-186.8729 593,-205.8729 663,-205.8729 663,-186.8729 593,-186.8729"/>
<text text-anchor="start" x="627.6105" y="-192.9729" font-family="Helvetica,sans-Serif" font-size="11.00" fill="#000000">0 rows</text>
<polygon fill="#ffffff" stroke="transparent" points="663,-186.8729 663,-205.8729 708,-205.8729 708,-186.8729 663,-186.8729"/>
<polygon fill="none" stroke="#000000" points="663,-186.8729 663,-205.8729 708,-205.8729 708,-186.8729 663,-186.8729"/>
<text text-anchor="start" x="698.8862" y="-192.9729" font-family="Helvetica,sans-Serif" font-size="11.00" fill="#000000"> &#160;</text>
</a>
</g>
</g>
<!-- sccs_covariate -->
<g id="node2" class="node">
<title>sccs_covariate</title>
<g id="a_node2"><a xlink:href="../../tables/sccs_covariate.html" xlink:title="sccs_covariate" target="_top">
<polygon fill="#ffffff" stroke="transparent" points="8,-130.3729 8,-191.3729 144,-191.3729 144,-130.3729 8,-130.3729"/>
<polygon fill="#f5f5f5" stroke="transparent" points="8,-167.8729 8,-190.8729 144,-190.8729 144,-167.8729 8,-167.8729"/>
<polygon fill="none" stroke="#000000" points="8,-167.8729 8,-190.8729 144,-190.8729 144,-167.8729 8,-167.8729"/>
<text text-anchor="start" x="13" y="-176.4729" font-family="Helvetica,sans-Serif" font-weight="bold" font-size="11.00" fill="#000000">sccs_covariate</text>
<text text-anchor="start" x="109.5219" y="-175.9729" font-family="Helvetica,sans-Serif" font-size="11.00" fill="#000000">[table]</text>
<polygon fill="none" stroke="#000000" points="8,-148.8729 8,-167.8729 144,-167.8729 144,-148.8729 8,-148.8729"/>
<text text-anchor="start" x="11" y="-154.9729" font-family="Helvetica,sans-Serif" font-size="11.00" fill="#000000">...</text>
<polygon fill="#ffffff" stroke="transparent" points="8,-129.8729 8,-148.8729 49,-148.8729 49,-129.8729 8,-129.8729"/>
<polygon fill="none" stroke="#000000" points="8,-129.8729 8,-148.8729 49,-148.8729 49,-129.8729 8,-129.8729"/>
<text text-anchor="start" x="11" y="-135.9729" font-family="Helvetica,sans-Serif" font-size="11.00" fill="#000000"> &#160;</text>
<polygon fill="#ffffff" stroke="transparent" points="49,-129.8729 49,-148.8729 102,-148.8729 102,-129.8729 49,-129.8729"/>
<polygon fill="none" stroke="#000000" points="49,-129.8729 49,-148.8729 102,-148.8729 102,-129.8729 49,-129.8729"/>
<text text-anchor="start" x="66.6105" y="-135.9729" font-family="Helvetica,sans-Serif" font-size="11.00" fill="#000000">0 rows</text>
<polygon fill="#ffffff" stroke="transparent" points="102,-129.8729 102,-148.8729 144,-148.8729 144,-129.8729 102,-129.8729"/>
<polygon fill="none" stroke="#000000" points="102,-129.8729 102,-148.8729 144,-148.8729 144,-129.8729 102,-129.8729"/>
<text text-anchor="start" x="119.2904" y="-135.9729" font-family="Helvetica,sans-Serif" font-size="11.00" fill="#000000">13 &gt;</text>
</a>
</g>
</g>
<!-- sccs_covariate_result&#45;&gt;sccs_covariate -->
<g id="edge1" class="edge">
<title>sccs_covariate_result:w&#45;&gt;sccs_covariate:e</title>
<path fill="none" stroke="#000000" d="M493.7626,-305.5766C473.2944,-320.0373 499.2677,-372.9262 467,-393.8729 361.8746,-462.1158 280.9093,-474.5566 185,-393.8729 103.5332,-325.339 250.46,-157.8729 144,-157.8729"/>
<polygon fill="#000000" stroke="#000000" points="500.2577,-303.887 508.9063,-305.357 504.1288,-302.88 508,-301.8729 508,-301.8729 508,-301.8729 504.1288,-302.88 507.0937,-298.3889 500.2577,-303.887 500.2577,-303.887"/>
<ellipse fill="none" stroke="#000000" cx="497.1607" cy="-304.6927" rx="3.2" ry="3.2"/>
</g>
<!-- sccs_covariate_result&#45;&gt;sccs_covariate -->
<g id="edge3" class="edge">
<title>sccs_covariate_result:w&#45;&gt;sccs_covariate:e</title>
<path fill="none" stroke="#000000" d="M493.8741,-283.5379C473.5236,-297.8476 499.0176,-350.1812 467,-370.8729 440.6839,-387.88 209.1594,-390.8254 185,-370.8729 110.6679,-309.4843 240.4045,-157.8729 144,-157.8729"/>
<polygon fill="#000000" stroke="#000000" points="500.2564,-281.8821 508.9041,-283.3576 504.1282,-280.8775 508,-279.8729 508,-279.8729 508,-279.8729 504.1282,-280.8775 507.0959,-276.3883 500.2564,-281.8821 500.2564,-281.8821"/>
<ellipse fill="none" stroke="#000000" cx="497.1589" cy="-282.6857" rx="3.2" ry="3.2"/>
</g>
<!-- sccs_covariate_result&#45;&gt;sccs_covariate -->
<g id="edge4" class="edge">
<title>sccs_covariate_result:w&#45;&gt;sccs_covariate:e</title>
<path fill="none" stroke="#000000" d="M493.872,-254.0662C474.9526,-240.1444 497.0698,-191.7729 467,-171.8729 407.0868,-132.2228 215.8452,-157.8729 144,-157.8729"/>
<polygon fill="#000000" stroke="#000000" points="500.2755,-255.7916 507.0634,-261.349 504.1377,-256.8322 508,-257.8729 508,-257.8729 508,-257.8729 504.1377,-256.8322 508.9366,-254.3969 500.2755,-255.7916 500.2755,-255.7916"/>
<ellipse fill="none" stroke="#000000" cx="497.1857" cy="-254.959" rx="3.2" ry="3.2"/>
</g>
<!-- sccs_covariate_result&#45;&gt;sccs_covariate -->
<g id="edge6" class="edge">
<title>sccs_covariate_result:w&#45;&gt;sccs_covariate:e</title>
<path fill="none" stroke="#000000" d="M493.4688,-233.9951C442.2577,-218.2462 524.7893,-107.6278 467,-61.8729 417.8686,-22.9729 237.295,-27.3426 185,-61.8729 146.2836,-87.4373 190.395,-157.8729 144,-157.8729"/>
<polygon fill="#000000" stroke="#000000" points="500.066,-234.8476 507.5386,-239.4432 504.033,-235.3603 508,-235.8729 508,-235.8729 508,-235.8729 504.033,-235.3603 508.4614,-232.3026 500.066,-234.8476 500.066,-234.8476"/>
<ellipse fill="none" stroke="#000000" cx="496.8924" cy="-234.4374" rx="3.2" ry="3.2"/>
</g>
<!-- sccs_era -->
<g id="node3" class="node">
<title>sccs_era</title>
<g id="a_node3"><a xlink:href="../../tables/sccs_era.html" xlink:title="sccs_era" target="_top">
<polygon fill="#ffffff" stroke="transparent" points="193,-181.8729 193,-359.8729 459,-359.8729 459,-181.8729 193,-181.8729"/>
<polygon fill="#f5f5f5" stroke="transparent" points="195,-334.8729 195,-357.8729 457,-357.8729 457,-334.8729 195,-334.8729"/>
<polygon fill="none" stroke="#000000" points="195,-334.8729 195,-357.8729 457,-357.8729 457,-334.8729 195,-334.8729"/>
<text text-anchor="start" x="200" y="-343.4729" font-family="Helvetica,sans-Serif" font-weight="bold" font-size="11.00" fill="#000000">sccs_era</text>
<text text-anchor="start" x="422.0437" y="-342.9729" font-family="Helvetica,sans-Serif" font-size="11.00" fill="#000000">[table]</text>
<polygon fill="none" stroke="#000000" points="195,-312.8729 195,-334.8729 395,-334.8729 395,-312.8729 195,-312.8729"/>
<image xlink:href="../../images/primaryKeys.png" width="11px" height="12px" preserveAspectRatio="xMinYMin meet" x="200" y="-329.873"/>
<text text-anchor="start" x="215" y="-319.9729" font-family="Helvetica,sans-Serif" font-size="11.00" fill="#000000">analysis_id</text>
<polygon fill="none" stroke="#000000" points="395,-312.8729 395,-334.8729 457,-334.8729 457,-312.8729 395,-312.8729"/>
<text text-anchor="start" x="397.878" y="-320.5729" font-family="Helvetica,sans-Serif" font-size="11.00" fill="#000000">unknown[0]</text>
<polygon fill="none" stroke="#000000" points="195,-290.8729 195,-312.8729 395,-312.8729 395,-290.8729 195,-290.8729"/>
<image xlink:href="../../images/primaryKeys.png" width="11px" height="12px" preserveAspectRatio="xMinYMin meet" x="200" y="-307.873"/>
<text text-anchor="start" x="215" y="-297.9729" font-family="Helvetica,sans-Serif" font-size="11.00" fill="#000000">database_id</text>
<polygon fill="none" stroke="#000000" points="395,-290.8729 395,-312.8729 457,-312.8729 457,-290.8729 395,-290.8729"/>
<text text-anchor="start" x="397.878" y="-298.5729" font-family="Helvetica,sans-Serif" font-size="11.00" fill="#000000">unknown[0]</text>
<polygon fill="none" stroke="#000000" points="195,-268.8729 195,-290.8729 395,-290.8729 395,-268.8729 195,-268.8729"/>
<text text-anchor="start" x="215" y="-275.9729" font-family="Helvetica,sans-Serif" font-size="11.00" fill="#000000">era_id</text>
<polygon fill="none" stroke="#000000" points="395,-268.8729 395,-290.8729 457,-290.8729 457,-268.8729 395,-268.8729"/>
<text text-anchor="start" x="397.878" y="-276.5729" font-family="Helvetica,sans-Serif" font-size="11.00" fill="#000000">unknown[0]</text>
<polygon fill="none" stroke="#000000" points="195,-246.8729 195,-268.8729 395,-268.8729 395,-246.8729 195,-246.8729"/>
<text text-anchor="start" x="215" y="-253.9729" font-family="Helvetica,sans-Serif" font-size="11.00" fill="#000000">era_name</text>
<polygon fill="none" stroke="#000000" points="395,-246.8729 395,-268.8729 457,-268.8729 457,-246.8729 395,-246.8729"/>
<text text-anchor="start" x="397.878" y="-254.5729" font-family="Helvetica,sans-Serif" font-size="11.00" fill="#000000">unknown[0]</text>
<polygon fill="none" stroke="#000000" points="195,-224.8729 195,-246.8729 395,-246.8729 395,-224.8729 195,-224.8729"/>
<text text-anchor="start" x="215" y="-231.9729" font-family="Helvetica,sans-Serif" font-size="11.00" fill="#000000">era_type</text>
<polygon fill="none" stroke="#000000" points="395,-224.8729 395,-246.8729 457,-246.8729 457,-224.8729 395,-224.8729"/>
<text text-anchor="start" x="397.878" y="-232.5729" font-family="Helvetica,sans-Serif" font-size="11.00" fill="#000000">unknown[0]</text>
<polygon fill="none" stroke="#000000" points="195,-202.8729 195,-224.8729 395,-224.8729 395,-202.8729 195,-202.8729"/>
<image xlink:href="../../images/primaryKeys.png" width="11px" height="12px" preserveAspectRatio="xMinYMin meet" x="200" y="-219.873"/>
<text text-anchor="start" x="215" y="-209.9729" font-family="Helvetica,sans-Serif" font-size="11.00" fill="#000000">exposures_outcome_set_id</text>
<polygon fill="none" stroke="#000000" points="395,-202.8729 395,-224.8729 457,-224.8729 457,-202.8729 395,-202.8729"/>
<text text-anchor="start" x="397.878" y="-210.5729" font-family="Helvetica,sans-Serif" font-size="11.00" fill="#000000">unknown[0]</text>
<polygon fill="#ffffff" stroke="transparent" points="195,-183.8729 195,-202.8729 286,-202.8729 286,-183.8729 195,-183.8729"/>
<polygon fill="none" stroke="#000000" points="195,-183.8729 195,-202.8729 286,-202.8729 286,-183.8729 195,-183.8729"/>
<text text-anchor="start" x="198" y="-189.9729" font-family="Helvetica,sans-Serif" font-size="11.00" fill="#000000">&lt; 0</text>
<polygon fill="#ffffff" stroke="transparent" points="286,-183.8729 286,-202.8729 395,-202.8729 395,-183.8729 286,-183.8729"/>
<polygon fill="none" stroke="#000000" points="286,-183.8729 286,-202.8729 395,-202.8729 395,-183.8729 286,-183.8729"/>
<text text-anchor="start" x="359.6105" y="-189.9729" font-family="Helvetica,sans-Serif" font-size="11.00" fill="#000000">0 rows</text>
<polygon fill="#ffffff" stroke="transparent" points="395,-183.8729 395,-202.8729 457,-202.8729 457,-183.8729 395,-183.8729"/>
<polygon fill="none" stroke="#000000" points="395,-183.8729 395,-202.8729 457,-202.8729 457,-183.8729 395,-183.8729"/>
<text text-anchor="start" x="438.4053" y="-189.9729" font-family="Helvetica,sans-Serif" font-size="11.00" fill="#000000">3 &gt;</text>
<polygon fill="none" stroke="#000000" stroke-width="2" points="194,-182.8729 194,-358.8729 458,-358.8729 458,-182.8729 194,-182.8729"/>
</a>
</g>
</g>
<!-- sccs_covariate_result&#45;&gt;sccs_era -->
<g id="edge2" class="edge">
<title>sccs_covariate_result:w&#45;&gt;sccs_era:e</title>
<path fill="none" stroke="#000000" d="M493.8489,-304.9319C481.2843,-310.9769 475.9,-323.8729 457,-323.8729"/>
<polygon fill="#000000" stroke="#000000" points="500.1806,-303.5633 508.7607,-305.3917 504.0903,-302.7181 508,-301.8729 508,-301.8729 508,-301.8729 504.0903,-302.7181 507.2393,-298.3542 500.1806,-303.5633 500.1806,-303.5633"/>
<ellipse fill="none" stroke="#000000" cx="497.0528" cy="-304.2394" rx="3.2" ry="3.2"/>
</g>
<!-- sccs_covariate_result&#45;&gt;sccs_era -->
<g id="edge5" class="edge">
<title>sccs_covariate_result:w&#45;&gt;sccs_era:e</title>
<path fill="none" stroke="#000000" d="M493.9107,-262.5817C480.0669,-273.9325 480.8557,-301.8729 457,-301.8729"/>
<polygon fill="#000000" stroke="#000000" points="500.4125,-260.4088 509.1411,-261.2873 504.2063,-259.1409 508,-257.8729 508,-257.8729 508,-257.8729 504.2063,-259.1409 506.8589,-254.4586 500.4125,-260.4088 500.4125,-260.4088"/>
<ellipse fill="none" stroke="#000000" cx="497.3775" cy="-261.4231" rx="3.2" ry="3.2"/>
</g>
<!-- sccs_covariate_result&#45;&gt;sccs_era -->
<g id="edge7" class="edge">
<title>sccs_covariate_result:w&#45;&gt;sccs_era:e</title>
<path fill="none" stroke="#000000" d="M493.8489,-232.8139C481.2843,-226.7689 475.9,-213.8729 457,-213.8729"/>
<polygon fill="#000000" stroke="#000000" points="500.1806,-234.1826 507.2393,-239.3917 504.0903,-235.0278 508,-235.8729 508,-235.8729 508,-235.8729 504.0903,-235.0278 508.7607,-232.3542 500.1806,-234.1826 500.1806,-234.1826"/>
<ellipse fill="none" stroke="#000000" cx="497.0528" cy="-233.5065" rx="3.2" ry="3.2"/>
</g>
<!-- sccs_exposures_outcome_set -->
<g id="node4" class="node">
<title>sccs_exposures_outcome_set</title>
<g id="a_node4"><a xlink:href="../../tables/sccs_exposures_outcome_set.html" xlink:title="sccs_exposures_outcome_set" target="_top">
<polygon fill="#ffffff" stroke="transparent" points="209,-72.3729 209,-133.3729 443,-133.3729 443,-72.3729 209,-72.3729"/>
<polygon fill="#f5f5f5" stroke="transparent" points="209,-109.8729 209,-132.8729 443,-132.8729 443,-109.8729 209,-109.8729"/>
<polygon fill="none" stroke="#000000" points="209,-109.8729 209,-132.8729 443,-132.8729 443,-109.8729 209,-109.8729"/>
<text text-anchor="start" x="214" y="-118.4729" font-family="Helvetica,sans-Serif" font-weight="bold" font-size="11.00" fill="#000000">sccs_exposures_outcome_set</text>
<text text-anchor="start" x="408.5219" y="-117.9729" font-family="Helvetica,sans-Serif" font-size="11.00" fill="#000000">[table]</text>
<polygon fill="none" stroke="#000000" points="209,-90.8729 209,-109.8729 443,-109.8729 443,-90.8729 209,-90.8729"/>
<text text-anchor="start" x="212" y="-96.9729" font-family="Helvetica,sans-Serif" font-size="11.00" fill="#000000">...</text>
<polygon fill="#ffffff" stroke="transparent" points="209,-71.8729 209,-90.8729 304,-90.8729 304,-71.8729 209,-71.8729"/>
<polygon fill="none" stroke="#000000" points="209,-71.8729 209,-90.8729 304,-90.8729 304,-71.8729 209,-71.8729"/>
<text text-anchor="start" x="212" y="-77.9729" font-family="Helvetica,sans-Serif" font-size="11.00" fill="#000000">&lt; 3</text>
<polygon fill="#ffffff" stroke="transparent" points="304,-71.8729 304,-90.8729 379,-90.8729 379,-71.8729 304,-71.8729"/>
<polygon fill="none" stroke="#000000" points="304,-71.8729 304,-90.8729 379,-90.8729 379,-71.8729 304,-71.8729"/>
<text text-anchor="start" x="343.6105" y="-77.9729" font-family="Helvetica,sans-Serif" font-size="11.00" fill="#000000">0 rows</text>
<polygon fill="#ffffff" stroke="transparent" points="379,-71.8729 379,-90.8729 443,-90.8729 443,-71.8729 379,-71.8729"/>
<polygon fill="none" stroke="#000000" points="379,-71.8729 379,-90.8729 443,-90.8729 443,-71.8729 379,-71.8729"/>
<text text-anchor="start" x="418.2904" y="-77.9729" font-family="Helvetica,sans-Serif" font-size="11.00" fill="#000000">10 &gt;</text>
</a>
</g>
</g>
<!-- sccs_covariate_result&#45;&gt;sccs_exposures_outcome_set -->
<g id="edge8" class="edge">
<title>sccs_covariate_result:w&#45;&gt;sccs_exposures_outcome_set:e</title>
<path fill="none" stroke="#000000" d="M493.8371,-233.1563C451.6352,-213.9884 504.3669,-99.8729 443,-99.8729"/>
<polygon fill="#000000" stroke="#000000" points="500.1432,-234.3659 507.3218,-239.4085 504.0716,-235.1194 508,-235.8729 508,-235.8729 508,-235.8729 504.0716,-235.1194 508.6782,-232.3374 500.1432,-234.3659 500.1432,-234.3659"/>
<ellipse fill="none" stroke="#000000" cx="497.0005" cy="-233.763" rx="3.2" ry="3.2"/>
</g>
<!-- sccs_exposures_outcome_set&#45;&gt;sccs_covariate -->
<g id="edge9" class="edge">
<title>sccs_exposures_outcome_set:w&#45;&gt;sccs_covariate:e</title>
<path fill="none" stroke="#000000" d="M198.6789,-101.5462C172.2806,-111.0559 178.7855,-157.8729 144,-157.8729"/>
<polygon fill="#000000" stroke="#000000" points="207.5701,-96.0525 208.8505,-103.9494 207.2711,-104.2055 205.9908,-96.3086 207.5701,-96.0525"/>
<polyline fill="none" stroke="#000000" points="209,-99.8729 205.0516,-100.5131 "/>
<ellipse fill="none" stroke="#000000" cx="201.8928" cy="-101.0252" rx="3.2" ry="3.2"/>
</g>
</g>
</svg>
