<?xml version="1.0" encoding="UTF-8" standalone="no"?>
<!DOCTYPE svg PUBLIC "-//W3C//DTD SVG 1.1//EN"
 "http://www.w3.org/Graphics/SVG/1.1/DTD/svg11.dtd">
<!-- Generated by graphviz version 2.40.1 (20161225.0304)
 -->
<!-- Title: oneDegreeRelationshipsDiagram Pages: 1 -->
<svg width="312pt" height="690pt"
 viewBox="0.00 0.00 312.00 690.20" xmlns="http://www.w3.org/2000/svg" xmlns:xlink="http://www.w3.org/1999/xlink">
<g id="graph0" class="graph" transform="scale(1 1) rotate(0) translate(4 686.2)">
<title>oneDegreeRelationshipsDiagram</title>
<polygon fill="#ffffff" stroke="transparent" points="-4,4 -4,-686.2 308,-686.2 308,4 -4,4"/>
<text text-anchor="middle" x="72.4936" y="-7.3" font-family="Helvetica,sans-Serif" font-size="11.00" fill="#000000">Generated by SchemaSpy</text>
<!-- sccs_sccs_result -->
<g id="node1" class="node">
<title>sccs_sccs_result</title>
<g id="a_node1"><a xlink:href="../../tables/sccs_sccs_result.html" xlink:title="sccs_sccs_result" target="_top">
<polygon fill="#ffffff" stroke="transparent" points="8,-38.2 8,-678.2 296,-678.2 296,-38.2 8,-38.2"/>
<polygon fill="#f5f5f5" stroke="transparent" points="10,-653.2 10,-676.2 294,-676.2 294,-653.2 10,-653.2"/>
<polygon fill="none" stroke="#000000" points="10,-653.2 10,-676.2 294,-676.2 294,-653.2 10,-653.2"/>
<text text-anchor="start" x="15" y="-661.8" font-family="Helvetica,sans-Serif" font-weight="bold" font-size="11.00" fill="#000000">sccs_sccs_result</text>
<text text-anchor="start" x="259.0437" y="-661.3" font-family="Helvetica,sans-Serif" font-size="11.00" fill="#000000">[table]</text>
<polygon fill="none" stroke="#000000" points="10,-631.2 10,-653.2 232,-653.2 232,-631.2 10,-631.2"/>
<text text-anchor="start" x="30" y="-638.3" font-family="Helvetica,sans-Serif" font-size="11.00" fill="#000000">analysis_id</text>
<polygon fill="none" stroke="#000000" points="232,-631.2 232,-653.2 294,-653.2 294,-631.2 232,-631.2"/>
<text text-anchor="start" x="234.878" y="-638.9" font-family="Helvetica,sans-Serif" font-size="11.00" fill="#000000">unknown[0]</text>
<polygon fill="none" stroke="#000000" points="10,-609.2 10,-631.2 232,-631.2 232,-609.2 10,-609.2"/>
<text text-anchor="start" x="30" y="-616.3" font-family="Helvetica,sans-Serif" font-size="11.00" fill="#000000">calibrated_ci_95_lb</text>
<polygon fill="none" stroke="#000000" points="232,-609.2 232,-631.2 294,-631.2 294,-609.2 232,-609.2"/>
<text text-anchor="start" x="234.878" y="-616.9" font-family="Helvetica,sans-Serif" font-size="11.00" fill="#000000">unknown[0]</text>
<polygon fill="none" stroke="#000000" points="10,-587.2 10,-609.2 232,-609.2 232,-587.2 10,-587.2"/>
<text text-anchor="start" x="30" y="-594.3" font-family="Helvetica,sans-Serif" font-size="11.00" fill="#000000">calibrated_ci_95_ub</text>
<polygon fill="none" stroke="#000000" points="232,-587.2 232,-609.2 294,-609.2 294,-587.2 232,-587.2"/>
<text text-anchor="start" x="234.878" y="-594.9" font-family="Helvetica,sans-Serif" font-size="11.00" fill="#000000">unknown[0]</text>
<polygon fill="none" stroke="#000000" points="10,-565.2 10,-587.2 232,-587.2 232,-565.2 10,-565.2"/>
<text text-anchor="start" x="30" y="-572.3" font-family="Helvetica,sans-Serif" font-size="11.00" fill="#000000">calibrated_log_rr</text>
<polygon fill="none" stroke="#000000" points="232,-565.2 232,-587.2 294,-587.2 294,-565.2 232,-565.2"/>
<text text-anchor="start" x="234.878" y="-572.9" font-family="Helvetica,sans-Serif" font-size="11.00" fill="#000000">unknown[0]</text>
<polygon fill="none" stroke="#000000" points="10,-543.2 10,-565.2 232,-565.2 232,-543.2 10,-543.2"/>
<text text-anchor="start" x="30" y="-550.3" font-family="Helvetica,sans-Serif" font-size="11.00" fill="#000000">calibrated_one_sided_p</text>
<polygon fill="none" stroke="#000000" points="232,-543.2 232,-565.2 294,-565.2 294,-543.2 232,-543.2"/>
<text text-anchor="start" x="234.878" y="-550.9" font-family="Helvetica,sans-Serif" font-size="11.00" fill="#000000">unknown[0]</text>
<polygon fill="none" stroke="#000000" points="10,-521.2 10,-543.2 232,-543.2 232,-521.2 10,-521.2"/>
<text text-anchor="start" x="30" y="-528.3" font-family="Helvetica,sans-Serif" font-size="11.00" fill="#000000">calibrated_p</text>
<polygon fill="none" stroke="#000000" points="232,-521.2 232,-543.2 294,-543.2 294,-521.2 232,-521.2"/>
<text text-anchor="start" x="234.878" y="-528.9" font-family="Helvetica,sans-Serif" font-size="11.00" fill="#000000">unknown[0]</text>
<polygon fill="none" stroke="#000000" points="10,-499.2 10,-521.2 232,-521.2 232,-499.2 10,-499.2"/>
<text text-anchor="start" x="30" y="-506.3" font-family="Helvetica,sans-Serif" font-size="11.00" fill="#000000">calibrated_rr</text>
<polygon fill="none" stroke="#000000" points="232,-499.2 232,-521.2 294,-521.2 294,-499.2 232,-499.2"/>
<text text-anchor="start" x="234.878" y="-506.9" font-family="Helvetica,sans-Serif" font-size="11.00" fill="#000000">unknown[0]</text>
<polygon fill="none" stroke="#000000" points="10,-477.2 10,-499.2 232,-499.2 232,-477.2 10,-477.2"/>
<text text-anchor="start" x="30" y="-484.3" font-family="Helvetica,sans-Serif" font-size="11.00" fill="#000000">calibrated_se_log_rr</text>
<polygon fill="none" stroke="#000000" points="232,-477.2 232,-499.2 294,-499.2 294,-477.2 232,-477.2"/>
<text text-anchor="start" x="234.878" y="-484.9" font-family="Helvetica,sans-Serif" font-size="11.00" fill="#000000">unknown[0]</text>
<polygon fill="none" stroke="#000000" points="10,-455.2 10,-477.2 232,-477.2 232,-455.2 10,-455.2"/>
<text text-anchor="start" x="30" y="-462.3" font-family="Helvetica,sans-Serif" font-size="11.00" fill="#000000">ci_95_lb</text>
<polygon fill="none" stroke="#000000" points="232,-455.2 232,-477.2 294,-477.2 294,-455.2 232,-455.2"/>
<text text-anchor="start" x="234.878" y="-462.9" font-family="Helvetica,sans-Serif" font-size="11.00" fill="#000000">unknown[0]</text>
<polygon fill="none" stroke="#000000" points="10,-433.2 10,-455.2 232,-455.2 232,-433.2 10,-433.2"/>
<text text-anchor="start" x="30" y="-440.3" font-family="Helvetica,sans-Serif" font-size="11.00" fill="#000000">ci_95_ub</text>
<polygon fill="none" stroke="#000000" points="232,-433.2 232,-455.2 294,-455.2 294,-433.2 232,-433.2"/>
<text text-anchor="start" x="234.878" y="-440.9" font-family="Helvetica,sans-Serif" font-size="11.00" fill="#000000">unknown[0]</text>
<polygon fill="none" stroke="#000000" points="10,-411.2 10,-433.2 232,-433.2 232,-411.2 10,-411.2"/>
<text text-anchor="start" x="30" y="-418.3" font-family="Helvetica,sans-Serif" font-size="11.00" fill="#000000">covariate_days</text>
<polygon fill="none" stroke="#000000" points="232,-411.2 232,-433.2 294,-433.2 294,-411.2 232,-411.2"/>
<text text-anchor="start" x="234.878" y="-418.9" font-family="Helvetica,sans-Serif" font-size="11.00" fill="#000000">unknown[0]</text>
<polygon fill="none" stroke="#000000" points="10,-389.2 10,-411.2 232,-411.2 232,-389.2 10,-389.2"/>
<text text-anchor="start" x="30" y="-396.3" font-family="Helvetica,sans-Serif" font-size="11.00" fill="#000000">covariate_eras</text>
<polygon fill="none" stroke="#000000" points="232,-389.2 232,-411.2 294,-411.2 294,-389.2 232,-389.2"/>
<text text-anchor="start" x="234.878" y="-396.9" font-family="Helvetica,sans-Serif" font-size="11.00" fill="#000000">unknown[0]</text>
<polygon fill="none" stroke="#000000" points="10,-367.2 10,-389.2 232,-389.2 232,-367.2 10,-367.2"/>
<text text-anchor="start" x="30" y="-374.3" font-family="Helvetica,sans-Serif" font-size="11.00" fill="#000000">covariate_id</text>
<polygon fill="none" stroke="#000000" points="232,-367.2 232,-389.2 294,-389.2 294,-367.2 232,-367.2"/>
<text text-anchor="start" x="234.878" y="-374.9" font-family="Helvetica,sans-Serif" font-size="11.00" fill="#000000">unknown[0]</text>
<polygon fill="none" stroke="#000000" points="10,-345.2 10,-367.2 232,-367.2 232,-345.2 10,-345.2"/>
<text text-anchor="start" x="30" y="-352.3" font-family="Helvetica,sans-Serif" font-size="11.00" fill="#000000">covariate_outcomes</text>
<polygon fill="none" stroke="#000000" points="232,-345.2 232,-367.2 294,-367.2 294,-345.2 232,-345.2"/>
<text text-anchor="start" x="234.878" y="-352.9" font-family="Helvetica,sans-Serif" font-size="11.00" fill="#000000">unknown[0]</text>
<polygon fill="none" stroke="#000000" points="10,-323.2 10,-345.2 232,-345.2 232,-323.2 10,-323.2"/>
<text text-anchor="start" x="30" y="-330.3" font-family="Helvetica,sans-Serif" font-size="11.00" fill="#000000">covariate_subjects</text>
<polygon fill="none" stroke="#000000" points="232,-323.2 232,-345.2 294,-345.2 294,-323.2 232,-323.2"/>
<text text-anchor="start" x="234.878" y="-330.9" font-family="Helvetica,sans-Serif" font-size="11.00" fill="#000000">unknown[0]</text>
<polygon fill="none" stroke="#000000" points="10,-301.2 10,-323.2 232,-323.2 232,-301.2 10,-301.2"/>
<text text-anchor="start" x="30" y="-308.3" font-family="Helvetica,sans-Serif" font-size="11.00" fill="#000000">database_id</text>
<polygon fill="none" stroke="#000000" points="232,-301.2 232,-323.2 294,-323.2 294,-301.2 232,-301.2"/>
<text text-anchor="start" x="234.878" y="-308.9" font-family="Helvetica,sans-Serif" font-size="11.00" fill="#000000">unknown[0]</text>
<polygon fill="none" stroke="#000000" points="10,-279.2 10,-301.2 232,-301.2 232,-279.2 10,-279.2"/>
<text text-anchor="start" x="30" y="-286.3" font-family="Helvetica,sans-Serif" font-size="11.00" fill="#000000">exposures_outcome_set_id</text>
<polygon fill="none" stroke="#000000" points="232,-279.2 232,-301.2 294,-301.2 294,-279.2 232,-279.2"/>
<text text-anchor="start" x="234.878" y="-286.9" font-family="Helvetica,sans-Serif" font-size="11.00" fill="#000000">unknown[0]</text>
<polygon fill="none" stroke="#000000" points="10,-257.2 10,-279.2 232,-279.2 232,-257.2 10,-257.2"/>
<text text-anchor="start" x="30" y="-264.3" font-family="Helvetica,sans-Serif" font-size="11.00" fill="#000000">llr</text>
<polygon fill="none" stroke="#000000" points="232,-257.2 232,-279.2 294,-279.2 294,-257.2 232,-257.2"/>
<text text-anchor="start" x="234.878" y="-264.9" font-family="Helvetica,sans-Serif" font-size="11.00" fill="#000000">unknown[0]</text>
<polygon fill="none" stroke="#000000" points="10,-235.2 10,-257.2 232,-257.2 232,-235.2 10,-235.2"/>
<text text-anchor="start" x="30" y="-242.3" font-family="Helvetica,sans-Serif" font-size="11.00" fill="#000000">log_rr</text>
<polygon fill="none" stroke="#000000" points="232,-235.2 232,-257.2 294,-257.2 294,-235.2 232,-235.2"/>
<text text-anchor="start" x="234.878" y="-242.9" font-family="Helvetica,sans-Serif" font-size="11.00" fill="#000000">unknown[0]</text>
<polygon fill="none" stroke="#000000" points="10,-213.2 10,-235.2 232,-235.2 232,-213.2 10,-213.2"/>
<text text-anchor="start" x="30" y="-220.3" font-family="Helvetica,sans-Serif" font-size="11.00" fill="#000000">observed_days</text>
<polygon fill="none" stroke="#000000" points="232,-213.2 232,-235.2 294,-235.2 294,-213.2 232,-213.2"/>
<text text-anchor="start" x="234.878" y="-220.9" font-family="Helvetica,sans-Serif" font-size="11.00" fill="#000000">unknown[0]</text>
<polygon fill="none" stroke="#000000" points="10,-191.2 10,-213.2 232,-213.2 232,-191.2 10,-191.2"/>
<text text-anchor="start" x="30" y="-198.3" font-family="Helvetica,sans-Serif" font-size="11.00" fill="#000000">one_sided_p</text>
<polygon fill="none" stroke="#000000" points="232,-191.2 232,-213.2 294,-213.2 294,-191.2 232,-191.2"/>
<text text-anchor="start" x="234.878" y="-198.9" font-family="Helvetica,sans-Serif" font-size="11.00" fill="#000000">unknown[0]</text>
<polygon fill="none" stroke="#000000" points="10,-169.2 10,-191.2 232,-191.2 232,-169.2 10,-169.2"/>
<text text-anchor="start" x="30" y="-176.3" font-family="Helvetica,sans-Serif" font-size="11.00" fill="#000000">outcome_events</text>
<polygon fill="none" stroke="#000000" points="232,-169.2 232,-191.2 294,-191.2 294,-169.2 232,-169.2"/>
<text text-anchor="start" x="234.878" y="-176.9" font-family="Helvetica,sans-Serif" font-size="11.00" fill="#000000">unknown[0]</text>
<polygon fill="none" stroke="#000000" points="10,-147.2 10,-169.2 232,-169.2 232,-147.2 10,-147.2"/>
<text text-anchor="start" x="30" y="-154.3" font-family="Helvetica,sans-Serif" font-size="11.00" fill="#000000">outcome_observation_periods</text>
<polygon fill="none" stroke="#000000" points="232,-147.2 232,-169.2 294,-169.2 294,-147.2 232,-147.2"/>
<text text-anchor="start" x="234.878" y="-154.9" font-family="Helvetica,sans-Serif" font-size="11.00" fill="#000000">unknown[0]</text>
<polygon fill="none" stroke="#000000" points="10,-125.2 10,-147.2 232,-147.2 232,-125.2 10,-125.2"/>
<text text-anchor="start" x="30" y="-132.3" font-family="Helvetica,sans-Serif" font-size="11.00" fill="#000000">outcome_subjects</text>
<polygon fill="none" stroke="#000000" points="232,-125.2 232,-147.2 294,-147.2 294,-125.2 232,-125.2"/>
<text text-anchor="start" x="234.878" y="-132.9" font-family="Helvetica,sans-Serif" font-size="11.00" fill="#000000">unknown[0]</text>
<polygon fill="none" stroke="#000000" points="10,-103.2 10,-125.2 232,-125.2 232,-103.2 10,-103.2"/>
<text text-anchor="start" x="30" y="-110.3" font-family="Helvetica,sans-Serif" font-size="11.00" fill="#000000">p</text>
<polygon fill="none" stroke="#000000" points="232,-103.2 232,-125.2 294,-125.2 294,-103.2 232,-103.2"/>
<text text-anchor="start" x="234.878" y="-110.9" font-family="Helvetica,sans-Serif" font-size="11.00" fill="#000000">unknown[0]</text>
<polygon fill="none" stroke="#000000" points="10,-81.2 10,-103.2 232,-103.2 232,-81.2 10,-81.2"/>
<text text-anchor="start" x="30" y="-88.3" font-family="Helvetica,sans-Serif" font-size="11.00" fill="#000000">rr</text>
<polygon fill="none" stroke="#000000" points="232,-81.2 232,-103.2 294,-103.2 294,-81.2 232,-81.2"/>
<text text-anchor="start" x="234.878" y="-88.9" font-family="Helvetica,sans-Serif" font-size="11.00" fill="#000000">unknown[0]</text>
<polygon fill="none" stroke="#000000" points="10,-59.2 10,-81.2 232,-81.2 232,-59.2 10,-59.2"/>
<text text-anchor="start" x="30" y="-66.3" font-family="Helvetica,sans-Serif" font-size="11.00" fill="#000000">se_log_rr</text>
<polygon fill="none" stroke="#000000" points="232,-59.2 232,-81.2 294,-81.2 294,-59.2 232,-59.2"/>
<text text-anchor="start" x="234.878" y="-66.9" font-family="Helvetica,sans-Serif" font-size="11.00" fill="#000000">unknown[0]</text>
<polygon fill="#ffffff" stroke="transparent" points="10,-40.2 10,-59.2 112,-59.2 112,-40.2 10,-40.2"/>
<polygon fill="none" stroke="#000000" points="10,-40.2 10,-59.2 112,-59.2 112,-40.2 10,-40.2"/>
<text text-anchor="start" x="13" y="-46.3" font-family="Helvetica,sans-Serif" font-size="11.00" fill="#000000">&lt; 0</text>
<polygon fill="#ffffff" stroke="transparent" points="112,-40.2 112,-59.2 232,-59.2 232,-40.2 112,-40.2"/>
<polygon fill="none" stroke="#000000" points="112,-40.2 112,-59.2 232,-59.2 232,-40.2 112,-40.2"/>
<text text-anchor="start" x="196.6105" y="-46.3" font-family="Helvetica,sans-Serif" font-size="11.00" fill="#000000">0 rows</text>
<polygon fill="#ffffff" stroke="transparent" points="232,-40.2 232,-59.2 294,-59.2 294,-40.2 232,-40.2"/>
<polygon fill="none" stroke="#000000" points="232,-40.2 232,-59.2 294,-59.2 294,-40.2 232,-40.2"/>
<text text-anchor="start" x="275.4053" y="-46.3" font-family="Helvetica,sans-Serif" font-size="11.00" fill="#000000">0 &gt;</text>
<polygon fill="none" stroke="#000000" stroke-width="2" points="9,-39.2 9,-677.2 295,-677.2 295,-39.2 9,-39.2"/>
</a>
</g>
</g>
</g>
</svg>
