<?xml version="1.0" encoding="UTF-8" standalone="no"?>
<!DOCTYPE svg PUBLIC "-//W3C//DTD SVG 1.1//EN"
 "http://www.w3.org/Graphics/SVG/1.1/DTD/svg11.dtd">
<!-- Generated by graphviz version 2.40.1 (20161225.0304)
 -->
<!-- Title: twoDegreesRelationshipsDiagram Pages: 1 -->
<svg width="1020pt" height="1066pt"
 viewBox="0.00 0.00 1020.00 1065.93" xmlns="http://www.w3.org/2000/svg" xmlns:xlink="http://www.w3.org/1999/xlink">
<g id="graph0" class="graph" transform="scale(1 1) rotate(0) translate(4 1061.9268)">
<title>twoDegreesRelationshipsDiagram</title>
<polygon fill="#ffffff" stroke="transparent" points="-4,4 -4,-1061.9268 1016,-1061.9268 1016,4 -4,4"/>
<text text-anchor="middle" x="72.4936" y="-7.3" font-family="Helvetica,sans-Serif" font-size="11.00" fill="#000000">Generated by SchemaSpy</text>
<!-- sccs_age_spanning -->
<g id="node1" class="node">
<title>sccs_age_spanning</title>
<g id="a_node1"><a xlink:href="../../tables/sccs_age_spanning.html" xlink:title="sccs_age_spanning" target="_top">
<polygon fill="#ffffff" stroke="transparent" points="641,-300.5031 641,-361.5031 807,-361.5031 807,-300.5031 641,-300.5031"/>
<polygon fill="#f5f5f5" stroke="transparent" points="641,-338.0031 641,-361.0031 807,-361.0031 807,-338.0031 641,-338.0031"/>
<polygon fill="none" stroke="#000000" points="641,-338.0031 641,-361.0031 807,-361.0031 807,-338.0031 641,-338.0031"/>
<text text-anchor="start" x="646" y="-346.6031" font-family="Helvetica,sans-Serif" font-weight="bold" font-size="11.00" fill="#000000">sccs_age_spanning</text>
<text text-anchor="start" x="772.5219" y="-346.1031" font-family="Helvetica,sans-Serif" font-size="11.00" fill="#000000">[table]</text>
<polygon fill="none" stroke="#000000" points="641,-319.0031 641,-338.0031 807,-338.0031 807,-319.0031 641,-319.0031"/>
<text text-anchor="start" x="644" y="-325.1031" font-family="Helvetica,sans-Serif" font-size="11.00" fill="#000000">...</text>
<polygon fill="#ffffff" stroke="transparent" points="641,-300.0031 641,-319.0031 709,-319.0031 709,-300.0031 641,-300.0031"/>
<polygon fill="none" stroke="#000000" points="641,-300.0031 641,-319.0031 709,-319.0031 709,-300.0031 641,-300.0031"/>
<text text-anchor="start" x="644" y="-306.1031" font-family="Helvetica,sans-Serif" font-size="11.00" fill="#000000">&lt; 1</text>
<polygon fill="#ffffff" stroke="transparent" points="709,-300.0031 709,-319.0031 771,-319.0031 771,-300.0031 709,-300.0031"/>
<polygon fill="none" stroke="#000000" points="709,-300.0031 709,-319.0031 771,-319.0031 771,-300.0031 709,-300.0031"/>
<text text-anchor="start" x="735.6105" y="-306.1031" font-family="Helvetica,sans-Serif" font-size="11.00" fill="#000000">0 rows</text>
<polygon fill="#ffffff" stroke="transparent" points="771,-300.0031 771,-319.0031 807,-319.0031 807,-300.0031 771,-300.0031"/>
<polygon fill="none" stroke="#000000" points="771,-300.0031 771,-319.0031 807,-319.0031 807,-300.0031 771,-300.0031"/>
<text text-anchor="start" x="797.8862" y="-306.1031" font-family="Helvetica,sans-Serif" font-size="11.00" fill="#000000"> &#160;</text>
</a>
</g>
</g>
<!-- sccs_exposures_outcome_set -->
<g id="node2" class="node">
<title>sccs_exposures_outcome_set</title>
<g id="a_node2"><a xlink:href="../../tables/sccs_exposures_outcome_set.html" xlink:title="sccs_exposures_outcome_set" target="_top">
<polygon fill="#ffffff" stroke="transparent" points="323,-489.5031 323,-550.5031 557,-550.5031 557,-489.5031 323,-489.5031"/>
<polygon fill="#f5f5f5" stroke="transparent" points="323,-527.0031 323,-550.0031 557,-550.0031 557,-527.0031 323,-527.0031"/>
<polygon fill="none" stroke="#000000" points="323,-527.0031 323,-550.0031 557,-550.0031 557,-527.0031 323,-527.0031"/>
<text text-anchor="start" x="328" y="-535.6031" font-family="Helvetica,sans-Serif" font-weight="bold" font-size="11.00" fill="#000000">sccs_exposures_outcome_set</text>
<text text-anchor="start" x="522.5219" y="-535.1031" font-family="Helvetica,sans-Serif" font-size="11.00" fill="#000000">[table]</text>
<polygon fill="none" stroke="#000000" points="323,-508.0031 323,-527.0031 557,-527.0031 557,-508.0031 323,-508.0031"/>
<text text-anchor="start" x="326" y="-514.1031" font-family="Helvetica,sans-Serif" font-size="11.00" fill="#000000">...</text>
<polygon fill="#ffffff" stroke="transparent" points="323,-489.0031 323,-508.0031 418,-508.0031 418,-489.0031 323,-489.0031"/>
<polygon fill="none" stroke="#000000" points="323,-489.0031 323,-508.0031 418,-508.0031 418,-489.0031 323,-489.0031"/>
<text text-anchor="start" x="326" y="-495.1031" font-family="Helvetica,sans-Serif" font-size="11.00" fill="#000000">&lt; 3</text>
<polygon fill="#ffffff" stroke="transparent" points="418,-489.0031 418,-508.0031 493,-508.0031 493,-489.0031 418,-489.0031"/>
<polygon fill="none" stroke="#000000" points="418,-489.0031 418,-508.0031 493,-508.0031 493,-489.0031 418,-489.0031"/>
<text text-anchor="start" x="457.6105" y="-495.1031" font-family="Helvetica,sans-Serif" font-size="11.00" fill="#000000">0 rows</text>
<polygon fill="#ffffff" stroke="transparent" points="493,-489.0031 493,-508.0031 557,-508.0031 557,-489.0031 493,-489.0031"/>
<polygon fill="none" stroke="#000000" points="493,-489.0031 493,-508.0031 557,-508.0031 557,-489.0031 493,-489.0031"/>
<text text-anchor="start" x="532.2904" y="-495.1031" font-family="Helvetica,sans-Serif" font-size="11.00" fill="#000000">10 &gt;</text>
</a>
</g>
</g>
<!-- sccs_age_spanning&#45;&gt;sccs_exposures_outcome_set -->
<g id="edge1" class="edge">
<title>sccs_age_spanning:w&#45;&gt;sccs_exposures_outcome_set:e</title>
<path fill="none" stroke="#000000" d="M626.6506,-329.5048C576.0234,-341.4183 610.4132,-421.432 565,-469.0031 559.0927,-475.1911 552.3289,-480.6513 545.0728,-485.4654"/>
<polygon fill="#000000" stroke="#000000" points="633.0434,-328.8358 641.3747,-331.5836 637.0217,-328.4195 641,-328.0031 641,-328.0031 641,-328.0031 637.0217,-328.4195 640.6253,-324.4227 633.0434,-328.8358 633.0434,-328.8358"/>
<ellipse fill="none" stroke="#000000" cx="629.8608" cy="-329.1689" rx="3.2" ry="3.2"/>
</g>
<!-- sccs_covariate -->
<g id="node6" class="node">
<title>sccs_covariate</title>
<g id="a_node6"><a xlink:href="../../tables/sccs_covariate.html" xlink:title="sccs_covariate" target="_top">
<polygon fill="#ffffff" stroke="transparent" points="8,-309.0031 8,-509.0031 274,-509.0031 274,-309.0031 8,-309.0031"/>
<polygon fill="#f5f5f5" stroke="transparent" points="10,-484.0031 10,-507.0031 272,-507.0031 272,-484.0031 10,-484.0031"/>
<polygon fill="none" stroke="#000000" points="10,-484.0031 10,-507.0031 272,-507.0031 272,-484.0031 10,-484.0031"/>
<text text-anchor="start" x="15" y="-492.6031" font-family="Helvetica,sans-Serif" font-weight="bold" font-size="11.00" fill="#000000">sccs_covariate</text>
<text text-anchor="start" x="237.0437" y="-492.1031" font-family="Helvetica,sans-Serif" font-size="11.00" fill="#000000">[table]</text>
<polygon fill="none" stroke="#000000" points="10,-462.0031 10,-484.0031 210,-484.0031 210,-462.0031 10,-462.0031"/>
<image xlink:href="../../images/primaryKeys.png" width="11px" height="12px" preserveAspectRatio="xMinYMin meet" x="15" y="-479.003"/>
<text text-anchor="start" x="30" y="-469.1031" font-family="Helvetica,sans-Serif" font-size="11.00" fill="#000000">analysis_id</text>
<polygon fill="none" stroke="#000000" points="210,-462.0031 210,-484.0031 272,-484.0031 272,-462.0031 210,-462.0031"/>
<text text-anchor="start" x="212.878" y="-469.7031" font-family="Helvetica,sans-Serif" font-size="11.00" fill="#000000">unknown[0]</text>
<polygon fill="none" stroke="#000000" points="10,-440.0031 10,-462.0031 210,-462.0031 210,-440.0031 10,-440.0031"/>
<text text-anchor="start" x="30" y="-447.1031" font-family="Helvetica,sans-Serif" font-size="11.00" fill="#000000">covariate_analysis_id</text>
<polygon fill="none" stroke="#000000" points="210,-440.0031 210,-462.0031 272,-462.0031 272,-440.0031 210,-440.0031"/>
<text text-anchor="start" x="212.878" y="-447.7031" font-family="Helvetica,sans-Serif" font-size="11.00" fill="#000000">unknown[0]</text>
<polygon fill="none" stroke="#000000" points="10,-418.0031 10,-440.0031 210,-440.0031 210,-418.0031 10,-418.0031"/>
<image xlink:href="../../images/primaryKeys.png" width="11px" height="12px" preserveAspectRatio="xMinYMin meet" x="15" y="-435.003"/>
<text text-anchor="start" x="30" y="-425.1031" font-family="Helvetica,sans-Serif" font-size="11.00" fill="#000000">covariate_id</text>
<polygon fill="none" stroke="#000000" points="210,-418.0031 210,-440.0031 272,-440.0031 272,-418.0031 210,-418.0031"/>
<text text-anchor="start" x="212.878" y="-425.7031" font-family="Helvetica,sans-Serif" font-size="11.00" fill="#000000">unknown[0]</text>
<polygon fill="none" stroke="#000000" points="10,-396.0031 10,-418.0031 210,-418.0031 210,-396.0031 10,-396.0031"/>
<text text-anchor="start" x="30" y="-403.1031" font-family="Helvetica,sans-Serif" font-size="11.00" fill="#000000">covariate_name</text>
<polygon fill="none" stroke="#000000" points="210,-396.0031 210,-418.0031 272,-418.0031 272,-396.0031 210,-396.0031"/>
<text text-anchor="start" x="212.878" y="-403.7031" font-family="Helvetica,sans-Serif" font-size="11.00" fill="#000000">unknown[0]</text>
<polygon fill="none" stroke="#000000" points="10,-374.0031 10,-396.0031 210,-396.0031 210,-374.0031 10,-374.0031"/>
<image xlink:href="../../images/primaryKeys.png" width="11px" height="12px" preserveAspectRatio="xMinYMin meet" x="15" y="-391.003"/>
<text text-anchor="start" x="30" y="-381.1031" font-family="Helvetica,sans-Serif" font-size="11.00" fill="#000000">database_id</text>
<polygon fill="none" stroke="#000000" points="210,-374.0031 210,-396.0031 272,-396.0031 272,-374.0031 210,-374.0031"/>
<text text-anchor="start" x="212.878" y="-381.7031" font-family="Helvetica,sans-Serif" font-size="11.00" fill="#000000">unknown[0]</text>
<polygon fill="none" stroke="#000000" points="10,-352.0031 10,-374.0031 210,-374.0031 210,-352.0031 10,-352.0031"/>
<text text-anchor="start" x="30" y="-359.1031" font-family="Helvetica,sans-Serif" font-size="11.00" fill="#000000">era_id</text>
<polygon fill="none" stroke="#000000" points="210,-352.0031 210,-374.0031 272,-374.0031 272,-352.0031 210,-352.0031"/>
<text text-anchor="start" x="212.878" y="-359.7031" font-family="Helvetica,sans-Serif" font-size="11.00" fill="#000000">unknown[0]</text>
<polygon fill="none" stroke="#000000" points="10,-330.0031 10,-352.0031 210,-352.0031 210,-330.0031 10,-330.0031"/>
<image xlink:href="../../images/primaryKeys.png" width="11px" height="12px" preserveAspectRatio="xMinYMin meet" x="15" y="-347.003"/>
<text text-anchor="start" x="30" y="-337.1031" font-family="Helvetica,sans-Serif" font-size="11.00" fill="#000000">exposures_outcome_set_id</text>
<polygon fill="none" stroke="#000000" points="210,-330.0031 210,-352.0031 272,-352.0031 272,-330.0031 210,-330.0031"/>
<text text-anchor="start" x="212.878" y="-337.7031" font-family="Helvetica,sans-Serif" font-size="11.00" fill="#000000">unknown[0]</text>
<polygon fill="#ffffff" stroke="transparent" points="10,-311.0031 10,-330.0031 101,-330.0031 101,-311.0031 10,-311.0031"/>
<polygon fill="none" stroke="#000000" points="10,-311.0031 10,-330.0031 101,-330.0031 101,-311.0031 10,-311.0031"/>
<text text-anchor="start" x="13" y="-317.1031" font-family="Helvetica,sans-Serif" font-size="11.00" fill="#000000">&lt; 0</text>
<polygon fill="#ffffff" stroke="transparent" points="101,-311.0031 101,-330.0031 210,-330.0031 210,-311.0031 101,-311.0031"/>
<polygon fill="none" stroke="#000000" points="101,-311.0031 101,-330.0031 210,-330.0031 210,-311.0031 101,-311.0031"/>
<text text-anchor="start" x="174.6105" y="-317.1031" font-family="Helvetica,sans-Serif" font-size="11.00" fill="#000000">0 rows</text>
<polygon fill="#ffffff" stroke="transparent" points="210,-311.0031 210,-330.0031 272,-330.0031 272,-311.0031 210,-311.0031"/>
<polygon fill="none" stroke="#000000" points="210,-311.0031 210,-330.0031 272,-330.0031 272,-311.0031 210,-311.0031"/>
<text text-anchor="start" x="247.2904" y="-317.1031" font-family="Helvetica,sans-Serif" font-size="11.00" fill="#000000">13 &gt;</text>
<polygon fill="none" stroke="#000000" stroke-width="2" points="9,-310.0031 9,-508.0031 273,-508.0031 273,-310.0031 9,-310.0031"/>
</a>
</g>
</g>
<!-- sccs_exposures_outcome_set&#45;&gt;sccs_covariate -->
<g id="edge20" class="edge">
<title>sccs_exposures_outcome_set:w&#45;&gt;sccs_covariate:e</title>
<path fill="none" stroke="#000000" d="M326.1089,-479.2154C322.1562,-476.0544 318.4287,-472.656 315,-469.0031 273.9282,-425.246 332.0132,-341.0031 272,-341.0031"/>
<polygon fill="#000000" stroke="#000000" points="336.2339,-481.6765 331.5049,-488.1291 330.2143,-487.1833 334.9433,-480.7307 336.2339,-481.6765"/>
<polyline fill="none" stroke="#000000" points="334.5146,-485.3757 331.2883,-483.0112 "/>
<ellipse fill="none" stroke="#000000" cx="328.7072" cy="-481.1196" rx="3.2" ry="3.2"/>
</g>
<!-- sccs_exposure -->
<g id="node12" class="node">
<title>sccs_exposure</title>
<g id="a_node12"><a xlink:href="../../tables/sccs_exposure.html" xlink:title="sccs_exposure" target="_top">
<polygon fill="#ffffff" stroke="transparent" points="73.5,-144.5031 73.5,-205.5031 208.5,-205.5031 208.5,-144.5031 73.5,-144.5031"/>
<polygon fill="#f5f5f5" stroke="transparent" points="74,-182.0031 74,-205.0031 209,-205.0031 209,-182.0031 74,-182.0031"/>
<polygon fill="none" stroke="#000000" points="74,-182.0031 74,-205.0031 209,-205.0031 209,-182.0031 74,-182.0031"/>
<text text-anchor="start" x="79" y="-190.6031" font-family="Helvetica,sans-Serif" font-weight="bold" font-size="11.00" fill="#000000">sccs_exposure</text>
<text text-anchor="start" x="174.5219" y="-190.1031" font-family="Helvetica,sans-Serif" font-size="11.00" fill="#000000">[table]</text>
<polygon fill="none" stroke="#000000" points="74,-163.0031 74,-182.0031 209,-182.0031 209,-163.0031 74,-163.0031"/>
<text text-anchor="start" x="77" y="-169.1031" font-family="Helvetica,sans-Serif" font-size="11.00" fill="#000000">...</text>
<polygon fill="#ffffff" stroke="transparent" points="74,-144.0031 74,-163.0031 118,-163.0031 118,-144.0031 74,-144.0031"/>
<polygon fill="none" stroke="#000000" points="74,-144.0031 74,-163.0031 118,-163.0031 118,-144.0031 74,-144.0031"/>
<text text-anchor="start" x="77" y="-150.1031" font-family="Helvetica,sans-Serif" font-size="11.00" fill="#000000"> &#160;</text>
<polygon fill="#ffffff" stroke="transparent" points="118,-144.0031 118,-163.0031 172,-163.0031 172,-144.0031 118,-144.0031"/>
<polygon fill="none" stroke="#000000" points="118,-144.0031 118,-163.0031 172,-163.0031 172,-144.0031 118,-144.0031"/>
<text text-anchor="start" x="136.6105" y="-150.1031" font-family="Helvetica,sans-Serif" font-size="11.00" fill="#000000">0 rows</text>
<polygon fill="#ffffff" stroke="transparent" points="172,-144.0031 172,-163.0031 209,-163.0031 209,-144.0031 172,-144.0031"/>
<polygon fill="none" stroke="#000000" points="172,-144.0031 172,-163.0031 209,-163.0031 209,-144.0031 172,-144.0031"/>
<text text-anchor="start" x="190.4053" y="-150.1031" font-family="Helvetica,sans-Serif" font-size="11.00" fill="#000000">2 &gt;</text>
</a>
</g>
</g>
<!-- sccs_exposures_outcome_set&#45;&gt;sccs_exposure -->
<g id="edge21" class="edge">
<title>sccs_exposures_outcome_set:w&#45;&gt;sccs_exposure:e</title>
<path fill="none" stroke="#000000" d="M412.4084,-476.4376C353.0903,-383.0511 218.0355,-172.0031 209,-172.0031"/>
<polygon fill="#000000" stroke="#000000" points="421.023,-482.544 414.269,-486.8318 413.4115,-485.481 420.1654,-481.1932 421.023,-482.544"/>
<polyline fill="none" stroke="#000000" points="418.0748,-485.3633 415.9309,-481.9863 "/>
<ellipse fill="none" stroke="#000000" cx="414.2158" cy="-479.2847" rx="3.2" ry="3.2"/>
</g>
<!-- cg_cohort_definition -->
<g id="node13" class="node">
<title>cg_cohort_definition</title>
<g id="a_node13"><a xlink:href="../../tables/cg_cohort_definition.html" xlink:title="cg_cohort_definition" target="_top">
<polygon fill="#ffffff" stroke="transparent" points="53.5,-530.5031 53.5,-591.5031 228.5,-591.5031 228.5,-530.5031 53.5,-530.5031"/>
<polygon fill="#f5f5f5" stroke="transparent" points="54,-568.0031 54,-591.0031 229,-591.0031 229,-568.0031 54,-568.0031"/>
<polygon fill="none" stroke="#000000" points="54,-568.0031 54,-591.0031 229,-591.0031 229,-568.0031 54,-568.0031"/>
<text text-anchor="start" x="59" y="-576.6031" font-family="Helvetica,sans-Serif" font-weight="bold" font-size="11.00" fill="#000000">cg_cohort_definition</text>
<text text-anchor="start" x="194.5219" y="-576.1031" font-family="Helvetica,sans-Serif" font-size="11.00" fill="#000000">[table]</text>
<polygon fill="none" stroke="#000000" points="54,-549.0031 54,-568.0031 229,-568.0031 229,-549.0031 54,-549.0031"/>
<text text-anchor="start" x="57" y="-555.1031" font-family="Helvetica,sans-Serif" font-size="11.00" fill="#000000">...</text>
<polygon fill="#ffffff" stroke="transparent" points="54,-530.0031 54,-549.0031 115,-549.0031 115,-530.0031 54,-530.0031"/>
<polygon fill="none" stroke="#000000" points="54,-530.0031 54,-549.0031 115,-549.0031 115,-530.0031 54,-530.0031"/>
<text text-anchor="start" x="57" y="-536.1031" font-family="Helvetica,sans-Serif" font-size="11.00" fill="#000000"> &#160;</text>
<polygon fill="#ffffff" stroke="transparent" points="115,-530.0031 115,-549.0031 177,-549.0031 177,-530.0031 115,-530.0031"/>
<polygon fill="none" stroke="#000000" points="115,-530.0031 115,-549.0031 177,-549.0031 177,-530.0031 115,-530.0031"/>
<text text-anchor="start" x="141.6105" y="-536.1031" font-family="Helvetica,sans-Serif" font-size="11.00" fill="#000000">0 rows</text>
<polygon fill="#ffffff" stroke="transparent" points="177,-530.0031 177,-549.0031 229,-549.0031 229,-530.0031 177,-530.0031"/>
<polygon fill="none" stroke="#000000" points="177,-530.0031 177,-549.0031 229,-549.0031 229,-530.0031 177,-530.0031"/>
<text text-anchor="start" x="204.2904" y="-536.1031" font-family="Helvetica,sans-Serif" font-size="11.00" fill="#000000">17 &gt;</text>
</a>
</g>
</g>
<!-- sccs_exposures_outcome_set&#45;&gt;cg_cohort_definition -->
<g id="edge22" class="edge">
<title>sccs_exposures_outcome_set:w&#45;&gt;cg_cohort_definition:e</title>
<path fill="none" stroke="#000000" d="M484.8595,-566.0029C530.0394,-624.6879 332.5754,-558.0031 229,-558.0031"/>
<polygon fill="#000000" stroke="#000000" points="480.3397,-560.9603 477.6807,-552.6003 477.6698,-557.9817 475,-555.0031 475,-555.0031 475,-555.0031 477.6698,-557.9817 472.3193,-557.406 480.3397,-560.9603 480.3397,-560.9603"/>
<ellipse fill="none" stroke="#000000" cx="482.4756" cy="-563.3432" rx="3.2" ry="3.2"/>
</g>
<!-- sccs_attrition -->
<g id="node3" class="node">
<title>sccs_attrition</title>
<g id="a_node3"><a xlink:href="../../tables/sccs_attrition.html" xlink:title="sccs_attrition" target="_top">
<polygon fill="#ffffff" stroke="transparent" points="659.5,-820.5031 659.5,-881.5031 788.5,-881.5031 788.5,-820.5031 659.5,-820.5031"/>
<polygon fill="#f5f5f5" stroke="transparent" points="660,-858.0031 660,-881.0031 789,-881.0031 789,-858.0031 660,-858.0031"/>
<polygon fill="none" stroke="#000000" points="660,-858.0031 660,-881.0031 789,-881.0031 789,-858.0031 660,-858.0031"/>
<text text-anchor="start" x="665" y="-866.6031" font-family="Helvetica,sans-Serif" font-weight="bold" font-size="11.00" fill="#000000">sccs_attrition</text>
<text text-anchor="start" x="754.5219" y="-866.1031" font-family="Helvetica,sans-Serif" font-size="11.00" fill="#000000">[table]</text>
<polygon fill="none" stroke="#000000" points="660,-839.0031 660,-858.0031 789,-858.0031 789,-839.0031 660,-839.0031"/>
<text text-anchor="start" x="663" y="-845.1031" font-family="Helvetica,sans-Serif" font-size="11.00" fill="#000000">...</text>
<polygon fill="#ffffff" stroke="transparent" points="660,-820.0031 660,-839.0031 710,-839.0031 710,-820.0031 660,-820.0031"/>
<polygon fill="none" stroke="#000000" points="660,-820.0031 660,-839.0031 710,-839.0031 710,-820.0031 660,-820.0031"/>
<text text-anchor="start" x="663" y="-826.1031" font-family="Helvetica,sans-Serif" font-size="11.00" fill="#000000">&lt; 1</text>
<polygon fill="#ffffff" stroke="transparent" points="710,-820.0031 710,-839.0031 762,-839.0031 762,-820.0031 710,-820.0031"/>
<polygon fill="none" stroke="#000000" points="710,-820.0031 710,-839.0031 762,-839.0031 762,-820.0031 710,-820.0031"/>
<text text-anchor="start" x="726.6105" y="-826.1031" font-family="Helvetica,sans-Serif" font-size="11.00" fill="#000000">0 rows</text>
<polygon fill="#ffffff" stroke="transparent" points="762,-820.0031 762,-839.0031 789,-839.0031 789,-820.0031 762,-820.0031"/>
<polygon fill="none" stroke="#000000" points="762,-820.0031 762,-839.0031 789,-839.0031 789,-820.0031 762,-820.0031"/>
<text text-anchor="start" x="779.8862" y="-826.1031" font-family="Helvetica,sans-Serif" font-size="11.00" fill="#000000"> &#160;</text>
</a>
</g>
</g>
<!-- sccs_attrition&#45;&gt;sccs_exposures_outcome_set -->
<g id="edge2" class="edge">
<title>sccs_attrition:w&#45;&gt;sccs_exposures_outcome_set:e</title>
<path fill="none" stroke="#000000" d="M645.6235,-847.0934C623.6093,-843.9655 612.838,-832.5808 598,-810.0031 541.0419,-723.3352 626.5886,-662.4441 565,-579.0031 557.9457,-569.4459 548.946,-561.3788 539.0169,-554.5828"/>
<polygon fill="#000000" stroke="#000000" points="652.016,-847.4979 659.7726,-851.5959 656.008,-847.7505 660,-848.0031 660,-848.0031 660,-848.0031 656.008,-847.7505 660.2274,-844.4103 652.016,-847.4979 652.016,-847.4979"/>
<ellipse fill="none" stroke="#000000" cx="648.8224" cy="-847.2957" rx="3.2" ry="3.2"/>
</g>
<!-- sccs_calendar_time_spanning -->
<g id="node4" class="node">
<title>sccs_calendar_time_spanning</title>
<g id="a_node4"><a xlink:href="../../tables/sccs_calendar_time_spanning.html" xlink:title="sccs_calendar_time_spanning" target="_top">
<polygon fill="#ffffff" stroke="transparent" points="606,-738.5031 606,-799.5031 842,-799.5031 842,-738.5031 606,-738.5031"/>
<polygon fill="#f5f5f5" stroke="transparent" points="606,-776.0031 606,-799.0031 842,-799.0031 842,-776.0031 606,-776.0031"/>
<polygon fill="none" stroke="#000000" points="606,-776.0031 606,-799.0031 842,-799.0031 842,-776.0031 606,-776.0031"/>
<text text-anchor="start" x="611" y="-784.6031" font-family="Helvetica,sans-Serif" font-weight="bold" font-size="11.00" fill="#000000">sccs_calendar_time_spanning</text>
<text text-anchor="start" x="807.5219" y="-784.1031" font-family="Helvetica,sans-Serif" font-size="11.00" fill="#000000">[table]</text>
<polygon fill="none" stroke="#000000" points="606,-757.0031 606,-776.0031 842,-776.0031 842,-757.0031 606,-757.0031"/>
<text text-anchor="start" x="609" y="-763.1031" font-family="Helvetica,sans-Serif" font-size="11.00" fill="#000000">...</text>
<polygon fill="#ffffff" stroke="transparent" points="606,-738.0031 606,-757.0031 709,-757.0031 709,-738.0031 606,-738.0031"/>
<polygon fill="none" stroke="#000000" points="606,-738.0031 606,-757.0031 709,-757.0031 709,-738.0031 606,-738.0031"/>
<text text-anchor="start" x="609" y="-744.1031" font-family="Helvetica,sans-Serif" font-size="11.00" fill="#000000">&lt; 1</text>
<polygon fill="#ffffff" stroke="transparent" points="709,-738.0031 709,-757.0031 788,-757.0031 788,-738.0031 709,-738.0031"/>
<polygon fill="none" stroke="#000000" points="709,-738.0031 709,-757.0031 788,-757.0031 788,-738.0031 709,-738.0031"/>
<text text-anchor="start" x="752.6105" y="-744.1031" font-family="Helvetica,sans-Serif" font-size="11.00" fill="#000000">0 rows</text>
<polygon fill="#ffffff" stroke="transparent" points="788,-738.0031 788,-757.0031 842,-757.0031 842,-738.0031 788,-738.0031"/>
<polygon fill="none" stroke="#000000" points="788,-738.0031 788,-757.0031 842,-757.0031 842,-738.0031 788,-738.0031"/>
<text text-anchor="start" x="832.8862" y="-744.1031" font-family="Helvetica,sans-Serif" font-size="11.00" fill="#000000"> &#160;</text>
</a>
</g>
</g>
<!-- sccs_calendar_time_spanning&#45;&gt;sccs_exposures_outcome_set -->
<g id="edge3" class="edge">
<title>sccs_calendar_time_spanning:w&#45;&gt;sccs_exposures_outcome_set:e</title>
<path fill="none" stroke="#000000" d="M591.3624,-764.4606C533.15,-750.2426 614.5033,-641.1269 565,-579.0031 557.4478,-569.5255 548.0109,-561.4912 537.7269,-554.6996"/>
<polygon fill="#000000" stroke="#000000" points="598.0441,-765.1647 605.6227,-769.5833 602.022,-765.5839 606,-766.0031 606,-766.0031 606,-766.0031 602.022,-765.5839 606.3773,-762.423 598.0441,-765.1647 598.0441,-765.1647"/>
<ellipse fill="none" stroke="#000000" cx="594.8617" cy="-764.8293" rx="3.2" ry="3.2"/>
</g>
<!-- sccs_covariate_result -->
<g id="node5" class="node">
<title>sccs_covariate_result</title>
<g id="a_node5"><a xlink:href="../../tables/sccs_covariate_result.html" xlink:title="sccs_covariate_result" target="_top">
<polygon fill="#ffffff" stroke="transparent" points="633,-902.5031 633,-963.5031 815,-963.5031 815,-902.5031 633,-902.5031"/>
<polygon fill="#f5f5f5" stroke="transparent" points="633,-940.0031 633,-963.0031 815,-963.0031 815,-940.0031 633,-940.0031"/>
<polygon fill="none" stroke="#000000" points="633,-940.0031 633,-963.0031 815,-963.0031 815,-940.0031 633,-940.0031"/>
<text text-anchor="start" x="638" y="-948.6031" font-family="Helvetica,sans-Serif" font-weight="bold" font-size="11.00" fill="#000000">sccs_covariate_result</text>
<text text-anchor="start" x="780.5219" y="-948.1031" font-family="Helvetica,sans-Serif" font-size="11.00" fill="#000000">[table]</text>
<polygon fill="none" stroke="#000000" points="633,-921.0031 633,-940.0031 815,-940.0031 815,-921.0031 633,-921.0031"/>
<text text-anchor="start" x="636" y="-927.1031" font-family="Helvetica,sans-Serif" font-size="11.00" fill="#000000">...</text>
<polygon fill="#ffffff" stroke="transparent" points="633,-902.0031 633,-921.0031 709,-921.0031 709,-902.0031 633,-902.0031"/>
<polygon fill="none" stroke="#000000" points="633,-902.0031 633,-921.0031 709,-921.0031 709,-902.0031 633,-902.0031"/>
<text text-anchor="start" x="636" y="-908.1031" font-family="Helvetica,sans-Serif" font-size="11.00" fill="#000000">&lt; 8</text>
<polygon fill="#ffffff" stroke="transparent" points="709,-902.0031 709,-921.0031 775,-921.0031 775,-902.0031 709,-902.0031"/>
<polygon fill="none" stroke="#000000" points="709,-902.0031 709,-921.0031 775,-921.0031 775,-902.0031 709,-902.0031"/>
<text text-anchor="start" x="739.6105" y="-908.1031" font-family="Helvetica,sans-Serif" font-size="11.00" fill="#000000">0 rows</text>
<polygon fill="#ffffff" stroke="transparent" points="775,-902.0031 775,-921.0031 815,-921.0031 815,-902.0031 775,-902.0031"/>
<polygon fill="none" stroke="#000000" points="775,-902.0031 775,-921.0031 815,-921.0031 815,-902.0031 775,-902.0031"/>
<text text-anchor="start" x="805.8862" y="-908.1031" font-family="Helvetica,sans-Serif" font-size="11.00" fill="#000000"> &#160;</text>
</a>
</g>
</g>
<!-- sccs_covariate_result&#45;&gt;sccs_exposures_outcome_set -->
<g id="edge11" class="edge">
<title>sccs_covariate_result:w&#45;&gt;sccs_exposures_outcome_set:e</title>
<path fill="none" stroke="#000000" d="M612.4944,-905.7721C607.1274,-901.7851 602.2263,-897.2227 598,-892.0031 509.9752,-783.2895 645.9825,-693.0594 565,-579.0031 558.1925,-569.4154 549.4115,-561.3364 539.6618,-554.5399"/>
<polygon fill="#000000" stroke="#000000" points="618.1434,-909.3408 622.9842,-916.657 621.5252,-911.4771 624.9069,-913.6135 624.9069,-913.6135 624.9069,-913.6135 621.5252,-911.4771 626.8296,-910.5699 618.1434,-909.3408 618.1434,-909.3408"/>
<ellipse fill="none" stroke="#000000" cx="615.438" cy="-907.6317" rx="3.2" ry="3.2"/>
</g>
<!-- sccs_covariate_result&#45;&gt;sccs_covariate -->
<g id="edge4" class="edge">
<title>sccs_covariate_result:w&#45;&gt;sccs_covariate:e</title>
<path fill="none" stroke="#000000" d="M610.5077,-903.0088C491.2002,-871.2361 319.9636,-824.8432 315,-819.0031 264.8228,-759.9653 349.4804,-473.0031 272,-473.0031"/>
<polygon fill="#000000" stroke="#000000" points="617.0542,-904.7504 623.8597,-910.2863 620.9198,-905.7789 624.7853,-906.8073 624.7853,-906.8073 624.7853,-906.8073 620.9198,-905.7789 625.7109,-903.3283 617.0542,-904.7504 617.0542,-904.7504"/>
<ellipse fill="none" stroke="#000000" cx="613.9618" cy="-903.9277" rx="3.2" ry="3.2"/>
</g>
<!-- sccs_covariate_result&#45;&gt;sccs_covariate -->
<g id="edge6" class="edge">
<title>sccs_covariate_result:w&#45;&gt;sccs_covariate:e</title>
<path fill="none" stroke="#000000" d="M611.9508,-902.5039C607.0089,-899.3418 602.3207,-895.8528 598,-892.0031 571.7178,-868.5861 591.2123,-843.4984 565,-820.0031 477.8208,-741.8605 389.9261,-826.9617 315,-737.0031 270.7717,-683.9013 341.1083,-429.0031 272,-429.0031"/>
<polygon fill="#000000" stroke="#000000" points="617.7286,-905.7714 622.92,-912.8431 621.2104,-907.7405 624.6922,-909.7095 624.6922,-909.7095 624.6922,-909.7095 621.2104,-907.7405 626.4643,-906.5759 617.7286,-905.7714 617.7286,-905.7714"/>
<ellipse fill="none" stroke="#000000" cx="614.9432" cy="-904.1961" rx="3.2" ry="3.2"/>
</g>
<!-- sccs_covariate_result&#45;&gt;sccs_covariate -->
<g id="edge7" class="edge">
<title>sccs_covariate_result:w&#45;&gt;sccs_covariate:e</title>
<path fill="none" stroke="#000000" d="M612.2088,-904.5761C607.0374,-900.8829 602.2455,-896.7124 598,-892.0031 551.1303,-840.0129 606.6467,-794.2642 565,-738.0031 489.3614,-635.822 389.9831,-701.6662 315,-599.0031 257.7811,-520.6619 369.0122,-385.0031 272,-385.0031"/>
<polygon fill="#000000" stroke="#000000" points="618.0673,-908.1715 623.0026,-915.4242 621.4765,-910.2637 624.8857,-912.356 624.8857,-912.356 624.8857,-912.356 621.4765,-910.2637 626.7687,-909.2877 618.0673,-908.1715 618.0673,-908.1715"/>
<ellipse fill="none" stroke="#000000" cx="615.3399" cy="-906.4977" rx="3.2" ry="3.2"/>
</g>
<!-- sccs_covariate_result&#45;&gt;sccs_covariate -->
<g id="edge9" class="edge">
<title>sccs_covariate_result:w&#45;&gt;sccs_covariate:e</title>
<path fill="none" stroke="#000000" d="M612.5403,-905.7348C607.162,-901.7569 602.2458,-897.2069 598,-892.0031 515.4341,-790.809 655.3811,-694.2827 565,-600.0031 487.1784,-518.8248 396.0245,-638.9848 315,-561.0031 243.2174,-491.9163 371.6279,-341.0031 272,-341.0031"/>
<polygon fill="#000000" stroke="#000000" points="618.2019,-909.2986 623.0544,-916.6071 621.587,-911.4295 624.9722,-913.5604 624.9722,-913.5604 624.9722,-913.5604 621.587,-911.4295 626.89,-910.5138 618.2019,-909.2986 618.2019,-909.2986"/>
<ellipse fill="none" stroke="#000000" cx="615.4937" cy="-907.5938" rx="3.2" ry="3.2"/>
</g>
<!-- sccs_era -->
<g id="node7" class="node">
<title>sccs_era</title>
<g id="a_node7"><a xlink:href="../../tables/sccs_era.html" xlink:title="sccs_era" target="_top">
<polygon fill="#ffffff" stroke="transparent" points="392.5,-902.5031 392.5,-963.5031 487.5,-963.5031 487.5,-902.5031 392.5,-902.5031"/>
<polygon fill="#f5f5f5" stroke="transparent" points="393,-940.0031 393,-963.0031 488,-963.0031 488,-940.0031 393,-940.0031"/>
<polygon fill="none" stroke="#000000" points="393,-940.0031 393,-963.0031 488,-963.0031 488,-940.0031 393,-940.0031"/>
<text text-anchor="start" x="398" y="-948.6031" font-family="Helvetica,sans-Serif" font-weight="bold" font-size="11.00" fill="#000000">sccs_era</text>
<text text-anchor="start" x="453.5219" y="-948.1031" font-family="Helvetica,sans-Serif" font-size="11.00" fill="#000000">[table]</text>
<polygon fill="none" stroke="#000000" points="393,-921.0031 393,-940.0031 488,-940.0031 488,-921.0031 393,-921.0031"/>
<text text-anchor="start" x="396" y="-927.1031" font-family="Helvetica,sans-Serif" font-size="11.00" fill="#000000">...</text>
<polygon fill="#ffffff" stroke="transparent" points="393,-902.0031 393,-921.0031 417,-921.0031 417,-902.0031 393,-902.0031"/>
<polygon fill="none" stroke="#000000" points="393,-902.0031 393,-921.0031 417,-921.0031 417,-902.0031 393,-902.0031"/>
<text text-anchor="start" x="396" y="-908.1031" font-family="Helvetica,sans-Serif" font-size="11.00" fill="#000000"> &#160;</text>
<polygon fill="#ffffff" stroke="transparent" points="417,-902.0031 417,-921.0031 461,-921.0031 461,-902.0031 417,-902.0031"/>
<polygon fill="none" stroke="#000000" points="417,-902.0031 417,-921.0031 461,-921.0031 461,-902.0031 417,-902.0031"/>
<text text-anchor="start" x="425.6105" y="-908.1031" font-family="Helvetica,sans-Serif" font-size="11.00" fill="#000000">0 rows</text>
<polygon fill="#ffffff" stroke="transparent" points="461,-902.0031 461,-921.0031 488,-921.0031 488,-902.0031 461,-902.0031"/>
<polygon fill="none" stroke="#000000" points="461,-902.0031 461,-921.0031 488,-921.0031 488,-902.0031 461,-902.0031"/>
<text text-anchor="start" x="469.4053" y="-908.1031" font-family="Helvetica,sans-Serif" font-size="11.00" fill="#000000">3 &gt;</text>
</a>
</g>
</g>
<!-- sccs_covariate_result&#45;&gt;sccs_era -->
<g id="edge5" class="edge">
<title>sccs_covariate_result:w&#45;&gt;sccs_era:e</title>
<path fill="none" stroke="#000000" d="M610.348,-921.7844C571.5396,-922.4315 527.8763,-925.0612 488,-930.0031"/>
<polygon fill="#000000" stroke="#000000" points="616.9665,-921.7157 625.0034,-925.2325 620.9663,-921.6742 624.966,-921.6327 624.966,-921.6327 624.966,-921.6327 620.9663,-921.6742 624.9287,-918.0329 616.9665,-921.7157 616.9665,-921.7157"/>
<ellipse fill="none" stroke="#000000" cx="613.7667" cy="-921.749" rx="3.2" ry="3.2"/>
</g>
<!-- sccs_covariate_result&#45;&gt;sccs_era -->
<g id="edge8" class="edge">
<title>sccs_covariate_result:w&#45;&gt;sccs_era:e</title>
<path fill="none" stroke="#000000" d="M610.348,-930.9741C571.5396,-930.4367 527.8763,-930.0031 488,-930.0031"/>
<polygon fill="#000000" stroke="#000000" points="616.9669,-931.0693 624.9142,-934.7841 620.9665,-931.1269 624.966,-931.1845 624.966,-931.1845 624.966,-931.1845 620.9665,-931.1269 625.0179,-927.5849 616.9669,-931.0693 616.9669,-931.0693"/>
<ellipse fill="none" stroke="#000000" cx="613.7672" cy="-931.0233" rx="3.2" ry="3.2"/>
</g>
<!-- sccs_covariate_result&#45;&gt;sccs_era -->
<g id="edge10" class="edge">
<title>sccs_covariate_result:w&#45;&gt;sccs_era:e</title>
<path fill="none" stroke="#000000" d="M610.348,-940.1639C571.5396,-938.4418 527.8763,-934.945 488,-930.0031"/>
<polygon fill="#000000" stroke="#000000" points="616.9722,-940.4232 624.8252,-944.3335 620.9691,-940.5798 624.966,-940.7363 624.966,-940.7363 624.966,-940.7363 620.9691,-940.5798 625.1069,-937.1391 616.9722,-940.4232 616.9722,-940.4232"/>
<ellipse fill="none" stroke="#000000" cx="613.7746" cy="-940.298" rx="3.2" ry="3.2"/>
</g>
<!-- sccs_diagnostics_summary -->
<g id="node8" class="node">
<title>sccs_diagnostics_summary</title>
<g id="a_node8"><a xlink:href="../../tables/sccs_diagnostics_summary.html" xlink:title="sccs_diagnostics_summary" target="_top">
<polygon fill="#ffffff" stroke="transparent" points="614.5,-218.5031 614.5,-279.5031 833.5,-279.5031 833.5,-218.5031 614.5,-218.5031"/>
<polygon fill="#f5f5f5" stroke="transparent" points="615,-256.0031 615,-279.0031 834,-279.0031 834,-256.0031 615,-256.0031"/>
<polygon fill="none" stroke="#000000" points="615,-256.0031 615,-279.0031 834,-279.0031 834,-256.0031 615,-256.0031"/>
<text text-anchor="start" x="620" y="-264.6031" font-family="Helvetica,sans-Serif" font-weight="bold" font-size="11.00" fill="#000000">sccs_diagnostics_summary</text>
<text text-anchor="start" x="799.5219" y="-264.1031" font-family="Helvetica,sans-Serif" font-size="11.00" fill="#000000">[table]</text>
<polygon fill="none" stroke="#000000" points="615,-237.0031 615,-256.0031 834,-256.0031 834,-237.0031 615,-237.0031"/>
<text text-anchor="start" x="618" y="-243.1031" font-family="Helvetica,sans-Serif" font-size="11.00" fill="#000000">...</text>
<polygon fill="#ffffff" stroke="transparent" points="615,-218.0031 615,-237.0031 705,-237.0031 705,-218.0031 615,-218.0031"/>
<polygon fill="none" stroke="#000000" points="615,-218.0031 615,-237.0031 705,-237.0031 705,-218.0031 615,-218.0031"/>
<text text-anchor="start" x="618" y="-224.1031" font-family="Helvetica,sans-Serif" font-size="11.00" fill="#000000">&lt; 7</text>
<polygon fill="#ffffff" stroke="transparent" points="705,-218.0031 705,-237.0031 778,-237.0031 778,-218.0031 705,-218.0031"/>
<polygon fill="none" stroke="#000000" points="705,-218.0031 705,-237.0031 778,-237.0031 778,-218.0031 705,-218.0031"/>
<text text-anchor="start" x="742.6105" y="-224.1031" font-family="Helvetica,sans-Serif" font-size="11.00" fill="#000000">0 rows</text>
<polygon fill="#ffffff" stroke="transparent" points="778,-218.0031 778,-237.0031 834,-237.0031 834,-218.0031 778,-218.0031"/>
<polygon fill="none" stroke="#000000" points="778,-218.0031 778,-237.0031 834,-237.0031 834,-218.0031 778,-218.0031"/>
<text text-anchor="start" x="815.4053" y="-224.1031" font-family="Helvetica,sans-Serif" font-size="11.00" fill="#000000">4 &gt;</text>
</a>
</g>
</g>
<!-- sccs_diagnostics_summary&#45;&gt;sccs_exposures_outcome_set -->
<g id="edge18" class="edge">
<title>sccs_diagnostics_summary:w&#45;&gt;sccs_exposures_outcome_set:e</title>
<path fill="none" stroke="#000000" d="M597.0917,-293.4005C552.3926,-357.1587 613.1554,-409.8008 565,-469.0031 559.9715,-475.1852 554.0737,-480.6248 547.6264,-485.41"/>
<polygon fill="#000000" stroke="#000000" points="601.3484,-288.0518 609.1469,-284.0338 603.8392,-284.9219 606.33,-281.7921 606.33,-281.7921 606.33,-281.7921 603.8392,-284.9219 603.5131,-279.5503 601.3484,-288.0518 601.3484,-288.0518"/>
<ellipse fill="none" stroke="#000000" cx="599.3557" cy="-290.5556" rx="3.2" ry="3.2"/>
</g>
<!-- sccs_diagnostics_summary&#45;&gt;sccs_covariate -->
<g id="edge13" class="edge">
<title>sccs_diagnostics_summary:w&#45;&gt;sccs_covariate:e</title>
<path fill="none" stroke="#000000" d="M597.0953,-293.428C561.8945,-344.2209 609.2128,-390.5002 565,-431.0031 516.4985,-475.4348 337.7767,-473.0031 272,-473.0031"/>
<polygon fill="#000000" stroke="#000000" points="601.1984,-288.3818 609.0387,-284.446 603.722,-285.2783 606.2455,-282.1748 606.2455,-282.1748 606.2455,-282.1748 603.722,-285.2783 603.4523,-279.9036 601.1984,-288.3818 601.1984,-288.3818"/>
<ellipse fill="none" stroke="#000000" cx="599.1796" cy="-290.8647" rx="3.2" ry="3.2"/>
</g>
<!-- sccs_diagnostics_summary&#45;&gt;sccs_covariate -->
<g id="edge14" class="edge">
<title>sccs_diagnostics_summary:w&#45;&gt;sccs_covariate:e</title>
<path fill="none" stroke="#000000" d="M596.7292,-293.678C571.4362,-328.6656 596.7591,-360.6508 565,-387.0031 514.3801,-429.0054 337.7767,-429.0031 272,-429.0031"/>
<polygon fill="#000000" stroke="#000000" points="601.0515,-288.7439 609.0309,-285.0984 603.6872,-285.7351 606.323,-282.7263 606.323,-282.7263 606.323,-282.7263 603.6872,-285.7351 603.615,-280.3541 601.0515,-288.7439 601.0515,-288.7439"/>
<ellipse fill="none" stroke="#000000" cx="598.9429" cy="-291.1509" rx="3.2" ry="3.2"/>
</g>
<!-- sccs_diagnostics_summary&#45;&gt;sccs_covariate -->
<g id="edge16" class="edge">
<title>sccs_diagnostics_summary:w&#45;&gt;sccs_covariate:e</title>
<path fill="none" stroke="#000000" d="M596.119,-293.6521C578.3856,-314.4162 586.0336,-332.9964 565,-347.0031 510.3518,-383.3946 337.6564,-385.0031 272,-385.0031"/>
<polygon fill="#000000" stroke="#000000" points="600.8682,-289.1413 609.1481,-286.2423 603.7686,-286.3867 606.6689,-283.632 606.6689,-283.632 606.6689,-283.632 603.7686,-286.3867 604.1897,-281.0217 600.8682,-289.1413 600.8682,-289.1413"/>
<ellipse fill="none" stroke="#000000" cx="598.548" cy="-291.3451" rx="3.2" ry="3.2"/>
</g>
<!-- sccs_diagnostics_summary&#45;&gt;sccs_covariate -->
<g id="edge17" class="edge">
<title>sccs_diagnostics_summary:w&#45;&gt;sccs_covariate:e</title>
<path fill="none" stroke="#000000" d="M597.8355,-291.3263C581.1753,-303.1435 579.7267,-311.9328 565,-318.0031 504.6171,-342.8927 337.3114,-341.0031 272,-341.0031"/>
<polygon fill="#000000" stroke="#000000" points="603.6166,-287.7679 612.3165,-286.6401 607.023,-285.6711 610.4294,-283.5744 610.4294,-283.5744 610.4294,-283.5744 607.023,-285.6711 608.5423,-280.5086 603.6166,-287.7679 603.6166,-287.7679"/>
<ellipse fill="none" stroke="#000000" cx="600.8914" cy="-289.4453" rx="3.2" ry="3.2"/>
</g>
<!-- sccs_analysis -->
<g id="node9" class="node">
<title>sccs_analysis</title>
<g id="a_node9"><a xlink:href="../../tables/sccs_analysis.html" xlink:title="sccs_analysis" target="_top">
<polygon fill="#ffffff" stroke="transparent" points="376,-246.5031 376,-307.5031 504,-307.5031 504,-246.5031 376,-246.5031"/>
<polygon fill="#f5f5f5" stroke="transparent" points="376,-284.0031 376,-307.0031 504,-307.0031 504,-284.0031 376,-284.0031"/>
<polygon fill="none" stroke="#000000" points="376,-284.0031 376,-307.0031 504,-307.0031 504,-284.0031 376,-284.0031"/>
<text text-anchor="start" x="381" y="-292.6031" font-family="Helvetica,sans-Serif" font-weight="bold" font-size="11.00" fill="#000000">sccs_analysis</text>
<text text-anchor="start" x="469.5219" y="-292.1031" font-family="Helvetica,sans-Serif" font-size="11.00" fill="#000000">[table]</text>
<polygon fill="none" stroke="#000000" points="376,-265.0031 376,-284.0031 504,-284.0031 504,-265.0031 376,-265.0031"/>
<text text-anchor="start" x="379" y="-271.1031" font-family="Helvetica,sans-Serif" font-size="11.00" fill="#000000">...</text>
<polygon fill="#ffffff" stroke="transparent" points="376,-246.0031 376,-265.0031 416,-265.0031 416,-246.0031 376,-246.0031"/>
<polygon fill="none" stroke="#000000" points="376,-246.0031 376,-265.0031 416,-265.0031 416,-246.0031 376,-246.0031"/>
<text text-anchor="start" x="379" y="-252.1031" font-family="Helvetica,sans-Serif" font-size="11.00" fill="#000000"> &#160;</text>
<polygon fill="#ffffff" stroke="transparent" points="416,-246.0031 416,-265.0031 468,-265.0031 468,-246.0031 416,-246.0031"/>
<polygon fill="none" stroke="#000000" points="416,-246.0031 416,-265.0031 468,-265.0031 468,-246.0031 416,-246.0031"/>
<text text-anchor="start" x="432.6105" y="-252.1031" font-family="Helvetica,sans-Serif" font-size="11.00" fill="#000000">0 rows</text>
<polygon fill="#ffffff" stroke="transparent" points="468,-246.0031 468,-265.0031 504,-265.0031 504,-246.0031 468,-246.0031"/>
<polygon fill="none" stroke="#000000" points="468,-246.0031 468,-265.0031 504,-265.0031 504,-246.0031 468,-246.0031"/>
<text text-anchor="start" x="485.4053" y="-252.1031" font-family="Helvetica,sans-Serif" font-size="11.00" fill="#000000">2 &gt;</text>
</a>
</g>
</g>
<!-- sccs_diagnostics_summary&#45;&gt;sccs_analysis -->
<g id="edge12" class="edge">
<title>sccs_diagnostics_summary:w&#45;&gt;sccs_analysis:e</title>
<path fill="none" stroke="#000000" d="M591.9001,-268.9185C563.003,-271.9022 532.5273,-274.0031 504,-274.0031"/>
<polygon fill="#000000" stroke="#000000" points="598.4417,-268.2045 606.7851,-270.9152 602.4181,-267.7705 606.3944,-267.3364 606.3944,-267.3364 606.3944,-267.3364 602.4181,-267.7705 606.0038,-263.7577 598.4417,-268.2045 598.4417,-268.2045"/>
<ellipse fill="none" stroke="#000000" cx="595.2606" cy="-268.5517" rx="3.2" ry="3.2"/>
</g>
<!-- database_meta_data -->
<g id="node10" class="node">
<title>database_meta_data</title>
<g id="a_node10"><a xlink:href="../../tables/database_meta_data.html" xlink:title="database_meta_data" target="_top">
<polygon fill="#ffffff" stroke="transparent" points="351,-164.5031 351,-225.5031 529,-225.5031 529,-164.5031 351,-164.5031"/>
<polygon fill="#f5f5f5" stroke="transparent" points="351,-202.0031 351,-225.0031 529,-225.0031 529,-202.0031 351,-202.0031"/>
<polygon fill="none" stroke="#000000" points="351,-202.0031 351,-225.0031 529,-225.0031 529,-202.0031 351,-202.0031"/>
<text text-anchor="start" x="356" y="-210.6031" font-family="Helvetica,sans-Serif" font-weight="bold" font-size="11.00" fill="#000000">database_meta_data</text>
<text text-anchor="start" x="494.5219" y="-210.1031" font-family="Helvetica,sans-Serif" font-size="11.00" fill="#000000">[table]</text>
<polygon fill="none" stroke="#000000" points="351,-183.0031 351,-202.0031 529,-202.0031 529,-183.0031 351,-183.0031"/>
<text text-anchor="start" x="354" y="-189.1031" font-family="Helvetica,sans-Serif" font-size="11.00" fill="#000000">...</text>
<polygon fill="#ffffff" stroke="transparent" points="351,-164.0031 351,-183.0031 418,-183.0031 418,-164.0031 351,-164.0031"/>
<polygon fill="none" stroke="#000000" points="351,-164.0031 351,-183.0031 418,-183.0031 418,-164.0031 351,-164.0031"/>
<text text-anchor="start" x="354" y="-170.1031" font-family="Helvetica,sans-Serif" font-size="11.00" fill="#000000">&lt; 1</text>
<polygon fill="#ffffff" stroke="transparent" points="418,-164.0031 418,-183.0031 479,-183.0031 479,-164.0031 418,-164.0031"/>
<polygon fill="none" stroke="#000000" points="418,-164.0031 418,-183.0031 479,-183.0031 479,-164.0031 418,-164.0031"/>
<text text-anchor="start" x="443.6105" y="-170.1031" font-family="Helvetica,sans-Serif" font-size="11.00" fill="#000000">0 rows</text>
<polygon fill="#ffffff" stroke="transparent" points="479,-164.0031 479,-183.0031 529,-183.0031 529,-164.0031 479,-164.0031"/>
<polygon fill="none" stroke="#000000" points="479,-164.0031 479,-183.0031 529,-183.0031 529,-164.0031 479,-164.0031"/>
<text text-anchor="start" x="504.2904" y="-170.1031" font-family="Helvetica,sans-Serif" font-size="11.00" fill="#000000">17 &gt;</text>
</a>
</g>
</g>
<!-- sccs_diagnostics_summary&#45;&gt;database_meta_data -->
<g id="edge15" class="edge">
<title>sccs_diagnostics_summary:w&#45;&gt;database_meta_data:e</title>
<path fill="none" stroke="#000000" d="M629.7702,-209.8459C598.287,-199.9163 562.643,-192.0031 529,-192.0031"/>
<polygon fill="#000000" stroke="#000000" points="635.8577,-211.8574 642.3243,-217.7857 639.6558,-213.1124 643.4538,-214.3674 643.4538,-214.3674 643.4538,-214.3674 639.6558,-213.1124 644.5833,-210.9492 635.8577,-211.8574 635.8577,-211.8574"/>
<ellipse fill="none" stroke="#000000" cx="632.8193" cy="-210.8534" rx="3.2" ry="3.2"/>
</g>
<!-- sccs_event_dep_observation -->
<g id="node11" class="node">
<title>sccs_event_dep_observation</title>
<g id="a_node11"><a xlink:href="../../tables/sccs_event_dep_observation.html" xlink:title="sccs_event_dep_observation" target="_top">
<polygon fill="#ffffff" stroke="transparent" points="609.5,-656.5031 609.5,-717.5031 838.5,-717.5031 838.5,-656.5031 609.5,-656.5031"/>
<polygon fill="#f5f5f5" stroke="transparent" points="610,-694.0031 610,-717.0031 839,-717.0031 839,-694.0031 610,-694.0031"/>
<polygon fill="none" stroke="#000000" points="610,-694.0031 610,-717.0031 839,-717.0031 839,-694.0031 610,-694.0031"/>
<text text-anchor="start" x="615" y="-702.6031" font-family="Helvetica,sans-Serif" font-weight="bold" font-size="11.00" fill="#000000">sccs_event_dep_observation</text>
<text text-anchor="start" x="804.5219" y="-702.1031" font-family="Helvetica,sans-Serif" font-size="11.00" fill="#000000">[table]</text>
<polygon fill="none" stroke="#000000" points="610,-675.0031 610,-694.0031 839,-694.0031 839,-675.0031 610,-675.0031"/>
<text text-anchor="start" x="613" y="-681.1031" font-family="Helvetica,sans-Serif" font-size="11.00" fill="#000000">...</text>
<polygon fill="#ffffff" stroke="transparent" points="610,-656.0031 610,-675.0031 710,-675.0031 710,-656.0031 610,-656.0031"/>
<polygon fill="none" stroke="#000000" points="610,-656.0031 610,-675.0031 710,-675.0031 710,-656.0031 610,-656.0031"/>
<text text-anchor="start" x="613" y="-662.1031" font-family="Helvetica,sans-Serif" font-size="11.00" fill="#000000">&lt; 1</text>
<polygon fill="#ffffff" stroke="transparent" points="710,-656.0031 710,-675.0031 787,-675.0031 787,-656.0031 710,-656.0031"/>
<polygon fill="none" stroke="#000000" points="710,-656.0031 710,-675.0031 787,-675.0031 787,-656.0031 710,-656.0031"/>
<text text-anchor="start" x="751.6105" y="-662.1031" font-family="Helvetica,sans-Serif" font-size="11.00" fill="#000000">0 rows</text>
<polygon fill="#ffffff" stroke="transparent" points="787,-656.0031 787,-675.0031 839,-675.0031 839,-656.0031 787,-656.0031"/>
<polygon fill="none" stroke="#000000" points="787,-656.0031 787,-675.0031 839,-675.0031 839,-656.0031 787,-656.0031"/>
<text text-anchor="start" x="829.8862" y="-662.1031" font-family="Helvetica,sans-Serif" font-size="11.00" fill="#000000"> &#160;</text>
</a>
</g>
</g>
<!-- sccs_event_dep_observation&#45;&gt;sccs_exposures_outcome_set -->
<g id="edge19" class="edge">
<title>sccs_event_dep_observation:w&#45;&gt;sccs_exposures_outcome_set:e</title>
<path fill="none" stroke="#000000" d="M595.6617,-681.3443C567.7946,-668.3969 596.1166,-611.264 565,-579.0031 555.9205,-569.5898 545.0416,-561.5104 533.541,-554.6237"/>
<polygon fill="#000000" stroke="#000000" points="602.1341,-682.5445 609.3436,-687.5428 606.067,-683.2738 610,-684.0031 610,-684.0031 610,-684.0031 606.067,-683.2738 610.6564,-680.4635 602.1341,-682.5445 602.1341,-682.5445"/>
<ellipse fill="none" stroke="#000000" cx="598.9877" cy="-681.961" rx="3.2" ry="3.2"/>
</g>
<!-- sccs_result -->
<g id="node14" class="node">
<title>sccs_result</title>
<g id="a_node14"><a xlink:href="../../tables/sccs_result.html" xlink:title="sccs_result" target="_top">
<polygon fill="#ffffff" stroke="transparent" points="891,-218.5031 891,-279.5031 1004,-279.5031 1004,-218.5031 891,-218.5031"/>
<polygon fill="#f5f5f5" stroke="transparent" points="891.5,-256.0031 891.5,-279.0031 1004.5,-279.0031 1004.5,-256.0031 891.5,-256.0031"/>
<polygon fill="none" stroke="#000000" points="891.5,-256.0031 891.5,-279.0031 1004.5,-279.0031 1004.5,-256.0031 891.5,-256.0031"/>
<text text-anchor="start" x="896.5" y="-264.6031" font-family="Helvetica,sans-Serif" font-weight="bold" font-size="11.00" fill="#000000">sccs_result</text>
<text text-anchor="start" x="970.0219" y="-264.1031" font-family="Helvetica,sans-Serif" font-size="11.00" fill="#000000">[table]</text>
<polygon fill="none" stroke="#000000" points="891.5,-237.0031 891.5,-256.0031 1004.5,-256.0031 1004.5,-237.0031 891.5,-237.0031"/>
<text text-anchor="start" x="894.5" y="-243.1031" font-family="Helvetica,sans-Serif" font-size="11.00" fill="#000000">...</text>
<polygon fill="#ffffff" stroke="transparent" points="891.5,-218.0031 891.5,-237.0031 936.5,-237.0031 936.5,-218.0031 891.5,-218.0031"/>
<polygon fill="none" stroke="#000000" points="891.5,-218.0031 891.5,-237.0031 936.5,-237.0031 936.5,-218.0031 891.5,-218.0031"/>
<text text-anchor="start" x="894.5" y="-224.1031" font-family="Helvetica,sans-Serif" font-size="11.00" fill="#000000">&lt; 12</text>
<polygon fill="#ffffff" stroke="transparent" points="936.5,-218.0031 936.5,-237.0031 983.5,-237.0031 983.5,-218.0031 936.5,-218.0031"/>
<polygon fill="none" stroke="#000000" points="936.5,-218.0031 936.5,-237.0031 983.5,-237.0031 983.5,-218.0031 936.5,-218.0031"/>
<text text-anchor="start" x="948.1105" y="-224.1031" font-family="Helvetica,sans-Serif" font-size="11.00" fill="#000000">0 rows</text>
<polygon fill="#ffffff" stroke="transparent" points="983.5,-218.0031 983.5,-237.0031 1004.5,-237.0031 1004.5,-218.0031 983.5,-218.0031"/>
<polygon fill="none" stroke="#000000" points="983.5,-218.0031 983.5,-237.0031 1004.5,-237.0031 1004.5,-218.0031 983.5,-218.0031"/>
<text text-anchor="start" x="995.3862" y="-224.1031" font-family="Helvetica,sans-Serif" font-size="11.00" fill="#000000"> &#160;</text>
</a>
</g>
</g>
<!-- sccs_result&#45;&gt;sccs_exposures_outcome_set -->
<g id="edge34" class="edge">
<title>sccs_result:w&#45;&gt;sccs_exposures_outcome_set:e</title>
<path fill="none" stroke="#000000" d="M922.4914,-296.4724C905.7246,-323.3013 881.0387,-354.8204 850,-372.0031 751.4097,-426.5817 691.2497,-336.731 598,-400.0031 572.1692,-417.53 587.668,-440.542 565,-462.0031 555.5318,-470.9672 544.4297,-478.7432 532.8185,-485.4308"/>
<polygon fill="#000000" stroke="#000000" points="925.9786,-290.631 933.1704,-285.6073 928.0289,-287.1964 930.0793,-283.7619 930.0793,-283.7619 930.0793,-283.7619 928.0289,-287.1964 926.9882,-281.9166 925.9786,-290.631 925.9786,-290.631"/>
<ellipse fill="none" stroke="#000000" cx="924.3383" cy="-293.3786" rx="3.2" ry="3.2"/>
</g>
<!-- sccs_result&#45;&gt;sccs_covariate -->
<g id="edge24" class="edge">
<title>sccs_result:w&#45;&gt;sccs_covariate:e</title>
<path fill="none" stroke="#000000" d="M944.7916,-298.3209C935.5389,-457.7518 902.8012,-951.6298 850,-998.0031 760.6716,-1076.457 401.9139,-1079.1236 315,-998.0031 272.2125,-958.0677 330.5287,-473.0031 272,-473.0031"/>
<polygon fill="#000000" stroke="#000000" points="945.1806,-291.5223 949.2318,-283.741 945.4091,-287.5288 945.6376,-283.5354 945.6376,-283.5354 945.6376,-283.5354 945.4091,-287.5288 942.0435,-283.3297 945.1806,-291.5223 945.1806,-291.5223"/>
<ellipse fill="none" stroke="#000000" cx="944.9977" cy="-294.7171" rx="3.2" ry="3.2"/>
</g>
<!-- sccs_result&#45;&gt;sccs_covariate -->
<g id="edge26" class="edge">
<title>sccs_result:w&#45;&gt;sccs_covariate:e</title>
<path fill="none" stroke="#000000" d="M944.5684,-298.3262C934.7997,-454.3228 901.0595,-929.3506 850,-974.0031 827.6264,-993.5693 336.7653,-994.2438 315,-974.0031 270.518,-932.637 332.7437,-429.0031 272,-429.0031"/>
<polygon fill="#000000" stroke="#000000" points="944.9707,-291.816 949.0574,-284.0533 945.2175,-287.8236 945.4643,-283.8312 945.4643,-283.8312 945.4643,-283.8312 945.2175,-287.8236 941.8711,-283.6091 944.9707,-291.816 944.9707,-291.816"/>
<ellipse fill="none" stroke="#000000" cx="944.7733" cy="-295.0099" rx="3.2" ry="3.2"/>
</g>
<!-- sccs_result&#45;&gt;sccs_covariate -->
<g id="edge29" class="edge">
<title>sccs_result:w&#45;&gt;sccs_covariate:e</title>
<path fill="none" stroke="#000000" d="M909.1317,-204.0208C892.7129,-188.0189 872.2056,-171.8001 850,-163.0031 794.7265,-141.1061 360.7247,-116.0045 315,-154.0031 234.6836,-220.7485 376.4303,-385.0031 272,-385.0031"/>
<polygon fill="#000000" stroke="#000000" points="913.7138,-208.7055 916.7339,-216.942 916.5107,-211.5651 919.3076,-214.4247 919.3076,-214.4247 919.3076,-214.4247 916.5107,-211.5651 921.8812,-211.9075 913.7138,-208.7055 913.7138,-208.7055"/>
<ellipse fill="none" stroke="#000000" cx="911.4762" cy="-206.4178" rx="3.2" ry="3.2"/>
</g>
<!-- sccs_result&#45;&gt;sccs_covariate -->
<g id="edge31" class="edge">
<title>sccs_result:w&#45;&gt;sccs_covariate:e</title>
<path fill="none" stroke="#000000" d="M921.4714,-202.0811C904.6856,-176.8935 880.326,-148.1798 850,-134.0031 742.2976,-83.6548 407.1499,-56.8822 315,-132.0031 241.495,-191.9247 366.8345,-341.0031 272,-341.0031"/>
<polygon fill="#000000" stroke="#000000" points="925.0375,-207.703 926.2829,-216.3868 927.1802,-211.0807 929.3229,-214.4584 929.3229,-214.4584 929.3229,-214.4584 927.1802,-211.0807 932.3628,-212.53 925.0375,-207.703 925.0375,-207.703"/>
<ellipse fill="none" stroke="#000000" cx="923.3234" cy="-205.0008" rx="3.2" ry="3.2"/>
</g>
<!-- sccs_result&#45;&gt;sccs_diagnostics_summary -->
<g id="edge25" class="edge">
<title>sccs_result:w&#45;&gt;sccs_diagnostics_summary:e</title>
<path fill="none" stroke="#000000" d="M868.4541,-235.31C859.7076,-235.004 850.668,-234.8242 841.5768,-234.7704"/>
<polygon fill="#000000" stroke="#000000" points="874.8623,-235.592 882.6962,-239.5403 878.8584,-235.7679 882.8545,-235.9438 882.8545,-235.9438 882.8545,-235.9438 878.8584,-235.7679 883.0129,-232.3473 874.8623,-235.592 874.8623,-235.592"/>
<ellipse fill="none" stroke="#000000" cx="871.6654" cy="-235.4512" rx="3.2" ry="3.2"/>
</g>
<!-- sccs_result&#45;&gt;sccs_diagnostics_summary -->
<g id="edge27" class="edge">
<title>sccs_result:w&#45;&gt;sccs_diagnostics_summary:e</title>
<path fill="none" stroke="#000000" d="M868.4541,-244.679C859.7076,-244.5824 850.668,-244.5256 841.5768,-244.5086"/>
<polygon fill="#000000" stroke="#000000" points="874.8553,-244.7679 882.8045,-248.4788 878.8549,-244.8235 882.8545,-244.8791 882.8545,-244.8791 882.8545,-244.8791 878.8549,-244.8235 882.9046,-241.2795 874.8553,-244.7679 874.8553,-244.7679"/>
<ellipse fill="none" stroke="#000000" cx="871.6556" cy="-244.7234" rx="3.2" ry="3.2"/>
</g>
<!-- sccs_result&#45;&gt;sccs_diagnostics_summary -->
<g id="edge30" class="edge">
<title>sccs_result:w&#45;&gt;sccs_diagnostics_summary:e</title>
<path fill="none" stroke="#000000" d="M868.4541,-254.048C859.7076,-254.1607 850.668,-254.227 841.5768,-254.2468"/>
<polygon fill="#000000" stroke="#000000" points="874.8556,-253.9442 882.9129,-257.414 878.8551,-253.8793 882.8545,-253.8145 882.8545,-253.8145 882.8545,-253.8145 878.8551,-253.8793 882.7961,-250.2149 874.8556,-253.9442 874.8556,-253.9442"/>
<ellipse fill="none" stroke="#000000" cx="871.656" cy="-253.9961" rx="3.2" ry="3.2"/>
</g>
<!-- sccs_result&#45;&gt;sccs_diagnostics_summary -->
<g id="edge32" class="edge">
<title>sccs_result:w&#45;&gt;sccs_diagnostics_summary:e</title>
<path fill="none" stroke="#000000" d="M868.4541,-263.417C859.7076,-263.739 850.668,-263.9283 841.5768,-263.985"/>
<polygon fill="#000000" stroke="#000000" points="874.8631,-263.1201 883.0212,-266.3459 878.8588,-262.9349 882.8545,-262.7498 882.8545,-262.7498 882.8545,-262.7498 878.8588,-262.9349 882.6879,-259.1536 874.8631,-263.1201 874.8631,-263.1201"/>
<ellipse fill="none" stroke="#000000" cx="871.6665" cy="-263.2682" rx="3.2" ry="3.2"/>
</g>
<!-- sccs_result&#45;&gt;sccs_analysis -->
<g id="edge23" class="edge">
<title>sccs_result:w&#45;&gt;sccs_analysis:e</title>
<path fill="none" stroke="#000000" d="M869.0419,-212.9298C862.6914,-210.9613 856.2959,-209.273 850,-208.0031 740.2111,-185.8584 703.1402,-169.4085 598,-208.0031 579.9434,-214.6313 580.538,-224.6653 565,-236.0031 539.1975,-254.8307 535.9413,-274.0031 504,-274.0031"/>
<polygon fill="#000000" stroke="#000000" points="875.2451,-215.0482 881.6524,-221.0404 879.0305,-216.3409 882.8159,-217.6336 882.8159,-217.6336 882.8159,-217.6336 879.0305,-216.3409 883.9793,-214.2267 875.2451,-215.0482 875.2451,-215.0482"/>
<ellipse fill="none" stroke="#000000" cx="872.2168" cy="-214.014" rx="3.2" ry="3.2"/>
</g>
<!-- sccs_result&#45;&gt;database_meta_data -->
<g id="edge28" class="edge">
<title>sccs_result:w&#45;&gt;database_meta_data:e</title>
<path fill="none" stroke="#000000" d="M896.6774,-205.6746C882.4573,-195.9906 866.3845,-187.09 850,-182.0031 743.0366,-148.7942 709.7101,-173.9503 598,-182.0031 567.0931,-184.2311 559.9871,-192.0031 529,-192.0031"/>
<polygon fill="#000000" stroke="#000000" points="902.1683,-209.6323 906.5531,-217.2306 905.4132,-211.9712 908.6581,-214.3101 908.6581,-214.3101 908.6581,-214.3101 905.4132,-211.9712 910.7632,-211.3897 902.1683,-209.6323 902.1683,-209.6323"/>
<ellipse fill="none" stroke="#000000" cx="899.5723" cy="-207.7612" rx="3.2" ry="3.2"/>
</g>
<!-- sccs_result&#45;&gt;sccs_exposure -->
<g id="edge33" class="edge">
<title>sccs_result:w&#45;&gt;sccs_exposure:e</title>
<path fill="none" stroke="#000000" d="M929.8315,-200.976C914.4498,-166.8599 888.507,-123.5919 850,-103.0031 640.3131,9.1114 542.9495,-35.3476 315,-103.0031 261.1105,-118.9976 265.213,-172.0031 209,-172.0031"/>
<polygon fill="#000000" stroke="#000000" points="932.4521,-207.1152 932.282,-215.8863 934.0226,-210.7941 935.593,-214.4729 935.593,-214.4729 935.593,-214.4729 934.0226,-210.7941 938.9039,-213.0595 932.4521,-207.1152 932.4521,-207.1152"/>
<ellipse fill="none" stroke="#000000" cx="931.1958" cy="-204.1722" rx="3.2" ry="3.2"/>
</g>
<!-- sccs_spline -->
<g id="node15" class="node">
<title>sccs_spline</title>
<g id="a_node15"><a xlink:href="../../tables/sccs_spline.html" xlink:title="sccs_spline" target="_top">
<polygon fill="#ffffff" stroke="transparent" points="667,-574.5031 667,-635.5031 781,-635.5031 781,-574.5031 667,-574.5031"/>
<polygon fill="#f5f5f5" stroke="transparent" points="667,-612.0031 667,-635.0031 781,-635.0031 781,-612.0031 667,-612.0031"/>
<polygon fill="none" stroke="#000000" points="667,-612.0031 667,-635.0031 781,-635.0031 781,-612.0031 667,-612.0031"/>
<text text-anchor="start" x="672" y="-620.6031" font-family="Helvetica,sans-Serif" font-weight="bold" font-size="11.00" fill="#000000">sccs_spline</text>
<text text-anchor="start" x="746.5219" y="-620.1031" font-family="Helvetica,sans-Serif" font-size="11.00" fill="#000000">[table]</text>
<polygon fill="none" stroke="#000000" points="667,-593.0031 667,-612.0031 781,-612.0031 781,-593.0031 667,-593.0031"/>
<text text-anchor="start" x="670" y="-599.1031" font-family="Helvetica,sans-Serif" font-size="11.00" fill="#000000">...</text>
<polygon fill="#ffffff" stroke="transparent" points="667,-574.0031 667,-593.0031 709,-593.0031 709,-574.0031 667,-574.0031"/>
<polygon fill="none" stroke="#000000" points="667,-574.0031 667,-593.0031 709,-593.0031 709,-574.0031 667,-574.0031"/>
<text text-anchor="start" x="670" y="-580.1031" font-family="Helvetica,sans-Serif" font-size="11.00" fill="#000000">&lt; 1</text>
<polygon fill="#ffffff" stroke="transparent" points="709,-574.0031 709,-593.0031 758,-593.0031 758,-574.0031 709,-574.0031"/>
<polygon fill="none" stroke="#000000" points="709,-574.0031 709,-593.0031 758,-593.0031 758,-574.0031 709,-574.0031"/>
<text text-anchor="start" x="722.6105" y="-580.1031" font-family="Helvetica,sans-Serif" font-size="11.00" fill="#000000">0 rows</text>
<polygon fill="#ffffff" stroke="transparent" points="758,-574.0031 758,-593.0031 781,-593.0031 781,-574.0031 758,-574.0031"/>
<polygon fill="none" stroke="#000000" points="758,-574.0031 758,-593.0031 781,-593.0031 781,-574.0031 758,-574.0031"/>
<text text-anchor="start" x="771.8862" y="-580.1031" font-family="Helvetica,sans-Serif" font-size="11.00" fill="#000000"> &#160;</text>
</a>
</g>
</g>
<!-- sccs_spline&#45;&gt;sccs_exposures_outcome_set -->
<g id="edge35" class="edge">
<title>sccs_spline:w&#45;&gt;sccs_exposures_outcome_set:e</title>
<path fill="none" stroke="#000000" d="M652.4607,-600.5939C618.9838,-595.0094 563.6322,-573.7995 517.8189,-554.5409"/>
<polygon fill="#000000" stroke="#000000" points="659.0373,-601.2313 666.6527,-605.5863 663.0187,-601.6172 667,-602.0031 667,-602.0031 667,-602.0031 663.0187,-601.6172 667.3473,-598.4199 659.0373,-601.2313 659.0373,-601.2313"/>
<ellipse fill="none" stroke="#000000" cx="655.8522" cy="-600.9226" rx="3.2" ry="3.2"/>
</g>
<!-- sccs_time_to_event -->
<g id="node16" class="node">
<title>sccs_time_to_event</title>
<g id="a_node16"><a xlink:href="../../tables/sccs_time_to_event.html" xlink:title="sccs_time_to_event" target="_top">
<polygon fill="#ffffff" stroke="transparent" points="640,-492.5031 640,-553.5031 808,-553.5031 808,-492.5031 640,-492.5031"/>
<polygon fill="#f5f5f5" stroke="transparent" points="640,-530.0031 640,-553.0031 808,-553.0031 808,-530.0031 640,-530.0031"/>
<polygon fill="none" stroke="#000000" points="640,-530.0031 640,-553.0031 808,-553.0031 808,-530.0031 640,-530.0031"/>
<text text-anchor="start" x="645" y="-538.6031" font-family="Helvetica,sans-Serif" font-weight="bold" font-size="11.00" fill="#000000">sccs_time_to_event</text>
<text text-anchor="start" x="773.5219" y="-538.1031" font-family="Helvetica,sans-Serif" font-size="11.00" fill="#000000">[table]</text>
<polygon fill="none" stroke="#000000" points="640,-511.0031 640,-530.0031 808,-530.0031 808,-511.0031 640,-511.0031"/>
<text text-anchor="start" x="643" y="-517.1031" font-family="Helvetica,sans-Serif" font-size="11.00" fill="#000000">...</text>
<polygon fill="#ffffff" stroke="transparent" points="640,-492.0031 640,-511.0031 709,-511.0031 709,-492.0031 640,-492.0031"/>
<polygon fill="none" stroke="#000000" points="640,-492.0031 640,-511.0031 709,-511.0031 709,-492.0031 640,-492.0031"/>
<text text-anchor="start" x="643" y="-498.1031" font-family="Helvetica,sans-Serif" font-size="11.00" fill="#000000">&lt; 1</text>
<polygon fill="#ffffff" stroke="transparent" points="709,-492.0031 709,-511.0031 771,-511.0031 771,-492.0031 709,-492.0031"/>
<polygon fill="none" stroke="#000000" points="709,-492.0031 709,-511.0031 771,-511.0031 771,-492.0031 709,-492.0031"/>
<text text-anchor="start" x="735.6105" y="-498.1031" font-family="Helvetica,sans-Serif" font-size="11.00" fill="#000000">0 rows</text>
<polygon fill="#ffffff" stroke="transparent" points="771,-492.0031 771,-511.0031 808,-511.0031 808,-492.0031 771,-492.0031"/>
<polygon fill="none" stroke="#000000" points="771,-492.0031 771,-511.0031 808,-511.0031 808,-492.0031 771,-492.0031"/>
<text text-anchor="start" x="798.8862" y="-498.1031" font-family="Helvetica,sans-Serif" font-size="11.00" fill="#000000"> &#160;</text>
</a>
</g>
</g>
<!-- sccs_time_to_event&#45;&gt;sccs_exposures_outcome_set -->
<g id="edge36" class="edge">
<title>sccs_time_to_event:w&#45;&gt;sccs_exposures_outcome_set:e</title>
<path fill="none" stroke="#000000" d="M625.3504,-520.0031C605.5159,-520.0031 584.968,-520.0031 565.0916,-520.0031"/>
<polygon fill="#000000" stroke="#000000" points="632,-520.0032 640,-523.6031 636,-520.0032 640,-520.0031 640,-520.0031 640,-520.0031 636,-520.0032 640,-516.4031 632,-520.0032 632,-520.0032"/>
<ellipse fill="none" stroke="#000000" cx="628.8" cy="-520.0032" rx="3.2" ry="3.2"/>
</g>
<!-- sccs_time_trend -->
<g id="node17" class="node">
<title>sccs_time_trend</title>
<g id="a_node17"><a xlink:href="../../tables/sccs_time_trend.html" xlink:title="sccs_time_trend" target="_top">
<polygon fill="#ffffff" stroke="transparent" points="651,-410.5031 651,-471.5031 797,-471.5031 797,-410.5031 651,-410.5031"/>
<polygon fill="#f5f5f5" stroke="transparent" points="651,-448.0031 651,-471.0031 797,-471.0031 797,-448.0031 651,-448.0031"/>
<polygon fill="none" stroke="#000000" points="651,-448.0031 651,-471.0031 797,-471.0031 797,-448.0031 651,-448.0031"/>
<text text-anchor="start" x="656" y="-456.6031" font-family="Helvetica,sans-Serif" font-weight="bold" font-size="11.00" fill="#000000">sccs_time_trend</text>
<text text-anchor="start" x="762.5219" y="-456.1031" font-family="Helvetica,sans-Serif" font-size="11.00" fill="#000000">[table]</text>
<polygon fill="none" stroke="#000000" points="651,-429.0031 651,-448.0031 797,-448.0031 797,-429.0031 651,-429.0031"/>
<text text-anchor="start" x="654" y="-435.1031" font-family="Helvetica,sans-Serif" font-size="11.00" fill="#000000">...</text>
<polygon fill="#ffffff" stroke="transparent" points="651,-410.0031 651,-429.0031 709,-429.0031 709,-410.0031 651,-410.0031"/>
<polygon fill="none" stroke="#000000" points="651,-410.0031 651,-429.0031 709,-429.0031 709,-410.0031 651,-410.0031"/>
<text text-anchor="start" x="654" y="-416.1031" font-family="Helvetica,sans-Serif" font-size="11.00" fill="#000000">&lt; 1</text>
<polygon fill="#ffffff" stroke="transparent" points="709,-410.0031 709,-429.0031 766,-429.0031 766,-410.0031 709,-410.0031"/>
<polygon fill="none" stroke="#000000" points="709,-410.0031 709,-429.0031 766,-429.0031 766,-410.0031 709,-410.0031"/>
<text text-anchor="start" x="730.6105" y="-416.1031" font-family="Helvetica,sans-Serif" font-size="11.00" fill="#000000">0 rows</text>
<polygon fill="#ffffff" stroke="transparent" points="766,-410.0031 766,-429.0031 797,-429.0031 797,-410.0031 766,-410.0031"/>
<polygon fill="none" stroke="#000000" points="766,-410.0031 766,-429.0031 797,-429.0031 797,-410.0031 766,-410.0031"/>
<text text-anchor="start" x="787.8862" y="-416.1031" font-family="Helvetica,sans-Serif" font-size="11.00" fill="#000000"> &#160;</text>
</a>
</g>
</g>
<!-- sccs_time_trend&#45;&gt;sccs_exposures_outcome_set -->
<g id="edge37" class="edge">
<title>sccs_time_trend:w&#45;&gt;sccs_exposures_outcome_set:e</title>
<path fill="none" stroke="#000000" d="M636.8801,-442.018C613.655,-449.9828 566.848,-468.4828 524.6997,-485.4654"/>
<polygon fill="#000000" stroke="#000000" points="643.305,-440.1912 651.9846,-441.4659 647.1525,-439.0972 651,-438.0031 651,-438.0031 651,-438.0031 647.1525,-439.0972 650.0154,-434.5404 643.305,-440.1912 643.305,-440.1912"/>
<ellipse fill="none" stroke="#000000" cx="640.227" cy="-441.0664" rx="3.2" ry="3.2"/>
</g>
</g>
</svg>
