<?xml version="1.0" encoding="UTF-8" standalone="no"?>
<!DOCTYPE svg PUBLIC "-//W3C//DTD SVG 1.1//EN"
 "http://www.w3.org/Graphics/SVG/1.1/DTD/svg11.dtd">
<!-- Generated by graphviz version 2.40.1 (20161225.0304)
 -->
<!-- Title: oneDegreeRelationshipsDiagram Pages: 1 -->
<svg width="1127pt" height="548pt"
 viewBox="0.00 0.00 1127.00 548.28" xmlns="http://www.w3.org/2000/svg" xmlns:xlink="http://www.w3.org/1999/xlink">
<g id="graph0" class="graph" transform="scale(1 1) rotate(0) translate(4 544.2831)">
<title>oneDegreeRelationshipsDiagram</title>
<polygon fill="#ffffff" stroke="transparent" points="-4,4 -4,-544.2831 1123,-544.2831 1123,4 -4,4"/>
<text text-anchor="middle" x="72.4936" y="-7.3" font-family="Helvetica,sans-Serif" font-size="11.00" fill="#000000">Generated by SchemaSpy</text>
<!-- sccs_covariate_result -->
<g id="node1" class="node">
<title>sccs_covariate_result</title>
<g id="a_node1"><a xlink:href="../../tables/sccs_covariate_result.html" xlink:title="sccs_covariate_result" target="_top">
<polygon fill="#ffffff" stroke="transparent" points="623,-131.2291 623,-280.2291 823,-280.2291 823,-131.2291 623,-131.2291"/>
<polygon fill="#f5f5f5" stroke="transparent" points="623,-256.7291 623,-279.7291 823,-279.7291 823,-256.7291 623,-256.7291"/>
<polygon fill="none" stroke="#000000" points="623,-256.7291 623,-279.7291 823,-279.7291 823,-256.7291 623,-256.7291"/>
<text text-anchor="start" x="628" y="-265.3291" font-family="Helvetica,sans-Serif" font-weight="bold" font-size="11.00" fill="#000000">sccs_covariate_result</text>
<text text-anchor="start" x="788.0437" y="-264.8291" font-family="Helvetica,sans-Serif" font-size="11.00" fill="#000000">[table]</text>
<polygon fill="none" stroke="#000000" points="623,-234.7291 623,-256.7291 823,-256.7291 823,-234.7291 623,-234.7291"/>
<image xlink:href="../../images/foreignKeys.png" width="11px" height="12px" preserveAspectRatio="xMinYMin meet" x="628" y="-251.729"/>
<text text-anchor="start" x="643" y="-241.8291" font-family="Helvetica,sans-Serif" font-size="11.00" fill="#000000">analysis_id</text>
<polygon fill="none" stroke="#000000" points="623,-212.7291 623,-234.7291 823,-234.7291 823,-212.7291 623,-212.7291"/>
<image xlink:href="../../images/foreignKeys.png" width="11px" height="12px" preserveAspectRatio="xMinYMin meet" x="628" y="-229.729"/>
<text text-anchor="start" x="643" y="-219.8291" font-family="Helvetica,sans-Serif" font-size="11.00" fill="#000000">covariate_id</text>
<polygon fill="none" stroke="#000000" points="623,-190.7291 623,-212.7291 823,-212.7291 823,-190.7291 623,-190.7291"/>
<image xlink:href="../../images/foreignKeys.png" width="11px" height="12px" preserveAspectRatio="xMinYMin meet" x="628" y="-207.729"/>
<text text-anchor="start" x="643" y="-197.8291" font-family="Helvetica,sans-Serif" font-size="11.00" fill="#000000">database_id</text>
<polygon fill="none" stroke="#000000" points="623,-168.7291 623,-190.7291 823,-190.7291 823,-168.7291 623,-168.7291"/>
<image xlink:href="../../images/foreignKeys.png" width="11px" height="12px" preserveAspectRatio="xMinYMin meet" x="628" y="-185.729"/>
<text text-anchor="start" x="643" y="-175.8291" font-family="Helvetica,sans-Serif" font-size="11.00" fill="#000000">exposures_outcome_set_id</text>
<polygon fill="none" stroke="#000000" points="623,-149.7291 623,-168.7291 823,-168.7291 823,-149.7291 623,-149.7291"/>
<text text-anchor="start" x="626" y="-155.8291" font-family="Helvetica,sans-Serif" font-size="11.00" fill="#000000">...</text>
<polygon fill="#ffffff" stroke="transparent" points="623,-130.7291 623,-149.7291 708,-149.7291 708,-130.7291 623,-130.7291"/>
<polygon fill="none" stroke="#000000" points="623,-130.7291 623,-149.7291 708,-149.7291 708,-130.7291 623,-130.7291"/>
<text text-anchor="start" x="626" y="-136.8291" font-family="Helvetica,sans-Serif" font-size="11.00" fill="#000000">&lt; 8</text>
<polygon fill="#ffffff" stroke="transparent" points="708,-130.7291 708,-149.7291 778,-149.7291 778,-130.7291 708,-130.7291"/>
<polygon fill="none" stroke="#000000" points="708,-130.7291 708,-149.7291 778,-149.7291 778,-130.7291 708,-130.7291"/>
<text text-anchor="start" x="742.6105" y="-136.8291" font-family="Helvetica,sans-Serif" font-size="11.00" fill="#000000">0 rows</text>
<polygon fill="#ffffff" stroke="transparent" points="778,-130.7291 778,-149.7291 823,-149.7291 823,-130.7291 778,-130.7291"/>
<polygon fill="none" stroke="#000000" points="778,-130.7291 778,-149.7291 823,-149.7291 823,-130.7291 778,-130.7291"/>
<text text-anchor="start" x="813.8862" y="-136.8291" font-family="Helvetica,sans-Serif" font-size="11.00" fill="#000000"> &#160;</text>
</a>
</g>
</g>
<!-- sccs_covariate -->
<g id="node2" class="node">
<title>sccs_covariate</title>
<g id="a_node2"><a xlink:href="../../tables/sccs_covariate.html" xlink:title="sccs_covariate" target="_top">
<polygon fill="#ffffff" stroke="transparent" points="8,-253.7291 8,-453.7291 274,-453.7291 274,-253.7291 8,-253.7291"/>
<polygon fill="#f5f5f5" stroke="transparent" points="10,-428.7291 10,-451.7291 272,-451.7291 272,-428.7291 10,-428.7291"/>
<polygon fill="none" stroke="#000000" points="10,-428.7291 10,-451.7291 272,-451.7291 272,-428.7291 10,-428.7291"/>
<text text-anchor="start" x="15" y="-437.3291" font-family="Helvetica,sans-Serif" font-weight="bold" font-size="11.00" fill="#000000">sccs_covariate</text>
<text text-anchor="start" x="237.0437" y="-436.8291" font-family="Helvetica,sans-Serif" font-size="11.00" fill="#000000">[table]</text>
<polygon fill="none" stroke="#000000" points="10,-406.7291 10,-428.7291 210,-428.7291 210,-406.7291 10,-406.7291"/>
<image xlink:href="../../images/primaryKeys.png" width="11px" height="12px" preserveAspectRatio="xMinYMin meet" x="15" y="-423.729"/>
<text text-anchor="start" x="30" y="-413.8291" font-family="Helvetica,sans-Serif" font-size="11.00" fill="#000000">analysis_id</text>
<polygon fill="none" stroke="#000000" points="210,-406.7291 210,-428.7291 272,-428.7291 272,-406.7291 210,-406.7291"/>
<text text-anchor="start" x="212.878" y="-414.4291" font-family="Helvetica,sans-Serif" font-size="11.00" fill="#000000">unknown[0]</text>
<polygon fill="none" stroke="#000000" points="10,-384.7291 10,-406.7291 210,-406.7291 210,-384.7291 10,-384.7291"/>
<text text-anchor="start" x="30" y="-391.8291" font-family="Helvetica,sans-Serif" font-size="11.00" fill="#000000">covariate_analysis_id</text>
<polygon fill="none" stroke="#000000" points="210,-384.7291 210,-406.7291 272,-406.7291 272,-384.7291 210,-384.7291"/>
<text text-anchor="start" x="212.878" y="-392.4291" font-family="Helvetica,sans-Serif" font-size="11.00" fill="#000000">unknown[0]</text>
<polygon fill="none" stroke="#000000" points="10,-362.7291 10,-384.7291 210,-384.7291 210,-362.7291 10,-362.7291"/>
<image xlink:href="../../images/primaryKeys.png" width="11px" height="12px" preserveAspectRatio="xMinYMin meet" x="15" y="-379.729"/>
<text text-anchor="start" x="30" y="-369.8291" font-family="Helvetica,sans-Serif" font-size="11.00" fill="#000000">covariate_id</text>
<polygon fill="none" stroke="#000000" points="210,-362.7291 210,-384.7291 272,-384.7291 272,-362.7291 210,-362.7291"/>
<text text-anchor="start" x="212.878" y="-370.4291" font-family="Helvetica,sans-Serif" font-size="11.00" fill="#000000">unknown[0]</text>
<polygon fill="none" stroke="#000000" points="10,-340.7291 10,-362.7291 210,-362.7291 210,-340.7291 10,-340.7291"/>
<text text-anchor="start" x="30" y="-347.8291" font-family="Helvetica,sans-Serif" font-size="11.00" fill="#000000">covariate_name</text>
<polygon fill="none" stroke="#000000" points="210,-340.7291 210,-362.7291 272,-362.7291 272,-340.7291 210,-340.7291"/>
<text text-anchor="start" x="212.878" y="-348.4291" font-family="Helvetica,sans-Serif" font-size="11.00" fill="#000000">unknown[0]</text>
<polygon fill="none" stroke="#000000" points="10,-318.7291 10,-340.7291 210,-340.7291 210,-318.7291 10,-318.7291"/>
<image xlink:href="../../images/primaryKeys.png" width="11px" height="12px" preserveAspectRatio="xMinYMin meet" x="15" y="-335.729"/>
<text text-anchor="start" x="30" y="-325.8291" font-family="Helvetica,sans-Serif" font-size="11.00" fill="#000000">database_id</text>
<polygon fill="none" stroke="#000000" points="210,-318.7291 210,-340.7291 272,-340.7291 272,-318.7291 210,-318.7291"/>
<text text-anchor="start" x="212.878" y="-326.4291" font-family="Helvetica,sans-Serif" font-size="11.00" fill="#000000">unknown[0]</text>
<polygon fill="none" stroke="#000000" points="10,-296.7291 10,-318.7291 210,-318.7291 210,-296.7291 10,-296.7291"/>
<text text-anchor="start" x="30" y="-303.8291" font-family="Helvetica,sans-Serif" font-size="11.00" fill="#000000">era_id</text>
<polygon fill="none" stroke="#000000" points="210,-296.7291 210,-318.7291 272,-318.7291 272,-296.7291 210,-296.7291"/>
<text text-anchor="start" x="212.878" y="-304.4291" font-family="Helvetica,sans-Serif" font-size="11.00" fill="#000000">unknown[0]</text>
<polygon fill="none" stroke="#000000" points="10,-274.7291 10,-296.7291 210,-296.7291 210,-274.7291 10,-274.7291"/>
<image xlink:href="../../images/primaryKeys.png" width="11px" height="12px" preserveAspectRatio="xMinYMin meet" x="15" y="-291.729"/>
<text text-anchor="start" x="30" y="-281.8291" font-family="Helvetica,sans-Serif" font-size="11.00" fill="#000000">exposures_outcome_set_id</text>
<polygon fill="none" stroke="#000000" points="210,-274.7291 210,-296.7291 272,-296.7291 272,-274.7291 210,-274.7291"/>
<text text-anchor="start" x="212.878" y="-282.4291" font-family="Helvetica,sans-Serif" font-size="11.00" fill="#000000">unknown[0]</text>
<polygon fill="#ffffff" stroke="transparent" points="10,-255.7291 10,-274.7291 101,-274.7291 101,-255.7291 10,-255.7291"/>
<polygon fill="none" stroke="#000000" points="10,-255.7291 10,-274.7291 101,-274.7291 101,-255.7291 10,-255.7291"/>
<text text-anchor="start" x="13" y="-261.8291" font-family="Helvetica,sans-Serif" font-size="11.00" fill="#000000">&lt; 0</text>
<polygon fill="#ffffff" stroke="transparent" points="101,-255.7291 101,-274.7291 210,-274.7291 210,-255.7291 101,-255.7291"/>
<polygon fill="none" stroke="#000000" points="101,-255.7291 101,-274.7291 210,-274.7291 210,-255.7291 101,-255.7291"/>
<text text-anchor="start" x="174.6105" y="-261.8291" font-family="Helvetica,sans-Serif" font-size="11.00" fill="#000000">0 rows</text>
<polygon fill="#ffffff" stroke="transparent" points="210,-255.7291 210,-274.7291 272,-274.7291 272,-255.7291 210,-255.7291"/>
<polygon fill="none" stroke="#000000" points="210,-255.7291 210,-274.7291 272,-274.7291 272,-255.7291 210,-255.7291"/>
<text text-anchor="start" x="247.2904" y="-261.8291" font-family="Helvetica,sans-Serif" font-size="11.00" fill="#000000">13 &gt;</text>
<polygon fill="none" stroke="#000000" stroke-width="2" points="9,-254.7291 9,-452.7291 273,-452.7291 273,-254.7291 9,-254.7291"/>
</a>
</g>
</g>
<!-- sccs_covariate_result&#45;&gt;sccs_covariate -->
<g id="edge1" class="edge">
<title>sccs_covariate_result:w&#45;&gt;sccs_covariate:e</title>
<path fill="none" stroke="#000000" d="M608.8023,-248.1607C590.1128,-255.6237 588.5365,-278.5524 565,-292.7291 443.7229,-365.7778 413.5777,-417.7291 272,-417.7291"/>
<polygon fill="#000000" stroke="#000000" points="615.1148,-247.0796 623.6077,-249.2774 619.0574,-246.4044 623,-245.7291 623,-245.7291 623,-245.7291 619.0574,-246.4044 622.3923,-242.1808 615.1148,-247.0796 615.1148,-247.0796"/>
<ellipse fill="none" stroke="#000000" cx="611.9607" cy="-247.6198" rx="3.2" ry="3.2"/>
</g>
<!-- sccs_covariate_result&#45;&gt;sccs_covariate -->
<g id="edge2" class="edge">
<title>sccs_covariate_result:w&#45;&gt;sccs_covariate:e</title>
<path fill="none" stroke="#000000" d="M608.6082,-226.4794C591.3018,-234.1879 589.1207,-256.0682 565,-265.7291 460.905,-307.4215 408.1899,-237.3619 315,-299.7291 283.3879,-320.8854 310.0383,-373.7291 272,-373.7291"/>
<polygon fill="#000000" stroke="#000000" points="615.1422,-225.2308 623.6758,-227.2651 619.0711,-224.4799 623,-223.7291 623,-223.7291 623,-223.7291 619.0711,-224.4799 622.3242,-220.1931 615.1422,-225.2308 615.1422,-225.2308"/>
<ellipse fill="none" stroke="#000000" cx="611.9991" cy="-225.8315" rx="3.2" ry="3.2"/>
</g>
<!-- sccs_covariate_result&#45;&gt;sccs_covariate -->
<g id="edge3" class="edge">
<title>sccs_covariate_result:w&#45;&gt;sccs_covariate:e</title>
<path fill="none" stroke="#000000" d="M608.7638,-204.2706C591.8878,-211.1992 588.4237,-230.4514 565,-238.7291 459.583,-275.9822 410.7984,-209.0818 315,-266.7291 285.9532,-284.2082 305.9004,-329.7291 272,-329.7291"/>
<polygon fill="#000000" stroke="#000000" points="615.1245,-203.1351 623.6327,-205.2731 619.0623,-202.4321 623,-201.7291 623,-201.7291 623,-201.7291 619.0623,-202.4321 622.3673,-198.1851 615.1245,-203.1351 615.1245,-203.1351"/>
<ellipse fill="none" stroke="#000000" cx="611.9743" cy="-203.6975" rx="3.2" ry="3.2"/>
</g>
<!-- sccs_covariate_result&#45;&gt;sccs_covariate -->
<g id="edge4" class="edge">
<title>sccs_covariate_result:w&#45;&gt;sccs_covariate:e</title>
<path fill="none" stroke="#000000" d="M608.4343,-182.3374C592.0404,-189.0771 587.9873,-207.0779 565,-214.7291 459.0495,-249.9941 415.0886,-190.2175 315,-239.7291 289.9155,-252.1378 299.9859,-285.7291 272,-285.7291"/>
<polygon fill="#000000" stroke="#000000" points="615.1253,-181.1393 623.6346,-183.2727 619.0626,-180.4342 623,-179.7291 623,-179.7291 623,-179.7291 619.0626,-180.4342 622.3654,-176.1855 615.1253,-181.1393 615.1253,-181.1393"/>
<ellipse fill="none" stroke="#000000" cx="611.9754" cy="-181.7033" rx="3.2" ry="3.2"/>
</g>
<!-- sccs_exposures_outcome_set -->
<g id="node3" class="node">
<title>sccs_exposures_outcome_set</title>
<g id="a_node3"><a xlink:href="../../tables/sccs_exposures_outcome_set.html" xlink:title="sccs_exposures_outcome_set" target="_top">
<polygon fill="#ffffff" stroke="transparent" points="323,-99.2291 323,-204.2291 557,-204.2291 557,-99.2291 323,-99.2291"/>
<polygon fill="#f5f5f5" stroke="transparent" points="323,-180.7291 323,-203.7291 557,-203.7291 557,-180.7291 323,-180.7291"/>
<polygon fill="none" stroke="#000000" points="323,-180.7291 323,-203.7291 557,-203.7291 557,-180.7291 323,-180.7291"/>
<text text-anchor="start" x="328" y="-189.3291" font-family="Helvetica,sans-Serif" font-weight="bold" font-size="11.00" fill="#000000">sccs_exposures_outcome_set</text>
<text text-anchor="start" x="522.5219" y="-188.8291" font-family="Helvetica,sans-Serif" font-size="11.00" fill="#000000">[table]</text>
<polygon fill="none" stroke="#000000" points="323,-158.7291 323,-180.7291 557,-180.7291 557,-158.7291 323,-158.7291"/>
<image xlink:href="../../images/primaryKeys.png" width="11px" height="12px" preserveAspectRatio="xMinYMin meet" x="328" y="-175.729"/>
<text text-anchor="start" x="352" y="-165.8291" font-family="Helvetica,sans-Serif" font-size="11.00" fill="#000000">exposures_outcome_set_id</text>
<polygon fill="none" stroke="#000000" points="323,-136.7291 323,-158.7291 557,-158.7291 557,-136.7291 323,-136.7291"/>
<image xlink:href="../../images/foreignKeys.png" width="11px" height="12px" preserveAspectRatio="xMinYMin meet" x="328" y="-153.729"/>
<text text-anchor="start" x="352" y="-143.8291" font-family="Helvetica,sans-Serif" font-size="11.00" fill="#000000">nesting_cohort_id</text>
<polygon fill="none" stroke="#000000" points="323,-117.7291 323,-136.7291 557,-136.7291 557,-117.7291 323,-117.7291"/>
<text text-anchor="start" x="326" y="-123.8291" font-family="Helvetica,sans-Serif" font-size="11.00" fill="#000000">...</text>
<polygon fill="#ffffff" stroke="transparent" points="323,-98.7291 323,-117.7291 418,-117.7291 418,-98.7291 323,-98.7291"/>
<polygon fill="none" stroke="#000000" points="323,-98.7291 323,-117.7291 418,-117.7291 418,-98.7291 323,-98.7291"/>
<text text-anchor="start" x="326" y="-104.8291" font-family="Helvetica,sans-Serif" font-size="11.00" fill="#000000">&lt; 3</text>
<polygon fill="#ffffff" stroke="transparent" points="418,-98.7291 418,-117.7291 493,-117.7291 493,-98.7291 418,-98.7291"/>
<polygon fill="none" stroke="#000000" points="418,-98.7291 418,-117.7291 493,-117.7291 493,-98.7291 418,-98.7291"/>
<text text-anchor="start" x="457.6105" y="-104.8291" font-family="Helvetica,sans-Serif" font-size="11.00" fill="#000000">0 rows</text>
<polygon fill="#ffffff" stroke="transparent" points="493,-98.7291 493,-117.7291 557,-117.7291 557,-98.7291 493,-98.7291"/>
<polygon fill="none" stroke="#000000" points="493,-98.7291 493,-117.7291 557,-117.7291 557,-98.7291 493,-98.7291"/>
<text text-anchor="start" x="532.2904" y="-104.8291" font-family="Helvetica,sans-Serif" font-size="11.00" fill="#000000">10 &gt;</text>
</a>
</g>
</g>
<!-- sccs_covariate_result&#45;&gt;sccs_exposures_outcome_set -->
<g id="edge5" class="edge">
<title>sccs_covariate_result:w&#45;&gt;sccs_exposures_outcome_set:e</title>
<path fill="none" stroke="#000000" d="M608.4346,-178.8062C590.0242,-176.3307 581.1054,-169.7291 557,-169.7291"/>
<polygon fill="#000000" stroke="#000000" points="615.016,-179.2232 622.7723,-183.3219 619.008,-179.4761 623,-179.7291 623,-179.7291 623,-179.7291 619.008,-179.4761 623.2277,-176.1363 615.016,-179.2232 615.016,-179.2232"/>
<ellipse fill="none" stroke="#000000" cx="611.8224" cy="-179.0208" rx="3.2" ry="3.2"/>
</g>
<!-- sccs_exposures_outcome_set&#45;&gt;sccs_covariate -->
<g id="edge11" class="edge">
<title>sccs_exposures_outcome_set:w&#45;&gt;sccs_covariate:e</title>
<path fill="none" stroke="#000000" d="M312.3132,-171.5512C275.1811,-186.3089 324.1384,-285.7291 272,-285.7291"/>
<polygon fill="#000000" stroke="#000000" points="321.5391,-165.9205 322.8837,-173.8067 321.3065,-174.0756 319.9618,-166.1894 321.5391,-165.9205"/>
<polyline fill="none" stroke="#000000" points="323,-169.7291 319.0569,-170.4014 "/>
<ellipse fill="none" stroke="#000000" cx="315.9024" cy="-170.9393" rx="3.2" ry="3.2"/>
</g>
<!-- sccs_diagnostics_summary -->
<g id="node4" class="node">
<title>sccs_diagnostics_summary</title>
<g id="a_node4"><a xlink:href="../../tables/sccs_diagnostics_summary.html" xlink:title="sccs_diagnostics_summary" target="_top">
<polygon fill="#ffffff" stroke="transparent" points="606,-329.2291 606,-478.2291 840,-478.2291 840,-329.2291 606,-329.2291"/>
<polygon fill="#f5f5f5" stroke="transparent" points="606,-454.7291 606,-477.7291 840,-477.7291 840,-454.7291 606,-454.7291"/>
<polygon fill="none" stroke="#000000" points="606,-454.7291 606,-477.7291 840,-477.7291 840,-454.7291 606,-454.7291"/>
<text text-anchor="start" x="611" y="-463.3291" font-family="Helvetica,sans-Serif" font-weight="bold" font-size="11.00" fill="#000000">sccs_diagnostics_summary</text>
<text text-anchor="start" x="805.0437" y="-462.8291" font-family="Helvetica,sans-Serif" font-size="11.00" fill="#000000">[table]</text>
<polygon fill="none" stroke="#000000" points="606,-432.7291 606,-454.7291 840,-454.7291 840,-432.7291 606,-432.7291"/>
<image xlink:href="../../images/primaryKeys.png" width="11px" height="12px" preserveAspectRatio="xMinYMin meet" x="611" y="-449.729"/>
<text text-anchor="start" x="626" y="-439.8291" font-family="Helvetica,sans-Serif" font-size="11.00" fill="#000000">analysis_id</text>
<polygon fill="none" stroke="#000000" points="606,-410.7291 606,-432.7291 840,-432.7291 840,-410.7291 606,-410.7291"/>
<image xlink:href="../../images/primaryKeys.png" width="11px" height="12px" preserveAspectRatio="xMinYMin meet" x="611" y="-427.729"/>
<text text-anchor="start" x="626" y="-417.8291" font-family="Helvetica,sans-Serif" font-size="11.00" fill="#000000">covariate_id</text>
<polygon fill="none" stroke="#000000" points="606,-388.7291 606,-410.7291 840,-410.7291 840,-388.7291 606,-388.7291"/>
<image xlink:href="../../images/primaryKeys.png" width="11px" height="12px" preserveAspectRatio="xMinYMin meet" x="611" y="-405.729"/>
<text text-anchor="start" x="626" y="-395.8291" font-family="Helvetica,sans-Serif" font-size="11.00" fill="#000000">database_id</text>
<polygon fill="none" stroke="#000000" points="606,-366.7291 606,-388.7291 840,-388.7291 840,-366.7291 606,-366.7291"/>
<image xlink:href="../../images/primaryKeys.png" width="11px" height="12px" preserveAspectRatio="xMinYMin meet" x="611" y="-383.729"/>
<text text-anchor="start" x="626" y="-373.8291" font-family="Helvetica,sans-Serif" font-size="11.00" fill="#000000">exposures_outcome_set_id</text>
<polygon fill="none" stroke="#000000" points="606,-347.7291 606,-366.7291 840,-366.7291 840,-347.7291 606,-347.7291"/>
<text text-anchor="start" x="609" y="-353.8291" font-family="Helvetica,sans-Serif" font-size="11.00" fill="#000000">...</text>
<polygon fill="#ffffff" stroke="transparent" points="606,-328.7291 606,-347.7291 704,-347.7291 704,-328.7291 606,-328.7291"/>
<polygon fill="none" stroke="#000000" points="606,-328.7291 606,-347.7291 704,-347.7291 704,-328.7291 606,-328.7291"/>
<text text-anchor="start" x="609" y="-334.8291" font-family="Helvetica,sans-Serif" font-size="11.00" fill="#000000">&lt; 7</text>
<polygon fill="#ffffff" stroke="transparent" points="704,-328.7291 704,-347.7291 780,-347.7291 780,-328.7291 704,-328.7291"/>
<polygon fill="none" stroke="#000000" points="704,-328.7291 704,-347.7291 780,-347.7291 780,-328.7291 704,-328.7291"/>
<text text-anchor="start" x="744.6105" y="-334.8291" font-family="Helvetica,sans-Serif" font-size="11.00" fill="#000000">0 rows</text>
<polygon fill="#ffffff" stroke="transparent" points="780,-328.7291 780,-347.7291 840,-347.7291 840,-328.7291 780,-328.7291"/>
<polygon fill="none" stroke="#000000" points="780,-328.7291 780,-347.7291 840,-347.7291 840,-328.7291 780,-328.7291"/>
<text text-anchor="start" x="821.4053" y="-334.8291" font-family="Helvetica,sans-Serif" font-size="11.00" fill="#000000">4 &gt;</text>
</a>
</g>
</g>
<!-- sccs_diagnostics_summary&#45;&gt;sccs_covariate -->
<g id="edge6" class="edge">
<title>sccs_diagnostics_summary:w&#45;&gt;sccs_covariate:e</title>
<path fill="none" stroke="#000000" d="M591.2502,-443.7382C473.7294,-443.8769 438.2212,-445.3089 315,-427.7291 295.5756,-424.9578 291.6211,-417.7291 272,-417.7291"/>
<polygon fill="#000000" stroke="#000000" points="598,-443.7341 606.0023,-447.3291 602,-443.7316 606,-443.7291 606,-443.7291 606,-443.7291 602,-443.7316 605.9977,-440.1291 598,-443.7341 598,-443.7341"/>
<ellipse fill="none" stroke="#000000" cx="594.8" cy="-443.7361" rx="3.2" ry="3.2"/>
</g>
<!-- sccs_diagnostics_summary&#45;&gt;sccs_covariate -->
<g id="edge7" class="edge">
<title>sccs_diagnostics_summary:w&#45;&gt;sccs_covariate:e</title>
<path fill="none" stroke="#000000" d="M591.4365,-421.5739C453.6408,-418.5945 416.9901,-373.7291 272,-373.7291"/>
<polygon fill="#000000" stroke="#000000" points="598.0005,-421.6438 605.9616,-425.3289 602.0002,-421.6864 606,-421.7291 606,-421.7291 606,-421.7291 602.0002,-421.6864 606.0384,-418.1293 598.0005,-421.6438 598.0005,-421.6438"/>
<ellipse fill="none" stroke="#000000" cx="594.8006" cy="-421.6096" rx="3.2" ry="3.2"/>
</g>
<!-- sccs_diagnostics_summary&#45;&gt;sccs_covariate -->
<g id="edge8" class="edge">
<title>sccs_diagnostics_summary:w&#45;&gt;sccs_covariate:e</title>
<path fill="none" stroke="#000000" d="M591.9473,-395.9008C583.2355,-390.2037 579.3568,-379.6394 565,-374.7291 459.2106,-338.5469 423.4937,-373.7412 315,-346.7291 295.0583,-341.7641 292.5504,-329.7291 272,-329.7291"/>
<polygon fill="#000000" stroke="#000000" points="598.2813,-397.6263 605.0537,-403.2025 602.1406,-398.6777 606,-399.7291 606,-399.7291 606,-399.7291 602.1406,-398.6777 606.9463,-396.2557 598.2813,-397.6263 598.2813,-397.6263"/>
<ellipse fill="none" stroke="#000000" cx="595.1938" cy="-396.7852" rx="3.2" ry="3.2"/>
</g>
<!-- sccs_diagnostics_summary&#45;&gt;sccs_covariate -->
<g id="edge9" class="edge">
<title>sccs_diagnostics_summary:w&#45;&gt;sccs_covariate:e</title>
<path fill="none" stroke="#000000" d="M592.1309,-373.5628C583.0834,-366.8237 580.2855,-353.6862 565,-347.7291 460.8257,-307.1303 418.3979,-362.2663 315,-319.7291 292.4687,-310.4599 296.3635,-285.7291 272,-285.7291"/>
<polygon fill="#000000" stroke="#000000" points="598.3382,-375.4275 604.9643,-381.1769 602.1691,-376.5783 606,-377.7291 606,-377.7291 606,-377.7291 602.1691,-376.5783 607.0357,-374.2813 598.3382,-375.4275 598.3382,-375.4275"/>
<ellipse fill="none" stroke="#000000" cx="595.2735" cy="-374.5068" rx="3.2" ry="3.2"/>
</g>
<!-- sccs_diagnostics_summary&#45;&gt;sccs_exposures_outcome_set -->
<g id="edge10" class="edge">
<title>sccs_diagnostics_summary:w&#45;&gt;sccs_exposures_outcome_set:e</title>
<path fill="none" stroke="#000000" d="M591.6402,-375.6704C526.7326,-354.0682 646.41,-169.7291 557,-169.7291"/>
<polygon fill="#000000" stroke="#000000" points="598.081,-376.5938 605.4891,-381.2927 602.0405,-377.1614 606,-377.7291 606,-377.7291 606,-377.7291 602.0405,-377.1614 606.5109,-374.1655 598.081,-376.5938 598.081,-376.5938"/>
<ellipse fill="none" stroke="#000000" cx="594.9133" cy="-376.1396" rx="3.2" ry="3.2"/>
</g>
<!-- sccs_result -->
<g id="node5" class="node">
<title>sccs_result</title>
<g id="a_node5"><a xlink:href="../../tables/sccs_result.html" xlink:title="sccs_result" target="_top">
<polygon fill="#ffffff" stroke="transparent" points="889,-329.2291 889,-478.2291 1111,-478.2291 1111,-329.2291 889,-329.2291"/>
<polygon fill="#f5f5f5" stroke="transparent" points="889,-454.7291 889,-477.7291 1111,-477.7291 1111,-454.7291 889,-454.7291"/>
<polygon fill="none" stroke="#000000" points="889,-454.7291 889,-477.7291 1111,-477.7291 1111,-454.7291 889,-454.7291"/>
<text text-anchor="start" x="894" y="-463.3291" font-family="Helvetica,sans-Serif" font-weight="bold" font-size="11.00" fill="#000000">sccs_result</text>
<text text-anchor="start" x="1076.0437" y="-462.8291" font-family="Helvetica,sans-Serif" font-size="11.00" fill="#000000">[table]</text>
<polygon fill="none" stroke="#000000" points="889,-432.7291 889,-454.7291 1111,-454.7291 1111,-432.7291 889,-432.7291"/>
<image xlink:href="../../images/foreignKeys.png" width="11px" height="12px" preserveAspectRatio="xMinYMin meet" x="894" y="-449.729"/>
<text text-anchor="start" x="909" y="-439.8291" font-family="Helvetica,sans-Serif" font-size="11.00" fill="#000000">analysis_id</text>
<polygon fill="none" stroke="#000000" points="889,-410.7291 889,-432.7291 1111,-432.7291 1111,-410.7291 889,-410.7291"/>
<image xlink:href="../../images/foreignKeys.png" width="11px" height="12px" preserveAspectRatio="xMinYMin meet" x="894" y="-427.729"/>
<text text-anchor="start" x="909" y="-417.8291" font-family="Helvetica,sans-Serif" font-size="11.00" fill="#000000">covariate_id</text>
<polygon fill="none" stroke="#000000" points="889,-388.7291 889,-410.7291 1111,-410.7291 1111,-388.7291 889,-388.7291"/>
<image xlink:href="../../images/foreignKeys.png" width="11px" height="12px" preserveAspectRatio="xMinYMin meet" x="894" y="-405.729"/>
<text text-anchor="start" x="909" y="-395.8291" font-family="Helvetica,sans-Serif" font-size="11.00" fill="#000000">database_id</text>
<polygon fill="none" stroke="#000000" points="889,-366.7291 889,-388.7291 1111,-388.7291 1111,-366.7291 889,-366.7291"/>
<image xlink:href="../../images/foreignKeys.png" width="11px" height="12px" preserveAspectRatio="xMinYMin meet" x="894" y="-383.729"/>
<text text-anchor="start" x="909" y="-373.8291" font-family="Helvetica,sans-Serif" font-size="11.00" fill="#000000">exposures_outcome_set_id</text>
<polygon fill="none" stroke="#000000" points="889,-347.7291 889,-366.7291 1111,-366.7291 1111,-347.7291 889,-347.7291"/>
<text text-anchor="start" x="892" y="-353.8291" font-family="Helvetica,sans-Serif" font-size="11.00" fill="#000000">...</text>
<polygon fill="#ffffff" stroke="transparent" points="889,-328.7291 889,-347.7291 988,-347.7291 988,-328.7291 889,-328.7291"/>
<polygon fill="none" stroke="#000000" points="889,-328.7291 889,-347.7291 988,-347.7291 988,-328.7291 889,-328.7291"/>
<text text-anchor="start" x="892" y="-334.8291" font-family="Helvetica,sans-Serif" font-size="11.00" fill="#000000">&lt; 12</text>
<polygon fill="#ffffff" stroke="transparent" points="988,-328.7291 988,-347.7291 1062,-347.7291 1062,-328.7291 988,-328.7291"/>
<polygon fill="none" stroke="#000000" points="988,-328.7291 988,-347.7291 1062,-347.7291 1062,-328.7291 988,-328.7291"/>
<text text-anchor="start" x="1026.6105" y="-334.8291" font-family="Helvetica,sans-Serif" font-size="11.00" fill="#000000">0 rows</text>
<polygon fill="#ffffff" stroke="transparent" points="1062,-328.7291 1062,-347.7291 1111,-347.7291 1111,-328.7291 1062,-328.7291"/>
<polygon fill="none" stroke="#000000" points="1062,-328.7291 1062,-347.7291 1111,-347.7291 1111,-328.7291 1062,-328.7291"/>
<text text-anchor="start" x="1101.8862" y="-334.8291" font-family="Helvetica,sans-Serif" font-size="11.00" fill="#000000"> &#160;</text>
</a>
</g>
</g>
<!-- sccs_result&#45;&gt;sccs_covariate -->
<g id="edge12" class="edge">
<title>sccs_result:w&#45;&gt;sccs_covariate:e</title>
<path fill="none" stroke="#000000" d="M875.0281,-448.2102C860.7253,-461.0973 873.4331,-498.2573 848,-512.7291 751.4283,-567.6799 708.3614,-525.615 598,-512.7291 469.6175,-497.7391 433.8069,-496.6377 315,-445.7291 294.0377,-436.7468 294.8057,-417.7291 272,-417.7291"/>
<polygon fill="#000000" stroke="#000000" points="881.3822,-446.1723 890.0995,-447.1571 885.1911,-444.9507 889,-443.7291 889,-443.7291 889,-443.7291 885.1911,-444.9507 887.9005,-440.3011 881.3822,-446.1723 881.3822,-446.1723"/>
<ellipse fill="none" stroke="#000000" cx="878.3351" cy="-447.1496" rx="3.2" ry="3.2"/>
</g>
<!-- sccs_result&#45;&gt;sccs_covariate -->
<g id="edge14" class="edge">
<title>sccs_result:w&#45;&gt;sccs_covariate:e</title>
<path fill="none" stroke="#000000" d="M875.2606,-426.0853C861.0754,-438.6124 872.982,-474.7282 848,-488.7291 799.5365,-515.8899 652.7588,-498.1044 598,-488.7291 446.5639,-462.8017 425.6396,-373.7291 272,-373.7291"/>
<polygon fill="#000000" stroke="#000000" points="881.3741,-424.147 890.0881,-425.1607 885.1871,-422.938 889,-421.7291 889,-421.7291 889,-421.7291 885.1871,-422.938 887.9119,-418.2974 881.3741,-424.147 881.3741,-424.147"/>
<ellipse fill="none" stroke="#000000" cx="878.3238" cy="-425.1141" rx="3.2" ry="3.2"/>
</g>
<!-- sccs_result&#45;&gt;sccs_covariate -->
<g id="edge16" class="edge">
<title>sccs_result:w&#45;&gt;sccs_covariate:e</title>
<path fill="none" stroke="#000000" d="M874.9693,-395.7201C857.5271,-381.965 877.004,-336.556 848,-318.7291 839.6735,-313.6113 336.8628,-318.3875 315,-320.7291 295.5858,-322.8084 291.5252,-329.7291 272,-329.7291"/>
<polygon fill="#000000" stroke="#000000" points="881.3078,-397.5312 888.0109,-403.1906 885.1539,-398.6301 889,-399.7291 889,-399.7291 889,-399.7291 885.1539,-398.6301 889.9891,-396.2676 881.3078,-397.5312 881.3078,-397.5312"/>
<ellipse fill="none" stroke="#000000" cx="878.231" cy="-396.652" rx="3.2" ry="3.2"/>
</g>
<!-- sccs_result&#45;&gt;sccs_covariate -->
<g id="edge18" class="edge">
<title>sccs_result:w&#45;&gt;sccs_covariate:e</title>
<path fill="none" stroke="#000000" d="M875.4197,-372.6707C836.6417,-337.7917 891.5124,-133.2061 848,-94.7291 759.265,-16.2628 407.2578,-14.4366 315,-88.7291 245.2007,-144.9364 361.617,-285.7291 272,-285.7291"/>
<polygon fill="#000000" stroke="#000000" points="881.5032,-374.9366 887.7434,-381.1027 885.2516,-376.3329 889,-377.7291 889,-377.7291 889,-377.7291 885.2516,-376.3329 890.2566,-374.3555 881.5032,-374.9366 881.5032,-374.9366"/>
<ellipse fill="none" stroke="#000000" cx="878.5044" cy="-373.8197" rx="3.2" ry="3.2"/>
</g>
<!-- sccs_result&#45;&gt;sccs_exposures_outcome_set -->
<g id="edge20" class="edge">
<title>sccs_result:w&#45;&gt;sccs_exposures_outcome_set:e</title>
<path fill="none" stroke="#000000" d="M875.2435,-371.824C842.048,-336.5999 887.7012,-154.5986 848,-120.7291 805.735,-84.6723 648.3341,-97.2153 598,-120.7291 572.273,-132.7475 585.3958,-169.7291 557,-169.7291"/>
<polygon fill="#000000" stroke="#000000" points="881.6487,-374.5734 887.58,-381.0372 885.3243,-376.1513 889,-377.7291 889,-377.7291 889,-377.7291 885.3243,-376.1513 890.42,-374.421 881.6487,-374.5734 881.6487,-374.5734"/>
<ellipse fill="none" stroke="#000000" cx="878.7081" cy="-373.3112" rx="3.2" ry="3.2"/>
</g>
<!-- sccs_result&#45;&gt;sccs_diagnostics_summary -->
<g id="edge13" class="edge">
<title>sccs_result:w&#45;&gt;sccs_diagnostics_summary:e</title>
<path fill="none" stroke="#000000" d="M874.4909,-443.7291C863.1774,-443.7291 855.9931,-443.7291 840,-443.7291"/>
<polygon fill="#000000" stroke="#000000" points="881,-443.7291 889,-447.3291 885,-443.7291 889,-443.7291 889,-443.7291 889,-443.7291 885,-443.7291 889,-440.1291 881,-443.7291 881,-443.7291"/>
<ellipse fill="none" stroke="#000000" cx="877.8" cy="-443.7292" rx="3.2" ry="3.2"/>
</g>
<!-- sccs_result&#45;&gt;sccs_diagnostics_summary -->
<g id="edge15" class="edge">
<title>sccs_result:w&#45;&gt;sccs_diagnostics_summary:e</title>
<path fill="none" stroke="#000000" d="M874.4909,-421.7291C863.1774,-421.7291 855.9931,-421.7291 840,-421.7291"/>
<polygon fill="#000000" stroke="#000000" points="881,-421.7291 889,-425.3291 885,-421.7291 889,-421.7291 889,-421.7291 889,-421.7291 885,-421.7291 889,-418.1291 881,-421.7291 881,-421.7291"/>
<ellipse fill="none" stroke="#000000" cx="877.8" cy="-421.7292" rx="3.2" ry="3.2"/>
</g>
<!-- sccs_result&#45;&gt;sccs_diagnostics_summary -->
<g id="edge17" class="edge">
<title>sccs_result:w&#45;&gt;sccs_diagnostics_summary:e</title>
<path fill="none" stroke="#000000" d="M874.4909,-399.7291C863.1774,-399.7291 855.9931,-399.7291 840,-399.7291"/>
<polygon fill="#000000" stroke="#000000" points="881,-399.7291 889,-403.3291 885,-399.7291 889,-399.7291 889,-399.7291 889,-399.7291 885,-399.7291 889,-396.1291 881,-399.7291 881,-399.7291"/>
<ellipse fill="none" stroke="#000000" cx="877.8" cy="-399.7292" rx="3.2" ry="3.2"/>
</g>
<!-- sccs_result&#45;&gt;sccs_diagnostics_summary -->
<g id="edge19" class="edge">
<title>sccs_result:w&#45;&gt;sccs_diagnostics_summary:e</title>
<path fill="none" stroke="#000000" d="M874.4909,-377.7291C863.1774,-377.7291 855.9931,-377.7291 840,-377.7291"/>
<polygon fill="#000000" stroke="#000000" points="881,-377.7291 889,-381.3291 885,-377.7291 889,-377.7291 889,-377.7291 889,-377.7291 885,-377.7291 889,-374.1291 881,-377.7291 881,-377.7291"/>
<ellipse fill="none" stroke="#000000" cx="877.8" cy="-377.7292" rx="3.2" ry="3.2"/>
</g>
</g>
</svg>
