<?xml version="1.0" encoding="UTF-8" standalone="no"?>
<!DOCTYPE svg PUBLIC "-//W3C//DTD SVG 1.1//EN"
 "http://www.w3.org/Graphics/SVG/1.1/DTD/svg11.dtd">
<!-- Generated by graphviz version 2.40.1 (20161225.0304)
 -->
<!-- Title: oneDegreeRelationshipsDiagram Pages: 1 -->
<svg width="223pt" height="250pt"
 viewBox="0.00 0.00 223.00 250.20" xmlns="http://www.w3.org/2000/svg" xmlns:xlink="http://www.w3.org/1999/xlink">
<g id="graph0" class="graph" transform="scale(1 1) rotate(0) translate(4 246.2)">
<title>oneDegreeRelationshipsDiagram</title>
<polygon fill="#ffffff" stroke="transparent" points="-4,4 -4,-246.2 219,-246.2 219,4 -4,4"/>
<text text-anchor="middle" x="72.4936" y="-7.3" font-family="Helvetica,sans-Serif" font-size="11.00" fill="#000000">Generated by SchemaSpy</text>
<!-- tp_metadata -->
<g id="node1" class="node">
<title>tp_metadata</title>
<g id="a_node1"><a xlink:href="../../tables/tp_metadata.html" xlink:title="tp_metadata" target="_top">
<polygon fill="#ffffff" stroke="transparent" points="8,-38.2 8,-238.2 207,-238.2 207,-38.2 8,-38.2"/>
<polygon fill="#f5f5f5" stroke="transparent" points="10.5,-213.2 10.5,-236.2 205.5,-236.2 205.5,-213.2 10.5,-213.2"/>
<polygon fill="none" stroke="#000000" points="10.5,-213.2 10.5,-236.2 205.5,-236.2 205.5,-213.2 10.5,-213.2"/>
<text text-anchor="start" x="15.5" y="-221.8" font-family="Helvetica,sans-Serif" font-weight="bold" font-size="11.00" fill="#000000">tp_metadata</text>
<text text-anchor="start" x="170.5437" y="-221.3" font-family="Helvetica,sans-Serif" font-size="11.00" fill="#000000">[table]</text>
<polygon fill="none" stroke="#000000" points="10.5,-191.2 10.5,-213.2 143.5,-213.2 143.5,-191.2 10.5,-191.2"/>
<text text-anchor="start" x="30.5" y="-198.3" font-family="Helvetica,sans-Serif" font-size="11.00" fill="#000000">analysis_id</text>
<polygon fill="none" stroke="#000000" points="143.5,-191.2 143.5,-213.2 205.5,-213.2 205.5,-191.2 143.5,-191.2"/>
<text text-anchor="start" x="146.378" y="-198.9" font-family="Helvetica,sans-Serif" font-size="11.00" fill="#000000">unknown[0]</text>
<polygon fill="none" stroke="#000000" points="10.5,-169.2 10.5,-191.2 143.5,-191.2 143.5,-169.2 10.5,-169.2"/>
<text text-anchor="start" x="30.5" y="-176.3" font-family="Helvetica,sans-Serif" font-size="11.00" fill="#000000">database_id</text>
<polygon fill="none" stroke="#000000" points="143.5,-169.2 143.5,-191.2 205.5,-191.2 205.5,-169.2 143.5,-169.2"/>
<text text-anchor="start" x="146.378" y="-176.9" font-family="Helvetica,sans-Serif" font-size="11.00" fill="#000000">unknown[0]</text>
<polygon fill="none" stroke="#000000" points="10.5,-147.2 10.5,-169.2 143.5,-169.2 143.5,-147.2 10.5,-147.2"/>
<text text-anchor="start" x="30.5" y="-154.3" font-family="Helvetica,sans-Serif" font-size="11.00" fill="#000000">execution_end</text>
<polygon fill="none" stroke="#000000" points="143.5,-147.2 143.5,-169.2 205.5,-169.2 205.5,-147.2 143.5,-147.2"/>
<text text-anchor="start" x="146.378" y="-154.9" font-family="Helvetica,sans-Serif" font-size="11.00" fill="#000000">unknown[0]</text>
<polygon fill="none" stroke="#000000" points="10.5,-125.2 10.5,-147.2 143.5,-147.2 143.5,-125.2 10.5,-125.2"/>
<text text-anchor="start" x="30.5" y="-132.3" font-family="Helvetica,sans-Serif" font-size="11.00" fill="#000000">execution_start</text>
<polygon fill="none" stroke="#000000" points="143.5,-125.2 143.5,-147.2 205.5,-147.2 205.5,-125.2 143.5,-125.2"/>
<text text-anchor="start" x="146.378" y="-132.9" font-family="Helvetica,sans-Serif" font-size="11.00" fill="#000000">unknown[0]</text>
<polygon fill="none" stroke="#000000" points="10.5,-103.2 10.5,-125.2 143.5,-125.2 143.5,-103.2 10.5,-103.2"/>
<text text-anchor="start" x="30.5" y="-110.3" font-family="Helvetica,sans-Serif" font-size="11.00" fill="#000000">package_version</text>
<polygon fill="none" stroke="#000000" points="143.5,-103.2 143.5,-125.2 205.5,-125.2 205.5,-103.2 143.5,-103.2"/>
<text text-anchor="start" x="146.378" y="-110.9" font-family="Helvetica,sans-Serif" font-size="11.00" fill="#000000">unknown[0]</text>
<polygon fill="none" stroke="#000000" points="10.5,-81.2 10.5,-103.2 143.5,-103.2 143.5,-81.2 10.5,-81.2"/>
<text text-anchor="start" x="30.5" y="-88.3" font-family="Helvetica,sans-Serif" font-size="11.00" fill="#000000">platform</text>
<polygon fill="none" stroke="#000000" points="143.5,-81.2 143.5,-103.2 205.5,-103.2 205.5,-81.2 143.5,-81.2"/>
<text text-anchor="start" x="146.378" y="-88.9" font-family="Helvetica,sans-Serif" font-size="11.00" fill="#000000">unknown[0]</text>
<polygon fill="none" stroke="#000000" points="10.5,-59.2 10.5,-81.2 143.5,-81.2 143.5,-59.2 10.5,-59.2"/>
<text text-anchor="start" x="30.5" y="-66.3" font-family="Helvetica,sans-Serif" font-size="11.00" fill="#000000">r_version</text>
<polygon fill="none" stroke="#000000" points="143.5,-59.2 143.5,-81.2 205.5,-81.2 205.5,-59.2 143.5,-59.2"/>
<text text-anchor="start" x="146.378" y="-66.9" font-family="Helvetica,sans-Serif" font-size="11.00" fill="#000000">unknown[0]</text>
<polygon fill="#ffffff" stroke="transparent" points="10.5,-40.2 10.5,-59.2 68.5,-59.2 68.5,-40.2 10.5,-40.2"/>
<polygon fill="none" stroke="#000000" points="10.5,-40.2 10.5,-59.2 68.5,-59.2 68.5,-40.2 10.5,-40.2"/>
<text text-anchor="start" x="13.5" y="-46.3" font-family="Helvetica,sans-Serif" font-size="11.00" fill="#000000">&lt; 0</text>
<polygon fill="#ffffff" stroke="transparent" points="68.5,-40.2 68.5,-59.2 143.5,-59.2 143.5,-40.2 68.5,-40.2"/>
<polygon fill="none" stroke="#000000" points="68.5,-40.2 68.5,-59.2 143.5,-59.2 143.5,-40.2 68.5,-40.2"/>
<text text-anchor="start" x="108.1105" y="-46.3" font-family="Helvetica,sans-Serif" font-size="11.00" fill="#000000">0 rows</text>
<polygon fill="#ffffff" stroke="transparent" points="143.5,-40.2 143.5,-59.2 205.5,-59.2 205.5,-40.2 143.5,-40.2"/>
<polygon fill="none" stroke="#000000" points="143.5,-40.2 143.5,-59.2 205.5,-59.2 205.5,-40.2 143.5,-40.2"/>
<text text-anchor="start" x="186.9053" y="-46.3" font-family="Helvetica,sans-Serif" font-size="11.00" fill="#000000">0 &gt;</text>
<polygon fill="none" stroke="#000000" stroke-width="2" points="9,-39.2 9,-237.2 206,-237.2 206,-39.2 9,-39.2"/>
</a>
</g>
</g>
</g>
</svg>
