<?xml version="1.0" encoding="UTF-8" standalone="no"?>
<!DOCTYPE svg PUBLIC "-//W3C//DTD SVG 1.1//EN"
 "http://www.w3.org/Graphics/SVG/1.1/DTD/svg11.dtd">
<!-- Generated by graphviz version 2.40.1 (20161225.0304)
 -->
<!-- Title: oneDegreeRelationshipsDiagram Pages: 1 -->
<svg width="302pt" height="404pt"
 viewBox="0.00 0.00 302.00 404.20" xmlns="http://www.w3.org/2000/svg" xmlns:xlink="http://www.w3.org/1999/xlink">
<g id="graph0" class="graph" transform="scale(1 1) rotate(0) translate(4 400.2)">
<title>oneDegreeRelationshipsDiagram</title>
<polygon fill="#ffffff" stroke="transparent" points="-4,4 -4,-400.2 298,-400.2 298,4 -4,4"/>
<text text-anchor="middle" x="72.4936" y="-7.3" font-family="Helvetica,sans-Serif" font-size="11.00" fill="#000000">Generated by SchemaSpy</text>
<!-- tp_summary_event_duration -->
<g id="node1" class="node">
<title>tp_summary_event_duration</title>
<g id="a_node1"><a xlink:href="../../tables/tp_summary_event_duration.html" xlink:title="tp_summary_event_duration" target="_top">
<polygon fill="#ffffff" stroke="transparent" points="8,-38.2 8,-392.2 286,-392.2 286,-38.2 8,-38.2"/>
<polygon fill="#f5f5f5" stroke="transparent" points="10,-367.2 10,-390.2 284,-390.2 284,-367.2 10,-367.2"/>
<polygon fill="none" stroke="#000000" points="10,-367.2 10,-390.2 284,-390.2 284,-367.2 10,-367.2"/>
<text text-anchor="start" x="15" y="-375.8" font-family="Helvetica,sans-Serif" font-weight="bold" font-size="11.00" fill="#000000">tp_summary_event_duration</text>
<text text-anchor="start" x="249.0437" y="-375.3" font-family="Helvetica,sans-Serif" font-size="11.00" fill="#000000">[table]</text>
<polygon fill="none" stroke="#000000" points="10,-345.2 10,-367.2 222,-367.2 222,-345.2 10,-345.2"/>
<text text-anchor="start" x="30" y="-352.3" font-family="Helvetica,sans-Serif" font-size="11.00" fill="#000000">analysis_id</text>
<polygon fill="none" stroke="#000000" points="222,-345.2 222,-367.2 284,-367.2 284,-345.2 222,-345.2"/>
<text text-anchor="start" x="224.878" y="-352.9" font-family="Helvetica,sans-Serif" font-size="11.00" fill="#000000">unknown[0]</text>
<polygon fill="none" stroke="#000000" points="10,-323.2 10,-345.2 222,-345.2 222,-323.2 10,-323.2"/>
<text text-anchor="start" x="30" y="-330.3" font-family="Helvetica,sans-Serif" font-size="11.00" fill="#000000">database_id</text>
<polygon fill="none" stroke="#000000" points="222,-323.2 222,-345.2 284,-345.2 284,-323.2 222,-323.2"/>
<text text-anchor="start" x="224.878" y="-330.9" font-family="Helvetica,sans-Serif" font-size="11.00" fill="#000000">unknown[0]</text>
<polygon fill="none" stroke="#000000" points="10,-301.2 10,-323.2 222,-323.2 222,-301.2 10,-301.2"/>
<text text-anchor="start" x="30" y="-308.3" font-family="Helvetica,sans-Serif" font-size="11.00" fill="#000000">duration_average</text>
<polygon fill="none" stroke="#000000" points="222,-301.2 222,-323.2 284,-323.2 284,-301.2 222,-301.2"/>
<text text-anchor="start" x="224.878" y="-308.9" font-family="Helvetica,sans-Serif" font-size="11.00" fill="#000000">unknown[0]</text>
<polygon fill="none" stroke="#000000" points="10,-279.2 10,-301.2 222,-301.2 222,-279.2 10,-279.2"/>
<text text-anchor="start" x="30" y="-286.3" font-family="Helvetica,sans-Serif" font-size="11.00" fill="#000000">duration_max</text>
<polygon fill="none" stroke="#000000" points="222,-279.2 222,-301.2 284,-301.2 284,-279.2 222,-279.2"/>
<text text-anchor="start" x="224.878" y="-286.9" font-family="Helvetica,sans-Serif" font-size="11.00" fill="#000000">unknown[0]</text>
<polygon fill="none" stroke="#000000" points="10,-257.2 10,-279.2 222,-279.2 222,-257.2 10,-257.2"/>
<text text-anchor="start" x="30" y="-264.3" font-family="Helvetica,sans-Serif" font-size="11.00" fill="#000000">duration_median</text>
<polygon fill="none" stroke="#000000" points="222,-257.2 222,-279.2 284,-279.2 284,-257.2 222,-257.2"/>
<text text-anchor="start" x="224.878" y="-264.9" font-family="Helvetica,sans-Serif" font-size="11.00" fill="#000000">unknown[0]</text>
<polygon fill="none" stroke="#000000" points="10,-235.2 10,-257.2 222,-257.2 222,-235.2 10,-235.2"/>
<text text-anchor="start" x="30" y="-242.3" font-family="Helvetica,sans-Serif" font-size="11.00" fill="#000000">duration_min</text>
<polygon fill="none" stroke="#000000" points="222,-235.2 222,-257.2 284,-257.2 284,-235.2 222,-235.2"/>
<text text-anchor="start" x="224.878" y="-242.9" font-family="Helvetica,sans-Serif" font-size="11.00" fill="#000000">unknown[0]</text>
<polygon fill="none" stroke="#000000" points="10,-213.2 10,-235.2 222,-235.2 222,-213.2 10,-213.2"/>
<text text-anchor="start" x="30" y="-220.3" font-family="Helvetica,sans-Serif" font-size="11.00" fill="#000000">duration_q_1</text>
<polygon fill="none" stroke="#000000" points="222,-213.2 222,-235.2 284,-235.2 284,-213.2 222,-213.2"/>
<text text-anchor="start" x="224.878" y="-220.9" font-family="Helvetica,sans-Serif" font-size="11.00" fill="#000000">unknown[0]</text>
<polygon fill="none" stroke="#000000" points="10,-191.2 10,-213.2 222,-213.2 222,-191.2 10,-191.2"/>
<text text-anchor="start" x="30" y="-198.3" font-family="Helvetica,sans-Serif" font-size="11.00" fill="#000000">duration_q_2</text>
<polygon fill="none" stroke="#000000" points="222,-191.2 222,-213.2 284,-213.2 284,-191.2 222,-191.2"/>
<text text-anchor="start" x="224.878" y="-198.9" font-family="Helvetica,sans-Serif" font-size="11.00" fill="#000000">unknown[0]</text>
<polygon fill="none" stroke="#000000" points="10,-169.2 10,-191.2 222,-191.2 222,-169.2 10,-169.2"/>
<text text-anchor="start" x="30" y="-176.3" font-family="Helvetica,sans-Serif" font-size="11.00" fill="#000000">duration_sd</text>
<polygon fill="none" stroke="#000000" points="222,-169.2 222,-191.2 284,-191.2 284,-169.2 222,-169.2"/>
<text text-anchor="start" x="224.878" y="-176.9" font-family="Helvetica,sans-Serif" font-size="11.00" fill="#000000">unknown[0]</text>
<polygon fill="none" stroke="#000000" points="10,-147.2 10,-169.2 222,-169.2 222,-147.2 10,-147.2"/>
<text text-anchor="start" x="30" y="-154.3" font-family="Helvetica,sans-Serif" font-size="11.00" fill="#000000">event_count</text>
<polygon fill="none" stroke="#000000" points="222,-147.2 222,-169.2 284,-169.2 284,-147.2 222,-147.2"/>
<text text-anchor="start" x="224.878" y="-154.9" font-family="Helvetica,sans-Serif" font-size="11.00" fill="#000000">unknown[0]</text>
<polygon fill="none" stroke="#000000" points="10,-125.2 10,-147.2 222,-147.2 222,-125.2 10,-125.2"/>
<text text-anchor="start" x="30" y="-132.3" font-family="Helvetica,sans-Serif" font-size="11.00" fill="#000000">event_name</text>
<polygon fill="none" stroke="#000000" points="222,-125.2 222,-147.2 284,-147.2 284,-125.2 222,-125.2"/>
<text text-anchor="start" x="224.878" y="-132.9" font-family="Helvetica,sans-Serif" font-size="11.00" fill="#000000">unknown[0]</text>
<polygon fill="none" stroke="#000000" points="10,-103.2 10,-125.2 222,-125.2 222,-103.2 10,-103.2"/>
<text text-anchor="start" x="30" y="-110.3" font-family="Helvetica,sans-Serif" font-size="11.00" fill="#000000">line</text>
<polygon fill="none" stroke="#000000" points="222,-103.2 222,-125.2 284,-125.2 284,-103.2 222,-103.2"/>
<text text-anchor="start" x="224.878" y="-110.9" font-family="Helvetica,sans-Serif" font-size="11.00" fill="#000000">unknown[0]</text>
<polygon fill="none" stroke="#000000" points="10,-81.2 10,-103.2 222,-103.2 222,-81.2 10,-81.2"/>
<text text-anchor="start" x="30" y="-88.3" font-family="Helvetica,sans-Serif" font-size="11.00" fill="#000000">target_cohort_id</text>
<polygon fill="none" stroke="#000000" points="222,-81.2 222,-103.2 284,-103.2 284,-81.2 222,-81.2"/>
<text text-anchor="start" x="224.878" y="-88.9" font-family="Helvetica,sans-Serif" font-size="11.00" fill="#000000">unknown[0]</text>
<polygon fill="none" stroke="#000000" points="10,-59.2 10,-81.2 222,-81.2 222,-59.2 10,-59.2"/>
<text text-anchor="start" x="30" y="-66.3" font-family="Helvetica,sans-Serif" font-size="11.00" fill="#000000">target_cohort_name</text>
<polygon fill="none" stroke="#000000" points="222,-59.2 222,-81.2 284,-81.2 284,-59.2 222,-59.2"/>
<text text-anchor="start" x="224.878" y="-66.9" font-family="Helvetica,sans-Serif" font-size="11.00" fill="#000000">unknown[0]</text>
<polygon fill="#ffffff" stroke="transparent" points="10,-40.2 10,-59.2 107,-59.2 107,-40.2 10,-40.2"/>
<polygon fill="none" stroke="#000000" points="10,-40.2 10,-59.2 107,-59.2 107,-40.2 10,-40.2"/>
<text text-anchor="start" x="13" y="-46.3" font-family="Helvetica,sans-Serif" font-size="11.00" fill="#000000">&lt; 0</text>
<polygon fill="#ffffff" stroke="transparent" points="107,-40.2 107,-59.2 222,-59.2 222,-40.2 107,-40.2"/>
<polygon fill="none" stroke="#000000" points="107,-40.2 107,-59.2 222,-59.2 222,-40.2 107,-40.2"/>
<text text-anchor="start" x="186.6105" y="-46.3" font-family="Helvetica,sans-Serif" font-size="11.00" fill="#000000">0 rows</text>
<polygon fill="#ffffff" stroke="transparent" points="222,-40.2 222,-59.2 284,-59.2 284,-40.2 222,-40.2"/>
<polygon fill="none" stroke="#000000" points="222,-40.2 222,-59.2 284,-59.2 284,-40.2 222,-40.2"/>
<text text-anchor="start" x="265.4053" y="-46.3" font-family="Helvetica,sans-Serif" font-size="11.00" fill="#000000">0 &gt;</text>
<polygon fill="none" stroke="#000000" stroke-width="2" points="9,-39.2 9,-391.2 285,-391.2 285,-39.2 9,-39.2"/>
</a>
</g>
</g>
</g>
</svg>
